<?xml version="1.0" encoding="UTF-8" standalone="no"?>
<!DOCTYPE svg PUBLIC "-//W3C//DTD SVG 1.1//EN"
 "http://www.w3.org/Graphics/SVG/1.1/DTD/svg11.dtd">
<!-- Generated by graphviz version 2.26.3 (20100126.1600)
 -->
<!-- Title: G Pages: 1 -->
<svg width="418pt" height="262pt"
 viewBox="0.00 0.00 418.00 262.00" xmlns="http://www.w3.org/2000/svg" xmlns:xlink="http://www.w3.org/1999/xlink">
<g id="graph1" class="graph" transform="scale(1 1) rotate(0) translate(4 258)">
<title>G</title>
<polygon fill="white" stroke="white" points="-4,5 -4,-258 415,-258 415,5 -4,5"/>
<!-- Node1 -->
<g id="node1" class="node"><title>Node1</title>
<polygon fill="#bfbfbf" stroke="black" points="107.5,-232.5 107.5,-253.5 180.5,-253.5 180.5,-232.5 107.5,-232.5"/>
<text text-anchor="middle" x="144" y="-240.5" font-family="FreeSans.ttf" font-size="10.00">h/account.h</text>
</g>
<!-- Node2 -->
<g id="node3" class="node"><title>Node2</title>
<a xlink:href="socketclient_8h.xhtml" target="_top" xlink:title="The SocketClient class.">
<polygon fill="white" stroke="black" points="102.5,-174.5 102.5,-195.5 185.5,-195.5 185.5,-174.5 102.5,-174.5"/>
<text text-anchor="middle" x="144" y="-182.5" font-family="FreeSans.ttf" font-size="10.00">socketclient.h</text>
</a>
</g>
<!-- Node1&#45;&gt;Node2 -->
<g id="edge2" class="edge"><title>Node1&#45;&gt;Node2</title>
<path fill="none" stroke="midnightblue" d="M138.636,-232.362C137.319,-224.922 136.941,-214.743 137.5,-205.728"/>
<polygon fill="midnightblue" stroke="midnightblue" points="141.003,-205.9 138.648,-195.571 134.047,-205.114 141.003,-205.9"/>
</g>
<!-- Node2&#45;&gt;Node1 -->
<g id="edge8" class="edge"><title>Node2&#45;&gt;Node1</title>
<path fill="none" stroke="midnightblue" d="M149.352,-195.571C150.674,-202.994 151.059,-213.168 150.505,-222.191"/>
<polygon fill="midnightblue" stroke="midnightblue" points="147,-222.034 149.364,-232.362 153.957,-222.814 147,-222.034"/>
</g>
<!-- Node3 -->
<g id="node5" class="node"><title>Node3</title>
<polygon fill="white" stroke="#bfbfbf" points="-0.5,-116.5 -0.5,-137.5 46.5,-137.5 46.5,-116.5 -0.5,-116.5"/>
<text text-anchor="middle" x="23" y="-124.5" font-family="FreeSans.ttf" font-size="10.00">deque</text>
</g>
<!-- Node2&#45;&gt;Node3 -->
<g id="edge4" class="edge"><title>Node2&#45;&gt;Node3</title>
<path fill="none" stroke="midnightblue" d="M122.088,-174.497C103.189,-165.438 75.6688,-152.246 54.424,-142.063"/>
<polygon fill="midnightblue" stroke="midnightblue" points="55.6885,-138.788 45.1581,-137.621 52.6627,-145.1 55.6885,-138.788"/>
</g>
<!-- Node4 -->
<g id="node7" class="node"><title>Node4</title>
<polygon fill="white" stroke="#bfbfbf" points="63.5,-116.5 63.5,-137.5 116.5,-137.5 116.5,-116.5 63.5,-116.5"/>
<text text-anchor="middle" x="90" y="-124.5" font-family="FreeSans.ttf" font-size="10.00">netdb.h</text>
</g>
<!-- Node2&#45;&gt;Node4 -->
<g id="edge6" class="edge"><title>Node2&#45;&gt;Node4</title>
<path fill="none" stroke="midnightblue" d="M134.096,-174.362C126.484,-166.186 115.792,-154.702 106.843,-145.091"/>
<polygon fill="midnightblue" stroke="midnightblue" points="109.217,-142.505 99.8416,-137.571 104.094,-147.275 109.217,-142.505"/>
</g>
<!-- Node5 -->
<g id="node10" class="node"><title>Node5</title>
<a xlink:href="socket_8h.xhtml" target="_top" xlink:title="The Socket class.">
<polygon fill="white" stroke="black" points="226.5,-0.5 226.5,-21.5 283.5,-21.5 283.5,-0.5 226.5,-0.5"/>
<text text-anchor="middle" x="255" y="-8.5" font-family="FreeSans.ttf" font-size="10.00">socket.h</text>
</a>
</g>
<!-- Node2&#45;&gt;Node5 -->
<g id="edge10" class="edge"><title>Node2&#45;&gt;Node5</title>
<path fill="none" stroke="midnightblue" d="M142.554,-174.272C139.984,-150.78 137.096,-94.0174 163,-58 175.842,-40.1445 197.49,-28.6109 216.561,-21.4395"/>
<polygon fill="midnightblue" stroke="midnightblue" points="217.942,-24.665 226.239,-18.0766 215.645,-18.0528 217.942,-24.665"/>
</g>
<!-- Node6 -->
<g id="node12" class="node"><title>Node6</title>
<a xlink:href="server_8h.xhtml" target="_top" xlink:title="The Server class.">
<polygon fill="white" stroke="black" points="171.5,-116.5 171.5,-137.5 226.5,-137.5 226.5,-116.5 171.5,-116.5"/>
<text text-anchor="middle" x="199" y="-124.5" font-family="FreeSans.ttf" font-size="10.00">server.h</text>
</a>
</g>
<!-- Node2&#45;&gt;Node6 -->
<g id="edge12" class="edge"><title>Node2&#45;&gt;Node6</title>
<path fill="none" stroke="midnightblue" d="M148.724,-174.362C155.156,-166.023 166.03,-154.242 176.134,-144.516"/>
<polygon fill="midnightblue" stroke="midnightblue" points="178.671,-146.937 183.624,-137.571 173.912,-141.804 178.671,-146.937"/>
</g>
<!-- Node6&#45;&gt;Node2 -->
<g id="edge18" class="edge"><title>Node6&#45;&gt;Node2</title>
<path fill="none" stroke="midnightblue" d="M194.328,-137.571C187.92,-145.891 177.056,-157.668 166.948,-167.405"/>
<polygon fill="midnightblue" stroke="midnightblue" points="164.401,-164.994 159.452,-174.362 169.163,-170.125 164.401,-164.994"/>
</g>
<!-- Node7 -->
<g id="node14" class="node"><title>Node7</title>
<polygon fill="white" stroke="#bfbfbf" points="172,-58.5 172,-79.5 218,-79.5 218,-58.5 172,-58.5"/>
<text text-anchor="middle" x="195" y="-66.5" font-family="FreeSans.ttf" font-size="10.00">fcntl.h</text>
</g>
<!-- Node6&#45;&gt;Node7 -->
<g id="edge14" class="edge"><title>Node6&#45;&gt;Node7</title>
<path fill="none" stroke="midnightblue" d="M198.266,-116.362C197.753,-108.922 197.051,-98.7427 196.429,-89.7276"/>
<polygon fill="midnightblue" stroke="midnightblue" points="199.909,-89.3061 195.729,-79.5707 192.925,-89.7878 199.909,-89.3061"/>
</g>
<!-- Node8 -->
<g id="node16" class="node"><title>Node8</title>
<polygon fill="white" stroke="#bfbfbf" points="235.5,-58.5 235.5,-79.5 306.5,-79.5 306.5,-58.5 235.5,-58.5"/>
<text text-anchor="middle" x="271" y="-66.5" font-family="FreeSans.ttf" font-size="10.00">forward_list</text>
</g>
<!-- Node6&#45;&gt;Node8 -->
<g id="edge16" class="edge"><title>Node6&#45;&gt;Node8</title>
<path fill="none" stroke="midnightblue" d="M212.206,-116.362C222.761,-107.859 237.758,-95.7785 249.963,-85.9466"/>
<polygon fill="midnightblue" stroke="midnightblue" points="252.286,-88.5696 257.878,-79.5707 247.895,-83.1183 252.286,-88.5696"/>
</g>
<!-- Node9 -->
<g id="node19" class="node"><title>Node9</title>
<a xlink:href="socketserver_8h.xhtml" target="_top" xlink:title="The SocketServer class.">
<polygon fill="white" stroke="black" points="324,-58.5 324,-79.5 410,-79.5 410,-58.5 324,-58.5"/>
<text text-anchor="middle" x="367" y="-66.5" font-family="FreeSans.ttf" font-size="10.00">socketserver.h</text>
</a>
</g>
<!-- Node6&#45;&gt;Node9 -->
<g id="edge20" class="edge"><title>Node6&#45;&gt;Node9</title>
<path fill="none" stroke="midnightblue" d="M226.742,-117.422C253.989,-108.016 295.851,-93.5633 326.754,-82.8946"/>
<polygon fill="midnightblue" stroke="midnightblue" points="328.059,-86.1467 336.369,-79.5749 325.775,-79.5299 328.059,-86.1467"/>
</g>
<!-- Node9&#45;&gt;Node5 -->
<g id="edge22" class="edge"><title>Node9&#45;&gt;Node5</title>
<path fill="none" stroke="midnightblue" d="M346.718,-58.4966C329.382,-49.5194 304.21,-36.4835 284.62,-26.3387"/>
<polygon fill="midnightblue" stroke="midnightblue" points="285.999,-23.1118 275.51,-21.6212 282.78,-29.3278 285.999,-23.1118"/>
</g>
</g>
</svg>
