<?xml version="1.0" encoding="UTF-8" standalone="no"?>
<!DOCTYPE svg PUBLIC "-//W3C//DTD SVG 1.1//EN"
 "http://www.w3.org/Graphics/SVG/1.1/DTD/svg11.dtd">
<!-- Generated by graphviz version 2.26.3 (20100126.1600)
 -->
<!-- Title: Thing::AddThing Pages: 1 -->
<svg width="1260pt" height="675pt"
 viewBox="0.00 0.00 1260.00 675.29" xmlns="http://www.w3.org/2000/svg" xmlns:xlink="http://www.w3.org/1999/xlink">
<g id="graph1" class="graph" transform="scale(1 1) rotate(0) translate(4 671.289)">
<title>Thing::AddThing</title>
<polygon fill="white" stroke="white" points="-4,5 -4,-671.289 1257,-671.289 1257,5 -4,5"/>
<!-- Node1 -->
<g id="node1" class="node"><title>Node1</title>
<polygon fill="#bfbfbf" stroke="black" points="0,-384.289 0,-404.289 92,-404.289 92,-384.289 0,-384.289"/>
<text text-anchor="middle" x="46" y="-391.289" font-family="FreeSans.ttf" font-size="10.00">Thing::AddThing</text>
</g>
<!-- Node2 -->
<g id="node3" class="node"><title>Node2</title>
<a xlink:href="classThing.xhtml#a46dfe09e636299cd0bf1bc9c37aaebf4" target="_top" xlink:title="Moves a Thing from within one Location to another Location.">
<polygon fill="white" stroke="black" points="128,-384.289 128,-404.289 202,-404.289 202,-384.289 128,-384.289"/>
<text text-anchor="middle" x="165" y="-391.289" font-family="FreeSans.ttf" font-size="10.00">Thing::Move</text>
</a>
</g>
<!-- Node1&#45;&gt;Node2 -->
<g id="edge2" class="edge"><title>Node1&#45;&gt;Node2</title>
<path fill="none" stroke="midnightblue" d="M102.187,-394.289C110.934,-394.289 119.776,-394.289 127.955,-394.289"/>
<polygon fill="midnightblue" stroke="midnightblue" points="102.009,-390.789 92.0085,-394.289 102.008,-397.789 102.009,-390.789"/>
</g>
<!-- Node3 -->
<g id="node5" class="node"><title>Node3</title>
<a xlink:href="classCharacter.xhtml#ad51f5ff0cfefa9bd7e674bc413f6b73c" target="_top" xlink:title="Interprets cmd with args at level security.">
<polygon fill="white" stroke="black" points="396.5,-577.289 396.5,-597.289 507.5,-597.289 507.5,-577.289 396.5,-577.289"/>
<text text-anchor="middle" x="452" y="-584.289" font-family="FreeSans.ttf" font-size="10.00">Character::Interpret</text>
</a>
</g>
<!-- Node2&#45;&gt;Node3 -->
<g id="edge4" class="edge"><title>Node2&#45;&gt;Node3</title>
<path fill="none" stroke="midnightblue" d="M188.393,-410.02C245.4,-448.356 390.253,-545.765 437.122,-577.284"/>
<polygon fill="midnightblue" stroke="midnightblue" points="190.278,-407.069 180.026,-404.393 186.371,-412.878 190.278,-407.069"/>
</g>
<!-- Node8 -->
<g id="node15" class="node"><title>Node8</title>
<a xlink:href="namespaceHandler.xhtml#a571519b889d3750c63b9dc3418449bcb" target="_top" xlink:title="Places the character loaded against the account into the game world.">
<polygon fill="white" stroke="black" points="238.5,-331.289 238.5,-351.289 353.5,-351.289 353.5,-331.289 238.5,-331.289"/>
<text text-anchor="middle" x="296" y="-338.289" font-family="FreeSans.ttf" font-size="10.00">Handler::EnterGame</text>
</a>
</g>
<!-- Node2&#45;&gt;Node8 -->
<g id="edge14" class="edge"><title>Node2&#45;&gt;Node8</title>
<path fill="none" stroke="midnightblue" d="M199.477,-380.34C221.992,-371.231 250.866,-359.549 271.144,-351.345"/>
<polygon fill="midnightblue" stroke="midnightblue" points="197.906,-377.2 189.948,-384.195 200.531,-383.689 197.906,-377.2"/>
</g>
<!-- Node4 -->
<g id="node7" class="node"><title>Node4</title>
<a xlink:href="classSocketClient.xhtml#ad4f63c7d906310dc56a1217136047d7f" target="_top" xlink:title="Interpret the command at the front of the queue.">
<polygon fill="white" stroke="black" points="555,-647.289 555,-667.289 725,-667.289 725,-647.289 555,-647.289"/>
<text text-anchor="middle" x="640" y="-654.289" font-family="FreeSans.ttf" font-size="10.00">SocketClient::ProcessCommand</text>
</a>
</g>
<!-- Node3&#45;&gt;Node4 -->
<g id="edge6" class="edge"><title>Node3&#45;&gt;Node4</title>
<path fill="none" stroke="midnightblue" d="M476.779,-602.596C496.096,-613.925 523.931,-628.951 550,-638.289 559.772,-641.789 570.384,-644.737 580.779,-647.187"/>
<polygon fill="midnightblue" stroke="midnightblue" points="478.406,-599.491 468.025,-597.373 474.819,-605.503 478.406,-599.491"/>
</g>
<!-- Node5 -->
<g id="node9" class="node"><title>Node5</title>
<a xlink:href="namespaceServer.xhtml#a2b4cec469bb99c2a45e49de5ba74d1ae" target="_top" xlink:title="Processes input from all active SocketClient objects.">
<polygon fill="white" stroke="black" points="932,-628.289 932,-648.289 1048,-648.289 1048,-628.289 932,-628.289"/>
<text text-anchor="middle" x="990" y="-635.289" font-family="FreeSans.ttf" font-size="10.00">Server::ProcessInput</text>
</a>
</g>
<!-- Node4&#45;&gt;Node5 -->
<g id="edge8" class="edge"><title>Node4&#45;&gt;Node5</title>
<path fill="none" stroke="midnightblue" d="M735.496,-652.105C798.328,-648.694 878.523,-644.34 931.931,-641.441"/>
<polygon fill="midnightblue" stroke="midnightblue" points="734.968,-648.628 725.172,-652.665 735.347,-655.618 734.968,-648.628"/>
</g>
<!-- Node6 -->
<g id="node11" class="node"><title>Node6</title>
<a xlink:href="namespaceServer.xhtml#a50b81aa91d8fdaee6f52c5c5ec987990" target="_top" xlink:title="The core update loop of NAMS. This loop spawns all other subsystem update routines and then sleeps fo...">
<polygon fill="white" stroke="black" points="1084.5,-552.289 1084.5,-572.289 1173.5,-572.289 1173.5,-552.289 1084.5,-552.289"/>
<text text-anchor="middle" x="1129" y="-559.289" font-family="FreeSans.ttf" font-size="10.00">Server::Update</text>
</a>
</g>
<!-- Node5&#45;&gt;Node6 -->
<g id="edge10" class="edge"><title>Node5&#45;&gt;Node6</title>
<path fill="none" stroke="midnightblue" d="M1017.56,-623.22C1045.09,-608.168 1086.65,-585.446 1110.47,-572.423"/>
<polygon fill="midnightblue" stroke="midnightblue" points="1015.55,-620.328 1008.46,-628.196 1018.91,-626.47 1015.55,-620.328"/>
</g>
<!-- Node7 -->
<g id="node13" class="node"><title>Node7</title>
<a xlink:href="main_8cpp.xhtml#ad53223b8779f25caeddb70a3b9172967" target="_top" xlink:title="The default function required to execute the server.">
<polygon fill="white" stroke="black" points="1210.5,-533.289 1210.5,-553.289 1251.5,-553.289 1251.5,-533.289 1210.5,-533.289"/>
<text text-anchor="middle" x="1231" y="-540.289" font-family="FreeSans.ttf" font-size="10.00">main</text>
</a>
</g>
<!-- Node6&#45;&gt;Node7 -->
<g id="edge12" class="edge"><title>Node6&#45;&gt;Node7</title>
<path fill="none" stroke="midnightblue" d="M1183.64,-552.11C1193.14,-550.341 1202.47,-548.604 1210.3,-547.145"/>
<polygon fill="midnightblue" stroke="midnightblue" points="1182.93,-548.683 1173.74,-553.955 1184.21,-555.565 1182.93,-548.683"/>
</g>
<!-- Node9 -->
<g id="node17" class="node"><title>Node9</title>
<a xlink:href="namespaceHandler.xhtml#a139febc000c9d767a620708148e0c888" target="_top" xlink:title="Dispatches the appropriate menu based on client state.">
<polygon fill="white" stroke="black" points="390.5,-331.289 390.5,-351.289 513.5,-351.289 513.5,-331.289 390.5,-331.289"/>
<text text-anchor="middle" x="452" y="-338.289" font-family="FreeSans.ttf" font-size="10.00">Handler::LoginHandler</text>
</a>
</g>
<!-- Node8&#45;&gt;Node9 -->
<g id="edge16" class="edge"><title>Node8&#45;&gt;Node9</title>
<path fill="none" stroke="midnightblue" d="M363.887,-341.289C372.704,-341.289 381.696,-341.289 390.402,-341.289"/>
<polygon fill="midnightblue" stroke="midnightblue" points="363.645,-337.789 353.645,-341.289 363.645,-344.789 363.645,-337.789"/>
</g>
<!-- Node25 -->
<g id="node63" class="node"><title>Node25</title>
<a xlink:href="namespaceServer.xhtml#a16ea0639731dee10e1a253375b508a02" target="_top" xlink:title="Recovers the server state and re&#45;connects client sockets after a reboot.">
<polygon fill="white" stroke="black" points="766,-514.289 766,-534.289 896,-534.289 896,-514.289 766,-514.289"/>
<text text-anchor="middle" x="831" y="-521.289" font-family="FreeSans.ttf" font-size="10.00">Server::RebootRecovery</text>
</a>
</g>
<!-- Node8&#45;&gt;Node25 -->
<g id="edge90" class="edge"><title>Node8&#45;&gt;Node25</title>
<path fill="none" stroke="midnightblue" d="M304.552,-321.702C330.975,-264.009 417.595,-94.8472 550,-32.2887 622.333,1.88704 668.004,18.2732 730,-32.2887 808.555,-96.3554 827.73,-449.869 830.589,-514.232"/>
<polygon fill="midnightblue" stroke="midnightblue" points="301.224,-320.57 300.321,-331.126 307.61,-323.437 301.224,-320.57"/>
</g>
<!-- Node9&#45;&gt;Node4 -->
<g id="edge88" class="edge"><title>Node9&#45;&gt;Node4</title>
<path fill="none" stroke="midnightblue" d="M457.379,-361.377C474.582,-424.989 528.388,-618.945 550,-638.289 553.927,-641.803 558.337,-644.728 563.04,-647.155"/>
<polygon fill="midnightblue" stroke="midnightblue" points="460.671,-360.141 454.691,-351.394 453.912,-361.961 460.671,-360.141"/>
</g>
<!-- Node10 -->
<g id="node19" class="node"><title>Node10</title>
<a xlink:href="namespaceHandler.xhtml#a33a19d69ead678af81fbe96907eceaf0" target="_top" xlink:title="Create a new account object, or load an existing one, with a name and password.">
<polygon fill="white" stroke="black" points="574.5,-495.289 574.5,-515.289 705.5,-515.289 705.5,-495.289 574.5,-495.289"/>
<text text-anchor="middle" x="640" y="-502.289" font-family="FreeSans.ttf" font-size="10.00">Handler::AttachAccount</text>
</a>
</g>
<!-- Node9&#45;&gt;Node10 -->
<g id="edge18" class="edge"><title>Node9&#45;&gt;Node10</title>
<path fill="none" stroke="midnightblue" d="M461.927,-360.511C476.221,-390.62 505.835,-447.573 550,-477.289 564.839,-487.273 583.921,-492.158 600.692,-495.248"/>
<polygon fill="midnightblue" stroke="midnightblue" points="465.076,-358.982 457.668,-351.408 458.735,-361.948 465.076,-358.982"/>
</g>
<!-- Node11 -->
<g id="node22" class="node"><title>Node11</title>
<a xlink:href="namespaceHandler.xhtml#a2e4ebf6ed049eb872aa4948d54c4932c" target="_top" xlink:title="Attempt to write a new character to disk after creation was completed.">
<polygon fill="white" stroke="black" points="570.5,-457.289 570.5,-477.289 709.5,-477.289 709.5,-457.289 570.5,-457.289"/>
<text text-anchor="middle" x="640" y="-464.289" font-family="FreeSans.ttf" font-size="10.00">Handler::AttachCharacter</text>
</a>
</g>
<!-- Node9&#45;&gt;Node11 -->
<g id="edge22" class="edge"><title>Node9&#45;&gt;Node11</title>
<path fill="none" stroke="midnightblue" d="M468.024,-359.629C485.218,-382.198 514.849,-419.225 550,-439.289 567.336,-449.184 589.2,-453.946 607.037,-457.276"/>
<polygon fill="midnightblue" stroke="midnightblue" points="470.679,-357.337 461.851,-351.479 465.099,-361.563 470.679,-357.337"/>
</g>
<!-- Node12 -->
<g id="node25" class="node"><title>Node12</title>
<a xlink:href="namespaceHandler.xhtml#a73ed6064f2698dbffb5f4c247a02b661" target="_top" xlink:title="Send initial account interface menu.">
<polygon fill="white" stroke="black" points="566,-419.289 566,-439.289 714,-439.289 714,-419.289 566,-419.289"/>
<text text-anchor="middle" x="640" y="-426.289" font-family="FreeSans.ttf" font-size="10.00">Handler::AccountMenuMain</text>
</a>
</g>
<!-- Node9&#45;&gt;Node12 -->
<g id="edge26" class="edge"><title>Node9&#45;&gt;Node12</title>
<path fill="none" stroke="midnightblue" d="M479.502,-357.601C498.196,-371.35 524.144,-390.027 550,-401.289 570.79,-410.344 596.207,-415.199 614.722,-419.264"/>
<polygon fill="midnightblue" stroke="midnightblue" points="481.324,-354.596 471.195,-351.488 477.175,-360.234 481.324,-354.596"/>
</g>
<!-- Node13 -->
<g id="node28" class="node"><title>Node13</title>
<a xlink:href="namespaceHandler.xhtml#ad04998a7a6ece2486bc441052a57c2d7" target="_top" xlink:title="Main Character creation menu.">
<polygon fill="white" stroke="black" points="570,-369.289 570,-401.289 710,-401.289 710,-369.289 570,-369.289"/>
<text text-anchor="start" x="578" y="-388.289" font-family="FreeSans.ttf" font-size="10.00">Handler::CharacterCreate</text>
<text text-anchor="middle" x="640" y="-376.289" font-family="FreeSans.ttf" font-size="10.00">MenuMain</text>
</a>
</g>
<!-- Node9&#45;&gt;Node13 -->
<g id="edge30" class="edge"><title>Node9&#45;&gt;Node13</title>
<path fill="none" stroke="midnightblue" d="M523.522,-351.452C547.97,-356.788 574.573,-363.269 596.174,-369.222"/>
<polygon fill="midnightblue" stroke="midnightblue" points="524.07,-347.99 513.558,-349.317 522.603,-354.835 524.07,-347.99"/>
</g>
<!-- Node14 -->
<g id="node31" class="node"><title>Node14</title>
<a xlink:href="namespaceHandler.xhtml#ab5889a65de2794129b375ec39ae923ae" target="_top" xlink:title="Select a new Character name.">
<polygon fill="white" stroke="black" points="555.5,-331.289 555.5,-351.289 724.5,-351.289 724.5,-331.289 555.5,-331.289"/>
<text text-anchor="middle" x="640" y="-338.289" font-family="FreeSans.ttf" font-size="10.00">Handler::CharacterCreateName</text>
</a>
</g>
<!-- Node9&#45;&gt;Node14 -->
<g id="edge34" class="edge"><title>Node9&#45;&gt;Node14</title>
<path fill="none" stroke="midnightblue" d="M523.765,-334.709C534.119,-334.548 544.856,-334.501 555.431,-334.569"/>
<polygon fill="midnightblue" stroke="midnightblue" points="523.488,-331.214 513.558,-334.909 523.625,-338.213 523.488,-331.214"/>
</g>
<!-- Node15 -->
<g id="node34" class="node"><title>Node15</title>
<a xlink:href="namespaceHandler.xhtml#ae5086bcf5857eb572beedd09158c3065" target="_top" xlink:title="Select a new Character sex.">
<polygon fill="white" stroke="black" points="561,-293.289 561,-313.289 719,-313.289 719,-293.289 561,-293.289"/>
<text text-anchor="middle" x="640" y="-300.289" font-family="FreeSans.ttf" font-size="10.00">Handler::CharacterCreateSex</text>
</a>
</g>
<!-- Node9&#45;&gt;Node15 -->
<g id="edge38" class="edge"><title>Node9&#45;&gt;Node15</title>
<path fill="none" stroke="midnightblue" d="M487.689,-328.646C508.438,-323.359 535.452,-317.484 560.958,-312.592"/>
<polygon fill="midnightblue" stroke="midnightblue" points="486.524,-325.334 477.746,-331.268 488.308,-332.102 486.524,-325.334"/>
</g>
<!-- Node16 -->
<g id="node37" class="node"><title>Node16</title>
<a xlink:href="namespaceHandler.xhtml#a97a198bfc72285b2aca4f36978db715e" target="_top" xlink:title="Main Character deletion confirmation.">
<polygon fill="white" stroke="black" points="570.5,-243.289 570.5,-275.289 709.5,-275.289 709.5,-243.289 570.5,-243.289"/>
<text text-anchor="start" x="578.5" y="-262.289" font-family="FreeSans.ttf" font-size="10.00">Handler::CharacterDelete</text>
<text text-anchor="middle" x="640" y="-250.289" font-family="FreeSans.ttf" font-size="10.00">Confirm</text>
</a>
</g>
<!-- Node9&#45;&gt;Node16 -->
<g id="edge42" class="edge"><title>Node9&#45;&gt;Node16</title>
<path fill="none" stroke="midnightblue" d="M467.574,-324.134C486.378,-308.96 519.311,-288.223 550,-275.289 556.426,-272.58 563.232,-270.077 570.11,-267.828"/>
<polygon fill="midnightblue" stroke="midnightblue" points="465.051,-321.688 459.768,-330.871 469.625,-326.987 465.051,-321.688"/>
</g>
<!-- Node17 -->
<g id="node40" class="node"><title>Node17</title>
<a xlink:href="namespaceHandler.xhtml#afc470ec6e82b7a9a1560588a368734f9" target="_top" xlink:title="Main Character deletion menu.">
<polygon fill="white" stroke="black" points="570.5,-193.289 570.5,-225.289 709.5,-225.289 709.5,-193.289 570.5,-193.289"/>
<text text-anchor="start" x="578.5" y="-212.289" font-family="FreeSans.ttf" font-size="10.00">Handler::CharacterDelete</text>
<text text-anchor="middle" x="640" y="-200.289" font-family="FreeSans.ttf" font-size="10.00">MenuMain</text>
</a>
</g>
<!-- Node9&#45;&gt;Node17 -->
<g id="edge46" class="edge"><title>Node9&#45;&gt;Node17</title>
<path fill="none" stroke="midnightblue" d="M460.745,-322.075C476.027,-295.705 509.823,-249.928 550,-225.289 556.221,-221.474 563.036,-218.227 570.043,-215.517"/>
<polygon fill="midnightblue" stroke="midnightblue" points="457.515,-320.689 455.82,-331.147 463.667,-324.029 457.515,-320.689"/>
</g>
<!-- Node18 -->
<g id="node43" class="node"><title>Node18</title>
<a xlink:href="namespaceHandler.xhtml#a02b1b954749641ab646f6548a5360d3b" target="_top" xlink:title="Main Character load menu.">
<polygon fill="white" stroke="black" points="550.5,-155.289 550.5,-175.289 729.5,-175.289 729.5,-155.289 550.5,-155.289"/>
<text text-anchor="middle" x="640" y="-162.289" font-family="FreeSans.ttf" font-size="10.00">Handler::CharacterLoadMenuMain</text>
</a>
</g>
<!-- Node9&#45;&gt;Node18 -->
<g id="edge50" class="edge"><title>Node9&#45;&gt;Node18</title>
<path fill="none" stroke="midnightblue" d="M456.857,-321.305C467.887,-285.404 497.984,-211.675 550,-175.289 550.131,-175.197 550.262,-175.106 550.394,-175.015"/>
<polygon fill="midnightblue" stroke="midnightblue" points="453.426,-320.573 454.043,-331.149 460.157,-322.497 453.426,-320.573"/>
</g>
<!-- Node19 -->
<g id="node46" class="node"><title>Node19</title>
<a xlink:href="namespaceHandler.xhtml#a00bc24564bfd267e0329643c569da1e4" target="_top" xlink:title="Select a new account name.">
<polygon fill="white" stroke="black" points="571.5,-117.289 571.5,-137.289 708.5,-137.289 708.5,-117.289 571.5,-117.289"/>
<text text-anchor="middle" x="640" y="-124.289" font-family="FreeSans.ttf" font-size="10.00">Handler::GetNewAccount</text>
</a>
</g>
<!-- Node9&#45;&gt;Node19 -->
<g id="edge54" class="edge"><title>Node9&#45;&gt;Node19</title>
<path fill="none" stroke="midnightblue" d="M455.044,-321.12C463.185,-279.224 489.116,-184.208 550,-137.289 556.325,-132.415 563.612,-128.72 571.244,-125.997"/>
<polygon fill="midnightblue" stroke="midnightblue" points="451.591,-320.547 453.275,-331.007 458.481,-321.78 451.591,-320.547"/>
</g>
<!-- Node20 -->
<g id="node49" class="node"><title>Node20</title>
<a xlink:href="namespaceHandler.xhtml#a744adadcf407cdb3a9c33365afd5a7c2" target="_top" xlink:title="Create a new account.">
<polygon fill="white" stroke="black" points="569,-79.2887 569,-99.2887 711,-99.2887 711,-79.2887 569,-79.2887"/>
<text text-anchor="middle" x="640" y="-86.2887" font-family="FreeSans.ttf" font-size="10.00">Handler::GetNewPassword</text>
</a>
</g>
<!-- Node9&#45;&gt;Node20 -->
<g id="edge58" class="edge"><title>Node9&#45;&gt;Node20</title>
<path fill="none" stroke="midnightblue" d="M453.704,-321.021C459.126,-273.704 479.982,-157.119 550,-99.2887 555.541,-94.7124 561.914,-91.1579 568.657,-88.4562"/>
<polygon fill="midnightblue" stroke="midnightblue" points="450.194,-320.936 452.658,-331.241 457.158,-321.649 450.194,-320.936"/>
</g>
<!-- Node21 -->
<g id="node52" class="node"><title>Node21</title>
<a xlink:href="namespaceHandler.xhtml#adfe13cc9748392348f3941656a1323b6" target="_top" xlink:title="Compare a received password against an existing account.">
<polygon fill="white" stroke="black" points="571.5,-41.2887 571.5,-61.2887 708.5,-61.2887 708.5,-41.2887 571.5,-41.2887"/>
<text text-anchor="middle" x="640" y="-48.2887" font-family="FreeSans.ttf" font-size="10.00">Handler::GetOldPassword</text>
</a>
</g>
<!-- Node9&#45;&gt;Node21 -->
<g id="edge62" class="edge"><title>Node9&#45;&gt;Node21</title>
<path fill="none" stroke="midnightblue" d="M452.655,-321.241C455.488,-269.154 470.523,-130.425 550,-61.2887 556.145,-55.9434 563.413,-51.9738 571.114,-49.115"/>
<polygon fill="midnightblue" stroke="midnightblue" points="449.158,-321.099 452.207,-331.246 456.151,-321.412 449.158,-321.099"/>
</g>
<!-- Node22 -->
<g id="node55" class="node"><title>Node22</title>
<a xlink:href="namespaceHandler.xhtml#ae70e4e50054c729c14493eafefe01b5c" target="_top" xlink:title="Load a character from the account to enter into the game with.">
<polygon fill="white" stroke="black" points="574.5,-609.289 574.5,-629.289 705.5,-629.289 705.5,-609.289 574.5,-609.289"/>
<text text-anchor="middle" x="640" y="-616.289" font-family="FreeSans.ttf" font-size="10.00">Handler::LoadCharacter</text>
</a>
</g>
<!-- Node9&#45;&gt;Node22 -->
<g id="edge66" class="edge"><title>Node9&#45;&gt;Node22</title>
<path fill="none" stroke="midnightblue" d="M453.743,-361.359C458.781,-409.272 478.016,-529.597 550,-591.289 561.398,-601.057 576.56,-606.214 591.185,-609.273"/>
<polygon fill="midnightblue" stroke="midnightblue" points="457.217,-360.923 452.785,-351.299 450.249,-361.586 457.217,-360.923"/>
</g>
<!-- Node23 -->
<g id="node58" class="node"><title>Node23</title>
<a xlink:href="namespaceHandler.xhtml#a44b41bf69fdc6e615a029bea34910191" target="_top" xlink:title="Send initial greeting and request for account name.">
<polygon fill="white" stroke="black" points="580.5,-571.289 580.5,-591.289 699.5,-591.289 699.5,-571.289 580.5,-571.289"/>
<text text-anchor="middle" x="640" y="-578.289" font-family="FreeSans.ttf" font-size="10.00">Handler::LoginScreen</text>
</a>
</g>
<!-- Node9&#45;&gt;Node23 -->
<g id="edge70" class="edge"><title>Node9&#45;&gt;Node23</title>
<path fill="none" stroke="midnightblue" d="M455.705,-361.818C463.828,-404.711 487.723,-502.852 550,-553.289 562.162,-563.138 578.201,-568.231 593.367,-571.271"/>
<polygon fill="midnightblue" stroke="midnightblue" points="459.103,-360.939 453.889,-351.716 452.213,-362.178 459.103,-360.939"/>
</g>
<!-- Node24 -->
<g id="node61" class="node"><title>Node24</title>
<a xlink:href="classSocketClient.xhtml#a8399ef20292e9f3ec83b5c4bec2e105b" target="_top" xlink:title="Build a SocketClient for a new client connection and set all attributes.">
<polygon fill="white" stroke="black" points="588.5,-533.289 588.5,-553.289 691.5,-553.289 691.5,-533.289 588.5,-533.289"/>
<text text-anchor="middle" x="640" y="-540.289" font-family="FreeSans.ttf" font-size="10.00">SocketClient::New</text>
</a>
</g>
<!-- Node9&#45;&gt;Node24 -->
<g id="edge74" class="edge"><title>Node9&#45;&gt;Node24</title>
<path fill="none" stroke="midnightblue" d="M456.782,-361.527C466.927,-399.773 494.372,-482.56 550,-524.289 560.986,-532.53 574.748,-537.378 588.18,-540.183"/>
<polygon fill="midnightblue" stroke="midnightblue" points="460.114,-360.425 454.273,-351.585 453.327,-362.138 460.114,-360.425"/>
</g>
<!-- Node10&#45;&gt;Node9 -->
<g id="edge20" class="edge"><title>Node10&#45;&gt;Node9</title>
<path fill="none" stroke="midnightblue" d="M564.673,-503.093C559.509,-500.937 554.555,-498.353 550,-495.289 495.296,-458.483 462.917,-379.889 454.322,-351.315"/>
<polygon fill="midnightblue" stroke="midnightblue" points="563.56,-506.412 574.155,-506.521 565.941,-499.829 563.56,-506.412"/>
</g>
<!-- Node11&#45;&gt;Node9 -->
<g id="edge24" class="edge"><title>Node11&#45;&gt;Node9</title>
<path fill="none" stroke="midnightblue" d="M560.701,-462.549C557.002,-460.986 553.413,-459.237 550,-457.289 503.839,-430.94 467.196,-375.337 455.741,-351.563"/>
<polygon fill="midnightblue" stroke="midnightblue" points="559.492,-465.833 570.085,-466.055 561.942,-459.276 559.492,-465.833"/>
</g>
<!-- Node12&#45;&gt;Node9 -->
<g id="edge28" class="edge"><title>Node12&#45;&gt;Node9</title>
<path fill="none" stroke="midnightblue" d="M555.704,-421.626C553.771,-420.881 551.867,-420.102 550,-419.289 511.464,-402.505 472.726,-369.247 458.098,-351.542"/>
<polygon fill="midnightblue" stroke="midnightblue" points="554.977,-425.08 565.571,-425.075 557.286,-418.472 554.977,-425.08"/>
</g>
<!-- Node13&#45;&gt;Node9 -->
<g id="edge32" class="edge"><title>Node13&#45;&gt;Node9</title>
<path fill="none" stroke="midnightblue" d="M559.829,-373.21C529.068,-366.303 496.286,-357.941 475.052,-351.298"/>
<polygon fill="midnightblue" stroke="midnightblue" points="559.209,-376.657 569.728,-375.397 560.719,-369.822 559.209,-376.657"/>
</g>
<!-- Node14&#45;&gt;Node9 -->
<g id="edge36" class="edge"><title>Node14&#45;&gt;Node9</title>
<path fill="none" stroke="midnightblue" d="M545.154,-348.038C534.421,-348.032 523.702,-347.909 513.558,-347.668"/>
<polygon fill="midnightblue" stroke="midnightblue" points="545.441,-351.538 555.431,-348.008 545.421,-344.538 545.441,-351.538"/>
</g>
<!-- Node15&#45;&gt;Node9 -->
<g id="edge40" class="edge"><title>Node15&#45;&gt;Node9</title>
<path fill="none" stroke="midnightblue" d="M603.974,-316.017C578.42,-322.515 543.488,-329.886 513.558,-335.225"/>
<polygon fill="midnightblue" stroke="midnightblue" points="605.184,-319.318 613.964,-313.389 603.403,-312.548 605.184,-319.318"/>
</g>
<!-- Node16&#45;&gt;Node9 -->
<g id="edge44" class="edge"><title>Node16&#45;&gt;Node9</title>
<path fill="none" stroke="midnightblue" d="M593.732,-278.284C579.449,-282.57 563.841,-287.455 550,-293.289 524.426,-304.067 497.294,-320.264 478.079,-331.137"/>
<polygon fill="midnightblue" stroke="midnightblue" points="594.789,-281.622 603.371,-275.409 592.788,-274.914 594.789,-281.622"/>
</g>
<!-- Node17&#45;&gt;Node9 -->
<g id="edge48" class="edge"><title>Node17&#45;&gt;Node9</title>
<path fill="none" stroke="midnightblue" d="M584.197,-228.347C572.386,-232.152 560.368,-236.93 550,-243.289 511.132,-267.125 478.236,-310.744 462.297,-331.075"/>
<polygon fill="midnightblue" stroke="midnightblue" points="585.474,-231.617 594.029,-225.366 583.443,-224.918 585.474,-231.617"/>
</g>
<!-- Node18&#45;&gt;Node9 -->
<g id="edge52" class="edge"><title>Node18&#45;&gt;Node9</title>
<path fill="none" stroke="midnightblue" d="M589.335,-177.355C575.655,-180.502 561.477,-185.26 550,-193.289 497.869,-229.756 467.754,-303.731 456.784,-331.215"/>
<polygon fill="midnightblue" stroke="midnightblue" points="590.078,-180.775 599.163,-175.324 588.662,-173.92 590.078,-180.775"/>
</g>
<!-- Node19&#45;&gt;Node9 -->
<g id="edge56" class="edge"><title>Node19&#45;&gt;Node9</title>
<path fill="none" stroke="midnightblue" d="M585.08,-139.586C572.607,-142.747 560.081,-147.52 550,-155.289 488.477,-202.701 462.644,-299.223 454.793,-331.178"/>
<polygon fill="midnightblue" stroke="midnightblue" points="586.024,-142.961 595.023,-137.37 584.501,-136.129 586.024,-142.961"/>
</g>
<!-- Node20&#45;&gt;Node9 -->
<g id="edge60" class="edge"><title>Node20&#45;&gt;Node9</title>
<path fill="none" stroke="midnightblue" d="M582.497,-101.687C570.783,-104.873 559.235,-109.662 550,-117.289 478.946,-175.975 458.52,-295.168 453.473,-331.14"/>
<polygon fill="midnightblue" stroke="midnightblue" points="583.403,-105.07 592.328,-99.3617 581.791,-98.2577 583.403,-105.07"/>
</g>
<!-- Node21&#45;&gt;Node9 -->
<g id="edge64" class="edge"><title>Node21&#45;&gt;Node9</title>
<path fill="none" stroke="midnightblue" d="M580.765,-63.7391C569.568,-66.9473 558.667,-71.7497 550,-79.2887 469.221,-149.558 455.013,-291.718 452.525,-331.216"/>
<polygon fill="midnightblue" stroke="midnightblue" points="581.763,-67.0979 590.631,-61.3015 580.084,-60.3022 581.763,-67.0979"/>
</g>
<!-- Node22&#45;&gt;Node9 -->
<g id="edge68" class="edge"><title>Node22&#45;&gt;Node9</title>
<path fill="none" stroke="midnightblue" d="M565.015,-618.811C559.599,-616.291 554.505,-613.15 550,-609.289 467.865,-538.897 454.405,-392.169 452.35,-351.556"/>
<polygon fill="midnightblue" stroke="midnightblue" points="563.8,-622.094 574.387,-622.485 566.354,-615.577 563.8,-622.094"/>
</g>
<!-- Node23&#45;&gt;Node9 -->
<g id="edge72" class="edge"><title>Node23&#45;&gt;Node9</title>
<path fill="none" stroke="midnightblue" d="M570.657,-582.744C563.194,-579.982 556.108,-576.235 550,-571.289 477.266,-512.383 456.885,-388.406 452.84,-351.473"/>
<polygon fill="midnightblue" stroke="midnightblue" points="569.677,-586.105 580.265,-585.731 571.755,-579.42 569.677,-586.105"/>
</g>
<!-- Node24&#45;&gt;Node25 -->
<g id="edge76" class="edge"><title>Node24&#45;&gt;Node25</title>
<path fill="none" stroke="midnightblue" d="M701.85,-537.136C722.343,-535.097 745.207,-532.823 765.935,-530.761"/>
<polygon fill="midnightblue" stroke="midnightblue" points="701.292,-533.674 691.687,-538.147 701.985,-540.64 701.292,-533.674"/>
</g>
<!-- Node27 -->
<g id="node68" class="node"><title>Node27</title>
<a xlink:href="classSocketServer.xhtml#afdbc60c3bc840875d2214b59c6213f63" target="_top" xlink:title="Accept a new connection on the listening port.">
<polygon fill="white" stroke="black" points="771,-552.289 771,-572.289 891,-572.289 891,-552.289 771,-552.289"/>
<text text-anchor="middle" x="831" y="-559.289" font-family="FreeSans.ttf" font-size="10.00">SocketServer::Accept</text>
</a>
</g>
<!-- Node24&#45;&gt;Node27 -->
<g id="edge82" class="edge"><title>Node24&#45;&gt;Node27</title>
<path fill="none" stroke="midnightblue" d="M701.653,-549.422C723.816,-551.626 748.772,-554.109 770.809,-556.301"/>
<polygon fill="midnightblue" stroke="midnightblue" points="701.985,-545.938 691.687,-548.43 701.292,-552.903 701.985,-545.938"/>
</g>
<!-- Node26 -->
<g id="node65" class="node"><title>Node26</title>
<a xlink:href="namespaceServer.xhtml#a19a1e493e1fb50a56d9c77332543d565" target="_top" xlink:title="Start the NAMS Server. Responsible for calling all critical boot&#45;time functions such as SocketServer ...">
<polygon fill="white" stroke="black" points="1084,-514.289 1084,-534.289 1174,-534.289 1174,-514.289 1084,-514.289"/>
<text text-anchor="middle" x="1129" y="-521.289" font-family="FreeSans.ttf" font-size="10.00">Server::Startup</text>
</a>
</g>
<!-- Node25&#45;&gt;Node26 -->
<g id="edge78" class="edge"><title>Node25&#45;&gt;Node26</title>
<path fill="none" stroke="midnightblue" d="M906.262,-524.289C962.281,-524.289 1036.89,-524.289 1083.95,-524.289"/>
<polygon fill="midnightblue" stroke="midnightblue" points="906.029,-520.789 896.029,-524.289 906.029,-527.789 906.029,-520.789"/>
</g>
<!-- Node26&#45;&gt;Node7 -->
<g id="edge80" class="edge"><title>Node26&#45;&gt;Node7</title>
<path fill="none" stroke="midnightblue" d="M1183.9,-534.516C1193.36,-536.278 1202.64,-538.007 1210.43,-539.457"/>
<polygon fill="midnightblue" stroke="midnightblue" points="1184.51,-531.068 1174.04,-532.678 1183.23,-537.95 1184.51,-531.068"/>
</g>
<!-- Node28 -->
<g id="node70" class="node"><title>Node28</title>
<a xlink:href="namespaceServer.xhtml#a39dbe16fdc8c5f6fbd678c6540fbcd6c" target="_top" xlink:title="Poll all SocketClient objects that are communicating with the associated SocketServer object...">
<polygon fill="white" stroke="black" points="935.5,-552.289 935.5,-572.289 1044.5,-572.289 1044.5,-552.289 935.5,-552.289"/>
<text text-anchor="middle" x="990" y="-559.289" font-family="FreeSans.ttf" font-size="10.00">Server::PollSockets</text>
</a>
</g>
<!-- Node27&#45;&gt;Node28 -->
<g id="edge84" class="edge"><title>Node27&#45;&gt;Node28</title>
<path fill="none" stroke="midnightblue" d="M901.438,-562.289C912.788,-562.289 924.389,-562.289 935.297,-562.289"/>
<polygon fill="midnightblue" stroke="midnightblue" points="901.111,-558.789 891.111,-562.289 901.111,-565.789 901.111,-558.789"/>
</g>
<!-- Node28&#45;&gt;Node6 -->
<g id="edge86" class="edge"><title>Node28&#45;&gt;Node6</title>
<path fill="none" stroke="midnightblue" d="M1054.57,-562.289C1064.69,-562.289 1074.94,-562.289 1084.47,-562.289"/>
<polygon fill="midnightblue" stroke="midnightblue" points="1054.54,-558.789 1044.54,-562.289 1054.54,-565.789 1054.54,-558.789"/>
</g>
</g>
</svg>
