<?xml version="1.0" encoding="UTF-8" standalone="no"?>
<!DOCTYPE svg PUBLIC "-//W3C//DTD SVG 1.1//EN"
 "http://www.w3.org/Graphics/SVG/1.1/DTD/svg11.dtd">
<!-- Generated by graphviz version 2.26.3 (20100126.1600)
 -->
<!-- Title: SocketClient::PendingCommand Pages: 1 -->
<svg width="536pt" height="28pt"
 viewBox="0.00 0.00 536.00 28.00" xmlns="http://www.w3.org/2000/svg" xmlns:xlink="http://www.w3.org/1999/xlink">
<g id="graph1" class="graph" transform="scale(1 1) rotate(0) translate(4 24)">
<title>SocketClient::PendingCommand</title>
<polygon fill="white" stroke="white" points="-4,5 -4,-24 533,-24 533,5 -4,5"/>
<!-- Node1 -->
<g id="node1" class="node"><title>Node1</title>
<polygon fill="#bfbfbf" stroke="black" points="0.5,-0 0.5,-20 171.5,-20 171.5,-0 0.5,-0"/>
<text text-anchor="middle" x="86" y="-7" font-family="FreeSans.ttf" font-size="10.00">SocketClient::PendingCommand</text>
</g>
<!-- Node2 -->
<g id="node3" class="node"><title>Node2</title>
<a xlink:href="namespaceServer.xhtml#a2b4cec469bb99c2a45e49de5ba74d1ae" target="_top" xlink:title="Processes input from all active SocketClient objects.">
<polygon fill="white" stroke="black" points="208,-0 208,-20 324,-20 324,-0 208,-0"/>
<text text-anchor="middle" x="266" y="-7" font-family="FreeSans.ttf" font-size="10.00">Server::ProcessInput</text>
</a>
</g>
<!-- Node1&#45;&gt;Node2 -->
<g id="edge2" class="edge"><title>Node1&#45;&gt;Node2</title>
<path fill="none" stroke="midnightblue" d="M181.645,-10C190.602,-10 199.485,-10 207.936,-10"/>
<polygon fill="midnightblue" stroke="midnightblue" points="181.519,-6.5001 171.519,-10 181.519,-13.5001 181.519,-6.5001"/>
</g>
<!-- Node3 -->
<g id="node5" class="node"><title>Node3</title>
<a xlink:href="namespaceServer.xhtml#a50b81aa91d8fdaee6f52c5c5ec987990" target="_top" xlink:title="The core update loop of NAMS. This loop spawns all other subsystem update routines and then sleeps fo...">
<polygon fill="white" stroke="black" points="360.5,-0 360.5,-20 449.5,-20 449.5,-0 360.5,-0"/>
<text text-anchor="middle" x="405" y="-7" font-family="FreeSans.ttf" font-size="10.00">Server::Update</text>
</a>
</g>
<!-- Node2&#45;&gt;Node3 -->
<g id="edge4" class="edge"><title>Node2&#45;&gt;Node3</title>
<path fill="none" stroke="midnightblue" d="M334.39,-10C343.156,-10 351.945,-10 360.2,-10"/>
<polygon fill="midnightblue" stroke="midnightblue" points="334.143,-6.5001 324.143,-10 334.143,-13.5001 334.143,-6.5001"/>
</g>
<!-- Node4 -->
<g id="node7" class="node"><title>Node4</title>
<a xlink:href="main_8cpp.xhtml#ad53223b8779f25caeddb70a3b9172967" target="_top" xlink:title="The default function required to execute the server.">
<polygon fill="white" stroke="black" points="486.5,-0 486.5,-20 527.5,-20 527.5,-0 486.5,-0"/>
<text text-anchor="middle" x="507" y="-7" font-family="FreeSans.ttf" font-size="10.00">main</text>
</a>
</g>
<!-- Node3&#45;&gt;Node4 -->
<g id="edge6" class="edge"><title>Node3&#45;&gt;Node4</title>
<path fill="none" stroke="midnightblue" d="M459.942,-10C469.336,-10 478.55,-10 486.3,-10"/>
<polygon fill="midnightblue" stroke="midnightblue" points="459.739,-6.5001 449.739,-10 459.739,-13.5001 459.739,-6.5001"/>
</g>
</g>
</svg>
