<?xml version="1.0" encoding="UTF-8" standalone="no"?>
<!DOCTYPE svg PUBLIC "-//W3C//DTD SVG 1.1//EN"
 "http://www.w3.org/Graphics/SVG/1.1/DTD/svg11.dtd">
<!-- Generated by graphviz version 2.26.3 (20100126.1600)
 -->
<!-- Title: G Pages: 1 -->
<!--zoomable 603 -->
<svg id="main" version="1.1" xmlns="http://www.w3.org/2000/svg" xmlns:xlink="http://www.w3.org/1999/xlink" xml:space="preserve" onload="init(evt)">
        <defs>
                <circle id="rim" cx="0" cy="0" r="7"/>
                <circle id="rim2" cx="0" cy="0" r="3.5"/>
                <g id="zoomPlus">
                        <use xlink:href="#rim" fill="#404040">
                                <set attributeName="fill" to="#808080" begin="zoomplus.mouseover" end="zoomplus.mouseout"/>
                        </use>
                        <path d="M-4,0h8M0,-4v8" fill="none" stroke="white" stroke-width="1.5" pointer-events="none"/>
                </g>
                <g id="zoomMin">
                        <use xlink:href="#rim" fill="#404040">
                                <set attributeName="fill" to="#808080" begin="zoomminus.mouseover" end="zoomminus.mouseout"/>
                        </use>
                        <path d="M-4,0h8" fill="none" stroke="white" stroke-width="1.5" pointer-events="none"/>
                </g>
                <g id="dirArrow">
                        <path fill="none" stroke="white" stroke-width="1.5" d="M0,-3.0v7 M-2.5,-0.5L0,-3.0L2.5,-0.5"/>
                </g>
               <g id="resetDef">
                       <use xlink:href="#rim2" fill="#404040">
                               <set attributeName="fill" to="#808080" begin="reset.mouseover" end="reset.mouseout"/>
                       </use>
               </g>
        </defs>

<script type="text/javascript">
var viewWidth = 1264;
var viewHeight = 603;
var sectionId = 'dynsection-4';
</script>
<script xlink:href="svgpan.js"/>
<svg id="graph" class="graph">
<g id="viewport">
<title>G</title>
<polygon fill="white" stroke="white" points="-4,5 -4,-599.115 1261,-599.115 1261,5 -4,5"/>
<!-- Node1 -->
<g id="node1" class="node"><title>Node1</title>
<polygon fill="#bfbfbf" stroke="black" points="0,-402.615 0,-423.615 134,-423.615 134,-402.615 0,-402.615"/>
<text text-anchor="middle" x="67" y="-410.615" font-family="FreeSans.ttf" font-size="10.00">Account::ClearCharacter</text>
</g>
<!-- Node2 -->
<g id="node3" class="node"><title>Node2</title>
<a xlink:href="namespaceHandler.xhtml#a2e4ebf6ed049eb872aa4948d54c4932c" target="_top" xlink:title="Attempt to write a new character to disk after creation was completed.">
<polygon fill="white" stroke="black" points="170.5,-333.615 170.5,-354.615 309.5,-354.615 309.5,-333.615 170.5,-333.615"/>
<text text-anchor="middle" x="240" y="-341.615" font-family="FreeSans.ttf" font-size="10.00">Handler::AttachCharacter</text>
</a>
</g>
<!-- Node1&#45;&gt;Node2 -->
<g id="edge2" class="edge"><title>Node1&#45;&gt;Node2</title>
<path fill="none" stroke="midnightblue" d="M102.947,-398.778C135.933,-385.622 184.032,-366.438 213.601,-354.644"/>
<polygon fill="midnightblue" stroke="midnightblue" points="101.644,-395.529 93.6521,-402.485 104.237,-402.031 101.644,-395.529"/>
</g>
<!-- Node6 -->
<g id="node14" class="node"><title>Node6</title>
<a xlink:href="namespaceHandler.xhtml#ad04998a7a6ece2486bc441052a57c2d7" target="_top" xlink:title="Main Character creation menu.">
<polygon fill="white" stroke="black" points="506,-573.615 506,-594.615 694,-594.615 694,-573.615 506,-573.615"/>
<text text-anchor="middle" x="600" y="-581.615" font-family="FreeSans.ttf" font-size="10.00">Handler::CharacterCreateMenuMain</text>
</a>
</g>
<!-- Node1&#45;&gt;Node6 -->
<g id="edge82" class="edge"><title>Node1&#45;&gt;Node6</title>
<path fill="none" stroke="midnightblue" d="M103.282,-427.282C177.826,-456.011 353.994,-521.97 506,-564.115 518.541,-567.592 532.166,-570.807 545.051,-573.597"/>
<polygon fill="midnightblue" stroke="midnightblue" points="104.457,-423.984 93.8673,-423.643 101.933,-430.513 104.457,-423.984"/>
</g>
<!-- Node3 -->
<g id="node5" class="node"><title>Node3</title>
<a xlink:href="namespaceHandler.xhtml#a139febc000c9d767a620708148e0c888" target="_top" xlink:title="Dispatches the appropriate menu based on client state.">
<polygon fill="white" stroke="black" points="346.5,-333.615 346.5,-354.615 469.5,-354.615 469.5,-333.615 346.5,-333.615"/>
<text text-anchor="middle" x="408" y="-341.615" font-family="FreeSans.ttf" font-size="10.00">Handler::LoginHandler</text>
</a>
</g>
<!-- Node2&#45;&gt;Node3 -->
<g id="edge4" class="edge"><title>Node2&#45;&gt;Node3</title>
<path fill="none" stroke="midnightblue" d="M319.841,-337.372C328.789,-337.341 337.8,-337.411 346.467,-337.584"/>
<polygon fill="midnightblue" stroke="midnightblue" points="319.76,-333.873 309.788,-337.452 319.815,-340.873 319.76,-333.873"/>
</g>
<!-- Node3&#45;&gt;Node2 -->
<g id="edge10" class="edge"><title>Node3&#45;&gt;Node2</title>
<path fill="none" stroke="midnightblue" d="M336.271,-350.801C327.495,-350.893 318.535,-350.886 309.788,-350.778"/>
<polygon fill="midnightblue" stroke="midnightblue" points="336.521,-354.297 346.467,-350.646 336.415,-347.298 336.521,-354.297"/>
</g>
<!-- Node4 -->
<g id="node7" class="node"><title>Node4</title>
<a xlink:href="namespaceHandler.xhtml#a33a19d69ead678af81fbe96907eceaf0" target="_top" xlink:title="Create a new account object, or load an existing one, with a name and password.">
<polygon fill="white" stroke="black" points="534.5,-533.615 534.5,-554.615 665.5,-554.615 665.5,-533.615 534.5,-533.615"/>
<text text-anchor="middle" x="600" y="-541.615" font-family="FreeSans.ttf" font-size="10.00">Handler::AttachAccount</text>
</a>
</g>
<!-- Node3&#45;&gt;Node4 -->
<g id="edge6" class="edge"><title>Node3&#45;&gt;Node4</title>
<path fill="none" stroke="midnightblue" d="M420.063,-363.845C443.073,-406.851 492.175,-504.802 506,-515.115 519.373,-525.092 536.642,-530.326 552.722,-533.537"/>
<polygon fill="midnightblue" stroke="midnightblue" points="423.035,-361.983 415.19,-354.862 416.882,-365.321 423.035,-361.983"/>
</g>
<!-- Node5 -->
<g id="node11" class="node"><title>Node5</title>
<a xlink:href="namespaceHandler.xhtml#a73ed6064f2698dbffb5f4c247a02b661" target="_top" xlink:title="Send initial account interface menu.">
<polygon fill="white" stroke="black" points="526,-493.615 526,-514.615 674,-514.615 674,-493.615 526,-493.615"/>
<text text-anchor="middle" x="600" y="-501.615" font-family="FreeSans.ttf" font-size="10.00">Handler::AccountMenuMain</text>
</a>
</g>
<!-- Node3&#45;&gt;Node5 -->
<g id="edge12" class="edge"><title>Node3&#45;&gt;Node5</title>
<path fill="none" stroke="midnightblue" d="M419.051,-364.201C433.925,-393.584 463.513,-446.983 506,-475.115 521.164,-485.155 540.456,-490.272 557.612,-493.531"/>
<polygon fill="midnightblue" stroke="midnightblue" points="422.003,-362.277 414.407,-354.89 415.739,-365.401 422.003,-362.277"/>
</g>
<!-- Node3&#45;&gt;Node6 -->
<g id="edge16" class="edge"><title>Node3&#45;&gt;Node6</title>
<path fill="none" stroke="midnightblue" d="M422.137,-363.726C435.236,-386.762 454.915,-425.533 470,-460.115 488.053,-501.501 471.732,-525.714 506,-555.115 517.397,-564.893 532.398,-570.268 547.061,-573.518"/>
<polygon fill="midnightblue" stroke="midnightblue" points="425.029,-361.739 416.958,-354.875 418.987,-365.274 425.029,-361.739"/>
</g>
<!-- Node7 -->
<g id="node17" class="node"><title>Node7</title>
<a xlink:href="namespaceHandler.xhtml#ab5889a65de2794129b375ec39ae923ae" target="_top" xlink:title="Select a new Character name.">
<polygon fill="white" stroke="black" points="515.5,-453.615 515.5,-474.615 684.5,-474.615 684.5,-453.615 515.5,-453.615"/>
<text text-anchor="middle" x="600" y="-461.615" font-family="FreeSans.ttf" font-size="10.00">Handler::CharacterCreateName</text>
</a>
</g>
<!-- Node3&#45;&gt;Node7 -->
<g id="edge20" class="edge"><title>Node3&#45;&gt;Node7</title>
<path fill="none" stroke="midnightblue" d="M425.879,-362.541C443.55,-383.602 472.713,-416.819 506,-435.115 523.985,-445 546.387,-450.003 564.81,-453.532"/>
<polygon fill="midnightblue" stroke="midnightblue" points="428.561,-360.294 419.466,-354.861 423.188,-364.78 428.561,-360.294"/>
</g>
<!-- Node8 -->
<g id="node20" class="node"><title>Node8</title>
<a xlink:href="namespaceHandler.xhtml#ae5086bcf5857eb572beedd09158c3065" target="_top" xlink:title="Select a new Character sex.">
<polygon fill="white" stroke="black" points="521,-413.615 521,-434.615 679,-434.615 679,-413.615 521,-413.615"/>
<text text-anchor="middle" x="600" y="-421.615" font-family="FreeSans.ttf" font-size="10.00">Handler::CharacterCreateSex</text>
</a>
</g>
<!-- Node3&#45;&gt;Node8 -->
<g id="edge24" class="edge"><title>Node3&#45;&gt;Node8</title>
<path fill="none" stroke="midnightblue" d="M440.699,-360.067C459.079,-371.446 482.91,-385.906 506,-395.115 528.162,-403.954 554.895,-409.159 574.178,-413.6"/>
<polygon fill="midnightblue" stroke="midnightblue" points="442.486,-357.057 432.142,-354.765 438.799,-363.007 442.486,-357.057"/>
</g>
<!-- Node9 -->
<g id="node23" class="node"><title>Node9</title>
<a xlink:href="namespaceHandler.xhtml#a97a198bfc72285b2aca4f36978db715e" target="_top" xlink:title="Main Character deletion confirmation.">
<polygon fill="white" stroke="black" points="512,-373.615 512,-394.615 688,-394.615 688,-373.615 512,-373.615"/>
<text text-anchor="middle" x="600" y="-381.615" font-family="FreeSans.ttf" font-size="10.00">Handler::CharacterDeleteConfirm</text>
</a>
</g>
<!-- Node3&#45;&gt;Node9 -->
<g id="edge28" class="edge"><title>Node3&#45;&gt;Node9</title>
<path fill="none" stroke="midnightblue" d="M479.487,-352.458C512.004,-358.692 548.543,-366.861 572.775,-373.562"/>
<polygon fill="midnightblue" stroke="midnightblue" points="480.017,-348.996 469.542,-350.589 478.724,-355.876 480.017,-348.996"/>
</g>
<!-- Node10 -->
<g id="node26" class="node"><title>Node10</title>
<a xlink:href="namespaceHandler.xhtml#afc470ec6e82b7a9a1560588a368734f9" target="_top" xlink:title="Main Character deletion menu.">
<polygon fill="white" stroke="black" points="506,-333.615 506,-354.615 694,-354.615 694,-333.615 506,-333.615"/>
<text text-anchor="middle" x="600" y="-341.615" font-family="FreeSans.ttf" font-size="10.00">Handler::CharacterDeleteMenuMain</text>
</a>
</g>
<!-- Node3&#45;&gt;Node10 -->
<g id="edge32" class="edge"><title>Node3&#45;&gt;Node10</title>
<path fill="none" stroke="midnightblue" d="M479.8,-337.559C488.337,-337.42 497.146,-337.355 505.935,-337.366"/>
<polygon fill="midnightblue" stroke="midnightblue" points="479.469,-334.065 469.542,-337.767 479.611,-341.064 479.469,-334.065"/>
</g>
<!-- Node11 -->
<g id="node29" class="node"><title>Node11</title>
<a xlink:href="namespaceHandler.xhtml#a02b1b954749641ab646f6548a5360d3b" target="_top" xlink:title="Main Character load menu.">
<polygon fill="white" stroke="black" points="510.5,-293.615 510.5,-314.615 689.5,-314.615 689.5,-293.615 510.5,-293.615"/>
<text text-anchor="middle" x="600" y="-301.615" font-family="FreeSans.ttf" font-size="10.00">Handler::CharacterLoadMenuMain</text>
</a>
</g>
<!-- Node3&#45;&gt;Node11 -->
<g id="edge36" class="edge"><title>Node3&#45;&gt;Node11</title>
<path fill="none" stroke="midnightblue" d="M445,-330.95C465.599,-325.613 492.116,-319.677 517.373,-314.638"/>
<polygon fill="midnightblue" stroke="midnightblue" points="443.858,-327.632 435.102,-333.596 445.666,-334.394 443.858,-327.632"/>
</g>
<!-- Node12 -->
<g id="node32" class="node"><title>Node12</title>
<a xlink:href="namespaceHandler.xhtml#a00bc24564bfd267e0329643c569da1e4" target="_top" xlink:title="Select a new account name.">
<polygon fill="white" stroke="black" points="531.5,-253.615 531.5,-274.615 668.5,-274.615 668.5,-253.615 531.5,-253.615"/>
<text text-anchor="middle" x="600" y="-261.615" font-family="FreeSans.ttf" font-size="10.00">Handler::GetNewAccount</text>
</a>
</g>
<!-- Node3&#45;&gt;Node12 -->
<g id="edge40" class="edge"><title>Node3&#45;&gt;Node12</title>
<path fill="none" stroke="midnightblue" d="M423.094,-326.231C441.631,-310.007 474.505,-287.677 506,-275.115 514.059,-271.901 522.722,-269.167 531.412,-266.927"/>
<polygon fill="midnightblue" stroke="midnightblue" points="420.556,-323.812 415.641,-333.199 425.336,-328.926 420.556,-323.812"/>
</g>
<!-- Node13 -->
<g id="node35" class="node"><title>Node13</title>
<a xlink:href="namespaceHandler.xhtml#a744adadcf407cdb3a9c33365afd5a7c2" target="_top" xlink:title="Create a new account.">
<polygon fill="white" stroke="black" points="529,-213.615 529,-234.615 671,-234.615 671,-213.615 529,-213.615"/>
<text text-anchor="middle" x="600" y="-221.615" font-family="FreeSans.ttf" font-size="10.00">Handler::GetNewPassword</text>
</a>
</g>
<!-- Node3&#45;&gt;Node13 -->
<g id="edge44" class="edge"><title>Node3&#45;&gt;Node13</title>
<path fill="none" stroke="midnightblue" d="M417.257,-324.834C432.844,-299.503 466.522,-256.814 506,-235.115 513.018,-231.257 520.71,-228.143 528.574,-225.689"/>
<polygon fill="midnightblue" stroke="midnightblue" points="414.158,-323.201 412.195,-333.613 420.222,-326.698 414.158,-323.201"/>
</g>
<!-- Node14 -->
<g id="node38" class="node"><title>Node14</title>
<a xlink:href="namespaceHandler.xhtml#adfe13cc9748392348f3941656a1323b6" target="_top" xlink:title="Compare a received password against an existing account.">
<polygon fill="white" stroke="black" points="531.5,-173.615 531.5,-194.615 668.5,-194.615 668.5,-173.615 531.5,-173.615"/>
<text text-anchor="middle" x="600" y="-181.615" font-family="FreeSans.ttf" font-size="10.00">Handler::GetOldPassword</text>
</a>
</g>
<!-- Node3&#45;&gt;Node14 -->
<g id="edge48" class="edge"><title>Node3&#45;&gt;Node14</title>
<path fill="none" stroke="midnightblue" d="M414.015,-323.968C426.474,-290.908 458.008,-226.892 506,-195.115 513.651,-190.049 522.354,-186.236 531.303,-183.462"/>
<polygon fill="midnightblue" stroke="midnightblue" points="410.667,-322.939 410.643,-333.534 417.268,-325.266 410.667,-322.939"/>
</g>
<!-- Node15 -->
<g id="node41" class="node"><title>Node15</title>
<a xlink:href="namespaceHandler.xhtml#ae70e4e50054c729c14493eafefe01b5c" target="_top" xlink:title="Load a character from the account to enter into the game with.">
<polygon fill="white" stroke="black" points="534.5,-133.615 534.5,-154.615 665.5,-154.615 665.5,-133.615 534.5,-133.615"/>
<text text-anchor="middle" x="600" y="-141.615" font-family="FreeSans.ttf" font-size="10.00">Handler::LoadCharacter</text>
</a>
</g>
<!-- Node3&#45;&gt;Node15 -->
<g id="edge52" class="edge"><title>Node3&#45;&gt;Node15</title>
<path fill="none" stroke="midnightblue" d="M411.803,-323.551C421.181,-283.749 448.909,-197.705 506,-155.115 514.292,-148.93 524.08,-144.567 534.155,-141.635"/>
<polygon fill="midnightblue" stroke="midnightblue" points="408.35,-322.96 409.636,-333.476 415.189,-324.453 408.35,-322.96"/>
</g>
<!-- Node16 -->
<g id="node44" class="node"><title>Node16</title>
<a xlink:href="namespaceHandler.xhtml#a44b41bf69fdc6e615a029bea34910191" target="_top" xlink:title="Send initial greeting and request for account name.">
<polygon fill="white" stroke="black" points="540.5,-93.6151 540.5,-114.615 659.5,-114.615 659.5,-93.6151 540.5,-93.6151"/>
<text text-anchor="middle" x="600" y="-101.615" font-family="FreeSans.ttf" font-size="10.00">Handler::LoginScreen</text>
</a>
</g>
<!-- Node3&#45;&gt;Node16 -->
<g id="edge56" class="edge"><title>Node3&#45;&gt;Node16</title>
<path fill="none" stroke="midnightblue" d="M410.179,-323.504C416.596,-277.778 439.358,-169.082 506,-115.115 515.725,-107.24 527.82,-102.263 540.061,-99.3873"/>
<polygon fill="midnightblue" stroke="midnightblue" points="406.702,-323.102 408.909,-333.465 413.646,-323.987 406.702,-323.102"/>
</g>
<!-- Node17 -->
<g id="node47" class="node"><title>Node17</title>
<a xlink:href="classSocketClient.xhtml#a8399ef20292e9f3ec83b5c4bec2e105b" target="_top" xlink:title="Build a SocketClient for a new client connection and set all attributes.">
<polygon fill="white" stroke="black" points="548.5,-53.6151 548.5,-74.6151 651.5,-74.6151 651.5,-53.6151 548.5,-53.6151"/>
<text text-anchor="middle" x="600" y="-61.6151" font-family="FreeSans.ttf" font-size="10.00">SocketClient::New</text>
</a>
</g>
<!-- Node3&#45;&gt;Node17 -->
<g id="edge60" class="edge"><title>Node3&#45;&gt;Node17</title>
<path fill="none" stroke="midnightblue" d="M409.332,-323.292C413.68,-273.672 431.843,-147.854 506,-84.1151 517.641,-74.1096 533.055,-68.7125 548.027,-65.9038"/>
<polygon fill="midnightblue" stroke="midnightblue" points="405.829,-323.195 408.547,-333.435 412.808,-323.735 405.829,-323.195"/>
</g>
<!-- Node24 -->
<g id="node62" class="node"><title>Node24</title>
<a xlink:href="classSocketClient.xhtml#ad4f63c7d906310dc56a1217136047d7f" target="_top" xlink:title="Interpret the command at the front of the queue.">
<polygon fill="white" stroke="black" points="730,-13.6151 730,-34.6151 900,-34.6151 900,-13.6151 730,-13.6151"/>
<text text-anchor="middle" x="815" y="-21.6151" font-family="FreeSans.ttf" font-size="10.00">SocketClient::ProcessCommand</text>
</a>
</g>
<!-- Node3&#45;&gt;Node24 -->
<g id="edge76" class="edge"><title>Node3&#45;&gt;Node24</title>
<path fill="none" stroke="midnightblue" d="M411.729,-323.156C423.248,-260.966 460.254,-79.6076 506,-44.1151 584.151,16.5193 709.59,0.323755 773.967,-13.5825"/>
<polygon fill="midnightblue" stroke="midnightblue" points="408.227,-322.854 409.879,-333.319 415.114,-324.108 408.227,-322.854"/>
</g>
<!-- Node4&#45;&gt;Node3 -->
<g id="edge8" class="edge"><title>Node4&#45;&gt;Node3</title>
<path fill="none" stroke="midnightblue" d="M524.373,-543.233C517.818,-540.604 511.571,-537.271 506,-533.115 490.1,-521.254 427.538,-393.472 411.673,-354.777"/>
<polygon fill="midnightblue" stroke="midnightblue" points="523.56,-546.655 534.155,-546.595 525.836,-540.035 523.56,-546.655"/>
</g>
<!-- Node5&#45;&gt;Node3 -->
<g id="edge14" class="edge"><title>Node5&#45;&gt;Node3</title>
<path fill="none" stroke="midnightblue" d="M516.579,-499.063C512.896,-497.308 509.347,-495.332 506,-493.115 452.814,-457.899 419.841,-383.088 410.643,-354.697"/>
<polygon fill="midnightblue" stroke="midnightblue" points="515.393,-502.36 525.969,-502.977 518.086,-495.899 515.393,-502.36"/>
</g>
<!-- Node6&#45;&gt;Node3 -->
<g id="edge18" class="edge"><title>Node6&#45;&gt;Node3</title>
<path fill="none" stroke="midnightblue" d="M498.836,-566.223C474.178,-539.626 486.572,-516.106 470,-478.115 449.757,-431.71 421.243,-377.761 411.455,-354.618"/>
<polygon fill="midnightblue" stroke="midnightblue" points="496.735,-569.057 506.381,-573.439 501.574,-563.998 496.735,-569.057"/>
</g>
<!-- Node7&#45;&gt;Node3 -->
<g id="edge22" class="edge"><title>Node7&#45;&gt;Node3</title>
<path fill="none" stroke="midnightblue" d="M506.274,-453.265C506.183,-453.215 506.091,-453.165 506,-453.115 461.478,-428.644 424.333,-377.478 412.195,-354.618"/>
<polygon fill="midnightblue" stroke="midnightblue" points="504.564,-456.325 515.087,-457.556 507.628,-450.032 504.564,-456.325"/>
</g>
<!-- Node8&#45;&gt;Node3 -->
<g id="edge26" class="edge"><title>Node8&#45;&gt;Node3</title>
<path fill="none" stroke="midnightblue" d="M511.026,-415.03C509.328,-414.412 507.651,-413.774 506,-413.115 469.681,-398.63 431.53,-371.154 415.641,-355.032"/>
<polygon fill="midnightblue" stroke="midnightblue" points="510.341,-418.492 520.935,-418.348 512.564,-411.854 510.341,-418.492"/>
</g>
<!-- Node9&#45;&gt;Node3 -->
<g id="edge30" class="edge"><title>Node9&#45;&gt;Node3</title>
<path fill="none" stroke="midnightblue" d="M507.29,-371.547C480.894,-366.104 454.167,-359.912 435.102,-354.634"/>
<polygon fill="midnightblue" stroke="midnightblue" points="506.877,-375.034 517.373,-373.593 508.269,-368.174 506.877,-375.034"/>
</g>
<!-- Node10&#45;&gt;Node3 -->
<g id="edge34" class="edge"><title>Node10&#45;&gt;Node3</title>
<path fill="none" stroke="midnightblue" d="M495.802,-350.843C486.848,-350.795 477.99,-350.668 469.542,-350.463"/>
<polygon fill="midnightblue" stroke="midnightblue" points="495.927,-354.343 505.935,-350.864 495.942,-347.343 495.927,-354.343"/>
</g>
<!-- Node11&#45;&gt;Node3 -->
<g id="edge38" class="edge"><title>Node11&#45;&gt;Node3</title>
<path fill="none" stroke="midnightblue" d="M562.793,-317.334C536.353,-324.176 500.238,-331.994 469.542,-337.641"/>
<polygon fill="midnightblue" stroke="midnightblue" points="564.017,-320.63 572.775,-314.668 562.21,-313.867 564.017,-320.63"/>
</g>
<!-- Node12&#45;&gt;Node3 -->
<g id="edge42" class="edge"><title>Node12&#45;&gt;Node3</title>
<path fill="none" stroke="midnightblue" d="M564.389,-276.835C546.449,-280.832 524.612,-285.692 506,-293.115 479.132,-303.831 451.26,-321.657 432.142,-333.465"/>
<polygon fill="midnightblue" stroke="midnightblue" points="565.191,-280.242 574.178,-274.63 563.653,-273.413 565.191,-280.242"/>
</g>
<!-- Node13&#45;&gt;Node3 -->
<g id="edge46" class="edge"><title>Node13&#45;&gt;Node3</title>
<path fill="none" stroke="midnightblue" d="M555.001,-236.666C538.817,-240.091 520.894,-244.929 506,-253.115 468.295,-273.839 435.881,-313.71 419.466,-333.37"/>
<polygon fill="midnightblue" stroke="midnightblue" points="555.694,-240.096 564.81,-234.698 554.317,-233.233 555.694,-240.096"/>
</g>
<!-- Node14&#45;&gt;Node3 -->
<g id="edge50" class="edge"><title>Node14&#45;&gt;Node3</title>
<path fill="none" stroke="midnightblue" d="M547.777,-196.749C533.366,-200.05 518.32,-204.957 506,-213.115 458.504,-244.564 427.127,-307.589 414.407,-333.34"/>
<polygon fill="midnightblue" stroke="midnightblue" points="548.536,-200.166 557.612,-194.699 547.108,-193.313 548.536,-200.166"/>
</g>
<!-- Node15&#45;&gt;Node3 -->
<g id="edge54" class="edge"><title>Node15&#45;&gt;Node3</title>
<path fill="none" stroke="midnightblue" d="M542.819,-156.923C529.787,-160.226 516.657,-165.165 506,-173.115 448.675,-215.879 420.954,-302.455 411.689,-333.325"/>
<polygon fill="midnightblue" stroke="midnightblue" points="543.735,-160.305 552.722,-154.694 542.198,-153.476 543.735,-160.305"/>
</g>
<!-- Node16&#45;&gt;Node3 -->
<g id="edge58" class="edge"><title>Node16&#45;&gt;Node3</title>
<path fill="none" stroke="midnightblue" d="M539.296,-117.145C527.317,-120.471 515.522,-125.404 506,-133.115 438.574,-187.716 416.067,-298.341 409.959,-333.505"/>
<polygon fill="midnightblue" stroke="midnightblue" points="540.464,-120.463 549.356,-114.703 538.813,-113.66 540.464,-120.463"/>
</g>
<!-- Node18 -->
<g id="node49" class="node"><title>Node18</title>
<a xlink:href="namespaceServer.xhtml#a16ea0639731dee10e1a253375b508a02" target="_top" xlink:title="Recovers the server state and re&#45;connects client sockets after a reboot.">
<polygon fill="white" stroke="black" points="750,-93.6151 750,-114.615 880,-114.615 880,-93.6151 750,-93.6151"/>
<text text-anchor="middle" x="815" y="-101.615" font-family="FreeSans.ttf" font-size="10.00">Server::RebootRecovery</text>
</a>
</g>
<!-- Node17&#45;&gt;Node18 -->
<g id="edge62" class="edge"><title>Node17&#45;&gt;Node18</title>
<path fill="none" stroke="midnightblue" d="M661.843,-75.6209C692.275,-81.2826 728.702,-88.0596 758.394,-93.5838"/>
<polygon fill="midnightblue" stroke="midnightblue" points="662.243,-72.1352 651.771,-73.747 660.963,-79.0171 662.243,-72.1352"/>
</g>
<!-- Node21 -->
<g id="node55" class="node"><title>Node21</title>
<a xlink:href="classSocketServer.xhtml#afdbc60c3bc840875d2214b59c6213f63" target="_top" xlink:title="Accept a new connection on the listening port.">
<polygon fill="white" stroke="black" points="755,-53.6151 755,-74.6151 875,-74.6151 875,-53.6151 755,-53.6151"/>
<text text-anchor="middle" x="815" y="-61.6151" font-family="FreeSans.ttf" font-size="10.00">SocketServer::Accept</text>
</a>
</g>
<!-- Node17&#45;&gt;Node21 -->
<g id="edge68" class="edge"><title>Node17&#45;&gt;Node21</title>
<path fill="none" stroke="midnightblue" d="M661.868,-64.1151C691.117,-64.1151 725.901,-64.1151 754.92,-64.1151"/>
<polygon fill="midnightblue" stroke="midnightblue" points="661.771,-60.6152 651.771,-64.1151 661.771,-67.6152 661.771,-60.6152"/>
</g>
<!-- Node19 -->
<g id="node51" class="node"><title>Node19</title>
<a xlink:href="namespaceServer.xhtml#a19a1e493e1fb50a56d9c77332543d565" target="_top" xlink:title="Start the NAMS Server. Responsible for calling all critical boot&#45;time functions such as SocketServer ...">
<polygon fill="white" stroke="black" points="1088,-93.6151 1088,-114.615 1178,-114.615 1178,-93.6151 1088,-93.6151"/>
<text text-anchor="middle" x="1133" y="-101.615" font-family="FreeSans.ttf" font-size="10.00">Server::Startup</text>
</a>
</g>
<!-- Node18&#45;&gt;Node19 -->
<g id="edge64" class="edge"><title>Node18&#45;&gt;Node19</title>
<path fill="none" stroke="midnightblue" d="M890.16,-104.115C951.639,-104.115 1036.54,-104.115 1087.95,-104.115"/>
<polygon fill="midnightblue" stroke="midnightblue" points="890.119,-100.615 880.119,-104.115 890.119,-107.615 890.119,-100.615"/>
</g>
<!-- Node20 -->
<g id="node53" class="node"><title>Node20</title>
<a xlink:href="main_8cpp.xhtml#ad53223b8779f25caeddb70a3b9172967" target="_top" xlink:title="The default function required to execute the server.">
<polygon fill="white" stroke="black" points="1214.5,-73.6151 1214.5,-94.6151 1255.5,-94.6151 1255.5,-73.6151 1214.5,-73.6151"/>
<text text-anchor="middle" x="1235" y="-81.6151" font-family="FreeSans.ttf" font-size="10.00">main</text>
</a>
</g>
<!-- Node19&#45;&gt;Node20 -->
<g id="edge66" class="edge"><title>Node19&#45;&gt;Node20</title>
<path fill="none" stroke="midnightblue" d="M1187.9,-93.3496C1197.36,-91.4946 1206.64,-89.6751 1214.43,-88.1481"/>
<polygon fill="midnightblue" stroke="midnightblue" points="1187.18,-89.9258 1178.04,-95.2846 1188.52,-96.795 1187.18,-89.9258"/>
</g>
<!-- Node22 -->
<g id="node57" class="node"><title>Node22</title>
<a xlink:href="namespaceServer.xhtml#a39dbe16fdc8c5f6fbd678c6540fbcd6c" target="_top" xlink:title="Poll all SocketClient objects that are communicating with the associated SocketServer object...">
<polygon fill="white" stroke="black" points="939.5,-53.6151 939.5,-74.6151 1048.5,-74.6151 1048.5,-53.6151 939.5,-53.6151"/>
<text text-anchor="middle" x="994" y="-61.6151" font-family="FreeSans.ttf" font-size="10.00">Server::PollSockets</text>
</a>
</g>
<!-- Node21&#45;&gt;Node22 -->
<g id="edge70" class="edge"><title>Node21&#45;&gt;Node22</title>
<path fill="none" stroke="midnightblue" d="M885.268,-64.1151C903.284,-64.1151 922.391,-64.1151 939.478,-64.1151"/>
<polygon fill="midnightblue" stroke="midnightblue" points="885.102,-60.6152 875.102,-64.1151 885.102,-67.6152 885.102,-60.6152"/>
</g>
<!-- Node23 -->
<g id="node59" class="node"><title>Node23</title>
<a xlink:href="namespaceServer.xhtml#a50b81aa91d8fdaee6f52c5c5ec987990" target="_top" xlink:title="The core update loop of NAMS. This loop spawns all other subsystem update routines and then sleeps fo...">
<polygon fill="white" stroke="black" points="1088.5,-53.6151 1088.5,-74.6151 1177.5,-74.6151 1177.5,-53.6151 1088.5,-53.6151"/>
<text text-anchor="middle" x="1133" y="-61.6151" font-family="FreeSans.ttf" font-size="10.00">Server::Update</text>
</a>
</g>
<!-- Node22&#45;&gt;Node23 -->
<g id="edge72" class="edge"><title>Node22&#45;&gt;Node23</title>
<path fill="none" stroke="midnightblue" d="M1058.57,-64.1151C1068.69,-64.1151 1078.94,-64.1151 1088.47,-64.1151"/>
<polygon fill="midnightblue" stroke="midnightblue" points="1058.54,-60.6152 1048.54,-64.1151 1058.54,-67.6152 1058.54,-60.6152"/>
</g>
<!-- Node23&#45;&gt;Node20 -->
<g id="edge74" class="edge"><title>Node23&#45;&gt;Node20</title>
<path fill="none" stroke="midnightblue" d="M1187.64,-74.8292C1197.14,-76.6915 1206.47,-78.5205 1214.3,-80.0563"/>
<polygon fill="midnightblue" stroke="midnightblue" points="1188.23,-71.377 1177.74,-72.8874 1186.88,-78.2462 1188.23,-71.377"/>
</g>
<!-- Node25 -->
<g id="node64" class="node"><title>Node25</title>
<a xlink:href="namespaceServer.xhtml#a2b4cec469bb99c2a45e49de5ba74d1ae" target="_top" xlink:title="Processes input from all active SocketClient objects.">
<polygon fill="white" stroke="black" points="936,-13.6151 936,-34.6151 1052,-34.6151 1052,-13.6151 936,-13.6151"/>
<text text-anchor="middle" x="994" y="-21.6151" font-family="FreeSans.ttf" font-size="10.00">Server::ProcessInput</text>
</a>
</g>
<!-- Node24&#45;&gt;Node25 -->
<g id="edge78" class="edge"><title>Node24&#45;&gt;Node25</title>
<path fill="none" stroke="midnightblue" d="M910.249,-24.1151C918.93,-24.1151 927.54,-24.1151 935.748,-24.1151"/>
<polygon fill="midnightblue" stroke="midnightblue" points="910.044,-20.6152 900.044,-24.1151 910.044,-27.6152 910.044,-20.6152"/>
</g>
<!-- Node25&#45;&gt;Node23 -->
<g id="edge80" class="edge"><title>Node25&#45;&gt;Node23</title>
<path fill="none" stroke="midnightblue" d="M1040.34,-37.4509C1058.53,-42.6847 1079.11,-48.606 1096.24,-53.5369"/>
<polygon fill="midnightblue" stroke="midnightblue" points="1041.1,-34.0267 1030.52,-34.6246 1039.16,-40.7537 1041.1,-34.0267"/>
</g>
</g>
</svg>
        <g id="navigator" transform="translate(0 0)" fill="#404254">
                <rect fill="#f2f5e9" fill-opacity="0.5" stroke="#606060" stroke-width=".5" x="0" y="0" width="60" height="60"/>
                <use id="zoomplus" xlink:href="#zoomPlus" x="17" y="9" onmousedown="handleZoom(evt,'in')"/>
                <use id="zoomminus" xlink:href="#zoomMin" x="42" y="9" onmousedown="handleZoom(evt,'out')"/>
                <use id="reset" xlink:href="#resetDef" x="30" y="36" onmousedown="handleReset()"/>
                <g id="arrowUp" xlink:href="#dirArrow" transform="translate(30 24)" onmousedown="handlePan(0,-1)">
                  <use xlink:href="#rim" fill="#404040">
                        <set attributeName="fill" to="#808080" begin="arrowUp.mouseover" end="arrowUp.mouseout"/>
                  </use>
                  <path fill="none" stroke="white" stroke-width="1.5" d="M0,-3.0v7 M-2.5,-0.5L0,-3.0L2.5,-0.5"/>
                </g>
                <g id="arrowRight" xlink:href="#dirArrow" transform="rotate(90) translate(36 -43)" onmousedown="handlePan(1,0)">
                  <use xlink:href="#rim" fill="#404040">
                        <set attributeName="fill" to="#808080" begin="arrowRight.mouseover" end="arrowRight.mouseout"/>
                  </use>
                  <path fill="none" stroke="white" stroke-width="1.5" d="M0,-3.0v7 M-2.5,-0.5L0,-3.0L2.5,-0.5"/>
                </g>
                <g id="arrowDown" xlink:href="#dirArrow" transform="rotate(180) translate(-30 -48)" onmousedown="handlePan(0,1)">
                  <use xlink:href="#rim" fill="#404040">
                        <set attributeName="fill" to="#808080" begin="arrowDown.mouseover" end="arrowDown.mouseout"/>
                  </use>
                  <path fill="none" stroke="white" stroke-width="1.5" d="M0,-3.0v7 M-2.5,-0.5L0,-3.0L2.5,-0.5"/>
                </g>
                <g id="arrowLeft" xlink:href="#dirArrow" transform="rotate(270) translate(-36 17)" onmousedown="handlePan(-1,0)">
                  <use xlink:href="#rim" fill="#404040">
                        <set attributeName="fill" to="#808080" begin="arrowLeft.mouseover" end="arrowLeft.mouseout"/>
                  </use>
                  <path fill="none" stroke="white" stroke-width="1.5" d="M0,-3.0v7 M-2.5,-0.5L0,-3.0L2.5,-0.5"/>
                </g>
        </g>
</svg>
