<?xml version="1.0" encoding="UTF-8" standalone="no"?>
<!DOCTYPE svg PUBLIC "-//W3C//DTD SVG 1.1//EN"
 "http://www.w3.org/Graphics/SVG/1.1/DTD/svg11.dtd">
<!-- Generated by graphviz version 2.26.3 (20100126.1600)
 -->
<!-- Title: G Pages: 1 -->
<!--zoomable 603 -->
<svg id="main" version="1.1" xmlns="http://www.w3.org/2000/svg" xmlns:xlink="http://www.w3.org/1999/xlink" xml:space="preserve" onload="init(evt)">
        <defs>
                <circle id="rim" cx="0" cy="0" r="7"/>
                <circle id="rim2" cx="0" cy="0" r="3.5"/>
                <g id="zoomPlus">
                        <use xlink:href="#rim" fill="#404040">
                                <set attributeName="fill" to="#808080" begin="zoomplus.mouseover" end="zoomplus.mouseout"/>
                        </use>
                        <path d="M-4,0h8M0,-4v8" fill="none" stroke="white" stroke-width="1.5" pointer-events="none"/>
                </g>
                <g id="zoomMin">
                        <use xlink:href="#rim" fill="#404040">
                                <set attributeName="fill" to="#808080" begin="zoomminus.mouseover" end="zoomminus.mouseout"/>
                        </use>
                        <path d="M-4,0h8" fill="none" stroke="white" stroke-width="1.5" pointer-events="none"/>
                </g>
                <g id="dirArrow">
                        <path fill="none" stroke="white" stroke-width="1.5" d="M0,-3.0v7 M-2.5,-0.5L0,-3.0L2.5,-0.5"/>
                </g>
               <g id="resetDef">
                       <use xlink:href="#rim2" fill="#404040">
                               <set attributeName="fill" to="#808080" begin="reset.mouseover" end="reset.mouseout"/>
                       </use>
               </g>
        </defs>

<script type="text/javascript">
var viewWidth = 1272;
var viewHeight = 603;
var sectionId = 'dynsection-7';
</script>
<script xlink:href="svgpan.js"/>
<svg id="graph" class="graph">
<g id="viewport">
<title>G</title>
<polygon fill="white" stroke="white" points="-4,5 -4,-598.631 1269,-598.631 1269,5 -4,5"/>
<!-- Node1 -->
<g id="node1" class="node"><title>Node1</title>
<polygon fill="#bfbfbf" stroke="black" points="0,-313.131 0,-334.131 94,-334.131 94,-313.131 0,-313.131"/>
<text text-anchor="middle" x="47" y="-321.131" font-family="FreeSans.ttf" font-size="10.00">Character::gSex</text>
</g>
<!-- Node2 -->
<g id="node3" class="node"><title>Node2</title>
<a xlink:href="namespaceHandler.xhtml#ad04998a7a6ece2486bc441052a57c2d7" target="_top" xlink:title="Main Character creation menu.">
<polygon fill="white" stroke="black" points="130,-313.131 130,-334.131 318,-334.131 318,-313.131 130,-313.131"/>
<text text-anchor="middle" x="224" y="-321.131" font-family="FreeSans.ttf" font-size="10.00">Handler::CharacterCreateMenuMain</text>
</a>
</g>
<!-- Node1&#45;&gt;Node2 -->
<g id="edge2" class="edge"><title>Node1&#45;&gt;Node2</title>
<path fill="none" stroke="midnightblue" d="M104.548,-323.631C112.724,-323.631 121.303,-323.631 129.953,-323.631"/>
<polygon fill="midnightblue" stroke="midnightblue" points="104.433,-320.131 94.4328,-323.631 104.433,-327.131 104.433,-320.131"/>
</g>
<!-- Node3 -->
<g id="node5" class="node"><title>Node3</title>
<a xlink:href="namespaceHandler.xhtml#a139febc000c9d767a620708148e0c888" target="_top" xlink:title="Dispatches the appropriate menu based on client state.">
<polygon fill="white" stroke="black" points="354.5,-313.131 354.5,-334.131 477.5,-334.131 477.5,-313.131 354.5,-313.131"/>
<text text-anchor="middle" x="416" y="-321.131" font-family="FreeSans.ttf" font-size="10.00">Handler::LoginHandler</text>
</a>
</g>
<!-- Node2&#45;&gt;Node3 -->
<g id="edge4" class="edge"><title>Node2&#45;&gt;Node3</title>
<path fill="none" stroke="midnightblue" d="M328.157,-316.902C337.104,-316.95 345.956,-317.077 354.399,-317.282"/>
<polygon fill="midnightblue" stroke="midnightblue" points="328.038,-313.402 318.031,-316.882 328.024,-320.402 328.038,-313.402"/>
</g>
<!-- Node3&#45;&gt;Node2 -->
<g id="edge18" class="edge"><title>Node3&#45;&gt;Node2</title>
<path fill="none" stroke="midnightblue" d="M344.147,-330.187C335.616,-330.327 326.813,-330.391 318.031,-330.379"/>
<polygon fill="midnightblue" stroke="midnightblue" points="344.472,-333.682 354.399,-329.98 344.33,-326.683 344.472,-333.682"/>
</g>
<!-- Node4 -->
<g id="node7" class="node"><title>Node4</title>
<a xlink:href="namespaceHandler.xhtml#a33a19d69ead678af81fbe96907eceaf0" target="_top" xlink:title="Create a new account object, or load an existing one, with a name and password.">
<polygon fill="white" stroke="black" points="542.5,-573.131 542.5,-594.131 673.5,-594.131 673.5,-573.131 542.5,-573.131"/>
<text text-anchor="middle" x="608" y="-581.131" font-family="FreeSans.ttf" font-size="10.00">Handler::AttachAccount</text>
</a>
</g>
<!-- Node3&#45;&gt;Node4 -->
<g id="edge6" class="edge"><title>Node3&#45;&gt;Node4</title>
<path fill="none" stroke="midnightblue" d="M418.673,-344.102C425.275,-389.671 447.015,-498.623 514,-554.631 525.776,-564.477 541.228,-569.829 556.193,-573.064"/>
<polygon fill="midnightblue" stroke="midnightblue" points="422.141,-343.629 417.332,-334.189 415.204,-344.568 422.141,-343.629"/>
</g>
<!-- Node5 -->
<g id="node10" class="node"><title>Node5</title>
<a xlink:href="namespaceHandler.xhtml#a2e4ebf6ed049eb872aa4948d54c4932c" target="_top" xlink:title="Attempt to write a new character to disk after creation was completed.">
<polygon fill="white" stroke="black" points="538.5,-533.131 538.5,-554.131 677.5,-554.131 677.5,-533.131 538.5,-533.131"/>
<text text-anchor="middle" x="608" y="-541.131" font-family="FreeSans.ttf" font-size="10.00">Handler::AttachCharacter</text>
</a>
</g>
<!-- Node3&#45;&gt;Node5 -->
<g id="edge10" class="edge"><title>Node3&#45;&gt;Node5</title>
<path fill="none" stroke="midnightblue" d="M421.179,-344.543C431.122,-384.431 457.147,-470.287 514,-514.631 526.761,-524.584 543.348,-529.866 559.028,-533.078"/>
<polygon fill="midnightblue" stroke="midnightblue" points="424.526,-343.491 418.789,-334.584 417.719,-345.124 424.526,-343.491"/>
</g>
<!-- Node6 -->
<g id="node13" class="node"><title>Node6</title>
<a xlink:href="namespaceHandler.xhtml#a73ed6064f2698dbffb5f4c247a02b661" target="_top" xlink:title="Send initial account interface menu.">
<polygon fill="white" stroke="black" points="534,-493.131 534,-514.131 682,-514.131 682,-493.131 534,-493.131"/>
<text text-anchor="middle" x="608" y="-501.131" font-family="FreeSans.ttf" font-size="10.00">Handler::AccountMenuMain</text>
</a>
</g>
<!-- Node3&#45;&gt;Node6 -->
<g id="edge14" class="edge"><title>Node3&#45;&gt;Node6</title>
<path fill="none" stroke="midnightblue" d="M424.617,-343.976C437.848,-377.051 466.72,-441.202 514,-474.631 528.168,-484.648 546.339,-489.828 562.921,-493.05"/>
<polygon fill="midnightblue" stroke="midnightblue" points="427.775,-342.441 420.867,-334.407 421.257,-344.995 427.775,-342.441"/>
</g>
<!-- Node7 -->
<g id="node17" class="node"><title>Node7</title>
<a xlink:href="namespaceHandler.xhtml#ab5889a65de2794129b375ec39ae923ae" target="_top" xlink:title="Select a new Character name.">
<polygon fill="white" stroke="black" points="523.5,-453.131 523.5,-474.131 692.5,-474.131 692.5,-453.131 523.5,-453.131"/>
<text text-anchor="middle" x="608" y="-461.131" font-family="FreeSans.ttf" font-size="10.00">Handler::CharacterCreateName</text>
</a>
</g>
<!-- Node3&#45;&gt;Node7 -->
<g id="edge20" class="edge"><title>Node3&#45;&gt;Node7</title>
<path fill="none" stroke="midnightblue" d="M429.789,-342.686C446.117,-368.003 475.962,-411.424 514,-434.631 530.522,-444.711 551.371,-449.762 569.234,-453.11"/>
<polygon fill="midnightblue" stroke="midnightblue" points="432.73,-340.788 424.395,-334.248 426.832,-344.559 432.73,-340.788"/>
</g>
<!-- Node8 -->
<g id="node20" class="node"><title>Node8</title>
<a xlink:href="namespaceHandler.xhtml#ae5086bcf5857eb572beedd09158c3065" target="_top" xlink:title="Select a new Character sex.">
<polygon fill="white" stroke="black" points="529,-413.131 529,-434.131 687,-434.131 687,-413.131 529,-413.131"/>
<text text-anchor="middle" x="608" y="-421.131" font-family="FreeSans.ttf" font-size="10.00">Handler::CharacterCreateSex</text>
</a>
</g>
<!-- Node3&#45;&gt;Node8 -->
<g id="edge24" class="edge"><title>Node3&#45;&gt;Node8</title>
<path fill="none" stroke="midnightblue" d="M439.589,-341.012C458.142,-357.441 485.536,-380.982 514,-394.631 534.009,-404.226 558.599,-409.249 577.61,-413.123"/>
<polygon fill="midnightblue" stroke="midnightblue" points="441.762,-338.26 431.959,-334.24 437.115,-343.496 441.762,-338.26"/>
</g>
<!-- Node9 -->
<g id="node23" class="node"><title>Node9</title>
<a xlink:href="namespaceHandler.xhtml#a97a198bfc72285b2aca4f36978db715e" target="_top" xlink:title="Main Character deletion confirmation.">
<polygon fill="white" stroke="black" points="520,-373.131 520,-394.131 696,-394.131 696,-373.131 520,-373.131"/>
<text text-anchor="middle" x="608" y="-381.131" font-family="FreeSans.ttf" font-size="10.00">Handler::CharacterDeleteConfirm</text>
</a>
</g>
<!-- Node3&#45;&gt;Node9 -->
<g id="edge28" class="edge"><title>Node3&#45;&gt;Node9</title>
<path fill="none" stroke="midnightblue" d="M467.367,-337.964C482.219,-343.693 498.584,-349.886 514,-354.631 538.398,-362.14 567.209,-367.817 586.443,-373.091"/>
<polygon fill="midnightblue" stroke="midnightblue" points="468.441,-334.627 457.852,-334.287 465.918,-341.157 468.441,-334.627"/>
</g>
<!-- Node10 -->
<g id="node26" class="node"><title>Node10</title>
<a xlink:href="namespaceHandler.xhtml#afc470ec6e82b7a9a1560588a368734f9" target="_top" xlink:title="Main Character deletion menu.">
<polygon fill="white" stroke="black" points="514,-333.131 514,-354.131 702,-354.131 702,-333.131 514,-333.131"/>
<text text-anchor="middle" x="608" y="-341.131" font-family="FreeSans.ttf" font-size="10.00">Handler::CharacterDeleteMenuMain</text>
</a>
</g>
<!-- Node3&#45;&gt;Node10 -->
<g id="edge32" class="edge"><title>Node3&#45;&gt;Node10</title>
<path fill="none" stroke="midnightblue" d="M487.799,-324.554C512.988,-326.765 540.555,-329.881 562.928,-333.113"/>
<polygon fill="midnightblue" stroke="midnightblue" points="487.8,-321.042 477.542,-323.694 487.215,-328.018 487.8,-321.042"/>
</g>
<!-- Node11 -->
<g id="node29" class="node"><title>Node11</title>
<a xlink:href="namespaceHandler.xhtml#a02b1b954749641ab646f6548a5360d3b" target="_top" xlink:title="Main Character load menu.">
<polygon fill="white" stroke="black" points="518.5,-293.131 518.5,-314.131 697.5,-314.131 697.5,-293.131 518.5,-293.131"/>
<text text-anchor="middle" x="608" y="-301.131" font-family="FreeSans.ttf" font-size="10.00">Handler::CharacterLoadMenuMain</text>
</a>
</g>
<!-- Node3&#45;&gt;Node11 -->
<g id="edge36" class="edge"><title>Node3&#45;&gt;Node11</title>
<path fill="none" stroke="midnightblue" d="M470.98,-311.734C485.776,-309.748 502.173,-307.851 518.33,-306.234"/>
<polygon fill="midnightblue" stroke="midnightblue" points="470.437,-308.276 461.015,-313.121 471.403,-315.209 470.437,-308.276"/>
</g>
<!-- Node12 -->
<g id="node32" class="node"><title>Node12</title>
<a xlink:href="namespaceHandler.xhtml#a00bc24564bfd267e0329643c569da1e4" target="_top" xlink:title="Select a new account name.">
<polygon fill="white" stroke="black" points="539.5,-253.131 539.5,-274.131 676.5,-274.131 676.5,-253.131 539.5,-253.131"/>
<text text-anchor="middle" x="608" y="-261.131" font-family="FreeSans.ttf" font-size="10.00">Handler::GetNewAccount</text>
</a>
</g>
<!-- Node3&#45;&gt;Node12 -->
<g id="edge40" class="edge"><title>Node3&#45;&gt;Node12</title>
<path fill="none" stroke="midnightblue" d="M435.21,-307.788C454.704,-296.716 485.926,-283.271 514,-274.631 522.133,-272.128 530.756,-269.828 539.351,-267.822"/>
<polygon fill="midnightblue" stroke="midnightblue" points="433.368,-304.811 426.647,-313.001 437.009,-310.79 433.368,-304.811"/>
</g>
<!-- Node13 -->
<g id="node35" class="node"><title>Node13</title>
<a xlink:href="namespaceHandler.xhtml#a744adadcf407cdb3a9c33365afd5a7c2" target="_top" xlink:title="Create a new account.">
<polygon fill="white" stroke="black" points="537,-213.131 537,-234.131 679,-234.131 679,-213.131 537,-213.131"/>
<text text-anchor="middle" x="608" y="-221.131" font-family="FreeSans.ttf" font-size="10.00">Handler::GetNewPassword</text>
</a>
</g>
<!-- Node3&#45;&gt;Node13 -->
<g id="edge44" class="edge"><title>Node3&#45;&gt;Node13</title>
<path fill="none" stroke="midnightblue" d="M427.558,-305.066C444.65,-284.076 478.492,-251.657 514,-234.631 521.221,-231.168 529.039,-228.301 536.976,-225.986"/>
<polygon fill="midnightblue" stroke="midnightblue" points="424.772,-302.949 421.487,-313.021 430.336,-307.196 424.772,-302.949"/>
</g>
<!-- Node14 -->
<g id="node38" class="node"><title>Node14</title>
<a xlink:href="namespaceHandler.xhtml#adfe13cc9748392348f3941656a1323b6" target="_top" xlink:title="Compare a received password against an existing account.">
<polygon fill="white" stroke="black" points="539.5,-173.131 539.5,-194.131 676.5,-194.131 676.5,-173.131 539.5,-173.131"/>
<text text-anchor="middle" x="608" y="-181.131" font-family="FreeSans.ttf" font-size="10.00">Handler::GetOldPassword</text>
</a>
</g>
<!-- Node3&#45;&gt;Node14 -->
<g id="edge48" class="edge"><title>Node3&#45;&gt;Node14</title>
<path fill="none" stroke="midnightblue" d="M423.563,-303.635C437.646,-274.255 470.455,-221.197 514,-194.631 521.691,-189.938 530.32,-186.336 539.149,-183.656"/>
<polygon fill="midnightblue" stroke="midnightblue" points="420.28,-302.402 419.376,-312.958 426.666,-305.27 420.28,-302.402"/>
</g>
<!-- Node15 -->
<g id="node41" class="node"><title>Node15</title>
<a xlink:href="namespaceHandler.xhtml#ae70e4e50054c729c14493eafefe01b5c" target="_top" xlink:title="Load a character from the account to enter into the game with.">
<polygon fill="white" stroke="black" points="542.5,-133.131 542.5,-154.131 673.5,-154.131 673.5,-133.131 542.5,-133.131"/>
<text text-anchor="middle" x="608" y="-141.131" font-family="FreeSans.ttf" font-size="10.00">Handler::LoadCharacter</text>
</a>
</g>
<!-- Node3&#45;&gt;Node15 -->
<g id="edge52" class="edge"><title>Node3&#45;&gt;Node15</title>
<path fill="none" stroke="midnightblue" d="M420.925,-302.865C431.919,-266.195 461.694,-191.613 514,-154.631 522.447,-148.659 532.315,-144.406 542.422,-141.519"/>
<polygon fill="midnightblue" stroke="midnightblue" points="417.429,-302.372 418.112,-312.945 424.171,-304.254 417.429,-302.372"/>
</g>
<!-- Node16 -->
<g id="node44" class="node"><title>Node16</title>
<a xlink:href="namespaceHandler.xhtml#a44b41bf69fdc6e615a029bea34910191" target="_top" xlink:title="Send initial greeting and request for account name.">
<polygon fill="white" stroke="black" points="548.5,-93.1308 548.5,-114.131 667.5,-114.131 667.5,-93.1308 548.5,-93.1308"/>
<text text-anchor="middle" x="608" y="-101.131" font-family="FreeSans.ttf" font-size="10.00">Handler::LoginScreen</text>
</a>
</g>
<!-- Node3&#45;&gt;Node16 -->
<g id="edge56" class="edge"><title>Node3&#45;&gt;Node16</title>
<path fill="none" stroke="midnightblue" d="M418.976,-302.766C426.905,-259.787 452.295,-162.759 514,-114.631 523.867,-106.935 536.021,-102.031 548.274,-99.1714"/>
<polygon fill="midnightblue" stroke="midnightblue" points="415.514,-302.249 417.29,-312.694 422.415,-303.421 415.514,-302.249"/>
</g>
<!-- Node17 -->
<g id="node47" class="node"><title>Node17</title>
<a xlink:href="classSocketClient.xhtml#a48c79d01b91f2c1553c3b33b26714215" target="_top" xlink:title="Build a SocketClient for a new client connection and set all attributes.">
<polygon fill="white" stroke="black" points="556.5,-53.1308 556.5,-74.1308 659.5,-74.1308 659.5,-53.1308 556.5,-53.1308"/>
<text text-anchor="middle" x="608" y="-61.1308" font-family="FreeSans.ttf" font-size="10.00">SocketClient::New</text>
</a>
</g>
<!-- Node3&#45;&gt;Node17 -->
<g id="edge60" class="edge"><title>Node3&#45;&gt;Node17</title>
<path fill="none" stroke="midnightblue" d="M418.062,-302.822C423.876,-255.913 444.782,-141.505 514,-83.6308 525.776,-73.7846 541.228,-68.4323 556.193,-65.6156"/>
<polygon fill="midnightblue" stroke="midnightblue" points="414.56,-302.649 416.914,-312.979 421.515,-303.436 414.56,-302.649"/>
</g>
<!-- Node24 -->
<g id="node62" class="node"><title>Node24</title>
<a xlink:href="classSocketClient.xhtml#ad4f63c7d906310dc56a1217136047d7f" target="_top" xlink:title="Interpret the command at the front of the queue.">
<polygon fill="white" stroke="black" points="738,-13.1308 738,-34.1308 908,-34.1308 908,-13.1308 738,-13.1308"/>
<text text-anchor="middle" x="823" y="-21.1308" font-family="FreeSans.ttf" font-size="10.00">SocketClient::ProcessCommand</text>
</a>
</g>
<!-- Node3&#45;&gt;Node24 -->
<g id="edge76" class="edge"><title>Node3&#45;&gt;Node24</title>
<path fill="none" stroke="midnightblue" d="M420.189,-302.898C432.588,-243.747 470.936,-76.326 514,-43.6308 592.461,15.9384 716.925,0.473902 781.329,-13.1262"/>
<polygon fill="midnightblue" stroke="midnightblue" points="416.714,-302.42 418.121,-312.921 423.57,-303.835 416.714,-302.42"/>
</g>
<!-- Node4&#45;&gt;Node3 -->
<g id="edge8" class="edge"><title>Node4&#45;&gt;Node3</title>
<path fill="none" stroke="midnightblue" d="M532.183,-583.517C525.614,-580.74 519.418,-577.161 514,-572.631 436.831,-508.108 419.71,-373.317 416.606,-334.144"/>
<polygon fill="midnightblue" stroke="midnightblue" points="531.432,-586.965 542.027,-587.031 533.785,-580.373 531.432,-586.965"/>
</g>
<!-- Node5&#45;&gt;Node3 -->
<g id="edge12" class="edge"><title>Node5&#45;&gt;Node3</title>
<path fill="none" stroke="midnightblue" d="M528.51,-541.392C523.343,-538.992 518.44,-536.094 514,-532.631 446.924,-480.313 422.759,-370.211 417.29,-334.568"/>
<polygon fill="midnightblue" stroke="midnightblue" points="527.467,-544.744 538.053,-545.191 530.056,-538.24 527.467,-544.744"/>
</g>
<!-- Node6&#45;&gt;Node3 -->
<g id="edge16" class="edge"><title>Node6&#45;&gt;Node3</title>
<path fill="none" stroke="midnightblue" d="M524.408,-498.828C520.771,-497.007 517.278,-494.949 514,-492.631 456.283,-451.823 425.999,-365.234 418.112,-334.317"/>
<polygon fill="midnightblue" stroke="midnightblue" points="523.142,-502.094 533.709,-502.874 525.935,-495.675 523.142,-502.094"/>
</g>
<!-- Node7&#45;&gt;Node3 -->
<g id="edge22" class="edge"><title>Node7&#45;&gt;Node3</title>
<path fill="none" stroke="midnightblue" d="M514.281,-452.801C514.187,-452.745 514.093,-452.688 514,-452.631 465.321,-422.932 430.059,-360.127 419.376,-334.304"/>
<polygon fill="midnightblue" stroke="midnightblue" points="512.882,-456.021 523.355,-457.621 516.165,-449.839 512.882,-456.021"/>
</g>
<!-- Node8&#45;&gt;Node3 -->
<g id="edge26" class="edge"><title>Node8&#45;&gt;Node3</title>
<path fill="none" stroke="midnightblue" d="M518.893,-414.849C517.236,-414.139 515.603,-413.4 514,-412.631 473.6,-393.258 435.357,-353.96 421.487,-334.24"/>
<polygon fill="midnightblue" stroke="midnightblue" points="518.02,-418.265 528.609,-418.606 520.544,-411.736 518.02,-418.265"/>
</g>
<!-- Node9&#45;&gt;Node3 -->
<g id="edge30" class="edge"><title>Node9&#45;&gt;Node3</title>
<path fill="none" stroke="midnightblue" d="M509.939,-371.224C475.126,-359.765 442.875,-345.006 426.647,-334.26"/>
<polygon fill="midnightblue" stroke="midnightblue" points="509.225,-374.67 519.815,-374.363 511.345,-367.998 509.225,-374.67"/>
</g>
<!-- Node10&#45;&gt;Node3 -->
<g id="edge34" class="edge"><title>Node10&#45;&gt;Node3</title>
<path fill="none" stroke="midnightblue" d="M503.377,-339.458C488.496,-337.824 473.894,-336.001 461.015,-334.14"/>
<polygon fill="midnightblue" stroke="midnightblue" points="503.392,-342.98 513.706,-340.558 504.133,-336.019 503.392,-342.98"/>
</g>
<!-- Node11&#45;&gt;Node3 -->
<g id="edge38" class="edge"><title>Node11&#45;&gt;Node3</title>
<path fill="none" stroke="midnightblue" d="M552.773,-315.56C529.25,-318.713 501.716,-321.638 477.542,-323.568"/>
<polygon fill="midnightblue" stroke="midnightblue" points="553.505,-318.992 562.928,-314.148 552.541,-312.059 553.505,-318.992"/>
</g>
<!-- Node12&#45;&gt;Node3 -->
<g id="edge42" class="edge"><title>Node12&#45;&gt;Node3</title>
<path fill="none" stroke="midnightblue" d="M576.522,-276.741C558.094,-281.31 534.491,-286.324 514,-292.631 495.207,-298.415 475.003,-306.352 457.852,-312.974"/>
<polygon fill="midnightblue" stroke="midnightblue" points="577.641,-280.067 586.443,-274.17 575.885,-273.291 577.641,-280.067"/>
</g>
<!-- Node13&#45;&gt;Node3 -->
<g id="edge46" class="edge"><title>Node13&#45;&gt;Node3</title>
<path fill="none" stroke="midnightblue" d="M567.365,-236.255C550.282,-239.874 530.57,-244.685 514,-252.631 481.324,-268.3 450.058,-297.004 431.959,-313.021"/>
<polygon fill="midnightblue" stroke="midnightblue" points="568.525,-239.589 577.61,-234.138 567.108,-232.734 568.525,-239.589"/>
</g>
<!-- Node14&#45;&gt;Node3 -->
<g id="edge50" class="edge"><title>Node14&#45;&gt;Node3</title>
<path fill="none" stroke="midnightblue" d="M559.358,-196.141C544.018,-199.477 527.553,-204.362 514,-212.631 471.291,-238.687 438.91,-290.228 424.395,-313.014"/>
<polygon fill="midnightblue" stroke="midnightblue" points="560.122,-199.557 569.234,-194.152 558.74,-192.695 560.122,-199.557"/>
</g>
<!-- Node15&#45;&gt;Node3 -->
<g id="edge54" class="edge"><title>Node15&#45;&gt;Node3</title>
<path fill="none" stroke="midnightblue" d="M553.065,-156.345C539.394,-159.642 525.401,-164.57 514,-172.631 461.603,-209.678 431.815,-284.456 420.867,-312.855"/>
<polygon fill="midnightblue" stroke="midnightblue" points="553.888,-159.748 562.921,-154.212 552.407,-152.907 553.888,-159.748"/>
</g>
<!-- Node16&#45;&gt;Node3 -->
<g id="edge58" class="edge"><title>Node16&#45;&gt;Node3</title>
<path fill="none" stroke="midnightblue" d="M549.029,-116.517C536.521,-119.831 524.07,-124.777 514,-132.631 451.802,-181.143 426.501,-279.341 418.789,-312.678"/>
<polygon fill="midnightblue" stroke="midnightblue" points="550.085,-119.865 559.028,-114.184 548.494,-113.048 550.085,-119.865"/>
</g>
<!-- Node18 -->
<g id="node49" class="node"><title>Node18</title>
<a xlink:href="classServer.xhtml#a16ea0639731dee10e1a253375b508a02" target="_top" xlink:title="Recovers the server state and re&#45;connects client sockets after a reboot.">
<polygon fill="white" stroke="black" points="758,-93.1308 758,-114.131 888,-114.131 888,-93.1308 758,-93.1308"/>
<text text-anchor="middle" x="823" y="-101.131" font-family="FreeSans.ttf" font-size="10.00">Server::RebootRecovery</text>
</a>
</g>
<!-- Node17&#45;&gt;Node18 -->
<g id="edge62" class="edge"><title>Node17&#45;&gt;Node18</title>
<path fill="none" stroke="midnightblue" d="M669.843,-75.1365C700.275,-80.7982 736.702,-87.5753 766.394,-93.0995"/>
<polygon fill="midnightblue" stroke="midnightblue" points="670.243,-71.6509 659.771,-73.2627 668.963,-78.5328 670.243,-71.6509"/>
</g>
<!-- Node21 -->
<g id="node55" class="node"><title>Node21</title>
<a xlink:href="classSocketServer.xhtml#afdbc60c3bc840875d2214b59c6213f63" target="_top" xlink:title="Accept a new connection on the listening port.">
<polygon fill="white" stroke="black" points="763,-53.1308 763,-74.1308 883,-74.1308 883,-53.1308 763,-53.1308"/>
<text text-anchor="middle" x="823" y="-61.1308" font-family="FreeSans.ttf" font-size="10.00">SocketServer::Accept</text>
</a>
</g>
<!-- Node17&#45;&gt;Node21 -->
<g id="edge68" class="edge"><title>Node17&#45;&gt;Node21</title>
<path fill="none" stroke="midnightblue" d="M669.868,-63.6308C699.117,-63.6308 733.901,-63.6308 762.92,-63.6308"/>
<polygon fill="midnightblue" stroke="midnightblue" points="669.771,-60.1309 659.771,-63.6308 669.771,-67.1309 669.771,-60.1309"/>
</g>
<!-- Node19 -->
<g id="node51" class="node"><title>Node19</title>
<a xlink:href="classServer.xhtml#a19a1e493e1fb50a56d9c77332543d565" target="_top" xlink:title="Start the NAMS Server. Responsible for calling all critical boot&#45;time functions such as SocketServer ...">
<polygon fill="white" stroke="black" points="1096,-93.1308 1096,-114.131 1186,-114.131 1186,-93.1308 1096,-93.1308"/>
<text text-anchor="middle" x="1141" y="-101.131" font-family="FreeSans.ttf" font-size="10.00">Server::Startup</text>
</a>
</g>
<!-- Node18&#45;&gt;Node19 -->
<g id="edge64" class="edge"><title>Node18&#45;&gt;Node19</title>
<path fill="none" stroke="midnightblue" d="M898.16,-103.631C959.639,-103.631 1044.54,-103.631 1095.95,-103.631"/>
<polygon fill="midnightblue" stroke="midnightblue" points="898.119,-100.131 888.119,-103.631 898.119,-107.131 898.119,-100.131"/>
</g>
<!-- Node20 -->
<g id="node53" class="node"><title>Node20</title>
<a xlink:href="main_8cpp.xhtml#ad53223b8779f25caeddb70a3b9172967" target="_top" xlink:title="The default function required to execute the server.">
<polygon fill="white" stroke="black" points="1222.5,-73.1308 1222.5,-94.1308 1263.5,-94.1308 1263.5,-73.1308 1222.5,-73.1308"/>
<text text-anchor="middle" x="1243" y="-81.1308" font-family="FreeSans.ttf" font-size="10.00">main</text>
</a>
</g>
<!-- Node19&#45;&gt;Node20 -->
<g id="edge66" class="edge"><title>Node19&#45;&gt;Node20</title>
<path fill="none" stroke="midnightblue" d="M1195.9,-92.8652C1205.36,-91.0103 1214.64,-89.1907 1222.43,-87.6638"/>
<polygon fill="midnightblue" stroke="midnightblue" points="1195.18,-89.4414 1186.04,-94.8003 1196.52,-96.3106 1195.18,-89.4414"/>
</g>
<!-- Node22 -->
<g id="node57" class="node"><title>Node22</title>
<a xlink:href="classServer.xhtml#a39dbe16fdc8c5f6fbd678c6540fbcd6c" target="_top" xlink:title="Poll all SocketClient objects that are communicating with the associated SocketServer object...">
<polygon fill="white" stroke="black" points="947.5,-53.1308 947.5,-74.1308 1056.5,-74.1308 1056.5,-53.1308 947.5,-53.1308"/>
<text text-anchor="middle" x="1002" y="-61.1308" font-family="FreeSans.ttf" font-size="10.00">Server::PollSockets</text>
</a>
</g>
<!-- Node21&#45;&gt;Node22 -->
<g id="edge70" class="edge"><title>Node21&#45;&gt;Node22</title>
<path fill="none" stroke="midnightblue" d="M893.268,-63.6308C911.284,-63.6308 930.391,-63.6308 947.478,-63.6308"/>
<polygon fill="midnightblue" stroke="midnightblue" points="893.102,-60.1309 883.102,-63.6308 893.102,-67.1309 893.102,-60.1309"/>
</g>
<!-- Node23 -->
<g id="node59" class="node"><title>Node23</title>
<a xlink:href="classServer.xhtml#a50b81aa91d8fdaee6f52c5c5ec987990" target="_top" xlink:title="The core update loop of NAMS. This loop spawns all other subsystem update routines and then sleeps fo...">
<polygon fill="white" stroke="black" points="1096.5,-53.1308 1096.5,-74.1308 1185.5,-74.1308 1185.5,-53.1308 1096.5,-53.1308"/>
<text text-anchor="middle" x="1141" y="-61.1308" font-family="FreeSans.ttf" font-size="10.00">Server::Update</text>
</a>
</g>
<!-- Node22&#45;&gt;Node23 -->
<g id="edge72" class="edge"><title>Node22&#45;&gt;Node23</title>
<path fill="none" stroke="midnightblue" d="M1066.57,-63.6308C1076.69,-63.6308 1086.94,-63.6308 1096.47,-63.6308"/>
<polygon fill="midnightblue" stroke="midnightblue" points="1066.54,-60.1309 1056.54,-63.6308 1066.54,-67.1309 1066.54,-60.1309"/>
</g>
<!-- Node23&#45;&gt;Node20 -->
<g id="edge74" class="edge"><title>Node23&#45;&gt;Node20</title>
<path fill="none" stroke="midnightblue" d="M1195.64,-74.3449C1205.14,-76.2071 1214.47,-78.0362 1222.3,-79.572"/>
<polygon fill="midnightblue" stroke="midnightblue" points="1196.23,-70.8927 1185.74,-72.4031 1194.88,-77.7619 1196.23,-70.8927"/>
</g>
<!-- Node25 -->
<g id="node64" class="node"><title>Node25</title>
<a xlink:href="classServer.xhtml#a2b4cec469bb99c2a45e49de5ba74d1ae" target="_top" xlink:title="Processes input from all active SocketClient objects.">
<polygon fill="white" stroke="black" points="944,-13.1308 944,-34.1308 1060,-34.1308 1060,-13.1308 944,-13.1308"/>
<text text-anchor="middle" x="1002" y="-21.1308" font-family="FreeSans.ttf" font-size="10.00">Server::ProcessInput</text>
</a>
</g>
<!-- Node24&#45;&gt;Node25 -->
<g id="edge78" class="edge"><title>Node24&#45;&gt;Node25</title>
<path fill="none" stroke="midnightblue" d="M918.249,-23.6308C926.93,-23.6308 935.54,-23.6308 943.748,-23.6308"/>
<polygon fill="midnightblue" stroke="midnightblue" points="918.044,-20.1309 908.044,-23.6308 918.044,-27.1309 918.044,-20.1309"/>
</g>
<!-- Node25&#45;&gt;Node23 -->
<g id="edge80" class="edge"><title>Node25&#45;&gt;Node23</title>
<path fill="none" stroke="midnightblue" d="M1048.34,-36.9666C1066.53,-42.2004 1087.11,-48.1216 1104.24,-53.0525"/>
<polygon fill="midnightblue" stroke="midnightblue" points="1049.1,-33.5423 1038.52,-34.1403 1047.16,-40.2693 1049.1,-33.5423"/>
</g>
</g>
</svg>
        <g id="navigator" transform="translate(0 0)" fill="#404254">
                <rect fill="#f2f5e9" fill-opacity="0.5" stroke="#606060" stroke-width=".5" x="0" y="0" width="60" height="60"/>
                <use id="zoomplus" xlink:href="#zoomPlus" x="17" y="9" onmousedown="handleZoom(evt,'in')"/>
                <use id="zoomminus" xlink:href="#zoomMin" x="42" y="9" onmousedown="handleZoom(evt,'out')"/>
                <use id="reset" xlink:href="#resetDef" x="30" y="36" onmousedown="handleReset()"/>
                <g id="arrowUp" xlink:href="#dirArrow" transform="translate(30 24)" onmousedown="handlePan(0,-1)">
                  <use xlink:href="#rim" fill="#404040">
                        <set attributeName="fill" to="#808080" begin="arrowUp.mouseover" end="arrowUp.mouseout"/>
                  </use>
                  <path fill="none" stroke="white" stroke-width="1.5" d="M0,-3.0v7 M-2.5,-0.5L0,-3.0L2.5,-0.5"/>
                </g>
                <g id="arrowRight" xlink:href="#dirArrow" transform="rotate(90) translate(36 -43)" onmousedown="handlePan(1,0)">
                  <use xlink:href="#rim" fill="#404040">
                        <set attributeName="fill" to="#808080" begin="arrowRight.mouseover" end="arrowRight.mouseout"/>
                  </use>
                  <path fill="none" stroke="white" stroke-width="1.5" d="M0,-3.0v7 M-2.5,-0.5L0,-3.0L2.5,-0.5"/>
                </g>
                <g id="arrowDown" xlink:href="#dirArrow" transform="rotate(180) translate(-30 -48)" onmousedown="handlePan(0,1)">
                  <use xlink:href="#rim" fill="#404040">
                        <set attributeName="fill" to="#808080" begin="arrowDown.mouseover" end="arrowDown.mouseout"/>
                  </use>
                  <path fill="none" stroke="white" stroke-width="1.5" d="M0,-3.0v7 M-2.5,-0.5L0,-3.0L2.5,-0.5"/>
                </g>
                <g id="arrowLeft" xlink:href="#dirArrow" transform="rotate(270) translate(-36 17)" onmousedown="handlePan(-1,0)">
                  <use xlink:href="#rim" fill="#404040">
                        <set attributeName="fill" to="#808080" begin="arrowLeft.mouseover" end="arrowLeft.mouseout"/>
                  </use>
                  <path fill="none" stroke="white" stroke-width="1.5" d="M0,-3.0v7 M-2.5,-0.5L0,-3.0L2.5,-0.5"/>
                </g>
        </g>
</svg>
