<?xml version="1.0" encoding="UTF-8" standalone="no"?>
<!DOCTYPE svg PUBLIC "-//W3C//DTD SVG 1.1//EN"
 "http://www.w3.org/Graphics/SVG/1.1/DTD/svg11.dtd">
<!-- Generated by graphviz version 2.26.3 (20100126.1600)
 -->
<!-- Title: Thing::sId Pages: 1 -->
<svg width="1524pt" height="672pt"
 viewBox="0.00 0.00 1524.00 672.00" xmlns="http://www.w3.org/2000/svg" xmlns:xlink="http://www.w3.org/1999/xlink">
<g id="graph1" class="graph" transform="scale(1 1) rotate(0) translate(4 668)">
<title>Thing::sId</title>
<polygon fill="white" stroke="white" points="-4,5 -4,-668 1521,-668 1521,5 -4,5"/>
<!-- Node1 -->
<g id="node1" class="node"><title>Node1</title>
<polygon fill="#bfbfbf" stroke="black" points="0,-76 0,-96 62,-96 62,-76 0,-76"/>
<text text-anchor="middle" x="31" y="-83" font-family="FreeSans.ttf" font-size="10.00">Thing::sId</text>
</g>
<!-- Node2 -->
<g id="node3" class="node"><title>Node2</title>
<a xlink:href="classCharacter.xhtml#a91193d9bb29423c2ec95fb56c27d6bb3" target="_top" xlink:title="Unserialize the character data.">
<polygon fill="white" stroke="black" points="98,-76 98,-96 220,-96 220,-76 98,-76"/>
<text text-anchor="middle" x="159" y="-83" font-family="FreeSans.ttf" font-size="10.00">Character::Unserialize</text>
</a>
</g>
<!-- Node1&#45;&gt;Node2 -->
<g id="edge2" class="edge"><title>Node1&#45;&gt;Node2</title>
<path fill="none" stroke="midnightblue" d="M72.3372,-86C80.53,-86 89.2917,-86 97.98,-86"/>
<polygon fill="midnightblue" stroke="midnightblue" points="72.3124,-82.5001 62.3123,-86 72.3123,-89.5001 72.3124,-82.5001"/>
</g>
<!-- Node4 -->
<g id="node7" class="node"><title>Node4</title>
<a xlink:href="namespaceHandler.xhtml#ab5889a65de2794129b375ec39ae923ae" target="_top" xlink:title="Select a new Character name.">
<polygon fill="white" stroke="black" points="408.5,-270 408.5,-290 577.5,-290 577.5,-270 408.5,-270"/>
<text text-anchor="middle" x="493" y="-277" font-family="FreeSans.ttf" font-size="10.00">Handler::CharacterCreateName</text>
</a>
</g>
<!-- Node1&#45;&gt;Node4 -->
<g id="edge90" class="edge"><title>Node1&#45;&gt;Node4</title>
<path fill="none" stroke="midnightblue" d="M64.15,-99.9201C152.52,-137.028 392.226,-237.684 468.999,-269.922"/>
<polygon fill="midnightblue" stroke="midnightblue" points="65.4415,-96.6664 54.8663,-96.0218 62.7313,-103.121 65.4415,-96.6664"/>
</g>
<!-- Node28 -->
<g id="node74" class="node"><title>Node28</title>
<a xlink:href="classLocation.xhtml#af65d15c0c107b1fdea7711d632ac909d" target="_top" xlink:title="Unserialize the location data.">
<polygon fill="white" stroke="black" points="256,-9 256,-29 372,-29 372,-9 256,-9"/>
<text text-anchor="middle" x="314" y="-16" font-family="FreeSans.ttf" font-size="10.00">Location::Unserialize</text>
</a>
</g>
<!-- Node1&#45;&gt;Node28 -->
<g id="edge92" class="edge"><title>Node1&#45;&gt;Node28</title>
<path fill="none" stroke="midnightblue" d="M72.046,-73.956C80.5989,-71.5601 89.5747,-69.1289 98,-67 154.984,-52.6015 221.008,-38.2684 264.912,-29.0656"/>
<polygon fill="midnightblue" stroke="midnightblue" points="70.9236,-70.6362 62.2582,-76.7322 72.8338,-77.3706 70.9236,-70.6362"/>
</g>
<!-- Node3 -->
<g id="node5" class="node"><title>Node3</title>
<a xlink:href="classCharacter.xhtml#a829a28ec5f8573f3f53684ac4dcb75bb" target="_top" xlink:title="Create a new character.">
<polygon fill="white" stroke="black" points="269,-76 269,-96 359,-96 359,-76 269,-76"/>
<text text-anchor="middle" x="314" y="-83" font-family="FreeSans.ttf" font-size="10.00">Character::New</text>
</a>
</g>
<!-- Node2&#45;&gt;Node3 -->
<g id="edge4" class="edge"><title>Node2&#45;&gt;Node3</title>
<path fill="none" stroke="midnightblue" d="M230.646,-86C243.691,-86 256.959,-86 268.959,-86"/>
<polygon fill="midnightblue" stroke="midnightblue" points="230.26,-82.5001 220.26,-86 230.26,-89.5001 230.26,-82.5001"/>
</g>
<!-- Node3&#45;&gt;Node4 -->
<g id="edge6" class="edge"><title>Node3&#45;&gt;Node4</title>
<path fill="none" stroke="midnightblue" d="M330.16,-103.514C366.735,-143.154 454.91,-238.718 483.721,-269.943"/>
<polygon fill="midnightblue" stroke="midnightblue" points="332.725,-101.133 323.372,-96.1571 327.581,-105.88 332.725,-101.133"/>
</g>
<!-- Node17 -->
<g id="node45" class="node"><title>Node17</title>
<a xlink:href="namespaceHandler.xhtml#ae70e4e50054c729c14493eafefe01b5c" target="_top" xlink:title="Load a character from the account to enter into the game with.">
<polygon fill="white" stroke="black" points="798.5,-76 798.5,-96 929.5,-96 929.5,-76 798.5,-76"/>
<text text-anchor="middle" x="864" y="-83" font-family="FreeSans.ttf" font-size="10.00">Handler::LoadCharacter</text>
</a>
</g>
<!-- Node3&#45;&gt;Node17 -->
<g id="edge86" class="edge"><title>Node3&#45;&gt;Node17</title>
<path fill="none" stroke="midnightblue" d="M369.096,-86C471.068,-86 688.781,-86 798.263,-86"/>
<polygon fill="midnightblue" stroke="midnightblue" points="369.009,-82.5001 359.009,-86 369.009,-89.5001 369.009,-82.5001"/>
</g>
<!-- Node20 -->
<g id="node53" class="node"><title>Node20</title>
<a xlink:href="namespaceServer.xhtml#a16ea0639731dee10e1a253375b508a02" target="_top" xlink:title="Recovers the server state and re&#45;connects client sockets after a reboot.">
<polygon fill="white" stroke="black" points="1010,-284 1010,-304 1140,-304 1140,-284 1010,-284"/>
<text text-anchor="middle" x="1075" y="-291" font-family="FreeSans.ttf" font-size="10.00">Server::RebootRecovery</text>
</a>
</g>
<!-- Node3&#45;&gt;Node20 -->
<g id="edge88" class="edge"><title>Node3&#45;&gt;Node20</title>
<path fill="none" stroke="midnightblue" d="M369.601,-76.8777C506.647,-55.5568 856.579,-8.53232 954,-67 956.668,-68.6015 1046.5,-239.661 1069.62,-283.736"/>
<polygon fill="midnightblue" stroke="midnightblue" points="368.669,-73.4812 359.332,-78.4894 369.754,-80.3965 368.669,-73.4812"/>
</g>
<!-- Node5 -->
<g id="node9" class="node"><title>Node5</title>
<a xlink:href="namespaceHandler.xhtml#a139febc000c9d767a620708148e0c888" target="_top" xlink:title="Dispatches the appropriate menu based on client state.">
<polygon fill="white" stroke="black" points="614.5,-322 614.5,-342 737.5,-342 737.5,-322 614.5,-322"/>
<text text-anchor="middle" x="676" y="-329" font-family="FreeSans.ttf" font-size="10.00">Handler::LoginHandler</text>
</a>
</g>
<!-- Node4&#45;&gt;Node5 -->
<g id="edge8" class="edge"><title>Node4&#45;&gt;Node5</title>
<path fill="none" stroke="midnightblue" d="M560.543,-292.652C594.479,-301.688 633.144,-313.386 656.01,-321.913"/>
<polygon fill="midnightblue" stroke="midnightblue" points="561.212,-289.21 550.651,-290.06 559.437,-295.981 561.212,-289.21"/>
</g>
<!-- Node5&#45;&gt;Node4 -->
<g id="edge26" class="edge"><title>Node5&#45;&gt;Node4</title>
<path fill="none" stroke="midnightblue" d="M608.414,-319.336C574.46,-310.295 535.781,-298.591 512.933,-290.065"/>
<polygon fill="midnightblue" stroke="midnightblue" points="607.75,-322.78 618.311,-321.93 609.525,-316.009 607.75,-322.78"/>
</g>
<!-- Node6 -->
<g id="node11" class="node"><title>Node6</title>
<a xlink:href="namespaceHandler.xhtml#a33a19d69ead678af81fbe96907eceaf0" target="_top" xlink:title="Create a new account object, or load an existing one, with a name and password.">
<polygon fill="white" stroke="black" points="798.5,-530 798.5,-550 929.5,-550 929.5,-530 798.5,-530"/>
<text text-anchor="middle" x="864" y="-537" font-family="FreeSans.ttf" font-size="10.00">Handler::AttachAccount</text>
</a>
</g>
<!-- Node5&#45;&gt;Node6 -->
<g id="edge10" class="edge"><title>Node5&#45;&gt;Node6</title>
<path fill="none" stroke="midnightblue" d="M681.758,-351.982C692.437,-389.753 719.378,-470.454 774,-512 786.965,-521.861 803.886,-526.88 819.553,-529.92"/>
<polygon fill="midnightblue" stroke="midnightblue" points="685.077,-350.851 679.059,-342.13 678.325,-352.7 685.077,-350.851"/>
</g>
<!-- Node7 -->
<g id="node14" class="node"><title>Node7</title>
<a xlink:href="namespaceHandler.xhtml#a2e4ebf6ed049eb872aa4948d54c4932c" target="_top" xlink:title="Attempt to write a new character to disk after creation was completed.">
<polygon fill="white" stroke="black" points="794.5,-492 794.5,-512 933.5,-512 933.5,-492 794.5,-492"/>
<text text-anchor="middle" x="864" y="-499" font-family="FreeSans.ttf" font-size="10.00">Handler::AttachCharacter</text>
</a>
</g>
<!-- Node5&#45;&gt;Node7 -->
<g id="edge14" class="edge"><title>Node5&#45;&gt;Node7</title>
<path fill="none" stroke="midnightblue" d="M685.422,-351.776C699.306,-383.109 728.628,-442.854 774,-474 788.482,-483.942 807.136,-488.848 823.702,-491.924"/>
<polygon fill="midnightblue" stroke="midnightblue" points="688.506,-350.093 681.304,-342.322 682.088,-352.888 688.506,-350.093"/>
</g>
<!-- Node8 -->
<g id="node17" class="node"><title>Node8</title>
<a xlink:href="namespaceHandler.xhtml#a73ed6064f2698dbffb5f4c247a02b661" target="_top" xlink:title="Send initial account interface menu.">
<polygon fill="white" stroke="black" points="790,-454 790,-474 938,-474 938,-454 790,-454"/>
<text text-anchor="middle" x="864" y="-461" font-family="FreeSans.ttf" font-size="10.00">Handler::AccountMenuMain</text>
</a>
</g>
<!-- Node5&#45;&gt;Node8 -->
<g id="edge18" class="edge"><title>Node5&#45;&gt;Node8</title>
<path fill="none" stroke="midnightblue" d="M690.642,-350.267C707.389,-374.071 737.293,-414.384 774,-436 790.788,-445.886 812.015,-450.665 829.637,-453.933"/>
<polygon fill="midnightblue" stroke="midnightblue" points="693.479,-348.216 684.881,-342.026 687.741,-352.227 693.479,-348.216"/>
</g>
<!-- Node9 -->
<g id="node20" class="node"><title>Node9</title>
<a xlink:href="namespaceHandler.xhtml#ad04998a7a6ece2486bc441052a57c2d7" target="_top" xlink:title="Main Character creation menu.">
<polygon fill="white" stroke="black" points="794,-404 794,-436 934,-436 934,-404 794,-404"/>
<text text-anchor="start" x="802" y="-423" font-family="FreeSans.ttf" font-size="10.00">Handler::CharacterCreate</text>
<text text-anchor="middle" x="864" y="-411" font-family="FreeSans.ttf" font-size="10.00">MenuMain</text>
</a>
</g>
<!-- Node5&#45;&gt;Node9 -->
<g id="edge22" class="edge"><title>Node5&#45;&gt;Node9</title>
<path fill="none" stroke="midnightblue" d="M707.259,-347.674C725.855,-359.655 750.364,-375.412 774,-386 790.576,-393.425 809.874,-399.138 826.34,-403.97"/>
<polygon fill="midnightblue" stroke="midnightblue" points="708.941,-344.594 698.635,-342.135 705.158,-350.484 708.941,-344.594"/>
</g>
<!-- Node10 -->
<g id="node24" class="node"><title>Node10</title>
<a xlink:href="namespaceHandler.xhtml#ae5086bcf5857eb572beedd09158c3065" target="_top" xlink:title="Select a new Character sex.">
<polygon fill="white" stroke="black" points="785,-366 785,-386 943,-386 943,-366 785,-366"/>
<text text-anchor="middle" x="864" y="-373" font-family="FreeSans.ttf" font-size="10.00">Handler::CharacterCreateSex</text>
</a>
</g>
<!-- Node5&#45;&gt;Node10 -->
<g id="edge28" class="edge"><title>Node5&#45;&gt;Node10</title>
<path fill="none" stroke="midnightblue" d="M747.565,-341.692C756.453,-343.829 765.427,-346.002 774,-348 799.351,-353.907 828.906,-359.994 847.034,-365.961"/>
<polygon fill="midnightblue" stroke="midnightblue" points="748.131,-338.228 737.591,-339.306 746.503,-345.036 748.131,-338.228"/>
</g>
<!-- Node11 -->
<g id="node27" class="node"><title>Node11</title>
<a xlink:href="namespaceHandler.xhtml#a97a198bfc72285b2aca4f36978db715e" target="_top" xlink:title="Main Character deletion confirmation.">
<polygon fill="white" stroke="black" points="794.5,-316 794.5,-348 933.5,-348 933.5,-316 794.5,-316"/>
<text text-anchor="start" x="802.5" y="-335" font-family="FreeSans.ttf" font-size="10.00">Handler::CharacterDelete</text>
<text text-anchor="middle" x="864" y="-323" font-family="FreeSans.ttf" font-size="10.00">Confirm</text>
</a>
</g>
<!-- Node5&#45;&gt;Node11 -->
<g id="edge32" class="edge"><title>Node5&#45;&gt;Node11</title>
<path fill="none" stroke="midnightblue" d="M747.972,-325.418C763.235,-325.181 779.319,-325.195 794.488,-325.458"/>
<polygon fill="midnightblue" stroke="midnightblue" points="747.488,-321.926 737.558,-325.621 747.625,-328.925 747.488,-321.926"/>
</g>
<!-- Node12 -->
<g id="node30" class="node"><title>Node12</title>
<a xlink:href="namespaceHandler.xhtml#afc470ec6e82b7a9a1560588a368734f9" target="_top" xlink:title="Main Character deletion menu.">
<polygon fill="white" stroke="black" points="794.5,-266 794.5,-298 933.5,-298 933.5,-266 794.5,-266"/>
<text text-anchor="start" x="802.5" y="-285" font-family="FreeSans.ttf" font-size="10.00">Handler::CharacterDelete</text>
<text text-anchor="middle" x="864" y="-273" font-family="FreeSans.ttf" font-size="10.00">MenuMain</text>
</a>
</g>
<!-- Node5&#45;&gt;Node12 -->
<g id="edge36" class="edge"><title>Node5&#45;&gt;Node12</title>
<path fill="none" stroke="midnightblue" d="M706.718,-318.684C730.455,-310.918 764.243,-301.466 794.422,-293.961"/>
<polygon fill="midnightblue" stroke="midnightblue" points="705.555,-315.382 697.201,-321.898 707.795,-322.014 705.555,-315.382"/>
</g>
<!-- Node13 -->
<g id="node33" class="node"><title>Node13</title>
<a xlink:href="namespaceHandler.xhtml#a02b1b954749641ab646f6548a5360d3b" target="_top" xlink:title="Main Character load menu.">
<polygon fill="white" stroke="black" points="774.5,-228 774.5,-248 953.5,-248 953.5,-228 774.5,-228"/>
<text text-anchor="middle" x="864" y="-235" font-family="FreeSans.ttf" font-size="10.00">Handler::CharacterLoadMenuMain</text>
</a>
</g>
<!-- Node5&#45;&gt;Node13 -->
<g id="edge40" class="edge"><title>Node5&#45;&gt;Node13</title>
<path fill="none" stroke="midnightblue" d="M687.952,-313.981C705.314,-294.13 739.249,-263.965 774,-248 774.145,-247.933 774.29,-247.867 774.436,-247.801"/>
<polygon fill="midnightblue" stroke="midnightblue" points="685.191,-311.829 681.572,-321.786 690.611,-316.259 685.191,-311.829"/>
</g>
<!-- Node14 -->
<g id="node36" class="node"><title>Node14</title>
<a xlink:href="namespaceHandler.xhtml#a00bc24564bfd267e0329643c569da1e4" target="_top" xlink:title="Select a new account name.">
<polygon fill="white" stroke="black" points="795.5,-190 795.5,-210 932.5,-210 932.5,-190 795.5,-190"/>
<text text-anchor="middle" x="864" y="-197" font-family="FreeSans.ttf" font-size="10.00">Handler::GetNewAccount</text>
</a>
</g>
<!-- Node5&#45;&gt;Node14 -->
<g id="edge44" class="edge"><title>Node5&#45;&gt;Node14</title>
<path fill="none" stroke="midnightblue" d="M683.977,-312.487C698.513,-284.529 731.751,-234.88 774,-210 780.605,-206.11 787.897,-203.011 795.387,-200.602"/>
<polygon fill="midnightblue" stroke="midnightblue" points="680.713,-311.197 679.486,-321.72 687.008,-314.259 680.713,-311.197"/>
</g>
<!-- Node15 -->
<g id="node39" class="node"><title>Node15</title>
<a xlink:href="namespaceHandler.xhtml#a744adadcf407cdb3a9c33365afd5a7c2" target="_top" xlink:title="Create a new account.">
<polygon fill="white" stroke="black" points="793,-152 793,-172 935,-172 935,-152 793,-152"/>
<text text-anchor="middle" x="864" y="-159" font-family="FreeSans.ttf" font-size="10.00">Handler::GetNewPassword</text>
</a>
</g>
<!-- Node5&#45;&gt;Node15 -->
<g id="edge48" class="edge"><title>Node5&#45;&gt;Node15</title>
<path fill="none" stroke="midnightblue" d="M681.189,-312.107C692.677,-277.233 723.33,-206.783 774,-172 779.793,-168.023 786.253,-164.852 792.98,-162.373"/>
<polygon fill="midnightblue" stroke="midnightblue" points="677.83,-311.121 678.237,-321.708 684.521,-313.178 677.83,-311.121"/>
</g>
<!-- Node16 -->
<g id="node42" class="node"><title>Node16</title>
<a xlink:href="namespaceHandler.xhtml#adfe13cc9748392348f3941656a1323b6" target="_top" xlink:title="Compare a received password against an existing account.">
<polygon fill="white" stroke="black" points="795.5,-114 795.5,-134 932.5,-134 932.5,-114 795.5,-114"/>
<text text-anchor="middle" x="864" y="-121" font-family="FreeSans.ttf" font-size="10.00">Handler::GetOldPassword</text>
</a>
</g>
<!-- Node5&#45;&gt;Node16 -->
<g id="edge52" class="edge"><title>Node5&#45;&gt;Node16</title>
<path fill="none" stroke="midnightblue" d="M679.254,-312.041C687.797,-271.142 714.445,-179.297 774,-134 780.355,-129.166 787.661,-125.496 795.304,-122.786"/>
<polygon fill="midnightblue" stroke="midnightblue" points="675.803,-311.449 677.349,-321.931 682.677,-312.773 675.803,-311.449"/>
</g>
<!-- Node5&#45;&gt;Node17 -->
<g id="edge56" class="edge"><title>Node5&#45;&gt;Node17</title>
<path fill="none" stroke="midnightblue" d="M677.882,-311.823C683.707,-265.38 705.399,-152.119 774,-96 781.045,-90.2365 789.415,-86.0976 798.17,-83.2449"/>
<polygon fill="midnightblue" stroke="midnightblue" points="674.39,-311.55 676.747,-321.879 681.346,-312.335 674.39,-311.55"/>
</g>
<!-- Node18 -->
<g id="node48" class="node"><title>Node18</title>
<a xlink:href="namespaceHandler.xhtml#a44b41bf69fdc6e615a029bea34910191" target="_top" xlink:title="Send initial greeting and request for account name.">
<polygon fill="white" stroke="black" points="804.5,-644 804.5,-664 923.5,-664 923.5,-644 804.5,-644"/>
<text text-anchor="middle" x="864" y="-651" font-family="FreeSans.ttf" font-size="10.00">Handler::LoginScreen</text>
</a>
</g>
<!-- Node5&#45;&gt;Node18 -->
<g id="edge60" class="edge"><title>Node5&#45;&gt;Node18</title>
<path fill="none" stroke="midnightblue" d="M680.955,-352.354C694.358,-411.873 733.083,-582.356 774,-621 787.99,-634.213 808.421,-640.328 826.282,-643.993"/>
<polygon fill="midnightblue" stroke="midnightblue" points="684.3,-351.278 678.685,-342.293 677.472,-352.819 684.3,-351.278"/>
</g>
<!-- Node19 -->
<g id="node51" class="node"><title>Node19</title>
<a xlink:href="classSocketClient.xhtml#a8399ef20292e9f3ec83b5c4bec2e105b" target="_top" xlink:title="Build a SocketClient for a new client connection and set all attributes.">
<polygon fill="white" stroke="black" points="812.5,-568 812.5,-588 915.5,-588 915.5,-568 812.5,-568"/>
<text text-anchor="middle" x="864" y="-575" font-family="FreeSans.ttf" font-size="10.00">SocketClient::New</text>
</a>
</g>
<!-- Node5&#45;&gt;Node19 -->
<g id="edge64" class="edge"><title>Node5&#45;&gt;Node19</title>
<path fill="none" stroke="midnightblue" d="M678.515,-352.284C685.199,-397.075 707.676,-504.743 774,-559 784.754,-567.797 798.592,-572.809 812.178,-575.593"/>
<polygon fill="midnightblue" stroke="midnightblue" points="681.943,-351.522 677.11,-342.093 675.009,-352.478 681.943,-351.522"/>
</g>
<!-- Node26 -->
<g id="node66" class="node"><title>Node26</title>
<a xlink:href="classSocketClient.xhtml#ad4f63c7d906310dc56a1217136047d7f" target="_top" xlink:title="Interpret the command at the front of the queue.">
<polygon fill="white" stroke="black" points="990,-606 990,-626 1160,-626 1160,-606 990,-606"/>
<text text-anchor="middle" x="1075" y="-613" font-family="FreeSans.ttf" font-size="10.00">SocketClient::ProcessCommand</text>
</a>
</g>
<!-- Node5&#45;&gt;Node26 -->
<g id="edge80" class="edge"><title>Node5&#45;&gt;Node26</title>
<path fill="none" stroke="midnightblue" d="M680.44,-351.992C693.382,-408.335 732.775,-566.318 774,-597 807.026,-621.58 913.05,-623.132 989.932,-620.672"/>
<polygon fill="midnightblue" stroke="midnightblue" points="683.833,-351.127 678.211,-342.146 677.005,-352.672 683.833,-351.127"/>
</g>
<!-- Node6&#45;&gt;Node5 -->
<g id="edge12" class="edge"><title>Node6&#45;&gt;Node5</title>
<path fill="none" stroke="midnightblue" d="M788.533,-538.51C783.363,-536.197 778.449,-533.384 774,-530 708.985,-480.55 683.187,-375.625 677.349,-342.069"/>
<polygon fill="midnightblue" stroke="midnightblue" points="787.478,-541.854 798.069,-542.149 789.974,-535.314 787.478,-541.854"/>
</g>
<!-- Node7&#45;&gt;Node5 -->
<g id="edge16" class="edge"><title>Node7&#45;&gt;Node5</title>
<path fill="none" stroke="midnightblue" d="M785.078,-498.32C781.202,-496.488 777.481,-494.389 774,-492 718.088,-453.618 686.549,-371.809 678.237,-342.292"/>
<polygon fill="midnightblue" stroke="midnightblue" points="783.78,-501.571 794.36,-502.124 786.434,-495.093 783.78,-501.571"/>
</g>
<!-- Node8&#45;&gt;Node5 -->
<g id="edge20" class="edge"><title>Node8&#45;&gt;Node5</title>
<path fill="none" stroke="midnightblue" d="M780.215,-457.338C778.089,-456.297 776.012,-455.185 774,-454 726.562,-426.064 690.486,-366.903 679.486,-342.28"/>
<polygon fill="midnightblue" stroke="midnightblue" points="779.245,-460.73 789.814,-461.46 782.007,-454.298 779.245,-460.73"/>
</g>
<!-- Node9&#45;&gt;Node5 -->
<g id="edge24" class="edge"><title>Node9&#45;&gt;Node5</title>
<path fill="none" stroke="midnightblue" d="M784.435,-408.324C780.875,-406.958 777.381,-405.514 774,-404 737.082,-387.463 698.034,-358.313 682.717,-342.06"/>
<polygon fill="midnightblue" stroke="midnightblue" points="783.387,-411.666 793.981,-411.757 785.756,-405.079 783.387,-411.666"/>
</g>
<!-- Node10&#45;&gt;Node5 -->
<g id="edge30" class="edge"><title>Node10&#45;&gt;Node5</title>
<path fill="none" stroke="midnightblue" d="M775.008,-366.234C774.671,-366.156 774.335,-366.078 774,-366 744.245,-359.067 709.664,-350.009 690.564,-342.092"/>
<polygon fill="midnightblue" stroke="midnightblue" points="774.411,-369.688 784.939,-368.497 775.966,-362.863 774.411,-369.688"/>
</g>
<!-- Node11&#45;&gt;Node5 -->
<g id="edge34" class="edge"><title>Node11&#45;&gt;Node5</title>
<path fill="none" stroke="midnightblue" d="M784.309,-338.68C768.671,-338.834 752.492,-338.734 737.558,-338.379"/>
<polygon fill="midnightblue" stroke="midnightblue" points="784.537,-342.177 794.488,-338.542 784.442,-335.178 784.537,-342.177"/>
</g>
<!-- Node12&#45;&gt;Node5 -->
<g id="edge38" class="edge"><title>Node12&#45;&gt;Node5</title>
<path fill="none" stroke="midnightblue" d="M814.964,-301.052C791.303,-308.187 762.67,-315.925 737.558,-322.007"/>
<polygon fill="midnightblue" stroke="midnightblue" points="816.244,-304.32 824.775,-298.038 814.188,-297.629 816.244,-304.32"/>
</g>
<!-- Node13&#45;&gt;Node5 -->
<g id="edge42" class="edge"><title>Node13&#45;&gt;Node5</title>
<path fill="none" stroke="midnightblue" d="M827.404,-250.139C810.582,-253.712 790.704,-258.326 774,-266 742.266,-280.578 711.213,-306.998 692.839,-321.946"/>
<polygon fill="midnightblue" stroke="midnightblue" points="828.361,-253.515 837.426,-248.031 826.92,-246.664 828.361,-253.515"/>
</g>
<!-- Node14&#45;&gt;Node5 -->
<g id="edge46" class="edge"><title>Node14&#45;&gt;Node5</title>
<path fill="none" stroke="midnightblue" d="M819.398,-212.088C804.211,-215.307 787.64,-219.967 774,-228 732.604,-252.378 699.859,-300.534 684.881,-321.974"/>
<polygon fill="midnightblue" stroke="midnightblue" points="820.504,-215.438 829.637,-210.067 819.149,-208.57 820.504,-215.438"/>
</g>
<!-- Node15&#45;&gt;Node5 -->
<g id="edge50" class="edge"><title>Node15&#45;&gt;Node5</title>
<path fill="none" stroke="midnightblue" d="M813.803,-174.112C800.008,-177.261 785.654,-182 774,-190 723.499,-224.667 692.882,-294.764 681.304,-321.678"/>
<polygon fill="midnightblue" stroke="midnightblue" points="814.612,-177.519 823.702,-172.076 813.202,-170.662 814.612,-177.519"/>
</g>
<!-- Node16&#45;&gt;Node5 -->
<g id="edge54" class="edge"><title>Node16&#45;&gt;Node5</title>
<path fill="none" stroke="midnightblue" d="M809.52,-136.295C796.923,-139.453 784.23,-144.219 774,-152 713.986,-197.647 687.388,-290.561 679.059,-321.87"/>
<polygon fill="midnightblue" stroke="midnightblue" points="810.542,-139.653 819.553,-134.08 809.033,-132.818 810.542,-139.653"/>
</g>
<!-- Node17&#45;&gt;Node5 -->
<g id="edge58" class="edge"><title>Node17&#45;&gt;Node5</title>
<path fill="none" stroke="midnightblue" d="M806.917,-98.365C795.075,-101.546 783.367,-106.337 774,-114 704.394,-170.941 683.082,-286.71 677.636,-321.956"/>
<polygon fill="midnightblue" stroke="midnightblue" points="807.907,-101.728 816.847,-96.0434 806.313,-94.9118 807.907,-101.728"/>
</g>
<!-- Node18&#45;&gt;Node5 -->
<g id="edge62" class="edge"><title>Node18&#45;&gt;Node5</title>
<path fill="none" stroke="midnightblue" d="M794.911,-652.337C787.227,-649.054 780.018,-644.684 774,-639 728.566,-596.089 685.833,-390.618 677.472,-342.055"/>
<polygon fill="midnightblue" stroke="midnightblue" points="793.877,-655.685 804.471,-655.817 796.272,-649.107 793.877,-655.685"/>
</g>
<!-- Node19&#45;&gt;Node20 -->
<g id="edge66" class="edge"><title>Node19&#45;&gt;Node20</title>
<path fill="none" stroke="midnightblue" d="M925.576,-573.015C935.828,-570.033 945.782,-565.581 954,-559 1040.85,-489.447 1067.79,-343.729 1073.65,-304.121"/>
<polygon fill="midnightblue" stroke="midnightblue" points="924.577,-569.657 915.703,-575.446 926.25,-576.454 924.577,-569.657"/>
</g>
<!-- Node23 -->
<g id="node59" class="node"><title>Node23</title>
<a xlink:href="classSocketServer.xhtml#afdbc60c3bc840875d2214b59c6213f63" target="_top" xlink:title="Accept a new connection on the listening port.">
<polygon fill="white" stroke="black" points="1015,-568 1015,-588 1135,-588 1135,-568 1015,-568"/>
<text text-anchor="middle" x="1075" y="-575" font-family="FreeSans.ttf" font-size="10.00">SocketServer::Accept</text>
</a>
</g>
<!-- Node19&#45;&gt;Node23 -->
<g id="edge72" class="edge"><title>Node19&#45;&gt;Node23</title>
<path fill="none" stroke="midnightblue" d="M925.731,-578C953.855,-578 987.024,-578 1014.94,-578"/>
<polygon fill="midnightblue" stroke="midnightblue" points="925.616,-574.5 915.616,-578 925.616,-581.5 925.616,-574.5"/>
</g>
<!-- Node21 -->
<g id="node55" class="node"><title>Node21</title>
<a xlink:href="namespaceServer.xhtml#a19a1e493e1fb50a56d9c77332543d565" target="_top" xlink:title="Start the NAMS Server. Responsible for calling all critical boot&#45;time functions such as SocketServer ...">
<polygon fill="white" stroke="black" points="1209,-284 1209,-304 1299,-304 1299,-284 1209,-284"/>
<text text-anchor="middle" x="1254" y="-291" font-family="FreeSans.ttf" font-size="10.00">Server::Startup</text>
</a>
</g>
<!-- Node20&#45;&gt;Node21 -->
<g id="edge68" class="edge"><title>Node20&#45;&gt;Node21</title>
<path fill="none" stroke="midnightblue" d="M1150.13,-294C1170.08,-294 1191,-294 1208.8,-294"/>
<polygon fill="midnightblue" stroke="midnightblue" points="1150.13,-290.5 1140.13,-294 1150.13,-297.5 1150.13,-290.5"/>
</g>
<!-- Node22 -->
<g id="node57" class="node"><title>Node22</title>
<a xlink:href="main_8cpp.xhtml#ad53223b8779f25caeddb70a3b9172967" target="_top" xlink:title="The default function required to execute the server.">
<polygon fill="white" stroke="black" points="1474.5,-487 1474.5,-507 1515.5,-507 1515.5,-487 1474.5,-487"/>
<text text-anchor="middle" x="1495" y="-494" font-family="FreeSans.ttf" font-size="10.00">main</text>
</a>
</g>
<!-- Node21&#45;&gt;Node22 -->
<g id="edge70" class="edge"><title>Node21&#45;&gt;Node22</title>
<path fill="none" stroke="midnightblue" d="M1273.79,-310.671C1321.96,-351.242 1444.17,-454.182 1482.98,-486.872"/>
<polygon fill="midnightblue" stroke="midnightblue" points="1275.85,-307.832 1265.95,-304.067 1271.34,-313.186 1275.85,-307.832"/>
</g>
<!-- Node24 -->
<g id="node61" class="node"><title>Node24</title>
<a xlink:href="namespaceServer.xhtml#a39dbe16fdc8c5f6fbd678c6540fbcd6c" target="_top" xlink:title="Poll all SocketClient objects that are communicating with the associated SocketServer object...">
<polygon fill="white" stroke="black" points="1199.5,-568 1199.5,-588 1308.5,-588 1308.5,-568 1199.5,-568"/>
<text text-anchor="middle" x="1254" y="-575" font-family="FreeSans.ttf" font-size="10.00">Server::PollSockets</text>
</a>
</g>
<!-- Node23&#45;&gt;Node24 -->
<g id="edge74" class="edge"><title>Node23&#45;&gt;Node24</title>
<path fill="none" stroke="midnightblue" d="M1145.27,-578C1163.28,-578 1182.39,-578 1199.48,-578"/>
<polygon fill="midnightblue" stroke="midnightblue" points="1145.1,-574.5 1135.1,-578 1145.1,-581.5 1145.1,-574.5"/>
</g>
<!-- Node25 -->
<g id="node63" class="node"><title>Node25</title>
<a xlink:href="namespaceServer.xhtml#a50b81aa91d8fdaee6f52c5c5ec987990" target="_top" xlink:title="The core update loop of NAMS. This loop spawns all other subsystem update routines and then sleeps fo...">
<polygon fill="white" stroke="black" points="1348.5,-568 1348.5,-588 1437.5,-588 1437.5,-568 1348.5,-568"/>
<text text-anchor="middle" x="1393" y="-575" font-family="FreeSans.ttf" font-size="10.00">Server::Update</text>
</a>
</g>
<!-- Node24&#45;&gt;Node25 -->
<g id="edge76" class="edge"><title>Node24&#45;&gt;Node25</title>
<path fill="none" stroke="midnightblue" d="M1318.57,-578C1328.69,-578 1338.94,-578 1348.47,-578"/>
<polygon fill="midnightblue" stroke="midnightblue" points="1318.54,-574.5 1308.54,-578 1318.54,-581.5 1318.54,-574.5"/>
</g>
<!-- Node25&#45;&gt;Node22 -->
<g id="edge78" class="edge"><title>Node25&#45;&gt;Node22</title>
<path fill="none" stroke="midnightblue" d="M1413.75,-561.52C1434.26,-545.231 1465,-520.826 1482.19,-507.175"/>
<polygon fill="midnightblue" stroke="midnightblue" points="1411.57,-558.782 1405.92,-567.741 1415.93,-564.263 1411.57,-558.782"/>
</g>
<!-- Node27 -->
<g id="node68" class="node"><title>Node27</title>
<a xlink:href="namespaceServer.xhtml#a2b4cec469bb99c2a45e49de5ba74d1ae" target="_top" xlink:title="Processes input from all active SocketClient objects.">
<polygon fill="white" stroke="black" points="1196,-606 1196,-626 1312,-626 1312,-606 1196,-606"/>
<text text-anchor="middle" x="1254" y="-613" font-family="FreeSans.ttf" font-size="10.00">Server::ProcessInput</text>
</a>
</g>
<!-- Node26&#45;&gt;Node27 -->
<g id="edge82" class="edge"><title>Node26&#45;&gt;Node27</title>
<path fill="none" stroke="midnightblue" d="M1170.25,-616C1178.93,-616 1187.54,-616 1195.75,-616"/>
<polygon fill="midnightblue" stroke="midnightblue" points="1170.04,-612.5 1160.04,-616 1170.04,-619.5 1170.04,-612.5"/>
</g>
<!-- Node27&#45;&gt;Node25 -->
<g id="edge84" class="edge"><title>Node27&#45;&gt;Node25</title>
<path fill="none" stroke="midnightblue" d="M1300.62,-603.255C1318.63,-598.331 1338.96,-592.775 1355.94,-588.131"/>
<polygon fill="midnightblue" stroke="midnightblue" points="1299.61,-599.903 1290.88,-605.916 1301.45,-606.655 1299.61,-599.903"/>
</g>
<!-- Node29 -->
<g id="node76" class="node"><title>Node29</title>
<a xlink:href="classLocation.xhtml#a6396aba5eab9bcbabb000c3f6478e1a2" target="_top" xlink:title="Create a new location.">
<polygon fill="white" stroke="black" points="451.5,-0 451.5,-20 534.5,-20 534.5,-0 451.5,-0"/>
<text text-anchor="middle" x="493" y="-7" font-family="FreeSans.ttf" font-size="10.00">Location::New</text>
</a>
</g>
<!-- Node28&#45;&gt;Node29 -->
<g id="edge94" class="edge"><title>Node28&#45;&gt;Node29</title>
<path fill="none" stroke="midnightblue" d="M382.281,-15.5669C405.527,-14.3981 430.8,-13.1274 451.323,-12.0955"/>
<polygon fill="midnightblue" stroke="midnightblue" points="381.928,-12.0801 372.116,-16.078 382.279,-19.0713 381.928,-12.0801"/>
</g>
<!-- Node30 -->
<g id="node78" class="node"><title>Node30</title>
<a xlink:href="namespaceServer.xhtml#a9b8efad79a32f2356d431788449e1f82" target="_top" xlink:title="Search all subfolders of CFG_DAT_DIR_WORLD and call Location::New() to load each file found to memory...">
<polygon fill="white" stroke="black" points="614.5,-0 614.5,-20 737.5,-20 737.5,-0 614.5,-0"/>
<text text-anchor="middle" x="676" y="-7" font-family="FreeSans.ttf" font-size="10.00">Server::LoadLocations</text>
</a>
</g>
<!-- Node29&#45;&gt;Node30 -->
<g id="edge96" class="edge"><title>Node29&#45;&gt;Node30</title>
<path fill="none" stroke="midnightblue" d="M544.548,-10C566.29,-10 591.776,-10 614.491,-10"/>
<polygon fill="midnightblue" stroke="midnightblue" points="544.526,-6.5001 534.526,-10 544.525,-13.5001 544.526,-6.5001"/>
</g>
<!-- Node30&#45;&gt;Node21 -->
<g id="edge98" class="edge"><title>Node30&#45;&gt;Node21</title>
<path fill="none" stroke="midnightblue" d="M747.857,-4.28552C805.775,-2.43351 888.129,-6.14203 954,-34 1093.97,-93.1953 1215.39,-243.308 1246.37,-283.802"/>
<polygon fill="midnightblue" stroke="midnightblue" points="747.557,-0.794385 737.698,-4.67522 747.825,-7.78924 747.557,-0.794385"/>
</g>
</g>
</svg>
