<?xml version="1.0" encoding="UTF-8" standalone="no"?>
<!DOCTYPE svg PUBLIC "-//W3C//DTD SVG 1.1//EN"
 "http://www.w3.org/Graphics/SVG/1.1/DTD/svg11.dtd">
<!-- Generated by graphviz version 2.26.3 (20100126.1600)
 -->
<!-- Title: Thing::sDescription Pages: 1 -->
<!--zoomable 672 -->
<svg id="main" version="1.1" xmlns="http://www.w3.org/2000/svg" xmlns:xlink="http://www.w3.org/1999/xlink" xml:space="preserve" onload="init(evt)">
        <defs>
                <circle id="rim" cx="0" cy="0" r="7"/>
                <circle id="rim2" cx="0" cy="0" r="3.5"/>
                <g id="zoomPlus">
                        <use xlink:href="#rim" fill="#404040">
                                <set attributeName="fill" to="#808080" begin="zoomplus.mouseover" end="zoomplus.mouseout"/>
                        </use>
                        <path d="M-4,0h8M0,-4v8" fill="none" stroke="white" stroke-width="1.5" pointer-events="none"/>
                </g>
                <g id="zoomMin">
                        <use xlink:href="#rim" fill="#404040">
                                <set attributeName="fill" to="#808080" begin="zoomminus.mouseover" end="zoomminus.mouseout"/>
                        </use>
                        <path d="M-4,0h8" fill="none" stroke="white" stroke-width="1.5" pointer-events="none"/>
                </g>
                <g id="dirArrow">
                        <path fill="none" stroke="white" stroke-width="1.5" d="M0,-3.0v7 M-2.5,-0.5L0,-3.0L2.5,-0.5"/>
                </g>
               <g id="resetDef">
                       <use xlink:href="#rim2" fill="#404040">
                               <set attributeName="fill" to="#808080" begin="reset.mouseover" end="reset.mouseout"/>
                       </use>
               </g>
        </defs>

<script type="text/javascript">
var viewWidth = 1570;
var viewHeight = 672;
var sectionId = 'dynsection-12';
</script>
<script xlink:href="svgpan.js"/>
<svg id="graph" class="graph">
<g id="viewport">
<title>Thing::sDescription</title>
<polygon fill="white" stroke="white" points="-4,5 -4,-668 1567,-668 1567,5 -4,5"/>
<!-- Node1 -->
<g id="node1" class="node"><title>Node1</title>
<polygon fill="#bfbfbf" stroke="black" points="0.5,-395 0.5,-415 107.5,-415 107.5,-395 0.5,-395"/>
<text text-anchor="middle" x="54" y="-402" font-family="FreeSans.ttf" font-size="10.00">Thing::sDescription</text>
</g>
<!-- Node2 -->
<g id="node3" class="node"><title>Node2</title>
<a xlink:href="classCharacter.xhtml#a91193d9bb29423c2ec95fb56c27d6bb3" target="_top" xlink:title="Unserialize the character data.">
<polygon fill="white" stroke="black" points="144,-335 144,-355 266,-355 266,-335 144,-335"/>
<text text-anchor="middle" x="205" y="-342" font-family="FreeSans.ttf" font-size="10.00">Character::Unserialize</text>
</a>
</g>
<!-- Node1&#45;&gt;Node2 -->
<g id="edge2" class="edge"><title>Node1&#45;&gt;Node2</title>
<path fill="none" stroke="midnightblue" d="M88.6121,-391.247C116.368,-380.218 154.68,-364.995 179.644,-355.075"/>
<polygon fill="midnightblue" stroke="midnightblue" points="87.2748,-388.012 79.274,-394.957 89.8597,-394.517 87.2748,-388.012"/>
</g>
<!-- Node28 -->
<g id="node73" class="node"><title>Node28</title>
<a xlink:href="classLocation.xhtml#af65d15c0c107b1fdea7711d632ac909d" target="_top" xlink:title="Unserialize the location data.">
<polygon fill="white" stroke="black" points="302,-623 302,-643 418,-643 418,-623 302,-623"/>
<text text-anchor="middle" x="360" y="-630" font-family="FreeSans.ttf" font-size="10.00">Location::Unserialize</text>
</a>
</g>
<!-- Node1&#45;&gt;Node28 -->
<g id="edge90" class="edge"><title>Node1&#45;&gt;Node28</title>
<path fill="none" stroke="midnightblue" d="M75.8246,-421.261C135.103,-465.43 297.887,-586.719 346.266,-622.767"/>
<polygon fill="midnightblue" stroke="midnightblue" points="77.6533,-418.259 67.5433,-415.091 73.4709,-423.873 77.6533,-418.259"/>
</g>
<!-- Node3 -->
<g id="node5" class="node"><title>Node3</title>
<a xlink:href="classCharacter.xhtml#a829a28ec5f8573f3f53684ac4dcb75bb" target="_top" xlink:title="Create a new character.">
<polygon fill="white" stroke="black" points="315,-293 315,-313 405,-313 405,-293 315,-293"/>
<text text-anchor="middle" x="360" y="-300" font-family="FreeSans.ttf" font-size="10.00">Character::New</text>
</a>
</g>
<!-- Node2&#45;&gt;Node3 -->
<g id="edge4" class="edge"><title>Node2&#45;&gt;Node3</title>
<path fill="none" stroke="midnightblue" d="M251.921,-332.286C274.674,-326.121 301.616,-318.82 322.908,-313.051"/>
<polygon fill="midnightblue" stroke="midnightblue" points="250.863,-328.946 242.126,-334.94 252.694,-335.703 250.863,-328.946"/>
</g>
<!-- Node4 -->
<g id="node7" class="node"><title>Node4</title>
<a xlink:href="namespaceHandler.xhtml#ab5889a65de2794129b375ec39ae923ae" target="_top" xlink:title="Select a new Character name.">
<polygon fill="white" stroke="black" points="454.5,-272 454.5,-292 623.5,-292 623.5,-272 454.5,-272"/>
<text text-anchor="middle" x="539" y="-279" font-family="FreeSans.ttf" font-size="10.00">Handler::CharacterCreateName</text>
</a>
</g>
<!-- Node3&#45;&gt;Node4 -->
<g id="edge6" class="edge"><title>Node3&#45;&gt;Node4</title>
<path fill="none" stroke="midnightblue" d="M415.318,-296.51C427.72,-295.055 441.152,-293.479 454.439,-291.921"/>
<polygon fill="midnightblue" stroke="midnightblue" points="414.693,-293.059 405.169,-297.701 415.509,-300.012 414.693,-293.059"/>
</g>
<!-- Node17 -->
<g id="node45" class="node"><title>Node17</title>
<a xlink:href="namespaceHandler.xhtml#ae70e4e50054c729c14493eafefe01b5c" target="_top" xlink:title="Load a character from the account to enter into the game with.">
<polygon fill="white" stroke="black" points="844.5,-0 844.5,-20 975.5,-20 975.5,-0 844.5,-0"/>
<text text-anchor="middle" x="910" y="-7" font-family="FreeSans.ttf" font-size="10.00">Handler::LoadCharacter</text>
</a>
</g>
<!-- Node3&#45;&gt;Node17 -->
<g id="edge86" class="edge"><title>Node3&#45;&gt;Node17</title>
<path fill="none" stroke="midnightblue" d="M382.773,-287.232C448.111,-242.576 642.872,-113.537 820,-37 835.724,-30.2059 853.689,-24.4429 869.413,-20.0081"/>
<polygon fill="midnightblue" stroke="midnightblue" points="380.692,-284.414 374.427,-292.959 384.653,-290.186 380.692,-284.414"/>
</g>
<!-- Node20 -->
<g id="node53" class="node"><title>Node20</title>
<a xlink:href="namespaceServer.xhtml#a16ea0639731dee10e1a253375b508a02" target="_top" xlink:title="Recovers the server state and re&#45;connects client sockets after a reboot.">
<polygon fill="white" stroke="black" points="1056,-606 1056,-626 1186,-626 1186,-606 1056,-606"/>
<text text-anchor="middle" x="1121" y="-613" font-family="FreeSans.ttf" font-size="10.00">Server::RebootRecovery</text>
</a>
</g>
<!-- Node3&#45;&gt;Node20 -->
<g id="edge88" class="edge"><title>Node3&#45;&gt;Node20</title>
<path fill="none" stroke="midnightblue" d="M378.71,-320.127C437.902,-373.092 628.517,-534.421 820,-597 898.14,-622.537 993.646,-623.897 1055.83,-621.13"/>
<polygon fill="midnightblue" stroke="midnightblue" points="380.715,-317.223 370.946,-313.124 376.027,-322.42 380.715,-317.223"/>
</g>
<!-- Node5 -->
<g id="node9" class="node"><title>Node5</title>
<a xlink:href="namespaceHandler.xhtml#a139febc000c9d767a620708148e0c888" target="_top" xlink:title="Dispatches the appropriate menu based on client state.">
<polygon fill="white" stroke="black" points="660.5,-272 660.5,-292 783.5,-292 783.5,-272 660.5,-272"/>
<text text-anchor="middle" x="722" y="-279" font-family="FreeSans.ttf" font-size="10.00">Handler::LoginHandler</text>
</a>
</g>
<!-- Node4&#45;&gt;Node5 -->
<g id="edge8" class="edge"><title>Node4&#45;&gt;Node5</title>
<path fill="none" stroke="midnightblue" d="M633.774,-275.254C642.842,-275.275 651.867,-275.385 660.492,-275.583"/>
<polygon fill="midnightblue" stroke="midnightblue" points="633.532,-271.754 623.536,-275.267 633.541,-278.754 633.532,-271.754"/>
</g>
<!-- Node5&#45;&gt;Node4 -->
<g id="edge26" class="edge"><title>Node5&#45;&gt;Node4</title>
<path fill="none" stroke="midnightblue" d="M650.316,-288.607C641.531,-288.736 632.489,-288.777 623.536,-288.733"/>
<polygon fill="midnightblue" stroke="midnightblue" points="650.559,-292.103 660.492,-288.417 650.428,-285.105 650.559,-292.103"/>
</g>
<!-- Node6 -->
<g id="node11" class="node"><title>Node6</title>
<a xlink:href="namespaceHandler.xhtml#a33a19d69ead678af81fbe96907eceaf0" target="_top" xlink:title="Create a new account object, or load an existing one, with a name and password.">
<polygon fill="white" stroke="black" points="844.5,-530 844.5,-550 975.5,-550 975.5,-530 844.5,-530"/>
<text text-anchor="middle" x="910" y="-537" font-family="FreeSans.ttf" font-size="10.00">Handler::AttachAccount</text>
</a>
</g>
<!-- Node5&#45;&gt;Node6 -->
<g id="edge10" class="edge"><title>Node5&#45;&gt;Node6</title>
<path fill="none" stroke="midnightblue" d="M724.695,-302.342C731.338,-347.704 753.152,-456.28 820,-512 831.776,-521.816 847.376,-526.942 862.277,-529.989"/>
<polygon fill="midnightblue" stroke="midnightblue" points="728.137,-301.675 723.315,-292.241 721.201,-302.623 728.137,-301.675"/>
</g>
<!-- Node7 -->
<g id="node14" class="node"><title>Node7</title>
<a xlink:href="namespaceHandler.xhtml#a2e4ebf6ed049eb872aa4948d54c4932c" target="_top" xlink:title="Attempt to write a new character to disk after creation was completed.">
<polygon fill="white" stroke="black" points="840.5,-492 840.5,-512 979.5,-512 979.5,-492 840.5,-492"/>
<text text-anchor="middle" x="910" y="-499" font-family="FreeSans.ttf" font-size="10.00">Handler::AttachCharacter</text>
</a>
</g>
<!-- Node5&#45;&gt;Node7 -->
<g id="edge14" class="edge"><title>Node5&#45;&gt;Node7</title>
<path fill="none" stroke="midnightblue" d="M726.845,-301.885C736.497,-341.471 762.367,-429.03 820,-474 832.59,-483.824 849.077,-488.872 864.496,-491.913"/>
<polygon fill="midnightblue" stroke="midnightblue" points="730.233,-301.002 724.539,-292.067 723.418,-302.602 730.233,-301.002"/>
</g>
<!-- Node8 -->
<g id="node17" class="node"><title>Node8</title>
<a xlink:href="namespaceHandler.xhtml#a73ed6064f2698dbffb5f4c247a02b661" target="_top" xlink:title="Send initial account interface menu.">
<polygon fill="white" stroke="black" points="836,-454 836,-474 984,-474 984,-454 836,-454"/>
<text text-anchor="middle" x="910" y="-461" font-family="FreeSans.ttf" font-size="10.00">Handler::AccountMenuMain</text>
</a>
</g>
<!-- Node5&#45;&gt;Node8 -->
<g id="edge18" class="edge"><title>Node5&#45;&gt;Node8</title>
<path fill="none" stroke="midnightblue" d="M730.075,-301.823C742.942,-335.267 771.701,-401.609 820,-436 834.049,-446.004 852.263,-450.948 868.626,-453.998"/>
<polygon fill="midnightblue" stroke="midnightblue" points="733.252,-300.327 726.451,-292.203 726.701,-302.795 733.252,-300.327"/>
</g>
<!-- Node9 -->
<g id="node20" class="node"><title>Node9</title>
<a xlink:href="namespaceHandler.xhtml#ad04998a7a6ece2486bc441052a57c2d7" target="_top" xlink:title="Main Character creation menu.">
<polygon fill="white" stroke="black" points="840,-404 840,-436 980,-436 980,-404 840,-404"/>
<text text-anchor="start" x="848" y="-423" font-family="FreeSans.ttf" font-size="10.00">Handler::CharacterCreate</text>
<text text-anchor="middle" x="910" y="-411" font-family="FreeSans.ttf" font-size="10.00">MenuMain</text>
</a>
</g>
<!-- Node5&#45;&gt;Node9 -->
<g id="edge22" class="edge"><title>Node5&#45;&gt;Node9</title>
<path fill="none" stroke="midnightblue" d="M737.188,-300.206C754.216,-323.681 784.186,-363.363 820,-386 833.023,-394.231 848.774,-399.796 863.435,-404"/>
<polygon fill="midnightblue" stroke="midnightblue" points="740.004,-298.127 731.311,-292.071 734.33,-302.227 740.004,-298.127"/>
</g>
<!-- Node10 -->
<g id="node24" class="node"><title>Node10</title>
<a xlink:href="namespaceHandler.xhtml#ae5086bcf5857eb572beedd09158c3065" target="_top" xlink:title="Select a new Character sex.">
<polygon fill="white" stroke="black" points="831,-366 831,-386 989,-386 989,-366 831,-366"/>
<text text-anchor="middle" x="910" y="-373" font-family="FreeSans.ttf" font-size="10.00">Handler::CharacterCreateSex</text>
</a>
</g>
<!-- Node5&#45;&gt;Node10 -->
<g id="edge28" class="edge"><title>Node5&#45;&gt;Node10</title>
<path fill="none" stroke="midnightblue" d="M746.803,-298.562C765.474,-313.811 792.481,-335.358 820,-348 840.171,-357.266 864.971,-362.072 883.426,-365.969"/>
<polygon fill="midnightblue" stroke="midnightblue" points="748.797,-295.672 738.839,-292.054 744.368,-301.092 748.797,-295.672"/>
</g>
<!-- Node11 -->
<g id="node27" class="node"><title>Node11</title>
<a xlink:href="namespaceHandler.xhtml#a97a198bfc72285b2aca4f36978db715e" target="_top" xlink:title="Main Character deletion confirmation.">
<polygon fill="white" stroke="black" points="840.5,-316 840.5,-348 979.5,-348 979.5,-316 840.5,-316"/>
<text text-anchor="start" x="848.5" y="-335" font-family="FreeSans.ttf" font-size="10.00">Handler::CharacterDelete</text>
<text text-anchor="middle" x="910" y="-323" font-family="FreeSans.ttf" font-size="10.00">Confirm</text>
</a>
</g>
<!-- Node5&#45;&gt;Node11 -->
<g id="edge32" class="edge"><title>Node5&#45;&gt;Node11</title>
<path fill="none" stroke="midnightblue" d="M793.47,-294.433C819.698,-300.993 848.413,-308.953 870.775,-315.962"/>
<polygon fill="midnightblue" stroke="midnightblue" points="794.105,-290.985 783.558,-291.993 792.431,-297.782 794.105,-290.985"/>
</g>
<!-- Node12 -->
<g id="node30" class="node"><title>Node12</title>
<a xlink:href="namespaceHandler.xhtml#afc470ec6e82b7a9a1560588a368734f9" target="_top" xlink:title="Main Character deletion menu.">
<polygon fill="white" stroke="black" points="840.5,-266 840.5,-298 979.5,-298 979.5,-266 840.5,-266"/>
<text text-anchor="start" x="848.5" y="-285" font-family="FreeSans.ttf" font-size="10.00">Handler::CharacterDelete</text>
<text text-anchor="middle" x="910" y="-273" font-family="FreeSans.ttf" font-size="10.00">MenuMain</text>
</a>
</g>
<!-- Node5&#45;&gt;Node12 -->
<g id="edge36" class="edge"><title>Node5&#45;&gt;Node12</title>
<path fill="none" stroke="midnightblue" d="M793.972,-275.418C809.235,-275.181 825.319,-275.195 840.488,-275.458"/>
<polygon fill="midnightblue" stroke="midnightblue" points="793.488,-271.926 783.558,-275.621 793.625,-278.925 793.488,-271.926"/>
</g>
<!-- Node13 -->
<g id="node33" class="node"><title>Node13</title>
<a xlink:href="namespaceHandler.xhtml#a02b1b954749641ab646f6548a5360d3b" target="_top" xlink:title="Main Character load menu.">
<polygon fill="white" stroke="black" points="820.5,-228 820.5,-248 999.5,-248 999.5,-228 820.5,-228"/>
<text text-anchor="middle" x="910" y="-235" font-family="FreeSans.ttf" font-size="10.00">Handler::CharacterLoadMenuMain</text>
</a>
</g>
<!-- Node5&#45;&gt;Node13 -->
<g id="edge40" class="edge"><title>Node5&#45;&gt;Node13</title>
<path fill="none" stroke="midnightblue" d="M746.027,-268.318C765.824,-261.349 794.662,-253.904 820,-248 820.156,-247.964 820.311,-247.928 820.467,-247.891"/>
<polygon fill="midnightblue" stroke="midnightblue" points="744.672,-265.088 736.564,-271.908 747.156,-271.633 744.672,-265.088"/>
</g>
<!-- Node14 -->
<g id="node36" class="node"><title>Node14</title>
<a xlink:href="namespaceHandler.xhtml#a00bc24564bfd267e0329643c569da1e4" target="_top" xlink:title="Select a new account name.">
<polygon fill="white" stroke="black" points="841.5,-190 841.5,-210 978.5,-210 978.5,-190 841.5,-190"/>
<text text-anchor="middle" x="910" y="-197" font-family="FreeSans.ttf" font-size="10.00">Handler::GetNewAccount</text>
</a>
</g>
<!-- Node5&#45;&gt;Node14 -->
<g id="edge44" class="edge"><title>Node5&#45;&gt;Node14</title>
<path fill="none" stroke="midnightblue" d="M735.879,-264.526C754.088,-247.513 787.55,-223.327 820,-210 826.795,-207.209 834.054,-204.808 841.391,-202.798"/>
<polygon fill="midnightblue" stroke="midnightblue" points="733.233,-262.223 728.645,-271.773 738.187,-267.168 733.233,-262.223"/>
</g>
<!-- Node15 -->
<g id="node39" class="node"><title>Node15</title>
<a xlink:href="namespaceHandler.xhtml#a744adadcf407cdb3a9c33365afd5a7c2" target="_top" xlink:title="Create a new account.">
<polygon fill="white" stroke="black" points="839,-152 839,-172 981,-172 981,-152 839,-152"/>
<text text-anchor="middle" x="910" y="-159" font-family="FreeSans.ttf" font-size="10.00">Handler::GetNewPassword</text>
</a>
</g>
<!-- Node5&#45;&gt;Node15 -->
<g id="edge48" class="edge"><title>Node5&#45;&gt;Node15</title>
<path fill="none" stroke="midnightblue" d="M730.998,-262.939C746.431,-237.423 780.167,-193.982 820,-172 825.872,-168.759 832.24,-166.071 838.783,-163.88"/>
<polygon fill="midnightblue" stroke="midnightblue" points="727.886,-261.332 726.004,-271.758 733.977,-264.781 727.886,-261.332"/>
</g>
<!-- Node16 -->
<g id="node42" class="node"><title>Node16</title>
<a xlink:href="namespaceHandler.xhtml#adfe13cc9748392348f3941656a1323b6" target="_top" xlink:title="Compare a received password against an existing account.">
<polygon fill="white" stroke="black" points="841.5,-114 841.5,-134 978.5,-134 978.5,-114 841.5,-114"/>
<text text-anchor="middle" x="910" y="-121" font-family="FreeSans.ttf" font-size="10.00">Handler::GetOldPassword</text>
</a>
</g>
<!-- Node5&#45;&gt;Node16 -->
<g id="edge52" class="edge"><title>Node5&#45;&gt;Node16</title>
<path fill="none" stroke="midnightblue" d="M727.868,-262.409C740.253,-229.68 771.937,-165.653 820,-134 826.535,-129.696 833.866,-126.344 841.448,-123.799"/>
<polygon fill="midnightblue" stroke="midnightblue" points="724.562,-261.26 724.529,-271.855 731.162,-263.594 724.562,-261.26"/>
</g>
<!-- Node5&#45;&gt;Node17 -->
<g id="edge56" class="edge"><title>Node5&#45;&gt;Node17</title>
<path fill="none" stroke="midnightblue" d="M728.803,-262.302C740.704,-233.416 765.77,-179.085 784,-132 802.116,-85.2098 783.405,-59.3267 820,-25 826.841,-18.5833 835.201,-13.8423 844.042,-10.4516"/>
<polygon fill="midnightblue" stroke="midnightblue" points="725.496,-261.147 725.051,-271.732 732,-263.735 725.496,-261.147"/>
</g>
<!-- Node18 -->
<g id="node48" class="node"><title>Node18</title>
<a xlink:href="namespaceHandler.xhtml#a44b41bf69fdc6e615a029bea34910191" target="_top" xlink:title="Send initial greeting and request for account name.">
<polygon fill="white" stroke="black" points="850.5,-76 850.5,-96 969.5,-96 969.5,-76 850.5,-76"/>
<text text-anchor="middle" x="910" y="-83" font-family="FreeSans.ttf" font-size="10.00">Handler::LoginScreen</text>
</a>
</g>
<!-- Node5&#45;&gt;Node18 -->
<g id="edge60" class="edge"><title>Node5&#45;&gt;Node18</title>
<path fill="none" stroke="midnightblue" d="M725.813,-261.973C735.286,-222.864 763.323,-137.899 820,-96 828.861,-89.4497 839.483,-85.0501 850.274,-82.294"/>
<polygon fill="midnightblue" stroke="midnightblue" points="722.355,-261.398 723.582,-271.921 729.185,-262.929 722.355,-261.398"/>
</g>
<!-- Node19 -->
<g id="node51" class="node"><title>Node19</title>
<a xlink:href="classSocketClient.xhtml#a8399ef20292e9f3ec83b5c4bec2e105b" target="_top" xlink:title="Build a SocketClient for a new client connection and set all attributes.">
<polygon fill="white" stroke="black" points="858.5,-568 858.5,-588 961.5,-588 961.5,-568 858.5,-568"/>
<text text-anchor="middle" x="910" y="-575" font-family="FreeSans.ttf" font-size="10.00">SocketClient::New</text>
</a>
</g>
<!-- Node5&#45;&gt;Node19 -->
<g id="edge64" class="edge"><title>Node5&#45;&gt;Node19</title>
<path fill="none" stroke="midnightblue" d="M726.453,-302.198C739.576,-359.92 779.711,-523.706 820,-559 830.571,-568.26 844.509,-573.399 858.25,-576.156"/>
<polygon fill="midnightblue" stroke="midnightblue" points="729.8,-301.129 724.196,-292.138 722.97,-302.661 729.8,-301.129"/>
</g>
<!-- Node26 -->
<g id="node66" class="node"><title>Node26</title>
<a xlink:href="classSocketClient.xhtml#ad4f63c7d906310dc56a1217136047d7f" target="_top" xlink:title="Interpret the command at the front of the queue.">
<polygon fill="white" stroke="black" points="1036,-161 1036,-181 1206,-181 1206,-161 1036,-161"/>
<text text-anchor="middle" x="1121" y="-168" font-family="FreeSans.ttf" font-size="10.00">SocketClient::ProcessCommand</text>
</a>
</g>
<!-- Node5&#45;&gt;Node26 -->
<g id="edge80" class="edge"><title>Node5&#45;&gt;Node26</title>
<path fill="none" stroke="midnightblue" d="M730.529,-262.557C753.548,-210.184 815.512,-69.8864 820,-67 887.285,-23.7245 924.988,-39.1933 1000,-67 1051.69,-86.1599 1096.13,-138.376 1113.36,-160.678"/>
<polygon fill="midnightblue" stroke="midnightblue" points="727.29,-261.23 726.473,-271.793 733.699,-264.044 727.29,-261.23"/>
</g>
<!-- Node6&#45;&gt;Node5 -->
<g id="edge12" class="edge"><title>Node6&#45;&gt;Node5</title>
<path fill="none" stroke="midnightblue" d="M834.459,-539.075C829.267,-536.639 824.37,-533.643 820,-530 742.836,-465.681 725.678,-330.936 722.594,-292.225"/>
<polygon fill="midnightblue" stroke="midnightblue" points="833.487,-542.454 844.074,-542.872 836.058,-535.944 833.487,-542.454"/>
</g>
<!-- Node7&#45;&gt;Node5 -->
<g id="edge16" class="edge"><title>Node7&#45;&gt;Node5</title>
<path fill="none" stroke="midnightblue" d="M830.953,-498.946C827.083,-496.957 823.399,-494.652 820,-492 752.051,-438.981 728.254,-326.762 723.131,-292.02"/>
<polygon fill="midnightblue" stroke="midnightblue" points="829.71,-502.223 840.274,-503.033 832.521,-495.812 829.71,-502.223"/>
</g>
<!-- Node8&#45;&gt;Node5 -->
<g id="edge20" class="edge"><title>Node8&#45;&gt;Node5</title>
<path fill="none" stroke="midnightblue" d="M826.578,-458.163C824.305,-456.885 822.106,-455.499 820,-454 761.363,-412.248 731.527,-323.404 723.961,-292.391"/>
<polygon fill="midnightblue" stroke="midnightblue" points="825.139,-461.356 835.664,-462.573 828.196,-455.058 825.139,-461.356"/>
</g>
<!-- Node9&#45;&gt;Node5 -->
<g id="edge24" class="edge"><title>Node9&#45;&gt;Node5</title>
<path fill="none" stroke="midnightblue" d="M830.603,-409.867C826.93,-408.086 823.373,-406.132 820,-404 773.464,-374.587 736.796,-316.395 725.566,-292.149"/>
<polygon fill="midnightblue" stroke="midnightblue" points="829.372,-413.148 839.937,-413.943 832.174,-406.733 829.372,-413.148"/>
</g>
<!-- Node10&#45;&gt;Node5 -->
<g id="edge30" class="edge"><title>Node10&#45;&gt;Node5</title>
<path fill="none" stroke="midnightblue" d="M821.312,-366.594C820.873,-366.398 820.435,-366.2 820,-366 780.284,-347.755 741.635,-310.962 727.572,-292.214"/>
<polygon fill="midnightblue" stroke="midnightblue" points="820.222,-369.927 830.806,-370.404 822.829,-363.431 820.222,-369.927"/>
</g>
<!-- Node11&#45;&gt;Node5 -->
<g id="edge34" class="edge"><title>Node11&#45;&gt;Node5</title>
<path fill="none" stroke="midnightblue" d="M830.615,-317.564C798.719,-309.402 764.522,-299.569 743.201,-292.102"/>
<polygon fill="midnightblue" stroke="midnightblue" points="829.87,-320.986 840.422,-320.039 831.583,-314.198 829.87,-320.986"/>
</g>
<!-- Node12&#45;&gt;Node5 -->
<g id="edge38" class="edge"><title>Node12&#45;&gt;Node5</title>
<path fill="none" stroke="midnightblue" d="M830.309,-288.68C814.671,-288.834 798.492,-288.734 783.558,-288.379"/>
<polygon fill="midnightblue" stroke="midnightblue" points="830.537,-292.177 840.488,-288.542 830.442,-285.178 830.537,-292.177"/>
</g>
<!-- Node13&#45;&gt;Node5 -->
<g id="edge42" class="edge"><title>Node13&#45;&gt;Node5</title>
<path fill="none" stroke="midnightblue" d="M883.258,-250.984C865.322,-255.998 841.192,-261.062 820,-266 808.201,-268.749 795.642,-271.833 783.591,-274.694"/>
<polygon fill="midnightblue" stroke="midnightblue" points="884.469,-254.275 893.034,-248.039 882.449,-247.572 884.469,-254.275"/>
</g>
<!-- Node14&#45;&gt;Node5 -->
<g id="edge46" class="edge"><title>Node14&#45;&gt;Node5</title>
<path fill="none" stroke="midnightblue" d="M875.829,-212.291C858.637,-216.084 837.738,-220.715 820,-228 791.748,-239.603 762.729,-259.437 743.677,-271.908"/>
<polygon fill="midnightblue" stroke="midnightblue" points="876.996,-215.617 885.993,-210.022 875.471,-208.785 876.996,-215.617"/>
</g>
<!-- Node15&#45;&gt;Node5 -->
<g id="edge50" class="edge"><title>Node15&#45;&gt;Node5</title>
<path fill="none" stroke="midnightblue" d="M867.952,-174.033C852.182,-177.319 834.566,-181.962 820,-190 781.71,-211.131 749.053,-252.091 732.872,-271.743"/>
<polygon fill="midnightblue" stroke="midnightblue" points="868.867,-177.42 877.999,-172.048 867.51,-170.553 868.867,-177.42"/>
</g>
<!-- Node16&#45;&gt;Node5 -->
<g id="edge54" class="edge"><title>Node16&#45;&gt;Node5</title>
<path fill="none" stroke="midnightblue" d="M861.499,-136.063C847.257,-139.22 832.235,-143.943 820,-152 772.407,-183.343 740.875,-246.431 728.237,-271.727"/>
<polygon fill="midnightblue" stroke="midnightblue" points="862.567,-139.418 871.681,-134.015 861.187,-132.556 862.567,-139.418"/>
</g>
<!-- Node17&#45;&gt;Node5 -->
<g id="edge58" class="edge"><title>Node17&#45;&gt;Node5</title>
<path fill="none" stroke="midnightblue" d="M862.5,-22.2921C847.332,-26.1473 831.513,-32.2004 820,-43 783.405,-77.3267 802.116,-103.21 784,-150 766.138,-196.134 741.714,-249.225 729.54,-271.728"/>
<polygon fill="midnightblue" stroke="midnightblue" points="863.351,-25.6877 872.321,-20.0483 861.792,-18.8636 863.351,-25.6877"/>
</g>
<!-- Node18&#45;&gt;Node5 -->
<g id="edge62" class="edge"><title>Node18&#45;&gt;Node5</title>
<path fill="none" stroke="midnightblue" d="M857.165,-98.1254C844.08,-101.276 830.745,-106.057 820,-114 762.946,-156.178 734.913,-241.998 725.626,-271.904"/>
<polygon fill="midnightblue" stroke="midnightblue" points="858.027,-101.52 867.075,-96.0081 856.564,-94.6747 858.027,-101.52"/>
</g>
<!-- Node19&#45;&gt;Node20 -->
<g id="edge66" class="edge"><title>Node19&#45;&gt;Node20</title>
<path fill="none" stroke="midnightblue" d="M971.808,-589.131C1001.33,-594.448 1036.39,-600.763 1065.11,-605.934"/>
<polygon fill="midnightblue" stroke="midnightblue" points="972.078,-585.624 961.616,-587.296 970.838,-592.513 972.078,-585.624"/>
</g>
<!-- Node23 -->
<g id="node59" class="node"><title>Node23</title>
<a xlink:href="classSocketServer.xhtml#afdbc60c3bc840875d2214b59c6213f63" target="_top" xlink:title="Accept a new connection on the listening port.">
<polygon fill="white" stroke="black" points="1061,-568 1061,-588 1181,-588 1181,-568 1061,-568"/>
<text text-anchor="middle" x="1121" y="-575" font-family="FreeSans.ttf" font-size="10.00">SocketServer::Accept</text>
</a>
</g>
<!-- Node19&#45;&gt;Node23 -->
<g id="edge72" class="edge"><title>Node19&#45;&gt;Node23</title>
<path fill="none" stroke="midnightblue" d="M971.731,-578C999.855,-578 1033.02,-578 1060.94,-578"/>
<polygon fill="midnightblue" stroke="midnightblue" points="971.616,-574.5 961.616,-578 971.616,-581.5 971.616,-574.5"/>
</g>
<!-- Node21 -->
<g id="node55" class="node"><title>Node21</title>
<a xlink:href="namespaceServer.xhtml#a19a1e493e1fb50a56d9c77332543d565" target="_top" xlink:title="Start the NAMS Server. Responsible for calling all critical boot&#45;time functions such as SocketServer ...">
<polygon fill="white" stroke="black" points="1255,-606 1255,-626 1345,-626 1345,-606 1255,-606"/>
<text text-anchor="middle" x="1300" y="-613" font-family="FreeSans.ttf" font-size="10.00">Server::Startup</text>
</a>
</g>
<!-- Node20&#45;&gt;Node21 -->
<g id="edge68" class="edge"><title>Node20&#45;&gt;Node21</title>
<path fill="none" stroke="midnightblue" d="M1196.13,-616C1216.08,-616 1237,-616 1254.8,-616"/>
<polygon fill="midnightblue" stroke="midnightblue" points="1196.13,-612.5 1186.13,-616 1196.13,-619.5 1196.13,-612.5"/>
</g>
<!-- Node22 -->
<g id="node57" class="node"><title>Node22</title>
<a xlink:href="main_8cpp.xhtml#ad53223b8779f25caeddb70a3b9172967" target="_top" xlink:title="The default function required to execute the server.">
<polygon fill="white" stroke="black" points="1520.5,-587 1520.5,-607 1561.5,-607 1561.5,-587 1520.5,-587"/>
<text text-anchor="middle" x="1541" y="-594" font-family="FreeSans.ttf" font-size="10.00">main</text>
</a>
</g>
<!-- Node21&#45;&gt;Node22 -->
<g id="edge70" class="edge"><title>Node21&#45;&gt;Node22</title>
<path fill="none" stroke="midnightblue" d="M1355.24,-611.645C1407.87,-607.496 1484.28,-601.472 1520.49,-598.617"/>
<polygon fill="midnightblue" stroke="midnightblue" points="1354.74,-608.173 1345.05,-612.449 1355.29,-615.152 1354.74,-608.173"/>
</g>
<!-- Node24 -->
<g id="node61" class="node"><title>Node24</title>
<a xlink:href="namespaceServer.xhtml#a39dbe16fdc8c5f6fbd678c6540fbcd6c" target="_top" xlink:title="Poll all SocketClient objects that are communicating with the associated SocketServer object...">
<polygon fill="white" stroke="black" points="1245.5,-568 1245.5,-588 1354.5,-588 1354.5,-568 1245.5,-568"/>
<text text-anchor="middle" x="1300" y="-575" font-family="FreeSans.ttf" font-size="10.00">Server::PollSockets</text>
</a>
</g>
<!-- Node23&#45;&gt;Node24 -->
<g id="edge74" class="edge"><title>Node23&#45;&gt;Node24</title>
<path fill="none" stroke="midnightblue" d="M1191.27,-578C1209.28,-578 1228.39,-578 1245.48,-578"/>
<polygon fill="midnightblue" stroke="midnightblue" points="1191.1,-574.5 1181.1,-578 1191.1,-581.5 1191.1,-574.5"/>
</g>
<!-- Node25 -->
<g id="node63" class="node"><title>Node25</title>
<a xlink:href="namespaceServer.xhtml#a50b81aa91d8fdaee6f52c5c5ec987990" target="_top" xlink:title="The core update loop of NAMS. This loop spawns all other subsystem update routines and then sleeps fo...">
<polygon fill="white" stroke="black" points="1394.5,-568 1394.5,-588 1483.5,-588 1483.5,-568 1394.5,-568"/>
<text text-anchor="middle" x="1439" y="-575" font-family="FreeSans.ttf" font-size="10.00">Server::Update</text>
</a>
</g>
<!-- Node24&#45;&gt;Node25 -->
<g id="edge76" class="edge"><title>Node24&#45;&gt;Node25</title>
<path fill="none" stroke="midnightblue" d="M1364.57,-578C1374.69,-578 1384.94,-578 1394.47,-578"/>
<polygon fill="midnightblue" stroke="midnightblue" points="1364.54,-574.5 1354.54,-578 1364.54,-581.5 1364.54,-574.5"/>
</g>
<!-- Node25&#45;&gt;Node22 -->
<g id="edge78" class="edge"><title>Node25&#45;&gt;Node22</title>
<path fill="none" stroke="midnightblue" d="M1493.64,-588.178C1503.14,-589.948 1512.47,-591.685 1520.3,-593.144"/>
<polygon fill="midnightblue" stroke="midnightblue" points="1494.21,-584.724 1483.74,-586.334 1492.93,-591.606 1494.21,-584.724"/>
</g>
<!-- Node27 -->
<g id="node68" class="node"><title>Node27</title>
<a xlink:href="namespaceServer.xhtml#a2b4cec469bb99c2a45e49de5ba74d1ae" target="_top" xlink:title="Processes input from all active SocketClient objects.">
<polygon fill="white" stroke="black" points="1242,-284 1242,-304 1358,-304 1358,-284 1242,-284"/>
<text text-anchor="middle" x="1300" y="-291" font-family="FreeSans.ttf" font-size="10.00">Server::ProcessInput</text>
</a>
</g>
<!-- Node26&#45;&gt;Node27 -->
<g id="edge82" class="edge"><title>Node26&#45;&gt;Node27</title>
<path fill="none" stroke="midnightblue" d="M1143.91,-186.741C1181.27,-212.418 1254.29,-262.592 1285.4,-283.968"/>
<polygon fill="midnightblue" stroke="midnightblue" points="1145.87,-183.844 1135.65,-181.066 1141.91,-189.614 1145.87,-183.844"/>
</g>
<!-- Node27&#45;&gt;Node25 -->
<g id="edge84" class="edge"><title>Node27&#45;&gt;Node25</title>
<path fill="none" stroke="midnightblue" d="M1309.37,-313.152C1336.34,-368.251 1413.5,-525.903 1433.97,-567.717"/>
<polygon fill="midnightblue" stroke="midnightblue" points="1312.49,-311.551 1304.95,-304.108 1306.2,-314.628 1312.49,-311.551"/>
</g>
<!-- Node29 -->
<g id="node75" class="node"><title>Node29</title>
<a xlink:href="classLocation.xhtml#a6396aba5eab9bcbabb000c3f6478e1a2" target="_top" xlink:title="Create a new location.">
<polygon fill="white" stroke="black" points="497.5,-644 497.5,-664 580.5,-664 580.5,-644 497.5,-644"/>
<text text-anchor="middle" x="539" y="-651" font-family="FreeSans.ttf" font-size="10.00">Location::New</text>
</a>
</g>
<!-- Node28&#45;&gt;Node29 -->
<g id="edge92" class="edge"><title>Node28&#45;&gt;Node29</title>
<path fill="none" stroke="midnightblue" d="M428.281,-641.011C451.527,-643.738 476.8,-646.703 497.323,-649.11"/>
<polygon fill="midnightblue" stroke="midnightblue" points="428.456,-637.507 418.116,-639.818 427.64,-644.46 428.456,-637.507"/>
</g>
<!-- Node30 -->
<g id="node77" class="node"><title>Node30</title>
<a xlink:href="namespaceServer.xhtml#a9b8efad79a32f2356d431788449e1f82" target="_top" xlink:title="Search all subfolders of CFG_DAT_DIR_WORLD and call Location::New() to load each file found to memory...">
<polygon fill="white" stroke="black" points="660.5,-644 660.5,-664 783.5,-664 783.5,-644 660.5,-644"/>
<text text-anchor="middle" x="722" y="-651" font-family="FreeSans.ttf" font-size="10.00">Server::LoadLocations</text>
</a>
</g>
<!-- Node29&#45;&gt;Node30 -->
<g id="edge94" class="edge"><title>Node29&#45;&gt;Node30</title>
<path fill="none" stroke="midnightblue" d="M590.548,-654C612.29,-654 637.776,-654 660.491,-654"/>
<polygon fill="midnightblue" stroke="midnightblue" points="590.526,-650.5 580.526,-654 590.525,-657.5 590.526,-650.5"/>
</g>
<!-- Node30&#45;&gt;Node21 -->
<g id="edge96" class="edge"><title>Node30&#45;&gt;Node21</title>
<path fill="none" stroke="midnightblue" d="M793.8,-654.761C888.555,-654.949 1060.39,-652.46 1206,-635 1223.03,-632.958 1241.57,-629.484 1257.65,-626.06"/>
<polygon fill="midnightblue" stroke="midnightblue" points="793.765,-651.261 783.754,-654.731 793.743,-658.261 793.765,-651.261"/>
</g>
</g>
</svg>
        <g id="navigator" transform="translate(0 0)" fill="#404254">
                <rect fill="#f2f5e9" fill-opacity="0.5" stroke="#606060" stroke-width=".5" x="0" y="0" width="60" height="60"/>
                <use id="zoomplus" xlink:href="#zoomPlus" x="17" y="9" onmousedown="handleZoom(evt,'in')"/>
                <use id="zoomminus" xlink:href="#zoomMin" x="42" y="9" onmousedown="handleZoom(evt,'out')"/>
                <use id="reset" xlink:href="#resetDef" x="30" y="36" onmousedown="handleReset()"/>
                <g id="arrowUp" xlink:href="#dirArrow" transform="translate(30 24)" onmousedown="handlePan(0,-1)">
                  <use xlink:href="#rim" fill="#404040">
                        <set attributeName="fill" to="#808080" begin="arrowUp.mouseover" end="arrowUp.mouseout"/>
                  </use>
                  <path fill="none" stroke="white" stroke-width="1.5" d="M0,-3.0v7 M-2.5,-0.5L0,-3.0L2.5,-0.5"/>
                </g>
                <g id="arrowRight" xlink:href="#dirArrow" transform="rotate(90) translate(36 -43)" onmousedown="handlePan(1,0)">
                  <use xlink:href="#rim" fill="#404040">
                        <set attributeName="fill" to="#808080" begin="arrowRight.mouseover" end="arrowRight.mouseout"/>
                  </use>
                  <path fill="none" stroke="white" stroke-width="1.5" d="M0,-3.0v7 M-2.5,-0.5L0,-3.0L2.5,-0.5"/>
                </g>
                <g id="arrowDown" xlink:href="#dirArrow" transform="rotate(180) translate(-30 -48)" onmousedown="handlePan(0,1)">
                  <use xlink:href="#rim" fill="#404040">
                        <set attributeName="fill" to="#808080" begin="arrowDown.mouseover" end="arrowDown.mouseout"/>
                  </use>
                  <path fill="none" stroke="white" stroke-width="1.5" d="M0,-3.0v7 M-2.5,-0.5L0,-3.0L2.5,-0.5"/>
                </g>
                <g id="arrowLeft" xlink:href="#dirArrow" transform="rotate(270) translate(-36 17)" onmousedown="handlePan(-1,0)">
                  <use xlink:href="#rim" fill="#404040">
                        <set attributeName="fill" to="#808080" begin="arrowLeft.mouseover" end="arrowLeft.mouseout"/>
                  </use>
                  <path fill="none" stroke="white" stroke-width="1.5" d="M0,-3.0v7 M-2.5,-0.5L0,-3.0L2.5,-0.5"/>
                </g>
        </g>
        <svg viewBox="0 0 15 15" width="100%" height="30px" preserveAspectRatio="xMaxYMin meet">
         <g id="arrow_out" transform="scale(0.3 0.3)">
          <a xlink:href="classThing_adf1753595ae5f94906663f88b7d38edd_icgraph_org.svg" target="_base">
           <rect id="button" ry="5" rx="5" y="6" x="6" height="38" width="38"
                fill="#f2f5e9" fill-opacity="0.5" stroke="#606060" stroke-width="1.0"/>
           <path id="arrow"
             d="M 11.500037,31.436501 C 11.940474,20.09759 22.043105,11.32322 32.158766,21.979434 L 37.068811,17.246167 C 37.068811,17.246167 37.088388,32 37.088388,32 L 22.160133,31.978069 C 22.160133,31.978069 26.997745,27.140456 26.997745,27.140456 C 18.528582,18.264221 13.291696,25.230495 11.500037,31.436501 z"
             style="fill:#404040;"/>
          </a>
         </g>
        </svg>
</svg>
