<?xml version="1.0" encoding="UTF-8" standalone="no"?>
<!DOCTYPE svg PUBLIC "-//W3C//DTD SVG 1.1//EN"
 "http://www.w3.org/Graphics/SVG/1.1/DTD/svg11.dtd">
<!-- Generated by graphviz version 2.26.3 (20100126.1600)
 -->
<!-- Title: Reset Pages: 1 -->
<!--zoomable 432 -->
<svg id="main" version="1.1" xmlns="http://www.w3.org/2000/svg" xmlns:xlink="http://www.w3.org/1999/xlink" xml:space="preserve" onload="init(evt)">
        <defs>
                <circle id="rim" cx="0" cy="0" r="7"/>
                <circle id="rim2" cx="0" cy="0" r="3.5"/>
                <g id="zoomPlus">
                        <use xlink:href="#rim" fill="#404040">
                                <set attributeName="fill" to="#808080" begin="zoomplus.mouseover" end="zoomplus.mouseout"/>
                        </use>
                        <path d="M-4,0h8M0,-4v8" fill="none" stroke="white" stroke-width="1.5" pointer-events="none"/>
                </g>
                <g id="zoomMin">
                        <use xlink:href="#rim" fill="#404040">
                                <set attributeName="fill" to="#808080" begin="zoomminus.mouseover" end="zoomminus.mouseout"/>
                        </use>
                        <path d="M-4,0h8" fill="none" stroke="white" stroke-width="1.5" pointer-events="none"/>
                </g>
                <g id="dirArrow">
                        <path fill="none" stroke="white" stroke-width="1.5" d="M0,-3.0v7 M-2.5,-0.5L0,-3.0L2.5,-0.5"/>
                </g>
               <g id="resetDef">
                       <use xlink:href="#rim2" fill="#404040">
                               <set attributeName="fill" to="#808080" begin="reset.mouseover" end="reset.mouseout"/>
                       </use>
               </g>
        </defs>

<script type="text/javascript">
var viewWidth = 565;
var viewHeight = 432;
var sectionId = 'dynsection-0';
</script>
<script xlink:href="svgpan.js"/>
<svg id="graph" class="graph">
<g id="viewport">
<title>Reset</title>
<polygon fill="white" stroke="white" points="-4,5 -4,-428 562,-428 562,5 -4,5"/>
<!-- Node1 -->
<g id="node1" class="node"><title>Node1</title>
<polygon fill="#bfbfbf" stroke="black" points="514.5,-71 514.5,-91 557.5,-91 557.5,-71 514.5,-71"/>
<text text-anchor="middle" x="536" y="-78" font-family="FreeSans.ttf" font-size="10.00">Reset</text>
</g>
<!-- Node2 -->
<g id="node2" class="node"><title>Node2</title>
<a xlink:title="STL class.">
<polygon fill="white" stroke="#bfbfbf" points="328.5,-331 328.5,-351 393.5,-351 393.5,-331 328.5,-331"/>
<text text-anchor="middle" x="361" y="-338" font-family="FreeSans.ttf" font-size="10.00">std::string</text>
</a>
</g>
<!-- Node2&#45;&gt;Node1 -->
<g id="edge2" class="edge"><title>Node2&#45;&gt;Node1</title>
<path fill="none" stroke="#9a32cd" stroke-dasharray="5,2" d="M382.275,-324.152C420.966,-292.031 501.82,-217.727 534,-134 539.418,-119.904 538.715,-102.117 537.51,-91.1537"/>
<polygon fill="#9a32cd" stroke="#9a32cd" points="379.788,-321.664 374.259,-330.702 384.217,-327.084 379.788,-321.664"/>
<text text-anchor="middle" x="525" y="-201" font-family="FreeSans.ttf" font-size="10.00"> m_name</text>
</g>
<!-- Node4 -->
<g id="node6" class="node"><title>Node4</title>
<a xlink:href="classLocation.xhtml" target="_top" xlink:title="A physical location within the game world.">
<polygon fill="white" stroke="black" points="366.5,-153 366.5,-173 423.5,-173 423.5,-153 366.5,-153"/>
<text text-anchor="middle" x="395" y="-160" font-family="FreeSans.ttf" font-size="10.00">Location</text>
</a>
</g>
<!-- Node2&#45;&gt;Node4 -->
<g id="edge24" class="edge"><title>Node2&#45;&gt;Node4</title>
<path fill="none" stroke="#9a32cd" stroke-dasharray="5,2" d="M364.807,-321.069C372.035,-283.231 387.512,-202.201 393.011,-173.413"/>
<polygon fill="#9a32cd" stroke="#9a32cd" points="361.364,-320.441 362.925,-330.92 368.24,-321.754 361.364,-320.441"/>
<text text-anchor="middle" x="402" y="-249" font-family="FreeSans.ttf" font-size="10.00"> m_zone</text>
<text text-anchor="middle" x="402" y="-237" font-family="FreeSans.ttf" font-size="10.00">m_file</text>
</g>
<!-- Node5 -->
<g id="node8" class="node"><title>Node5</title>
<a xlink:href="classThing.xhtml" target="_top" xlink:title="A generic &quot;thing&quot;: creature, character, room, object, etc.">
<polygon fill="white" stroke="black" points="175,-236 175,-256 217,-256 217,-236 175,-236"/>
<text text-anchor="middle" x="196" y="-243" font-family="FreeSans.ttf" font-size="10.00">Thing</text>
</a>
</g>
<!-- Node2&#45;&gt;Node5 -->
<g id="edge18" class="edge"><title>Node2&#45;&gt;Node5</title>
<path fill="none" stroke="#9a32cd" stroke-dasharray="5,2" d="M318.397,-334.068C289.445,-328.718 254.263,-320.767 242,-312 226.554,-300.958 229.897,-291.548 219,-276 214.254,-269.228 208.608,-261.855 204.098,-256.113"/>
<polygon fill="#9a32cd" stroke="#9a32cd" points="317.869,-337.53 328.33,-335.849 319.104,-330.639 317.869,-337.53"/>
<text text-anchor="middle" x="277.5" y="-303" font-family="FreeSans.ttf" font-size="10.00"> m_description</text>
<text text-anchor="middle" x="277.5" y="-291" font-family="FreeSans.ttf" font-size="10.00">m_id</text>
<text text-anchor="middle" x="277.5" y="-279" font-family="FreeSans.ttf" font-size="10.00">m_name</text>
</g>
<!-- Node11 -->
<g id="node24" class="node"><title>Node11</title>
<a xlink:href="classExit.xhtml" target="_top" xlink:title="A link between two locations within the game world.">
<polygon fill="white" stroke="black" points="326,-71 326,-91 360,-91 360,-71 326,-71"/>
<text text-anchor="middle" x="343" y="-78" font-family="FreeSans.ttf" font-size="10.00">Exit</text>
</a>
</g>
<!-- Node2&#45;&gt;Node11 -->
<g id="edge30" class="edge"><title>Node2&#45;&gt;Node11</title>
<path fill="none" stroke="#9a32cd" stroke-dasharray="5,2" d="M352.837,-321.147C342.07,-292.848 324.831,-239.116 328,-192 330.519,-154.554 337.765,-110.48 341.179,-91.0551"/>
<polygon fill="#9a32cd" stroke="#9a32cd" points="349.67,-322.658 356.59,-330.68 356.183,-320.093 349.67,-322.658"/>
<text text-anchor="middle" x="354.5" y="-207" font-family="FreeSans.ttf" font-size="10.00"> m_dest_id</text>
<text text-anchor="middle" x="354.5" y="-195" font-family="FreeSans.ttf" font-size="10.00">m_name</text>
</g>
<!-- Node3 -->
<g id="node4" class="node"><title>Node3</title>
<a xlink:title="STL class.">
<polygon fill="white" stroke="#bfbfbf" points="309.5,-391 309.5,-423 412.5,-423 412.5,-391 309.5,-391"/>
<text text-anchor="start" x="317.5" y="-410" font-family="FreeSans.ttf" font-size="10.00">std::basic_string&lt;</text>
<text text-anchor="middle" x="361" y="-398" font-family="FreeSans.ttf" font-size="10.00"> char &gt;</text>
</a>
</g>
<!-- Node3&#45;&gt;Node2 -->
<g id="edge4" class="edge"><title>Node3&#45;&gt;Node2</title>
<path fill="none" stroke="midnightblue" d="M361,-380.45C361,-370.156 361,-358.991 361,-351.175"/>
<polygon fill="midnightblue" stroke="midnightblue" points="357.5,-380.685 361,-390.685 364.5,-380.685 357.5,-380.685"/>
</g>
<!-- Node4&#45;&gt;Node1 -->
<g id="edge6" class="edge"><title>Node4&#45;&gt;Node1</title>
<path fill="none" stroke="#9a32cd" stroke-dasharray="5,2" d="M430.264,-148.542C438.705,-144.393 447.452,-139.485 455,-134 466.951,-125.314 466.107,-118.766 478,-110 489.147,-101.784 502.972,-94.7687 514.328,-89.6966"/>
<polygon fill="#9a32cd" stroke="#9a32cd" points="428.523,-145.492 420.943,-152.895 431.485,-151.835 428.523,-145.492"/>
<text text-anchor="middle" x="506" y="-119" font-family="FreeSans.ttf" font-size="10.00"> m_location</text>
</g>
<!-- Node4&#45;&gt;Node11 -->
<g id="edge32" class="edge"><title>Node4&#45;&gt;Node11</title>
<path fill="none" stroke="#9a32cd" stroke-dasharray="5,2" d="M371.971,-146.352C367.912,-142.635 364.025,-138.46 361,-134 351.945,-120.65 347.065,-102.328 344.752,-91.0959"/>
<polygon fill="#9a32cd" stroke="#9a32cd" points="369.884,-149.169 379.805,-152.887 374.368,-143.793 369.884,-149.169"/>
<text text-anchor="middle" x="395.5" y="-125" font-family="FreeSans.ttf" font-size="10.00"> m_location</text>
<text text-anchor="middle" x="395.5" y="-113" font-family="FreeSans.ttf" font-size="10.00">m_destination</text>
</g>
<!-- Node5&#45;&gt;Node4 -->
<g id="edge8" class="edge"><title>Node5&#45;&gt;Node4</title>
<path fill="none" stroke="midnightblue" d="M226.484,-233.2C238.302,-228.069 251.88,-221.966 264,-216 283.985,-206.162 287.576,-200.89 308,-192 326.978,-183.739 349.116,-176.39 366.311,-171.157"/>
<polygon fill="midnightblue" stroke="midnightblue" points="224.848,-230.093 217.042,-237.257 227.611,-236.525 224.848,-230.093"/>
</g>
<!-- Node5&#45;&gt;Node5 -->
<g id="edge20" class="edge"><title>Node5&#45;&gt;Node5</title>
<path fill="none" stroke="#9a32cd" stroke-dasharray="5,2" d="M227.406,-253.096C231.945,-251.965 235,-249.599 235,-246 235,-240.094 226.773,-237.51 217.261,-238.248"/>
<polygon fill="#9a32cd" stroke="#9a32cd" points="227.015,-249.614 217.261,-253.752 227.466,-256.6 227.015,-249.614"/>
<text text-anchor="middle" x="267" y="-243" font-family="FreeSans.ttf" font-size="10.00"> m_container</text>
</g>
<!-- Node6 -->
<g id="node10" class="node"><title>Node6</title>
<polygon fill="white" stroke="#bfbfbf" points="84,-153 84,-173 208,-173 208,-153 84,-153"/>
<text text-anchor="middle" x="146" y="-160" font-family="FreeSans.ttf" font-size="10.00">std::vector&lt; Thing * &gt;</text>
</g>
<!-- Node5&#45;&gt;Node6 -->
<g id="edge12" class="edge"><title>Node5&#45;&gt;Node6</title>
<path fill="none" stroke="#9a32cd" stroke-dasharray="5,2" d="M207.048,-226.547C211.641,-215.68 214.552,-202.298 208,-192 202.578,-183.478 193.921,-177.418 184.776,-173.125"/>
<polygon fill="#9a32cd" stroke="#9a32cd" points="203.84,-225.138 202.58,-235.658 210.125,-228.22 203.84,-225.138"/>
<text text-anchor="middle" x="235.5" y="-201" font-family="FreeSans.ttf" font-size="10.00"> elements</text>
</g>
<!-- Node6&#45;&gt;Node5 -->
<g id="edge10" class="edge"><title>Node6&#45;&gt;Node5</title>
<path fill="none" stroke="#9a32cd" stroke-dasharray="5,2" d="M141.979,-183.046C140.922,-193.517 141.365,-206.161 147,-216 153.048,-226.56 164.46,-233.868 174.75,-238.626"/>
<polygon fill="#9a32cd" stroke="#9a32cd" points="145.444,-183.54 143.469,-173.131 138.522,-182.5 145.444,-183.54"/>
<text text-anchor="middle" x="177.5" y="-201" font-family="FreeSans.ttf" font-size="10.00"> m_contents</text>
</g>
<!-- Node7 -->
<g id="node13" class="node"><title>Node7</title>
<a xlink:title="STL class.">
<polygon fill="white" stroke="#bfbfbf" points="-0.5,-236 -0.5,-256 94.5,-256 94.5,-236 -0.5,-236"/>
<text text-anchor="middle" x="47" y="-243" font-family="FreeSans.ttf" font-size="10.00">std::vector&lt; T &gt;</text>
</a>
</g>
<!-- Node7&#45;&gt;Node6 -->
<g id="edge14" class="edge"><title>Node7&#45;&gt;Node6</title>
<path fill="none" stroke="orange" stroke-dasharray="5,2" d="M54.4832,-226.457C59.6455,-215.146 67.4817,-201.345 78,-192 87.3068,-183.732 99.3236,-177.565 110.66,-173.096"/>
<polygon fill="orange" stroke="orange" points="51.1435,-225.37 50.4936,-235.944 57.5962,-228.083 51.1435,-225.37"/>
<text text-anchor="middle" x="108" y="-201" font-family="FreeSans.ttf" font-size="10.00"> &lt; Thing * &gt;</text>
</g>
<!-- Node10 -->
<g id="node22" class="node"><title>Node10</title>
<polygon fill="white" stroke="#bfbfbf" points="285,-1 285,-21 401,-21 401,-1 285,-1"/>
<text text-anchor="middle" x="343" y="-8" font-family="FreeSans.ttf" font-size="10.00">std::vector&lt; Exit * &gt;</text>
</g>
<!-- Node7&#45;&gt;Node10 -->
<g id="edge34" class="edge"><title>Node7&#45;&gt;Node10</title>
<path fill="none" stroke="orange" stroke-dasharray="5,2" d="M47.882,-225.706C49.8526,-204.7 56.0153,-172.189 75,-152 141.809,-80.9525 252.513,-38.8351 308.42,-21.0258"/>
<polygon fill="orange" stroke="orange" points="44.3839,-225.558 47.1756,-235.778 51.3667,-226.048 44.3839,-225.558"/>
<text text-anchor="middle" x="149" y="-119" font-family="FreeSans.ttf" font-size="10.00"> &lt; Exit * &gt;</text>
</g>
<!-- Node8 -->
<g id="node15" class="node"><title>Node8</title>
<polygon fill="white" stroke="#bfbfbf" points="32.5,-331 32.5,-351 61.5,-351 61.5,-331 32.5,-331"/>
<text text-anchor="middle" x="47" y="-338" font-family="FreeSans.ttf" font-size="10.00">T</text>
</g>
<!-- Node8&#45;&gt;Node7 -->
<g id="edge16" class="edge"><title>Node8&#45;&gt;Node7</title>
<path fill="none" stroke="#9a32cd" stroke-dasharray="5,2" d="M47,-320.678C47,-300.818 47,-271.405 47,-256.094"/>
<polygon fill="#9a32cd" stroke="#9a32cd" points="43.5001,-320.833 47,-330.833 50.5001,-320.833 43.5001,-320.833"/>
<text text-anchor="middle" x="71.5" y="-291" font-family="FreeSans.ttf" font-size="10.00"> elements</text>
</g>
<!-- Node9 -->
<g id="node19" class="node"><title>Node9</title>
<polygon fill="white" stroke="#bfbfbf" points="140.5,-331 140.5,-351 215.5,-351 215.5,-331 140.5,-331"/>
<text text-anchor="middle" x="178" y="-338" font-family="FreeSans.ttf" font-size="10.00">unsigned int</text>
</g>
<!-- Node9&#45;&gt;Node5 -->
<g id="edge22" class="edge"><title>Node9&#45;&gt;Node5</title>
<path fill="none" stroke="#9a32cd" stroke-dasharray="5,2" d="M175.744,-320.444C174.946,-307.471 175.061,-290.488 179,-276 180.916,-268.952 184.867,-261.809 188.478,-256.261"/>
<polygon fill="#9a32cd" stroke="#9a32cd" points="172.277,-320.979 176.607,-330.648 179.252,-320.389 172.277,-320.979"/>
<text text-anchor="middle" x="199" y="-291" font-family="FreeSans.ttf" font-size="10.00"> m_type</text>
</g>
<!-- Node10&#45;&gt;Node4 -->
<g id="edge26" class="edge"><title>Node10&#45;&gt;Node4</title>
<path fill="none" stroke="#9a32cd" stroke-dasharray="5,2" d="M377.657,-25.9037C384.286,-29.8215 390.778,-34.5178 396,-40 419.856,-65.0426 422.247,-76.2933 430,-110 432.391,-120.395 434.538,-124.347 430,-134 426.374,-141.713 419.579,-148.079 412.933,-152.863"/>
<polygon fill="#9a32cd" stroke="#9a32cd" points="379.101,-22.706 368.637,-21.0432 375.78,-28.8683 379.101,-22.706"/>
<text text-anchor="middle" x="445.5" y="-78" font-family="FreeSans.ttf" font-size="10.00"> m_exits</text>
</g>
<!-- Node11&#45;&gt;Node10 -->
<g id="edge28" class="edge"><title>Node11&#45;&gt;Node10</title>
<path fill="none" stroke="#9a32cd" stroke-dasharray="5,2" d="M343,-60.6126C343,-47.5971 343,-31.2956 343,-21.0107"/>
<polygon fill="#9a32cd" stroke="#9a32cd" points="339.5,-60.9707 343,-70.9707 346.5,-60.9707 339.5,-60.9707"/>
<text text-anchor="middle" x="367.5" y="-43" font-family="FreeSans.ttf" font-size="10.00"> elements</text>
</g>
</g>
</svg>
        <g id="navigator" transform="translate(0 0)" fill="#404254">
                <rect fill="#f2f5e9" fill-opacity="0.5" stroke="#606060" stroke-width=".5" x="0" y="0" width="60" height="60"/>
                <use id="zoomplus" xlink:href="#zoomPlus" x="17" y="9" onmousedown="handleZoom(evt,'in')"/>
                <use id="zoomminus" xlink:href="#zoomMin" x="42" y="9" onmousedown="handleZoom(evt,'out')"/>
                <use id="reset" xlink:href="#resetDef" x="30" y="36" onmousedown="handleReset()"/>
                <g id="arrowUp" xlink:href="#dirArrow" transform="translate(30 24)" onmousedown="handlePan(0,-1)">
                  <use xlink:href="#rim" fill="#404040">
                        <set attributeName="fill" to="#808080" begin="arrowUp.mouseover" end="arrowUp.mouseout"/>
                  </use>
                  <path fill="none" stroke="white" stroke-width="1.5" d="M0,-3.0v7 M-2.5,-0.5L0,-3.0L2.5,-0.5"/>
                </g>
                <g id="arrowRight" xlink:href="#dirArrow" transform="rotate(90) translate(36 -43)" onmousedown="handlePan(1,0)">
                  <use xlink:href="#rim" fill="#404040">
                        <set attributeName="fill" to="#808080" begin="arrowRight.mouseover" end="arrowRight.mouseout"/>
                  </use>
                  <path fill="none" stroke="white" stroke-width="1.5" d="M0,-3.0v7 M-2.5,-0.5L0,-3.0L2.5,-0.5"/>
                </g>
                <g id="arrowDown" xlink:href="#dirArrow" transform="rotate(180) translate(-30 -48)" onmousedown="handlePan(0,1)">
                  <use xlink:href="#rim" fill="#404040">
                        <set attributeName="fill" to="#808080" begin="arrowDown.mouseover" end="arrowDown.mouseout"/>
                  </use>
                  <path fill="none" stroke="white" stroke-width="1.5" d="M0,-3.0v7 M-2.5,-0.5L0,-3.0L2.5,-0.5"/>
                </g>
                <g id="arrowLeft" xlink:href="#dirArrow" transform="rotate(270) translate(-36 17)" onmousedown="handlePan(-1,0)">
                  <use xlink:href="#rim" fill="#404040">
                        <set attributeName="fill" to="#808080" begin="arrowLeft.mouseover" end="arrowLeft.mouseout"/>
                  </use>
                  <path fill="none" stroke="white" stroke-width="1.5" d="M0,-3.0v7 M-2.5,-0.5L0,-3.0L2.5,-0.5"/>
                </g>
        </g>
        <svg viewBox="0 0 15 15" width="100%" height="30px" preserveAspectRatio="xMaxYMin meet">
         <g id="arrow_out" transform="scale(0.3 0.3)">
          <a xlink:href="classReset__coll__graph_org.svg" target="_base">
           <rect id="button" ry="5" rx="5" y="6" x="6" height="38" width="38"
                fill="#f2f5e9" fill-opacity="0.5" stroke="#606060" stroke-width="1.0"/>
           <path id="arrow"
             d="M 11.500037,31.436501 C 11.940474,20.09759 22.043105,11.32322 32.158766,21.979434 L 37.068811,17.246167 C 37.068811,17.246167 37.088388,32 37.088388,32 L 22.160133,31.978069 C 22.160133,31.978069 26.997745,27.140456 26.997745,27.140456 C 18.528582,18.264221 13.291696,25.230495 11.500037,31.436501 z"
             style="fill:#404040;"/>
          </a>
         </g>
        </svg>
</svg>
