<?xml version="1.0" encoding="UTF-8" standalone="no"?>
<!DOCTYPE svg PUBLIC "-//W3C//DTD SVG 1.1//EN"
 "http://www.w3.org/Graphics/SVG/1.1/DTD/svg11.dtd">
<!-- Generated by graphviz version 2.26.3 (20100126.1600)
 -->
<!-- Title: G Pages: 1 -->
<svg width="284pt" height="110pt"
 viewBox="0.00 0.00 284.00 110.00" xmlns="http://www.w3.org/2000/svg" xmlns:xlink="http://www.w3.org/1999/xlink">
<g id="graph1" class="graph" transform="scale(1 1) rotate(0) translate(4 106)">
<title>G</title>
<polygon fill="white" stroke="white" points="-4,5 -4,-106 281,-106 281,5 -4,5"/>
<!-- Node1 -->
<g id="node1" class="node"><title>Node1</title>
<polygon fill="#bfbfbf" stroke="black" points="0.5,-40.5 0.5,-61.5 119.5,-61.5 119.5,-40.5 0.5,-40.5"/>
<text text-anchor="middle" x="60" y="-48.5" font-family="FreeSans.ttf" font-size="10.00">SocketServer::Delete</text>
</g>
<!-- Node2 -->
<g id="node3" class="node"><title>Node2</title>
<a xlink:href="classSocket.xhtml#a508457b48e6296d1e86c7cc72af65948" target="_top" xlink:title="Socket::Valid">
<polygon fill="white" stroke="black" points="177,-80.5 177,-101.5 255,-101.5 255,-80.5 177,-80.5"/>
<text text-anchor="middle" x="216" y="-88.5" font-family="FreeSans.ttf" font-size="10.00">Socket::Valid</text>
</a>
</g>
<!-- Node1&#45;&gt;Node2 -->
<g id="edge2" class="edge"><title>Node1&#45;&gt;Node2</title>
<path fill="none" stroke="midnightblue" d="M100.987,-61.5095C121.249,-66.705 145.85,-73.0127 167.09,-78.4591"/>
<polygon fill="midnightblue" stroke="midnightblue" points="166.343,-81.8806 176.899,-80.9741 168.082,-75.0999 166.343,-81.8806"/>
</g>
<!-- Node3 -->
<g id="node5" class="node"><title>Node3</title>
<a xlink:href="classServer.xhtml#a1e68e32745cdfe194e0af388d9d5244a" target="_top" xlink:title="Set the amount of subordinate SocketClient and SocketServer objects that have been closed on a NAMS S...">
<polygon fill="white" stroke="black" points="156.5,-40.5 156.5,-61.5 275.5,-61.5 275.5,-40.5 156.5,-40.5"/>
<text text-anchor="middle" x="216" y="-48.5" font-family="FreeSans.ttf" font-size="10.00">Server::sSocketClose</text>
</a>
</g>
<!-- Node1&#45;&gt;Node3 -->
<g id="edge4" class="edge"><title>Node1&#45;&gt;Node3</title>
<path fill="none" stroke="midnightblue" d="M119.868,-51C128.452,-51 137.346,-51 146.103,-51"/>
<polygon fill="midnightblue" stroke="midnightblue" points="146.293,-54.5001 156.293,-51 146.293,-47.5001 146.293,-54.5001"/>
</g>
<!-- Node4 -->
<g id="node7" class="node"><title>Node4</title>
<a xlink:href="classServer.xhtml#a01c4cacfdade91bc99d6c8911ca33a54" target="_top" xlink:title="Returns the combined number of SocketClient and SocketServer objects that have been destroyed...">
<polygon fill="white" stroke="black" points="156.5,-0.5 156.5,-21.5 275.5,-21.5 275.5,-0.5 156.5,-0.5"/>
<text text-anchor="middle" x="216" y="-8.5" font-family="FreeSans.ttf" font-size="10.00">Server::gSocketClose</text>
</a>
</g>
<!-- Node1&#45;&gt;Node4 -->
<g id="edge6" class="edge"><title>Node1&#45;&gt;Node4</title>
<path fill="none" stroke="midnightblue" d="M100.987,-40.4905C120.615,-35.4578 144.313,-29.3814 165.085,-24.0552"/>
<polygon fill="midnightblue" stroke="midnightblue" points="166.199,-27.3829 175.016,-21.5087 164.46,-20.6022 166.199,-27.3829"/>
</g>
</g>
</svg>
