<?xml version="1.0" encoding="UTF-8" standalone="no"?>
<!DOCTYPE svg PUBLIC "-//W3C//DTD SVG 1.1//EN"
 "http://www.w3.org/Graphics/SVG/1.1/DTD/svg11.dtd">
<!-- Generated by graphviz version 2.26.3 (20100126.1600)
 -->
<!-- Title: Account::Delete Pages: 1 -->
<svg width="416pt" height="66pt"
 viewBox="0.00 0.00 416.00 66.00" xmlns="http://www.w3.org/2000/svg" xmlns:xlink="http://www.w3.org/1999/xlink">
<g id="graph1" class="graph" transform="scale(1 1) rotate(0) translate(4 62)">
<title>Account::Delete</title>
<polygon fill="white" stroke="white" points="-4,5 -4,-62 413,-62 413,5 -4,5"/>
<!-- Node1 -->
<g id="node1" class="node"><title>Node1</title>
<polygon fill="#bfbfbf" stroke="black" points="0.5,-19 0.5,-39 93.5,-39 93.5,-19 0.5,-19"/>
<text text-anchor="middle" x="47" y="-26" font-family="FreeSans.ttf" font-size="10.00">Account::Delete</text>
</g>
<!-- Node2 -->
<g id="node3" class="node"><title>Node2</title>
<a xlink:href="classCharacter.xhtml#a4f7ff295f5de0fa4f8fece0acb7aaa53" target="_top" xlink:title="Unload a character from memory that was previously loaded via Character::New().">
<polygon fill="white" stroke="black" points="143.5,-38 143.5,-58 244.5,-58 244.5,-38 143.5,-38"/>
<text text-anchor="middle" x="194" y="-45" font-family="FreeSans.ttf" font-size="10.00">Character::Delete</text>
</a>
</g>
<!-- Node1&#45;&gt;Node2 -->
<g id="edge2" class="edge"><title>Node1&#45;&gt;Node2</title>
<path fill="none" stroke="midnightblue" d="M93.5117,-35.0117C106.18,-36.6491 120.091,-38.4471 133.416,-40.1695"/>
<polygon fill="midnightblue" stroke="midnightblue" points="133.096,-43.6571 143.462,-41.4679 133.994,-36.7149 133.096,-43.6571"/>
</g>
<!-- Node4 -->
<g id="node7" class="node"><title>Node4</title>
<a xlink:href="classSocketClient.xhtml#aaa13ed7d0aa65770b617cbf72a5c28d9" target="_top" xlink:title="Associates an Account object to the SocketClient.">
<polygon fill="white" stroke="black" points="130.5,-0 130.5,-20 257.5,-20 257.5,-0 130.5,-0"/>
<text text-anchor="middle" x="194" y="-7" font-family="FreeSans.ttf" font-size="10.00">SocketClient::sAccount</text>
</a>
</g>
<!-- Node1&#45;&gt;Node4 -->
<g id="edge6" class="edge"><title>Node1&#45;&gt;Node4</title>
<path fill="none" stroke="midnightblue" d="M93.5117,-22.9883C102.007,-21.8903 111.06,-20.7201 120.121,-19.549"/>
<polygon fill="midnightblue" stroke="midnightblue" points="120.856,-22.9831 130.325,-18.2301 119.959,-16.0409 120.856,-22.9831"/>
</g>
<!-- Node3 -->
<g id="node5" class="node"><title>Node3</title>
<a xlink:href="classAccount.xhtml#a42914cf1147f5c5a480dbfcb9a0ff3fe" target="_top" xlink:title="Sets the active Character associated with the account.">
<polygon fill="white" stroke="black" points="294,-38 294,-58 408,-58 408,-38 294,-38"/>
<text text-anchor="middle" x="351" y="-45" font-family="FreeSans.ttf" font-size="10.00">Account::sCharacter</text>
</a>
</g>
<!-- Node2&#45;&gt;Node3 -->
<g id="edge4" class="edge"><title>Node2&#45;&gt;Node3</title>
<path fill="none" stroke="midnightblue" d="M244.54,-48C256.918,-48 270.363,-48 283.399,-48"/>
<polygon fill="midnightblue" stroke="midnightblue" points="283.738,-51.5001 293.738,-48 283.738,-44.5001 283.738,-51.5001"/>
</g>
</g>
</svg>
