<?xml version="1.0" encoding="UTF-8" standalone="no"?>
<!DOCTYPE svg PUBLIC "-//W3C//DTD SVG 1.1//EN"
 "http://www.w3.org/Graphics/SVG/1.1/DTD/svg11.dtd">
<!-- Generated by graphviz version 2.26.3 (20100126.1600)
 -->
<!-- Title: Character Pages: 1 -->
<svg width="1214pt" height="876pt"
 viewBox="0.00 0.00 1214.00 876.38" xmlns="http://www.w3.org/2000/svg" xmlns:xlink="http://www.w3.org/1999/xlink">
<g id="graph1" class="graph" transform="scale(1 1) rotate(0) translate(4 872.38)">
<title>Character</title>
<polygon fill="white" stroke="white" points="-4,5 -4,-872.38 1211,-872.38 1211,5 -4,5"/>
<!-- Node1 -->
<g id="node1" class="node"><title>Node1</title>
<polygon fill="#bfbfbf" stroke="black" points="647,-526.38 647,-546.38 711,-546.38 711,-526.38 647,-526.38"/>
<text text-anchor="middle" x="679" y="-533.38" font-family="FreeSans.ttf" font-size="10.00">Character</text>
</g>
<!-- Node13 -->
<g id="node30" class="node"><title>Node13</title>
<a xlink:href="classAccount.xhtml" target="_top" xlink:title="Security structure to maintain characters, roles, and permissions.">
<polygon fill="white" stroke="black" points="932,-540.38 932,-560.38 988,-560.38 988,-540.38 932,-540.38"/>
<text text-anchor="middle" x="960" y="-547.38" font-family="FreeSans.ttf" font-size="10.00">Account</text>
</a>
</g>
<!-- Node1&#45;&gt;Node13 -->
<g id="edge84" class="edge"><title>Node1&#45;&gt;Node13</title>
<path fill="none" stroke="#9a32cd" stroke-dasharray="5,2" d="M721.159,-542.033C735.377,-543.724 751.352,-545.39 766,-546.38 824.819,-550.358 893.878,-550.767 931.69,-550.627"/>
<polygon fill="#9a32cd" stroke="#9a32cd" points="721.513,-538.55 711.161,-540.806 720.66,-545.498 721.513,-538.55"/>
<text text-anchor="middle" x="828" y="-553.38" font-family="FreeSans.ttf" font-size="10.00"> m_character</text>
</g>
<!-- Node2 -->
<g id="node2" class="node"><title>Node2</title>
<a xlink:href="classThing.xhtml" target="_top" xlink:title="A generic &quot;thing&quot;: creature, character, room, object, etc.">
<polygon fill="white" stroke="black" points="366,-224.38 366,-244.38 408,-244.38 408,-224.38 366,-224.38"/>
<text text-anchor="middle" x="387" y="-231.38" font-family="FreeSans.ttf" font-size="10.00">Thing</text>
</a>
</g>
<!-- Node2&#45;&gt;Node1 -->
<g id="edge2" class="edge"><title>Node2&#45;&gt;Node1</title>
<path fill="none" stroke="midnightblue" d="M410.254,-249.91C425.109,-259.255 445.07,-270.774 464,-278.38 518.412,-300.243 553.942,-265.768 592,-310.38 621.967,-345.508 580.452,-481.899 610,-517.38 618.985,-528.169 633.482,-533.136 646.874,-535.317"/>
<polygon fill="midnightblue" stroke="midnightblue" points="412.025,-246.888 401.72,-244.427 408.241,-252.777 412.025,-246.888"/>
</g>
<!-- Node3 -->
<g id="node4" class="node"><title>Node3</title>
<polygon fill="white" stroke="#bfbfbf" points="617,-259.38 617,-279.38 741,-279.38 741,-259.38 617,-259.38"/>
<text text-anchor="middle" x="679" y="-266.38" font-family="FreeSans.ttf" font-size="10.00">std::vector&lt; Thing * &gt;</text>
</g>
<!-- Node2&#45;&gt;Node3 -->
<g id="edge6" class="edge"><title>Node2&#45;&gt;Node3</title>
<path fill="none" stroke="#9a32cd" stroke-dasharray="5,2" d="M418.264,-240.135C432.227,-242.582 448.905,-245.336 464,-247.38 515.311,-254.329 573.779,-260.179 616.777,-264.096"/>
<polygon fill="#9a32cd" stroke="#9a32cd" points="418.646,-236.648 408.187,-238.34 417.419,-243.539 418.646,-236.648"/>
<text text-anchor="middle" x="528" y="-265.38" font-family="FreeSans.ttf" font-size="10.00"> elements</text>
</g>
<!-- Node9 -->
<g id="node17" class="node"><title>Node9</title>
<a xlink:href="classLocation.xhtml" target="_top" xlink:title="A physical location within the game world.">
<polygon fill="white" stroke="black" points="650.5,-73.3803 650.5,-93.3803 707.5,-93.3803 707.5,-73.3803 650.5,-73.3803"/>
<text text-anchor="middle" x="679" y="-80.3803" font-family="FreeSans.ttf" font-size="10.00">Location</text>
</a>
</g>
<!-- Node2&#45;&gt;Node9 -->
<g id="edge20" class="edge"><title>Node2&#45;&gt;Node9</title>
<path fill="none" stroke="midnightblue" d="M418.143,-229.116C472.414,-219.672 579.741,-199.689 592,-187.38 617.718,-161.558 585.732,-134.57 610,-107.38 620.219,-95.931 636.193,-89.9432 650.198,-86.8119"/>
<polygon fill="midnightblue" stroke="midnightblue" points="417.3,-225.71 408.04,-230.859 418.49,-232.608 417.3,-225.71"/>
</g>
<!-- Node3&#45;&gt;Node2 -->
<g id="edge4" class="edge"><title>Node3&#45;&gt;Node2</title>
<path fill="none" stroke="#9a32cd" stroke-dasharray="5,2" d="M650.096,-254.987C633.536,-247.54 612.106,-239.22 592,-235.38 525.928,-222.761 445.678,-228.23 408.198,-231.957"/>
<polygon fill="#9a32cd" stroke="#9a32cd" points="648.693,-258.195 659.237,-259.231 651.641,-251.846 648.693,-258.195"/>
<text text-anchor="middle" x="528" y="-238.38" font-family="FreeSans.ttf" font-size="10.00"> m_contents</text>
</g>
<!-- Node4 -->
<g id="node7" class="node"><title>Node4</title>
<a xlink:title="STL class.">
<polygon fill="white" stroke="#bfbfbf" points="339.5,-382.38 339.5,-402.38 434.5,-402.38 434.5,-382.38 339.5,-382.38"/>
<text text-anchor="middle" x="387" y="-389.38" font-family="FreeSans.ttf" font-size="10.00">std::vector&lt; T &gt;</text>
</a>
</g>
<!-- Node4&#45;&gt;Node3 -->
<g id="edge8" class="edge"><title>Node4&#45;&gt;Node3</title>
<path fill="none" stroke="orange" stroke-dasharray="5,2" d="M421.513,-378.445C429.559,-375.168 438.088,-371.67 446,-368.38 522.905,-336.403 613.626,-297.52 655.569,-279.477"/>
<polygon fill="orange" stroke="orange" points="419.958,-375.299 412.011,-382.306 422.593,-381.784 419.958,-375.299"/>
<text text-anchor="middle" x="528" y="-364.38" font-family="FreeSans.ttf" font-size="10.00"> &lt; Thing * &gt;</text>
</g>
<!-- Node23 -->
<g id="node60" class="node"><title>Node23</title>
<polygon fill="white" stroke="#bfbfbf" points="620.5,-368.38 620.5,-388.38 737.5,-388.38 737.5,-368.38 620.5,-368.38"/>
<text text-anchor="middle" x="679" y="-375.38" font-family="FreeSans.ttf" font-size="10.00">std::vector&lt; string &gt;</text>
</g>
<!-- Node4&#45;&gt;Node23 -->
<g id="edge80" class="edge"><title>Node4&#45;&gt;Node23</title>
<path fill="none" stroke="orange" stroke-dasharray="5,2" d="M444.732,-389.612C495.57,-387.175 569.268,-383.641 620.373,-381.191"/>
<polygon fill="orange" stroke="orange" points="444.386,-386.125 434.565,-390.1 444.721,-393.117 444.386,-386.125"/>
<text text-anchor="middle" x="528" y="-391.38" font-family="FreeSans.ttf" font-size="10.00"> &lt; string &gt;</text>
</g>
<!-- Node5 -->
<g id="node9" class="node"><title>Node5</title>
<polygon fill="white" stroke="#bfbfbf" points="165.5,-458.38 165.5,-478.38 194.5,-478.38 194.5,-458.38 165.5,-458.38"/>
<text text-anchor="middle" x="180" y="-465.38" font-family="FreeSans.ttf" font-size="10.00">T</text>
</g>
<!-- Node5&#45;&gt;Node4 -->
<g id="edge10" class="edge"><title>Node5&#45;&gt;Node4</title>
<path fill="none" stroke="#9a32cd" stroke-dasharray="5,2" d="M199.095,-451.913C209.421,-443.767 222.747,-434.413 236,-428.38 268.868,-413.42 308.7,-404.257 339.199,-398.922"/>
<polygon fill="#9a32cd" stroke="#9a32cd" points="196.72,-449.334 191.194,-458.373 201.151,-454.753 196.72,-449.334"/>
<text text-anchor="middle" x="273" y="-431.38" font-family="FreeSans.ttf" font-size="10.00"> elements</text>
</g>
<!-- Node12 -->
<g id="node27" class="node"><title>Node12</title>
<a xlink:title="STL class.">
<polygon fill="white" stroke="#bfbfbf" points="347.5,-420.38 347.5,-440.38 426.5,-440.38 426.5,-420.38 347.5,-420.38"/>
<text text-anchor="middle" x="387" y="-427.38" font-family="FreeSans.ttf" font-size="10.00">std::list&lt; T &gt;</text>
</a>
</g>
<!-- Node5&#45;&gt;Node12 -->
<g id="edge34" class="edge"><title>Node5&#45;&gt;Node12</title>
<path fill="none" stroke="#9a32cd" stroke-dasharray="5,2" d="M204.471,-463.888C239.739,-457.414 305.246,-445.388 347.441,-437.642"/>
<polygon fill="#9a32cd" stroke="#9a32cd" points="203.76,-460.46 194.556,-465.708 205.023,-467.345 203.76,-460.46"/>
<text text-anchor="middle" x="273" y="-459.38" font-family="FreeSans.ttf" font-size="10.00"> elements</text>
</g>
<!-- Node19 -->
<g id="node45" class="node"><title>Node19</title>
<a xlink:title="STL class.">
<polygon fill="white" stroke="#bfbfbf" points="339.5,-544.38 339.5,-564.38 434.5,-564.38 434.5,-544.38 339.5,-544.38"/>
<text text-anchor="middle" x="387" y="-551.38" font-family="FreeSans.ttf" font-size="10.00">std::deque&lt; T &gt;</text>
</a>
</g>
<!-- Node5&#45;&gt;Node19 -->
<g id="edge56" class="edge"><title>Node5&#45;&gt;Node19</title>
<path fill="none" stroke="#9a32cd" stroke-dasharray="5,2" d="M196.055,-485.722C206.508,-496.039 220.957,-508.595 236,-516.38 253.886,-525.637 302.104,-536.991 339.287,-544.866"/>
<polygon fill="#9a32cd" stroke="#9a32cd" points="198.386,-483.099 188.898,-478.384 193.375,-487.986 198.386,-483.099"/>
<text text-anchor="middle" x="273" y="-540.38" font-family="FreeSans.ttf" font-size="10.00"> elements</text>
</g>
<!-- Node6 -->
<g id="node11" class="node"><title>Node6</title>
<a xlink:title="STL class.">
<polygon fill="white" stroke="#bfbfbf" points="147.5,-182.38 147.5,-202.38 212.5,-202.38 212.5,-182.38 147.5,-182.38"/>
<text text-anchor="middle" x="180" y="-189.38" font-family="FreeSans.ttf" font-size="10.00">std::string</text>
</a>
</g>
<!-- Node6&#45;&gt;Node1 -->
<g id="edge86" class="edge"><title>Node6&#45;&gt;Node1</title>
<path fill="none" stroke="#9a32cd" stroke-dasharray="5,2" d="M182.39,-212.715C188.683,-262.935 207.233,-390.967 236,-421.38 265.37,-452.431 286.424,-439.471 328,-449.38 385.928,-463.187 540.583,-465.338 592,-495.38 602.908,-501.754 599.411,-510.49 610,-517.38 620.935,-524.496 634.508,-528.971 646.715,-531.774"/>
<polygon fill="#9a32cd" stroke="#9a32cd" points="185.826,-211.982 181.143,-202.479 178.878,-212.829 185.826,-211.982"/>
<text text-anchor="middle" x="387" y="-466.38" font-family="FreeSans.ttf" font-size="10.00"> m_file</text>
</g>
<!-- Node6&#45;&gt;Node2 -->
<g id="edge12" class="edge"><title>Node6&#45;&gt;Node2</title>
<path fill="none" stroke="#9a32cd" stroke-dasharray="5,2" d="M222.828,-201.07C266.42,-209.915 332.206,-223.263 365.73,-230.065"/>
<polygon fill="#9a32cd" stroke="#9a32cd" points="223.296,-197.594 212.8,-199.035 221.904,-204.454 223.296,-197.594"/>
<text text-anchor="middle" x="273" y="-245.38" font-family="FreeSans.ttf" font-size="10.00"> m_description</text>
<text text-anchor="middle" x="273" y="-233.38" font-family="FreeSans.ttf" font-size="10.00">m_id</text>
<text text-anchor="middle" x="273" y="-221.38" font-family="FreeSans.ttf" font-size="10.00">m_name</text>
</g>
<!-- Node6&#45;&gt;Node9 -->
<g id="edge22" class="edge"><title>Node6&#45;&gt;Node9</title>
<path fill="none" stroke="#9a32cd" stroke-dasharray="5,2" d="M189.3,-172.788C198.669,-155.157 214.768,-129.862 236,-115.38 270.91,-91.5692 286.262,-97.9862 328,-91.3803 446.301,-72.6567 589.792,-77.9634 650.103,-81.4416"/>
<polygon fill="#9a32cd" stroke="#9a32cd" points="185.959,-171.639 184.574,-182.143 192.207,-174.796 185.959,-171.639"/>
<text text-anchor="middle" x="387" y="-106.38" font-family="FreeSans.ttf" font-size="10.00"> m_zone</text>
<text text-anchor="middle" x="387" y="-94.3803" font-family="FreeSans.ttf" font-size="10.00">m_file</text>
</g>
<!-- Node11 -->
<g id="node23" class="node"><title>Node11</title>
<a xlink:href="classExit.xhtml" target="_top" xlink:title="A link between two locations within the game world.">
<polygon fill="white" stroke="black" points="943,-57.3803 943,-77.3803 977,-77.3803 977,-57.3803 943,-57.3803"/>
<text text-anchor="middle" x="960" y="-64.3803" font-family="FreeSans.ttf" font-size="10.00">Exit</text>
</a>
</g>
<!-- Node6&#45;&gt;Node11 -->
<g id="edge28" class="edge"><title>Node6&#45;&gt;Node11</title>
<path fill="none" stroke="#9a32cd" stroke-dasharray="5,2" d="M185.151,-172.695C192.389,-149.168 207.936,-110.466 236,-90.3803 467.885,75.581 856.996,-34.4112 942.886,-61.7127"/>
<polygon fill="#9a32cd" stroke="#9a32cd" points="181.785,-171.738 182.396,-182.315 188.514,-173.666 181.785,-171.738"/>
<text text-anchor="middle" x="528" y="-21.3803" font-family="FreeSans.ttf" font-size="10.00"> m_dest_id</text>
<text text-anchor="middle" x="528" y="-9.38033" font-family="FreeSans.ttf" font-size="10.00">m_name</text>
</g>
<!-- Node6&#45;&gt;Node13 -->
<g id="edge74" class="edge"><title>Node6&#45;&gt;Node13</title>
<path fill="none" stroke="#9a32cd" stroke-dasharray="5,2" d="M222.641,-189.169C297.846,-184.401 458.713,-178.215 592,-200.38 663.821,-212.324 680.807,-222.344 748,-250.38 813.679,-277.785 844.405,-269.738 890,-324.38 946.579,-392.187 957.497,-505.506 959.542,-540.064"/>
<polygon fill="#9a32cd" stroke="#9a32cd" points="222.358,-185.68 212.609,-189.83 222.818,-192.665 222.358,-185.68"/>
<text text-anchor="middle" x="528" y="-215.38" font-family="FreeSans.ttf" font-size="10.00"> m_password</text>
<text text-anchor="middle" x="528" y="-203.38" font-family="FreeSans.ttf" font-size="10.00">m_id</text>
</g>
<!-- Node14 -->
<g id="node32" class="node"><title>Node14</title>
<a xlink:href="classSocketClient.xhtml" target="_top" xlink:title="SocketClient extends the Socket class to implement remote&#45;host socket functions.">
<polygon fill="white" stroke="black" points="1117.5,-676.38 1117.5,-696.38 1194.5,-696.38 1194.5,-676.38 1117.5,-676.38"/>
<text text-anchor="middle" x="1156" y="-683.38" font-family="FreeSans.ttf" font-size="10.00">SocketClient</text>
</a>
</g>
<!-- Node6&#45;&gt;Node14 -->
<g id="edge60" class="edge"><title>Node6&#45;&gt;Node14</title>
<path fill="none" stroke="#9a32cd" stroke-dasharray="5,2" d="M222.477,-181.034C318.441,-157.375 558.397,-109.355 748,-164.38 1005.38,-239.076 1132.23,-610.219 1152.94,-676.306"/>
<polygon fill="#9a32cd" stroke="#9a32cd" points="221.419,-177.69 212.57,-183.517 223.12,-184.48 221.419,-177.69"/>
<text text-anchor="middle" x="679" y="-191.38" font-family="FreeSans.ttf" font-size="10.00"> m_output</text>
<text text-anchor="middle" x="679" y="-179.38" font-family="FreeSans.ttf" font-size="10.00">m_input</text>
<text text-anchor="middle" x="679" y="-167.38" font-family="FreeSans.ttf" font-size="10.00">m_login</text>
</g>
<!-- Node15 -->
<g id="node34" class="node"><title>Node15</title>
<a xlink:href="classSocket.xhtml" target="_top" xlink:title="Functions and interfaces that are common to both SocketClient and SocketServer.">
<polygon fill="white" stroke="black" points="362,-689.38 362,-709.38 412,-709.38 412,-689.38 362,-689.38"/>
<text text-anchor="middle" x="387" y="-696.38" font-family="FreeSans.ttf" font-size="10.00">Socket</text>
</a>
</g>
<!-- Node6&#45;&gt;Node15 -->
<g id="edge44" class="edge"><title>Node6&#45;&gt;Node15</title>
<path fill="none" stroke="#9a32cd" stroke-dasharray="5,2" d="M182.958,-212.464C193.956,-286.976 232.055,-543.711 236,-551.38 244.899,-568.681 342.613,-658.824 375.94,-689.3"/>
<polygon fill="#9a32cd" stroke="#9a32cd" points="186.409,-211.87 181.487,-202.488 179.484,-212.891 186.409,-211.87"/>
<text text-anchor="middle" x="273" y="-627.38" font-family="FreeSans.ttf" font-size="10.00"> m_hostname</text>
</g>
<!-- Node6&#45;&gt;Node23 -->
<g id="edge78" class="edge"><title>Node6&#45;&gt;Node23</title>
<path fill="none" stroke="#9a32cd" stroke-dasharray="5,2" d="M191.881,-211.082C202.031,-225.731 217.845,-245.689 236,-258.38 355.348,-341.81 530.054,-367.277 620.262,-375.02"/>
<polygon fill="#9a32cd" stroke="#9a32cd" points="194.787,-209.132 186.323,-202.76 188.966,-213.02 194.787,-209.132"/>
<text text-anchor="middle" x="387" y="-350.38" font-family="FreeSans.ttf" font-size="10.00"> elements</text>
</g>
<!-- Node7 -->
<g id="node13" class="node"><title>Node7</title>
<a xlink:title="STL class.">
<polygon fill="white" stroke="#bfbfbf" points="0.5,-176.38 0.5,-208.38 103.5,-208.38 103.5,-176.38 0.5,-176.38"/>
<text text-anchor="start" x="8.5" y="-195.38" font-family="FreeSans.ttf" font-size="10.00">std::basic_string&lt;</text>
<text text-anchor="middle" x="52" y="-183.38" font-family="FreeSans.ttf" font-size="10.00"> char &gt;</text>
</a>
</g>
<!-- Node7&#45;&gt;Node6 -->
<g id="edge14" class="edge"><title>Node7&#45;&gt;Node6</title>
<path fill="none" stroke="midnightblue" d="M113.792,-192.38C125.355,-192.38 137.014,-192.38 147.258,-192.38"/>
<polygon fill="midnightblue" stroke="midnightblue" points="113.694,-188.88 103.694,-192.38 113.694,-195.88 113.694,-188.88"/>
</g>
<!-- Node8 -->
<g id="node15" class="node"><title>Node8</title>
<polygon fill="white" stroke="#bfbfbf" points="142.5,-623.38 142.5,-643.38 217.5,-643.38 217.5,-623.38 142.5,-623.38"/>
<text text-anchor="middle" x="180" y="-630.38" font-family="FreeSans.ttf" font-size="10.00">unsigned int</text>
</g>
<!-- Node8&#45;&gt;Node1 -->
<g id="edge90" class="edge"><title>Node8&#45;&gt;Node1</title>
<path fill="none" stroke="#9a32cd" stroke-dasharray="5,2" d="M227.456,-621.414C230.345,-620.717 233.21,-620.034 236,-619.38 329.023,-597.569 365.109,-624.23 446,-573.38 456.99,-566.472 452.522,-556.442 464,-550.38 522.545,-519.462 602.912,-524.605 646.939,-530.724"/>
<polygon fill="#9a32cd" stroke="#9a32cd" points="226.502,-618.044 217.617,-623.815 228.162,-624.844 226.502,-618.044"/>
<text text-anchor="middle" x="387" y="-610.38" font-family="FreeSans.ttf" font-size="10.00"> m_sex</text>
</g>
<!-- Node8&#45;&gt;Node2 -->
<g id="edge16" class="edge"><title>Node8&#45;&gt;Node2</title>
<path fill="none" stroke="#9a32cd" stroke-dasharray="5,2" d="M183.461,-613.271C189.371,-584.729 204.02,-532.485 236,-501.38 261.322,-476.751 288.295,-500.249 310,-472.38 349.089,-422.19 306.87,-390.385 328,-330.38 340.021,-296.244 365.479,-261.311 378.676,-244.56"/>
<polygon fill="#9a32cd" stroke="#9a32cd" points="179.987,-612.801 181.549,-623.28 186.863,-614.115 179.987,-612.801"/>
<text text-anchor="middle" x="273" y="-504.38" font-family="FreeSans.ttf" font-size="10.00"> m_type</text>
</g>
<!-- Node8&#45;&gt;Node13 -->
<g id="edge82" class="edge"><title>Node8&#45;&gt;Node13</title>
<path fill="none" stroke="#9a32cd" stroke-dasharray="5,2" d="M228.047,-637.741C346.42,-648.003 649.608,-671.222 748,-649.38 826.716,-631.906 910.822,-582.009 944.632,-560.476"/>
<polygon fill="#9a32cd" stroke="#9a32cd" points="228.111,-634.234 217.844,-636.849 227.502,-641.207 228.111,-634.234"/>
<text text-anchor="middle" x="528" y="-660.38" font-family="FreeSans.ttf" font-size="10.00"> m_security</text>
</g>
<!-- Node8&#45;&gt;Node14 -->
<g id="edge62" class="edge"><title>Node8&#45;&gt;Node14</title>
<path fill="none" stroke="#9a32cd" stroke-dasharray="5,2" d="M190.271,-652.757C205.383,-681.111 232.235,-730.845 236,-733.38 292.102,-771.167 319.36,-752.38 387,-752.38 387,-752.38 387,-752.38 960,-752.38 1029.3,-752.38 1105.51,-714.868 1138.82,-696.404"/>
<polygon fill="#9a32cd" stroke="#9a32cd" points="193.257,-650.918 185.472,-643.731 187.076,-654.204 193.257,-650.918"/>
<text text-anchor="middle" x="679" y="-767.38" font-family="FreeSans.ttf" font-size="10.00"> m_idle</text>
<text text-anchor="middle" x="679" y="-755.38" font-family="FreeSans.ttf" font-size="10.00">m_state</text>
</g>
<!-- Node8&#45;&gt;Node15 -->
<g id="edge46" class="edge"><title>Node8&#45;&gt;Node15</title>
<path fill="none" stroke="#9a32cd" stroke-dasharray="5,2" d="M227.506,-644.715C252.303,-650.997 283.018,-659.353 310,-668.38 328.449,-674.553 348.853,-682.836 364.02,-689.288"/>
<polygon fill="#9a32cd" stroke="#9a32cd" points="228.169,-641.273 217.618,-642.24 226.469,-648.064 228.169,-641.273"/>
<text text-anchor="middle" x="273" y="-695.38" font-family="FreeSans.ttf" font-size="10.00"> m_bytes_sent</text>
<text text-anchor="middle" x="273" y="-683.38" font-family="FreeSans.ttf" font-size="10.00">m_port</text>
<text text-anchor="middle" x="273" y="-671.38" font-family="FreeSans.ttf" font-size="10.00">m_bytes_recvd</text>
</g>
<!-- Node9&#45;&gt;Node2 -->
<g id="edge18" class="edge"><title>Node9&#45;&gt;Node2</title>
<path fill="none" stroke="#9a32cd" stroke-dasharray="5,2" d="M640.382,-83.2969C594.754,-84.9361 518.204,-93.2966 464,-128.38 426.192,-152.852 400.806,-202.879 391.244,-224.291"/>
<polygon fill="#9a32cd" stroke="#9a32cd" points="640.554,-86.7936 650.457,-83.0267 640.367,-79.7961 640.554,-86.7936"/>
<text text-anchor="middle" x="528" y="-131.38" font-family="FreeSans.ttf" font-size="10.00"> m_location</text>
</g>
<!-- Node9&#45;&gt;Node11 -->
<g id="edge30" class="edge"><title>Node9&#45;&gt;Node11</title>
<path fill="none" stroke="#9a32cd" stroke-dasharray="5,2" d="M717.593,-79.4099C732.68,-77.9683 750.137,-76.436 766,-75.3803 831.251,-71.0376 909.016,-68.6826 942.857,-67.7966"/>
<polygon fill="#9a32cd" stroke="#9a32cd" points="717.189,-75.9327 707.576,-80.3865 717.868,-82.8996 717.189,-75.9327"/>
<text text-anchor="middle" x="828" y="-90.3803" font-family="FreeSans.ttf" font-size="10.00"> m_location</text>
<text text-anchor="middle" x="828" y="-78.3803" font-family="FreeSans.ttf" font-size="10.00">m_destination</text>
</g>
<!-- Node10 -->
<g id="node21" class="node"><title>Node10</title>
<polygon fill="white" stroke="#bfbfbf" points="1106.5,-103.38 1106.5,-123.38 1205.5,-123.38 1205.5,-103.38 1106.5,-103.38"/>
<text text-anchor="middle" x="1156" y="-110.38" font-family="FreeSans.ttf" font-size="10.00">std::list&lt; Exit * &gt;</text>
</g>
<!-- Node10&#45;&gt;Node9 -->
<g id="edge24" class="edge"><title>Node10&#45;&gt;Node9</title>
<path fill="none" stroke="#9a32cd" stroke-dasharray="5,2" d="M1095.85,-113.937C1019.07,-114.024 882.268,-112.09 766,-99.3803 746.459,-97.2443 724.709,-93.2443 707.844,-89.7783"/>
<polygon fill="#9a32cd" stroke="#9a32cd" points="1096.28,-117.436 1106.27,-113.912 1096.27,-110.436 1096.28,-117.436"/>
<text text-anchor="middle" x="960" y="-116.38" font-family="FreeSans.ttf" font-size="10.00"> m_exits</text>
</g>
<!-- Node11&#45;&gt;Node10 -->
<g id="edge26" class="edge"><title>Node11&#45;&gt;Node10</title>
<path fill="none" stroke="#9a32cd" stroke-dasharray="5,2" d="M987.5,-69.9862C1013.66,-72.8602 1053.96,-78.3206 1088,-87.3803 1103.51,-91.5084 1120.37,-97.9395 1133.42,-103.373"/>
<polygon fill="#9a32cd" stroke="#9a32cd" points="987.525,-66.4698 977.215,-68.9099 986.796,-73.4318 987.525,-66.4698"/>
<text text-anchor="middle" x="1059" y="-90.3803" font-family="FreeSans.ttf" font-size="10.00"> elements</text>
</g>
<!-- Node12&#45;&gt;Node10 -->
<g id="edge32" class="edge"><title>Node12&#45;&gt;Node10</title>
<path fill="none" stroke="orange" stroke-dasharray="5,2" d="M436.93,-428.963C522.216,-426.02 692.162,-417.739 748,-397.38 928.004,-331.75 1102.64,-166.375 1145.85,-123.605"/>
<polygon fill="orange" stroke="orange" points="436.592,-425.472 426.714,-429.304 436.826,-432.468 436.592,-425.472"/>
<text text-anchor="middle" x="828" y="-392.38" font-family="FreeSans.ttf" font-size="10.00"> &lt; Exit * &gt;</text>
</g>
<!-- Node22 -->
<g id="node55" class="node"><title>Node22</title>
<polygon fill="white" stroke="#bfbfbf" points="618,-476.38 618,-508.38 740,-508.38 740,-476.38 618,-476.38"/>
<text text-anchor="start" x="626" y="-495.38" font-family="FreeSans.ttf" font-size="10.00">std::list&lt; pair&lt; string,</text>
<text text-anchor="middle" x="679" y="-483.38" font-family="FreeSans.ttf" font-size="10.00"> string &gt; &gt;</text>
</g>
<!-- Node12&#45;&gt;Node22 -->
<g id="edge72" class="edge"><title>Node12&#45;&gt;Node22</title>
<path fill="none" stroke="orange" stroke-dasharray="5,2" d="M436.936,-430.38C479.01,-431.527 540.422,-435.911 592,-450.38 613.155,-456.315 635.44,-467.174 652.16,-476.363"/>
<polygon fill="orange" stroke="orange" points="436.748,-426.875 426.673,-430.154 436.593,-433.873 436.748,-426.875"/>
<text text-anchor="middle" x="528" y="-453.38" font-family="FreeSans.ttf" font-size="10.00"> &lt; pair&lt; string, string &gt; &gt;</text>
</g>
<!-- Node13&#45;&gt;Node1 -->
<g id="edge36" class="edge"><title>Node13&#45;&gt;Node1</title>
<path fill="none" stroke="#9a32cd" stroke-dasharray="5,2" d="M922.03,-540.07C911.718,-537.719 900.498,-535.565 890,-534.38 827.023,-527.275 752.804,-530.686 711.297,-533.645"/>
<polygon fill="#9a32cd" stroke="#9a32cd" points="921.438,-543.528 931.979,-542.459 923.073,-536.721 921.438,-543.528"/>
<text text-anchor="middle" x="828" y="-537.38" font-family="FreeSans.ttf" font-size="10.00"> m_account</text>
</g>
<!-- Node13&#45;&gt;Node14 -->
<g id="edge48" class="edge"><title>Node13&#45;&gt;Node14</title>
<path fill="none" stroke="#9a32cd" stroke-dasharray="5,2" d="M998.059,-553.72C1025.24,-557.691 1061.53,-566.38 1088,-585.38 1121.66,-609.54 1143.64,-655.91 1152.09,-676.318"/>
<polygon fill="#9a32cd" stroke="#9a32cd" points="998.497,-550.247 988.127,-552.417 997.587,-557.188 998.497,-550.247"/>
<text text-anchor="middle" x="1059" y="-588.38" font-family="FreeSans.ttf" font-size="10.00"> m_account</text>
</g>
<!-- Node14&#45;&gt;Node13 -->
<g id="edge38" class="edge"><title>Node14&#45;&gt;Node13</title>
<path fill="none" stroke="#9a32cd" stroke-dasharray="5,2" d="M1133.35,-670.662C1092.63,-642.41 1008.18,-583.812 974.412,-560.381"/>
<polygon fill="#9a32cd" stroke="#9a32cd" points="1131.36,-673.54 1141.57,-676.365 1135.35,-667.789 1131.36,-673.54"/>
<text text-anchor="middle" x="1059" y="-641.38" font-family="FreeSans.ttf" font-size="10.00"> m_client</text>
</g>
<!-- Node15&#45;&gt;Node14 -->
<g id="edge40" class="edge"><title>Node15&#45;&gt;Node14</title>
<path fill="none" stroke="midnightblue" d="M422.506,-698.78C550.082,-696.623 984.715,-689.276 1117.29,-687.035"/>
<polygon fill="midnightblue" stroke="midnightblue" points="422.088,-695.287 412.149,-698.955 422.207,-702.286 422.088,-695.287"/>
</g>
<!-- Node16 -->
<g id="node36" class="node"><title>Node16</title>
<polygon fill="white" stroke="#bfbfbf" points="148.5,-715.38 148.5,-735.38 211.5,-735.38 211.5,-715.38 148.5,-715.38"/>
<text text-anchor="middle" x="180" y="-722.38" font-family="FreeSans.ttf" font-size="10.00">signed int</text>
</g>
<!-- Node16&#45;&gt;Node15 -->
<g id="edge42" class="edge"><title>Node16&#45;&gt;Node15</title>
<path fill="none" stroke="#9a32cd" stroke-dasharray="5,2" d="M221.814,-720.128C263.807,-714.854 327.13,-706.9 361.912,-702.532"/>
<polygon fill="#9a32cd" stroke="#9a32cd" points="221.376,-716.656 211.89,-721.375 222.248,-723.601 221.376,-716.656"/>
<text text-anchor="middle" x="273" y="-720.38" font-family="FreeSans.ttf" font-size="10.00"> m_descriptor</text>
</g>
<!-- Node17 -->
<g id="node41" class="node"><title>Node17</title>
<polygon fill="white" stroke="#bfbfbf" points="610,-608.38 610,-640.38 748,-640.38 748,-608.38 610,-608.38"/>
<text text-anchor="start" x="618" y="-627.38" font-family="FreeSans.ttf" font-size="10.00">std::deque&lt; pair&lt; string,</text>
<text text-anchor="middle" x="679" y="-615.38" font-family="FreeSans.ttf" font-size="10.00"> string &gt; &gt;</text>
</g>
<!-- Node17&#45;&gt;Node14 -->
<g id="edge50" class="edge"><title>Node17&#45;&gt;Node14</title>
<path fill="none" stroke="#9a32cd" stroke-dasharray="5,2" d="M758.198,-634.674C861.758,-648.135 1039.14,-671.191 1117.2,-681.337"/>
<polygon fill="#9a32cd" stroke="#9a32cd" points="758.473,-631.181 748.105,-633.363 757.57,-638.122 758.473,-631.181"/>
<text text-anchor="middle" x="960" y="-670.38" font-family="FreeSans.ttf" font-size="10.00"> m_command_queue</text>
</g>
<!-- Node18 -->
<g id="node43" class="node"><title>Node18</title>
<polygon fill="white" stroke="#bfbfbf" points="328.5,-506.38 328.5,-526.38 445.5,-526.38 445.5,-506.38 328.5,-506.38"/>
<text text-anchor="middle" x="387" y="-513.38" font-family="FreeSans.ttf" font-size="10.00">pair&lt; string, string &gt;</text>
</g>
<!-- Node18&#45;&gt;Node17 -->
<g id="edge52" class="edge"><title>Node18&#45;&gt;Node17</title>
<path fill="none" stroke="#9a32cd" stroke-dasharray="5,2" d="M441.421,-531.586C443.031,-532.758 444.564,-534.021 446,-535.38 462.24,-550.763 446.607,-568.315 464,-582.38 508.771,-618.587 535.584,-590.866 592,-602.38 600.548,-604.125 609.52,-606.159 618.32,-608.273"/>
<polygon fill="#9a32cd" stroke="#9a32cd" points="443.212,-528.579 432.834,-526.446 439.617,-534.585 443.212,-528.579"/>
<text text-anchor="middle" x="528" y="-605.38" font-family="FreeSans.ttf" font-size="10.00"> elements</text>
</g>
<!-- Node18&#45;&gt;Node22 -->
<g id="edge70" class="edge"><title>Node18&#45;&gt;Node22</title>
<path fill="none" stroke="#9a32cd" stroke-dasharray="5,2" d="M455.965,-510.712C505.105,-506.673 570.561,-501.293 617.84,-497.407"/>
<polygon fill="#9a32cd" stroke="#9a32cd" points="455.419,-507.245 445.739,-511.552 455.992,-514.221 455.419,-507.245"/>
<text text-anchor="middle" x="528" y="-512.38" font-family="FreeSans.ttf" font-size="10.00"> elements</text>
</g>
<!-- Node19&#45;&gt;Node17 -->
<g id="edge54" class="edge"><title>Node19&#45;&gt;Node17</title>
<path fill="none" stroke="orange" stroke-dasharray="5,2" d="M433.091,-568.984C437.775,-571.641 442.199,-574.75 446,-578.38 459.806,-591.565 448.089,-606.831 464,-617.38 487.189,-632.755 556.218,-632.604 609.871,-629.792"/>
<polygon fill="orange" stroke="orange" points="434.374,-565.713 423.859,-564.414 431.268,-571.987 434.374,-565.713"/>
<text text-anchor="middle" x="528" y="-633.38" font-family="FreeSans.ttf" font-size="10.00"> &lt; pair&lt; string, string &gt; &gt;</text>
</g>
<!-- Node20 -->
<g id="node48" class="node"><title>Node20</title>
<polygon fill="white" stroke="#bfbfbf" points="368.5,-794.38 368.5,-814.38 405.5,-814.38 405.5,-794.38 368.5,-794.38"/>
<text text-anchor="middle" x="387" y="-801.38" font-family="FreeSans.ttf" font-size="10.00">bool</text>
</g>
<!-- Node20&#45;&gt;Node1 -->
<g id="edge88" class="edge"><title>Node20&#45;&gt;Node1</title>
<path fill="none" stroke="#9a32cd" stroke-dasharray="5,2" d="M403.152,-786.5C417.003,-770.057 436.224,-744.355 446,-718.38 457.904,-686.753 440.4,-591.567 464,-567.38 467.177,-564.124 587.764,-548.158 646.923,-540.497"/>
<polygon fill="#9a32cd" stroke="#9a32cd" points="400.378,-784.356 396.477,-794.207 405.669,-788.939 400.378,-784.356"/>
<text text-anchor="middle" x="528" y="-570.38" font-family="FreeSans.ttf" font-size="10.00"> m_creation</text>
</g>
<!-- Node20&#45;&gt;Node14 -->
<g id="edge58" class="edge"><title>Node20&#45;&gt;Node14</title>
<path fill="none" stroke="#9a32cd" stroke-dasharray="5,2" d="M415.775,-805.79C532.121,-811.04 967.272,-826.229 1088,-766.38 1119.03,-750.998 1141.46,-714.381 1150.96,-696.523"/>
<polygon fill="#9a32cd" stroke="#9a32cd" points="415.683,-802.282 405.532,-805.315 415.359,-809.274 415.683,-802.282"/>
<text text-anchor="middle" x="828" y="-812.38" font-family="FreeSans.ttf" font-size="10.00"> m_quitting</text>
</g>
<!-- Node21 -->
<g id="node52" class="node"><title>Node21</title>
<a xlink:href="classSocketClient_1_1TermInfo.xhtml" target="_top" xlink:title="Remote terminal information and configuration.">
<polygon fill="white" stroke="black" points="766.5,-836.38 766.5,-856.38 889.5,-856.38 889.5,-836.38 766.5,-836.38"/>
<text text-anchor="middle" x="828" y="-843.38" font-family="FreeSans.ttf" font-size="10.00">SocketClient::TermInfo</text>
</a>
</g>
<!-- Node20&#45;&gt;Node21 -->
<g id="edge66" class="edge"><title>Node20&#45;&gt;Node21</title>
<path fill="none" stroke="#9a32cd" stroke-dasharray="5,2" d="M415.45,-810.276C429.93,-813.093 447.843,-816.296 464,-818.38 569.762,-832.026 693.733,-839.83 766.295,-843.576"/>
<polygon fill="#9a32cd" stroke="#9a32cd" points="416.078,-806.833 405.587,-808.315 414.713,-813.698 416.078,-806.833"/>
<text text-anchor="middle" x="528" y="-845.38" font-family="FreeSans.ttf" font-size="10.00"> m_telopt</text>
<text text-anchor="middle" x="528" y="-833.38" font-family="FreeSans.ttf" font-size="10.00">m_negotiated</text>
</g>
<!-- Node21&#45;&gt;Node14 -->
<g id="edge64" class="edge"><title>Node21&#45;&gt;Node14</title>
<path fill="none" stroke="#9a32cd" stroke-dasharray="5,2" d="M899.765,-856.034C955.801,-859.739 1033.1,-856.032 1088,-818.38 1131.58,-788.489 1148.97,-721.825 1154.17,-696.45"/>
<polygon fill="#9a32cd" stroke="#9a32cd" points="899.796,-852.526 889.56,-855.262 899.268,-859.506 899.796,-852.526"/>
<text text-anchor="middle" x="960" y="-859.38" font-family="FreeSans.ttf" font-size="10.00"> m_terminfo</text>
</g>
<!-- Node22&#45;&gt;Node13 -->
<g id="edge68" class="edge"><title>Node22&#45;&gt;Node13</title>
<path fill="none" stroke="#9a32cd" stroke-dasharray="5,2" d="M750.263,-492.665C791.794,-494.5 844.739,-499.74 890,-513.38 910.268,-519.489 931.483,-531.637 945.17,-540.349"/>
<polygon fill="#9a32cd" stroke="#9a32cd" points="750.361,-489.166 740.233,-492.278 750.091,-496.161 750.361,-489.166"/>
<text text-anchor="middle" x="828" y="-516.38" font-family="FreeSans.ttf" font-size="10.00"> m_logins</text>
</g>
<!-- Node23&#45;&gt;Node13 -->
<g id="edge76" class="edge"><title>Node23&#45;&gt;Node13</title>
<path fill="none" stroke="#9a32cd" stroke-dasharray="5,2" d="M718.336,-391.841C762.55,-408.065 835.295,-438.116 890,-477.38 915.962,-496.014 940.389,-525.05 952.342,-540.279"/>
<polygon fill="#9a32cd" stroke="#9a32cd" points="719.408,-388.507 708.814,-388.399 717.028,-395.09 719.408,-388.507"/>
<text text-anchor="middle" x="828" y="-480.38" font-family="FreeSans.ttf" font-size="10.00"> m_characters</text>
</g>
</g>
</svg>
