<?xml version="1.0" encoding="UTF-8" standalone="no"?>
<!DOCTYPE svg PUBLIC "-//W3C//DTD SVG 1.1//EN"
 "http://www.w3.org/Graphics/SVG/1.1/DTD/svg11.dtd">
<!-- Generated by graphviz version 2.26.3 (20100126.1600)
 -->
<!-- Title: Account::ClearCharacter Pages: 1 -->
<!--zoomable 610 -->
<svg id="main" version="1.1" xmlns="http://www.w3.org/2000/svg" xmlns:xlink="http://www.w3.org/1999/xlink" xml:space="preserve" onload="init(evt)">
        <defs>
                <circle id="rim" cx="0" cy="0" r="7"/>
                <circle id="rim2" cx="0" cy="0" r="3.5"/>
                <g id="zoomPlus">
                        <use xlink:href="#rim" fill="#404040">
                                <set attributeName="fill" to="#808080" begin="zoomplus.mouseover" end="zoomplus.mouseout"/>
                        </use>
                        <path d="M-4,0h8M0,-4v8" fill="none" stroke="white" stroke-width="1.5" pointer-events="none"/>
                </g>
                <g id="zoomMin">
                        <use xlink:href="#rim" fill="#404040">
                                <set attributeName="fill" to="#808080" begin="zoomminus.mouseover" end="zoomminus.mouseout"/>
                        </use>
                        <path d="M-4,0h8" fill="none" stroke="white" stroke-width="1.5" pointer-events="none"/>
                </g>
                <g id="dirArrow">
                        <path fill="none" stroke="white" stroke-width="1.5" d="M0,-3.0v7 M-2.5,-0.5L0,-3.0L2.5,-0.5"/>
                </g>
               <g id="resetDef">
                       <use xlink:href="#rim2" fill="#404040">
                               <set attributeName="fill" to="#808080" begin="reset.mouseover" end="reset.mouseout"/>
                       </use>
               </g>
        </defs>

<script type="text/javascript">
var viewWidth = 1256;
var viewHeight = 610;
var sectionId = 'dynsection-3';
</script>
<script xlink:href="svgpan.js"/>
<svg id="graph" class="graph">
<g id="viewport">
<title>Account::ClearCharacter</title>
<polygon fill="white" stroke="white" points="-4,5 -4,-605.523 1253,-605.523 1253,5 -4,5"/>
<!-- Node1 -->
<g id="node1" class="node"><title>Node1</title>
<polygon fill="#bfbfbf" stroke="black" points="0,-395.523 0,-415.523 134,-415.523 134,-395.523 0,-395.523"/>
<text text-anchor="middle" x="67" y="-402.523" font-family="FreeSans.ttf" font-size="10.00">Account::ClearCharacter</text>
</g>
<!-- Node2 -->
<g id="node3" class="node"><title>Node2</title>
<a xlink:href="namespaceHandler.xhtml#a2e4ebf6ed049eb872aa4948d54c4932c" target="_top" xlink:title="Attempt to write a new character to disk after creation was completed.">
<polygon fill="white" stroke="black" points="170.5,-323.523 170.5,-343.523 309.5,-343.523 309.5,-323.523 170.5,-323.523"/>
<text text-anchor="middle" x="240" y="-330.523" font-family="FreeSans.ttf" font-size="10.00">Handler::AttachCharacter</text>
</a>
</g>
<!-- Node1&#45;&gt;Node2 -->
<g id="edge2" class="edge"><title>Node1&#45;&gt;Node2</title>
<path fill="none" stroke="midnightblue" d="M100.528,-391.569C134.382,-377.48 185.838,-356.065 215.871,-343.565"/>
<polygon fill="midnightblue" stroke="midnightblue" points="98.9424,-388.438 91.0549,-395.512 101.632,-394.901 98.9424,-388.438"/>
</g>
<!-- Node6 -->
<g id="node14" class="node"><title>Node6</title>
<a xlink:href="namespaceHandler.xhtml#ad04998a7a6ece2486bc441052a57c2d7" target="_top" xlink:title="Main Character creation menu.">
<polygon fill="white" stroke="black" points="526,-569.523 526,-601.523 666,-601.523 666,-569.523 526,-569.523"/>
<text text-anchor="start" x="534" y="-588.523" font-family="FreeSans.ttf" font-size="10.00">Handler::CharacterCreate</text>
<text text-anchor="middle" x="596" y="-576.523" font-family="FreeSans.ttf" font-size="10.00">MenuMain</text>
</a>
</g>
<!-- Node1&#45;&gt;Node6 -->
<g id="edge82" class="edge"><title>Node1&#45;&gt;Node6</title>
<path fill="none" stroke="midnightblue" d="M102.922,-419.149C177.492,-447.225 354.753,-512.877 506,-560.523 515.59,-563.544 525.813,-566.568 535.801,-569.417"/>
<polygon fill="midnightblue" stroke="midnightblue" points="104.102,-415.853 93.5106,-415.6 101.632,-422.403 104.102,-415.853"/>
</g>
<!-- Node3 -->
<g id="node5" class="node"><title>Node3</title>
<a xlink:href="namespaceHandler.xhtml#a139febc000c9d767a620708148e0c888" target="_top" xlink:title="Dispatches the appropriate menu based on client state.">
<polygon fill="white" stroke="black" points="346.5,-323.523 346.5,-343.523 469.5,-343.523 469.5,-323.523 346.5,-323.523"/>
<text text-anchor="middle" x="408" y="-330.523" font-family="FreeSans.ttf" font-size="10.00">Handler::LoginHandler</text>
</a>
</g>
<!-- Node2&#45;&gt;Node3 -->
<g id="edge4" class="edge"><title>Node2&#45;&gt;Node3</title>
<path fill="none" stroke="midnightblue" d="M319.841,-326.781C328.789,-326.749 337.8,-326.82 346.467,-326.993"/>
<polygon fill="midnightblue" stroke="midnightblue" points="319.76,-323.281 309.788,-326.86 319.815,-330.281 319.76,-323.281"/>
</g>
<!-- Node3&#45;&gt;Node2 -->
<g id="edge10" class="edge"><title>Node3&#45;&gt;Node2</title>
<path fill="none" stroke="midnightblue" d="M336.271,-340.209C327.495,-340.302 318.535,-340.294 309.788,-340.187"/>
<polygon fill="midnightblue" stroke="midnightblue" points="336.521,-343.706 346.467,-340.054 336.415,-336.706 336.521,-343.706"/>
</g>
<!-- Node4 -->
<g id="node7" class="node"><title>Node4</title>
<a xlink:href="namespaceHandler.xhtml#a33a19d69ead678af81fbe96907eceaf0" target="_top" xlink:title="Create a new account object, or load an existing one, with a name and password.">
<polygon fill="white" stroke="black" points="530.5,-531.523 530.5,-551.523 661.5,-551.523 661.5,-531.523 530.5,-531.523"/>
<text text-anchor="middle" x="596" y="-538.523" font-family="FreeSans.ttf" font-size="10.00">Handler::AttachAccount</text>
</a>
</g>
<!-- Node3&#45;&gt;Node4 -->
<g id="edge6" class="edge"><title>Node3&#45;&gt;Node4</title>
<path fill="none" stroke="midnightblue" d="M419.035,-352.608C441.477,-396.921 491.539,-502.524 506,-513.523 518.965,-523.384 535.886,-528.404 551.553,-531.443"/>
<polygon fill="midnightblue" stroke="midnightblue" points="422.127,-350.968 414.444,-343.673 415.901,-354.167 422.127,-350.968"/>
</g>
<!-- Node5 -->
<g id="node11" class="node"><title>Node5</title>
<a xlink:href="namespaceHandler.xhtml#a73ed6064f2698dbffb5f4c247a02b661" target="_top" xlink:title="Send initial account interface menu.">
<polygon fill="white" stroke="black" points="522,-493.523 522,-513.523 670,-513.523 670,-493.523 522,-493.523"/>
<text text-anchor="middle" x="596" y="-500.523" font-family="FreeSans.ttf" font-size="10.00">Handler::AccountMenuMain</text>
</a>
</g>
<!-- Node3&#45;&gt;Node5 -->
<g id="edge12" class="edge"><title>Node3&#45;&gt;Node5</title>
<path fill="none" stroke="midnightblue" d="M417.422,-353.3C431.306,-384.632 460.628,-444.377 506,-475.523 520.482,-485.465 539.136,-490.371 555.702,-493.447"/>
<polygon fill="midnightblue" stroke="midnightblue" points="420.506,-351.616 413.304,-343.845 414.088,-354.411 420.506,-351.616"/>
</g>
<!-- Node3&#45;&gt;Node6 -->
<g id="edge16" class="edge"><title>Node3&#45;&gt;Node6</title>
<path fill="none" stroke="midnightblue" d="M421.006,-352.547C434.022,-376.566 454.311,-418.458 470,-455.523 487.762,-497.487 472.395,-520.747 506,-551.523 515.089,-559.847 526.714,-565.432 538.567,-569.406"/>
<polygon fill="midnightblue" stroke="midnightblue" points="423.999,-350.726 416.072,-343.696 417.884,-354.134 423.999,-350.726"/>
</g>
<!-- Node7 -->
<g id="node17" class="node"><title>Node7</title>
<a xlink:href="namespaceHandler.xhtml#ab5889a65de2794129b375ec39ae923ae" target="_top" xlink:title="Select a new Character name.">
<polygon fill="white" stroke="black" points="511.5,-455.523 511.5,-475.523 680.5,-475.523 680.5,-455.523 511.5,-455.523"/>
<text text-anchor="middle" x="596" y="-462.523" font-family="FreeSans.ttf" font-size="10.00">Handler::CharacterCreateName</text>
</a>
</g>
<!-- Node3&#45;&gt;Node7 -->
<g id="edge20" class="edge"><title>Node3&#45;&gt;Node7</title>
<path fill="none" stroke="midnightblue" d="M422.642,-351.79C439.389,-375.594 469.293,-415.907 506,-437.523 522.788,-447.41 544.015,-452.188 561.637,-455.456"/>
<polygon fill="midnightblue" stroke="midnightblue" points="425.479,-349.74 416.881,-343.549 419.741,-353.75 425.479,-349.74"/>
</g>
<!-- Node8 -->
<g id="node20" class="node"><title>Node8</title>
<a xlink:href="namespaceHandler.xhtml#ae5086bcf5857eb572beedd09158c3065" target="_top" xlink:title="Select a new Character sex.">
<polygon fill="white" stroke="black" points="517,-417.523 517,-437.523 675,-437.523 675,-417.523 517,-417.523"/>
<text text-anchor="middle" x="596" y="-424.523" font-family="FreeSans.ttf" font-size="10.00">Handler::CharacterCreateSex</text>
</a>
</g>
<!-- Node3&#45;&gt;Node8 -->
<g id="edge24" class="edge"><title>Node3&#45;&gt;Node8</title>
<path fill="none" stroke="midnightblue" d="M432.803,-350.085C451.474,-365.334 478.481,-386.881 506,-399.523 526.171,-408.79 550.971,-413.595 569.426,-417.492"/>
<polygon fill="midnightblue" stroke="midnightblue" points="434.797,-347.195 424.839,-343.577 430.368,-352.615 434.797,-347.195"/>
</g>
<!-- Node9 -->
<g id="node23" class="node"><title>Node9</title>
<a xlink:href="namespaceHandler.xhtml#a97a198bfc72285b2aca4f36978db715e" target="_top" xlink:title="Main Character deletion confirmation.">
<polygon fill="white" stroke="black" points="526.5,-367.523 526.5,-399.523 665.5,-399.523 665.5,-367.523 526.5,-367.523"/>
<text text-anchor="start" x="534.5" y="-386.523" font-family="FreeSans.ttf" font-size="10.00">Handler::CharacterDelete</text>
<text text-anchor="middle" x="596" y="-374.523" font-family="FreeSans.ttf" font-size="10.00">Confirm</text>
</a>
</g>
<!-- Node3&#45;&gt;Node9 -->
<g id="edge28" class="edge"><title>Node3&#45;&gt;Node9</title>
<path fill="none" stroke="midnightblue" d="M479.47,-345.957C505.698,-352.517 534.413,-360.476 556.775,-367.485"/>
<polygon fill="midnightblue" stroke="midnightblue" points="480.105,-342.508 469.558,-343.516 478.431,-349.305 480.105,-342.508"/>
</g>
<!-- Node10 -->
<g id="node26" class="node"><title>Node10</title>
<a xlink:href="namespaceHandler.xhtml#afc470ec6e82b7a9a1560588a368734f9" target="_top" xlink:title="Main Character deletion menu.">
<polygon fill="white" stroke="black" points="526.5,-317.523 526.5,-349.523 665.5,-349.523 665.5,-317.523 526.5,-317.523"/>
<text text-anchor="start" x="534.5" y="-336.523" font-family="FreeSans.ttf" font-size="10.00">Handler::CharacterDelete</text>
<text text-anchor="middle" x="596" y="-324.523" font-family="FreeSans.ttf" font-size="10.00">MenuMain</text>
</a>
</g>
<!-- Node3&#45;&gt;Node10 -->
<g id="edge32" class="edge"><title>Node3&#45;&gt;Node10</title>
<path fill="none" stroke="midnightblue" d="M479.972,-326.941C495.235,-326.705 511.319,-326.718 526.488,-326.981"/>
<polygon fill="midnightblue" stroke="midnightblue" points="479.488,-323.449 469.558,-327.144 479.625,-330.448 479.488,-323.449"/>
</g>
<!-- Node11 -->
<g id="node29" class="node"><title>Node11</title>
<a xlink:href="namespaceHandler.xhtml#a02b1b954749641ab646f6548a5360d3b" target="_top" xlink:title="Main Character load menu.">
<polygon fill="white" stroke="black" points="506.5,-279.523 506.5,-299.523 685.5,-299.523 685.5,-279.523 506.5,-279.523"/>
<text text-anchor="middle" x="596" y="-286.523" font-family="FreeSans.ttf" font-size="10.00">Handler::CharacterLoadMenuMain</text>
</a>
</g>
<!-- Node3&#45;&gt;Node11 -->
<g id="edge36" class="edge"><title>Node3&#45;&gt;Node11</title>
<path fill="none" stroke="midnightblue" d="M432.027,-319.841C451.824,-312.872 480.662,-305.427 506,-299.523 506.156,-299.487 506.311,-299.451 506.467,-299.415"/>
<polygon fill="midnightblue" stroke="midnightblue" points="430.672,-316.611 422.564,-323.431 433.156,-323.156 430.672,-316.611"/>
</g>
<!-- Node12 -->
<g id="node32" class="node"><title>Node12</title>
<a xlink:href="namespaceHandler.xhtml#a00bc24564bfd267e0329643c569da1e4" target="_top" xlink:title="Select a new account name.">
<polygon fill="white" stroke="black" points="527.5,-241.523 527.5,-261.523 664.5,-261.523 664.5,-241.523 527.5,-241.523"/>
<text text-anchor="middle" x="596" y="-248.523" font-family="FreeSans.ttf" font-size="10.00">Handler::GetNewAccount</text>
</a>
</g>
<!-- Node3&#45;&gt;Node12 -->
<g id="edge40" class="edge"><title>Node3&#45;&gt;Node12</title>
<path fill="none" stroke="midnightblue" d="M421.879,-316.049C440.088,-299.036 473.55,-274.85 506,-261.523 512.795,-258.732 520.054,-256.331 527.391,-254.322"/>
<polygon fill="midnightblue" stroke="midnightblue" points="419.233,-313.746 414.645,-323.296 424.187,-318.691 419.233,-313.746"/>
</g>
<!-- Node13 -->
<g id="node35" class="node"><title>Node13</title>
<a xlink:href="namespaceHandler.xhtml#a744adadcf407cdb3a9c33365afd5a7c2" target="_top" xlink:title="Create a new account.">
<polygon fill="white" stroke="black" points="525,-203.523 525,-223.523 667,-223.523 667,-203.523 525,-203.523"/>
<text text-anchor="middle" x="596" y="-210.523" font-family="FreeSans.ttf" font-size="10.00">Handler::GetNewPassword</text>
</a>
</g>
<!-- Node3&#45;&gt;Node13 -->
<g id="edge44" class="edge"><title>Node3&#45;&gt;Node13</title>
<path fill="none" stroke="midnightblue" d="M416.998,-314.462C432.431,-288.947 466.167,-245.505 506,-223.523 511.872,-220.283 518.24,-217.594 524.783,-215.403"/>
<polygon fill="midnightblue" stroke="midnightblue" points="413.886,-312.855 412.004,-323.281 419.977,-316.304 413.886,-312.855"/>
</g>
<!-- Node14 -->
<g id="node38" class="node"><title>Node14</title>
<a xlink:href="namespaceHandler.xhtml#adfe13cc9748392348f3941656a1323b6" target="_top" xlink:title="Compare a received password against an existing account.">
<polygon fill="white" stroke="black" points="527.5,-165.523 527.5,-185.523 664.5,-185.523 664.5,-165.523 527.5,-165.523"/>
<text text-anchor="middle" x="596" y="-172.523" font-family="FreeSans.ttf" font-size="10.00">Handler::GetOldPassword</text>
</a>
</g>
<!-- Node3&#45;&gt;Node14 -->
<g id="edge48" class="edge"><title>Node3&#45;&gt;Node14</title>
<path fill="none" stroke="midnightblue" d="M413.868,-313.932C426.253,-281.203 457.937,-217.176 506,-185.523 512.535,-181.219 519.866,-177.867 527.448,-175.323"/>
<polygon fill="midnightblue" stroke="midnightblue" points="410.562,-312.784 410.529,-323.378 417.162,-315.117 410.562,-312.784"/>
</g>
<!-- Node15 -->
<g id="node41" class="node"><title>Node15</title>
<a xlink:href="namespaceHandler.xhtml#ae70e4e50054c729c14493eafefe01b5c" target="_top" xlink:title="Load a character from the account to enter into the game with.">
<polygon fill="white" stroke="black" points="530.5,-127.523 530.5,-147.523 661.5,-147.523 661.5,-127.523 530.5,-127.523"/>
<text text-anchor="middle" x="596" y="-134.523" font-family="FreeSans.ttf" font-size="10.00">Handler::LoadCharacter</text>
</a>
</g>
<!-- Node3&#45;&gt;Node15 -->
<g id="edge52" class="edge"><title>Node3&#45;&gt;Node15</title>
<path fill="none" stroke="midnightblue" d="M411.813,-313.496C421.286,-274.388 449.323,-189.423 506,-147.523 513.191,-142.207 521.543,-138.308 530.203,-135.553"/>
<polygon fill="midnightblue" stroke="midnightblue" points="408.355,-312.921 409.582,-323.444 415.185,-314.452 408.355,-312.921"/>
</g>
<!-- Node16 -->
<g id="node44" class="node"><title>Node16</title>
<a xlink:href="namespaceHandler.xhtml#a44b41bf69fdc6e615a029bea34910191" target="_top" xlink:title="Send initial greeting and request for account name.">
<polygon fill="white" stroke="black" points="536.5,-89.5232 536.5,-109.523 655.5,-109.523 655.5,-89.5232 536.5,-89.5232"/>
<text text-anchor="middle" x="596" y="-96.5232" font-family="FreeSans.ttf" font-size="10.00">Handler::LoginScreen</text>
</a>
</g>
<!-- Node3&#45;&gt;Node16 -->
<g id="edge56" class="edge"><title>Node3&#45;&gt;Node16</title>
<path fill="none" stroke="midnightblue" d="M410.339,-312.981C417.09,-267.989 440.489,-162.023 506,-109.523 514.723,-102.533 525.405,-97.9445 536.322,-95.1515"/>
<polygon fill="midnightblue" stroke="midnightblue" points="406.851,-312.655 408.966,-323.036 413.787,-313.602 406.851,-312.655"/>
</g>
<!-- Node17 -->
<g id="node47" class="node"><title>Node17</title>
<a xlink:href="classSocketClient.xhtml#a8399ef20292e9f3ec83b5c4bec2e105b" target="_top" xlink:title="Build a SocketClient for a new client connection and set all attributes.">
<polygon fill="white" stroke="black" points="544.5,-51.5232 544.5,-71.5232 647.5,-71.5232 647.5,-51.5232 544.5,-51.5232"/>
<text text-anchor="middle" x="596" y="-58.5232" font-family="FreeSans.ttf" font-size="10.00">SocketClient::New</text>
</a>
</g>
<!-- Node3&#45;&gt;Node17 -->
<g id="edge60" class="edge"><title>Node3&#45;&gt;Node17</title>
<path fill="none" stroke="midnightblue" d="M409.513,-313.265C414.262,-264.949 433.244,-142.385 506,-80.5232 516.706,-71.4201 530.687,-66.3303 544.425,-63.5703"/>
<polygon fill="midnightblue" stroke="midnightblue" points="406.012,-313.116 408.625,-323.384 412.986,-313.728 406.012,-313.116"/>
</g>
<!-- Node24 -->
<g id="node62" class="node"><title>Node24</title>
<a xlink:href="classSocketClient.xhtml#ad4f63c7d906310dc56a1217136047d7f" target="_top" xlink:title="Interpret the command at the front of the queue.">
<polygon fill="white" stroke="black" points="722,-13.5232 722,-33.5232 892,-33.5232 892,-13.5232 722,-13.5232"/>
<text text-anchor="middle" x="807" y="-20.5232" font-family="FreeSans.ttf" font-size="10.00">SocketClient::ProcessCommand</text>
</a>
</g>
<!-- Node3&#45;&gt;Node24 -->
<g id="edge76" class="edge"><title>Node3&#45;&gt;Node24</title>
<path fill="none" stroke="midnightblue" d="M411.82,-313.207C423.604,-252.874 461.301,-76.8216 506,-42.5232 582.85,16.4461 705.82,0.108701 768.118,-13.4893"/>
<polygon fill="midnightblue" stroke="midnightblue" points="408.319,-312.881 409.87,-323.361 415.194,-314.201 408.319,-312.881"/>
</g>
<!-- Node4&#45;&gt;Node3 -->
<g id="edge8" class="edge"><title>Node4&#45;&gt;Node3</title>
<path fill="none" stroke="midnightblue" d="M520.533,-540.034C515.363,-537.721 510.449,-534.907 506,-531.523 489.489,-518.965 426.57,-383.083 411.336,-343.764"/>
<polygon fill="midnightblue" stroke="midnightblue" points="519.478,-543.377 530.069,-543.672 521.974,-536.837 519.478,-543.377"/>
</g>
<!-- Node5&#45;&gt;Node3 -->
<g id="edge14" class="edge"><title>Node5&#45;&gt;Node3</title>
<path fill="none" stroke="midnightblue" d="M512.645,-497.591C510.353,-496.34 508.131,-494.986 506,-493.523 450.088,-455.142 418.549,-373.332 410.237,-343.815"/>
<polygon fill="midnightblue" stroke="midnightblue" points="511.255,-500.805 521.792,-501.914 514.246,-494.476 511.255,-500.805"/>
</g>
<!-- Node6&#45;&gt;Node3 -->
<g id="edge18" class="edge"><title>Node6&#45;&gt;Node3</title>
<path fill="none" stroke="midnightblue" d="M516.544,-577.387C512.778,-575.092 509.229,-572.48 506,-569.523 472.395,-538.747 487.762,-515.487 470,-473.523 449.305,-424.632 420.606,-367.342 411.155,-343.672"/>
<polygon fill="midnightblue" stroke="midnightblue" points="515.194,-580.632 525.674,-582.183 518.449,-574.434 515.194,-580.632"/>
</g>
<!-- Node7&#45;&gt;Node3 -->
<g id="edge22" class="edge"><title>Node7&#45;&gt;Node3</title>
<path fill="none" stroke="midnightblue" d="M502.312,-452.814C454.556,-420.996 421.863,-367.031 411.486,-343.803"/>
<polygon fill="midnightblue" stroke="midnightblue" points="500.741,-455.959 511.075,-458.294 504.452,-450.024 500.741,-455.959"/>
</g>
<!-- Node8&#45;&gt;Node3 -->
<g id="edge26" class="edge"><title>Node8&#45;&gt;Node3</title>
<path fill="none" stroke="midnightblue" d="M507.312,-418.117C506.873,-417.921 506.435,-417.723 506,-417.523 466.284,-399.278 427.635,-362.485 413.572,-343.737"/>
<polygon fill="midnightblue" stroke="midnightblue" points="506.222,-421.451 516.806,-421.928 508.829,-414.954 506.222,-421.451"/>
</g>
<!-- Node9&#45;&gt;Node3 -->
<g id="edge30" class="edge"><title>Node9&#45;&gt;Node3</title>
<path fill="none" stroke="midnightblue" d="M516.615,-369.087C484.719,-360.925 450.522,-351.093 429.201,-343.625"/>
<polygon fill="midnightblue" stroke="midnightblue" points="515.87,-372.509 526.422,-371.562 517.583,-365.722 515.87,-372.509"/>
</g>
<!-- Node10&#45;&gt;Node3 -->
<g id="edge34" class="edge"><title>Node10&#45;&gt;Node3</title>
<path fill="none" stroke="midnightblue" d="M516.309,-340.203C500.671,-340.357 484.492,-340.257 469.558,-339.902"/>
<polygon fill="midnightblue" stroke="midnightblue" points="516.537,-343.701 526.488,-340.065 516.442,-336.701 516.537,-343.701"/>
</g>
<!-- Node11&#45;&gt;Node3 -->
<g id="edge38" class="edge"><title>Node11&#45;&gt;Node3</title>
<path fill="none" stroke="midnightblue" d="M569.258,-302.507C551.322,-307.521 527.192,-312.586 506,-317.523 494.201,-320.273 481.642,-323.356 469.591,-326.217"/>
<polygon fill="midnightblue" stroke="midnightblue" points="570.469,-305.798 579.034,-299.562 568.449,-299.095 570.469,-305.798"/>
</g>
<!-- Node12&#45;&gt;Node3 -->
<g id="edge42" class="edge"><title>Node12&#45;&gt;Node3</title>
<path fill="none" stroke="midnightblue" d="M561.829,-263.814C544.637,-267.607 523.738,-272.238 506,-279.523 477.748,-291.126 448.729,-310.96 429.677,-323.431"/>
<polygon fill="midnightblue" stroke="midnightblue" points="562.996,-267.14 571.993,-261.545 561.471,-260.308 562.996,-267.14"/>
</g>
<!-- Node13&#45;&gt;Node3 -->
<g id="edge46" class="edge"><title>Node13&#45;&gt;Node3</title>
<path fill="none" stroke="midnightblue" d="M553.952,-225.557C538.182,-228.842 520.566,-233.485 506,-241.523 467.71,-262.654 435.053,-303.614 418.872,-323.266"/>
<polygon fill="midnightblue" stroke="midnightblue" points="554.867,-228.944 563.999,-223.571 553.51,-222.076 554.867,-228.944"/>
</g>
<!-- Node14&#45;&gt;Node3 -->
<g id="edge50" class="edge"><title>Node14&#45;&gt;Node3</title>
<path fill="none" stroke="midnightblue" d="M547.499,-187.586C533.257,-190.743 518.235,-195.466 506,-203.523 458.407,-234.866 426.875,-297.954 414.237,-323.25"/>
<polygon fill="midnightblue" stroke="midnightblue" points="548.567,-190.942 557.681,-185.539 547.187,-184.079 548.567,-190.942"/>
</g>
<!-- Node15&#45;&gt;Node3 -->
<g id="edge54" class="edge"><title>Node15&#45;&gt;Node3</title>
<path fill="none" stroke="midnightblue" d="M543.165,-149.649C530.08,-152.8 516.745,-157.58 506,-165.523 448.946,-207.702 420.913,-293.521 411.626,-323.428"/>
<polygon fill="midnightblue" stroke="midnightblue" points="544.027,-153.043 553.075,-147.531 542.564,-146.198 544.027,-153.043"/>
</g>
<!-- Node16&#45;&gt;Node3 -->
<g id="edge58" class="edge"><title>Node16&#45;&gt;Node3</title>
<path fill="none" stroke="midnightblue" d="M539.397,-111.931C527.425,-115.105 515.541,-119.877 506,-127.523 439.418,-180.881 416.337,-289.466 410.022,-323.482"/>
<polygon fill="midnightblue" stroke="midnightblue" points="540.47,-115.276 549.425,-109.613 538.894,-108.455 540.47,-115.276"/>
</g>
<!-- Node18 -->
<g id="node49" class="node"><title>Node18</title>
<a xlink:href="namespaceServer.xhtml#a16ea0639731dee10e1a253375b508a02" target="_top" xlink:title="Recovers the server state and re&#45;connects client sockets after a reboot.">
<polygon fill="white" stroke="black" points="742,-89.5232 742,-109.523 872,-109.523 872,-89.5232 742,-89.5232"/>
<text text-anchor="middle" x="807" y="-96.5232" font-family="FreeSans.ttf" font-size="10.00">Server::RebootRecovery</text>
</a>
</g>
<!-- Node17&#45;&gt;Node18 -->
<g id="edge62" class="edge"><title>Node17&#45;&gt;Node18</title>
<path fill="none" stroke="midnightblue" d="M657.808,-72.6545C687.328,-77.971 722.393,-84.2859 751.108,-89.4574"/>
<polygon fill="midnightblue" stroke="midnightblue" points="658.078,-69.147 647.616,-70.8191 656.838,-76.0362 658.078,-69.147"/>
</g>
<!-- Node21 -->
<g id="node55" class="node"><title>Node21</title>
<a xlink:href="classSocketServer.xhtml#afdbc60c3bc840875d2214b59c6213f63" target="_top" xlink:title="Accept a new connection on the listening port.">
<polygon fill="white" stroke="black" points="747,-51.5232 747,-71.5232 867,-71.5232 867,-51.5232 747,-51.5232"/>
<text text-anchor="middle" x="807" y="-58.5232" font-family="FreeSans.ttf" font-size="10.00">SocketServer::Accept</text>
</a>
</g>
<!-- Node17&#45;&gt;Node21 -->
<g id="edge68" class="edge"><title>Node17&#45;&gt;Node21</title>
<path fill="none" stroke="midnightblue" d="M657.731,-61.5232C685.855,-61.5232 719.024,-61.5232 746.944,-61.5232"/>
<polygon fill="midnightblue" stroke="midnightblue" points="657.616,-58.0233 647.616,-61.5232 657.616,-65.0233 657.616,-58.0233"/>
</g>
<!-- Node19 -->
<g id="node51" class="node"><title>Node19</title>
<a xlink:href="namespaceServer.xhtml#a19a1e493e1fb50a56d9c77332543d565" target="_top" xlink:title="Start the NAMS Server. Responsible for calling all critical boot&#45;time functions such as SocketServer ...">
<polygon fill="white" stroke="black" points="1080,-89.5232 1080,-109.523 1170,-109.523 1170,-89.5232 1080,-89.5232"/>
<text text-anchor="middle" x="1125" y="-96.5232" font-family="FreeSans.ttf" font-size="10.00">Server::Startup</text>
</a>
</g>
<!-- Node18&#45;&gt;Node19 -->
<g id="edge64" class="edge"><title>Node18&#45;&gt;Node19</title>
<path fill="none" stroke="midnightblue" d="M882.16,-99.5232C943.639,-99.5232 1028.54,-99.5232 1079.95,-99.5232"/>
<polygon fill="midnightblue" stroke="midnightblue" points="882.119,-96.0233 872.119,-99.5232 882.119,-103.023 882.119,-96.0233"/>
</g>
<!-- Node20 -->
<g id="node53" class="node"><title>Node20</title>
<a xlink:href="main_8cpp.xhtml#ad53223b8779f25caeddb70a3b9172967" target="_top" xlink:title="The default function required to execute the server.">
<polygon fill="white" stroke="black" points="1206.5,-70.5232 1206.5,-90.5232 1247.5,-90.5232 1247.5,-70.5232 1206.5,-70.5232"/>
<text text-anchor="middle" x="1227" y="-77.5232" font-family="FreeSans.ttf" font-size="10.00">main</text>
</a>
</g>
<!-- Node19&#45;&gt;Node20 -->
<g id="edge66" class="edge"><title>Node19&#45;&gt;Node20</title>
<path fill="none" stroke="midnightblue" d="M1179.9,-89.296C1189.36,-87.5338 1198.64,-85.8052 1206.43,-84.3546"/>
<polygon fill="midnightblue" stroke="midnightblue" points="1179.23,-85.8621 1170.04,-91.1343 1180.51,-92.7437 1179.23,-85.8621"/>
</g>
<!-- Node22 -->
<g id="node57" class="node"><title>Node22</title>
<a xlink:href="namespaceServer.xhtml#a39dbe16fdc8c5f6fbd678c6540fbcd6c" target="_top" xlink:title="Poll all SocketClient objects that are communicating with the associated SocketServer object...">
<polygon fill="white" stroke="black" points="931.5,-51.5232 931.5,-71.5232 1040.5,-71.5232 1040.5,-51.5232 931.5,-51.5232"/>
<text text-anchor="middle" x="986" y="-58.5232" font-family="FreeSans.ttf" font-size="10.00">Server::PollSockets</text>
</a>
</g>
<!-- Node21&#45;&gt;Node22 -->
<g id="edge70" class="edge"><title>Node21&#45;&gt;Node22</title>
<path fill="none" stroke="midnightblue" d="M877.268,-61.5232C895.284,-61.5232 914.391,-61.5232 931.478,-61.5232"/>
<polygon fill="midnightblue" stroke="midnightblue" points="877.102,-58.0233 867.102,-61.5232 877.102,-65.0233 877.102,-58.0233"/>
</g>
<!-- Node23 -->
<g id="node59" class="node"><title>Node23</title>
<a xlink:href="namespaceServer.xhtml#a50b81aa91d8fdaee6f52c5c5ec987990" target="_top" xlink:title="The core update loop of NAMS. This loop spawns all other subsystem update routines and then sleeps fo...">
<polygon fill="white" stroke="black" points="1080.5,-51.5232 1080.5,-71.5232 1169.5,-71.5232 1169.5,-51.5232 1080.5,-51.5232"/>
<text text-anchor="middle" x="1125" y="-58.5232" font-family="FreeSans.ttf" font-size="10.00">Server::Update</text>
</a>
</g>
<!-- Node22&#45;&gt;Node23 -->
<g id="edge72" class="edge"><title>Node22&#45;&gt;Node23</title>
<path fill="none" stroke="midnightblue" d="M1050.57,-61.5232C1060.69,-61.5232 1070.94,-61.5232 1080.47,-61.5232"/>
<polygon fill="midnightblue" stroke="midnightblue" points="1050.54,-58.0233 1040.54,-61.5232 1050.54,-65.0233 1050.54,-58.0233"/>
</g>
<!-- Node23&#45;&gt;Node20 -->
<g id="edge74" class="edge"><title>Node23&#45;&gt;Node20</title>
<path fill="none" stroke="midnightblue" d="M1179.64,-71.7016C1189.14,-73.4708 1198.47,-75.2084 1206.3,-76.6674"/>
<polygon fill="midnightblue" stroke="midnightblue" points="1180.21,-68.2474 1169.74,-69.8569 1178.93,-75.1291 1180.21,-68.2474"/>
</g>
<!-- Node25 -->
<g id="node64" class="node"><title>Node25</title>
<a xlink:href="namespaceServer.xhtml#a2b4cec469bb99c2a45e49de5ba74d1ae" target="_top" xlink:title="Processes input from all active SocketClient objects.">
<polygon fill="white" stroke="black" points="928,-13.5232 928,-33.5232 1044,-33.5232 1044,-13.5232 928,-13.5232"/>
<text text-anchor="middle" x="986" y="-20.5232" font-family="FreeSans.ttf" font-size="10.00">Server::ProcessInput</text>
</a>
</g>
<!-- Node24&#45;&gt;Node25 -->
<g id="edge78" class="edge"><title>Node24&#45;&gt;Node25</title>
<path fill="none" stroke="midnightblue" d="M902.249,-23.5232C910.93,-23.5232 919.54,-23.5232 927.748,-23.5232"/>
<polygon fill="midnightblue" stroke="midnightblue" points="902.044,-20.0233 892.044,-23.5232 902.044,-27.0233 902.044,-20.0233"/>
</g>
<!-- Node25&#45;&gt;Node23 -->
<g id="edge80" class="edge"><title>Node25&#45;&gt;Node23</title>
<path fill="none" stroke="midnightblue" d="M1032.62,-36.268C1050.63,-41.1926 1070.96,-46.7484 1087.94,-51.3926"/>
<polygon fill="midnightblue" stroke="midnightblue" points="1033.45,-32.8678 1022.88,-33.6068 1031.61,-39.62 1033.45,-32.8678"/>
</g>
</g>
</svg>
        <g id="navigator" transform="translate(0 0)" fill="#404254">
                <rect fill="#f2f5e9" fill-opacity="0.5" stroke="#606060" stroke-width=".5" x="0" y="0" width="60" height="60"/>
                <use id="zoomplus" xlink:href="#zoomPlus" x="17" y="9" onmousedown="handleZoom(evt,'in')"/>
                <use id="zoomminus" xlink:href="#zoomMin" x="42" y="9" onmousedown="handleZoom(evt,'out')"/>
                <use id="reset" xlink:href="#resetDef" x="30" y="36" onmousedown="handleReset()"/>
                <g id="arrowUp" xlink:href="#dirArrow" transform="translate(30 24)" onmousedown="handlePan(0,-1)">
                  <use xlink:href="#rim" fill="#404040">
                        <set attributeName="fill" to="#808080" begin="arrowUp.mouseover" end="arrowUp.mouseout"/>
                  </use>
                  <path fill="none" stroke="white" stroke-width="1.5" d="M0,-3.0v7 M-2.5,-0.5L0,-3.0L2.5,-0.5"/>
                </g>
                <g id="arrowRight" xlink:href="#dirArrow" transform="rotate(90) translate(36 -43)" onmousedown="handlePan(1,0)">
                  <use xlink:href="#rim" fill="#404040">
                        <set attributeName="fill" to="#808080" begin="arrowRight.mouseover" end="arrowRight.mouseout"/>
                  </use>
                  <path fill="none" stroke="white" stroke-width="1.5" d="M0,-3.0v7 M-2.5,-0.5L0,-3.0L2.5,-0.5"/>
                </g>
                <g id="arrowDown" xlink:href="#dirArrow" transform="rotate(180) translate(-30 -48)" onmousedown="handlePan(0,1)">
                  <use xlink:href="#rim" fill="#404040">
                        <set attributeName="fill" to="#808080" begin="arrowDown.mouseover" end="arrowDown.mouseout"/>
                  </use>
                  <path fill="none" stroke="white" stroke-width="1.5" d="M0,-3.0v7 M-2.5,-0.5L0,-3.0L2.5,-0.5"/>
                </g>
                <g id="arrowLeft" xlink:href="#dirArrow" transform="rotate(270) translate(-36 17)" onmousedown="handlePan(-1,0)">
                  <use xlink:href="#rim" fill="#404040">
                        <set attributeName="fill" to="#808080" begin="arrowLeft.mouseover" end="arrowLeft.mouseout"/>
                  </use>
                  <path fill="none" stroke="white" stroke-width="1.5" d="M0,-3.0v7 M-2.5,-0.5L0,-3.0L2.5,-0.5"/>
                </g>
        </g>
        <svg viewBox="0 0 15 15" width="100%" height="30px" preserveAspectRatio="xMaxYMin meet">
         <g id="arrow_out" transform="scale(0.3 0.3)">
          <a xlink:href="classAccount_a9d26a3cae2d36c829a42cab3d5c9fe05_icgraph_org.svg" target="_base">
           <rect id="button" ry="5" rx="5" y="6" x="6" height="38" width="38"
                fill="#f2f5e9" fill-opacity="0.5" stroke="#606060" stroke-width="1.0"/>
           <path id="arrow"
             d="M 11.500037,31.436501 C 11.940474,20.09759 22.043105,11.32322 32.158766,21.979434 L 37.068811,17.246167 C 37.068811,17.246167 37.088388,32 37.088388,32 L 22.160133,31.978069 C 22.160133,31.978069 26.997745,27.140456 26.997745,27.140456 C 18.528582,18.264221 13.291696,25.230495 11.500037,31.436501 z"
             style="fill:#404040;"/>
          </a>
         </g>
        </svg>
</svg>
