<?xml version="1.0" encoding="UTF-8" standalone="no"?>
<!DOCTYPE svg PUBLIC "-//W3C//DTD SVG 1.1//EN"
 "http://www.w3.org/Graphics/SVG/1.1/DTD/svg11.dtd">
<!-- Generated by graphviz version 2.26.3 (20100126.1600)
 -->
<!-- Title: G Pages: 1 -->
<svg width="384pt" height="268pt"
 viewBox="0.00 0.00 384.00 268.00" xmlns="http://www.w3.org/2000/svg" xmlns:xlink="http://www.w3.org/1999/xlink">
<g id="graph1" class="graph" transform="scale(1 1) rotate(0) translate(4 264)">
<title>G</title>
<polygon fill="white" stroke="white" points="-4,5 -4,-264 381,-264 381,5 -4,5"/>
<!-- Node1 -->
<g id="node1" class="node"><title>Node1</title>
<polygon fill="#bfbfbf" stroke="black" points="0,-119.5 0,-140.5 110,-140.5 110,-119.5 0,-119.5"/>
<text text-anchor="middle" x="55" y="-127.5" font-family="FreeSans.ttf" font-size="10.00">Character::Serialize</text>
</g>
<!-- Node2 -->
<g id="node3" class="node"><title>Node2</title>
<a xlink:href="namespaceUtils.xhtml#a3e236b07fd628bcaf2e7c5854dd2a281" target="_top" xlink:title="Returns a string consisting of file.ext.">
<polygon fill="white" stroke="black" points="167,-238.5 167,-259.5 241,-259.5 241,-238.5 167,-238.5"/>
<text text-anchor="middle" x="204" y="-246.5" font-family="FreeSans.ttf" font-size="10.00">Utils::FileExt</text>
</a>
</g>
<!-- Node1&#45;&gt;Node2 -->
<g id="edge2" class="edge"><title>Node1&#45;&gt;Node2</title>
<path fill="none" stroke="midnightblue" d="M61.9725,-140.551C75.7255,-160.582 108.306,-204.317 146,-229 149.559,-231.33 153.419,-233.42 157.399,-235.288"/>
<polygon fill="midnightblue" stroke="midnightblue" points="156.247,-238.601 166.821,-239.253 158.961,-232.148 156.247,-238.601"/>
</g>
<!-- Node3 -->
<g id="node5" class="node"><title>Node3</title>
<a xlink:href="classThing.xhtml#aea5dad4f4241b325cdf64b232e84e602" target="_top" xlink:title="Returns the id associated with this Thing.">
<polygon fill="white" stroke="black" points="173,-198.5 173,-219.5 235,-219.5 235,-198.5 173,-198.5"/>
<text text-anchor="middle" x="204" y="-206.5" font-family="FreeSans.ttf" font-size="10.00">Thing::gId</text>
</a>
</g>
<!-- Node1&#45;&gt;Node3 -->
<g id="edge4" class="edge"><title>Node1&#45;&gt;Node3</title>
<path fill="none" stroke="midnightblue" d="M68.8632,-140.527C86.1791,-153.305 117.06,-174.89 146,-189 151.397,-191.631 157.23,-194.074 163.045,-196.283"/>
<polygon fill="midnightblue" stroke="midnightblue" points="162.14,-199.677 172.734,-199.772 164.511,-193.091 162.14,-199.677"/>
</g>
<!-- Node4 -->
<g id="node7" class="node"><title>Node4</title>
<a xlink:href="namespaceUtils.xhtml#a67fd451200ee8a3cc646aeba5cb9513b" target="_top" xlink:title="Begins a write to a temporary file that is intended to replace a live file.">
<polygon fill="white" stroke="black" points="162,-158.5 162,-179.5 246,-179.5 246,-158.5 162,-158.5"/>
<text text-anchor="middle" x="204" y="-166.5" font-family="FreeSans.ttf" font-size="10.00">Utils::FileOpen</text>
</a>
</g>
<!-- Node1&#45;&gt;Node4 -->
<g id="edge6" class="edge"><title>Node1&#45;&gt;Node4</title>
<path fill="none" stroke="midnightblue" d="M95.3215,-140.554C113.376,-145.28 134.85,-150.9 153.922,-155.892"/>
<polygon fill="midnightblue" stroke="midnightblue" points="153.086,-159.291 163.646,-158.438 154.858,-152.519 153.086,-159.291"/>
</g>
<!-- Node5 -->
<g id="node9" class="node"><title>Node5</title>
<a xlink:href="namespaceUtils.xhtml#ad21617b756ef242fbc66e63dec3e4e4d" target="_top" xlink:title="Returns a string consisting of directory/file.ext.">
<polygon fill="white" stroke="black" points="298,-138.5 298,-159.5 376,-159.5 376,-138.5 298,-138.5"/>
<text text-anchor="middle" x="337" y="-146.5" font-family="FreeSans.ttf" font-size="10.00">Utils::DirPath</text>
</a>
</g>
<!-- Node1&#45;&gt;Node5 -->
<g id="edge14" class="edge"><title>Node1&#45;&gt;Node5</title>
<path fill="none" stroke="midnightblue" d="M110.042,-133.708C161.669,-137.187 238.158,-142.34 287.797,-145.685"/>
<polygon fill="midnightblue" stroke="midnightblue" points="287.751,-149.19 297.964,-146.37 288.222,-142.205 287.751,-149.19"/>
</g>
<!-- Node6 -->
<g id="node11" class="node"><title>Node6</title>
<a xlink:href="classThing.xhtml#a3c3c40c996ff562baa335f2ded022578" target="_top" xlink:title="Returns the name associated with this Thing.">
<polygon fill="white" stroke="black" points="162.5,-80.5 162.5,-101.5 245.5,-101.5 245.5,-80.5 162.5,-80.5"/>
<text text-anchor="middle" x="204" y="-88.5" font-family="FreeSans.ttf" font-size="10.00">Thing::gName</text>
</a>
</g>
<!-- Node1&#45;&gt;Node6 -->
<g id="edge10" class="edge"><title>Node1&#45;&gt;Node6</title>
<path fill="none" stroke="midnightblue" d="M95.3215,-119.446C113.376,-114.72 134.85,-109.1 153.922,-104.108"/>
<polygon fill="midnightblue" stroke="midnightblue" points="154.858,-107.481 163.646,-101.562 153.086,-100.709 154.858,-107.481"/>
</g>
<!-- Node7 -->
<g id="node13" class="node"><title>Node7</title>
<a xlink:href="namespaceUtils.xhtml#a7008f8effca71806721305d1834bde1e" target="_top" xlink:title="Completes a read from a file.">
<polygon fill="white" stroke="black" points="161.5,-40.5 161.5,-61.5 246.5,-61.5 246.5,-40.5 161.5,-40.5"/>
<text text-anchor="middle" x="204" y="-48.5" font-family="FreeSans.ttf" font-size="10.00">Utils::FileClose</text>
</a>
</g>
<!-- Node1&#45;&gt;Node7 -->
<g id="edge12" class="edge"><title>Node1&#45;&gt;Node7</title>
<path fill="none" stroke="midnightblue" d="M68.8632,-119.473C86.1791,-106.695 117.06,-85.1099 146,-71 150.263,-68.9214 154.799,-66.9607 159.382,-65.1399"/>
<polygon fill="midnightblue" stroke="midnightblue" points="160.657,-68.4 168.786,-61.6058 158.194,-61.8474 160.657,-68.4"/>
</g>
<!-- Node8 -->
<g id="node16" class="node"><title>Node8</title>
<a xlink:href="classCharacter.xhtml#a9dce3d7ce7ac17f02397d198e47707ef" target="_top" xlink:title="Returns the Account associated with this Character, if any.">
<polygon fill="white" stroke="black" points="146.5,-0.5 146.5,-21.5 261.5,-21.5 261.5,-0.5 146.5,-0.5"/>
<text text-anchor="middle" x="204" y="-8.5" font-family="FreeSans.ttf" font-size="10.00">Character::gAccount</text>
</a>
</g>
<!-- Node1&#45;&gt;Node8 -->
<g id="edge16" class="edge"><title>Node1&#45;&gt;Node8</title>
<path fill="none" stroke="midnightblue" d="M61.9725,-119.449C75.7255,-99.4179 108.306,-55.6834 146,-31 148.941,-29.0744 152.087,-27.3129 155.337,-25.7052"/>
<polygon fill="midnightblue" stroke="midnightblue" points="156.955,-28.8169 164.686,-21.5731 154.125,-22.4144 156.955,-28.8169"/>
</g>
<!-- Node4&#45;&gt;Node5 -->
<g id="edge8" class="edge"><title>Node4&#45;&gt;Node5</title>
<path fill="none" stroke="midnightblue" d="M246.082,-162.672C259.303,-160.684 274.018,-158.471 287.693,-156.415"/>
<polygon fill="midnightblue" stroke="midnightblue" points="288.536,-159.827 297.905,-154.879 287.495,-152.905 288.536,-159.827"/>
</g>
</g>
</svg>
