<?xml version="1.0" encoding="UTF-8" standalone="no"?>
<!DOCTYPE svg PUBLIC "-//W3C//DTD SVG 1.1//EN"
 "http://www.w3.org/Graphics/SVG/1.1/DTD/svg11.dtd">
<!-- Generated by graphviz version 2.26.3 (20100126.1600)
 -->
<!-- Title: G Pages: 1 -->
<!--zoomable 570 -->
<svg id="main" version="1.1" xmlns="http://www.w3.org/2000/svg" xmlns:xlink="http://www.w3.org/1999/xlink" xml:space="preserve" onload="init(evt)">
        <defs>
                <circle id="rim" cx="0" cy="0" r="7"/>
                <circle id="rim2" cx="0" cy="0" r="3.5"/>
                <g id="zoomPlus">
                        <use xlink:href="#rim" fill="#404040">
                                <set attributeName="fill" to="#808080" begin="zoomplus.mouseover" end="zoomplus.mouseout"/>
                        </use>
                        <path d="M-4,0h8M0,-4v8" fill="none" stroke="white" stroke-width="1.5" pointer-events="none"/>
                </g>
                <g id="zoomMin">
                        <use xlink:href="#rim" fill="#404040">
                                <set attributeName="fill" to="#808080" begin="zoomminus.mouseover" end="zoomminus.mouseout"/>
                        </use>
                        <path d="M-4,0h8" fill="none" stroke="white" stroke-width="1.5" pointer-events="none"/>
                </g>
                <g id="dirArrow">
                        <path fill="none" stroke="white" stroke-width="1.5" d="M0,-3.0v7 M-2.5,-0.5L0,-3.0L2.5,-0.5"/>
                </g>
               <g id="resetDef">
                       <use xlink:href="#rim2" fill="#404040">
                               <set attributeName="fill" to="#808080" begin="reset.mouseover" end="reset.mouseout"/>
                       </use>
               </g>
        </defs>

<script type="text/javascript">
var viewWidth = 1224;
var viewHeight = 570;
var sectionId = 'dynsection-7';
</script>
<script xlink:href="svgpan.js"/>
<svg id="graph" class="graph">
<g id="viewport">
<title>G</title>
<polygon fill="white" stroke="white" points="-4,5 -4,-565.608 1221,-565.608 1221,5 -4,5"/>
<!-- Node1 -->
<g id="node1" class="node"><title>Node1</title>
<polygon fill="#bfbfbf" stroke="black" points="0.5,-212.5 0.5,-233.5 111.5,-233.5 111.5,-212.5 0.5,-212.5"/>
<text text-anchor="middle" x="56" y="-220.5" font-family="FreeSans.ttf" font-size="10.00">Socket::gDescriptor</text>
</g>
<!-- Node2 -->
<g id="node3" class="node"><title>Node2</title>
<a xlink:href="classServer.xhtml#a39dbe16fdc8c5f6fbd678c6540fbcd6c" target="_top" xlink:title="Poll all SocketClient objects that are communicating with the associated SocketServer object...">
<polygon fill="white" stroke="black" points="720.5,-211.5 720.5,-232.5 829.5,-232.5 829.5,-211.5 720.5,-211.5"/>
<text text-anchor="middle" x="775" y="-219.5" font-family="FreeSans.ttf" font-size="10.00">Server::PollSockets</text>
</a>
</g>
<!-- Node1&#45;&gt;Node2 -->
<g id="edge2" class="edge"><title>Node1&#45;&gt;Node2</title>
<path fill="none" stroke="midnightblue" d="M70.6844,-204.52C87.1522,-185.431 115.805,-156.811 148,-145 371.427,-63.0334 666.588,-175.352 751.335,-211.476"/>
<polygon fill="midnightblue" stroke="midnightblue" points="67.9249,-202.364 64.2021,-212.283 73.2981,-206.851 67.9249,-202.364"/>
</g>
<!-- Node5 -->
<g id="node9" class="node"><title>Node5</title>
<a xlink:href="classServer.xhtml#a2b4cec469bb99c2a45e49de5ba74d1ae" target="_top" xlink:title="Processes input from all active SocketClient objects.">
<polygon fill="white" stroke="black" points="896,-434.5 896,-455.5 1012,-455.5 1012,-434.5 896,-434.5"/>
<text text-anchor="middle" x="954" y="-442.5" font-family="FreeSans.ttf" font-size="10.00">Server::ProcessInput</text>
</a>
</g>
<!-- Node1&#45;&gt;Node5 -->
<g id="edge8" class="edge"><title>Node1&#45;&gt;Node5</title>
<path fill="none" stroke="midnightblue" d="M62.9845,-243.523C75.1612,-276.327 103.326,-340.577 148,-377 249.424,-459.691 295.139,-474 426,-474 426,-474 426,-474 594,-474 700.751,-474 824.734,-461.174 895.816,-452.582"/>
<polygon fill="midnightblue" stroke="midnightblue" points="66.1306,-241.927 59.4672,-233.69 59.5396,-244.284 66.1306,-241.927"/>
</g>
<!-- Node6 -->
<g id="node12" class="node"><title>Node6</title>
<a xlink:href="classSocketClient.xhtml#a553658a2c076ea71ddcd1758fc64a925" target="_top" xlink:title="Build a SocketClient for a new client connection and set all attributes.">
<polygon fill="white" stroke="black" points="374.5,-230.5 374.5,-251.5 477.5,-251.5 477.5,-230.5 374.5,-230.5"/>
<text text-anchor="middle" x="426" y="-238.5" font-family="FreeSans.ttf" font-size="10.00">SocketClient::New</text>
</a>
</g>
<!-- Node1&#45;&gt;Node6 -->
<g id="edge12" class="edge"><title>Node1&#45;&gt;Node6</title>
<path fill="none" stroke="midnightblue" d="M122.126,-226.217C194.288,-229.728 308.308,-235.274 374.239,-238.482"/>
<polygon fill="midnightblue" stroke="midnightblue" points="121.952,-222.704 111.793,-225.714 121.611,-229.696 121.952,-222.704"/>
</g>
<!-- Node7 -->
<g id="node14" class="node"><title>Node7</title>
<a xlink:href="classSocketServer.xhtml#afdbc60c3bc840875d2214b59c6213f63" target="_top" xlink:title="Accept a new connection on the listening port.">
<polygon fill="white" stroke="black" points="534,-211.5 534,-232.5 654,-232.5 654,-211.5 534,-211.5"/>
<text text-anchor="middle" x="594" y="-219.5" font-family="FreeSans.ttf" font-size="10.00">SocketServer::Accept</text>
</a>
</g>
<!-- Node1&#45;&gt;Node7 -->
<g id="edge66" class="edge"><title>Node1&#45;&gt;Node7</title>
<path fill="none" stroke="midnightblue" d="M122.003,-222.301C208.397,-221.478 364.534,-220.305 498,-221 509.584,-221.06 521.954,-221.162 533.829,-221.277"/>
<polygon fill="midnightblue" stroke="midnightblue" points="121.785,-218.803 111.819,-222.399 121.853,-225.802 121.785,-218.803"/>
</g>
<!-- Node8 -->
<g id="node17" class="node"><title>Node8</title>
<a xlink:href="classSocketClient.xhtml#ad4f63c7d906310dc56a1217136047d7f" target="_top" xlink:title="Interpret the command at the front of the queue.">
<polygon fill="white" stroke="black" points="690,-405.5 690,-426.5 860,-426.5 860,-405.5 690,-405.5"/>
<text text-anchor="middle" x="775" y="-413.5" font-family="FreeSans.ttf" font-size="10.00">SocketClient::ProcessCommand</text>
</a>
</g>
<!-- Node1&#45;&gt;Node8 -->
<g id="edge18" class="edge"><title>Node1&#45;&gt;Node8</title>
<path fill="none" stroke="midnightblue" d="M69.976,-241.456C86.6997,-262.573 116.424,-297.172 148,-320 230.011,-379.289 255.242,-394.912 354,-417 470.622,-443.084 610.004,-435.442 695.504,-426.514"/>
<polygon fill="midnightblue" stroke="midnightblue" points="72.7366,-239.304 63.8331,-233.561 67.212,-243.603 72.7366,-239.304"/>
</g>
<!-- Node9 -->
<g id="node20" class="node"><title>Node9</title>
<a xlink:href="classSocketClient.xhtml#a92fea2bf7e0f20578404ce1abb835a0b" target="_top" xlink:title="Process data from the client&#39;s receive buffer and split it into commands to queue as necessary...">
<polygon fill="white" stroke="black" points="354,-502.5 354,-523.5 498,-523.5 498,-502.5 354,-502.5"/>
<text text-anchor="middle" x="426" y="-510.5" font-family="FreeSans.ttf" font-size="10.00">SocketClient::ProcessInput</text>
</a>
</g>
<!-- Node1&#45;&gt;Node9 -->
<g id="edge22" class="edge"><title>Node1&#45;&gt;Node9</title>
<path fill="none" stroke="midnightblue" d="M58.8954,-243.516C68.2957,-306.869 100.146,-497.285 148,-533 225.752,-591.029 352.24,-545.893 403.43,-523.595"/>
<polygon fill="midnightblue" stroke="midnightblue" points="62.3475,-242.933 57.4464,-233.54 55.4202,-243.939 62.3475,-242.933"/>
</g>
<!-- Node10 -->
<g id="node23" class="node"><title>Node10</title>
<a xlink:href="classSocketClient.xhtml#aa3c0d7886b8fede981c73031cfaf17c6" target="_top" xlink:title="Append a command to the back of the queue.">
<polygon fill="white" stroke="black" points="151,-502.5 151,-523.5 315,-523.5 315,-502.5 151,-502.5"/>
<text text-anchor="middle" x="233" y="-510.5" font-family="FreeSans.ttf" font-size="10.00">SocketClient::QueueCommand</text>
</a>
</g>
<!-- Node1&#45;&gt;Node10 -->
<g id="edge26" class="edge"><title>Node1&#45;&gt;Node10</title>
<path fill="none" stroke="midnightblue" d="M57.0098,-243.815C60.5628,-293.489 76.5352,-419.893 148,-488 154.57,-494.261 162.626,-498.964 171.135,-502.495"/>
<polygon fill="midnightblue" stroke="midnightblue" points="60.493,-243.433 56.3852,-233.667 53.5062,-243.863 60.493,-243.433"/>
</g>
<!-- Node11 -->
<g id="node26" class="node"><title>Node11</title>
<a xlink:href="classSocketClient.xhtml#a9ee09f452d900e288b2aa187561ef05d" target="_top" xlink:title="Receive data from the client and append it to a receive buffer.">
<polygon fill="white" stroke="black" points="181,-154.5 181,-175.5 285,-175.5 285,-154.5 181,-154.5"/>
<text text-anchor="middle" x="233" y="-162.5" font-family="FreeSans.ttf" font-size="10.00">SocketClient::Recv</text>
</a>
</g>
<!-- Node1&#45;&gt;Node11 -->
<g id="edge30" class="edge"><title>Node1&#45;&gt;Node11</title>
<path fill="none" stroke="midnightblue" d="M93.8895,-208.847C110.429,-202.815 130.098,-195.838 148,-190 163.355,-184.993 180.414,-179.887 195.195,-175.606"/>
<polygon fill="midnightblue" stroke="midnightblue" points="92.221,-205.731 84.0391,-212.462 94.6328,-212.303 92.221,-205.731"/>
</g>
<!-- Node12 -->
<g id="node29" class="node"><title>Node12</title>
<a xlink:href="classSocketClient.xhtml#afd723bd898217b3c41e29a02f43ec9e1" target="_top" xlink:title="A wrapper to SocketClient::tResolveHostname(). Necessary for threading a member function.">
<polygon fill="white" stroke="black" points="148.5,-0.5 148.5,-21.5 317.5,-21.5 317.5,-0.5 148.5,-0.5"/>
<text text-anchor="middle" x="233" y="-8.5" font-family="FreeSans.ttf" font-size="10.00">SocketClient::ResolveHostname</text>
</a>
</g>
<!-- Node1&#45;&gt;Node12 -->
<g id="edge34" class="edge"><title>Node1&#45;&gt;Node12</title>
<path fill="none" stroke="midnightblue" d="M60.4049,-202.197C69.6684,-163.596 94.8475,-80.7533 148,-36 155.413,-29.7585 164.325,-25.0749 173.55,-21.5604"/>
<polygon fill="midnightblue" stroke="midnightblue" points="56.9222,-201.728 58.1153,-212.255 63.7476,-203.281 56.9222,-201.728"/>
</g>
<!-- Node13 -->
<g id="node31" class="node"><title>Node13</title>
<a xlink:href="classSocketClient.xhtml#a6268f3d184970ec0076da657c39d2e80" target="_top" xlink:title="Process data from the client&#39;s send buffer and transmit it via the socket.">
<polygon fill="white" stroke="black" points="179.5,-289.5 179.5,-310.5 286.5,-310.5 286.5,-289.5 179.5,-289.5"/>
<text text-anchor="middle" x="233" y="-297.5" font-family="FreeSans.ttf" font-size="10.00">SocketClient::Send</text>
</a>
</g>
<!-- Node1&#45;&gt;Node13 -->
<g id="edge36" class="edge"><title>Node1&#45;&gt;Node13</title>
<path fill="none" stroke="midnightblue" d="M89.5209,-237.583C124.313,-252.718 177.878,-276.02 208.769,-289.459"/>
<polygon fill="midnightblue" stroke="midnightblue" points="90.8061,-234.325 80.24,-233.545 88.0136,-240.744 90.8061,-234.325"/>
</g>
<!-- Node20 -->
<g id="node54" class="node"><title>Node20</title>
<a xlink:href="classSocketServer.xhtml#aee14cfe29fef99baa29664eef8d89dc8" target="_top" xlink:title="Bind a listening socket to a given port and IP address.">
<polygon fill="white" stroke="black" points="540,-76.5 540,-97.5 648,-97.5 648,-76.5 540,-76.5"/>
<text text-anchor="middle" x="594" y="-84.5" font-family="FreeSans.ttf" font-size="10.00">SocketServer::Bind</text>
</a>
</g>
<!-- Node1&#45;&gt;Node20 -->
<g id="edge68" class="edge"><title>Node1&#45;&gt;Node20</title>
<path fill="none" stroke="midnightblue" d="M65.7063,-203.274C79.7865,-177.103 108.57,-131.898 148,-112 215.072,-78.1523 436.088,-81.2189 539.609,-84.7116"/>
<polygon fill="midnightblue" stroke="midnightblue" points="62.5329,-201.79 61.0384,-212.279 68.7477,-205.012 62.5329,-201.79"/>
</g>
<!-- Node21 -->
<g id="node57" class="node"><title>Node21</title>
<a xlink:href="classSocketServer.xhtml#a5c5b0cbbee6a2e265d0510b40bcc12d8" target="_top" xlink:title="Listen for new connections on an established socket.">
<polygon fill="white" stroke="black" points="368,-37.5 368,-58.5 484,-58.5 484,-37.5 368,-37.5"/>
<text text-anchor="middle" x="426" y="-45.5" font-family="FreeSans.ttf" font-size="10.00">SocketServer::Listen</text>
</a>
</g>
<!-- Node1&#45;&gt;Node21 -->
<g id="edge72" class="edge"><title>Node1&#45;&gt;Node21</title>
<path fill="none" stroke="midnightblue" d="M61.958,-202.781C72.9327,-169.514 99.751,-103.945 148,-74 214.62,-32.6537 308.036,-33.176 367.792,-39.1647"/>
<polygon fill="midnightblue" stroke="midnightblue" points="58.6066,-201.771 58.9444,-212.361 65.284,-203.872 58.6066,-201.771"/>
</g>
<!-- Node3 -->
<g id="node5" class="node"><title>Node3</title>
<a xlink:href="classServer.xhtml#a50b81aa91d8fdaee6f52c5c5ec987990" target="_top" xlink:title="The core update loop of NAMS. This loop spawns all other subsystem update routines and then sleeps fo...">
<polygon fill="white" stroke="black" points="1048.5,-307.5 1048.5,-328.5 1137.5,-328.5 1137.5,-307.5 1048.5,-307.5"/>
<text text-anchor="middle" x="1093" y="-315.5" font-family="FreeSans.ttf" font-size="10.00">Server::Update</text>
</a>
</g>
<!-- Node2&#45;&gt;Node3 -->
<g id="edge4" class="edge"><title>Node2&#45;&gt;Node3</title>
<path fill="none" stroke="midnightblue" d="M815.334,-235.808C838.797,-243.721 868.982,-253.698 896,-262 950.551,-278.762 1014.13,-296.518 1053.98,-307.433"/>
<polygon fill="midnightblue" stroke="midnightblue" points="816.314,-232.444 805.719,-232.554 814.07,-239.075 816.314,-232.444"/>
</g>
<!-- Node4 -->
<g id="node7" class="node"><title>Node4</title>
<a xlink:href="main_8cpp.xhtml#ad53223b8779f25caeddb70a3b9172967" target="_top" xlink:title="The default function required to execute the server.">
<polygon fill="white" stroke="black" points="1174.5,-307.5 1174.5,-328.5 1215.5,-328.5 1215.5,-307.5 1174.5,-307.5"/>
<text text-anchor="middle" x="1195" y="-315.5" font-family="FreeSans.ttf" font-size="10.00">main</text>
</a>
</g>
<!-- Node3&#45;&gt;Node4 -->
<g id="edge6" class="edge"><title>Node3&#45;&gt;Node4</title>
<path fill="none" stroke="midnightblue" d="M1147.94,-318C1157.34,-318 1166.55,-318 1174.3,-318"/>
<polygon fill="midnightblue" stroke="midnightblue" points="1147.74,-314.5 1137.74,-318 1147.74,-321.5 1147.74,-314.5"/>
</g>
<!-- Node5&#45;&gt;Node3 -->
<g id="edge10" class="edge"><title>Node5&#45;&gt;Node3</title>
<path fill="none" stroke="midnightblue" d="M973.385,-427.288C1002.64,-400.558 1057.2,-350.709 1081.18,-328.801"/>
<polygon fill="midnightblue" stroke="midnightblue" points="970.873,-424.843 965.851,-434.172 975.594,-430.011 970.873,-424.843"/>
</g>
<!-- Node6&#45;&gt;Node7 -->
<g id="edge14" class="edge"><title>Node6&#45;&gt;Node7</title>
<path fill="none" stroke="midnightblue" d="M487.967,-233.992C502.958,-232.296 518.955,-230.487 533.86,-228.802"/>
<polygon fill="midnightblue" stroke="midnightblue" points="487.32,-230.543 477.776,-235.144 488.106,-237.498 487.32,-230.543"/>
</g>
<!-- Node7&#45;&gt;Node2 -->
<g id="edge16" class="edge"><title>Node7&#45;&gt;Node2</title>
<path fill="none" stroke="midnightblue" d="M664.219,-222C682.843,-222 702.673,-222 720.333,-222"/>
<polygon fill="midnightblue" stroke="midnightblue" points="664.019,-218.5 654.019,-222 664.019,-225.5 664.019,-218.5"/>
</g>
<!-- Node8&#45;&gt;Node5 -->
<g id="edge20" class="edge"><title>Node8&#45;&gt;Node5</title>
<path fill="none" stroke="midnightblue" d="M849.871,-428.13C865.24,-430.62 881.2,-433.206 895.873,-435.583"/>
<polygon fill="midnightblue" stroke="midnightblue" points="850.307,-424.655 839.876,-426.511 849.188,-431.565 850.307,-424.655"/>
</g>
<!-- Node9&#45;&gt;Node5 -->
<g id="edge24" class="edge"><title>Node9&#45;&gt;Node5</title>
<path fill="none" stroke="midnightblue" d="M508.48,-517.219C596.801,-519.674 740.394,-517.686 860,-488 887.868,-481.083 917.62,-466.016 936.015,-455.687"/>
<polygon fill="midnightblue" stroke="midnightblue" points="508.356,-513.714 498.254,-516.908 508.143,-520.711 508.356,-513.714"/>
</g>
<!-- Node10&#45;&gt;Node9 -->
<g id="edge28" class="edge"><title>Node10&#45;&gt;Node9</title>
<path fill="none" stroke="midnightblue" d="M325.405,-513C334.91,-513 344.467,-513 353.709,-513"/>
<polygon fill="midnightblue" stroke="midnightblue" points="325.129,-509.5 315.129,-513 325.129,-516.5 325.129,-509.5"/>
</g>
<!-- Node11&#45;&gt;Node2 -->
<g id="edge32" class="edge"><title>Node11&#45;&gt;Node2</title>
<path fill="none" stroke="midnightblue" d="M295.507,-169C377.861,-174.612 527.125,-185.963 654,-202 675.758,-204.75 699.595,-208.525 720.316,-212.055"/>
<polygon fill="midnightblue" stroke="midnightblue" points="295.528,-165.494 285.315,-168.312 295.056,-172.478 295.528,-165.494"/>
</g>
<!-- Node13&#45;&gt;Node2 -->
<g id="edge60" class="edge"><title>Node13&#45;&gt;Node2</title>
<path fill="none" stroke="midnightblue" d="M296.536,-291.788C379.027,-281.002 527.425,-261.176 654,-242 675.683,-238.715 699.506,-234.836 720.236,-231.372"/>
<polygon fill="midnightblue" stroke="midnightblue" points="296.028,-288.325 286.565,-293.09 296.934,-295.266 296.028,-288.325"/>
</g>
<!-- Node13&#45;&gt;Node6 -->
<g id="edge62" class="edge"><title>Node13&#45;&gt;Node6</title>
<path fill="none" stroke="midnightblue" d="M277.374,-286.435C312.061,-275.831 359.586,-261.303 391.469,-251.556"/>
<polygon fill="midnightblue" stroke="midnightblue" points="276.044,-283.181 267.505,-289.452 278.091,-289.876 276.044,-283.181"/>
</g>
<!-- Node13&#45;&gt;Node8 -->
<g id="edge64" class="edge"><title>Node13&#45;&gt;Node8</title>
<path fill="none" stroke="midnightblue" d="M270.581,-314.109C294.221,-322.483 325.534,-332.667 354,-339 485.192,-368.185 522.808,-347.815 654,-377 686.532,-384.237 722.784,-396.505 747.05,-405.352"/>
<polygon fill="midnightblue" stroke="midnightblue" points="271.545,-310.737 260.95,-310.648 269.177,-317.324 271.545,-310.737"/>
</g>
<!-- Node14 -->
<g id="node33" class="node"><title>Node14</title>
<a xlink:href="classAccount.xhtml#a1e12e66ca5fdd8ebbc741d4f037c806b" target="_top" xlink:title="Create a new account.">
<polygon fill="white" stroke="black" points="385,-386.5 385,-407.5 467,-407.5 467,-386.5 385,-386.5"/>
<text text-anchor="middle" x="426" y="-394.5" font-family="FreeSans.ttf" font-size="10.00">Account::New</text>
</a>
</g>
<!-- Node13&#45;&gt;Node14 -->
<g id="edge38" class="edge"><title>Node13&#45;&gt;Node14</title>
<path fill="none" stroke="midnightblue" d="M256.898,-316.198C280.752,-331.883 318.822,-355.633 354,-372 365.757,-377.47 379.064,-382.416 391.011,-386.437"/>
<polygon fill="midnightblue" stroke="midnightblue" points="258.755,-313.229 248.488,-310.613 254.882,-319.061 258.755,-313.229"/>
</g>
<!-- Node16 -->
<g id="node38" class="node"><title>Node16</title>
<a xlink:href="classServer.xhtml#ae1bb8d3c7c71119bae6dd4205fd6c0cc" target="_top" xlink:title="Sends a message to all clients connected to the Server.">
<polygon fill="white" stroke="black" points="374.5,-308.5 374.5,-329.5 477.5,-329.5 477.5,-308.5 374.5,-308.5"/>
<text text-anchor="middle" x="426" y="-316.5" font-family="FreeSans.ttf" font-size="10.00">Server::Broadcast</text>
</a>
</g>
<!-- Node13&#45;&gt;Node16 -->
<g id="edge44" class="edge"><title>Node13&#45;&gt;Node16</title>
<path fill="none" stroke="midnightblue" d="M296.71,-306.272C321.917,-308.754 350.512,-311.569 374.39,-313.919"/>
<polygon fill="midnightblue" stroke="midnightblue" points="296.8,-302.764 286.505,-305.267 296.114,-309.73 296.8,-302.764"/>
</g>
<!-- Node15 -->
<g id="node35" class="node"><title>Node15</title>
<a xlink:href="classServer.xhtml#af7c4b4e6fe763a8f07984365af7640f7" target="_top" xlink:title="Handle SocketClient objects who have not fully logged into the game yet.">
<polygon fill="white" stroke="black" points="535.5,-386.5 535.5,-407.5 652.5,-407.5 652.5,-386.5 535.5,-386.5"/>
<text text-anchor="middle" x="594" y="-394.5" font-family="FreeSans.ttf" font-size="10.00">Server::ProcessLogin</text>
</a>
</g>
<!-- Node14&#45;&gt;Node15 -->
<g id="edge40" class="edge"><title>Node14&#45;&gt;Node15</title>
<path fill="none" stroke="midnightblue" d="M477.274,-397C495.583,-397 516.352,-397 535.243,-397"/>
<polygon fill="midnightblue" stroke="midnightblue" points="477.097,-393.5 467.097,-397 477.097,-400.5 477.097,-393.5"/>
</g>
<!-- Node15&#45;&gt;Node8 -->
<g id="edge42" class="edge"><title>Node15&#45;&gt;Node8</title>
<path fill="none" stroke="midnightblue" d="M662.958,-404.239C671.772,-405.164 680.875,-406.119 689.907,-407.068"/>
<polygon fill="midnightblue" stroke="midnightblue" points="663.076,-400.732 652.766,-403.169 662.345,-407.694 663.076,-400.732"/>
</g>
<!-- Node17 -->
<g id="node40" class="node"><title>Node17</title>
<a xlink:href="classServer.xhtml#a9b7082bbc9faca6eb84180f856116762" target="_top" xlink:title="Perform a clean shutdown of the NAMS Server providing a chance to complete disk writes and free all m...">
<polygon fill="white" stroke="black" points="543.5,-308.5 543.5,-329.5 644.5,-329.5 644.5,-308.5 543.5,-308.5"/>
<text text-anchor="middle" x="594" y="-316.5" font-family="FreeSans.ttf" font-size="10.00">Server::Shutdown</text>
</a>
</g>
<!-- Node16&#45;&gt;Node17 -->
<g id="edge46" class="edge"><title>Node16&#45;&gt;Node17</title>
<path fill="none" stroke="midnightblue" d="M487.996,-319C506.187,-319 525.859,-319 543.26,-319"/>
<polygon fill="midnightblue" stroke="midnightblue" points="487.776,-315.5 477.776,-319 487.776,-322.5 487.776,-315.5"/>
</g>
<!-- Node17&#45;&gt;Node3 -->
<g id="edge54" class="edge"><title>Node17&#45;&gt;Node3</title>
<path fill="none" stroke="midnightblue" d="M654.703,-318.878C756.373,-318.675 958.749,-318.269 1048.44,-318.089"/>
<polygon fill="midnightblue" stroke="midnightblue" points="654.586,-315.378 644.593,-318.899 654.6,-322.378 654.586,-315.378"/>
</g>
<!-- Node17&#45;&gt;Node4 -->
<g id="edge48" class="edge"><title>Node17&#45;&gt;Node4</title>
<path fill="none" stroke="midnightblue" d="M654.795,-328.333C666.455,-329.81 678.585,-331.135 690,-332 848.678,-344.031 888.872,-336.667 1048,-338 1088,-338.335 1098.57,-344.717 1138,-338 1150.41,-335.887 1163.71,-331.36 1174.34,-327.147"/>
<polygon fill="midnightblue" stroke="midnightblue" points="655.072,-324.839 644.7,-327.002 654.157,-331.779 655.072,-324.839"/>
</g>
<!-- Node18 -->
<g id="node43" class="node"><title>Node18</title>
<a xlink:href="classServer.xhtml#a19a1e493e1fb50a56d9c77332543d565" target="_top" xlink:title="Start the NAMS Server. Responsible for calling all critical boot&#45;time functions such as SocketServer ...">
<polygon fill="white" stroke="black" points="909,-231.5 909,-252.5 999,-252.5 999,-231.5 909,-231.5"/>
<text text-anchor="middle" x="954" y="-239.5" font-family="FreeSans.ttf" font-size="10.00">Server::Startup</text>
</a>
</g>
<!-- Node17&#45;&gt;Node18 -->
<g id="edge50" class="edge"><title>Node17&#45;&gt;Node18</title>
<path fill="none" stroke="midnightblue" d="M653.099,-306.359C724.847,-291.013 844.256,-265.473 908.976,-251.63"/>
<polygon fill="midnightblue" stroke="midnightblue" points="652.348,-302.941 643.302,-308.455 653.813,-309.786 652.348,-302.941"/>
</g>
<!-- Node19 -->
<g id="node47" class="node"><title>Node19</title>
<a xlink:href="classSocketServer.xhtml#a72918e73dd56b8986a15678c2cfb5a48" target="_top" xlink:title="Build a socket for a server and set all attributes.">
<polygon fill="white" stroke="black" points="721.5,-114.5 721.5,-135.5 828.5,-135.5 828.5,-114.5 721.5,-114.5"/>
<text text-anchor="middle" x="775" y="-122.5" font-family="FreeSans.ttf" font-size="10.00">SocketServer::New</text>
</a>
</g>
<!-- Node17&#45;&gt;Node19 -->
<g id="edge56" class="edge"><title>Node17&#45;&gt;Node19</title>
<path fill="none" stroke="midnightblue" d="M608.151,-300.057C626.203,-276.305 658.831,-234.733 690,-202 714.029,-176.765 744.927,-150.049 762.073,-135.669"/>
<polygon fill="midnightblue" stroke="midnightblue" points="605.212,-298.142 601.98,-308.232 610.798,-302.36 605.212,-298.142"/>
</g>
<!-- Node18&#45;&gt;Node4 -->
<g id="edge52" class="edge"><title>Node18&#45;&gt;Node4</title>
<path fill="none" stroke="midnightblue" d="M1000.17,-255.467C1037.49,-266.492 1091.3,-282.708 1138,-298 1150.16,-301.982 1163.67,-306.71 1174.49,-310.57"/>
<polygon fill="midnightblue" stroke="midnightblue" points="1000.68,-251.97 990.103,-252.5 998.706,-258.684 1000.68,-251.97"/>
</g>
<!-- Node19&#45;&gt;Node18 -->
<g id="edge58" class="edge"><title>Node19&#45;&gt;Node18</title>
<path fill="none" stroke="midnightblue" d="M799.939,-141.301C837.18,-165.642 906.295,-210.819 937.707,-231.35"/>
<polygon fill="midnightblue" stroke="midnightblue" points="801.486,-138.131 791.201,-135.589 797.656,-143.99 801.486,-138.131"/>
</g>
<!-- Node20&#45;&gt;Node19 -->
<g id="edge70" class="edge"><title>Node20&#45;&gt;Node19</title>
<path fill="none" stroke="midnightblue" d="M654.362,-99.6727C677.239,-104.476 703.016,-109.887 724.852,-114.472"/>
<polygon fill="midnightblue" stroke="midnightblue" points="654.924,-96.2145 644.419,-97.5851 653.486,-103.065 654.924,-96.2145"/>
</g>
<!-- Node21&#45;&gt;Node19 -->
<g id="edge74" class="edge"><title>Node21&#45;&gt;Node19</title>
<path fill="none" stroke="midnightblue" d="M494.291,-47.2664C540.181,-48.3271 601.612,-52.7794 654,-67 693.344,-77.6798 735.44,-100.862 758.141,-114.462"/>
<polygon fill="midnightblue" stroke="midnightblue" points="494.219,-43.7646 484.157,-47.0812 494.091,-50.7634 494.219,-43.7646"/>
</g>
</g>
</svg>
        <g id="navigator" transform="translate(0 0)" fill="#404254">
                <rect fill="#f2f5e9" fill-opacity="0.5" stroke="#606060" stroke-width=".5" x="0" y="0" width="60" height="60"/>
                <use id="zoomplus" xlink:href="#zoomPlus" x="17" y="9" onmousedown="handleZoom(evt,'in')"/>
                <use id="zoomminus" xlink:href="#zoomMin" x="42" y="9" onmousedown="handleZoom(evt,'out')"/>
                <use id="reset" xlink:href="#resetDef" x="30" y="36" onmousedown="handleReset()"/>
                <g id="arrowUp" xlink:href="#dirArrow" transform="translate(30 24)" onmousedown="handlePan(0,-1)">
                  <use xlink:href="#rim" fill="#404040">
                        <set attributeName="fill" to="#808080" begin="arrowUp.mouseover" end="arrowUp.mouseout"/>
                  </use>
                  <path fill="none" stroke="white" stroke-width="1.5" d="M0,-3.0v7 M-2.5,-0.5L0,-3.0L2.5,-0.5"/>
                </g>
                <g id="arrowRight" xlink:href="#dirArrow" transform="rotate(90) translate(36 -43)" onmousedown="handlePan(1,0)">
                  <use xlink:href="#rim" fill="#404040">
                        <set attributeName="fill" to="#808080" begin="arrowRight.mouseover" end="arrowRight.mouseout"/>
                  </use>
                  <path fill="none" stroke="white" stroke-width="1.5" d="M0,-3.0v7 M-2.5,-0.5L0,-3.0L2.5,-0.5"/>
                </g>
                <g id="arrowDown" xlink:href="#dirArrow" transform="rotate(180) translate(-30 -48)" onmousedown="handlePan(0,1)">
                  <use xlink:href="#rim" fill="#404040">
                        <set attributeName="fill" to="#808080" begin="arrowDown.mouseover" end="arrowDown.mouseout"/>
                  </use>
                  <path fill="none" stroke="white" stroke-width="1.5" d="M0,-3.0v7 M-2.5,-0.5L0,-3.0L2.5,-0.5"/>
                </g>
                <g id="arrowLeft" xlink:href="#dirArrow" transform="rotate(270) translate(-36 17)" onmousedown="handlePan(-1,0)">
                  <use xlink:href="#rim" fill="#404040">
                        <set attributeName="fill" to="#808080" begin="arrowLeft.mouseover" end="arrowLeft.mouseout"/>
                  </use>
                  <path fill="none" stroke="white" stroke-width="1.5" d="M0,-3.0v7 M-2.5,-0.5L0,-3.0L2.5,-0.5"/>
                </g>
        </g>
</svg>
