<?xml version="1.0" encoding="UTF-8" standalone="no"?>
<!DOCTYPE svg PUBLIC "-//W3C//DTD SVG 1.1//EN"
 "http://www.w3.org/Graphics/SVG/1.1/DTD/svg11.dtd">
<!-- Generated by graphviz version 2.26.3 (20100126.1600)
 -->
<!-- Title: G Pages: 1 -->
<!--zoomable 82 -->
<svg id="main" version="1.1" xmlns="http://www.w3.org/2000/svg" xmlns:xlink="http://www.w3.org/1999/xlink" xml:space="preserve" onload="init(evt)">
        <defs>
                <circle id="rim" cx="0" cy="0" r="7"/>
                <circle id="rim2" cx="0" cy="0" r="3.5"/>
                <g id="zoomPlus">
                        <use xlink:href="#rim" fill="#404040">
                                <set attributeName="fill" to="#808080" begin="zoomplus.mouseover" end="zoomplus.mouseout"/>
                        </use>
                        <path d="M-4,0h8M0,-4v8" fill="none" stroke="white" stroke-width="1.5" pointer-events="none"/>
                </g>
                <g id="zoomMin">
                        <use xlink:href="#rim" fill="#404040">
                                <set attributeName="fill" to="#808080" begin="zoomminus.mouseover" end="zoomminus.mouseout"/>
                        </use>
                        <path d="M-4,0h8" fill="none" stroke="white" stroke-width="1.5" pointer-events="none"/>
                </g>
                <g id="dirArrow">
                        <path fill="none" stroke="white" stroke-width="1.5" d="M0,-3.0v7 M-2.5,-0.5L0,-3.0L2.5,-0.5"/>
                </g>
               <g id="resetDef">
                       <use xlink:href="#rim2" fill="#404040">
                               <set attributeName="fill" to="#808080" begin="reset.mouseover" end="reset.mouseout"/>
                       </use>
               </g>
        </defs>

<script type="text/javascript">
var viewWidth = 622;
var viewHeight = 82;
var sectionId = 'dynsection-26';
</script>
<script xlink:href="svgpan.js"/>
<svg id="graph" class="graph">
<g id="viewport">
<title>G</title>
<polygon fill="white" stroke="white" points="-4,5 -4,-77.6498 619,-77.6498 619,5 -4,5"/>
<!-- Node1 -->
<g id="node1" class="node"><title>Node1</title>
<polygon fill="#bfbfbf" stroke="black" points="0,-39.5 0,-60.5 104,-60.5 104,-39.5 0,-39.5"/>
<text text-anchor="middle" x="52" y="-47.5" font-family="FreeSans.ttf" font-size="10.00">SocketClient::sIdle</text>
</g>
<!-- Node2 -->
<g id="node3" class="node"><title>Node2</title>
<a xlink:href="classServer.xhtml#a39dbe16fdc8c5f6fbd678c6540fbcd6c" target="_top" xlink:title="Poll all SocketClient objects that are communicating with the associated SocketServer object...">
<polygon fill="white" stroke="black" points="290.5,-40.5 290.5,-61.5 399.5,-61.5 399.5,-40.5 290.5,-40.5"/>
<text text-anchor="middle" x="345" y="-48.5" font-family="FreeSans.ttf" font-size="10.00">Server::PollSockets</text>
</a>
</g>
<!-- Node1&#45;&gt;Node2 -->
<g id="edge2" class="edge"><title>Node1&#45;&gt;Node2</title>
<path fill="none" stroke="midnightblue" d="M99.8849,-62.9212C112.808,-65.8475 126.855,-68.525 140,-70 185.934,-75.1541 197.977,-74.2912 244,-70 262.121,-68.3104 281.835,-64.9509 298.997,-61.5204"/>
<polygon fill="midnightblue" stroke="midnightblue" points="100.337,-59.4317 89.8002,-60.5391 98.7278,-66.2442 100.337,-59.4317"/>
</g>
<!-- Node5 -->
<g id="node9" class="node"><title>Node5</title>
<a xlink:href="classServer.xhtml#a16ea0639731dee10e1a253375b508a02" target="_top" xlink:title="Recovers the server state and re&#45;connects client sockets after a reboot.">
<polygon fill="white" stroke="black" points="280,-0.5 280,-21.5 410,-21.5 410,-0.5 280,-0.5"/>
<text text-anchor="middle" x="345" y="-8.5" font-family="FreeSans.ttf" font-size="10.00">Server::RebootRecovery</text>
</a>
</g>
<!-- Node1&#45;&gt;Node5 -->
<g id="edge8" class="edge"><title>Node1&#45;&gt;Node5</title>
<path fill="none" stroke="midnightblue" d="M103.271,-37.1585C115.265,-34.4859 128.033,-31.906 140,-30 186.417,-22.607 239.239,-17.7958 279.638,-14.8648"/>
<polygon fill="midnightblue" stroke="midnightblue" points="102.382,-33.7714 93.4138,-39.4125 103.942,-40.5953 102.382,-33.7714"/>
</g>
<!-- Node7 -->
<g id="node14" class="node"><title>Node7</title>
<a xlink:href="classSocketClient.xhtml#a9ee09f452d900e288b2aa187561ef05d" target="_top" xlink:title="Receive data from the client and append it to a receive buffer.">
<polygon fill="white" stroke="black" points="140,-39.5 140,-60.5 244,-60.5 244,-39.5 140,-39.5"/>
<text text-anchor="middle" x="192" y="-47.5" font-family="FreeSans.ttf" font-size="10.00">SocketClient::Recv</text>
</a>
</g>
<!-- Node1&#45;&gt;Node7 -->
<g id="edge14" class="edge"><title>Node1&#45;&gt;Node7</title>
<path fill="none" stroke="midnightblue" d="M114.387,-50C122.885,-50 131.534,-50 139.826,-50"/>
<polygon fill="midnightblue" stroke="midnightblue" points="114.131,-46.5001 104.131,-50 114.131,-53.5001 114.131,-46.5001"/>
</g>
<!-- Node3 -->
<g id="node5" class="node"><title>Node3</title>
<a xlink:href="classServer.xhtml#a50b81aa91d8fdaee6f52c5c5ec987990" target="_top" xlink:title="The core update loop of NAMS. This loop spawns all other subsystem update routines and then sleeps fo...">
<polygon fill="white" stroke="black" points="446.5,-40.5 446.5,-61.5 535.5,-61.5 535.5,-40.5 446.5,-40.5"/>
<text text-anchor="middle" x="491" y="-48.5" font-family="FreeSans.ttf" font-size="10.00">Server::Update</text>
</a>
</g>
<!-- Node2&#45;&gt;Node3 -->
<g id="edge4" class="edge"><title>Node2&#45;&gt;Node3</title>
<path fill="none" stroke="midnightblue" d="M410.004,-51C422.297,-51 434.896,-51 446.385,-51"/>
<polygon fill="midnightblue" stroke="midnightblue" points="409.78,-47.5001 399.78,-51 409.78,-54.5001 409.78,-47.5001"/>
</g>
<!-- Node4 -->
<g id="node7" class="node"><title>Node4</title>
<a xlink:href="main_8cpp.xhtml#ad53223b8779f25caeddb70a3b9172967" target="_top" xlink:title="The default function required to execute the server.">
<polygon fill="white" stroke="black" points="572.5,-20.5 572.5,-41.5 613.5,-41.5 613.5,-20.5 572.5,-20.5"/>
<text text-anchor="middle" x="593" y="-28.5" font-family="FreeSans.ttf" font-size="10.00">main</text>
</a>
</g>
<!-- Node3&#45;&gt;Node4 -->
<g id="edge6" class="edge"><title>Node3&#45;&gt;Node4</title>
<path fill="none" stroke="midnightblue" d="M545.642,-40.2859C555.139,-38.4236 564.468,-36.5946 572.3,-35.0588"/>
<polygon fill="midnightblue" stroke="midnightblue" points="544.878,-36.8689 535.739,-42.2277 546.225,-43.7381 544.878,-36.8689"/>
</g>
<!-- Node6 -->
<g id="node11" class="node"><title>Node6</title>
<a xlink:href="classServer.xhtml#a19a1e493e1fb50a56d9c77332543d565" target="_top" xlink:title="Start the NAMS Server. Responsible for calling all critical boot&#45;time functions such as SocketServer ...">
<polygon fill="white" stroke="black" points="446,-0.5 446,-21.5 536,-21.5 536,-0.5 446,-0.5"/>
<text text-anchor="middle" x="491" y="-8.5" font-family="FreeSans.ttf" font-size="10.00">Server::Startup</text>
</a>
</g>
<!-- Node5&#45;&gt;Node6 -->
<g id="edge10" class="edge"><title>Node5&#45;&gt;Node6</title>
<path fill="none" stroke="midnightblue" d="M420.472,-11C429.133,-11 437.747,-11 445.826,-11"/>
<polygon fill="midnightblue" stroke="midnightblue" points="420.314,-7.5001 410.313,-11 420.313,-14.5001 420.314,-7.5001"/>
</g>
<!-- Node6&#45;&gt;Node4 -->
<g id="edge12" class="edge"><title>Node6&#45;&gt;Node4</title>
<path fill="none" stroke="midnightblue" d="M545.904,-21.7655C555.364,-23.6205 564.644,-25.44 572.432,-26.967"/>
<polygon fill="midnightblue" stroke="midnightblue" points="546.522,-18.3201 536.036,-19.8305 545.175,-25.1893 546.522,-18.3201"/>
</g>
<!-- Node7&#45;&gt;Node2 -->
<g id="edge16" class="edge"><title>Node7&#45;&gt;Node2</title>
<path fill="none" stroke="midnightblue" d="M254.527,-50.4087C266.42,-50.4864 278.779,-50.5672 290.401,-50.6431"/>
<polygon fill="midnightblue" stroke="midnightblue" points="254.249,-46.9069 244.226,-50.3413 254.203,-53.9067 254.249,-46.9069"/>
</g>
</g>
</svg>
        <g id="navigator" transform="translate(0 0)" fill="#404254">
                <rect fill="#f2f5e9" fill-opacity="0.5" stroke="#606060" stroke-width=".5" x="0" y="0" width="60" height="60"/>
                <use id="zoomplus" xlink:href="#zoomPlus" x="17" y="9" onmousedown="handleZoom(evt,'in')"/>
                <use id="zoomminus" xlink:href="#zoomMin" x="42" y="9" onmousedown="handleZoom(evt,'out')"/>
                <use id="reset" xlink:href="#resetDef" x="30" y="36" onmousedown="handleReset()"/>
                <g id="arrowUp" xlink:href="#dirArrow" transform="translate(30 24)" onmousedown="handlePan(0,-1)">
                  <use xlink:href="#rim" fill="#404040">
                        <set attributeName="fill" to="#808080" begin="arrowUp.mouseover" end="arrowUp.mouseout"/>
                  </use>
                  <path fill="none" stroke="white" stroke-width="1.5" d="M0,-3.0v7 M-2.5,-0.5L0,-3.0L2.5,-0.5"/>
                </g>
                <g id="arrowRight" xlink:href="#dirArrow" transform="rotate(90) translate(36 -43)" onmousedown="handlePan(1,0)">
                  <use xlink:href="#rim" fill="#404040">
                        <set attributeName="fill" to="#808080" begin="arrowRight.mouseover" end="arrowRight.mouseout"/>
                  </use>
                  <path fill="none" stroke="white" stroke-width="1.5" d="M0,-3.0v7 M-2.5,-0.5L0,-3.0L2.5,-0.5"/>
                </g>
                <g id="arrowDown" xlink:href="#dirArrow" transform="rotate(180) translate(-30 -48)" onmousedown="handlePan(0,1)">
                  <use xlink:href="#rim" fill="#404040">
                        <set attributeName="fill" to="#808080" begin="arrowDown.mouseover" end="arrowDown.mouseout"/>
                  </use>
                  <path fill="none" stroke="white" stroke-width="1.5" d="M0,-3.0v7 M-2.5,-0.5L0,-3.0L2.5,-0.5"/>
                </g>
                <g id="arrowLeft" xlink:href="#dirArrow" transform="rotate(270) translate(-36 17)" onmousedown="handlePan(-1,0)">
                  <use xlink:href="#rim" fill="#404040">
                        <set attributeName="fill" to="#808080" begin="arrowLeft.mouseover" end="arrowLeft.mouseout"/>
                  </use>
                  <path fill="none" stroke="white" stroke-width="1.5" d="M0,-3.0v7 M-2.5,-0.5L0,-3.0L2.5,-0.5"/>
                </g>
        </g>
</svg>
