<?xml version="1.0" encoding="UTF-8" standalone="no"?>
<!DOCTYPE svg PUBLIC "-//W3C//DTD SVG 1.1//EN"
 "http://www.w3.org/Graphics/SVG/1.1/DTD/svg11.dtd">
<!-- Generated by graphviz version 2.26.3 (20100126.1600)
 -->
<!-- Title: Event Pages: 1 -->
<!--zoomable 1146 -->
<svg id="main" version="1.1" xmlns="http://www.w3.org/2000/svg" xmlns:xlink="http://www.w3.org/1999/xlink" xml:space="preserve" onload="init(evt)">
        <defs>
                <circle id="rim" cx="0" cy="0" r="7"/>
                <circle id="rim2" cx="0" cy="0" r="3.5"/>
                <g id="zoomPlus">
                        <use xlink:href="#rim" fill="#404040">
                                <set attributeName="fill" to="#808080" begin="zoomplus.mouseover" end="zoomplus.mouseout"/>
                        </use>
                        <path d="M-4,0h8M0,-4v8" fill="none" stroke="white" stroke-width="1.5" pointer-events="none"/>
                </g>
                <g id="zoomMin">
                        <use xlink:href="#rim" fill="#404040">
                                <set attributeName="fill" to="#808080" begin="zoomminus.mouseover" end="zoomminus.mouseout"/>
                        </use>
                        <path d="M-4,0h8" fill="none" stroke="white" stroke-width="1.5" pointer-events="none"/>
                </g>
                <g id="dirArrow">
                        <path fill="none" stroke="white" stroke-width="1.5" d="M0,-3.0v7 M-2.5,-0.5L0,-3.0L2.5,-0.5"/>
                </g>
               <g id="resetDef">
                       <use xlink:href="#rim2" fill="#404040">
                               <set attributeName="fill" to="#808080" begin="reset.mouseover" end="reset.mouseout"/>
                       </use>
               </g>
        </defs>

<script type="text/javascript">
var viewWidth = 1344;
var viewHeight = 1146;
var sectionId = 'dynsection-0';
</script>
<script xlink:href="svgpan.js"/>
<svg id="graph" class="graph">
<g id="viewport">
<title>Event</title>
<polygon fill="white" stroke="white" points="-4,5 -4,-1141.9 1341,-1141.9 1341,5 -4,5"/>
<!-- Node1 -->
<g id="node1" class="node"><title>Node1</title>
<polygon fill="#bfbfbf" stroke="black" points="1292,-703.898 1292,-723.898 1336,-723.898 1336,-703.898 1292,-703.898"/>
<text text-anchor="middle" x="1314" y="-710.898" font-family="FreeSans.ttf" font-size="10.00">Event</text>
</g>
<!-- Node2 -->
<g id="node2" class="node"><title>Node2</title>
<a xlink:href="classCommand.xhtml" target="_top" xlink:title="Functions that are built and loaded independently as Plugin objects.">
<polygon fill="white" stroke="black" points="778.5,-946.898 778.5,-966.898 845.5,-966.898 845.5,-946.898 778.5,-946.898"/>
<text text-anchor="middle" x="812" y="-953.898" font-family="FreeSans.ttf" font-size="10.00">Command</text>
</a>
</g>
<!-- Node2&#45;&gt;Node1 -->
<g id="edge2" class="edge"><title>Node2&#45;&gt;Node1</title>
<path fill="none" stroke="#9a32cd" stroke-dasharray="5,2" d="M855.764,-954.273C945.359,-946.658 1151.53,-917.341 1274,-805.898 1298.73,-783.393 1308.87,-742.895 1312.39,-724.053"/>
<polygon fill="#9a32cd" stroke="#9a32cd" points="855.372,-950.793 845.682,-955.079 855.93,-957.771 855.372,-950.793"/>
<text text-anchor="middle" x="1076" y="-923.898" font-family="FreeSans.ttf" font-size="10.00"> m_command</text>
</g>
<!-- Node3 -->
<g id="node4" class="node"><title>Node3</title>
<a xlink:href="classPlugin.xhtml" target="_top" xlink:title="Functions that are indepdently built and loaded to extend the server core via an API.">
<polygon fill="white" stroke="black" points="518.5,-977.898 518.5,-997.898 563.5,-997.898 563.5,-977.898 518.5,-977.898"/>
<text text-anchor="middle" x="541" y="-984.898" font-family="FreeSans.ttf" font-size="10.00">Plugin</text>
</a>
</g>
<!-- Node3&#45;&gt;Node2 -->
<g id="edge4" class="edge"><title>Node3&#45;&gt;Node2</title>
<path fill="none" stroke="#9a32cd" stroke-dasharray="5,2" d="M573.621,-984.167C625.431,-978.24 726.01,-966.735 778.416,-960.74"/>
<polygon fill="#9a32cd" stroke="#9a32cd" points="573.177,-980.695 563.639,-985.308 573.972,-987.649 573.177,-980.695"/>
<text text-anchor="middle" x="680" y="-979.898" font-family="FreeSans.ttf" font-size="10.00"> m_plg</text>
</g>
<!-- Node4 -->
<g id="node6" class="node"><title>Node4</title>
<a xlink:title="STL class.">
<polygon fill="white" stroke="#bfbfbf" points="216.5,-619.898 216.5,-639.898 281.5,-639.898 281.5,-619.898 216.5,-619.898"/>
<text text-anchor="middle" x="249" y="-626.898" font-family="FreeSans.ttf" font-size="10.00">std::string</text>
</a>
</g>
<!-- Node4&#45;&gt;Node1 -->
<g id="edge102" class="edge"><title>Node4&#45;&gt;Node1</title>
<path fill="none" stroke="#9a32cd" stroke-dasharray="5,2" d="M262.622,-648.178C276.549,-665.445 299.806,-690.62 326,-703.898 445.218,-764.331 787.339,-791.898 921,-791.898 921,-791.898 921,-791.898 1160,-791.898 1219.34,-791.898 1279.01,-745.238 1303.01,-724.095"/>
<polygon fill="#9a32cd" stroke="#9a32cd" points="265.133,-645.706 256.224,-639.973 259.614,-650.011 265.133,-645.706"/>
<text text-anchor="middle" x="921" y="-806.898" font-family="FreeSans.ttf" font-size="10.00"> m_cmd</text>
<text text-anchor="middle" x="921" y="-794.898" font-family="FreeSans.ttf" font-size="10.00">m_args</text>
</g>
<!-- Node4&#45;&gt;Node2 -->
<g id="edge18" class="edge"><title>Node4&#45;&gt;Node2</title>
<path fill="none" stroke="#9a32cd" stroke-dasharray="5,2" d="M254.487,-649.929C263.865,-680.217 285.956,-737.267 326,-766.898 372.812,-801.538 404.693,-763.913 454,-794.898 464.991,-801.805 461.646,-810.069 472,-817.898 498.641,-838.042 709.38,-918.306 785.059,-946.8"/>
<polygon fill="#9a32cd" stroke="#9a32cd" points="257.771,-648.692 251.597,-640.082 251.054,-650.663 257.771,-648.692"/>
<text text-anchor="middle" x="541" y="-879.898" font-family="FreeSans.ttf" font-size="10.00"> m_plg_file</text>
</g>
<!-- Node4&#45;&gt;Node3 -->
<g id="edge6" class="edge"><title>Node4&#45;&gt;Node3</title>
<path fill="none" stroke="#9a32cd" stroke-dasharray="5,2" d="M252.653,-650.063C260.592,-689.765 282.322,-779.61 326,-841.898 374.55,-911.133 398.424,-922.219 472,-963.898 486.567,-972.15 504.457,-978.273 518.37,-982.269"/>
<polygon fill="#9a32cd" stroke="#9a32cd" points="256.054,-649.215 250.734,-640.053 249.179,-650.533 256.054,-649.215"/>
<text text-anchor="middle" x="390" y="-966.898" font-family="FreeSans.ttf" font-size="10.00"> m_string</text>
<text text-anchor="middle" x="390" y="-954.898" font-family="FreeSans.ttf" font-size="10.00">m_name</text>
</g>
<!-- Node11 -->
<g id="node24" class="node"><title>Node11</title>
<a xlink:href="classSocketClient.xhtml" target="_top" xlink:title="SocketClient extends the Socket class to implement remote&#45;host socket functions.">
<polygon fill="white" stroke="black" points="773.5,-451.898 773.5,-471.898 850.5,-471.898 850.5,-451.898 773.5,-451.898"/>
<text text-anchor="middle" x="812" y="-458.898" font-family="FreeSans.ttf" font-size="10.00">SocketClient</text>
</a>
</g>
<!-- Node4&#45;&gt;Node11 -->
<g id="edge94" class="edge"><title>Node4&#45;&gt;Node11</title>
<path fill="none" stroke="#9a32cd" stroke-dasharray="5,2" d="M253.869,-610.043C262.601,-579.017 284.058,-519.624 326,-490.898 398.177,-441.463 671.389,-453.013 773.333,-459.245"/>
<polygon fill="#9a32cd" stroke="#9a32cd" points="250.479,-609.174 251.299,-619.737 257.245,-610.968 250.479,-609.174"/>
<text text-anchor="middle" x="541" y="-483.898" font-family="FreeSans.ttf" font-size="10.00"> m_output</text>
<text text-anchor="middle" x="541" y="-471.898" font-family="FreeSans.ttf" font-size="10.00">m_input</text>
<text text-anchor="middle" x="541" y="-459.898" font-family="FreeSans.ttf" font-size="10.00">m_login</text>
</g>
<!-- Node12 -->
<g id="node26" class="node"><title>Node12</title>
<a xlink:href="classSocket.xhtml" target="_top" xlink:title="Functions and interfaces that are common to both SocketClient and SocketServer.">
<polygon fill="white" stroke="black" points="516,-297.898 516,-317.898 566,-317.898 566,-297.898 516,-297.898"/>
<text text-anchor="middle" x="541" y="-304.898" font-family="FreeSans.ttf" font-size="10.00">Socket</text>
</a>
</g>
<!-- Node4&#45;&gt;Node12 -->
<g id="edge34" class="edge"><title>Node4&#45;&gt;Node12</title>
<path fill="none" stroke="#9a32cd" stroke-dasharray="5,2" d="M251.514,-609.823C257.418,-570.951 275.686,-484.924 326,-435.898 369.405,-393.605 412.145,-432.725 454,-388.898 472.348,-369.686 453.488,-350.953 472,-331.898 483.578,-319.981 501.374,-313.976 515.994,-310.953"/>
<polygon fill="#9a32cd" stroke="#9a32cd" points="248.027,-609.487 250.109,-619.876 254.96,-610.457 248.027,-609.487"/>
<text text-anchor="middle" x="390" y="-438.898" font-family="FreeSans.ttf" font-size="10.00"> m_hostname</text>
</g>
<!-- Node14 -->
<g id="node32" class="node"><title>Node14</title>
<a xlink:href="classAccount.xhtml" target="_top" xlink:title="Security structure to maintain characters, roles, and permissions.">
<polygon fill="white" stroke="black" points="968,-443.898 968,-463.898 1024,-463.898 1024,-443.898 968,-443.898"/>
<text text-anchor="middle" x="996" y="-450.898" font-family="FreeSans.ttf" font-size="10.00">Account</text>
</a>
</g>
<!-- Node4&#45;&gt;Node14 -->
<g id="edge42" class="edge"><title>Node4&#45;&gt;Node14</title>
<path fill="none" stroke="#9a32cd" stroke-dasharray="5,2" d="M267.005,-612.386C281.583,-599.506 303.353,-583.048 326,-575.898 380.25,-558.771 402.591,-551.537 454,-575.898 465.416,-581.308 460.584,-592.488 472,-597.898 527.425,-624.163 549.588,-608.49 610,-597.898 614.946,-597.031 945.351,-476.797 950,-474.898 958.127,-471.579 966.924,-467.649 974.628,-464.091"/>
<polygon fill="#9a32cd" stroke="#9a32cd" points="264.3,-610.118 259.301,-619.459 269.034,-615.274 264.3,-610.118"/>
<text text-anchor="middle" x="680" y="-605.898" font-family="FreeSans.ttf" font-size="10.00"> m_password</text>
<text text-anchor="middle" x="680" y="-593.898" font-family="FreeSans.ttf" font-size="10.00">m_id</text>
</g>
<!-- Node15 -->
<g id="node36" class="node"><title>Node15</title>
<polygon fill="white" stroke="#bfbfbf" points="482.5,-218.898 482.5,-238.898 599.5,-238.898 599.5,-218.898 482.5,-218.898"/>
<text text-anchor="middle" x="541" y="-225.898" font-family="FreeSans.ttf" font-size="10.00">std::vector&lt; string &gt;</text>
</g>
<!-- Node4&#45;&gt;Node15 -->
<g id="edge46" class="edge"><title>Node4&#45;&gt;Node15</title>
<path fill="none" stroke="#9a32cd" stroke-dasharray="5,2" d="M253.749,-609.943C270.327,-540.321 324.691,-312.317 326,-310.898 366.605,-266.898 398.266,-290.772 454,-268.898 477.367,-259.727 503.437,-247.458 520.891,-238.937"/>
<polygon fill="#9a32cd" stroke="#9a32cd" points="250.338,-609.159 251.427,-619.697 257.148,-610.78 250.338,-609.159"/>
<text text-anchor="middle" x="390" y="-313.898" font-family="FreeSans.ttf" font-size="10.00"> elements</text>
</g>
<!-- Node18 -->
<g id="node44" class="node"><title>Node18</title>
<a xlink:href="classCharacter.xhtml" target="_top" xlink:title="An actor within the game world.">
<polygon fill="white" stroke="black" points="1128,-627.898 1128,-647.898 1192,-647.898 1192,-627.898 1128,-627.898"/>
<text text-anchor="middle" x="1160" y="-634.898" font-family="FreeSans.ttf" font-size="10.00">Character</text>
</a>
</g>
<!-- Node4&#45;&gt;Node18 -->
<g id="edge72" class="edge"><title>Node4&#45;&gt;Node18</title>
<path fill="none" stroke="#9a32cd" stroke-dasharray="5,2" d="M267.808,-646.834C282.536,-659.05 304.129,-674.766 326,-682.898 387.184,-705.649 406.82,-695.337 472,-698.898 650.579,-708.654 695.646,-694.157 874,-680.898 978.939,-673.097 1008.42,-689.349 1110,-661.898 1121.53,-658.783 1133.62,-653.055 1143.02,-647.976"/>
<polygon fill="#9a32cd" stroke="#9a32cd" points="269.852,-643.976 259.98,-640.13 265.299,-649.293 269.852,-643.976"/>
<text text-anchor="middle" x="812" y="-693.898" font-family="FreeSans.ttf" font-size="10.00"> m_file</text>
</g>
<!-- Node19 -->
<g id="node46" class="node"><title>Node19</title>
<a xlink:href="classThing.xhtml" target="_top" xlink:title="A generic &quot;thing&quot;: creature, character, room, object, etc.">
<polygon fill="white" stroke="black" points="520,-639.898 520,-659.898 562,-659.898 562,-639.898 520,-639.898"/>
<text text-anchor="middle" x="541" y="-646.898" font-family="FreeSans.ttf" font-size="10.00">Thing</text>
</a>
</g>
<!-- Node4&#45;&gt;Node19 -->
<g id="edge64" class="edge"><title>Node4&#45;&gt;Node19</title>
<path fill="none" stroke="#9a32cd" stroke-dasharray="5,2" d="M291.719,-632.824C355.121,-637.167 471.782,-645.157 519.65,-648.436"/>
<polygon fill="#9a32cd" stroke="#9a32cd" points="291.862,-629.326 281.646,-632.134 291.384,-636.309 291.862,-629.326"/>
<text text-anchor="middle" x="390" y="-669.898" font-family="FreeSans.ttf" font-size="10.00"> m_description</text>
<text text-anchor="middle" x="390" y="-657.898" font-family="FreeSans.ttf" font-size="10.00">m_id</text>
<text text-anchor="middle" x="390" y="-645.898" font-family="FreeSans.ttf" font-size="10.00">m_name</text>
</g>
<!-- Node5 -->
<g id="node8" class="node"><title>Node5</title>
<a xlink:title="STL class.">
<polygon fill="white" stroke="#bfbfbf" points="0.5,-613.898 0.5,-645.898 103.5,-645.898 103.5,-613.898 0.5,-613.898"/>
<text text-anchor="start" x="8.5" y="-632.898" font-family="FreeSans.ttf" font-size="10.00">std::basic_string&lt;</text>
<text text-anchor="middle" x="52" y="-620.898" font-family="FreeSans.ttf" font-size="10.00"> char &gt;</text>
</a>
</g>
<!-- Node5&#45;&gt;Node4 -->
<g id="edge8" class="edge"><title>Node5&#45;&gt;Node4</title>
<path fill="none" stroke="midnightblue" d="M113.799,-629.898C147.752,-629.898 188.494,-629.898 216.318,-629.898"/>
<polygon fill="midnightblue" stroke="midnightblue" points="113.502,-626.398 103.502,-629.898 113.502,-633.398 113.502,-626.398"/>
</g>
<!-- Node6 -->
<g id="node10" class="node"><title>Node6</title>
<polygon fill="white" stroke="#bfbfbf" points="230.5,-842.898 230.5,-862.898 267.5,-862.898 267.5,-842.898 230.5,-842.898"/>
<text text-anchor="middle" x="249" y="-849.898" font-family="FreeSans.ttf" font-size="10.00">bool</text>
</g>
<!-- Node6&#45;&gt;Node2 -->
<g id="edge20" class="edge"><title>Node6&#45;&gt;Node2</title>
<path fill="none" stroke="#9a32cd" stroke-dasharray="5,2" d="M277.571,-860.109C319.863,-870.63 401.708,-890.399 472,-903.898 583.47,-925.305 716.763,-944.131 778.083,-952.415"/>
<polygon fill="#9a32cd" stroke="#9a32cd" points="278.252,-856.672 267.702,-857.643 276.555,-863.463 278.252,-856.672"/>
<text text-anchor="middle" x="541" y="-941.898" font-family="FreeSans.ttf" font-size="10.00"> m_preempt</text>
<text text-anchor="middle" x="541" y="-929.898" font-family="FreeSans.ttf" font-size="10.00">m_disabled</text>
</g>
<!-- Node6&#45;&gt;Node3 -->
<g id="edge10" class="edge"><title>Node6&#45;&gt;Node3</title>
<path fill="none" stroke="#9a32cd" stroke-dasharray="5,2" d="M253.221,-873.256C261.136,-905.547 281.583,-967.546 326,-993.898 357.873,-1012.81 469.583,-998.786 518.157,-991.532"/>
<polygon fill="#9a32cd" stroke="#9a32cd" points="256.56,-872.153 250.926,-863.18 249.735,-873.708 256.56,-872.153"/>
<text text-anchor="middle" x="390" y="-1005.9" font-family="FreeSans.ttf" font-size="10.00"> m_bool</text>
</g>
<!-- Node6&#45;&gt;Node11 -->
<g id="edge92" class="edge"><title>Node6&#45;&gt;Node11</title>
<path fill="none" stroke="#9a32cd" stroke-dasharray="5,2" d="M255.213,-833.157C265.431,-803.712 288.477,-748.292 326,-715.898 372.109,-676.091 411.074,-710.118 454,-666.898 470.056,-650.732 456.254,-635.365 472,-618.898 558.836,-528.089 619.564,-563.978 732,-507.898 754.652,-496.6 779.817,-481.726 795.764,-471.993"/>
<polygon fill="#9a32cd" stroke="#9a32cd" points="251.861,-832.145 252.025,-842.739 258.503,-834.355 251.861,-832.145"/>
<text text-anchor="middle" x="541" y="-621.898" font-family="FreeSans.ttf" font-size="10.00"> m_quitting</text>
</g>
<!-- Node6&#45;&gt;Node18 -->
<g id="edge74" class="edge"><title>Node6&#45;&gt;Node18</title>
<path fill="none" stroke="#9a32cd" stroke-dasharray="5,2" d="M277.711,-851.533C317.404,-849.51 391.254,-845.257 454,-838.898 752.997,-808.597 840.42,-807.729 1110,-674.898 1124.53,-667.739 1139.2,-656.266 1148.86,-647.993"/>
<polygon fill="#9a32cd" stroke="#9a32cd" points="277.503,-848.039 267.69,-852.033 277.852,-855.03 277.503,-848.039"/>
<text text-anchor="middle" x="812" y="-805.898" font-family="FreeSans.ttf" font-size="10.00"> m_creation</text>
</g>
<!-- Node25 -->
<g id="node73" class="node"><title>Node25</title>
<a xlink:href="classSocketClient_1_1TermInfo.xhtml" target="_top" xlink:title="Remote terminal information and configuration.">
<polygon fill="white" stroke="black" points="479.5,-515.898 479.5,-535.898 602.5,-535.898 602.5,-515.898 479.5,-515.898"/>
<text text-anchor="middle" x="541" y="-522.898" font-family="FreeSans.ttf" font-size="10.00">SocketClient::TermInfo</text>
</a>
</g>
<!-- Node6&#45;&gt;Node25 -->
<g id="edge100" class="edge"><title>Node6&#45;&gt;Node25</title>
<path fill="none" stroke="#9a32cd" stroke-dasharray="5,2" d="M255.748,-833.046C267.827,-796.843 293.256,-717.496 308,-648.898 313.944,-621.245 304.633,-541.43 326,-522.898 379.3,-476.671 471.087,-500.336 515.481,-515.89"/>
<polygon fill="#9a32cd" stroke="#9a32cd" points="252.325,-832.243 252.454,-842.837 258.96,-834.475 252.325,-832.243"/>
<text text-anchor="middle" x="390" y="-537.898" font-family="FreeSans.ttf" font-size="10.00"> m_telopt</text>
<text text-anchor="middle" x="390" y="-525.898" font-family="FreeSans.ttf" font-size="10.00">m_negotiated</text>
</g>
<!-- Node7 -->
<g id="node12" class="node"><title>Node7</title>
<polygon fill="white" stroke="#bfbfbf" points="211.5,-353.898 211.5,-373.898 286.5,-373.898 286.5,-353.898 211.5,-353.898"/>
<text text-anchor="middle" x="249" y="-360.898" font-family="FreeSans.ttf" font-size="10.00">unsigned int</text>
</g>
<!-- Node7&#45;&gt;Node1 -->
<g id="edge104" class="edge"><title>Node7&#45;&gt;Node1</title>
<path fill="none" stroke="#9a32cd" stroke-dasharray="5,2" d="M264.5,-345.791C278.249,-328.686 297.703,-301.721 308,-274.898 317.743,-249.519 305.698,-171.977 326,-153.898 375.399,-109.911 854.855,-134.898 921,-134.898 921,-134.898 921,-134.898 1160,-134.898 1282.74,-134.898 1310.06,-626.963 1313.57,-703.849"/>
<polygon fill="#9a32cd" stroke="#9a32cd" points="261.571,-343.842 257.908,-353.783 266.971,-348.295 261.571,-343.842"/>
<text text-anchor="middle" x="921" y="-149.898" font-family="FreeSans.ttf" font-size="10.00"> m_time</text>
<text text-anchor="middle" x="921" y="-137.898" font-family="FreeSans.ttf" font-size="10.00">m_type</text>
</g>
<!-- Node7&#45;&gt;Node2 -->
<g id="edge22" class="edge"><title>Node7&#45;&gt;Node2</title>
<path fill="none" stroke="#9a32cd" stroke-dasharray="5,2" d="M253.753,-383.85C270.344,-453.459 324.748,-681.428 326,-682.898 414.731,-787.091 489.525,-736.974 610,-801.898 667.512,-832.892 680.619,-843.547 732,-883.898 758.321,-904.569 786.716,-931.787 801.576,-946.454"/>
<polygon fill="#9a32cd" stroke="#9a32cd" points="257.152,-383.013 251.429,-374.097 250.343,-384.636 257.152,-383.013"/>
<text text-anchor="middle" x="541" y="-804.898" font-family="FreeSans.ttf" font-size="10.00"> m_security</text>
</g>
<!-- Node7&#45;&gt;Node3 -->
<g id="edge12" class="edge"><title>Node7&#45;&gt;Node3</title>
<path fill="none" stroke="#9a32cd" stroke-dasharray="5,2" d="M254.313,-383.997C265.289,-425.952 290.873,-525.999 308,-610.898 317.71,-659.029 300.314,-678.052 326,-719.898 362.923,-780.051 418.416,-752.943 454,-813.898 487.851,-871.886 429.898,-911.593 472,-963.898 483.134,-977.73 502.726,-983.611 518.195,-986.101"/>
<polygon fill="#9a32cd" stroke="#9a32cd" points="257.663,-382.976 251.737,-374.194 250.893,-384.755 257.663,-382.976"/>
<text text-anchor="middle" x="390" y="-828.898" font-family="FreeSans.ttf" font-size="10.00"> m_uint</text>
<text text-anchor="middle" x="390" y="-816.898" font-family="FreeSans.ttf" font-size="10.00">m_type</text>
</g>
<!-- Node7&#45;&gt;Node11 -->
<g id="edge96" class="edge"><title>Node7&#45;&gt;Node11</title>
<path fill="none" stroke="#9a32cd" stroke-dasharray="5,2" d="M286.095,-377.138C298.627,-381.159 312.79,-385.217 326,-387.898 450.301,-413.122 484.808,-395.555 610,-415.898 667.868,-425.301 733.937,-441.379 774.304,-451.82"/>
<polygon fill="#9a32cd" stroke="#9a32cd" points="287.037,-373.764 276.444,-373.949 284.841,-380.41 287.037,-373.764"/>
<text text-anchor="middle" x="541" y="-430.898" font-family="FreeSans.ttf" font-size="10.00"> m_idle</text>
<text text-anchor="middle" x="541" y="-418.898" font-family="FreeSans.ttf" font-size="10.00">m_state</text>
</g>
<!-- Node7&#45;&gt;Node12 -->
<g id="edge36" class="edge"><title>Node7&#45;&gt;Node12</title>
<path fill="none" stroke="#9a32cd" stroke-dasharray="5,2" d="M296.61,-354.767C359.32,-342.741 467.324,-322.028 515.967,-312.699"/>
<polygon fill="#9a32cd" stroke="#9a32cd" points="295.738,-351.371 286.576,-356.692 297.056,-358.246 295.738,-351.371"/>
<text text-anchor="middle" x="390" y="-375.898" font-family="FreeSans.ttf" font-size="10.00"> m_bytes_sent</text>
<text text-anchor="middle" x="390" y="-363.898" font-family="FreeSans.ttf" font-size="10.00">m_port</text>
<text text-anchor="middle" x="390" y="-351.898" font-family="FreeSans.ttf" font-size="10.00">m_bytes_recvd</text>
</g>
<!-- Node7&#45;&gt;Node14 -->
<g id="edge52" class="edge"><title>Node7&#45;&gt;Node14</title>
<path fill="none" stroke="#9a32cd" stroke-dasharray="5,2" d="M261.906,-345.296C274.139,-327.465 292.845,-299.678 308,-274.898 316.514,-260.977 311.914,-251.136 326,-242.898 375.107,-214.178 397.682,-234.861 454,-242.898 457.981,-243.466 728.251,-322.442 732,-323.898 827.957,-361.176 936.416,-420.311 978.246,-443.8"/>
<polygon fill="#9a32cd" stroke="#9a32cd" points="258.946,-343.424 256.152,-353.643 264.709,-347.396 258.946,-343.424"/>
<text text-anchor="middle" x="680" y="-326.898" font-family="FreeSans.ttf" font-size="10.00"> m_security</text>
</g>
<!-- Node7&#45;&gt;Node18 -->
<g id="edge76" class="edge"><title>Node7&#45;&gt;Node18</title>
<path fill="none" stroke="#9a32cd" stroke-dasharray="5,2" d="M264.288,-345.707C277.891,-328.545 297.249,-301.542 308,-274.898 324.571,-233.831 291.975,-205.243 326,-176.898 352.404,-154.902 682.067,-135.875 874,-194.898 1076.13,-257.057 1146.35,-567.74 1158.13,-627.827"/>
<polygon fill="#9a32cd" stroke="#9a32cd" points="261.36,-343.761 257.775,-353.731 266.795,-348.173 261.36,-343.761"/>
<text text-anchor="middle" x="812" y="-197.898" font-family="FreeSans.ttf" font-size="10.00"> m_sex</text>
</g>
<!-- Node7&#45;&gt;Node19 -->
<g id="edge68" class="edge"><title>Node7&#45;&gt;Node19</title>
<path fill="none" stroke="#9a32cd" stroke-dasharray="5,2" d="M252.365,-384.457C259.51,-422.052 279.508,-502.464 326,-550.898 354.67,-580.766 471.409,-624.95 519.814,-642.409"/>
<polygon fill="#9a32cd" stroke="#9a32cd" points="255.746,-383.478 250.546,-374.247 248.855,-384.706 255.746,-383.478"/>
<text text-anchor="middle" x="390" y="-619.898" font-family="FreeSans.ttf" font-size="10.00"> m_type</text>
</g>
<!-- Node8 -->
<g id="node14" class="node"><title>Node8</title>
<polygon fill="white" stroke="#bfbfbf" points="227,-1077.9 227,-1097.9 271,-1097.9 271,-1077.9 227,-1077.9"/>
<text text-anchor="middle" x="249" y="-1084.9" font-family="FreeSans.ttf" font-size="10.00">void *</text>
</g>
<!-- Node8&#45;&gt;Node2 -->
<g id="edge26" class="edge"><title>Node8&#45;&gt;Node2</title>
<path fill="none" stroke="#9a32cd" stroke-dasharray="5,2" d="M280.871,-1096.72C362.454,-1117.39 582.898,-1160.95 732,-1074.9 775.302,-1049.91 800.078,-990.886 808.603,-967.098"/>
<polygon fill="#9a32cd" stroke="#9a32cd" points="281.74,-1093.33 271.181,-1094.21 279.982,-1100.11 281.74,-1093.33"/>
<text text-anchor="middle" x="541" y="-1128.9" font-family="FreeSans.ttf" font-size="10.00"> m_plg_handle</text>
</g>
<!-- Node8&#45;&gt;Node3 -->
<g id="edge14" class="edge"><title>Node8&#45;&gt;Node3</title>
<path fill="none" stroke="#9a32cd" stroke-dasharray="5,2" d="M281.198,-1085.73C324.099,-1081.45 400.771,-1068.84 454,-1031.9 465.248,-1024.09 460.76,-1014.72 472,-1006.9 485.668,-997.391 503.933,-992.631 518.237,-990.253"/>
<polygon fill="#9a32cd" stroke="#9a32cd" points="280.697,-1082.26 271.053,-1086.65 281.328,-1089.23 280.697,-1082.26"/>
<text text-anchor="middle" x="390" y="-1081.9" font-family="FreeSans.ttf" font-size="10.00"> m_caller</text>
</g>
<!-- Node9 -->
<g id="node16" class="node"><title>Node9</title>
<polygon fill="white" stroke="#bfbfbf" points="498.5,-1053.9 498.5,-1073.9 583.5,-1073.9 583.5,-1053.9 498.5,-1053.9"/>
<text text-anchor="middle" x="541" y="-1060.9" font-family="FreeSans.ttf" font-size="10.00">PluginDelete *</text>
</g>
<!-- Node9&#45;&gt;Node2 -->
<g id="edge16" class="edge"><title>Node9&#45;&gt;Node2</title>
<path fill="none" stroke="#9a32cd" stroke-dasharray="5,2" d="M593.766,-1062.8C633.575,-1060.11 688.563,-1052.35 732,-1030.9 763.552,-1015.31 791.486,-983.312 804.404,-966.975"/>
<polygon fill="#9a32cd" stroke="#9a32cd" points="593.509,-1059.31 583.732,-1063.39 593.921,-1066.29 593.509,-1059.31"/>
<text text-anchor="middle" x="680" y="-1061.9" font-family="FreeSans.ttf" font-size="10.00"> m_plg_delete</text>
</g>
<!-- Node10 -->
<g id="node21" class="node"><title>Node10</title>
<polygon fill="white" stroke="#bfbfbf" points="504,-1015.9 504,-1035.9 578,-1035.9 578,-1015.9 504,-1015.9"/>
<text text-anchor="middle" x="541" y="-1022.9" font-family="FreeSans.ttf" font-size="10.00">PluginNew *</text>
</g>
<!-- Node10&#45;&gt;Node2 -->
<g id="edge24" class="edge"><title>Node10&#45;&gt;Node2</title>
<path fill="none" stroke="#9a32cd" stroke-dasharray="5,2" d="M588.309,-1021.08C627.438,-1016.31 684.148,-1007.54 732,-992.898 753.7,-986.258 777.241,-975.152 793.128,-967.028"/>
<polygon fill="#9a32cd" stroke="#9a32cd" points="587.78,-1017.62 578.259,-1022.27 588.601,-1024.57 587.78,-1017.62"/>
<text text-anchor="middle" x="680" y="-1017.9" font-family="FreeSans.ttf" font-size="10.00"> m_plg_new</text>
</g>
<!-- Node11&#45;&gt;Node1 -->
<g id="edge28" class="edge"><title>Node11&#45;&gt;Node1</title>
<path fill="none" stroke="#9a32cd" stroke-dasharray="5,2" d="M831.472,-478.756C886.343,-525.031 1048.76,-653.651 1210,-699.898 1237.49,-707.784 1270.38,-711.263 1291.7,-712.774"/>
<polygon fill="#9a32cd" stroke="#9a32cd" points="833.49,-475.877 823.606,-472.062 828.953,-481.208 833.49,-475.877"/>
<text text-anchor="middle" x="1076" y="-661.898" font-family="FreeSans.ttf" font-size="10.00"> m_client</text>
</g>
<!-- Node11&#45;&gt;Node14 -->
<g id="edge40" class="edge"><title>Node11&#45;&gt;Node14</title>
<path fill="none" stroke="#9a32cd" stroke-dasharray="5,2" d="M854.192,-449.3C866.287,-446.249 879.567,-443.429 892,-441.898 917.585,-438.749 924.432,-438.618 950,-441.898 955.73,-442.633 961.766,-443.864 967.512,-445.263"/>
<polygon fill="#9a32cd" stroke="#9a32cd" points="853.133,-445.959 844.355,-451.893 854.917,-452.728 853.133,-445.959"/>
<text text-anchor="middle" x="921" y="-444.898" font-family="FreeSans.ttf" font-size="10.00"> m_client</text>
</g>
<!-- Node12&#45;&gt;Node11 -->
<g id="edge30" class="edge"><title>Node12&#45;&gt;Node11</title>
<path fill="none" stroke="midnightblue" d="M575.845,-319.293C586.853,-323.086 599.009,-327.476 610,-331.898 665.349,-354.168 682.371,-354.785 732,-387.898 760.643,-407.01 788.994,-436.349 802.991,-451.714"/>
<polygon fill="midnightblue" stroke="midnightblue" points="576.719,-315.894 566.125,-315.994 574.469,-322.522 576.719,-315.894"/>
</g>
<!-- Node13 -->
<g id="node28" class="node"><title>Node13</title>
<polygon fill="white" stroke="#bfbfbf" points="217.5,-245.898 217.5,-265.898 280.5,-265.898 280.5,-245.898 217.5,-245.898"/>
<text text-anchor="middle" x="249" y="-252.898" font-family="FreeSans.ttf" font-size="10.00">signed int</text>
</g>
<!-- Node13&#45;&gt;Node12 -->
<g id="edge32" class="edge"><title>Node13&#45;&gt;Node12</title>
<path fill="none" stroke="#9a32cd" stroke-dasharray="5,2" d="M290.737,-249.859C332.778,-245.214 399.1,-241.849 454,-256.898 483.211,-264.906 512.673,-285.381 528.706,-297.817"/>
<polygon fill="#9a32cd" stroke="#9a32cd" points="290.114,-246.408 280.594,-251.057 290.936,-253.36 290.114,-246.408"/>
<text text-anchor="middle" x="390" y="-259.898" font-family="FreeSans.ttf" font-size="10.00"> m_descriptor</text>
</g>
<!-- Node14&#45;&gt;Node11 -->
<g id="edge38" class="edge"><title>Node14&#45;&gt;Node11</title>
<path fill="none" stroke="#9a32cd" stroke-dasharray="5,2" d="M957.727,-456.478C955.112,-456.629 952.518,-456.77 950,-456.898 916.479,-458.598 878.35,-459.934 850.678,-460.796"/>
<polygon fill="#9a32cd" stroke="#9a32cd" points="958.019,-459.967 967.788,-455.867 957.594,-452.98 958.019,-459.967"/>
<text text-anchor="middle" x="921" y="-461.898" font-family="FreeSans.ttf" font-size="10.00"> m_account</text>
</g>
<!-- Node14&#45;&gt;Node18 -->
<g id="edge70" class="edge"><title>Node14&#45;&gt;Node18</title>
<path fill="none" stroke="#9a32cd" stroke-dasharray="5,2" d="M1002.02,-473.753C1009.1,-494.796 1022.44,-528.196 1042,-551.898 1070.24,-586.114 1115.01,-613.738 1140.52,-627.794"/>
<polygon fill="#9a32cd" stroke="#9a32cd" points="1005.27,-472.442 998.881,-463.992 998.607,-474.583 1005.27,-472.442"/>
<text text-anchor="middle" x="1076" y="-610.898" font-family="FreeSans.ttf" font-size="10.00"> m_account</text>
</g>
<!-- Node15&#45;&gt;Node14 -->
<g id="edge44" class="edge"><title>Node15&#45;&gt;Node14</title>
<path fill="none" stroke="#9a32cd" stroke-dasharray="5,2" d="M601.875,-217.363C690.528,-204.373 854.923,-195.254 950,-282.898 974.299,-305.298 990.229,-410.686 994.708,-443.868"/>
<polygon fill="#9a32cd" stroke="#9a32cd" points="601.327,-213.906 591.97,-218.877 602.385,-220.826 601.327,-213.906"/>
<text text-anchor="middle" x="812" y="-238.898" font-family="FreeSans.ttf" font-size="10.00"> m_characters</text>
</g>
<!-- Node16 -->
<g id="node39" class="node"><title>Node16</title>
<a xlink:title="STL class.">
<polygon fill="white" stroke="#bfbfbf" points="201.5,-119.898 201.5,-139.898 296.5,-139.898 296.5,-119.898 201.5,-119.898"/>
<text text-anchor="middle" x="249" y="-126.898" font-family="FreeSans.ttf" font-size="10.00">std::vector&lt; T &gt;</text>
</a>
</g>
<!-- Node16&#45;&gt;Node15 -->
<g id="edge48" class="edge"><title>Node16&#45;&gt;Node15</title>
<path fill="none" stroke="orange" stroke-dasharray="5,2" d="M290.153,-143.115C296.142,-145.049 302.231,-147.021 308,-148.898 372.954,-170.034 389.492,-174.438 454,-196.898 474.366,-203.989 497.248,-212.424 514.433,-218.854"/>
<polygon fill="orange" stroke="orange" points="290.835,-139.658 280.244,-139.921 288.687,-146.32 290.835,-139.658"/>
<text text-anchor="middle" x="390" y="-199.898" font-family="FreeSans.ttf" font-size="10.00"> &lt; string &gt;</text>
</g>
<!-- Node20 -->
<g id="node48" class="node"><title>Node20</title>
<polygon fill="white" stroke="#bfbfbf" points="750,-609.898 750,-629.898 874,-629.898 874,-609.898 750,-609.898"/>
<text text-anchor="middle" x="812" y="-616.898" font-family="FreeSans.ttf" font-size="10.00">std::vector&lt; Thing * &gt;</text>
</g>
<!-- Node16&#45;&gt;Node20 -->
<g id="edge62" class="edge"><title>Node16&#45;&gt;Node20</title>
<path fill="none" stroke="orange" stroke-dasharray="5,2" d="M304.89,-145.489C305.997,-146.552 307.037,-147.687 308,-148.898 337.695,-186.258 292.32,-329.087 326,-362.898 370.712,-407.784 563.957,-344.379 610,-387.898 650.472,-426.151 594.863,-467.142 628,-511.898 658.404,-552.963 688.119,-534.721 732,-560.898 757.343,-576.017 784.524,-597.263 799.78,-609.704"/>
<polygon fill="orange" stroke="orange" points="306.87,-142.599 296.752,-139.455 302.701,-148.222 306.87,-142.599"/>
<text text-anchor="middle" x="541" y="-390.898" font-family="FreeSans.ttf" font-size="10.00"> &lt; Thing * &gt;</text>
</g>
<!-- Node21 -->
<g id="node59" class="node"><title>Node21</title>
<polygon fill="white" stroke="#bfbfbf" points="488.5,-27.8981 488.5,-59.8981 593.5,-59.8981 593.5,-27.8981 488.5,-27.8981"/>
<text text-anchor="start" x="496.5" y="-46.8981" font-family="FreeSans.ttf" font-size="10.00">std::vector&lt; pair&lt;</text>
<text text-anchor="middle" x="541" y="-34.8981" font-family="FreeSans.ttf" font-size="10.00"> string, string &gt; &gt;</text>
</g>
<!-- Node16&#45;&gt;Node21 -->
<g id="edge82" class="edge"><title>Node16&#45;&gt;Node21</title>
<path fill="none" stroke="orange" stroke-dasharray="5,2" d="M267.912,-113.233C282.695,-101.158 304.31,-85.5004 326,-76.8981 340.809,-71.0248 429.516,-58.5555 488.262,-50.7382"/>
<polygon fill="orange" stroke="orange" points="265.449,-110.732 260.049,-119.848 269.955,-116.089 265.449,-110.732"/>
<text text-anchor="middle" x="390" y="-79.8981" font-family="FreeSans.ttf" font-size="10.00"> &lt; pair&lt; string, string &gt; &gt;</text>
</g>
<!-- Node17 -->
<g id="node41" class="node"><title>Node17</title>
<polygon fill="white" stroke="#bfbfbf" points="37.5,-138.898 37.5,-158.898 66.5,-158.898 66.5,-138.898 37.5,-138.898"/>
<text text-anchor="middle" x="52" y="-145.898" font-family="FreeSans.ttf" font-size="10.00">T</text>
</g>
<!-- Node17&#45;&gt;Node16 -->
<g id="edge50" class="edge"><title>Node17&#45;&gt;Node16</title>
<path fill="none" stroke="#9a32cd" stroke-dasharray="5,2" d="M76.4434,-142.041C89.7902,-138.619 106.675,-134.811 122,-132.898 148.153,-129.634 177.562,-128.764 201.49,-128.763"/>
<polygon fill="#9a32cd" stroke="#9a32cd" points="75.361,-138.707 66.5956,-144.658 77.1591,-145.472 75.361,-138.707"/>
<text text-anchor="middle" x="147" y="-135.898" font-family="FreeSans.ttf" font-size="10.00"> elements</text>
</g>
<!-- Node24 -->
<g id="node67" class="node"><title>Node24</title>
<a xlink:title="STL class.">
<polygon fill="white" stroke="#bfbfbf" points="201.5,-157.898 201.5,-177.898 296.5,-177.898 296.5,-157.898 201.5,-157.898"/>
<text text-anchor="middle" x="249" y="-164.898" font-family="FreeSans.ttf" font-size="10.00">std::deque&lt; T &gt;</text>
</a>
</g>
<!-- Node17&#45;&gt;Node24 -->
<g id="edge90" class="edge"><title>Node17&#45;&gt;Node24</title>
<path fill="none" stroke="#9a32cd" stroke-dasharray="5,2" d="M76.8074,-151.291C107.964,-154.296 162.09,-159.516 201.357,-163.303"/>
<polygon fill="#9a32cd" stroke="#9a32cd" points="77.0969,-147.802 66.807,-150.326 76.4248,-154.77 77.0969,-147.802"/>
<text text-anchor="middle" x="147" y="-163.898" font-family="FreeSans.ttf" font-size="10.00"> elements</text>
</g>
<!-- Node18&#45;&gt;Node1 -->
<g id="edge106" class="edge"><title>Node18&#45;&gt;Node1</title>
<path fill="none" stroke="#9a32cd" stroke-dasharray="5,2" d="M1195.69,-651.797C1218.53,-661.115 1248.54,-674.158 1274,-687.898 1282.75,-692.618 1292.08,-698.626 1299.53,-703.677"/>
<polygon fill="#9a32cd" stroke="#9a32cd" points="1196.96,-648.536 1186.38,-648.041 1194.35,-655.027 1196.96,-648.536"/>
<text text-anchor="middle" x="1242" y="-690.898" font-family="FreeSans.ttf" font-size="10.00"> m_character</text>
</g>
<!-- Node18&#45;&gt;Node14 -->
<g id="edge54" class="edge"><title>Node18&#45;&gt;Node14</title>
<path fill="none" stroke="#9a32cd" stroke-dasharray="5,2" d="M1153.11,-618.418C1145.04,-597.467 1130.17,-563.931 1110,-539.898 1081.95,-506.473 1038.59,-478.359 1014.22,-464.052"/>
<polygon fill="#9a32cd" stroke="#9a32cd" points="1149.85,-619.695 1156.61,-627.853 1156.41,-617.26 1149.85,-619.695"/>
<text text-anchor="middle" x="1076" y="-542.898" font-family="FreeSans.ttf" font-size="10.00"> m_character</text>
</g>
<!-- Node19&#45;&gt;Node18 -->
<g id="edge56" class="edge"><title>Node19&#45;&gt;Node18</title>
<path fill="none" stroke="midnightblue" d="M572.505,-656.211C588.965,-659.193 609.486,-662.418 628,-663.898 817.194,-679.023 1044.99,-653.182 1127.87,-642.342"/>
<polygon fill="midnightblue" stroke="midnightblue" points="572.81,-652.708 562.337,-654.307 571.522,-659.588 572.81,-652.708"/>
</g>
<!-- Node19&#45;&gt;Node19 -->
<g id="edge66" class="edge"><title>Node19&#45;&gt;Node19</title>
<path fill="none" stroke="#9a32cd" stroke-dasharray="5,2" d="M515.33,-668.927C516.731,-674.026 525.287,-677.898 541,-677.898 565.527,-677.898 572.617,-668.463 562.27,-659.655"/>
<polygon fill="#9a32cd" stroke="#9a32cd" points="518.605,-670.19 519.73,-659.655 512.281,-667.189 518.605,-670.19"/>
<text text-anchor="middle" x="541" y="-680.898" font-family="FreeSans.ttf" font-size="10.00"> m_container</text>
</g>
<!-- Node19&#45;&gt;Node20 -->
<g id="edge60" class="edge"><title>Node19&#45;&gt;Node20</title>
<path fill="none" stroke="#9a32cd" stroke-dasharray="5,2" d="M572.454,-650.1C610.463,-649.92 676.258,-648.245 732,-639.898 747.291,-637.608 763.919,-633.691 778.034,-629.927"/>
<polygon fill="#9a32cd" stroke="#9a32cd" points="572.042,-646.601 562.047,-650.115 572.052,-653.601 572.042,-646.601"/>
<text text-anchor="middle" x="680" y="-650.898" font-family="FreeSans.ttf" font-size="10.00"> elements</text>
</g>
<!-- Node20&#45;&gt;Node19 -->
<g id="edge58" class="edge"><title>Node20&#45;&gt;Node19</title>
<path fill="none" stroke="#9a32cd" stroke-dasharray="5,2" d="M739.627,-619.641C705.596,-620.388 664.555,-622.539 628,-627.898 605.186,-631.243 579.673,-638.073 562.206,-643.241"/>
<polygon fill="#9a32cd" stroke="#9a32cd" points="740.016,-623.134 749.95,-619.452 739.888,-616.135 740.016,-623.134"/>
<text text-anchor="middle" x="680" y="-630.898" font-family="FreeSans.ttf" font-size="10.00"> m_contents</text>
</g>
<!-- Node21&#45;&gt;Node14 -->
<g id="edge78" class="edge"><title>Node21&#45;&gt;Node14</title>
<path fill="none" stroke="#9a32cd" stroke-dasharray="5,2" d="M603.817,-33.911C694.172,-23.4768 859.842,-19.711 950,-112.898 973.728,-137.424 991.746,-389.841 995.343,-443.788"/>
<polygon fill="#9a32cd" stroke="#9a32cd" points="603.218,-30.458 593.715,-35.1419 604.065,-37.4066 603.218,-30.458"/>
<text text-anchor="middle" x="812" y="-62.8981" font-family="FreeSans.ttf" font-size="10.00"> m_logins</text>
</g>
<!-- Node22 -->
<g id="node61" class="node"><title>Node22</title>
<polygon fill="white" stroke="#bfbfbf" points="190.5,-13.8981 190.5,-33.8981 307.5,-33.8981 307.5,-13.8981 190.5,-13.8981"/>
<text text-anchor="middle" x="249" y="-20.8981" font-family="FreeSans.ttf" font-size="10.00">pair&lt; string, string &gt;</text>
</g>
<!-- Node22&#45;&gt;Node21 -->
<g id="edge80" class="edge"><title>Node22&#45;&gt;Node21</title>
<path fill="none" stroke="#9a32cd" stroke-dasharray="5,2" d="M296.581,-11.705C306.253,-9.70447 316.404,-7.94479 326,-6.89814 382.553,-0.729501 398.257,4.46287 454,-6.89814 473.943,-10.9627 494.978,-19.7706 511.368,-27.7731"/>
<polygon fill="#9a32cd" stroke="#9a32cd" points="295.742,-8.3057 286.718,-13.8572 297.234,-15.1448 295.742,-8.3057"/>
<text text-anchor="middle" x="390" y="-9.89814" font-family="FreeSans.ttf" font-size="10.00"> elements</text>
</g>
<!-- Node23 -->
<g id="node64" class="node"><title>Node23</title>
<polygon fill="white" stroke="#bfbfbf" points="472,-77.8981 472,-109.898 610,-109.898 610,-77.8981 472,-77.8981"/>
<text text-anchor="start" x="480" y="-96.8981" font-family="FreeSans.ttf" font-size="10.00">std::deque&lt; pair&lt; string,</text>
<text text-anchor="middle" x="541" y="-84.8981" font-family="FreeSans.ttf" font-size="10.00"> string &gt; &gt;</text>
</g>
<!-- Node22&#45;&gt;Node23 -->
<g id="edge86" class="edge"><title>Node22&#45;&gt;Node23</title>
<path fill="none" stroke="#9a32cd" stroke-dasharray="5,2" d="M318.137,-23.6552C368.497,-24.6414 431.646,-28.6444 454,-41.8981 466.406,-49.2535 460.653,-59.9965 472,-68.8981 476.311,-72.2797 481.12,-75.2306 486.139,-77.8001"/>
<polygon fill="#9a32cd" stroke="#9a32cd" points="317.983,-20.1524 307.929,-23.4923 317.871,-27.1515 317.983,-20.1524"/>
<text text-anchor="middle" x="390" y="-44.8981" font-family="FreeSans.ttf" font-size="10.00"> elements</text>
</g>
<!-- Node23&#45;&gt;Node11 -->
<g id="edge84" class="edge"><title>Node23&#45;&gt;Node11</title>
<path fill="none" stroke="#9a32cd" stroke-dasharray="5,2" d="M574.158,-115.843C615.993,-145.016 687.801,-200.239 732,-262.898 777.288,-327.1 802.268,-420.657 809.651,-451.564"/>
<polygon fill="#9a32cd" stroke="#9a32cd" points="575.927,-112.811 565.707,-110.02 571.955,-118.575 575.927,-112.811"/>
<text text-anchor="middle" x="680" y="-265.898" font-family="FreeSans.ttf" font-size="10.00"> m_command_queue</text>
</g>
<!-- Node24&#45;&gt;Node23 -->
<g id="edge88" class="edge"><title>Node24&#45;&gt;Node23</title>
<path fill="none" stroke="orange" stroke-dasharray="5,2" d="M303.069,-152.665C304.794,-151.501 306.446,-150.247 308,-148.898 321.811,-136.912 310.915,-122.235 326,-111.898 349.019,-96.1238 418.076,-92.6141 471.782,-92.4359"/>
<polygon fill="orange" stroke="orange" points="300.95,-149.841 293.935,-157.78 304.37,-155.948 300.95,-149.841"/>
<text text-anchor="middle" x="390" y="-114.898" font-family="FreeSans.ttf" font-size="10.00"> &lt; pair&lt; string, string &gt; &gt;</text>
</g>
<!-- Node25&#45;&gt;Node11 -->
<g id="edge98" class="edge"><title>Node25&#45;&gt;Node11</title>
<path fill="none" stroke="#9a32cd" stroke-dasharray="5,2" d="M579.607,-512.442C601.644,-504.785 625.409,-496.58 628,-495.898 677.479,-482.874 735.722,-473.006 773.217,-467.341"/>
<polygon fill="#9a32cd" stroke="#9a32cd" points="578.307,-509.188 570.012,-515.778 580.607,-515.8 578.307,-509.188"/>
<text text-anchor="middle" x="680" y="-498.898" font-family="FreeSans.ttf" font-size="10.00"> m_terminfo</text>
</g>
</g>
</svg>
        <g id="navigator" transform="translate(0 0)" fill="#404254">
                <rect fill="#f2f5e9" fill-opacity="0.5" stroke="#606060" stroke-width=".5" x="0" y="0" width="60" height="60"/>
                <use id="zoomplus" xlink:href="#zoomPlus" x="17" y="9" onmousedown="handleZoom(evt,'in')"/>
                <use id="zoomminus" xlink:href="#zoomMin" x="42" y="9" onmousedown="handleZoom(evt,'out')"/>
                <use id="reset" xlink:href="#resetDef" x="30" y="36" onmousedown="handleReset()"/>
                <g id="arrowUp" xlink:href="#dirArrow" transform="translate(30 24)" onmousedown="handlePan(0,-1)">
                  <use xlink:href="#rim" fill="#404040">
                        <set attributeName="fill" to="#808080" begin="arrowUp.mouseover" end="arrowUp.mouseout"/>
                  </use>
                  <path fill="none" stroke="white" stroke-width="1.5" d="M0,-3.0v7 M-2.5,-0.5L0,-3.0L2.5,-0.5"/>
                </g>
                <g id="arrowRight" xlink:href="#dirArrow" transform="rotate(90) translate(36 -43)" onmousedown="handlePan(1,0)">
                  <use xlink:href="#rim" fill="#404040">
                        <set attributeName="fill" to="#808080" begin="arrowRight.mouseover" end="arrowRight.mouseout"/>
                  </use>
                  <path fill="none" stroke="white" stroke-width="1.5" d="M0,-3.0v7 M-2.5,-0.5L0,-3.0L2.5,-0.5"/>
                </g>
                <g id="arrowDown" xlink:href="#dirArrow" transform="rotate(180) translate(-30 -48)" onmousedown="handlePan(0,1)">
                  <use xlink:href="#rim" fill="#404040">
                        <set attributeName="fill" to="#808080" begin="arrowDown.mouseover" end="arrowDown.mouseout"/>
                  </use>
                  <path fill="none" stroke="white" stroke-width="1.5" d="M0,-3.0v7 M-2.5,-0.5L0,-3.0L2.5,-0.5"/>
                </g>
                <g id="arrowLeft" xlink:href="#dirArrow" transform="rotate(270) translate(-36 17)" onmousedown="handlePan(-1,0)">
                  <use xlink:href="#rim" fill="#404040">
                        <set attributeName="fill" to="#808080" begin="arrowLeft.mouseover" end="arrowLeft.mouseout"/>
                  </use>
                  <path fill="none" stroke="white" stroke-width="1.5" d="M0,-3.0v7 M-2.5,-0.5L0,-3.0L2.5,-0.5"/>
                </g>
        </g>
        <svg viewBox="0 0 15 15" width="100%" height="30px" preserveAspectRatio="xMaxYMin meet">
         <g id="arrow_out" transform="scale(0.3 0.3)">
          <a xlink:href="classEvent__coll__graph_org.svg" target="_base">
           <rect id="button" ry="5" rx="5" y="6" x="6" height="38" width="38"
                fill="#f2f5e9" fill-opacity="0.5" stroke="#606060" stroke-width="1.0"/>
           <path id="arrow"
             d="M 11.500037,31.436501 C 11.940474,20.09759 22.043105,11.32322 32.158766,21.979434 L 37.068811,17.246167 C 37.068811,17.246167 37.088388,32 37.088388,32 L 22.160133,31.978069 C 22.160133,31.978069 26.997745,27.140456 26.997745,27.140456 C 18.528582,18.264221 13.291696,25.230495 11.500037,31.436501 z"
             style="fill:#404040;"/>
          </a>
         </g>
        </svg>
</svg>
