<?xml version="1.0" encoding="UTF-8" standalone="no"?>
<!DOCTYPE svg PUBLIC "-//W3C//DTD SVG 1.1//EN"
 "http://www.w3.org/Graphics/SVG/1.1/DTD/svg11.dtd">
<!-- Generated by graphviz version 2.26.3 (20100126.1600)
 -->
<!-- Title: Location::Delete Pages: 1 -->
<svg width="368pt" height="28pt"
 viewBox="0.00 0.00 368.00 28.00" xmlns="http://www.w3.org/2000/svg" xmlns:xlink="http://www.w3.org/1999/xlink">
<g id="graph1" class="graph" transform="scale(1 1) rotate(0) translate(4 24)">
<title>Location::Delete</title>
<polygon fill="white" stroke="white" points="-4,5 -4,-24 365,-24 365,5 -4,5"/>
<!-- Node1 -->
<g id="node1" class="node"><title>Node1</title>
<polygon fill="#bfbfbf" stroke="black" points="0.5,-0 0.5,-20 95.5,-20 95.5,-0 0.5,-0"/>
<text text-anchor="middle" x="48" y="-7" font-family="FreeSans.ttf" font-size="10.00">Location::Delete</text>
</g>
<!-- Node2 -->
<g id="node3" class="node"><title>Node2</title>
<a xlink:href="classExit.xhtml#ac490c605f6b1581429cc59290e7bd400" target="_top" xlink:title="Unload an exit from memory that was previously loaded via Exit::New().">
<polygon fill="white" stroke="black" points="132.5,-0 132.5,-20 203.5,-20 203.5,-0 132.5,-0"/>
<text text-anchor="middle" x="168" y="-7" font-family="FreeSans.ttf" font-size="10.00">Exit::Delete</text>
</a>
</g>
<!-- Node1&#45;&gt;Node2 -->
<g id="edge2" class="edge"><title>Node1&#45;&gt;Node2</title>
<path fill="none" stroke="midnightblue" d="M95.772,-10C104.415,-10 113.411,-10 122.002,-10"/>
<polygon fill="midnightblue" stroke="midnightblue" points="122.228,-13.5001 132.228,-10 122.228,-6.5001 122.228,-13.5001"/>
</g>
<!-- Node3 -->
<g id="node5" class="node"><title>Node3</title>
<a xlink:href="classLocation.xhtml#aca658255ecc7a1f000913f3aefd54fad" target="_top" xlink:title="Removes an Exit associated with this Location.">
<polygon fill="white" stroke="black" points="240.5,-0 240.5,-20 359.5,-20 359.5,-0 240.5,-0"/>
<text text-anchor="middle" x="300" y="-7" font-family="FreeSans.ttf" font-size="10.00">Location::RemoveExit</text>
</a>
</g>
<!-- Node2&#45;&gt;Node3 -->
<g id="edge4" class="edge"><title>Node2&#45;&gt;Node3</title>
<path fill="none" stroke="midnightblue" d="M203.721,-10C211.931,-10 220.94,-10 230.049,-10"/>
<polygon fill="midnightblue" stroke="midnightblue" points="230.339,-13.5001 240.339,-10 230.339,-6.5001 230.339,-13.5001"/>
</g>
</g>
</svg>
