<?xml version="1.0" encoding="UTF-8" standalone="no"?>
<!DOCTYPE svg PUBLIC "-//W3C//DTD SVG 1.1//EN"
 "http://www.w3.org/Graphics/SVG/1.1/DTD/svg11.dtd">
<!-- Generated by graphviz version 2.26.3 (20100126.1600)
 -->
<!-- Title: G Pages: 1 -->
<!--zoomable 298 -->
<svg id="main" version="1.1" xmlns="http://www.w3.org/2000/svg" xmlns:xlink="http://www.w3.org/1999/xlink" xml:space="preserve" onload="init(evt)">
        <defs>
                <circle id="rim" cx="0" cy="0" r="7"/>
                <circle id="rim2" cx="0" cy="0" r="3.5"/>
                <g id="zoomPlus">
                        <use xlink:href="#rim" fill="#404040">
                                <set attributeName="fill" to="#808080" begin="zoomplus.mouseover" end="zoomplus.mouseout"/>
                        </use>
                        <path d="M-4,0h8M0,-4v8" fill="none" stroke="white" stroke-width="1.5" pointer-events="none"/>
                </g>
                <g id="zoomMin">
                        <use xlink:href="#rim" fill="#404040">
                                <set attributeName="fill" to="#808080" begin="zoomminus.mouseover" end="zoomminus.mouseout"/>
                        </use>
                        <path d="M-4,0h8" fill="none" stroke="white" stroke-width="1.5" pointer-events="none"/>
                </g>
                <g id="dirArrow">
                        <path fill="none" stroke="white" stroke-width="1.5" d="M0,-3.0v7 M-2.5,-0.5L0,-3.0L2.5,-0.5"/>
                </g>
               <g id="resetDef">
                       <use xlink:href="#rim2" fill="#404040">
                               <set attributeName="fill" to="#808080" begin="reset.mouseover" end="reset.mouseout"/>
                       </use>
               </g>
        </defs>

<script type="text/javascript">
var viewWidth = 598;
var viewHeight = 298;
var sectionId = 'dynsection-0';
</script>
<script xlink:href="svgpan.js"/>
<svg id="graph" class="graph">
<g id="viewport">
<title>G</title>
<polygon fill="white" stroke="white" points="-4,5 -4,-294 595,-294 595,5 -4,5"/>
<!-- Node1 -->
<g id="node1" class="node"><title>Node1</title>
<polygon fill="#bfbfbf" stroke="black" points="349,-72.5 349,-93.5 397,-93.5 397,-72.5 349,-72.5"/>
<text text-anchor="middle" x="373" y="-80.5" font-family="FreeSans.ttf" font-size="10.00">Server</text>
</g>
<!-- Node5 -->
<g id="node8" class="node"><title>Node5</title>
<a xlink:href="classSocketServer.xhtml" target="_top" xlink:title="SocketServer">
<polygon fill="white" stroke="black" points="259.5,-0.5 259.5,-21.5 340.5,-21.5 340.5,-0.5 259.5,-0.5"/>
<text text-anchor="middle" x="300" y="-8.5" font-family="FreeSans.ttf" font-size="10.00">SocketServer</text>
</a>
</g>
<!-- Node1&#45;&gt;Node5 -->
<g id="edge22" class="edge"><title>Node1&#45;&gt;Node5</title>
<path fill="none" stroke="#9a32cd" stroke-dasharray="5,2" d="M365.749,-63.1244C362.18,-55.2643 357.277,-46.5606 351,-40 343.747,-32.4198 334.075,-26.2448 325.104,-21.5713"/>
<polygon fill="#9a32cd" stroke="#9a32cd" points="362.522,-64.4823 369.557,-72.4045 368.998,-61.8244 362.522,-64.4823"/>
<text text-anchor="middle" x="385.5" y="-44.5" font-family="FreeSans.ttf" font-size="10.00"> m_server</text>
</g>
<!-- Node2 -->
<g id="node2" class="node"><title>Node2</title>
<polygon fill="white" stroke="#bfbfbf" points="397,-196.5 397,-217.5 449,-217.5 449,-196.5 397,-196.5"/>
<text text-anchor="middle" x="423" y="-204.5" font-family="FreeSans.ttf" font-size="10.00">timeval</text>
</g>
<!-- Node2&#45;&gt;Node1 -->
<g id="edge2" class="edge"><title>Node2&#45;&gt;Node1</title>
<path fill="none" stroke="#9a32cd" stroke-dasharray="5,2" d="M421.406,-186.185C419.15,-166.14 413.761,-135.487 401,-112 397.258,-105.113 391.431,-98.701 386.059,-93.667"/>
<polygon fill="#9a32cd" stroke="#9a32cd" points="417.944,-186.752 422.384,-196.372 424.912,-186.083 417.944,-186.752"/>
<text text-anchor="middle" x="460" y="-149" font-family="FreeSans.ttf" font-size="10.00"> m_time_current</text>
<text text-anchor="middle" x="460" y="-136" font-family="FreeSans.ttf" font-size="10.00">m_time_boot</text>
</g>
<!-- Node3 -->
<g id="node4" class="node"><title>Node3</title>
<polygon fill="white" stroke="#bfbfbf" points="507.5,-196.5 507.5,-217.5 544.5,-217.5 544.5,-196.5 507.5,-196.5"/>
<text text-anchor="middle" x="526" y="-204.5" font-family="FreeSans.ttf" font-size="10.00">bool</text>
</g>
<!-- Node3&#45;&gt;Node1 -->
<g id="edge4" class="edge"><title>Node3&#45;&gt;Node1</title>
<path fill="none" stroke="#9a32cd" stroke-dasharray="5,2" d="M527.162,-186.383C527.187,-164.826 523.667,-131.477 504,-112 489.146,-97.2891 430.717,-88.9503 397.123,-85.2803"/>
<polygon fill="#9a32cd" stroke="#9a32cd" points="523.662,-186.355 526.893,-196.445 530.659,-186.542 523.662,-186.355"/>
<text text-anchor="middle" x="558" y="-142.5" font-family="FreeSans.ttf" font-size="10.00"> m_shutdown</text>
</g>
<!-- Node4 -->
<g id="node6" class="node"><title>Node4</title>
<polygon fill="white" stroke="#bfbfbf" points="260.5,-196.5 260.5,-217.5 335.5,-217.5 335.5,-196.5 260.5,-196.5"/>
<text text-anchor="middle" x="298" y="-204.5" font-family="FreeSans.ttf" font-size="10.00">unsigned int</text>
</g>
<!-- Node4&#45;&gt;Node1 -->
<g id="edge6" class="edge"><title>Node4&#45;&gt;Node1</title>
<path fill="none" stroke="#9a32cd" stroke-dasharray="5,2" d="M300.783,-186.28C304.389,-161.972 311.262,-123.522 320,-112 327.225,-102.473 338.526,-95.6799 348.839,-91.0754"/>
<polygon fill="#9a32cd" stroke="#9a32cd" points="297.3,-185.913 299.361,-196.305 304.231,-186.896 297.3,-185.913"/>
<text text-anchor="middle" x="358.5" y="-168.5" font-family="FreeSans.ttf" font-size="10.00"> m_dir_close</text>
<text text-anchor="middle" x="358.5" y="-155.5" font-family="FreeSans.ttf" font-size="10.00">m_socket_close</text>
<text text-anchor="middle" x="358.5" y="-142.5" font-family="FreeSans.ttf" font-size="10.00">m_port</text>
<text text-anchor="middle" x="358.5" y="-129.5" font-family="FreeSans.ttf" font-size="10.00">m_dir_open</text>
<text text-anchor="middle" x="358.5" y="-116.5" font-family="FreeSans.ttf" font-size="10.00">m_socket_open</text>
</g>
<!-- Node6 -->
<g id="node10" class="node"><title>Node6</title>
<a xlink:href="classSocket.xhtml" target="_top" xlink:title="Socket">
<polygon fill="white" stroke="black" points="169,-72.5 169,-93.5 219,-93.5 219,-72.5 169,-72.5"/>
<text text-anchor="middle" x="194" y="-80.5" font-family="FreeSans.ttf" font-size="10.00">Socket</text>
</a>
</g>
<!-- Node4&#45;&gt;Node6 -->
<g id="edge20" class="edge"><title>Node4&#45;&gt;Node6</title>
<path fill="none" stroke="#9a32cd" stroke-dasharray="5,2" d="M250.66,-194.865C241.535,-190.739 232.735,-185.259 226,-178 205.063,-155.434 215.129,-141.068 205,-112 202.874,-105.898 200.324,-99.1447 198.215,-93.6913"/>
<polygon fill="#9a32cd" stroke="#9a32cd" points="249.629,-198.223 260.214,-198.692 252.232,-191.724 249.629,-198.223"/>
<text text-anchor="middle" x="262.5" y="-155.5" font-family="FreeSans.ttf" font-size="10.00"> m_bytes_sent</text>
<text text-anchor="middle" x="262.5" y="-142.5" font-family="FreeSans.ttf" font-size="10.00">m_port</text>
<text text-anchor="middle" x="262.5" y="-129.5" font-family="FreeSans.ttf" font-size="10.00">m_bytes_recvd</text>
</g>
<!-- Node5&#45;&gt;Node1 -->
<g id="edge8" class="edge"><title>Node5&#45;&gt;Node1</title>
<path fill="none" stroke="#9a32cd" stroke-dasharray="5,2" d="M295.971,-31.576C295.573,-39.2139 296.551,-47.5737 301,-54 311.739,-69.5113 332.266,-76.7302 348.663,-80.0875"/>
<polygon fill="#9a32cd" stroke="#9a32cd" points="299.458,-31.8947 297.232,-21.5364 292.513,-31.0222 299.458,-31.8947"/>
<text text-anchor="middle" x="326" y="-44.5" font-family="FreeSans.ttf" font-size="10.00"> m_socket</text>
</g>
<!-- Node6&#45;&gt;Node5 -->
<g id="edge10" class="edge"><title>Node6&#45;&gt;Node5</title>
<path fill="none" stroke="midnightblue" d="M218.052,-66.663C238.347,-52.8778 266.811,-33.5437 284.295,-21.6674"/>
<polygon fill="midnightblue" stroke="midnightblue" points="215.946,-63.862 209.641,-72.3762 219.879,-69.6525 215.946,-63.862"/>
</g>
<!-- Node7 -->
<g id="node12" class="node"><title>Node7</title>
<a xlink:href="classThread.xhtml" target="_top" xlink:title="Thread">
<polygon fill="white" stroke="black" points="169,-196.5 169,-217.5 219,-217.5 219,-196.5 169,-196.5"/>
<text text-anchor="middle" x="194" y="-204.5" font-family="FreeSans.ttf" font-size="10.00">Thread</text>
</a>
</g>
<!-- Node7&#45;&gt;Node6 -->
<g id="edge12" class="edge"><title>Node7&#45;&gt;Node6</title>
<path fill="none" stroke="midnightblue" d="M194,-186.241C194,-159.498 194,-114.022 194,-93.5454"/>
<polygon fill="midnightblue" stroke="midnightblue" points="190.5,-186.428 194,-196.428 197.5,-186.428 190.5,-186.428"/>
</g>
<!-- Node8 -->
<g id="node14" class="node"><title>Node8</title>
<polygon fill="white" stroke="#bfbfbf" points="144.5,-268.5 144.5,-289.5 243.5,-289.5 243.5,-268.5 144.5,-268.5"/>
<text text-anchor="middle" x="194" y="-276.5" font-family="FreeSans.ttf" font-size="10.00">pthread_mutex_t</text>
</g>
<!-- Node8&#45;&gt;Node7 -->
<g id="edge14" class="edge"><title>Node8&#45;&gt;Node7</title>
<path fill="none" stroke="#9a32cd" stroke-dasharray="5,2" d="M194,-258.235C194,-244.969 194,-228.319 194,-217.667"/>
<polygon fill="#9a32cd" stroke="#9a32cd" points="190.5,-258.376 194,-268.376 197.5,-258.376 190.5,-258.376"/>
<text text-anchor="middle" x="218.5" y="-240.5" font-family="FreeSans.ttf" font-size="10.00"> m_mutex</text>
</g>
<!-- Node9 -->
<g id="node16" class="node"><title>Node9</title>
<polygon fill="white" stroke="#bfbfbf" points="0,-196.5 0,-217.5 44,-217.5 44,-196.5 0,-196.5"/>
<text text-anchor="middle" x="22" y="-204.5" font-family="FreeSans.ttf" font-size="10.00">string</text>
</g>
<!-- Node9&#45;&gt;Node6 -->
<g id="edge16" class="edge"><title>Node9&#45;&gt;Node6</title>
<path fill="none" stroke="#9a32cd" stroke-dasharray="5,2" d="M18.9981,-186.413C17.1141,-164.881 17.9489,-131.554 37,-112 54.9403,-93.5861 129.315,-86.6313 168.919,-84.1972"/>
<polygon fill="#9a32cd" stroke="#9a32cd" points="15.5337,-186.925 20.149,-196.462 22.4883,-186.128 15.5337,-186.925"/>
<text text-anchor="middle" x="70.5" y="-142.5" font-family="FreeSans.ttf" font-size="10.00"> m_hostname</text>
</g>
<!-- Node10 -->
<g id="node18" class="node"><title>Node10</title>
<polygon fill="white" stroke="#bfbfbf" points="80.5,-196.5 80.5,-217.5 143.5,-217.5 143.5,-196.5 80.5,-196.5"/>
<text text-anchor="middle" x="112" y="-204.5" font-family="FreeSans.ttf" font-size="10.00">signed int</text>
</g>
<!-- Node10&#45;&gt;Node6 -->
<g id="edge18" class="edge"><title>Node10&#45;&gt;Node6</title>
<path fill="none" stroke="#9a32cd" stroke-dasharray="5,2" d="M108.746,-186.281C106.656,-165.401 106.835,-133.301 123,-112 133.866,-97.681 153.016,-90.3994 168.692,-86.715"/>
<polygon fill="#9a32cd" stroke="#9a32cd" points="105.289,-186.841 110.014,-196.324 112.234,-185.964 105.289,-186.841"/>
<text text-anchor="middle" x="156.5" y="-142.5" font-family="FreeSans.ttf" font-size="10.00"> m_descriptor</text>
</g>
</g>
</svg>
        <g id="navigator" transform="translate(0 0)" fill="#404254">
                <rect fill="#f2f5e9" fill-opacity="0.5" stroke="#606060" stroke-width=".5" x="0" y="0" width="60" height="60"/>
                <use id="zoomplus" xlink:href="#zoomPlus" x="17" y="9" onmousedown="handleZoom(evt,'in')"/>
                <use id="zoomminus" xlink:href="#zoomMin" x="42" y="9" onmousedown="handleZoom(evt,'out')"/>
                <use id="reset" xlink:href="#resetDef" x="30" y="36" onmousedown="handleReset()"/>
                <g id="arrowUp" xlink:href="#dirArrow" transform="translate(30 24)" onmousedown="handlePan(0,-1)">
                  <use xlink:href="#rim" fill="#404040">
                        <set attributeName="fill" to="#808080" begin="arrowUp.mouseover" end="arrowUp.mouseout"/>
                  </use>
                  <path fill="none" stroke="white" stroke-width="1.5" d="M0,-3.0v7 M-2.5,-0.5L0,-3.0L2.5,-0.5"/>
                </g>
                <g id="arrowRight" xlink:href="#dirArrow" transform="rotate(90) translate(36 -43)" onmousedown="handlePan(1,0)">
                  <use xlink:href="#rim" fill="#404040">
                        <set attributeName="fill" to="#808080" begin="arrowRight.mouseover" end="arrowRight.mouseout"/>
                  </use>
                  <path fill="none" stroke="white" stroke-width="1.5" d="M0,-3.0v7 M-2.5,-0.5L0,-3.0L2.5,-0.5"/>
                </g>
                <g id="arrowDown" xlink:href="#dirArrow" transform="rotate(180) translate(-30 -48)" onmousedown="handlePan(0,1)">
                  <use xlink:href="#rim" fill="#404040">
                        <set attributeName="fill" to="#808080" begin="arrowDown.mouseover" end="arrowDown.mouseout"/>
                  </use>
                  <path fill="none" stroke="white" stroke-width="1.5" d="M0,-3.0v7 M-2.5,-0.5L0,-3.0L2.5,-0.5"/>
                </g>
                <g id="arrowLeft" xlink:href="#dirArrow" transform="rotate(270) translate(-36 17)" onmousedown="handlePan(-1,0)">
                  <use xlink:href="#rim" fill="#404040">
                        <set attributeName="fill" to="#808080" begin="arrowLeft.mouseover" end="arrowLeft.mouseout"/>
                  </use>
                  <path fill="none" stroke="white" stroke-width="1.5" d="M0,-3.0v7 M-2.5,-0.5L0,-3.0L2.5,-0.5"/>
                </g>
        </g>
</svg>
