<?xml version="1.0" encoding="UTF-8" standalone="no"?>
<!DOCTYPE svg PUBLIC "-//W3C//DTD SVG 1.1//EN"
 "http://www.w3.org/Graphics/SVG/1.1/DTD/svg11.dtd">
<!-- Generated by graphviz version 2.26.3 (20100126.1600)
 -->
<!-- Title: Exit::Unserialize Pages: 1 -->
<svg width="228pt" height="104pt"
 viewBox="0.00 0.00 228.00 104.00" xmlns="http://www.w3.org/2000/svg" xmlns:xlink="http://www.w3.org/1999/xlink">
<g id="graph1" class="graph" transform="scale(1 1) rotate(0) translate(4 100)">
<title>Exit::Unserialize</title>
<polygon fill="white" stroke="white" points="-4,5 -4,-100 225,-100 225,5 -4,5"/>
<!-- Node1 -->
<g id="node1" class="node"><title>Node1</title>
<polygon fill="#bfbfbf" stroke="black" points="0,-38 0,-58 92,-58 92,-38 0,-38"/>
<text text-anchor="middle" x="46" y="-45" font-family="FreeSans.ttf" font-size="10.00">Exit::Unserialize</text>
</g>
<!-- Node2 -->
<g id="node3" class="node"><title>Node2</title>
<a xlink:href="namespaceUtils.xhtml#af8586b5c4d77ae0617279186b2bfdb66" target="_top" xlink:title="Returns the first delimeter separated argument from input and then erases it from input...">
<polygon fill="white" stroke="black" points="128,-76 128,-96 220,-96 220,-76 128,-76"/>
<text text-anchor="middle" x="174" y="-83" font-family="FreeSans.ttf" font-size="10.00">Utils::Argument</text>
</a>
</g>
<!-- Node1&#45;&gt;Node2 -->
<g id="edge2" class="edge"><title>Node1&#45;&gt;Node2</title>
<path fill="none" stroke="midnightblue" d="M79.9656,-58.0835C95.2991,-62.6357 113.607,-68.0709 129.977,-72.9308"/>
<polygon fill="midnightblue" stroke="midnightblue" points="129.293,-76.3786 139.876,-75.8693 131.285,-69.668 129.293,-76.3786"/>
</g>
<!-- Node3 -->
<g id="node5" class="node"><title>Node3</title>
<a xlink:href="namespaceUtils.xhtml#a11bfe61c6e77603d59116397b1d3f580" target="_top" xlink:title="Returns a pair of type T,V after receiving an input string generated from Utils::MakePair().">
<polygon fill="white" stroke="black" points="132,-38 132,-58 216,-58 216,-38 132,-38"/>
<text text-anchor="middle" x="174" y="-45" font-family="FreeSans.ttf" font-size="10.00">Utils::ReadPair</text>
</a>
</g>
<!-- Node1&#45;&gt;Node3 -->
<g id="edge4" class="edge"><title>Node1&#45;&gt;Node3</title>
<path fill="none" stroke="midnightblue" d="M92.2109,-48C101.778,-48 111.92,-48 121.687,-48"/>
<polygon fill="midnightblue" stroke="midnightblue" points="121.689,-51.5001 131.689,-48 121.689,-44.5001 121.689,-51.5001"/>
</g>
<!-- Node4 -->
<g id="node7" class="node"><title>Node4</title>
<a xlink:href="namespaceUtils.xhtml#aba8fca9daa0f767d7f5af5e2b1d6b81d" target="_top" xlink:title="If the contents of keyd == valu, assigns loc = item.">
<polygon fill="white" stroke="black" points="135.5,-0 135.5,-20 212.5,-20 212.5,-0 135.5,-0"/>
<text text-anchor="middle" x="174" y="-7" font-family="FreeSans.ttf" font-size="10.00">Utils::KeySet</text>
</a>
</g>
<!-- Node1&#45;&gt;Node4 -->
<g id="edge6" class="edge"><title>Node1&#45;&gt;Node4</title>
<path fill="none" stroke="midnightblue" d="M79.9656,-37.9165C95.2991,-33.3643 113.607,-27.9291 129.977,-23.0692"/>
<polygon fill="midnightblue" stroke="midnightblue" points="131.285,-26.332 139.876,-20.1307 129.293,-19.6214 131.285,-26.332"/>
</g>
</g>
</svg>
