<?xml version="1.0" encoding="UTF-8" standalone="no"?>
<!DOCTYPE svg PUBLIC "-//W3C//DTD SVG 1.1//EN"
 "http://www.w3.org/Graphics/SVG/1.1/DTD/svg11.dtd">
<!-- Generated by graphviz version 2.26.3 (20100126.1600)
 -->
<!-- Title: G Pages: 1 -->
<!--zoomable 452 -->
<svg id="main" version="1.1" xmlns="http://www.w3.org/2000/svg" xmlns:xlink="http://www.w3.org/1999/xlink" xml:space="preserve" onload="init(evt)">
        <defs>
                <circle id="rim" cx="0" cy="0" r="7"/>
                <circle id="rim2" cx="0" cy="0" r="3.5"/>
                <g id="zoomPlus">
                        <use xlink:href="#rim" fill="#404040">
                                <set attributeName="fill" to="#808080" begin="zoomplus.mouseover" end="zoomplus.mouseout"/>
                        </use>
                        <path d="M-4,0h8M0,-4v8" fill="none" stroke="white" stroke-width="1.5" pointer-events="none"/>
                </g>
                <g id="zoomMin">
                        <use xlink:href="#rim" fill="#404040">
                                <set attributeName="fill" to="#808080" begin="zoomminus.mouseover" end="zoomminus.mouseout"/>
                        </use>
                        <path d="M-4,0h8" fill="none" stroke="white" stroke-width="1.5" pointer-events="none"/>
                </g>
                <g id="dirArrow">
                        <path fill="none" stroke="white" stroke-width="1.5" d="M0,-3.0v7 M-2.5,-0.5L0,-3.0L2.5,-0.5"/>
                </g>
               <g id="resetDef">
                       <use xlink:href="#rim2" fill="#404040">
                               <set attributeName="fill" to="#808080" begin="reset.mouseover" end="reset.mouseout"/>
                       </use>
               </g>
        </defs>

<script type="text/javascript">
var viewWidth = 1004;
var viewHeight = 452;
var sectionId = 'dynsection-13';
</script>
<script xlink:href="svgpan.js"/>
<svg id="graph" class="graph">
<g id="viewport">
<title>G</title>
<polygon fill="white" stroke="white" points="-4,5 -4,-448.346 1001,-448.346 1001,5 -4,5"/>
<!-- Node1 -->
<g id="node1" class="node"><title>Node1</title>
<polygon fill="#bfbfbf" stroke="black" points="0,-198.5 0,-219.5 78,-219.5 78,-198.5 0,-198.5"/>
<text text-anchor="middle" x="39" y="-206.5" font-family="FreeSans.ttf" font-size="10.00">Socket::Valid</text>
</g>
<!-- Node2 -->
<g id="node3" class="node"><title>Node2</title>
<a xlink:href="classSocketClient.xhtml#af09328648d18ae943c8866cf744e5aad" target="_top" xlink:title="Unload a client&#39;s socket from memory that was previously loaded via SocketClient::New().">
<polygon fill="white" stroke="black" points="348,-257.5 348,-278.5 462,-278.5 462,-257.5 348,-257.5"/>
<text text-anchor="middle" x="405" y="-265.5" font-family="FreeSans.ttf" font-size="10.00">SocketClient::Delete</text>
</a>
</g>
<!-- Node1&#45;&gt;Node2 -->
<g id="edge2" class="edge"><title>Node1&#45;&gt;Node2</title>
<path fill="none" stroke="midnightblue" d="M64.8544,-224.829C78.8784,-232.609 96.8175,-241.302 114,-246 193.049,-267.612 288.378,-270.696 347.857,-270.038"/>
<polygon fill="midnightblue" stroke="midnightblue" points="66.2438,-221.591 55.8284,-219.649 62.7595,-227.662 66.2438,-221.591"/>
</g>
<!-- Node7 -->
<g id="node14" class="node"><title>Node7</title>
<a xlink:href="classSocketServer.xhtml#afdbc60c3bc840875d2214b59c6213f63" target="_top" xlink:title="Accept a new connection on the listening port.">
<polygon fill="white" stroke="black" points="526,-335.5 526,-356.5 646,-356.5 646,-335.5 526,-335.5"/>
<text text-anchor="middle" x="586" y="-343.5" font-family="FreeSans.ttf" font-size="10.00">SocketServer::Accept</text>
</a>
</g>
<!-- Node1&#45;&gt;Node7 -->
<g id="edge46" class="edge"><title>Node1&#45;&gt;Node7</title>
<path fill="none" stroke="midnightblue" d="M43.8485,-229.491C52.3176,-260.308 72.9565,-317.862 114,-345 254.809,-438.103 474.634,-382.016 555.132,-356.555"/>
<polygon fill="midnightblue" stroke="midnightblue" points="47.2352,-228.607 41.347,-219.799 40.4573,-230.357 47.2352,-228.607"/>
</g>
<!-- Node8 -->
<g id="node17" class="node"><title>Node8</title>
<a xlink:href="classSocketClient.xhtml#ad4f63c7d906310dc56a1217136047d7f" target="_top" xlink:title="Interpret the command at the front of the queue.">
<polygon fill="white" stroke="black" points="320,-217.5 320,-238.5 490,-238.5 490,-217.5 320,-217.5"/>
<text text-anchor="middle" x="405" y="-225.5" font-family="FreeSans.ttf" font-size="10.00">SocketClient::ProcessCommand</text>
</a>
</g>
<!-- Node1&#45;&gt;Node8 -->
<g id="edge18" class="edge"><title>Node1&#45;&gt;Node8</title>
<path fill="none" stroke="midnightblue" d="M81.0195,-222.263C91.6702,-225.053 103.166,-227.58 114,-229 182.878,-238.026 261.715,-237.068 319.943,-234.246"/>
<polygon fill="midnightblue" stroke="midnightblue" points="81.6865,-218.817 71.116,-219.535 79.8273,-225.565 81.6865,-218.817"/>
</g>
<!-- Node9 -->
<g id="node20" class="node"><title>Node9</title>
<a xlink:href="classSocketClient.xhtml#a92fea2bf7e0f20578404ce1abb835a0b" target="_top" xlink:title="Process data from the client&#39;s receive buffer and split it into commands to queue as necessary...">
<polygon fill="white" stroke="black" points="333,-177.5 333,-198.5 477,-198.5 477,-177.5 333,-177.5"/>
<text text-anchor="middle" x="405" y="-185.5" font-family="FreeSans.ttf" font-size="10.00">SocketClient::ProcessInput</text>
</a>
</g>
<!-- Node1&#45;&gt;Node9 -->
<g id="edge22" class="edge"><title>Node1&#45;&gt;Node9</title>
<path fill="none" stroke="midnightblue" d="M81.023,-195.763C91.6736,-192.972 103.168,-190.438 114,-189 188.121,-179.157 273.8,-180.361 332.9,-183.128"/>
<polygon fill="midnightblue" stroke="midnightblue" points="79.8312,-192.461 71.1193,-198.49 81.6897,-199.21 79.8312,-192.461"/>
</g>
<!-- Node10 -->
<g id="node23" class="node"><title>Node10</title>
<a xlink:href="classSocketClient.xhtml#aa3c0d7886b8fede981c73031cfaf17c6" target="_top" xlink:title="Append a command to the back of the queue.">
<polygon fill="white" stroke="black" points="117,-198.5 117,-219.5 281,-219.5 281,-198.5 117,-198.5"/>
<text text-anchor="middle" x="199" y="-206.5" font-family="FreeSans.ttf" font-size="10.00">SocketClient::QueueCommand</text>
</a>
</g>
<!-- Node1&#45;&gt;Node10 -->
<g id="edge26" class="edge"><title>Node1&#45;&gt;Node10</title>
<path fill="none" stroke="midnightblue" d="M88.4016,-209C97.4099,-209 107.028,-209 116.69,-209"/>
<polygon fill="midnightblue" stroke="midnightblue" points="88.1404,-205.5 78.1404,-209 88.1404,-212.5 88.1404,-205.5"/>
</g>
<!-- Node11 -->
<g id="node26" class="node"><title>Node11</title>
<a xlink:href="classSocketClient.xhtml#a9ee09f452d900e288b2aa187561ef05d" target="_top" xlink:title="Receive data from the client and append it to a receive buffer.">
<polygon fill="white" stroke="black" points="534,-393.5 534,-414.5 638,-414.5 638,-393.5 534,-393.5"/>
<text text-anchor="middle" x="586" y="-401.5" font-family="FreeSans.ttf" font-size="10.00">SocketClient::Recv</text>
</a>
</g>
<!-- Node1&#45;&gt;Node11 -->
<g id="edge30" class="edge"><title>Node1&#45;&gt;Node11</title>
<path fill="none" stroke="midnightblue" d="M41.107,-229.875C46.1517,-267.731 62.6204,-347.187 114,-384 248.842,-480.614 465.228,-437.053 550.148,-414.502"/>
<polygon fill="midnightblue" stroke="midnightblue" points="44.5365,-229.073 39.8821,-219.556 37.5853,-229.898 44.5365,-229.073"/>
</g>
<!-- Node12 -->
<g id="node29" class="node"><title>Node12</title>
<a xlink:href="classSocketClient.xhtml#afd723bd898217b3c41e29a02f43ec9e1" target="_top" xlink:title="SocketClient::ResolveHostname">
<polygon fill="white" stroke="black" points="114.5,-40.5 114.5,-61.5 283.5,-61.5 283.5,-40.5 114.5,-40.5"/>
<text text-anchor="middle" x="199" y="-48.5" font-family="FreeSans.ttf" font-size="10.00">SocketClient::ResolveHostname</text>
</a>
</g>
<!-- Node1&#45;&gt;Node12 -->
<g id="edge34" class="edge"><title>Node1&#45;&gt;Node12</title>
<path fill="none" stroke="midnightblue" d="M44.3357,-188.465C53.3605,-157.964 74.621,-101.063 114,-71 118.94,-67.2284 124.479,-64.1518 130.296,-61.6445"/>
<polygon fill="midnightblue" stroke="midnightblue" points="40.8773,-187.836 41.5534,-198.41 47.6184,-189.723 40.8773,-187.836"/>
</g>
<!-- Node13 -->
<g id="node31" class="node"><title>Node13</title>
<a xlink:href="classSocketClient.xhtml#a6268f3d184970ec0076da657c39d2e80" target="_top" xlink:title="Process data from the client&#39;s send buffer and transmit it via the socket.">
<polygon fill="white" stroke="black" points="145.5,-314.5 145.5,-335.5 252.5,-335.5 252.5,-314.5 145.5,-314.5"/>
<text text-anchor="middle" x="199" y="-322.5" font-family="FreeSans.ttf" font-size="10.00">SocketClient::Send</text>
</a>
</g>
<!-- Node1&#45;&gt;Node13 -->
<g id="edge36" class="edge"><title>Node1&#45;&gt;Node13</title>
<path fill="none" stroke="midnightblue" d="M50.0631,-228.351C62.8704,-249.052 85.8541,-281.408 114,-300 123.369,-306.189 134.307,-310.881 145.156,-314.427"/>
<polygon fill="midnightblue" stroke="midnightblue" points="53.0536,-226.532 44.9128,-219.752 47.0482,-230.129 53.0536,-226.532"/>
</g>
<!-- Node15 -->
<g id="node39" class="node"><title>Node15</title>
<a xlink:href="classSocketServer.xhtml#aee14cfe29fef99baa29664eef8d89dc8" target="_top" xlink:title="Bind a listening socket to a given port and IP address.">
<polygon fill="white" stroke="black" points="145,-120.5 145,-141.5 253,-141.5 253,-120.5 145,-120.5"/>
<text text-anchor="middle" x="199" y="-128.5" font-family="FreeSans.ttf" font-size="10.00">SocketServer::Bind</text>
</a>
</g>
<!-- Node1&#45;&gt;Node15 -->
<g id="edge48" class="edge"><title>Node1&#45;&gt;Node15</title>
<path fill="none" stroke="midnightblue" d="M58.9891,-192.105C73.477,-180.576 93.9639,-165.694 114,-156 126.185,-150.105 140.037,-145.308 152.969,-141.552"/>
<polygon fill="midnightblue" stroke="midnightblue" points="56.7492,-189.415 51.2009,-198.441 61.1668,-194.845 56.7492,-189.415"/>
</g>
<!-- Node18 -->
<g id="node46" class="node"><title>Node18</title>
<a xlink:href="classSocketServer.xhtml#a4fb2589ed01cea5daae154b2f06b4f41" target="_top" xlink:title="Unload a server&#39;s socket from memory that was previously loaded via SocketServer::New().">
<polygon fill="white" stroke="black" points="139.5,-0.5 139.5,-21.5 258.5,-21.5 258.5,-0.5 139.5,-0.5"/>
<text text-anchor="middle" x="199" y="-8.5" font-family="FreeSans.ttf" font-size="10.00">SocketServer::Delete</text>
</a>
</g>
<!-- Node1&#45;&gt;Node18 -->
<g id="edge56" class="edge"><title>Node1&#45;&gt;Node18</title>
<path fill="none" stroke="midnightblue" d="M41.6512,-187.992C47.5344,-150.51 65.2524,-72.1894 114,-31 121.295,-24.8359 130.148,-20.4944 139.349,-17.4518"/>
<polygon fill="midnightblue" stroke="midnightblue" points="38.1386,-187.831 40.1842,-198.226 45.0678,-188.824 38.1386,-187.831"/>
</g>
<!-- Node19 -->
<g id="node48" class="node"><title>Node19</title>
<a xlink:href="classSocketServer.xhtml#a5c5b0cbbee6a2e265d0510b40bcc12d8" target="_top" xlink:title="Listen for new connections on an established socket.">
<polygon fill="white" stroke="black" points="141,-80.5 141,-101.5 257,-101.5 257,-80.5 141,-80.5"/>
<text text-anchor="middle" x="199" y="-88.5" font-family="FreeSans.ttf" font-size="10.00">SocketServer::Listen</text>
</a>
</g>
<!-- Node1&#45;&gt;Node19 -->
<g id="edge58" class="edge"><title>Node1&#45;&gt;Node19</title>
<path fill="none" stroke="midnightblue" d="M48.7556,-189.202C60.8921,-166.701 83.7598,-130.568 114,-111 122.018,-105.811 131.238,-101.965 140.582,-99.1151"/>
<polygon fill="midnightblue" stroke="midnightblue" points="45.5866,-187.71 44.0836,-198.197 51.7988,-190.936 45.5866,-187.71"/>
</g>
<!-- Node3 -->
<g id="node5" class="node"><title>Node3</title>
<a xlink:href="classServer.xhtml#a39dbe16fdc8c5f6fbd678c6540fbcd6c" target="_top" xlink:title="Poll all SocketClient objects that are communicating with the associated SocketServer object...">
<polygon fill="white" stroke="black" points="682.5,-296.5 682.5,-317.5 791.5,-317.5 791.5,-296.5 682.5,-296.5"/>
<text text-anchor="middle" x="737" y="-304.5" font-family="FreeSans.ttf" font-size="10.00">Server::PollSockets</text>
</a>
</g>
<!-- Node2&#45;&gt;Node3 -->
<g id="edge4" class="edge"><title>Node2&#45;&gt;Node3</title>
<path fill="none" stroke="midnightblue" d="M472.103,-274.067C520.509,-278.661 587.38,-285.455 646,-293 657.732,-294.51 670.285,-296.317 682.204,-298.123"/>
<polygon fill="midnightblue" stroke="midnightblue" points="472.348,-270.575 462.063,-273.12 471.691,-277.544 472.348,-270.575"/>
</g>
<!-- Node6 -->
<g id="node11" class="node"><title>Node6</title>
<a xlink:href="classServer.xhtml#a2b4cec469bb99c2a45e49de5ba74d1ae" target="_top" xlink:title="Processes input from all active SocketClient objects.">
<polygon fill="white" stroke="black" points="528,-217.5 528,-238.5 644,-238.5 644,-217.5 528,-217.5"/>
<text text-anchor="middle" x="586" y="-225.5" font-family="FreeSans.ttf" font-size="10.00">Server::ProcessInput</text>
</a>
</g>
<!-- Node2&#45;&gt;Node6 -->
<g id="edge10" class="edge"><title>Node2&#45;&gt;Node6</title>
<path fill="none" stroke="midnightblue" d="M462.441,-255.306C486.928,-249.894 515.158,-243.656 538.448,-238.509"/>
<polygon fill="midnightblue" stroke="midnightblue" points="461.565,-251.915 452.556,-257.49 463.075,-258.75 461.565,-251.915"/>
</g>
<!-- Node2&#45;&gt;Node7 -->
<g id="edge14" class="edge"><title>Node2&#45;&gt;Node7</title>
<path fill="none" stroke="midnightblue" d="M438.907,-282.612C474.54,-297.968 529.727,-321.75 561.398,-335.398"/>
<polygon fill="midnightblue" stroke="midnightblue" points="439.979,-279.263 429.41,-278.519 437.209,-285.691 439.979,-279.263"/>
</g>
<!-- Node4 -->
<g id="node7" class="node"><title>Node4</title>
<a xlink:href="classServer.xhtml#a50b81aa91d8fdaee6f52c5c5ec987990" target="_top" xlink:title="The core update loop of NAMS. This loop spawns all other subsystem update routines and then sleeps fo...">
<polygon fill="white" stroke="black" points="828.5,-217.5 828.5,-238.5 917.5,-238.5 917.5,-217.5 828.5,-217.5"/>
<text text-anchor="middle" x="873" y="-225.5" font-family="FreeSans.ttf" font-size="10.00">Server::Update</text>
</a>
</g>
<!-- Node3&#45;&gt;Node4 -->
<g id="edge6" class="edge"><title>Node3&#45;&gt;Node4</title>
<path fill="none" stroke="midnightblue" d="M764.213,-291.192C791.015,-275.623 831.226,-252.266 854.515,-238.738"/>
<polygon fill="midnightblue" stroke="midnightblue" points="762.231,-288.296 755.342,-296.346 765.747,-294.349 762.231,-288.296"/>
</g>
<!-- Node5 -->
<g id="node9" class="node"><title>Node5</title>
<a xlink:href="main_8cpp.xhtml#ad53223b8779f25caeddb70a3b9172967" target="_top" xlink:title="The default function required to execute the server.">
<polygon fill="white" stroke="black" points="954.5,-194.5 954.5,-215.5 995.5,-215.5 995.5,-194.5 954.5,-194.5"/>
<text text-anchor="middle" x="975" y="-202.5" font-family="FreeSans.ttf" font-size="10.00">main</text>
</a>
</g>
<!-- Node4&#45;&gt;Node5 -->
<g id="edge8" class="edge"><title>Node4&#45;&gt;Node5</title>
<path fill="none" stroke="midnightblue" d="M927.642,-215.679C937.139,-213.537 946.468,-211.434 954.3,-209.668"/>
<polygon fill="midnightblue" stroke="midnightblue" points="926.724,-212.298 917.739,-217.912 928.264,-219.126 926.724,-212.298"/>
</g>
<!-- Node6&#45;&gt;Node4 -->
<g id="edge12" class="edge"><title>Node6&#45;&gt;Node4</title>
<path fill="none" stroke="midnightblue" d="M654.227,-228C708.047,-228 781.573,-228 828.176,-228"/>
<polygon fill="midnightblue" stroke="midnightblue" points="654.079,-224.5 644.079,-228 654.079,-231.5 654.079,-224.5"/>
</g>
<!-- Node7&#45;&gt;Node3 -->
<g id="edge16" class="edge"><title>Node7&#45;&gt;Node3</title>
<path fill="none" stroke="midnightblue" d="M636.715,-332.901C656.041,-327.91 677.804,-322.289 696.105,-317.562"/>
<polygon fill="midnightblue" stroke="midnightblue" points="635.67,-329.556 626.863,-335.446 637.42,-336.334 635.67,-329.556"/>
</g>
<!-- Node8&#45;&gt;Node6 -->
<g id="edge20" class="edge"><title>Node8&#45;&gt;Node6</title>
<path fill="none" stroke="midnightblue" d="M500.367,-228C509.729,-228 519.021,-228 527.841,-228"/>
<polygon fill="midnightblue" stroke="midnightblue" points="500.2,-224.5 490.2,-228 500.2,-231.5 500.2,-224.5"/>
</g>
<!-- Node9&#45;&gt;Node6 -->
<g id="edge24" class="edge"><title>Node9&#45;&gt;Node6</title>
<path fill="none" stroke="midnightblue" d="M462.441,-200.694C486.928,-206.106 515.158,-212.344 538.448,-217.491"/>
<polygon fill="midnightblue" stroke="midnightblue" points="463.075,-197.25 452.556,-198.51 461.565,-204.085 463.075,-197.25"/>
</g>
<!-- Node10&#45;&gt;Node9 -->
<g id="edge28" class="edge"><title>Node10&#45;&gt;Node9</title>
<path fill="none" stroke="midnightblue" d="M291.145,-199.607C305.152,-198.179 319.43,-196.723 332.927,-195.347"/>
<polygon fill="midnightblue" stroke="midnightblue" points="290.602,-196.144 281.009,-200.64 291.312,-203.108 290.602,-196.144"/>
</g>
<!-- Node11&#45;&gt;Node3 -->
<g id="edge32" class="edge"><title>Node11&#45;&gt;Node3</title>
<path fill="none" stroke="midnightblue" d="M611.327,-388.043C622.041,-381.271 634.645,-373.276 646,-366 672.157,-349.238 702.399,-329.573 720.595,-317.711"/>
<polygon fill="midnightblue" stroke="midnightblue" points="609.428,-385.103 602.841,-393.401 613.165,-391.022 609.428,-385.103"/>
</g>
<!-- Node13&#45;&gt;Node3 -->
<g id="edge38" class="edge"><title>Node13&#45;&gt;Node3</title>
<path fill="none" stroke="midnightblue" d="M262.853,-322.864C369.57,-319.293 582.308,-312.176 682.465,-308.825"/>
<polygon fill="midnightblue" stroke="midnightblue" points="262.43,-319.376 252.552,-323.208 262.664,-326.372 262.43,-319.376"/>
</g>
<!-- Node13&#45;&gt;Node8 -->
<g id="edge44" class="edge"><title>Node13&#45;&gt;Node8</title>
<path fill="none" stroke="midnightblue" d="M220.43,-308.189C243.697,-290.722 282.564,-263.78 320,-248 328.941,-244.231 338.723,-241.097 348.368,-238.516"/>
<polygon fill="midnightblue" stroke="midnightblue" points="218.143,-305.531 212.311,-314.377 222.386,-311.098 218.143,-305.531"/>
</g>
<!-- Node14 -->
<g id="node34" class="node"><title>Node14</title>
<a xlink:href="classSocketClient.xhtml#a6b296c5002caa1229e7d7b9be6f08607" target="_top" xlink:title="Build a socket for a new client connection and set all attributes.">
<polygon fill="white" stroke="black" points="353.5,-335.5 353.5,-356.5 456.5,-356.5 456.5,-335.5 353.5,-335.5"/>
<text text-anchor="middle" x="405" y="-343.5" font-family="FreeSans.ttf" font-size="10.00">SocketClient::New</text>
</a>
</g>
<!-- Node13&#45;&gt;Node14 -->
<g id="edge40" class="edge"><title>Node13&#45;&gt;Node14</title>
<path fill="none" stroke="midnightblue" d="M262.675,-331.491C291.835,-334.464 325.944,-337.941 353.459,-340.746"/>
<polygon fill="midnightblue" stroke="midnightblue" points="262.89,-327.995 252.586,-330.463 262.18,-334.959 262.89,-327.995"/>
</g>
<!-- Node14&#45;&gt;Node7 -->
<g id="edge42" class="edge"><title>Node14&#45;&gt;Node7</title>
<path fill="none" stroke="midnightblue" d="M466.93,-346C485.972,-346 506.895,-346 525.818,-346"/>
<polygon fill="midnightblue" stroke="midnightblue" points="466.867,-342.5 456.867,-346 466.867,-349.5 466.867,-342.5"/>
</g>
<!-- Node16 -->
<g id="node41" class="node"><title>Node16</title>
<a xlink:href="classSocketServer.xhtml#a276e17da8bbf562313bce8edfd32e231" target="_top" xlink:title="Build a socket for a server and set all attributes.">
<polygon fill="white" stroke="black" points="351.5,-120.5 351.5,-141.5 458.5,-141.5 458.5,-120.5 351.5,-120.5"/>
<text text-anchor="middle" x="405" y="-128.5" font-family="FreeSans.ttf" font-size="10.00">SocketServer::New</text>
</a>
</g>
<!-- Node15&#45;&gt;Node16 -->
<g id="edge50" class="edge"><title>Node15&#45;&gt;Node16</title>
<path fill="none" stroke="midnightblue" d="M263.303,-131C291.543,-131 324.323,-131 351.237,-131"/>
<polygon fill="midnightblue" stroke="midnightblue" points="263.124,-127.5 253.124,-131 263.124,-134.5 263.124,-127.5"/>
</g>
<!-- Node17 -->
<g id="node43" class="node"><title>Node17</title>
<a xlink:href="classServer.xhtml#a84ed4b0103f83fe0ece0a89983d0787a" target="_top" xlink:title="Start the NAMS Server. Responsible for calling all critical boot&#45;time functions such as SocketServer ...">
<polygon fill="white" stroke="black" points="692,-164.5 692,-185.5 782,-185.5 782,-164.5 692,-164.5"/>
<text text-anchor="middle" x="737" y="-172.5" font-family="FreeSans.ttf" font-size="10.00">Server::Startup</text>
</a>
</g>
<!-- Node16&#45;&gt;Node17 -->
<g id="edge52" class="edge"><title>Node16&#45;&gt;Node17</title>
<path fill="none" stroke="midnightblue" d="M468.9,-139.469C534.314,-148.138 634.311,-161.391 691.898,-169.023"/>
<polygon fill="midnightblue" stroke="midnightblue" points="469.084,-135.962 458.711,-138.118 468.164,-142.902 469.084,-135.962"/>
</g>
<!-- Node17&#45;&gt;Node5 -->
<g id="edge54" class="edge"><title>Node17&#45;&gt;Node5</title>
<path fill="none" stroke="midnightblue" d="M792.066,-181.941C843.783,-188.46 918.416,-197.868 954.255,-202.385"/>
<polygon fill="midnightblue" stroke="midnightblue" points="792.405,-178.456 782.046,-180.678 791.53,-185.401 792.405,-178.456"/>
</g>
<!-- Node19&#45;&gt;Node16 -->
<g id="edge60" class="edge"><title>Node19&#45;&gt;Node16</title>
<path fill="none" stroke="midnightblue" d="M263.303,-103.486C291.543,-108.969 324.323,-115.335 351.237,-120.561"/>
<polygon fill="midnightblue" stroke="midnightblue" points="263.608,-99.9799 253.124,-101.51 262.274,-106.852 263.608,-99.9799"/>
</g>
</g>
</svg>
        <g id="navigator" transform="translate(0 0)" fill="#404254">
                <rect fill="#f2f5e9" fill-opacity="0.5" stroke="#606060" stroke-width=".5" x="0" y="0" width="60" height="60"/>
                <use id="zoomplus" xlink:href="#zoomPlus" x="17" y="9" onmousedown="handleZoom(evt,'in')"/>
                <use id="zoomminus" xlink:href="#zoomMin" x="42" y="9" onmousedown="handleZoom(evt,'out')"/>
                <use id="reset" xlink:href="#resetDef" x="30" y="36" onmousedown="handleReset()"/>
                <g id="arrowUp" xlink:href="#dirArrow" transform="translate(30 24)" onmousedown="handlePan(0,-1)">
                  <use xlink:href="#rim" fill="#404040">
                        <set attributeName="fill" to="#808080" begin="arrowUp.mouseover" end="arrowUp.mouseout"/>
                  </use>
                  <path fill="none" stroke="white" stroke-width="1.5" d="M0,-3.0v7 M-2.5,-0.5L0,-3.0L2.5,-0.5"/>
                </g>
                <g id="arrowRight" xlink:href="#dirArrow" transform="rotate(90) translate(36 -43)" onmousedown="handlePan(1,0)">
                  <use xlink:href="#rim" fill="#404040">
                        <set attributeName="fill" to="#808080" begin="arrowRight.mouseover" end="arrowRight.mouseout"/>
                  </use>
                  <path fill="none" stroke="white" stroke-width="1.5" d="M0,-3.0v7 M-2.5,-0.5L0,-3.0L2.5,-0.5"/>
                </g>
                <g id="arrowDown" xlink:href="#dirArrow" transform="rotate(180) translate(-30 -48)" onmousedown="handlePan(0,1)">
                  <use xlink:href="#rim" fill="#404040">
                        <set attributeName="fill" to="#808080" begin="arrowDown.mouseover" end="arrowDown.mouseout"/>
                  </use>
                  <path fill="none" stroke="white" stroke-width="1.5" d="M0,-3.0v7 M-2.5,-0.5L0,-3.0L2.5,-0.5"/>
                </g>
                <g id="arrowLeft" xlink:href="#dirArrow" transform="rotate(270) translate(-36 17)" onmousedown="handlePan(-1,0)">
                  <use xlink:href="#rim" fill="#404040">
                        <set attributeName="fill" to="#808080" begin="arrowLeft.mouseover" end="arrowLeft.mouseout"/>
                  </use>
                  <path fill="none" stroke="white" stroke-width="1.5" d="M0,-3.0v7 M-2.5,-0.5L0,-3.0L2.5,-0.5"/>
                </g>
        </g>
</svg>
