<?xml version="1.0" encoding="UTF-8" standalone="no"?>
<!DOCTYPE svg PUBLIC "-//W3C//DTD SVG 1.1//EN"
 "http://www.w3.org/Graphics/SVG/1.1/DTD/svg11.dtd">
<!-- Generated by graphviz version 2.26.3 (20100126.1600)
 -->
<!-- Title: G Pages: 1 -->
<!--zoomable 270 -->
<svg id="main" version="1.1" xmlns="http://www.w3.org/2000/svg" xmlns:xlink="http://www.w3.org/1999/xlink" xml:space="preserve" onload="init(evt)">
        <defs>
                <circle id="rim" cx="0" cy="0" r="7"/>
                <circle id="rim2" cx="0" cy="0" r="3.5"/>
                <g id="zoomPlus">
                        <use xlink:href="#rim" fill="#404040">
                                <set attributeName="fill" to="#808080" begin="zoomplus.mouseover" end="zoomplus.mouseout"/>
                        </use>
                        <path d="M-4,0h8M0,-4v8" fill="none" stroke="white" stroke-width="1.5" pointer-events="none"/>
                </g>
                <g id="zoomMin">
                        <use xlink:href="#rim" fill="#404040">
                                <set attributeName="fill" to="#808080" begin="zoomminus.mouseover" end="zoomminus.mouseout"/>
                        </use>
                        <path d="M-4,0h8" fill="none" stroke="white" stroke-width="1.5" pointer-events="none"/>
                </g>
                <g id="dirArrow">
                        <path fill="none" stroke="white" stroke-width="1.5" d="M0,-3.0v7 M-2.5,-0.5L0,-3.0L2.5,-0.5"/>
                </g>
               <g id="resetDef">
                       <use xlink:href="#rim2" fill="#404040">
                               <set attributeName="fill" to="#808080" begin="reset.mouseover" end="reset.mouseout"/>
                       </use>
               </g>
        </defs>

<script type="text/javascript">
var viewWidth = 1372;
var viewHeight = 270;
var sectionId = 'dynsection-30';
</script>
<script xlink:href="svgpan.js"/>
<svg id="graph" class="graph">
<g id="viewport">
<title>G</title>
<polygon fill="white" stroke="white" points="-4,5 -4,-266 1369,-266 1369,5 -4,5"/>
<!-- Node1 -->
<g id="node1" class="node"><title>Node1</title>
<polygon fill="#bfbfbf" stroke="black" points="0,-139.5 0,-160.5 142,-160.5 142,-139.5 0,-139.5"/>
<text text-anchor="middle" x="71" y="-147.5" font-family="FreeSans.ttf" font-size="10.00">Server::sSocketClientNext</text>
</g>
<!-- Node2 -->
<g id="node3" class="node"><title>Node2</title>
<a xlink:href="namespaceHandler.xhtml#a120400154c1559acfc874fe8a0bfbf88" target="_top" xlink:title="Check to see if the current account is already being created.">
<polygon fill="white" stroke="black" points="178,-120.5 178,-141.5 308,-141.5 308,-120.5 178,-120.5"/>
<text text-anchor="middle" x="243" y="-128.5" font-family="FreeSans.ttf" font-size="10.00">Handler::CheckCreating</text>
</a>
</g>
<!-- Node1&#45;&gt;Node2 -->
<g id="edge2" class="edge"><title>Node1&#45;&gt;Node2</title>
<path fill="none" stroke="midnightblue" d="M152.408,-141.007C160.931,-140.066 169.516,-139.117 177.824,-138.2"/>
<polygon fill="midnightblue" stroke="midnightblue" points="152.004,-137.53 142.449,-142.107 152.773,-144.488 152.004,-137.53"/>
</g>
<!-- Node17 -->
<g id="node39" class="node"><title>Node17</title>
<a xlink:href="classSocketClient.xhtml#af09328648d18ae943c8866cf744e5aad" target="_top" xlink:title="Unload a client&#39;s socket from memory that was previously loaded via SocketClient::New().">
<polygon fill="white" stroke="black" points="674,-200.5 674,-221.5 788,-221.5 788,-200.5 674,-200.5"/>
<text text-anchor="middle" x="731" y="-208.5" font-family="FreeSans.ttf" font-size="10.00">SocketClient::Delete</text>
</a>
</g>
<!-- Node1&#45;&gt;Node17 -->
<g id="edge44" class="edge"><title>Node1&#45;&gt;Node17</title>
<path fill="none" stroke="midnightblue" d="M152.581,-157.54C288.177,-170.072 556.607,-194.882 673.903,-205.723"/>
<polygon fill="midnightblue" stroke="midnightblue" points="152.538,-154.021 142.259,-156.586 151.894,-160.992 152.538,-154.021"/>
</g>
<!-- Node3 -->
<g id="node5" class="node"><title>Node3</title>
<a xlink:href="namespaceHandler.xhtml#a44b41bf69fdc6e615a029bea34910191" target="_top" xlink:title="Send initial greeting and request for account name.">
<polygon fill="white" stroke="black" points="344.5,-120.5 344.5,-141.5 463.5,-141.5 463.5,-120.5 344.5,-120.5"/>
<text text-anchor="middle" x="404" y="-128.5" font-family="FreeSans.ttf" font-size="10.00">Handler::LoginScreen</text>
</a>
</g>
<!-- Node2&#45;&gt;Node3 -->
<g id="edge4" class="edge"><title>Node2&#45;&gt;Node3</title>
<path fill="none" stroke="midnightblue" d="M318.271,-131C327.057,-131 335.927,-131 344.459,-131"/>
<polygon fill="midnightblue" stroke="midnightblue" points="318.021,-127.5 308.021,-131 318.021,-134.5 318.021,-127.5"/>
</g>
<!-- Node4 -->
<g id="node7" class="node"><title>Node4</title>
<a xlink:href="namespaceHandler.xhtml#af650e47f3d4baf393b54376d1eaa1fa9" target="_top" xlink:title="Handle SocketClient objects who have not fully logged into the game yet.">
<polygon fill="white" stroke="black" points="500.5,-120.5 500.5,-141.5 623.5,-141.5 623.5,-120.5 500.5,-120.5"/>
<text text-anchor="middle" x="562" y="-128.5" font-family="FreeSans.ttf" font-size="10.00">Handler::ProcessLogin</text>
</a>
</g>
<!-- Node3&#45;&gt;Node4 -->
<g id="edge6" class="edge"><title>Node3&#45;&gt;Node4</title>
<path fill="none" stroke="midnightblue" d="M473.957,-124.289C482.749,-124.212 491.691,-124.248 500.342,-124.397"/>
<polygon fill="midnightblue" stroke="midnightblue" points="473.683,-120.793 463.733,-124.432 473.781,-127.792 473.683,-120.793"/>
</g>
<!-- Node4&#45;&gt;Node3 -->
<g id="edge34" class="edge"><title>Node4&#45;&gt;Node3</title>
<path fill="none" stroke="midnightblue" d="M490.079,-137.726C481.268,-137.786 472.338,-137.734 463.733,-137.568"/>
<polygon fill="midnightblue" stroke="midnightblue" points="490.385,-141.223 500.342,-137.603 490.301,-134.223 490.385,-141.223"/>
</g>
<!-- Node5 -->
<g id="node9" class="node"><title>Node5</title>
<a xlink:href="namespaceHandler.xhtml#a142c6f0b9e36e54eba3d72f9db2dfe40" target="_top" xlink:title="Redirect to the appropriate subsystem based on socket state.">
<polygon fill="white" stroke="black" points="680.5,-240.5 680.5,-261.5 781.5,-261.5 781.5,-240.5 680.5,-240.5"/>
<text text-anchor="middle" x="731" y="-248.5" font-family="FreeSans.ttf" font-size="10.00">Handler::Interpret</text>
</a>
</g>
<!-- Node4&#45;&gt;Node5 -->
<g id="edge8" class="edge"><title>Node4&#45;&gt;Node5</title>
<path fill="none" stroke="midnightblue" d="M575.331,-149.638C592.43,-172.191 624.187,-209.773 660,-231 666.39,-234.787 673.528,-237.885 680.749,-240.411"/>
<polygon fill="midnightblue" stroke="midnightblue" points="578.086,-147.477 569.322,-141.524 572.461,-151.643 578.086,-147.477"/>
</g>
<!-- Node10 -->
<g id="node19" class="node"><title>Node10</title>
<a xlink:href="namespaceHandler.xhtml#a33a19d69ead678af81fbe96907eceaf0" target="_top" xlink:title="Create a new account object, or load an existing one, with a name and password.">
<polygon fill="white" stroke="black" points="665.5,-0.5 665.5,-21.5 796.5,-21.5 796.5,-0.5 665.5,-0.5"/>
<text text-anchor="middle" x="731" y="-8.5" font-family="FreeSans.ttf" font-size="10.00">Handler::AttachAccount</text>
</a>
</g>
<!-- Node4&#45;&gt;Node10 -->
<g id="edge18" class="edge"><title>Node4&#45;&gt;Node10</title>
<path fill="none" stroke="midnightblue" d="M571.651,-111.65C587.57,-86.6863 621.432,-44.8592 660,-22 661.763,-20.9553 663.582,-19.963 665.445,-19.023"/>
<polygon fill="midnightblue" stroke="midnightblue" points="568.595,-109.941 566.457,-120.318 574.599,-113.54 568.595,-109.941"/>
</g>
<!-- Node11 -->
<g id="node22" class="node"><title>Node11</title>
<a xlink:href="namespaceHandler.xhtml#a00bc24564bfd267e0329643c569da1e4" target="_top" xlink:title="Select a new account name.">
<polygon fill="white" stroke="black" points="662.5,-160.5 662.5,-181.5 799.5,-181.5 799.5,-160.5 662.5,-160.5"/>
<text text-anchor="middle" x="731" y="-168.5" font-family="FreeSans.ttf" font-size="10.00">Handler::GetNewAccount</text>
</a>
</g>
<!-- Node4&#45;&gt;Node11 -->
<g id="edge22" class="edge"><title>Node4&#45;&gt;Node11</title>
<path fill="none" stroke="midnightblue" d="M633.89,-141.333C660.041,-147.241 687.84,-154.42 706.963,-160.424"/>
<polygon fill="midnightblue" stroke="midnightblue" points="634.49,-137.881 623.97,-139.135 632.976,-144.715 634.49,-137.881"/>
</g>
<!-- Node12 -->
<g id="node25" class="node"><title>Node12</title>
<a xlink:href="namespaceHandler.xhtml#a744adadcf407cdb3a9c33365afd5a7c2" target="_top" xlink:title="Create a new account.">
<polygon fill="white" stroke="black" points="660,-120.5 660,-141.5 802,-141.5 802,-120.5 660,-120.5"/>
<text text-anchor="middle" x="731" y="-128.5" font-family="FreeSans.ttf" font-size="10.00">Handler::GetNewPassword</text>
</a>
</g>
<!-- Node4&#45;&gt;Node12 -->
<g id="edge26" class="edge"><title>Node4&#45;&gt;Node12</title>
<path fill="none" stroke="midnightblue" d="M634.231,-124.314C642.732,-124.225 651.402,-124.229 659.887,-124.326"/>
<polygon fill="midnightblue" stroke="midnightblue" points="633.916,-120.818 623.97,-124.468 634.021,-127.817 633.916,-120.818"/>
</g>
<!-- Node13 -->
<g id="node28" class="node"><title>Node13</title>
<a xlink:href="namespaceHandler.xhtml#adfe13cc9748392348f3941656a1323b6" target="_top" xlink:title="Compare a received password against an existing account.">
<polygon fill="white" stroke="black" points="662.5,-80.5 662.5,-101.5 799.5,-101.5 799.5,-80.5 662.5,-80.5"/>
<text text-anchor="middle" x="731" y="-88.5" font-family="FreeSans.ttf" font-size="10.00">Handler::GetOldPassword</text>
</a>
</g>
<!-- Node4&#45;&gt;Node13 -->
<g id="edge30" class="edge"><title>Node4&#45;&gt;Node13</title>
<path fill="none" stroke="midnightblue" d="M595.582,-117.537C614.697,-111.947 639.355,-105.734 662.38,-100.598"/>
<polygon fill="midnightblue" stroke="midnightblue" points="594.412,-114.234 585.855,-120.481 596.44,-120.934 594.412,-114.234"/>
</g>
<!-- Node14 -->
<g id="node32" class="node"><title>Node14</title>
<a xlink:href="classSocketClient.xhtml#a553658a2c076ea71ddcd1758fc64a925" target="_top" xlink:title="Build a SocketClient for a new client connection and set all attributes.">
<polygon fill="white" stroke="black" points="679.5,-40.5 679.5,-61.5 782.5,-61.5 782.5,-40.5 679.5,-40.5"/>
<text text-anchor="middle" x="731" y="-48.5" font-family="FreeSans.ttf" font-size="10.00">SocketClient::New</text>
</a>
</g>
<!-- Node4&#45;&gt;Node14 -->
<g id="edge36" class="edge"><title>Node4&#45;&gt;Node14</title>
<path fill="none" stroke="midnightblue" d="M584.975,-114.416C604.231,-101.148 632.857,-82.8611 660,-71 668.332,-67.3593 677.503,-64.1996 686.408,-61.5342"/>
<polygon fill="midnightblue" stroke="midnightblue" points="582.759,-111.695 576.574,-120.297 586.773,-117.43 582.759,-111.695"/>
</g>
<!-- Node6 -->
<g id="node11" class="node"><title>Node6</title>
<a xlink:href="classSocketClient.xhtml#ad4f63c7d906310dc56a1217136047d7f" target="_top" xlink:title="Interpret the command at the front of the queue.">
<polygon fill="white" stroke="black" points="838,-240.5 838,-261.5 1008,-261.5 1008,-240.5 838,-240.5"/>
<text text-anchor="middle" x="923" y="-248.5" font-family="FreeSans.ttf" font-size="10.00">SocketClient::ProcessCommand</text>
</a>
</g>
<!-- Node5&#45;&gt;Node6 -->
<g id="edge10" class="edge"><title>Node5&#45;&gt;Node6</title>
<path fill="none" stroke="midnightblue" d="M792.053,-251C806.608,-251 822.404,-251 837.824,-251"/>
<polygon fill="midnightblue" stroke="midnightblue" points="791.697,-247.5 781.697,-251 791.697,-254.5 791.697,-247.5"/>
</g>
<!-- Node7 -->
<g id="node13" class="node"><title>Node7</title>
<a xlink:href="classServer.xhtml#a2b4cec469bb99c2a45e49de5ba74d1ae" target="_top" xlink:title="Processes input from all active SocketClient objects.">
<polygon fill="white" stroke="black" points="1044,-202.5 1044,-223.5 1160,-223.5 1160,-202.5 1044,-202.5"/>
<text text-anchor="middle" x="1102" y="-210.5" font-family="FreeSans.ttf" font-size="10.00">Server::ProcessInput</text>
</a>
</g>
<!-- Node6&#45;&gt;Node7 -->
<g id="edge12" class="edge"><title>Node6&#45;&gt;Node7</title>
<path fill="none" stroke="midnightblue" d="M982.695,-238.327C1005.32,-233.524 1030.81,-228.113 1052.41,-223.528"/>
<polygon fill="midnightblue" stroke="midnightblue" points="981.917,-234.914 972.861,-240.415 983.37,-241.762 981.917,-234.914"/>
</g>
<!-- Node8 -->
<g id="node15" class="node"><title>Node8</title>
<a xlink:href="classServer.xhtml#a50b81aa91d8fdaee6f52c5c5ec987990" target="_top" xlink:title="The core update loop of NAMS. This loop spawns all other subsystem update routines and then sleeps fo...">
<polygon fill="white" stroke="black" points="1196.5,-182.5 1196.5,-203.5 1285.5,-203.5 1285.5,-182.5 1196.5,-182.5"/>
<text text-anchor="middle" x="1241" y="-190.5" font-family="FreeSans.ttf" font-size="10.00">Server::Update</text>
</a>
</g>
<!-- Node7&#45;&gt;Node8 -->
<g id="edge14" class="edge"><title>Node7&#45;&gt;Node8</title>
<path fill="none" stroke="midnightblue" d="M1170.1,-203.201C1178.96,-201.926 1187.86,-200.647 1196.2,-199.446"/>
<polygon fill="midnightblue" stroke="midnightblue" points="1169.54,-199.745 1160.14,-204.634 1170.54,-206.674 1169.54,-199.745"/>
</g>
<!-- Node9 -->
<g id="node17" class="node"><title>Node9</title>
<a xlink:href="main_8cpp.xhtml#ad53223b8779f25caeddb70a3b9172967" target="_top" xlink:title="The default function required to execute the server.">
<polygon fill="white" stroke="black" points="1322.5,-182.5 1322.5,-203.5 1363.5,-203.5 1363.5,-182.5 1322.5,-182.5"/>
<text text-anchor="middle" x="1343" y="-190.5" font-family="FreeSans.ttf" font-size="10.00">main</text>
</a>
</g>
<!-- Node8&#45;&gt;Node9 -->
<g id="edge16" class="edge"><title>Node8&#45;&gt;Node9</title>
<path fill="none" stroke="midnightblue" d="M1295.94,-193C1305.34,-193 1314.55,-193 1322.3,-193"/>
<polygon fill="midnightblue" stroke="midnightblue" points="1295.74,-189.5 1285.74,-193 1295.74,-196.5 1295.74,-189.5"/>
</g>
<!-- Node10&#45;&gt;Node4 -->
<g id="edge20" class="edge"><title>Node10&#45;&gt;Node4</title>
<path fill="none" stroke="midnightblue" d="M699.772,-24.4058C686.845,-28.1423 672.083,-32.8385 660,-40 623.197,-61.8135 590.678,-100.899 573.947,-120.273"/>
<polygon fill="midnightblue" stroke="midnightblue" points="701.004,-27.6943 709.66,-21.5861 699.084,-20.9626 701.004,-27.6943"/>
</g>
<!-- Node11&#45;&gt;Node4 -->
<g id="edge24" class="edge"><title>Node11&#45;&gt;Node4</title>
<path fill="none" stroke="midnightblue" d="M652.433,-159.139C628.227,-153.531 603.368,-147.027 585.855,-141.519"/>
<polygon fill="midnightblue" stroke="midnightblue" points="651.853,-162.597 662.38,-161.402 653.405,-155.771 651.853,-162.597"/>
</g>
<!-- Node12&#45;&gt;Node4 -->
<g id="edge28" class="edge"><title>Node12&#45;&gt;Node4</title>
<path fill="none" stroke="midnightblue" d="M649.752,-137.746C641.082,-137.769 632.366,-137.698 623.97,-137.532"/>
<polygon fill="midnightblue" stroke="midnightblue" points="649.912,-141.245 659.887,-137.674 649.863,-134.245 649.912,-141.245"/>
</g>
<!-- Node13&#45;&gt;Node4 -->
<g id="edge32" class="edge"><title>Node13&#45;&gt;Node4</title>
<path fill="none" stroke="midnightblue" d="M697.251,-104.512C676.302,-110.632 648.742,-117.491 623.97,-122.865"/>
<polygon fill="midnightblue" stroke="midnightblue" points="698.403,-107.82 706.963,-101.576 696.378,-101.119 698.403,-107.82"/>
</g>
<!-- Node15 -->
<g id="node34" class="node"><title>Node15</title>
<a xlink:href="classSocketServer.xhtml#afdbc60c3bc840875d2214b59c6213f63" target="_top" xlink:title="Accept a new connection on the listening port.">
<polygon fill="white" stroke="black" points="863,-124.5 863,-145.5 983,-145.5 983,-124.5 863,-124.5"/>
<text text-anchor="middle" x="923" y="-132.5" font-family="FreeSans.ttf" font-size="10.00">SocketServer::Accept</text>
</a>
</g>
<!-- Node14&#45;&gt;Node15 -->
<g id="edge38" class="edge"><title>Node14&#45;&gt;Node15</title>
<path fill="none" stroke="midnightblue" d="M783.681,-64.4841C789.922,-66.4787 796.148,-68.6589 802,-71 840.613,-86.4469 882.978,-110.682 905.922,-124.472"/>
<polygon fill="midnightblue" stroke="midnightblue" points="784.501,-61.0751 773.915,-61.506 782.46,-67.7707 784.501,-61.0751"/>
</g>
<!-- Node16 -->
<g id="node36" class="node"><title>Node16</title>
<a xlink:href="classServer.xhtml#a39dbe16fdc8c5f6fbd678c6540fbcd6c" target="_top" xlink:title="Poll all SocketClient objects that are communicating with the associated SocketServer object...">
<polygon fill="white" stroke="black" points="1047.5,-162.5 1047.5,-183.5 1156.5,-183.5 1156.5,-162.5 1047.5,-162.5"/>
<text text-anchor="middle" x="1102" y="-170.5" font-family="FreeSans.ttf" font-size="10.00">Server::PollSockets</text>
</a>
</g>
<!-- Node15&#45;&gt;Node16 -->
<g id="edge40" class="edge"><title>Node15&#45;&gt;Node16</title>
<path fill="none" stroke="midnightblue" d="M982.695,-147.673C1005.32,-152.476 1030.81,-157.887 1052.41,-162.472"/>
<polygon fill="midnightblue" stroke="midnightblue" points="983.37,-144.238 972.861,-145.585 981.917,-151.086 983.37,-144.238"/>
</g>
<!-- Node16&#45;&gt;Node8 -->
<g id="edge42" class="edge"><title>Node16&#45;&gt;Node8</title>
<path fill="none" stroke="midnightblue" d="M1166.57,-182.291C1176.69,-183.747 1186.94,-185.222 1196.47,-186.593"/>
<polygon fill="midnightblue" stroke="midnightblue" points="1166.93,-178.807 1156.54,-180.847 1165.94,-185.736 1166.93,-178.807"/>
</g>
<!-- Node17&#45;&gt;Node7 -->
<g id="edge48" class="edge"><title>Node17&#45;&gt;Node7</title>
<path fill="none" stroke="midnightblue" d="M798.217,-211.362C868.382,-211.741 977.283,-212.328 1043.86,-212.687"/>
<polygon fill="midnightblue" stroke="midnightblue" points="798.174,-207.862 788.156,-211.308 798.137,-214.862 798.174,-207.862"/>
</g>
<!-- Node17&#45;&gt;Node15 -->
<g id="edge50" class="edge"><title>Node17&#45;&gt;Node15</title>
<path fill="none" stroke="midnightblue" d="M788.883,-197.026C793.42,-195.232 797.847,-193.23 802,-191 820.603,-181.012 819.455,-170.095 838,-160 849.078,-153.97 861.781,-149.238 873.93,-145.591"/>
<polygon fill="midnightblue" stroke="midnightblue" points="787.691,-193.736 779.472,-200.422 790.066,-200.32 787.691,-193.736"/>
</g>
<!-- Node17&#45;&gt;Node16 -->
<g id="edge46" class="edge"><title>Node17&#45;&gt;Node16</title>
<path fill="none" stroke="midnightblue" d="M798.399,-204.097C869.865,-196.777 981.367,-185.356 1047.5,-178.582"/>
<polygon fill="midnightblue" stroke="midnightblue" points="797.747,-200.645 788.156,-205.146 798.46,-207.609 797.747,-200.645"/>
</g>
</g>
</svg>
        <g id="navigator" transform="translate(0 0)" fill="#404254">
                <rect fill="#f2f5e9" fill-opacity="0.5" stroke="#606060" stroke-width=".5" x="0" y="0" width="60" height="60"/>
                <use id="zoomplus" xlink:href="#zoomPlus" x="17" y="9" onmousedown="handleZoom(evt,'in')"/>
                <use id="zoomminus" xlink:href="#zoomMin" x="42" y="9" onmousedown="handleZoom(evt,'out')"/>
                <use id="reset" xlink:href="#resetDef" x="30" y="36" onmousedown="handleReset()"/>
                <g id="arrowUp" xlink:href="#dirArrow" transform="translate(30 24)" onmousedown="handlePan(0,-1)">
                  <use xlink:href="#rim" fill="#404040">
                        <set attributeName="fill" to="#808080" begin="arrowUp.mouseover" end="arrowUp.mouseout"/>
                  </use>
                  <path fill="none" stroke="white" stroke-width="1.5" d="M0,-3.0v7 M-2.5,-0.5L0,-3.0L2.5,-0.5"/>
                </g>
                <g id="arrowRight" xlink:href="#dirArrow" transform="rotate(90) translate(36 -43)" onmousedown="handlePan(1,0)">
                  <use xlink:href="#rim" fill="#404040">
                        <set attributeName="fill" to="#808080" begin="arrowRight.mouseover" end="arrowRight.mouseout"/>
                  </use>
                  <path fill="none" stroke="white" stroke-width="1.5" d="M0,-3.0v7 M-2.5,-0.5L0,-3.0L2.5,-0.5"/>
                </g>
                <g id="arrowDown" xlink:href="#dirArrow" transform="rotate(180) translate(-30 -48)" onmousedown="handlePan(0,1)">
                  <use xlink:href="#rim" fill="#404040">
                        <set attributeName="fill" to="#808080" begin="arrowDown.mouseover" end="arrowDown.mouseout"/>
                  </use>
                  <path fill="none" stroke="white" stroke-width="1.5" d="M0,-3.0v7 M-2.5,-0.5L0,-3.0L2.5,-0.5"/>
                </g>
                <g id="arrowLeft" xlink:href="#dirArrow" transform="rotate(270) translate(-36 17)" onmousedown="handlePan(-1,0)">
                  <use xlink:href="#rim" fill="#404040">
                        <set attributeName="fill" to="#808080" begin="arrowLeft.mouseover" end="arrowLeft.mouseout"/>
                  </use>
                  <path fill="none" stroke="white" stroke-width="1.5" d="M0,-3.0v7 M-2.5,-0.5L0,-3.0L2.5,-0.5"/>
                </g>
        </g>
</svg>
