<?xml version="1.0" encoding="UTF-8" standalone="no"?>
<!DOCTYPE svg PUBLIC "-//W3C//DTD SVG 1.1//EN"
 "http://www.w3.org/Graphics/SVG/1.1/DTD/svg11.dtd">
<!-- Generated by graphviz version 2.26.3 (20100126.1600)
 -->
<!-- Title: Thing::gLocation Pages: 1 -->
<svg width="1194pt" height="658pt"
 viewBox="0.00 0.00 1194.00 657.53" xmlns="http://www.w3.org/2000/svg" xmlns:xlink="http://www.w3.org/1999/xlink">
<g id="graph1" class="graph" transform="scale(1 1) rotate(0) translate(4 653.529)">
<title>Thing::gLocation</title>
<polygon fill="white" stroke="white" points="-4,5 -4,-653.529 1191,-653.529 1191,5 -4,5"/>
<!-- Node1 -->
<g id="node1" class="node"><title>Node1</title>
<polygon fill="#bfbfbf" stroke="black" points="0.5,-140.677 0.5,-160.677 95.5,-160.677 95.5,-140.677 0.5,-140.677"/>
<text text-anchor="middle" x="48" y="-147.677" font-family="FreeSans.ttf" font-size="10.00">Thing::gLocation</text>
</g>
<!-- Node2 -->
<g id="node3" class="node"><title>Node2</title>
<a xlink:href="namespaceHandler.xhtml#a571519b889d3750c63b9dc3418449bcb" target="_top" xlink:title="Places the character loaded against the account into the game world.">
<polygon fill="white" stroke="black" points="132.5,-140.677 132.5,-160.677 247.5,-160.677 247.5,-140.677 132.5,-140.677"/>
<text text-anchor="middle" x="190" y="-147.677" font-family="FreeSans.ttf" font-size="10.00">Handler::EnterGame</text>
</a>
</g>
<!-- Node1&#45;&gt;Node2 -->
<g id="edge2" class="edge"><title>Node1&#45;&gt;Node2</title>
<path fill="none" stroke="midnightblue" d="M105.799,-150.677C114.557,-150.677 123.592,-150.677 132.347,-150.677"/>
<polygon fill="midnightblue" stroke="midnightblue" points="105.679,-147.177 95.679,-150.677 105.679,-154.177 105.679,-147.177"/>
</g>
<!-- Node3 -->
<g id="node5" class="node"><title>Node3</title>
<a xlink:href="namespaceHandler.xhtml#a139febc000c9d767a620708148e0c888" target="_top" xlink:title="Dispatches the appropriate menu based on client state.">
<polygon fill="white" stroke="black" points="284.5,-295.677 284.5,-315.677 407.5,-315.677 407.5,-295.677 284.5,-295.677"/>
<text text-anchor="middle" x="346" y="-302.677" font-family="FreeSans.ttf" font-size="10.00">Handler::LoginHandler</text>
</a>
</g>
<!-- Node2&#45;&gt;Node3 -->
<g id="edge4" class="edge"><title>Node2&#45;&gt;Node3</title>
<path fill="none" stroke="midnightblue" d="M207.344,-167.91C240.048,-200.405 309.882,-269.791 335.93,-295.671"/>
<polygon fill="midnightblue" stroke="midnightblue" points="209.796,-165.413 200.236,-160.847 204.862,-170.379 209.796,-165.413"/>
</g>
<!-- Node19 -->
<g id="node51" class="node"><title>Node19</title>
<a xlink:href="namespaceServer.xhtml#a16ea0639731dee10e1a253375b508a02" target="_top" xlink:title="Recovers the server state and re&#45;connects client sockets after a reboot.">
<polygon fill="white" stroke="black" points="680,-4.67739 680,-24.6774 810,-24.6774 810,-4.67739 680,-4.67739"/>
<text text-anchor="middle" x="745" y="-11.6774" font-family="FreeSans.ttf" font-size="10.00">Server::RebootRecovery</text>
</a>
</g>
<!-- Node2&#45;&gt;Node19 -->
<g id="edge84" class="edge"><title>Node2&#45;&gt;Node19</title>
<path fill="none" stroke="midnightblue" d="M211.096,-134.633C252.822,-104.027 350.012,-38.2559 444,-14.6774 523.324,5.22247 618.152,0.791643 679.883,-5.65882"/>
<polygon fill="midnightblue" stroke="midnightblue" points="208.999,-131.831 203.055,-140.602 213.171,-137.452 208.999,-131.831"/>
</g>
<!-- Node4 -->
<g id="node7" class="node"><title>Node4</title>
<a xlink:href="namespaceHandler.xhtml#a33a19d69ead678af81fbe96907eceaf0" target="_top" xlink:title="Create a new account object, or load an existing one, with a name and password.">
<polygon fill="white" stroke="black" points="468.5,-591.677 468.5,-611.677 599.5,-611.677 599.5,-591.677 468.5,-591.677"/>
<text text-anchor="middle" x="534" y="-598.677" font-family="FreeSans.ttf" font-size="10.00">Handler::AttachAccount</text>
</a>
</g>
<!-- Node3&#45;&gt;Node4 -->
<g id="edge6" class="edge"><title>Node3&#45;&gt;Node4</title>
<path fill="none" stroke="midnightblue" d="M351.372,-325.539C365.367,-381.845 404.61,-539.171 444,-573.677 455.051,-583.358 469.783,-588.535 484.122,-591.612"/>
<polygon fill="midnightblue" stroke="midnightblue" points="354.732,-324.548 348.917,-315.692 347.94,-326.241 354.732,-324.548"/>
</g>
<!-- Node5 -->
<g id="node10" class="node"><title>Node5</title>
<a xlink:href="namespaceHandler.xhtml#a2e4ebf6ed049eb872aa4948d54c4932c" target="_top" xlink:title="Attempt to write a new character to disk after creation was completed.">
<polygon fill="white" stroke="black" points="464.5,-553.677 464.5,-573.677 603.5,-573.677 603.5,-553.677 464.5,-553.677"/>
<text text-anchor="middle" x="534" y="-560.677" font-family="FreeSans.ttf" font-size="10.00">Handler::AttachCharacter</text>
</a>
</g>
<!-- Node3&#45;&gt;Node5 -->
<g id="edge10" class="edge"><title>Node3&#45;&gt;Node5</title>
<path fill="none" stroke="midnightblue" d="M348.695,-326.019C355.338,-371.381 377.152,-479.957 444,-535.677 455.776,-545.493 471.376,-550.619 486.277,-553.667"/>
<polygon fill="midnightblue" stroke="midnightblue" points="352.137,-325.353 347.315,-315.919 345.201,-326.301 352.137,-325.353"/>
</g>
<!-- Node6 -->
<g id="node13" class="node"><title>Node6</title>
<a xlink:href="namespaceHandler.xhtml#a73ed6064f2698dbffb5f4c247a02b661" target="_top" xlink:title="Send initial account interface menu.">
<polygon fill="white" stroke="black" points="460,-515.677 460,-535.677 608,-535.677 608,-515.677 460,-515.677"/>
<text text-anchor="middle" x="534" y="-522.677" font-family="FreeSans.ttf" font-size="10.00">Handler::AccountMenuMain</text>
</a>
</g>
<!-- Node3&#45;&gt;Node6 -->
<g id="edge14" class="edge"><title>Node3&#45;&gt;Node6</title>
<path fill="none" stroke="midnightblue" d="M350.845,-325.562C360.497,-365.148 386.367,-452.707 444,-497.677 456.59,-507.501 473.077,-512.549 488.496,-515.59"/>
<polygon fill="midnightblue" stroke="midnightblue" points="354.233,-324.679 348.539,-315.744 347.418,-326.279 354.233,-324.679"/>
</g>
<!-- Node7 -->
<g id="node16" class="node"><title>Node7</title>
<a xlink:href="namespaceHandler.xhtml#ad04998a7a6ece2486bc441052a57c2d7" target="_top" xlink:title="Main Character creation menu.">
<polygon fill="white" stroke="black" points="464,-465.677 464,-497.677 604,-497.677 604,-465.677 464,-465.677"/>
<text text-anchor="start" x="472" y="-484.677" font-family="FreeSans.ttf" font-size="10.00">Handler::CharacterCreate</text>
<text text-anchor="middle" x="534" y="-472.677" font-family="FreeSans.ttf" font-size="10.00">MenuMain</text>
</a>
</g>
<!-- Node3&#45;&gt;Node7 -->
<g id="edge18" class="edge"><title>Node3&#45;&gt;Node7</title>
<path fill="none" stroke="midnightblue" d="M355.715,-325.041C369.932,-355.906 399.63,-415.12 444,-447.677 455.375,-456.024 469.413,-461.585 482.99,-465.643"/>
<polygon fill="midnightblue" stroke="midnightblue" points="358.812,-323.397 351.488,-315.741 352.439,-326.293 358.812,-323.397"/>
</g>
<!-- Node8 -->
<g id="node19" class="node"><title>Node8</title>
<a xlink:href="namespaceHandler.xhtml#ab5889a65de2794129b375ec39ae923ae" target="_top" xlink:title="Select a new Character name.">
<polygon fill="white" stroke="black" points="449.5,-427.677 449.5,-447.677 618.5,-447.677 618.5,-427.677 449.5,-427.677"/>
<text text-anchor="middle" x="534" y="-434.677" font-family="FreeSans.ttf" font-size="10.00">Handler::CharacterCreateName</text>
</a>
</g>
<!-- Node3&#45;&gt;Node8 -->
<g id="edge22" class="edge"><title>Node3&#45;&gt;Node8</title>
<path fill="none" stroke="midnightblue" d="M360.642,-323.944C377.389,-347.748 407.293,-388.061 444,-409.677 460.788,-419.564 482.015,-424.342 499.637,-427.61"/>
<polygon fill="midnightblue" stroke="midnightblue" points="363.479,-321.894 354.881,-315.703 357.741,-325.904 363.479,-321.894"/>
</g>
<!-- Node9 -->
<g id="node22" class="node"><title>Node9</title>
<a xlink:href="namespaceHandler.xhtml#ae5086bcf5857eb572beedd09158c3065" target="_top" xlink:title="Select a new Character sex.">
<polygon fill="white" stroke="black" points="455,-389.677 455,-409.677 613,-409.677 613,-389.677 455,-389.677"/>
<text text-anchor="middle" x="534" y="-396.677" font-family="FreeSans.ttf" font-size="10.00">Handler::CharacterCreateSex</text>
</a>
</g>
<!-- Node3&#45;&gt;Node9 -->
<g id="edge26" class="edge"><title>Node3&#45;&gt;Node9</title>
<path fill="none" stroke="midnightblue" d="M370.803,-322.24C389.474,-337.488 416.481,-359.035 444,-371.677 464.171,-380.944 488.971,-385.749 507.426,-389.646"/>
<polygon fill="midnightblue" stroke="midnightblue" points="372.797,-319.349 362.839,-315.731 368.368,-324.769 372.797,-319.349"/>
</g>
<!-- Node10 -->
<g id="node25" class="node"><title>Node10</title>
<a xlink:href="namespaceHandler.xhtml#a97a198bfc72285b2aca4f36978db715e" target="_top" xlink:title="Main Character deletion confirmation.">
<polygon fill="white" stroke="black" points="464.5,-339.677 464.5,-371.677 603.5,-371.677 603.5,-339.677 464.5,-339.677"/>
<text text-anchor="start" x="472.5" y="-358.677" font-family="FreeSans.ttf" font-size="10.00">Handler::CharacterDelete</text>
<text text-anchor="middle" x="534" y="-346.677" font-family="FreeSans.ttf" font-size="10.00">Confirm</text>
</a>
</g>
<!-- Node3&#45;&gt;Node10 -->
<g id="edge30" class="edge"><title>Node3&#45;&gt;Node10</title>
<path fill="none" stroke="midnightblue" d="M417.47,-318.111C443.698,-324.671 472.413,-332.631 494.775,-339.64"/>
<polygon fill="midnightblue" stroke="midnightblue" points="418.105,-314.663 407.558,-315.67 416.431,-321.46 418.105,-314.663"/>
</g>
<!-- Node11 -->
<g id="node28" class="node"><title>Node11</title>
<a xlink:href="namespaceHandler.xhtml#afc470ec6e82b7a9a1560588a368734f9" target="_top" xlink:title="Main Character deletion menu.">
<polygon fill="white" stroke="black" points="464.5,-289.677 464.5,-321.677 603.5,-321.677 603.5,-289.677 464.5,-289.677"/>
<text text-anchor="start" x="472.5" y="-308.677" font-family="FreeSans.ttf" font-size="10.00">Handler::CharacterDelete</text>
<text text-anchor="middle" x="534" y="-296.677" font-family="FreeSans.ttf" font-size="10.00">MenuMain</text>
</a>
</g>
<!-- Node3&#45;&gt;Node11 -->
<g id="edge34" class="edge"><title>Node3&#45;&gt;Node11</title>
<path fill="none" stroke="midnightblue" d="M417.972,-299.095C433.235,-298.859 449.319,-298.872 464.488,-299.135"/>
<polygon fill="midnightblue" stroke="midnightblue" points="417.488,-295.604 407.558,-299.298 417.625,-302.602 417.488,-295.604"/>
</g>
<!-- Node12 -->
<g id="node31" class="node"><title>Node12</title>
<a xlink:href="namespaceHandler.xhtml#a02b1b954749641ab646f6548a5360d3b" target="_top" xlink:title="Main Character load menu.">
<polygon fill="white" stroke="black" points="444.5,-251.677 444.5,-271.677 623.5,-271.677 623.5,-251.677 444.5,-251.677"/>
<text text-anchor="middle" x="534" y="-258.677" font-family="FreeSans.ttf" font-size="10.00">Handler::CharacterLoadMenuMain</text>
</a>
</g>
<!-- Node3&#45;&gt;Node12 -->
<g id="edge38" class="edge"><title>Node3&#45;&gt;Node12</title>
<path fill="none" stroke="midnightblue" d="M370.027,-291.995C389.824,-285.026 418.662,-277.581 444,-271.677 444.156,-271.641 444.311,-271.605 444.467,-271.569"/>
<polygon fill="midnightblue" stroke="midnightblue" points="368.672,-288.766 360.564,-295.586 371.156,-295.31 368.672,-288.766"/>
</g>
<!-- Node13 -->
<g id="node34" class="node"><title>Node13</title>
<a xlink:href="namespaceHandler.xhtml#a00bc24564bfd267e0329643c569da1e4" target="_top" xlink:title="Select a new account name.">
<polygon fill="white" stroke="black" points="465.5,-213.677 465.5,-233.677 602.5,-233.677 602.5,-213.677 465.5,-213.677"/>
<text text-anchor="middle" x="534" y="-220.677" font-family="FreeSans.ttf" font-size="10.00">Handler::GetNewAccount</text>
</a>
</g>
<!-- Node3&#45;&gt;Node13 -->
<g id="edge42" class="edge"><title>Node3&#45;&gt;Node13</title>
<path fill="none" stroke="midnightblue" d="M359.879,-288.203C378.088,-271.19 411.55,-247.005 444,-233.677 450.795,-230.887 458.054,-228.485 465.391,-226.476"/>
<polygon fill="midnightblue" stroke="midnightblue" points="357.233,-285.9 352.645,-295.45 362.187,-290.845 357.233,-285.9"/>
</g>
<!-- Node14 -->
<g id="node37" class="node"><title>Node14</title>
<a xlink:href="namespaceHandler.xhtml#a744adadcf407cdb3a9c33365afd5a7c2" target="_top" xlink:title="Create a new account.">
<polygon fill="white" stroke="black" points="463,-175.677 463,-195.677 605,-195.677 605,-175.677 463,-175.677"/>
<text text-anchor="middle" x="534" y="-182.677" font-family="FreeSans.ttf" font-size="10.00">Handler::GetNewPassword</text>
</a>
</g>
<!-- Node3&#45;&gt;Node14 -->
<g id="edge46" class="edge"><title>Node3&#45;&gt;Node14</title>
<path fill="none" stroke="midnightblue" d="M354.998,-286.616C370.431,-261.101 404.167,-217.659 444,-195.677 449.872,-192.437 456.24,-189.748 462.783,-187.557"/>
<polygon fill="midnightblue" stroke="midnightblue" points="351.886,-285.009 350.004,-295.435 357.977,-288.458 351.886,-285.009"/>
</g>
<!-- Node15 -->
<g id="node40" class="node"><title>Node15</title>
<a xlink:href="namespaceHandler.xhtml#adfe13cc9748392348f3941656a1323b6" target="_top" xlink:title="Compare a received password against an existing account.">
<polygon fill="white" stroke="black" points="465.5,-137.677 465.5,-157.677 602.5,-157.677 602.5,-137.677 465.5,-137.677"/>
<text text-anchor="middle" x="534" y="-144.677" font-family="FreeSans.ttf" font-size="10.00">Handler::GetOldPassword</text>
</a>
</g>
<!-- Node3&#45;&gt;Node15 -->
<g id="edge50" class="edge"><title>Node3&#45;&gt;Node15</title>
<path fill="none" stroke="midnightblue" d="M351.868,-286.087C364.253,-253.358 395.937,-189.33 444,-157.677 450.535,-153.374 457.866,-150.021 465.448,-147.477"/>
<polygon fill="midnightblue" stroke="midnightblue" points="348.562,-284.938 348.529,-295.533 355.162,-287.271 348.562,-284.938"/>
</g>
<!-- Node16 -->
<g id="node43" class="node"><title>Node16</title>
<a xlink:href="namespaceHandler.xhtml#ae70e4e50054c729c14493eafefe01b5c" target="_top" xlink:title="Load a character from the account to enter into the game with.">
<polygon fill="white" stroke="black" points="468.5,-99.6774 468.5,-119.677 599.5,-119.677 599.5,-99.6774 468.5,-99.6774"/>
<text text-anchor="middle" x="534" y="-106.677" font-family="FreeSans.ttf" font-size="10.00">Handler::LoadCharacter</text>
</a>
</g>
<!-- Node3&#45;&gt;Node16 -->
<g id="edge54" class="edge"><title>Node3&#45;&gt;Node16</title>
<path fill="none" stroke="midnightblue" d="M349.813,-285.65C359.286,-246.542 387.323,-161.577 444,-119.677 451.191,-114.361 459.543,-110.462 468.203,-107.708"/>
<polygon fill="midnightblue" stroke="midnightblue" points="346.355,-285.075 347.582,-295.598 353.185,-286.606 346.355,-285.075"/>
</g>
<!-- Node17 -->
<g id="node46" class="node"><title>Node17</title>
<a xlink:href="namespaceHandler.xhtml#a44b41bf69fdc6e615a029bea34910191" target="_top" xlink:title="Send initial greeting and request for account name.">
<polygon fill="white" stroke="black" points="474.5,-61.6774 474.5,-81.6774 593.5,-81.6774 593.5,-61.6774 474.5,-61.6774"/>
<text text-anchor="middle" x="534" y="-68.6774" font-family="FreeSans.ttf" font-size="10.00">Handler::LoginScreen</text>
</a>
</g>
<!-- Node3&#45;&gt;Node17 -->
<g id="edge58" class="edge"><title>Node3&#45;&gt;Node17</title>
<path fill="none" stroke="midnightblue" d="M348.339,-285.135C355.09,-240.143 378.489,-134.177 444,-81.6774 452.723,-74.6868 463.405,-70.0986 474.322,-67.3057"/>
<polygon fill="midnightblue" stroke="midnightblue" points="344.851,-284.809 346.966,-295.19 351.787,-285.756 344.851,-284.809"/>
</g>
<!-- Node18 -->
<g id="node49" class="node"><title>Node18</title>
<a xlink:href="classSocketClient.xhtml#a8399ef20292e9f3ec83b5c4bec2e105b" target="_top" xlink:title="Build a SocketClient for a new client connection and set all attributes.">
<polygon fill="white" stroke="black" points="482.5,-23.6774 482.5,-43.6774 585.5,-43.6774 585.5,-23.6774 482.5,-23.6774"/>
<text text-anchor="middle" x="534" y="-30.6774" font-family="FreeSans.ttf" font-size="10.00">SocketClient::New</text>
</a>
</g>
<!-- Node3&#45;&gt;Node18 -->
<g id="edge62" class="edge"><title>Node3&#45;&gt;Node18</title>
<path fill="none" stroke="midnightblue" d="M347.513,-285.419C352.262,-237.103 371.244,-114.54 444,-52.6774 454.706,-43.5743 468.687,-38.4845 482.425,-35.7244"/>
<polygon fill="midnightblue" stroke="midnightblue" points="344.012,-285.27 346.625,-295.538 350.986,-285.882 344.012,-285.27"/>
</g>
<!-- Node25 -->
<g id="node64" class="node"><title>Node25</title>
<a xlink:href="classSocketClient.xhtml#ad4f63c7d906310dc56a1217136047d7f" target="_top" xlink:title="Interpret the command at the front of the queue.">
<polygon fill="white" stroke="black" points="660,-506.677 660,-526.677 830,-526.677 830,-506.677 660,-506.677"/>
<text text-anchor="middle" x="745" y="-513.677" font-family="FreeSans.ttf" font-size="10.00">SocketClient::ProcessCommand</text>
</a>
</g>
<!-- Node3&#45;&gt;Node25 -->
<g id="edge78" class="edge"><title>Node3&#45;&gt;Node25</title>
<path fill="none" stroke="midnightblue" d="M349.11,-325.69C359.434,-389.239 394.724,-584.402 444,-620.677 508.425,-668.105 548.988,-648.484 624,-620.677 675.686,-601.517 720.132,-549.302 737.362,-526.999"/>
<polygon fill="midnightblue" stroke="midnightblue" points="352.553,-325.055 347.523,-315.73 345.641,-326.156 352.553,-325.055"/>
</g>
<!-- Node4&#45;&gt;Node3 -->
<g id="edge8" class="edge"><title>Node4&#45;&gt;Node3</title>
<path fill="none" stroke="midnightblue" d="M458.923,-601.306C453.527,-598.762 448.463,-595.587 444,-591.677 400.162,-553.274 356.505,-362.742 347.632,-315.85"/>
<polygon fill="midnightblue" stroke="midnightblue" points="457.683,-604.58 468.269,-605.01 460.262,-598.072 457.683,-604.58"/>
</g>
<!-- Node5&#45;&gt;Node3 -->
<g id="edge12" class="edge"><title>Node5&#45;&gt;Node3</title>
<path fill="none" stroke="midnightblue" d="M454.982,-561.012C451.077,-558.927 447.381,-556.496 444,-553.677 366.836,-489.359 349.678,-354.613 346.594,-315.903"/>
<polygon fill="midnightblue" stroke="midnightblue" points="453.864,-564.347 464.419,-565.263 456.74,-557.965 453.864,-564.347"/>
</g>
<!-- Node6&#45;&gt;Node3 -->
<g id="edge16" class="edge"><title>Node6&#45;&gt;Node3</title>
<path fill="none" stroke="midnightblue" d="M450.58,-520.189C448.294,-518.812 446.093,-517.311 444,-515.677 376.051,-462.658 352.254,-350.439 347.131,-315.697"/>
<polygon fill="midnightblue" stroke="midnightblue" points="449.273,-523.452 459.768,-524.901 452.467,-517.223 449.273,-523.452"/>
</g>
<!-- Node7&#45;&gt;Node3 -->
<g id="edge20" class="edge"><title>Node7&#45;&gt;Node3</title>
<path fill="none" stroke="midnightblue" d="M454.46,-472.233C450.801,-470.271 447.289,-468.091 444,-465.677 389.323,-425.557 356.925,-344.956 348.323,-315.848"/>
<polygon fill="midnightblue" stroke="midnightblue" points="453.279,-475.546 463.815,-476.666 456.276,-469.221 453.279,-475.546"/>
</g>
<!-- Node8&#45;&gt;Node3 -->
<g id="edge24" class="edge"><title>Node8&#45;&gt;Node3</title>
<path fill="none" stroke="midnightblue" d="M440.312,-424.968C392.556,-393.151 359.863,-339.185 349.486,-315.957"/>
<polygon fill="midnightblue" stroke="midnightblue" points="438.741,-428.113 449.075,-430.448 442.452,-422.178 438.741,-428.113"/>
</g>
<!-- Node9&#45;&gt;Node3 -->
<g id="edge28" class="edge"><title>Node9&#45;&gt;Node3</title>
<path fill="none" stroke="midnightblue" d="M445.312,-390.271C444.873,-390.075 444.435,-389.877 444,-389.677 404.284,-371.432 365.635,-334.64 351.572,-315.891"/>
<polygon fill="midnightblue" stroke="midnightblue" points="444.222,-393.605 454.806,-394.082 446.829,-387.108 444.222,-393.605"/>
</g>
<!-- Node10&#45;&gt;Node3 -->
<g id="edge32" class="edge"><title>Node10&#45;&gt;Node3</title>
<path fill="none" stroke="midnightblue" d="M454.615,-341.241C422.719,-333.079 388.522,-323.247 367.201,-315.779"/>
<polygon fill="midnightblue" stroke="midnightblue" points="453.87,-344.663 464.422,-343.716 455.583,-337.876 453.87,-344.663"/>
</g>
<!-- Node11&#45;&gt;Node3 -->
<g id="edge36" class="edge"><title>Node11&#45;&gt;Node3</title>
<path fill="none" stroke="midnightblue" d="M454.309,-312.357C438.671,-312.511 422.492,-312.411 407.558,-312.057"/>
<polygon fill="midnightblue" stroke="midnightblue" points="454.537,-315.855 464.488,-312.22 454.442,-308.855 454.537,-315.855"/>
</g>
<!-- Node12&#45;&gt;Node3 -->
<g id="edge40" class="edge"><title>Node12&#45;&gt;Node3</title>
<path fill="none" stroke="midnightblue" d="M507.258,-274.661C489.322,-279.676 465.192,-284.74 444,-289.677 432.201,-292.427 419.642,-295.51 407.591,-298.372"/>
<polygon fill="midnightblue" stroke="midnightblue" points="508.469,-277.952 517.034,-271.716 506.449,-271.25 508.469,-277.952"/>
</g>
<!-- Node13&#45;&gt;Node3 -->
<g id="edge44" class="edge"><title>Node13&#45;&gt;Node3</title>
<path fill="none" stroke="midnightblue" d="M499.829,-235.968C482.637,-239.761 461.738,-244.392 444,-251.677 415.748,-263.28 386.729,-283.114 367.677,-295.585"/>
<polygon fill="midnightblue" stroke="midnightblue" points="500.996,-239.294 509.993,-233.699 499.471,-232.462 500.996,-239.294"/>
</g>
<!-- Node14&#45;&gt;Node3 -->
<g id="edge48" class="edge"><title>Node14&#45;&gt;Node3</title>
<path fill="none" stroke="midnightblue" d="M491.952,-197.711C476.182,-200.997 458.566,-205.639 444,-213.677 405.71,-234.808 373.053,-275.768 356.872,-295.42"/>
<polygon fill="midnightblue" stroke="midnightblue" points="492.867,-201.098 501.999,-195.725 491.51,-194.23 492.867,-201.098"/>
</g>
<!-- Node15&#45;&gt;Node3 -->
<g id="edge52" class="edge"><title>Node15&#45;&gt;Node3</title>
<path fill="none" stroke="midnightblue" d="M485.499,-159.74C471.257,-162.897 456.235,-167.62 444,-175.677 396.407,-207.021 364.875,-270.108 352.237,-295.404"/>
<polygon fill="midnightblue" stroke="midnightblue" points="486.567,-163.096 495.681,-157.693 485.187,-156.233 486.567,-163.096"/>
</g>
<!-- Node16&#45;&gt;Node3 -->
<g id="edge56" class="edge"><title>Node16&#45;&gt;Node3</title>
<path fill="none" stroke="midnightblue" d="M481.165,-121.803C468.08,-124.954 454.745,-129.734 444,-137.677 386.946,-179.856 358.913,-265.675 349.626,-295.582"/>
<polygon fill="midnightblue" stroke="midnightblue" points="482.027,-125.198 491.075,-119.685 480.564,-118.352 482.027,-125.198"/>
</g>
<!-- Node17&#45;&gt;Node3 -->
<g id="edge60" class="edge"><title>Node17&#45;&gt;Node3</title>
<path fill="none" stroke="midnightblue" d="M477.397,-84.0855C465.425,-87.2594 453.541,-92.0314 444,-99.6774 377.418,-153.035 354.337,-261.62 348.022,-295.636"/>
<polygon fill="midnightblue" stroke="midnightblue" points="478.47,-87.4297 487.425,-81.7672 476.894,-80.6096 478.47,-87.4297"/>
</g>
<!-- Node18&#45;&gt;Node19 -->
<g id="edge64" class="edge"><title>Node18&#45;&gt;Node19</title>
<path fill="none" stroke="midnightblue" d="M595.884,-28.1049C622.306,-25.7257 653.158,-22.9475 679.921,-20.5376"/>
<polygon fill="midnightblue" stroke="midnightblue" points="595.262,-24.6466 585.616,-29.0295 595.89,-31.6184 595.262,-24.6466"/>
</g>
<!-- Node22 -->
<g id="node57" class="node"><title>Node22</title>
<a xlink:href="classSocketServer.xhtml#afdbc60c3bc840875d2214b59c6213f63" target="_top" xlink:title="Accept a new connection on the listening port.">
<polygon fill="white" stroke="black" points="685,-42.6774 685,-62.6774 805,-62.6774 805,-42.6774 685,-42.6774"/>
<text text-anchor="middle" x="745" y="-49.6774" font-family="FreeSans.ttf" font-size="10.00">SocketServer::Accept</text>
</a>
</g>
<!-- Node18&#45;&gt;Node22 -->
<g id="edge70" class="edge"><title>Node18&#45;&gt;Node22</title>
<path fill="none" stroke="midnightblue" d="M595.731,-39.2361C623.855,-41.7686 657.024,-44.7554 684.944,-47.2695"/>
<polygon fill="midnightblue" stroke="midnightblue" points="595.89,-35.7364 585.616,-38.3253 595.262,-42.7081 595.89,-35.7364"/>
</g>
<!-- Node20 -->
<g id="node53" class="node"><title>Node20</title>
<a xlink:href="namespaceServer.xhtml#a19a1e493e1fb50a56d9c77332543d565" target="_top" xlink:title="Start the NAMS Server. Responsible for calling all critical boot&#45;time functions such as SocketServer ...">
<polygon fill="white" stroke="black" points="1018,-4.67739 1018,-24.6774 1108,-24.6774 1108,-4.67739 1018,-4.67739"/>
<text text-anchor="middle" x="1063" y="-11.6774" font-family="FreeSans.ttf" font-size="10.00">Server::Startup</text>
</a>
</g>
<!-- Node19&#45;&gt;Node20 -->
<g id="edge66" class="edge"><title>Node19&#45;&gt;Node20</title>
<path fill="none" stroke="midnightblue" d="M820.16,-14.6774C881.639,-14.6774 966.543,-14.6774 1017.95,-14.6774"/>
<polygon fill="midnightblue" stroke="midnightblue" points="820.119,-11.1775 810.119,-14.6774 820.119,-18.1775 820.119,-11.1775"/>
</g>
<!-- Node21 -->
<g id="node55" class="node"><title>Node21</title>
<a xlink:href="main_8cpp.xhtml#ad53223b8779f25caeddb70a3b9172967" target="_top" xlink:title="The default function required to execute the server.">
<polygon fill="white" stroke="black" points="1144.5,-23.6774 1144.5,-43.6774 1185.5,-43.6774 1185.5,-23.6774 1144.5,-23.6774"/>
<text text-anchor="middle" x="1165" y="-30.6774" font-family="FreeSans.ttf" font-size="10.00">main</text>
</a>
</g>
<!-- Node20&#45;&gt;Node21 -->
<g id="edge68" class="edge"><title>Node20&#45;&gt;Node21</title>
<path fill="none" stroke="midnightblue" d="M1117.9,-24.9047C1127.36,-26.6668 1136.64,-28.3954 1144.43,-29.846"/>
<polygon fill="midnightblue" stroke="midnightblue" points="1118.51,-21.4569 1108.04,-23.0664 1117.23,-28.3385 1118.51,-21.4569"/>
</g>
<!-- Node23 -->
<g id="node59" class="node"><title>Node23</title>
<a xlink:href="namespaceServer.xhtml#a39dbe16fdc8c5f6fbd678c6540fbcd6c" target="_top" xlink:title="Poll all SocketClient objects that are communicating with the associated SocketServer object...">
<polygon fill="white" stroke="black" points="869.5,-42.6774 869.5,-62.6774 978.5,-62.6774 978.5,-42.6774 869.5,-42.6774"/>
<text text-anchor="middle" x="924" y="-49.6774" font-family="FreeSans.ttf" font-size="10.00">Server::PollSockets</text>
</a>
</g>
<!-- Node22&#45;&gt;Node23 -->
<g id="edge72" class="edge"><title>Node22&#45;&gt;Node23</title>
<path fill="none" stroke="midnightblue" d="M815.268,-52.6774C833.284,-52.6774 852.391,-52.6774 869.478,-52.6774"/>
<polygon fill="midnightblue" stroke="midnightblue" points="815.102,-49.1775 805.102,-52.6774 815.102,-56.1775 815.102,-49.1775"/>
</g>
<!-- Node24 -->
<g id="node61" class="node"><title>Node24</title>
<a xlink:href="namespaceServer.xhtml#a50b81aa91d8fdaee6f52c5c5ec987990" target="_top" xlink:title="The core update loop of NAMS. This loop spawns all other subsystem update routines and then sleeps fo...">
<polygon fill="white" stroke="black" points="1018.5,-42.6774 1018.5,-62.6774 1107.5,-62.6774 1107.5,-42.6774 1018.5,-42.6774"/>
<text text-anchor="middle" x="1063" y="-49.6774" font-family="FreeSans.ttf" font-size="10.00">Server::Update</text>
</a>
</g>
<!-- Node23&#45;&gt;Node24 -->
<g id="edge74" class="edge"><title>Node23&#45;&gt;Node24</title>
<path fill="none" stroke="midnightblue" d="M988.574,-52.6774C998.688,-52.6774 1008.94,-52.6774 1018.47,-52.6774"/>
<polygon fill="midnightblue" stroke="midnightblue" points="988.538,-49.1775 978.538,-52.6774 988.537,-56.1775 988.538,-49.1775"/>
</g>
<!-- Node24&#45;&gt;Node21 -->
<g id="edge76" class="edge"><title>Node24&#45;&gt;Node21</title>
<path fill="none" stroke="midnightblue" d="M1117.64,-42.499C1127.14,-40.7298 1136.47,-38.9922 1144.3,-37.5332"/>
<polygon fill="midnightblue" stroke="midnightblue" points="1116.93,-39.0716 1107.74,-44.3437 1118.21,-45.9532 1116.93,-39.0716"/>
</g>
<!-- Node26 -->
<g id="node66" class="node"><title>Node26</title>
<a xlink:href="namespaceServer.xhtml#a2b4cec469bb99c2a45e49de5ba74d1ae" target="_top" xlink:title="Processes input from all active SocketClient objects.">
<polygon fill="white" stroke="black" points="866,-222.677 866,-242.677 982,-242.677 982,-222.677 866,-222.677"/>
<text text-anchor="middle" x="924" y="-229.677" font-family="FreeSans.ttf" font-size="10.00">Server::ProcessInput</text>
</a>
</g>
<!-- Node25&#45;&gt;Node26 -->
<g id="edge80" class="edge"><title>Node25&#45;&gt;Node26</title>
<path fill="none" stroke="midnightblue" d="M756.856,-497.867C791.387,-443.081 891.109,-284.861 917.519,-242.961"/>
<polygon fill="midnightblue" stroke="midnightblue" points="753.742,-496.244 751.371,-506.57 759.664,-499.976 753.742,-496.244"/>
</g>
<!-- Node26&#45;&gt;Node24 -->
<g id="edge82" class="edge"><title>Node26&#45;&gt;Node24</title>
<path fill="none" stroke="midnightblue" d="M938.105,-214.412C967.124,-176.834 1032.67,-91.9478 1055.21,-62.7589"/>
<polygon fill="midnightblue" stroke="midnightblue" points="935.213,-212.43 931.872,-222.484 940.754,-216.708 935.213,-212.43"/>
</g>
</g>
</svg>
