<?xml version="1.0" encoding="UTF-8" standalone="no"?>
<!DOCTYPE svg PUBLIC "-//W3C//DTD SVG 1.1//EN"
 "http://www.w3.org/Graphics/SVG/1.1/DTD/svg11.dtd">
<!-- Generated by graphviz version 2.26.3 (20100126.1600)
 -->
<!-- Title: G Pages: 1 -->
<!--zoomable 728 -->
<svg id="main" version="1.1" xmlns="http://www.w3.org/2000/svg" xmlns:xlink="http://www.w3.org/1999/xlink" xml:space="preserve" onload="init(evt)">
        <defs>
                <circle id="rim" cx="0" cy="0" r="7"/>
                <circle id="rim2" cx="0" cy="0" r="3.5"/>
                <g id="zoomPlus">
                        <use xlink:href="#rim" fill="#404040">
                                <set attributeName="fill" to="#808080" begin="zoomplus.mouseover" end="zoomplus.mouseout"/>
                        </use>
                        <path d="M-4,0h8M0,-4v8" fill="none" stroke="white" stroke-width="1.5" pointer-events="none"/>
                </g>
                <g id="zoomMin">
                        <use xlink:href="#rim" fill="#404040">
                                <set attributeName="fill" to="#808080" begin="zoomminus.mouseover" end="zoomminus.mouseout"/>
                        </use>
                        <path d="M-4,0h8" fill="none" stroke="white" stroke-width="1.5" pointer-events="none"/>
                </g>
                <g id="dirArrow">
                        <path fill="none" stroke="white" stroke-width="1.5" d="M0,-3.0v7 M-2.5,-0.5L0,-3.0L2.5,-0.5"/>
                </g>
               <g id="resetDef">
                       <use xlink:href="#rim2" fill="#404040">
                               <set attributeName="fill" to="#808080" begin="reset.mouseover" end="reset.mouseout"/>
                       </use>
               </g>
        </defs>

<script type="text/javascript">
var viewWidth = 800;
var viewHeight = 728;
var sectionId = 'dynsection-13';
</script>
<script xlink:href="svgpan.js"/>
<svg id="graph" class="graph">
<g id="viewport">
<title>G</title>
<polygon fill="white" stroke="white" points="-4,5 -4,-723.72 797,-723.72 797,5 -4,5"/>
<!-- Node1 -->
<g id="node1" class="node"><title>Node1</title>
<polygon fill="#bfbfbf" stroke="black" points="0.5,-314.5 0.5,-335.5 109.5,-335.5 109.5,-314.5 0.5,-314.5"/>
<text text-anchor="middle" x="55" y="-322.5" font-family="FreeSans.ttf" font-size="10.00">Server::PollSockets</text>
</g>
<!-- Node2 -->
<g id="node3" class="node"><title>Node2</title>
<a xlink:href="classSocket.xhtml#a45d3aa99d71b868921543a4708471f82" target="_top" xlink:title="Returns the file descriptor associated to the Socket.">
<polygon fill="white" stroke="black" points="678.5,-434.5 678.5,-455.5 789.5,-455.5 789.5,-434.5 678.5,-434.5"/>
<text text-anchor="middle" x="734" y="-442.5" font-family="FreeSans.ttf" font-size="10.00">Socket::gDescriptor</text>
</a>
</g>
<!-- Node1&#45;&gt;Node2 -->
<g id="edge2" class="edge"><title>Node1&#45;&gt;Node2</title>
<path fill="none" stroke="midnightblue" d="M59.009,-335.775C69.6198,-363.147 100.757,-436.48 146,-483 273.971,-614.584 321.356,-649.123 498,-699 558.736,-716.149 588.205,-735.06 640,-699 680.073,-671.101 716.995,-521.288 729.502,-465.741"/>
<polygon fill="midnightblue" stroke="midnightblue" points="732.987,-466.193 731.733,-455.673 726.153,-464.679 732.987,-466.193"/>
</g>
<!-- Node3 -->
<g id="node5" class="node"><title>Node3</title>
<a xlink:href="classSocketClient.xhtml#af09328648d18ae943c8866cf744e5aad" target="_top" xlink:title="Unload a client&#39;s socket from memory that was previously loaded via SocketClient::New().">
<polygon fill="white" stroke="black" points="342,-548.5 342,-569.5 456,-569.5 456,-548.5 342,-548.5"/>
<text text-anchor="middle" x="399" y="-556.5" font-family="FreeSans.ttf" font-size="10.00">SocketClient::Delete</text>
</a>
</g>
<!-- Node1&#45;&gt;Node3 -->
<g id="edge4" class="edge"><title>Node1&#45;&gt;Node3</title>
<path fill="none" stroke="midnightblue" d="M63.1625,-335.682C78.1234,-354.793 111.576,-395.414 146,-423 222.317,-484.158 248.076,-491.175 336,-534 343.756,-537.778 352.236,-541.442 360.39,-544.748"/>
<polygon fill="midnightblue" stroke="midnightblue" points="359.163,-548.026 369.749,-548.45 361.737,-541.517 359.163,-548.026"/>
</g>
<!-- Node9 -->
<g id="node17" class="node"><title>Node9</title>
<a xlink:href="classSocketClient.xhtml#a92a268dc450fb7f42df61de1105a0416" target="_top" xlink:title="Checks if a client is marked as quitting.">
<polygon fill="white" stroke="black" points="163,-392.5 163,-413.5 283,-413.5 283,-392.5 163,-392.5"/>
<text text-anchor="middle" x="223" y="-400.5" font-family="FreeSans.ttf" font-size="10.00">SocketClient::Quitting</text>
</a>
</g>
<!-- Node1&#45;&gt;Node9 -->
<g id="edge16" class="edge"><title>Node1&#45;&gt;Node9</title>
<path fill="none" stroke="midnightblue" d="M70.8825,-335.66C88.6199,-347.225 118.463,-365.681 146,-378 155.334,-382.176 165.581,-385.997 175.468,-389.328"/>
<polygon fill="midnightblue" stroke="midnightblue" points="174.597,-392.725 185.189,-392.491 176.763,-386.068 174.597,-392.725"/>
</g>
<!-- Node10 -->
<g id="node19" class="node"><title>Node10</title>
<a xlink:href="classSocketServer.xhtml#afdbc60c3bc840875d2214b59c6213f63" target="_top" xlink:title="Accept a new connection on the listening port.">
<polygon fill="white" stroke="black" points="163,-314.5 163,-335.5 283,-335.5 283,-314.5 163,-314.5"/>
<text text-anchor="middle" x="223" y="-322.5" font-family="FreeSans.ttf" font-size="10.00">SocketServer::Accept</text>
</a>
</g>
<!-- Node1&#45;&gt;Node10 -->
<g id="edge18" class="edge"><title>Node1&#45;&gt;Node10</title>
<path fill="none" stroke="midnightblue" d="M109.545,-325C123.268,-325 138.192,-325 152.572,-325"/>
<polygon fill="midnightblue" stroke="midnightblue" points="152.921,-328.5 162.921,-325 152.921,-321.5 152.921,-328.5"/>
</g>
<!-- Node17 -->
<g id="node36" class="node"><title>Node17</title>
<a xlink:href="classSocketClient.xhtml#a6268f3d184970ec0076da657c39d2e80" target="_top" xlink:title="Process data from the client&#39;s send buffer and transmit it via the socket.">
<polygon fill="white" stroke="black" points="515.5,-394.5 515.5,-415.5 622.5,-415.5 622.5,-394.5 515.5,-394.5"/>
<text text-anchor="middle" x="569" y="-402.5" font-family="FreeSans.ttf" font-size="10.00">SocketClient::Send</text>
</a>
</g>
<!-- Node1&#45;&gt;Node17 -->
<g id="edge76" class="edge"><title>Node1&#45;&gt;Node17</title>
<path fill="none" stroke="midnightblue" d="M99.7621,-335.542C114.447,-338.812 130.878,-342.27 146,-345 272.827,-367.898 422.354,-387.353 505.343,-397.491"/>
<polygon fill="midnightblue" stroke="midnightblue" points="505.024,-400.977 515.373,-398.71 505.869,-394.029 505.024,-400.977"/>
</g>
<!-- Node22 -->
<g id="node50" class="node"><title>Node22</title>
<a xlink:href="classSocketClient.xhtml#a686aea73a8e9c9dbaac6438ec1b24293" target="_top" xlink:title="Set the idle timer value of the socket.">
<polygon fill="white" stroke="black" points="682,-78.5 682,-99.5 786,-99.5 786,-78.5 682,-78.5"/>
<text text-anchor="middle" x="734" y="-86.5" font-family="FreeSans.ttf" font-size="10.00">SocketClient::sIdle</text>
</a>
</g>
<!-- Node1&#45;&gt;Node22 -->
<g id="edge56" class="edge"><title>Node1&#45;&gt;Node22</title>
<path fill="none" stroke="midnightblue" d="M62.5459,-314.408C76.7685,-295.17 109.42,-254.324 146,-231 285.609,-141.982 336.032,-143.368 498,-109 556.085,-96.675 623.732,-91.8909 671.673,-90.0619"/>
<polygon fill="midnightblue" stroke="midnightblue" points="672.024,-93.5519 681.896,-89.7052 671.78,-86.5561 672.024,-93.5519"/>
</g>
<!-- Node23 -->
<g id="node52" class="node"><title>Node23</title>
<a xlink:href="classSocketClient.xhtml#a9ee09f452d900e288b2aa187561ef05d" target="_top" xlink:title="Receive data from the client and append it to a receive buffer.">
<polygon fill="white" stroke="black" points="517,-118.5 517,-139.5 621,-139.5 621,-118.5 517,-118.5"/>
<text text-anchor="middle" x="569" y="-126.5" font-family="FreeSans.ttf" font-size="10.00">SocketClient::Recv</text>
</a>
</g>
<!-- Node1&#45;&gt;Node23 -->
<g id="edge58" class="edge"><title>Node1&#45;&gt;Node23</title>
<path fill="none" stroke="midnightblue" d="M82.6349,-314.462C168.919,-281.56 433.41,-180.704 531.703,-143.222"/>
<polygon fill="midnightblue" stroke="midnightblue" points="533.132,-146.423 541.228,-139.59 530.638,-139.883 533.132,-146.423"/>
</g>
<!-- Node26 -->
<g id="node63" class="node"><title>Node26</title>
<a xlink:href="classSocketClient.xhtml#a9c982fdda7a3daa5b153eada40a3b6fb" target="_top" xlink:title="Returns the amount of time the client has been idle.">
<polygon fill="white" stroke="black" points="170.5,-40.5 170.5,-61.5 275.5,-61.5 275.5,-40.5 170.5,-40.5"/>
<text text-anchor="middle" x="223" y="-48.5" font-family="FreeSans.ttf" font-size="10.00">SocketClient::gIdle</text>
</a>
</g>
<!-- Node1&#45;&gt;Node26 -->
<g id="edge74" class="edge"><title>Node1&#45;&gt;Node26</title>
<path fill="none" stroke="midnightblue" d="M55.6865,-314.251C58.7082,-276.034 74.1022,-145.324 146,-76 150.343,-71.8127 155.394,-68.3267 160.794,-65.4246"/>
<polygon fill="midnightblue" stroke="midnightblue" points="162.558,-68.4641 170.147,-61.0711 159.604,-62.1179 162.558,-68.4641"/>
</g>
<!-- Node27 -->
<g id="node66" class="node"><title>Node27</title>
<a xlink:href="classSocketClient.xhtml#ad887231d8188cf23b88b6dad24b9408a" target="_top" xlink:title="Tests if there is any output to be processed.">
<polygon fill="white" stroke="black" points="146,-0.5 146,-21.5 300,-21.5 300,-0.5 146,-0.5"/>
<text text-anchor="middle" x="223" y="-8.5" font-family="FreeSans.ttf" font-size="10.00">SocketClient::PendingOutput</text>
</a>
</g>
<!-- Node1&#45;&gt;Node27 -->
<g id="edge78" class="edge"><title>Node1&#45;&gt;Node27</title>
<path fill="none" stroke="midnightblue" d="M56.8815,-314.305C65.5086,-266.426 102.722,-72.3297 146,-31 147.498,-29.5692 149.085,-28.2373 150.746,-26.9978"/>
<polygon fill="midnightblue" stroke="midnightblue" points="152.916,-29.7711 159.585,-21.5387 149.238,-23.8153 152.916,-29.7711"/>
</g>
<!-- Node4 -->
<g id="node7" class="node"><title>Node4</title>
<a xlink:href="classSocket.xhtml#a508457b48e6296d1e86c7cc72af65948" target="_top" xlink:title="Return if the Socket is valid for use.">
<polygon fill="white" stroke="black" points="695,-296.5 695,-317.5 773,-317.5 773,-296.5 695,-296.5"/>
<text text-anchor="middle" x="734" y="-304.5" font-family="FreeSans.ttf" font-size="10.00">Socket::Valid</text>
</a>
</g>
<!-- Node3&#45;&gt;Node4 -->
<g id="edge6" class="edge"><title>Node3&#45;&gt;Node4</title>
<path fill="none" stroke="midnightblue" d="M431.739,-548.41C482.51,-530.489 580.565,-489.688 640,-425 666.379,-396.289 650.679,-374.649 676,-345 683.542,-336.169 693.636,-328.598 703.287,-322.59"/>
<polygon fill="midnightblue" stroke="midnightblue" points="705.081,-325.596 711.941,-317.522 701.543,-319.556 705.081,-325.596"/>
</g>
<!-- Node5 -->
<g id="node9" class="node"><title>Node5</title>
<a xlink:href="classServer.xhtml#a1e68e32745cdfe194e0af388d9d5244a" target="_top" xlink:title="Set the amount of subordinate SocketClient and SocketServer objects that have been closed on a NAMS S...">
<polygon fill="white" stroke="black" points="509.5,-548.5 509.5,-569.5 628.5,-569.5 628.5,-548.5 509.5,-548.5"/>
<text text-anchor="middle" x="569" y="-556.5" font-family="FreeSans.ttf" font-size="10.00">Server::sSocketClose</text>
</a>
</g>
<!-- Node3&#45;&gt;Node5 -->
<g id="edge8" class="edge"><title>Node3&#45;&gt;Node5</title>
<path fill="none" stroke="midnightblue" d="M456.08,-559C469.897,-559 484.82,-559 499.15,-559"/>
<polygon fill="midnightblue" stroke="midnightblue" points="499.455,-562.5 509.455,-559 499.455,-555.5 499.455,-562.5"/>
</g>
<!-- Node6 -->
<g id="node11" class="node"><title>Node6</title>
<a xlink:href="classServer.xhtml#a01c4cacfdade91bc99d6c8911ca33a54" target="_top" xlink:title="Returns the combined number of SocketClient and SocketServer objects that have been destroyed...">
<polygon fill="white" stroke="black" points="509.5,-668.5 509.5,-689.5 628.5,-689.5 628.5,-668.5 509.5,-668.5"/>
<text text-anchor="middle" x="569" y="-676.5" font-family="FreeSans.ttf" font-size="10.00">Server::gSocketClose</text>
</a>
</g>
<!-- Node3&#45;&gt;Node6 -->
<g id="edge10" class="edge"><title>Node3&#45;&gt;Node6</title>
<path fill="none" stroke="midnightblue" d="M406.423,-569.521C421.368,-589.917 457.168,-634.939 498,-659 501.6,-661.121 505.435,-663.026 509.387,-664.736"/>
<polygon fill="midnightblue" stroke="midnightblue" points="508.177,-668.021 518.766,-668.382 510.713,-661.497 508.177,-668.021"/>
</g>
<!-- Node7 -->
<g id="node13" class="node"><title>Node7</title>
<a xlink:href="classSocketClient.xhtml#abb055f2dc275dd975ac9465a8e5b19e5" target="_top" xlink:title="Returns the Server object associated to this SocketClient.">
<polygon fill="white" stroke="black" points="509,-628.5 509,-649.5 629,-649.5 629,-628.5 509,-628.5"/>
<text text-anchor="middle" x="569" y="-636.5" font-family="FreeSans.ttf" font-size="10.00">SocketClient::gServer</text>
</a>
</g>
<!-- Node3&#45;&gt;Node7 -->
<g id="edge12" class="edge"><title>Node3&#45;&gt;Node7</title>
<path fill="none" stroke="midnightblue" d="M413.741,-569.693C432.502,-582.878 466.293,-605.23 498,-619 503.343,-621.32 509.028,-623.447 514.766,-625.377"/>
<polygon fill="midnightblue" stroke="midnightblue" points="513.83,-628.752 524.42,-628.436 515.945,-622.079 513.83,-628.752"/>
</g>
<!-- Node8 -->
<g id="node15" class="node"><title>Node8</title>
<a xlink:href="classServer.xhtml#ab25462e8370bd6f9270c2f0734b70354" target="_top" xlink:title="Sets the Server&#39;s globally referenced next iterator for SocketClient objects.">
<polygon fill="white" stroke="black" points="498,-588.5 498,-609.5 640,-609.5 640,-588.5 498,-588.5"/>
<text text-anchor="middle" x="569" y="-596.5" font-family="FreeSans.ttf" font-size="10.00">Server::sSocketClientNext</text>
</a>
</g>
<!-- Node3&#45;&gt;Node8 -->
<g id="edge14" class="edge"><title>Node3&#45;&gt;Node8</title>
<path fill="none" stroke="midnightblue" d="M443.665,-569.51C465.346,-574.611 491.584,-580.785 514.439,-586.162"/>
<polygon fill="midnightblue" stroke="midnightblue" points="513.802,-589.608 524.338,-588.491 515.405,-582.794 513.802,-589.608"/>
</g>
<!-- Node10&#45;&gt;Node2 -->
<g id="edge22" class="edge"><title>Node10&#45;&gt;Node2</title>
<path fill="none" stroke="midnightblue" d="M239.157,-335.549C280.254,-361.671 392.963,-428.917 498,-452 554.507,-464.418 620.443,-461.015 668.235,-455.462"/>
<polygon fill="midnightblue" stroke="midnightblue" points="668.951,-458.9 678.451,-454.21 668.099,-451.952 668.951,-458.9"/>
</g>
<!-- Node10&#45;&gt;Node3 -->
<g id="edge54" class="edge"><title>Node10&#45;&gt;Node3</title>
<path fill="none" stroke="midnightblue" d="M244.249,-335.597C261.856,-345.476 286.158,-361.856 300,-383 337.788,-440.723 290.844,-481.838 336,-534 339.201,-537.698 343.023,-540.854 347.181,-543.546"/>
<polygon fill="midnightblue" stroke="midnightblue" points="345.644,-546.696 356.093,-548.448 349.018,-540.562 345.644,-546.696"/>
</g>
<!-- Node10&#45;&gt;Node4 -->
<g id="edge20" class="edge"><title>Node10&#45;&gt;Node4</title>
<path fill="none" stroke="midnightblue" d="M239.613,-314.495C261.12,-301.297 300.106,-278.72 336,-265 405.274,-238.521 424.38,-233.954 498,-225 560.649,-217.38 582.968,-197.974 640,-225 662.833,-235.82 657.214,-252.103 676,-269 685.045,-277.136 695.988,-284.771 705.92,-291.031"/>
<polygon fill="midnightblue" stroke="midnightblue" points="704.314,-294.152 714.674,-296.37 707.959,-288.175 704.314,-294.152"/>
</g>
<!-- Node11 -->
<g id="node23" class="node"><title>Node11</title>
<a xlink:href="classSocketServer.xhtml#afa8e672745cc807784d445dadb2ce937" target="_top" xlink:title="Returns the Server object associated to this SocketServer.">
<polygon fill="white" stroke="black" points="336.5,-274.5 336.5,-295.5 461.5,-295.5 461.5,-274.5 336.5,-274.5"/>
<text text-anchor="middle" x="399" y="-282.5" font-family="FreeSans.ttf" font-size="10.00">SocketServer::gServer</text>
</a>
</g>
<!-- Node10&#45;&gt;Node11 -->
<g id="edge24" class="edge"><title>Node10&#45;&gt;Node11</title>
<path fill="none" stroke="midnightblue" d="M269.242,-314.49C291.788,-309.366 319.096,-303.16 342.832,-297.765"/>
<polygon fill="midnightblue" stroke="midnightblue" points="343.786,-301.138 352.762,-295.509 342.235,-294.312 343.786,-301.138"/>
</g>
<!-- Node12 -->
<g id="node25" class="node"><title>Node12</title>
<a xlink:href="classSocketClient.xhtml#a6b296c5002caa1229e7d7b9be6f08607" target="_top" xlink:title="Build a SocketClient for a new client connection and set all attributes.">
<polygon fill="white" stroke="black" points="347.5,-314.5 347.5,-335.5 450.5,-335.5 450.5,-314.5 347.5,-314.5"/>
<text text-anchor="middle" x="399" y="-322.5" font-family="FreeSans.ttf" font-size="10.00">SocketClient::New</text>
</a>
</g>
<!-- Node10&#45;&gt;Node12 -->
<g id="edge26" class="edge"><title>Node10&#45;&gt;Node12</title>
<path fill="none" stroke="midnightblue" d="M283.077,-325C300.558,-325 319.68,-325 337.261,-325"/>
<polygon fill="midnightblue" stroke="midnightblue" points="337.411,-328.5 347.411,-325 337.411,-321.5 337.411,-328.5"/>
</g>
<!-- Node12&#45;&gt;Node2 -->
<g id="edge28" class="edge"><title>Node12&#45;&gt;Node2</title>
<path fill="none" stroke="midnightblue" d="M405.618,-335.562C419.637,-356.873 454.627,-404.714 498,-425 551.377,-449.965 618.948,-453.247 668.096,-451.299"/>
<polygon fill="midnightblue" stroke="midnightblue" points="668.471,-454.785 678.292,-450.809 668.136,-447.793 668.471,-454.785"/>
</g>
<!-- Node13 -->
<g id="node28" class="node"><title>Node13</title>
<a xlink:href="classSocket.xhtml#a14e5e2493abcae97043297dd170e7a39" target="_top" xlink:title="Sets the hostname of the socket.">
<polygon fill="white" stroke="black" points="513.5,-234.5 513.5,-255.5 624.5,-255.5 624.5,-234.5 513.5,-234.5"/>
<text text-anchor="middle" x="569" y="-242.5" font-family="FreeSans.ttf" font-size="10.00">Socket::sHostname</text>
</a>
</g>
<!-- Node12&#45;&gt;Node13 -->
<g id="edge30" class="edge"><title>Node12&#45;&gt;Node13</title>
<path fill="none" stroke="midnightblue" d="M442.733,-314.468C449.46,-311.914 456.117,-308.793 462,-305 482.101,-292.039 477.689,-277.629 498,-265 501.331,-262.929 504.88,-261.068 508.549,-259.395"/>
<polygon fill="midnightblue" stroke="midnightblue" points="509.91,-262.62 517.857,-255.614 507.275,-256.134 509.91,-262.62"/>
</g>
<!-- Node14 -->
<g id="node30" class="node"><title>Node14</title>
<a xlink:href="classSocket.xhtml#a24c8132ced233add89f4fda68284e578" target="_top" xlink:title="Sets the port that was opened for the socket.">
<polygon fill="white" stroke="black" points="529,-354.5 529,-375.5 609,-375.5 609,-354.5 529,-354.5"/>
<text text-anchor="middle" x="569" y="-362.5" font-family="FreeSans.ttf" font-size="10.00">Socket::sPort</text>
</a>
</g>
<!-- Node12&#45;&gt;Node14 -->
<g id="edge32" class="edge"><title>Node12&#45;&gt;Node14</title>
<path fill="none" stroke="midnightblue" d="M443.665,-335.51C466.821,-340.958 495.174,-347.629 519.053,-353.248"/>
<polygon fill="midnightblue" stroke="midnightblue" points="518.449,-356.701 528.985,-355.585 520.052,-349.887 518.449,-356.701"/>
</g>
<!-- Node15 -->
<g id="node32" class="node"><title>Node15</title>
<a xlink:href="classSocket.xhtml#adc72a37934a4f2d10f6ae8fc94bb4ca7" target="_top" xlink:title="Returns the hostname associated to the Socket.">
<polygon fill="white" stroke="black" points="678,-238.5 678,-259.5 790,-259.5 790,-238.5 678,-238.5"/>
<text text-anchor="middle" x="734" y="-246.5" font-family="FreeSans.ttf" font-size="10.00">Socket::gHostname</text>
</a>
</g>
<!-- Node12&#45;&gt;Node15 -->
<g id="edge34" class="edge"><title>Node12&#45;&gt;Node15</title>
<path fill="none" stroke="midnightblue" d="M447.406,-314.404C452.701,-311.905 457.716,-308.816 462,-305 491.115,-279.067 465.258,-246.17 498,-225 550.998,-190.732 577.381,-217.132 640,-225 656.862,-227.119 675.034,-231.295 690.864,-235.579"/>
<polygon fill="midnightblue" stroke="midnightblue" points="690.318,-239.061 700.892,-238.389 692.207,-232.32 690.318,-239.061"/>
</g>
<!-- Node16 -->
<g id="node34" class="node"><title>Node16</title>
<a xlink:href="classSocket.xhtml#accd94dbf518b30cdd878a9710d3c481c" target="_top" xlink:title="Returns the port associated to the Socket.">
<polygon fill="white" stroke="black" points="528.5,-314.5 528.5,-335.5 609.5,-335.5 609.5,-314.5 528.5,-314.5"/>
<text text-anchor="middle" x="569" y="-322.5" font-family="FreeSans.ttf" font-size="10.00">Socket::gPort</text>
</a>
</g>
<!-- Node12&#45;&gt;Node16 -->
<g id="edge36" class="edge"><title>Node12&#45;&gt;Node16</title>
<path fill="none" stroke="midnightblue" d="M450.929,-325C472.327,-325 497.038,-325 518.305,-325"/>
<polygon fill="midnightblue" stroke="midnightblue" points="518.439,-328.5 528.439,-325 518.439,-321.5 518.439,-328.5"/>
</g>
<!-- Node12&#45;&gt;Node17 -->
<g id="edge38" class="edge"><title>Node12&#45;&gt;Node17</title>
<path fill="none" stroke="midnightblue" d="M432.575,-335.517C442.452,-339.34 453.011,-344.181 462,-350 480.732,-362.127 478.667,-373.855 498,-385 501.682,-387.123 505.603,-389.031 509.638,-390.745"/>
<polygon fill="midnightblue" stroke="midnightblue" points="508.614,-394.1 519.204,-394.401 511.113,-387.562 508.614,-394.1"/>
</g>
<!-- Node21 -->
<g id="node47" class="node"><title>Node21</title>
<a xlink:href="classSocketClient.xhtml#ab5e6737c8acd4aaa21268e10c1a050b4" target="_top" xlink:title="Set the connection state value of the socket.">
<polygon fill="white" stroke="black" points="512,-274.5 512,-295.5 626,-295.5 626,-274.5 512,-274.5"/>
<text text-anchor="middle" x="569" y="-282.5" font-family="FreeSans.ttf" font-size="10.00">SocketClient::sState</text>
</a>
</g>
<!-- Node12&#45;&gt;Node21 -->
<g id="edge52" class="edge"><title>Node12&#45;&gt;Node21</title>
<path fill="none" stroke="midnightblue" d="M443.665,-314.49C465.346,-309.389 491.584,-303.215 514.439,-297.838"/>
<polygon fill="midnightblue" stroke="midnightblue" points="515.405,-301.206 524.338,-295.509 513.802,-294.392 515.405,-301.206"/>
</g>
<!-- Node17&#45;&gt;Node2 -->
<g id="edge42" class="edge"><title>Node17&#45;&gt;Node2</title>
<path fill="none" stroke="midnightblue" d="M612.352,-415.51C633.3,-420.588 658.633,-426.729 680.746,-432.09"/>
<polygon fill="midnightblue" stroke="midnightblue" points="680.108,-435.537 690.652,-434.491 681.758,-428.734 680.108,-435.537"/>
</g>
<!-- Node17&#45;&gt;Node4 -->
<g id="edge40" class="edge"><title>Node17&#45;&gt;Node4</title>
<path fill="none" stroke="midnightblue" d="M620.143,-394.386C627.087,-391.874 633.91,-388.787 640,-385 660.311,-372.371 657.846,-360.572 676,-345 685.374,-336.959 696.55,-329.26 706.578,-322.92"/>
<polygon fill="midnightblue" stroke="midnightblue" points="708.694,-325.728 715.38,-317.509 705.028,-319.765 708.694,-325.728"/>
</g>
<!-- Node17&#45;&gt;Node15 -->
<g id="edge44" class="edge"><title>Node17&#45;&gt;Node15</title>
<path fill="none" stroke="midnightblue" d="M622.733,-395.913C629.056,-393.168 635.018,-389.61 640,-385 674.057,-353.484 647.134,-323.329 676,-287 683.037,-278.143 692.723,-270.669 702.165,-264.755"/>
<polygon fill="midnightblue" stroke="midnightblue" points="704.176,-267.633 711.048,-259.569 700.647,-261.588 704.176,-267.633"/>
</g>
<!-- Node18 -->
<g id="node41" class="node"><title>Node18</title>
<a xlink:href="classServer.xhtml#a686505fb3a2ee84bdac3f42710341b71" target="_top" xlink:title="Returns the SocketServer associated with the current Server instance.">
<polygon fill="white" stroke="black" points="687.5,-198.5 687.5,-219.5 780.5,-219.5 780.5,-198.5 687.5,-198.5"/>
<text text-anchor="middle" x="734" y="-206.5" font-family="FreeSans.ttf" font-size="10.00">Server::gSocket</text>
</a>
</g>
<!-- Node17&#45;&gt;Node18 -->
<g id="edge46" class="edge"><title>Node17&#45;&gt;Node18</title>
<path fill="none" stroke="midnightblue" d="M622.588,-396.801C629.091,-393.929 635.14,-390.098 640,-385 689.098,-333.498 628.402,-281.892 676,-229 677.176,-227.694 678.441,-226.473 679.779,-225.331"/>
<polygon fill="midnightblue" stroke="midnightblue" points="681.844,-228.159 688.126,-219.628 677.894,-222.38 681.844,-228.159"/>
</g>
<!-- Node19 -->
<g id="node43" class="node"><title>Node19</title>
<a xlink:href="classSocket.xhtml#a688f0d2182f7ca098de3f76156efad0a" target="_top" xlink:title="Increment the total count of bytes sent by the socket.">
<polygon fill="white" stroke="black" points="678.5,-394.5 678.5,-415.5 789.5,-415.5 789.5,-394.5 678.5,-394.5"/>
<text text-anchor="middle" x="734" y="-402.5" font-family="FreeSans.ttf" font-size="10.00">Socket::aBytesSent</text>
</a>
</g>
<!-- Node17&#45;&gt;Node19 -->
<g id="edge48" class="edge"><title>Node17&#45;&gt;Node19</title>
<path fill="none" stroke="midnightblue" d="M622.571,-405C637.097,-405 652.994,-405 668.114,-405"/>
<polygon fill="midnightblue" stroke="midnightblue" points="668.431,-408.5 678.431,-405 668.431,-401.5 668.431,-408.5"/>
</g>
<!-- Node20 -->
<g id="node45" class="node"><title>Node20</title>
<a xlink:href="classSocket.xhtml#a3bb9f40d6e5f32cfa960a86323322c0c" target="_top" xlink:title="Returns the number of bytes sent by the Socket.">
<polygon fill="white" stroke="black" points="678.5,-354.5 678.5,-375.5 789.5,-375.5 789.5,-354.5 678.5,-354.5"/>
<text text-anchor="middle" x="734" y="-362.5" font-family="FreeSans.ttf" font-size="10.00">Socket::gBytesSent</text>
</a>
</g>
<!-- Node17&#45;&gt;Node20 -->
<g id="edge50" class="edge"><title>Node17&#45;&gt;Node20</title>
<path fill="none" stroke="midnightblue" d="M612.352,-394.49C633.3,-389.412 658.633,-383.271 680.746,-377.91"/>
<polygon fill="midnightblue" stroke="midnightblue" points="681.758,-381.266 690.652,-375.509 680.108,-374.463 681.758,-381.266"/>
</g>
<!-- Node23&#45;&gt;Node2 -->
<g id="edge62" class="edge"><title>Node23&#45;&gt;Node2</title>
<path fill="none" stroke="midnightblue" d="M579.62,-139.744C595.471,-156.453 625.05,-190.361 640,-225 675.79,-307.924 617.237,-356.413 676,-425 677.018,-426.188 678.11,-427.306 679.264,-428.357"/>
<polygon fill="midnightblue" stroke="midnightblue" points="677.494,-431.394 687.66,-434.376 681.572,-425.705 677.494,-431.394"/>
</g>
<!-- Node23&#45;&gt;Node4 -->
<g id="edge60" class="edge"><title>Node23&#45;&gt;Node4</title>
<path fill="none" stroke="midnightblue" d="M584.229,-139.591C599.841,-151.06 624.032,-170.606 640,-192 662.597,-222.275 651.259,-240.451 676,-269 683.606,-277.776 693.715,-285.334 703.362,-291.346"/>
<polygon fill="midnightblue" stroke="midnightblue" points="701.61,-294.376 712.005,-296.422 705.155,-288.34 701.61,-294.376"/>
</g>
<!-- Node23&#45;&gt;Node15 -->
<g id="edge64" class="edge"><title>Node23&#45;&gt;Node15</title>
<path fill="none" stroke="midnightblue" d="M615.822,-139.594C624.554,-143.125 633.092,-147.806 640,-154 667.53,-178.682 648.39,-204.407 676,-229 677.745,-230.554 679.617,-231.989 681.581,-233.313"/>
<polygon fill="midnightblue" stroke="midnightblue" points="680.246,-236.578 690.676,-238.44 683.683,-230.48 680.246,-236.578"/>
</g>
<!-- Node23&#45;&gt;Node18 -->
<g id="edge66" class="edge"><title>Node23&#45;&gt;Node18</title>
<path fill="none" stroke="midnightblue" d="M608.709,-139.598C619.301,-143.314 630.448,-148.078 640,-154 658.967,-165.758 656.995,-177.304 676,-189 679.181,-190.957 682.578,-192.754 686.073,-194.397"/>
<polygon fill="midnightblue" stroke="midnightblue" points="684.899,-197.7 695.471,-198.391 687.637,-191.258 684.899,-197.7"/>
</g>
<!-- Node23&#45;&gt;Node22 -->
<g id="edge72" class="edge"><title>Node23&#45;&gt;Node22</title>
<path fill="none" stroke="midnightblue" d="M612.352,-118.49C633.3,-113.412 658.633,-107.271 680.746,-101.91"/>
<polygon fill="midnightblue" stroke="midnightblue" points="681.758,-105.266 690.652,-99.5087 680.108,-98.4633 681.758,-105.266"/>
</g>
<!-- Node24 -->
<g id="node58" class="node"><title>Node24</title>
<a xlink:href="classSocket.xhtml#aec278bc5096a3087a7bb6a1ed06d7ddd" target="_top" xlink:title="Increment the total count of bytes received by the socket.">
<polygon fill="white" stroke="black" points="676,-118.5 676,-139.5 792,-139.5 792,-118.5 676,-118.5"/>
<text text-anchor="middle" x="734" y="-126.5" font-family="FreeSans.ttf" font-size="10.00">Socket::aBytesRecvd</text>
</a>
</g>
<!-- Node23&#45;&gt;Node24 -->
<g id="edge68" class="edge"><title>Node23&#45;&gt;Node24</title>
<path fill="none" stroke="midnightblue" d="M621.207,-129C635.322,-129 650.811,-129 665.667,-129"/>
<polygon fill="midnightblue" stroke="midnightblue" points="665.827,-132.5 675.827,-129 665.827,-125.5 665.827,-132.5"/>
</g>
<!-- Node25 -->
<g id="node60" class="node"><title>Node25</title>
<a xlink:href="classSocket.xhtml#ad7ac03a288e6ef47a45e6837f7fef002" target="_top" xlink:title="Returns the number of bytes received by the Socket.">
<polygon fill="white" stroke="black" points="676,-158.5 676,-179.5 792,-179.5 792,-158.5 676,-158.5"/>
<text text-anchor="middle" x="734" y="-166.5" font-family="FreeSans.ttf" font-size="10.00">Socket::gBytesRecvd</text>
</a>
</g>
<!-- Node23&#45;&gt;Node25 -->
<g id="edge70" class="edge"><title>Node23&#45;&gt;Node25</title>
<path fill="none" stroke="midnightblue" d="M612.352,-139.51C633.3,-144.588 658.633,-150.729 680.746,-156.09"/>
<polygon fill="midnightblue" stroke="midnightblue" points="680.108,-159.537 690.652,-158.491 681.758,-152.734 680.108,-159.537"/>
</g>
</g>
</svg>
        <g id="navigator" transform="translate(0 0)" fill="#404254">
                <rect fill="#f2f5e9" fill-opacity="0.5" stroke="#606060" stroke-width=".5" x="0" y="0" width="60" height="60"/>
                <use id="zoomplus" xlink:href="#zoomPlus" x="17" y="9" onmousedown="handleZoom(evt,'in')"/>
                <use id="zoomminus" xlink:href="#zoomMin" x="42" y="9" onmousedown="handleZoom(evt,'out')"/>
                <use id="reset" xlink:href="#resetDef" x="30" y="36" onmousedown="handleReset()"/>
                <g id="arrowUp" xlink:href="#dirArrow" transform="translate(30 24)" onmousedown="handlePan(0,-1)">
                  <use xlink:href="#rim" fill="#404040">
                        <set attributeName="fill" to="#808080" begin="arrowUp.mouseover" end="arrowUp.mouseout"/>
                  </use>
                  <path fill="none" stroke="white" stroke-width="1.5" d="M0,-3.0v7 M-2.5,-0.5L0,-3.0L2.5,-0.5"/>
                </g>
                <g id="arrowRight" xlink:href="#dirArrow" transform="rotate(90) translate(36 -43)" onmousedown="handlePan(1,0)">
                  <use xlink:href="#rim" fill="#404040">
                        <set attributeName="fill" to="#808080" begin="arrowRight.mouseover" end="arrowRight.mouseout"/>
                  </use>
                  <path fill="none" stroke="white" stroke-width="1.5" d="M0,-3.0v7 M-2.5,-0.5L0,-3.0L2.5,-0.5"/>
                </g>
                <g id="arrowDown" xlink:href="#dirArrow" transform="rotate(180) translate(-30 -48)" onmousedown="handlePan(0,1)">
                  <use xlink:href="#rim" fill="#404040">
                        <set attributeName="fill" to="#808080" begin="arrowDown.mouseover" end="arrowDown.mouseout"/>
                  </use>
                  <path fill="none" stroke="white" stroke-width="1.5" d="M0,-3.0v7 M-2.5,-0.5L0,-3.0L2.5,-0.5"/>
                </g>
                <g id="arrowLeft" xlink:href="#dirArrow" transform="rotate(270) translate(-36 17)" onmousedown="handlePan(-1,0)">
                  <use xlink:href="#rim" fill="#404040">
                        <set attributeName="fill" to="#808080" begin="arrowLeft.mouseover" end="arrowLeft.mouseout"/>
                  </use>
                  <path fill="none" stroke="white" stroke-width="1.5" d="M0,-3.0v7 M-2.5,-0.5L0,-3.0L2.5,-0.5"/>
                </g>
        </g>
</svg>
