<?xml version="1.0" encoding="UTF-8" standalone="no"?>
<!DOCTYPE svg PUBLIC "-//W3C//DTD SVG 1.1//EN"
 "http://www.w3.org/Graphics/SVG/1.1/DTD/svg11.dtd">
<!-- Generated by graphviz version 2.26.3 (20100126.1600)
 -->
<!-- Title: G Pages: 1 -->
<!--zoomable 1069 -->
<svg id="main" version="1.1" xmlns="http://www.w3.org/2000/svg" xmlns:xlink="http://www.w3.org/1999/xlink" xml:space="preserve" onload="init(evt)">
        <defs>
                <circle id="rim" cx="0" cy="0" r="7"/>
                <circle id="rim2" cx="0" cy="0" r="3.5"/>
                <g id="zoomPlus">
                        <use xlink:href="#rim" fill="#404040">
                                <set attributeName="fill" to="#808080" begin="zoomplus.mouseover" end="zoomplus.mouseout"/>
                        </use>
                        <path d="M-4,0h8M0,-4v8" fill="none" stroke="white" stroke-width="1.5" pointer-events="none"/>
                </g>
                <g id="zoomMin">
                        <use xlink:href="#rim" fill="#404040">
                                <set attributeName="fill" to="#808080" begin="zoomminus.mouseover" end="zoomminus.mouseout"/>
                        </use>
                        <path d="M-4,0h8" fill="none" stroke="white" stroke-width="1.5" pointer-events="none"/>
                </g>
                <g id="dirArrow">
                        <path fill="none" stroke="white" stroke-width="1.5" d="M0,-3.0v7 M-2.5,-0.5L0,-3.0L2.5,-0.5"/>
                </g>
               <g id="resetDef">
                       <use xlink:href="#rim2" fill="#404040">
                               <set attributeName="fill" to="#808080" begin="reset.mouseover" end="reset.mouseout"/>
                       </use>
               </g>
        </defs>

<script type="text/javascript">
var viewWidth = 2130;
var viewHeight = 1069;
var sectionId = 'dynsection-0';
</script>
<script xlink:href="svgpan.js"/>
<svg id="graph" class="graph">
<g id="viewport">
<title>G</title>
<polygon fill="white" stroke="white" points="-4,5 -4,-1064.52 2127,-1064.52 2127,5 -4,5"/>
<!-- Node1 -->
<g id="node1" class="node"><title>Node1</title>
<polygon fill="#bfbfbf" stroke="black" points="2059,-444.5 2059,-465.5 2103,-465.5 2103,-444.5 2059,-444.5"/>
<text text-anchor="middle" x="2081" y="-452.5" font-family="FreeSans.ttf" font-size="10.00">Event</text>
</g>
<!-- Node2 -->
<g id="node2" class="node"><title>Node2</title>
<a xlink:href="classCommand.xhtml" target="_top" xlink:title="Functions that are built and loaded independently as Plugin objects.">
<polygon fill="white" stroke="black" points="915.5,-155.5 915.5,-176.5 982.5,-176.5 982.5,-155.5 915.5,-155.5"/>
<text text-anchor="middle" x="949" y="-163.5" font-family="FreeSans.ttf" font-size="10.00">Command</text>
</a>
</g>
<!-- Node2&#45;&gt;Node1 -->
<g id="edge2" class="edge"><title>Node2&#45;&gt;Node1</title>
<path fill="none" stroke="#9a32cd" stroke-dasharray="5,2" d="M970.434,-182.785C1017.79,-218.13 1136.11,-297 1249,-297 1249,-297 1249,-297 1930,-297 2011.77,-297 2062.87,-408.962 2077,-444.388"/>
<polygon fill="#9a32cd" stroke="#9a32cd" points="972.518,-179.972 962.434,-176.72 968.289,-185.551 972.518,-179.972"/>
<text text-anchor="middle" x="1576" y="-301" font-family="FreeSans.ttf" font-size="10.00"> m_command</text>
</g>
<!-- Node3 -->
<g id="node4" class="node"><title>Node3</title>
<a xlink:href="classPlugin.xhtml" target="_top" xlink:title="Functions that are indepdently built and loaded to extend the server core via an API.">
<polygon fill="white" stroke="black" points="579.5,-179.5 579.5,-200.5 624.5,-200.5 624.5,-179.5 579.5,-179.5"/>
<text text-anchor="middle" x="602" y="-187.5" font-family="FreeSans.ttf" font-size="10.00">Plugin</text>
</a>
</g>
<!-- Node3&#45;&gt;Node2 -->
<g id="edge4" class="edge"><title>Node3&#45;&gt;Node2</title>
<path fill="none" stroke="#9a32cd" stroke-dasharray="5,2" d="M634.719,-187.737C700.652,-183.177 848.866,-172.926 915.469,-168.319"/>
<polygon fill="#9a32cd" stroke="#9a32cd" points="634.235,-184.262 624.5,-188.444 634.718,-191.245 634.235,-184.262"/>
<text text-anchor="middle" x="780" y="-185" font-family="FreeSans.ttf" font-size="10.00"> m_plg</text>
</g>
<!-- Node4 -->
<g id="node6" class="node"><title>Node4</title>
<a xlink:title="STL class.">
<polygon fill="white" stroke="#bfbfbf" points="250.5,-457.5 250.5,-478.5 315.5,-478.5 315.5,-457.5 250.5,-457.5"/>
<text text-anchor="middle" x="283" y="-465.5" font-family="FreeSans.ttf" font-size="10.00">std::string</text>
</a>
</g>
<!-- Node4&#45;&gt;Node1 -->
<g id="edge116" class="edge"><title>Node4&#45;&gt;Node1</title>
<path fill="none" stroke="#9a32cd" stroke-dasharray="5,2" d="M324.654,-454.372C385.075,-435.848 500.874,-405 602,-405 602,-405 602,-405 1930,-405 1979.71,-405 2034.17,-429.719 2062.12,-444.396"/>
<polygon fill="#9a32cd" stroke="#9a32cd" points="323.248,-451.144 314.738,-457.455 325.326,-457.829 323.248,-451.144"/>
<text text-anchor="middle" x="1380" y="-422" font-family="FreeSans.ttf" font-size="10.00"> m_cmd</text>
<text text-anchor="middle" x="1380" y="-409" font-family="FreeSans.ttf" font-size="10.00">m_args</text>
</g>
<!-- Node4&#45;&gt;Node2 -->
<g id="edge20" class="edge"><title>Node4&#45;&gt;Node2</title>
<path fill="none" stroke="#9a32cd" stroke-dasharray="5,2" d="M296.037,-449.385C309.761,-431.339 333.084,-404.737 360,-391 495.5,-321.845 556.625,-393.178 698,-337 800.902,-296.11 903.882,-207.237 937.567,-176.619"/>
<polygon fill="#9a32cd" stroke="#9a32cd" points="293.202,-447.333 290.098,-457.463 298.841,-451.479 293.202,-447.333"/>
<text text-anchor="middle" x="602" y="-364" font-family="FreeSans.ttf" font-size="10.00"> m_plg_file</text>
</g>
<!-- Node4&#45;&gt;Node3 -->
<g id="edge6" class="edge"><title>Node4&#45;&gt;Node3</title>
<path fill="none" stroke="#9a32cd" stroke-dasharray="5,2" d="M285.615,-447.112C291.605,-407.935 309.891,-323.056 360,-275 392.621,-243.716 525.677,-208.598 579.372,-195.399"/>
<polygon fill="#9a32cd" stroke="#9a32cd" points="282.139,-446.699 284.209,-457.09 289.07,-447.676 282.139,-446.699"/>
<text text-anchor="middle" x="424" y="-292" font-family="FreeSans.ttf" font-size="10.00"> m_string</text>
<text text-anchor="middle" x="424" y="-279" font-family="FreeSans.ttf" font-size="10.00">m_name</text>
</g>
<!-- Node11 -->
<g id="node24" class="node"><title>Node11</title>
<a xlink:href="classSocketClient.xhtml" target="_top" xlink:title="Client / remote host specific functions that extend the Socket class.">
<polygon fill="white" stroke="black" points="910.5,-641.5 910.5,-662.5 987.5,-662.5 987.5,-641.5 910.5,-641.5"/>
<text text-anchor="middle" x="949" y="-649.5" font-family="FreeSans.ttf" font-size="10.00">SocketClient</text>
</a>
</g>
<!-- Node4&#45;&gt;Node11 -->
<g id="edge106" class="edge"><title>Node4&#45;&gt;Node11</title>
<path fill="none" stroke="#9a32cd" stroke-dasharray="5,2" d="M325.726,-470.407C367.223,-472.866 431.985,-477.022 488,-482 648.287,-496.245 705.446,-466.162 844,-548 887.079,-573.445 925.452,-620.468 941.294,-641.433"/>
<polygon fill="#9a32cd" stroke="#9a32cd" points="325.884,-466.911 315.697,-469.819 325.475,-473.899 325.884,-466.911"/>
<text text-anchor="middle" x="602" y="-521" font-family="FreeSans.ttf" font-size="10.00"> m_output</text>
<text text-anchor="middle" x="602" y="-508" font-family="FreeSans.ttf" font-size="10.00">m_input</text>
<text text-anchor="middle" x="602" y="-495" font-family="FreeSans.ttf" font-size="10.00">m_login</text>
</g>
<!-- Node12 -->
<g id="node26" class="node"><title>Node12</title>
<a xlink:href="classSocket.xhtml" target="_top" xlink:title="Functions and interfaces that are common to both SocketClient and SocketServer.">
<polygon fill="white" stroke="black" points="577,-771.5 577,-792.5 627,-792.5 627,-771.5 577,-771.5"/>
<text text-anchor="middle" x="602" y="-779.5" font-family="FreeSans.ttf" font-size="10.00">Socket</text>
</a>
</g>
<!-- Node4&#45;&gt;Node12 -->
<g id="edge34" class="edge"><title>Node4&#45;&gt;Node12</title>
<path fill="none" stroke="#9a32cd" stroke-dasharray="5,2" d="M292.148,-488.037C305.107,-515.304 330.537,-564.939 360,-602 408.338,-662.803 441.442,-658.823 488,-721 498.722,-735.319 492.101,-745.739 506,-757 526.206,-773.372 555.975,-779.128 576.996,-781.095"/>
<polygon fill="#9a32cd" stroke="#9a32cd" points="295.215,-486.333 287.81,-478.755 288.874,-489.296 295.215,-486.333"/>
<text text-anchor="middle" x="424" y="-725" font-family="FreeSans.ttf" font-size="10.00"> m_hostname</text>
</g>
<!-- Node14 -->
<g id="node32" class="node"><title>Node14</title>
<a xlink:href="classAccount.xhtml" target="_top" xlink:title="Security structure to maintain characters, roles, and permissions.">
<polygon fill="white" stroke="black" points="1221,-811.5 1221,-832.5 1277,-832.5 1277,-811.5 1221,-811.5"/>
<text text-anchor="middle" x="1249" y="-819.5" font-family="FreeSans.ttf" font-size="10.00">Account</text>
</a>
</g>
<!-- Node4&#45;&gt;Node14 -->
<g id="edge52" class="edge"><title>Node4&#45;&gt;Node14</title>
<path fill="none" stroke="#9a32cd" stroke-dasharray="5,2" d="M291.96,-488.155C303.892,-512.593 327.355,-553.208 360,-575 408.597,-607.441 431.414,-590.433 488,-605 655.197,-648.042 694.48,-668.23 862,-710 938.805,-729.151 974.287,-698.431 1036,-748 1050.88,-759.955 1038.9,-775.326 1054,-787 1079.65,-806.824 1173.25,-816.43 1220.83,-820.118"/>
<polygon fill="#9a32cd" stroke="#9a32cd" points="294.974,-486.34 287.558,-478.774 288.637,-489.313 294.974,-486.34"/>
<text text-anchor="middle" x="780" y="-722" font-family="FreeSans.ttf" font-size="10.00"> m_password</text>
<text text-anchor="middle" x="780" y="-709" font-family="FreeSans.ttf" font-size="10.00">m_name</text>
</g>
<!-- Node21 -->
<g id="node49" class="node"><title>Node21</title>
<a xlink:href="classThing.xhtml" target="_top" xlink:title="A generic &quot;thing&quot;: creature, character, room, object, etc.">
<polygon fill="white" stroke="black" points="759,-557.5 759,-578.5 801,-578.5 801,-557.5 759,-557.5"/>
<text text-anchor="middle" x="780" y="-565.5" font-family="FreeSans.ttf" font-size="10.00">Thing</text>
</a>
</g>
<!-- Node4&#45;&gt;Node21 -->
<g id="edge60" class="edge"><title>Node4&#45;&gt;Node21</title>
<path fill="none" stroke="#9a32cd" stroke-dasharray="5,2" d="M299.977,-485.89C314.479,-499.928 336.649,-518.615 360,-528 397.252,-542.972 678.765,-561.639 758.822,-566.689"/>
<polygon fill="#9a32cd" stroke="#9a32cd" points="302.295,-483.257 292.751,-478.657 297.343,-488.205 302.295,-483.257"/>
<text text-anchor="middle" x="424" y="-562" font-family="FreeSans.ttf" font-size="10.00"> m_id</text>
<text text-anchor="middle" x="424" y="-549" font-family="FreeSans.ttf" font-size="10.00">m_name</text>
</g>
<!-- Node5 -->
<g id="node8" class="node"><title>Node5</title>
<a xlink:title="STL class.">
<polygon fill="white" stroke="#bfbfbf" points="0,-457.5 0,-478.5 138,-478.5 138,-457.5 0,-457.5"/>
<text text-anchor="middle" x="69" y="-465.5" font-family="FreeSans.ttf" font-size="10.00">std::basic_string&lt; char &gt;</text>
</a>
</g>
<!-- Node5&#45;&gt;Node4 -->
<g id="edge8" class="edge"><title>Node5&#45;&gt;Node4</title>
<path fill="none" stroke="midnightblue" d="M148.479,-468C183.718,-468 223.23,-468 250.263,-468"/>
<polygon fill="midnightblue" stroke="midnightblue" points="148.184,-464.5 138.184,-468 148.184,-471.5 148.184,-464.5"/>
</g>
<!-- Node6 -->
<g id="node10" class="node"><title>Node6</title>
<polygon fill="white" stroke="#bfbfbf" points="264.5,-209.5 264.5,-230.5 301.5,-230.5 301.5,-209.5 264.5,-209.5"/>
<text text-anchor="middle" x="283" y="-217.5" font-family="FreeSans.ttf" font-size="10.00">bool</text>
</g>
<!-- Node6&#45;&gt;Node2 -->
<g id="edge18" class="edge"><title>Node6&#45;&gt;Node2</title>
<path fill="none" stroke="#9a32cd" stroke-dasharray="5,2" d="M294.233,-200.55C307.157,-180.338 330.451,-149.894 360,-137 410.848,-114.813 797.826,-150.986 915.294,-162.599"/>
<polygon fill="#9a32cd" stroke="#9a32cd" points="291.129,-198.917 288.89,-209.272 297.098,-202.574 291.129,-198.917"/>
<text text-anchor="middle" x="602" y="-147" font-family="FreeSans.ttf" font-size="10.00"> m_preempt</text>
</g>
<!-- Node6&#45;&gt;Node3 -->
<g id="edge10" class="edge"><title>Node6&#45;&gt;Node3</title>
<path fill="none" stroke="#9a32cd" stroke-dasharray="5,2" d="M310.841,-207.775C325.22,-202.1 343.225,-195.963 360,-193 439.65,-178.932 536.349,-184.324 579.42,-187.865"/>
<polygon fill="#9a32cd" stroke="#9a32cd" points="309.457,-204.56 301.526,-211.585 312.107,-211.039 309.457,-204.56"/>
<text text-anchor="middle" x="424" y="-197" font-family="FreeSans.ttf" font-size="10.00"> m_bool</text>
</g>
<!-- Node6&#45;&gt;Node11 -->
<g id="edge104" class="edge"><title>Node6&#45;&gt;Node11</title>
<path fill="none" stroke="#9a32cd" stroke-dasharray="5,2" d="M299.278,-237.966C313.64,-252.394 335.978,-271.587 360,-280 501.788,-329.66 563.336,-217.4 698,-284 709.635,-289.754 705.348,-299.581 716,-307 765.018,-341.141 801.286,-306.24 844,-348 932.237,-434.267 946.379,-598.146 948.597,-641.344"/>
<polygon fill="#9a32cd" stroke="#9a32cd" points="301.606,-235.336 292.16,-230.539 296.552,-240.18 301.606,-235.336"/>
<text text-anchor="middle" x="602" y="-288" font-family="FreeSans.ttf" font-size="10.00"> m_quitting</text>
</g>
<!-- Node22 -->
<g id="node54" class="node"><title>Node22</title>
<a xlink:href="classServer.xhtml" target="_top" xlink:title="The core of the game server.">
<polygon fill="white" stroke="black" points="1906,-662.5 1906,-683.5 1954,-683.5 1954,-662.5 1906,-662.5"/>
<text text-anchor="middle" x="1930" y="-670.5" font-family="FreeSans.ttf" font-size="10.00">Server</text>
</a>
</g>
<!-- Node6&#45;&gt;Node22 -->
<g id="edge82" class="edge"><title>Node6&#45;&gt;Node22</title>
<path fill="none" stroke="#9a32cd" stroke-dasharray="5,2" d="M311.662,-220.469C442.669,-223.356 996.386,-243.632 1422,-383 1641.87,-454.997 1711.49,-465.426 1888,-615 1904.12,-628.664 1917.35,-649.757 1924.42,-662.387"/>
<polygon fill="#9a32cd" stroke="#9a32cd" points="311.696,-216.969 301.627,-220.265 311.554,-223.968 311.696,-216.969"/>
<text text-anchor="middle" x="1249" y="-354" font-family="FreeSans.ttf" font-size="10.00"> m_shutdown</text>
</g>
<!-- Node30 -->
<g id="node84" class="node"><title>Node30</title>
<a xlink:href="classSocketClient_1_1TermInfo.xhtml" target="_top" xlink:title="Remote terminal information and configuration.">
<polygon fill="white" stroke="black" points="540.5,-306.5 540.5,-327.5 663.5,-327.5 663.5,-306.5 540.5,-306.5"/>
<text text-anchor="middle" x="602" y="-314.5" font-family="FreeSans.ttf" font-size="10.00">SocketClient::TermInfo</text>
</a>
</g>
<!-- Node6&#45;&gt;Node30 -->
<g id="edge112" class="edge"><title>Node6&#45;&gt;Node30</title>
<path fill="none" stroke="#9a32cd" stroke-dasharray="5,2" d="M294.042,-239.299C306.934,-259.738 330.326,-290.952 360,-305 390.749,-319.557 479.252,-320.509 540.251,-319.237"/>
<polygon fill="#9a32cd" stroke="#9a32cd" points="296.895,-237.253 288.723,-230.509 290.906,-240.877 296.895,-237.253"/>
<text text-anchor="middle" x="424" y="-336" font-family="FreeSans.ttf" font-size="10.00"> m_telopt</text>
<text text-anchor="middle" x="424" y="-323" font-family="FreeSans.ttf" font-size="10.00">m_negotiated</text>
</g>
<!-- Node7 -->
<g id="node12" class="node"><title>Node7</title>
<polygon fill="white" stroke="#bfbfbf" points="245.5,-703.5 245.5,-724.5 320.5,-724.5 320.5,-703.5 245.5,-703.5"/>
<text text-anchor="middle" x="283" y="-711.5" font-family="FreeSans.ttf" font-size="10.00">unsigned int</text>
</g>
<!-- Node7&#45;&gt;Node1 -->
<g id="edge118" class="edge"><title>Node7&#45;&gt;Node1</title>
<path fill="none" stroke="#9a32cd" stroke-dasharray="5,2" d="M326.04,-700.524C337.065,-697.243 348.934,-693.859 360,-691 416.383,-676.434 437.657,-692.272 488,-663 498.338,-656.989 495.561,-648.835 506,-643 572.658,-605.741 774.847,-613.394 844,-581 853.43,-576.583 852.636,-570.557 862,-566 1073.71,-462.97 1144.55,-455 1380,-455 1380,-455 1380,-455 1930,-455 1975.88,-455 2029.59,-455 2058.99,-455"/>
<polygon fill="#9a32cd" stroke="#9a32cd" points="324.765,-697.253 316.201,-703.49 326.785,-703.955 324.765,-697.253"/>
<text text-anchor="middle" x="1380" y="-472" font-family="FreeSans.ttf" font-size="10.00"> m_time</text>
<text text-anchor="middle" x="1380" y="-459" font-family="FreeSans.ttf" font-size="10.00">m_type</text>
</g>
<!-- Node7&#45;&gt;Node2 -->
<g id="edge22" class="edge"><title>Node7&#45;&gt;Node2</title>
<path fill="none" stroke="#9a32cd" stroke-dasharray="5,2" d="M305.148,-697.334C319.971,-686.921 340.304,-674.013 360,-666 413.941,-644.054 449.172,-681.4 488,-638 513.624,-609.359 483.654,-497.267 506,-466 560.688,-389.478 613.149,-417.581 698,-377 763.27,-345.784 788.246,-351.11 844,-305 891.077,-266.066 929.236,-202.031 943.239,-176.748"/>
<polygon fill="#9a32cd" stroke="#9a32cd" points="302.755,-694.745 296.686,-703.429 306.846,-700.425 302.755,-694.745"/>
<text text-anchor="middle" x="602" y="-470" font-family="FreeSans.ttf" font-size="10.00"> m_security</text>
</g>
<!-- Node7&#45;&gt;Node3 -->
<g id="edge12" class="edge"><title>Node7&#45;&gt;Node3</title>
<path fill="none" stroke="#9a32cd" stroke-dasharray="5,2" d="M287.926,-693.369C297.81,-654.237 322.389,-567.305 360,-502 404.247,-425.172 450.156,-429.176 488,-349 506.53,-309.743 481.932,-289.127 506,-253 523.685,-226.455 556.763,-208.482 579.086,-198.735"/>
<polygon fill="#9a32cd" stroke="#9a32cd" points="284.476,-692.741 285.479,-703.288 291.272,-694.417 284.476,-692.741"/>
<text text-anchor="middle" x="424" y="-519" font-family="FreeSans.ttf" font-size="10.00"> m_uint</text>
<text text-anchor="middle" x="424" y="-506" font-family="FreeSans.ttf" font-size="10.00">m_type</text>
</g>
<!-- Node7&#45;&gt;Node11 -->
<g id="edge108" class="edge"><title>Node7&#45;&gt;Node11</title>
<path fill="none" stroke="#9a32cd" stroke-dasharray="5,2" d="M330.705,-716.673C428.247,-721.074 657.077,-725.931 844,-688 872.14,-682.29 903.093,-671.031 924.052,-662.617"/>
<polygon fill="#9a32cd" stroke="#9a32cd" points="330.728,-713.17 320.574,-716.196 330.398,-720.163 330.728,-713.17"/>
<text text-anchor="middle" x="602" y="-736" font-family="FreeSans.ttf" font-size="10.00"> m_idle</text>
<text text-anchor="middle" x="602" y="-723" font-family="FreeSans.ttf" font-size="10.00">m_state</text>
</g>
<!-- Node7&#45;&gt;Node12 -->
<g id="edge36" class="edge"><title>Node7&#45;&gt;Node12</title>
<path fill="none" stroke="#9a32cd" stroke-dasharray="5,2" d="M323.383,-727.623C335.11,-731.296 347.993,-735.062 360,-738 416.144,-751.737 431.134,-750.653 488,-761 518.491,-766.548 553.552,-773.02 576.65,-777.297"/>
<polygon fill="#9a32cd" stroke="#9a32cd" points="324.44,-724.287 313.85,-724.579 322.312,-730.955 324.44,-724.287"/>
<text text-anchor="middle" x="424" y="-791" font-family="FreeSans.ttf" font-size="10.00"> m_bytes_sent</text>
<text text-anchor="middle" x="424" y="-778" font-family="FreeSans.ttf" font-size="10.00">m_port</text>
<text text-anchor="middle" x="424" y="-765" font-family="FreeSans.ttf" font-size="10.00">m_bytes_recvd</text>
</g>
<!-- Node7&#45;&gt;Node14 -->
<g id="edge54" class="edge"><title>Node7&#45;&gt;Node14</title>
<path fill="none" stroke="#9a32cd" stroke-dasharray="5,2" d="M293.745,-733.38C306.491,-754.174 329.865,-786.083 360,-800 439.63,-836.775 1078.42,-825.596 1220.89,-822.621"/>
<polygon fill="#9a32cd" stroke="#9a32cd" points="296.735,-731.561 288.65,-724.713 290.701,-735.108 296.735,-731.561"/>
<text text-anchor="middle" x="780" y="-830" font-family="FreeSans.ttf" font-size="10.00"> m_security</text>
</g>
<!-- Node20 -->
<g id="node47" class="node"><title>Node20</title>
<a xlink:href="classCharacter.xhtml" target="_top" xlink:title="An actor within the game world.">
<polygon fill="white" stroke="black" points="1440,-823.5 1440,-844.5 1504,-844.5 1504,-823.5 1440,-823.5"/>
<text text-anchor="middle" x="1472" y="-831.5" font-family="FreeSans.ttf" font-size="10.00">Character</text>
</a>
</g>
<!-- Node7&#45;&gt;Node20 -->
<g id="edge64" class="edge"><title>Node7&#45;&gt;Node20</title>
<path fill="none" stroke="#9a32cd" stroke-dasharray="5,2" d="M293.041,-733.615C311.363,-769.065 349.317,-840.812 360,-848 422.893,-890.316 623.006,-882.954 698,-894 771.011,-904.754 789.098,-908.526 862,-920 947.318,-933.429 967.891,-943.313 1054,-950 1100.97,-953.647 1113.63,-958.341 1160,-950 1274.89,-929.333 1402.73,-869.057 1451.55,-844.548"/>
<polygon fill="#9a32cd" stroke="#9a32cd" points="296.122,-731.952 288.433,-724.663 289.898,-735.156 296.122,-731.952"/>
<text text-anchor="middle" x="949" y="-952" font-family="FreeSans.ttf" font-size="10.00"> m_sex</text>
</g>
<!-- Node7&#45;&gt;Node22 -->
<g id="edge88" class="edge"><title>Node7&#45;&gt;Node22</title>
<path fill="none" stroke="#9a32cd" stroke-dasharray="5,2" d="M330.994,-708.642C372.603,-703.823 434.392,-696.249 488,-688 857.578,-631.128 946.74,-540.668 1320,-563 1524.65,-575.244 1574.89,-590.117 1778,-618 1827.01,-624.728 1843.34,-613.733 1888,-635 1901.49,-641.426 1913.77,-653.617 1921.52,-662.463"/>
<polygon fill="#9a32cd" stroke="#9a32cd" points="330.402,-705.187 320.867,-709.807 331.202,-712.141 330.402,-705.187"/>
<text text-anchor="middle" x="1249" y="-619" font-family="FreeSans.ttf" font-size="10.00"> m_dir_close</text>
<text text-anchor="middle" x="1249" y="-606" font-family="FreeSans.ttf" font-size="10.00">m_socket_close</text>
<text text-anchor="middle" x="1249" y="-593" font-family="FreeSans.ttf" font-size="10.00">m_port</text>
<text text-anchor="middle" x="1249" y="-580" font-family="FreeSans.ttf" font-size="10.00">m_dir_open</text>
<text text-anchor="middle" x="1249" y="-567" font-family="FreeSans.ttf" font-size="10.00">m_socket_open</text>
</g>
<!-- Node8 -->
<g id="node14" class="node"><title>Node8</title>
<polygon fill="white" stroke="#bfbfbf" points="261,-116.5 261,-137.5 305,-137.5 305,-116.5 261,-116.5"/>
<text text-anchor="middle" x="283" y="-124.5" font-family="FreeSans.ttf" font-size="10.00">void *</text>
</g>
<!-- Node8&#45;&gt;Node2 -->
<g id="edge26" class="edge"><title>Node8&#45;&gt;Node2</title>
<path fill="none" stroke="#9a32cd" stroke-dasharray="5,2" d="M315.029,-119.33C328.784,-116.409 345.092,-113.439 360,-112 574.318,-91.3192 634.051,-85.2386 844,-133 870.085,-138.934 899.042,-148.247 919.929,-155.469"/>
<polygon fill="#9a32cd" stroke="#9a32cd" points="314.084,-115.954 305.073,-121.528 315.593,-122.79 314.084,-115.954"/>
<text text-anchor="middle" x="602" y="-109" font-family="FreeSans.ttf" font-size="10.00"> m_plg_handle</text>
</g>
<!-- Node8&#45;&gt;Node3 -->
<g id="edge14" class="edge"><title>Node8&#45;&gt;Node3</title>
<path fill="none" stroke="#9a32cd" stroke-dasharray="5,2" d="M315.235,-132.932C355.646,-140.414 427.022,-153.782 488,-166 519.73,-172.358 556.329,-180.143 579.316,-185.088"/>
<polygon fill="#9a32cd" stroke="#9a32cd" points="315.642,-129.448 305.173,-131.072 314.37,-136.331 315.642,-129.448"/>
<text text-anchor="middle" x="424" y="-170" font-family="FreeSans.ttf" font-size="10.00"> m_caller</text>
</g>
<!-- Node9 -->
<g id="node16" class="node"><title>Node9</title>
<polygon fill="white" stroke="#bfbfbf" points="559.5,-40.5 559.5,-61.5 644.5,-61.5 644.5,-40.5 559.5,-40.5"/>
<text text-anchor="middle" x="602" y="-48.5" font-family="FreeSans.ttf" font-size="10.00">PluginDelete *</text>
</g>
<!-- Node9&#45;&gt;Node2 -->
<g id="edge16" class="edge"><title>Node9&#45;&gt;Node2</title>
<path fill="none" stroke="#9a32cd" stroke-dasharray="5,2" d="M654.718,-45.8853C705.381,-43.1095 783.024,-44.574 844,-71 887.758,-89.9641 925.495,-134.742 941.207,-155.319"/>
<polygon fill="#9a32cd" stroke="#9a32cd" points="654.409,-42.3976 644.646,-46.5126 654.844,-49.3841 654.409,-42.3976"/>
<text text-anchor="middle" x="780" y="-75" font-family="FreeSans.ttf" font-size="10.00"> m_plg_delete</text>
</g>
<!-- Node10 -->
<g id="node21" class="node"><title>Node10</title>
<polygon fill="white" stroke="#bfbfbf" points="565,-0.5 565,-21.5 639,-21.5 639,-0.5 565,-0.5"/>
<text text-anchor="middle" x="602" y="-8.5" font-family="FreeSans.ttf" font-size="10.00">PluginNew *</text>
</g>
<!-- Node10&#45;&gt;Node2 -->
<g id="edge24" class="edge"><title>Node10&#45;&gt;Node2</title>
<path fill="none" stroke="#9a32cd" stroke-dasharray="5,2" d="M649.135,-3.64057C700.338,1.98647 782.975,3.98664 844,-29 898.042,-58.2122 932.864,-128.491 944.593,-155.333"/>
<polygon fill="#9a32cd" stroke="#9a32cd" points="648.534,-0.187369 639.018,-4.84496 649.362,-7.1383 648.534,-0.187369"/>
<text text-anchor="middle" x="780" y="-33" font-family="FreeSans.ttf" font-size="10.00"> m_plg_new</text>
</g>
<!-- Node11&#45;&gt;Node1 -->
<g id="edge28" class="edge"><title>Node11&#45;&gt;Node1</title>
<path fill="none" stroke="#9a32cd" stroke-dasharray="5,2" d="M997.776,-641.873C1096.49,-621.547 1327.14,-574.912 1522,-542 1743.44,-504.599 1801.42,-511.188 2022,-469 2034.3,-466.647 2047.92,-463.456 2058.97,-460.715"/>
<polygon fill="#9a32cd" stroke="#9a32cd" points="996.886,-638.483 987.799,-643.93 998.3,-645.339 996.886,-638.483"/>
<text text-anchor="middle" x="1576" y="-546" font-family="FreeSans.ttf" font-size="10.00"> m_client</text>
</g>
<!-- Node11&#45;&gt;Node14 -->
<g id="edge40" class="edge"><title>Node11&#45;&gt;Node14</title>
<path fill="none" stroke="#9a32cd" stroke-dasharray="5,2" d="M970.094,-668.942C990.731,-685.056 1023.43,-709.385 1054,-727 1098.81,-752.819 1113.56,-752.248 1160,-775 1184.32,-786.915 1211.82,-801.632 1229.73,-811.389"/>
<polygon fill="#9a32cd" stroke="#9a32cd" points="972.049,-666.027 962.03,-662.583 967.715,-671.523 972.049,-666.027"/>
<text text-anchor="middle" x="1107" y="-779" font-family="FreeSans.ttf" font-size="10.00"> m_client</text>
</g>
<!-- Node24 -->
<g id="node60" class="node"><title>Node24</title>
<polygon fill="white" stroke="#bfbfbf" points="1178,-662.5 1178,-683.5 1320,-683.5 1320,-662.5 1178,-662.5"/>
<text text-anchor="middle" x="1249" y="-670.5" font-family="FreeSans.ttf" font-size="10.00">std::list&lt; SocketClient * &gt;</text>
</g>
<!-- Node11&#45;&gt;Node24 -->
<g id="edge76" class="edge"><title>Node11&#45;&gt;Node24</title>
<path fill="none" stroke="#9a32cd" stroke-dasharray="5,2" d="M997.808,-649.254C1040.69,-647.551 1104.68,-646.729 1160,-653 1176.68,-654.891 1194.81,-658.645 1210.32,-662.395"/>
<polygon fill="#9a32cd" stroke="#9a32cd" points="997.49,-645.765 987.649,-649.69 997.79,-652.758 997.49,-645.765"/>
<text text-anchor="middle" x="1107" y="-657" font-family="FreeSans.ttf" font-size="10.00"> elements</text>
</g>
<!-- Node12&#45;&gt;Node11 -->
<g id="edge30" class="edge"><title>Node12&#45;&gt;Node11</title>
<path fill="none" stroke="midnightblue" d="M637.211,-776.944C656.04,-773.247 679.159,-767.066 698,-757 707.441,-751.956 706.462,-745.857 716,-741 767.893,-714.575 789.724,-734.103 844,-713 878.19,-699.707 914.41,-676.303 934.106,-662.675"/>
<polygon fill="midnightblue" stroke="midnightblue" points="636.461,-773.523 627.247,-778.751 637.711,-780.411 636.461,-773.523"/>
</g>
<!-- Node27 -->
<g id="node71" class="node"><title>Node27</title>
<a xlink:href="classSocketServer.xhtml" target="_top" xlink:title="SocketServer extends the Socket class to implement server&#45;side socket functions.">
<polygon fill="white" stroke="black" points="2040.5,-698.5 2040.5,-719.5 2121.5,-719.5 2121.5,-698.5 2040.5,-698.5"/>
<text text-anchor="middle" x="2081" y="-706.5" font-family="FreeSans.ttf" font-size="10.00">SocketServer</text>
</a>
</g>
<!-- Node12&#45;&gt;Node27 -->
<g id="edge92" class="edge"><title>Node12&#45;&gt;Node27</title>
<path fill="none" stroke="midnightblue" d="M637.463,-782.843C697.472,-785.035 815.329,-792.899 844,-821 875.939,-852.304 830.497,-888.258 862,-920 917.446,-975.868 962.792,-924.085 1036,-953 1105.5,-980.449 1107,-1019.71 1178,-1043 1263.51,-1071.06 1290.01,-1057 1380,-1057 1380,-1057 1380,-1057 1930,-1057 2005.41,-1057 2066.73,-778.535 2078.83,-719.797"/>
<polygon fill="midnightblue" stroke="midnightblue" points="637.422,-779.34 627.311,-782.506 637.189,-786.336 637.422,-779.34"/>
</g>
<!-- Node13 -->
<g id="node28" class="node"><title>Node13</title>
<polygon fill="white" stroke="#bfbfbf" points="251.5,-836.5 251.5,-857.5 314.5,-857.5 314.5,-836.5 251.5,-836.5"/>
<text text-anchor="middle" x="283" y="-844.5" font-family="FreeSans.ttf" font-size="10.00">signed int</text>
</g>
<!-- Node13&#45;&gt;Node12 -->
<g id="edge32" class="edge"><title>Node13&#45;&gt;Node12</title>
<path fill="none" stroke="#9a32cd" stroke-dasharray="5,2" d="M324.57,-838.53C391.671,-824.857 521.868,-798.328 576.694,-787.156"/>
<polygon fill="#9a32cd" stroke="#9a32cd" points="323.853,-835.104 314.753,-840.53 325.251,-841.963 323.853,-835.104"/>
<text text-anchor="middle" x="424" y="-835" font-family="FreeSans.ttf" font-size="10.00"> m_descriptor</text>
</g>
<!-- Node14&#45;&gt;Node11 -->
<g id="edge38" class="edge"><title>Node14&#45;&gt;Node11</title>
<path fill="none" stroke="#9a32cd" stroke-dasharray="5,2" d="M1238.07,-802.621C1223.4,-778.357 1195.08,-737.168 1160,-714 1131.64,-695.274 1040.71,-672.614 987.931,-660.544"/>
<polygon fill="#9a32cd" stroke="#9a32cd" points="1235.09,-804.46 1243.17,-811.308 1241.12,-800.913 1235.09,-804.46"/>
<text text-anchor="middle" x="1107" y="-718" font-family="FreeSans.ttf" font-size="10.00"> m_account</text>
</g>
<!-- Node14&#45;&gt;Node20 -->
<g id="edge62" class="edge"><title>Node14&#45;&gt;Node20</title>
<path fill="none" stroke="#9a32cd" stroke-dasharray="5,2" d="M1287.4,-825.958C1303.08,-827.441 1321.39,-829.007 1338,-830 1372.73,-832.078 1412.6,-833.093 1439.76,-833.578"/>
<polygon fill="#9a32cd" stroke="#9a32cd" points="1287.32,-822.433 1277.03,-824.952 1286.64,-829.401 1287.32,-822.433"/>
<text text-anchor="middle" x="1380" y="-837" font-family="FreeSans.ttf" font-size="10.00"> m_account</text>
</g>
<!-- Node15 -->
<g id="node35" class="node"><title>Node15</title>
<polygon fill="white" stroke="#bfbfbf" points="862,-849.5 862,-870.5 1036,-870.5 1036,-849.5 862,-849.5"/>
<text text-anchor="middle" x="949" y="-857.5" font-family="FreeSans.ttf" font-size="10.00">std::list&lt; pair&lt; string, string &gt; &gt;</text>
</g>
<!-- Node15&#45;&gt;Node14 -->
<g id="edge42" class="edge"><title>Node15&#45;&gt;Node14</title>
<path fill="none" stroke="#9a32cd" stroke-dasharray="5,2" d="M1046.15,-851.389C1082,-847.811 1122.92,-843.259 1160,-838 1180.36,-835.112 1203.19,-830.99 1220.63,-827.653"/>
<polygon fill="#9a32cd" stroke="#9a32cd" points="1045.79,-847.907 1036.18,-852.371 1046.48,-854.873 1045.79,-847.907"/>
<text text-anchor="middle" x="1107" y="-854" font-family="FreeSans.ttf" font-size="10.00"> m_logins</text>
</g>
<!-- Node16 -->
<g id="node37" class="node"><title>Node16</title>
<polygon fill="white" stroke="#bfbfbf" points="224.5,-942.5 224.5,-963.5 341.5,-963.5 341.5,-942.5 224.5,-942.5"/>
<text text-anchor="middle" x="283" y="-950.5" font-family="FreeSans.ttf" font-size="10.00">pair&lt; string, string &gt;</text>
</g>
<!-- Node16&#45;&gt;Node15 -->
<g id="edge44" class="edge"><title>Node16&#45;&gt;Node15</title>
<path fill="none" stroke="#9a32cd" stroke-dasharray="5,2" d="M351.862,-957.693C354.61,-957.81 357.331,-957.913 360,-958 416.859,-959.844 431.203,-961.235 488,-958 581.789,-952.658 606.241,-954.128 698,-934 772.956,-917.558 788.083,-900.618 862,-880 874.092,-876.627 887.242,-873.386 899.569,-870.532"/>
<polygon fill="#9a32cd" stroke="#9a32cd" points="351.993,-954.195 341.837,-957.215 351.659,-961.187 351.993,-954.195"/>
<text text-anchor="middle" x="602" y="-960" font-family="FreeSans.ttf" font-size="10.00"> elements</text>
</g>
<!-- Node28 -->
<g id="node75" class="node"><title>Node28</title>
<polygon fill="white" stroke="#bfbfbf" points="506.5,-903.5 506.5,-924.5 697.5,-924.5 697.5,-903.5 506.5,-903.5"/>
<text text-anchor="middle" x="602" y="-911.5" font-family="FreeSans.ttf" font-size="10.00">std::deque&lt; pair&lt; string, string &gt; &gt;</text>
</g>
<!-- Node16&#45;&gt;Node28 -->
<g id="edge98" class="edge"><title>Node16&#45;&gt;Node28</title>
<path fill="none" stroke="#9a32cd" stroke-dasharray="5,2" d="M351.511,-944.624C399.613,-938.743 464.304,-930.834 515.894,-924.527"/>
<polygon fill="#9a32cd" stroke="#9a32cd" points="351.011,-941.159 341.51,-945.847 351.86,-948.107 351.011,-941.159"/>
<text text-anchor="middle" x="424" y="-947" font-family="FreeSans.ttf" font-size="10.00"> elements</text>
</g>
<!-- Node17 -->
<g id="node39" class="node"><title>Node17</title>
<a xlink:title="STL class.">
<polygon fill="white" stroke="#bfbfbf" points="562.5,-996.5 562.5,-1017.5 641.5,-1017.5 641.5,-996.5 562.5,-996.5"/>
<text text-anchor="middle" x="602" y="-1004.5" font-family="FreeSans.ttf" font-size="10.00">std::list&lt; T &gt;</text>
</a>
</g>
<!-- Node17&#45;&gt;Node15 -->
<g id="edge46" class="edge"><title>Node17&#45;&gt;Node15</title>
<path fill="none" stroke="orange" stroke-dasharray="5,2" d="M651.914,-1003.72C718.676,-998.868 830.293,-988.935 844,-976 875.572,-946.206 831.934,-911.313 862,-880 865.542,-876.311 869.617,-873.241 874.028,-870.691"/>
<polygon fill="orange" stroke="orange" points="651.332,-1000.25 641.606,-1004.46 651.83,-1007.24 651.332,-1000.25"/>
<text text-anchor="middle" x="780" y="-1001" font-family="FreeSans.ttf" font-size="10.00"> &lt; pair&lt; string, string &gt; &gt;</text>
</g>
<!-- Node23 -->
<g id="node56" class="node"><title>Node23</title>
<polygon fill="white" stroke="#bfbfbf" points="1648.5,-823.5 1648.5,-844.5 1777.5,-844.5 1777.5,-823.5 1648.5,-823.5"/>
<text text-anchor="middle" x="1713" y="-831.5" font-family="FreeSans.ttf" font-size="10.00">std::list&lt; Character * &gt;</text>
</g>
<!-- Node17&#45;&gt;Node23 -->
<g id="edge72" class="edge"><title>Node17&#45;&gt;Node23</title>
<path fill="none" stroke="orange" stroke-dasharray="5,2" d="M651.885,-1015.56C781.752,-1035.98 1139.83,-1080.23 1422,-1002 1482.15,-985.325 1645.09,-879.131 1696.93,-844.736"/>
<polygon fill="orange" stroke="orange" points="652.269,-1012.08 641.842,-1013.96 651.165,-1018.99 652.269,-1012.08"/>
<text text-anchor="middle" x="1249" y="-1045" font-family="FreeSans.ttf" font-size="10.00"> &lt; Character * &gt;</text>
</g>
<!-- Node17&#45;&gt;Node24 -->
<g id="edge78" class="edge"><title>Node17&#45;&gt;Node24</title>
<path fill="none" stroke="orange" stroke-dasharray="5,2" d="M651.726,-993.465C667.122,-988.218 683.766,-981.414 698,-973 782.007,-923.339 785.303,-887.341 862,-827 943.584,-762.814 956.722,-730.233 1054,-694 1093.25,-679.382 1139.8,-673.963 1177.57,-672.278"/>
<polygon fill="orange" stroke="orange" points="650.252,-990.265 641.828,-996.69 652.42,-996.92 650.252,-990.265"/>
<text text-anchor="middle" x="949" y="-831" font-family="FreeSans.ttf" font-size="10.00"> &lt; SocketClient * &gt;</text>
</g>
<!-- Node18 -->
<g id="node41" class="node"><title>Node18</title>
<polygon fill="white" stroke="#bfbfbf" points="54.5,-968.5 54.5,-989.5 83.5,-989.5 83.5,-968.5 54.5,-968.5"/>
<text text-anchor="middle" x="69" y="-976.5" font-family="FreeSans.ttf" font-size="10.00">T</text>
</g>
<!-- Node18&#45;&gt;Node17 -->
<g id="edge48" class="edge"><title>Node18&#45;&gt;Node17</title>
<path fill="none" stroke="#9a32cd" stroke-dasharray="5,2" d="M93.7452,-980.3C178.549,-984.755 457.952,-999.433 562.261,-1004.91"/>
<polygon fill="#9a32cd" stroke="#9a32cd" points="93.7028,-976.793 83.5329,-979.763 93.3355,-983.783 93.7028,-976.793"/>
<text text-anchor="middle" x="283" y="-997" font-family="FreeSans.ttf" font-size="10.00"> elements</text>
</g>
<!-- Node29 -->
<g id="node78" class="node"><title>Node29</title>
<a xlink:title="STL class.">
<polygon fill="white" stroke="#bfbfbf" points="235.5,-899.5 235.5,-920.5 330.5,-920.5 330.5,-899.5 235.5,-899.5"/>
<text text-anchor="middle" x="283" y="-907.5" font-family="FreeSans.ttf" font-size="10.00">std::deque&lt; T &gt;</text>
</a>
</g>
<!-- Node18&#45;&gt;Node29 -->
<g id="edge102" class="edge"><title>Node18&#45;&gt;Node29</title>
<path fill="none" stroke="#9a32cd" stroke-dasharray="5,2" d="M93.5714,-971.077C132.144,-958.64 206.95,-934.521 250.117,-920.602"/>
<polygon fill="#9a32cd" stroke="#9a32cd" points="92.1525,-967.857 83.7091,-974.257 94.3007,-974.52 92.1525,-967.857"/>
<text text-anchor="middle" x="181" y="-954" font-family="FreeSans.ttf" font-size="10.00"> elements</text>
</g>
<!-- Node19 -->
<g id="node43" class="node"><title>Node19</title>
<polygon fill="white" stroke="#bfbfbf" points="889,-889.5 889,-910.5 1009,-910.5 1009,-889.5 889,-889.5"/>
<text text-anchor="middle" x="949" y="-897.5" font-family="FreeSans.ttf" font-size="10.00">forward_list&lt; string &gt;</text>
</g>
<!-- Node19&#45;&gt;Node14 -->
<g id="edge50" class="edge"><title>Node19&#45;&gt;Node14</title>
<path fill="none" stroke="#9a32cd" stroke-dasharray="5,2" d="M1019.33,-894.557C1060.98,-889.973 1114.36,-881.704 1160,-867 1186.37,-858.506 1214.54,-843.051 1231.96,-832.655"/>
<polygon fill="#9a32cd" stroke="#9a32cd" points="1018.85,-891.088 1009.27,-895.617 1019.59,-898.049 1018.85,-891.088"/>
<text text-anchor="middle" x="1107" y="-893" font-family="FreeSans.ttf" font-size="10.00"> m_characters</text>
</g>
<!-- Node26 -->
<g id="node67" class="node"><title>Node26</title>
<a xlink:href="classServer_1_1Config.xhtml" target="_top" xlink:title="Runtime settings.">
<polygon fill="white" stroke="black" points="1338,-979.5 1338,-1000.5 1422,-1000.5 1422,-979.5 1338,-979.5"/>
<text text-anchor="middle" x="1380" y="-987.5" font-family="FreeSans.ttf" font-size="10.00">Server::Config</text>
</a>
</g>
<!-- Node19&#45;&gt;Node26 -->
<g id="edge86" class="edge"><title>Node19&#45;&gt;Node26</title>
<path fill="none" stroke="#9a32cd" stroke-dasharray="5,2" d="M1019.25,-909.221C1060.44,-915.067 1113.38,-923.339 1160,-933 1225.29,-946.53 1300.26,-967.037 1343.67,-979.413"/>
<polygon fill="#9a32cd" stroke="#9a32cd" points="1019.7,-905.75 1009.31,-907.825 1018.73,-912.682 1019.7,-905.75"/>
<text text-anchor="middle" x="1107" y="-937" font-family="FreeSans.ttf" font-size="10.00"> m_prohibited_names</text>
</g>
<!-- Node20&#45;&gt;Node14 -->
<g id="edge56" class="edge"><title>Node20&#45;&gt;Node14</title>
<path fill="none" stroke="#9a32cd" stroke-dasharray="5,2" d="M1436.54,-820.367C1431.72,-818.979 1426.78,-817.79 1422,-817 1371.46,-808.642 1311.5,-813.635 1277.09,-817.903"/>
<polygon fill="#9a32cd" stroke="#9a32cd" points="1435.62,-823.745 1446.21,-823.435 1437.73,-817.073 1435.62,-823.745"/>
<text text-anchor="middle" x="1380" y="-821" font-family="FreeSans.ttf" font-size="10.00"> m_character</text>
</g>
<!-- Node20&#45;&gt;Node23 -->
<g id="edge70" class="edge"><title>Node20&#45;&gt;Node23</title>
<path fill="none" stroke="#9a32cd" stroke-dasharray="5,2" d="M1514.43,-834C1551.45,-834 1605.73,-834 1648.19,-834"/>
<polygon fill="#9a32cd" stroke="#9a32cd" points="1514,-830.5 1504,-834 1514,-837.5 1514,-830.5"/>
<text text-anchor="middle" x="1576" y="-838" font-family="FreeSans.ttf" font-size="10.00"> elements</text>
</g>
<!-- Node21&#45;&gt;Node20 -->
<g id="edge58" class="edge"><title>Node21&#45;&gt;Node20</title>
<path fill="none" stroke="midnightblue" d="M798.728,-585.878C812.286,-599.409 830.522,-618.871 844,-638 853.848,-651.977 848.668,-661.295 862,-672 924.553,-722.226 975.782,-666.997 1036,-720 1051.55,-733.689 1037.48,-750.494 1054,-763 1086.84,-787.865 1382.65,-795.803 1422,-808 1433.59,-811.592 1445.68,-817.805 1455.07,-823.256"/>
<polygon fill="midnightblue" stroke="midnightblue" points="800.945,-583.15 791.357,-578.644 796.042,-588.146 800.945,-583.15"/>
</g>
<!-- Node22&#45;&gt;Node1 -->
<g id="edge114" class="edge"><title>Node22&#45;&gt;Node1</title>
<path fill="none" stroke="#9a32cd" stroke-dasharray="5,2" d="M1943.12,-654.06C1973.84,-609.71 2049.65,-500.263 2073.61,-465.664"/>
<polygon fill="#9a32cd" stroke="#9a32cd" points="1940.1,-652.272 1937.28,-662.485 1945.85,-656.258 1940.1,-652.272"/>
<text text-anchor="middle" x="1997" y="-612" font-family="FreeSans.ttf" font-size="10.00"> m_server</text>
</g>
<!-- Node22&#45;&gt;Node11 -->
<g id="edge66" class="edge"><title>Node22&#45;&gt;Node11</title>
<path fill="none" stroke="#9a32cd" stroke-dasharray="5,2" d="M1896.08,-662.52C1853.68,-650.373 1778.7,-632 1713,-632 1380,-632 1380,-632 1380,-632 1235.01,-632 1198.76,-635.824 1054,-644 1032.1,-645.237 1007.66,-647.072 987.87,-648.673"/>
<polygon fill="#9a32cd" stroke="#9a32cd" points="1895.29,-665.938 1905.87,-665.384 1897.26,-659.219 1895.29,-665.938"/>
<text text-anchor="middle" x="1472" y="-636" font-family="FreeSans.ttf" font-size="10.00"> m_server</text>
</g>
<!-- Node22&#45;&gt;Node27 -->
<g id="edge94" class="edge"><title>Node22&#45;&gt;Node27</title>
<path fill="none" stroke="#9a32cd" stroke-dasharray="5,2" d="M1964.72,-666.689C1982.24,-664.793 2003.62,-664.475 2022,-670 2040.34,-675.515 2058.24,-688.791 2069.42,-698.321"/>
<polygon fill="#9a32cd" stroke="#9a32cd" points="1963.84,-663.274 1954.37,-668.034 1964.74,-670.216 1963.84,-663.274"/>
<text text-anchor="middle" x="1997" y="-674" font-family="FreeSans.ttf" font-size="10.00"> m_server</text>
</g>
<!-- Node23&#45;&gt;Node22 -->
<g id="edge68" class="edge"><title>Node23&#45;&gt;Node22</title>
<path fill="none" stroke="#9a32cd" stroke-dasharray="5,2" d="M1747.84,-819.114C1785.34,-801.929 1845.33,-770.96 1888,-732 1903.79,-717.588 1917.13,-696.299 1924.31,-683.622"/>
<polygon fill="#9a32cd" stroke="#9a32cd" points="1746.04,-816.088 1738.36,-823.386 1748.91,-822.47 1746.04,-816.088"/>
<text text-anchor="middle" x="1842" y="-798" font-family="FreeSans.ttf" font-size="10.00"> m_character_next</text>
</g>
<!-- Node24&#45;&gt;Node22 -->
<g id="edge74" class="edge"><title>Node24&#45;&gt;Node22</title>
<path fill="none" stroke="#9a32cd" stroke-dasharray="5,2" d="M1330.66,-673C1485.41,-673 1814.11,-673 1905.8,-673"/>
<polygon fill="#9a32cd" stroke="#9a32cd" points="1330.27,-669.5 1320.27,-673 1330.27,-676.5 1330.27,-669.5"/>
<text text-anchor="middle" x="1576" y="-677" font-family="FreeSans.ttf" font-size="10.00"> m_socket_client_next</text>
</g>
<!-- Node25 -->
<g id="node64" class="node"><title>Node25</title>
<polygon fill="white" stroke="#bfbfbf" points="1679,-701.5 1679,-722.5 1747,-722.5 1747,-701.5 1679,-701.5"/>
<text text-anchor="middle" x="1713" y="-709.5" font-family="FreeSans.ttf" font-size="10.00">time_point</text>
</g>
<!-- Node25&#45;&gt;Node22 -->
<g id="edge80" class="edge"><title>Node25&#45;&gt;Node22</title>
<path fill="none" stroke="#9a32cd" stroke-dasharray="5,2" d="M1757.29,-707.899C1792.91,-704.069 1844.09,-697.365 1888,-687 1893.83,-685.623 1900.01,-683.785 1905.78,-681.895"/>
<polygon fill="#9a32cd" stroke="#9a32cd" points="1756.8,-704.431 1747.21,-708.95 1757.52,-711.394 1756.8,-704.431"/>
<text text-anchor="middle" x="1842" y="-719" font-family="FreeSans.ttf" font-size="10.00"> m_time_current</text>
<text text-anchor="middle" x="1842" y="-706" font-family="FreeSans.ttf" font-size="10.00">m_time_boot</text>
</g>
<!-- Node26&#45;&gt;Node22 -->
<g id="edge84" class="edge"><title>Node26&#45;&gt;Node22</title>
<path fill="none" stroke="#9a32cd" stroke-dasharray="5,2" d="M1432.37,-987.09C1535.24,-978.48 1764.41,-944.52 1888,-811 1905.69,-791.886 1922.36,-712.731 1927.99,-683.719"/>
<polygon fill="#9a32cd" stroke="#9a32cd" points="1431.92,-983.615 1422.23,-987.89 1432.47,-990.593 1431.92,-983.615"/>
<text text-anchor="middle" x="1576" y="-979" font-family="FreeSans.ttf" font-size="10.00"> m_config</text>
</g>
<!-- Node27&#45;&gt;Node22 -->
<g id="edge90" class="edge"><title>Node27&#45;&gt;Node22</title>
<path fill="none" stroke="#9a32cd" stroke-dasharray="5,2" d="M2030.37,-700.12C2011.88,-696.527 1990.89,-692.034 1972,-687 1966.21,-685.456 1960.05,-683.553 1954.28,-681.654"/>
<polygon fill="#9a32cd" stroke="#9a32cd" points="2029.87,-703.588 2040.35,-702.021 2031.18,-696.712 2029.87,-703.588"/>
<text text-anchor="middle" x="1997" y="-701" font-family="FreeSans.ttf" font-size="10.00"> m_socket</text>
</g>
<!-- Node28&#45;&gt;Node11 -->
<g id="edge96" class="edge"><title>Node28&#45;&gt;Node11</title>
<path fill="none" stroke="#9a32cd" stroke-dasharray="5,2" d="M617.715,-895.383C646.136,-861.862 704.234,-794.066 716,-786 766.112,-751.645 791.35,-768.321 844,-738 882.184,-716.01 920.61,-680.258 938.55,-662.583"/>
<polygon fill="#9a32cd" stroke="#9a32cd" points="614.964,-893.216 611.174,-903.11 620.307,-897.739 614.964,-893.216"/>
<text text-anchor="middle" x="780" y="-790" font-family="FreeSans.ttf" font-size="10.00"> m_command_queue</text>
</g>
<!-- Node29&#45;&gt;Node28 -->
<g id="edge100" class="edge"><title>Node29&#45;&gt;Node28</title>
<path fill="none" stroke="orange" stroke-dasharray="5,2" d="M340.772,-909.169C347.259,-909.099 353.771,-909.04 360,-909 416.888,-908.631 431.125,-907.753 488,-909 493.942,-909.13 500.057,-909.299 506.222,-909.494"/>
<polygon fill="orange" stroke="orange" points="340.605,-905.67 330.646,-909.285 340.685,-912.67 340.605,-905.67"/>
<text text-anchor="middle" x="424" y="-913" font-family="FreeSans.ttf" font-size="10.00"> &lt; pair&lt; string, string &gt; &gt;</text>
</g>
<!-- Node30&#45;&gt;Node11 -->
<g id="edge110" class="edge"><title>Node30&#45;&gt;Node11</title>
<path fill="none" stroke="#9a32cd" stroke-dasharray="5,2" d="M671.124,-330.522C680.447,-333.62 689.662,-337.4 698,-342 832.907,-416.434 922.914,-595.657 944.161,-641.288"/>
<polygon fill="#9a32cd" stroke="#9a32cd" points="671.987,-327.126 661.4,-327.533 669.931,-333.817 671.987,-327.126"/>
<text text-anchor="middle" x="780" y="-475" font-family="FreeSans.ttf" font-size="10.00"> m_terminfo</text>
</g>
</g>
</svg>
        <g id="navigator" transform="translate(0 0)" fill="#404254">
                <rect fill="#f2f5e9" fill-opacity="0.5" stroke="#606060" stroke-width=".5" x="0" y="0" width="60" height="60"/>
                <use id="zoomplus" xlink:href="#zoomPlus" x="17" y="9" onmousedown="handleZoom(evt,'in')"/>
                <use id="zoomminus" xlink:href="#zoomMin" x="42" y="9" onmousedown="handleZoom(evt,'out')"/>
                <use id="reset" xlink:href="#resetDef" x="30" y="36" onmousedown="handleReset()"/>
                <g id="arrowUp" xlink:href="#dirArrow" transform="translate(30 24)" onmousedown="handlePan(0,-1)">
                  <use xlink:href="#rim" fill="#404040">
                        <set attributeName="fill" to="#808080" begin="arrowUp.mouseover" end="arrowUp.mouseout"/>
                  </use>
                  <path fill="none" stroke="white" stroke-width="1.5" d="M0,-3.0v7 M-2.5,-0.5L0,-3.0L2.5,-0.5"/>
                </g>
                <g id="arrowRight" xlink:href="#dirArrow" transform="rotate(90) translate(36 -43)" onmousedown="handlePan(1,0)">
                  <use xlink:href="#rim" fill="#404040">
                        <set attributeName="fill" to="#808080" begin="arrowRight.mouseover" end="arrowRight.mouseout"/>
                  </use>
                  <path fill="none" stroke="white" stroke-width="1.5" d="M0,-3.0v7 M-2.5,-0.5L0,-3.0L2.5,-0.5"/>
                </g>
                <g id="arrowDown" xlink:href="#dirArrow" transform="rotate(180) translate(-30 -48)" onmousedown="handlePan(0,1)">
                  <use xlink:href="#rim" fill="#404040">
                        <set attributeName="fill" to="#808080" begin="arrowDown.mouseover" end="arrowDown.mouseout"/>
                  </use>
                  <path fill="none" stroke="white" stroke-width="1.5" d="M0,-3.0v7 M-2.5,-0.5L0,-3.0L2.5,-0.5"/>
                </g>
                <g id="arrowLeft" xlink:href="#dirArrow" transform="rotate(270) translate(-36 17)" onmousedown="handlePan(-1,0)">
                  <use xlink:href="#rim" fill="#404040">
                        <set attributeName="fill" to="#808080" begin="arrowLeft.mouseover" end="arrowLeft.mouseout"/>
                  </use>
                  <path fill="none" stroke="white" stroke-width="1.5" d="M0,-3.0v7 M-2.5,-0.5L0,-3.0L2.5,-0.5"/>
                </g>
        </g>
</svg>
