<?xml version="1.0" encoding="UTF-8" standalone="no"?>
<!DOCTYPE svg PUBLIC "-//W3C//DTD SVG 1.1//EN"
 "http://www.w3.org/Graphics/SVG/1.1/DTD/svg11.dtd">
<!-- Generated by graphviz version 2.26.3 (20100126.1600)
 -->
<!-- Title: G Pages: 1 -->
<svg width="360pt" height="270pt"
 viewBox="0.00 0.00 360.00 270.00" xmlns="http://www.w3.org/2000/svg" xmlns:xlink="http://www.w3.org/1999/xlink">
<g id="graph1" class="graph" transform="scale(1 1) rotate(0) translate(4 266)">
<title>G</title>
<polygon fill="white" stroke="white" points="-4,5 -4,-266 357,-266 357,5 -4,5"/>
<!-- Node1 -->
<g id="node1" class="node"><title>Node1</title>
<polygon fill="#bfbfbf" stroke="black" points="0,-120.5 0,-141.5 116,-141.5 116,-120.5 0,-120.5"/>
<text text-anchor="middle" x="58" y="-128.5" font-family="FreeSans.ttf" font-size="10.00">Location::Unserialize</text>
</g>
<!-- Node2 -->
<g id="node3" class="node"><title>Node2</title>
<a xlink:href="namespaceUtils.xhtml#a67fd451200ee8a3cc646aeba5cb9513b" target="_top" xlink:title="Begins a write to a temporary file that is intended to replace a live file.">
<polygon fill="white" stroke="black" points="153,-240.5 153,-261.5 237,-261.5 237,-240.5 153,-240.5"/>
<text text-anchor="middle" x="195" y="-248.5" font-family="FreeSans.ttf" font-size="10.00">Utils::FileOpen</text>
</a>
</g>
<!-- Node1&#45;&gt;Node2 -->
<g id="edge2" class="edge"><title>Node1&#45;&gt;Node2</title>
<path fill="none" stroke="midnightblue" d="M65.7354,-141.6C80.5862,-161.351 114.922,-204.202 152,-231 154.315,-232.673 156.791,-234.26 159.344,-235.753"/>
<polygon fill="midnightblue" stroke="midnightblue" points="157.717,-238.852 168.189,-240.459 161.005,-232.672 157.717,-238.852"/>
</g>
<!-- Node4 -->
<g id="node7" class="node"><title>Node4</title>
<a xlink:href="namespaceUtils.xhtml#a4a4d3dfd2ddb691bc5bcff82252c058b" target="_top" xlink:title="Splits a string in the format of key=value. Retains any whitespace in the value.">
<polygon fill="white" stroke="black" points="152,-200.5 152,-221.5 238,-221.5 238,-200.5 152,-200.5"/>
<text text-anchor="middle" x="195" y="-208.5" font-family="FreeSans.ttf" font-size="10.00">Utils::KeyValue</text>
</a>
</g>
<!-- Node1&#45;&gt;Node4 -->
<g id="edge6" class="edge"><title>Node1&#45;&gt;Node4</title>
<path fill="none" stroke="midnightblue" d="M73.2508,-141.627C91.5362,-154.156 123.313,-175.264 152,-191 155.052,-192.674 158.269,-194.341 161.513,-195.957"/>
<polygon fill="midnightblue" stroke="midnightblue" points="160.085,-199.154 170.613,-200.342 163.123,-192.848 160.085,-199.154"/>
</g>
<!-- Node5 -->
<g id="node9" class="node"><title>Node5</title>
<a xlink:href="classThing.xhtml#a946fbf68bcd90ea5b26f4cce0b37132b" target="_top" xlink:title="Sets the id of this Thing.">
<polygon fill="white" stroke="black" points="164,-160.5 164,-181.5 226,-181.5 226,-160.5 164,-160.5"/>
<text text-anchor="middle" x="195" y="-168.5" font-family="FreeSans.ttf" font-size="10.00">Thing::sId</text>
</a>
</g>
<!-- Node1&#45;&gt;Node5 -->
<g id="edge8" class="edge"><title>Node1&#45;&gt;Node5</title>
<path fill="none" stroke="midnightblue" d="M93.9951,-141.51C112.493,-146.91 135.108,-153.513 154.246,-159.101"/>
<polygon fill="midnightblue" stroke="midnightblue" points="153.316,-162.476 163.897,-161.919 155.278,-155.756 153.316,-162.476"/>
</g>
<!-- Node6 -->
<g id="node11" class="node"><title>Node6</title>
<a xlink:href="classThing.xhtml#a69568f79edcdf1b0225f1b764a7ceb41" target="_top" xlink:title="Sets the name of this Thing.">
<polygon fill="white" stroke="black" points="153.5,-120.5 153.5,-141.5 236.5,-141.5 236.5,-120.5 153.5,-120.5"/>
<text text-anchor="middle" x="195" y="-128.5" font-family="FreeSans.ttf" font-size="10.00">Thing::sName</text>
</a>
</g>
<!-- Node1&#45;&gt;Node6 -->
<g id="edge10" class="edge"><title>Node1&#45;&gt;Node6</title>
<path fill="none" stroke="midnightblue" d="M116.1,-131C125.116,-131 134.378,-131 143.241,-131"/>
<polygon fill="midnightblue" stroke="midnightblue" points="143.425,-134.5 153.425,-131 143.425,-127.5 143.425,-134.5"/>
</g>
<!-- Node7 -->
<g id="node13" class="node"><title>Node7</title>
<a xlink:href="namespaceUtils.xhtml#aba8fca9daa0f767d7f5af5e2b1d6b81d" target="_top" xlink:title="If the contents of keyd == valu, assigns loc = item.">
<polygon fill="white" stroke="black" points="156.5,-80.5 156.5,-101.5 233.5,-101.5 233.5,-80.5 156.5,-80.5"/>
<text text-anchor="middle" x="195" y="-88.5" font-family="FreeSans.ttf" font-size="10.00">Utils::KeySet</text>
</a>
</g>
<!-- Node1&#45;&gt;Node7 -->
<g id="edge12" class="edge"><title>Node1&#45;&gt;Node7</title>
<path fill="none" stroke="midnightblue" d="M93.9951,-120.49C110.852,-115.569 131.127,-109.649 149.075,-104.409"/>
<polygon fill="midnightblue" stroke="midnightblue" points="150.151,-107.741 158.77,-101.578 148.189,-101.021 150.151,-107.741"/>
</g>
<!-- Node8 -->
<g id="node15" class="node"><title>Node8</title>
<a xlink:href="classThing.xhtml#aea5dad4f4241b325cdf64b232e84e602" target="_top" xlink:title="Returns the id associated with this Thing.">
<polygon fill="white" stroke="black" points="164,-40.5 164,-61.5 226,-61.5 226,-40.5 164,-40.5"/>
<text text-anchor="middle" x="195" y="-48.5" font-family="FreeSans.ttf" font-size="10.00">Thing::gId</text>
</a>
</g>
<!-- Node1&#45;&gt;Node8 -->
<g id="edge14" class="edge"><title>Node1&#45;&gt;Node8</title>
<path fill="none" stroke="midnightblue" d="M73.2508,-120.373C91.5362,-107.844 123.313,-86.7361 152,-71 155.052,-69.3258 158.269,-67.659 161.513,-66.0429"/>
<polygon fill="midnightblue" stroke="midnightblue" points="163.123,-69.1523 170.613,-61.6585 160.085,-62.8461 163.123,-69.1523"/>
</g>
<!-- Node9 -->
<g id="node17" class="node"><title>Node9</title>
<a xlink:href="namespaceUtils.xhtml#a7008f8effca71806721305d1834bde1e" target="_top" xlink:title="Completes a read from a file.">
<polygon fill="white" stroke="black" points="152.5,-0.5 152.5,-21.5 237.5,-21.5 237.5,-0.5 152.5,-0.5"/>
<text text-anchor="middle" x="195" y="-8.5" font-family="FreeSans.ttf" font-size="10.00">Utils::FileClose</text>
</a>
</g>
<!-- Node1&#45;&gt;Node9 -->
<g id="edge16" class="edge"><title>Node1&#45;&gt;Node9</title>
<path fill="none" stroke="midnightblue" d="M65.7354,-120.4C80.5862,-100.649 114.922,-57.798 152,-31 154.315,-29.3271 156.791,-27.7403 159.344,-26.2471"/>
<polygon fill="midnightblue" stroke="midnightblue" points="161.005,-29.3282 168.189,-21.5412 157.717,-23.1484 161.005,-29.3282"/>
</g>
<!-- Node3 -->
<g id="node5" class="node"><title>Node3</title>
<a xlink:href="namespaceUtils.xhtml#ad21617b756ef242fbc66e63dec3e4e4d" target="_top" xlink:title="Returns a string consisting of directory/file.ext.">
<polygon fill="white" stroke="black" points="274,-240.5 274,-261.5 352,-261.5 352,-240.5 274,-240.5"/>
<text text-anchor="middle" x="313" y="-248.5" font-family="FreeSans.ttf" font-size="10.00">Utils::DirPath</text>
</a>
</g>
<!-- Node2&#45;&gt;Node3 -->
<g id="edge4" class="edge"><title>Node2&#45;&gt;Node3</title>
<path fill="none" stroke="midnightblue" d="M237.267,-251C245.823,-251 254.89,-251 263.665,-251"/>
<polygon fill="midnightblue" stroke="midnightblue" points="263.782,-254.5 273.782,-251 263.782,-247.5 263.782,-254.5"/>
</g>
</g>
</svg>
