<?xml version="1.0" encoding="UTF-8" standalone="no"?>
<!DOCTYPE svg PUBLIC "-//W3C//DTD SVG 1.1//EN"
 "http://www.w3.org/Graphics/SVG/1.1/DTD/svg11.dtd">
<!-- Generated by graphviz version 2.26.3 (20100126.1600)
 -->
<!-- Title: G Pages: 1 -->
<!--zoomable 459 -->
<svg id="main" version="1.1" xmlns="http://www.w3.org/2000/svg" xmlns:xlink="http://www.w3.org/1999/xlink" xml:space="preserve" onload="init(evt)">
        <defs>
                <circle id="rim" cx="0" cy="0" r="7"/>
                <circle id="rim2" cx="0" cy="0" r="3.5"/>
                <g id="zoomPlus">
                        <use xlink:href="#rim" fill="#404040">
                                <set attributeName="fill" to="#808080" begin="zoomplus.mouseover" end="zoomplus.mouseout"/>
                        </use>
                        <path d="M-4,0h8M0,-4v8" fill="none" stroke="white" stroke-width="1.5" pointer-events="none"/>
                </g>
                <g id="zoomMin">
                        <use xlink:href="#rim" fill="#404040">
                                <set attributeName="fill" to="#808080" begin="zoomminus.mouseover" end="zoomminus.mouseout"/>
                        </use>
                        <path d="M-4,0h8" fill="none" stroke="white" stroke-width="1.5" pointer-events="none"/>
                </g>
                <g id="dirArrow">
                        <path fill="none" stroke="white" stroke-width="1.5" d="M0,-3.0v7 M-2.5,-0.5L0,-3.0L2.5,-0.5"/>
                </g>
               <g id="resetDef">
                       <use xlink:href="#rim2" fill="#404040">
                               <set attributeName="fill" to="#808080" begin="reset.mouseover" end="reset.mouseout"/>
                       </use>
               </g>
        </defs>

<script type="text/javascript">
var viewWidth = 1038;
var viewHeight = 459;
var sectionId = 'dynsection-7';
</script>
<script xlink:href="svgpan.js"/>
<svg id="graph" class="graph">
<g id="viewport">
<title>G</title>
<polygon fill="white" stroke="white" points="-4,5 -4,-455.185 1035,-455.185 1035,5 -4,5"/>
<!-- Node1 -->
<g id="node1" class="node"><title>Node1</title>
<polygon fill="#bfbfbf" stroke="black" points="0.5,-216.5 0.5,-237.5 111.5,-237.5 111.5,-216.5 0.5,-216.5"/>
<text text-anchor="middle" x="56" y="-224.5" font-family="FreeSans.ttf" font-size="10.00">Socket::gDescriptor</text>
</g>
<!-- Node2 -->
<g id="node3" class="node"><title>Node2</title>
<a xlink:href="classServer.xhtml#a39dbe16fdc8c5f6fbd678c6540fbcd6c" target="_top" xlink:title="Server::PollSockets">
<polygon fill="white" stroke="black" points="716.5,-308.5 716.5,-329.5 825.5,-329.5 825.5,-308.5 716.5,-308.5"/>
<text text-anchor="middle" x="771" y="-316.5" font-family="FreeSans.ttf" font-size="10.00">Server::PollSockets</text>
</a>
</g>
<!-- Node1&#45;&gt;Node2 -->
<g id="edge2" class="edge"><title>Node1&#45;&gt;Node2</title>
<path fill="none" stroke="midnightblue" d="M59.855,-247.827C68.2009,-286.216 91.9106,-367.371 148,-402 354.351,-529.397 671.969,-373.033 752.13,-329.59"/>
<polygon fill="midnightblue" stroke="midnightblue" points="63.2377,-246.897 57.8162,-237.794 56.3779,-248.291 63.2377,-246.897"/>
</g>
<!-- Node5 -->
<g id="node9" class="node"><title>Node5</title>
<a xlink:href="classServer.xhtml#a7f5259e36a6bcf3a78a5bede522c3632" target="_top" xlink:title="Server::ProcessInput">
<polygon fill="white" stroke="black" points="562,-197.5 562,-218.5 678,-218.5 678,-197.5 562,-197.5"/>
<text text-anchor="middle" x="620" y="-205.5" font-family="FreeSans.ttf" font-size="10.00">Server::ProcessInput</text>
</a>
</g>
<!-- Node1&#45;&gt;Node5 -->
<g id="edge8" class="edge"><title>Node1&#45;&gt;Node5</title>
<path fill="none" stroke="midnightblue" d="M121.694,-224.787C232.809,-221.044 456.065,-213.523 561.854,-209.959"/>
<polygon fill="midnightblue" stroke="midnightblue" points="121.498,-221.291 111.622,-225.126 121.734,-228.287 121.498,-221.291"/>
</g>
<!-- Node6 -->
<g id="node12" class="node"><title>Node6</title>
<a xlink:href="classSocketClient.xhtml#a6b296c5002caa1229e7d7b9be6f08607" target="_top" xlink:title="Build a socket for a new client connection and set all attributes.">
<polygon fill="white" stroke="black" points="387.5,-333.5 387.5,-354.5 490.5,-354.5 490.5,-333.5 387.5,-333.5"/>
<text text-anchor="middle" x="439" y="-341.5" font-family="FreeSans.ttf" font-size="10.00">SocketClient::New</text>
</a>
</g>
<!-- Node1&#45;&gt;Node6 -->
<g id="edge12" class="edge"><title>Node1&#45;&gt;Node6</title>
<path fill="none" stroke="midnightblue" d="M64.7249,-246.711C78.1156,-274.193 106.604,-322.909 148,-343 229.13,-382.376 338.6,-367.327 397.445,-354.607"/>
<polygon fill="midnightblue" stroke="midnightblue" points="67.8879,-245.212 60.4787,-237.638 61.548,-248.179 67.8879,-245.212"/>
</g>
<!-- Node7 -->
<g id="node14" class="node"><title>Node7</title>
<a xlink:href="classSocketServer.xhtml#afdbc60c3bc840875d2214b59c6213f63" target="_top" xlink:title="Accept a new connection on the listening port.">
<polygon fill="white" stroke="black" points="560,-333.5 560,-354.5 680,-354.5 680,-333.5 560,-333.5"/>
<text text-anchor="middle" x="620" y="-341.5" font-family="FreeSans.ttf" font-size="10.00">SocketServer::Accept</text>
</a>
</g>
<!-- Node1&#45;&gt;Node7 -->
<g id="edge42" class="edge"><title>Node1&#45;&gt;Node7</title>
<path fill="none" stroke="midnightblue" d="M62.273,-247.678C73.4491,-280.393 100.236,-343.033 148,-369 298.677,-450.915 517.924,-382.415 593.35,-354.502"/>
<polygon fill="midnightblue" stroke="midnightblue" points="65.4915,-246.257 59.0736,-237.827 58.8338,-248.419 65.4915,-246.257"/>
</g>
<!-- Node8 -->
<g id="node17" class="node"><title>Node8</title>
<a xlink:href="classSocketClient.xhtml#ad4f63c7d906310dc56a1217136047d7f" target="_top" xlink:title="Interpret the command at the front of the queue.">
<polygon fill="white" stroke="black" points="354,-236.5 354,-257.5 524,-257.5 524,-236.5 354,-236.5"/>
<text text-anchor="middle" x="439" y="-244.5" font-family="FreeSans.ttf" font-size="10.00">SocketClient::ProcessCommand</text>
</a>
</g>
<!-- Node1&#45;&gt;Node8 -->
<g id="edge18" class="edge"><title>Node1&#45;&gt;Node8</title>
<path fill="none" stroke="midnightblue" d="M121.688,-230.43C185.84,-233.78 283.781,-238.895 353.874,-242.555"/>
<polygon fill="midnightblue" stroke="midnightblue" points="121.86,-226.935 111.691,-229.908 121.495,-233.925 121.86,-226.935"/>
</g>
<!-- Node9 -->
<g id="node20" class="node"><title>Node9</title>
<a xlink:href="classSocketClient.xhtml#a92fea2bf7e0f20578404ce1abb835a0b" target="_top" xlink:title="Process data from the client&#39;s receive buffer and split it into commands to queue as necessary...">
<polygon fill="white" stroke="black" points="367,-158.5 367,-179.5 511,-179.5 511,-158.5 367,-158.5"/>
<text text-anchor="middle" x="439" y="-166.5" font-family="FreeSans.ttf" font-size="10.00">SocketClient::ProcessInput</text>
</a>
</g>
<!-- Node1&#45;&gt;Node9 -->
<g id="edge22" class="edge"><title>Node1&#45;&gt;Node9</title>
<path fill="none" stroke="midnightblue" d="M89.6618,-212.556C106.813,-205.81 128.183,-198.329 148,-194 221.441,-177.958 307.412,-172.112 366.771,-170.033"/>
<polygon fill="midnightblue" stroke="midnightblue" points="88.06,-209.428 80.0943,-216.414 90.6777,-215.92 88.06,-209.428"/>
</g>
<!-- Node10 -->
<g id="node23" class="node"><title>Node10</title>
<a xlink:href="classSocketClient.xhtml#aa3c0d7886b8fede981c73031cfaf17c6" target="_top" xlink:title="Append a command to the back of the queue.">
<polygon fill="white" stroke="black" points="151,-120.5 151,-141.5 315,-141.5 315,-120.5 151,-120.5"/>
<text text-anchor="middle" x="233" y="-128.5" font-family="FreeSans.ttf" font-size="10.00">SocketClient::QueueCommand</text>
</a>
</g>
<!-- Node1&#45;&gt;Node10 -->
<g id="edge26" class="edge"><title>Node1&#45;&gt;Node10</title>
<path fill="none" stroke="midnightblue" d="M74.7595,-209.104C92.4044,-193.147 120.199,-170.18 148,-156 159.647,-150.059 172.931,-145.307 185.48,-141.61"/>
<polygon fill="midnightblue" stroke="midnightblue" points="71.9318,-206.951 66.9571,-216.306 76.6794,-212.095 71.9318,-206.951"/>
</g>
<!-- Node11 -->
<g id="node26" class="node"><title>Node11</title>
<a xlink:href="classSocketClient.xhtml#a9ee09f452d900e288b2aa187561ef05d" target="_top" xlink:title="Receive data from the client and append it to a receive buffer.">
<polygon fill="white" stroke="black" points="568,-284.5 568,-305.5 672,-305.5 672,-284.5 568,-284.5"/>
<text text-anchor="middle" x="620" y="-292.5" font-family="FreeSans.ttf" font-size="10.00">SocketClient::Recv</text>
</a>
</g>
<!-- Node1&#45;&gt;Node11 -->
<g id="edge30" class="edge"><title>Node1&#45;&gt;Node11</title>
<path fill="none" stroke="midnightblue" d="M102.603,-240.091C117.057,-243.761 133.102,-247.442 148,-250 299.306,-275.975 480.661,-287.987 567.98,-292.594"/>
<polygon fill="midnightblue" stroke="midnightblue" points="103.444,-236.693 92.8851,-237.566 101.683,-243.468 103.444,-236.693"/>
</g>
<!-- Node12 -->
<g id="node29" class="node"><title>Node12</title>
<a xlink:href="classSocketClient.xhtml#afd723bd898217b3c41e29a02f43ec9e1" target="_top" xlink:title="SocketClient::ResolveHostname">
<polygon fill="white" stroke="black" points="148.5,-0.5 148.5,-21.5 317.5,-21.5 317.5,-0.5 148.5,-0.5"/>
<text text-anchor="middle" x="233" y="-8.5" font-family="FreeSans.ttf" font-size="10.00">SocketClient::ResolveHostname</text>
</a>
</g>
<!-- Node1&#45;&gt;Node12 -->
<g id="edge34" class="edge"><title>Node1&#45;&gt;Node12</title>
<path fill="none" stroke="midnightblue" d="M59.6368,-206.027C67.7872,-165.611 91.4293,-76.8884 148,-31 152.709,-27.1799 158.022,-24.0653 163.635,-21.529"/>
<polygon fill="midnightblue" stroke="midnightblue" points="56.1569,-205.593 57.7343,-216.069 63.0345,-206.896 56.1569,-205.593"/>
</g>
<!-- Node13 -->
<g id="node31" class="node"><title>Node13</title>
<a xlink:href="classSocketClient.xhtml#a6268f3d184970ec0076da657c39d2e80" target="_top" xlink:title="Process data from the client&#39;s send buffer and transmit it via the socket.">
<polygon fill="white" stroke="black" points="179.5,-312.5 179.5,-333.5 286.5,-333.5 286.5,-312.5 179.5,-312.5"/>
<text text-anchor="middle" x="233" y="-320.5" font-family="FreeSans.ttf" font-size="10.00">SocketClient::Send</text>
</a>
</g>
<!-- Node1&#45;&gt;Node13 -->
<g id="edge36" class="edge"><title>Node1&#45;&gt;Node13</title>
<path fill="none" stroke="midnightblue" d="M74.7595,-244.896C92.4044,-260.853 120.199,-283.82 148,-298 159.647,-303.941 172.931,-308.693 185.48,-312.39"/>
<polygon fill="midnightblue" stroke="midnightblue" points="76.6794,-241.905 66.9571,-237.694 71.9318,-247.049 76.6794,-241.905"/>
</g>
<!-- Node14 -->
<g id="node36" class="node"><title>Node14</title>
<a xlink:href="classSocketServer.xhtml#aee14cfe29fef99baa29664eef8d89dc8" target="_top" xlink:title="Bind a listening socket to a given port and IP address.">
<polygon fill="white" stroke="black" points="179,-80.5 179,-101.5 287,-101.5 287,-80.5 179,-80.5"/>
<text text-anchor="middle" x="233" y="-88.5" font-family="FreeSans.ttf" font-size="10.00">SocketServer::Bind</text>
</a>
</g>
<!-- Node1&#45;&gt;Node14 -->
<g id="edge44" class="edge"><title>Node1&#45;&gt;Node14</title>
<path fill="none" stroke="midnightblue" d="M66.0363,-207.403C80.4945,-181.221 109.709,-135.311 148,-111 157.215,-105.15 167.97,-101.008 178.67,-98.0768"/>
<polygon fill="midnightblue" stroke="midnightblue" points="62.8617,-205.918 61.2294,-216.386 69.0336,-209.22 62.8617,-205.918"/>
</g>
<!-- Node17 -->
<g id="node43" class="node"><title>Node17</title>
<a xlink:href="classSocketServer.xhtml#a5c5b0cbbee6a2e265d0510b40bcc12d8" target="_top" xlink:title="Listen for new connections on an established socket.">
<polygon fill="white" stroke="black" points="175,-40.5 175,-61.5 291,-61.5 291,-40.5 175,-40.5"/>
<text text-anchor="middle" x="233" y="-48.5" font-family="FreeSans.ttf" font-size="10.00">SocketServer::Listen</text>
</a>
</g>
<!-- Node1&#45;&gt;Node17 -->
<g id="edge52" class="edge"><title>Node1&#45;&gt;Node17</title>
<path fill="none" stroke="midnightblue" d="M62.1665,-206.59C73.4469,-172.874 100.702,-105.814 148,-71 155.936,-65.1586 165.322,-60.9942 174.909,-58.0318"/>
<polygon fill="midnightblue" stroke="midnightblue" points="58.7793,-205.691 59.0602,-216.283 65.4453,-207.828 58.7793,-205.691"/>
</g>
<!-- Node3 -->
<g id="node5" class="node"><title>Node3</title>
<a xlink:href="classServer.xhtml#a50b81aa91d8fdaee6f52c5c5ec987990" target="_top" xlink:title="The core update loop of NAMS. This loop spawns all other subsystem update routines and then sleeps fo...">
<polygon fill="white" stroke="black" points="862.5,-197.5 862.5,-218.5 951.5,-218.5 951.5,-197.5 862.5,-197.5"/>
<text text-anchor="middle" x="907" y="-205.5" font-family="FreeSans.ttf" font-size="10.00">Server::Update</text>
</a>
</g>
<!-- Node2&#45;&gt;Node3 -->
<g id="edge4" class="edge"><title>Node2&#45;&gt;Node3</title>
<path fill="none" stroke="midnightblue" d="M792.12,-301.762C820.522,-278.581 870.183,-238.049 893.799,-218.774"/>
<polygon fill="midnightblue" stroke="midnightblue" points="789.574,-299.322 784.04,-308.357 794.001,-304.745 789.574,-299.322"/>
</g>
<!-- Node4 -->
<g id="node7" class="node"><title>Node4</title>
<a xlink:href="main_8cpp.xhtml#ad53223b8779f25caeddb70a3b9172967" target="_top" xlink:title="The default function required to execute the server.">
<polygon fill="white" stroke="black" points="988.5,-168.5 988.5,-189.5 1029.5,-189.5 1029.5,-168.5 988.5,-168.5"/>
<text text-anchor="middle" x="1009" y="-176.5" font-family="FreeSans.ttf" font-size="10.00">main</text>
</a>
</g>
<!-- Node3&#45;&gt;Node4 -->
<g id="edge6" class="edge"><title>Node3&#45;&gt;Node4</title>
<path fill="none" stroke="midnightblue" d="M953.733,-194.713C965.882,-191.259 978.356,-187.713 988.371,-184.865"/>
<polygon fill="midnightblue" stroke="midnightblue" points="952.774,-191.347 944.113,-197.448 954.689,-198.08 952.774,-191.347"/>
</g>
<!-- Node5&#45;&gt;Node3 -->
<g id="edge10" class="edge"><title>Node5&#45;&gt;Node3</title>
<path fill="none" stroke="midnightblue" d="M688.227,-208C742.047,-208 815.573,-208 862.176,-208"/>
<polygon fill="midnightblue" stroke="midnightblue" points="688.079,-204.5 678.079,-208 688.079,-211.5 688.079,-204.5"/>
</g>
<!-- Node6&#45;&gt;Node7 -->
<g id="edge14" class="edge"><title>Node6&#45;&gt;Node7</title>
<path fill="none" stroke="midnightblue" d="M500.93,-344C519.972,-344 540.895,-344 559.818,-344"/>
<polygon fill="midnightblue" stroke="midnightblue" points="500.867,-340.5 490.867,-344 500.867,-347.5 500.867,-340.5"/>
</g>
<!-- Node7&#45;&gt;Node2 -->
<g id="edge16" class="edge"><title>Node7&#45;&gt;Node2</title>
<path fill="none" stroke="midnightblue" d="M690.058,-332.401C698.928,-330.932 707.899,-329.447 716.477,-328.027"/>
<polygon fill="midnightblue" stroke="midnightblue" points="689.407,-328.961 680.113,-334.048 690.55,-335.867 689.407,-328.961"/>
</g>
<!-- Node8&#45;&gt;Node5 -->
<g id="edge20" class="edge"><title>Node8&#45;&gt;Node5</title>
<path fill="none" stroke="midnightblue" d="M497.885,-234.312C521.517,-229.22 548.439,-223.419 570.98,-218.562"/>
<polygon fill="midnightblue" stroke="midnightblue" points="497.02,-230.918 487.981,-236.446 498.494,-237.761 497.02,-230.918"/>
</g>
<!-- Node9&#45;&gt;Node5 -->
<g id="edge24" class="edge"><title>Node9&#45;&gt;Node5</title>
<path fill="none" stroke="midnightblue" d="M497.885,-181.688C521.517,-186.78 548.439,-192.581 570.98,-197.438"/>
<polygon fill="midnightblue" stroke="midnightblue" points="498.494,-178.239 487.981,-179.554 497.02,-185.082 498.494,-178.239"/>
</g>
<!-- Node10&#45;&gt;Node9 -->
<g id="edge28" class="edge"><title>Node10&#45;&gt;Node9</title>
<path fill="none" stroke="midnightblue" d="M300.032,-143.365C326.427,-148.234 356.426,-153.768 381.78,-158.445"/>
<polygon fill="midnightblue" stroke="midnightblue" points="300.578,-139.907 290.109,-141.535 299.308,-146.791 300.578,-139.907"/>
</g>
<!-- Node11&#45;&gt;Node2 -->
<g id="edge32" class="edge"><title>Node11&#45;&gt;Node2</title>
<path fill="none" stroke="midnightblue" d="M682.561,-304.943C693.79,-306.728 705.412,-308.575 716.395,-310.321"/>
<polygon fill="midnightblue" stroke="midnightblue" points="682.814,-301.44 672.389,-303.327 681.715,-308.353 682.814,-301.44"/>
</g>
<!-- Node13&#45;&gt;Node6 -->
<g id="edge38" class="edge"><title>Node13&#45;&gt;Node6</title>
<path fill="none" stroke="midnightblue" d="M296.675,-329.491C325.835,-332.464 359.944,-335.941 387.459,-338.746"/>
<polygon fill="midnightblue" stroke="midnightblue" points="296.89,-325.995 286.586,-328.463 296.18,-332.959 296.89,-325.995"/>
</g>
<!-- Node13&#45;&gt;Node8 -->
<g id="edge40" class="edge"><title>Node13&#45;&gt;Node8</title>
<path fill="none" stroke="midnightblue" d="M271.121,-308.936C311.388,-294.08 373.969,-270.992 410.269,-257.6"/>
<polygon fill="midnightblue" stroke="midnightblue" points="269.814,-305.688 261.643,-312.433 272.237,-312.255 269.814,-305.688"/>
</g>
<!-- Node15 -->
<g id="node38" class="node"><title>Node15</title>
<a xlink:href="classSocketServer.xhtml#a276e17da8bbf562313bce8edfd32e231" target="_top" xlink:title="Build a socket for a server and set all attributes.">
<polygon fill="white" stroke="black" points="385.5,-80.5 385.5,-101.5 492.5,-101.5 492.5,-80.5 385.5,-80.5"/>
<text text-anchor="middle" x="439" y="-88.5" font-family="FreeSans.ttf" font-size="10.00">SocketServer::New</text>
</a>
</g>
<!-- Node14&#45;&gt;Node15 -->
<g id="edge46" class="edge"><title>Node14&#45;&gt;Node15</title>
<path fill="none" stroke="midnightblue" d="M297.303,-91C325.543,-91 358.323,-91 385.237,-91"/>
<polygon fill="midnightblue" stroke="midnightblue" points="297.124,-87.5001 287.124,-91 297.124,-94.5001 297.124,-87.5001"/>
</g>
<!-- Node16 -->
<g id="node40" class="node"><title>Node16</title>
<a xlink:href="classServer.xhtml#a84ed4b0103f83fe0ece0a89983d0787a" target="_top" xlink:title="Start the NAMS server. Responsible for calling all critical boot&#45;time functions such as SocketServer ...">
<polygon fill="white" stroke="black" points="726,-119.5 726,-140.5 816,-140.5 816,-119.5 726,-119.5"/>
<text text-anchor="middle" x="771" y="-127.5" font-family="FreeSans.ttf" font-size="10.00">Server::Startup</text>
</a>
</g>
<!-- Node15&#45;&gt;Node16 -->
<g id="edge48" class="edge"><title>Node15&#45;&gt;Node16</title>
<path fill="none" stroke="midnightblue" d="M502.9,-98.5064C568.314,-106.191 668.311,-117.937 725.898,-124.702"/>
<polygon fill="midnightblue" stroke="midnightblue" points="503.051,-95 492.711,-97.3094 502.234,-101.952 503.051,-95"/>
</g>
<!-- Node16&#45;&gt;Node4 -->
<g id="edge50" class="edge"><title>Node16&#45;&gt;Node4</title>
<path fill="none" stroke="midnightblue" d="M826.066,-141.337C877.783,-151.985 952.416,-167.35 988.255,-174.729"/>
<polygon fill="midnightblue" stroke="midnightblue" points="826.546,-137.863 816.046,-139.274 825.135,-144.719 826.546,-137.863"/>
</g>
<!-- Node17&#45;&gt;Node15 -->
<g id="edge54" class="edge"><title>Node17&#45;&gt;Node15</title>
<path fill="none" stroke="midnightblue" d="M297.303,-63.4861C325.543,-68.9694 358.323,-75.3345 385.237,-80.5607"/>
<polygon fill="midnightblue" stroke="midnightblue" points="297.608,-59.9799 287.124,-61.5095 296.274,-66.8516 297.608,-59.9799"/>
</g>
</g>
</svg>
        <g id="navigator" transform="translate(0 0)" fill="#404254">
                <rect fill="#f2f5e9" fill-opacity="0.5" stroke="#606060" stroke-width=".5" x="0" y="0" width="60" height="60"/>
                <use id="zoomplus" xlink:href="#zoomPlus" x="17" y="9" onmousedown="handleZoom(evt,'in')"/>
                <use id="zoomminus" xlink:href="#zoomMin" x="42" y="9" onmousedown="handleZoom(evt,'out')"/>
                <use id="reset" xlink:href="#resetDef" x="30" y="36" onmousedown="handleReset()"/>
                <g id="arrowUp" xlink:href="#dirArrow" transform="translate(30 24)" onmousedown="handlePan(0,-1)">
                  <use xlink:href="#rim" fill="#404040">
                        <set attributeName="fill" to="#808080" begin="arrowUp.mouseover" end="arrowUp.mouseout"/>
                  </use>
                  <path fill="none" stroke="white" stroke-width="1.5" d="M0,-3.0v7 M-2.5,-0.5L0,-3.0L2.5,-0.5"/>
                </g>
                <g id="arrowRight" xlink:href="#dirArrow" transform="rotate(90) translate(36 -43)" onmousedown="handlePan(1,0)">
                  <use xlink:href="#rim" fill="#404040">
                        <set attributeName="fill" to="#808080" begin="arrowRight.mouseover" end="arrowRight.mouseout"/>
                  </use>
                  <path fill="none" stroke="white" stroke-width="1.5" d="M0,-3.0v7 M-2.5,-0.5L0,-3.0L2.5,-0.5"/>
                </g>
                <g id="arrowDown" xlink:href="#dirArrow" transform="rotate(180) translate(-30 -48)" onmousedown="handlePan(0,1)">
                  <use xlink:href="#rim" fill="#404040">
                        <set attributeName="fill" to="#808080" begin="arrowDown.mouseover" end="arrowDown.mouseout"/>
                  </use>
                  <path fill="none" stroke="white" stroke-width="1.5" d="M0,-3.0v7 M-2.5,-0.5L0,-3.0L2.5,-0.5"/>
                </g>
                <g id="arrowLeft" xlink:href="#dirArrow" transform="rotate(270) translate(-36 17)" onmousedown="handlePan(-1,0)">
                  <use xlink:href="#rim" fill="#404040">
                        <set attributeName="fill" to="#808080" begin="arrowLeft.mouseover" end="arrowLeft.mouseout"/>
                  </use>
                  <path fill="none" stroke="white" stroke-width="1.5" d="M0,-3.0v7 M-2.5,-0.5L0,-3.0L2.5,-0.5"/>
                </g>
        </g>
</svg>
