<?xml version="1.0" encoding="UTF-8" standalone="no"?>
<!DOCTYPE svg PUBLIC "-//W3C//DTD SVG 1.1//EN"
 "http://www.w3.org/Graphics/SVG/1.1/DTD/svg11.dtd">
<!-- Generated by graphviz version 2.26.3 (20100126.1600)
 -->
<!-- Title: G Pages: 1 -->
<!--zoomable 499 -->
<svg id="main" version="1.1" xmlns="http://www.w3.org/2000/svg" xmlns:xlink="http://www.w3.org/1999/xlink" xml:space="preserve" onload="init(evt)">
        <defs>
                <circle id="rim" cx="0" cy="0" r="7"/>
                <circle id="rim2" cx="0" cy="0" r="3.5"/>
                <g id="zoomPlus">
                        <use xlink:href="#rim" fill="#404040">
                                <set attributeName="fill" to="#808080" begin="zoomplus.mouseover" end="zoomplus.mouseout"/>
                        </use>
                        <path d="M-4,0h8M0,-4v8" fill="none" stroke="white" stroke-width="1.5" pointer-events="none"/>
                </g>
                <g id="zoomMin">
                        <use xlink:href="#rim" fill="#404040">
                                <set attributeName="fill" to="#808080" begin="zoomminus.mouseover" end="zoomminus.mouseout"/>
                        </use>
                        <path d="M-4,0h8" fill="none" stroke="white" stroke-width="1.5" pointer-events="none"/>
                </g>
                <g id="dirArrow">
                        <path fill="none" stroke="white" stroke-width="1.5" d="M0,-3.0v7 M-2.5,-0.5L0,-3.0L2.5,-0.5"/>
                </g>
               <g id="resetDef">
                       <use xlink:href="#rim2" fill="#404040">
                               <set attributeName="fill" to="#808080" begin="reset.mouseover" end="reset.mouseout"/>
                       </use>
               </g>
        </defs>

<script type="text/javascript">
var viewWidth = 1120;
var viewHeight = 499;
var sectionId = 'dynsection-25';
</script>
<script xlink:href="svgpan.js"/>
<svg id="graph" class="graph">
<g id="viewport">
<title>G</title>
<polygon fill="white" stroke="white" points="-4,5 -4,-495 1117,-495 1117,5 -4,5"/>
<!-- Node1 -->
<g id="node1" class="node"><title>Node1</title>
<polygon fill="#bfbfbf" stroke="black" points="0,-138.5 0,-159.5 104,-159.5 104,-138.5 0,-138.5"/>
<text text-anchor="middle" x="52" y="-146.5" font-family="FreeSans.ttf" font-size="10.00">SocketClient::Recv</text>
</g>
<!-- Node2 -->
<g id="node3" class="node"><title>Node2</title>
<a xlink:href="classSocket.xhtml#a508457b48e6296d1e86c7cc72af65948" target="_top" xlink:title="Return if the Socket is valid for use.">
<polygon fill="white" stroke="black" points="1017,-469.5 1017,-490.5 1095,-490.5 1095,-469.5 1017,-469.5"/>
<text text-anchor="middle" x="1056" y="-477.5" font-family="FreeSans.ttf" font-size="10.00">Socket::Valid</text>
</a>
</g>
<!-- Node1&#45;&gt;Node2 -->
<g id="edge2" class="edge"><title>Node1&#45;&gt;Node2</title>
<path fill="none" stroke="midnightblue" d="M53.3128,-159.522C58.2172,-194.758 78.4566,-310.193 140,-378 208.128,-453.061 242.632,-480 344,-480 344,-480 344,-480 726,-480 825.586,-480 942.077,-480 1006.6,-480"/>
<polygon fill="midnightblue" stroke="midnightblue" points="1006.88,-483.5 1016.88,-480 1006.88,-476.5 1006.88,-483.5"/>
</g>
<!-- Node3 -->
<g id="node5" class="node"><title>Node3</title>
<a xlink:href="classSocket.xhtml#a45d3aa99d71b868921543a4708471f82" target="_top" xlink:title="Returns the file descriptor associated to the Socket.">
<polygon fill="white" stroke="black" points="1000.5,-429.5 1000.5,-450.5 1111.5,-450.5 1111.5,-429.5 1000.5,-429.5"/>
<text text-anchor="middle" x="1056" y="-437.5" font-family="FreeSans.ttf" font-size="10.00">Socket::gDescriptor</text>
</a>
</g>
<!-- Node1&#45;&gt;Node3 -->
<g id="edge4" class="edge"><title>Node1&#45;&gt;Node3</title>
<path fill="none" stroke="midnightblue" d="M56.2588,-159.776C77.9308,-212.637 181.338,-442 344,-442 344,-442 344,-442 726,-442 817.5,-442 923.268,-441.222 989.891,-440.636"/>
<polygon fill="midnightblue" stroke="midnightblue" points="990.271,-444.133 1000.24,-440.544 990.209,-437.133 990.271,-444.133"/>
</g>
<!-- Node4 -->
<g id="node7" class="node"><title>Node4</title>
<a xlink:href="classSocket.xhtml#adc72a37934a4f2d10f6ae8fc94bb4ca7" target="_top" xlink:title="Returns the hostname associated to the Socket.">
<polygon fill="white" stroke="black" points="1000,-272.5 1000,-293.5 1112,-293.5 1112,-272.5 1000,-272.5"/>
<text text-anchor="middle" x="1056" y="-280.5" font-family="FreeSans.ttf" font-size="10.00">Socket::gHostname</text>
</a>
</g>
<!-- Node1&#45;&gt;Node4 -->
<g id="edge6" class="edge"><title>Node1&#45;&gt;Node4</title>
<path fill="none" stroke="midnightblue" d="M104.153,-154.445C162.516,-160.059 259.923,-168 344,-168 344,-168 344,-168 726,-168 845.294,-168 976.012,-235.841 1030.23,-267.311"/>
<polygon fill="midnightblue" stroke="midnightblue" points="1028.46,-270.331 1038.86,-272.387 1032.01,-264.298 1028.46,-270.331"/>
</g>
<!-- Node5 -->
<g id="node9" class="node"><title>Node5</title>
<a xlink:href="classServer.xhtml#a686505fb3a2ee84bdac3f42710341b71" target="_top" xlink:title="Returns the SocketServer associated with the current Server instance.">
<polygon fill="white" stroke="black" points="1009.5,-157.5 1009.5,-178.5 1102.5,-178.5 1102.5,-157.5 1009.5,-157.5"/>
<text text-anchor="middle" x="1056" y="-165.5" font-family="FreeSans.ttf" font-size="10.00">Server::gSocket</text>
</a>
</g>
<!-- Node1&#45;&gt;Node5 -->
<g id="edge8" class="edge"><title>Node1&#45;&gt;Node5</title>
<path fill="none" stroke="midnightblue" d="M104.153,-143.555C162.516,-137.941 259.923,-130 344,-130 344,-130 344,-130 726,-130 822.482,-130 933.796,-146.229 999.351,-157.475"/>
<polygon fill="midnightblue" stroke="midnightblue" points="999.018,-160.97 1009.47,-159.234 1000.22,-154.073 999.018,-160.97"/>
</g>
<!-- Node6 -->
<g id="node11" class="node"><title>Node6</title>
<a xlink:href="classSocket.xhtml#aec278bc5096a3087a7bb6a1ed06d7ddd" target="_top" xlink:title="Increment the total count of bytes received by the socket.">
<polygon fill="white" stroke="black" points="140,-80.5 140,-101.5 256,-101.5 256,-80.5 140,-80.5"/>
<text text-anchor="middle" x="198" y="-88.5" font-family="FreeSans.ttf" font-size="10.00">Socket::aBytesRecvd</text>
</a>
</g>
<!-- Node1&#45;&gt;Node6 -->
<g id="edge10" class="edge"><title>Node1&#45;&gt;Node6</title>
<path fill="none" stroke="midnightblue" d="M78.4395,-138.497C101.756,-129.234 135.95,-115.65 161.804,-105.379"/>
<polygon fill="midnightblue" stroke="midnightblue" points="163.263,-108.566 171.264,-101.621 160.678,-102.06 163.263,-108.566"/>
</g>
<!-- Node7 -->
<g id="node13" class="node"><title>Node7</title>
<a xlink:href="classSocket.xhtml#ad7ac03a288e6ef47a45e6837f7fef002" target="_top" xlink:title="Returns the number of bytes received by the Socket.">
<polygon fill="white" stroke="black" points="140,-40.5 140,-61.5 256,-61.5 256,-40.5 140,-40.5"/>
<text text-anchor="middle" x="198" y="-48.5" font-family="FreeSans.ttf" font-size="10.00">Socket::gBytesRecvd</text>
</a>
</g>
<!-- Node1&#45;&gt;Node7 -->
<g id="edge12" class="edge"><title>Node1&#45;&gt;Node7</title>
<path fill="none" stroke="midnightblue" d="M61.27,-138.457C76.2936,-121.952 107.564,-89.9461 140,-71 143.42,-69.0022 147.071,-67.1629 150.812,-65.478"/>
<polygon fill="midnightblue" stroke="midnightblue" points="152.306,-68.6482 160.222,-61.6059 149.642,-62.1749 152.306,-68.6482"/>
</g>
<!-- Node8 -->
<g id="node15" class="node"><title>Node8</title>
<a xlink:href="classSocketClient.xhtml#a686aea73a8e9c9dbaac6438ec1b24293" target="_top" xlink:title="Set the idle timer value of the socket.">
<polygon fill="white" stroke="black" points="146,-0.5 146,-21.5 250,-21.5 250,-0.5 146,-0.5"/>
<text text-anchor="middle" x="198" y="-8.5" font-family="FreeSans.ttf" font-size="10.00">SocketClient::sIdle</text>
</a>
</g>
<!-- Node1&#45;&gt;Node8 -->
<g id="edge14" class="edge"><title>Node1&#45;&gt;Node8</title>
<path fill="none" stroke="midnightblue" d="M57.2131,-138.171C68.8453,-115.115 99.1446,-60.8532 140,-31 142.499,-29.1737 145.179,-27.5043 147.965,-25.9797"/>
<polygon fill="midnightblue" stroke="midnightblue" points="149.63,-29.0632 157.139,-21.5886 146.608,-22.7492 149.63,-29.0632"/>
</g>
<!-- Node9 -->
<g id="node17" class="node"><title>Node9</title>
<a xlink:href="namespaceTelopt.xhtml#abdb8913fd8eb65e47c6035240d9a291f" target="_top" xlink:title="Processes data received from a SocketClient for telnet sequences.">
<polygon fill="white" stroke="black" points="142,-236.5 142,-257.5 254,-257.5 254,-236.5 142,-236.5"/>
<text text-anchor="middle" x="198" y="-244.5" font-family="FreeSans.ttf" font-size="10.00">Telopt::ProcessInput</text>
</a>
</g>
<!-- Node1&#45;&gt;Node9 -->
<g id="edge16" class="edge"><title>Node1&#45;&gt;Node9</title>
<path fill="none" stroke="midnightblue" d="M67.9025,-159.674C93.354,-176.758 143.424,-210.367 173.481,-230.542"/>
<polygon fill="midnightblue" stroke="midnightblue" points="171.863,-233.672 182.117,-236.339 175.765,-227.86 171.863,-233.672"/>
</g>
<!-- Node10 -->
<g id="node19" class="node"><title>Node10</title>
<a xlink:href="namespaceTelopt.xhtml#acb81c2e75d328c24352dd8ef356b84d8" target="_top" xlink:title="Begins a telnet negotiation handshake for requested options.">
<polygon fill="white" stroke="black" points="292,-275.5 292,-296.5 396,-296.5 396,-275.5 292,-275.5"/>
<text text-anchor="middle" x="344" y="-283.5" font-family="FreeSans.ttf" font-size="10.00">Telopt::Handshake</text>
</a>
</g>
<!-- Node9&#45;&gt;Node10 -->
<g id="edge18" class="edge"><title>Node9&#45;&gt;Node10</title>
<path fill="none" stroke="midnightblue" d="M237.51,-257.554C255.12,-262.258 276.049,-267.849 294.673,-272.824"/>
<polygon fill="midnightblue" stroke="midnightblue" points="293.894,-276.238 304.459,-275.438 295.701,-269.475 293.894,-276.238"/>
</g>
<!-- Node11 -->
<g id="node21" class="node"><title>Node11</title>
<a xlink:href="classSocketClient.xhtml#aa0badca8f614127e98281995c02cb385" target="_top" xlink:title="Returns the connection state of the client from SOC_STATE.">
<polygon fill="white" stroke="black" points="456.5,-314.5 456.5,-335.5 571.5,-335.5 571.5,-314.5 456.5,-314.5"/>
<text text-anchor="middle" x="514" y="-322.5" font-family="FreeSans.ttf" font-size="10.00">SocketClient::gState</text>
</a>
</g>
<!-- Node10&#45;&gt;Node11 -->
<g id="edge20" class="edge"><title>Node10&#45;&gt;Node11</title>
<path fill="none" stroke="midnightblue" d="M390.004,-296.554C410.982,-301.366 436.004,-307.107 458.059,-312.167"/>
<polygon fill="midnightblue" stroke="midnightblue" points="457.429,-315.613 467.959,-314.438 458.995,-308.79 457.429,-315.613"/>
</g>
<!-- Node12 -->
<g id="node23" class="node"><title>Node12</title>
<a xlink:href="namespaceTelopt.xhtml#a71c731d78947d4c909f93df74950b64c" target="_top" xlink:title="Negotiate requested options.">
<polygon fill="white" stroke="black" points="465,-354.5 465,-375.5 563,-375.5 563,-354.5 465,-354.5"/>
<text text-anchor="middle" x="514" y="-362.5" font-family="FreeSans.ttf" font-size="10.00">Telopt::Negotiate</text>
</a>
</g>
<!-- Node10&#45;&gt;Node12 -->
<g id="edge22" class="edge"><title>Node10&#45;&gt;Node12</title>
<path fill="none" stroke="midnightblue" d="M356.569,-296.539C372.929,-309.738 402.879,-332.172 432,-345 439.341,-348.234 447.292,-350.999 455.256,-353.348"/>
<polygon fill="midnightblue" stroke="midnightblue" points="454.368,-356.734 464.938,-356.011 456.224,-349.984 454.368,-356.734"/>
</g>
<!-- Node13 -->
<g id="node25" class="node"><title>Node13</title>
<a xlink:href="classSocketClient.xhtml#aaad671b55573cb36a5d0bcc1e4a518fb" target="_top" xlink:title="Returns a pointer to the terminal information of the SocketClient.">
<polygon fill="white" stroke="black" points="661.5,-272.5 661.5,-293.5 790.5,-293.5 790.5,-272.5 661.5,-272.5"/>
<text text-anchor="middle" x="726" y="-280.5" font-family="FreeSans.ttf" font-size="10.00">SocketClient::gTermInfo</text>
</a>
</g>
<!-- Node10&#45;&gt;Node13 -->
<g id="edge46" class="edge"><title>Node10&#45;&gt;Node13</title>
<path fill="none" stroke="midnightblue" d="M396.315,-285.589C462.18,-285.072 575.785,-284.18 650.912,-283.59"/>
<polygon fill="midnightblue" stroke="midnightblue" points="651.277,-287.087 661.249,-283.509 651.222,-280.087 651.277,-287.087"/>
</g>
<!-- Node16 -->
<g id="node31" class="node"><title>Node16</title>
<a xlink:href="namespaceTelopt.xhtml#a4f56b29258351832660a550c61bda34f" target="_top" xlink:title="Sends a formatted telnet negotiation command to the client.">
<polygon fill="white" stroke="black" points="688.5,-392.5 688.5,-413.5 763.5,-413.5 763.5,-392.5 688.5,-392.5"/>
<text text-anchor="middle" x="726" y="-400.5" font-family="FreeSans.ttf" font-size="10.00">Telopt::Send</text>
</a>
</g>
<!-- Node10&#45;&gt;Node16 -->
<g id="edge52" class="edge"><title>Node10&#45;&gt;Node16</title>
<path fill="none" stroke="midnightblue" d="M349.556,-296.517C361.416,-317.728 391.467,-365.288 432,-385 511.554,-423.69 617.843,-418.31 678.406,-410.753"/>
<polygon fill="midnightblue" stroke="midnightblue" points="678.989,-414.207 688.444,-409.428 678.072,-407.267 678.989,-414.207"/>
</g>
<!-- Node20 -->
<g id="node44" class="node"><title>Node20</title>
<a xlink:href="classSocketClient_1_1TermInfo.xhtml#a05765d3e9e5c8f4d8c94bcea42b74dbe" target="_top" xlink:title="Sets the value of a telnet option.">
<polygon fill="white" stroke="black" points="433,-236.5 433,-257.5 595,-257.5 595,-236.5 433,-236.5"/>
<text text-anchor="middle" x="514" y="-244.5" font-family="FreeSans.ttf" font-size="10.00">SocketClient::TermInfo::sTelopt</text>
</a>
</g>
<!-- Node10&#45;&gt;Node20 -->
<g id="edge48" class="edge"><title>Node10&#45;&gt;Node20</title>
<path fill="none" stroke="midnightblue" d="M390.004,-275.446C410.982,-270.634 436.004,-264.893 458.059,-259.833"/>
<polygon fill="midnightblue" stroke="midnightblue" points="458.995,-263.21 467.959,-257.562 457.429,-256.387 458.995,-263.21"/>
</g>
<!-- Node21 -->
<g id="node46" class="node"><title>Node21</title>
<a xlink:href="classSocketClient_1_1TermInfo.xhtml#a53781b89d3e22a7ceaa68c96b2b14463" target="_top" xlink:title="Returns the value of a telnet option.">
<polygon fill="white" stroke="black" points="432.5,-196.5 432.5,-217.5 595.5,-217.5 595.5,-196.5 432.5,-196.5"/>
<text text-anchor="middle" x="514" y="-204.5" font-family="FreeSans.ttf" font-size="10.00">SocketClient::TermInfo::gTelopt</text>
</a>
</g>
<!-- Node10&#45;&gt;Node21 -->
<g id="edge50" class="edge"><title>Node10&#45;&gt;Node21</title>
<path fill="none" stroke="midnightblue" d="M356.569,-275.461C372.929,-262.262 402.879,-239.828 432,-227 437.412,-224.616 443.156,-222.486 448.992,-220.591"/>
<polygon fill="midnightblue" stroke="midnightblue" points="450.295,-223.854 458.859,-217.617 448.275,-217.151 450.295,-223.854"/>
</g>
<!-- Node12&#45;&gt;Node13 -->
<g id="edge24" class="edge"><title>Node12&#45;&gt;Node13</title>
<path fill="none" stroke="midnightblue" d="M563.246,-358.226C574.55,-355.281 586.135,-351.058 596,-345 616.951,-332.135 610.861,-315.554 632,-303 637.976,-299.451 644.496,-296.528 651.225,-294.12"/>
<polygon fill="midnightblue" stroke="midnightblue" points="652.725,-297.315 661.193,-290.949 650.603,-290.645 652.725,-297.315"/>
</g>
<!-- Node14 -->
<g id="node27" class="node"><title>Node14</title>
<a xlink:href="classSocketClient_1_1TermInfo.xhtml#a58debeabe9fe825bc7abbac06df5b216" target="_top" xlink:title="Returns if a telopt has been previously negotiated.">
<polygon fill="white" stroke="black" points="632,-312.5 632,-333.5 820,-333.5 820,-312.5 632,-312.5"/>
<text text-anchor="middle" x="726" y="-320.5" font-family="FreeSans.ttf" font-size="10.00">SocketClient::TermInfo::gNegotiated</text>
</a>
</g>
<!-- Node12&#45;&gt;Node14 -->
<g id="edge26" class="edge"><title>Node12&#45;&gt;Node14</title>
<path fill="none" stroke="midnightblue" d="M563.17,-355.259C592.75,-349.399 630.713,-341.878 662.541,-335.572"/>
<polygon fill="midnightblue" stroke="midnightblue" points="663.511,-338.948 672.64,-333.571 662.151,-332.081 663.511,-338.948"/>
</g>
<!-- Node15 -->
<g id="node29" class="node"><title>Node15</title>
<a xlink:href="classSocketClient_1_1TermInfo.xhtml#aa576f2ec6f9de8d4160ccee6cbd1dc34" target="_top" xlink:title="Sets if a telopt has been previously negotiated.">
<polygon fill="white" stroke="black" points="632,-352.5 632,-373.5 820,-373.5 820,-352.5 632,-352.5"/>
<text text-anchor="middle" x="726" y="-360.5" font-family="FreeSans.ttf" font-size="10.00">SocketClient::TermInfo::sNegotiated</text>
</a>
</g>
<!-- Node12&#45;&gt;Node15 -->
<g id="edge28" class="edge"><title>Node12&#45;&gt;Node15</title>
<path fill="none" stroke="midnightblue" d="M563.17,-364.536C580.725,-364.371 601.231,-364.177 621.656,-363.984"/>
<polygon fill="midnightblue" stroke="midnightblue" points="621.697,-367.484 631.663,-363.89 621.631,-360.485 621.697,-367.484"/>
</g>
<!-- Node12&#45;&gt;Node16 -->
<g id="edge30" class="edge"><title>Node12&#45;&gt;Node16</title>
<path fill="none" stroke="midnightblue" d="M563.17,-373.813C597.755,-380.013 643.801,-388.266 678.101,-394.414"/>
<polygon fill="midnightblue" stroke="midnightblue" points="677.882,-397.931 688.343,-396.25 679.117,-391.041 677.882,-397.931"/>
</g>
<!-- Node17 -->
<g id="node33" class="node"><title>Node17</title>
<a xlink:href="classSocketClient.xhtml#a6268f3d184970ec0076da657c39d2e80" target="_top" xlink:title="Process data from the client&#39;s send buffer and transmit it via the socket.">
<polygon fill="white" stroke="black" points="856.5,-389.5 856.5,-410.5 963.5,-410.5 963.5,-389.5 856.5,-389.5"/>
<text text-anchor="middle" x="910" y="-397.5" font-family="FreeSans.ttf" font-size="10.00">SocketClient::Send</text>
</a>
</g>
<!-- Node16&#45;&gt;Node17 -->
<g id="edge32" class="edge"><title>Node16&#45;&gt;Node17</title>
<path fill="none" stroke="midnightblue" d="M763.679,-402.386C787.359,-402 818.52,-401.492 845.998,-401.044"/>
<polygon fill="midnightblue" stroke="midnightblue" points="846.384,-404.538 856.326,-400.875 846.27,-397.539 846.384,-404.538"/>
</g>
<!-- Node17&#45;&gt;Node2 -->
<g id="edge34" class="edge"><title>Node17&#45;&gt;Node2</title>
<path fill="none" stroke="midnightblue" d="M923.687,-410.684C940.788,-423.657 971.305,-445.586 1000,-460 1004.05,-462.036 1008.36,-463.962 1012.73,-465.757"/>
<polygon fill="midnightblue" stroke="midnightblue" points="1011.69,-469.107 1022.27,-469.465 1014.22,-462.582 1011.69,-469.107"/>
</g>
<!-- Node17&#45;&gt;Node3 -->
<g id="edge36" class="edge"><title>Node17&#45;&gt;Node3</title>
<path fill="none" stroke="midnightblue" d="M948.36,-410.51C966.562,-415.496 988.505,-421.508 1007.82,-426.799"/>
<polygon fill="midnightblue" stroke="midnightblue" points="1007.07,-430.224 1017.64,-429.491 1008.92,-423.473 1007.07,-430.224"/>
</g>
<!-- Node17&#45;&gt;Node4 -->
<g id="edge38" class="edge"><title>Node17&#45;&gt;Node4</title>
<path fill="none" stroke="midnightblue" d="M923.214,-389.411C948.494,-369.152 1003.91,-324.744 1034.56,-300.184"/>
<polygon fill="midnightblue" stroke="midnightblue" points="1036.88,-302.804 1042.5,-293.819 1032.51,-297.342 1036.88,-302.804"/>
</g>
<!-- Node17&#45;&gt;Node5 -->
<g id="edge40" class="edge"><title>Node17&#45;&gt;Node5</title>
<path fill="none" stroke="midnightblue" d="M916.653,-389.429C939.407,-353.271 1014.35,-234.186 1043.88,-187.255"/>
<polygon fill="midnightblue" stroke="midnightblue" points="1046.94,-188.961 1049.31,-178.634 1041.02,-185.233 1046.94,-188.961"/>
</g>
<!-- Node18 -->
<g id="node39" class="node"><title>Node18</title>
<a xlink:href="classSocket.xhtml#a688f0d2182f7ca098de3f76156efad0a" target="_top" xlink:title="Increment the total count of bytes sent by the socket.">
<polygon fill="white" stroke="black" points="1000.5,-389.5 1000.5,-410.5 1111.5,-410.5 1111.5,-389.5 1000.5,-389.5"/>
<text text-anchor="middle" x="1056" y="-397.5" font-family="FreeSans.ttf" font-size="10.00">Socket::aBytesSent</text>
</a>
</g>
<!-- Node17&#45;&gt;Node18 -->
<g id="edge42" class="edge"><title>Node17&#45;&gt;Node18</title>
<path fill="none" stroke="midnightblue" d="M963.536,-400C972.076,-400 981,-400 989.791,-400"/>
<polygon fill="midnightblue" stroke="midnightblue" points="990.019,-403.5 1000.02,-400 990.019,-396.5 990.019,-403.5"/>
</g>
<!-- Node19 -->
<g id="node41" class="node"><title>Node19</title>
<a xlink:href="classSocket.xhtml#a3bb9f40d6e5f32cfa960a86323322c0c" target="_top" xlink:title="Returns the number of bytes sent by the Socket.">
<polygon fill="white" stroke="black" points="1000.5,-349.5 1000.5,-370.5 1111.5,-370.5 1111.5,-349.5 1000.5,-349.5"/>
<text text-anchor="middle" x="1056" y="-357.5" font-family="FreeSans.ttf" font-size="10.00">Socket::gBytesSent</text>
</a>
</g>
<!-- Node17&#45;&gt;Node19 -->
<g id="edge44" class="edge"><title>Node17&#45;&gt;Node19</title>
<path fill="none" stroke="midnightblue" d="M948.36,-389.49C966.562,-384.504 988.505,-378.492 1007.82,-373.201"/>
<polygon fill="midnightblue" stroke="midnightblue" points="1008.92,-376.527 1017.64,-370.509 1007.07,-369.776 1008.92,-376.527"/>
</g>
</g>
</svg>
        <g id="navigator" transform="translate(0 0)" fill="#404254">
                <rect fill="#f2f5e9" fill-opacity="0.5" stroke="#606060" stroke-width=".5" x="0" y="0" width="60" height="60"/>
                <use id="zoomplus" xlink:href="#zoomPlus" x="17" y="9" onmousedown="handleZoom(evt,'in')"/>
                <use id="zoomminus" xlink:href="#zoomMin" x="42" y="9" onmousedown="handleZoom(evt,'out')"/>
                <use id="reset" xlink:href="#resetDef" x="30" y="36" onmousedown="handleReset()"/>
                <g id="arrowUp" xlink:href="#dirArrow" transform="translate(30 24)" onmousedown="handlePan(0,-1)">
                  <use xlink:href="#rim" fill="#404040">
                        <set attributeName="fill" to="#808080" begin="arrowUp.mouseover" end="arrowUp.mouseout"/>
                  </use>
                  <path fill="none" stroke="white" stroke-width="1.5" d="M0,-3.0v7 M-2.5,-0.5L0,-3.0L2.5,-0.5"/>
                </g>
                <g id="arrowRight" xlink:href="#dirArrow" transform="rotate(90) translate(36 -43)" onmousedown="handlePan(1,0)">
                  <use xlink:href="#rim" fill="#404040">
                        <set attributeName="fill" to="#808080" begin="arrowRight.mouseover" end="arrowRight.mouseout"/>
                  </use>
                  <path fill="none" stroke="white" stroke-width="1.5" d="M0,-3.0v7 M-2.5,-0.5L0,-3.0L2.5,-0.5"/>
                </g>
                <g id="arrowDown" xlink:href="#dirArrow" transform="rotate(180) translate(-30 -48)" onmousedown="handlePan(0,1)">
                  <use xlink:href="#rim" fill="#404040">
                        <set attributeName="fill" to="#808080" begin="arrowDown.mouseover" end="arrowDown.mouseout"/>
                  </use>
                  <path fill="none" stroke="white" stroke-width="1.5" d="M0,-3.0v7 M-2.5,-0.5L0,-3.0L2.5,-0.5"/>
                </g>
                <g id="arrowLeft" xlink:href="#dirArrow" transform="rotate(270) translate(-36 17)" onmousedown="handlePan(-1,0)">
                  <use xlink:href="#rim" fill="#404040">
                        <set attributeName="fill" to="#808080" begin="arrowLeft.mouseover" end="arrowLeft.mouseout"/>
                  </use>
                  <path fill="none" stroke="white" stroke-width="1.5" d="M0,-3.0v7 M-2.5,-0.5L0,-3.0L2.5,-0.5"/>
                </g>
        </g>
</svg>
