<?xml version="1.0" encoding="UTF-8" standalone="no"?>
<!DOCTYPE svg PUBLIC "-//W3C//DTD SVG 1.1//EN"
 "http://www.w3.org/Graphics/SVG/1.1/DTD/svg11.dtd">
<!-- Generated by graphviz version 2.26.3 (20100126.1600)
 -->
<!-- Title: Command Pages: 1 -->
<svg width="612pt" height="256pt"
 viewBox="0.00 0.00 612.00 256.00" xmlns="http://www.w3.org/2000/svg" xmlns:xlink="http://www.w3.org/1999/xlink">
<g id="graph1" class="graph" transform="scale(1 1) rotate(0) translate(4 252)">
<title>Command</title>
<polygon fill="white" stroke="white" points="-4,5 -4,-252 609,-252 609,5 -4,5"/>
<!-- Node1 -->
<g id="node1" class="node"><title>Node1</title>
<polygon fill="#bfbfbf" stroke="black" points="214.5,-1 214.5,-21 281.5,-21 281.5,-1 214.5,-1"/>
<text text-anchor="middle" x="248" y="-8" font-family="FreeSans.ttf" font-size="10.00">Command</text>
</g>
<!-- Node2 -->
<g id="node2" class="node"><title>Node2</title>
<a xlink:href="classPlugin.xhtml" target="_top" xlink:title="Functions that are indepdently built and loaded to extend the server core via an API.">
<polygon fill="white" stroke="black" points="167.5,-72 167.5,-92 212.5,-92 212.5,-72 167.5,-72"/>
<text text-anchor="middle" x="190" y="-79" font-family="FreeSans.ttf" font-size="10.00">Plugin</text>
</a>
</g>
<!-- Node2&#45;&gt;Node1 -->
<g id="edge2" class="edge"><title>Node2&#45;&gt;Node1</title>
<path fill="none" stroke="#9a32cd" stroke-dasharray="5,2" d="M192.121,-61.7139C193.675,-54.3318 196.361,-46.2693 201,-40 206.931,-31.9844 215.8,-25.6953 224.241,-21.0529"/>
<polygon fill="#9a32cd" stroke="#9a32cd" points="188.638,-61.3352 190.559,-71.7544 195.555,-62.4114 188.638,-61.3352"/>
<text text-anchor="middle" x="217.5" y="-43" font-family="FreeSans.ttf" font-size="10.00"> m_plg</text>
</g>
<!-- Node3 -->
<g id="node4" class="node"><title>Node3</title>
<a xlink:title="STL class.">
<polygon fill="white" stroke="#bfbfbf" points="67.5,-155 67.5,-175 132.5,-175 132.5,-155 67.5,-155"/>
<text text-anchor="middle" x="100" y="-162" font-family="FreeSans.ttf" font-size="10.00">std::string</text>
</a>
</g>
<!-- Node3&#45;&gt;Node1 -->
<g id="edge16" class="edge"><title>Node3&#45;&gt;Node1</title>
<path fill="none" stroke="#9a32cd" stroke-dasharray="5,2" d="M95.8497,-145.063C92.7137,-124.309 91.2733,-91.8426 107,-70 131.963,-35.3291 181.296,-20.9318 214.473,-15.0209"/>
<polygon fill="#9a32cd" stroke="#9a32cd" points="92.4179,-145.755 97.615,-154.988 99.3097,-144.529 92.4179,-145.755"/>
<text text-anchor="middle" x="133" y="-79" font-family="FreeSans.ttf" font-size="10.00"> m_plg_file</text>
</g>
<!-- Node3&#45;&gt;Node2 -->
<g id="edge4" class="edge"><title>Node3&#45;&gt;Node2</title>
<path fill="none" stroke="#9a32cd" stroke-dasharray="5,2" d="M110.471,-145.849C117.069,-134.997 126.343,-121.696 137,-112 145.916,-103.889 157.401,-97.0522 167.399,-91.9639"/>
<polygon fill="#9a32cd" stroke="#9a32cd" points="107.384,-144.196 105.395,-154.602 113.439,-147.708 107.384,-144.196"/>
<text text-anchor="middle" x="160" y="-127" font-family="FreeSans.ttf" font-size="10.00"> m_string</text>
<text text-anchor="middle" x="160" y="-115" font-family="FreeSans.ttf" font-size="10.00">m_name</text>
</g>
<!-- Node4 -->
<g id="node6" class="node"><title>Node4</title>
<a xlink:title="STL class.">
<polygon fill="white" stroke="#bfbfbf" points="48.5,-215 48.5,-247 151.5,-247 151.5,-215 48.5,-215"/>
<text text-anchor="start" x="56.5" y="-234" font-family="FreeSans.ttf" font-size="10.00">std::basic_string&lt;</text>
<text text-anchor="middle" x="100" y="-222" font-family="FreeSans.ttf" font-size="10.00"> char &gt;</text>
</a>
</g>
<!-- Node4&#45;&gt;Node3 -->
<g id="edge6" class="edge"><title>Node4&#45;&gt;Node3</title>
<path fill="none" stroke="midnightblue" d="M100,-204.45C100,-194.156 100,-182.991 100,-175.175"/>
<polygon fill="midnightblue" stroke="midnightblue" points="96.5001,-204.685 100,-214.685 103.5,-204.685 96.5001,-204.685"/>
</g>
<!-- Node5 -->
<g id="node8" class="node"><title>Node5</title>
<polygon fill="white" stroke="#bfbfbf" points="-0.5,-155 -0.5,-175 36.5,-175 36.5,-155 -0.5,-155"/>
<text text-anchor="middle" x="18" y="-162" font-family="FreeSans.ttf" font-size="10.00">bool</text>
</g>
<!-- Node5&#45;&gt;Node1 -->
<g id="edge18" class="edge"><title>Node5&#45;&gt;Node1</title>
<path fill="none" stroke="#9a32cd" stroke-dasharray="5,2" d="M15.5571,-144.645C14.1924,-123.545 15.5054,-90.7947 33,-70 56.2362,-42.3806 159.725,-23.6902 214.203,-15.5775"/>
<polygon fill="#9a32cd" stroke="#9a32cd" points="12.085,-145.113 16.474,-154.756 19.0564,-144.481 12.085,-145.113"/>
<text text-anchor="middle" x="63" y="-85" font-family="FreeSans.ttf" font-size="10.00"> m_preempt</text>
<text text-anchor="middle" x="63" y="-73" font-family="FreeSans.ttf" font-size="10.00">m_disabled</text>
</g>
<!-- Node5&#45;&gt;Node2 -->
<g id="edge8" class="edge"><title>Node5&#45;&gt;Node2</title>
<path fill="none" stroke="#9a32cd" stroke-dasharray="5,2" d="M33.0271,-147.014C43.6343,-135.419 58.7967,-120.896 75,-112 75,-112 133.765,-96.67 167.28,-87.927"/>
<polygon fill="#9a32cd" stroke="#9a32cd" points="30.1384,-144.999 26.1588,-154.818 35.393,-149.624 30.1384,-144.999"/>
<text text-anchor="middle" x="94.5" y="-121" font-family="FreeSans.ttf" font-size="10.00"> m_bool</text>
</g>
<!-- Node6 -->
<g id="node10" class="node"><title>Node6</title>
<polygon fill="white" stroke="#bfbfbf" points="285.5,-155 285.5,-175 360.5,-175 360.5,-155 285.5,-155"/>
<text text-anchor="middle" x="323" y="-162" font-family="FreeSans.ttf" font-size="10.00">unsigned int</text>
</g>
<!-- Node6&#45;&gt;Node1 -->
<g id="edge20" class="edge"><title>Node6&#45;&gt;Node1</title>
<path fill="none" stroke="#9a32cd" stroke-dasharray="5,2" d="M327.252,-145.056C330.491,-125.004 332.647,-93.7434 321,-70 310.02,-47.6162 286.089,-30.9136 268.61,-21.0968"/>
<polygon fill="#9a32cd" stroke="#9a32cd" points="323.805,-144.453 325.422,-154.924 330.687,-145.73 323.805,-144.453"/>
<text text-anchor="middle" x="357" y="-79" font-family="FreeSans.ttf" font-size="10.00"> m_security</text>
</g>
<!-- Node6&#45;&gt;Node2 -->
<g id="edge10" class="edge"><title>Node6&#45;&gt;Node2</title>
<path fill="none" stroke="#9a32cd" stroke-dasharray="5,2" d="M298.623,-149.498C281.886,-138.884 259.142,-124.519 239,-112 228.326,-105.365 216.289,-97.9942 206.816,-92.2188"/>
<polygon fill="#9a32cd" stroke="#9a32cd" points="296.93,-152.569 307.248,-154.973 300.681,-146.659 296.93,-152.569"/>
<text text-anchor="middle" x="294.5" y="-127" font-family="FreeSans.ttf" font-size="10.00"> m_uint</text>
<text text-anchor="middle" x="294.5" y="-115" font-family="FreeSans.ttf" font-size="10.00">m_type</text>
</g>
<!-- Node7 -->
<g id="node12" class="node"><title>Node7</title>
<polygon fill="white" stroke="#bfbfbf" points="196,-155 196,-175 240,-175 240,-155 196,-155"/>
<text text-anchor="middle" x="218" y="-162" font-family="FreeSans.ttf" font-size="10.00">void *</text>
</g>
<!-- Node7&#45;&gt;Node1 -->
<g id="edge24" class="edge"><title>Node7&#45;&gt;Node1</title>
<path fill="none" stroke="#9a32cd" stroke-dasharray="5,2" d="M230.717,-145.883C232.395,-142.688 233.909,-139.327 235,-136 248.463,-94.9509 248.877,-42.6239 248.374,-21.0203"/>
<polygon fill="#9a32cd" stroke="#9a32cd" points="227.534,-144.389 225.448,-154.777 233.557,-147.957 227.534,-144.389"/>
<text text-anchor="middle" x="282" y="-79" font-family="FreeSans.ttf" font-size="10.00"> m_plg_handle</text>
</g>
<!-- Node7&#45;&gt;Node2 -->
<g id="edge12" class="edge"><title>Node7&#45;&gt;Node2</title>
<path fill="none" stroke="#9a32cd" stroke-dasharray="5,2" d="M198.019,-147.44C195.172,-143.95 192.653,-140.09 191,-136 185.238,-121.743 186.448,-103.591 188.062,-92.3858"/>
<polygon fill="#9a32cd" stroke="#9a32cd" points="195.597,-149.972 205.006,-154.842 200.687,-145.167 195.597,-149.972"/>
<text text-anchor="middle" x="213" y="-121" font-family="FreeSans.ttf" font-size="10.00"> m_caller</text>
</g>
<!-- Node8 -->
<g id="node14" class="node"><title>Node8</title>
<polygon fill="white" stroke="#bfbfbf" points="427.5,-72 427.5,-92 512.5,-92 512.5,-72 427.5,-72"/>
<text text-anchor="middle" x="470" y="-79" font-family="FreeSans.ttf" font-size="10.00">PluginDelete *</text>
</g>
<!-- Node8&#45;&gt;Node1 -->
<g id="edge14" class="edge"><title>Node8&#45;&gt;Node1</title>
<path fill="none" stroke="#9a32cd" stroke-dasharray="5,2" d="M438.856,-67.7161C418.892,-58.9265 392.263,-47.8757 368,-40 339.358,-30.7029 306.009,-22.8757 281.748,-17.7053"/>
<polygon fill="#9a32cd" stroke="#9a32cd" points="437.523,-70.9536 448.081,-71.8255 440.371,-64.5592 437.523,-70.9536"/>
<text text-anchor="middle" x="433" y="-43" font-family="FreeSans.ttf" font-size="10.00"> m_plg_delete</text>
</g>
<!-- Node9 -->
<g id="node19" class="node"><title>Node9</title>
<polygon fill="white" stroke="#bfbfbf" points="530,-72 530,-92 604,-92 604,-72 530,-72"/>
<text text-anchor="middle" x="567" y="-79" font-family="FreeSans.ttf" font-size="10.00">PluginNew *</text>
</g>
<!-- Node9&#45;&gt;Node1 -->
<g id="edge22" class="edge"><title>Node9&#45;&gt;Node1</title>
<path fill="none" stroke="#9a32cd" stroke-dasharray="5,2" d="M539.312,-67.3809C520.537,-58.1017 494.883,-46.632 471,-40 405.545,-21.8238 326.047,-14.9586 281.835,-12.4255"/>
<polygon fill="#9a32cd" stroke="#9a32cd" points="537.952,-70.6154 548.457,-71.9965 541.106,-64.3662 537.952,-70.6154"/>
<text text-anchor="middle" x="531.5" y="-43" font-family="FreeSans.ttf" font-size="10.00"> m_plg_new</text>
</g>
</g>
</svg>
