<?xml version="1.0" encoding="UTF-8" standalone="no"?>
<!DOCTYPE svg PUBLIC "-//W3C//DTD SVG 1.1//EN"
 "http://www.w3.org/Graphics/SVG/1.1/DTD/svg11.dtd">
<!-- Generated by graphviz version 2.26.3 (20100126.1600)
 -->
<!-- Title: G Pages: 1 -->
<!--zoomable 110 -->
<svg id="main" version="1.1" xmlns="http://www.w3.org/2000/svg" xmlns:xlink="http://www.w3.org/1999/xlink" xml:space="preserve" onload="init(evt)">
        <defs>
                <circle id="rim" cx="0" cy="0" r="7"/>
                <circle id="rim2" cx="0" cy="0" r="3.5"/>
                <g id="zoomPlus">
                        <use xlink:href="#rim" fill="#404040">
                                <set attributeName="fill" to="#808080" begin="zoomplus.mouseover" end="zoomplus.mouseout"/>
                        </use>
                        <path d="M-4,0h8M0,-4v8" fill="none" stroke="white" stroke-width="1.5" pointer-events="none"/>
                </g>
                <g id="zoomMin">
                        <use xlink:href="#rim" fill="#404040">
                                <set attributeName="fill" to="#808080" begin="zoomminus.mouseover" end="zoomminus.mouseout"/>
                        </use>
                        <path d="M-4,0h8" fill="none" stroke="white" stroke-width="1.5" pointer-events="none"/>
                </g>
                <g id="dirArrow">
                        <path fill="none" stroke="white" stroke-width="1.5" d="M0,-3.0v7 M-2.5,-0.5L0,-3.0L2.5,-0.5"/>
                </g>
               <g id="resetDef">
                       <use xlink:href="#rim2" fill="#404040">
                               <set attributeName="fill" to="#808080" begin="reset.mouseover" end="reset.mouseout"/>
                       </use>
               </g>
        </defs>

<script type="text/javascript">
var viewWidth = 1140;
var viewHeight = 110;
var sectionId = 'dynsection-3';
</script>
<script xlink:href="svgpan.js"/>
<svg id="graph" class="graph">
<g id="viewport">
<title>G</title>
<polygon fill="white" stroke="white" points="-4,5 -4,-106 1137,-106 1137,5 -4,5"/>
<!-- Node1 -->
<g id="node1" class="node"><title>Node1</title>
<polygon fill="#bfbfbf" stroke="black" points="0,-40.5 0,-61.5 86,-61.5 86,-40.5 0,-40.5"/>
<text text-anchor="middle" x="43" y="-48.5" font-family="FreeSans.ttf" font-size="10.00">Plugin::gName</text>
</g>
<!-- Node2 -->
<g id="node3" class="node"><title>Node2</title>
<a xlink:href="classCommand.xhtml#a7e591e2b82f59fd73d9b25daaa192021" target="_top" xlink:title="Return the name of the associated Plugin object.">
<polygon fill="white" stroke="black" points="122,-40.5 122,-61.5 230,-61.5 230,-40.5 122,-40.5"/>
<text text-anchor="middle" x="176" y="-48.5" font-family="FreeSans.ttf" font-size="10.00">Command::gName</text>
</a>
</g>
<!-- Node1&#45;&gt;Node2 -->
<g id="edge2" class="edge"><title>Node1&#45;&gt;Node2</title>
<path fill="none" stroke="midnightblue" d="M96.2707,-51C104.694,-51 113.412,-51 121.854,-51"/>
<polygon fill="midnightblue" stroke="midnightblue" points="96.1813,-47.5001 86.1813,-51 96.1813,-54.5001 96.1813,-47.5001"/>
</g>
<!-- Node3 -->
<g id="node5" class="node"><title>Node3</title>
<a xlink:href="classCommand.xhtml#a6b8eed27f76619d07effd72372a4be48" target="_top" xlink:title="Load a plugin command from CFG_DAT_DIR_OBJ.">
<polygon fill="white" stroke="black" points="281.5,-60.5 281.5,-81.5 374.5,-81.5 374.5,-60.5 281.5,-60.5"/>
<text text-anchor="middle" x="328" y="-68.5" font-family="FreeSans.ttf" font-size="10.00">Command::New</text>
</a>
</g>
<!-- Node2&#45;&gt;Node3 -->
<g id="edge4" class="edge"><title>Node2&#45;&gt;Node3</title>
<path fill="none" stroke="midnightblue" d="M239.968,-59.4168C253.803,-61.2372 268.184,-63.1294 281.213,-64.8438"/>
<polygon fill="midnightblue" stroke="midnightblue" points="240.389,-55.9421 230.017,-58.1076 239.475,-62.8823 240.389,-55.9421"/>
</g>
<!-- Node11 -->
<g id="node22" class="node"><title>Node11</title>
<a xlink:href="classServer.xhtml#acf928ad938e32e6342c0cdd278e793bc" target="_top" xlink:title="Server::FindCommand">
<polygon fill="white" stroke="black" points="266.5,-20.5 266.5,-41.5 389.5,-41.5 389.5,-20.5 266.5,-20.5"/>
<text text-anchor="middle" x="328" y="-28.5" font-family="FreeSans.ttf" font-size="10.00">Server::FindCommand</text>
</a>
</g>
<!-- Node2&#45;&gt;Node11 -->
<g id="edge22" class="edge"><title>Node2&#45;&gt;Node11</title>
<path fill="none" stroke="midnightblue" d="M240.108,-42.5648C248.811,-41.4197 257.727,-40.2465 266.385,-39.1073"/>
<polygon fill="midnightblue" stroke="midnightblue" points="239.475,-39.1177 230.017,-43.8924 240.389,-46.0579 239.475,-39.1177"/>
</g>
<!-- Node4 -->
<g id="node7" class="node"><title>Node4</title>
<a xlink:href="classServer.xhtml#ac2e1d14caee54a38a89c2394abe6e5a5" target="_top" xlink:title="Search all subfolders of CFG_DAT_DIR_COMMAND and call Command::New() to load each file found to memor...">
<polygon fill="white" stroke="black" points="427.5,-80.5 427.5,-101.5 560.5,-101.5 560.5,-80.5 427.5,-80.5"/>
<text text-anchor="middle" x="494" y="-88.5" font-family="FreeSans.ttf" font-size="10.00">Server::LoadCommands</text>
</a>
</g>
<!-- Node3&#45;&gt;Node4 -->
<g id="edge6" class="edge"><title>Node3&#45;&gt;Node4</title>
<path fill="none" stroke="midnightblue" d="M384.876,-77.8526C398.511,-79.4953 413.193,-81.2642 427.231,-82.9555"/>
<polygon fill="midnightblue" stroke="midnightblue" points="385.029,-74.3457 374.682,-76.6243 384.192,-81.2955 385.029,-74.3457"/>
</g>
<!-- Node7 -->
<g id="node13" class="node"><title>Node7</title>
<a xlink:href="classServer.xhtml#a4073e768d93ce18c25cb5996f4cd3729" target="_top" xlink:title="Reloads a Command Plugin.">
<polygon fill="white" stroke="black" points="426,-40.5 426,-61.5 562,-61.5 562,-40.5 426,-40.5"/>
<text text-anchor="middle" x="494" y="-48.5" font-family="FreeSans.ttf" font-size="10.00">Server::ReloadCommand</text>
</a>
</g>
<!-- Node3&#45;&gt;Node7 -->
<g id="edge12" class="edge"><title>Node3&#45;&gt;Node7</title>
<path fill="none" stroke="midnightblue" d="M384.631,-64.177C397.933,-62.5744 412.243,-60.8503 425.986,-59.1945"/>
<polygon fill="midnightblue" stroke="midnightblue" points="384.192,-60.7045 374.682,-65.3757 385.029,-67.6543 384.192,-60.7045"/>
</g>
<!-- Node5 -->
<g id="node9" class="node"><title>Node5</title>
<a xlink:href="classServer.xhtml#a19a1e493e1fb50a56d9c77332543d565" target="_top" xlink:title="Start the NAMS Server. Responsible for calling all critical boot&#45;time functions such as SocketServer ...">
<polygon fill="white" stroke="black" points="964,-80.5 964,-101.5 1054,-101.5 1054,-80.5 964,-80.5"/>
<text text-anchor="middle" x="1009" y="-88.5" font-family="FreeSans.ttf" font-size="10.00">Server::Startup</text>
</a>
</g>
<!-- Node4&#45;&gt;Node5 -->
<g id="edge8" class="edge"><title>Node4&#45;&gt;Node5</title>
<path fill="none" stroke="midnightblue" d="M570.801,-91C679.745,-91 875.699,-91 963.86,-91"/>
<polygon fill="midnightblue" stroke="midnightblue" points="570.536,-87.5001 560.536,-91 570.536,-94.5001 570.536,-87.5001"/>
</g>
<!-- Node6 -->
<g id="node11" class="node"><title>Node6</title>
<a xlink:href="main_8cpp.xhtml#ad53223b8779f25caeddb70a3b9172967" target="_top" xlink:title="The default function required to execute the server.">
<polygon fill="white" stroke="black" points="1090.5,-60.5 1090.5,-81.5 1131.5,-81.5 1131.5,-60.5 1090.5,-60.5"/>
<text text-anchor="middle" x="1111" y="-68.5" font-family="FreeSans.ttf" font-size="10.00">main</text>
</a>
</g>
<!-- Node5&#45;&gt;Node6 -->
<g id="edge10" class="edge"><title>Node5&#45;&gt;Node6</title>
<path fill="none" stroke="midnightblue" d="M1063.9,-80.2345C1073.36,-78.3795 1082.64,-76.56 1090.43,-75.033"/>
<polygon fill="midnightblue" stroke="midnightblue" points="1063.18,-76.8107 1054.04,-82.1695 1064.52,-83.6799 1063.18,-76.8107"/>
</g>
<!-- Node8 -->
<g id="node15" class="node"><title>Node8</title>
<a xlink:href="classEvent.xhtml#ae00620af2a424d3d0041676e76b9303c" target="_top" xlink:title="Execute the function stored within the Event object.">
<polygon fill="white" stroke="black" points="649.5,-40.5 649.5,-61.5 716.5,-61.5 716.5,-40.5 649.5,-40.5"/>
<text text-anchor="middle" x="683" y="-48.5" font-family="FreeSans.ttf" font-size="10.00">Event::Run</text>
</a>
</g>
<!-- Node7&#45;&gt;Node8 -->
<g id="edge14" class="edge"><title>Node7&#45;&gt;Node8</title>
<path fill="none" stroke="midnightblue" d="M572.42,-51C599.275,-51 627.916,-51 649.32,-51"/>
<polygon fill="midnightblue" stroke="midnightblue" points="572.233,-47.5001 562.233,-51 572.233,-54.5001 572.233,-47.5001"/>
</g>
<!-- Node9 -->
<g id="node17" class="node"><title>Node9</title>
<a xlink:href="classServer.xhtml#a266931bde9b1955346955140986d2b00" target="_top" xlink:title="Process any scheduled events tied to the Server.">
<polygon fill="white" stroke="black" points="804,-40.5 804,-61.5 928,-61.5 928,-40.5 804,-40.5"/>
<text text-anchor="middle" x="866" y="-48.5" font-family="FreeSans.ttf" font-size="10.00">Server::ProcessEvents</text>
</a>
</g>
<!-- Node8&#45;&gt;Node9 -->
<g id="edge16" class="edge"><title>Node8&#45;&gt;Node9</title>
<path fill="none" stroke="midnightblue" d="M726.728,-51C749.777,-51 778.447,-51 803.773,-51"/>
<polygon fill="midnightblue" stroke="midnightblue" points="726.565,-47.5001 716.565,-51 726.565,-54.5001 726.565,-47.5001"/>
</g>
<!-- Node10 -->
<g id="node19" class="node"><title>Node10</title>
<a xlink:href="classServer.xhtml#a50b81aa91d8fdaee6f52c5c5ec987990" target="_top" xlink:title="The core update loop of NAMS. This loop spawns all other subsystem update routines and then sleeps fo...">
<polygon fill="white" stroke="black" points="964.5,-40.5 964.5,-61.5 1053.5,-61.5 1053.5,-40.5 964.5,-40.5"/>
<text text-anchor="middle" x="1009" y="-48.5" font-family="FreeSans.ttf" font-size="10.00">Server::Update</text>
</a>
</g>
<!-- Node9&#45;&gt;Node10 -->
<g id="edge18" class="edge"><title>Node9&#45;&gt;Node10</title>
<path fill="none" stroke="midnightblue" d="M938.52,-51C947.239,-51 955.937,-51 964.097,-51"/>
<polygon fill="midnightblue" stroke="midnightblue" points="938.306,-47.5001 928.306,-51 938.306,-54.5001 938.306,-47.5001"/>
</g>
<!-- Node10&#45;&gt;Node6 -->
<g id="edge20" class="edge"><title>Node10&#45;&gt;Node6</title>
<path fill="none" stroke="midnightblue" d="M1063.64,-61.7141C1073.14,-63.5764 1082.47,-65.4054 1090.3,-66.9412"/>
<polygon fill="midnightblue" stroke="midnightblue" points="1064.23,-58.2619 1053.74,-59.7723 1062.88,-65.1311 1064.23,-58.2619"/>
</g>
<!-- Node11&#45;&gt;Node7 -->
<g id="edge32" class="edge"><title>Node11&#45;&gt;Node7</title>
<path fill="none" stroke="midnightblue" d="M399.81,-39.6518C408.41,-40.688 417.174,-41.7438 425.722,-42.7737"/>
<polygon fill="midnightblue" stroke="midnightblue" points="400.159,-36.1686 389.812,-38.4473 399.322,-43.1184 400.159,-36.1686"/>
</g>
<!-- Node12 -->
<g id="node24" class="node"><title>Node12</title>
<a xlink:href="classServer.xhtml#af7c4b4e6fe763a8f07984365af7640f7" target="_top" xlink:title="Handle SocketClient objects who have not fully logged into the game yet.">
<polygon fill="white" stroke="black" points="435.5,-0.5 435.5,-21.5 552.5,-21.5 552.5,-0.5 435.5,-0.5"/>
<text text-anchor="middle" x="494" y="-8.5" font-family="FreeSans.ttf" font-size="10.00">Server::ProcessLogin</text>
</a>
</g>
<!-- Node11&#45;&gt;Node12 -->
<g id="edge24" class="edge"><title>Node11&#45;&gt;Node12</title>
<path fill="none" stroke="midnightblue" d="M400.089,-22.3146C411.898,-20.8918 424.008,-19.4328 435.438,-18.0556"/>
<polygon fill="midnightblue" stroke="midnightblue" points="399.322,-18.8816 389.812,-23.5527 400.159,-25.8314 399.322,-18.8816"/>
</g>
<!-- Node13 -->
<g id="node26" class="node"><title>Node13</title>
<a xlink:href="classSocketClient.xhtml#ad4f63c7d906310dc56a1217136047d7f" target="_top" xlink:title="Interpret the command at the front of the queue.">
<polygon fill="white" stroke="black" points="598,-0.5 598,-21.5 768,-21.5 768,-0.5 598,-0.5"/>
<text text-anchor="middle" x="683" y="-8.5" font-family="FreeSans.ttf" font-size="10.00">SocketClient::ProcessCommand</text>
</a>
</g>
<!-- Node12&#45;&gt;Node13 -->
<g id="edge26" class="edge"><title>Node12&#45;&gt;Node13</title>
<path fill="none" stroke="midnightblue" d="M562.761,-11C574.114,-11 586.004,-11 597.703,-11"/>
<polygon fill="midnightblue" stroke="midnightblue" points="562.506,-7.5001 552.506,-11 562.506,-14.5001 562.506,-7.5001"/>
</g>
<!-- Node14 -->
<g id="node28" class="node"><title>Node14</title>
<a xlink:href="classServer.xhtml#a2b4cec469bb99c2a45e49de5ba74d1ae" target="_top" xlink:title="Processes input from all active SocketClient objects.">
<polygon fill="white" stroke="black" points="808,-0.5 808,-21.5 924,-21.5 924,-0.5 808,-0.5"/>
<text text-anchor="middle" x="866" y="-8.5" font-family="FreeSans.ttf" font-size="10.00">Server::ProcessInput</text>
</a>
</g>
<!-- Node13&#45;&gt;Node14 -->
<g id="edge28" class="edge"><title>Node13&#45;&gt;Node14</title>
<path fill="none" stroke="midnightblue" d="M778.168,-11C788.264,-11 798.3,-11 807.783,-11"/>
<polygon fill="midnightblue" stroke="midnightblue" points="778.071,-7.5001 768.071,-11 778.071,-14.5001 778.071,-7.5001"/>
</g>
<!-- Node14&#45;&gt;Node10 -->
<g id="edge30" class="edge"><title>Node14&#45;&gt;Node10</title>
<path fill="none" stroke="midnightblue" d="M913.416,-24.2632C932.19,-29.5148 953.473,-35.4681 971.183,-40.4218"/>
<polygon fill="midnightblue" stroke="midnightblue" points="914.145,-20.8328 903.572,-21.5095 912.259,-27.574 914.145,-20.8328"/>
</g>
</g>
</svg>
        <g id="navigator" transform="translate(0 0)" fill="#404254">
                <rect fill="#f2f5e9" fill-opacity="0.5" stroke="#606060" stroke-width=".5" x="0" y="0" width="60" height="60"/>
                <use id="zoomplus" xlink:href="#zoomPlus" x="17" y="9" onmousedown="handleZoom(evt,'in')"/>
                <use id="zoomminus" xlink:href="#zoomMin" x="42" y="9" onmousedown="handleZoom(evt,'out')"/>
                <use id="reset" xlink:href="#resetDef" x="30" y="36" onmousedown="handleReset()"/>
                <g id="arrowUp" xlink:href="#dirArrow" transform="translate(30 24)" onmousedown="handlePan(0,-1)">
                  <use xlink:href="#rim" fill="#404040">
                        <set attributeName="fill" to="#808080" begin="arrowUp.mouseover" end="arrowUp.mouseout"/>
                  </use>
                  <path fill="none" stroke="white" stroke-width="1.5" d="M0,-3.0v7 M-2.5,-0.5L0,-3.0L2.5,-0.5"/>
                </g>
                <g id="arrowRight" xlink:href="#dirArrow" transform="rotate(90) translate(36 -43)" onmousedown="handlePan(1,0)">
                  <use xlink:href="#rim" fill="#404040">
                        <set attributeName="fill" to="#808080" begin="arrowRight.mouseover" end="arrowRight.mouseout"/>
                  </use>
                  <path fill="none" stroke="white" stroke-width="1.5" d="M0,-3.0v7 M-2.5,-0.5L0,-3.0L2.5,-0.5"/>
                </g>
                <g id="arrowDown" xlink:href="#dirArrow" transform="rotate(180) translate(-30 -48)" onmousedown="handlePan(0,1)">
                  <use xlink:href="#rim" fill="#404040">
                        <set attributeName="fill" to="#808080" begin="arrowDown.mouseover" end="arrowDown.mouseout"/>
                  </use>
                  <path fill="none" stroke="white" stroke-width="1.5" d="M0,-3.0v7 M-2.5,-0.5L0,-3.0L2.5,-0.5"/>
                </g>
                <g id="arrowLeft" xlink:href="#dirArrow" transform="rotate(270) translate(-36 17)" onmousedown="handlePan(-1,0)">
                  <use xlink:href="#rim" fill="#404040">
                        <set attributeName="fill" to="#808080" begin="arrowLeft.mouseover" end="arrowLeft.mouseout"/>
                  </use>
                  <path fill="none" stroke="white" stroke-width="1.5" d="M0,-3.0v7 M-2.5,-0.5L0,-3.0L2.5,-0.5"/>
                </g>
        </g>
</svg>
