<?xml version="1.0" encoding="UTF-8" standalone="no"?>
<!DOCTYPE svg PUBLIC "-//W3C//DTD SVG 1.1//EN"
 "http://www.w3.org/Graphics/SVG/1.1/DTD/svg11.dtd">
<!-- Generated by graphviz version 2.26.3 (20100126.1600)
 -->
<!-- Title: G Pages: 1 -->
<!--zoomable 606 -->
<svg id="main" version="1.1" xmlns="http://www.w3.org/2000/svg" xmlns:xlink="http://www.w3.org/1999/xlink" xml:space="preserve" onload="init(evt)">
        <defs>
                <circle id="rim" cx="0" cy="0" r="7"/>
                <circle id="rim2" cx="0" cy="0" r="3.5"/>
                <g id="zoomPlus">
                        <use xlink:href="#rim" fill="#404040">
                                <set attributeName="fill" to="#808080" begin="zoomplus.mouseover" end="zoomplus.mouseout"/>
                        </use>
                        <path d="M-4,0h8M0,-4v8" fill="none" stroke="white" stroke-width="1.5" pointer-events="none"/>
                </g>
                <g id="zoomMin">
                        <use xlink:href="#rim" fill="#404040">
                                <set attributeName="fill" to="#808080" begin="zoomminus.mouseover" end="zoomminus.mouseout"/>
                        </use>
                        <path d="M-4,0h8" fill="none" stroke="white" stroke-width="1.5" pointer-events="none"/>
                </g>
                <g id="dirArrow">
                        <path fill="none" stroke="white" stroke-width="1.5" d="M0,-3.0v7 M-2.5,-0.5L0,-3.0L2.5,-0.5"/>
                </g>
               <g id="resetDef">
                       <use xlink:href="#rim2" fill="#404040">
                               <set attributeName="fill" to="#808080" begin="reset.mouseover" end="reset.mouseout"/>
                       </use>
               </g>
        </defs>

<script type="text/javascript">
var viewWidth = 680;
var viewHeight = 606;
var sectionId = 'dynsection-15';
</script>
<script xlink:href="svgpan.js"/>
<svg id="graph" class="graph">
<g id="viewport">
<title>G</title>
<polygon fill="white" stroke="white" points="-4,5 -4,-601.731 677,-601.731 677,5 -4,5"/>
<!-- Node1 -->
<g id="node1" class="node"><title>Node1</title>
<polygon fill="#bfbfbf" stroke="black" points="0,-278.5 0,-299.5 116,-299.5 116,-278.5 0,-278.5"/>
<text text-anchor="middle" x="58" y="-286.5" font-family="FreeSans.ttf" font-size="10.00">Server::ProcessInput</text>
</g>
<!-- Node2 -->
<g id="node3" class="node"><title>Node2</title>
<a xlink:href="classSocket.xhtml#a45d3aa99d71b868921543a4708471f82" target="_top" xlink:title="Returns the file descriptor associated to the Socket.">
<polygon fill="white" stroke="black" points="560.5,-472.5 560.5,-493.5 671.5,-493.5 671.5,-472.5 560.5,-472.5"/>
<text text-anchor="middle" x="616" y="-480.5" font-family="FreeSans.ttf" font-size="10.00">Socket::gDescriptor</text>
</a>
</g>
<!-- Node1&#45;&gt;Node2 -->
<g id="edge2" class="edge"><title>Node1&#45;&gt;Node2</title>
<path fill="none" stroke="midnightblue" d="M59.6671,-299.57C65.6178,-333.873 88.9271,-443.311 152,-503 223.71,-570.863 262.854,-563.384 360,-581 431.719,-594.005 457.108,-609.953 524,-581 560.893,-565.032 589.793,-526.178 604.752,-502.47"/>
<polygon fill="midnightblue" stroke="midnightblue" points="607.92,-503.995 610.125,-493.632 601.939,-500.359 607.92,-503.995"/>
</g>
<!-- Node3 -->
<g id="node5" class="node"><title>Node3</title>
<a xlink:href="classSocketClient.xhtml#af09328648d18ae943c8866cf744e5aad" target="_top" xlink:title="Unload a client&#39;s socket from memory that was previously loaded via SocketClient::New().">
<polygon fill="white" stroke="black" points="181,-120.5 181,-141.5 295,-141.5 295,-120.5 181,-120.5"/>
<text text-anchor="middle" x="238" y="-128.5" font-family="FreeSans.ttf" font-size="10.00">SocketClient::Delete</text>
</a>
</g>
<!-- Node1&#45;&gt;Node3 -->
<g id="edge4" class="edge"><title>Node1&#45;&gt;Node3</title>
<path fill="none" stroke="midnightblue" d="M70.0898,-278.388C100.575,-251.628 180.812,-181.198 218.244,-148.341"/>
<polygon fill="midnightblue" stroke="midnightblue" points="220.756,-150.793 225.963,-141.566 216.138,-145.532 220.756,-150.793"/>
</g>
<!-- Node9 -->
<g id="node17" class="node"><title>Node9</title>
<a xlink:href="classSocketClient.xhtml#a92fea2bf7e0f20578404ce1abb835a0b" target="_top" xlink:title="Process data from the client&#39;s receive buffer and split it into commands to queue as necessary...">
<polygon fill="white" stroke="black" points="166,-472.5 166,-493.5 310,-493.5 310,-472.5 166,-472.5"/>
<text text-anchor="middle" x="238" y="-480.5" font-family="FreeSans.ttf" font-size="10.00">SocketClient::ProcessInput</text>
</a>
</g>
<!-- Node1&#45;&gt;Node9 -->
<g id="edge16" class="edge"><title>Node1&#45;&gt;Node9</title>
<path fill="none" stroke="midnightblue" d="M67.934,-299.707C97.3071,-331.364 183.997,-424.797 220.975,-464.651"/>
<polygon fill="midnightblue" stroke="midnightblue" points="218.507,-467.137 227.875,-472.087 223.639,-462.376 218.507,-467.137"/>
</g>
<!-- Node12 -->
<g id="node27" class="node"><title>Node12</title>
<a xlink:href="classSocketClient.xhtml#aa46590f5ac09115d9888fdb7c600ef1d" target="_top" xlink:title="Tests if there are any commands in the queue to be processed.">
<polygon fill="white" stroke="black" points="152.5,-80.5 152.5,-101.5 323.5,-101.5 323.5,-80.5 152.5,-80.5"/>
<text text-anchor="middle" x="238" y="-88.5" font-family="FreeSans.ttf" font-size="10.00">SocketClient::PendingCommand</text>
</a>
</g>
<!-- Node1&#45;&gt;Node12 -->
<g id="edge30" class="edge"><title>Node1&#45;&gt;Node12</title>
<path fill="none" stroke="midnightblue" d="M60.3843,-278.164C67.8578,-246.88 93.8756,-155.805 152,-111 154.333,-109.201 156.801,-107.56 159.37,-106.063"/>
<polygon fill="midnightblue" stroke="midnightblue" points="161.078,-109.121 168.444,-101.506 157.937,-102.866 161.078,-109.121"/>
</g>
<!-- Node13 -->
<g id="node29" class="node"><title>Node13</title>
<a xlink:href="classSocketClient.xhtml#ad4f63c7d906310dc56a1217136047d7f" target="_top" xlink:title="Interpret the command at the front of the queue.">
<polygon fill="white" stroke="black" points="153,-278.5 153,-299.5 323,-299.5 323,-278.5 153,-278.5"/>
<text text-anchor="middle" x="238" y="-286.5" font-family="FreeSans.ttf" font-size="10.00">SocketClient::ProcessCommand</text>
</a>
</g>
<!-- Node1&#45;&gt;Node13 -->
<g id="edge32" class="edge"><title>Node1&#45;&gt;Node13</title>
<path fill="none" stroke="midnightblue" d="M116.441,-289C124.869,-289 133.72,-289 142.641,-289"/>
<polygon fill="midnightblue" stroke="midnightblue" points="142.725,-292.5 152.725,-289 142.725,-285.5 142.725,-292.5"/>
</g>
<!-- Node4 -->
<g id="node7" class="node"><title>Node4</title>
<a xlink:href="classSocket.xhtml#a508457b48e6296d1e86c7cc72af65948" target="_top" xlink:title="Return if the Socket is valid for use.">
<polygon fill="white" stroke="black" points="577,-318.5 577,-339.5 655,-339.5 655,-318.5 577,-318.5"/>
<text text-anchor="middle" x="616" y="-326.5" font-family="FreeSans.ttf" font-size="10.00">Socket::Valid</text>
</a>
</g>
<!-- Node3&#45;&gt;Node4 -->
<g id="edge6" class="edge"><title>Node3&#45;&gt;Node4</title>
<path fill="none" stroke="midnightblue" d="M247.613,-141.629C266.846,-162.213 312.326,-207.549 360,-231 427.137,-264.025 459.552,-230.993 524,-269 544.602,-281.15 540.133,-295.683 560,-309 562.874,-310.926 565.956,-312.691 569.141,-314.304"/>
<polygon fill="midnightblue" stroke="midnightblue" points="567.752,-317.517 578.306,-318.453 570.639,-311.14 567.752,-317.517"/>
</g>
<!-- Node5 -->
<g id="node9" class="node"><title>Node5</title>
<a xlink:href="classServer.xhtml#a1e68e32745cdfe194e0af388d9d5244a" target="_top" xlink:title="Set the amount of subordinate SocketClient and SocketServer objects that have been closed on a NAMS S...">
<polygon fill="white" stroke="black" points="382.5,-80.5 382.5,-101.5 501.5,-101.5 501.5,-80.5 382.5,-80.5"/>
<text text-anchor="middle" x="442" y="-88.5" font-family="FreeSans.ttf" font-size="10.00">Server::sSocketClose</text>
</a>
</g>
<!-- Node3&#45;&gt;Node5 -->
<g id="edge8" class="edge"><title>Node3&#45;&gt;Node5</title>
<path fill="none" stroke="midnightblue" d="M291.599,-120.49C318.199,-115.275 350.516,-108.938 378.366,-103.477"/>
<polygon fill="midnightblue" stroke="midnightblue" points="379.266,-106.868 388.406,-101.509 377.919,-99.9983 379.266,-106.868"/>
</g>
<!-- Node6 -->
<g id="node11" class="node"><title>Node6</title>
<a xlink:href="classServer.xhtml#a01c4cacfdade91bc99d6c8911ca33a54" target="_top" xlink:title="Returns the combined number of SocketClient and SocketServer objects that have been destroyed...">
<polygon fill="white" stroke="black" points="382.5,-40.5 382.5,-61.5 501.5,-61.5 501.5,-40.5 382.5,-40.5"/>
<text text-anchor="middle" x="442" y="-48.5" font-family="FreeSans.ttf" font-size="10.00">Server::gSocketClose</text>
</a>
</g>
<!-- Node3&#45;&gt;Node6 -->
<g id="edge10" class="edge"><title>Node3&#45;&gt;Node6</title>
<path fill="none" stroke="midnightblue" d="M295.401,-122.801C305.351,-119.963 315.287,-116.143 324,-111 344.597,-98.8421 339.469,-83.2683 360,-71 363.927,-68.6535 368.116,-66.5819 372.444,-64.753"/>
<polygon fill="midnightblue" stroke="midnightblue" points="373.966,-67.92 382.094,-61.1244 371.502,-61.3679 373.966,-67.92"/>
</g>
<!-- Node7 -->
<g id="node13" class="node"><title>Node7</title>
<a xlink:href="classSocketClient.xhtml#abb055f2dc275dd975ac9465a8e5b19e5" target="_top" xlink:title="Returns the Server object associated to this SocketClient.">
<polygon fill="white" stroke="black" points="382,-120.5 382,-141.5 502,-141.5 502,-120.5 382,-120.5"/>
<text text-anchor="middle" x="442" y="-128.5" font-family="FreeSans.ttf" font-size="10.00">SocketClient::gServer</text>
</a>
</g>
<!-- Node3&#45;&gt;Node7 -->
<g id="edge12" class="edge"><title>Node3&#45;&gt;Node7</title>
<path fill="none" stroke="midnightblue" d="M295.097,-131C318.821,-131 346.594,-131 371.566,-131"/>
<polygon fill="midnightblue" stroke="midnightblue" points="371.711,-134.5 381.711,-131 371.711,-127.5 371.711,-134.5"/>
</g>
<!-- Node8 -->
<g id="node15" class="node"><title>Node8</title>
<a xlink:href="classServer.xhtml#ab25462e8370bd6f9270c2f0734b70354" target="_top" xlink:title="Sets the Server&#39;s globally referenced next iterator for SocketClient objects.">
<polygon fill="white" stroke="black" points="371,-0.5 371,-21.5 513,-21.5 513,-0.5 371,-0.5"/>
<text text-anchor="middle" x="442" y="-8.5" font-family="FreeSans.ttf" font-size="10.00">Server::sSocketClientNext</text>
</a>
</g>
<!-- Node3&#45;&gt;Node8 -->
<g id="edge14" class="edge"><title>Node3&#45;&gt;Node8</title>
<path fill="none" stroke="midnightblue" d="M295.101,-125.462C305.527,-122.399 315.712,-117.815 324,-111 354.115,-86.2352 330.019,-55.9261 360,-31 361.831,-29.4777 363.76,-28.0681 365.767,-26.763"/>
<polygon fill="midnightblue" stroke="midnightblue" points="367.929,-29.5688 375.006,-21.6847 364.557,-23.4343 367.929,-29.5688"/>
</g>
<!-- Node9&#45;&gt;Node2 -->
<g id="edge20" class="edge"><title>Node9&#45;&gt;Node2</title>
<path fill="none" stroke="midnightblue" d="M290.614,-493.545C312.042,-497.336 337.11,-501.136 360,-503 432.648,-508.915 451.528,-510.786 524,-503 537.857,-501.511 552.69,-498.795 566.31,-495.835"/>
<polygon fill="midnightblue" stroke="midnightblue" points="567.473,-499.161 576.454,-493.54 565.928,-492.333 567.473,-499.161"/>
</g>
<!-- Node9&#45;&gt;Node4 -->
<g id="edge18" class="edge"><title>Node9&#45;&gt;Node4</title>
<path fill="none" stroke="midnightblue" d="M279.453,-472.444C336.182,-457.253 440.488,-426.64 524,-387 548.92,-375.172 575.359,-357.954 593.468,-345.351"/>
<polygon fill="midnightblue" stroke="midnightblue" points="595.494,-348.205 601.646,-339.579 591.457,-342.486 595.494,-348.205"/>
</g>
<!-- Node10 -->
<g id="node21" class="node"><title>Node10</title>
<a xlink:href="namespaceUtils.xhtml#a8c70e85acdb1549aa4cd3a16b8d8d9cf" target="_top" xlink:title="Returns a vector of strings split at linebreaks based on input.">
<polygon fill="white" stroke="black" points="392,-550.5 392,-571.5 492,-571.5 492,-550.5 392,-550.5"/>
<text text-anchor="middle" x="442" y="-558.5" font-family="FreeSans.ttf" font-size="10.00">Utils::StrNewlines</text>
</a>
</g>
<!-- Node9&#45;&gt;Node10 -->
<g id="edge22" class="edge"><title>Node9&#45;&gt;Node10</title>
<path fill="none" stroke="midnightblue" d="M260.175,-493.544C284.388,-504.841 324.461,-522.911 360,-536 371.018,-540.058 383.032,-543.989 394.383,-547.486"/>
<polygon fill="midnightblue" stroke="midnightblue" points="393.56,-550.893 404.145,-550.439 395.587,-544.193 393.56,-550.893"/>
</g>
<!-- Node11 -->
<g id="node23" class="node"><title>Node11</title>
<a xlink:href="classSocketClient.xhtml#aa3c0d7886b8fede981c73031cfaf17c6" target="_top" xlink:title="Append a command to the back of the queue.">
<polygon fill="white" stroke="black" points="360,-472.5 360,-493.5 524,-493.5 524,-472.5 360,-472.5"/>
<text text-anchor="middle" x="442" y="-480.5" font-family="FreeSans.ttf" font-size="10.00">SocketClient::QueueCommand</text>
</a>
</g>
<!-- Node9&#45;&gt;Node11 -->
<g id="edge24" class="edge"><title>Node9&#45;&gt;Node11</title>
<path fill="none" stroke="midnightblue" d="M310.21,-483C322.997,-483 336.469,-483 349.72,-483"/>
<polygon fill="midnightblue" stroke="midnightblue" points="349.795,-486.5 359.795,-483 349.795,-479.5 349.795,-486.5"/>
</g>
<!-- Node11&#45;&gt;Node2 -->
<g id="edge28" class="edge"><title>Node11&#45;&gt;Node2</title>
<path fill="none" stroke="midnightblue" d="M524.159,-483C532.792,-483 541.489,-483 549.908,-483"/>
<polygon fill="midnightblue" stroke="midnightblue" points="550.017,-486.5 560.017,-483 550.017,-479.5 550.017,-486.5"/>
</g>
<!-- Node11&#45;&gt;Node4 -->
<g id="edge26" class="edge"><title>Node11&#45;&gt;Node4</title>
<path fill="none" stroke="midnightblue" d="M495.137,-472.37C505.295,-468.842 515.422,-464.171 524,-458 563.975,-429.244 593.03,-377.625 606.89,-349.18"/>
<polygon fill="midnightblue" stroke="midnightblue" points="610.198,-350.371 611.3,-339.834 603.867,-347.383 610.198,-350.371"/>
</g>
<!-- Node13&#45;&gt;Node2 -->
<g id="edge36" class="edge"><title>Node13&#45;&gt;Node2</title>
<path fill="none" stroke="midnightblue" d="M248.881,-299.778C269.191,-319.406 314.911,-361.318 360,-387 427.615,-425.513 513.612,-454.068 566.721,-469.625"/>
<polygon fill="midnightblue" stroke="midnightblue" points="565.987,-473.056 576.566,-472.47 567.931,-466.331 565.987,-473.056"/>
</g>
<!-- Node13&#45;&gt;Node4 -->
<g id="edge34" class="edge"><title>Node13&#45;&gt;Node4</title>
<path fill="none" stroke="midnightblue" d="M295.881,-299.516C316.113,-302.919 339.011,-306.464 360,-309 431.632,-317.654 515.014,-323.36 566.657,-326.386"/>
<polygon fill="midnightblue" stroke="midnightblue" points="566.68,-329.893 576.865,-326.973 567.082,-322.904 566.68,-329.893"/>
</g>
<!-- Node13&#45;&gt;Node7 -->
<g id="edge38" class="edge"><title>Node13&#45;&gt;Node7</title>
<path fill="none" stroke="midnightblue" d="M244.143,-278.404C259.839,-252.326 304.149,-184.71 360,-151 363.844,-148.68 367.942,-146.629 372.18,-144.815"/>
<polygon fill="midnightblue" stroke="midnightblue" points="373.534,-148.045 381.631,-141.213 371.041,-141.504 373.534,-148.045"/>
</g>
<!-- Node14 -->
<g id="node34" class="node"><title>Node14</title>
<a xlink:href="classCommand.xhtml#a1ccef73405910cf3e44943a3244b645b" target="_top" xlink:title="Check if sec is &gt;= m_security for permission to call Command::Run().">
<polygon fill="white" stroke="black" points="379.5,-278.5 379.5,-299.5 504.5,-299.5 504.5,-278.5 379.5,-278.5"/>
<text text-anchor="middle" x="442" y="-286.5" font-family="FreeSans.ttf" font-size="10.00">Command::Authorized</text>
</a>
</g>
<!-- Node13&#45;&gt;Node14 -->
<g id="edge40" class="edge"><title>Node13&#45;&gt;Node14</title>
<path fill="none" stroke="midnightblue" d="M323.037,-289C338.404,-289 354.3,-289 369.276,-289"/>
<polygon fill="midnightblue" stroke="midnightblue" points="369.479,-292.5 379.479,-289 369.479,-285.5 369.479,-292.5"/>
</g>
<!-- Node15 -->
<g id="node36" class="node"><title>Node15</title>
<a xlink:href="classSocketClient.xhtml#a55449717f16faaa0f3375610b9f3dfe3" target="_top" xlink:title="Returns the authorized security level of the client.">
<polygon fill="white" stroke="black" points="378,-356.5 378,-377.5 506,-377.5 506,-356.5 378,-356.5"/>
<text text-anchor="middle" x="442" y="-364.5" font-family="FreeSans.ttf" font-size="10.00">SocketClient::gSecurity</text>
</a>
</g>
<!-- Node13&#45;&gt;Node15 -->
<g id="edge42" class="edge"><title>Node13&#45;&gt;Node15</title>
<path fill="none" stroke="midnightblue" d="M260.175,-299.544C284.388,-310.841 324.461,-328.911 360,-342 371.018,-346.058 383.032,-349.989 394.383,-353.486"/>
<polygon fill="midnightblue" stroke="midnightblue" points="393.56,-356.893 404.145,-356.439 395.587,-350.193 393.56,-356.893"/>
</g>
<!-- Node16 -->
<g id="node38" class="node"><title>Node16</title>
<a xlink:href="classCommand.xhtml#a1cac0232492ece9e3316c75fa85e5e1a" target="_top" xlink:title="Execute a Plugin object&#39;s primary function.">
<polygon fill="white" stroke="black" points="397,-160.5 397,-181.5 487,-181.5 487,-160.5 397,-160.5"/>
<text text-anchor="middle" x="442" y="-168.5" font-family="FreeSans.ttf" font-size="10.00">Command::Run</text>
</a>
</g>
<!-- Node13&#45;&gt;Node16 -->
<g id="edge44" class="edge"><title>Node13&#45;&gt;Node16</title>
<path fill="none" stroke="midnightblue" d="M247.984,-278.328C267.511,-258.111 312.97,-214.183 360,-191 368.397,-186.861 377.711,-183.542 386.96,-180.891"/>
<polygon fill="midnightblue" stroke="midnightblue" points="388.143,-184.199 396.924,-178.271 386.363,-177.429 388.143,-184.199"/>
</g>
<!-- Node18 -->
<g id="node42" class="node"><title>Node18</title>
<a xlink:href="classSocketClient.xhtml#a6268f3d184970ec0076da657c39d2e80" target="_top" xlink:title="Process data from the client&#39;s send buffer and transmit it via the socket.">
<polygon fill="white" stroke="black" points="388.5,-200.5 388.5,-221.5 495.5,-221.5 495.5,-200.5 388.5,-200.5"/>
<text text-anchor="middle" x="442" y="-208.5" font-family="FreeSans.ttf" font-size="10.00">SocketClient::Send</text>
</a>
</g>
<!-- Node13&#45;&gt;Node18 -->
<g id="edge48" class="edge"><title>Node13&#45;&gt;Node18</title>
<path fill="none" stroke="midnightblue" d="M265.512,-278.481C301.481,-264.728 364.623,-240.585 404.824,-225.214"/>
<polygon fill="midnightblue" stroke="midnightblue" points="406.182,-228.442 414.272,-221.602 403.681,-221.904 406.182,-228.442"/>
</g>
<!-- Node17 -->
<g id="node40" class="node"><title>Node17</title>
<a xlink:href="classPlugin.xhtml#a34515b5310b349069dfd9f34ca144b2d" target="_top" xlink:title="Execute the primary function of the implemented class.">
<polygon fill="white" stroke="black" points="582,-118.5 582,-139.5 650,-139.5 650,-118.5 582,-118.5"/>
<text text-anchor="middle" x="616" y="-126.5" font-family="FreeSans.ttf" font-size="10.00">Plugin::Run</text>
</a>
</g>
<!-- Node16&#45;&gt;Node17 -->
<g id="edge46" class="edge"><title>Node16&#45;&gt;Node17</title>
<path fill="none" stroke="midnightblue" d="M485.908,-160.402C512.332,-154.023 545.852,-145.932 572.248,-139.561"/>
<polygon fill="midnightblue" stroke="midnightblue" points="573.087,-142.959 581.986,-137.21 571.444,-136.154 573.087,-142.959"/>
</g>
<!-- Node18&#45;&gt;Node2 -->
<g id="edge52" class="edge"><title>Node18&#45;&gt;Node2</title>
<path fill="none" stroke="midnightblue" d="M462.988,-221.542C481.201,-231.598 507.212,-248.265 524,-269 527.295,-273.07 585.517,-410.724 607.601,-463.07"/>
<polygon fill="midnightblue" stroke="midnightblue" points="604.398,-464.483 611.508,-472.337 610.848,-461.763 604.398,-464.483"/>
</g>
<!-- Node18&#45;&gt;Node4 -->
<g id="edge50" class="edge"><title>Node18&#45;&gt;Node4</title>
<path fill="none" stroke="midnightblue" d="M495.534,-220.427C505.775,-224.049 515.834,-229.062 524,-236 551.568,-259.423 532.991,-284.934 560,-309 562.352,-311.096 564.939,-312.976 567.672,-314.663"/>
<polygon fill="midnightblue" stroke="midnightblue" points="566.3,-317.894 576.785,-319.415 569.537,-311.688 566.3,-317.894"/>
</g>
<!-- Node19 -->
<g id="node46" class="node"><title>Node19</title>
<a xlink:href="classSocket.xhtml#adc72a37934a4f2d10f6ae8fc94bb4ca7" target="_top" xlink:title="Returns the hostname associated to the Socket.">
<polygon fill="white" stroke="black" points="560,-158.5 560,-179.5 672,-179.5 672,-158.5 560,-158.5"/>
<text text-anchor="middle" x="616" y="-166.5" font-family="FreeSans.ttf" font-size="10.00">Socket::gHostname</text>
</a>
</g>
<!-- Node18&#45;&gt;Node19 -->
<g id="edge54" class="edge"><title>Node18&#45;&gt;Node19</title>
<path fill="none" stroke="midnightblue" d="M485.908,-200.402C509.179,-194.784 537.954,-187.839 562.519,-181.909"/>
<polygon fill="midnightblue" stroke="midnightblue" points="563.509,-185.271 572.408,-179.522 561.866,-178.466 563.509,-185.271"/>
</g>
<!-- Node20 -->
<g id="node48" class="node"><title>Node20</title>
<a xlink:href="classServer.xhtml#a686505fb3a2ee84bdac3f42710341b71" target="_top" xlink:title="Returns the SocketServer associated with the current Server instance.">
<polygon fill="white" stroke="black" points="569.5,-278.5 569.5,-299.5 662.5,-299.5 662.5,-278.5 569.5,-278.5"/>
<text text-anchor="middle" x="616" y="-286.5" font-family="FreeSans.ttf" font-size="10.00">Server::gSocket</text>
</a>
</g>
<!-- Node18&#45;&gt;Node20 -->
<g id="edge56" class="edge"><title>Node18&#45;&gt;Node20</title>
<path fill="none" stroke="midnightblue" d="M489.463,-221.56C501.181,-225.207 513.403,-229.947 524,-236 542.848,-246.765 541.411,-257.794 560,-269 563.336,-271.011 566.906,-272.864 570.567,-274.561"/>
<polygon fill="midnightblue" stroke="midnightblue" points="569.204,-277.785 579.777,-278.462 571.934,-271.339 569.204,-277.785"/>
</g>
<!-- Node21 -->
<g id="node50" class="node"><title>Node21</title>
<a xlink:href="classSocket.xhtml#a688f0d2182f7ca098de3f76156efad0a" target="_top" xlink:title="Increment the total count of bytes sent by the socket.">
<polygon fill="white" stroke="black" points="560.5,-238.5 560.5,-259.5 671.5,-259.5 671.5,-238.5 560.5,-238.5"/>
<text text-anchor="middle" x="616" y="-246.5" font-family="FreeSans.ttf" font-size="10.00">Socket::aBytesSent</text>
</a>
</g>
<!-- Node18&#45;&gt;Node21 -->
<g id="edge58" class="edge"><title>Node18&#45;&gt;Node21</title>
<path fill="none" stroke="midnightblue" d="M490.469,-221.585C511.397,-226.156 536.053,-231.54 557.949,-236.322"/>
<polygon fill="midnightblue" stroke="midnightblue" points="557.275,-239.757 567.791,-238.472 558.768,-232.919 557.275,-239.757"/>
</g>
<!-- Node22 -->
<g id="node52" class="node"><title>Node22</title>
<a xlink:href="classSocket.xhtml#a3bb9f40d6e5f32cfa960a86323322c0c" target="_top" xlink:title="Returns the number of bytes sent by the Socket.">
<polygon fill="white" stroke="black" points="560.5,-198.5 560.5,-219.5 671.5,-219.5 671.5,-198.5 560.5,-198.5"/>
<text text-anchor="middle" x="616" y="-206.5" font-family="FreeSans.ttf" font-size="10.00">Socket::gBytesSent</text>
</a>
</g>
<!-- Node18&#45;&gt;Node22 -->
<g id="edge60" class="edge"><title>Node18&#45;&gt;Node22</title>
<path fill="none" stroke="midnightblue" d="M495.626,-210.384C512.901,-210.185 532.246,-209.963 550.289,-209.755"/>
<polygon fill="midnightblue" stroke="midnightblue" points="550.487,-213.253 560.446,-209.639 550.407,-206.254 550.487,-213.253"/>
</g>
</g>
</svg>
        <g id="navigator" transform="translate(0 0)" fill="#404254">
                <rect fill="#f2f5e9" fill-opacity="0.5" stroke="#606060" stroke-width=".5" x="0" y="0" width="60" height="60"/>
                <use id="zoomplus" xlink:href="#zoomPlus" x="17" y="9" onmousedown="handleZoom(evt,'in')"/>
                <use id="zoomminus" xlink:href="#zoomMin" x="42" y="9" onmousedown="handleZoom(evt,'out')"/>
                <use id="reset" xlink:href="#resetDef" x="30" y="36" onmousedown="handleReset()"/>
                <g id="arrowUp" xlink:href="#dirArrow" transform="translate(30 24)" onmousedown="handlePan(0,-1)">
                  <use xlink:href="#rim" fill="#404040">
                        <set attributeName="fill" to="#808080" begin="arrowUp.mouseover" end="arrowUp.mouseout"/>
                  </use>
                  <path fill="none" stroke="white" stroke-width="1.5" d="M0,-3.0v7 M-2.5,-0.5L0,-3.0L2.5,-0.5"/>
                </g>
                <g id="arrowRight" xlink:href="#dirArrow" transform="rotate(90) translate(36 -43)" onmousedown="handlePan(1,0)">
                  <use xlink:href="#rim" fill="#404040">
                        <set attributeName="fill" to="#808080" begin="arrowRight.mouseover" end="arrowRight.mouseout"/>
                  </use>
                  <path fill="none" stroke="white" stroke-width="1.5" d="M0,-3.0v7 M-2.5,-0.5L0,-3.0L2.5,-0.5"/>
                </g>
                <g id="arrowDown" xlink:href="#dirArrow" transform="rotate(180) translate(-30 -48)" onmousedown="handlePan(0,1)">
                  <use xlink:href="#rim" fill="#404040">
                        <set attributeName="fill" to="#808080" begin="arrowDown.mouseover" end="arrowDown.mouseout"/>
                  </use>
                  <path fill="none" stroke="white" stroke-width="1.5" d="M0,-3.0v7 M-2.5,-0.5L0,-3.0L2.5,-0.5"/>
                </g>
                <g id="arrowLeft" xlink:href="#dirArrow" transform="rotate(270) translate(-36 17)" onmousedown="handlePan(-1,0)">
                  <use xlink:href="#rim" fill="#404040">
                        <set attributeName="fill" to="#808080" begin="arrowLeft.mouseover" end="arrowLeft.mouseout"/>
                  </use>
                  <path fill="none" stroke="white" stroke-width="1.5" d="M0,-3.0v7 M-2.5,-0.5L0,-3.0L2.5,-0.5"/>
                </g>
        </g>
</svg>
