<?xml version="1.0" encoding="UTF-8" standalone="no"?>
<!DOCTYPE svg PUBLIC "-//W3C//DTD SVG 1.1//EN"
 "http://www.w3.org/Graphics/SVG/1.1/DTD/svg11.dtd">
<!-- Generated by graphviz version 2.26.3 (20100126.1600)
 -->
<!-- Title: SocketClient::ProcessCommand Pages: 1 -->
<svg width="534pt" height="28pt"
 viewBox="0.00 0.00 534.00 28.00" xmlns="http://www.w3.org/2000/svg" xmlns:xlink="http://www.w3.org/1999/xlink">
<g id="graph1" class="graph" transform="scale(1 1) rotate(0) translate(4 24)">
<title>SocketClient::ProcessCommand</title>
<polygon fill="white" stroke="white" points="-4,5 -4,-24 531,-24 531,5 -4,5"/>
<!-- Node1 -->
<g id="node1" class="node"><title>Node1</title>
<polygon fill="#bfbfbf" stroke="black" points="0,-0 0,-20 170,-20 170,-0 0,-0"/>
<text text-anchor="middle" x="85" y="-7" font-family="FreeSans.ttf" font-size="10.00">SocketClient::ProcessCommand</text>
</g>
<!-- Node2 -->
<g id="node3" class="node"><title>Node2</title>
<a xlink:href="namespaceServer.xhtml#a2b4cec469bb99c2a45e49de5ba74d1ae" target="_top" xlink:title="Processes input from all active SocketClient objects.">
<polygon fill="white" stroke="black" points="206,-0 206,-20 322,-20 322,-0 206,-0"/>
<text text-anchor="middle" x="264" y="-7" font-family="FreeSans.ttf" font-size="10.00">Server::ProcessInput</text>
</a>
</g>
<!-- Node1&#45;&gt;Node2 -->
<g id="edge2" class="edge"><title>Node1&#45;&gt;Node2</title>
<path fill="none" stroke="midnightblue" d="M180.249,-10C188.93,-10 197.54,-10 205.748,-10"/>
<polygon fill="midnightblue" stroke="midnightblue" points="180.044,-6.5001 170.044,-10 180.044,-13.5001 180.044,-6.5001"/>
</g>
<!-- Node3 -->
<g id="node5" class="node"><title>Node3</title>
<a xlink:href="namespaceServer.xhtml#a50b81aa91d8fdaee6f52c5c5ec987990" target="_top" xlink:title="The core update loop of NAMS. This loop spawns all other subsystem update routines and then sleeps fo...">
<polygon fill="white" stroke="black" points="358.5,-0 358.5,-20 447.5,-20 447.5,-0 358.5,-0"/>
<text text-anchor="middle" x="403" y="-7" font-family="FreeSans.ttf" font-size="10.00">Server::Update</text>
</a>
</g>
<!-- Node2&#45;&gt;Node3 -->
<g id="edge4" class="edge"><title>Node2&#45;&gt;Node3</title>
<path fill="none" stroke="midnightblue" d="M332.39,-10C341.156,-10 349.945,-10 358.2,-10"/>
<polygon fill="midnightblue" stroke="midnightblue" points="332.143,-6.5001 322.143,-10 332.143,-13.5001 332.143,-6.5001"/>
</g>
<!-- Node4 -->
<g id="node7" class="node"><title>Node4</title>
<a xlink:href="main_8cpp.xhtml#ad53223b8779f25caeddb70a3b9172967" target="_top" xlink:title="The default function required to execute the server.">
<polygon fill="white" stroke="black" points="484.5,-0 484.5,-20 525.5,-20 525.5,-0 484.5,-0"/>
<text text-anchor="middle" x="505" y="-7" font-family="FreeSans.ttf" font-size="10.00">main</text>
</a>
</g>
<!-- Node3&#45;&gt;Node4 -->
<g id="edge6" class="edge"><title>Node3&#45;&gt;Node4</title>
<path fill="none" stroke="midnightblue" d="M457.942,-10C467.336,-10 476.55,-10 484.3,-10"/>
<polygon fill="midnightblue" stroke="midnightblue" points="457.739,-6.5001 447.739,-10 457.739,-13.5001 457.739,-6.5001"/>
</g>
</g>
</svg>
