<?xml version="1.0" encoding="UTF-8" standalone="no"?>
<!DOCTYPE svg PUBLIC "-//W3C//DTD SVG 1.1//EN"
 "http://www.w3.org/Graphics/SVG/1.1/DTD/svg11.dtd">
<!-- Generated by graphviz version 2.26.3 (20100126.1600)
 -->
<!-- Title: Location Pages: 1 -->
<svg width="1410pt" height="807pt"
 viewBox="0.00 0.00 1410.00 807.32" xmlns="http://www.w3.org/2000/svg" xmlns:xlink="http://www.w3.org/1999/xlink">
<g id="graph1" class="graph" transform="scale(1 1) rotate(0) translate(4 803.317)">
<title>Location</title>
<polygon fill="white" stroke="white" points="-4,5 -4,-803.317 1407,-803.317 1407,5 -4,5"/>
<!-- Node1 -->
<g id="node1" class="node"><title>Node1</title>
<polygon fill="#bfbfbf" stroke="black" points="891.5,-621.317 891.5,-641.317 948.5,-641.317 948.5,-621.317 891.5,-621.317"/>
<text text-anchor="middle" x="920" y="-628.317" font-family="FreeSans.ttf" font-size="10.00">Location</text>
</g>
<!-- Node23 -->
<g id="node64" class="node"><title>Node23</title>
<a xlink:href="classExit.xhtml" target="_top" xlink:title="A link between two locations within the game world.">
<polygon fill="white" stroke="black" points="1145,-682.317 1145,-702.317 1179,-702.317 1179,-682.317 1145,-682.317"/>
<text text-anchor="middle" x="1162" y="-689.317" font-family="FreeSans.ttf" font-size="10.00">Exit</text>
</a>
</g>
<!-- Node1&#45;&gt;Node23 -->
<g id="edge88" class="edge"><title>Node1&#45;&gt;Node23</title>
<path fill="none" stroke="#9a32cd" stroke-dasharray="5,2" d="M958.448,-640.942C968.683,-643.425 979.745,-646.039 990,-648.317 1044.88,-660.509 1060.09,-657.352 1114,-673.317 1124.48,-676.422 1135.88,-680.882 1144.93,-684.701"/>
<polygon fill="#9a32cd" stroke="#9a32cd" points="959.095,-637.497 948.549,-638.519 957.43,-644.296 959.095,-637.497"/>
<text text-anchor="middle" x="1052" y="-688.317" font-family="FreeSans.ttf" font-size="10.00"> m_location</text>
<text text-anchor="middle" x="1052" y="-676.317" font-family="FreeSans.ttf" font-size="10.00">m_destination</text>
</g>
<!-- Node2 -->
<g id="node2" class="node"><title>Node2</title>
<a xlink:href="classThing.xhtml" target="_top" xlink:title="A generic &quot;thing&quot;: creature, character, room, object, etc.">
<polygon fill="white" stroke="black" points="684,-544.317 684,-564.317 726,-564.317 726,-544.317 684,-544.317"/>
<text text-anchor="middle" x="705" y="-551.317" font-family="FreeSans.ttf" font-size="10.00">Thing</text>
</a>
</g>
<!-- Node2&#45;&gt;Node1 -->
<g id="edge2" class="edge"><title>Node2&#45;&gt;Node1</title>
<path fill="none" stroke="midnightblue" d="M732.524,-568.915C746.996,-576.236 765.18,-584.889 782,-591.317 818.932,-605.431 863.032,-617.401 891.267,-624.472"/>
<polygon fill="midnightblue" stroke="midnightblue" points="734.097,-565.788 723.602,-564.332 730.899,-572.014 734.097,-565.788"/>
</g>
<!-- Node2&#45;&gt;Node2 -->
<g id="edge16" class="edge"><title>Node2&#45;&gt;Node2</title>
<path fill="none" stroke="#9a32cd" stroke-dasharray="5,2" d="M684.677,-573.878C686.141,-578.712 692.915,-582.317 705,-582.317 724.336,-582.317 730.076,-573.088 722.221,-564.364"/>
<polygon fill="#9a32cd" stroke="#9a32cd" points="688.007,-574.957 687.779,-564.364 681.352,-572.787 688.007,-574.957"/>
<text text-anchor="middle" x="705" y="-585.317" font-family="FreeSans.ttf" font-size="10.00"> m_container</text>
</g>
<!-- Node3 -->
<g id="node4" class="node"><title>Node3</title>
<polygon fill="white" stroke="#bfbfbf" points="405,-647.317 405,-667.317 529,-667.317 529,-647.317 405,-647.317"/>
<text text-anchor="middle" x="467" y="-654.317" font-family="FreeSans.ttf" font-size="10.00">std::vector&lt; Thing * &gt;</text>
</g>
<!-- Node2&#45;&gt;Node3 -->
<g id="edge6" class="edge"><title>Node2&#45;&gt;Node3</title>
<path fill="none" stroke="#9a32cd" stroke-dasharray="5,2" d="M682.956,-570.807C670.879,-580.68 656.315,-594.057 646,-608.317 634.574,-624.112 644.069,-637.279 628,-648.317 596.271,-670.112 552.18,-671.09 518.159,-667.327"/>
<polygon fill="#9a32cd" stroke="#9a32cd" points="685.172,-573.517 690.837,-564.564 680.825,-568.03 685.172,-573.517"/>
<text text-anchor="middle" x="591" y="-671.317" font-family="FreeSans.ttf" font-size="10.00"> elements</text>
</g>
<!-- Node20 -->
<g id="node51" class="node"><title>Node20</title>
<a xlink:href="classCharacter.xhtml" target="_top" xlink:title="An actor within the game world.">
<polygon fill="white" stroke="black" points="888,-293.317 888,-313.317 952,-313.317 952,-293.317 888,-293.317"/>
<text text-anchor="middle" x="920" y="-300.317" font-family="FreeSans.ttf" font-size="10.00">Character</text>
</a>
</g>
<!-- Node2&#45;&gt;Node20 -->
<g id="edge66" class="edge"><title>Node2&#45;&gt;Node20</title>
<path fill="none" stroke="midnightblue" d="M717.128,-535.748C731.263,-514.876 756.021,-480.604 782,-455.317 808.881,-429.152 823.91,-432.271 850,-405.317 878.829,-375.533 903.976,-332.683 914.606,-313.397"/>
<polygon fill="midnightblue" stroke="midnightblue" points="714.051,-534.054 711.414,-544.315 719.874,-537.938 714.051,-534.054"/>
</g>
<!-- Node3&#45;&gt;Node2 -->
<g id="edge4" class="edge"><title>Node3&#45;&gt;Node2</title>
<path fill="none" stroke="#9a32cd" stroke-dasharray="5,2" d="M516.544,-644.596C549.055,-635.387 592.048,-621.549 628,-604.317 651.716,-592.949 676.848,-575.464 691.719,-564.47"/>
<polygon fill="#9a32cd" stroke="#9a32cd" points="515.507,-641.251 506.811,-647.304 517.383,-647.995 515.507,-641.251"/>
<text text-anchor="middle" x="591" y="-635.317" font-family="FreeSans.ttf" font-size="10.00"> m_contents</text>
</g>
<!-- Node4 -->
<g id="node7" class="node"><title>Node4</title>
<a xlink:title="STL class.">
<polygon fill="white" stroke="#bfbfbf" points="127.5,-182.317 127.5,-202.317 222.5,-202.317 222.5,-182.317 127.5,-182.317"/>
<text text-anchor="middle" x="175" y="-189.317" font-family="FreeSans.ttf" font-size="10.00">std::vector&lt; T &gt;</text>
</a>
</g>
<!-- Node4&#45;&gt;Node3 -->
<g id="edge8" class="edge"><title>Node4&#45;&gt;Node3</title>
<path fill="none" stroke="orange" stroke-dasharray="5,2" d="M186.926,-211.308C236.309,-289.949 423.91,-588.698 460.713,-647.306"/>
<polygon fill="orange" stroke="orange" points="189.652,-209.069 181.37,-202.461 183.724,-212.791 189.652,-209.069"/>
<text text-anchor="middle" x="316" y="-509.317" font-family="FreeSans.ttf" font-size="10.00"> &lt; Thing * &gt;</text>
</g>
<!-- Node19 -->
<g id="node46" class="node"><title>Node19</title>
<polygon fill="white" stroke="#bfbfbf" points="646.5,-245.317 646.5,-265.317 763.5,-265.317 763.5,-245.317 646.5,-245.317"/>
<text text-anchor="middle" x="705" y="-252.317" font-family="FreeSans.ttf" font-size="10.00">std::vector&lt; string &gt;</text>
</g>
<!-- Node4&#45;&gt;Node19 -->
<g id="edge60" class="edge"><title>Node4&#45;&gt;Node19</title>
<path fill="none" stroke="orange" stroke-dasharray="5,2" d="M232.782,-191.777C304.374,-191.93 429.891,-194.884 536,-211.317 585.136,-218.926 640.674,-234.844 674.246,-245.302"/>
<polygon fill="orange" stroke="orange" points="232.621,-188.278 222.619,-191.774 232.618,-195.278 232.621,-188.278"/>
<text text-anchor="middle" x="467" y="-214.317" font-family="FreeSans.ttf" font-size="10.00"> &lt; string &gt;</text>
</g>
<!-- Node21 -->
<g id="node57" class="node"><title>Node21</title>
<polygon fill="white" stroke="#bfbfbf" points="414.5,-114.317 414.5,-146.317 519.5,-146.317 519.5,-114.317 414.5,-114.317"/>
<text text-anchor="start" x="422.5" y="-133.317" font-family="FreeSans.ttf" font-size="10.00">std::vector&lt; pair&lt;</text>
<text text-anchor="middle" x="467" y="-121.317" font-family="FreeSans.ttf" font-size="10.00"> string, string &gt; &gt;</text>
</g>
<!-- Node4&#45;&gt;Node21 -->
<g id="edge78" class="edge"><title>Node4&#45;&gt;Node21</title>
<path fill="none" stroke="orange" stroke-dasharray="5,2" d="M211.215,-178.76C223.974,-174.339 238.502,-169.703 252,-166.317 281.918,-158.812 360.9,-146.269 414.338,-138.147"/>
<polygon fill="orange" stroke="orange" points="209.672,-175.593 201.415,-182.231 212.009,-182.191 209.672,-175.593"/>
<text text-anchor="middle" x="316" y="-169.317" font-family="FreeSans.ttf" font-size="10.00"> &lt; pair&lt; string, string &gt; &gt;</text>
</g>
<!-- Node22 -->
<g id="node62" class="node"><title>Node22</title>
<polygon fill="white" stroke="#bfbfbf" points="1286,-682.317 1286,-702.317 1402,-702.317 1402,-682.317 1286,-682.317"/>
<text text-anchor="middle" x="1344" y="-689.317" font-family="FreeSans.ttf" font-size="10.00">std::vector&lt; Exit * &gt;</text>
</g>
<!-- Node4&#45;&gt;Node22 -->
<g id="edge90" class="edge"><title>Node4&#45;&gt;Node22</title>
<path fill="none" stroke="orange" stroke-dasharray="5,2" d="M175.745,-212.781C180.618,-314.225 216.271,-758.317 467,-758.317 467,-758.317 467,-758.317 1162,-758.317 1226.87,-758.317 1297.37,-720.804 1328.14,-702.341"/>
<polygon fill="orange" stroke="orange" points="179.235,-212.464 175.308,-202.624 172.241,-212.765 179.235,-212.464"/>
<text text-anchor="middle" x="816" y="-761.317" font-family="FreeSans.ttf" font-size="10.00"> &lt; Exit * &gt;</text>
</g>
<!-- Node5 -->
<g id="node9" class="node"><title>Node5</title>
<polygon fill="white" stroke="#bfbfbf" points="0.5,-130.317 0.5,-150.317 29.5,-150.317 29.5,-130.317 0.5,-130.317"/>
<text text-anchor="middle" x="15" y="-137.317" font-family="FreeSans.ttf" font-size="10.00">T</text>
</g>
<!-- Node5&#45;&gt;Node4 -->
<g id="edge10" class="edge"><title>Node5&#45;&gt;Node4</title>
<path fill="none" stroke="#9a32cd" stroke-dasharray="5,2" d="M39.5912,-148.309C67.7023,-157.445 113.752,-172.411 144.221,-182.314"/>
<polygon fill="#9a32cd" stroke="#9a32cd" points="40.3578,-144.878 29.7656,-145.116 38.1941,-151.535 40.3578,-144.878"/>
<text text-anchor="middle" x="73" y="-169.317" font-family="FreeSans.ttf" font-size="10.00"> elements</text>
</g>
<!-- Node16 -->
<g id="node35" class="node"><title>Node16</title>
<a xlink:title="STL class.">
<polygon fill="white" stroke="#bfbfbf" points="127.5,-58.3168 127.5,-78.3168 222.5,-78.3168 222.5,-58.3168 127.5,-58.3168"/>
<text text-anchor="middle" x="175" y="-65.3168" font-family="FreeSans.ttf" font-size="10.00">std::deque&lt; T &gt;</text>
</a>
</g>
<!-- Node5&#45;&gt;Node16 -->
<g id="edge42" class="edge"><title>Node5&#45;&gt;Node16</title>
<path fill="none" stroke="#9a32cd" stroke-dasharray="5,2" d="M38.9127,-129.556C69.6723,-115.714 122.695,-91.8538 152.669,-78.3659"/>
<polygon fill="#9a32cd" stroke="#9a32cd" points="37.4486,-126.377 29.7656,-133.672 40.3211,-132.76 37.4486,-126.377"/>
<text text-anchor="middle" x="73" y="-128.317" font-family="FreeSans.ttf" font-size="10.00"> elements</text>
</g>
<!-- Node6 -->
<g id="node11" class="node"><title>Node6</title>
<a xlink:title="STL class.">
<polygon fill="white" stroke="#bfbfbf" points="434.5,-506.317 434.5,-526.317 499.5,-526.317 499.5,-506.317 434.5,-506.317"/>
<text text-anchor="middle" x="467" y="-513.317" font-family="FreeSans.ttf" font-size="10.00">std::string</text>
</a>
</g>
<!-- Node6&#45;&gt;Node1 -->
<g id="edge80" class="edge"><title>Node6&#45;&gt;Node1</title>
<path fill="none" stroke="#9a32cd" stroke-dasharray="5,2" d="M479.124,-534.956C493.963,-555.973 521.205,-589.182 554,-604.317 669.413,-657.579 827.217,-644.224 891.251,-635.735"/>
<polygon fill="#9a32cd" stroke="#9a32cd" points="481.9,-532.814 473.373,-526.525 476.117,-536.759 481.9,-532.814"/>
<text text-anchor="middle" x="705" y="-646.317" font-family="FreeSans.ttf" font-size="10.00"> m_file</text>
</g>
<!-- Node6&#45;&gt;Node2 -->
<g id="edge12" class="edge"><title>Node6&#45;&gt;Node2</title>
<path fill="none" stroke="#9a32cd" stroke-dasharray="5,2" d="M509.684,-523.132C560.873,-531.305 644.648,-544.681 683.707,-550.917"/>
<polygon fill="#9a32cd" stroke="#9a32cd" points="510.021,-519.641 499.594,-521.521 508.917,-526.554 510.021,-519.641"/>
<text text-anchor="middle" x="591" y="-591.317" font-family="FreeSans.ttf" font-size="10.00"> m_zone</text>
<text text-anchor="middle" x="591" y="-579.317" font-family="FreeSans.ttf" font-size="10.00">m_location</text>
<text text-anchor="middle" x="591" y="-567.317" font-family="FreeSans.ttf" font-size="10.00">m_description</text>
<text text-anchor="middle" x="591" y="-555.317" font-family="FreeSans.ttf" font-size="10.00">m_id</text>
<text text-anchor="middle" x="591" y="-543.317" font-family="FreeSans.ttf" font-size="10.00">m_name</text>
</g>
<!-- Node10 -->
<g id="node20" class="node"><title>Node10</title>
<a xlink:href="classAccount.xhtml" target="_top" xlink:title="Security structure to maintain characters, roles, and permissions.">
<polygon fill="white" stroke="black" points="1134,-230.317 1134,-250.317 1190,-250.317 1190,-230.317 1134,-230.317"/>
<text text-anchor="middle" x="1162" y="-237.317" font-family="FreeSans.ttf" font-size="10.00">Account</text>
</a>
</g>
<!-- Node6&#45;&gt;Node10 -->
<g id="edge54" class="edge"><title>Node6&#45;&gt;Node10</title>
<path fill="none" stroke="#9a32cd" stroke-dasharray="5,2" d="M509.525,-511.197C567.756,-503.566 675.206,-487.261 764,-461.317 925.134,-414.237 990.101,-432.585 1114,-319.317 1126.91,-307.514 1123.06,-299.349 1132,-284.317 1139.09,-272.398 1148.17,-259.341 1154.48,-250.571"/>
<polygon fill="#9a32cd" stroke="#9a32cd" points="509.054,-507.728 499.584,-512.478 509.949,-514.671 509.054,-507.728"/>
<text text-anchor="middle" x="816" y="-470.317" font-family="FreeSans.ttf" font-size="10.00"> m_password</text>
<text text-anchor="middle" x="816" y="-458.317" font-family="FreeSans.ttf" font-size="10.00">m_id</text>
</g>
<!-- Node11 -->
<g id="node22" class="node"><title>Node11</title>
<a xlink:href="classSocketClient.xhtml" target="_top" xlink:title="SocketClient extends the Socket class to implement remote&#45;host socket functions.">
<polygon fill="white" stroke="black" points="1305.5,-139.317 1305.5,-159.317 1382.5,-159.317 1382.5,-139.317 1305.5,-139.317"/>
<text text-anchor="middle" x="1344" y="-146.317" font-family="FreeSans.ttf" font-size="10.00">SocketClient</text>
</a>
</g>
<!-- Node6&#45;&gt;Node11 -->
<g id="edge46" class="edge"><title>Node6&#45;&gt;Node11</title>
<path fill="none" stroke="#9a32cd" stroke-dasharray="5,2" d="M509.978,-516.317C557.642,-516.317 636.815,-516.317 705,-516.317 705,-516.317 705,-516.317 1162,-516.317 1226.16,-516.317 1234.47,-473.016 1268,-418.317 1323.29,-328.123 1339.53,-196.473 1343.13,-159.376"/>
<polygon fill="#9a32cd" stroke="#9a32cd" points="509.723,-512.817 499.723,-516.317 509.723,-519.817 509.723,-512.817"/>
<text text-anchor="middle" x="920" y="-543.317" font-family="FreeSans.ttf" font-size="10.00"> m_output</text>
<text text-anchor="middle" x="920" y="-531.317" font-family="FreeSans.ttf" font-size="10.00">m_input</text>
<text text-anchor="middle" x="920" y="-519.317" font-family="FreeSans.ttf" font-size="10.00">m_login</text>
</g>
<!-- Node12 -->
<g id="node24" class="node"><title>Node12</title>
<a xlink:href="classSocket.xhtml" target="_top" xlink:title="Functions and interfaces that are common to both SocketClient and SocketServer.">
<polygon fill="white" stroke="black" points="680,-365.317 680,-385.317 730,-385.317 730,-365.317 680,-365.317"/>
<text text-anchor="middle" x="705" y="-372.317" font-family="FreeSans.ttf" font-size="10.00">Socket</text>
</a>
</g>
<!-- Node6&#45;&gt;Node12 -->
<g id="edge30" class="edge"><title>Node6&#45;&gt;Node12</title>
<path fill="none" stroke="#9a32cd" stroke-dasharray="5,2" d="M483.022,-498.548C499.35,-481.42 526.167,-455.874 554,-440.317 584.063,-423.513 596.283,-430.74 628,-417.317 649.736,-408.118 673.379,-394.661 688.651,-385.475"/>
<polygon fill="#9a32cd" stroke="#9a32cd" points="480.148,-496.497 475.89,-506.199 485.269,-501.27 480.148,-496.497"/>
<text text-anchor="middle" x="591" y="-443.317" font-family="FreeSans.ttf" font-size="10.00"> m_hostname</text>
</g>
<!-- Node6&#45;&gt;Node19 -->
<g id="edge58" class="edge"><title>Node6&#45;&gt;Node19</title>
<path fill="none" stroke="#9a32cd" stroke-dasharray="5,2" d="M477.491,-497.293C491.178,-472.378 515.763,-427.28 536,-388.317 544.245,-372.442 541.554,-365.166 554,-352.317 580.011,-325.462 601.514,-338.703 628,-312.317 639.836,-300.526 633.538,-290.444 646,-279.317 652.599,-273.425 660.835,-268.871 669.041,-265.395"/>
<polygon fill="#9a32cd" stroke="#9a32cd" points="474.407,-495.638 472.653,-506.087 480.54,-499.013 474.407,-495.638"/>
<text text-anchor="middle" x="591" y="-355.317" font-family="FreeSans.ttf" font-size="10.00"> elements</text>
</g>
<!-- Node6&#45;&gt;Node20 -->
<g id="edge68" class="edge"><title>Node6&#45;&gt;Node20</title>
<path fill="none" stroke="#9a32cd" stroke-dasharray="5,2" d="M500.464,-502.189C516.597,-495.45 536.254,-487.344 554,-480.317 647.772,-443.185 673.879,-439.597 764,-394.317 816.672,-367.852 876.114,-331.181 903.976,-313.566"/>
<polygon fill="#9a32cd" stroke="#9a32cd" points="498.793,-499.094 490.923,-506.187 501.498,-505.55 498.793,-499.094"/>
<text text-anchor="middle" x="705" y="-448.317" font-family="FreeSans.ttf" font-size="10.00"> m_file</text>
</g>
<!-- Node6&#45;&gt;Node23 -->
<g id="edge86" class="edge"><title>Node6&#45;&gt;Node23</title>
<path fill="none" stroke="#9a32cd" stroke-dasharray="5,2" d="M478.761,-535.146C493.236,-558.739 518.091,-600.653 536,-638.317 545.428,-658.143 536.054,-671.672 554,-684.317 633.238,-740.148 893.079,-695.872 990,-697.317 1045.1,-698.138 1058.96,-700.176 1114,-697.317 1124.21,-696.787 1135.59,-695.626 1144.7,-694.557"/>
<polygon fill="#9a32cd" stroke="#9a32cd" points="481.65,-533.163 473.415,-526.497 475.696,-536.844 481.65,-533.163"/>
<text text-anchor="middle" x="816" y="-724.317" font-family="FreeSans.ttf" font-size="10.00"> m_dest_id</text>
<text text-anchor="middle" x="816" y="-712.317" font-family="FreeSans.ttf" font-size="10.00">m_name</text>
</g>
<!-- Node7 -->
<g id="node13" class="node"><title>Node7</title>
<a xlink:title="STL class.">
<polygon fill="white" stroke="#bfbfbf" points="123.5,-767.317 123.5,-799.317 226.5,-799.317 226.5,-767.317 123.5,-767.317"/>
<text text-anchor="start" x="131.5" y="-786.317" font-family="FreeSans.ttf" font-size="10.00">std::basic_string&lt;</text>
<text text-anchor="middle" x="175" y="-774.317" font-family="FreeSans.ttf" font-size="10.00"> char &gt;</text>
</a>
</g>
<!-- Node7&#45;&gt;Node6 -->
<g id="edge14" class="edge"><title>Node7&#45;&gt;Node6</title>
<path fill="none" stroke="midnightblue" d="M200.453,-760.043C261.301,-704.405 413.285,-565.433 455.795,-526.562"/>
<polygon fill="midnightblue" stroke="midnightblue" points="197.844,-757.686 192.826,-767.017 202.568,-762.852 197.844,-757.686"/>
</g>
<!-- Node8 -->
<g id="node16" class="node"><title>Node8</title>
<polygon fill="white" stroke="#bfbfbf" points="429.5,-232.317 429.5,-252.317 504.5,-252.317 504.5,-232.317 429.5,-232.317"/>
<text text-anchor="middle" x="467" y="-239.317" font-family="FreeSans.ttf" font-size="10.00">unsigned int</text>
</g>
<!-- Node8&#45;&gt;Node2 -->
<g id="edge18" class="edge"><title>Node8&#45;&gt;Node2</title>
<path fill="none" stroke="#9a32cd" stroke-dasharray="5,2" d="M479.225,-260.752C493.273,-282.095 516.853,-318.407 536,-350.317 544.396,-364.309 541.121,-372.297 554,-382.317 580.889,-403.237 602.633,-379.575 628,-402.317 644.347,-416.972 636.64,-428.458 646,-448.317 663.061,-484.514 687.297,-525.37 698.659,-544.031"/>
<polygon fill="#9a32cd" stroke="#9a32cd" points="482.091,-258.74 473.66,-252.323 476.249,-262.597 482.091,-258.74"/>
<text text-anchor="middle" x="591" y="-405.317" font-family="FreeSans.ttf" font-size="10.00"> m_type</text>
</g>
<!-- Node8&#45;&gt;Node10 -->
<g id="edge62" class="edge"><title>Node8&#45;&gt;Node10</title>
<path fill="none" stroke="#9a32cd" stroke-dasharray="5,2" d="M514.627,-237.791C527.402,-236.766 541.217,-235.83 554,-235.317 802.692,-225.328 865.195,-231.721 1114,-238.317 1120.42,-238.487 1127.32,-238.736 1133.83,-239"/>
<polygon fill="#9a32cd" stroke="#9a32cd" points="514.319,-234.304 504.645,-238.624 514.901,-241.28 514.319,-234.304"/>
<text text-anchor="middle" x="816" y="-234.317" font-family="FreeSans.ttf" font-size="10.00"> m_security</text>
</g>
<!-- Node8&#45;&gt;Node11 -->
<g id="edge48" class="edge"><title>Node8&#45;&gt;Node11</title>
<path fill="none" stroke="#9a32cd" stroke-dasharray="5,2" d="M514.43,-232.025C599.107,-213.681 768.734,-177.073 782,-175.317 970.849,-150.314 1019.64,-159.561 1210,-152.317 1242.09,-151.096 1278.52,-150.319 1305.29,-149.863"/>
<polygon fill="#9a32cd" stroke="#9a32cd" points="513.573,-228.63 504.541,-234.168 515.055,-235.471 513.573,-228.63"/>
<text text-anchor="middle" x="920" y="-180.317" font-family="FreeSans.ttf" font-size="10.00"> m_idle</text>
<text text-anchor="middle" x="920" y="-168.317" font-family="FreeSans.ttf" font-size="10.00">m_state</text>
</g>
<!-- Node8&#45;&gt;Node12 -->
<g id="edge32" class="edge"><title>Node8&#45;&gt;Node12</title>
<path fill="none" stroke="#9a32cd" stroke-dasharray="5,2" d="M514.851,-247.556C555.842,-252.904 610.886,-262.403 628,-276.317 643.442,-288.871 634.7,-300.935 646,-317.317 659.049,-336.235 678.833,-354.162 691.837,-364.946"/>
<polygon fill="#9a32cd" stroke="#9a32cd" points="515.123,-244.063 504.764,-246.286 514.248,-251.008 515.123,-244.063"/>
<text text-anchor="middle" x="591" y="-303.317" font-family="FreeSans.ttf" font-size="10.00"> m_bytes_sent</text>
<text text-anchor="middle" x="591" y="-291.317" font-family="FreeSans.ttf" font-size="10.00">m_port</text>
<text text-anchor="middle" x="591" y="-279.317" font-family="FreeSans.ttf" font-size="10.00">m_bytes_recvd</text>
</g>
<!-- Node8&#45;&gt;Node20 -->
<g id="edge72" class="edge"><title>Node8&#45;&gt;Node20</title>
<path fill="none" stroke="#9a32cd" stroke-dasharray="5,2" d="M515.025,-238.094C548.248,-237.134 592.66,-239.849 628,-256.317 638.255,-261.095 635.79,-269.442 646,-274.317 726.292,-312.65 834.552,-310.589 887.754,-306.596"/>
<polygon fill="#9a32cd" stroke="#9a32cd" points="514.505,-234.612 504.658,-238.522 514.794,-241.606 514.505,-234.612"/>
<text text-anchor="middle" x="705" y="-308.317" font-family="FreeSans.ttf" font-size="10.00"> m_sex</text>
</g>
<!-- Node9 -->
<g id="node18" class="node"><title>Node9</title>
<a xlink:href="classThing_1_1Brain.xhtml" target="_top" xlink:title="Abstraction layer between player characters (Account&#45;&gt;SocketClient) and non&#45;player characters (AI)...">
<polygon fill="white" stroke="black" points="1307.5,-521.317 1307.5,-541.317 1380.5,-541.317 1380.5,-521.317 1307.5,-521.317"/>
<text text-anchor="middle" x="1344" y="-528.317" font-family="FreeSans.ttf" font-size="10.00">Thing::Brain</text>
</a>
</g>
<!-- Node9&#45;&gt;Node2 -->
<g id="edge20" class="edge"><title>Node9&#45;&gt;Node2</title>
<path fill="none" stroke="#9a32cd" stroke-dasharray="5,2" d="M1297.03,-535.489C1226.51,-541.521 1089.07,-552.387 972,-556.317 925.804,-557.867 914.221,-556.6 868,-556.317 817.06,-556.004 757.169,-555.142 726.099,-554.658"/>
<polygon fill="#9a32cd" stroke="#9a32cd" points="1297.68,-538.945 1307.34,-534.6 1297.08,-531.971 1297.68,-538.945"/>
<text text-anchor="middle" x="1052" y="-558.317" font-family="FreeSans.ttf" font-size="10.00"> m_brain</text>
</g>
<!-- Node10&#45;&gt;Node9 -->
<g id="edge22" class="edge"><title>Node10&#45;&gt;Node9</title>
<path fill="none" stroke="#9a32cd" stroke-dasharray="5,2" d="M1173.59,-258.84C1208.32,-314.38 1310.85,-478.317 1337.57,-521.041"/>
<polygon fill="#9a32cd" stroke="#9a32cd" points="1176.53,-256.956 1168.26,-250.334 1170.6,-260.668 1176.53,-256.956"/>
<text text-anchor="middle" x="1239" y="-405.317" font-family="FreeSans.ttf" font-size="10.00"> m_account</text>
</g>
<!-- Node10&#45;&gt;Node11 -->
<g id="edge34" class="edge"><title>Node10&#45;&gt;Node11</title>
<path fill="none" stroke="#9a32cd" stroke-dasharray="5,2" d="M1192.81,-225.852C1214.04,-215.797 1242.85,-201.98 1268,-189.317 1287.71,-179.393 1310.03,-167.574 1325.36,-159.368"/>
<polygon fill="#9a32cd" stroke="#9a32cd" points="1191.18,-222.753 1183.63,-230.189 1194.17,-229.082 1191.18,-222.753"/>
<text text-anchor="middle" x="1239" y="-221.317" font-family="FreeSans.ttf" font-size="10.00"> m_account</text>
</g>
<!-- Node11&#45;&gt;Node10 -->
<g id="edge24" class="edge"><title>Node11&#45;&gt;Node10</title>
<path fill="none" stroke="#9a32cd" stroke-dasharray="5,2" d="M1295.25,-151.257C1268.37,-154.265 1235.4,-161.292 1210,-177.317 1189.3,-190.377 1174.18,-215.733 1166.89,-229.972"/>
<polygon fill="#9a32cd" stroke="#9a32cd" points="1295.61,-154.739 1305.23,-150.291 1294.94,-147.772 1295.61,-154.739"/>
<text text-anchor="middle" x="1239" y="-180.317" font-family="FreeSans.ttf" font-size="10.00"> m_client</text>
</g>
<!-- Node12&#45;&gt;Node11 -->
<g id="edge26" class="edge"><title>Node12&#45;&gt;Node11</title>
<path fill="none" stroke="midnightblue" d="M740.487,-374.801C812.673,-372.818 981.031,-363.411 1114,-319.317 1188.2,-294.709 1206.86,-283.035 1268,-234.317 1296.95,-211.249 1324.16,-176.527 1336.72,-159.486"/>
<polygon fill="midnightblue" stroke="midnightblue" points="740.06,-371.31 730.148,-375.051 740.23,-378.308 740.06,-371.31"/>
</g>
<!-- Node13 -->
<g id="node26" class="node"><title>Node13</title>
<polygon fill="white" stroke="#bfbfbf" points="435.5,-359.317 435.5,-379.317 498.5,-379.317 498.5,-359.317 435.5,-359.317"/>
<text text-anchor="middle" x="467" y="-366.317" font-family="FreeSans.ttf" font-size="10.00">signed int</text>
</g>
<!-- Node13&#45;&gt;Node12 -->
<g id="edge28" class="edge"><title>Node13&#45;&gt;Node12</title>
<path fill="none" stroke="#9a32cd" stroke-dasharray="5,2" d="M508.829,-368.905C541.334,-368.748 587.544,-368.879 628,-370.317 645.27,-370.931 664.687,-372.195 679.702,-373.299"/>
<polygon fill="#9a32cd" stroke="#9a32cd" points="508.761,-365.405 498.782,-368.965 508.802,-372.405 508.761,-365.405"/>
<text text-anchor="middle" x="591" y="-373.317" font-family="FreeSans.ttf" font-size="10.00"> m_descriptor</text>
</g>
<!-- Node14 -->
<g id="node31" class="node"><title>Node14</title>
<polygon fill="white" stroke="#bfbfbf" points="398,-63.3168 398,-95.3168 536,-95.3168 536,-63.3168 398,-63.3168"/>
<text text-anchor="start" x="406" y="-82.3168" font-family="FreeSans.ttf" font-size="10.00">std::deque&lt; pair&lt; string,</text>
<text text-anchor="middle" x="467" y="-70.3168" font-family="FreeSans.ttf" font-size="10.00"> string &gt; &gt;</text>
</g>
<!-- Node14&#45;&gt;Node11 -->
<g id="edge36" class="edge"><title>Node14&#45;&gt;Node11</title>
<path fill="none" stroke="#9a32cd" stroke-dasharray="5,2" d="M546.516,-79.3168C592.767,-79.3168 652.181,-79.3168 705,-79.3168 705,-79.3168 705,-79.3168 1162,-79.3168 1228.01,-79.3168 1299.06,-119.932 1329.17,-139.287"/>
<polygon fill="#9a32cd" stroke="#9a32cd" points="546.256,-75.8169 536.256,-79.3168 546.256,-82.8169 546.256,-75.8169"/>
<text text-anchor="middle" x="920" y="-82.3168" font-family="FreeSans.ttf" font-size="10.00"> m_command_queue</text>
</g>
<!-- Node15 -->
<g id="node33" class="node"><title>Node15</title>
<polygon fill="white" stroke="#bfbfbf" points="116.5,-112.317 116.5,-132.317 233.5,-132.317 233.5,-112.317 116.5,-112.317"/>
<text text-anchor="middle" x="175" y="-119.317" font-family="FreeSans.ttf" font-size="10.00">pair&lt; string, string &gt;</text>
</g>
<!-- Node15&#45;&gt;Node14 -->
<g id="edge38" class="edge"><title>Node15&#45;&gt;Node14</title>
<path fill="none" stroke="#9a32cd" stroke-dasharray="5,2" d="M243.379,-110.668C246.29,-110.205 249.174,-109.752 252,-109.317 300.609,-101.824 355.529,-94.1742 397.695,-88.4749"/>
<polygon fill="#9a32cd" stroke="#9a32cd" points="242.726,-107.227 233.411,-112.275 243.84,-114.138 242.726,-107.227"/>
<text text-anchor="middle" x="316" y="-112.317" font-family="FreeSans.ttf" font-size="10.00"> elements</text>
</g>
<!-- Node15&#45;&gt;Node21 -->
<g id="edge76" class="edge"><title>Node15&#45;&gt;Node21</title>
<path fill="none" stroke="#9a32cd" stroke-dasharray="5,2" d="M243.908,-124.205C296.036,-125.633 366.549,-127.565 414.241,-128.871"/>
<polygon fill="#9a32cd" stroke="#9a32cd" points="243.831,-120.701 233.739,-123.926 243.64,-127.699 243.831,-120.701"/>
<text text-anchor="middle" x="316" y="-131.317" font-family="FreeSans.ttf" font-size="10.00"> elements</text>
</g>
<!-- Node16&#45;&gt;Node14 -->
<g id="edge40" class="edge"><title>Node16&#45;&gt;Node14</title>
<path fill="none" stroke="orange" stroke-dasharray="5,2" d="M232.735,-62.4969C239.228,-62.0123 245.752,-61.6002 252,-61.3168 308.83,-58.7389 323.407,-55.5236 380,-61.3168 385.831,-61.9136 391.847,-62.7299 397.866,-63.6873"/>
<polygon fill="orange" stroke="orange" points="232.289,-59.0213 222.601,-63.31 232.849,-65.9989 232.289,-59.0213"/>
<text text-anchor="middle" x="316" y="-64.3168" font-family="FreeSans.ttf" font-size="10.00"> &lt; pair&lt; string, string &gt; &gt;</text>
</g>
<!-- Node17 -->
<g id="node38" class="node"><title>Node17</title>
<polygon fill="white" stroke="#bfbfbf" points="686.5,-23.3168 686.5,-43.3168 723.5,-43.3168 723.5,-23.3168 686.5,-23.3168"/>
<text text-anchor="middle" x="705" y="-30.3168" font-family="FreeSans.ttf" font-size="10.00">bool</text>
</g>
<!-- Node17&#45;&gt;Node11 -->
<g id="edge44" class="edge"><title>Node17&#45;&gt;Node11</title>
<path fill="none" stroke="#9a32cd" stroke-dasharray="5,2" d="M734.024,-27.6925C801.104,-15.4878 972.011,11.0586 1114,-5.31676 1183.83,-13.3698 1209.74,-1.99938 1268,-41.3168 1305.63,-66.7094 1330.51,-117.429 1339.86,-139.108"/>
<polygon fill="#9a32cd" stroke="#9a32cd" points="733.003,-24.3221 723.81,-29.5876 734.28,-31.2047 733.003,-24.3221"/>
<text text-anchor="middle" x="1052" y="-8.31676" font-family="FreeSans.ttf" font-size="10.00"> m_quitting</text>
</g>
<!-- Node18 -->
<g id="node42" class="node"><title>Node18</title>
<a xlink:href="classSocketClient_1_1TermInfo.xhtml" target="_top" xlink:title="Remote terminal information and configuration.">
<polygon fill="white" stroke="black" points="990.5,-26.3168 990.5,-46.3168 1113.5,-46.3168 1113.5,-26.3168 990.5,-26.3168"/>
<text text-anchor="middle" x="1052" y="-33.3168" font-family="FreeSans.ttf" font-size="10.00">SocketClient::TermInfo</text>
</a>
</g>
<!-- Node17&#45;&gt;Node18 -->
<g id="edge52" class="edge"><title>Node17&#45;&gt;Node18</title>
<path fill="none" stroke="#9a32cd" stroke-dasharray="5,2" d="M733.932,-33.5669C790.066,-34.0522 914.854,-35.1311 990.363,-35.7839"/>
<polygon fill="#9a32cd" stroke="#9a32cd" points="733.686,-30.0647 723.656,-33.478 733.626,-37.0645 733.686,-30.0647"/>
<text text-anchor="middle" x="816" y="-50.3168" font-family="FreeSans.ttf" font-size="10.00"> m_telopt</text>
<text text-anchor="middle" x="816" y="-38.3168" font-family="FreeSans.ttf" font-size="10.00">m_negotiated</text>
</g>
<!-- Node17&#45;&gt;Node20 -->
<g id="edge70" class="edge"><title>Node17&#45;&gt;Node20</title>
<path fill="none" stroke="#9a32cd" stroke-dasharray="5,2" d="M733.02,-46.2166C766.893,-63.4158 822.739,-97.2508 850,-144.317 880.339,-196.696 832.071,-230.602 868,-279.317 872.957,-286.038 880.26,-290.933 887.835,-294.476"/>
<polygon fill="#9a32cd" stroke="#9a32cd" points="734.196,-42.8946 723.679,-41.6129 731.102,-49.1734 734.196,-42.8946"/>
<text text-anchor="middle" x="816" y="-147.317" font-family="FreeSans.ttf" font-size="10.00"> m_creation</text>
</g>
<!-- Node18&#45;&gt;Node11 -->
<g id="edge50" class="edge"><title>Node18&#45;&gt;Node11</title>
<path fill="none" stroke="#9a32cd" stroke-dasharray="5,2" d="M1123.82,-33.4026C1167.85,-34.5599 1224.01,-41.5123 1268,-65.3168 1301.04,-83.1926 1327.08,-121.153 1338.18,-139.278"/>
<polygon fill="#9a32cd" stroke="#9a32cd" points="1123.82,-29.9022 1113.76,-33.2324 1123.7,-36.9012 1123.82,-29.9022"/>
<text text-anchor="middle" x="1162" y="-43.3168" font-family="FreeSans.ttf" font-size="10.00"> m_terminfo</text>
</g>
<!-- Node19&#45;&gt;Node10 -->
<g id="edge56" class="edge"><title>Node19&#45;&gt;Node10</title>
<path fill="none" stroke="#9a32cd" stroke-dasharray="5,2" d="M774.031,-253.051C876.24,-249.696 1063.35,-243.555 1134,-241.236"/>
<polygon fill="#9a32cd" stroke="#9a32cd" points="773.689,-249.56 763.809,-253.386 773.919,-256.556 773.689,-249.56"/>
<text text-anchor="middle" x="920" y="-253.317" font-family="FreeSans.ttf" font-size="10.00"> m_characters</text>
</g>
<!-- Node20&#45;&gt;Node10 -->
<g id="edge64" class="edge"><title>Node20&#45;&gt;Node10</title>
<path fill="none" stroke="#9a32cd" stroke-dasharray="5,2" d="M962.269,-303.874C1002.71,-302.993 1064.66,-297.885 1114,-277.317 1128.76,-271.163 1142.92,-259.273 1151.98,-250.628"/>
<polygon fill="#9a32cd" stroke="#9a32cd" points="962.171,-300.375 952.221,-304.016 962.269,-307.375 962.171,-300.375"/>
<text text-anchor="middle" x="1052" y="-306.317" font-family="FreeSans.ttf" font-size="10.00"> m_character</text>
</g>
<!-- Node21&#45;&gt;Node10 -->
<g id="edge74" class="edge"><title>Node21&#45;&gt;Node10</title>
<path fill="none" stroke="#9a32cd" stroke-dasharray="5,2" d="M529.587,-139.439C645.206,-156.434 900.008,-194.561 1114,-231.317 1120.43,-232.422 1127.34,-233.676 1133.85,-234.891"/>
<polygon fill="#9a32cd" stroke="#9a32cd" points="529.906,-135.948 519.504,-137.958 528.89,-142.874 529.906,-135.948"/>
<text text-anchor="middle" x="816" y="-191.317" font-family="FreeSans.ttf" font-size="10.00"> m_logins</text>
</g>
<!-- Node22&#45;&gt;Node1 -->
<g id="edge82" class="edge"><title>Node22&#45;&gt;Node1</title>
<path fill="none" stroke="#9a32cd" stroke-dasharray="5,2" d="M1287.37,-680.263C1258.82,-674.314 1223.62,-667.175 1192,-661.317 1157.44,-654.915 1148.87,-652.743 1114,-648.317 1055.47,-640.886 986.595,-635.687 948.672,-633.129"/>
<polygon fill="#9a32cd" stroke="#9a32cd" points="1286.68,-683.693 1297.18,-682.314 1288.11,-676.841 1286.68,-683.693"/>
<text text-anchor="middle" x="1162" y="-664.317" font-family="FreeSans.ttf" font-size="10.00"> m_exits</text>
</g>
<!-- Node23&#45;&gt;Node22 -->
<g id="edge84" class="edge"><title>Node23&#45;&gt;Node22</title>
<path fill="none" stroke="#9a32cd" stroke-dasharray="5,2" d="M1189.15,-692.317C1214.61,-692.317 1253.52,-692.317 1285.96,-692.317"/>
<polygon fill="#9a32cd" stroke="#9a32cd" points="1189.12,-688.817 1179.12,-692.317 1189.12,-695.817 1189.12,-688.817"/>
<text text-anchor="middle" x="1239" y="-695.317" font-family="FreeSans.ttf" font-size="10.00"> elements</text>
</g>
</g>
</svg>
