<?xml version="1.0" encoding="UTF-8" standalone="no"?>
<!DOCTYPE svg PUBLIC "-//W3C//DTD SVG 1.1//EN"
 "http://www.w3.org/Graphics/SVG/1.1/DTD/svg11.dtd">
<!-- Generated by graphviz version 2.26.3 (20100126.1600)
 -->
<!-- Title: G Pages: 1 -->
<svg width="500pt" height="106pt"
 viewBox="0.00 0.00 500.00 106.06" xmlns="http://www.w3.org/2000/svg" xmlns:xlink="http://www.w3.org/1999/xlink">
<g id="graph1" class="graph" transform="scale(1 1) rotate(0) translate(4 102.059)">
<title>G</title>
<polygon fill="white" stroke="white" points="-4,5 -4,-102.059 497,-102.059 497,5 -4,5"/>
<!-- Node1 -->
<g id="node1" class="node"><title>Node1</title>
<polygon fill="#bfbfbf" stroke="black" points="0,-37.5592 0,-58.5592 144,-58.5592 144,-37.5592 0,-37.5592"/>
<text text-anchor="middle" x="72" y="-45.5592" font-family="FreeSans.ttf" font-size="10.00">SocketClient::ProcessInput</text>
</g>
<!-- Node2 -->
<g id="node3" class="node"><title>Node2</title>
<a xlink:href="classSocket.xhtml#a508457b48e6296d1e86c7cc72af65948" target="_top" xlink:title="Socket::Valid">
<polygon fill="white" stroke="black" points="397,-76.5592 397,-97.5592 475,-97.5592 475,-76.5592 397,-76.5592"/>
<text text-anchor="middle" x="436" y="-84.5592" font-family="FreeSans.ttf" font-size="10.00">Socket::Valid</text>
</a>
</g>
<!-- Node1&#45;&gt;Node2 -->
<g id="edge2" class="edge"><title>Node1&#45;&gt;Node2</title>
<path fill="none" stroke="midnightblue" d="M93.6923,-58.7064C115.053,-68.5552 148.904,-82.4857 180,-88.0592 250.805,-100.75 334.406,-96.9943 386.322,-92.5152"/>
<polygon fill="midnightblue" stroke="midnightblue" points="386.943,-95.9733 396.586,-91.5843 386.311,-89.0019 386.943,-95.9733"/>
</g>
<!-- Node3 -->
<g id="node5" class="node"><title>Node3</title>
<a xlink:href="classSocket.xhtml#a45d3aa99d71b868921543a4708471f82" target="_top" xlink:title="Socket::gDescriptor">
<polygon fill="white" stroke="black" points="380.5,-17.5592 380.5,-38.5592 491.5,-38.5592 491.5,-17.5592 380.5,-17.5592"/>
<text text-anchor="middle" x="436" y="-25.5592" font-family="FreeSans.ttf" font-size="10.00">Socket::gDescriptor</text>
</a>
</g>
<!-- Node1&#45;&gt;Node3 -->
<g id="edge4" class="edge"><title>Node1&#45;&gt;Node3</title>
<path fill="none" stroke="midnightblue" d="M93.6923,-37.4121C115.053,-27.5633 148.904,-13.6328 180,-8.05924 251.746,4.80014 271.528,-0.272808 344,-8.05924 357.857,-9.54807 372.69,-12.2638 386.31,-15.2241"/>
<polygon fill="midnightblue" stroke="midnightblue" points="385.928,-18.7259 396.454,-17.5191 387.473,-11.8985 385.928,-18.7259"/>
</g>
<!-- Node4 -->
<g id="node7" class="node"><title>Node4</title>
<a xlink:href="namespaceUtils.xhtml#a8c70e85acdb1549aa4cd3a16b8d8d9cf" target="_top" xlink:title="Returns a vector of strings split at linebreaks based on input.">
<polygon fill="white" stroke="black" points="212,-17.5592 212,-38.5592 312,-38.5592 312,-17.5592 212,-17.5592"/>
<text text-anchor="middle" x="262" y="-25.5592" font-family="FreeSans.ttf" font-size="10.00">Utils::StrNewlines</text>
</a>
</g>
<!-- Node1&#45;&gt;Node4 -->
<g id="edge6" class="edge"><title>Node1&#45;&gt;Node4</title>
<path fill="none" stroke="midnightblue" d="M144.102,-40.4696C163.146,-38.465 183.495,-36.3229 201.834,-34.3925"/>
<polygon fill="midnightblue" stroke="midnightblue" points="202.216,-37.8717 211.795,-33.344 201.483,-30.9102 202.216,-37.8717"/>
</g>
<!-- Node5 -->
<g id="node9" class="node"><title>Node5</title>
<a xlink:href="classSocketClient.xhtml#aa3c0d7886b8fede981c73031cfaf17c6" target="_top" xlink:title="Append a command to the back of the queue.">
<polygon fill="white" stroke="black" points="180,-57.5592 180,-78.5592 344,-78.5592 344,-57.5592 180,-57.5592"/>
<text text-anchor="middle" x="262" y="-65.5592" font-family="FreeSans.ttf" font-size="10.00">SocketClient::QueueCommand</text>
</a>
</g>
<!-- Node1&#45;&gt;Node5 -->
<g id="edge8" class="edge"><title>Node1&#45;&gt;Node5</title>
<path fill="none" stroke="midnightblue" d="M144.102,-55.6489C152.477,-56.5305 161.105,-57.4387 169.703,-58.3438"/>
<polygon fill="midnightblue" stroke="midnightblue" points="169.455,-61.8369 179.767,-59.4031 170.188,-54.8754 169.455,-61.8369"/>
</g>
<!-- Node5&#45;&gt;Node2 -->
<g id="edge10" class="edge"><title>Node5&#45;&gt;Node2</title>
<path fill="none" stroke="midnightblue" d="M344.159,-77.0307C358.601,-78.6077 373.221,-80.2041 386.422,-81.6455"/>
<polygon fill="midnightblue" stroke="midnightblue" points="386.352,-85.1586 396.673,-82.7649 387.112,-78.2 386.352,-85.1586"/>
</g>
<!-- Node5&#45;&gt;Node3 -->
<g id="edge12" class="edge"><title>Node5&#45;&gt;Node3</title>
<path fill="none" stroke="midnightblue" d="M307.716,-57.5497C330.007,-52.4255 357.004,-46.2193 380.47,-40.8247"/>
<polygon fill="midnightblue" stroke="midnightblue" points="381.325,-44.2195 390.287,-38.568 379.757,-37.3974 381.325,-44.2195"/>
</g>
</g>
</svg>
