<?xml version="1.0" encoding="UTF-8" standalone="no"?>
<!DOCTYPE svg PUBLIC "-//W3C//DTD SVG 1.1//EN"
 "http://www.w3.org/Graphics/SVG/1.1/DTD/svg11.dtd">
<!-- Generated by graphviz version 2.26.3 (20100126.1600)
 -->
<!-- Title: G Pages: 1 -->
<svg width="389pt" height="408pt"
 viewBox="0.00 0.00 389.00 408.00" xmlns="http://www.w3.org/2000/svg" xmlns:xlink="http://www.w3.org/1999/xlink">
<g id="graph1" class="graph" transform="scale(1 1) rotate(0) translate(4 404)">
<title>G</title>
<polygon fill="white" stroke="white" points="-4,5 -4,-404 386,-404 386,5 -4,5"/>
<!-- Node1 -->
<g id="node1" class="node"><title>Node1</title>
<polygon fill="#bfbfbf" stroke="black" points="98.5,-84.5 98.5,-105.5 179.5,-105.5 179.5,-84.5 98.5,-84.5"/>
<text text-anchor="middle" x="139" y="-92.5" font-family="FreeSans.ttf" font-size="10.00">SocketServer</text>
</g>
<!-- Node8 -->
<g id="node14" class="node"><title>Node8</title>
<a xlink:href="classServer.xhtml" target="_top" xlink:title="Server">
<polygon fill="white" stroke="black" points="126,-0.5 126,-21.5 174,-21.5 174,-0.5 126,-0.5"/>
<text text-anchor="middle" x="150" y="-8.5" font-family="FreeSans.ttf" font-size="10.00">Server</text>
</a>
</g>
<!-- Node1&#45;&gt;Node8 -->
<g id="edge22" class="edge"><title>Node1&#45;&gt;Node8</title>
<path fill="none" stroke="#9a32cd" stroke-dasharray="5,2" d="M141.694,-74.4249C143.885,-57.6927 146.888,-34.7645 148.618,-21.5523"/>
<polygon fill="#9a32cd" stroke="#9a32cd" points="138.221,-73.9915 140.393,-84.3613 145.162,-74.9005 138.221,-73.9915"/>
<text text-anchor="middle" x="172" y="-50.5" font-family="FreeSans.ttf" font-size="10.00"> m_socket</text>
</g>
<!-- Node2 -->
<g id="node2" class="node"><title>Node2</title>
<a xlink:href="classSocket.xhtml" target="_top" xlink:title="Socket">
<polygon fill="white" stroke="black" points="128,-208.5 128,-229.5 178,-229.5 178,-208.5 128,-208.5"/>
<text text-anchor="middle" x="153" y="-216.5" font-family="FreeSans.ttf" font-size="10.00">Socket</text>
</a>
</g>
<!-- Node2&#45;&gt;Node1 -->
<g id="edge2" class="edge"><title>Node2&#45;&gt;Node1</title>
<path fill="none" stroke="midnightblue" d="M150.656,-198.241C147.637,-171.498 142.503,-126.022 140.191,-105.545"/>
<polygon fill="midnightblue" stroke="midnightblue" points="147.206,-198.884 151.806,-208.428 154.162,-198.098 147.206,-198.884"/>
</g>
<!-- Node3 -->
<g id="node4" class="node"><title>Node3</title>
<a xlink:href="classThread.xhtml" target="_top" xlink:title="Thread">
<polygon fill="white" stroke="black" points="96,-306.5 96,-327.5 146,-327.5 146,-306.5 96,-306.5"/>
<text text-anchor="middle" x="121" y="-314.5" font-family="FreeSans.ttf" font-size="10.00">Thread</text>
</a>
</g>
<!-- Node3&#45;&gt;Node2 -->
<g id="edge4" class="edge"><title>Node3&#45;&gt;Node2</title>
<path fill="none" stroke="midnightblue" d="M134.114,-297.978C135.955,-294.747 137.67,-291.351 139,-288 146.846,-268.232 150.494,-243.46 152.026,-229.618"/>
<polygon fill="midnightblue" stroke="midnightblue" points="131.138,-296.136 128.804,-306.47 137.073,-299.847 131.138,-296.136"/>
</g>
<!-- Node4 -->
<g id="node6" class="node"><title>Node4</title>
<polygon fill="white" stroke="#bfbfbf" points="71.5,-378.5 71.5,-399.5 170.5,-399.5 170.5,-378.5 71.5,-378.5"/>
<text text-anchor="middle" x="121" y="-386.5" font-family="FreeSans.ttf" font-size="10.00">pthread_mutex_t</text>
</g>
<!-- Node4&#45;&gt;Node3 -->
<g id="edge6" class="edge"><title>Node4&#45;&gt;Node3</title>
<path fill="none" stroke="#9a32cd" stroke-dasharray="5,2" d="M121,-368.235C121,-354.969 121,-338.319 121,-327.667"/>
<polygon fill="#9a32cd" stroke="#9a32cd" points="117.5,-368.376 121,-378.376 124.5,-368.376 117.5,-368.376"/>
<text text-anchor="middle" x="145.5" y="-350.5" font-family="FreeSans.ttf" font-size="10.00"> m_mutex</text>
</g>
<!-- Node5 -->
<g id="node8" class="node"><title>Node5</title>
<polygon fill="white" stroke="#bfbfbf" points="164,-306.5 164,-327.5 208,-327.5 208,-306.5 164,-306.5"/>
<text text-anchor="middle" x="186" y="-314.5" font-family="FreeSans.ttf" font-size="10.00">string</text>
</g>
<!-- Node5&#45;&gt;Node2 -->
<g id="edge8" class="edge"><title>Node5&#45;&gt;Node2</title>
<path fill="none" stroke="#9a32cd" stroke-dasharray="5,2" d="M179.104,-296.521C172.233,-276.116 161.954,-245.589 156.574,-229.613"/>
<polygon fill="#9a32cd" stroke="#9a32cd" points="175.834,-297.778 182.342,-306.138 182.468,-295.544 175.834,-297.778"/>
<text text-anchor="middle" x="209.5" y="-265.5" font-family="FreeSans.ttf" font-size="10.00"> m_hostname</text>
</g>
<!-- Node6 -->
<g id="node10" class="node"><title>Node6</title>
<polygon fill="white" stroke="#bfbfbf" points="244.5,-306.5 244.5,-327.5 307.5,-327.5 307.5,-306.5 244.5,-306.5"/>
<text text-anchor="middle" x="276" y="-314.5" font-family="FreeSans.ttf" font-size="10.00">signed int</text>
</g>
<!-- Node6&#45;&gt;Node2 -->
<g id="edge10" class="edge"><title>Node6&#45;&gt;Node2</title>
<path fill="none" stroke="#9a32cd" stroke-dasharray="5,2" d="M272.171,-296.161C268.314,-280.835 260.871,-260.566 247,-248 236.811,-238.77 202.259,-229.679 178.018,-224.203"/>
<polygon fill="#9a32cd" stroke="#9a32cd" points="268.826,-297.248 274.386,-306.266 275.663,-295.749 268.826,-297.248"/>
<text text-anchor="middle" x="302.5" y="-265.5" font-family="FreeSans.ttf" font-size="10.00"> m_descriptor</text>
</g>
<!-- Node7 -->
<g id="node12" class="node"><title>Node7</title>
<polygon fill="white" stroke="#bfbfbf" points="-0.5,-306.5 -0.5,-327.5 74.5,-327.5 74.5,-306.5 -0.5,-306.5"/>
<text text-anchor="middle" x="37" y="-314.5" font-family="FreeSans.ttf" font-size="10.00">unsigned int</text>
</g>
<!-- Node7&#45;&gt;Node2 -->
<g id="edge12" class="edge"><title>Node7&#45;&gt;Node2</title>
<path fill="none" stroke="#9a32cd" stroke-dasharray="5,2" d="M42.2237,-296.653C47.1607,-278.877 54.8555,-254.87 62,-248 71.5017,-238.863 104.304,-229.889 127.799,-224.4"/>
<polygon fill="#9a32cd" stroke="#9a32cd" points="38.8023,-295.899 39.5981,-306.464 45.5644,-297.709 38.8023,-295.899"/>
<text text-anchor="middle" x="98.5" y="-278.5" font-family="FreeSans.ttf" font-size="10.00"> m_bytes_sent</text>
<text text-anchor="middle" x="98.5" y="-265.5" font-family="FreeSans.ttf" font-size="10.00">m_port</text>
<text text-anchor="middle" x="98.5" y="-252.5" font-family="FreeSans.ttf" font-size="10.00">m_bytes_recvd</text>
</g>
<!-- Node7&#45;&gt;Node8 -->
<g id="edge20" class="edge"><title>Node7&#45;&gt;Node8</title>
<path fill="none" stroke="#9a32cd" stroke-dasharray="5,2" d="M32.9266,-296.308C24.3326,-246.259 9.83832,-117.111 71,-40 77.9909,-31.186 105.159,-22.4819 125.699,-16.9451"/>
<polygon fill="#9a32cd" stroke="#9a32cd" points="29.5023,-297.04 34.74,-306.249 36.3887,-295.784 29.5023,-297.04"/>
<text text-anchor="middle" x="71.5" y="-180.5" font-family="FreeSans.ttf" font-size="10.00"> m_dir_close</text>
<text text-anchor="middle" x="71.5" y="-167.5" font-family="FreeSans.ttf" font-size="10.00">m_socket_close</text>
<text text-anchor="middle" x="71.5" y="-154.5" font-family="FreeSans.ttf" font-size="10.00">m_port</text>
<text text-anchor="middle" x="71.5" y="-141.5" font-family="FreeSans.ttf" font-size="10.00">m_dir_open</text>
<text text-anchor="middle" x="71.5" y="-128.5" font-family="FreeSans.ttf" font-size="10.00">m_socket_open</text>
</g>
<!-- Node8&#45;&gt;Node1 -->
<g id="edge14" class="edge"><title>Node8&#45;&gt;Node1</title>
<path fill="none" stroke="#9a32cd" stroke-dasharray="5,2" d="M116.015,-16.383C102.117,-20.4398 87.3643,-27.5484 79,-40 72.5564,-49.5922 72.8591,-56.2112 79,-66 84.1647,-74.2325 92.4,-80.1848 101.135,-84.4668"/>
<polygon fill="#9a32cd" stroke="#9a32cd" points="117.017,-19.7404 125.88,-13.9356 115.332,-12.9464 117.017,-19.7404"/>
<text text-anchor="middle" x="103.5" y="-50.5" font-family="FreeSans.ttf" font-size="10.00"> m_server</text>
</g>
<!-- Node9 -->
<g id="node16" class="node"><title>Node9</title>
<polygon fill="white" stroke="#bfbfbf" points="197,-84.5 197,-105.5 249,-105.5 249,-84.5 197,-84.5"/>
<text text-anchor="middle" x="223" y="-92.5" font-family="FreeSans.ttf" font-size="10.00">timeval</text>
</g>
<!-- Node9&#45;&gt;Node8 -->
<g id="edge16" class="edge"><title>Node9&#45;&gt;Node8</title>
<path fill="none" stroke="#9a32cd" stroke-dasharray="5,2" d="M218.314,-74.357C214.961,-63.1992 209.503,-49.7506 201,-40 193.77,-31.7091 183.564,-25.2523 174.179,-20.5576"/>
<polygon fill="#9a32cd" stroke="#9a32cd" points="214.967,-75.3893 220.915,-84.1572 221.733,-73.594 214.967,-75.3893"/>
<text text-anchor="middle" x="255" y="-57" font-family="FreeSans.ttf" font-size="10.00"> m_time_current</text>
<text text-anchor="middle" x="255" y="-44" font-family="FreeSans.ttf" font-size="10.00">m_time_boot</text>
</g>
<!-- Node10 -->
<g id="node18" class="node"><title>Node10</title>
<polygon fill="white" stroke="#bfbfbf" points="307.5,-84.5 307.5,-105.5 344.5,-105.5 344.5,-84.5 307.5,-84.5"/>
<text text-anchor="middle" x="326" y="-92.5" font-family="FreeSans.ttf" font-size="10.00">bool</text>
</g>
<!-- Node10&#45;&gt;Node8 -->
<g id="edge18" class="edge"><title>Node10&#45;&gt;Node8</title>
<path fill="none" stroke="#9a32cd" stroke-dasharray="5,2" d="M320.933,-74.6562C316.926,-62.7787 310.106,-48.5014 299,-40 279.748,-25.2628 211.197,-16.7289 174.16,-13.0943"/>
<polygon fill="#9a32cd" stroke="#9a32cd" points="317.583,-75.6686 323.768,-84.2708 324.297,-73.6892 317.583,-75.6686"/>
<text text-anchor="middle" x="349" y="-50.5" font-family="FreeSans.ttf" font-size="10.00"> m_shutdown</text>
</g>
</g>
</svg>
