<?xml version="1.0" encoding="UTF-8" standalone="no"?>
<!DOCTYPE svg PUBLIC "-//W3C//DTD SVG 1.1//EN"
 "http://www.w3.org/Graphics/SVG/1.1/DTD/svg11.dtd">
<!-- Generated by graphviz version 2.26.3 (20100126.1600)
 -->
<!-- Title: Server::Config::Unserialize Pages: 1 -->
<svg width="356pt" height="28pt"
 viewBox="0.00 0.00 356.00 28.00" xmlns="http://www.w3.org/2000/svg" xmlns:xlink="http://www.w3.org/1999/xlink">
<g id="graph1" class="graph" transform="scale(1 1) rotate(0) translate(4 24)">
<title>Server::Config::Unserialize</title>
<polygon fill="white" stroke="white" points="-4,5 -4,-24 353,-24 353,5 -4,5"/>
<!-- Node1 -->
<g id="node1" class="node"><title>Node1</title>
<polygon fill="#bfbfbf" stroke="black" points="0.5,-0 0.5,-20 143.5,-20 143.5,-0 0.5,-0"/>
<text text-anchor="middle" x="72" y="-7" font-family="FreeSans.ttf" font-size="10.00">Server::Config::Unserialize</text>
</g>
<!-- Node2 -->
<g id="node3" class="node"><title>Node2</title>
<a xlink:href="namespaceServer.xhtml#a19a1e493e1fb50a56d9c77332543d565" target="_top" xlink:title="Start the NAMS Server. Responsible for calling all critical boot&#45;time functions such as SocketServer ...">
<polygon fill="white" stroke="black" points="180,-0 180,-20 270,-20 270,-0 180,-0"/>
<text text-anchor="middle" x="225" y="-7" font-family="FreeSans.ttf" font-size="10.00">Server::Startup</text>
</a>
</g>
<!-- Node1&#45;&gt;Node2 -->
<g id="edge2" class="edge"><title>Node1&#45;&gt;Node2</title>
<path fill="none" stroke="midnightblue" d="M153.665,-10C162.591,-10 171.423,-10 179.672,-10"/>
<polygon fill="midnightblue" stroke="midnightblue" points="153.572,-6.5001 143.572,-10 153.572,-13.5001 153.572,-6.5001"/>
</g>
<!-- Node3 -->
<g id="node5" class="node"><title>Node3</title>
<a xlink:href="main_8cpp.xhtml#ad53223b8779f25caeddb70a3b9172967" target="_top" xlink:title="The default function required to execute the server.">
<polygon fill="white" stroke="black" points="306.5,-0 306.5,-20 347.5,-20 347.5,-0 306.5,-0"/>
<text text-anchor="middle" x="327" y="-7" font-family="FreeSans.ttf" font-size="10.00">main</text>
</a>
</g>
<!-- Node2&#45;&gt;Node3 -->
<g id="edge4" class="edge"><title>Node2&#45;&gt;Node3</title>
<path fill="none" stroke="midnightblue" d="M280.203,-10C289.56,-10 298.726,-10 306.432,-10"/>
<polygon fill="midnightblue" stroke="midnightblue" points="280.036,-6.5001 270.036,-10 280.036,-13.5001 280.036,-6.5001"/>
</g>
</g>
</svg>
