<?xml version="1.0" encoding="UTF-8" standalone="no"?>
<!DOCTYPE svg PUBLIC "-//W3C//DTD SVG 1.1//EN"
 "http://www.w3.org/Graphics/SVG/1.1/DTD/svg11.dtd">
<!-- Generated by graphviz version 2.26.3 (20100126.1600)
 -->
<!-- Title: G Pages: 1 -->
<svg width="464pt" height="30pt"
 viewBox="0.00 0.00 464.00 30.00" xmlns="http://www.w3.org/2000/svg" xmlns:xlink="http://www.w3.org/1999/xlink">
<g id="graph1" class="graph" transform="scale(1 1) rotate(0) translate(4 26)">
<title>G</title>
<polygon fill="white" stroke="white" points="-4,5 -4,-26 461,-26 461,5 -4,5"/>
<!-- Node1 -->
<g id="node1" class="node"><title>Node1</title>
<polygon fill="#bfbfbf" stroke="black" points="0.5,-0.5 0.5,-21.5 105.5,-21.5 105.5,-0.5 0.5,-0.5"/>
<text text-anchor="middle" x="53" y="-8.5" font-family="FreeSans.ttf" font-size="10.00">SocketClient::gIdle</text>
</g>
<!-- Node2 -->
<g id="node3" class="node"><title>Node2</title>
<a xlink:href="namespaceServer.xhtml#a39dbe16fdc8c5f6fbd678c6540fbcd6c" target="_top" xlink:title="Poll all SocketClient objects that are communicating with the associated SocketServer object...">
<polygon fill="white" stroke="black" points="142.5,-0.5 142.5,-21.5 251.5,-21.5 251.5,-0.5 142.5,-0.5"/>
<text text-anchor="middle" x="197" y="-8.5" font-family="FreeSans.ttf" font-size="10.00">Server::PollSockets</text>
</a>
</g>
<!-- Node1&#45;&gt;Node2 -->
<g id="edge2" class="edge"><title>Node1&#45;&gt;Node2</title>
<path fill="none" stroke="midnightblue" d="M115.973,-11C124.734,-11 133.677,-11 142.271,-11"/>
<polygon fill="midnightblue" stroke="midnightblue" points="115.803,-7.5001 105.803,-11 115.803,-14.5001 115.803,-7.5001"/>
</g>
<!-- Node3 -->
<g id="node5" class="node"><title>Node3</title>
<a xlink:href="namespaceServer.xhtml#a50b81aa91d8fdaee6f52c5c5ec987990" target="_top" xlink:title="The core update loop of NAMS. This loop spawns all other subsystem update routines and then sleeps fo...">
<polygon fill="white" stroke="black" points="288.5,-0.5 288.5,-21.5 377.5,-21.5 377.5,-0.5 288.5,-0.5"/>
<text text-anchor="middle" x="333" y="-8.5" font-family="FreeSans.ttf" font-size="10.00">Server::Update</text>
</a>
</g>
<!-- Node2&#45;&gt;Node3 -->
<g id="edge4" class="edge"><title>Node2&#45;&gt;Node3</title>
<path fill="none" stroke="midnightblue" d="M261.698,-11C270.761,-11 279.903,-11 288.477,-11"/>
<polygon fill="midnightblue" stroke="midnightblue" points="261.533,-7.5001 251.533,-11 261.533,-14.5001 261.533,-7.5001"/>
</g>
<!-- Node4 -->
<g id="node7" class="node"><title>Node4</title>
<a xlink:href="main_8cpp.xhtml#ad53223b8779f25caeddb70a3b9172967" target="_top" xlink:title="The default function required to execute the server.">
<polygon fill="white" stroke="black" points="414.5,-0.5 414.5,-21.5 455.5,-21.5 455.5,-0.5 414.5,-0.5"/>
<text text-anchor="middle" x="435" y="-8.5" font-family="FreeSans.ttf" font-size="10.00">main</text>
</a>
</g>
<!-- Node3&#45;&gt;Node4 -->
<g id="edge6" class="edge"><title>Node3&#45;&gt;Node4</title>
<path fill="none" stroke="midnightblue" d="M387.942,-11C397.336,-11 406.55,-11 414.3,-11"/>
<polygon fill="midnightblue" stroke="midnightblue" points="387.739,-7.5001 377.739,-11 387.739,-14.5001 387.739,-7.5001"/>
</g>
</g>
</svg>
