<?xml version="1.0" encoding="UTF-8" standalone="no"?>
<!DOCTYPE svg PUBLIC "-//W3C//DTD SVG 1.1//EN"
 "http://www.w3.org/Graphics/SVG/1.1/DTD/svg11.dtd">
<!-- Generated by graphviz version 2.26.3 (20100126.1600)
 -->
<!-- Title: G Pages: 1 -->
<svg width="438pt" height="30pt"
 viewBox="0.00 0.00 438.00 30.00" xmlns="http://www.w3.org/2000/svg" xmlns:xlink="http://www.w3.org/1999/xlink">
<g id="graph1" class="graph" transform="scale(1 1) rotate(0) translate(4 26)">
<title>G</title>
<polygon fill="white" stroke="white" points="-4,5 -4,-26 435,-26 435,5 -4,5"/>
<!-- Node1 -->
<g id="node1" class="node"><title>Node1</title>
<polygon fill="#bfbfbf" stroke="black" points="0,-0.5 0,-21.5 74,-21.5 74,-0.5 0,-0.5"/>
<text text-anchor="middle" x="37" y="-8.5" font-family="FreeSans.ttf" font-size="10.00">Server::ITER</text>
</g>
<!-- Node2 -->
<g id="node3" class="node"><title>Node2</title>
<a xlink:href="classServer_a7f5259e36a6bcf3a78a5bede522c3632.xhtml#a7f5259e36a6bcf3a78a5bede522c3632" target="_top" xlink:title="Server::ProcessInput">
<polygon fill="white" stroke="black" points="110,-0.5 110,-21.5 226,-21.5 226,-0.5 110,-0.5"/>
<text text-anchor="middle" x="168" y="-8.5" font-family="FreeSans.ttf" font-size="10.00">Server::ProcessInput</text>
</a>
</g>
<!-- Node1&#45;&gt;Node2 -->
<g id="edge2" class="edge"><title>Node1&#45;&gt;Node2</title>
<path fill="none" stroke="midnightblue" d="M84.3332,-11C92.5509,-11 101.183,-11 109.653,-11"/>
<polygon fill="midnightblue" stroke="midnightblue" points="84.189,-7.5001 74.1889,-11 84.1889,-14.5001 84.189,-7.5001"/>
</g>
<!-- Node3 -->
<g id="node5" class="node"><title>Node3</title>
<a xlink:href="classServer_a50b81aa91d8fdaee6f52c5c5ec987990.xhtml#a50b81aa91d8fdaee6f52c5c5ec987990" target="_top" xlink:title="Server::Update">
<polygon fill="white" stroke="black" points="262.5,-0.5 262.5,-21.5 351.5,-21.5 351.5,-0.5 262.5,-0.5"/>
<text text-anchor="middle" x="307" y="-8.5" font-family="FreeSans.ttf" font-size="10.00">Server::Update</text>
</a>
</g>
<!-- Node2&#45;&gt;Node3 -->
<g id="edge4" class="edge"><title>Node2&#45;&gt;Node3</title>
<path fill="none" stroke="midnightblue" d="M236.39,-11C245.156,-11 253.945,-11 262.2,-11"/>
<polygon fill="midnightblue" stroke="midnightblue" points="236.143,-7.5001 226.143,-11 236.143,-14.5001 236.143,-7.5001"/>
</g>
<!-- Node4 -->
<g id="node7" class="node"><title>Node4</title>
<a xlink:href="main_8cpp_ad53223b8779f25caeddb70a3b9172967.xhtml#ad53223b8779f25caeddb70a3b9172967" target="_top" xlink:title="The default function required to execute the server.">
<polygon fill="white" stroke="black" points="388.5,-0.5 388.5,-21.5 429.5,-21.5 429.5,-0.5 388.5,-0.5"/>
<text text-anchor="middle" x="409" y="-8.5" font-family="FreeSans.ttf" font-size="10.00">main</text>
</a>
</g>
<!-- Node3&#45;&gt;Node4 -->
<g id="edge6" class="edge"><title>Node3&#45;&gt;Node4</title>
<path fill="none" stroke="midnightblue" d="M361.942,-11C371.336,-11 380.55,-11 388.3,-11"/>
<polygon fill="midnightblue" stroke="midnightblue" points="361.739,-7.5001 351.739,-11 361.739,-14.5001 361.739,-7.5001"/>
</g>
</g>
</svg>
