<?xml version="1.0" encoding="UTF-8" standalone="no"?>
<!DOCTYPE svg PUBLIC "-//W3C//DTD SVG 1.1//EN"
 "http://www.w3.org/Graphics/SVG/1.1/DTD/svg11.dtd">
<!-- Generated by graphviz version 2.26.3 (20100126.1600)
 -->
<!-- Title: G Pages: 1 -->
<svg width="316pt" height="110pt"
 viewBox="0.00 0.00 316.00 110.00" xmlns="http://www.w3.org/2000/svg" xmlns:xlink="http://www.w3.org/1999/xlink">
<g id="graph1" class="graph" transform="scale(1 1) rotate(0) translate(4 106)">
<title>G</title>
<polygon fill="white" stroke="white" points="-4,5 -4,-106 313,-106 313,5 -4,5"/>
<!-- Node1 -->
<g id="node1" class="node"><title>Node1</title>
<polygon fill="#bfbfbf" stroke="black" points="0.5,-40.5 0.5,-61.5 119.5,-61.5 119.5,-40.5 0.5,-40.5"/>
<text text-anchor="middle" x="60" y="-48.5" font-family="FreeSans.ttf" font-size="10.00">SocketServer::Delete</text>
</g>
<!-- Node2 -->
<g id="node3" class="node"><title>Node2</title>
<a xlink:href="classSocket.xhtml#a508457b48e6296d1e86c7cc72af65948" target="_top" xlink:title="Return if the Socket is valid for use.">
<polygon fill="white" stroke="black" points="193,-80.5 193,-101.5 271,-101.5 271,-80.5 193,-80.5"/>
<text text-anchor="middle" x="232" y="-88.5" font-family="FreeSans.ttf" font-size="10.00">Socket::Valid</text>
</a>
</g>
<!-- Node1&#45;&gt;Node2 -->
<g id="edge2" class="edge"><title>Node1&#45;&gt;Node2</title>
<path fill="none" stroke="midnightblue" d="M105.191,-61.5095C129.16,-67.0838 158.636,-73.9386 183.135,-79.636"/>
<polygon fill="midnightblue" stroke="midnightblue" points="182.417,-83.0625 192.95,-81.9187 184.003,-76.2445 182.417,-83.0625"/>
</g>
<!-- Node3 -->
<g id="node5" class="node"><title>Node3</title>
<a xlink:href="classServer_1_1Stats.xhtml#a9e9cff0e2ed046f840c5393d27016e60" target="_top" xlink:title="Set the amount of subordinate SocketClient and SocketServer objects that have been closed on a NAMS S...">
<polygon fill="white" stroke="black" points="157,-40.5 157,-61.5 307,-61.5 307,-40.5 157,-40.5"/>
<text text-anchor="middle" x="232" y="-48.5" font-family="FreeSans.ttf" font-size="10.00">Server::Stats::sSocketClose</text>
</a>
</g>
<!-- Node1&#45;&gt;Node3 -->
<g id="edge4" class="edge"><title>Node1&#45;&gt;Node3</title>
<path fill="none" stroke="midnightblue" d="M119.675,-51C128.416,-51 137.559,-51 146.692,-51"/>
<polygon fill="midnightblue" stroke="midnightblue" points="146.977,-54.5001 156.977,-51 146.977,-47.5001 146.977,-54.5001"/>
</g>
<!-- Node4 -->
<g id="node7" class="node"><title>Node4</title>
<a xlink:href="classServer_1_1Stats.xhtml#ab8b67dac3edf34148bfbc4059fca8b97" target="_top" xlink:title="Returns the combined number of SocketClient and SocketServer objects that have been destroyed...">
<polygon fill="white" stroke="black" points="156.5,-0.5 156.5,-21.5 307.5,-21.5 307.5,-0.5 156.5,-0.5"/>
<text text-anchor="middle" x="232" y="-8.5" font-family="FreeSans.ttf" font-size="10.00">Server::Stats::gSocketClose</text>
</a>
</g>
<!-- Node1&#45;&gt;Node4 -->
<g id="edge6" class="edge"><title>Node1&#45;&gt;Node4</title>
<path fill="none" stroke="midnightblue" d="M105.191,-40.4905C127.127,-35.3892 153.673,-29.2155 176.798,-23.8378"/>
<polygon fill="midnightblue" stroke="midnightblue" points="177.865,-27.183 186.813,-21.5087 176.28,-20.3649 177.865,-27.183"/>
</g>
</g>
</svg>
