<?xml version="1.0" encoding="UTF-8" standalone="no"?>
<!DOCTYPE svg PUBLIC "-//W3C//DTD SVG 1.1//EN"
 "http://www.w3.org/Graphics/SVG/1.1/DTD/svg11.dtd">
<!-- Generated by graphviz version 2.26.3 (20100126.1600)
 -->
<!-- Title: G Pages: 1 -->
<!--zoomable 666 -->
<svg id="main" version="1.1" xmlns="http://www.w3.org/2000/svg" xmlns:xlink="http://www.w3.org/1999/xlink" xml:space="preserve" onload="init(evt)">
        <defs>
                <circle id="rim" cx="0" cy="0" r="7"/>
                <circle id="rim2" cx="0" cy="0" r="3.5"/>
                <g id="zoomPlus">
                        <use xlink:href="#rim" fill="#404040">
                                <set attributeName="fill" to="#808080" begin="zoomplus.mouseover" end="zoomplus.mouseout"/>
                        </use>
                        <path d="M-4,0h8M0,-4v8" fill="none" stroke="white" stroke-width="1.5" pointer-events="none"/>
                </g>
                <g id="zoomMin">
                        <use xlink:href="#rim" fill="#404040">
                                <set attributeName="fill" to="#808080" begin="zoomminus.mouseover" end="zoomminus.mouseout"/>
                        </use>
                        <path d="M-4,0h8" fill="none" stroke="white" stroke-width="1.5" pointer-events="none"/>
                </g>
                <g id="dirArrow">
                        <path fill="none" stroke="white" stroke-width="1.5" d="M0,-3.0v7 M-2.5,-0.5L0,-3.0L2.5,-0.5"/>
                </g>
               <g id="resetDef">
                       <use xlink:href="#rim2" fill="#404040">
                               <set attributeName="fill" to="#808080" begin="reset.mouseover" end="reset.mouseout"/>
                       </use>
               </g>
        </defs>

<script type="text/javascript">
var viewWidth = 1452;
var viewHeight = 666;
var sectionId = 'dynsection-3';
</script>
<script xlink:href="svgpan.js"/>
<svg id="graph" class="graph">
<g id="viewport">
<title>G</title>
<polygon fill="white" stroke="white" points="-4,5 -4,-662 1449,-662 1449,5 -4,5"/>
<!-- Node1 -->
<g id="node1" class="node"><title>Node1</title>
<polygon fill="#bfbfbf" stroke="black" points="0,-260.5 0,-281.5 188,-281.5 188,-260.5 0,-260.5"/>
<text text-anchor="middle" x="94" y="-268.5" font-family="FreeSans.ttf" font-size="10.00">SocketClient::TermInfo::sNegotiated</text>
</g>
<!-- Node2 -->
<g id="node3" class="node"><title>Node2</title>
<a xlink:href="namespaceTelopt.xhtml#a71c731d78947d4c909f93df74950b64c" target="_top" xlink:title="Negotiate requested options.">
<polygon fill="white" stroke="black" points="224,-260.5 224,-281.5 322,-281.5 322,-260.5 224,-260.5"/>
<text text-anchor="middle" x="273" y="-268.5" font-family="FreeSans.ttf" font-size="10.00">Telopt::Negotiate</text>
</a>
</g>
<!-- Node1&#45;&gt;Node2 -->
<g id="edge2" class="edge"><title>Node1&#45;&gt;Node2</title>
<path fill="none" stroke="midnightblue" d="M198.259,-271C207.096,-271 215.735,-271 223.819,-271"/>
<polygon fill="midnightblue" stroke="midnightblue" points="198.218,-267.5 188.218,-271 198.218,-274.5 198.218,-267.5"/>
</g>
<!-- Node3 -->
<g id="node5" class="node"><title>Node3</title>
<a xlink:href="namespaceHandler.xhtml#a33a19d69ead678af81fbe96907eceaf0" target="_top" xlink:title="Create a new account object, or load an existing one, with a name and password.">
<polygon fill="white" stroke="black" points="358.5,-260.5 358.5,-281.5 489.5,-281.5 489.5,-260.5 358.5,-260.5"/>
<text text-anchor="middle" x="424" y="-268.5" font-family="FreeSans.ttf" font-size="10.00">Handler::AttachAccount</text>
</a>
</g>
<!-- Node2&#45;&gt;Node3 -->
<g id="edge4" class="edge"><title>Node2&#45;&gt;Node3</title>
<path fill="none" stroke="midnightblue" d="M332.033,-271C340.702,-271 349.675,-271 358.465,-271"/>
<polygon fill="midnightblue" stroke="midnightblue" points="332.025,-267.5 322.025,-271 332.025,-274.5 332.025,-267.5"/>
</g>
<!-- Node14 -->
<g id="node37" class="node"><title>Node14</title>
<a xlink:href="namespaceHandler.xhtml#a744adadcf407cdb3a9c33365afd5a7c2" target="_top" xlink:title="Create a new account.">
<polygon fill="white" stroke="black" points="717,-40.5 717,-61.5 859,-61.5 859,-40.5 717,-40.5"/>
<text text-anchor="middle" x="788" y="-48.5" font-family="FreeSans.ttf" font-size="10.00">Handler::GetNewPassword</text>
</a>
</g>
<!-- Node2&#45;&gt;Node14 -->
<g id="edge84" class="edge"><title>Node2&#45;&gt;Node14</title>
<path fill="none" stroke="midnightblue" d="M304.19,-256.064C399.938,-210.227 683.812,-74.4507 694,-71 704.904,-67.3069 716.759,-64.1516 728.26,-61.5126"/>
<polygon fill="midnightblue" stroke="midnightblue" points="302.518,-252.984 295.01,-260.459 305.541,-259.297 302.518,-252.984"/>
</g>
<!-- Node15 -->
<g id="node40" class="node"><title>Node15</title>
<a xlink:href="namespaceHandler.xhtml#adfe13cc9748392348f3941656a1323b6" target="_top" xlink:title="Compare a received password against an existing account.">
<polygon fill="white" stroke="black" points="719.5,-0.5 719.5,-21.5 856.5,-21.5 856.5,-0.5 719.5,-0.5"/>
<text text-anchor="middle" x="788" y="-8.5" font-family="FreeSans.ttf" font-size="10.00">Handler::GetOldPassword</text>
</a>
</g>
<!-- Node2&#45;&gt;Node15 -->
<g id="edge86" class="edge"><title>Node2&#45;&gt;Node15</title>
<path fill="none" stroke="midnightblue" d="M284.516,-251.732C299.15,-228.595 326.344,-189.812 358,-165 467.685,-79.0282 629.433,-38.5173 720.062,-21.5671"/>
<polygon fill="midnightblue" stroke="midnightblue" points="281.484,-249.98 279.204,-260.327 287.439,-253.66 281.484,-249.98"/>
</g>
<!-- Node27 -->
<g id="node71" class="node"><title>Node27</title>
<a xlink:href="namespaceTelopt.xhtml#aae5468ac9f53474dea225a4485905ac3" target="_top" xlink:title="Send initial options to negotiate for, then the login string.">
<polygon fill="white" stroke="black" points="526.5,-547.5 526.5,-568.5 657.5,-568.5 657.5,-547.5 526.5,-547.5"/>
<text text-anchor="middle" x="592" y="-555.5" font-family="FreeSans.ttf" font-size="10.00">Telopt::InitialNegotiation</text>
</a>
</g>
<!-- Node2&#45;&gt;Node27 -->
<g id="edge88" class="edge"><title>Node2&#45;&gt;Node27</title>
<path fill="none" stroke="midnightblue" d="M282.881,-290.876C296.937,-317.797 324.724,-366.347 358,-400 425.724,-468.493 527.349,-524.928 570.929,-547.462"/>
<polygon fill="midnightblue" stroke="midnightblue" points="285.854,-289.002 278.184,-281.693 279.622,-292.19 285.854,-289.002"/>
</g>
<!-- Node28 -->
<g id="node74" class="node"><title>Node28</title>
<a xlink:href="namespaceTelopt.xhtml#acb81c2e75d328c24352dd8ef356b84d8" target="_top" xlink:title="Begins a telnet negotiation handshake for requested options.">
<polygon fill="white" stroke="black" points="372,-369.5 372,-390.5 476,-390.5 476,-369.5 372,-369.5"/>
<text text-anchor="middle" x="424" y="-377.5" font-family="FreeSans.ttf" font-size="10.00">Telopt::Handshake</text>
</a>
</g>
<!-- Node2&#45;&gt;Node28 -->
<g id="edge92" class="edge"><title>Node2&#45;&gt;Node28</title>
<path fill="none" stroke="midnightblue" d="M295.945,-287.563C327.42,-310.283 383.074,-350.458 409.409,-369.467"/>
<polygon fill="midnightblue" stroke="midnightblue" points="297.91,-284.665 287.753,-281.65 293.813,-290.341 297.91,-284.665"/>
</g>
<!-- Node4 -->
<g id="node7" class="node"><title>Node4</title>
<a xlink:href="namespaceHandler.xhtml#a139febc000c9d767a620708148e0c888" target="_top" xlink:title="Dispatches the appropriate menu based on client state.">
<polygon fill="white" stroke="black" points="530.5,-260.5 530.5,-281.5 653.5,-281.5 653.5,-260.5 530.5,-260.5"/>
<text text-anchor="middle" x="592" y="-268.5" font-family="FreeSans.ttf" font-size="10.00">Handler::LoginHandler</text>
</a>
</g>
<!-- Node3&#45;&gt;Node4 -->
<g id="edge6" class="edge"><title>Node3&#45;&gt;Node4</title>
<path fill="none" stroke="midnightblue" d="M500.01,-264.277C510.179,-264.208 520.506,-264.271 530.387,-264.468"/>
<polygon fill="midnightblue" stroke="midnightblue" points="499.876,-260.778 489.916,-264.391 499.955,-267.778 499.876,-260.778"/>
</g>
<!-- Node4&#45;&gt;Node3 -->
<g id="edge8" class="edge"><title>Node4&#45;&gt;Node3</title>
<path fill="none" stroke="midnightblue" d="M520.38,-277.684C510.269,-277.792 499.913,-277.767 489.916,-277.609"/>
<polygon fill="midnightblue" stroke="midnightblue" points="520.441,-281.184 530.387,-277.532 520.335,-274.185 520.441,-281.184"/>
</g>
<!-- Node5 -->
<g id="node10" class="node"><title>Node5</title>
<a xlink:href="namespaceHandler.xhtml#a2e4ebf6ed049eb872aa4948d54c4932c" target="_top" xlink:title="Attempt to write a new character to disk after creation was completed.">
<polygon fill="white" stroke="black" points="718.5,-240.5 718.5,-261.5 857.5,-261.5 857.5,-240.5 718.5,-240.5"/>
<text text-anchor="middle" x="788" y="-248.5" font-family="FreeSans.ttf" font-size="10.00">Handler::AttachCharacter</text>
</a>
</g>
<!-- Node4&#45;&gt;Node5 -->
<g id="edge10" class="edge"><title>Node4&#45;&gt;Node5</title>
<path fill="none" stroke="midnightblue" d="M648.048,-259.114C669.886,-256.24 695.15,-253.553 718.153,-251.631"/>
<polygon fill="midnightblue" stroke="midnightblue" points="647.389,-255.671 637.953,-260.49 648.335,-262.607 647.389,-255.671"/>
</g>
<!-- Node6 -->
<g id="node13" class="node"><title>Node6</title>
<a xlink:href="namespaceHandler.xhtml#a73ed6064f2698dbffb5f4c247a02b661" target="_top" xlink:title="Send initial account interface menu.">
<polygon fill="white" stroke="black" points="714,-200.5 714,-221.5 862,-221.5 862,-200.5 714,-200.5"/>
<text text-anchor="middle" x="788" y="-208.5" font-family="FreeSans.ttf" font-size="10.00">Handler::AccountMenuMain</text>
</a>
</g>
<!-- Node4&#45;&gt;Node6 -->
<g id="edge14" class="edge"><title>Node4&#45;&gt;Node6</title>
<path fill="none" stroke="midnightblue" d="M611.76,-255.351C632.063,-244.285 664.748,-230.783 694,-222 700.392,-220.081 707.081,-218.273 713.819,-216.623"/>
<polygon fill="midnightblue" stroke="midnightblue" points="609.982,-252.336 603.108,-260.397 613.509,-258.382 609.982,-252.336"/>
</g>
<!-- Node7 -->
<g id="node16" class="node"><title>Node7</title>
<a xlink:href="namespaceHandler.xhtml#ad04998a7a6ece2486bc441052a57c2d7" target="_top" xlink:title="Main Character creation menu.">
<polygon fill="white" stroke="black" points="694,-160.5 694,-181.5 882,-181.5 882,-160.5 694,-160.5"/>
<text text-anchor="middle" x="788" y="-168.5" font-family="FreeSans.ttf" font-size="10.00">Handler::CharacterCreateMenuMain</text>
</a>
</g>
<!-- Node4&#45;&gt;Node7 -->
<g id="edge18" class="edge"><title>Node4&#45;&gt;Node7</title>
<path fill="none" stroke="midnightblue" d="M604.139,-252.453C622.062,-231.484 657.447,-199.091 694,-182 694.302,-181.859 694.606,-181.718 694.91,-181.579"/>
<polygon fill="midnightblue" stroke="midnightblue" points="601.292,-250.408 597.768,-260.4 606.754,-254.787 601.292,-250.408"/>
</g>
<!-- Node8 -->
<g id="node19" class="node"><title>Node8</title>
<a xlink:href="namespaceHandler.xhtml#ab5889a65de2794129b375ec39ae923ae" target="_top" xlink:title="Select a new Character name.">
<polygon fill="white" stroke="black" points="703.5,-120.5 703.5,-141.5 872.5,-141.5 872.5,-120.5 703.5,-120.5"/>
<text text-anchor="middle" x="788" y="-128.5" font-family="FreeSans.ttf" font-size="10.00">Handler::CharacterCreateName</text>
</a>
</g>
<!-- Node4&#45;&gt;Node8 -->
<g id="edge22" class="edge"><title>Node4&#45;&gt;Node8</title>
<path fill="none" stroke="midnightblue" d="M600.032,-251.005C614.941,-221.625 649.472,-168.569 694,-142 697.009,-140.205 700.157,-138.569 703.4,-137.085"/>
<polygon fill="midnightblue" stroke="midnightblue" points="596.732,-249.794 595.592,-260.327 603.052,-252.804 596.732,-249.794"/>
</g>
<!-- Node9 -->
<g id="node22" class="node"><title>Node9</title>
<a xlink:href="namespaceHandler.xhtml#ae5086bcf5857eb572beedd09158c3065" target="_top" xlink:title="Select a new Character sex.">
<polygon fill="white" stroke="black" points="709,-80.5 709,-101.5 867,-101.5 867,-80.5 709,-80.5"/>
<text text-anchor="middle" x="788" y="-88.5" font-family="FreeSans.ttf" font-size="10.00">Handler::CharacterCreateSex</text>
</a>
</g>
<!-- Node4&#45;&gt;Node9 -->
<g id="edge26" class="edge"><title>Node4&#45;&gt;Node9</title>
<path fill="none" stroke="midnightblue" d="M601.64,-251.457C626.731,-206.932 692.25,-103.214 694,-102 698.524,-98.8619 703.444,-96.2004 708.582,-93.9642"/>
<polygon fill="midnightblue" stroke="midnightblue" points="598.434,-250.024 596.686,-260.474 604.569,-253.395 598.434,-250.024"/>
</g>
<!-- Node10 -->
<g id="node25" class="node"><title>Node10</title>
<a xlink:href="namespaceHandler.xhtml#a97a198bfc72285b2aca4f36978db715e" target="_top" xlink:title="Main Character deletion confirmation.">
<polygon fill="white" stroke="black" points="700,-480.5 700,-501.5 876,-501.5 876,-480.5 700,-480.5"/>
<text text-anchor="middle" x="788" y="-488.5" font-family="FreeSans.ttf" font-size="10.00">Handler::CharacterDeleteConfirm</text>
</a>
</g>
<!-- Node4&#45;&gt;Node10 -->
<g id="edge30" class="edge"><title>Node4&#45;&gt;Node10</title>
<path fill="none" stroke="midnightblue" d="M601.53,-290.812C620.527,-335.12 663.876,-438.889 694,-462 706.973,-471.953 723.789,-477.216 739.604,-480.427"/>
<polygon fill="midnightblue" stroke="midnightblue" points="604.731,-289.398 597.551,-281.607 598.306,-292.175 604.731,-289.398"/>
</g>
<!-- Node11 -->
<g id="node28" class="node"><title>Node11</title>
<a xlink:href="namespaceHandler.xhtml#afc470ec6e82b7a9a1560588a368734f9" target="_top" xlink:title="Main Character deletion menu.">
<polygon fill="white" stroke="black" points="694,-440.5 694,-461.5 882,-461.5 882,-440.5 694,-440.5"/>
<text text-anchor="middle" x="788" y="-448.5" font-family="FreeSans.ttf" font-size="10.00">Handler::CharacterDeleteMenuMain</text>
</a>
</g>
<!-- Node4&#45;&gt;Node11 -->
<g id="edge34" class="edge"><title>Node4&#45;&gt;Node11</title>
<path fill="none" stroke="midnightblue" d="M601.275,-291.36C615.409,-324.453 645.884,-388.624 694,-422 708.532,-432.08 727.146,-437.242 743.97,-440.468"/>
<polygon fill="midnightblue" stroke="midnightblue" points="604.355,-289.653 597.259,-281.786 597.9,-292.361 604.355,-289.653"/>
</g>
<!-- Node12 -->
<g id="node31" class="node"><title>Node12</title>
<a xlink:href="namespaceHandler.xhtml#a02b1b954749641ab646f6548a5360d3b" target="_top" xlink:title="Main Character load menu.">
<polygon fill="white" stroke="black" points="698.5,-400.5 698.5,-421.5 877.5,-421.5 877.5,-400.5 698.5,-400.5"/>
<text text-anchor="middle" x="788" y="-408.5" font-family="FreeSans.ttf" font-size="10.00">Handler::CharacterLoadMenuMain</text>
</a>
</g>
<!-- Node4&#45;&gt;Node12 -->
<g id="edge38" class="edge"><title>Node4&#45;&gt;Node12</title>
<path fill="none" stroke="midnightblue" d="M606.611,-290.054C623.836,-315.371 655.103,-358.791 694,-382 710.764,-392.003 731.839,-397.04 749.783,-400.42"/>
<polygon fill="midnightblue" stroke="midnightblue" points="609.41,-287.945 600.912,-281.617 603.609,-291.863 609.41,-287.945"/>
</g>
<!-- Node13 -->
<g id="node34" class="node"><title>Node13</title>
<a xlink:href="namespaceHandler.xhtml#a00bc24564bfd267e0329643c569da1e4" target="_top" xlink:title="Select a new account name.">
<polygon fill="white" stroke="black" points="719.5,-360.5 719.5,-381.5 856.5,-381.5 856.5,-360.5 719.5,-360.5"/>
<text text-anchor="middle" x="788" y="-368.5" font-family="FreeSans.ttf" font-size="10.00">Handler::GetNewAccount</text>
</a>
</g>
<!-- Node4&#45;&gt;Node13 -->
<g id="edge42" class="edge"><title>Node4&#45;&gt;Node13</title>
<path fill="none" stroke="midnightblue" d="M616.479,-288.131C635.89,-304.554 664.567,-328.238 694,-342 714.253,-351.47 739.058,-356.506 758.101,-360.445"/>
<polygon fill="midnightblue" stroke="midnightblue" points="618.644,-285.378 608.751,-281.587 614.121,-290.72 618.644,-285.378"/>
</g>
<!-- Node4&#45;&gt;Node14 -->
<g id="edge46" class="edge"><title>Node4&#45;&gt;Node14</title>
<path fill="none" stroke="midnightblue" d="M601.575,-251.8C615.298,-229.25 640.795,-191.578 658,-157 678.114,-116.575 659.732,-91.401 694,-62 700.585,-56.3505 708.373,-52.171 716.604,-49.1727"/>
<polygon fill="midnightblue" stroke="midnightblue" points="598.52,-250.09 596.473,-260.485 604.556,-253.635 598.52,-250.09"/>
</g>
<!-- Node4&#45;&gt;Node15 -->
<g id="edge50" class="edge"><title>Node4&#45;&gt;Node15</title>
<path fill="none" stroke="midnightblue" d="M598.023,-250.648C616.998,-193.672 675.373,-37.3508 694,-22 701.339,-15.9516 710.07,-11.6051 719.209,-8.60185"/>
<polygon fill="midnightblue" stroke="midnightblue" points="594.629,-249.77 594.867,-260.362 601.286,-251.933 594.629,-249.77"/>
</g>
<!-- Node16 -->
<g id="node43" class="node"><title>Node16</title>
<a xlink:href="namespaceHandler.xhtml#ae70e4e50054c729c14493eafefe01b5c" target="_top" xlink:title="Load a character from the account to enter into the game with.">
<polygon fill="white" stroke="black" points="722.5,-320.5 722.5,-341.5 853.5,-341.5 853.5,-320.5 722.5,-320.5"/>
<text text-anchor="middle" x="788" y="-328.5" font-family="FreeSans.ttf" font-size="10.00">Handler::LoadCharacter</text>
</a>
</g>
<!-- Node4&#45;&gt;Node16 -->
<g id="edge54" class="edge"><title>Node4&#45;&gt;Node16</title>
<path fill="none" stroke="midnightblue" d="M645.094,-285.097C660.669,-290.869 677.857,-297.153 694,-302 718.609,-309.389 747.627,-315.126 766.844,-320.483"/>
<polygon fill="midnightblue" stroke="midnightblue" points="646.221,-281.782 635.628,-281.587 643.787,-288.346 646.221,-281.782"/>
</g>
<!-- Node17 -->
<g id="node46" class="node"><title>Node17</title>
<a xlink:href="namespaceHandler.xhtml#a44b41bf69fdc6e615a029bea34910191" target="_top" xlink:title="Send initial greeting and request for account name.">
<polygon fill="white" stroke="black" points="728.5,-280.5 728.5,-301.5 847.5,-301.5 847.5,-280.5 728.5,-280.5"/>
<text text-anchor="middle" x="788" y="-288.5" font-family="FreeSans.ttf" font-size="10.00">Handler::LoginScreen</text>
</a>
</g>
<!-- Node4&#45;&gt;Node17 -->
<g id="edge58" class="edge"><title>Node4&#45;&gt;Node17</title>
<path fill="none" stroke="midnightblue" d="M663.985,-271.811C690.094,-274.032 718.86,-277.206 742.108,-280.499"/>
<polygon fill="midnightblue" stroke="midnightblue" points="663.997,-268.301 653.747,-270.979 663.43,-275.278 663.997,-268.301"/>
</g>
<!-- Node18 -->
<g id="node49" class="node"><title>Node18</title>
<a xlink:href="classSocketClient.xhtml#a48c79d01b91f2c1553c3b33b26714215" target="_top" xlink:title="Build a SocketClient for a new client connection and set all attributes.">
<polygon fill="white" stroke="black" points="736.5,-596.5 736.5,-617.5 839.5,-617.5 839.5,-596.5 736.5,-596.5"/>
<text text-anchor="middle" x="788" y="-604.5" font-family="FreeSans.ttf" font-size="10.00">SocketClient::New</text>
</a>
</g>
<!-- Node4&#45;&gt;Node18 -->
<g id="edge62" class="edge"><title>Node4&#45;&gt;Node18</title>
<path fill="none" stroke="midnightblue" d="M600.998,-290.871C614.295,-320.591 639.604,-378.532 658,-429 676.341,-479.318 661.936,-501.102 694,-544 711.995,-568.076 742.057,-585.877 763.334,-596.303"/>
<polygon fill="midnightblue" stroke="midnightblue" points="604.119,-289.279 596.826,-281.594 597.735,-292.149 604.119,-289.279"/>
</g>
<!-- Node25 -->
<g id="node64" class="node"><title>Node25</title>
<a xlink:href="classSocketClient.xhtml#ad4f63c7d906310dc56a1217136047d7f" target="_top" xlink:title="Interpret the command at the front of the queue.">
<polygon fill="white" stroke="black" points="918,-516.5 918,-537.5 1088,-537.5 1088,-516.5 918,-516.5"/>
<text text-anchor="middle" x="1003" y="-524.5" font-family="FreeSans.ttf" font-size="10.00">SocketClient::ProcessCommand</text>
</a>
</g>
<!-- Node4&#45;&gt;Node25 -->
<g id="edge78" class="edge"><title>Node4&#45;&gt;Node25</title>
<path fill="none" stroke="midnightblue" d="M600.322,-290.966C624.229,-348.271 691.561,-509.294 694,-511 728.885,-535.399 839.023,-535.719 917.857,-532.423"/>
<polygon fill="midnightblue" stroke="midnightblue" points="603.469,-289.417 596.389,-281.535 597.008,-292.111 603.469,-289.417"/>
</g>
<!-- Node5&#45;&gt;Node4 -->
<g id="edge12" class="edge"><title>Node5&#45;&gt;Node4</title>
<path fill="none" stroke="midnightblue" d="M731.924,-262.89C707.495,-266.104 678.783,-269.085 653.747,-271.021"/>
<polygon fill="midnightblue" stroke="midnightblue" points="732.673,-266.32 742.108,-261.501 731.727,-259.385 732.673,-266.32"/>
</g>
<!-- Node6&#45;&gt;Node4 -->
<g id="edge16" class="edge"><title>Node6&#45;&gt;Node4</title>
<path fill="none" stroke="midnightblue" d="M757.172,-224.061C738.667,-228.708 714.764,-233.766 694,-240 674.507,-245.853 653.49,-253.801 635.628,-260.413"/>
<polygon fill="midnightblue" stroke="midnightblue" points="758.063,-227.446 766.844,-221.517 756.282,-220.676 758.063,-227.446"/>
</g>
<!-- Node7&#45;&gt;Node4 -->
<g id="edge20" class="edge"><title>Node7&#45;&gt;Node4</title>
<path fill="none" stroke="midnightblue" d="M748.309,-183.597C731.042,-187.266 710.93,-192.084 694,-200 660.362,-215.728 627.712,-244.415 608.751,-260.413"/>
<polygon fill="midnightblue" stroke="midnightblue" points="749.027,-187.023 758.101,-181.555 747.597,-180.17 749.027,-187.023"/>
</g>
<!-- Node8&#45;&gt;Node4 -->
<g id="edge24" class="edge"><title>Node8&#45;&gt;Node4</title>
<path fill="none" stroke="midnightblue" d="M739.85,-143.582C724.404,-146.931 707.752,-151.795 694,-160 650.326,-186.059 616.271,-237.598 600.912,-260.383"/>
<polygon fill="midnightblue" stroke="midnightblue" points="740.672,-146.987 749.783,-141.58 739.289,-140.125 740.672,-146.987"/>
</g>
<!-- Node9&#45;&gt;Node4 -->
<g id="edge28" class="edge"><title>Node9&#45;&gt;Node4</title>
<path fill="none" stroke="midnightblue" d="M733.951,-103.666C720.031,-106.962 705.694,-111.889 694,-120 692.245,-121.217 626.322,-225.579 601.407,-260.286"/>
<polygon fill="midnightblue" stroke="midnightblue" points="734.918,-107.038 743.97,-101.532 733.46,-100.192 734.918,-107.038"/>
</g>
<!-- Node10&#45;&gt;Node4 -->
<g id="edge32" class="edge"><title>Node10&#45;&gt;Node4</title>
<path fill="none" stroke="midnightblue" d="M692.094,-477.116C653.1,-437.27 606.69,-318.373 594.843,-281.581"/>
<polygon fill="midnightblue" stroke="midnightblue" points="689.992,-479.931 699.781,-483.983 694.655,-474.711 689.992,-479.931"/>
</g>
<!-- Node11&#45;&gt;Node4 -->
<g id="edge36" class="edge"><title>Node11&#45;&gt;Node4</title>
<path fill="none" stroke="midnightblue" d="M686.27,-434.224C632.273,-391.258 602.415,-311.173 594.291,-281.69"/>
<polygon fill="midnightblue" stroke="midnightblue" points="684.301,-437.121 694.412,-440.284 688.48,-431.506 684.301,-437.121"/>
</g>
<!-- Node12&#45;&gt;Node4 -->
<g id="edge40" class="edge"><title>Node12&#45;&gt;Node4</title>
<path fill="none" stroke="midnightblue" d="M689.654,-396.917C640.221,-363.54 606.318,-306.083 595.592,-281.673"/>
<polygon fill="midnightblue" stroke="midnightblue" points="688.069,-400.056 698.388,-402.457 691.819,-394.145 688.069,-400.056"/>
</g>
<!-- Node13&#45;&gt;Node4 -->
<g id="edge44" class="edge"><title>Node13&#45;&gt;Node4</title>
<path fill="none" stroke="midnightblue" d="M709.393,-366.119C704.092,-364.333 698.912,-362.297 694,-360 652.411,-340.554 612.333,-301.299 597.768,-281.6"/>
<polygon fill="midnightblue" stroke="midnightblue" points="708.446,-369.489 719.032,-369.066 710.492,-362.795 708.446,-369.489"/>
</g>
<!-- Node14&#45;&gt;Node4 -->
<g id="edge48" class="edge"><title>Node14&#45;&gt;Node4</title>
<path fill="none" stroke="midnightblue" d="M725.088,-64.16C713.785,-67.5088 702.814,-72.4374 694,-80 659.732,-109.401 678.114,-134.575 658,-175 641.886,-207.385 618.498,-242.485 604.323,-260.245"/>
<polygon fill="midnightblue" stroke="midnightblue" points="726.247,-67.4761 735.061,-61.5972 724.504,-60.6964 726.247,-67.4761"/>
</g>
<!-- Node15&#45;&gt;Node4 -->
<g id="edge52" class="edge"><title>Node15&#45;&gt;Node4</title>
<path fill="none" stroke="midnightblue" d="M726.812,-24.0122C714.972,-27.3458 703.355,-32.2903 694,-40 675.09,-55.5844 615.213,-216.461 597.185,-260.291"/>
<polygon fill="midnightblue" stroke="midnightblue" points="727.891,-27.3513 736.767,-21.5655 726.22,-20.5536 727.891,-27.3513"/>
</g>
<!-- Node16&#45;&gt;Node4 -->
<g id="edge56" class="edge"><title>Node16&#45;&gt;Node4</title>
<path fill="none" stroke="midnightblue" d="M712.509,-325.054C706.215,-323.492 699.978,-321.795 694,-320 660.115,-309.826 621.624,-293.32 603.108,-281.603"/>
<polygon fill="midnightblue" stroke="midnightblue" points="711.881,-328.502 722.417,-327.391 713.488,-321.689 711.881,-328.502"/>
</g>
<!-- Node17&#45;&gt;Node4 -->
<g id="edge60" class="edge"><title>Node17&#45;&gt;Node4</title>
<path fill="none" stroke="midnightblue" d="M718.168,-290.37C691.518,-288.144 661.832,-284.89 637.953,-281.51"/>
<polygon fill="midnightblue" stroke="midnightblue" points="717.967,-293.865 728.214,-291.171 718.524,-286.887 717.967,-293.865"/>
</g>
<!-- Node19 -->
<g id="node51" class="node"><title>Node19</title>
<a xlink:href="classServer.xhtml#a16ea0639731dee10e1a253375b508a02" target="_top" xlink:title="Recovers the server state and re&#45;connects client sockets after a reboot.">
<polygon fill="white" stroke="black" points="938,-636.5 938,-657.5 1068,-657.5 1068,-636.5 938,-636.5"/>
<text text-anchor="middle" x="1003" y="-644.5" font-family="FreeSans.ttf" font-size="10.00">Server::RebootRecovery</text>
</a>
</g>
<!-- Node18&#45;&gt;Node19 -->
<g id="edge64" class="edge"><title>Node18&#45;&gt;Node19</title>
<path fill="none" stroke="midnightblue" d="M849.843,-618.506C880.275,-624.167 916.702,-630.945 946.394,-636.469"/>
<polygon fill="midnightblue" stroke="midnightblue" points="850.243,-615.02 839.771,-616.632 848.963,-621.902 850.243,-615.02"/>
</g>
<!-- Node22 -->
<g id="node57" class="node"><title>Node22</title>
<a xlink:href="classSocketServer.xhtml#afdbc60c3bc840875d2214b59c6213f63" target="_top" xlink:title="Accept a new connection on the listening port.">
<polygon fill="white" stroke="black" points="943,-596.5 943,-617.5 1063,-617.5 1063,-596.5 943,-596.5"/>
<text text-anchor="middle" x="1003" y="-604.5" font-family="FreeSans.ttf" font-size="10.00">SocketServer::Accept</text>
</a>
</g>
<!-- Node18&#45;&gt;Node22 -->
<g id="edge70" class="edge"><title>Node18&#45;&gt;Node22</title>
<path fill="none" stroke="midnightblue" d="M849.868,-607C879.117,-607 913.901,-607 942.92,-607"/>
<polygon fill="midnightblue" stroke="midnightblue" points="849.771,-603.5 839.771,-607 849.771,-610.5 849.771,-603.5"/>
</g>
<!-- Node20 -->
<g id="node53" class="node"><title>Node20</title>
<a xlink:href="classServer.xhtml#a19a1e493e1fb50a56d9c77332543d565" target="_top" xlink:title="Start the NAMS Server. Responsible for calling all critical boot&#45;time functions such as SocketServer ...">
<polygon fill="white" stroke="black" points="1276,-621.5 1276,-642.5 1366,-642.5 1366,-621.5 1276,-621.5"/>
<text text-anchor="middle" x="1321" y="-629.5" font-family="FreeSans.ttf" font-size="10.00">Server::Startup</text>
</a>
</g>
<!-- Node19&#45;&gt;Node20 -->
<g id="edge66" class="edge"><title>Node19&#45;&gt;Node20</title>
<path fill="none" stroke="midnightblue" d="M1078.16,-643.455C1139.64,-640.555 1224.54,-636.55 1275.95,-634.125"/>
<polygon fill="midnightblue" stroke="midnightblue" points="1077.94,-639.961 1068.12,-643.928 1078.27,-646.953 1077.94,-639.961"/>
</g>
<!-- Node21 -->
<g id="node55" class="node"><title>Node21</title>
<a xlink:href="main_8cpp.xhtml#ad53223b8779f25caeddb70a3b9172967" target="_top" xlink:title="The default function required to execute the server.">
<polygon fill="white" stroke="black" points="1402.5,-598.5 1402.5,-619.5 1443.5,-619.5 1443.5,-598.5 1402.5,-598.5"/>
<text text-anchor="middle" x="1423" y="-606.5" font-family="FreeSans.ttf" font-size="10.00">main</text>
</a>
</g>
<!-- Node20&#45;&gt;Node21 -->
<g id="edge68" class="edge"><title>Node20&#45;&gt;Node21</title>
<path fill="none" stroke="midnightblue" d="M1375.9,-619.62C1385.36,-617.486 1394.64,-615.394 1402.43,-613.638"/>
<polygon fill="midnightblue" stroke="midnightblue" points="1375.02,-616.231 1366.04,-621.845 1376.56,-623.059 1375.02,-616.231"/>
</g>
<!-- Node23 -->
<g id="node59" class="node"><title>Node23</title>
<a xlink:href="classServer.xhtml#a39dbe16fdc8c5f6fbd678c6540fbcd6c" target="_top" xlink:title="Poll all SocketClient objects that are communicating with the associated SocketServer object...">
<polygon fill="white" stroke="black" points="1127.5,-576.5 1127.5,-597.5 1236.5,-597.5 1236.5,-576.5 1127.5,-576.5"/>
<text text-anchor="middle" x="1182" y="-584.5" font-family="FreeSans.ttf" font-size="10.00">Server::PollSockets</text>
</a>
</g>
<!-- Node22&#45;&gt;Node23 -->
<g id="edge72" class="edge"><title>Node22&#45;&gt;Node23</title>
<path fill="none" stroke="midnightblue" d="M1073.27,-599.149C1091.28,-597.136 1110.39,-595.001 1127.48,-593.092"/>
<polygon fill="midnightblue" stroke="midnightblue" points="1072.65,-595.696 1063.1,-600.285 1073.43,-602.653 1072.65,-595.696"/>
</g>
<!-- Node24 -->
<g id="node61" class="node"><title>Node24</title>
<a xlink:href="classServer.xhtml#a50b81aa91d8fdaee6f52c5c5ec987990" target="_top" xlink:title="The core update loop of NAMS. This loop spawns all other subsystem update routines and then sleeps fo...">
<polygon fill="white" stroke="black" points="1276.5,-576.5 1276.5,-597.5 1365.5,-597.5 1365.5,-576.5 1276.5,-576.5"/>
<text text-anchor="middle" x="1321" y="-584.5" font-family="FreeSans.ttf" font-size="10.00">Server::Update</text>
</a>
</g>
<!-- Node23&#45;&gt;Node24 -->
<g id="edge74" class="edge"><title>Node23&#45;&gt;Node24</title>
<path fill="none" stroke="midnightblue" d="M1246.57,-587C1256.69,-587 1266.94,-587 1276.47,-587"/>
<polygon fill="midnightblue" stroke="midnightblue" points="1246.54,-583.5 1236.54,-587 1246.54,-590.5 1246.54,-583.5"/>
</g>
<!-- Node24&#45;&gt;Node21 -->
<g id="edge76" class="edge"><title>Node24&#45;&gt;Node21</title>
<path fill="none" stroke="midnightblue" d="M1375.64,-598.786C1385.14,-600.834 1394.47,-602.846 1402.3,-604.535"/>
<polygon fill="midnightblue" stroke="midnightblue" points="1376.25,-595.337 1365.74,-596.65 1374.78,-602.179 1376.25,-595.337"/>
</g>
<!-- Node26 -->
<g id="node66" class="node"><title>Node26</title>
<a xlink:href="classServer.xhtml#a2b4cec469bb99c2a45e49de5ba74d1ae" target="_top" xlink:title="Processes input from all active SocketClient objects.">
<polygon fill="white" stroke="black" points="1124,-536.5 1124,-557.5 1240,-557.5 1240,-536.5 1124,-536.5"/>
<text text-anchor="middle" x="1182" y="-544.5" font-family="FreeSans.ttf" font-size="10.00">Server::ProcessInput</text>
</a>
</g>
<!-- Node25&#45;&gt;Node26 -->
<g id="edge80" class="edge"><title>Node25&#45;&gt;Node26</title>
<path fill="none" stroke="midnightblue" d="M1098.25,-537.642C1106.93,-538.612 1115.54,-539.574 1123.75,-540.491"/>
<polygon fill="midnightblue" stroke="midnightblue" points="1098.37,-534.134 1088.04,-536.502 1097.59,-541.091 1098.37,-534.134"/>
</g>
<!-- Node26&#45;&gt;Node24 -->
<g id="edge82" class="edge"><title>Node26&#45;&gt;Node24</title>
<path fill="none" stroke="midnightblue" d="M1228.34,-560.336C1246.53,-565.57 1267.11,-571.491 1284.24,-576.422"/>
<polygon fill="midnightblue" stroke="midnightblue" points="1229.1,-556.912 1218.52,-557.51 1227.16,-563.639 1229.1,-556.912"/>
</g>
<!-- Node27&#45;&gt;Node18 -->
<g id="edge90" class="edge"><title>Node27&#45;&gt;Node18</title>
<path fill="none" stroke="midnightblue" d="M644.042,-571.011C675.801,-578.95 715.884,-588.971 745.685,-596.421"/>
<polygon fill="midnightblue" stroke="midnightblue" points="644.597,-567.542 634.047,-568.512 642.899,-574.333 644.597,-567.542"/>
</g>
<!-- Node29 -->
<g id="node76" class="node"><title>Node29</title>
<a xlink:href="namespaceTelopt.xhtml#abdb8913fd8eb65e47c6035240d9a291f" target="_top" xlink:title="Processes data received from a SocketClient for telnet sequences.">
<polygon fill="white" stroke="black" points="536,-438.5 536,-459.5 648,-459.5 648,-438.5 536,-438.5"/>
<text text-anchor="middle" x="592" y="-446.5" font-family="FreeSans.ttf" font-size="10.00">Telopt::ProcessInput</text>
</a>
</g>
<!-- Node28&#45;&gt;Node29 -->
<g id="edge94" class="edge"><title>Node28&#45;&gt;Node29</title>
<path fill="none" stroke="midnightblue" d="M462.303,-394.174C471.412,-397.637 481.076,-401.387 490,-405 516.993,-415.928 547.63,-429.273 568.221,-438.381"/>
<polygon fill="midnightblue" stroke="midnightblue" points="463.29,-390.805 452.698,-390.549 460.818,-397.354 463.29,-390.805"/>
</g>
<!-- Node30 -->
<g id="node78" class="node"><title>Node30</title>
<a xlink:href="classSocketClient.xhtml#a9ee09f452d900e288b2aa187561ef05d" target="_top" xlink:title="Receive data from the client and append it to a receive buffer.">
<polygon fill="white" stroke="black" points="951,-556.5 951,-577.5 1055,-577.5 1055,-556.5 951,-556.5"/>
<text text-anchor="middle" x="1003" y="-564.5" font-family="FreeSans.ttf" font-size="10.00">SocketClient::Recv</text>
</a>
</g>
<!-- Node29&#45;&gt;Node30 -->
<g id="edge96" class="edge"><title>Node29&#45;&gt;Node30</title>
<path fill="none" stroke="midnightblue" d="M605.645,-467.878C623.209,-490.492 656.024,-527.4 694,-544 778.041,-580.736 887.202,-578.741 950.744,-573.31"/>
<polygon fill="midnightblue" stroke="midnightblue" points="608.298,-465.583 599.481,-459.709 602.711,-469.799 608.298,-465.583"/>
</g>
<!-- Node30&#45;&gt;Node23 -->
<g id="edge98" class="edge"><title>Node30&#45;&gt;Node23</title>
<path fill="none" stroke="midnightblue" d="M1065.27,-573.958C1085.43,-576.21 1107.62,-578.689 1127.19,-580.876"/>
<polygon fill="midnightblue" stroke="midnightblue" points="1065.58,-570.471 1055.26,-572.839 1064.8,-577.427 1065.58,-570.471"/>
</g>
</g>
</svg>
        <g id="navigator" transform="translate(0 0)" fill="#404254">
                <rect fill="#f2f5e9" fill-opacity="0.5" stroke="#606060" stroke-width=".5" x="0" y="0" width="60" height="60"/>
                <use id="zoomplus" xlink:href="#zoomPlus" x="17" y="9" onmousedown="handleZoom(evt,'in')"/>
                <use id="zoomminus" xlink:href="#zoomMin" x="42" y="9" onmousedown="handleZoom(evt,'out')"/>
                <use id="reset" xlink:href="#resetDef" x="30" y="36" onmousedown="handleReset()"/>
                <g id="arrowUp" xlink:href="#dirArrow" transform="translate(30 24)" onmousedown="handlePan(0,-1)">
                  <use xlink:href="#rim" fill="#404040">
                        <set attributeName="fill" to="#808080" begin="arrowUp.mouseover" end="arrowUp.mouseout"/>
                  </use>
                  <path fill="none" stroke="white" stroke-width="1.5" d="M0,-3.0v7 M-2.5,-0.5L0,-3.0L2.5,-0.5"/>
                </g>
                <g id="arrowRight" xlink:href="#dirArrow" transform="rotate(90) translate(36 -43)" onmousedown="handlePan(1,0)">
                  <use xlink:href="#rim" fill="#404040">
                        <set attributeName="fill" to="#808080" begin="arrowRight.mouseover" end="arrowRight.mouseout"/>
                  </use>
                  <path fill="none" stroke="white" stroke-width="1.5" d="M0,-3.0v7 M-2.5,-0.5L0,-3.0L2.5,-0.5"/>
                </g>
                <g id="arrowDown" xlink:href="#dirArrow" transform="rotate(180) translate(-30 -48)" onmousedown="handlePan(0,1)">
                  <use xlink:href="#rim" fill="#404040">
                        <set attributeName="fill" to="#808080" begin="arrowDown.mouseover" end="arrowDown.mouseout"/>
                  </use>
                  <path fill="none" stroke="white" stroke-width="1.5" d="M0,-3.0v7 M-2.5,-0.5L0,-3.0L2.5,-0.5"/>
                </g>
                <g id="arrowLeft" xlink:href="#dirArrow" transform="rotate(270) translate(-36 17)" onmousedown="handlePan(-1,0)">
                  <use xlink:href="#rim" fill="#404040">
                        <set attributeName="fill" to="#808080" begin="arrowLeft.mouseover" end="arrowLeft.mouseout"/>
                  </use>
                  <path fill="none" stroke="white" stroke-width="1.5" d="M0,-3.0v7 M-2.5,-0.5L0,-3.0L2.5,-0.5"/>
                </g>
        </g>
</svg>
