<?xml version="1.0" encoding="UTF-8" standalone="no"?>
<!DOCTYPE svg PUBLIC "-//W3C//DTD SVG 1.1//EN"
 "http://www.w3.org/Graphics/SVG/1.1/DTD/svg11.dtd">
<!-- Generated by graphviz version 2.26.3 (20100126.1600)
 -->
<!-- Title: G Pages: 1 -->
<!--zoomable 30 -->
<svg id="main" version="1.1" xmlns="http://www.w3.org/2000/svg" xmlns:xlink="http://www.w3.org/1999/xlink" xml:space="preserve" onload="init(evt)">
        <defs>
                <circle id="rim" cx="0" cy="0" r="7"/>
                <circle id="rim2" cx="0" cy="0" r="3.5"/>
                <g id="zoomPlus">
                        <use xlink:href="#rim" fill="#404040">
                                <set attributeName="fill" to="#808080" begin="zoomplus.mouseover" end="zoomplus.mouseout"/>
                        </use>
                        <path d="M-4,0h8M0,-4v8" fill="none" stroke="white" stroke-width="1.5" pointer-events="none"/>
                </g>
                <g id="zoomMin">
                        <use xlink:href="#rim" fill="#404040">
                                <set attributeName="fill" to="#808080" begin="zoomminus.mouseover" end="zoomminus.mouseout"/>
                        </use>
                        <path d="M-4,0h8" fill="none" stroke="white" stroke-width="1.5" pointer-events="none"/>
                </g>
                <g id="dirArrow">
                        <path fill="none" stroke="white" stroke-width="1.5" d="M0,-3.0v7 M-2.5,-0.5L0,-3.0L2.5,-0.5"/>
                </g>
               <g id="resetDef">
                       <use xlink:href="#rim2" fill="#404040">
                               <set attributeName="fill" to="#808080" begin="reset.mouseover" end="reset.mouseout"/>
                       </use>
               </g>
        </defs>

<script type="text/javascript">
var viewWidth = 1054;
var viewHeight = 30;
var sectionId = 'dynsection-0';
</script>
<script xlink:href="svgpan.js"/>
<svg id="graph" class="graph">
<g id="viewport">
<title>G</title>
<polygon fill="white" stroke="white" points="-4,5 -4,-26 1051,-26 1051,5 -4,5"/>
<!-- Node1 -->
<g id="node1" class="node"><title>Node1</title>
<polygon fill="#bfbfbf" stroke="black" points="0,-0.5 0,-21.5 80,-21.5 80,-0.5 0,-0.5"/>
<text text-anchor="middle" x="40" y="-8.5" font-family="FreeSans.ttf" font-size="10.00">Socket::sPort</text>
</g>
<!-- Node2 -->
<g id="node3" class="node"><title>Node2</title>
<a xlink:href="classSocketClient_a6b296c5002caa1229e7d7b9be6f08607.xhtml#a6b296c5002caa1229e7d7b9be6f08607" target="_top" xlink:title="SocketClient::New">
<polygon fill="white" stroke="black" points="116.5,-0.5 116.5,-21.5 219.5,-21.5 219.5,-0.5 116.5,-0.5"/>
<text text-anchor="middle" x="168" y="-8.5" font-family="FreeSans.ttf" font-size="10.00">SocketClient::New</text>
</a>
</g>
<!-- Node1&#45;&gt;Node2 -->
<g id="edge2" class="edge"><title>Node1&#45;&gt;Node2</title>
<path fill="none" stroke="midnightblue" d="M90.3214,-11C98.8341,-11 107.686,-11 116.234,-11"/>
<polygon fill="midnightblue" stroke="midnightblue" points="90.1488,-7.5001 80.1488,-11 90.1488,-14.5001 90.1488,-7.5001"/>
</g>
<!-- Node3 -->
<g id="node5" class="node"><title>Node3</title>
<a xlink:href="classSocketClient_aa304eafc5814ed2ebda33c44ccb60316.xhtml#aa304eafc5814ed2ebda33c44ccb60316" target="_top" xlink:title="SocketClient::Thread">
<polygon fill="white" stroke="black" points="256,-0.5 256,-21.5 372,-21.5 372,-0.5 256,-0.5"/>
<text text-anchor="middle" x="314" y="-8.5" font-family="FreeSans.ttf" font-size="10.00">SocketClient::Thread</text>
</a>
</g>
<!-- Node2&#45;&gt;Node3 -->
<g id="edge4" class="edge"><title>Node2&#45;&gt;Node3</title>
<path fill="none" stroke="midnightblue" d="M230.142,-11C238.66,-11 247.379,-11 255.822,-11"/>
<polygon fill="midnightblue" stroke="midnightblue" points="229.885,-7.5001 219.885,-11 229.885,-14.5001 229.885,-7.5001"/>
</g>
<!-- Node4 -->
<g id="node7" class="node"><title>Node4</title>
<a xlink:href="classSocketServer_afdbc60c3bc840875d2214b59c6213f63.xhtml#afdbc60c3bc840875d2214b59c6213f63" target="_top" xlink:title="SocketServer::Accept">
<polygon fill="white" stroke="black" points="408,-0.5 408,-21.5 528,-21.5 528,-0.5 408,-0.5"/>
<text text-anchor="middle" x="468" y="-8.5" font-family="FreeSans.ttf" font-size="10.00">SocketServer::Accept</text>
</a>
</g>
<!-- Node3&#45;&gt;Node4 -->
<g id="edge6" class="edge"><title>Node3&#45;&gt;Node4</title>
<path fill="none" stroke="midnightblue" d="M382.466,-11C390.944,-11 399.563,-11 407.903,-11"/>
<polygon fill="midnightblue" stroke="midnightblue" points="382.221,-7.5001 372.221,-11 382.221,-14.5001 382.221,-7.5001"/>
</g>
<!-- Node5 -->
<g id="node9" class="node"><title>Node5</title>
<a xlink:href="classSocketServer_abf0a57a793cb3cf9ad308c238329b690.xhtml#abf0a57a793cb3cf9ad308c238329b690" target="_top" xlink:title="SocketServer::Update">
<polygon fill="white" stroke="black" points="564,-0.5 564,-21.5 686,-21.5 686,-0.5 564,-0.5"/>
<text text-anchor="middle" x="625" y="-8.5" font-family="FreeSans.ttf" font-size="10.00">SocketServer::Update</text>
</a>
</g>
<!-- Node4&#45;&gt;Node5 -->
<g id="edge8" class="edge"><title>Node4&#45;&gt;Node5</title>
<path fill="none" stroke="midnightblue" d="M538.491,-11C546.959,-11 555.552,-11 563.871,-11"/>
<polygon fill="midnightblue" stroke="midnightblue" points="538.251,-7.5001 528.251,-11 538.251,-14.5001 538.251,-7.5001"/>
</g>
<!-- Node6 -->
<g id="node11" class="node"><title>Node6</title>
<a xlink:href="classSocketServer_a613401f64ca4c185e0a90dd2ae57b546.xhtml#a613401f64ca4c185e0a90dd2ae57b546" target="_top" xlink:title="SocketServer::Thread">
<polygon fill="white" stroke="black" points="722,-0.5 722,-21.5 842,-21.5 842,-0.5 722,-0.5"/>
<text text-anchor="middle" x="782" y="-8.5" font-family="FreeSans.ttf" font-size="10.00">SocketServer::Thread</text>
</a>
</g>
<!-- Node5&#45;&gt;Node6 -->
<g id="edge10" class="edge"><title>Node5&#45;&gt;Node6</title>
<path fill="none" stroke="midnightblue" d="M696.413,-11C704.895,-11 713.487,-11 721.791,-11"/>
<polygon fill="midnightblue" stroke="midnightblue" points="696.15,-7.5001 686.15,-11 696.15,-14.5001 696.15,-7.5001"/>
</g>
<!-- Node7 -->
<g id="node13" class="node"><title>Node7</title>
<a xlink:href="classServer_a84ed4b0103f83fe0ece0a89983d0787a.xhtml#a84ed4b0103f83fe0ece0a89983d0787a" target="_top" xlink:title="Server::Startup">
<polygon fill="white" stroke="black" points="878,-0.5 878,-21.5 968,-21.5 968,-0.5 878,-0.5"/>
<text text-anchor="middle" x="923" y="-8.5" font-family="FreeSans.ttf" font-size="10.00">Server::Startup</text>
</a>
</g>
<!-- Node6&#45;&gt;Node7 -->
<g id="edge12" class="edge"><title>Node6&#45;&gt;Node7</title>
<path fill="none" stroke="midnightblue" d="M852.375,-11C861.066,-11 869.759,-11 877.926,-11"/>
<polygon fill="midnightblue" stroke="midnightblue" points="852.206,-7.5001 842.206,-11 852.206,-14.5001 852.206,-7.5001"/>
</g>
<!-- Node8 -->
<g id="node15" class="node"><title>Node8</title>
<a xlink:href="main_8cpp_ad53223b8779f25caeddb70a3b9172967.xhtml#ad53223b8779f25caeddb70a3b9172967" target="_top" xlink:title="The default function required to execute the server.">
<polygon fill="white" stroke="black" points="1004.5,-0.5 1004.5,-21.5 1045.5,-21.5 1045.5,-0.5 1004.5,-0.5"/>
<text text-anchor="middle" x="1025" y="-8.5" font-family="FreeSans.ttf" font-size="10.00">main</text>
</a>
</g>
<!-- Node7&#45;&gt;Node8 -->
<g id="edge14" class="edge"><title>Node7&#45;&gt;Node8</title>
<path fill="none" stroke="midnightblue" d="M978.203,-11C987.56,-11 996.726,-11 1004.43,-11"/>
<polygon fill="midnightblue" stroke="midnightblue" points="978.036,-7.5001 968.036,-11 978.036,-14.5001 978.036,-7.5001"/>
</g>
</g>
</svg>
        <g id="navigator" transform="translate(0 0)" fill="#404254">
                <rect fill="#f2f5e9" fill-opacity="0.5" stroke="#606060" stroke-width=".5" x="0" y="0" width="60" height="60"/>
                <use id="zoomplus" xlink:href="#zoomPlus" x="17" y="9" onmousedown="handleZoom(evt,'in')"/>
                <use id="zoomminus" xlink:href="#zoomMin" x="42" y="9" onmousedown="handleZoom(evt,'out')"/>
                <use id="reset" xlink:href="#resetDef" x="30" y="36" onmousedown="handleReset()"/>
                <g id="arrowUp" xlink:href="#dirArrow" transform="translate(30 24)" onmousedown="handlePan(0,-1)">
                  <use xlink:href="#rim" fill="#404040">
                        <set attributeName="fill" to="#808080" begin="arrowUp.mouseover" end="arrowUp.mouseout"/>
                  </use>
                  <path fill="none" stroke="white" stroke-width="1.5" d="M0,-3.0v7 M-2.5,-0.5L0,-3.0L2.5,-0.5"/>
                </g>
                <g id="arrowRight" xlink:href="#dirArrow" transform="rotate(90) translate(36 -43)" onmousedown="handlePan(1,0)">
                  <use xlink:href="#rim" fill="#404040">
                        <set attributeName="fill" to="#808080" begin="arrowRight.mouseover" end="arrowRight.mouseout"/>
                  </use>
                  <path fill="none" stroke="white" stroke-width="1.5" d="M0,-3.0v7 M-2.5,-0.5L0,-3.0L2.5,-0.5"/>
                </g>
                <g id="arrowDown" xlink:href="#dirArrow" transform="rotate(180) translate(-30 -48)" onmousedown="handlePan(0,1)">
                  <use xlink:href="#rim" fill="#404040">
                        <set attributeName="fill" to="#808080" begin="arrowDown.mouseover" end="arrowDown.mouseout"/>
                  </use>
                  <path fill="none" stroke="white" stroke-width="1.5" d="M0,-3.0v7 M-2.5,-0.5L0,-3.0L2.5,-0.5"/>
                </g>
                <g id="arrowLeft" xlink:href="#dirArrow" transform="rotate(270) translate(-36 17)" onmousedown="handlePan(-1,0)">
                  <use xlink:href="#rim" fill="#404040">
                        <set attributeName="fill" to="#808080" begin="arrowLeft.mouseover" end="arrowLeft.mouseout"/>
                  </use>
                  <path fill="none" stroke="white" stroke-width="1.5" d="M0,-3.0v7 M-2.5,-0.5L0,-3.0L2.5,-0.5"/>
                </g>
        </g>
</svg>
