<?xml version="1.0" encoding="UTF-8" standalone="no"?>
<!DOCTYPE svg PUBLIC "-//W3C//DTD SVG 1.1//EN"
 "http://www.w3.org/Graphics/SVG/1.1/DTD/svg11.dtd">
<!-- Generated by graphviz version 2.26.3 (20100126.1600)
 -->
<!-- Title: Exit::sDestination Pages: 1 -->
<svg width="444pt" height="28pt"
 viewBox="0.00 0.00 444.00 28.00" xmlns="http://www.w3.org/2000/svg" xmlns:xlink="http://www.w3.org/1999/xlink">
<g id="graph1" class="graph" transform="scale(1 1) rotate(0) translate(4 24)">
<title>Exit::sDestination</title>
<polygon fill="white" stroke="white" points="-4,5 -4,-24 441,-24 441,5 -4,5"/>
<!-- Node1 -->
<g id="node1" class="node"><title>Node1</title>
<polygon fill="#bfbfbf" stroke="black" points="0,-0 0,-20 100,-20 100,-0 0,-0"/>
<text text-anchor="middle" x="50" y="-7" font-family="FreeSans.ttf" font-size="10.00">Exit::sDestination</text>
</g>
<!-- Node2 -->
<g id="node3" class="node"><title>Node2</title>
<a xlink:href="namespaceServer.xhtml#a21b284fbb08f1d61510945f64d0673cb" target="_top" xlink:title="Links Exit pointers together after all locations are loaded.">
<polygon fill="white" stroke="black" points="136.5,-0 136.5,-20 231.5,-20 231.5,-0 136.5,-0"/>
<text text-anchor="middle" x="184" y="-7" font-family="FreeSans.ttf" font-size="10.00">Server::LinkExits</text>
</a>
</g>
<!-- Node1&#45;&gt;Node2 -->
<g id="edge2" class="edge"><title>Node1&#45;&gt;Node2</title>
<path fill="none" stroke="midnightblue" d="M110.317,-10C118.957,-10 127.746,-10 136.103,-10"/>
<polygon fill="midnightblue" stroke="midnightblue" points="110.278,-6.5001 100.278,-10 110.278,-13.5001 110.278,-6.5001"/>
</g>
<!-- Node3 -->
<g id="node5" class="node"><title>Node3</title>
<a xlink:href="namespaceServer.xhtml#a19a1e493e1fb50a56d9c77332543d565" target="_top" xlink:title="Start the NAMS Server. Responsible for calling all critical boot&#45;time functions such as SocketServer ...">
<polygon fill="white" stroke="black" points="268,-0 268,-20 358,-20 358,-0 268,-0"/>
<text text-anchor="middle" x="313" y="-7" font-family="FreeSans.ttf" font-size="10.00">Server::Startup</text>
</a>
</g>
<!-- Node2&#45;&gt;Node3 -->
<g id="edge4" class="edge"><title>Node2&#45;&gt;Node3</title>
<path fill="none" stroke="midnightblue" d="M241.752,-10C250.44,-10 259.292,-10 267.67,-10"/>
<polygon fill="midnightblue" stroke="midnightblue" points="241.668,-6.5001 231.668,-10 241.668,-13.5001 241.668,-6.5001"/>
</g>
<!-- Node4 -->
<g id="node7" class="node"><title>Node4</title>
<a xlink:href="main_8cpp.xhtml#ad53223b8779f25caeddb70a3b9172967" target="_top" xlink:title="The default function required to execute the server.">
<polygon fill="white" stroke="black" points="394.5,-0 394.5,-20 435.5,-20 435.5,-0 394.5,-0"/>
<text text-anchor="middle" x="415" y="-7" font-family="FreeSans.ttf" font-size="10.00">main</text>
</a>
</g>
<!-- Node3&#45;&gt;Node4 -->
<g id="edge6" class="edge"><title>Node3&#45;&gt;Node4</title>
<path fill="none" stroke="midnightblue" d="M368.203,-10C377.56,-10 386.726,-10 394.432,-10"/>
<polygon fill="midnightblue" stroke="midnightblue" points="368.036,-6.5001 358.036,-10 368.036,-13.5001 368.036,-6.5001"/>
</g>
</g>
</svg>
