<?xml version="1.0" encoding="UTF-8" standalone="no"?>
<!DOCTYPE svg PUBLIC "-//W3C//DTD SVG 1.1//EN"
 "http://www.w3.org/Graphics/SVG/1.1/DTD/svg11.dtd">
<!-- Generated by graphviz version 2.26.3 (20100126.1600)
 -->
<!-- Title: G Pages: 1 -->
<!--zoomable 266 -->
<svg id="main" version="1.1" xmlns="http://www.w3.org/2000/svg" xmlns:xlink="http://www.w3.org/1999/xlink" xml:space="preserve" onload="init(evt)">
        <defs>
                <circle id="rim" cx="0" cy="0" r="7"/>
                <circle id="rim2" cx="0" cy="0" r="3.5"/>
                <g id="zoomPlus">
                        <use xlink:href="#rim" fill="#404040">
                                <set attributeName="fill" to="#808080" begin="zoomplus.mouseover" end="zoomplus.mouseout"/>
                        </use>
                        <path d="M-4,0h8M0,-4v8" fill="none" stroke="white" stroke-width="1.5" pointer-events="none"/>
                </g>
                <g id="zoomMin">
                        <use xlink:href="#rim" fill="#404040">
                                <set attributeName="fill" to="#808080" begin="zoomminus.mouseover" end="zoomminus.mouseout"/>
                        </use>
                        <path d="M-4,0h8" fill="none" stroke="white" stroke-width="1.5" pointer-events="none"/>
                </g>
                <g id="dirArrow">
                        <path fill="none" stroke="white" stroke-width="1.5" d="M0,-3.0v7 M-2.5,-0.5L0,-3.0L2.5,-0.5"/>
                </g>
               <g id="resetDef">
                       <use xlink:href="#rim2" fill="#404040">
                               <set attributeName="fill" to="#808080" begin="reset.mouseover" end="reset.mouseout"/>
                       </use>
               </g>
        </defs>

<script type="text/javascript">
var viewWidth = 1254;
var viewHeight = 266;
var sectionId = 'dynsection-8';
</script>
<script xlink:href="svgpan.js"/>
<svg id="graph" class="graph">
<g id="viewport">
<title>G</title>
<polygon fill="white" stroke="white" points="-4,5 -4,-262 1251,-262 1251,5 -4,5"/>
<!-- Node1 -->
<g id="node1" class="node"><title>Node1</title>
<polygon fill="#bfbfbf" stroke="black" points="0,-152.5 0,-173.5 112,-173.5 112,-152.5 0,-152.5"/>
<text text-anchor="middle" x="56" y="-160.5" font-family="FreeSans.ttf" font-size="10.00">Socket::gHostname</text>
</g>
<!-- Node2 -->
<g id="node3" class="node"><title>Node2</title>
<a xlink:href="classSocketClient.xhtml#a553658a2c076ea71ddcd1758fc64a925" target="_top" xlink:title="Build a SocketClient for a new client connection and set all attributes.">
<polygon fill="white" stroke="black" points="391.5,-196.5 391.5,-217.5 494.5,-217.5 494.5,-196.5 391.5,-196.5"/>
<text text-anchor="middle" x="443" y="-204.5" font-family="FreeSans.ttf" font-size="10.00">SocketClient::New</text>
</a>
</g>
<!-- Node1&#45;&gt;Node2 -->
<g id="edge2" class="edge"><title>Node1&#45;&gt;Node2</title>
<path fill="none" stroke="midnightblue" d="M122.238,-170.531C198.412,-179.192 321.864,-193.227 391.302,-201.122"/>
<polygon fill="midnightblue" stroke="midnightblue" points="122.605,-167.05 112.273,-169.398 121.814,-174.005 122.605,-167.05"/>
</g>
<!-- Node7 -->
<g id="node13" class="node"><title>Node7</title>
<a xlink:href="classSocketClient.xhtml#a9ee09f452d900e288b2aa187561ef05d" target="_top" xlink:title="Receive data from the client and append it to a receive buffer.">
<polygon fill="white" stroke="black" points="572,-236.5 572,-257.5 676,-257.5 676,-236.5 572,-236.5"/>
<text text-anchor="middle" x="624" y="-244.5" font-family="FreeSans.ttf" font-size="10.00">SocketClient::Recv</text>
</a>
</g>
<!-- Node1&#45;&gt;Node7 -->
<g id="edge12" class="edge"><title>Node1&#45;&gt;Node7</title>
<path fill="none" stroke="midnightblue" d="M89.7336,-177.425C106.903,-184.261 128.267,-192.005 148,-197 298.633,-235.134 483.187,-244.236 571.73,-246.372"/>
<polygon fill="midnightblue" stroke="midnightblue" points="90.7352,-174.054 80.1533,-173.532 88.1003,-180.539 90.7352,-174.054"/>
</g>
<!-- Node8 -->
<g id="node16" class="node"><title>Node8</title>
<a xlink:href="classSocketClient.xhtml#a6268f3d184970ec0076da657c39d2e80" target="_top" xlink:title="Process data from the client&#39;s send buffer and transmit it via the socket.">
<polygon fill="white" stroke="black" points="181.5,-128.5 181.5,-149.5 288.5,-149.5 288.5,-128.5 181.5,-128.5"/>
<text text-anchor="middle" x="235" y="-136.5" font-family="FreeSans.ttf" font-size="10.00">SocketClient::Send</text>
</a>
</g>
<!-- Node1&#45;&gt;Node8 -->
<g id="edge16" class="edge"><title>Node1&#45;&gt;Node8</title>
<path fill="none" stroke="midnightblue" d="M122.196,-154.125C141.735,-151.505 162.866,-148.672 181.499,-146.173"/>
<polygon fill="midnightblue" stroke="midnightblue" points="121.592,-150.674 112.146,-155.472 122.522,-157.612 121.592,-150.674"/>
</g>
<!-- Node17 -->
<g id="node42" class="node"><title>Node17</title>
<a xlink:href="classSocketClient.xhtml#a3cfd5a085d8df5b4fed5166afe7578b2" target="_top" xlink:title="Resolve the hostname of the client. Threaded to avoid locking on long resolutions.">
<polygon fill="white" stroke="black" points="148.5,-49.5 148.5,-70.5 321.5,-70.5 321.5,-49.5 148.5,-49.5"/>
<text text-anchor="middle" x="235" y="-57.5" font-family="FreeSans.ttf" font-size="10.00">SocketClient::tResolveHostname</text>
</a>
</g>
<!-- Node1&#45;&gt;Node17 -->
<g id="edge50" class="edge"><title>Node1&#45;&gt;Node17</title>
<path fill="none" stroke="midnightblue" d="M83.2197,-147.337C120.107,-126.112 184.986,-88.7792 216.619,-70.577"/>
<polygon fill="midnightblue" stroke="midnightblue" points="81.4038,-144.344 74.4819,-152.365 84.8951,-150.411 81.4038,-144.344"/>
</g>
<!-- Node3 -->
<g id="node5" class="node"><title>Node3</title>
<a xlink:href="classSocketServer.xhtml#afdbc60c3bc840875d2214b59c6213f63" target="_top" xlink:title="Accept a new connection on the listening port.">
<polygon fill="white" stroke="black" points="564,-196.5 564,-217.5 684,-217.5 684,-196.5 564,-196.5"/>
<text text-anchor="middle" x="624" y="-204.5" font-family="FreeSans.ttf" font-size="10.00">SocketServer::Accept</text>
</a>
</g>
<!-- Node2&#45;&gt;Node3 -->
<g id="edge4" class="edge"><title>Node2&#45;&gt;Node3</title>
<path fill="none" stroke="midnightblue" d="M504.93,-207C523.972,-207 544.895,-207 563.818,-207"/>
<polygon fill="midnightblue" stroke="midnightblue" points="504.867,-203.5 494.867,-207 504.867,-210.5 504.867,-203.5"/>
</g>
<!-- Node4 -->
<g id="node7" class="node"><title>Node4</title>
<a xlink:href="classServer.xhtml#a39dbe16fdc8c5f6fbd678c6540fbcd6c" target="_top" xlink:title="Poll all SocketClient objects that are communicating with the associated SocketServer object...">
<polygon fill="white" stroke="black" points="750.5,-177.5 750.5,-198.5 859.5,-198.5 859.5,-177.5 750.5,-177.5"/>
<text text-anchor="middle" x="805" y="-185.5" font-family="FreeSans.ttf" font-size="10.00">Server::PollSockets</text>
</a>
</g>
<!-- Node3&#45;&gt;Node4 -->
<g id="edge6" class="edge"><title>Node3&#45;&gt;Node4</title>
<path fill="none" stroke="midnightblue" d="M694.219,-199.629C712.843,-197.674 732.673,-195.592 750.333,-193.738"/>
<polygon fill="midnightblue" stroke="midnightblue" points="693.599,-196.175 684.019,-200.7 694.33,-203.136 693.599,-196.175"/>
</g>
<!-- Node5 -->
<g id="node9" class="node"><title>Node5</title>
<a xlink:href="classServer.xhtml#a50b81aa91d8fdaee6f52c5c5ec987990" target="_top" xlink:title="The core update loop of NAMS. This loop spawns all other subsystem update routines and then sleeps fo...">
<polygon fill="white" stroke="black" points="1078.5,-118.5 1078.5,-139.5 1167.5,-139.5 1167.5,-118.5 1078.5,-118.5"/>
<text text-anchor="middle" x="1123" y="-126.5" font-family="FreeSans.ttf" font-size="10.00">Server::Update</text>
</a>
</g>
<!-- Node4&#45;&gt;Node5 -->
<g id="edge8" class="edge"><title>Node4&#45;&gt;Node5</title>
<path fill="none" stroke="midnightblue" d="M869.669,-189.342C917.969,-188.786 985.165,-184.69 1042,-169 1065.58,-162.489 1090.5,-149.06 1106.37,-139.562"/>
<polygon fill="midnightblue" stroke="midnightblue" points="869.636,-185.842 859.66,-189.409 869.683,-192.842 869.636,-185.842"/>
</g>
<!-- Node6 -->
<g id="node11" class="node"><title>Node6</title>
<a xlink:href="main_8cpp.xhtml#ad53223b8779f25caeddb70a3b9172967" target="_top" xlink:title="The default function required to execute the server.">
<polygon fill="white" stroke="black" points="1204.5,-41.5 1204.5,-62.5 1245.5,-62.5 1245.5,-41.5 1204.5,-41.5"/>
<text text-anchor="middle" x="1225" y="-49.5" font-family="FreeSans.ttf" font-size="10.00">main</text>
</a>
</g>
<!-- Node5&#45;&gt;Node6 -->
<g id="edge10" class="edge"><title>Node5&#45;&gt;Node6</title>
<path fill="none" stroke="midnightblue" d="M1145.42,-112.076C1165.4,-96.9944 1194.02,-75.3885 1210.94,-62.6156"/>
<polygon fill="midnightblue" stroke="midnightblue" points="1143.06,-109.475 1137.18,-118.293 1147.27,-115.062 1143.06,-109.475"/>
</g>
<!-- Node7&#45;&gt;Node4 -->
<g id="edge14" class="edge"><title>Node7&#45;&gt;Node4</title>
<path fill="none" stroke="midnightblue" d="M666.034,-233.298C698.527,-222.707 742.844,-208.261 772.616,-198.556"/>
<polygon fill="midnightblue" stroke="midnightblue" points="664.782,-230.025 656.359,-236.452 666.952,-236.68 664.782,-230.025"/>
</g>
<!-- Node8&#45;&gt;Node2 -->
<g id="edge46" class="edge"><title>Node8&#45;&gt;Node2</title>
<path fill="none" stroke="midnightblue" d="M273.7,-153.09C297.839,-161.738 329.609,-172.869 358,-182 373.522,-186.992 390.763,-192.137 405.638,-196.451"/>
<polygon fill="midnightblue" stroke="midnightblue" points="274.781,-149.759 264.186,-149.668 272.411,-156.346 274.781,-149.759"/>
</g>
<!-- Node8&#45;&gt;Node4 -->
<g id="edge44" class="edge"><title>Node8&#45;&gt;Node4</title>
<path fill="none" stroke="midnightblue" d="M298.831,-144.487C411.635,-154.184 644.297,-174.185 750.267,-183.295"/>
<polygon fill="midnightblue" stroke="midnightblue" points="298.887,-140.979 288.624,-143.61 298.288,-147.954 298.887,-140.979"/>
</g>
<!-- Node9 -->
<g id="node18" class="node"><title>Node9</title>
<a xlink:href="classAccount.xhtml#a1e12e66ca5fdd8ebbc741d4f037c806b" target="_top" xlink:title="Create a new account.">
<polygon fill="white" stroke="black" points="402,-80.5 402,-101.5 484,-101.5 484,-80.5 402,-80.5"/>
<text text-anchor="middle" x="443" y="-88.5" font-family="FreeSans.ttf" font-size="10.00">Account::New</text>
</a>
</g>
<!-- Node8&#45;&gt;Node9 -->
<g id="edge18" class="edge"><title>Node8&#45;&gt;Node9</title>
<path fill="none" stroke="midnightblue" d="M290.696,-126.147C325.624,-118.087 369.896,-107.87 401.694,-100.532"/>
<polygon fill="midnightblue" stroke="midnightblue" points="289.603,-122.807 280.646,-128.466 291.177,-129.628 289.603,-122.807"/>
</g>
<!-- Node11 -->
<g id="node22" class="node"><title>Node11</title>
<a xlink:href="classSocketClient.xhtml#ad4f63c7d906310dc56a1217136047d7f" target="_top" xlink:title="Interpret the command at the front of the queue.">
<polygon fill="white" stroke="black" points="720,-119.5 720,-140.5 890,-140.5 890,-119.5 720,-119.5"/>
<text text-anchor="middle" x="805" y="-127.5" font-family="FreeSans.ttf" font-size="10.00">SocketClient::ProcessCommand</text>
</a>
</g>
<!-- Node8&#45;&gt;Node11 -->
<g id="edge48" class="edge"><title>Node8&#45;&gt;Node11</title>
<path fill="none" stroke="midnightblue" d="M298.875,-137.991C401.875,-136.365 604.723,-133.162 719.882,-131.344"/>
<polygon fill="midnightblue" stroke="midnightblue" points="298.568,-134.496 288.624,-138.153 298.678,-141.495 298.568,-134.496"/>
</g>
<!-- Node13 -->
<g id="node27" class="node"><title>Node13</title>
<a xlink:href="classServer.xhtml#ae1bb8d3c7c71119bae6dd4205fd6c0cc" target="_top" xlink:title="Sends a message to all clients connected to the Server.">
<polygon fill="white" stroke="black" points="391.5,-40.5 391.5,-61.5 494.5,-61.5 494.5,-40.5 391.5,-40.5"/>
<text text-anchor="middle" x="443" y="-48.5" font-family="FreeSans.ttf" font-size="10.00">Server::Broadcast</text>
</a>
</g>
<!-- Node8&#45;&gt;Node13 -->
<g id="edge28" class="edge"><title>Node8&#45;&gt;Node13</title>
<path fill="none" stroke="midnightblue" d="M259.536,-122.785C283.687,-107.476 322.067,-84.8569 358,-71 368.467,-66.9636 379.985,-63.5896 391.072,-60.8323"/>
<polygon fill="midnightblue" stroke="midnightblue" points="257.534,-119.911 251.012,-128.261 261.317,-125.801 257.534,-119.911"/>
</g>
<!-- Node10 -->
<g id="node20" class="node"><title>Node10</title>
<a xlink:href="classServer.xhtml#af7c4b4e6fe763a8f07984365af7640f7" target="_top" xlink:title="Handle SocketClient objects who have not fully logged into the game yet.">
<polygon fill="white" stroke="black" points="565.5,-80.5 565.5,-101.5 682.5,-101.5 682.5,-80.5 565.5,-80.5"/>
<text text-anchor="middle" x="624" y="-88.5" font-family="FreeSans.ttf" font-size="10.00">Server::ProcessLogin</text>
</a>
</g>
<!-- Node9&#45;&gt;Node10 -->
<g id="edge20" class="edge"><title>Node9&#45;&gt;Node10</title>
<path fill="none" stroke="midnightblue" d="M494.258,-91C516.371,-91 542.359,-91 565.246,-91"/>
<polygon fill="midnightblue" stroke="midnightblue" points="494.072,-87.5001 484.072,-91 494.072,-94.5001 494.072,-87.5001"/>
</g>
<!-- Node10&#45;&gt;Node11 -->
<g id="edge22" class="edge"><title>Node10&#45;&gt;Node11</title>
<path fill="none" stroke="midnightblue" d="M682.885,-103.688C706.517,-108.78 733.439,-114.581 755.98,-119.438"/>
<polygon fill="midnightblue" stroke="midnightblue" points="683.494,-100.239 672.981,-101.554 682.02,-107.082 683.494,-100.239"/>
</g>
<!-- Node12 -->
<g id="node24" class="node"><title>Node12</title>
<a xlink:href="classServer.xhtml#a2b4cec469bb99c2a45e49de5ba74d1ae" target="_top" xlink:title="Processes input from all active SocketClient objects.">
<polygon fill="white" stroke="black" points="926,-138.5 926,-159.5 1042,-159.5 1042,-138.5 926,-138.5"/>
<text text-anchor="middle" x="984" y="-146.5" font-family="FreeSans.ttf" font-size="10.00">Server::ProcessInput</text>
</a>
</g>
<!-- Node11&#45;&gt;Node12 -->
<g id="edge24" class="edge"><title>Node11&#45;&gt;Node12</title>
<path fill="none" stroke="midnightblue" d="M900.249,-140.11C908.93,-141.032 917.54,-141.946 925.748,-142.817"/>
<polygon fill="midnightblue" stroke="midnightblue" points="900.358,-136.602 890.044,-139.027 899.619,-143.563 900.358,-136.602"/>
</g>
<!-- Node12&#45;&gt;Node5 -->
<g id="edge26" class="edge"><title>Node12&#45;&gt;Node5</title>
<path fill="none" stroke="midnightblue" d="M1052.1,-139.201C1060.96,-137.926 1069.86,-136.647 1078.2,-135.446"/>
<polygon fill="midnightblue" stroke="midnightblue" points="1051.54,-135.745 1042.14,-140.634 1052.54,-142.674 1051.54,-135.745"/>
</g>
<!-- Node14 -->
<g id="node29" class="node"><title>Node14</title>
<a xlink:href="classServer.xhtml#a9b7082bbc9faca6eb84180f856116762" target="_top" xlink:title="Perform a clean shutdown of the NAMS Server providing a chance to complete disk writes and free all m...">
<polygon fill="white" stroke="black" points="754.5,-40.5 754.5,-61.5 855.5,-61.5 855.5,-40.5 754.5,-40.5"/>
<text text-anchor="middle" x="805" y="-48.5" font-family="FreeSans.ttf" font-size="10.00">Server::Shutdown</text>
</a>
</g>
<!-- Node13&#45;&gt;Node14 -->
<g id="edge30" class="edge"><title>Node13&#45;&gt;Node14</title>
<path fill="none" stroke="midnightblue" d="M504.934,-51C575.371,-51 689.051,-51 754.398,-51"/>
<polygon fill="midnightblue" stroke="midnightblue" points="504.866,-47.5001 494.866,-51 504.866,-54.5001 504.866,-47.5001"/>
</g>
<!-- Node14&#45;&gt;Node5 -->
<g id="edge38" class="edge"><title>Node14&#45;&gt;Node5</title>
<path fill="none" stroke="midnightblue" d="M857.903,-63.9761C920.185,-79.2529 1022.42,-104.329 1080.03,-118.461"/>
<polygon fill="midnightblue" stroke="midnightblue" points="858.433,-60.5025 847.887,-61.5194 856.765,-67.301 858.433,-60.5025"/>
</g>
<!-- Node14&#45;&gt;Node6 -->
<g id="edge32" class="edge"><title>Node14&#45;&gt;Node6</title>
<path fill="none" stroke="midnightblue" d="M840.521,-36.6979C864.279,-27.922 896.482,-17.526 926,-13 1032.64,3.35146 1063.3,-5.98207 1168,-32 1180.32,-35.0602 1193.72,-39.6957 1204.44,-43.7336"/>
<polygon fill="midnightblue" stroke="midnightblue" points="839.006,-33.5289 830.889,-40.338 841.48,-40.077 839.006,-33.5289"/>
</g>
<!-- Node15 -->
<g id="node32" class="node"><title>Node15</title>
<a xlink:href="classServer.xhtml#a19a1e493e1fb50a56d9c77332543d565" target="_top" xlink:title="Start the NAMS Server. Responsible for calling all critical boot&#45;time functions such as SocketServer ...">
<polygon fill="white" stroke="black" points="1078,-41.5 1078,-62.5 1168,-62.5 1168,-41.5 1078,-41.5"/>
<text text-anchor="middle" x="1123" y="-49.5" font-family="FreeSans.ttf" font-size="10.00">Server::Startup</text>
</a>
</g>
<!-- Node14&#45;&gt;Node15 -->
<g id="edge34" class="edge"><title>Node14&#45;&gt;Node15</title>
<path fill="none" stroke="midnightblue" d="M865.783,-52.201C885.039,-52.5288 906.411,-52.8381 926,-53 977.554,-53.426 990.445,-53.3182 1042,-53 1053.53,-52.9288 1065.99,-52.8006 1077.59,-52.6593"/>
<polygon fill="midnightblue" stroke="midnightblue" points="865.687,-48.6989 855.628,-52.0232 865.565,-55.6978 865.687,-48.6989"/>
</g>
<!-- Node16 -->
<g id="node36" class="node"><title>Node16</title>
<a xlink:href="classSocketServer.xhtml#a72918e73dd56b8986a15678c2cfb5a48" target="_top" xlink:title="Build a socket for a server and set all attributes.">
<polygon fill="white" stroke="black" points="930.5,-22.5 930.5,-43.5 1037.5,-43.5 1037.5,-22.5 930.5,-22.5"/>
<text text-anchor="middle" x="984" y="-30.5" font-family="FreeSans.ttf" font-size="10.00">SocketServer::New</text>
</a>
</g>
<!-- Node14&#45;&gt;Node16 -->
<g id="edge40" class="edge"><title>Node14&#45;&gt;Node16</title>
<path fill="none" stroke="midnightblue" d="M865.859,-44.8801C886.747,-42.7796 909.962,-40.4452 930.245,-38.4055"/>
<polygon fill="midnightblue" stroke="midnightblue" points="865.415,-41.407 855.815,-45.8901 866.115,-48.3719 865.415,-41.407"/>
</g>
<!-- Node15&#45;&gt;Node6 -->
<g id="edge36" class="edge"><title>Node15&#45;&gt;Node6</title>
<path fill="none" stroke="midnightblue" d="M1178.2,-52C1187.56,-52 1196.73,-52 1204.43,-52"/>
<polygon fill="midnightblue" stroke="midnightblue" points="1178.04,-48.5001 1168.04,-52 1178.04,-55.5001 1178.04,-48.5001"/>
</g>
<!-- Node16&#45;&gt;Node15 -->
<g id="edge42" class="edge"><title>Node16&#45;&gt;Node15</title>
<path fill="none" stroke="midnightblue" d="M1047.83,-41.725C1058.01,-43.116 1068.35,-44.5293 1077.97,-45.8446"/>
<polygon fill="midnightblue" stroke="midnightblue" points="1048.12,-38.2325 1037.74,-40.3459 1047.17,-45.168 1048.12,-38.2325"/>
</g>
<!-- Node18 -->
<g id="node44" class="node"><title>Node18</title>
<a xlink:href="classSocketClient.xhtml#afd723bd898217b3c41e29a02f43ec9e1" target="_top" xlink:title="A wrapper to SocketClient::tResolveHostname(). Necessary for threading a member function.">
<polygon fill="white" stroke="black" points="358.5,-0.5 358.5,-21.5 527.5,-21.5 527.5,-0.5 358.5,-0.5"/>
<text text-anchor="middle" x="443" y="-8.5" font-family="FreeSans.ttf" font-size="10.00">SocketClient::ResolveHostname</text>
</a>
</g>
<!-- Node17&#45;&gt;Node18 -->
<g id="edge52" class="edge"><title>Node17&#45;&gt;Node18</title>
<path fill="none" stroke="midnightblue" d="M289.562,-47.1303C310.908,-42.0966 335.601,-36.2758 358,-31 370.985,-27.9415 385.087,-24.6224 398.004,-21.5834"/>
<polygon fill="midnightblue" stroke="midnightblue" points="288.624,-43.7554 279.694,-49.4573 290.23,-50.5685 288.624,-43.7554"/>
</g>
</g>
</svg>
        <g id="navigator" transform="translate(0 0)" fill="#404254">
                <rect fill="#f2f5e9" fill-opacity="0.5" stroke="#606060" stroke-width=".5" x="0" y="0" width="60" height="60"/>
                <use id="zoomplus" xlink:href="#zoomPlus" x="17" y="9" onmousedown="handleZoom(evt,'in')"/>
                <use id="zoomminus" xlink:href="#zoomMin" x="42" y="9" onmousedown="handleZoom(evt,'out')"/>
                <use id="reset" xlink:href="#resetDef" x="30" y="36" onmousedown="handleReset()"/>
                <g id="arrowUp" xlink:href="#dirArrow" transform="translate(30 24)" onmousedown="handlePan(0,-1)">
                  <use xlink:href="#rim" fill="#404040">
                        <set attributeName="fill" to="#808080" begin="arrowUp.mouseover" end="arrowUp.mouseout"/>
                  </use>
                  <path fill="none" stroke="white" stroke-width="1.5" d="M0,-3.0v7 M-2.5,-0.5L0,-3.0L2.5,-0.5"/>
                </g>
                <g id="arrowRight" xlink:href="#dirArrow" transform="rotate(90) translate(36 -43)" onmousedown="handlePan(1,0)">
                  <use xlink:href="#rim" fill="#404040">
                        <set attributeName="fill" to="#808080" begin="arrowRight.mouseover" end="arrowRight.mouseout"/>
                  </use>
                  <path fill="none" stroke="white" stroke-width="1.5" d="M0,-3.0v7 M-2.5,-0.5L0,-3.0L2.5,-0.5"/>
                </g>
                <g id="arrowDown" xlink:href="#dirArrow" transform="rotate(180) translate(-30 -48)" onmousedown="handlePan(0,1)">
                  <use xlink:href="#rim" fill="#404040">
                        <set attributeName="fill" to="#808080" begin="arrowDown.mouseover" end="arrowDown.mouseout"/>
                  </use>
                  <path fill="none" stroke="white" stroke-width="1.5" d="M0,-3.0v7 M-2.5,-0.5L0,-3.0L2.5,-0.5"/>
                </g>
                <g id="arrowLeft" xlink:href="#dirArrow" transform="rotate(270) translate(-36 17)" onmousedown="handlePan(-1,0)">
                  <use xlink:href="#rim" fill="#404040">
                        <set attributeName="fill" to="#808080" begin="arrowLeft.mouseover" end="arrowLeft.mouseout"/>
                  </use>
                  <path fill="none" stroke="white" stroke-width="1.5" d="M0,-3.0v7 M-2.5,-0.5L0,-3.0L2.5,-0.5"/>
                </g>
        </g>
</svg>
