<?xml version="1.0" encoding="UTF-8" standalone="no"?>
<!DOCTYPE svg PUBLIC "-//W3C//DTD SVG 1.1//EN"
 "http://www.w3.org/Graphics/SVG/1.1/DTD/svg11.dtd">
<!-- Generated by graphviz version 2.26.3 (20100126.1600)
 -->
<!-- Title: Account::gCharacters Pages: 1 -->
<!--zoomable 596 -->
<svg id="main" version="1.1" xmlns="http://www.w3.org/2000/svg" xmlns:xlink="http://www.w3.org/1999/xlink" xml:space="preserve" onload="init(evt)">
        <defs>
                <circle id="rim" cx="0" cy="0" r="7"/>
                <circle id="rim2" cx="0" cy="0" r="3.5"/>
                <g id="zoomPlus">
                        <use xlink:href="#rim" fill="#404040">
                                <set attributeName="fill" to="#808080" begin="zoomplus.mouseover" end="zoomplus.mouseout"/>
                        </use>
                        <path d="M-4,0h8M0,-4v8" fill="none" stroke="white" stroke-width="1.5" pointer-events="none"/>
                </g>
                <g id="zoomMin">
                        <use xlink:href="#rim" fill="#404040">
                                <set attributeName="fill" to="#808080" begin="zoomminus.mouseover" end="zoomminus.mouseout"/>
                        </use>
                        <path d="M-4,0h8" fill="none" stroke="white" stroke-width="1.5" pointer-events="none"/>
                </g>
                <g id="dirArrow">
                        <path fill="none" stroke="white" stroke-width="1.5" d="M0,-3.0v7 M-2.5,-0.5L0,-3.0L2.5,-0.5"/>
                </g>
               <g id="resetDef">
                       <use xlink:href="#rim2" fill="#404040">
                               <set attributeName="fill" to="#808080" begin="reset.mouseover" end="reset.mouseout"/>
                       </use>
               </g>
        </defs>

<script type="text/javascript">
var viewWidth = 1250;
var viewHeight = 596;
var sectionId = 'dynsection-9';
</script>
<script xlink:href="svgpan.js"/>
<svg id="graph" class="graph">
<g id="viewport">
<title>Account::gCharacters</title>
<polygon fill="white" stroke="white" points="-4,5 -4,-592 1247,-592 1247,5 -4,5"/>
<!-- Node1 -->
<g id="node1" class="node"><title>Node1</title>
<polygon fill="#bfbfbf" stroke="black" points="0,-228 0,-248 120,-248 120,-228 0,-228"/>
<text text-anchor="middle" x="60" y="-235" font-family="FreeSans.ttf" font-size="10.00">Account::gCharacters</text>
</g>
<!-- Node2 -->
<g id="node3" class="node"><title>Node2</title>
<a xlink:href="namespaceHandler.xhtml#a73ed6064f2698dbffb5f4c247a02b661" target="_top" xlink:title="Send initial account interface menu.">
<polygon fill="white" stroke="black" points="156,-290 156,-310 304,-310 304,-290 156,-290"/>
<text text-anchor="middle" x="230" y="-297" font-family="FreeSans.ttf" font-size="10.00">Handler::AccountMenuMain</text>
</a>
</g>
<!-- Node1&#45;&gt;Node2 -->
<g id="edge2" class="edge"><title>Node1&#45;&gt;Node2</title>
<path fill="none" stroke="midnightblue" d="M97.4828,-251.67C129.156,-263.222 173.799,-279.503 202.32,-289.905"/>
<polygon fill="midnightblue" stroke="midnightblue" points="98.2857,-248.238 87.6918,-248.099 95.8873,-254.814 98.2857,-248.238"/>
</g>
<!-- Node7 -->
<g id="node17" class="node"><title>Node7</title>
<a xlink:href="namespaceHandler.xhtml#ab5889a65de2794129b375ec39ae923ae" target="_top" xlink:title="Select a new Character name.">
<polygon fill="white" stroke="black" points="505.5,-568 505.5,-588 674.5,-588 674.5,-568 505.5,-568"/>
<text text-anchor="middle" x="590" y="-575" font-family="FreeSans.ttf" font-size="10.00">Handler::CharacterCreateName</text>
</a>
</g>
<!-- Node1&#45;&gt;Node7 -->
<g id="edge82" class="edge"><title>Node1&#45;&gt;Node7</title>
<path fill="none" stroke="midnightblue" d="M78.9129,-254.848C97.9731,-271.613 128.432,-297.824 156,-319 303.84,-432.561 328.926,-484.929 500,-559 508.353,-562.617 517.448,-565.565 526.541,-567.963"/>
<polygon fill="midnightblue" stroke="midnightblue" points="81.0574,-252.072 71.2464,-248.073 76.422,-257.318 81.0574,-252.072"/>
</g>
<!-- Node10 -->
<g id="node26" class="node"><title>Node10</title>
<a xlink:href="namespaceHandler.xhtml#afc470ec6e82b7a9a1560588a368734f9" target="_top" xlink:title="Main Character deletion menu.">
<polygon fill="white" stroke="black" points="520.5,-38 520.5,-70 659.5,-70 659.5,-38 520.5,-38"/>
<text text-anchor="start" x="528.5" y="-57" font-family="FreeSans.ttf" font-size="10.00">Handler::CharacterDelete</text>
<text text-anchor="middle" x="590" y="-45" font-family="FreeSans.ttf" font-size="10.00">MenuMain</text>
</a>
</g>
<!-- Node1&#45;&gt;Node10 -->
<g id="edge84" class="edge"><title>Node1&#45;&gt;Node10</title>
<path fill="none" stroke="midnightblue" d="M94.8822,-224.372C168.908,-195.678 347.446,-127.675 500,-79 509.579,-75.9438 519.796,-72.9016 529.782,-70.0459"/>
<polygon fill="midnightblue" stroke="midnightblue" points="93.6101,-221.111 85.5553,-227.994 96.1441,-227.636 93.6101,-221.111"/>
</g>
<!-- Node11 -->
<g id="node29" class="node"><title>Node11</title>
<a xlink:href="namespaceHandler.xhtml#a02b1b954749641ab646f6548a5360d3b" target="_top" xlink:title="Main Character load menu.">
<polygon fill="white" stroke="black" points="500.5,-0 500.5,-20 679.5,-20 679.5,-0 500.5,-0"/>
<text text-anchor="middle" x="590" y="-7" font-family="FreeSans.ttf" font-size="10.00">Handler::CharacterLoadMenuMain</text>
</a>
</g>
<!-- Node1&#45;&gt;Node11 -->
<g id="edge86" class="edge"><title>Node1&#45;&gt;Node11</title>
<path fill="none" stroke="midnightblue" d="M73.8305,-219.956C90.9712,-198.74 122.093,-163.792 156,-143 273.062,-71.2152 431.838,-35.5337 521.306,-20.0652"/>
<polygon fill="midnightblue" stroke="midnightblue" points="71.0295,-217.855 67.5712,-227.87 76.5198,-222.198 71.0295,-217.855"/>
</g>
<!-- Node3 -->
<g id="node5" class="node"><title>Node3</title>
<a xlink:href="namespaceHandler.xhtml#a139febc000c9d767a620708148e0c888" target="_top" xlink:title="Dispatches the appropriate menu based on client state.">
<polygon fill="white" stroke="black" points="340.5,-290 340.5,-310 463.5,-310 463.5,-290 340.5,-290"/>
<text text-anchor="middle" x="402" y="-297" font-family="FreeSans.ttf" font-size="10.00">Handler::LoginHandler</text>
</a>
</g>
<!-- Node2&#45;&gt;Node3 -->
<g id="edge4" class="edge"><title>Node2&#45;&gt;Node3</title>
<path fill="none" stroke="midnightblue" d="M314.448,-293.251C323.212,-293.24 331.998,-293.322 340.441,-293.498"/>
<polygon fill="midnightblue" stroke="midnightblue" points="314.172,-289.752 304.191,-293.307 314.21,-296.752 314.172,-289.752"/>
</g>
<!-- Node3&#45;&gt;Node2 -->
<g id="edge14" class="edge"><title>Node3&#45;&gt;Node2</title>
<path fill="none" stroke="midnightblue" d="M330.394,-306.665C321.738,-306.768 312.883,-306.777 304.191,-306.693"/>
<polygon fill="midnightblue" stroke="midnightblue" points="330.499,-310.164 340.441,-306.502 330.385,-303.165 330.499,-310.164"/>
</g>
<!-- Node4 -->
<g id="node7" class="node"><title>Node4</title>
<a xlink:href="namespaceHandler.xhtml#a33a19d69ead678af81fbe96907eceaf0" target="_top" xlink:title="Create a new account object, or load an existing one, with a name and password.">
<polygon fill="white" stroke="black" points="524.5,-176 524.5,-196 655.5,-196 655.5,-176 524.5,-176"/>
<text text-anchor="middle" x="590" y="-183" font-family="FreeSans.ttf" font-size="10.00">Handler::AttachAccount</text>
</a>
</g>
<!-- Node3&#45;&gt;Node4 -->
<g id="edge6" class="edge"><title>Node3&#45;&gt;Node4</title>
<path fill="none" stroke="midnightblue" d="M412.371,-281.396C428.854,-258.509 462.975,-221.31 500,-201 507.514,-196.878 515.775,-193.434 524.15,-190.644"/>
<polygon fill="midnightblue" stroke="midnightblue" points="409.286,-279.71 406.601,-289.959 415.092,-283.622 409.286,-279.71"/>
</g>
<!-- Node5 -->
<g id="node10" class="node"><title>Node5</title>
<a xlink:href="namespaceHandler.xhtml#a2e4ebf6ed049eb872aa4948d54c4932c" target="_top" xlink:title="Attempt to write a new character to disk after creation was completed.">
<polygon fill="white" stroke="black" points="520.5,-138 520.5,-158 659.5,-158 659.5,-138 520.5,-138"/>
<text text-anchor="middle" x="590" y="-145" font-family="FreeSans.ttf" font-size="10.00">Handler::AttachCharacter</text>
</a>
</g>
<!-- Node3&#45;&gt;Node5 -->
<g id="edge10" class="edge"><title>Node3&#45;&gt;Node5</title>
<path fill="none" stroke="midnightblue" d="M408.394,-280.181C421.335,-248.443 453.414,-187.986 500,-158 506.177,-154.024 513.04,-150.864 520.143,-148.406"/>
<polygon fill="midnightblue" stroke="midnightblue" points="405.035,-279.167 404.746,-289.758 411.577,-281.659 405.035,-279.167"/>
</g>
<!-- Node6 -->
<g id="node14" class="node"><title>Node6</title>
<a xlink:href="namespaceHandler.xhtml#ad04998a7a6ece2486bc441052a57c2d7" target="_top" xlink:title="Main Character creation menu.">
<polygon fill="white" stroke="black" points="520,-88 520,-120 660,-120 660,-88 520,-88"/>
<text text-anchor="start" x="528" y="-107" font-family="FreeSans.ttf" font-size="10.00">Handler::CharacterCreate</text>
<text text-anchor="middle" x="590" y="-95" font-family="FreeSans.ttf" font-size="10.00">MenuMain</text>
</a>
</g>
<!-- Node3&#45;&gt;Node6 -->
<g id="edge16" class="edge"><title>Node3&#45;&gt;Node6</title>
<path fill="none" stroke="midnightblue" d="M406.365,-279.969C416.744,-242.197 446.148,-161.853 500,-120 505.89,-115.422 512.569,-111.683 519.564,-108.68"/>
<polygon fill="midnightblue" stroke="midnightblue" points="402.929,-279.277 403.842,-289.833 409.711,-281.012 402.929,-279.277"/>
</g>
<!-- Node3&#45;&gt;Node7 -->
<g id="edge20" class="edge"><title>Node3&#45;&gt;Node7</title>
<path fill="none" stroke="midnightblue" d="M414.033,-319.131C427.165,-345.282 448.397,-392.907 464,-435 482.615,-485.218 460.368,-513.977 500,-550 510.636,-559.667 524.917,-564.885 538.965,-567.979"/>
<polygon fill="midnightblue" stroke="midnightblue" points="417.126,-317.492 409.425,-310.216 410.907,-320.707 417.126,-317.492"/>
</g>
<!-- Node8 -->
<g id="node20" class="node"><title>Node8</title>
<a xlink:href="namespaceHandler.xhtml#ae5086bcf5857eb572beedd09158c3065" target="_top" xlink:title="Select a new Character sex.">
<polygon fill="white" stroke="black" points="511,-530 511,-550 669,-550 669,-530 511,-530"/>
<text text-anchor="middle" x="590" y="-537" font-family="FreeSans.ttf" font-size="10.00">Handler::CharacterCreateSex</text>
</a>
</g>
<!-- Node3&#45;&gt;Node8 -->
<g id="edge24" class="edge"><title>Node3&#45;&gt;Node8</title>
<path fill="none" stroke="midnightblue" d="M412.173,-319.216C436.409,-371.056 495.853,-508.641 500,-512 512.162,-521.85 528.201,-526.942 543.367,-529.982"/>
<polygon fill="midnightblue" stroke="midnightblue" points="415.274,-317.588 407.822,-310.057 408.952,-320.591 415.274,-317.588"/>
</g>
<!-- Node9 -->
<g id="node23" class="node"><title>Node9</title>
<a xlink:href="namespaceHandler.xhtml#a97a198bfc72285b2aca4f36978db715e" target="_top" xlink:title="Main Character deletion confirmation.">
<polygon fill="white" stroke="black" points="520.5,-480 520.5,-512 659.5,-512 659.5,-480 520.5,-480"/>
<text text-anchor="start" x="528.5" y="-499" font-family="FreeSans.ttf" font-size="10.00">Handler::CharacterDelete</text>
<text text-anchor="middle" x="590" y="-487" font-family="FreeSans.ttf" font-size="10.00">Confirm</text>
</a>
</g>
<!-- Node3&#45;&gt;Node9 -->
<g id="edge28" class="edge"><title>Node3&#45;&gt;Node9</title>
<path fill="none" stroke="midnightblue" d="M409.662,-319.684C422.278,-354.057 451.031,-423.942 500,-462 510.756,-470.359 524.143,-475.924 537.277,-479.947"/>
<polygon fill="midnightblue" stroke="midnightblue" points="412.939,-318.455 406.26,-310.231 406.353,-320.825 412.939,-318.455"/>
</g>
<!-- Node3&#45;&gt;Node10 -->
<g id="edge32" class="edge"><title>Node3&#45;&gt;Node10</title>
<path fill="none" stroke="midnightblue" d="M407.106,-279.977C422.03,-229.169 466.628,-98.8106 500,-70 506.015,-64.8073 513.024,-60.6865 520.427,-57.4807"/>
<polygon fill="midnightblue" stroke="midnightblue" points="403.68,-279.229 404.316,-289.805 410.414,-281.141 403.68,-279.229"/>
</g>
<!-- Node3&#45;&gt;Node11 -->
<g id="edge36" class="edge"><title>Node3&#45;&gt;Node11</title>
<path fill="none" stroke="midnightblue" d="M405.671,-280.149C418.009,-221.933 459.485,-55.2436 500,-20 500.12,-19.8952 500.241,-19.7909 500.363,-19.6872"/>
<polygon fill="midnightblue" stroke="midnightblue" points="402.233,-279.49 403.657,-289.989 409.091,-280.894 402.233,-279.49"/>
</g>
<!-- Node12 -->
<g id="node32" class="node"><title>Node12</title>
<a xlink:href="namespaceHandler.xhtml#a00bc24564bfd267e0329643c569da1e4" target="_top" xlink:title="Select a new account name.">
<polygon fill="white" stroke="black" points="521.5,-442 521.5,-462 658.5,-462 658.5,-442 521.5,-442"/>
<text text-anchor="middle" x="590" y="-449" font-family="FreeSans.ttf" font-size="10.00">Handler::GetNewAccount</text>
</a>
</g>
<!-- Node3&#45;&gt;Node12 -->
<g id="edge40" class="edge"><title>Node3&#45;&gt;Node12</title>
<path fill="none" stroke="midnightblue" d="M413.637,-319.224C428.938,-347.115 458.794,-397.477 500,-424 515.442,-433.94 535.172,-438.783 552.222,-441.92"/>
<polygon fill="midnightblue" stroke="midnightblue" points="416.68,-317.494 408.836,-310.372 410.526,-320.831 416.68,-317.494"/>
</g>
<!-- Node13 -->
<g id="node35" class="node"><title>Node13</title>
<a xlink:href="namespaceHandler.xhtml#a744adadcf407cdb3a9c33365afd5a7c2" target="_top" xlink:title="Create a new account.">
<polygon fill="white" stroke="black" points="519,-404 519,-424 661,-424 661,-404 519,-404"/>
<text text-anchor="middle" x="590" y="-411" font-family="FreeSans.ttf" font-size="10.00">Handler::GetNewPassword</text>
</a>
</g>
<!-- Node3&#45;&gt;Node13 -->
<g id="edge44" class="edge"><title>Node3&#45;&gt;Node13</title>
<path fill="none" stroke="midnightblue" d="M420.693,-317.756C438.606,-337.687 467.641,-368.783 500,-386 518.328,-395.751 541.25,-400.498 559.374,-403.988"/>
<polygon fill="midnightblue" stroke="midnightblue" points="423.222,-315.333 413.943,-310.219 418.008,-320.004 423.222,-315.333"/>
</g>
<!-- Node14 -->
<g id="node38" class="node"><title>Node14</title>
<a xlink:href="namespaceHandler.xhtml#adfe13cc9748392348f3941656a1323b6" target="_top" xlink:title="Compare a received password against an existing account.">
<polygon fill="white" stroke="black" points="521.5,-366 521.5,-386 658.5,-386 658.5,-366 521.5,-366"/>
<text text-anchor="middle" x="590" y="-373" font-family="FreeSans.ttf" font-size="10.00">Handler::GetOldPassword</text>
</a>
</g>
<!-- Node3&#45;&gt;Node14 -->
<g id="edge48" class="edge"><title>Node3&#45;&gt;Node14</title>
<path fill="none" stroke="midnightblue" d="M435.874,-315.3C454.156,-325.952 477.529,-339.351 500,-348 522.057,-356.49 548.691,-361.514 567.238,-365.981"/>
<polygon fill="midnightblue" stroke="midnightblue" points="437.475,-312.182 427.072,-310.172 433.951,-318.23 437.475,-312.182"/>
</g>
<!-- Node15 -->
<g id="node41" class="node"><title>Node15</title>
<a xlink:href="namespaceHandler.xhtml#ae70e4e50054c729c14493eafefe01b5c" target="_top" xlink:title="Load a character from the account to enter into the game with.">
<polygon fill="white" stroke="black" points="524.5,-328 524.5,-348 655.5,-348 655.5,-328 524.5,-328"/>
<text text-anchor="middle" x="590" y="-335" font-family="FreeSans.ttf" font-size="10.00">Handler::LoadCharacter</text>
</a>
</g>
<!-- Node3&#45;&gt;Node15 -->
<g id="edge52" class="edge"><title>Node3&#45;&gt;Node15</title>
<path fill="none" stroke="midnightblue" d="M473.7,-307.914C505.387,-313.823 540.662,-321.533 563.964,-327.9"/>
<polygon fill="midnightblue" stroke="midnightblue" points="474.024,-304.416 463.558,-306.063 472.767,-311.302 474.024,-304.416"/>
</g>
<!-- Node16 -->
<g id="node44" class="node"><title>Node16</title>
<a xlink:href="namespaceHandler.xhtml#a44b41bf69fdc6e615a029bea34910191" target="_top" xlink:title="Send initial greeting and request for account name.">
<polygon fill="white" stroke="black" points="530.5,-290 530.5,-310 649.5,-310 649.5,-290 530.5,-290"/>
<text text-anchor="middle" x="590" y="-297" font-family="FreeSans.ttf" font-size="10.00">Handler::LoginScreen</text>
</a>
</g>
<!-- Node3&#45;&gt;Node16 -->
<g id="edge56" class="edge"><title>Node3&#45;&gt;Node16</title>
<path fill="none" stroke="midnightblue" d="M473.765,-293.421C492.403,-293.13 512.278,-293.211 530.225,-293.664"/>
<polygon fill="midnightblue" stroke="midnightblue" points="473.488,-289.925 463.558,-293.621 473.625,-296.924 473.488,-289.925"/>
</g>
<!-- Node17 -->
<g id="node47" class="node"><title>Node17</title>
<a xlink:href="classSocketClient.xhtml#a8399ef20292e9f3ec83b5c4bec2e105b" target="_top" xlink:title="Build a SocketClient for a new client connection and set all attributes.">
<polygon fill="white" stroke="black" points="538.5,-252 538.5,-272 641.5,-272 641.5,-252 538.5,-252"/>
<text text-anchor="middle" x="590" y="-259" font-family="FreeSans.ttf" font-size="10.00">SocketClient::New</text>
</a>
</g>
<!-- Node3&#45;&gt;Node17 -->
<g id="edge60" class="edge"><title>Node3&#45;&gt;Node17</title>
<path fill="none" stroke="midnightblue" d="M461.73,-287.927C487.007,-282.818 516.115,-276.934 540.206,-272.065"/>
<polygon fill="midnightblue" stroke="midnightblue" points="460.995,-284.505 451.887,-289.916 462.382,-291.366 460.995,-284.505"/>
</g>
<!-- Node24 -->
<g id="node62" class="node"><title>Node24</title>
<a xlink:href="classSocketClient.xhtml#ad4f63c7d906310dc56a1217136047d7f" target="_top" xlink:title="Interpret the command at the front of the queue.">
<polygon fill="white" stroke="black" points="716,-214 716,-234 886,-234 886,-214 716,-214"/>
<text text-anchor="middle" x="801" y="-221" font-family="FreeSans.ttf" font-size="10.00">SocketClient::ProcessCommand</text>
</a>
</g>
<!-- Node3&#45;&gt;Node24 -->
<g id="edge76" class="edge"><title>Node3&#45;&gt;Node24</title>
<path fill="none" stroke="midnightblue" d="M422.908,-283.941C441.885,-270.355 471.224,-251.742 500,-243 570.516,-221.579 654.48,-217.969 715.788,-219.06"/>
<polygon fill="midnightblue" stroke="midnightblue" points="420.703,-281.218 414.715,-289.959 424.846,-286.86 420.703,-281.218"/>
</g>
<!-- Node4&#45;&gt;Node3 -->
<g id="edge8" class="edge"><title>Node4&#45;&gt;Node3</title>
<path fill="none" stroke="midnightblue" d="M558.111,-198.538C540.232,-203.156 517.98,-209.137 500,-219 465.165,-238.109 432.901,-272.168 415.478,-289.732"/>
<polygon fill="midnightblue" stroke="midnightblue" points="559.001,-201.923 567.803,-196.027 557.245,-195.147 559.001,-201.923"/>
</g>
<!-- Node5&#45;&gt;Node3 -->
<g id="edge12" class="edge"><title>Node5&#45;&gt;Node3</title>
<path fill="none" stroke="midnightblue" d="M542.395,-160.047C527.924,-163.212 512.547,-167.924 500,-176 453.936,-205.65 422.056,-265.092 408.836,-289.628"/>
<polygon fill="midnightblue" stroke="midnightblue" points="543.103,-163.475 552.222,-158.08 541.729,-156.611 543.103,-163.475"/>
</g>
<!-- Node6&#45;&gt;Node3 -->
<g id="edge18" class="edge"><title>Node6&#45;&gt;Node3</title>
<path fill="none" stroke="midnightblue" d="M527.73,-123.265C517.813,-126.935 508.151,-131.665 500,-138 445.965,-179.995 416.545,-260.743 406.26,-289.769"/>
<polygon fill="midnightblue" stroke="midnightblue" points="528.915,-126.56 537.277,-120.053 526.683,-119.925 528.915,-126.56"/>
</g>
<!-- Node7&#45;&gt;Node3 -->
<g id="edge22" class="edge"><title>Node7&#45;&gt;Node3</title>
<path fill="none" stroke="midnightblue" d="M498,-565.236C462.835,-528.533 481.524,-500.276 464,-453 443.85,-398.638 414.31,-335.05 404.955,-310.038"/>
<polygon fill="midnightblue" stroke="midnightblue" points="495.586,-567.771 505.213,-572.194 500.446,-562.733 495.586,-567.771"/>
</g>
<!-- Node8&#45;&gt;Node3 -->
<g id="edge26" class="edge"><title>Node8&#45;&gt;Node3</title>
<path fill="none" stroke="midnightblue" d="M502.24,-531.729C501.48,-531.17 500.733,-530.594 500,-530 495.362,-526.244 421.573,-354.632 405.201,-310.151"/>
<polygon fill="midnightblue" stroke="midnightblue" points="500.499,-534.768 510.836,-537.093 504.205,-528.83 500.499,-534.768"/>
</g>
<!-- Node9&#45;&gt;Node3 -->
<g id="edge30" class="edge"><title>Node9&#45;&gt;Node3</title>
<path fill="none" stroke="midnightblue" d="M511.417,-487.392C507.394,-485.218 503.553,-482.761 500,-480 440.832,-434.016 411.178,-341.565 403.842,-310.167"/>
<polygon fill="midnightblue" stroke="midnightblue" points="509.945,-490.567 520.478,-491.708 512.955,-484.247 509.945,-490.567"/>
</g>
<!-- Node10&#45;&gt;Node3 -->
<g id="edge34" class="edge"><title>Node10&#45;&gt;Node3</title>
<path fill="none" stroke="midnightblue" d="M524.834,-73.4786C515.819,-77.1078 507.197,-81.7865 500,-88 466.086,-117.279 420.578,-251.434 406.402,-289.95"/>
<polygon fill="midnightblue" stroke="midnightblue" points="526.109,-76.7398 534.329,-70.0563 523.735,-70.1545 526.109,-76.7398"/>
</g>
<!-- Node11&#45;&gt;Node3 -->
<g id="edge38" class="edge"><title>Node11&#45;&gt;Node3</title>
<path fill="none" stroke="midnightblue" d="M530.765,-22.4504C519.568,-25.6586 508.667,-30.461 500,-38 458.761,-73.8733 416.526,-245.93 405.038,-289.972"/>
<polygon fill="midnightblue" stroke="midnightblue" points="531.763,-25.8092 540.631,-20.0128 530.084,-19.0135 531.763,-25.8092"/>
</g>
<!-- Node12&#45;&gt;Node3 -->
<g id="edge42" class="edge"><title>Node12&#45;&gt;Node3</title>
<path fill="none" stroke="midnightblue" d="M511.496,-448.181C507.488,-446.386 503.626,-444.334 500,-442 448.148,-408.624 414.268,-337.499 404.746,-310.242"/>
<polygon fill="midnightblue" stroke="midnightblue" points="510.482,-451.542 521.071,-451.911 513.023,-445.02 510.482,-451.542"/>
</g>
<!-- Node13&#45;&gt;Node3 -->
<g id="edge46" class="edge"><title>Node13&#45;&gt;Node3</title>
<path fill="none" stroke="midnightblue" d="M509.498,-408.463C506.234,-407.11 503.053,-405.624 500,-404 456.279,-380.738 418.627,-332.139 406.276,-310.181"/>
<polygon fill="midnightblue" stroke="midnightblue" points="508.292,-411.749 518.886,-411.931 510.718,-405.182 508.292,-411.749"/>
</g>
<!-- Node14&#45;&gt;Node3 -->
<g id="edge50" class="edge"><title>Node14&#45;&gt;Node3</title>
<path fill="none" stroke="midnightblue" d="M511.324,-369.945C507.462,-368.728 503.668,-367.412 500,-366 463.63,-352.001 424.896,-325.559 409.211,-310.132"/>
<polygon fill="midnightblue" stroke="midnightblue" points="510.454,-373.337 521.033,-372.767 512.407,-366.615 510.454,-373.337"/>
</g>
<!-- Node15&#45;&gt;Node3 -->
<g id="edge54" class="edge"><title>Node15&#45;&gt;Node3</title>
<path fill="none" stroke="midnightblue" d="M514.283,-329.331C483.534,-323.506 450.069,-316.136 427.746,-310.021"/>
<polygon fill="midnightblue" stroke="midnightblue" points="513.683,-332.779 524.154,-331.164 514.961,-325.897 513.683,-332.779"/>
</g>
<!-- Node16&#45;&gt;Node3 -->
<g id="edge58" class="edge"><title>Node16&#45;&gt;Node3</title>
<path fill="none" stroke="midnightblue" d="M520.076,-306.549C501.523,-306.865 481.629,-306.808 463.558,-306.379"/>
<polygon fill="midnightblue" stroke="midnightblue" points="520.301,-310.045 530.225,-306.336 520.153,-303.047 520.301,-310.045"/>
</g>
<!-- Node18 -->
<g id="node49" class="node"><title>Node18</title>
<a xlink:href="namespaceServer.xhtml#a16ea0639731dee10e1a253375b508a02" target="_top" xlink:title="Recovers the server state and re&#45;connects client sockets after a reboot.">
<polygon fill="white" stroke="black" points="736,-290 736,-310 866,-310 866,-290 736,-290"/>
<text text-anchor="middle" x="801" y="-297" font-family="FreeSans.ttf" font-size="10.00">Server::RebootRecovery</text>
</a>
</g>
<!-- Node17&#45;&gt;Node18 -->
<g id="edge62" class="edge"><title>Node17&#45;&gt;Node18</title>
<path fill="none" stroke="midnightblue" d="M651.808,-273.131C681.328,-278.448 716.393,-284.763 745.108,-289.934"/>
<polygon fill="midnightblue" stroke="midnightblue" points="652.078,-269.624 641.616,-271.296 650.838,-276.513 652.078,-269.624"/>
</g>
<!-- Node21 -->
<g id="node55" class="node"><title>Node21</title>
<a xlink:href="classSocketServer.xhtml#afdbc60c3bc840875d2214b59c6213f63" target="_top" xlink:title="Accept a new connection on the listening port.">
<polygon fill="white" stroke="black" points="741,-252 741,-272 861,-272 861,-252 741,-252"/>
<text text-anchor="middle" x="801" y="-259" font-family="FreeSans.ttf" font-size="10.00">SocketServer::Accept</text>
</a>
</g>
<!-- Node17&#45;&gt;Node21 -->
<g id="edge68" class="edge"><title>Node17&#45;&gt;Node21</title>
<path fill="none" stroke="midnightblue" d="M651.731,-262C679.855,-262 713.024,-262 740.944,-262"/>
<polygon fill="midnightblue" stroke="midnightblue" points="651.616,-258.5 641.616,-262 651.616,-265.5 651.616,-258.5"/>
</g>
<!-- Node19 -->
<g id="node51" class="node"><title>Node19</title>
<a xlink:href="namespaceServer.xhtml#a19a1e493e1fb50a56d9c77332543d565" target="_top" xlink:title="Start the NAMS Server. Responsible for calling all critical boot&#45;time functions such as SocketServer ...">
<polygon fill="white" stroke="black" points="1074,-290 1074,-310 1164,-310 1164,-290 1074,-290"/>
<text text-anchor="middle" x="1119" y="-297" font-family="FreeSans.ttf" font-size="10.00">Server::Startup</text>
</a>
</g>
<!-- Node18&#45;&gt;Node19 -->
<g id="edge64" class="edge"><title>Node18&#45;&gt;Node19</title>
<path fill="none" stroke="midnightblue" d="M876.16,-300C937.639,-300 1022.54,-300 1073.95,-300"/>
<polygon fill="midnightblue" stroke="midnightblue" points="876.119,-296.5 866.119,-300 876.119,-303.5 876.119,-296.5"/>
</g>
<!-- Node20 -->
<g id="node53" class="node"><title>Node20</title>
<a xlink:href="main_8cpp.xhtml#ad53223b8779f25caeddb70a3b9172967" target="_top" xlink:title="The default function required to execute the server.">
<polygon fill="white" stroke="black" points="1200.5,-271 1200.5,-291 1241.5,-291 1241.5,-271 1200.5,-271"/>
<text text-anchor="middle" x="1221" y="-278" font-family="FreeSans.ttf" font-size="10.00">main</text>
</a>
</g>
<!-- Node19&#45;&gt;Node20 -->
<g id="edge66" class="edge"><title>Node19&#45;&gt;Node20</title>
<path fill="none" stroke="midnightblue" d="M1173.9,-289.773C1183.36,-288.011 1192.64,-286.282 1200.43,-284.831"/>
<polygon fill="midnightblue" stroke="midnightblue" points="1173.23,-286.339 1164.04,-291.611 1174.51,-293.221 1173.23,-286.339"/>
</g>
<!-- Node22 -->
<g id="node57" class="node"><title>Node22</title>
<a xlink:href="namespaceServer.xhtml#a39dbe16fdc8c5f6fbd678c6540fbcd6c" target="_top" xlink:title="Poll all SocketClient objects that are communicating with the associated SocketServer object...">
<polygon fill="white" stroke="black" points="925.5,-252 925.5,-272 1034.5,-272 1034.5,-252 925.5,-252"/>
<text text-anchor="middle" x="980" y="-259" font-family="FreeSans.ttf" font-size="10.00">Server::PollSockets</text>
</a>
</g>
<!-- Node21&#45;&gt;Node22 -->
<g id="edge70" class="edge"><title>Node21&#45;&gt;Node22</title>
<path fill="none" stroke="midnightblue" d="M871.268,-262C889.284,-262 908.391,-262 925.478,-262"/>
<polygon fill="midnightblue" stroke="midnightblue" points="871.102,-258.5 861.102,-262 871.102,-265.5 871.102,-258.5"/>
</g>
<!-- Node23 -->
<g id="node59" class="node"><title>Node23</title>
<a xlink:href="namespaceServer.xhtml#a50b81aa91d8fdaee6f52c5c5ec987990" target="_top" xlink:title="The core update loop of NAMS. This loop spawns all other subsystem update routines and then sleeps fo...">
<polygon fill="white" stroke="black" points="1074.5,-252 1074.5,-272 1163.5,-272 1163.5,-252 1074.5,-252"/>
<text text-anchor="middle" x="1119" y="-259" font-family="FreeSans.ttf" font-size="10.00">Server::Update</text>
</a>
</g>
<!-- Node22&#45;&gt;Node23 -->
<g id="edge72" class="edge"><title>Node22&#45;&gt;Node23</title>
<path fill="none" stroke="midnightblue" d="M1044.57,-262C1054.69,-262 1064.94,-262 1074.47,-262"/>
<polygon fill="midnightblue" stroke="midnightblue" points="1044.54,-258.5 1034.54,-262 1044.54,-265.5 1044.54,-258.5"/>
</g>
<!-- Node23&#45;&gt;Node20 -->
<g id="edge74" class="edge"><title>Node23&#45;&gt;Node20</title>
<path fill="none" stroke="midnightblue" d="M1173.64,-272.178C1183.14,-273.948 1192.47,-275.685 1200.3,-277.144"/>
<polygon fill="midnightblue" stroke="midnightblue" points="1174.21,-268.724 1163.74,-270.334 1172.93,-275.606 1174.21,-268.724"/>
</g>
<!-- Node25 -->
<g id="node64" class="node"><title>Node25</title>
<a xlink:href="namespaceServer.xhtml#a2b4cec469bb99c2a45e49de5ba74d1ae" target="_top" xlink:title="Processes input from all active SocketClient objects.">
<polygon fill="white" stroke="black" points="922,-214 922,-234 1038,-234 1038,-214 922,-214"/>
<text text-anchor="middle" x="980" y="-221" font-family="FreeSans.ttf" font-size="10.00">Server::ProcessInput</text>
</a>
</g>
<!-- Node24&#45;&gt;Node25 -->
<g id="edge78" class="edge"><title>Node24&#45;&gt;Node25</title>
<path fill="none" stroke="midnightblue" d="M896.249,-224C904.93,-224 913.54,-224 921.748,-224"/>
<polygon fill="midnightblue" stroke="midnightblue" points="896.044,-220.5 886.044,-224 896.044,-227.5 896.044,-220.5"/>
</g>
<!-- Node25&#45;&gt;Node23 -->
<g id="edge80" class="edge"><title>Node25&#45;&gt;Node23</title>
<path fill="none" stroke="midnightblue" d="M1026.62,-236.745C1044.63,-241.669 1064.96,-247.225 1081.94,-251.869"/>
<polygon fill="midnightblue" stroke="midnightblue" points="1027.45,-233.345 1016.88,-234.084 1025.61,-240.097 1027.45,-233.345"/>
</g>
</g>
</svg>
        <g id="navigator" transform="translate(0 0)" fill="#404254">
                <rect fill="#f2f5e9" fill-opacity="0.5" stroke="#606060" stroke-width=".5" x="0" y="0" width="60" height="60"/>
                <use id="zoomplus" xlink:href="#zoomPlus" x="17" y="9" onmousedown="handleZoom(evt,'in')"/>
                <use id="zoomminus" xlink:href="#zoomMin" x="42" y="9" onmousedown="handleZoom(evt,'out')"/>
                <use id="reset" xlink:href="#resetDef" x="30" y="36" onmousedown="handleReset()"/>
                <g id="arrowUp" xlink:href="#dirArrow" transform="translate(30 24)" onmousedown="handlePan(0,-1)">
                  <use xlink:href="#rim" fill="#404040">
                        <set attributeName="fill" to="#808080" begin="arrowUp.mouseover" end="arrowUp.mouseout"/>
                  </use>
                  <path fill="none" stroke="white" stroke-width="1.5" d="M0,-3.0v7 M-2.5,-0.5L0,-3.0L2.5,-0.5"/>
                </g>
                <g id="arrowRight" xlink:href="#dirArrow" transform="rotate(90) translate(36 -43)" onmousedown="handlePan(1,0)">
                  <use xlink:href="#rim" fill="#404040">
                        <set attributeName="fill" to="#808080" begin="arrowRight.mouseover" end="arrowRight.mouseout"/>
                  </use>
                  <path fill="none" stroke="white" stroke-width="1.5" d="M0,-3.0v7 M-2.5,-0.5L0,-3.0L2.5,-0.5"/>
                </g>
                <g id="arrowDown" xlink:href="#dirArrow" transform="rotate(180) translate(-30 -48)" onmousedown="handlePan(0,1)">
                  <use xlink:href="#rim" fill="#404040">
                        <set attributeName="fill" to="#808080" begin="arrowDown.mouseover" end="arrowDown.mouseout"/>
                  </use>
                  <path fill="none" stroke="white" stroke-width="1.5" d="M0,-3.0v7 M-2.5,-0.5L0,-3.0L2.5,-0.5"/>
                </g>
                <g id="arrowLeft" xlink:href="#dirArrow" transform="rotate(270) translate(-36 17)" onmousedown="handlePan(-1,0)">
                  <use xlink:href="#rim" fill="#404040">
                        <set attributeName="fill" to="#808080" begin="arrowLeft.mouseover" end="arrowLeft.mouseout"/>
                  </use>
                  <path fill="none" stroke="white" stroke-width="1.5" d="M0,-3.0v7 M-2.5,-0.5L0,-3.0L2.5,-0.5"/>
                </g>
        </g>
        <svg viewBox="0 0 15 15" width="100%" height="30px" preserveAspectRatio="xMaxYMin meet">
         <g id="arrow_out" transform="scale(0.3 0.3)">
          <a xlink:href="classAccount_aa68e2d900cb44fad0606e75e8b68029c_icgraph_org.svg" target="_base">
           <rect id="button" ry="5" rx="5" y="6" x="6" height="38" width="38"
                fill="#f2f5e9" fill-opacity="0.5" stroke="#606060" stroke-width="1.0"/>
           <path id="arrow"
             d="M 11.500037,31.436501 C 11.940474,20.09759 22.043105,11.32322 32.158766,21.979434 L 37.068811,17.246167 C 37.068811,17.246167 37.088388,32 37.088388,32 L 22.160133,31.978069 C 22.160133,31.978069 26.997745,27.140456 26.997745,27.140456 C 18.528582,18.264221 13.291696,25.230495 11.500037,31.436501 z"
             style="fill:#404040;"/>
          </a>
         </g>
        </svg>
</svg>
