<?xml version="1.0" encoding="UTF-8" standalone="no"?>
<!DOCTYPE svg PUBLIC "-//W3C//DTD SVG 1.1//EN"
 "http://www.w3.org/Graphics/SVG/1.1/DTD/svg11.dtd">
<!-- Generated by graphviz version 2.26.3 (20100126.1600)
 -->
<!-- Title: G Pages: 1 -->
<!--zoomable 230 -->
<svg id="main" version="1.1" xmlns="http://www.w3.org/2000/svg" xmlns:xlink="http://www.w3.org/1999/xlink" xml:space="preserve" onload="init(evt)">
        <defs>
                <circle id="rim" cx="0" cy="0" r="7"/>
                <circle id="rim2" cx="0" cy="0" r="3.5"/>
                <g id="zoomPlus">
                        <use xlink:href="#rim" fill="#404040">
                                <set attributeName="fill" to="#808080" begin="zoomplus.mouseover" end="zoomplus.mouseout"/>
                        </use>
                        <path d="M-4,0h8M0,-4v8" fill="none" stroke="white" stroke-width="1.5" pointer-events="none"/>
                </g>
                <g id="zoomMin">
                        <use xlink:href="#rim" fill="#404040">
                                <set attributeName="fill" to="#808080" begin="zoomminus.mouseover" end="zoomminus.mouseout"/>
                        </use>
                        <path d="M-4,0h8" fill="none" stroke="white" stroke-width="1.5" pointer-events="none"/>
                </g>
                <g id="dirArrow">
                        <path fill="none" stroke="white" stroke-width="1.5" d="M0,-3.0v7 M-2.5,-0.5L0,-3.0L2.5,-0.5"/>
                </g>
               <g id="resetDef">
                       <use xlink:href="#rim2" fill="#404040">
                               <set attributeName="fill" to="#808080" begin="reset.mouseover" end="reset.mouseout"/>
                       </use>
               </g>
        </defs>

<script type="text/javascript">
var viewWidth = 1440;
var viewHeight = 230;
var sectionId = 'dynsection-3';
</script>
<script xlink:href="svgpan.js"/>
<svg id="graph" class="graph">
<g id="viewport">
<title>G</title>
<polygon fill="white" stroke="white" points="-4,5 -4,-226 1437,-226 1437,5 -4,5"/>
<!-- Node1 -->
<g id="node1" class="node"><title>Node1</title>
<polygon fill="#bfbfbf" stroke="black" points="0.5,-100.5 0.5,-121.5 95.5,-121.5 95.5,-100.5 0.5,-100.5"/>
<text text-anchor="middle" x="48" y="-108.5" font-family="FreeSans.ttf" font-size="10.00">Account::gClient</text>
</g>
<!-- Node2 -->
<g id="node3" class="node"><title>Node2</title>
<a xlink:href="classAccount.xhtml#ae236325fef7b2269f54e9567577e0b92" target="_top" xlink:title="Unserialize the account data from CFG_DAT_FILE_SETTINGS.">
<polygon fill="white" stroke="black" points="132,-100.5 132,-121.5 246,-121.5 246,-100.5 132,-100.5"/>
<text text-anchor="middle" x="189" y="-108.5" font-family="FreeSans.ttf" font-size="10.00">Account::Unserialize</text>
</a>
</g>
<!-- Node1&#45;&gt;Node2 -->
<g id="edge2" class="edge"><title>Node1&#45;&gt;Node2</title>
<path fill="none" stroke="midnightblue" d="M105.906,-111C114.373,-111 123.09,-111 131.548,-111"/>
<polygon fill="midnightblue" stroke="midnightblue" points="105.736,-107.5 95.7362,-111 105.736,-114.5 105.736,-107.5"/>
</g>
<!-- Node3 -->
<g id="node5" class="node"><title>Node3</title>
<a xlink:href="classAccount.xhtml#adc4545f17264112e532b5a48abe94baf" target="_top" xlink:title="Create a new account.">
<polygon fill="white" stroke="black" points="282,-100.5 282,-121.5 364,-121.5 364,-100.5 282,-100.5"/>
<text text-anchor="middle" x="323" y="-108.5" font-family="FreeSans.ttf" font-size="10.00">Account::New</text>
</a>
</g>
<!-- Node2&#45;&gt;Node3 -->
<g id="edge4" class="edge"><title>Node2&#45;&gt;Node3</title>
<path fill="none" stroke="midnightblue" d="M256.366,-111C265.038,-111 273.702,-111 281.776,-111"/>
<polygon fill="midnightblue" stroke="midnightblue" points="256.217,-107.5 246.217,-111 256.217,-114.5 256.217,-107.5"/>
</g>
<!-- Node4 -->
<g id="node7" class="node"><title>Node4</title>
<a xlink:href="namespaceHandler.xhtml#a33a19d69ead678af81fbe96907eceaf0" target="_top" xlink:title="Create a new account object, or load an existing one, with a name and password.">
<polygon fill="white" stroke="black" points="400.5,-100.5 400.5,-121.5 531.5,-121.5 531.5,-100.5 400.5,-100.5"/>
<text text-anchor="middle" x="466" y="-108.5" font-family="FreeSans.ttf" font-size="10.00">Handler::AttachAccount</text>
</a>
</g>
<!-- Node3&#45;&gt;Node4 -->
<g id="edge6" class="edge"><title>Node3&#45;&gt;Node4</title>
<path fill="none" stroke="midnightblue" d="M374.434,-111C382.886,-111 391.746,-111 400.485,-111"/>
<polygon fill="midnightblue" stroke="midnightblue" points="374.362,-107.5 364.362,-111 374.361,-114.5 374.362,-107.5"/>
</g>
<!-- Node5 -->
<g id="node9" class="node"><title>Node5</title>
<a xlink:href="namespaceHandler.xhtml#af650e47f3d4baf393b54376d1eaa1fa9" target="_top" xlink:title="Handle SocketClient objects who have not fully logged into the game yet.">
<polygon fill="white" stroke="black" points="568.5,-100.5 568.5,-121.5 691.5,-121.5 691.5,-100.5 568.5,-100.5"/>
<text text-anchor="middle" x="630" y="-108.5" font-family="FreeSans.ttf" font-size="10.00">Handler::ProcessLogin</text>
</a>
</g>
<!-- Node4&#45;&gt;Node5 -->
<g id="edge8" class="edge"><title>Node4&#45;&gt;Node5</title>
<path fill="none" stroke="midnightblue" d="M541.79,-104.267C550.73,-104.218 559.77,-104.275 568.48,-104.441"/>
<polygon fill="midnightblue" stroke="midnightblue" points="541.724,-100.768 531.76,-104.369 541.795,-107.767 541.724,-100.768"/>
</g>
<!-- Node5&#45;&gt;Node4 -->
<g id="edge20" class="edge"><title>Node5&#45;&gt;Node4</title>
<path fill="none" stroke="midnightblue" d="M558.242,-117.703C549.436,-117.784 540.471,-117.76 531.76,-117.631"/>
<polygon fill="midnightblue" stroke="midnightblue" points="558.531,-121.199 568.48,-117.559 558.432,-114.2 558.531,-121.199"/>
</g>
<!-- Node6 -->
<g id="node11" class="node"><title>Node6</title>
<a xlink:href="namespaceHandler.xhtml#a142c6f0b9e36e54eba3d72f9db2dfe40" target="_top" xlink:title="Redirect to the appropriate subsystem based on socket state.">
<polygon fill="white" stroke="black" points="748.5,-200.5 748.5,-221.5 849.5,-221.5 849.5,-200.5 748.5,-200.5"/>
<text text-anchor="middle" x="799" y="-208.5" font-family="FreeSans.ttf" font-size="10.00">Handler::Interpret</text>
</a>
</g>
<!-- Node5&#45;&gt;Node6 -->
<g id="edge10" class="edge"><title>Node5&#45;&gt;Node6</title>
<path fill="none" stroke="midnightblue" d="M647.211,-128.839C665.622,-146.95 696.458,-174.595 728,-191 735.158,-194.723 743.092,-197.824 750.988,-200.385"/>
<polygon fill="midnightblue" stroke="midnightblue" points="649.654,-126.332 640.115,-121.721 644.696,-131.274 649.654,-126.332"/>
</g>
<!-- Node11 -->
<g id="node22" class="node"><title>Node11</title>
<a xlink:href="namespaceHandler.xhtml#a00bc24564bfd267e0329643c569da1e4" target="_top" xlink:title="Select a new account name.">
<polygon fill="white" stroke="black" points="730.5,-160.5 730.5,-181.5 867.5,-181.5 867.5,-160.5 730.5,-160.5"/>
<text text-anchor="middle" x="799" y="-168.5" font-family="FreeSans.ttf" font-size="10.00">Handler::GetNewAccount</text>
</a>
</g>
<!-- Node5&#45;&gt;Node11 -->
<g id="edge22" class="edge"><title>Node5&#45;&gt;Node11</title>
<path fill="none" stroke="midnightblue" d="M683.245,-125.331C697.647,-130.879 713.315,-136.953 728,-142 747.135,-148.577 769.696,-154.654 784.164,-160.458"/>
<polygon fill="midnightblue" stroke="midnightblue" points="684.095,-121.908 673.504,-121.593 681.586,-128.443 684.095,-121.908"/>
</g>
<!-- Node12 -->
<g id="node25" class="node"><title>Node12</title>
<a xlink:href="namespaceHandler.xhtml#a744adadcf407cdb3a9c33365afd5a7c2" target="_top" xlink:title="Create a new account.">
<polygon fill="white" stroke="black" points="728,-120.5 728,-141.5 870,-141.5 870,-120.5 728,-120.5"/>
<text text-anchor="middle" x="799" y="-128.5" font-family="FreeSans.ttf" font-size="10.00">Handler::GetNewPassword</text>
</a>
</g>
<!-- Node5&#45;&gt;Node12 -->
<g id="edge26" class="edge"><title>Node5&#45;&gt;Node12</title>
<path fill="none" stroke="midnightblue" d="M702.125,-112.85C721.747,-114.966 742.28,-117.684 759.365,-120.489"/>
<polygon fill="midnightblue" stroke="midnightblue" points="702.276,-109.347 691.97,-111.802 701.557,-116.31 702.276,-109.347"/>
</g>
<!-- Node13 -->
<g id="node28" class="node"><title>Node13</title>
<a xlink:href="namespaceHandler.xhtml#adfe13cc9748392348f3941656a1323b6" target="_top" xlink:title="Compare a received password against an existing account.">
<polygon fill="white" stroke="black" points="730.5,-80.5 730.5,-101.5 867.5,-101.5 867.5,-80.5 730.5,-80.5"/>
<text text-anchor="middle" x="799" y="-88.5" font-family="FreeSans.ttf" font-size="10.00">Handler::GetOldPassword</text>
</a>
</g>
<!-- Node5&#45;&gt;Node13 -->
<g id="edge30" class="edge"><title>Node5&#45;&gt;Node13</title>
<path fill="none" stroke="midnightblue" d="M679.695,-98.906C695.499,-96.5198 713.272,-94.2723 730.177,-92.4991"/>
<polygon fill="midnightblue" stroke="midnightblue" points="678.958,-95.4789 669.623,-100.49 680.045,-102.394 678.958,-95.4789"/>
</g>
<!-- Node14 -->
<g id="node31" class="node"><title>Node14</title>
<a xlink:href="namespaceHandler.xhtml#a44b41bf69fdc6e615a029bea34910191" target="_top" xlink:title="Send initial greeting and request for account name.">
<polygon fill="white" stroke="black" points="739.5,-40.5 739.5,-61.5 858.5,-61.5 858.5,-40.5 739.5,-40.5"/>
<text text-anchor="middle" x="799" y="-48.5" font-family="FreeSans.ttf" font-size="10.00">Handler::LoginScreen</text>
</a>
</g>
<!-- Node5&#45;&gt;Node14 -->
<g id="edge34" class="edge"><title>Node5&#45;&gt;Node14</title>
<path fill="none" stroke="midnightblue" d="M649.652,-95.3672C669.262,-84.6248 700.371,-71.4962 728,-62 731.633,-60.7513 735.39,-59.5205 739.191,-58.3353"/>
<polygon fill="midnightblue" stroke="midnightblue" points="647.876,-92.3507 641.014,-100.423 651.412,-98.392 647.876,-92.3507"/>
</g>
<!-- Node15 -->
<g id="node34" class="node"><title>Node15</title>
<a xlink:href="classSocketClient.xhtml#a553658a2c076ea71ddcd1758fc64a925" target="_top" xlink:title="Build a SocketClient for a new client connection and set all attributes.">
<polygon fill="white" stroke="black" points="747.5,-0.5 747.5,-21.5 850.5,-21.5 850.5,-0.5 747.5,-0.5"/>
<text text-anchor="middle" x="799" y="-8.5" font-family="FreeSans.ttf" font-size="10.00">SocketClient::New</text>
</a>
</g>
<!-- Node5&#45;&gt;Node15 -->
<g id="edge38" class="edge"><title>Node5&#45;&gt;Node15</title>
<path fill="none" stroke="midnightblue" d="M647.211,-93.1612C665.622,-75.05 696.458,-47.4047 728,-31 735.158,-27.2773 743.092,-24.1757 750.988,-21.6148"/>
<polygon fill="midnightblue" stroke="midnightblue" points="644.696,-90.7259 640.115,-100.279 649.654,-95.668 644.696,-90.7259"/>
</g>
<!-- Node7 -->
<g id="node13" class="node"><title>Node7</title>
<a xlink:href="classSocketClient.xhtml#ad4f63c7d906310dc56a1217136047d7f" target="_top" xlink:title="Interpret the command at the front of the queue.">
<polygon fill="white" stroke="black" points="906,-190.5 906,-211.5 1076,-211.5 1076,-190.5 906,-190.5"/>
<text text-anchor="middle" x="991" y="-198.5" font-family="FreeSans.ttf" font-size="10.00">SocketClient::ProcessCommand</text>
</a>
</g>
<!-- Node6&#45;&gt;Node7 -->
<g id="edge12" class="edge"><title>Node6&#45;&gt;Node7</title>
<path fill="none" stroke="midnightblue" d="M860.053,-207.82C874.608,-207.062 890.404,-206.239 905.824,-205.436"/>
<polygon fill="midnightblue" stroke="midnightblue" points="859.501,-204.344 849.697,-208.36 859.865,-211.335 859.501,-204.344"/>
</g>
<!-- Node8 -->
<g id="node15" class="node"><title>Node8</title>
<a xlink:href="classServer.xhtml#a2b4cec469bb99c2a45e49de5ba74d1ae" target="_top" xlink:title="Processes input from all active SocketClient objects.">
<polygon fill="white" stroke="black" points="1112,-150.5 1112,-171.5 1228,-171.5 1228,-150.5 1112,-150.5"/>
<text text-anchor="middle" x="1170" y="-158.5" font-family="FreeSans.ttf" font-size="10.00">Server::ProcessInput</text>
</a>
</g>
<!-- Node7&#45;&gt;Node8 -->
<g id="edge14" class="edge"><title>Node7&#45;&gt;Node8</title>
<path fill="none" stroke="midnightblue" d="M1047.81,-188.306C1072.02,-182.894 1099.94,-176.656 1122.97,-171.509"/>
<polygon fill="midnightblue" stroke="midnightblue" points="1047.03,-184.894 1038.03,-190.49 1048.55,-191.725 1047.03,-184.894"/>
</g>
<!-- Node9 -->
<g id="node17" class="node"><title>Node9</title>
<a xlink:href="classServer.xhtml#a50b81aa91d8fdaee6f52c5c5ec987990" target="_top" xlink:title="The core update loop of NAMS. This loop spawns all other subsystem update routines and then sleeps fo...">
<polygon fill="white" stroke="black" points="1264.5,-120.5 1264.5,-141.5 1353.5,-141.5 1353.5,-120.5 1264.5,-120.5"/>
<text text-anchor="middle" x="1309" y="-128.5" font-family="FreeSans.ttf" font-size="10.00">Server::Update</text>
</a>
</g>
<!-- Node8&#45;&gt;Node9 -->
<g id="edge16" class="edge"><title>Node8&#45;&gt;Node9</title>
<path fill="none" stroke="midnightblue" d="M1228.81,-148.307C1240.64,-145.754 1252.89,-143.11 1264.15,-140.68"/>
<polygon fill="midnightblue" stroke="midnightblue" points="1228.04,-144.892 1219.01,-150.423 1229.52,-151.735 1228.04,-144.892"/>
</g>
<!-- Node10 -->
<g id="node19" class="node"><title>Node10</title>
<a xlink:href="main_8cpp.xhtml#ad53223b8779f25caeddb70a3b9172967" target="_top" xlink:title="The default function required to execute the server.">
<polygon fill="white" stroke="black" points="1390.5,-120.5 1390.5,-141.5 1431.5,-141.5 1431.5,-120.5 1390.5,-120.5"/>
<text text-anchor="middle" x="1411" y="-128.5" font-family="FreeSans.ttf" font-size="10.00">main</text>
</a>
</g>
<!-- Node9&#45;&gt;Node10 -->
<g id="edge18" class="edge"><title>Node9&#45;&gt;Node10</title>
<path fill="none" stroke="midnightblue" d="M1363.94,-131C1373.34,-131 1382.55,-131 1390.3,-131"/>
<polygon fill="midnightblue" stroke="midnightblue" points="1363.74,-127.5 1353.74,-131 1363.74,-134.5 1363.74,-127.5"/>
</g>
<!-- Node11&#45;&gt;Node5 -->
<g id="edge24" class="edge"><title>Node11&#45;&gt;Node5</title>
<path fill="none" stroke="midnightblue" d="M720.486,-157.326C689.104,-145.996 657.303,-131.912 641.014,-121.577"/>
<polygon fill="midnightblue" stroke="midnightblue" points="719.599,-160.725 730.194,-160.747 721.926,-154.122 719.599,-160.725"/>
</g>
<!-- Node12&#45;&gt;Node5 -->
<g id="edge28" class="edge"><title>Node12&#45;&gt;Node5</title>
<path fill="none" stroke="midnightblue" d="M717.497,-128.101C700.828,-126.17 684.004,-123.871 669.623,-121.51"/>
<polygon fill="midnightblue" stroke="midnightblue" points="717.506,-131.623 727.832,-129.253 718.281,-124.667 717.506,-131.623"/>
</g>
<!-- Node13&#45;&gt;Node5 -->
<g id="edge32" class="edge"><title>Node13&#45;&gt;Node5</title>
<path fill="none" stroke="midnightblue" d="M749.389,-103.081C731.411,-105.797 710.879,-108.335 691.97,-110.198"/>
<polygon fill="midnightblue" stroke="midnightblue" points="750.031,-106.523 759.365,-101.511 748.943,-99.6085 750.031,-106.523"/>
</g>
<!-- Node14&#45;&gt;Node5 -->
<g id="edge36" class="edge"><title>Node14&#45;&gt;Node5</title>
<path fill="none" stroke="midnightblue" d="M774.442,-65.1144C760.672,-69.8357 743.248,-74.7592 728,-80 709.926,-86.212 690.363,-93.9783 673.504,-100.407"/>
<polygon fill="midnightblue" stroke="midnightblue" points="775.986,-68.2763 784.164,-61.5415 773.571,-61.7059 775.986,-68.2763"/>
</g>
<!-- Node16 -->
<g id="node36" class="node"><title>Node16</title>
<a xlink:href="classSocketServer.xhtml#afdbc60c3bc840875d2214b59c6213f63" target="_top" xlink:title="Accept a new connection on the listening port.">
<polygon fill="white" stroke="black" points="931,-80.5 931,-101.5 1051,-101.5 1051,-80.5 931,-80.5"/>
<text text-anchor="middle" x="991" y="-88.5" font-family="FreeSans.ttf" font-size="10.00">SocketServer::Accept</text>
</a>
</g>
<!-- Node15&#45;&gt;Node16 -->
<g id="edge40" class="edge"><title>Node15&#45;&gt;Node16</title>
<path fill="none" stroke="midnightblue" d="M851.372,-24.5558C857.706,-26.5459 864.039,-28.7055 870,-31 907.419,-45.4041 948.837,-67.3361 972.215,-80.3124"/>
<polygon fill="midnightblue" stroke="midnightblue" points="852.056,-21.1064 841.471,-21.5729 850.037,-27.8088 852.056,-21.1064"/>
</g>
<!-- Node17 -->
<g id="node38" class="node"><title>Node17</title>
<a xlink:href="classServer.xhtml#a39dbe16fdc8c5f6fbd678c6540fbcd6c" target="_top" xlink:title="Poll all SocketClient objects that are communicating with the associated SocketServer object...">
<polygon fill="white" stroke="black" points="1115.5,-90.5 1115.5,-111.5 1224.5,-111.5 1224.5,-90.5 1115.5,-90.5"/>
<text text-anchor="middle" x="1170" y="-98.5" font-family="FreeSans.ttf" font-size="10.00">Server::PollSockets</text>
</a>
</g>
<!-- Node16&#45;&gt;Node17 -->
<g id="edge42" class="edge"><title>Node16&#45;&gt;Node17</title>
<path fill="none" stroke="midnightblue" d="M1061.27,-94.9256C1079.28,-95.9321 1098.39,-96.9995 1115.48,-97.9541"/>
<polygon fill="midnightblue" stroke="midnightblue" points="1061.28,-91.421 1051.1,-94.3577 1060.89,-98.4101 1061.28,-91.421"/>
</g>
<!-- Node17&#45;&gt;Node9 -->
<g id="edge44" class="edge"><title>Node17&#45;&gt;Node9</title>
<path fill="none" stroke="midnightblue" d="M1228.81,-113.693C1240.64,-116.246 1252.89,-118.89 1264.15,-121.32"/>
<polygon fill="midnightblue" stroke="midnightblue" points="1229.52,-110.265 1219.01,-111.577 1228.04,-117.108 1229.52,-110.265"/>
</g>
</g>
</svg>
        <g id="navigator" transform="translate(0 0)" fill="#404254">
                <rect fill="#f2f5e9" fill-opacity="0.5" stroke="#606060" stroke-width=".5" x="0" y="0" width="60" height="60"/>
                <use id="zoomplus" xlink:href="#zoomPlus" x="17" y="9" onmousedown="handleZoom(evt,'in')"/>
                <use id="zoomminus" xlink:href="#zoomMin" x="42" y="9" onmousedown="handleZoom(evt,'out')"/>
                <use id="reset" xlink:href="#resetDef" x="30" y="36" onmousedown="handleReset()"/>
                <g id="arrowUp" xlink:href="#dirArrow" transform="translate(30 24)" onmousedown="handlePan(0,-1)">
                  <use xlink:href="#rim" fill="#404040">
                        <set attributeName="fill" to="#808080" begin="arrowUp.mouseover" end="arrowUp.mouseout"/>
                  </use>
                  <path fill="none" stroke="white" stroke-width="1.5" d="M0,-3.0v7 M-2.5,-0.5L0,-3.0L2.5,-0.5"/>
                </g>
                <g id="arrowRight" xlink:href="#dirArrow" transform="rotate(90) translate(36 -43)" onmousedown="handlePan(1,0)">
                  <use xlink:href="#rim" fill="#404040">
                        <set attributeName="fill" to="#808080" begin="arrowRight.mouseover" end="arrowRight.mouseout"/>
                  </use>
                  <path fill="none" stroke="white" stroke-width="1.5" d="M0,-3.0v7 M-2.5,-0.5L0,-3.0L2.5,-0.5"/>
                </g>
                <g id="arrowDown" xlink:href="#dirArrow" transform="rotate(180) translate(-30 -48)" onmousedown="handlePan(0,1)">
                  <use xlink:href="#rim" fill="#404040">
                        <set attributeName="fill" to="#808080" begin="arrowDown.mouseover" end="arrowDown.mouseout"/>
                  </use>
                  <path fill="none" stroke="white" stroke-width="1.5" d="M0,-3.0v7 M-2.5,-0.5L0,-3.0L2.5,-0.5"/>
                </g>
                <g id="arrowLeft" xlink:href="#dirArrow" transform="rotate(270) translate(-36 17)" onmousedown="handlePan(-1,0)">
                  <use xlink:href="#rim" fill="#404040">
                        <set attributeName="fill" to="#808080" begin="arrowLeft.mouseover" end="arrowLeft.mouseout"/>
                  </use>
                  <path fill="none" stroke="white" stroke-width="1.5" d="M0,-3.0v7 M-2.5,-0.5L0,-3.0L2.5,-0.5"/>
                </g>
        </g>
</svg>
