<?xml version="1.0" encoding="UTF-8" standalone="no"?>
<!DOCTYPE svg PUBLIC "-//W3C//DTD SVG 1.1//EN"
 "http://www.w3.org/Graphics/SVG/1.1/DTD/svg11.dtd">
<!-- Generated by graphviz version 2.26.3 (20100126.1600)
 -->
<!-- Title: G Pages: 1 -->
<!--zoomable 210 -->
<svg id="main" version="1.1" xmlns="http://www.w3.org/2000/svg" xmlns:xlink="http://www.w3.org/1999/xlink" xml:space="preserve" onload="init(evt)">
        <defs>
                <circle id="rim" cx="0" cy="0" r="7"/>
                <circle id="rim2" cx="0" cy="0" r="3.5"/>
                <g id="zoomPlus">
                        <use xlink:href="#rim" fill="#404040">
                                <set attributeName="fill" to="#808080" begin="zoomplus.mouseover" end="zoomplus.mouseout"/>
                        </use>
                        <path d="M-4,0h8M0,-4v8" fill="none" stroke="white" stroke-width="1.5" pointer-events="none"/>
                </g>
                <g id="zoomMin">
                        <use xlink:href="#rim" fill="#404040">
                                <set attributeName="fill" to="#808080" begin="zoomminus.mouseover" end="zoomminus.mouseout"/>
                        </use>
                        <path d="M-4,0h8" fill="none" stroke="white" stroke-width="1.5" pointer-events="none"/>
                </g>
                <g id="dirArrow">
                        <path fill="none" stroke="white" stroke-width="1.5" d="M0,-3.0v7 M-2.5,-0.5L0,-3.0L2.5,-0.5"/>
                </g>
               <g id="resetDef">
                       <use xlink:href="#rim2" fill="#404040">
                               <set attributeName="fill" to="#808080" begin="reset.mouseover" end="reset.mouseout"/>
                       </use>
               </g>
        </defs>

<script type="text/javascript">
var viewWidth = 1330;
var viewHeight = 210;
var sectionId = 'dynsection-2';
</script>
<script xlink:href="svgpan.js"/>
<svg id="graph" class="graph">
<g id="viewport">
<title>G</title>
<polygon fill="white" stroke="white" points="-4,5 -4,-206 1327,-206 1327,5 -4,5"/>
<!-- Node1 -->
<g id="node1" class="node"><title>Node1</title>
<polygon fill="#bfbfbf" stroke="black" points="0.5,-60.5 0.5,-81.5 93.5,-81.5 93.5,-60.5 0.5,-60.5"/>
<text text-anchor="middle" x="47" y="-68.5" font-family="FreeSans.ttf" font-size="10.00">Account::Delete</text>
</g>
<!-- Node2 -->
<g id="node3" class="node"><title>Node2</title>
<a xlink:href="namespaceHandler.xhtml#a33a19d69ead678af81fbe96907eceaf0" target="_top" xlink:title="Create a new account object, or load an existing one, with a name and password.">
<polygon fill="white" stroke="black" points="140.5,-80.5 140.5,-101.5 271.5,-101.5 271.5,-80.5 140.5,-80.5"/>
<text text-anchor="middle" x="206" y="-88.5" font-family="FreeSans.ttf" font-size="10.00">Handler::AttachAccount</text>
</a>
</g>
<!-- Node1&#45;&gt;Node2 -->
<g id="edge2" class="edge"><title>Node1&#45;&gt;Node2</title>
<path fill="none" stroke="midnightblue" d="M103.988,-78.1683C115.774,-79.6509 128.28,-81.2239 140.346,-82.7416"/>
<polygon fill="midnightblue" stroke="midnightblue" points="104.204,-74.668 93.8453,-76.8925 103.33,-81.6132 104.204,-74.668"/>
</g>
<!-- Node16 -->
<g id="node37" class="node"><title>Node16</title>
<a xlink:href="classSocketClient.xhtml#af4ecba63b08737b5be4fef324cef1df6" target="_top" xlink:title="Destructor for the SocketClient class.">
<polygon fill="white" stroke="black" points="130.5,-40.5 130.5,-61.5 281.5,-61.5 281.5,-40.5 130.5,-40.5"/>
<text text-anchor="middle" x="206" y="-48.5" font-family="FreeSans.ttf" font-size="10.00">SocketClient::~SocketClient</text>
</a>
</g>
<!-- Node1&#45;&gt;Node16 -->
<g id="edge42" class="edge"><title>Node1&#45;&gt;Node16</title>
<path fill="none" stroke="midnightblue" d="M104.02,-63.8277C112.538,-62.7563 121.431,-61.6376 130.262,-60.5268"/>
<polygon fill="midnightblue" stroke="midnightblue" points="103.33,-60.3868 93.8453,-65.1075 104.204,-67.332 103.33,-60.3868"/>
</g>
<!-- Node3 -->
<g id="node5" class="node"><title>Node3</title>
<a xlink:href="namespaceHandler.xhtml#af650e47f3d4baf393b54376d1eaa1fa9" target="_top" xlink:title="Handle SocketClient objects who have not fully logged into the game yet.">
<polygon fill="white" stroke="black" points="318.5,-80.5 318.5,-101.5 441.5,-101.5 441.5,-80.5 318.5,-80.5"/>
<text text-anchor="middle" x="380" y="-88.5" font-family="FreeSans.ttf" font-size="10.00">Handler::ProcessLogin</text>
</a>
</g>
<!-- Node2&#45;&gt;Node3 -->
<g id="edge4" class="edge"><title>Node2&#45;&gt;Node3</title>
<path fill="none" stroke="midnightblue" d="M281.936,-84.2988C294.133,-84.1907 306.624,-84.2622 318.43,-84.5131"/>
<polygon fill="midnightblue" stroke="midnightblue" points="281.735,-80.801 271.782,-84.4317 281.827,-87.8004 281.735,-80.801"/>
</g>
<!-- Node3&#45;&gt;Node2 -->
<g id="edge24" class="edge"><title>Node3&#45;&gt;Node2</title>
<path fill="none" stroke="midnightblue" d="M308.373,-97.6554C296.26,-97.8059 283.736,-97.7768 271.782,-97.5683"/>
<polygon fill="midnightblue" stroke="midnightblue" points="308.49,-101.154 318.43,-97.4869 308.373,-94.1551 308.49,-101.154"/>
</g>
<!-- Node4 -->
<g id="node7" class="node"><title>Node4</title>
<a xlink:href="namespaceHandler.xhtml#a142c6f0b9e36e54eba3d72f9db2dfe40" target="_top" xlink:title="Redirect to the appropriate subsystem based on socket state.">
<polygon fill="white" stroke="black" points="498.5,-160.5 498.5,-181.5 599.5,-181.5 599.5,-160.5 498.5,-160.5"/>
<text text-anchor="middle" x="549" y="-168.5" font-family="FreeSans.ttf" font-size="10.00">Handler::Interpret</text>
</a>
</g>
<!-- Node3&#45;&gt;Node4 -->
<g id="edge6" class="edge"><title>Node3&#45;&gt;Node4</title>
<path fill="none" stroke="midnightblue" d="M402.975,-107.584C422.231,-120.852 450.857,-139.139 478,-151 486.332,-154.641 495.503,-157.8 504.408,-160.466"/>
<polygon fill="midnightblue" stroke="midnightblue" points="404.773,-104.57 394.574,-101.703 400.759,-110.305 404.773,-104.57"/>
</g>
<!-- Node12 -->
<g id="node25" class="node"><title>Node12</title>
<a xlink:href="namespaceHandler.xhtml#a00bc24564bfd267e0329643c569da1e4" target="_top" xlink:title="Select a new account name.">
<polygon fill="white" stroke="black" points="480.5,-120.5 480.5,-141.5 617.5,-141.5 617.5,-120.5 480.5,-120.5"/>
<text text-anchor="middle" x="549" y="-128.5" font-family="FreeSans.ttf" font-size="10.00">Handler::GetNewAccount</text>
</a>
</g>
<!-- Node3&#45;&gt;Node12 -->
<g id="edge26" class="edge"><title>Node3&#45;&gt;Node12</title>
<path fill="none" stroke="midnightblue" d="M451.89,-101.333C478.041,-107.241 505.84,-114.42 524.963,-120.424"/>
<polygon fill="midnightblue" stroke="midnightblue" points="452.49,-97.8808 441.97,-99.1353 450.976,-104.715 452.49,-97.8808"/>
</g>
<!-- Node13 -->
<g id="node28" class="node"><title>Node13</title>
<a xlink:href="namespaceHandler.xhtml#a744adadcf407cdb3a9c33365afd5a7c2" target="_top" xlink:title="Create a new account.">
<polygon fill="white" stroke="black" points="478,-80.5 478,-101.5 620,-101.5 620,-80.5 478,-80.5"/>
<text text-anchor="middle" x="549" y="-88.5" font-family="FreeSans.ttf" font-size="10.00">Handler::GetNewPassword</text>
</a>
</g>
<!-- Node3&#45;&gt;Node13 -->
<g id="edge30" class="edge"><title>Node3&#45;&gt;Node13</title>
<path fill="none" stroke="midnightblue" d="M452.231,-84.3136C460.732,-84.2249 469.402,-84.229 477.887,-84.3259"/>
<polygon fill="midnightblue" stroke="midnightblue" points="451.916,-80.8179 441.97,-84.4679 452.021,-87.8171 451.916,-80.8179"/>
</g>
<!-- Node14 -->
<g id="node31" class="node"><title>Node14</title>
<a xlink:href="namespaceHandler.xhtml#adfe13cc9748392348f3941656a1323b6" target="_top" xlink:title="Compare a received password against an existing account.">
<polygon fill="white" stroke="black" points="480.5,-40.5 480.5,-61.5 617.5,-61.5 617.5,-40.5 480.5,-40.5"/>
<text text-anchor="middle" x="549" y="-48.5" font-family="FreeSans.ttf" font-size="10.00">Handler::GetOldPassword</text>
</a>
</g>
<!-- Node3&#45;&gt;Node14 -->
<g id="edge34" class="edge"><title>Node3&#45;&gt;Node14</title>
<path fill="none" stroke="midnightblue" d="M413.582,-77.537C432.697,-71.9467 457.355,-65.7344 480.38,-60.5985"/>
<polygon fill="midnightblue" stroke="midnightblue" points="412.412,-74.2342 403.855,-80.4809 414.44,-80.934 412.412,-74.2342"/>
</g>
<!-- Node15 -->
<g id="node34" class="node"><title>Node15</title>
<a xlink:href="namespaceHandler.xhtml#a44b41bf69fdc6e615a029bea34910191" target="_top" xlink:title="Send initial greeting and request for account name.">
<polygon fill="white" stroke="black" points="489.5,-0.5 489.5,-21.5 608.5,-21.5 608.5,-0.5 489.5,-0.5"/>
<text text-anchor="middle" x="549" y="-8.5" font-family="FreeSans.ttf" font-size="10.00">Handler::LoginScreen</text>
</a>
</g>
<!-- Node3&#45;&gt;Node15 -->
<g id="edge38" class="edge"><title>Node3&#45;&gt;Node15</title>
<path fill="none" stroke="midnightblue" d="M395.237,-73.4601C413.917,-57.5746 446.929,-35.5773 478,-22 481.638,-20.4104 485.436,-18.9125 489.301,-17.5233"/>
<polygon fill="midnightblue" stroke="midnightblue" points="392.778,-70.9658 387.722,-80.2766 397.48,-76.1508 392.778,-70.9658"/>
</g>
<!-- Node5 -->
<g id="node9" class="node"><title>Node5</title>
<a xlink:href="classSocketClient.xhtml#a553658a2c076ea71ddcd1758fc64a925" target="_top" xlink:title="Build a SocketClient for a new client connection and set all attributes.">
<polygon fill="white" stroke="black" points="656.5,-179.5 656.5,-200.5 759.5,-200.5 759.5,-179.5 656.5,-179.5"/>
<text text-anchor="middle" x="708" y="-187.5" font-family="FreeSans.ttf" font-size="10.00">SocketClient::New</text>
</a>
</g>
<!-- Node4&#45;&gt;Node5 -->
<g id="edge8" class="edge"><title>Node4&#45;&gt;Node5</title>
<path fill="none" stroke="midnightblue" d="M609.691,-178.252C625.084,-180.092 641.475,-182.05 656.371,-183.831"/>
<polygon fill="midnightblue" stroke="midnightblue" points="610.09,-174.775 599.746,-177.064 609.26,-181.726 610.09,-174.775"/>
</g>
<!-- Node10 -->
<g id="node19" class="node"><title>Node10</title>
<a xlink:href="classSocketClient.xhtml#ad4f63c7d906310dc56a1217136047d7f" target="_top" xlink:title="Interpret the command at the front of the queue.">
<polygon fill="white" stroke="black" points="796,-140.5 796,-161.5 966,-161.5 966,-140.5 796,-140.5"/>
<text text-anchor="middle" x="881" y="-148.5" font-family="FreeSans.ttf" font-size="10.00">SocketClient::ProcessCommand</text>
</a>
</g>
<!-- Node4&#45;&gt;Node10 -->
<g id="edge18" class="edge"><title>Node4&#45;&gt;Node10</title>
<path fill="none" stroke="midnightblue" d="M609.88,-167.333C661.981,-164.194 737.556,-159.641 795.687,-156.139"/>
<polygon fill="midnightblue" stroke="midnightblue" points="609.556,-163.846 599.785,-167.941 609.977,-170.833 609.556,-163.846"/>
</g>
<!-- Node6 -->
<g id="node11" class="node"><title>Node6</title>
<a xlink:href="classSocketServer.xhtml#afdbc60c3bc840875d2214b59c6213f63" target="_top" xlink:title="Accept a new connection on the listening port.">
<polygon fill="white" stroke="black" points="821,-180.5 821,-201.5 941,-201.5 941,-180.5 821,-180.5"/>
<text text-anchor="middle" x="881" y="-188.5" font-family="FreeSans.ttf" font-size="10.00">SocketServer::Accept</text>
</a>
</g>
<!-- Node5&#45;&gt;Node6 -->
<g id="edge10" class="edge"><title>Node5&#45;&gt;Node6</title>
<path fill="none" stroke="midnightblue" d="M770.027,-190.359C786.594,-190.454 804.465,-190.558 820.924,-190.653"/>
<polygon fill="midnightblue" stroke="midnightblue" points="769.926,-186.858 759.906,-190.3 769.885,-193.858 769.926,-186.858"/>
</g>
<!-- Node7 -->
<g id="node13" class="node"><title>Node7</title>
<a xlink:href="classServer.xhtml#a39dbe16fdc8c5f6fbd678c6540fbcd6c" target="_top" xlink:title="Poll all SocketClient objects that are communicating with the associated SocketServer object...">
<polygon fill="white" stroke="black" points="1005.5,-180.5 1005.5,-201.5 1114.5,-201.5 1114.5,-180.5 1005.5,-180.5"/>
<text text-anchor="middle" x="1060" y="-188.5" font-family="FreeSans.ttf" font-size="10.00">Server::PollSockets</text>
</a>
</g>
<!-- Node6&#45;&gt;Node7 -->
<g id="edge12" class="edge"><title>Node6&#45;&gt;Node7</title>
<path fill="none" stroke="midnightblue" d="M951.268,-191C969.284,-191 988.391,-191 1005.48,-191"/>
<polygon fill="midnightblue" stroke="midnightblue" points="951.102,-187.5 941.102,-191 951.102,-194.5 951.102,-187.5"/>
</g>
<!-- Node8 -->
<g id="node15" class="node"><title>Node8</title>
<a xlink:href="classServer.xhtml#a50b81aa91d8fdaee6f52c5c5ec987990" target="_top" xlink:title="The core update loop of NAMS. This loop spawns all other subsystem update routines and then sleeps fo...">
<polygon fill="white" stroke="black" points="1154.5,-160.5 1154.5,-181.5 1243.5,-181.5 1243.5,-160.5 1154.5,-160.5"/>
<text text-anchor="middle" x="1199" y="-168.5" font-family="FreeSans.ttf" font-size="10.00">Server::Update</text>
</a>
</g>
<!-- Node7&#45;&gt;Node8 -->
<g id="edge14" class="edge"><title>Node7&#45;&gt;Node8</title>
<path fill="none" stroke="midnightblue" d="M1124.57,-181.709C1134.69,-180.253 1144.94,-178.778 1154.47,-177.407"/>
<polygon fill="midnightblue" stroke="midnightblue" points="1123.94,-178.264 1114.54,-183.153 1124.93,-185.193 1123.94,-178.264"/>
</g>
<!-- Node9 -->
<g id="node17" class="node"><title>Node9</title>
<a xlink:href="main_8cpp.xhtml#ad53223b8779f25caeddb70a3b9172967" target="_top" xlink:title="The default function required to execute the server.">
<polygon fill="white" stroke="black" points="1280.5,-160.5 1280.5,-181.5 1321.5,-181.5 1321.5,-160.5 1280.5,-160.5"/>
<text text-anchor="middle" x="1301" y="-168.5" font-family="FreeSans.ttf" font-size="10.00">main</text>
</a>
</g>
<!-- Node8&#45;&gt;Node9 -->
<g id="edge16" class="edge"><title>Node8&#45;&gt;Node9</title>
<path fill="none" stroke="midnightblue" d="M1253.94,-171C1263.34,-171 1272.55,-171 1280.3,-171"/>
<polygon fill="midnightblue" stroke="midnightblue" points="1253.74,-167.5 1243.74,-171 1253.74,-174.5 1253.74,-167.5"/>
</g>
<!-- Node11 -->
<g id="node21" class="node"><title>Node11</title>
<a xlink:href="classServer.xhtml#a2b4cec469bb99c2a45e49de5ba74d1ae" target="_top" xlink:title="Processes input from all active SocketClient objects.">
<polygon fill="white" stroke="black" points="1002,-140.5 1002,-161.5 1118,-161.5 1118,-140.5 1002,-140.5"/>
<text text-anchor="middle" x="1060" y="-148.5" font-family="FreeSans.ttf" font-size="10.00">Server::ProcessInput</text>
</a>
</g>
<!-- Node10&#45;&gt;Node11 -->
<g id="edge20" class="edge"><title>Node10&#45;&gt;Node11</title>
<path fill="none" stroke="midnightblue" d="M976.249,-151C984.93,-151 993.54,-151 1001.75,-151"/>
<polygon fill="midnightblue" stroke="midnightblue" points="976.044,-147.5 966.044,-151 976.044,-154.5 976.044,-147.5"/>
</g>
<!-- Node11&#45;&gt;Node8 -->
<g id="edge22" class="edge"><title>Node11&#45;&gt;Node8</title>
<path fill="none" stroke="midnightblue" d="M1128.1,-160.799C1136.96,-162.074 1145.86,-163.353 1154.2,-164.554"/>
<polygon fill="midnightblue" stroke="midnightblue" points="1128.54,-157.326 1118.14,-159.366 1127.54,-164.255 1128.54,-157.326"/>
</g>
<!-- Node12&#45;&gt;Node3 -->
<g id="edge28" class="edge"><title>Node12&#45;&gt;Node3</title>
<path fill="none" stroke="midnightblue" d="M470.433,-119.139C446.227,-113.531 421.368,-107.027 403.855,-101.519"/>
<polygon fill="midnightblue" stroke="midnightblue" points="469.853,-122.597 480.38,-121.402 471.405,-115.771 469.853,-122.597"/>
</g>
<!-- Node13&#45;&gt;Node3 -->
<g id="edge32" class="edge"><title>Node13&#45;&gt;Node3</title>
<path fill="none" stroke="midnightblue" d="M467.752,-97.7456C459.082,-97.7693 450.366,-97.6981 441.97,-97.5321"/>
<polygon fill="midnightblue" stroke="midnightblue" points="467.912,-101.245 477.887,-97.6741 467.863,-94.2448 467.912,-101.245"/>
</g>
<!-- Node14&#45;&gt;Node3 -->
<g id="edge36" class="edge"><title>Node14&#45;&gt;Node3</title>
<path fill="none" stroke="midnightblue" d="M515.251,-64.5117C494.302,-70.6321 466.742,-77.4912 441.97,-82.8647"/>
<polygon fill="midnightblue" stroke="midnightblue" points="516.403,-67.8199 524.963,-61.5762 514.378,-61.1193 516.403,-67.8199"/>
</g>
<!-- Node15&#45;&gt;Node3 -->
<g id="edge40" class="edge"><title>Node15&#45;&gt;Node3</title>
<path fill="none" stroke="midnightblue" d="M522.21,-24.7644C508.652,-29.0414 492.12,-33.8298 478,-40 451.859,-51.423 424.344,-68.806 405.146,-80.3576"/>
<polygon fill="midnightblue" stroke="midnightblue" points="523.5,-28.0248 531.908,-21.579 521.315,-21.3743 523.5,-28.0248"/>
</g>
</g>
</svg>
        <g id="navigator" transform="translate(0 0)" fill="#404254">
                <rect fill="#f2f5e9" fill-opacity="0.5" stroke="#606060" stroke-width=".5" x="0" y="0" width="60" height="60"/>
                <use id="zoomplus" xlink:href="#zoomPlus" x="17" y="9" onmousedown="handleZoom(evt,'in')"/>
                <use id="zoomminus" xlink:href="#zoomMin" x="42" y="9" onmousedown="handleZoom(evt,'out')"/>
                <use id="reset" xlink:href="#resetDef" x="30" y="36" onmousedown="handleReset()"/>
                <g id="arrowUp" xlink:href="#dirArrow" transform="translate(30 24)" onmousedown="handlePan(0,-1)">
                  <use xlink:href="#rim" fill="#404040">
                        <set attributeName="fill" to="#808080" begin="arrowUp.mouseover" end="arrowUp.mouseout"/>
                  </use>
                  <path fill="none" stroke="white" stroke-width="1.5" d="M0,-3.0v7 M-2.5,-0.5L0,-3.0L2.5,-0.5"/>
                </g>
                <g id="arrowRight" xlink:href="#dirArrow" transform="rotate(90) translate(36 -43)" onmousedown="handlePan(1,0)">
                  <use xlink:href="#rim" fill="#404040">
                        <set attributeName="fill" to="#808080" begin="arrowRight.mouseover" end="arrowRight.mouseout"/>
                  </use>
                  <path fill="none" stroke="white" stroke-width="1.5" d="M0,-3.0v7 M-2.5,-0.5L0,-3.0L2.5,-0.5"/>
                </g>
                <g id="arrowDown" xlink:href="#dirArrow" transform="rotate(180) translate(-30 -48)" onmousedown="handlePan(0,1)">
                  <use xlink:href="#rim" fill="#404040">
                        <set attributeName="fill" to="#808080" begin="arrowDown.mouseover" end="arrowDown.mouseout"/>
                  </use>
                  <path fill="none" stroke="white" stroke-width="1.5" d="M0,-3.0v7 M-2.5,-0.5L0,-3.0L2.5,-0.5"/>
                </g>
                <g id="arrowLeft" xlink:href="#dirArrow" transform="rotate(270) translate(-36 17)" onmousedown="handlePan(-1,0)">
                  <use xlink:href="#rim" fill="#404040">
                        <set attributeName="fill" to="#808080" begin="arrowLeft.mouseover" end="arrowLeft.mouseout"/>
                  </use>
                  <path fill="none" stroke="white" stroke-width="1.5" d="M0,-3.0v7 M-2.5,-0.5L0,-3.0L2.5,-0.5"/>
                </g>
        </g>
</svg>
