<?xml version="1.0" encoding="UTF-8" standalone="no"?>
<!DOCTYPE svg PUBLIC "-//W3C//DTD SVG 1.1//EN"
 "http://www.w3.org/Graphics/SVG/1.1/DTD/svg11.dtd">
<!-- Generated by graphviz version 2.26.3 (20100126.1600)
 -->
<!-- Title: Thing::AddThing Pages: 1 -->
<!--zoomable 668 -->
<svg id="main" version="1.1" xmlns="http://www.w3.org/2000/svg" xmlns:xlink="http://www.w3.org/1999/xlink" xml:space="preserve" onload="init(evt)">
        <defs>
                <circle id="rim" cx="0" cy="0" r="7"/>
                <circle id="rim2" cx="0" cy="0" r="3.5"/>
                <g id="zoomPlus">
                        <use xlink:href="#rim" fill="#404040">
                                <set attributeName="fill" to="#808080" begin="zoomplus.mouseover" end="zoomplus.mouseout"/>
                        </use>
                        <path d="M-4,0h8M0,-4v8" fill="none" stroke="white" stroke-width="1.5" pointer-events="none"/>
                </g>
                <g id="zoomMin">
                        <use xlink:href="#rim" fill="#404040">
                                <set attributeName="fill" to="#808080" begin="zoomminus.mouseover" end="zoomminus.mouseout"/>
                        </use>
                        <path d="M-4,0h8" fill="none" stroke="white" stroke-width="1.5" pointer-events="none"/>
                </g>
                <g id="dirArrow">
                        <path fill="none" stroke="white" stroke-width="1.5" d="M0,-3.0v7 M-2.5,-0.5L0,-3.0L2.5,-0.5"/>
                </g>
               <g id="resetDef">
                       <use xlink:href="#rim2" fill="#404040">
                               <set attributeName="fill" to="#808080" begin="reset.mouseover" end="reset.mouseout"/>
                       </use>
               </g>
        </defs>

<script type="text/javascript">
var viewWidth = 1150;
var viewHeight = 668;
var sectionId = 'dynsection-3';
</script>
<script xlink:href="svgpan.js"/>
<svg id="graph" class="graph">
<g id="viewport">
<title>Thing::AddThing</title>
<polygon fill="white" stroke="white" points="-4,5 -4,-663.564 1147,-663.564 1147,5 -4,5"/>
<!-- Node1 -->
<g id="node1" class="node"><title>Node1</title>
<polygon fill="#bfbfbf" stroke="black" points="0,-249 0,-269 92,-269 92,-249 0,-249"/>
<text text-anchor="middle" x="46" y="-256" font-family="FreeSans.ttf" font-size="10.00">Thing::AddThing</text>
</g>
<!-- Node2 -->
<g id="node3" class="node"><title>Node2</title>
<a xlink:href="namespaceHandler.xhtml#a571519b889d3750c63b9dc3418449bcb" target="_top" xlink:title="Places the character loaded against the account into the game world.">
<polygon fill="white" stroke="black" points="128.5,-297 128.5,-317 243.5,-317 243.5,-297 128.5,-297"/>
<text text-anchor="middle" x="186" y="-304" font-family="FreeSans.ttf" font-size="10.00">Handler::EnterGame</text>
</a>
</g>
<!-- Node1&#45;&gt;Node2 -->
<g id="edge2" class="edge"><title>Node1&#45;&gt;Node2</title>
<path fill="none" stroke="midnightblue" d="M85.0294,-272.382C107.735,-280.166 135.885,-289.818 156.69,-296.951"/>
<polygon fill="midnightblue" stroke="midnightblue" points="85.9432,-268.995 75.3486,-269.062 83.6729,-275.616 85.9432,-268.995"/>
</g>
<!-- Node27 -->
<g id="node70" class="node"><title>Node27</title>
<a xlink:href="classThing.xhtml#aa325821371b36adbe2a2afe2f673f0f6" target="_top" xlink:title="Moves a Thing from within one Thing and into another Thing.">
<polygon fill="white" stroke="black" points="149,-201 149,-221 223,-221 223,-201 149,-201"/>
<text text-anchor="middle" x="186" y="-208" font-family="FreeSans.ttf" font-size="10.00">Thing::Move</text>
</a>
</g>
<!-- Node1&#45;&gt;Node27 -->
<g id="edge86" class="edge"><title>Node1&#45;&gt;Node27</title>
<path fill="none" stroke="midnightblue" d="M85.0294,-245.618C107.735,-237.834 135.885,-228.182 156.69,-221.049"/>
<polygon fill="midnightblue" stroke="midnightblue" points="83.6729,-242.384 75.3486,-248.938 85.9432,-249.005 83.6729,-242.384"/>
</g>
<!-- Node3 -->
<g id="node5" class="node"><title>Node3</title>
<a xlink:href="namespaceHandler.xhtml#a139febc000c9d767a620708148e0c888" target="_top" xlink:title="Dispatches the appropriate menu based on client state.">
<polygon fill="white" stroke="black" points="280.5,-297 280.5,-317 403.5,-317 403.5,-297 280.5,-297"/>
<text text-anchor="middle" x="342" y="-304" font-family="FreeSans.ttf" font-size="10.00">Handler::LoginHandler</text>
</a>
</g>
<!-- Node2&#45;&gt;Node3 -->
<g id="edge4" class="edge"><title>Node2&#45;&gt;Node3</title>
<path fill="none" stroke="midnightblue" d="M253.887,-307C262.704,-307 271.696,-307 280.402,-307"/>
<polygon fill="midnightblue" stroke="midnightblue" points="253.645,-303.5 243.645,-307 253.645,-310.5 253.645,-303.5"/>
</g>
<!-- Node19 -->
<g id="node51" class="node"><title>Node19</title>
<a xlink:href="namespaceServer.xhtml#a16ea0639731dee10e1a253375b508a02" target="_top" xlink:title="Recovers the server state and re&#45;connects client sockets after a reboot.">
<polygon fill="white" stroke="black" points="656,-625 656,-645 786,-645 786,-625 656,-625"/>
<text text-anchor="middle" x="721" y="-632" font-family="FreeSans.ttf" font-size="10.00">Server::RebootRecovery</text>
</a>
</g>
<!-- Node2&#45;&gt;Node19 -->
<g id="edge84" class="edge"><title>Node2&#45;&gt;Node19</title>
<path fill="none" stroke="midnightblue" d="M193.692,-326.562C218.481,-386.514 302.744,-567.69 440,-635 519.28,-673.879 626.923,-657.78 683.191,-645.011"/>
<polygon fill="midnightblue" stroke="midnightblue" points="196.868,-325.081 189.871,-317.125 190.38,-327.708 196.868,-325.081"/>
</g>
<!-- Node4 -->
<g id="node7" class="node"><title>Node4</title>
<a xlink:href="namespaceHandler.xhtml#a33a19d69ead678af81fbe96907eceaf0" target="_top" xlink:title="Create a new account object, or load an existing one, with a name and password.">
<polygon fill="white" stroke="black" points="464.5,-568 464.5,-588 595.5,-588 595.5,-568 464.5,-568"/>
<text text-anchor="middle" x="530" y="-575" font-family="FreeSans.ttf" font-size="10.00">Handler::AttachAccount</text>
</a>
</g>
<!-- Node3&#45;&gt;Node4 -->
<g id="edge6" class="edge"><title>Node3&#45;&gt;Node4</title>
<path fill="none" stroke="midnightblue" d="M344.082,-327.372C349.71,-374.543 369.92,-490.494 440,-550 451.443,-559.716 466.616,-564.859 481.239,-567.922"/>
<polygon fill="midnightblue" stroke="midnightblue" points="347.533,-326.737 342.967,-317.177 340.575,-327.498 347.533,-326.737"/>
</g>
<!-- Node5 -->
<g id="node10" class="node"><title>Node5</title>
<a xlink:href="namespaceHandler.xhtml#a2e4ebf6ed049eb872aa4948d54c4932c" target="_top" xlink:title="Attempt to write a new character to disk after creation was completed.">
<polygon fill="white" stroke="black" points="460.5,-530 460.5,-550 599.5,-550 599.5,-530 460.5,-530"/>
<text text-anchor="middle" x="530" y="-537" font-family="FreeSans.ttf" font-size="10.00">Handler::AttachCharacter</text>
</a>
</g>
<!-- Node3&#45;&gt;Node5 -->
<g id="edge10" class="edge"><title>Node3&#45;&gt;Node5</title>
<path fill="none" stroke="midnightblue" d="M346.083,-327.298C354.737,-369.04 379.348,-463.482 440,-512 452.346,-521.876 468.602,-526.955 483.899,-529.991"/>
<polygon fill="midnightblue" stroke="midnightblue" points="349.464,-326.353 344.09,-317.222 342.597,-327.711 349.464,-326.353"/>
</g>
<!-- Node6 -->
<g id="node13" class="node"><title>Node6</title>
<a xlink:href="namespaceHandler.xhtml#a73ed6064f2698dbffb5f4c247a02b661" target="_top" xlink:title="Send initial account interface menu.">
<polygon fill="white" stroke="black" points="456,-492 456,-512 604,-512 604,-492 456,-492"/>
<text text-anchor="middle" x="530" y="-499" font-family="FreeSans.ttf" font-size="10.00">Handler::AccountMenuMain</text>
</a>
</g>
<!-- Node3&#45;&gt;Node6 -->
<g id="edge14" class="edge"><title>Node3&#45;&gt;Node6</title>
<path fill="none" stroke="midnightblue" d="M348.784,-326.757C360.526,-362.351 388.472,-436.003 440,-474 453.495,-483.952 471.061,-488.936 487.087,-491.975"/>
<polygon fill="midnightblue" stroke="midnightblue" points="352.045,-325.463 345.652,-317.014 345.381,-327.606 352.045,-325.463"/>
</g>
<!-- Node7 -->
<g id="node16" class="node"><title>Node7</title>
<a xlink:href="namespaceHandler.xhtml#ad04998a7a6ece2486bc441052a57c2d7" target="_top" xlink:title="Main Character creation menu.">
<polygon fill="white" stroke="black" points="460,-442 460,-474 600,-474 600,-442 460,-442"/>
<text text-anchor="start" x="468" y="-461" font-family="FreeSans.ttf" font-size="10.00">Handler::CharacterCreate</text>
<text text-anchor="middle" x="530" y="-449" font-family="FreeSans.ttf" font-size="10.00">MenuMain</text>
</a>
</g>
<!-- Node3&#45;&gt;Node7 -->
<g id="edge18" class="edge"><title>Node3&#45;&gt;Node7</title>
<path fill="none" stroke="midnightblue" d="M354.974,-325.634C371.087,-351.739 401.247,-398.033 440,-424 452.259,-432.215 467.175,-437.748 481.31,-441.873"/>
<polygon fill="midnightblue" stroke="midnightblue" points="357.894,-323.7 349.683,-317.005 351.926,-327.359 357.894,-323.7"/>
</g>
<!-- Node8 -->
<g id="node19" class="node"><title>Node8</title>
<a xlink:href="namespaceHandler.xhtml#ab5889a65de2794129b375ec39ae923ae" target="_top" xlink:title="Select a new Character name.">
<polygon fill="white" stroke="black" points="445.5,-404 445.5,-424 614.5,-424 614.5,-404 445.5,-404"/>
<text text-anchor="middle" x="530" y="-411" font-family="FreeSans.ttf" font-size="10.00">Handler::CharacterCreateName</text>
</a>
</g>
<!-- Node3&#45;&gt;Node8 -->
<g id="edge22" class="edge"><title>Node3&#45;&gt;Node8</title>
<path fill="none" stroke="midnightblue" d="M362.579,-324.408C380.839,-342.743 409.315,-370.418 440,-386 458.938,-395.617 482.49,-400.369 500.751,-403.978"/>
<polygon fill="midnightblue" stroke="midnightblue" points="364.933,-321.811 355.403,-317.184 359.968,-326.745 364.933,-321.811"/>
</g>
<!-- Node9 -->
<g id="node22" class="node"><title>Node9</title>
<a xlink:href="namespaceHandler.xhtml#ae5086bcf5857eb572beedd09158c3065" target="_top" xlink:title="Select a new Character sex.">
<polygon fill="white" stroke="black" points="451,-366 451,-386 609,-386 609,-366 451,-366"/>
<text text-anchor="middle" x="530" y="-373" font-family="FreeSans.ttf" font-size="10.00">Handler::CharacterCreateSex</text>
</a>
</g>
<!-- Node3&#45;&gt;Node9 -->
<g id="edge26" class="edge"><title>Node3&#45;&gt;Node9</title>
<path fill="none" stroke="midnightblue" d="M381.29,-321.793C398.79,-330.522 419.944,-340.907 440,-348 462.734,-356.04 489.961,-361.205 508.472,-365.937"/>
<polygon fill="midnightblue" stroke="midnightblue" points="382.484,-318.478 371.973,-317.146 379.359,-324.742 382.484,-318.478"/>
</g>
<!-- Node10 -->
<g id="node25" class="node"><title>Node10</title>
<a xlink:href="namespaceHandler.xhtml#a97a198bfc72285b2aca4f36978db715e" target="_top" xlink:title="Main Character deletion confirmation.">
<polygon fill="white" stroke="black" points="460.5,-316 460.5,-348 599.5,-348 599.5,-316 460.5,-316"/>
<text text-anchor="start" x="468.5" y="-335" font-family="FreeSans.ttf" font-size="10.00">Handler::CharacterDelete</text>
<text text-anchor="middle" x="530" y="-323" font-family="FreeSans.ttf" font-size="10.00">Confirm</text>
</a>
</g>
<!-- Node3&#45;&gt;Node10 -->
<g id="edge30" class="edge"><title>Node3&#45;&gt;Node10</title>
<path fill="none" stroke="midnightblue" d="M413.532,-309.937C428.926,-311.74 445.173,-313.912 460.488,-316.214"/>
<polygon fill="midnightblue" stroke="midnightblue" points="413.889,-306.455 403.558,-308.807 413.101,-313.41 413.889,-306.455"/>
</g>
<!-- Node11 -->
<g id="node28" class="node"><title>Node11</title>
<a xlink:href="namespaceHandler.xhtml#afc470ec6e82b7a9a1560588a368734f9" target="_top" xlink:title="Main Character deletion menu.">
<polygon fill="white" stroke="black" points="460.5,-266 460.5,-298 599.5,-298 599.5,-266 460.5,-266"/>
<text text-anchor="start" x="468.5" y="-285" font-family="FreeSans.ttf" font-size="10.00">Handler::CharacterDelete</text>
<text text-anchor="middle" x="530" y="-273" font-family="FreeSans.ttf" font-size="10.00">MenuMain</text>
</a>
</g>
<!-- Node3&#45;&gt;Node11 -->
<g id="edge34" class="edge"><title>Node3&#45;&gt;Node11</title>
<path fill="none" stroke="midnightblue" d="M386.933,-295.17C408.85,-291.374 435.711,-287.572 460.217,-284.733"/>
<polygon fill="midnightblue" stroke="midnightblue" points="386.144,-291.755 376.921,-296.968 387.382,-298.645 386.144,-291.755"/>
</g>
<!-- Node12 -->
<g id="node31" class="node"><title>Node12</title>
<a xlink:href="namespaceHandler.xhtml#a02b1b954749641ab646f6548a5360d3b" target="_top" xlink:title="Main Character load menu.">
<polygon fill="white" stroke="black" points="440.5,-228 440.5,-248 619.5,-248 619.5,-228 440.5,-228"/>
<text text-anchor="middle" x="530" y="-235" font-family="FreeSans.ttf" font-size="10.00">Handler::CharacterLoadMenuMain</text>
</a>
</g>
<!-- Node3&#45;&gt;Node12 -->
<g id="edge38" class="edge"><title>Node3&#45;&gt;Node12</title>
<path fill="none" stroke="midnightblue" d="M357.94,-290.757C376.864,-276.962 409.686,-258.72 440,-248 440.151,-247.947 440.301,-247.894 440.452,-247.841"/>
<polygon fill="midnightblue" stroke="midnightblue" points="355.774,-288.007 350.06,-296.929 360.091,-293.518 355.774,-288.007"/>
</g>
<!-- Node13 -->
<g id="node34" class="node"><title>Node13</title>
<a xlink:href="namespaceHandler.xhtml#a00bc24564bfd267e0329643c569da1e4" target="_top" xlink:title="Select a new account name.">
<polygon fill="white" stroke="black" points="461.5,-190 461.5,-210 598.5,-210 598.5,-190 461.5,-190"/>
<text text-anchor="middle" x="530" y="-197" font-family="FreeSans.ttf" font-size="10.00">Handler::GetNewAccount</text>
</a>
</g>
<!-- Node3&#45;&gt;Node13 -->
<g id="edge42" class="edge"><title>Node3&#45;&gt;Node13</title>
<path fill="none" stroke="midnightblue" d="M352.31,-288.454C368.713,-265.698 402.727,-228.927 440,-210 446.692,-206.602 453.961,-203.811 461.368,-201.574"/>
<polygon fill="midnightblue" stroke="midnightblue" points="349.253,-286.728 346.571,-296.978 355.06,-290.637 349.253,-286.728"/>
</g>
<!-- Node14 -->
<g id="node37" class="node"><title>Node14</title>
<a xlink:href="namespaceHandler.xhtml#a744adadcf407cdb3a9c33365afd5a7c2" target="_top" xlink:title="Create a new account.">
<polygon fill="white" stroke="black" points="459,-152 459,-172 601,-172 601,-152 459,-152"/>
<text text-anchor="middle" x="530" y="-159" font-family="FreeSans.ttf" font-size="10.00">Handler::GetNewPassword</text>
</a>
</g>
<!-- Node3&#45;&gt;Node14 -->
<g id="edge46" class="edge"><title>Node3&#45;&gt;Node14</title>
<path fill="none" stroke="midnightblue" d="M348.975,-287.128C362.513,-256.645 395.022,-200.13 440,-172 445.822,-168.359 452.227,-165.405 458.856,-163.052"/>
<polygon fill="midnightblue" stroke="midnightblue" points="345.588,-286.157 344.988,-296.735 352.053,-288.84 345.588,-286.157"/>
</g>
<!-- Node15 -->
<g id="node40" class="node"><title>Node15</title>
<a xlink:href="namespaceHandler.xhtml#adfe13cc9748392348f3941656a1323b6" target="_top" xlink:title="Compare a received password against an existing account.">
<polygon fill="white" stroke="black" points="461.5,-114 461.5,-134 598.5,-134 598.5,-114 461.5,-114"/>
<text text-anchor="middle" x="530" y="-121" font-family="FreeSans.ttf" font-size="10.00">Handler::GetOldPassword</text>
</a>
</g>
<!-- Node3&#45;&gt;Node15 -->
<g id="edge50" class="edge"><title>Node3&#45;&gt;Node15</title>
<path fill="none" stroke="midnightblue" d="M346.507,-286.865C357.019,-249.765 386.428,-172.255 440,-134 446.368,-129.453 453.596,-125.95 461.12,-123.322"/>
<polygon fill="midnightblue" stroke="midnightblue" points="343.002,-286.431 343.845,-296.993 349.772,-288.211 343.002,-286.431"/>
</g>
<!-- Node16 -->
<g id="node43" class="node"><title>Node16</title>
<a xlink:href="namespaceHandler.xhtml#ae70e4e50054c729c14493eafefe01b5c" target="_top" xlink:title="Load a character from the account to enter into the game with.">
<polygon fill="white" stroke="black" points="464.5,-76 464.5,-96 595.5,-96 595.5,-76 464.5,-76"/>
<text text-anchor="middle" x="530" y="-83" font-family="FreeSans.ttf" font-size="10.00">Handler::LoadCharacter</text>
</a>
</g>
<!-- Node3&#45;&gt;Node16 -->
<g id="edge54" class="edge"><title>Node3&#45;&gt;Node16</title>
<path fill="none" stroke="midnightblue" d="M349.138,-287.413C370.325,-236 431.884,-102.345 440,-96 447.171,-90.3934 455.61,-86.3415 464.398,-83.5294"/>
<polygon fill="midnightblue" stroke="midnightblue" points="345.847,-286.216 345.365,-296.8 352.342,-288.827 345.847,-286.216"/>
</g>
<!-- Node17 -->
<g id="node46" class="node"><title>Node17</title>
<a xlink:href="namespaceHandler.xhtml#a44b41bf69fdc6e615a029bea34910191" target="_top" xlink:title="Send initial greeting and request for account name.">
<polygon fill="white" stroke="black" points="470.5,-38 470.5,-58 589.5,-58 589.5,-38 470.5,-38"/>
<text text-anchor="middle" x="530" y="-45" font-family="FreeSans.ttf" font-size="10.00">Handler::LoginScreen</text>
</a>
</g>
<!-- Node3&#45;&gt;Node17 -->
<g id="edge58" class="edge"><title>Node3&#45;&gt;Node17</title>
<path fill="none" stroke="midnightblue" d="M348.968,-287.456C360.942,-259.4 385.884,-207.291 404,-162 422.165,-116.585 403.317,-90.3556 440,-58 448.503,-50.4998 459.213,-45.6985 470.25,-42.8678"/>
<polygon fill="midnightblue" stroke="midnightblue" points="345.623,-286.387 345.054,-296.966 352.096,-289.05 345.623,-286.387"/>
</g>
<!-- Node18 -->
<g id="node49" class="node"><title>Node18</title>
<a xlink:href="classSocketClient.xhtml#a8399ef20292e9f3ec83b5c4bec2e105b" target="_top" xlink:title="Build a SocketClient for a new client connection and set all attributes.">
<polygon fill="white" stroke="black" points="478.5,-606 478.5,-626 581.5,-626 581.5,-606 478.5,-606"/>
<text text-anchor="middle" x="530" y="-613" font-family="FreeSans.ttf" font-size="10.00">SocketClient::New</text>
</a>
</g>
<!-- Node3&#45;&gt;Node18 -->
<g id="edge62" class="edge"><title>Node3&#45;&gt;Node18</title>
<path fill="none" stroke="midnightblue" d="M346.151,-327.358C358.725,-387.051 398.107,-559.774 440,-597 450.505,-606.335 464.422,-611.497 478.165,-614.252"/>
<polygon fill="midnightblue" stroke="midnightblue" points="349.521,-326.371 344.061,-317.292 342.667,-327.795 349.521,-326.371"/>
</g>
<!-- Node25 -->
<g id="node64" class="node"><title>Node25</title>
<a xlink:href="classSocketClient.xhtml#ad4f63c7d906310dc56a1217136047d7f" target="_top" xlink:title="Interpret the command at the front of the queue.">
<polygon fill="white" stroke="black" points="445,-0 445,-20 615,-20 615,-0 445,-0"/>
<text text-anchor="middle" x="530" y="-7" font-family="FreeSans.ttf" font-size="10.00">SocketClient::ProcessCommand</text>
</a>
</g>
<!-- Node3&#45;&gt;Node25 -->
<g id="edge78" class="edge"><title>Node3&#45;&gt;Node25</title>
<path fill="none" stroke="midnightblue" d="M352.217,-287.546C365.552,-261.552 388.959,-213.791 404,-171 425.591,-109.576 393.045,-74.1027 440,-29 443.685,-25.46 447.856,-22.508 452.332,-20.0526"/>
<polygon fill="midnightblue" stroke="midnightblue" points="348.975,-286.195 347.482,-296.685 355.19,-289.416 348.975,-286.195"/>
</g>
<!-- Node4&#45;&gt;Node3 -->
<g id="edge8" class="edge"><title>Node4&#45;&gt;Node3</title>
<path fill="none" stroke="midnightblue" d="M455.054,-577.477C449.629,-574.967 444.523,-571.841 440,-568 359.49,-499.637 344.799,-356.779 342.421,-317.073"/>
<polygon fill="midnightblue" stroke="midnightblue" points="453.848,-580.764 464.437,-581.138 456.393,-574.242 453.848,-580.764"/>
</g>
<!-- Node5&#45;&gt;Node3 -->
<g id="edge12" class="edge"><title>Node5&#45;&gt;Node3</title>
<path fill="none" stroke="midnightblue" d="M450.875,-537.045C447.025,-535.03 443.367,-532.693 440,-530 369.16,-473.332 347.486,-354.017 342.978,-317.454"/>
<polygon fill="midnightblue" stroke="midnightblue" points="449.601,-540.309 460.16,-541.177 452.447,-533.913 449.601,-540.309"/>
</g>
<!-- Node6&#45;&gt;Node3 -->
<g id="edge16" class="edge"><title>Node6&#45;&gt;Node3</title>
<path fill="none" stroke="midnightblue" d="M446.694,-496.361C444.376,-495.027 442.137,-493.576 440,-492 378.075,-446.336 350.208,-349.177 343.595,-317.041"/>
<polygon fill="midnightblue" stroke="midnightblue" points="445.468,-499.658 455.986,-500.937 448.561,-493.379 445.468,-499.658"/>
</g>
<!-- Node7&#45;&gt;Node3 -->
<g id="edge20" class="edge"><title>Node7&#45;&gt;Node3</title>
<path fill="none" stroke="midnightblue" d="M450.461,-448.085C446.825,-446.247 443.315,-444.221 440,-442 390.733,-408.988 355.353,-343.12 345.07,-317.139"/>
<polygon fill="midnightblue" stroke="midnightblue" points="449.167,-451.341 459.72,-452.276 452.053,-444.964 449.167,-451.341"/>
</g>
<!-- Node8&#45;&gt;Node3 -->
<g id="edge24" class="edge"><title>Node8&#45;&gt;Node3</title>
<path fill="none" stroke="midnightblue" d="M436.414,-401.751C392.917,-376.979 358.6,-336.53 346.571,-317.022"/>
<polygon fill="midnightblue" stroke="midnightblue" points="434.765,-404.838 445.231,-406.485 438.077,-398.671 434.765,-404.838"/>
</g>
<!-- Node9&#45;&gt;Node3 -->
<g id="edge28" class="edge"><title>Node9&#45;&gt;Node3</title>
<path fill="none" stroke="midnightblue" d="M440.977,-366.343C440.65,-366.229 440.325,-366.115 440,-366 404.885,-353.582 366.405,-331.071 350.06,-317.071"/>
<polygon fill="midnightblue" stroke="midnightblue" points="440.063,-369.725 450.654,-369.469 442.215,-363.064 440.063,-369.725"/>
</g>
<!-- Node10&#45;&gt;Node3 -->
<g id="edge32" class="edge"><title>Node10&#45;&gt;Node3</title>
<path fill="none" stroke="midnightblue" d="M450.125,-328.06C424.549,-324.908 397.544,-320.885 376.921,-317.032"/>
<polygon fill="midnightblue" stroke="midnightblue" points="449.872,-331.555 460.217,-329.267 450.703,-324.604 449.872,-331.555"/>
</g>
<!-- Node11&#45;&gt;Node3 -->
<g id="edge36" class="edge"><title>Node11&#45;&gt;Node3</title>
<path fill="none" stroke="midnightblue" d="M450.309,-299.277C434.671,-301.511 418.492,-303.562 403.558,-305.193"/>
<polygon fill="midnightblue" stroke="midnightblue" points="451.101,-302.699 460.488,-297.786 450.086,-295.773 451.101,-302.699"/>
</g>
<!-- Node12&#45;&gt;Node3 -->
<g id="edge40" class="edge"><title>Node12&#45;&gt;Node3</title>
<path fill="none" stroke="midnightblue" d="M498.716,-250.437C481.148,-254.567 459.004,-259.279 440,-266 416.23,-274.406 390.918,-287.437 371.973,-296.854"/>
<polygon fill="midnightblue" stroke="midnightblue" points="499.583,-253.828 508.472,-248.063 497.928,-247.027 499.583,-253.828"/>
</g>
<!-- Node13&#45;&gt;Node3 -->
<g id="edge44" class="edge"><title>Node13&#45;&gt;Node3</title>
<path fill="none" stroke="midnightblue" d="M490.916,-212.003C474.53,-215.408 455.683,-220.036 440,-228 404.932,-245.808 372.748,-279.411 355.403,-296.816"/>
<polygon fill="midnightblue" stroke="midnightblue" points="491.639,-215.428 500.751,-210.022 490.256,-208.566 491.639,-215.428"/>
</g>
<!-- Node14&#45;&gt;Node3 -->
<g id="edge48" class="edge"><title>Node14&#45;&gt;Node3</title>
<path fill="none" stroke="midnightblue" d="M483.651,-174C468.862,-177.179 452.981,-181.881 440,-190 395.593,-217.773 363.34,-273.215 349.499,-296.711"/>
<polygon fill="midnightblue" stroke="midnightblue" points="484.534,-177.393 493.665,-172.019 483.176,-170.526 484.534,-177.393"/>
</g>
<!-- Node15&#45;&gt;Node3 -->
<g id="edge52" class="edge"><title>Node15&#45;&gt;Node3</title>
<path fill="none" stroke="midnightblue" d="M478.088,-136.189C464.765,-139.338 451.081,-144.087 440,-152 386.284,-190.357 356.862,-268.18 346.423,-296.707"/>
<polygon fill="midnightblue" stroke="midnightblue" points="479.094,-139.554 488.157,-134.068 477.651,-132.705 479.094,-139.554"/>
</g>
<!-- Node16&#45;&gt;Node3 -->
<g id="edge56" class="edge"><title>Node16&#45;&gt;Node3</title>
<path fill="none" stroke="midnightblue" d="M474.632,-98.2914C462.285,-101.457 449.927,-106.239 440,-114 431.786,-120.422 368.823,-257.263 348.385,-296.734"/>
<polygon fill="midnightblue" stroke="midnightblue" points="475.498,-101.684 484.485,-96.0734 473.96,-94.855 475.498,-101.684"/>
</g>
<!-- Node17&#45;&gt;Node3 -->
<g id="edge60" class="edge"><title>Node17&#45;&gt;Node3</title>
<path fill="none" stroke="midnightblue" d="M470.323,-60.4626C459.26,-63.6773 448.522,-68.4833 440,-76 403.317,-108.356 422.165,-134.585 404,-180 386.268,-224.331 361.997,-275.194 349.746,-296.956"/>
<polygon fill="midnightblue" stroke="midnightblue" points="471.231,-63.8433 480.082,-58.019 469.531,-57.0529 471.231,-63.8433"/>
</g>
<!-- Node18&#45;&gt;Node19 -->
<g id="edge64" class="edge"><title>Node18&#45;&gt;Node19</title>
<path fill="none" stroke="midnightblue" d="M591.85,-622.153C612.343,-624.191 635.207,-626.466 655.935,-628.528"/>
<polygon fill="midnightblue" stroke="midnightblue" points="591.985,-618.649 581.687,-621.142 591.292,-625.614 591.985,-618.649"/>
</g>
<!-- Node22 -->
<g id="node57" class="node"><title>Node22</title>
<a xlink:href="classSocketServer.xhtml#afdbc60c3bc840875d2214b59c6213f63" target="_top" xlink:title="Accept a new connection on the listening port.">
<polygon fill="white" stroke="black" points="661,-587 661,-607 781,-607 781,-587 661,-587"/>
<text text-anchor="middle" x="721" y="-594" font-family="FreeSans.ttf" font-size="10.00">SocketServer::Accept</text>
</a>
</g>
<!-- Node18&#45;&gt;Node22 -->
<g id="edge70" class="edge"><title>Node18&#45;&gt;Node22</title>
<path fill="none" stroke="midnightblue" d="M591.653,-609.867C613.816,-607.662 638.772,-605.18 660.809,-602.988"/>
<polygon fill="midnightblue" stroke="midnightblue" points="591.292,-606.386 581.687,-610.858 591.985,-613.351 591.292,-606.386"/>
</g>
<!-- Node20 -->
<g id="node53" class="node"><title>Node20</title>
<a xlink:href="namespaceServer.xhtml#a19a1e493e1fb50a56d9c77332543d565" target="_top" xlink:title="Start the NAMS Server. Responsible for calling all critical boot&#45;time functions such as SocketServer ...">
<polygon fill="white" stroke="black" points="974,-625 974,-645 1064,-645 1064,-625 974,-625"/>
<text text-anchor="middle" x="1019" y="-632" font-family="FreeSans.ttf" font-size="10.00">Server::Startup</text>
</a>
</g>
<!-- Node19&#45;&gt;Node20 -->
<g id="edge66" class="edge"><title>Node19&#45;&gt;Node20</title>
<path fill="none" stroke="midnightblue" d="M796.262,-635C852.281,-635 926.893,-635 973.945,-635"/>
<polygon fill="midnightblue" stroke="midnightblue" points="796.029,-631.5 786.029,-635 796.029,-638.5 796.029,-631.5"/>
</g>
<!-- Node21 -->
<g id="node55" class="node"><title>Node21</title>
<a xlink:href="main_8cpp.xhtml#ad53223b8779f25caeddb70a3b9172967" target="_top" xlink:title="The default function required to execute the server.">
<polygon fill="white" stroke="black" points="1100.5,-606 1100.5,-626 1141.5,-626 1141.5,-606 1100.5,-606"/>
<text text-anchor="middle" x="1121" y="-613" font-family="FreeSans.ttf" font-size="10.00">main</text>
</a>
</g>
<!-- Node20&#45;&gt;Node21 -->
<g id="edge68" class="edge"><title>Node20&#45;&gt;Node21</title>
<path fill="none" stroke="midnightblue" d="M1073.9,-624.773C1083.36,-623.011 1092.64,-621.282 1100.43,-619.831"/>
<polygon fill="midnightblue" stroke="midnightblue" points="1073.23,-621.339 1064.04,-626.611 1074.51,-628.221 1073.23,-621.339"/>
</g>
<!-- Node23 -->
<g id="node59" class="node"><title>Node23</title>
<a xlink:href="namespaceServer.xhtml#a39dbe16fdc8c5f6fbd678c6540fbcd6c" target="_top" xlink:title="Poll all SocketClient objects that are communicating with the associated SocketServer object...">
<polygon fill="white" stroke="black" points="825.5,-587 825.5,-607 934.5,-607 934.5,-587 825.5,-587"/>
<text text-anchor="middle" x="880" y="-594" font-family="FreeSans.ttf" font-size="10.00">Server::PollSockets</text>
</a>
</g>
<!-- Node22&#45;&gt;Node23 -->
<g id="edge72" class="edge"><title>Node22&#45;&gt;Node23</title>
<path fill="none" stroke="midnightblue" d="M791.438,-597C802.788,-597 814.389,-597 825.297,-597"/>
<polygon fill="midnightblue" stroke="midnightblue" points="791.111,-593.5 781.111,-597 791.111,-600.5 791.111,-593.5"/>
</g>
<!-- Node24 -->
<g id="node61" class="node"><title>Node24</title>
<a xlink:href="namespaceServer.xhtml#a50b81aa91d8fdaee6f52c5c5ec987990" target="_top" xlink:title="The core update loop of NAMS. This loop spawns all other subsystem update routines and then sleeps fo...">
<polygon fill="white" stroke="black" points="974.5,-587 974.5,-607 1063.5,-607 1063.5,-587 974.5,-587"/>
<text text-anchor="middle" x="1019" y="-594" font-family="FreeSans.ttf" font-size="10.00">Server::Update</text>
</a>
</g>
<!-- Node23&#45;&gt;Node24 -->
<g id="edge74" class="edge"><title>Node23&#45;&gt;Node24</title>
<path fill="none" stroke="midnightblue" d="M944.574,-597C954.688,-597 964.943,-597 974.474,-597"/>
<polygon fill="midnightblue" stroke="midnightblue" points="944.538,-593.5 934.538,-597 944.537,-600.5 944.538,-593.5"/>
</g>
<!-- Node24&#45;&gt;Node21 -->
<g id="edge76" class="edge"><title>Node24&#45;&gt;Node21</title>
<path fill="none" stroke="midnightblue" d="M1073.64,-607.178C1083.14,-608.948 1092.47,-610.685 1100.3,-612.144"/>
<polygon fill="midnightblue" stroke="midnightblue" points="1074.21,-603.724 1063.74,-605.334 1072.93,-610.606 1074.21,-603.724"/>
</g>
<!-- Node26 -->
<g id="node66" class="node"><title>Node26</title>
<a xlink:href="namespaceServer.xhtml#a2b4cec469bb99c2a45e49de5ba74d1ae" target="_top" xlink:title="Processes input from all active SocketClient objects.">
<polygon fill="white" stroke="black" points="822,-275 822,-295 938,-295 938,-275 822,-275"/>
<text text-anchor="middle" x="880" y="-282" font-family="FreeSans.ttf" font-size="10.00">Server::ProcessInput</text>
</a>
</g>
<!-- Node25&#45;&gt;Node26 -->
<g id="edge80" class="edge"><title>Node25&#45;&gt;Node26</title>
<path fill="none" stroke="midnightblue" d="M608.089,-23.5133C612.203,-25.1389 616.201,-26.9599 620,-29 742.498,-94.7884 846.076,-235.964 873.122,-274.884"/>
<polygon fill="midnightblue" stroke="midnightblue" points="608.915,-20.0932 598.32,-20.0639 606.584,-26.6938 608.915,-20.0932"/>
</g>
<!-- Node26&#45;&gt;Node24 -->
<g id="edge82" class="edge"><title>Node26&#45;&gt;Node24</title>
<path fill="none" stroke="midnightblue" d="M888.643,-304.399C915.141,-363.877 994.646,-542.334 1014.48,-586.853"/>
<polygon fill="midnightblue" stroke="midnightblue" points="891.734,-302.738 884.467,-295.027 885.34,-305.586 891.734,-302.738"/>
</g>
<!-- Node28 -->
<g id="node72" class="node"><title>Node28</title>
<a xlink:href="classCharacter.xhtml#ad51f5ff0cfefa9bd7e674bc413f6b73c" target="_top" xlink:title="Interprets cmd with args at level security.">
<polygon fill="white" stroke="black" points="286.5,-142 286.5,-162 397.5,-162 397.5,-142 286.5,-142"/>
<text text-anchor="middle" x="342" y="-149" font-family="FreeSans.ttf" font-size="10.00">Character::Interpret</text>
</a>
</g>
<!-- Node27&#45;&gt;Node28 -->
<g id="edge88" class="edge"><title>Node27&#45;&gt;Node28</title>
<path fill="none" stroke="midnightblue" d="M222.062,-197.361C250.565,-186.581 289.701,-171.78 315.407,-162.058"/>
<polygon fill="midnightblue" stroke="midnightblue" points="220.579,-194.18 212.463,-200.991 223.055,-200.728 220.579,-194.18"/>
</g>
<!-- Node28&#45;&gt;Node25 -->
<g id="edge90" class="edge"><title>Node28&#45;&gt;Node25</title>
<path fill="none" stroke="midnightblue" d="M351.749,-132.697C366.753,-105.085 398.202,-54.8022 440,-29 445.843,-25.393 452.263,-22.4616 458.9,-20.0807"/>
<polygon fill="midnightblue" stroke="midnightblue" points="348.541,-131.279 346.977,-141.757 354.734,-134.541 348.541,-131.279"/>
</g>
</g>
</svg>
        <g id="navigator" transform="translate(0 0)" fill="#404254">
                <rect fill="#f2f5e9" fill-opacity="0.5" stroke="#606060" stroke-width=".5" x="0" y="0" width="60" height="60"/>
                <use id="zoomplus" xlink:href="#zoomPlus" x="17" y="9" onmousedown="handleZoom(evt,'in')"/>
                <use id="zoomminus" xlink:href="#zoomMin" x="42" y="9" onmousedown="handleZoom(evt,'out')"/>
                <use id="reset" xlink:href="#resetDef" x="30" y="36" onmousedown="handleReset()"/>
                <g id="arrowUp" xlink:href="#dirArrow" transform="translate(30 24)" onmousedown="handlePan(0,-1)">
                  <use xlink:href="#rim" fill="#404040">
                        <set attributeName="fill" to="#808080" begin="arrowUp.mouseover" end="arrowUp.mouseout"/>
                  </use>
                  <path fill="none" stroke="white" stroke-width="1.5" d="M0,-3.0v7 M-2.5,-0.5L0,-3.0L2.5,-0.5"/>
                </g>
                <g id="arrowRight" xlink:href="#dirArrow" transform="rotate(90) translate(36 -43)" onmousedown="handlePan(1,0)">
                  <use xlink:href="#rim" fill="#404040">
                        <set attributeName="fill" to="#808080" begin="arrowRight.mouseover" end="arrowRight.mouseout"/>
                  </use>
                  <path fill="none" stroke="white" stroke-width="1.5" d="M0,-3.0v7 M-2.5,-0.5L0,-3.0L2.5,-0.5"/>
                </g>
                <g id="arrowDown" xlink:href="#dirArrow" transform="rotate(180) translate(-30 -48)" onmousedown="handlePan(0,1)">
                  <use xlink:href="#rim" fill="#404040">
                        <set attributeName="fill" to="#808080" begin="arrowDown.mouseover" end="arrowDown.mouseout"/>
                  </use>
                  <path fill="none" stroke="white" stroke-width="1.5" d="M0,-3.0v7 M-2.5,-0.5L0,-3.0L2.5,-0.5"/>
                </g>
                <g id="arrowLeft" xlink:href="#dirArrow" transform="rotate(270) translate(-36 17)" onmousedown="handlePan(-1,0)">
                  <use xlink:href="#rim" fill="#404040">
                        <set attributeName="fill" to="#808080" begin="arrowLeft.mouseover" end="arrowLeft.mouseout"/>
                  </use>
                  <path fill="none" stroke="white" stroke-width="1.5" d="M0,-3.0v7 M-2.5,-0.5L0,-3.0L2.5,-0.5"/>
                </g>
        </g>
        <svg viewBox="0 0 15 15" width="100%" height="30px" preserveAspectRatio="xMaxYMin meet">
         <g id="arrow_out" transform="scale(0.3 0.3)">
          <a xlink:href="classThing_a1672d1e62ee2f1ef36d312d3e0d6ed2c_icgraph_org.svg" target="_base">
           <rect id="button" ry="5" rx="5" y="6" x="6" height="38" width="38"
                fill="#f2f5e9" fill-opacity="0.5" stroke="#606060" stroke-width="1.0"/>
           <path id="arrow"
             d="M 11.500037,31.436501 C 11.940474,20.09759 22.043105,11.32322 32.158766,21.979434 L 37.068811,17.246167 C 37.068811,17.246167 37.088388,32 37.088388,32 L 22.160133,31.978069 C 22.160133,31.978069 26.997745,27.140456 26.997745,27.140456 C 18.528582,18.264221 13.291696,25.230495 11.500037,31.436501 z"
             style="fill:#404040;"/>
          </a>
         </g>
        </svg>
</svg>
