<?xml version="1.0" encoding="UTF-8" standalone="no"?>
<!DOCTYPE svg PUBLIC "-//W3C//DTD SVG 1.1//EN"
 "http://www.w3.org/Graphics/SVG/1.1/DTD/svg11.dtd">
<!-- Generated by graphviz version 2.26.3 (20100126.1600)
 -->
<!-- Title: G Pages: 1 -->
<svg width="348pt" height="228pt"
 viewBox="0.00 0.00 348.00 228.00" xmlns="http://www.w3.org/2000/svg" xmlns:xlink="http://www.w3.org/1999/xlink">
<g id="graph1" class="graph" transform="scale(1 1) rotate(0) translate(4 224)">
<title>G</title>
<polygon fill="white" stroke="white" points="-4,5 -4,-224 345,-224 345,5 -4,5"/>
<!-- Node1 -->
<g id="node1" class="node"><title>Node1</title>
<polygon fill="#bfbfbf" stroke="black" points="0,-98.5 0,-119.5 104,-119.5 104,-98.5 0,-98.5"/>
<text text-anchor="middle" x="52" y="-106.5" font-family="FreeSans.ttf" font-size="10.00">Location::Serialize</text>
</g>
<!-- Node2 -->
<g id="node3" class="node"><title>Node2</title>
<a xlink:href="namespaceUtils.xhtml#a3e236b07fd628bcaf2e7c5854dd2a281" target="_top" xlink:title="Returns a string consisting of file.ext.">
<polygon fill="white" stroke="black" points="146,-198.5 146,-219.5 220,-219.5 220,-198.5 146,-198.5"/>
<text text-anchor="middle" x="183" y="-206.5" font-family="FreeSans.ttf" font-size="10.00">Utils::FileExt</text>
</a>
</g>
<!-- Node1&#45;&gt;Node2 -->
<g id="edge2" class="edge"><title>Node1&#45;&gt;Node2</title>
<path fill="none" stroke="midnightblue" d="M61.7095,-119.703C77.0851,-136.192 108.532,-168.085 140,-189 142.443,-190.624 145.038,-192.183 147.697,-193.663"/>
<polygon fill="midnightblue" stroke="midnightblue" points="146.356,-196.91 156.848,-198.378 149.562,-190.687 146.356,-196.91"/>
</g>
<!-- Node3 -->
<g id="node5" class="node"><title>Node3</title>
<a xlink:href="classThing.xhtml#aea5dad4f4241b325cdf64b232e84e602" target="_top" xlink:title="Returns the id associated with this Thing.">
<polygon fill="white" stroke="black" points="152,-158.5 152,-179.5 214,-179.5 214,-158.5 152,-158.5"/>
<text text-anchor="middle" x="183" y="-166.5" font-family="FreeSans.ttf" font-size="10.00">Thing::gId</text>
</a>
</g>
<!-- Node1&#45;&gt;Node3 -->
<g id="edge4" class="edge"><title>Node1&#45;&gt;Node3</title>
<path fill="none" stroke="midnightblue" d="M75.1186,-119.589C96.0353,-129.169 127.057,-143.377 150.473,-154.102"/>
<polygon fill="midnightblue" stroke="midnightblue" points="149.123,-157.333 159.672,-158.315 152.038,-150.969 149.123,-157.333"/>
</g>
<!-- Node4 -->
<g id="node7" class="node"><title>Node4</title>
<a xlink:href="namespaceUtils.xhtml#a67fd451200ee8a3cc646aeba5cb9513b" target="_top" xlink:title="Begins a write to a temporary file that is intended to replace a live file.">
<polygon fill="white" stroke="black" points="141,-118.5 141,-139.5 225,-139.5 225,-118.5 141,-118.5"/>
<text text-anchor="middle" x="183" y="-126.5" font-family="FreeSans.ttf" font-size="10.00">Utils::FileOpen</text>
</a>
</g>
<!-- Node1&#45;&gt;Node4 -->
<g id="edge6" class="edge"><title>Node1&#45;&gt;Node4</title>
<path fill="none" stroke="midnightblue" d="M104.151,-116.962C112.869,-118.293 121.917,-119.674 130.64,-121.006"/>
<polygon fill="midnightblue" stroke="midnightblue" points="130.279,-124.491 140.693,-122.541 131.336,-117.572 130.279,-124.491"/>
</g>
<!-- Node5 -->
<g id="node9" class="node"><title>Node5</title>
<a xlink:href="namespaceUtils.xhtml#ad21617b756ef242fbc66e63dec3e4e4d" target="_top" xlink:title="Returns a string consisting of directory/file.ext.">
<polygon fill="white" stroke="black" points="262,-98.5 262,-119.5 340,-119.5 340,-98.5 262,-98.5"/>
<text text-anchor="middle" x="301" y="-106.5" font-family="FreeSans.ttf" font-size="10.00">Utils::DirPath</text>
</a>
</g>
<!-- Node1&#45;&gt;Node5 -->
<g id="edge14" class="edge"><title>Node1&#45;&gt;Node5</title>
<path fill="none" stroke="midnightblue" d="M104.199,-109C147.674,-109 209.151,-109 251.777,-109"/>
<polygon fill="midnightblue" stroke="midnightblue" points="251.916,-112.5 261.916,-109 251.916,-105.5 251.916,-112.5"/>
</g>
<!-- Node6 -->
<g id="node11" class="node"><title>Node6</title>
<a xlink:href="classThing.xhtml#a3c3c40c996ff562baa335f2ded022578" target="_top" xlink:title="Returns the name associated with this Thing.">
<polygon fill="white" stroke="black" points="141.5,-40.5 141.5,-61.5 224.5,-61.5 224.5,-40.5 141.5,-40.5"/>
<text text-anchor="middle" x="183" y="-48.5" font-family="FreeSans.ttf" font-size="10.00">Thing::gName</text>
</a>
</g>
<!-- Node1&#45;&gt;Node6 -->
<g id="edge10" class="edge"><title>Node1&#45;&gt;Node6</title>
<path fill="none" stroke="midnightblue" d="M75.7231,-98.4966C96.368,-89.3562 126.516,-76.0082 149.599,-65.7883"/>
<polygon fill="midnightblue" stroke="midnightblue" points="151.284,-68.8701 159.011,-61.6212 148.45,-62.4694 151.284,-68.8701"/>
</g>
<!-- Node7 -->
<g id="node13" class="node"><title>Node7</title>
<a xlink:href="namespaceUtils.xhtml#a7008f8effca71806721305d1834bde1e" target="_top" xlink:title="Completes a read from a file.">
<polygon fill="white" stroke="black" points="140.5,-0.5 140.5,-21.5 225.5,-21.5 225.5,-0.5 140.5,-0.5"/>
<text text-anchor="middle" x="183" y="-8.5" font-family="FreeSans.ttf" font-size="10.00">Utils::FileClose</text>
</a>
</g>
<!-- Node1&#45;&gt;Node7 -->
<g id="edge12" class="edge"><title>Node1&#45;&gt;Node7</title>
<path fill="none" stroke="midnightblue" d="M62.0188,-98.3221C77.5575,-82.2009 108.926,-51.3714 140,-31 142.453,-29.3919 145.056,-27.844 147.72,-26.3708"/>
<polygon fill="midnightblue" stroke="midnightblue" points="149.581,-29.3495 156.881,-21.6703 146.386,-23.1215 149.581,-29.3495"/>
</g>
<!-- Node4&#45;&gt;Node5 -->
<g id="edge8" class="edge"><title>Node4&#45;&gt;Node5</title>
<path fill="none" stroke="midnightblue" d="M225.267,-121.836C233.823,-120.386 242.89,-118.849 251.665,-117.362"/>
<polygon fill="midnightblue" stroke="midnightblue" points="252.508,-120.769 261.782,-115.647 251.338,-113.867 252.508,-120.769"/>
</g>
</g>
</svg>
