<?xml version="1.0" encoding="UTF-8" standalone="no"?>
<!DOCTYPE svg PUBLIC "-//W3C//DTD SVG 1.1//EN"
 "http://www.w3.org/Graphics/SVG/1.1/DTD/svg11.dtd">
<!-- Generated by graphviz version 2.26.3 (20100126.1600)
 -->
<!-- Title: Account::gSecurity Pages: 1 -->
<svg width="1308pt" height="675pt"
 viewBox="0.00 0.00 1308.00 674.71" xmlns="http://www.w3.org/2000/svg" xmlns:xlink="http://www.w3.org/1999/xlink">
<g id="graph1" class="graph" transform="scale(1 1) rotate(0) translate(4 670.714)">
<title>Account::gSecurity</title>
<polygon fill="white" stroke="white" points="-4,5 -4,-670.714 1305,-670.714 1305,5 -4,5"/>
<!-- Node1 -->
<g id="node1" class="node"><title>Node1</title>
<polygon fill="#bfbfbf" stroke="black" points="0.5,-644 0.5,-664 107.5,-664 107.5,-644 0.5,-644"/>
<text text-anchor="middle" x="54" y="-651" font-family="FreeSans.ttf" font-size="10.00">Account::gSecurity</text>
</g>
<!-- Node2 -->
<g id="node3" class="node"><title>Node2</title>
<a xlink:href="classCommand.xhtml#a6cef42c7b0a50d8aa3b4424aef29b0bd" target="_top" xlink:title="Execute a Plugin object&#39;s primary function.">
<polygon fill="white" stroke="black" points="144,-606 144,-626 234,-626 234,-606 144,-606"/>
<text text-anchor="middle" x="189" y="-613" font-family="FreeSans.ttf" font-size="10.00">Command::Run</text>
</a>
</g>
<!-- Node1&#45;&gt;Node2 -->
<g id="edge2" class="edge"><title>Node1&#45;&gt;Node2</title>
<path fill="none" stroke="midnightblue" d="M99.7639,-641.118C117.138,-636.228 136.663,-630.732 153.01,-626.131"/>
<polygon fill="midnightblue" stroke="midnightblue" points="98.5007,-637.838 89.8231,-643.916 100.397,-644.576 98.5007,-637.838"/>
</g>
<!-- Node4 -->
<g id="node7" class="node"><title>Node4</title>
<a xlink:href="classSocketClient.xhtml#ad4f63c7d906310dc56a1217136047d7f" target="_top" xlink:title="Interpret the command at the front of the queue.">
<polygon fill="white" stroke="black" points="603,-606 603,-626 773,-626 773,-606 603,-606"/>
<text text-anchor="middle" x="688" y="-613" font-family="FreeSans.ttf" font-size="10.00">SocketClient::ProcessCommand</text>
</a>
</g>
<!-- Node1&#45;&gt;Node4 -->
<g id="edge96" class="edge"><title>Node1&#45;&gt;Node4</title>
<path fill="none" stroke="midnightblue" d="M117.936,-659.323C214.635,-666.12 403.613,-674.501 562,-652 596.912,-647.04 635.739,-634.889 660.941,-626.073"/>
<polygon fill="midnightblue" stroke="midnightblue" points="117.965,-655.816 107.739,-658.588 117.462,-662.798 117.965,-655.816"/>
</g>
<!-- Node3 -->
<g id="node5" class="node"><title>Node3</title>
<a xlink:href="classCharacter.xhtml#ad51f5ff0cfefa9bd7e674bc413f6b73c" target="_top" xlink:title="Interprets cmd with args at level security.">
<polygon fill="white" stroke="black" points="444.5,-606 444.5,-626 555.5,-626 555.5,-606 444.5,-606"/>
<text text-anchor="middle" x="500" y="-613" font-family="FreeSans.ttf" font-size="10.00">Character::Interpret</text>
</a>
</g>
<!-- Node2&#45;&gt;Node3 -->
<g id="edge4" class="edge"><title>Node2&#45;&gt;Node3</title>
<path fill="none" stroke="midnightblue" d="M244.395,-616C300.861,-616 387.959,-616 444.473,-616"/>
<polygon fill="midnightblue" stroke="midnightblue" points="244.222,-612.5 234.222,-616 244.222,-619.5 244.222,-612.5"/>
</g>
<!-- Node2&#45;&gt;Node4 -->
<g id="edge94" class="edge"><title>Node2&#45;&gt;Node4</title>
<path fill="none" stroke="midnightblue" d="M244.221,-626.616C252.823,-627.959 261.631,-629.157 270,-630 399.143,-643.016 432.566,-644.704 562,-635 585.605,-633.23 611.489,-629.621 633.624,-626.018"/>
<polygon fill="midnightblue" stroke="midnightblue" points="244.69,-623.146 234.256,-624.985 243.559,-630.054 244.69,-623.146"/>
</g>
<!-- Node8 -->
<g id="node15" class="node"><title>Node8</title>
<a xlink:href="classEvent.xhtml#ae00620af2a424d3d0041676e76b9303c" target="_top" xlink:title="Execute the function stored within the Event object.">
<polygon fill="white" stroke="black" points="302.5,-568 302.5,-588 369.5,-588 369.5,-568 302.5,-568"/>
<text text-anchor="middle" x="336" y="-575" font-family="FreeSans.ttf" font-size="10.00">Event::Run</text>
</a>
</g>
<!-- Node2&#45;&gt;Node8 -->
<g id="edge14" class="edge"><title>Node2&#45;&gt;Node8</title>
<path fill="none" stroke="midnightblue" d="M237.795,-603.386C258.953,-597.917 283.202,-591.649 302.31,-586.709"/>
<polygon fill="midnightblue" stroke="midnightblue" points="236.813,-600.025 228.007,-605.916 238.565,-606.802 236.813,-600.025"/>
</g>
<!-- Node10 -->
<g id="node20" class="node"><title>Node10</title>
<a xlink:href="namespaceHandler.xhtml#a33a19d69ead678af81fbe96907eceaf0" target="_top" xlink:title="Create a new account object, or load an existing one, with a name and password.">
<polygon fill="white" stroke="black" points="270.5,-302 270.5,-322 401.5,-322 401.5,-302 270.5,-302"/>
<text text-anchor="middle" x="336" y="-309" font-family="FreeSans.ttf" font-size="10.00">Handler::AttachAccount</text>
</a>
</g>
<!-- Node2&#45;&gt;Node10 -->
<g id="edge20" class="edge"><title>Node2&#45;&gt;Node10</title>
<path fill="none" stroke="midnightblue" d="M198.341,-596.683C226.505,-538.44 309.953,-365.865 331.091,-322.153"/>
<polygon fill="midnightblue" stroke="midnightblue" points="195.093,-595.359 193.891,-605.885 201.395,-598.406 195.093,-595.359"/>
</g>
<!-- Node3&#45;&gt;Node4 -->
<g id="edge6" class="edge"><title>Node3&#45;&gt;Node4</title>
<path fill="none" stroke="midnightblue" d="M565.94,-616C577.877,-616 590.479,-616 602.873,-616"/>
<polygon fill="midnightblue" stroke="midnightblue" points="565.643,-612.5 555.643,-616 565.643,-619.5 565.643,-612.5"/>
</g>
<!-- Node5 -->
<g id="node9" class="node"><title>Node5</title>
<a xlink:href="namespaceServer.xhtml#a2b4cec469bb99c2a45e49de5ba74d1ae" target="_top" xlink:title="Processes input from all active SocketClient objects.">
<polygon fill="white" stroke="black" points="980,-537 980,-557 1096,-557 1096,-537 980,-537"/>
<text text-anchor="middle" x="1038" y="-544" font-family="FreeSans.ttf" font-size="10.00">Server::ProcessInput</text>
</a>
</g>
<!-- Node4&#45;&gt;Node5 -->
<g id="edge8" class="edge"><title>Node4&#45;&gt;Node5</title>
<path fill="none" stroke="midnightblue" d="M783.326,-613.08C832.061,-609.802 891.922,-603.001 944,-589 971.618,-581.575 1001.43,-567.025 1019.91,-557.157"/>
<polygon fill="midnightblue" stroke="midnightblue" points="782.86,-609.602 773.101,-613.727 783.303,-616.588 782.86,-609.602"/>
</g>
<!-- Node6 -->
<g id="node11" class="node"><title>Node6</title>
<a xlink:href="namespaceServer.xhtml#a50b81aa91d8fdaee6f52c5c5ec987990" target="_top" xlink:title="The core update loop of NAMS. This loop spawns all other subsystem update routines and then sleeps fo...">
<polygon fill="white" stroke="black" points="1132.5,-441 1132.5,-461 1221.5,-461 1221.5,-441 1132.5,-441"/>
<text text-anchor="middle" x="1177" y="-448" font-family="FreeSans.ttf" font-size="10.00">Server::Update</text>
</a>
</g>
<!-- Node5&#45;&gt;Node6 -->
<g id="edge10" class="edge"><title>Node5&#45;&gt;Node6</title>
<path fill="none" stroke="midnightblue" d="M1061.2,-530.975C1089.92,-511.139 1137.99,-477.941 1162.16,-461.246"/>
<polygon fill="midnightblue" stroke="midnightblue" points="1058.85,-528.345 1052.61,-536.908 1062.83,-534.105 1058.85,-528.345"/>
</g>
<!-- Node7 -->
<g id="node13" class="node"><title>Node7</title>
<a xlink:href="main_8cpp.xhtml#ad53223b8779f25caeddb70a3b9172967" target="_top" xlink:title="The default function required to execute the server.">
<polygon fill="white" stroke="black" points="1258.5,-391 1258.5,-411 1299.5,-411 1299.5,-391 1258.5,-391"/>
<text text-anchor="middle" x="1279" y="-398" font-family="FreeSans.ttf" font-size="10.00">main</text>
</a>
</g>
<!-- Node6&#45;&gt;Node7 -->
<g id="edge12" class="edge"><title>Node6&#45;&gt;Node7</title>
<path fill="none" stroke="midnightblue" d="M1206.9,-436.342C1223.45,-428.229 1243.6,-418.351 1258.39,-411.103"/>
<polygon fill="midnightblue" stroke="midnightblue" points="1205.08,-433.337 1197.64,-440.882 1208.16,-439.623 1205.08,-433.337"/>
</g>
<!-- Node9 -->
<g id="node17" class="node"><title>Node9</title>
<a xlink:href="namespaceServer.xhtml#a266931bde9b1955346955140986d2b00" target="_top" xlink:title="Process any scheduled events tied to the Server.">
<polygon fill="white" stroke="black" points="817,-560 817,-580 941,-580 941,-560 817,-560"/>
<text text-anchor="middle" x="879" y="-567" font-family="FreeSans.ttf" font-size="10.00">Server::ProcessEvents</text>
</a>
</g>
<!-- Node8&#45;&gt;Node9 -->
<g id="edge16" class="edge"><title>Node8&#45;&gt;Node9</title>
<path fill="none" stroke="midnightblue" d="M379.798,-577.355C475.986,-575.938 705.937,-572.55 816.948,-570.914"/>
<polygon fill="midnightblue" stroke="midnightblue" points="379.505,-573.859 369.557,-577.506 379.608,-580.858 379.505,-573.859"/>
</g>
<!-- Node9&#45;&gt;Node6 -->
<g id="edge18" class="edge"><title>Node9&#45;&gt;Node6</title>
<path fill="none" stroke="midnightblue" d="M912.445,-555.881C932.08,-547.644 957.4,-537.114 980,-528 1040.96,-503.415 1112.99,-475.565 1150.8,-461.035"/>
<polygon fill="midnightblue" stroke="midnightblue" points="910.884,-552.74 903.021,-559.841 913.596,-559.193 910.884,-552.74"/>
</g>
<!-- Node11 -->
<g id="node22" class="node"><title>Node11</title>
<a xlink:href="namespaceHandler.xhtml#a139febc000c9d767a620708148e0c888" target="_top" xlink:title="Dispatches the appropriate menu based on client state.">
<polygon fill="white" stroke="black" points="438.5,-302 438.5,-322 561.5,-322 561.5,-302 438.5,-302"/>
<text text-anchor="middle" x="500" y="-309" font-family="FreeSans.ttf" font-size="10.00">Handler::LoginHandler</text>
</a>
</g>
<!-- Node10&#45;&gt;Node11 -->
<g id="edge22" class="edge"><title>Node10&#45;&gt;Node11</title>
<path fill="none" stroke="midnightblue" d="M411.79,-305.267C420.73,-305.218 429.77,-305.275 438.48,-305.441"/>
<polygon fill="midnightblue" stroke="midnightblue" points="411.724,-301.768 401.76,-305.369 411.795,-308.767 411.724,-301.768"/>
</g>
<!-- Node11&#45;&gt;Node4 -->
<g id="edge92" class="edge"><title>Node11&#45;&gt;Node4</title>
<path fill="none" stroke="midnightblue" d="M503.559,-332.056C512.417,-377.109 539.114,-487.938 598,-559 615.819,-580.504 643.93,-596.471 663.992,-605.952"/>
<polygon fill="midnightblue" stroke="midnightblue" points="506.972,-331.264 501.683,-322.084 500.092,-332.559 506.972,-331.264"/>
</g>
<!-- Node11&#45;&gt;Node10 -->
<g id="edge24" class="edge"><title>Node11&#45;&gt;Node10</title>
<path fill="none" stroke="midnightblue" d="M428.242,-318.703C419.436,-318.784 410.471,-318.76 401.76,-318.631"/>
<polygon fill="midnightblue" stroke="midnightblue" points="428.531,-322.199 438.48,-318.559 428.432,-315.2 428.531,-322.199"/>
</g>
<!-- Node12 -->
<g id="node25" class="node"><title>Node12</title>
<a xlink:href="namespaceHandler.xhtml#a2e4ebf6ed049eb872aa4948d54c4932c" target="_top" xlink:title="Attempt to write a new character to disk after creation was completed.">
<polygon fill="white" stroke="black" points="618.5,-340 618.5,-360 757.5,-360 757.5,-340 618.5,-340"/>
<text text-anchor="middle" x="688" y="-347" font-family="FreeSans.ttf" font-size="10.00">Handler::AttachCharacter</text>
</a>
</g>
<!-- Node11&#45;&gt;Node12 -->
<g id="edge26" class="edge"><title>Node11&#45;&gt;Node12</title>
<path fill="none" stroke="midnightblue" d="M571.7,-319.914C603.387,-325.823 638.662,-333.533 661.964,-339.9"/>
<polygon fill="midnightblue" stroke="midnightblue" points="572.024,-316.416 561.558,-318.063 570.767,-323.302 572.024,-316.416"/>
</g>
<!-- Node13 -->
<g id="node28" class="node"><title>Node13</title>
<a xlink:href="namespaceHandler.xhtml#a73ed6064f2698dbffb5f4c247a02b661" target="_top" xlink:title="Send initial account interface menu.">
<polygon fill="white" stroke="black" points="614,-302 614,-322 762,-322 762,-302 614,-302"/>
<text text-anchor="middle" x="688" y="-309" font-family="FreeSans.ttf" font-size="10.00">Handler::AccountMenuMain</text>
</a>
</g>
<!-- Node11&#45;&gt;Node13 -->
<g id="edge30" class="edge"><title>Node11&#45;&gt;Node13</title>
<path fill="none" stroke="midnightblue" d="M571.91,-305.418C585.645,-305.205 600.046,-305.194 613.849,-305.386"/>
<polygon fill="midnightblue" stroke="midnightblue" points="571.488,-301.926 561.558,-305.621 571.625,-308.925 571.488,-301.926"/>
</g>
<!-- Node14 -->
<g id="node31" class="node"><title>Node14</title>
<a xlink:href="namespaceHandler.xhtml#ad04998a7a6ece2486bc441052a57c2d7" target="_top" xlink:title="Main Character creation menu.">
<polygon fill="white" stroke="black" points="618,-252 618,-284 758,-284 758,-252 618,-252"/>
<text text-anchor="start" x="626" y="-271" font-family="FreeSans.ttf" font-size="10.00">Handler::CharacterCreate</text>
<text text-anchor="middle" x="688" y="-259" font-family="FreeSans.ttf" font-size="10.00">MenuMain</text>
</a>
</g>
<!-- Node11&#45;&gt;Node14 -->
<g id="edge34" class="edge"><title>Node11&#45;&gt;Node14</title>
<path fill="none" stroke="midnightblue" d="M532.82,-299.048C556.236,-292.223 588.608,-284.219 617.728,-277.891"/>
<polygon fill="midnightblue" stroke="midnightblue" points="531.618,-295.754 523.052,-301.99 533.637,-302.457 531.618,-295.754"/>
</g>
<!-- Node15 -->
<g id="node34" class="node"><title>Node15</title>
<a xlink:href="namespaceHandler.xhtml#ab5889a65de2794129b375ec39ae923ae" target="_top" xlink:title="Select a new Character name.">
<polygon fill="white" stroke="black" points="603.5,-214 603.5,-234 772.5,-234 772.5,-214 603.5,-214"/>
<text text-anchor="middle" x="688" y="-221" font-family="FreeSans.ttf" font-size="10.00">Handler::CharacterCreateName</text>
</a>
</g>
<!-- Node11&#45;&gt;Node15 -->
<g id="edge38" class="edge"><title>Node11&#45;&gt;Node15</title>
<path fill="none" stroke="midnightblue" d="M512.905,-294.193C530.71,-275.741 564.432,-248.62 598,-234 599.757,-233.235 601.547,-232.5 603.363,-231.794"/>
<polygon fill="midnightblue" stroke="midnightblue" points="510.192,-291.975 506.098,-301.747 515.392,-296.661 510.192,-291.975"/>
</g>
<!-- Node16 -->
<g id="node37" class="node"><title>Node16</title>
<a xlink:href="namespaceHandler.xhtml#ae5086bcf5857eb572beedd09158c3065" target="_top" xlink:title="Select a new Character sex.">
<polygon fill="white" stroke="black" points="609,-176 609,-196 767,-196 767,-176 609,-176"/>
<text text-anchor="middle" x="688" y="-183" font-family="FreeSans.ttf" font-size="10.00">Handler::CharacterCreateSex</text>
</a>
</g>
<!-- Node11&#45;&gt;Node16 -->
<g id="edge42" class="edge"><title>Node11&#45;&gt;Node16</title>
<path fill="none" stroke="midnightblue" d="M508.383,-292.862C523.326,-266.139 556.888,-219.467 598,-196 601.467,-194.021 605.116,-192.247 608.877,-190.666"/>
<polygon fill="midnightblue" stroke="midnightblue" points="505.28,-291.243 503.741,-301.725 511.481,-294.491 505.28,-291.243"/>
</g>
<!-- Node17 -->
<g id="node40" class="node"><title>Node17</title>
<a xlink:href="namespaceHandler.xhtml#a97a198bfc72285b2aca4f36978db715e" target="_top" xlink:title="Main Character deletion confirmation.">
<polygon fill="white" stroke="black" points="618.5,-126 618.5,-158 757.5,-158 757.5,-126 618.5,-126"/>
<text text-anchor="start" x="626.5" y="-145" font-family="FreeSans.ttf" font-size="10.00">Handler::CharacterDelete</text>
<text text-anchor="middle" x="688" y="-133" font-family="FreeSans.ttf" font-size="10.00">Confirm</text>
</a>
</g>
<!-- Node11&#45;&gt;Node17 -->
<g id="edge46" class="edge"><title>Node11&#45;&gt;Node17</title>
<path fill="none" stroke="midnightblue" d="M505.867,-292.049C518.25,-258.559 549.93,-192.587 598,-158 604.187,-153.549 611.135,-149.889 618.358,-146.936"/>
<polygon fill="midnightblue" stroke="midnightblue" points="502.49,-291.105 502.528,-301.7 509.105,-293.393 502.49,-291.105"/>
</g>
<!-- Node18 -->
<g id="node43" class="node"><title>Node18</title>
<a xlink:href="namespaceHandler.xhtml#afc470ec6e82b7a9a1560588a368734f9" target="_top" xlink:title="Main Character deletion menu.">
<polygon fill="white" stroke="black" points="618.5,-76 618.5,-108 757.5,-108 757.5,-76 618.5,-76"/>
<text text-anchor="start" x="626.5" y="-95" font-family="FreeSans.ttf" font-size="10.00">Handler::CharacterDelete</text>
<text text-anchor="middle" x="688" y="-83" font-family="FreeSans.ttf" font-size="10.00">MenuMain</text>
</a>
</g>
<!-- Node11&#45;&gt;Node18 -->
<g id="edge50" class="edge"><title>Node11&#45;&gt;Node18</title>
<path fill="none" stroke="midnightblue" d="M503.293,-291.811C511.924,-250.321 538.747,-156.707 598,-108 604.013,-103.057 610.935,-99.0889 618.215,-95.9629"/>
<polygon fill="midnightblue" stroke="midnightblue" points="499.817,-291.353 501.367,-301.834 506.692,-292.674 499.817,-291.353"/>
</g>
<!-- Node19 -->
<g id="node46" class="node"><title>Node19</title>
<a xlink:href="namespaceHandler.xhtml#a02b1b954749641ab646f6548a5360d3b" target="_top" xlink:title="Main Character load menu.">
<polygon fill="white" stroke="black" points="598.5,-38 598.5,-58 777.5,-58 777.5,-38 598.5,-38"/>
<text text-anchor="middle" x="688" y="-45" font-family="FreeSans.ttf" font-size="10.00">Handler::CharacterLoadMenuMain</text>
</a>
</g>
<!-- Node11&#45;&gt;Node19 -->
<g id="edge54" class="edge"><title>Node11&#45;&gt;Node19</title>
<path fill="none" stroke="midnightblue" d="M501.334,-291.88C505.905,-243.063 524.972,-119.407 598,-58 598.122,-57.8972 598.245,-57.795 598.368,-57.6932"/>
<polygon fill="midnightblue" stroke="midnightblue" points="497.845,-291.607 500.511,-301.861 504.821,-292.182 497.845,-291.607"/>
</g>
<!-- Node20 -->
<g id="node49" class="node"><title>Node20</title>
<a xlink:href="namespaceHandler.xhtml#a00bc24564bfd267e0329643c569da1e4" target="_top" xlink:title="Select a new account name.">
<polygon fill="white" stroke="black" points="619.5,-530 619.5,-550 756.5,-550 756.5,-530 619.5,-530"/>
<text text-anchor="middle" x="688" y="-537" font-family="FreeSans.ttf" font-size="10.00">Handler::GetNewAccount</text>
</a>
</g>
<!-- Node11&#45;&gt;Node20 -->
<g id="edge58" class="edge"><title>Node11&#45;&gt;Node20</title>
<path fill="none" stroke="midnightblue" d="M504.338,-332.009C513.35,-372.86 538.447,-464.8 598,-512 610.39,-521.82 626.657,-526.886 641.949,-529.928"/>
<polygon fill="midnightblue" stroke="midnightblue" points="507.744,-331.195 502.251,-322.135 500.895,-332.642 507.744,-331.195"/>
</g>
<!-- Node21 -->
<g id="node52" class="node"><title>Node21</title>
<a xlink:href="namespaceHandler.xhtml#a744adadcf407cdb3a9c33365afd5a7c2" target="_top" xlink:title="Create a new account.">
<polygon fill="white" stroke="black" points="617,-492 617,-512 759,-512 759,-492 617,-492"/>
<text text-anchor="middle" x="688" y="-499" font-family="FreeSans.ttf" font-size="10.00">Handler::GetNewPassword</text>
</a>
</g>
<!-- Node11&#45;&gt;Node21 -->
<g id="edge62" class="edge"><title>Node11&#45;&gt;Node21</title>
<path fill="none" stroke="midnightblue" d="M507.18,-331.562C519.311,-366.261 547.608,-437.318 598,-474 611.686,-483.962 629.468,-488.932 645.608,-491.975"/>
<polygon fill="midnightblue" stroke="midnightblue" points="510.471,-330.371 503.927,-322.039 503.847,-332.633 510.471,-330.371"/>
</g>
<!-- Node22 -->
<g id="node55" class="node"><title>Node22</title>
<a xlink:href="namespaceHandler.xhtml#adfe13cc9748392348f3941656a1323b6" target="_top" xlink:title="Compare a received password against an existing account.">
<polygon fill="white" stroke="black" points="619.5,-454 619.5,-474 756.5,-474 756.5,-454 619.5,-454"/>
<text text-anchor="middle" x="688" y="-461" font-family="FreeSans.ttf" font-size="10.00">Handler::GetOldPassword</text>
</a>
</g>
<!-- Node11&#45;&gt;Node22 -->
<g id="edge66" class="edge"><title>Node11&#45;&gt;Node22</title>
<path fill="none" stroke="midnightblue" d="M511.637,-331.224C526.938,-359.115 556.794,-409.477 598,-436 613.442,-445.94 633.172,-450.783 650.222,-453.92"/>
<polygon fill="midnightblue" stroke="midnightblue" points="514.68,-329.494 506.836,-322.372 508.526,-332.831 514.68,-329.494"/>
</g>
<!-- Node23 -->
<g id="node58" class="node"><title>Node23</title>
<a xlink:href="namespaceHandler.xhtml#ae70e4e50054c729c14493eafefe01b5c" target="_top" xlink:title="Load a character from the account to enter into the game with.">
<polygon fill="white" stroke="black" points="622.5,-416 622.5,-436 753.5,-436 753.5,-416 622.5,-416"/>
<text text-anchor="middle" x="688" y="-423" font-family="FreeSans.ttf" font-size="10.00">Handler::LoadCharacter</text>
</a>
</g>
<!-- Node11&#45;&gt;Node23 -->
<g id="edge70" class="edge"><title>Node11&#45;&gt;Node23</title>
<path fill="none" stroke="midnightblue" d="M518.693,-329.756C536.606,-349.687 565.641,-380.783 598,-398 616.328,-407.751 639.25,-412.498 657.374,-415.988"/>
<polygon fill="midnightblue" stroke="midnightblue" points="521.222,-327.333 511.943,-322.219 516.008,-332.004 521.222,-327.333"/>
</g>
<!-- Node24 -->
<g id="node61" class="node"><title>Node24</title>
<a xlink:href="namespaceHandler.xhtml#a44b41bf69fdc6e615a029bea34910191" target="_top" xlink:title="Send initial greeting and request for account name.">
<polygon fill="white" stroke="black" points="628.5,-378 628.5,-398 747.5,-398 747.5,-378 628.5,-378"/>
<text text-anchor="middle" x="688" y="-385" font-family="FreeSans.ttf" font-size="10.00">Handler::LoginScreen</text>
</a>
</g>
<!-- Node11&#45;&gt;Node24 -->
<g id="edge74" class="edge"><title>Node11&#45;&gt;Node24</title>
<path fill="none" stroke="midnightblue" d="M533.874,-327.3C552.156,-337.952 575.529,-351.351 598,-360 620.057,-368.49 646.691,-373.514 665.238,-377.981"/>
<polygon fill="midnightblue" stroke="midnightblue" points="535.475,-324.182 525.072,-322.172 531.951,-330.23 535.475,-324.182"/>
</g>
<!-- Node25 -->
<g id="node64" class="node"><title>Node25</title>
<a xlink:href="classSocketClient.xhtml#a8399ef20292e9f3ec83b5c4bec2e105b" target="_top" xlink:title="Build a SocketClient for a new client connection and set all attributes.">
<polygon fill="white" stroke="black" points="636.5,-0 636.5,-20 739.5,-20 739.5,-0 636.5,-0"/>
<text text-anchor="middle" x="688" y="-7" font-family="FreeSans.ttf" font-size="10.00">SocketClient::New</text>
</a>
</g>
<!-- Node11&#45;&gt;Node25 -->
<g id="edge78" class="edge"><title>Node11&#45;&gt;Node25</title>
<path fill="none" stroke="midnightblue" d="M504.223,-292.127C516.997,-233.86 556.878,-65.267 598,-29 608.54,-19.7047 622.468,-14.5548 636.21,-11.7987"/>
<polygon fill="midnightblue" stroke="midnightblue" points="500.791,-291.44 502.098,-301.954 507.633,-292.919 500.791,-291.44"/>
</g>
<!-- Node12&#45;&gt;Node11 -->
<g id="edge28" class="edge"><title>Node12&#45;&gt;Node11</title>
<path fill="none" stroke="midnightblue" d="M608.511,-340.611C578.824,-334.907 547.159,-327.887 525.746,-322.021"/>
<polygon fill="midnightblue" stroke="midnightblue" points="608.01,-344.078 618.485,-342.491 609.307,-337.199 608.01,-344.078"/>
</g>
<!-- Node13&#45;&gt;Node11 -->
<g id="edge32" class="edge"><title>Node13&#45;&gt;Node11</title>
<path fill="none" stroke="midnightblue" d="M603.611,-318.719C589.453,-318.812 575.001,-318.698 561.558,-318.379"/>
<polygon fill="midnightblue" stroke="midnightblue" points="603.885,-322.216 613.849,-318.614 603.814,-315.216 603.885,-322.216"/>
</g>
<!-- Node14&#45;&gt;Node11 -->
<g id="edge36" class="edge"><title>Node14&#45;&gt;Node11</title>
<path fill="none" stroke="midnightblue" d="M634.369,-286.715C611.658,-292.733 585.066,-299.028 561.558,-303.972"/>
<polygon fill="midnightblue" stroke="midnightblue" points="635.433,-290.053 644.174,-284.067 633.608,-283.295 635.433,-290.053"/>
</g>
<!-- Node15&#45;&gt;Node11 -->
<g id="edge40" class="edge"><title>Node15&#45;&gt;Node11</title>
<path fill="none" stroke="midnightblue" d="M652.622,-236.208C635.607,-239.883 615.217,-244.501 598,-252 568.049,-265.045 537.976,-288.041 519.195,-301.801"/>
<polygon fill="midnightblue" stroke="midnightblue" points="653.687,-239.559 662.722,-234.025 652.208,-232.717 653.687,-239.559"/>
</g>
<!-- Node16&#45;&gt;Node11 -->
<g id="edge44" class="edge"><title>Node16&#45;&gt;Node11</title>
<path fill="none" stroke="midnightblue" d="M645.082,-197.968C629.489,-201.22 612.221,-205.883 598,-214 558.183,-236.727 525.449,-281.22 509.851,-301.81"/>
<polygon fill="midnightblue" stroke="midnightblue" points="645.899,-201.374 655.037,-196.013 644.55,-194.505 645.899,-201.374"/>
</g>
<!-- Node17&#45;&gt;Node11 -->
<g id="edge48" class="edge"><title>Node17&#45;&gt;Node11</title>
<path fill="none" stroke="midnightblue" d="M627.865,-161.159C617.303,-164.865 606.869,-169.619 598,-176 550.153,-210.426 518.545,-275.946 506.041,-301.746"/>
<polygon fill="midnightblue" stroke="midnightblue" points="629.115,-164.434 637.559,-158.035 626.967,-157.771 629.115,-164.434"/>
</g>
<!-- Node18&#45;&gt;Node11 -->
<g id="edge52" class="edge"><title>Node18&#45;&gt;Node11</title>
<path fill="none" stroke="midnightblue" d="M624.08,-111.407C614.677,-115.05 605.61,-119.744 598,-126 538.29,-175.082 511.512,-269.767 503.097,-301.653"/>
<polygon fill="midnightblue" stroke="midnightblue" points="625.268,-114.7 633.554,-108.097 622.959,-108.091 625.268,-114.7"/>
</g>
<!-- Node19&#45;&gt;Node11 -->
<g id="edge56" class="edge"><title>Node19&#45;&gt;Node11</title>
<path fill="none" stroke="midnightblue" d="M630.03,-60.3773C618.448,-63.5701 607.071,-68.372 598,-76 523.842,-138.358 505.328,-264.906 501.132,-301.942"/>
<polygon fill="midnightblue" stroke="midnightblue" points="630.851,-63.7796 639.761,-58.0471 629.221,-56.9721 630.851,-63.7796"/>
</g>
<!-- Node20&#45;&gt;Node11 -->
<g id="edge60" class="edge"><title>Node20&#45;&gt;Node11</title>
<path fill="none" stroke="midnightblue" d="M609.724,-537.428C605.566,-535.329 601.618,-532.867 598,-530 528.276,-474.739 505.782,-358.15 501.037,-322.287"/>
<polygon fill="midnightblue" stroke="midnightblue" points="608.545,-540.731 619.114,-541.459 611.306,-534.298 608.545,-540.731"/>
</g>
<!-- Node21&#45;&gt;Node11 -->
<g id="edge64" class="edge"><title>Node21&#45;&gt;Node11</title>
<path fill="none" stroke="midnightblue" d="M607.59,-497.881C604.235,-496.151 601.018,-494.197 598,-492 537.416,-447.899 508.768,-354.11 501.753,-322.285"/>
<polygon fill="midnightblue" stroke="midnightblue" points="606.19,-501.089 616.75,-501.953 609.033,-494.693 606.19,-501.089"/>
</g>
<!-- Node22&#45;&gt;Node11 -->
<g id="edge68" class="edge"><title>Node22&#45;&gt;Node11</title>
<path fill="none" stroke="midnightblue" d="M609.496,-460.181C605.488,-458.386 601.626,-456.334 598,-454 546.148,-420.624 512.268,-349.499 502.746,-322.242"/>
<polygon fill="midnightblue" stroke="midnightblue" points="608.482,-463.542 619.071,-463.911 611.023,-457.02 608.482,-463.542"/>
</g>
<!-- Node23&#45;&gt;Node11 -->
<g id="edge72" class="edge"><title>Node23&#45;&gt;Node11</title>
<path fill="none" stroke="midnightblue" d="M612.367,-422.362C607.39,-420.536 602.553,-418.423 598,-416 554.279,-392.738 516.627,-344.139 504.276,-322.181"/>
<polygon fill="midnightblue" stroke="midnightblue" points="611.478,-425.754 622.071,-425.525 613.648,-419.099 611.478,-425.754"/>
</g>
<!-- Node24&#45;&gt;Node11 -->
<g id="edge76" class="edge"><title>Node24&#45;&gt;Node11</title>
<path fill="none" stroke="midnightblue" d="M618.074,-384.508C611.203,-382.641 604.409,-380.467 598,-378 561.63,-364.001 522.896,-337.559 507.211,-322.132"/>
<polygon fill="midnightblue" stroke="midnightblue" points="617.608,-387.999 628.158,-387.024 619.303,-381.207 617.608,-387.999"/>
</g>
<!-- Node26 -->
<g id="node66" class="node"><title>Node26</title>
<a xlink:href="namespaceServer.xhtml#a16ea0639731dee10e1a253375b508a02" target="_top" xlink:title="Recovers the server state and re&#45;connects client sockets after a reboot.">
<polygon fill="white" stroke="black" points="814,-246 814,-266 944,-266 944,-246 814,-246"/>
<text text-anchor="middle" x="879" y="-253" font-family="FreeSans.ttf" font-size="10.00">Server::RebootRecovery</text>
</a>
</g>
<!-- Node25&#45;&gt;Node26 -->
<g id="edge80" class="edge"><title>Node25&#45;&gt;Node26</title>
<path fill="none" stroke="midnightblue" d="M749.629,-14.9187C759.875,-17.9078 769.814,-22.3788 778,-29 850.776,-87.8643 872.745,-210.04 877.749,-245.899"/>
<polygon fill="midnightblue" stroke="midnightblue" points="750.306,-11.4808 739.759,-12.4851 748.63,-18.2773 750.306,-11.4808"/>
</g>
<!-- Node28 -->
<g id="node71" class="node"><title>Node28</title>
<a xlink:href="classSocketServer.xhtml#afdbc60c3bc840875d2214b59c6213f63" target="_top" xlink:title="Accept a new connection on the listening port.">
<polygon fill="white" stroke="black" points="819,-407 819,-427 939,-427 939,-407 819,-407"/>
<text text-anchor="middle" x="879" y="-414" font-family="FreeSans.ttf" font-size="10.00">SocketServer::Accept</text>
</a>
</g>
<!-- Node25&#45;&gt;Node28 -->
<g id="edge86" class="edge"><title>Node25&#45;&gt;Node28</title>
<path fill="none" stroke="midnightblue" d="M749.525,-12.6546C760.246,-15.7866 770.383,-20.8897 778,-29 815.822,-69.2731 798.345,-222.015 814,-275 829.288,-326.743 860.085,-383.847 873.042,-406.711"/>
<polygon fill="midnightblue" stroke="midnightblue" points="750.107,-9.19582 739.57,-10.3027 748.497,-16.0083 750.107,-9.19582"/>
</g>
<!-- Node27 -->
<g id="node68" class="node"><title>Node27</title>
<a xlink:href="namespaceServer.xhtml#a19a1e493e1fb50a56d9c77332543d565" target="_top" xlink:title="Start the NAMS Server. Responsible for calling all critical boot&#45;time functions such as SocketServer ...">
<polygon fill="white" stroke="black" points="1132,-342 1132,-362 1222,-362 1222,-342 1132,-342"/>
<text text-anchor="middle" x="1177" y="-349" font-family="FreeSans.ttf" font-size="10.00">Server::Startup</text>
</a>
</g>
<!-- Node26&#45;&gt;Node27 -->
<g id="edge82" class="edge"><title>Node26&#45;&gt;Node27</title>
<path fill="none" stroke="midnightblue" d="M919.595,-269.078C979.733,-288.451 1091.22,-324.367 1145.57,-341.876"/>
<polygon fill="midnightblue" stroke="midnightblue" points="920.639,-265.737 910.048,-266.002 918.493,-272.4 920.639,-265.737"/>
</g>
<!-- Node27&#45;&gt;Node7 -->
<g id="edge84" class="edge"><title>Node27&#45;&gt;Node7</title>
<path fill="none" stroke="midnightblue" d="M1207.34,-366.573C1223.75,-374.458 1243.6,-383.993 1258.24,-391.028"/>
<polygon fill="midnightblue" stroke="midnightblue" points="1208.66,-363.328 1198.13,-362.153 1205.63,-369.638 1208.66,-363.328"/>
</g>
<!-- Node29 -->
<g id="node73" class="node"><title>Node29</title>
<a xlink:href="namespaceServer.xhtml#a39dbe16fdc8c5f6fbd678c6540fbcd6c" target="_top" xlink:title="Poll all SocketClient objects that are communicating with the associated SocketServer object...">
<polygon fill="white" stroke="black" points="983.5,-415 983.5,-435 1092.5,-435 1092.5,-415 983.5,-415"/>
<text text-anchor="middle" x="1038" y="-422" font-family="FreeSans.ttf" font-size="10.00">Server::PollSockets</text>
</a>
</g>
<!-- Node28&#45;&gt;Node29 -->
<g id="edge88" class="edge"><title>Node28&#45;&gt;Node29</title>
<path fill="none" stroke="midnightblue" d="M949.438,-420.544C960.788,-421.115 972.389,-421.699 983.297,-422.248"/>
<polygon fill="midnightblue" stroke="midnightblue" points="949.274,-417.031 939.111,-420.024 948.923,-424.023 949.274,-417.031"/>
</g>
<!-- Node29&#45;&gt;Node6 -->
<g id="edge90" class="edge"><title>Node29&#45;&gt;Node6</title>
<path fill="none" stroke="midnightblue" d="M1101.63,-436.901C1112.02,-438.846 1122.6,-440.824 1132.41,-442.659"/>
<polygon fill="midnightblue" stroke="midnightblue" points="1102.21,-433.451 1091.74,-435.052 1100.93,-440.331 1102.21,-433.451"/>
</g>
</g>
</svg>
