<?xml version="1.0" encoding="UTF-8" standalone="no"?>
<!DOCTYPE svg PUBLIC "-//W3C//DTD SVG 1.1//EN"
 "http://www.w3.org/Graphics/SVG/1.1/DTD/svg11.dtd">
<!-- Generated by graphviz version 2.26.3 (20100126.1600)
 -->
<!-- Title: Location::gExits Pages: 1 -->
<svg width="942pt" height="66pt"
 viewBox="0.00 0.00 942.00 66.00" xmlns="http://www.w3.org/2000/svg" xmlns:xlink="http://www.w3.org/1999/xlink">
<g id="graph1" class="graph" transform="scale(1 1) rotate(0) translate(4 62)">
<title>Location::gExits</title>
<polygon fill="white" stroke="white" points="-4,5 -4,-62 939,-62 939,5 -4,5"/>
<!-- Node1 -->
<g id="node1" class="node"><title>Node1</title>
<polygon fill="#bfbfbf" stroke="black" points="0,-19 0,-39 92,-39 92,-19 0,-19"/>
<text text-anchor="middle" x="46" y="-26" font-family="FreeSans.ttf" font-size="10.00">Location::gExits</text>
</g>
<!-- Node2 -->
<g id="node3" class="node"><title>Node2</title>
<a xlink:href="namespaceHandler.xhtml#a1541ed8653b973ffb4657e9f43a1f30f" target="_top" xlink:title="Locates an Exit within a Location.">
<polygon fill="white" stroke="black" points="128,-38 128,-58 224,-58 224,-38 128,-38"/>
<text text-anchor="middle" x="176" y="-45" font-family="FreeSans.ttf" font-size="10.00">Handler::FindExit</text>
</a>
</g>
<!-- Node1&#45;&gt;Node2 -->
<g id="edge2" class="edge"><title>Node1&#45;&gt;Node2</title>
<path fill="none" stroke="midnightblue" d="M102.097,-37.1988C110.641,-38.4476 119.395,-39.7269 127.752,-40.9483"/>
<polygon fill="midnightblue" stroke="midnightblue" points="102.6,-33.7352 92.1992,-35.7522 101.588,-40.6617 102.6,-33.7352"/>
</g>
<!-- Node8 -->
<g id="node15" class="node"><title>Node8</title>
<a xlink:href="namespaceServer.xhtml#a21b284fbb08f1d61510945f64d0673cb" target="_top" xlink:title="Links Exit pointers together after all locations are loaded.">
<polygon fill="white" stroke="black" points="268.5,-0 268.5,-20 363.5,-20 363.5,-0 268.5,-0"/>
<text text-anchor="middle" x="316" y="-7" font-family="FreeSans.ttf" font-size="10.00">Server::LinkExits</text>
</a>
</g>
<!-- Node1&#45;&gt;Node8 -->
<g id="edge14" class="edge"><title>Node1&#45;&gt;Node8</title>
<path fill="none" stroke="midnightblue" d="M102.247,-25.0419C151.359,-21.5859 221.852,-16.6252 268.265,-13.3591"/>
<polygon fill="midnightblue" stroke="midnightblue" points="101.837,-21.5619 92.1079,-25.7554 102.329,-28.5447 101.837,-21.5619"/>
</g>
<!-- Node3 -->
<g id="node5" class="node"><title>Node3</title>
<a xlink:href="classCharacter.xhtml#ad51f5ff0cfefa9bd7e674bc413f6b73c" target="_top" xlink:title="Interprets cmd with args at level security.">
<polygon fill="white" stroke="black" points="260.5,-38 260.5,-58 371.5,-58 371.5,-38 260.5,-38"/>
<text text-anchor="middle" x="316" y="-45" font-family="FreeSans.ttf" font-size="10.00">Character::Interpret</text>
</a>
</g>
<!-- Node2&#45;&gt;Node3 -->
<g id="edge4" class="edge"><title>Node2&#45;&gt;Node3</title>
<path fill="none" stroke="midnightblue" d="M234.38,-48C242.866,-48 251.587,-48 260.024,-48"/>
<polygon fill="midnightblue" stroke="midnightblue" points="234.18,-44.5001 224.18,-48 234.18,-51.5001 234.18,-44.5001"/>
</g>
<!-- Node4 -->
<g id="node7" class="node"><title>Node4</title>
<a xlink:href="classSocketClient.xhtml#ad4f63c7d906310dc56a1217136047d7f" target="_top" xlink:title="Interpret the command at the front of the queue.">
<polygon fill="white" stroke="black" points="408,-38 408,-58 578,-58 578,-38 408,-38"/>
<text text-anchor="middle" x="493" y="-45" font-family="FreeSans.ttf" font-size="10.00">SocketClient::ProcessCommand</text>
</a>
</g>
<!-- Node3&#45;&gt;Node4 -->
<g id="edge6" class="edge"><title>Node3&#45;&gt;Node4</title>
<path fill="none" stroke="midnightblue" d="M381.737,-48C390.257,-48 399.078,-48 407.856,-48"/>
<polygon fill="midnightblue" stroke="midnightblue" points="381.518,-44.5001 371.518,-48 381.518,-51.5001 381.518,-44.5001"/>
</g>
<!-- Node5 -->
<g id="node9" class="node"><title>Node5</title>
<a xlink:href="namespaceServer.xhtml#a2b4cec469bb99c2a45e49de5ba74d1ae" target="_top" xlink:title="Processes input from all active SocketClient objects.">
<polygon fill="white" stroke="black" points="614,-38 614,-58 730,-58 730,-38 614,-38"/>
<text text-anchor="middle" x="672" y="-45" font-family="FreeSans.ttf" font-size="10.00">Server::ProcessInput</text>
</a>
</g>
<!-- Node4&#45;&gt;Node5 -->
<g id="edge8" class="edge"><title>Node4&#45;&gt;Node5</title>
<path fill="none" stroke="midnightblue" d="M588.249,-48C596.93,-48 605.54,-48 613.748,-48"/>
<polygon fill="midnightblue" stroke="midnightblue" points="588.044,-44.5001 578.044,-48 588.044,-51.5001 588.044,-44.5001"/>
</g>
<!-- Node6 -->
<g id="node11" class="node"><title>Node6</title>
<a xlink:href="namespaceServer.xhtml#a50b81aa91d8fdaee6f52c5c5ec987990" target="_top" xlink:title="The core update loop of NAMS. This loop spawns all other subsystem update routines and then sleeps fo...">
<polygon fill="white" stroke="black" points="766.5,-38 766.5,-58 855.5,-58 855.5,-38 766.5,-38"/>
<text text-anchor="middle" x="811" y="-45" font-family="FreeSans.ttf" font-size="10.00">Server::Update</text>
</a>
</g>
<!-- Node5&#45;&gt;Node6 -->
<g id="edge10" class="edge"><title>Node5&#45;&gt;Node6</title>
<path fill="none" stroke="midnightblue" d="M740.39,-48C749.156,-48 757.945,-48 766.2,-48"/>
<polygon fill="midnightblue" stroke="midnightblue" points="740.143,-44.5001 730.143,-48 740.143,-51.5001 740.143,-44.5001"/>
</g>
<!-- Node7 -->
<g id="node13" class="node"><title>Node7</title>
<a xlink:href="main_8cpp.xhtml#ad53223b8779f25caeddb70a3b9172967" target="_top" xlink:title="The default function required to execute the server.">
<polygon fill="white" stroke="black" points="892.5,-19 892.5,-39 933.5,-39 933.5,-19 892.5,-19"/>
<text text-anchor="middle" x="913" y="-26" font-family="FreeSans.ttf" font-size="10.00">main</text>
</a>
</g>
<!-- Node6&#45;&gt;Node7 -->
<g id="edge12" class="edge"><title>Node6&#45;&gt;Node7</title>
<path fill="none" stroke="midnightblue" d="M865.642,-37.8216C875.139,-36.0525 884.468,-34.3148 892.3,-32.8558"/>
<polygon fill="midnightblue" stroke="midnightblue" points="864.929,-34.3942 855.739,-39.6663 866.211,-41.2758 864.929,-34.3942"/>
</g>
<!-- Node9 -->
<g id="node17" class="node"><title>Node9</title>
<a xlink:href="namespaceServer.xhtml#a19a1e493e1fb50a56d9c77332543d565" target="_top" xlink:title="Start the NAMS Server. Responsible for calling all critical boot&#45;time functions such as SocketServer ...">
<polygon fill="white" stroke="black" points="448,-0 448,-20 538,-20 538,-0 448,-0"/>
<text text-anchor="middle" x="493" y="-7" font-family="FreeSans.ttf" font-size="10.00">Server::Startup</text>
</a>
</g>
<!-- Node8&#45;&gt;Node9 -->
<g id="edge16" class="edge"><title>Node8&#45;&gt;Node9</title>
<path fill="none" stroke="midnightblue" d="M373.947,-10C397.937,-10 425.341,-10 447.805,-10"/>
<polygon fill="midnightblue" stroke="midnightblue" points="373.899,-6.5001 363.899,-10 373.899,-13.5001 373.899,-6.5001"/>
</g>
<!-- Node9&#45;&gt;Node7 -->
<g id="edge18" class="edge"><title>Node9&#45;&gt;Node7</title>
<path fill="none" stroke="midnightblue" d="M548.557,-12.5133C642.938,-16.7829 830.393,-25.263 892.488,-28.0721"/>
<polygon fill="midnightblue" stroke="midnightblue" points="548.494,-9.00697 538.346,-12.0514 548.178,-15.9998 548.494,-9.00697"/>
</g>
</g>
</svg>
