<?xml version="1.0" encoding="UTF-8" standalone="no"?>
<!DOCTYPE svg PUBLIC "-//W3C//DTD SVG 1.1//EN"
 "http://www.w3.org/Graphics/SVG/1.1/DTD/svg11.dtd">
<!-- Generated by graphviz version 2.26.3 (20100126.1600)
 -->
<!-- Title: Account::Delete Pages: 1 -->
<svg width="426pt" height="104pt"
 viewBox="0.00 0.00 426.00 104.00" xmlns="http://www.w3.org/2000/svg" xmlns:xlink="http://www.w3.org/1999/xlink">
<g id="graph1" class="graph" transform="scale(1 1) rotate(0) translate(4 100)">
<title>Account::Delete</title>
<polygon fill="white" stroke="white" points="-4,5 -4,-100 423,-100 423,5 -4,5"/>
<!-- Node1 -->
<g id="node1" class="node"><title>Node1</title>
<polygon fill="#bfbfbf" stroke="black" points="0.5,-19 0.5,-39 93.5,-39 93.5,-19 0.5,-19"/>
<text text-anchor="middle" x="47" y="-26" font-family="FreeSans.ttf" font-size="10.00">Account::Delete</text>
</g>
<!-- Node2 -->
<g id="node3" class="node"><title>Node2</title>
<a xlink:href="classCharacter.xhtml#a4f7ff295f5de0fa4f8fece0acb7aaa53" target="_top" xlink:title="Unload a character from memory that was previously loaded via Character::New().">
<polygon fill="white" stroke="black" points="143.5,-38 143.5,-58 244.5,-58 244.5,-38 143.5,-38"/>
<text text-anchor="middle" x="194" y="-45" font-family="FreeSans.ttf" font-size="10.00">Character::Delete</text>
</a>
</g>
<!-- Node1&#45;&gt;Node2 -->
<g id="edge2" class="edge"><title>Node1&#45;&gt;Node2</title>
<path fill="none" stroke="midnightblue" d="M93.5117,-35.0117C106.18,-36.6491 120.091,-38.4471 133.416,-40.1695"/>
<polygon fill="midnightblue" stroke="midnightblue" points="133.096,-43.6571 143.462,-41.4679 133.994,-36.7149 133.096,-43.6571"/>
</g>
<!-- Node6 -->
<g id="node11" class="node"><title>Node6</title>
<a xlink:href="classSocketClient.xhtml#aaa13ed7d0aa65770b617cbf72a5c28d9" target="_top" xlink:title="Associates an Account object to the SocketClient.">
<polygon fill="white" stroke="black" points="130.5,-0 130.5,-20 257.5,-20 257.5,-0 130.5,-0"/>
<text text-anchor="middle" x="194" y="-7" font-family="FreeSans.ttf" font-size="10.00">SocketClient::sAccount</text>
</a>
</g>
<!-- Node1&#45;&gt;Node6 -->
<g id="edge10" class="edge"><title>Node1&#45;&gt;Node6</title>
<path fill="none" stroke="midnightblue" d="M93.5117,-22.9883C102.007,-21.8903 111.06,-20.7201 120.121,-19.549"/>
<polygon fill="midnightblue" stroke="midnightblue" points="120.856,-22.9831 130.325,-18.2301 119.959,-16.0409 120.856,-22.9831"/>
</g>
<!-- Node3 -->
<g id="node5" class="node"><title>Node3</title>
<a xlink:href="classThing.xhtml#a3f000485c50c93ba3a41a6627b45f7dc" target="_top" xlink:title="Returns the Brain associated with this Thing.">
<polygon fill="white" stroke="black" points="316.5,-76 316.5,-96 395.5,-96 395.5,-76 316.5,-76"/>
<text text-anchor="middle" x="356" y="-83" font-family="FreeSans.ttf" font-size="10.00">Thing::gBrain</text>
</a>
</g>
<!-- Node2&#45;&gt;Node3 -->
<g id="edge4" class="edge"><title>Node2&#45;&gt;Node3</title>
<path fill="none" stroke="midnightblue" d="M236.988,-58.0835C258.366,-63.0983 284.314,-69.1847 306.518,-74.393"/>
<polygon fill="midnightblue" stroke="midnightblue" points="305.891,-77.841 316.426,-76.7173 307.49,-71.026 305.891,-77.841"/>
</g>
<!-- Node4 -->
<g id="node7" class="node"><title>Node4</title>
<a xlink:href="classThing_1_1Brain.xhtml#aedfc5e3f688c409a33070650ec88acd5" target="_top" xlink:title="Returns the Account associated with this thing&#39;s brain, if any.">
<polygon fill="white" stroke="black" points="294,-38 294,-58 418,-58 418,-38 294,-38"/>
<text text-anchor="middle" x="356" y="-45" font-family="FreeSans.ttf" font-size="10.00">Thing::Brain::gAccount</text>
</a>
</g>
<!-- Node2&#45;&gt;Node4 -->
<g id="edge6" class="edge"><title>Node2&#45;&gt;Node4</title>
<path fill="none" stroke="midnightblue" d="M244.813,-48C257.236,-48 270.764,-48 283.97,-48"/>
<polygon fill="midnightblue" stroke="midnightblue" points="283.982,-51.5001 293.982,-48 283.982,-44.5001 283.982,-51.5001"/>
</g>
<!-- Node5 -->
<g id="node9" class="node"><title>Node5</title>
<a xlink:href="classAccount.xhtml#a42914cf1147f5c5a480dbfcb9a0ff3fe" target="_top" xlink:title="Sets the active Character associated with the account.">
<polygon fill="white" stroke="black" points="299,-0 299,-20 413,-20 413,-0 299,-0"/>
<text text-anchor="middle" x="356" y="-7" font-family="FreeSans.ttf" font-size="10.00">Account::sCharacter</text>
</a>
</g>
<!-- Node2&#45;&gt;Node5 -->
<g id="edge8" class="edge"><title>Node2&#45;&gt;Node5</title>
<path fill="none" stroke="midnightblue" d="M236.988,-37.9165C257.299,-33.1521 281.734,-27.4204 303.165,-22.3934"/>
<polygon fill="midnightblue" stroke="midnightblue" points="304.156,-25.7559 313.093,-20.0647 302.558,-18.9409 304.156,-25.7559"/>
</g>
</g>
</svg>
