<?xml version="1.0" encoding="UTF-8" standalone="no"?>
<!DOCTYPE svg PUBLIC "-//W3C//DTD SVG 1.1//EN"
 "http://www.w3.org/Graphics/SVG/1.1/DTD/svg11.dtd">
<!-- Generated by graphviz version 2.26.3 (20100126.1600)
 -->
<!-- Title: G Pages: 1 -->
<!--zoomable 127 -->
<svg id="main" version="1.1" xmlns="http://www.w3.org/2000/svg" xmlns:xlink="http://www.w3.org/1999/xlink" xml:space="preserve" onload="init(evt)">
        <defs>
                <circle id="rim" cx="0" cy="0" r="7"/>
                <circle id="rim2" cx="0" cy="0" r="3.5"/>
                <g id="zoomPlus">
                        <use xlink:href="#rim" fill="#404040">
                                <set attributeName="fill" to="#808080" begin="zoomplus.mouseover" end="zoomplus.mouseout"/>
                        </use>
                        <path d="M-4,0h8M0,-4v8" fill="none" stroke="white" stroke-width="1.5" pointer-events="none"/>
                </g>
                <g id="zoomMin">
                        <use xlink:href="#rim" fill="#404040">
                                <set attributeName="fill" to="#808080" begin="zoomminus.mouseover" end="zoomminus.mouseout"/>
                        </use>
                        <path d="M-4,0h8" fill="none" stroke="white" stroke-width="1.5" pointer-events="none"/>
                </g>
                <g id="dirArrow">
                        <path fill="none" stroke="white" stroke-width="1.5" d="M0,-3.0v7 M-2.5,-0.5L0,-3.0L2.5,-0.5"/>
                </g>
               <g id="resetDef">
                       <use xlink:href="#rim2" fill="#404040">
                               <set attributeName="fill" to="#808080" begin="reset.mouseover" end="reset.mouseout"/>
                       </use>
               </g>
        </defs>

<script type="text/javascript">
var viewWidth = 888;
var viewHeight = 127;
var sectionId = 'dynsection-21';
</script>
<script xlink:href="svgpan.js"/>
<svg id="graph" class="graph">
<g id="viewport">
<title>G</title>
<polygon fill="white" stroke="white" points="-4,5 -4,-123 885,-123 885,5 -4,5"/>
<!-- Node1 -->
<g id="node1" class="node"><title>Node1</title>
<polygon fill="#bfbfbf" stroke="black" points="0,-79.5 0,-100.5 92,-100.5 92,-79.5 0,-79.5"/>
<text text-anchor="middle" x="46" y="-87.5" font-family="FreeSans.ttf" font-size="10.00">Server::Running</text>
</g>
<!-- Node2 -->
<g id="node3" class="node"><title>Node2</title>
<a xlink:href="main_8cpp.xhtml#ad53223b8779f25caeddb70a3b9172967" target="_top" xlink:title="The default function required to execute the server.">
<polygon fill="white" stroke="black" points="838.5,-69.5 838.5,-90.5 879.5,-90.5 879.5,-69.5 838.5,-69.5"/>
<text text-anchor="middle" x="859" y="-77.5" font-family="FreeSans.ttf" font-size="10.00">main</text>
</a>
</g>
<!-- Node1&#45;&gt;Node2 -->
<g id="edge2" class="edge"><title>Node1&#45;&gt;Node2</title>
<path fill="none" stroke="midnightblue" d="M102.022,-99.7503C155.329,-108.173 237.877,-119 310,-119 310,-119 310,-119 621,-119 701.886,-119 723.081,-117.733 802,-100 814.381,-97.2181 827.792,-92.5979 838.494,-88.4986"/>
<polygon fill="midnightblue" stroke="midnightblue" points="102.519,-96.2854 92.0907,-98.1553 101.409,-103.197 102.519,-96.2854"/>
</g>
<!-- Node3 -->
<g id="node5" class="node"><title>Node3</title>
<a xlink:href="classSocket.xhtml#ad4d6b075f38a278ab1cd6506cc1bd953" target="_top" xlink:title="Set the owning server object that the socket is actually connected to.">
<polygon fill="white" stroke="black" points="128,-50.5 128,-71.5 220,-71.5 220,-50.5 128,-50.5"/>
<text text-anchor="middle" x="174" y="-58.5" font-family="FreeSans.ttf" font-size="10.00">Socket::sServer</text>
</a>
</g>
<!-- Node1&#45;&gt;Node3 -->
<g id="edge4" class="edge"><title>Node1&#45;&gt;Node3</title>
<path fill="none" stroke="midnightblue" d="M102.162,-77.2757C110.746,-75.3309 119.521,-73.3428 127.857,-71.4543"/>
<polygon fill="midnightblue" stroke="midnightblue" points="101.19,-73.9071 92.2109,-79.5303 102.737,-80.7341 101.19,-73.9071"/>
</g>
<!-- Node4 -->
<g id="node7" class="node"><title>Node4</title>
<a xlink:href="classSocketClient.xhtml#a48c79d01b91f2c1553c3b33b26714215" target="_top" xlink:title="Build a SocketClient for a new client connection and set all attributes.">
<polygon fill="white" stroke="black" points="258.5,-50.5 258.5,-71.5 361.5,-71.5 361.5,-50.5 258.5,-50.5"/>
<text text-anchor="middle" x="310" y="-58.5" font-family="FreeSans.ttf" font-size="10.00">SocketClient::New</text>
</a>
</g>
<!-- Node3&#45;&gt;Node4 -->
<g id="edge6" class="edge"><title>Node3&#45;&gt;Node4</title>
<path fill="none" stroke="midnightblue" d="M230.062,-61C239.44,-61 249.131,-61 258.39,-61"/>
<polygon fill="midnightblue" stroke="midnightblue" points="230.043,-57.5001 220.043,-61 230.043,-64.5001 230.043,-57.5001"/>
</g>
<!-- Node10 -->
<g id="node21" class="node"><title>Node10</title>
<a xlink:href="classSocketServer.xhtml#ae3c98203b60af2d7d75f6b751624ab56" target="_top" xlink:title="Build a socket for a server and set all attributes.">
<polygon fill="white" stroke="black" points="256.5,-0.5 256.5,-21.5 363.5,-21.5 363.5,-0.5 256.5,-0.5"/>
<text text-anchor="middle" x="310" y="-8.5" font-family="FreeSans.ttf" font-size="10.00">SocketServer::New</text>
</a>
</g>
<!-- Node3&#45;&gt;Node10 -->
<g id="edge22" class="edge"><title>Node3&#45;&gt;Node10</title>
<path fill="none" stroke="midnightblue" d="M212.478,-46.8536C234.316,-38.825 261.195,-28.9432 281.199,-21.5884"/>
<polygon fill="midnightblue" stroke="midnightblue" points="211.02,-43.6605 202.842,-50.3963 213.436,-50.2306 211.02,-43.6605"/>
</g>
<!-- Node5 -->
<g id="node9" class="node"><title>Node5</title>
<a xlink:href="classServer.xhtml#a16ea0639731dee10e1a253375b508a02" target="_top" xlink:title="Recovers the server state and re&#45;connects client sockets after a reboot.">
<polygon fill="white" stroke="black" points="400,-29.5 400,-50.5 530,-50.5 530,-29.5 400,-29.5"/>
<text text-anchor="middle" x="465" y="-37.5" font-family="FreeSans.ttf" font-size="10.00">Server::RebootRecovery</text>
</a>
</g>
<!-- Node4&#45;&gt;Node5 -->
<g id="edge8" class="edge"><title>Node4&#45;&gt;Node5</title>
<path fill="none" stroke="midnightblue" d="M371.547,-52.6614C380.842,-51.4021 390.457,-50.0994 399.826,-48.8301"/>
<polygon fill="midnightblue" stroke="midnightblue" points="371.052,-49.1963 361.613,-54.0073 371.992,-56.133 371.052,-49.1963"/>
</g>
<!-- Node7 -->
<g id="node14" class="node"><title>Node7</title>
<a xlink:href="classSocketServer.xhtml#afdbc60c3bc840875d2214b59c6213f63" target="_top" xlink:title="Accept a new connection on the listening port.">
<polygon fill="white" stroke="black" points="405,-69.5 405,-90.5 525,-90.5 525,-69.5 405,-69.5"/>
<text text-anchor="middle" x="465" y="-77.5" font-family="FreeSans.ttf" font-size="10.00">SocketServer::Accept</text>
</a>
</g>
<!-- Node4&#45;&gt;Node7 -->
<g id="edge14" class="edge"><title>Node4&#45;&gt;Node7</title>
<path fill="none" stroke="midnightblue" d="M371.848,-68.5813C382.69,-69.9103 393.958,-71.2916 404.756,-72.6152"/>
<polygon fill="midnightblue" stroke="midnightblue" points="371.964,-65.0695 361.613,-67.3267 371.113,-72.0175 371.964,-65.0695"/>
</g>
<!-- Node6 -->
<g id="node11" class="node"><title>Node6</title>
<a xlink:href="classServer.xhtml#a19a1e493e1fb50a56d9c77332543d565" target="_top" xlink:title="Start the NAMS Server. Responsible for calling all critical boot&#45;time functions such as SocketServer ...">
<polygon fill="white" stroke="black" points="576,-29.5 576,-50.5 666,-50.5 666,-29.5 576,-29.5"/>
<text text-anchor="middle" x="621" y="-37.5" font-family="FreeSans.ttf" font-size="10.00">Server::Startup</text>
</a>
</g>
<!-- Node5&#45;&gt;Node6 -->
<g id="edge10" class="edge"><title>Node5&#45;&gt;Node6</title>
<path fill="none" stroke="midnightblue" d="M540.407,-40C552.549,-40 564.774,-40 575.905,-40"/>
<polygon fill="midnightblue" stroke="midnightblue" points="540.254,-36.5001 530.254,-40 540.254,-43.5001 540.254,-36.5001"/>
</g>
<!-- Node6&#45;&gt;Node2 -->
<g id="edge12" class="edge"><title>Node6&#45;&gt;Node2</title>
<path fill="none" stroke="midnightblue" d="M676.431,-42.8509C712.537,-45.508 760.475,-50.5505 802,-60 814.373,-62.8157 827.784,-67.4378 838.487,-71.5296"/>
<polygon fill="midnightblue" stroke="midnightblue" points="676.321,-39.3349 666.102,-42.1319 675.834,-46.318 676.321,-39.3349"/>
</g>
<!-- Node8 -->
<g id="node16" class="node"><title>Node8</title>
<a xlink:href="classServer.xhtml#a39dbe16fdc8c5f6fbd678c6540fbcd6c" target="_top" xlink:title="Poll all SocketClient objects that are communicating with the associated SocketServer object...">
<polygon fill="white" stroke="black" points="566.5,-69.5 566.5,-90.5 675.5,-90.5 675.5,-69.5 566.5,-69.5"/>
<text text-anchor="middle" x="621" y="-77.5" font-family="FreeSans.ttf" font-size="10.00">Server::PollSockets</text>
</a>
</g>
<!-- Node7&#45;&gt;Node8 -->
<g id="edge16" class="edge"><title>Node7&#45;&gt;Node8</title>
<path fill="none" stroke="midnightblue" d="M535.587,-80C545.947,-80 556.482,-80 566.454,-80"/>
<polygon fill="midnightblue" stroke="midnightblue" points="535.314,-76.5001 525.314,-80 535.314,-83.5001 535.314,-76.5001"/>
</g>
<!-- Node9 -->
<g id="node18" class="node"><title>Node9</title>
<a xlink:href="classServer.xhtml#a50b81aa91d8fdaee6f52c5c5ec987990" target="_top" xlink:title="The core update loop of NAMS. This loop spawns all other subsystem update routines and then sleeps fo...">
<polygon fill="white" stroke="black" points="712.5,-69.5 712.5,-90.5 801.5,-90.5 801.5,-69.5 712.5,-69.5"/>
<text text-anchor="middle" x="757" y="-77.5" font-family="FreeSans.ttf" font-size="10.00">Server::Update</text>
</a>
</g>
<!-- Node8&#45;&gt;Node9 -->
<g id="edge18" class="edge"><title>Node8&#45;&gt;Node9</title>
<path fill="none" stroke="midnightblue" d="M685.698,-80C694.761,-80 703.903,-80 712.477,-80"/>
<polygon fill="midnightblue" stroke="midnightblue" points="685.533,-76.5001 675.533,-80 685.533,-83.5001 685.533,-76.5001"/>
</g>
<!-- Node9&#45;&gt;Node2 -->
<g id="edge20" class="edge"><title>Node9&#45;&gt;Node2</title>
<path fill="none" stroke="midnightblue" d="M811.942,-80C821.336,-80 830.55,-80 838.3,-80"/>
<polygon fill="midnightblue" stroke="midnightblue" points="811.739,-76.5001 801.739,-80 811.739,-83.5001 811.739,-76.5001"/>
</g>
<!-- Node10&#45;&gt;Node6 -->
<g id="edge24" class="edge"><title>Node10&#45;&gt;Node6</title>
<path fill="none" stroke="midnightblue" d="M373.846,-10.6618C417.892,-11.1491 477.705,-13.2369 530,-20 546.523,-22.1369 564.482,-25.7919 580.045,-29.3974"/>
<polygon fill="midnightblue" stroke="midnightblue" points="373.598,-7.15963 363.568,-10.5739 373.538,-14.1594 373.598,-7.15963"/>
</g>
</g>
</svg>
        <g id="navigator" transform="translate(0 0)" fill="#404254">
                <rect fill="#f2f5e9" fill-opacity="0.5" stroke="#606060" stroke-width=".5" x="0" y="0" width="60" height="60"/>
                <use id="zoomplus" xlink:href="#zoomPlus" x="17" y="9" onmousedown="handleZoom(evt,'in')"/>
                <use id="zoomminus" xlink:href="#zoomMin" x="42" y="9" onmousedown="handleZoom(evt,'out')"/>
                <use id="reset" xlink:href="#resetDef" x="30" y="36" onmousedown="handleReset()"/>
                <g id="arrowUp" xlink:href="#dirArrow" transform="translate(30 24)" onmousedown="handlePan(0,-1)">
                  <use xlink:href="#rim" fill="#404040">
                        <set attributeName="fill" to="#808080" begin="arrowUp.mouseover" end="arrowUp.mouseout"/>
                  </use>
                  <path fill="none" stroke="white" stroke-width="1.5" d="M0,-3.0v7 M-2.5,-0.5L0,-3.0L2.5,-0.5"/>
                </g>
                <g id="arrowRight" xlink:href="#dirArrow" transform="rotate(90) translate(36 -43)" onmousedown="handlePan(1,0)">
                  <use xlink:href="#rim" fill="#404040">
                        <set attributeName="fill" to="#808080" begin="arrowRight.mouseover" end="arrowRight.mouseout"/>
                  </use>
                  <path fill="none" stroke="white" stroke-width="1.5" d="M0,-3.0v7 M-2.5,-0.5L0,-3.0L2.5,-0.5"/>
                </g>
                <g id="arrowDown" xlink:href="#dirArrow" transform="rotate(180) translate(-30 -48)" onmousedown="handlePan(0,1)">
                  <use xlink:href="#rim" fill="#404040">
                        <set attributeName="fill" to="#808080" begin="arrowDown.mouseover" end="arrowDown.mouseout"/>
                  </use>
                  <path fill="none" stroke="white" stroke-width="1.5" d="M0,-3.0v7 M-2.5,-0.5L0,-3.0L2.5,-0.5"/>
                </g>
                <g id="arrowLeft" xlink:href="#dirArrow" transform="rotate(270) translate(-36 17)" onmousedown="handlePan(-1,0)">
                  <use xlink:href="#rim" fill="#404040">
                        <set attributeName="fill" to="#808080" begin="arrowLeft.mouseover" end="arrowLeft.mouseout"/>
                  </use>
                  <path fill="none" stroke="white" stroke-width="1.5" d="M0,-3.0v7 M-2.5,-0.5L0,-3.0L2.5,-0.5"/>
                </g>
        </g>
</svg>
