<?xml version="1.0" encoding="UTF-8" standalone="no"?>
<!DOCTYPE svg PUBLIC "-//W3C//DTD SVG 1.1//EN"
 "http://www.w3.org/Graphics/SVG/1.1/DTD/svg11.dtd">
<!-- Generated by graphviz version 2.26.3 (20100126.1600)
 -->
<!-- Title: Account Pages: 1 -->
<!--zoomable 649 -->
<svg id="main" version="1.1" xmlns="http://www.w3.org/2000/svg" xmlns:xlink="http://www.w3.org/1999/xlink" xml:space="preserve" onload="init(evt)">
        <defs>
                <circle id="rim" cx="0" cy="0" r="7"/>
                <circle id="rim2" cx="0" cy="0" r="3.5"/>
                <g id="zoomPlus">
                        <use xlink:href="#rim" fill="#404040">
                                <set attributeName="fill" to="#808080" begin="zoomplus.mouseover" end="zoomplus.mouseout"/>
                        </use>
                        <path d="M-4,0h8M0,-4v8" fill="none" stroke="white" stroke-width="1.5" pointer-events="none"/>
                </g>
                <g id="zoomMin">
                        <use xlink:href="#rim" fill="#404040">
                                <set attributeName="fill" to="#808080" begin="zoomminus.mouseover" end="zoomminus.mouseout"/>
                        </use>
                        <path d="M-4,0h8" fill="none" stroke="white" stroke-width="1.5" pointer-events="none"/>
                </g>
                <g id="dirArrow">
                        <path fill="none" stroke="white" stroke-width="1.5" d="M0,-3.0v7 M-2.5,-0.5L0,-3.0L2.5,-0.5"/>
                </g>
               <g id="resetDef">
                       <use xlink:href="#rim2" fill="#404040">
                               <set attributeName="fill" to="#808080" begin="reset.mouseover" end="reset.mouseout"/>
                       </use>
               </g>
        </defs>

<script type="text/javascript">
var viewWidth = 1390;
var viewHeight = 649;
var sectionId = 'dynsection-0';
</script>
<script xlink:href="svgpan.js"/>
<svg id="graph" class="graph">
<g id="viewport">
<title>Account</title>
<polygon fill="white" stroke="white" points="-4,5 -4,-645.152 1387,-645.152 1387,5 -4,5"/>
<!-- Node1 -->
<g id="node1" class="node"><title>Node1</title>
<polygon fill="#bfbfbf" stroke="black" points="754,-344.152 754,-364.152 810,-364.152 810,-344.152 754,-344.152"/>
<text text-anchor="middle" x="782" y="-351.152" font-family="FreeSans.ttf" font-size="10.00">Account</text>
</g>
<!-- Node2 -->
<g id="node2" class="node"><title>Node2</title>
<a xlink:href="classSocketClient.xhtml" target="_top" xlink:title="SocketClient extends the Socket class to implement remote&#45;host socket functions.">
<polygon fill="white" stroke="black" points="940.5,-348.152 940.5,-368.152 1017.5,-368.152 1017.5,-348.152 940.5,-348.152"/>
<text text-anchor="middle" x="979" y="-355.152" font-family="FreeSans.ttf" font-size="10.00">SocketClient</text>
</a>
</g>
<!-- Node1&#45;&gt;Node2 -->
<g id="edge14" class="edge"><title>Node1&#45;&gt;Node2</title>
<path fill="none" stroke="#9a32cd" stroke-dasharray="5,2" d="M820.415,-354.932C855.019,-355.634 905.634,-356.662 940.32,-357.366"/>
<polygon fill="#9a32cd" stroke="#9a32cd" points="820.294,-351.428 810.225,-354.725 820.152,-358.427 820.294,-351.428"/>
<text text-anchor="middle" x="892" y="-359.152" font-family="FreeSans.ttf" font-size="10.00"> m_account</text>
</g>
<!-- Node19 -->
<g id="node49" class="node"><title>Node19</title>
<a xlink:href="classThing_1_1Brain.xhtml" target="_top" xlink:title="Abstraction layer between player characters (Account&#45;&gt;SocketClient) and non&#45;player characters (AI)...">
<polygon fill="white" stroke="black" points="942.5,-451.152 942.5,-471.152 1015.5,-471.152 1015.5,-451.152 942.5,-451.152"/>
<text text-anchor="middle" x="979" y="-458.152" font-family="FreeSans.ttf" font-size="10.00">Thing::Brain</text>
</a>
</g>
<!-- Node1&#45;&gt;Node19 -->
<g id="edge64" class="edge"><title>Node1&#45;&gt;Node19</title>
<path fill="none" stroke="#9a32cd" stroke-dasharray="5,2" d="M819.94,-361.654C828.334,-364.405 836.849,-368.129 844,-373.152 854.911,-380.815 851.923,-388.421 862,-397.152 889.998,-421.408 928.702,-440.344 953.792,-451.135"/>
<polygon fill="#9a32cd" stroke="#9a32cd" points="820.809,-358.262 810.23,-358.853 818.868,-364.988 820.809,-358.262"/>
<text text-anchor="middle" x="892" y="-437.152" font-family="FreeSans.ttf" font-size="10.00"> m_account</text>
</g>
<!-- Node2&#45;&gt;Node1 -->
<g id="edge2" class="edge"><title>Node2&#45;&gt;Node1</title>
<path fill="none" stroke="#9a32cd" stroke-dasharray="5,2" d="M939.12,-345.476C933.425,-344.101 927.6,-342.923 922,-342.152 883.454,-336.844 838.594,-342.808 810.25,-348.059"/>
<polygon fill="#9a32cd" stroke="#9a32cd" points="938.591,-348.956 949.152,-348.118 940.373,-342.187 938.591,-348.956"/>
<text text-anchor="middle" x="892" y="-345.152" font-family="FreeSans.ttf" font-size="10.00"> m_client</text>
</g>
<!-- Node3 -->
<g id="node4" class="node"><title>Node3</title>
<a xlink:href="classSocket.xhtml" target="_top" xlink:title="Functions and interfaces that are common to both SocketClient and SocketServer.">
<polygon fill="white" stroke="black" points="757,-124.152 757,-144.152 807,-144.152 807,-124.152 757,-124.152"/>
<text text-anchor="middle" x="782" y="-131.152" font-family="FreeSans.ttf" font-size="10.00">Socket</text>
</a>
</g>
<!-- Node3&#45;&gt;Node2 -->
<g id="edge4" class="edge"><title>Node3&#45;&gt;Node2</title>
<path fill="none" stroke="midnightblue" d="M797.293,-152.408C812.906,-170.694 838.166,-199.323 862,-222.152 887.068,-246.162 898.834,-246.301 922,-272.152 944.235,-296.963 964.25,-331.119 973.533,-347.943"/>
<polygon fill="midnightblue" stroke="midnightblue" points="799.587,-149.701 790.452,-144.334 794.246,-154.226 799.587,-149.701"/>
</g>
<!-- Node4 -->
<g id="node6" class="node"><title>Node4</title>
<polygon fill="white" stroke="#bfbfbf" points="509.5,-118.152 509.5,-138.152 572.5,-138.152 572.5,-118.152 509.5,-118.152"/>
<text text-anchor="middle" x="541" y="-125.152" font-family="FreeSans.ttf" font-size="10.00">signed int</text>
</g>
<!-- Node4&#45;&gt;Node3 -->
<g id="edge6" class="edge"><title>Node4&#45;&gt;Node3</title>
<path fill="none" stroke="#9a32cd" stroke-dasharray="5,2" d="M580.959,-115.273C595.593,-111.174 612.391,-107.18 628,-105.152 660.615,-100.913 669.607,-99.4615 702,-105.152 712.767,-107.043 737.823,-116.44 757.048,-124.032"/>
<polygon fill="#9a32cd" stroke="#9a32cd" points="579.842,-111.953 571.216,-118.104 581.795,-118.675 579.842,-111.953"/>
<text text-anchor="middle" x="665" y="-108.152" font-family="FreeSans.ttf" font-size="10.00"> m_descriptor</text>
</g>
<!-- Node5 -->
<g id="node8" class="node"><title>Node5</title>
<a xlink:title="STL class.">
<polygon fill="white" stroke="#bfbfbf" points="216.5,-169.152 216.5,-189.152 281.5,-189.152 281.5,-169.152 216.5,-169.152"/>
<text text-anchor="middle" x="249" y="-176.152" font-family="FreeSans.ttf" font-size="10.00">std::string</text>
</a>
</g>
<!-- Node5&#45;&gt;Node1 -->
<g id="edge34" class="edge"><title>Node5&#45;&gt;Node1</title>
<path fill="none" stroke="#9a32cd" stroke-dasharray="5,2" d="M257.256,-198.624C268.819,-223.383 292.275,-265.507 326,-287.152 465.564,-376.722 678.019,-365.178 753.873,-357.532"/>
<polygon fill="#9a32cd" stroke="#9a32cd" points="260.441,-197.173 253.157,-189.478 254.053,-200.035 260.441,-197.173"/>
<text text-anchor="middle" x="541" y="-376.152" font-family="FreeSans.ttf" font-size="10.00"> m_password</text>
<text text-anchor="middle" x="541" y="-364.152" font-family="FreeSans.ttf" font-size="10.00">m_id</text>
</g>
<!-- Node5&#45;&gt;Node2 -->
<g id="edge26" class="edge"><title>Node5&#45;&gt;Node2</title>
<path fill="none" stroke="#9a32cd" stroke-dasharray="5,2" d="M291.595,-190.823C336.291,-202.795 408.714,-221.419 472,-234.152 522.717,-244.355 657.662,-243.497 702,-270.152 713.427,-277.021 708.73,-287.026 720,-294.152 797.432,-343.105 834.266,-308.79 922,-335.152 933.753,-338.683 946.449,-343.683 956.869,-348.119"/>
<polygon fill="#9a32cd" stroke="#9a32cd" points="292.239,-187.372 281.673,-188.152 290.419,-194.131 292.239,-187.372"/>
<text text-anchor="middle" x="665" y="-297.152" font-family="FreeSans.ttf" font-size="10.00"> m_output</text>
<text text-anchor="middle" x="665" y="-285.152" font-family="FreeSans.ttf" font-size="10.00">m_input</text>
<text text-anchor="middle" x="665" y="-273.152" font-family="FreeSans.ttf" font-size="10.00">m_login</text>
</g>
<!-- Node5&#45;&gt;Node3 -->
<g id="edge8" class="edge"><title>Node5&#45;&gt;Node3</title>
<path fill="none" stroke="#9a32cd" stroke-dasharray="5,2" d="M277.945,-164.734C319.612,-144.867 399.473,-110.063 472,-97.1515 572.641,-79.2345 604.325,-67.9976 702,-98.1515 711.187,-100.988 711.466,-105.723 720,-110.152 731.679,-116.212 745.251,-121.634 756.715,-125.785"/>
<polygon fill="#9a32cd" stroke="#9a32cd" points="276.41,-161.589 268.925,-169.088 279.452,-167.893 276.41,-161.589"/>
<text text-anchor="middle" x="541" y="-100.152" font-family="FreeSans.ttf" font-size="10.00"> m_hostname</text>
</g>
<!-- Node14 -->
<g id="node31" class="node"><title>Node14</title>
<polygon fill="white" stroke="#bfbfbf" points="482.5,-401.152 482.5,-421.152 599.5,-421.152 599.5,-401.152 482.5,-401.152"/>
<text text-anchor="middle" x="541" y="-408.152" font-family="FreeSans.ttf" font-size="10.00">std::vector&lt; string &gt;</text>
</g>
<!-- Node5&#45;&gt;Node14 -->
<g id="edge38" class="edge"><title>Node5&#45;&gt;Node14</title>
<path fill="none" stroke="#9a32cd" stroke-dasharray="5,2" d="M250.754,-199.787C255.342,-239.971 271.434,-328.669 326,-373.152 349.43,-392.252 427.124,-402.303 482.369,-407.166"/>
<polygon fill="#9a32cd" stroke="#9a32cd" points="254.213,-199.202 249.724,-189.605 247.248,-199.907 254.213,-199.202"/>
<text text-anchor="middle" x="390" y="-407.152" font-family="FreeSans.ttf" font-size="10.00"> elements</text>
</g>
<!-- Node16 -->
<g id="node38" class="node"><title>Node16</title>
<a xlink:href="classCharacter.xhtml" target="_top" xlink:title="An actor within the game world.">
<polygon fill="white" stroke="black" points="1288,-194.152 1288,-214.152 1352,-214.152 1352,-194.152 1288,-194.152"/>
<text text-anchor="middle" x="1320" y="-201.152" font-family="FreeSans.ttf" font-size="10.00">Character</text>
</a>
</g>
<!-- Node5&#45;&gt;Node16 -->
<g id="edge66" class="edge"><title>Node5&#45;&gt;Node16</title>
<path fill="none" stroke="#9a32cd" stroke-dasharray="5,2" d="M255.961,-159.395C266.658,-131.967 289.781,-82.7336 326,-56.1515 405.605,2.27269 442.256,-0.151512 541,-0.151512 541,-0.151512 541,-0.151512 1139,-0.151512 1243.87,-0.151512 1302.77,-152.872 1316.74,-194.035"/>
<polygon fill="#9a32cd" stroke="#9a32cd" points="252.571,-158.468 252.356,-169.061 259.13,-160.914 252.571,-158.468"/>
<text text-anchor="middle" x="892" y="-3.15151" font-family="FreeSans.ttf" font-size="10.00"> m_file</text>
</g>
<!-- Node17 -->
<g id="node40" class="node"><title>Node17</title>
<a xlink:href="classThing.xhtml" target="_top" xlink:title="A generic &quot;thing&quot;: creature, character, room, object, etc.">
<polygon fill="white" stroke="black" points="1118,-426.152 1118,-446.152 1160,-446.152 1160,-426.152 1118,-426.152"/>
<text text-anchor="middle" x="1139" y="-433.152" font-family="FreeSans.ttf" font-size="10.00">Thing</text>
</a>
</g>
<!-- Node5&#45;&gt;Node17 -->
<g id="edge56" class="edge"><title>Node5&#45;&gt;Node17</title>
<path fill="none" stroke="#9a32cd" stroke-dasharray="5,2" d="M261.14,-160.43C274.57,-141.399 298.049,-112.708 326,-98.1515 428.447,-44.799 734.79,-17.5351 844,-55.1515 936.802,-87.1163 953.61,-117.071 1018,-191.152 1029.95,-204.903 1092.19,-316.689 1100,-333.152 1115.65,-366.15 1129.66,-407.244 1135.76,-425.985"/>
<polygon fill="#9a32cd" stroke="#9a32cd" points="258.113,-158.656 255.379,-168.892 263.9,-162.595 258.113,-158.656"/>
<text text-anchor="middle" x="782" y="-106.152" font-family="FreeSans.ttf" font-size="10.00"> m_zone</text>
<text text-anchor="middle" x="782" y="-94.1515" font-family="FreeSans.ttf" font-size="10.00">m_location</text>
<text text-anchor="middle" x="782" y="-82.1515" font-family="FreeSans.ttf" font-size="10.00">m_description</text>
<text text-anchor="middle" x="782" y="-70.1515" font-family="FreeSans.ttf" font-size="10.00">m_id</text>
<text text-anchor="middle" x="782" y="-58.1515" font-family="FreeSans.ttf" font-size="10.00">m_name</text>
</g>
<!-- Node6 -->
<g id="node10" class="node"><title>Node6</title>
<a xlink:title="STL class.">
<polygon fill="white" stroke="#bfbfbf" points="0.5,-163.152 0.5,-195.152 103.5,-195.152 103.5,-163.152 0.5,-163.152"/>
<text text-anchor="start" x="8.5" y="-182.152" font-family="FreeSans.ttf" font-size="10.00">std::basic_string&lt;</text>
<text text-anchor="middle" x="52" y="-170.152" font-family="FreeSans.ttf" font-size="10.00"> char &gt;</text>
</a>
</g>
<!-- Node6&#45;&gt;Node5 -->
<g id="edge10" class="edge"><title>Node6&#45;&gt;Node5</title>
<path fill="none" stroke="midnightblue" d="M113.799,-179.152C147.752,-179.152 188.494,-179.152 216.318,-179.152"/>
<polygon fill="midnightblue" stroke="midnightblue" points="113.502,-175.652 103.502,-179.152 113.502,-182.652 113.502,-175.652"/>
</g>
<!-- Node7 -->
<g id="node12" class="node"><title>Node7</title>
<polygon fill="white" stroke="#bfbfbf" points="503.5,-205.152 503.5,-225.152 578.5,-225.152 578.5,-205.152 503.5,-205.152"/>
<text text-anchor="middle" x="541" y="-212.152" font-family="FreeSans.ttf" font-size="10.00">unsigned int</text>
</g>
<!-- Node7&#45;&gt;Node1 -->
<g id="edge44" class="edge"><title>Node7&#45;&gt;Node1</title>
<path fill="none" stroke="#9a32cd" stroke-dasharray="5,2" d="M552.977,-233.437C567.991,-254.928 595.711,-290.185 628,-310.152 633.454,-313.524 711.036,-334.89 753.948,-346.561"/>
<polygon fill="#9a32cd" stroke="#9a32cd" points="555.861,-231.455 547.344,-225.154 550.073,-235.391 555.861,-231.455"/>
<text text-anchor="middle" x="665" y="-334.152" font-family="FreeSans.ttf" font-size="10.00"> m_security</text>
</g>
<!-- Node7&#45;&gt;Node2 -->
<g id="edge28" class="edge"><title>Node7&#45;&gt;Node2</title>
<path fill="none" stroke="#9a32cd" stroke-dasharray="5,2" d="M588.774,-221.122C678.299,-233.003 867.223,-261.555 922,-297.152 943.39,-311.052 962.31,-334.671 972.046,-348.076"/>
<polygon fill="#9a32cd" stroke="#9a32cd" points="588.992,-217.621 578.622,-219.79 588.081,-224.562 588.992,-217.621"/>
<text text-anchor="middle" x="782" y="-281.152" font-family="FreeSans.ttf" font-size="10.00"> m_idle</text>
<text text-anchor="middle" x="782" y="-269.152" font-family="FreeSans.ttf" font-size="10.00">m_state</text>
</g>
<!-- Node7&#45;&gt;Node3 -->
<g id="edge12" class="edge"><title>Node7&#45;&gt;Node3</title>
<path fill="none" stroke="#9a32cd" stroke-dasharray="5,2" d="M555.545,-196.883C571.232,-178.734 598.023,-151.958 628,-140.152 670.82,-123.287 725.618,-126.375 756.97,-130.218"/>
<polygon fill="#9a32cd" stroke="#9a32cd" points="552.493,-195.076 548.771,-204.996 557.867,-199.563 552.493,-195.076"/>
<text text-anchor="middle" x="665" y="-167.152" font-family="FreeSans.ttf" font-size="10.00"> m_bytes_sent</text>
<text text-anchor="middle" x="665" y="-155.152" font-family="FreeSans.ttf" font-size="10.00">m_port</text>
<text text-anchor="middle" x="665" y="-143.152" font-family="FreeSans.ttf" font-size="10.00">m_bytes_recvd</text>
</g>
<!-- Node7&#45;&gt;Node16 -->
<g id="edge70" class="edge"><title>Node7&#45;&gt;Node16</title>
<path fill="none" stroke="#9a32cd" stroke-dasharray="5,2" d="M588.567,-208.04C601.342,-206.431 615.171,-204.959 628,-204.152 881.891,-188.165 1189.22,-198.625 1287.88,-202.719"/>
<polygon fill="#9a32cd" stroke="#9a32cd" points="588.046,-204.578 578.586,-209.351 588.957,-211.519 588.046,-204.578"/>
<text text-anchor="middle" x="979" y="-198.152" font-family="FreeSans.ttf" font-size="10.00"> m_sex</text>
</g>
<!-- Node7&#45;&gt;Node17 -->
<g id="edge60" class="edge"><title>Node7&#45;&gt;Node17</title>
<path fill="none" stroke="#9a32cd" stroke-dasharray="5,2" d="M588.74,-210.067C664.018,-204.235 812.939,-201.702 922,-257.152 1013.86,-303.853 1101.71,-395.171 1129.76,-425.832"/>
<polygon fill="#9a32cd" stroke="#9a32cd" points="588.295,-206.591 578.619,-210.906 588.874,-213.567 588.295,-206.591"/>
<text text-anchor="middle" x="892" y="-260.152" font-family="FreeSans.ttf" font-size="10.00"> m_type</text>
</g>
<!-- Node8 -->
<g id="node15" class="node"><title>Node8</title>
<polygon fill="white" stroke="#bfbfbf" points="472,-588.152 472,-620.152 610,-620.152 610,-588.152 472,-588.152"/>
<text text-anchor="start" x="480" y="-607.152" font-family="FreeSans.ttf" font-size="10.00">std::deque&lt; pair&lt; string,</text>
<text text-anchor="middle" x="541" y="-595.152" font-family="FreeSans.ttf" font-size="10.00"> string &gt; &gt;</text>
</g>
<!-- Node8&#45;&gt;Node2 -->
<g id="edge16" class="edge"><title>Node8&#45;&gt;Node2</title>
<path fill="none" stroke="#9a32cd" stroke-dasharray="5,2" d="M600.037,-584.699C679.013,-556.729 820.818,-499.525 922,-419.152 941.521,-403.645 960.541,-381.439 970.922,-368.536"/>
<polygon fill="#9a32cd" stroke="#9a32cd" points="598.536,-581.517 590.256,-588.127 600.851,-588.123 598.536,-581.517"/>
<text text-anchor="middle" x="782" y="-537.152" font-family="FreeSans.ttf" font-size="10.00"> m_command_queue</text>
</g>
<!-- Node9 -->
<g id="node17" class="node"><title>Node9</title>
<polygon fill="white" stroke="#bfbfbf" points="190.5,-567.152 190.5,-587.152 307.5,-587.152 307.5,-567.152 190.5,-567.152"/>
<text text-anchor="middle" x="249" y="-574.152" font-family="FreeSans.ttf" font-size="10.00">pair&lt; string, string &gt;</text>
</g>
<!-- Node9&#45;&gt;Node8 -->
<g id="edge18" class="edge"><title>Node9&#45;&gt;Node8</title>
<path fill="none" stroke="#9a32cd" stroke-dasharray="5,2" d="M317.716,-583.505C364.167,-587.801 425.283,-593.452 471.829,-597.756"/>
<polygon fill="#9a32cd" stroke="#9a32cd" points="318.019,-580.019 307.739,-582.583 317.375,-586.989 318.019,-580.019"/>
<text text-anchor="middle" x="390" y="-598.152" font-family="FreeSans.ttf" font-size="10.00"> elements</text>
</g>
<!-- Node20 -->
<g id="node55" class="node"><title>Node20</title>
<polygon fill="white" stroke="#bfbfbf" points="488.5,-444.152 488.5,-476.152 593.5,-476.152 593.5,-444.152 488.5,-444.152"/>
<text text-anchor="start" x="496.5" y="-463.152" font-family="FreeSans.ttf" font-size="10.00">std::vector&lt; pair&lt;</text>
<text text-anchor="middle" x="541" y="-451.152" font-family="FreeSans.ttf" font-size="10.00"> string, string &gt; &gt;</text>
</g>
<!-- Node9&#45;&gt;Node20 -->
<g id="edge74" class="edge"><title>Node9&#45;&gt;Node20</title>
<path fill="none" stroke="#9a32cd" stroke-dasharray="5,2" d="M310.032,-565.028C362.022,-553.734 431.741,-535.999 454,-518.152 467.034,-507.701 459.325,-496.035 472,-485.152 476.833,-481.001 482.411,-477.518 488.257,-474.601"/>
<polygon fill="#9a32cd" stroke="#9a32cd" points="309.263,-561.613 300.218,-567.129 310.729,-568.457 309.263,-561.613"/>
<text text-anchor="middle" x="390" y="-564.152" font-family="FreeSans.ttf" font-size="10.00"> elements</text>
</g>
<!-- Node10 -->
<g id="node19" class="node"><title>Node10</title>
<a xlink:title="STL class.">
<polygon fill="white" stroke="#bfbfbf" points="201.5,-621.152 201.5,-641.152 296.5,-641.152 296.5,-621.152 201.5,-621.152"/>
<text text-anchor="middle" x="249" y="-628.152" font-family="FreeSans.ttf" font-size="10.00">std::deque&lt; T &gt;</text>
</a>
</g>
<!-- Node10&#45;&gt;Node8 -->
<g id="edge20" class="edge"><title>Node10&#45;&gt;Node8</title>
<path fill="none" stroke="orange" stroke-dasharray="5,2" d="M306.676,-625.818C354.143,-621.429 421.565,-615.195 471.911,-610.54"/>
<polygon fill="orange" stroke="orange" points="306.2,-622.347 296.565,-626.753 306.845,-629.318 306.2,-622.347"/>
<text text-anchor="middle" x="390" y="-626.152" font-family="FreeSans.ttf" font-size="10.00"> &lt; pair&lt; string, string &gt; &gt;</text>
</g>
<!-- Node11 -->
<g id="node21" class="node"><title>Node11</title>
<polygon fill="white" stroke="#bfbfbf" points="37.5,-541.152 37.5,-561.152 66.5,-561.152 66.5,-541.152 37.5,-541.152"/>
<text text-anchor="middle" x="52" y="-548.152" font-family="FreeSans.ttf" font-size="10.00">T</text>
</g>
<!-- Node11&#45;&gt;Node10 -->
<g id="edge22" class="edge"><title>Node11&#45;&gt;Node10</title>
<path fill="none" stroke="#9a32cd" stroke-dasharray="5,2" d="M76.4779,-561.092C114.18,-576.402 186.072,-605.597 224.054,-621.021"/>
<polygon fill="#9a32cd" stroke="#9a32cd" points="77.3891,-557.684 66.807,-557.165 74.7553,-564.17 77.3891,-557.684"/>
<text text-anchor="middle" x="147" y="-601.152" font-family="FreeSans.ttf" font-size="10.00"> elements</text>
</g>
<!-- Node15 -->
<g id="node34" class="node"><title>Node15</title>
<a xlink:title="STL class.">
<polygon fill="white" stroke="#bfbfbf" points="201.5,-508.152 201.5,-528.152 296.5,-528.152 296.5,-508.152 201.5,-508.152"/>
<text text-anchor="middle" x="249" y="-515.152" font-family="FreeSans.ttf" font-size="10.00">std::vector&lt; T &gt;</text>
</a>
</g>
<!-- Node11&#45;&gt;Node15 -->
<g id="edge42" class="edge"><title>Node11&#45;&gt;Node15</title>
<path fill="none" stroke="#9a32cd" stroke-dasharray="5,2" d="M76.8074,-546.996C107.964,-541.777 162.09,-532.71 201.357,-526.132"/>
<polygon fill="#9a32cd" stroke="#9a32cd" points="76.0913,-543.567 66.807,-548.671 77.2479,-550.471 76.0913,-543.567"/>
<text text-anchor="middle" x="147" y="-541.152" font-family="FreeSans.ttf" font-size="10.00"> elements</text>
</g>
<!-- Node12 -->
<g id="node23" class="node"><title>Node12</title>
<polygon fill="white" stroke="#bfbfbf" points="522.5,-494.152 522.5,-514.152 559.5,-514.152 559.5,-494.152 522.5,-494.152"/>
<text text-anchor="middle" x="541" y="-501.152" font-family="FreeSans.ttf" font-size="10.00">bool</text>
</g>
<!-- Node12&#45;&gt;Node2 -->
<g id="edge24" class="edge"><title>Node12&#45;&gt;Node2</title>
<path fill="none" stroke="#9a32cd" stroke-dasharray="5,2" d="M569.898,-508.819C604.453,-512.787 662.556,-514.165 702,-487.152 716.432,-477.268 706.407,-463.161 720,-452.152 792.303,-393.586 837.539,-436.188 922,-397.152 938.544,-389.505 955.537,-377.19 966.613,-368.446"/>
<polygon fill="#9a32cd" stroke="#9a32cd" points="569.928,-505.294 559.56,-507.473 569.024,-512.235 569.928,-505.294"/>
<text text-anchor="middle" x="782" y="-455.152" font-family="FreeSans.ttf" font-size="10.00"> m_quitting</text>
</g>
<!-- Node13 -->
<g id="node27" class="node"><title>Node13</title>
<a xlink:href="classSocketClient_1_1TermInfo.xhtml" target="_top" xlink:title="Remote terminal information and configuration.">
<polygon fill="white" stroke="black" points="720.5,-382.152 720.5,-402.152 843.5,-402.152 843.5,-382.152 720.5,-382.152"/>
<text text-anchor="middle" x="782" y="-389.152" font-family="FreeSans.ttf" font-size="10.00">SocketClient::TermInfo</text>
</a>
</g>
<!-- Node12&#45;&gt;Node13 -->
<g id="edge32" class="edge"><title>Node12&#45;&gt;Node13</title>
<path fill="none" stroke="#9a32cd" stroke-dasharray="5,2" d="M569.501,-500.372C582.622,-497.65 597.92,-493.012 610,-485.152 620.589,-478.261 617.525,-470.214 628,-463.152 656.557,-443.898 673.856,-460.003 702,-440.152 712.896,-432.466 709.372,-424.203 720,-416.152 727.728,-410.297 737.06,-405.7 746.111,-402.167"/>
<polygon fill="#9a32cd" stroke="#9a32cd" points="568.768,-496.948 559.549,-502.169 570.012,-503.836 568.768,-496.948"/>
<text text-anchor="middle" x="665" y="-478.152" font-family="FreeSans.ttf" font-size="10.00"> m_telopt</text>
<text text-anchor="middle" x="665" y="-466.152" font-family="FreeSans.ttf" font-size="10.00">m_negotiated</text>
</g>
<!-- Node12&#45;&gt;Node16 -->
<g id="edge68" class="edge"><title>Node12&#45;&gt;Node16</title>
<path fill="none" stroke="#9a32cd" stroke-dasharray="5,2" d="M569.855,-507.58C688.296,-521.008 1135.79,-565.228 1240,-480.152 1283.28,-444.816 1312.07,-260.005 1318.59,-214.355"/>
<polygon fill="#9a32cd" stroke="#9a32cd" points="570.079,-504.083 559.745,-506.417 569.28,-511.037 570.079,-504.083"/>
<text text-anchor="middle" x="979" y="-533.152" font-family="FreeSans.ttf" font-size="10.00"> m_creation</text>
</g>
<!-- Node13&#45;&gt;Node2 -->
<g id="edge30" class="edge"><title>Node13&#45;&gt;Node2</title>
<path fill="none" stroke="#9a32cd" stroke-dasharray="5,2" d="M853.506,-383.326C875.548,-380.233 899.843,-376.444 922,-372.152 928.002,-370.989 934.322,-369.602 940.481,-368.16"/>
<polygon fill="#9a32cd" stroke="#9a32cd" points="852.982,-379.865 843.553,-384.697 853.937,-386.799 852.982,-379.865"/>
<text text-anchor="middle" x="892" y="-384.152" font-family="FreeSans.ttf" font-size="10.00"> m_terminfo</text>
</g>
<!-- Node14&#45;&gt;Node1 -->
<g id="edge36" class="edge"><title>Node14&#45;&gt;Node1</title>
<path fill="none" stroke="#9a32cd" stroke-dasharray="5,2" d="M593.374,-398.764C642.645,-387.111 714.549,-370.105 753.821,-360.816"/>
<polygon fill="#9a32cd" stroke="#9a32cd" points="592.457,-395.385 583.531,-401.092 594.068,-402.197 592.457,-395.385"/>
<text text-anchor="middle" x="665" y="-392.152" font-family="FreeSans.ttf" font-size="10.00"> m_characters</text>
</g>
<!-- Node15&#45;&gt;Node14 -->
<g id="edge40" class="edge"><title>Node15&#45;&gt;Node14</title>
<path fill="none" stroke="orange" stroke-dasharray="5,2" d="M267.968,-501.025C282.779,-488.519 304.406,-472.077 326,-462.152 376.193,-439.08 437.946,-425.827 482.373,-418.647"/>
<polygon fill="orange" stroke="orange" points="265.351,-498.661 260.086,-507.856 269.936,-503.951 265.351,-498.661"/>
<text text-anchor="middle" x="390" y="-465.152" font-family="FreeSans.ttf" font-size="10.00"> &lt; string &gt;</text>
</g>
<!-- Node18 -->
<g id="node42" class="node"><title>Node18</title>
<polygon fill="white" stroke="#bfbfbf" points="1258,-527.152 1258,-547.152 1382,-547.152 1382,-527.152 1258,-527.152"/>
<text text-anchor="middle" x="1320" y="-534.152" font-family="FreeSans.ttf" font-size="10.00">std::vector&lt; Thing * &gt;</text>
</g>
<!-- Node15&#45;&gt;Node18 -->
<g id="edge54" class="edge"><title>Node15&#45;&gt;Node18</title>
<path fill="none" stroke="orange" stroke-dasharray="5,2" d="M306.609,-525.046C419.002,-537.881 675.484,-564.152 892,-564.152 892,-564.152 892,-564.152 1139,-564.152 1186.66,-564.152 1240.61,-554.882 1277.11,-547.205"/>
<polygon fill="orange" stroke="orange" points="306.844,-521.55 296.509,-523.884 306.044,-528.504 306.844,-521.55"/>
<text text-anchor="middle" x="892" y="-567.152" font-family="FreeSans.ttf" font-size="10.00"> &lt; Thing * &gt;</text>
</g>
<!-- Node15&#45;&gt;Node20 -->
<g id="edge76" class="edge"><title>Node15&#45;&gt;Node20</title>
<path fill="none" stroke="orange" stroke-dasharray="5,2" d="M306.506,-507.111C347.618,-499.174 404.244,-488.153 454,-478.152 465.039,-475.933 476.856,-473.516 488.111,-471.194"/>
<polygon fill="orange" stroke="orange" points="305.822,-503.678 296.666,-509.009 307.148,-510.552 305.822,-503.678"/>
<text text-anchor="middle" x="390" y="-505.152" font-family="FreeSans.ttf" font-size="10.00"> &lt; pair&lt; string, string &gt; &gt;</text>
</g>
<!-- Node16&#45;&gt;Node1 -->
<g id="edge46" class="edge"><title>Node16&#45;&gt;Node1</title>
<path fill="none" stroke="#9a32cd" stroke-dasharray="5,2" d="M1278.12,-215.829C1172.77,-245.2 898.87,-321.567 810.168,-346.298"/>
<polygon fill="#9a32cd" stroke="#9a32cd" points="1279.08,-219.193 1287.78,-213.136 1277.2,-212.45 1279.08,-219.193"/>
<text text-anchor="middle" x="1068" y="-285.152" font-family="FreeSans.ttf" font-size="10.00"> m_character</text>
</g>
<!-- Node17&#45;&gt;Node16 -->
<g id="edge48" class="edge"><title>Node17&#45;&gt;Node16</title>
<path fill="none" stroke="midnightblue" d="M1153.25,-417.888C1189.45,-371.485 1284.08,-250.198 1312.08,-214.301"/>
<polygon fill="midnightblue" stroke="midnightblue" points="1150.4,-415.846 1147.01,-425.883 1155.92,-420.152 1150.4,-415.846"/>
</g>
<!-- Node17&#45;&gt;Node17 -->
<g id="edge58" class="edge"><title>Node17&#45;&gt;Node17</title>
<path fill="none" stroke="#9a32cd" stroke-dasharray="5,2" d="M1126.14,-456.073C1127.22,-460.725 1131.5,-464.152 1139,-464.152 1151.3,-464.152 1154.96,-454.923 1149.96,-446.199"/>
<polygon fill="#9a32cd" stroke="#9a32cd" points="1129.59,-456.68 1128.04,-446.199 1122.72,-455.359 1129.59,-456.68"/>
<text text-anchor="middle" x="1139" y="-467.152" font-family="FreeSans.ttf" font-size="10.00"> m_container</text>
</g>
<!-- Node17&#45;&gt;Node18 -->
<g id="edge52" class="edge"><title>Node17&#45;&gt;Node18</title>
<path fill="none" stroke="#9a32cd" stroke-dasharray="5,2" d="M1170.1,-440.87C1190.84,-444.932 1218.2,-452.101 1240,-464.152 1270.28,-480.891 1298.36,-511.279 1311.76,-527.049"/>
<polygon fill="#9a32cd" stroke="#9a32cd" points="1170.67,-437.417 1160.21,-439.068 1169.42,-444.304 1170.67,-437.417"/>
<text text-anchor="middle" x="1209" y="-467.152" font-family="FreeSans.ttf" font-size="10.00"> elements</text>
</g>
<!-- Node18&#45;&gt;Node17 -->
<g id="edge50" class="edge"><title>Node18&#45;&gt;Node17</title>
<path fill="none" stroke="#9a32cd" stroke-dasharray="5,2" d="M1271.88,-523.997C1242.99,-514.658 1206.46,-500.198 1178,-480.152 1164.81,-470.864 1153.05,-456.28 1145.97,-446.476"/>
<polygon fill="#9a32cd" stroke="#9a32cd" points="1271.16,-527.44 1281.75,-527.088 1273.25,-520.76 1271.16,-527.44"/>
<text text-anchor="middle" x="1209" y="-514.152" font-family="FreeSans.ttf" font-size="10.00"> m_contents</text>
</g>
<!-- Node19&#45;&gt;Node17 -->
<g id="edge62" class="edge"><title>Node19&#45;&gt;Node17</title>
<path fill="none" stroke="#9a32cd" stroke-dasharray="5,2" d="M1025.69,-453.857C1056.09,-449.106 1094.31,-443.134 1117.68,-439.482"/>
<polygon fill="#9a32cd" stroke="#9a32cd" points="1025.05,-450.414 1015.71,-455.416 1026.13,-457.33 1025.05,-450.414"/>
<text text-anchor="middle" x="1068" y="-454.152" font-family="FreeSans.ttf" font-size="10.00"> m_brain</text>
</g>
<!-- Node20&#45;&gt;Node1 -->
<g id="edge72" class="edge"><title>Node20&#45;&gt;Node1</title>
<path fill="none" stroke="#9a32cd" stroke-dasharray="5,2" d="M592.831,-440.594C604.369,-436.379 616.569,-432.027 628,-428.152 660.617,-417.092 675.217,-426.804 702,-405.152 714.69,-394.893 707.29,-383.385 720,-373.152 729.646,-365.385 742.449,-360.785 753.916,-358.064"/>
<polygon fill="#9a32cd" stroke="#9a32cd" points="591.503,-437.353 583.326,-444.09 593.92,-443.923 591.503,-437.353"/>
<text text-anchor="middle" x="665" y="-431.152" font-family="FreeSans.ttf" font-size="10.00"> m_logins</text>
</g>
</g>
</svg>
        <g id="navigator" transform="translate(0 0)" fill="#404254">
                <rect fill="#f2f5e9" fill-opacity="0.5" stroke="#606060" stroke-width=".5" x="0" y="0" width="60" height="60"/>
                <use id="zoomplus" xlink:href="#zoomPlus" x="17" y="9" onmousedown="handleZoom(evt,'in')"/>
                <use id="zoomminus" xlink:href="#zoomMin" x="42" y="9" onmousedown="handleZoom(evt,'out')"/>
                <use id="reset" xlink:href="#resetDef" x="30" y="36" onmousedown="handleReset()"/>
                <g id="arrowUp" xlink:href="#dirArrow" transform="translate(30 24)" onmousedown="handlePan(0,-1)">
                  <use xlink:href="#rim" fill="#404040">
                        <set attributeName="fill" to="#808080" begin="arrowUp.mouseover" end="arrowUp.mouseout"/>
                  </use>
                  <path fill="none" stroke="white" stroke-width="1.5" d="M0,-3.0v7 M-2.5,-0.5L0,-3.0L2.5,-0.5"/>
                </g>
                <g id="arrowRight" xlink:href="#dirArrow" transform="rotate(90) translate(36 -43)" onmousedown="handlePan(1,0)">
                  <use xlink:href="#rim" fill="#404040">
                        <set attributeName="fill" to="#808080" begin="arrowRight.mouseover" end="arrowRight.mouseout"/>
                  </use>
                  <path fill="none" stroke="white" stroke-width="1.5" d="M0,-3.0v7 M-2.5,-0.5L0,-3.0L2.5,-0.5"/>
                </g>
                <g id="arrowDown" xlink:href="#dirArrow" transform="rotate(180) translate(-30 -48)" onmousedown="handlePan(0,1)">
                  <use xlink:href="#rim" fill="#404040">
                        <set attributeName="fill" to="#808080" begin="arrowDown.mouseover" end="arrowDown.mouseout"/>
                  </use>
                  <path fill="none" stroke="white" stroke-width="1.5" d="M0,-3.0v7 M-2.5,-0.5L0,-3.0L2.5,-0.5"/>
                </g>
                <g id="arrowLeft" xlink:href="#dirArrow" transform="rotate(270) translate(-36 17)" onmousedown="handlePan(-1,0)">
                  <use xlink:href="#rim" fill="#404040">
                        <set attributeName="fill" to="#808080" begin="arrowLeft.mouseover" end="arrowLeft.mouseout"/>
                  </use>
                  <path fill="none" stroke="white" stroke-width="1.5" d="M0,-3.0v7 M-2.5,-0.5L0,-3.0L2.5,-0.5"/>
                </g>
        </g>
        <svg viewBox="0 0 15 15" width="100%" height="30px" preserveAspectRatio="xMaxYMin meet">
         <g id="arrow_out" transform="scale(0.3 0.3)">
          <a xlink:href="classAccount__coll__graph_org.svg" target="_base">
           <rect id="button" ry="5" rx="5" y="6" x="6" height="38" width="38"
                fill="#f2f5e9" fill-opacity="0.5" stroke="#606060" stroke-width="1.0"/>
           <path id="arrow"
             d="M 11.500037,31.436501 C 11.940474,20.09759 22.043105,11.32322 32.158766,21.979434 L 37.068811,17.246167 C 37.068811,17.246167 37.088388,32 37.088388,32 L 22.160133,31.978069 C 22.160133,31.978069 26.997745,27.140456 26.997745,27.140456 C 18.528582,18.264221 13.291696,25.230495 11.500037,31.436501 z"
             style="fill:#404040;"/>
          </a>
         </g>
        </svg>
</svg>
