<?xml version="1.0" encoding="UTF-8" standalone="no"?>
<!DOCTYPE svg PUBLIC "-//W3C//DTD SVG 1.1//EN"
 "http://www.w3.org/Graphics/SVG/1.1/DTD/svg11.dtd">
<!-- Generated by graphviz version 2.26.3 (20100126.1600)
 -->
<!-- Title: G Pages: 1 -->
<!--zoomable 468 -->
<svg id="main" version="1.1" xmlns="http://www.w3.org/2000/svg" xmlns:xlink="http://www.w3.org/1999/xlink" xml:space="preserve" onload="init(evt)">
        <defs>
                <circle id="rim" cx="0" cy="0" r="7"/>
                <circle id="rim2" cx="0" cy="0" r="3.5"/>
                <g id="zoomPlus">
                        <use xlink:href="#rim" fill="#404040">
                                <set attributeName="fill" to="#808080" begin="zoomplus.mouseover" end="zoomplus.mouseout"/>
                        </use>
                        <path d="M-4,0h8M0,-4v8" fill="none" stroke="white" stroke-width="1.5" pointer-events="none"/>
                </g>
                <g id="zoomMin">
                        <use xlink:href="#rim" fill="#404040">
                                <set attributeName="fill" to="#808080" begin="zoomminus.mouseover" end="zoomminus.mouseout"/>
                        </use>
                        <path d="M-4,0h8" fill="none" stroke="white" stroke-width="1.5" pointer-events="none"/>
                </g>
                <g id="dirArrow">
                        <path fill="none" stroke="white" stroke-width="1.5" d="M0,-3.0v7 M-2.5,-0.5L0,-3.0L2.5,-0.5"/>
                </g>
               <g id="resetDef">
                       <use xlink:href="#rim2" fill="#404040">
                               <set attributeName="fill" to="#808080" begin="reset.mouseover" end="reset.mouseout"/>
                       </use>
               </g>
        </defs>

<script type="text/javascript">
var viewWidth = 1004;
var viewHeight = 468;
var sectionId = 'dynsection-13';
</script>
<script xlink:href="svgpan.js"/>
<svg id="graph" class="graph">
<g id="viewport">
<title>G</title>
<polygon fill="white" stroke="white" points="-4,5 -4,-463.68 1001,-463.68 1001,5 -4,5"/>
<!-- Node1 -->
<g id="node1" class="node"><title>Node1</title>
<polygon fill="#bfbfbf" stroke="black" points="0,-194.5 0,-215.5 78,-215.5 78,-194.5 0,-194.5"/>
<text text-anchor="middle" x="39" y="-202.5" font-family="FreeSans.ttf" font-size="10.00">Socket::Valid</text>
</g>
<!-- Node2 -->
<g id="node3" class="node"><title>Node2</title>
<a xlink:href="classSocketClient.xhtml#af09328648d18ae943c8866cf744e5aad" target="_top" xlink:title="Unload a client&#39;s socket from memory that was previously loaded via SocketClient::New().">
<polygon fill="white" stroke="black" points="348,-430.5 348,-451.5 462,-451.5 462,-430.5 348,-430.5"/>
<text text-anchor="middle" x="405" y="-438.5" font-family="FreeSans.ttf" font-size="10.00">SocketClient::Delete</text>
</a>
</g>
<!-- Node1&#45;&gt;Node2 -->
<g id="edge2" class="edge"><title>Node1&#45;&gt;Node2</title>
<path fill="none" stroke="midnightblue" d="M43.3422,-225.492C53.9896,-273.677 82.8105,-391.919 114,-416 183.837,-469.92 293.174,-462.092 356.053,-451.545"/>
<polygon fill="midnightblue" stroke="midnightblue" points="46.7335,-224.616 41.1923,-215.585 39.8927,-226.1 46.7335,-224.616"/>
</g>
<!-- Node7 -->
<g id="node14" class="node"><title>Node7</title>
<a xlink:href="classSocketServer.xhtml#afdbc60c3bc840875d2214b59c6213f63" target="_top" xlink:title="Accept a new connection on the listening port.">
<polygon fill="white" stroke="black" points="526,-371.5 526,-392.5 646,-392.5 646,-371.5 526,-371.5"/>
<text text-anchor="middle" x="586" y="-379.5" font-family="FreeSans.ttf" font-size="10.00">SocketServer::Accept</text>
</a>
</g>
<!-- Node1&#45;&gt;Node7 -->
<g id="edge62" class="edge"><title>Node1&#45;&gt;Node7</title>
<path fill="none" stroke="midnightblue" d="M44.1883,-225.732C53.022,-256.489 74.0379,-313.717 114,-343 243.331,-437.769 449.496,-410.792 540.403,-392.555"/>
<polygon fill="midnightblue" stroke="midnightblue" points="47.4637,-224.437 41.4724,-215.699 40.7069,-226.266 47.4637,-224.437"/>
</g>
<!-- Node8 -->
<g id="node17" class="node"><title>Node8</title>
<a xlink:href="classSocketClient.xhtml#ad4f63c7d906310dc56a1217136047d7f" target="_top" xlink:title="Interpret the command at the front of the queue.">
<polygon fill="white" stroke="black" points="320,-236.5 320,-257.5 490,-257.5 490,-236.5 320,-236.5"/>
<text text-anchor="middle" x="405" y="-244.5" font-family="FreeSans.ttf" font-size="10.00">SocketClient::ProcessCommand</text>
</a>
</g>
<!-- Node1&#45;&gt;Node8 -->
<g id="edge18" class="edge"><title>Node1&#45;&gt;Node8</title>
<path fill="none" stroke="midnightblue" d="M82.9197,-218.167C93.0494,-220.796 103.836,-223.276 114,-225 182.683,-236.651 261.535,-242.133 319.818,-244.711"/>
<polygon fill="midnightblue" stroke="midnightblue" points="83.6226,-214.731 73.0564,-215.509 81.8016,-221.49 83.6226,-214.731"/>
</g>
<!-- Node9 -->
<g id="node20" class="node"><title>Node9</title>
<a xlink:href="classSocketClient.xhtml#a92fea2bf7e0f20578404ce1abb835a0b" target="_top" xlink:title="Process data from the client&#39;s receive buffer and split it into commands to queue as necessary...">
<polygon fill="white" stroke="black" points="333,-156.5 333,-177.5 477,-177.5 477,-156.5 333,-156.5"/>
<text text-anchor="middle" x="405" y="-164.5" font-family="FreeSans.ttf" font-size="10.00">SocketClient::ProcessInput</text>
</a>
</g>
<!-- Node1&#45;&gt;Node9 -->
<g id="edge22" class="edge"><title>Node1&#45;&gt;Node9</title>
<path fill="none" stroke="midnightblue" d="M82.6049,-191.808C92.8216,-189.154 103.725,-186.671 114,-185 187.943,-172.977 273.65,-168.839 332.805,-167.488"/>
<polygon fill="midnightblue" stroke="midnightblue" points="81.406,-188.506 72.6658,-194.495 83.2327,-195.264 81.406,-188.506"/>
</g>
<!-- Node10 -->
<g id="node23" class="node"><title>Node10</title>
<a xlink:href="classSocketClient.xhtml#aa3c0d7886b8fede981c73031cfaf17c6" target="_top" xlink:title="Append a command to the back of the queue.">
<polygon fill="white" stroke="black" points="117,-194.5 117,-215.5 281,-215.5 281,-194.5 117,-194.5"/>
<text text-anchor="middle" x="199" y="-202.5" font-family="FreeSans.ttf" font-size="10.00">SocketClient::QueueCommand</text>
</a>
</g>
<!-- Node1&#45;&gt;Node10 -->
<g id="edge26" class="edge"><title>Node1&#45;&gt;Node10</title>
<path fill="none" stroke="midnightblue" d="M88.4016,-205C97.4099,-205 107.028,-205 116.69,-205"/>
<polygon fill="midnightblue" stroke="midnightblue" points="88.1404,-201.5 78.1404,-205 88.1404,-208.5 88.1404,-201.5"/>
</g>
<!-- Node11 -->
<g id="node26" class="node"><title>Node11</title>
<a xlink:href="classSocketClient.xhtml#a9ee09f452d900e288b2aa187561ef05d" target="_top" xlink:title="Receive data from the client and append it to a receive buffer.">
<polygon fill="white" stroke="black" points="147,-312.5 147,-333.5 251,-333.5 251,-312.5 147,-312.5"/>
<text text-anchor="middle" x="199" y="-320.5" font-family="FreeSans.ttf" font-size="10.00">SocketClient::Recv</text>
</a>
</g>
<!-- Node1&#45;&gt;Node11 -->
<g id="edge30" class="edge"><title>Node1&#45;&gt;Node11</title>
<path fill="none" stroke="midnightblue" d="M48.7556,-224.798C60.8921,-247.299 83.7598,-283.432 114,-303 123.8,-309.342 135.395,-313.678 146.818,-316.641"/>
<polygon fill="midnightblue" stroke="midnightblue" points="51.7988,-223.064 44.0836,-215.803 45.5866,-226.29 51.7988,-223.064"/>
</g>
<!-- Node12 -->
<g id="node29" class="node"><title>Node12</title>
<a xlink:href="classSocketClient.xhtml#afd723bd898217b3c41e29a02f43ec9e1" target="_top" xlink:title="A wrapper to SocketClient::tResolveHostname(). Necessary for threading a member function.">
<polygon fill="white" stroke="black" points="114.5,-40.5 114.5,-61.5 283.5,-61.5 283.5,-40.5 114.5,-40.5"/>
<text text-anchor="middle" x="199" y="-48.5" font-family="FreeSans.ttf" font-size="10.00">SocketClient::ResolveHostname</text>
</a>
</g>
<!-- Node1&#45;&gt;Node12 -->
<g id="edge34" class="edge"><title>Node1&#45;&gt;Node12</title>
<path fill="none" stroke="midnightblue" d="M45.5007,-184.407C55.5731,-155.841 77.6695,-104.495 114,-76 121.988,-69.7347 131.507,-65.0382 141.237,-61.5181"/>
<polygon fill="midnightblue" stroke="midnightblue" points="42.096,-183.551 42.2245,-194.145 48.7306,-185.783 42.096,-183.551"/>
</g>
<!-- Node13 -->
<g id="node31" class="node"><title>Node13</title>
<a xlink:href="classSocketClient.xhtml#a6268f3d184970ec0076da657c39d2e80" target="_top" xlink:title="Process data from the client&#39;s send buffer and transmit it via the socket.">
<polygon fill="white" stroke="black" points="145.5,-272.5 145.5,-293.5 252.5,-293.5 252.5,-272.5 145.5,-272.5"/>
<text text-anchor="middle" x="199" y="-280.5" font-family="FreeSans.ttf" font-size="10.00">SocketClient::Send</text>
</a>
</g>
<!-- Node1&#45;&gt;Node13 -->
<g id="edge36" class="edge"><title>Node1&#45;&gt;Node13</title>
<path fill="none" stroke="midnightblue" d="M58.9891,-221.895C73.477,-233.424 93.9639,-248.306 114,-258 126.185,-263.895 140.037,-268.692 152.969,-272.448"/>
<polygon fill="midnightblue" stroke="midnightblue" points="61.1668,-219.155 51.2009,-215.559 56.7492,-224.585 61.1668,-219.155"/>
</g>
<!-- Node19 -->
<g id="node51" class="node"><title>Node19</title>
<a xlink:href="classSocketServer.xhtml#aee14cfe29fef99baa29664eef8d89dc8" target="_top" xlink:title="Bind a listening socket to a given port and IP address.">
<polygon fill="white" stroke="black" points="532,-119.5 532,-140.5 640,-140.5 640,-119.5 532,-119.5"/>
<text text-anchor="middle" x="586" y="-127.5" font-family="FreeSans.ttf" font-size="10.00">SocketServer::Bind</text>
</a>
</g>
<!-- Node1&#45;&gt;Node19 -->
<g id="edge64" class="edge"><title>Node1&#45;&gt;Node19</title>
<path fill="none" stroke="midnightblue" d="M62.9295,-189.025C77.1512,-180.37 95.8965,-170.374 114,-165 260.319,-121.566 442.8,-122.736 531.933,-126.648"/>
<polygon fill="midnightblue" stroke="midnightblue" points="60.8926,-186.171 54.2892,-194.457 64.6181,-192.098 60.8926,-186.171"/>
</g>
<!-- Node20 -->
<g id="node54" class="node"><title>Node20</title>
<a xlink:href="classSocketServer.xhtml#a4fb2589ed01cea5daae154b2f06b4f41" target="_top" xlink:title="Unload a server&#39;s socket from memory that was previously loaded via SocketServer::New().">
<polygon fill="white" stroke="black" points="139.5,-0.5 139.5,-21.5 258.5,-21.5 258.5,-0.5 139.5,-0.5"/>
<text text-anchor="middle" x="199" y="-8.5" font-family="FreeSans.ttf" font-size="10.00">SocketServer::Delete</text>
</a>
</g>
<!-- Node1&#45;&gt;Node20 -->
<g id="edge68" class="edge"><title>Node1&#45;&gt;Node20</title>
<path fill="none" stroke="midnightblue" d="M41.8021,-184.453C47.9262,-147.796 66.0159,-71.2084 114,-31 121.32,-24.8658 130.186,-20.5396 139.392,-17.5029"/>
<polygon fill="midnightblue" stroke="midnightblue" points="38.3234,-184.047 40.2658,-194.462 45.2424,-185.109 38.3234,-184.047"/>
</g>
<!-- Node21 -->
<g id="node56" class="node"><title>Node21</title>
<a xlink:href="classSocketServer.xhtml#a5c5b0cbbee6a2e265d0510b40bcc12d8" target="_top" xlink:title="Listen for new connections on an established socket.">
<polygon fill="white" stroke="black" points="528,-79.5 528,-100.5 644,-100.5 644,-79.5 528,-79.5"/>
<text text-anchor="middle" x="586" y="-87.5" font-family="FreeSans.ttf" font-size="10.00">SocketServer::Listen</text>
</a>
</g>
<!-- Node1&#45;&gt;Node21 -->
<g id="edge70" class="edge"><title>Node1&#45;&gt;Node21</title>
<path fill="none" stroke="midnightblue" d="M51.7947,-185.701C65.0055,-167.574 87.4006,-141.433 114,-129 251.246,-64.8513 435.432,-72.8394 527.895,-82.3562"/>
<polygon fill="midnightblue" stroke="midnightblue" points="48.6181,-184.136 45.7498,-194.335 54.3523,-188.151 48.6181,-184.136"/>
</g>
<!-- Node3 -->
<g id="node5" class="node"><title>Node3</title>
<a xlink:href="classServer.xhtml#a39dbe16fdc8c5f6fbd678c6540fbcd6c" target="_top" xlink:title="Poll all SocketClient objects that are communicating with the associated SocketServer object...">
<polygon fill="white" stroke="black" points="682.5,-313.5 682.5,-334.5 791.5,-334.5 791.5,-313.5 682.5,-313.5"/>
<text text-anchor="middle" x="737" y="-321.5" font-family="FreeSans.ttf" font-size="10.00">Server::PollSockets</text>
</a>
</g>
<!-- Node2&#45;&gt;Node3 -->
<g id="edge4" class="edge"><title>Node2&#45;&gt;Node3</title>
<path fill="none" stroke="midnightblue" d="M472.135,-439.836C522.133,-436.713 590.969,-427.541 646,-402 681.106,-385.707 713.237,-351.914 728.184,-334.652"/>
<polygon fill="midnightblue" stroke="midnightblue" points="471.869,-436.345 462.08,-440.398 472.26,-443.334 471.869,-436.345"/>
</g>
<!-- Node6 -->
<g id="node11" class="node"><title>Node6</title>
<a xlink:href="classServer.xhtml#a2b4cec469bb99c2a45e49de5ba74d1ae" target="_top" xlink:title="Processes input from all active SocketClient objects.">
<polygon fill="white" stroke="black" points="528,-236.5 528,-257.5 644,-257.5 644,-236.5 528,-236.5"/>
<text text-anchor="middle" x="586" y="-244.5" font-family="FreeSans.ttf" font-size="10.00">Server::ProcessInput</text>
</a>
</g>
<!-- Node2&#45;&gt;Node6 -->
<g id="edge10" class="edge"><title>Node2&#45;&gt;Node6</title>
<path fill="none" stroke="midnightblue" d="M433.345,-425.204C450.837,-414.636 473.086,-399.648 490,-383 531.195,-342.454 566.617,-282.253 580.142,-257.856"/>
<polygon fill="midnightblue" stroke="midnightblue" points="431.519,-422.217 424.685,-430.313 435.076,-428.246 431.519,-422.217"/>
</g>
<!-- Node2&#45;&gt;Node7 -->
<g id="edge14" class="edge"><title>Node2&#45;&gt;Node7</title>
<path fill="none" stroke="midnightblue" d="M452.064,-427.653C464.445,-424.007 477.76,-419.964 490,-416 512.876,-408.591 538.54,-399.458 557.574,-392.524"/>
<polygon fill="midnightblue" stroke="midnightblue" points="450.99,-424.32 442.373,-430.484 452.953,-431.04 450.99,-424.32"/>
</g>
<!-- Node4 -->
<g id="node7" class="node"><title>Node4</title>
<a xlink:href="classServer.xhtml#a50b81aa91d8fdaee6f52c5c5ec987990" target="_top" xlink:title="The core update loop of NAMS. This loop spawns all other subsystem update routines and then sleeps fo...">
<polygon fill="white" stroke="black" points="828.5,-253.5 828.5,-274.5 917.5,-274.5 917.5,-253.5 828.5,-253.5"/>
<text text-anchor="middle" x="873" y="-261.5" font-family="FreeSans.ttf" font-size="10.00">Server::Update</text>
</a>
</g>
<!-- Node3&#45;&gt;Node4 -->
<g id="edge6" class="edge"><title>Node3&#45;&gt;Node4</title>
<path fill="none" stroke="midnightblue" d="M770.203,-309.352C794.496,-298.634 826.9,-284.338 848.781,-274.685"/>
<polygon fill="midnightblue" stroke="midnightblue" points="768.737,-306.173 761.001,-313.411 771.563,-312.577 768.737,-306.173"/>
</g>
<!-- Node5 -->
<g id="node9" class="node"><title>Node5</title>
<a xlink:href="main_8cpp.xhtml#ad53223b8779f25caeddb70a3b9172967" target="_top" xlink:title="The default function required to execute the server.">
<polygon fill="white" stroke="black" points="954.5,-196.5 954.5,-217.5 995.5,-217.5 995.5,-196.5 954.5,-196.5"/>
<text text-anchor="middle" x="975" y="-204.5" font-family="FreeSans.ttf" font-size="10.00">main</text>
</a>
</g>
<!-- Node4&#45;&gt;Node5 -->
<g id="edge8" class="edge"><title>Node4&#45;&gt;Node5</title>
<path fill="none" stroke="midnightblue" d="M901.326,-248.171C918.723,-238.449 940.538,-226.258 955.901,-217.673"/>
<polygon fill="midnightblue" stroke="midnightblue" points="899.207,-245.345 892.185,-253.279 902.622,-251.456 899.207,-245.345"/>
</g>
<!-- Node6&#45;&gt;Node4 -->
<g id="edge12" class="edge"><title>Node6&#45;&gt;Node4</title>
<path fill="none" stroke="midnightblue" d="M654.106,-256.351C663.464,-257.391 672.96,-258.318 682,-259 731.947,-262.766 789.424,-263.829 828.17,-264.067"/>
<polygon fill="midnightblue" stroke="midnightblue" points="654.371,-252.858 644.035,-255.185 653.566,-259.812 654.371,-252.858"/>
</g>
<!-- Node7&#45;&gt;Node3 -->
<g id="edge16" class="edge"><title>Node7&#45;&gt;Node3</title>
<path fill="none" stroke="midnightblue" d="M622.776,-367.874C649.571,-357.582 685.29,-343.862 709.604,-334.523"/>
<polygon fill="midnightblue" stroke="midnightblue" points="621.425,-364.644 613.345,-371.497 623.935,-371.178 621.425,-364.644"/>
</g>
<!-- Node8&#45;&gt;Node6 -->
<g id="edge20" class="edge"><title>Node8&#45;&gt;Node6</title>
<path fill="none" stroke="midnightblue" d="M500.367,-247C509.729,-247 519.021,-247 527.841,-247"/>
<polygon fill="midnightblue" stroke="midnightblue" points="500.2,-243.5 490.2,-247 500.2,-250.5 500.2,-243.5"/>
</g>
<!-- Node9&#45;&gt;Node6 -->
<g id="edge24" class="edge"><title>Node9&#45;&gt;Node6</title>
<path fill="none" stroke="midnightblue" d="M478.426,-181.166C482.442,-182.892 486.331,-184.828 490,-187 510.581,-199.185 505.992,-213.895 526,-227 531.695,-230.73 538.151,-233.826 544.665,-236.377"/>
<polygon fill="midnightblue" stroke="midnightblue" points="479.459,-177.813 468.869,-177.508 476.957,-184.351 479.459,-177.813"/>
</g>
<!-- Node10&#45;&gt;Node9 -->
<g id="edge28" class="edge"><title>Node10&#45;&gt;Node9</title>
<path fill="none" stroke="midnightblue" d="M266.032,-192.635C292.427,-187.766 322.426,-182.232 347.78,-177.555"/>
<polygon fill="midnightblue" stroke="midnightblue" points="265.308,-189.209 256.109,-194.465 266.578,-196.093 265.308,-189.209"/>
</g>
<!-- Node11&#45;&gt;Node3 -->
<g id="edge32" class="edge"><title>Node11&#45;&gt;Node3</title>
<path fill="none" stroke="midnightblue" d="M261.303,-323.116C367.37,-323.313 581.301,-323.711 682.097,-323.898"/>
<polygon fill="midnightblue" stroke="midnightblue" points="261.081,-319.615 251.075,-323.097 261.068,-326.615 261.081,-319.615"/>
</g>
<!-- Node13&#45;&gt;Node3 -->
<g id="edge54" class="edge"><title>Node13&#45;&gt;Node3</title>
<path fill="none" stroke="midnightblue" d="M262.53,-287.841C369.141,-295.966 582.207,-312.204 682.465,-319.844"/>
<polygon fill="midnightblue" stroke="midnightblue" points="262.789,-284.351 252.552,-287.081 262.257,-291.331 262.789,-284.351"/>
</g>
<!-- Node13&#45;&gt;Node8 -->
<g id="edge60" class="edge"><title>Node13&#45;&gt;Node8</title>
<path fill="none" stroke="midnightblue" d="M262.768,-271.856C288.909,-267.288 319.014,-262.027 344.777,-257.524"/>
<polygon fill="midnightblue" stroke="midnightblue" points="261.834,-268.466 252.586,-273.635 263.04,-275.362 261.834,-268.466"/>
</g>
<!-- Node14 -->
<g id="node33" class="node"><title>Node14</title>
<a xlink:href="classServer.xhtml#ae1bb8d3c7c71119bae6dd4205fd6c0cc" target="_top" xlink:title="Sends a message to all clients connected to the Server.">
<polygon fill="white" stroke="black" points="353.5,-196.5 353.5,-217.5 456.5,-217.5 456.5,-196.5 353.5,-196.5"/>
<text text-anchor="middle" x="405" y="-204.5" font-family="FreeSans.ttf" font-size="10.00">Server::Broadcast</text>
</a>
</g>
<!-- Node13&#45;&gt;Node14 -->
<g id="edge38" class="edge"><title>Node13&#45;&gt;Node14</title>
<path fill="none" stroke="midnightblue" d="M227.563,-267.774C251.662,-255.42 287.354,-238.265 320,-227 330.605,-223.341 342.181,-220.126 353.281,-217.404"/>
<polygon fill="midnightblue" stroke="midnightblue" points="225.879,-264.704 218.613,-272.414 229.102,-270.918 225.879,-264.704"/>
</g>
<!-- Node18 -->
<g id="node46" class="node"><title>Node18</title>
<a xlink:href="classSocketClient.xhtml#a6b296c5002caa1229e7d7b9be6f08607" target="_top" xlink:title="Build a SocketClient for a new client connection and set all attributes.">
<polygon fill="white" stroke="black" points="353.5,-352.5 353.5,-373.5 456.5,-373.5 456.5,-352.5 353.5,-352.5"/>
<text text-anchor="middle" x="405" y="-360.5" font-family="FreeSans.ttf" font-size="10.00">SocketClient::New</text>
</a>
</g>
<!-- Node13&#45;&gt;Node18 -->
<g id="edge56" class="edge"><title>Node13&#45;&gt;Node18</title>
<path fill="none" stroke="midnightblue" d="M261.974,-296.099C269.472,-298.162 276.959,-300.464 284,-303 321.944,-316.667 363.522,-339.054 386.722,-352.274"/>
<polygon fill="midnightblue" stroke="midnightblue" points="262.707,-292.673 252.147,-293.524 260.933,-299.444 262.707,-292.673"/>
</g>
<!-- Node15 -->
<g id="node35" class="node"><title>Node15</title>
<a xlink:href="classServer.xhtml#a9b7082bbc9faca6eb84180f856116762" target="_top" xlink:title="Perform a clean shutdown of the NAMS Server providing a chance to complete disk writes and free all m...">
<polygon fill="white" stroke="black" points="535.5,-196.5 535.5,-217.5 636.5,-217.5 636.5,-196.5 535.5,-196.5"/>
<text text-anchor="middle" x="586" y="-204.5" font-family="FreeSans.ttf" font-size="10.00">Server::Shutdown</text>
</a>
</g>
<!-- Node14&#45;&gt;Node15 -->
<g id="edge40" class="edge"><title>Node14&#45;&gt;Node15</title>
<path fill="none" stroke="midnightblue" d="M466.917,-207C489.234,-207 514.135,-207 535.375,-207"/>
<polygon fill="midnightblue" stroke="midnightblue" points="466.867,-203.5 456.867,-207 466.867,-210.5 466.867,-203.5"/>
</g>
<!-- Node15&#45;&gt;Node4 -->
<g id="edge48" class="edge"><title>Node15&#45;&gt;Node4</title>
<path fill="none" stroke="midnightblue" d="M646.488,-219.013C700.754,-229.791 779.158,-245.362 828.047,-255.072"/>
<polygon fill="midnightblue" stroke="midnightblue" points="647.139,-215.574 636.649,-217.059 645.776,-222.44 647.139,-215.574"/>
</g>
<!-- Node15&#45;&gt;Node5 -->
<g id="edge42" class="edge"><title>Node15&#45;&gt;Node5</title>
<path fill="none" stroke="midnightblue" d="M647.074,-207C736.048,-207 896.927,-207 954.124,-207"/>
<polygon fill="midnightblue" stroke="midnightblue" points="646.855,-203.5 636.855,-207 646.855,-210.5 646.855,-203.5"/>
</g>
<!-- Node16 -->
<g id="node38" class="node"><title>Node16</title>
<a xlink:href="classServer.xhtml#a84ed4b0103f83fe0ece0a89983d0787a" target="_top" xlink:title="Start the NAMS Server. Responsible for calling all critical boot&#45;time functions such as SocketServer ...">
<polygon fill="white" stroke="black" points="828,-157.5 828,-178.5 918,-178.5 918,-157.5 828,-157.5"/>
<text text-anchor="middle" x="873" y="-165.5" font-family="FreeSans.ttf" font-size="10.00">Server::Startup</text>
</a>
</g>
<!-- Node15&#45;&gt;Node16 -->
<g id="edge44" class="edge"><title>Node15&#45;&gt;Node16</title>
<path fill="none" stroke="midnightblue" d="M646.89,-197.983C658.541,-196.296 670.644,-194.571 682,-193 731.856,-186.102 789.105,-178.674 827.823,-173.724"/>
<polygon fill="midnightblue" stroke="midnightblue" points="646.191,-194.548 636.799,-199.45 647.198,-201.475 646.191,-194.548"/>
</g>
<!-- Node17 -->
<g id="node42" class="node"><title>Node17</title>
<a xlink:href="classSocketServer.xhtml#a276e17da8bbf562313bce8edfd32e231" target="_top" xlink:title="Build a socket for a server and set all attributes.">
<polygon fill="white" stroke="black" points="683.5,-119.5 683.5,-140.5 790.5,-140.5 790.5,-119.5 683.5,-119.5"/>
<text text-anchor="middle" x="737" y="-127.5" font-family="FreeSans.ttf" font-size="10.00">SocketServer::New</text>
</a>
</g>
<!-- Node15&#45;&gt;Node17 -->
<g id="edge50" class="edge"><title>Node15&#45;&gt;Node17</title>
<path fill="none" stroke="midnightblue" d="M613.31,-191.548C632.377,-180.923 658.518,-166.679 682,-155 691.955,-150.049 703.095,-144.912 712.733,-140.592"/>
<polygon fill="midnightblue" stroke="midnightblue" points="611.576,-188.507 604.56,-196.446 614.996,-194.615 611.576,-188.507"/>
</g>
<!-- Node16&#45;&gt;Node5 -->
<g id="edge46" class="edge"><title>Node16&#45;&gt;Node5</title>
<path fill="none" stroke="midnightblue" d="M910.131,-182.197C925.099,-187.92 941.793,-194.303 954.497,-199.161"/>
<polygon fill="midnightblue" stroke="midnightblue" points="911.193,-178.856 900.603,-178.554 908.693,-185.395 911.193,-178.856"/>
</g>
<!-- Node17&#45;&gt;Node16 -->
<g id="edge52" class="edge"><title>Node17&#45;&gt;Node16</title>
<path fill="none" stroke="midnightblue" d="M784.914,-143.388C801.447,-148.007 819.722,-153.113 835.32,-157.472"/>
<polygon fill="midnightblue" stroke="midnightblue" points="785.457,-139.905 774.884,-140.585 783.573,-146.647 785.457,-139.905"/>
</g>
<!-- Node18&#45;&gt;Node7 -->
<g id="edge58" class="edge"><title>Node18&#45;&gt;Node7</title>
<path fill="none" stroke="midnightblue" d="M466.93,-369.501C485.972,-371.5 506.895,-373.696 525.818,-375.683"/>
<polygon fill="midnightblue" stroke="midnightblue" points="467.178,-366.008 456.867,-368.445 466.447,-372.97 467.178,-366.008"/>
</g>
<!-- Node19&#45;&gt;Node17 -->
<g id="edge66" class="edge"><title>Node19&#45;&gt;Node17</title>
<path fill="none" stroke="midnightblue" d="M650.115,-130C661.166,-130 672.549,-130 683.29,-130"/>
<polygon fill="midnightblue" stroke="midnightblue" points="650.088,-126.5 640.088,-130 650.088,-133.5 650.088,-126.5"/>
</g>
<!-- Node21&#45;&gt;Node17 -->
<g id="edge72" class="edge"><title>Node21&#45;&gt;Node17</title>
<path fill="none" stroke="midnightblue" d="M635.561,-103.129C655.602,-108.438 678.418,-114.482 697.33,-119.491"/>
<polygon fill="midnightblue" stroke="midnightblue" points="636.236,-99.687 625.673,-100.51 634.444,-106.454 636.236,-99.687"/>
</g>
</g>
</svg>
        <g id="navigator" transform="translate(0 0)" fill="#404254">
                <rect fill="#f2f5e9" fill-opacity="0.5" stroke="#606060" stroke-width=".5" x="0" y="0" width="60" height="60"/>
                <use id="zoomplus" xlink:href="#zoomPlus" x="17" y="9" onmousedown="handleZoom(evt,'in')"/>
                <use id="zoomminus" xlink:href="#zoomMin" x="42" y="9" onmousedown="handleZoom(evt,'out')"/>
                <use id="reset" xlink:href="#resetDef" x="30" y="36" onmousedown="handleReset()"/>
                <g id="arrowUp" xlink:href="#dirArrow" transform="translate(30 24)" onmousedown="handlePan(0,-1)">
                  <use xlink:href="#rim" fill="#404040">
                        <set attributeName="fill" to="#808080" begin="arrowUp.mouseover" end="arrowUp.mouseout"/>
                  </use>
                  <path fill="none" stroke="white" stroke-width="1.5" d="M0,-3.0v7 M-2.5,-0.5L0,-3.0L2.5,-0.5"/>
                </g>
                <g id="arrowRight" xlink:href="#dirArrow" transform="rotate(90) translate(36 -43)" onmousedown="handlePan(1,0)">
                  <use xlink:href="#rim" fill="#404040">
                        <set attributeName="fill" to="#808080" begin="arrowRight.mouseover" end="arrowRight.mouseout"/>
                  </use>
                  <path fill="none" stroke="white" stroke-width="1.5" d="M0,-3.0v7 M-2.5,-0.5L0,-3.0L2.5,-0.5"/>
                </g>
                <g id="arrowDown" xlink:href="#dirArrow" transform="rotate(180) translate(-30 -48)" onmousedown="handlePan(0,1)">
                  <use xlink:href="#rim" fill="#404040">
                        <set attributeName="fill" to="#808080" begin="arrowDown.mouseover" end="arrowDown.mouseout"/>
                  </use>
                  <path fill="none" stroke="white" stroke-width="1.5" d="M0,-3.0v7 M-2.5,-0.5L0,-3.0L2.5,-0.5"/>
                </g>
                <g id="arrowLeft" xlink:href="#dirArrow" transform="rotate(270) translate(-36 17)" onmousedown="handlePan(-1,0)">
                  <use xlink:href="#rim" fill="#404040">
                        <set attributeName="fill" to="#808080" begin="arrowLeft.mouseover" end="arrowLeft.mouseout"/>
                  </use>
                  <path fill="none" stroke="white" stroke-width="1.5" d="M0,-3.0v7 M-2.5,-0.5L0,-3.0L2.5,-0.5"/>
                </g>
        </g>
</svg>
