<?xml version="1.0" encoding="UTF-8" standalone="no"?>
<!DOCTYPE svg PUBLIC "-//W3C//DTD SVG 1.1//EN"
 "http://www.w3.org/Graphics/SVG/1.1/DTD/svg11.dtd">
<!-- Generated by graphviz version 2.26.3 (20100126.1600)
 -->
<!-- Title: G Pages: 1 -->
<!--zoomable 558 -->
<svg id="main" version="1.1" xmlns="http://www.w3.org/2000/svg" xmlns:xlink="http://www.w3.org/1999/xlink" xml:space="preserve" onload="init(evt)">
        <defs>
                <circle id="rim" cx="0" cy="0" r="7"/>
                <circle id="rim2" cx="0" cy="0" r="3.5"/>
                <g id="zoomPlus">
                        <use xlink:href="#rim" fill="#404040">
                                <set attributeName="fill" to="#808080" begin="zoomplus.mouseover" end="zoomplus.mouseout"/>
                        </use>
                        <path d="M-4,0h8M0,-4v8" fill="none" stroke="white" stroke-width="1.5" pointer-events="none"/>
                </g>
                <g id="zoomMin">
                        <use xlink:href="#rim" fill="#404040">
                                <set attributeName="fill" to="#808080" begin="zoomminus.mouseover" end="zoomminus.mouseout"/>
                        </use>
                        <path d="M-4,0h8" fill="none" stroke="white" stroke-width="1.5" pointer-events="none"/>
                </g>
                <g id="dirArrow">
                        <path fill="none" stroke="white" stroke-width="1.5" d="M0,-3.0v7 M-2.5,-0.5L0,-3.0L2.5,-0.5"/>
                </g>
               <g id="resetDef">
                       <use xlink:href="#rim2" fill="#404040">
                               <set attributeName="fill" to="#808080" begin="reset.mouseover" end="reset.mouseout"/>
                       </use>
               </g>
        </defs>

<script type="text/javascript">
var viewWidth = 1061;
var viewHeight = 558;
var sectionId = 'dynsection-1';
</script>
<script xlink:href="svgpan.js"/>
<svg id="graph" class="graph">
<g id="viewport">
<title>G</title>
<polygon fill="white" stroke="white" points="-4,5 -4,-554 1058,-554 1058,5 -4,5"/>
<!-- Node1 -->
<g id="node1" class="node"><title>Node1</title>
<polygon fill="#bfbfbf" stroke="black" points="457.5,-237.5 457.5,-258.5 538.5,-258.5 538.5,-237.5 457.5,-237.5"/>
<text text-anchor="middle" x="498" y="-245.5" font-family="FreeSans.ttf" font-size="10.00">SocketServer</text>
</g>
<!-- Node7 -->
<g id="node12" class="node"><title>Node7</title>
<a xlink:href="classServer.xhtml" target="_top" xlink:title="The core of the game server.">
<polygon fill="white" stroke="black" points="510,-144.5 510,-165.5 558,-165.5 558,-144.5 510,-144.5"/>
<text text-anchor="middle" x="534" y="-152.5" font-family="FreeSans.ttf" font-size="10.00">Server</text>
</a>
</g>
<!-- Node1&#45;&gt;Node7 -->
<g id="edge46" class="edge"><title>Node1&#45;&gt;Node7</title>
<path fill="none" stroke="#9a32cd" stroke-dasharray="5,2" d="M528.412,-231.798C536.233,-226.031 543.659,-218.751 548,-210 555.18,-195.524 547.415,-177.023 540.907,-165.596"/>
<polygon fill="#9a32cd" stroke="#9a32cd" points="526.287,-229.008 519.898,-237.46 530.163,-234.837 526.287,-229.008"/>
<text text-anchor="middle" x="575" y="-194.5" font-family="FreeSans.ttf" font-size="10.00"> m_socket</text>
</g>
<!-- Node2 -->
<g id="node2" class="node"><title>Node2</title>
<a xlink:href="classSocket.xhtml" target="_top" xlink:title="Functions and interfaces that are common to both SocketClient and SocketServer.">
<polygon fill="white" stroke="black" points="240,-370.5 240,-391.5 290,-391.5 290,-370.5 240,-370.5"/>
<text text-anchor="middle" x="265" y="-378.5" font-family="FreeSans.ttf" font-size="10.00">Socket</text>
</a>
</g>
<!-- Node2&#45;&gt;Node1 -->
<g id="edge2" class="edge"><title>Node2&#45;&gt;Node1</title>
<path fill="none" stroke="midnightblue" d="M292.603,-365.244C340.736,-337.769 438.778,-281.805 479.561,-258.525"/>
<polygon fill="midnightblue" stroke="midnightblue" points="290.623,-362.344 283.674,-370.341 294.093,-368.423 290.623,-362.344"/>
</g>
<!-- Node9 -->
<g id="node16" class="node"><title>Node9</title>
<a xlink:href="classSocketClient.xhtml" target="_top" xlink:title="Client / remote host specific functions that extend the Socket class.">
<polygon fill="white" stroke="black" points="339.5,-72.5 339.5,-93.5 416.5,-93.5 416.5,-72.5 339.5,-72.5"/>
<text text-anchor="middle" x="378" y="-80.5" font-family="FreeSans.ttf" font-size="10.00">SocketClient</text>
</a>
</g>
<!-- Node2&#45;&gt;Node9 -->
<g id="edge18" class="edge"><title>Node2&#45;&gt;Node9</title>
<path fill="none" stroke="midnightblue" d="M263.227,-360.171C260.208,-311.371 259.287,-188.034 318,-112 324.293,-103.85 333.463,-97.8618 342.748,-93.5172"/>
<polygon fill="midnightblue" stroke="midnightblue" points="259.755,-360.684 263.965,-370.407 266.737,-360.182 259.755,-360.684"/>
</g>
<!-- Node3 -->
<g id="node4" class="node"><title>Node3</title>
<polygon fill="white" stroke="#bfbfbf" points="143.5,-468.5 143.5,-489.5 206.5,-489.5 206.5,-468.5 143.5,-468.5"/>
<text text-anchor="middle" x="175" y="-476.5" font-family="FreeSans.ttf" font-size="10.00">signed int</text>
</g>
<!-- Node3&#45;&gt;Node2 -->
<g id="edge4" class="edge"><title>Node3&#45;&gt;Node2</title>
<path fill="none" stroke="#9a32cd" stroke-dasharray="5,2" d="M173.454,-457.987C173.483,-443.011 175.975,-423.263 187,-410 200.022,-394.335 222.361,-387.128 239.804,-383.815"/>
<polygon fill="#9a32cd" stroke="#9a32cd" points="169.967,-458.449 173.81,-468.322 176.963,-458.207 169.967,-458.449"/>
<text text-anchor="middle" x="220.5" y="-427.5" font-family="FreeSans.ttf" font-size="10.00"> m_descriptor</text>
</g>
<!-- Node4 -->
<g id="node6" class="node"><title>Node4</title>
<a xlink:title="STL class.">
<polygon fill="white" stroke="#bfbfbf" points="36.5,-468.5 36.5,-489.5 101.5,-489.5 101.5,-468.5 36.5,-468.5"/>
<text text-anchor="middle" x="69" y="-476.5" font-family="FreeSans.ttf" font-size="10.00">std::string</text>
</a>
</g>
<!-- Node4&#45;&gt;Node2 -->
<g id="edge6" class="edge"><title>Node4&#45;&gt;Node2</title>
<path fill="none" stroke="#9a32cd" stroke-dasharray="5,2" d="M73.7051,-458.565C78.4236,-442.82 87.3067,-421.808 103,-410 124.176,-394.067 199.723,-385.998 239.727,-382.762"/>
<polygon fill="#9a32cd" stroke="#9a32cd" points="70.2652,-457.881 71.0714,-468.445 77.029,-459.684 70.2652,-457.881"/>
<text text-anchor="middle" x="136.5" y="-427.5" font-family="FreeSans.ttf" font-size="10.00"> m_hostname</text>
</g>
<!-- Node4&#45;&gt;Node9 -->
<g id="edge32" class="edge"><title>Node4&#45;&gt;Node9</title>
<path fill="none" stroke="#9a32cd" stroke-dasharray="5,2" d="M63.3333,-458.507C58.3888,-438.803 52,-408.1 52,-381 52,-381 52,-381 52,-155 52,-125.875 252.969,-98.0993 339.323,-87.509"/>
<polygon fill="#9a32cd" stroke="#9a32cd" points="59.9606,-459.444 65.8819,-468.23 66.7318,-457.669 59.9606,-459.444"/>
<text text-anchor="middle" x="77" y="-252" font-family="FreeSans.ttf" font-size="10.00"> m_output</text>
<text text-anchor="middle" x="77" y="-239" font-family="FreeSans.ttf" font-size="10.00">m_input</text>
</g>
<!-- Node5 -->
<g id="node8" class="node"><title>Node5</title>
<a xlink:title="STL class.">
<polygon fill="white" stroke="#bfbfbf" points="0,-528.5 0,-549.5 138,-549.5 138,-528.5 0,-528.5"/>
<text text-anchor="middle" x="69" y="-536.5" font-family="FreeSans.ttf" font-size="10.00">std::basic_string&lt; char &gt;</text>
</a>
</g>
<!-- Node5&#45;&gt;Node4 -->
<g id="edge8" class="edge"><title>Node5&#45;&gt;Node4</title>
<path fill="none" stroke="midnightblue" d="M69,-518.231C69,-508.592 69,-497.544 69,-489.634"/>
<polygon fill="midnightblue" stroke="midnightblue" points="65.5001,-518.273 69,-528.273 72.5001,-518.273 65.5001,-518.273"/>
</g>
<!-- Node6 -->
<g id="node10" class="node"><title>Node6</title>
<polygon fill="white" stroke="#bfbfbf" points="315.5,-468.5 315.5,-489.5 390.5,-489.5 390.5,-468.5 315.5,-468.5"/>
<text text-anchor="middle" x="353" y="-476.5" font-family="FreeSans.ttf" font-size="10.00">unsigned int</text>
</g>
<!-- Node6&#45;&gt;Node2 -->
<g id="edge10" class="edge"><title>Node6&#45;&gt;Node2</title>
<path fill="none" stroke="#9a32cd" stroke-dasharray="5,2" d="M305.684,-468.428C288.124,-463.476 271.196,-457.101 266,-450 253.406,-432.791 257.842,-406.155 261.714,-391.521"/>
<polygon fill="#9a32cd" stroke="#9a32cd" points="304.87,-471.833 315.434,-471.029 306.674,-465.07 304.87,-471.833"/>
<text text-anchor="middle" x="302.5" y="-440.5" font-family="FreeSans.ttf" font-size="10.00"> m_bytes_sent</text>
<text text-anchor="middle" x="302.5" y="-427.5" font-family="FreeSans.ttf" font-size="10.00">m_port</text>
<text text-anchor="middle" x="302.5" y="-414.5" font-family="FreeSans.ttf" font-size="10.00">m_bytes_recvd</text>
</g>
<!-- Node6&#45;&gt;Node7 -->
<g id="edge44" class="edge"><title>Node6&#45;&gt;Node7</title>
<path fill="none" stroke="#9a32cd" stroke-dasharray="5,2" d="M377.868,-462.513C431.591,-425.197 557.399,-328.251 604,-210 608.237,-199.249 610.42,-193.608 604,-184 593.842,-168.797 574.078,-161.553 558.134,-158.108"/>
<polygon fill="#9a32cd" stroke="#9a32cd" points="375.569,-459.844 369.297,-468.383 379.525,-465.62 375.569,-459.844"/>
<text text-anchor="middle" x="599.5" y="-342.5" font-family="FreeSans.ttf" font-size="10.00"> m_dir_close</text>
<text text-anchor="middle" x="599.5" y="-329.5" font-family="FreeSans.ttf" font-size="10.00">m_socket_close</text>
<text text-anchor="middle" x="599.5" y="-316.5" font-family="FreeSans.ttf" font-size="10.00">m_port</text>
<text text-anchor="middle" x="599.5" y="-303.5" font-family="FreeSans.ttf" font-size="10.00">m_dir_open</text>
<text text-anchor="middle" x="599.5" y="-290.5" font-family="FreeSans.ttf" font-size="10.00">m_socket_open</text>
</g>
<!-- Node6&#45;&gt;Node9 -->
<g id="edge34" class="edge"><title>Node6&#45;&gt;Node9</title>
<path fill="none" stroke="#9a32cd" stroke-dasharray="5,2" d="M349.62,-458.374C343.098,-415.365 330.322,-313.034 341,-228 347.442,-176.702 366.226,-117.538 374.272,-93.735"/>
<polygon fill="#9a32cd" stroke="#9a32cd" points="346.19,-459.092 351.198,-468.429 353.105,-458.007 346.19,-459.092"/>
<text text-anchor="middle" x="367.5" y="-258.5" font-family="FreeSans.ttf" font-size="10.00"> m_idle</text>
<text text-anchor="middle" x="367.5" y="-245.5" font-family="FreeSans.ttf" font-size="10.00">m_security</text>
<text text-anchor="middle" x="367.5" y="-232.5" font-family="FreeSans.ttf" font-size="10.00">m_state</text>
</g>
<!-- Node7&#45;&gt;Node1 -->
<g id="edge12" class="edge"><title>Node7&#45;&gt;Node1</title>
<path fill="none" stroke="#9a32cd" stroke-dasharray="5,2" d="M507.489,-172.439C504.071,-175.854 501.052,-179.722 499,-184 490.734,-201.233 493.124,-224.2 495.582,-237.416"/>
<polygon fill="#9a32cd" stroke="#9a32cd" points="510.05,-174.855 515.39,-165.704 505.509,-169.528 510.05,-174.855"/>
<text text-anchor="middle" x="523.5" y="-194.5" font-family="FreeSans.ttf" font-size="10.00"> m_server</text>
</g>
<!-- Node7&#45;&gt;Node9 -->
<g id="edge20" class="edge"><title>Node7&#45;&gt;Node9</title>
<path fill="none" stroke="#9a32cd" stroke-dasharray="5,2" d="M501.847,-140.212C491.951,-135.657 481.025,-130.625 471,-126 447.095,-114.972 419.747,-102.323 400.926,-93.6135"/>
<polygon fill="#9a32cd" stroke="#9a32cd" points="500.408,-143.403 510.955,-144.403 503.334,-137.044 500.408,-143.403"/>
<text text-anchor="middle" x="495.5" y="-116.5" font-family="FreeSans.ttf" font-size="10.00"> m_server</text>
</g>
<!-- Node8 -->
<g id="node14" class="node"><title>Node8</title>
<polygon fill="white" stroke="#bfbfbf" points="463,-0.5 463,-21.5 605,-21.5 605,-0.5 463,-0.5"/>
<text text-anchor="middle" x="534" y="-8.5" font-family="FreeSans.ttf" font-size="10.00">std::list&lt; SocketClient * &gt;</text>
</g>
<!-- Node8&#45;&gt;Node7 -->
<g id="edge14" class="edge"><title>Node8&#45;&gt;Node7</title>
<path fill="none" stroke="#9a32cd" stroke-dasharray="5,2" d="M534,-31.6864C534,-62.7364 534,-120.292 534,-144.177"/>
<polygon fill="#9a32cd" stroke="#9a32cd" points="537.5,-31.5576 534,-21.5577 530.5,-31.5577 537.5,-31.5576"/>
<text text-anchor="middle" x="587.5" y="-80.5" font-family="FreeSans.ttf" font-size="10.00"> m_socket_client_next</text>
</g>
<!-- Node9&#45;&gt;Node8 -->
<g id="edge16" class="edge"><title>Node9&#45;&gt;Node8</title>
<path fill="none" stroke="#9a32cd" stroke-dasharray="5,2" d="M410.327,-68.0367C428.209,-59.7639 450.83,-49.3052 471,-40 484.229,-33.8968 499.027,-27.0843 510.955,-21.5965"/>
<polygon fill="#9a32cd" stroke="#9a32cd" points="408.532,-65.0107 400.926,-72.3865 411.472,-71.3636 408.532,-65.0107"/>
<text text-anchor="middle" x="495.5" y="-44.5" font-family="FreeSans.ttf" font-size="10.00"> elements</text>
</g>
<!-- Node10 -->
<g id="node20" class="node"><title>Node10</title>
<polygon fill="white" stroke="#bfbfbf" points="675.5,-144.5 675.5,-165.5 866.5,-165.5 866.5,-144.5 675.5,-144.5"/>
<text text-anchor="middle" x="771" y="-152.5" font-family="FreeSans.ttf" font-size="10.00">std::deque&lt; pair&lt; string, string &gt; &gt;</text>
</g>
<!-- Node10&#45;&gt;Node9 -->
<g id="edge22" class="edge"><title>Node10&#45;&gt;Node9</title>
<path fill="none" stroke="#9a32cd" stroke-dasharray="5,2" d="M703.374,-142.61C620.628,-127.451 483.342,-102.299 416.687,-90.0877"/>
<polygon fill="#9a32cd" stroke="#9a32cd" points="702.967,-146.094 713.434,-144.453 704.228,-139.209 702.967,-146.094"/>
<text text-anchor="middle" x="660.5" y="-116.5" font-family="FreeSans.ttf" font-size="10.00"> m_command_queue</text>
</g>
<!-- Node11 -->
<g id="node22" class="node"><title>Node11</title>
<polygon fill="white" stroke="#bfbfbf" points="862.5,-237.5 862.5,-258.5 979.5,-258.5 979.5,-237.5 862.5,-237.5"/>
<text text-anchor="middle" x="921" y="-245.5" font-family="FreeSans.ttf" font-size="10.00">pair&lt; string, string &gt;</text>
</g>
<!-- Node11&#45;&gt;Node10 -->
<g id="edge24" class="edge"><title>Node11&#45;&gt;Node10</title>
<path fill="none" stroke="#9a32cd" stroke-dasharray="5,2" d="M919.025,-226.911C916.588,-212.805 911.145,-194.896 899,-184 890.393,-176.278 868.489,-170.12 845.186,-165.501"/>
<polygon fill="#9a32cd" stroke="#9a32cd" points="915.607,-227.757 920.407,-237.202 922.545,-226.825 915.607,-227.757"/>
<text text-anchor="middle" x="938.5" y="-194.5" font-family="FreeSans.ttf" font-size="10.00"> elements</text>
</g>
<!-- Node12 -->
<g id="node24" class="node"><title>Node12</title>
<a xlink:title="STL class.">
<polygon fill="white" stroke="#bfbfbf" points="741.5,-237.5 741.5,-258.5 836.5,-258.5 836.5,-237.5 741.5,-237.5"/>
<text text-anchor="middle" x="789" y="-245.5" font-family="FreeSans.ttf" font-size="10.00">std::deque&lt; T &gt;</text>
</a>
</g>
<!-- Node12&#45;&gt;Node10 -->
<g id="edge26" class="edge"><title>Node12&#45;&gt;Node10</title>
<path fill="none" stroke="orange" stroke-dasharray="5,2" d="M778.279,-228.059C775.729,-222.382 773.357,-216.084 772,-210 768.632,-194.9 769.126,-176.886 769.943,-165.693"/>
<polygon fill="orange" stroke="orange" points="775.329,-229.993 782.878,-237.427 781.612,-226.908 775.329,-229.993"/>
<text text-anchor="middle" x="835.5" y="-194.5" font-family="FreeSans.ttf" font-size="10.00"> &lt; pair&lt; string, string &gt; &gt;</text>
</g>
<!-- Node13 -->
<g id="node26" class="node"><title>Node13</title>
<polygon fill="white" stroke="#bfbfbf" points="921.5,-370.5 921.5,-391.5 950.5,-391.5 950.5,-370.5 921.5,-370.5"/>
<text text-anchor="middle" x="936" y="-378.5" font-family="FreeSans.ttf" font-size="10.00">T</text>
</g>
<!-- Node13&#45;&gt;Node12 -->
<g id="edge28" class="edge"><title>Node13&#45;&gt;Node12</title>
<path fill="none" stroke="#9a32cd" stroke-dasharray="5,2" d="M916.668,-363.509C885.766,-335.551 826.155,-281.616 800.837,-258.71"/>
<polygon fill="#9a32cd" stroke="#9a32cd" points="914.455,-366.227 924.219,-370.341 919.152,-361.036 914.455,-366.227"/>
<text text-anchor="middle" x="924.5" y="-316.5" font-family="FreeSans.ttf" font-size="10.00"> elements</text>
</g>
<!-- Node15 -->
<g id="node32" class="node"><title>Node15</title>
<a xlink:title="STL class.">
<polygon fill="white" stroke="#bfbfbf" points="974.5,-186.5 974.5,-207.5 1053.5,-207.5 1053.5,-186.5 974.5,-186.5"/>
<text text-anchor="middle" x="1014" y="-194.5" font-family="FreeSans.ttf" font-size="10.00">std::list&lt; T &gt;</text>
</a>
</g>
<!-- Node13&#45;&gt;Node15 -->
<g id="edge38" class="edge"><title>Node13&#45;&gt;Node15</title>
<path fill="none" stroke="#9a32cd" stroke-dasharray="5,2" d="M947.889,-361.543C949.674,-358.392 951.438,-355.134 953,-352 979.064,-299.722 1001.98,-233.439 1010.48,-207.802"/>
<polygon fill="#9a32cd" stroke="#9a32cd" points="944.703,-360.055 942.65,-370.449 950.737,-363.604 944.703,-360.055"/>
<text text-anchor="middle" x="1005.5" y="-316.5" font-family="FreeSans.ttf" font-size="10.00"> elements</text>
</g>
<!-- Node14 -->
<g id="node28" class="node"><title>Node14</title>
<polygon fill="white" stroke="#bfbfbf" points="402.5,-237.5 402.5,-258.5 439.5,-258.5 439.5,-237.5 402.5,-237.5"/>
<text text-anchor="middle" x="421" y="-245.5" font-family="FreeSans.ttf" font-size="10.00">bool</text>
</g>
<!-- Node14&#45;&gt;Node7 -->
<g id="edge42" class="edge"><title>Node14&#45;&gt;Node7</title>
<path fill="none" stroke="#9a32cd" stroke-dasharray="5,2" d="M416.533,-227.105C414.864,-213.372 415.311,-195.822 425,-184 435.675,-170.975 481.21,-162.362 509.943,-158.111"/>
<polygon fill="#9a32cd" stroke="#9a32cd" points="413.104,-227.824 418.189,-237.119 420.01,-226.682 413.104,-227.824"/>
<text text-anchor="middle" x="457" y="-194.5" font-family="FreeSans.ttf" font-size="10.00"> m_shutdown</text>
</g>
<!-- Node14&#45;&gt;Node9 -->
<g id="edge30" class="edge"><title>Node14&#45;&gt;Node9</title>
<path fill="none" stroke="#9a32cd" stroke-dasharray="5,2" d="M415.635,-227.415C406.398,-191.969 387.804,-120.62 380.776,-93.6515"/>
<polygon fill="#9a32cd" stroke="#9a32cd" points="412.27,-228.38 418.179,-237.174 419.044,-226.614 412.27,-228.38"/>
<text text-anchor="middle" x="426.5" y="-152.5" font-family="FreeSans.ttf" font-size="10.00"> m_quitting</text>
</g>
<!-- Node15&#45;&gt;Node8 -->
<g id="edge36" class="edge"><title>Node15&#45;&gt;Node8</title>
<path fill="none" stroke="orange" stroke-dasharray="5,2" d="M977.293,-182.776C884.584,-146.851 642.598,-53.0819 561.181,-21.5326"/>
<polygon fill="orange" stroke="orange" points="976.229,-186.117 986.818,-186.467 978.758,-179.59 976.229,-186.117"/>
<text text-anchor="middle" x="872" y="-116.5" font-family="FreeSans.ttf" font-size="10.00"> &lt; SocketClient * &gt;</text>
</g>
<!-- Node16 -->
<g id="node35" class="node"><title>Node16</title>
<polygon fill="white" stroke="#bfbfbf" points="663,-237.5 663,-258.5 715,-258.5 715,-237.5 663,-237.5"/>
<text text-anchor="middle" x="689" y="-245.5" font-family="FreeSans.ttf" font-size="10.00">timeval</text>
</g>
<!-- Node16&#45;&gt;Node7 -->
<g id="edge40" class="edge"><title>Node16&#45;&gt;Node7</title>
<path fill="none" stroke="#9a32cd" stroke-dasharray="5,2" d="M680.393,-228.066C673.207,-213.737 661.621,-195.064 646,-184 631.986,-174.074 586.721,-164.469 558.208,-159.185"/>
<polygon fill="#9a32cd" stroke="#9a32cd" points="677.238,-229.584 684.659,-237.146 683.574,-226.607 677.238,-229.584"/>
<text text-anchor="middle" x="709" y="-201" font-family="FreeSans.ttf" font-size="10.00"> m_time_current</text>
<text text-anchor="middle" x="709" y="-188" font-family="FreeSans.ttf" font-size="10.00">m_time_boot</text>
</g>
</g>
</svg>
        <g id="navigator" transform="translate(0 0)" fill="#404254">
                <rect fill="#f2f5e9" fill-opacity="0.5" stroke="#606060" stroke-width=".5" x="0" y="0" width="60" height="60"/>
                <use id="zoomplus" xlink:href="#zoomPlus" x="17" y="9" onmousedown="handleZoom(evt,'in')"/>
                <use id="zoomminus" xlink:href="#zoomMin" x="42" y="9" onmousedown="handleZoom(evt,'out')"/>
                <use id="reset" xlink:href="#resetDef" x="30" y="36" onmousedown="handleReset()"/>
                <g id="arrowUp" xlink:href="#dirArrow" transform="translate(30 24)" onmousedown="handlePan(0,-1)">
                  <use xlink:href="#rim" fill="#404040">
                        <set attributeName="fill" to="#808080" begin="arrowUp.mouseover" end="arrowUp.mouseout"/>
                  </use>
                  <path fill="none" stroke="white" stroke-width="1.5" d="M0,-3.0v7 M-2.5,-0.5L0,-3.0L2.5,-0.5"/>
                </g>
                <g id="arrowRight" xlink:href="#dirArrow" transform="rotate(90) translate(36 -43)" onmousedown="handlePan(1,0)">
                  <use xlink:href="#rim" fill="#404040">
                        <set attributeName="fill" to="#808080" begin="arrowRight.mouseover" end="arrowRight.mouseout"/>
                  </use>
                  <path fill="none" stroke="white" stroke-width="1.5" d="M0,-3.0v7 M-2.5,-0.5L0,-3.0L2.5,-0.5"/>
                </g>
                <g id="arrowDown" xlink:href="#dirArrow" transform="rotate(180) translate(-30 -48)" onmousedown="handlePan(0,1)">
                  <use xlink:href="#rim" fill="#404040">
                        <set attributeName="fill" to="#808080" begin="arrowDown.mouseover" end="arrowDown.mouseout"/>
                  </use>
                  <path fill="none" stroke="white" stroke-width="1.5" d="M0,-3.0v7 M-2.5,-0.5L0,-3.0L2.5,-0.5"/>
                </g>
                <g id="arrowLeft" xlink:href="#dirArrow" transform="rotate(270) translate(-36 17)" onmousedown="handlePan(-1,0)">
                  <use xlink:href="#rim" fill="#404040">
                        <set attributeName="fill" to="#808080" begin="arrowLeft.mouseover" end="arrowLeft.mouseout"/>
                  </use>
                  <path fill="none" stroke="white" stroke-width="1.5" d="M0,-3.0v7 M-2.5,-0.5L0,-3.0L2.5,-0.5"/>
                </g>
        </g>
</svg>
