<?xml version="1.0" encoding="UTF-8" standalone="no"?>
<!DOCTYPE svg PUBLIC "-//W3C//DTD SVG 1.1//EN"
 "http://www.w3.org/Graphics/SVG/1.1/DTD/svg11.dtd">
<!-- Generated by graphviz version 2.26.3 (20100126.1600)
 -->
<!-- Title: G Pages: 1 -->
<!--zoomable 622 -->
<svg id="main" version="1.1" xmlns="http://www.w3.org/2000/svg" xmlns:xlink="http://www.w3.org/1999/xlink" xml:space="preserve" onload="init(evt)">
        <defs>
                <circle id="rim" cx="0" cy="0" r="7"/>
                <circle id="rim2" cx="0" cy="0" r="3.5"/>
                <g id="zoomPlus">
                        <use xlink:href="#rim" fill="#404040">
                                <set attributeName="fill" to="#808080" begin="zoomplus.mouseover" end="zoomplus.mouseout"/>
                        </use>
                        <path d="M-4,0h8M0,-4v8" fill="none" stroke="white" stroke-width="1.5" pointer-events="none"/>
                </g>
                <g id="zoomMin">
                        <use xlink:href="#rim" fill="#404040">
                                <set attributeName="fill" to="#808080" begin="zoomminus.mouseover" end="zoomminus.mouseout"/>
                        </use>
                        <path d="M-4,0h8" fill="none" stroke="white" stroke-width="1.5" pointer-events="none"/>
                </g>
                <g id="dirArrow">
                        <path fill="none" stroke="white" stroke-width="1.5" d="M0,-3.0v7 M-2.5,-0.5L0,-3.0L2.5,-0.5"/>
                </g>
               <g id="resetDef">
                       <use xlink:href="#rim2" fill="#404040">
                               <set attributeName="fill" to="#808080" begin="reset.mouseover" end="reset.mouseout"/>
                       </use>
               </g>
        </defs>

<script type="text/javascript">
var viewWidth = 1382;
var viewHeight = 622;
var sectionId = 'dynsection-10';
</script>
<script xlink:href="svgpan.js"/>
<svg id="graph" class="graph">
<g id="viewport">
<title>G</title>
<polygon fill="white" stroke="white" points="-4,5 -4,-618.163 1379,-618.163 1379,5 -4,5"/>
<!-- Node1 -->
<g id="node1" class="node"><title>Node1</title>
<polygon fill="#bfbfbf" stroke="black" points="0,-259.5 0,-280.5 114,-280.5 114,-259.5 0,-259.5"/>
<text text-anchor="middle" x="57" y="-267.5" font-family="FreeSans.ttf" font-size="10.00">Character::sAccount</text>
</g>
<!-- Node2 -->
<g id="node3" class="node"><title>Node2</title>
<a xlink:href="namespaceHandler.xhtml#ae660d7a3f4c95db9639d74e965e82df6" target="_top" xlink:title="Reconnects an existing in&#45;game Character to a new SocketClient.">
<polygon fill="white" stroke="black" points="150,-279.5 150,-300.5 260,-300.5 260,-279.5 150,-279.5"/>
<text text-anchor="middle" x="205" y="-287.5" font-family="FreeSans.ttf" font-size="10.00">Handler::Reconnect</text>
</a>
</g>
<!-- Node1&#45;&gt;Node2 -->
<g id="edge2" class="edge"><title>Node1&#45;&gt;Node2</title>
<path fill="none" stroke="midnightblue" d="M124.216,-279.083C132.803,-280.244 141.512,-281.421 149.877,-282.551"/>
<polygon fill="midnightblue" stroke="midnightblue" points="124.599,-275.603 114.221,-277.733 123.662,-282.54 124.599,-275.603"/>
</g>
<!-- Node3 -->
<g id="node5" class="node"><title>Node3</title>
<a xlink:href="namespaceHandler.xhtml#ae70e4e50054c729c14493eafefe01b5c" target="_top" xlink:title="Load a character from the account to enter into the game with.">
<polygon fill="white" stroke="black" points="296.5,-260.5 296.5,-281.5 427.5,-281.5 427.5,-260.5 296.5,-260.5"/>
<text text-anchor="middle" x="362" y="-268.5" font-family="FreeSans.ttf" font-size="10.00">Handler::LoadCharacter</text>
</a>
</g>
<!-- Node1&#45;&gt;Node3 -->
<g id="edge86" class="edge"><title>Node1&#45;&gt;Node3</title>
<path fill="none" stroke="midnightblue" d="M124.363,-269.835C163.878,-269.779 214.773,-269.778 260,-270 271.776,-270.058 284.317,-270.153 296.431,-270.262"/>
<polygon fill="midnightblue" stroke="midnightblue" points="124.308,-266.335 114.313,-269.85 124.319,-273.335 124.308,-266.335"/>
</g>
<!-- Node9 -->
<g id="node21" class="node"><title>Node9</title>
<a xlink:href="namespaceHandler.xhtml#ab5889a65de2794129b375ec39ae923ae" target="_top" xlink:title="Select a new Character name.">
<polygon fill="white" stroke="black" points="633.5,-0.5 633.5,-21.5 802.5,-21.5 802.5,-0.5 633.5,-0.5"/>
<text text-anchor="middle" x="718" y="-8.5" font-family="FreeSans.ttf" font-size="10.00">Handler::CharacterCreateName</text>
</a>
</g>
<!-- Node1&#45;&gt;Node9 -->
<g id="edge84" class="edge"><title>Node1&#45;&gt;Node9</title>
<path fill="none" stroke="midnightblue" d="M87.24,-254.83C170.722,-213.488 412.242,-97.4985 624,-31 635.461,-27.4008 647.911,-24.2442 659.887,-21.5658"/>
<polygon fill="midnightblue" stroke="midnightblue" points="85.4768,-251.798 78.0787,-259.382 88.5916,-258.067 85.4768,-251.798"/>
</g>
<!-- Node23 -->
<g id="node59" class="node"><title>Node23</title>
<a xlink:href="namespaceServer.xhtml#a39dbe16fdc8c5f6fbd678c6540fbcd6c" target="_top" xlink:title="Poll all SocketClient objects that are communicating with the associated SocketServer object...">
<polygon fill="white" stroke="black" points="1057.5,-518.5 1057.5,-539.5 1166.5,-539.5 1166.5,-518.5 1057.5,-518.5"/>
<text text-anchor="middle" x="1112" y="-526.5" font-family="FreeSans.ttf" font-size="10.00">Server::PollSockets</text>
</a>
</g>
<!-- Node1&#45;&gt;Node23 -->
<g id="edge88" class="edge"><title>Node1&#45;&gt;Node23</title>
<path fill="none" stroke="midnightblue" d="M63.8515,-290.343C89.8668,-363.37 189.86,-608 362,-608 362,-608 362,-608 718,-608 851.6,-608 891.001,-630.478 1018,-589 1050.57,-578.361 1083.04,-553.751 1099.98,-539.575"/>
<polygon fill="midnightblue" stroke="midnightblue" points="67.1443,-289.156 60.5502,-280.863 60.5337,-291.458 67.1443,-289.156"/>
</g>
<!-- Node2&#45;&gt;Node3 -->
<g id="edge4" class="edge"><title>Node2&#45;&gt;Node3</title>
<path fill="none" stroke="midnightblue" d="M270.336,-282.093C278.949,-281.051 287.778,-279.982 296.395,-278.939"/>
<polygon fill="midnightblue" stroke="midnightblue" points="269.859,-278.625 260.352,-283.301 270.7,-285.574 269.859,-278.625"/>
</g>
<!-- Node4 -->
<g id="node7" class="node"><title>Node4</title>
<a xlink:href="namespaceHandler.xhtml#a139febc000c9d767a620708148e0c888" target="_top" xlink:title="Dispatches the appropriate menu based on client state.">
<polygon fill="white" stroke="black" points="464.5,-260.5 464.5,-281.5 587.5,-281.5 587.5,-260.5 464.5,-260.5"/>
<text text-anchor="middle" x="526" y="-268.5" font-family="FreeSans.ttf" font-size="10.00">Handler::LoginHandler</text>
</a>
</g>
<!-- Node3&#45;&gt;Node4 -->
<g id="edge6" class="edge"><title>Node3&#45;&gt;Node4</title>
<path fill="none" stroke="midnightblue" d="M437.79,-264.267C446.73,-264.218 455.77,-264.275 464.48,-264.441"/>
<polygon fill="midnightblue" stroke="midnightblue" points="437.724,-260.768 427.76,-264.369 437.795,-267.767 437.724,-260.768"/>
</g>
<!-- Node4&#45;&gt;Node3 -->
<g id="edge56" class="edge"><title>Node4&#45;&gt;Node3</title>
<path fill="none" stroke="midnightblue" d="M454.242,-277.703C445.436,-277.784 436.471,-277.76 427.76,-277.631"/>
<polygon fill="midnightblue" stroke="midnightblue" points="454.531,-281.199 464.48,-277.559 454.432,-274.2 454.531,-281.199"/>
</g>
<!-- Node5 -->
<g id="node9" class="node"><title>Node5</title>
<a xlink:href="namespaceHandler.xhtml#a33a19d69ead678af81fbe96907eceaf0" target="_top" xlink:title="Create a new account object, or load an existing one, with a name and password.">
<polygon fill="white" stroke="black" points="652.5,-360.5 652.5,-381.5 783.5,-381.5 783.5,-360.5 652.5,-360.5"/>
<text text-anchor="middle" x="718" y="-368.5" font-family="FreeSans.ttf" font-size="10.00">Handler::AttachAccount</text>
</a>
</g>
<!-- Node4&#45;&gt;Node5 -->
<g id="edge8" class="edge"><title>Node4&#45;&gt;Node5</title>
<path fill="none" stroke="midnightblue" d="M549.589,-288.381C568.142,-304.81 595.536,-328.351 624,-342 644.009,-351.595 668.599,-356.618 687.61,-360.493"/>
<polygon fill="midnightblue" stroke="midnightblue" points="551.762,-285.629 541.959,-281.609 547.115,-290.865 551.762,-285.629"/>
</g>
<!-- Node6 -->
<g id="node12" class="node"><title>Node6</title>
<a xlink:href="namespaceHandler.xhtml#a2e4ebf6ed049eb872aa4948d54c4932c" target="_top" xlink:title="Attempt to write a new character to disk after creation was completed.">
<polygon fill="white" stroke="black" points="648.5,-320.5 648.5,-341.5 787.5,-341.5 787.5,-320.5 648.5,-320.5"/>
<text text-anchor="middle" x="718" y="-328.5" font-family="FreeSans.ttf" font-size="10.00">Handler::AttachCharacter</text>
</a>
</g>
<!-- Node4&#45;&gt;Node6 -->
<g id="edge12" class="edge"><title>Node4&#45;&gt;Node6</title>
<path fill="none" stroke="midnightblue" d="M577.367,-285.334C592.219,-291.062 608.584,-297.255 624,-302 648.398,-309.509 677.209,-315.187 696.443,-320.461"/>
<polygon fill="midnightblue" stroke="midnightblue" points="578.441,-281.996 567.852,-281.657 575.918,-288.526 578.441,-281.996"/>
</g>
<!-- Node7 -->
<g id="node15" class="node"><title>Node7</title>
<a xlink:href="namespaceHandler.xhtml#a73ed6064f2698dbffb5f4c247a02b661" target="_top" xlink:title="Send initial account interface menu.">
<polygon fill="white" stroke="black" points="644,-280.5 644,-301.5 792,-301.5 792,-280.5 644,-280.5"/>
<text text-anchor="middle" x="718" y="-288.5" font-family="FreeSans.ttf" font-size="10.00">Handler::AccountMenuMain</text>
</a>
</g>
<!-- Node4&#45;&gt;Node7 -->
<g id="edge16" class="edge"><title>Node4&#45;&gt;Node7</title>
<path fill="none" stroke="midnightblue" d="M597.799,-271.923C622.988,-274.135 650.555,-277.251 672.928,-280.482"/>
<polygon fill="midnightblue" stroke="midnightblue" points="597.8,-268.411 587.542,-271.063 597.215,-275.387 597.8,-268.411"/>
</g>
<!-- Node8 -->
<g id="node18" class="node"><title>Node8</title>
<a xlink:href="namespaceHandler.xhtml#ad04998a7a6ece2486bc441052a57c2d7" target="_top" xlink:title="Main Character creation menu.">
<polygon fill="white" stroke="black" points="624,-240.5 624,-261.5 812,-261.5 812,-240.5 624,-240.5"/>
<text text-anchor="middle" x="718" y="-248.5" font-family="FreeSans.ttf" font-size="10.00">Handler::CharacterCreateMenuMain</text>
</a>
</g>
<!-- Node4&#45;&gt;Node8 -->
<g id="edge20" class="edge"><title>Node4&#45;&gt;Node8</title>
<path fill="none" stroke="midnightblue" d="M580.975,-259.104C594.362,-257.307 609.061,-255.583 623.706,-254.073"/>
<polygon fill="midnightblue" stroke="midnightblue" points="580.437,-255.645 571.015,-260.49 581.403,-262.578 580.437,-255.645"/>
</g>
<!-- Node4&#45;&gt;Node9 -->
<g id="edge24" class="edge"><title>Node4&#45;&gt;Node9</title>
<path fill="none" stroke="midnightblue" d="M545.24,-254.978C559.346,-246.007 577.755,-234.068 588,-218 635.617,-143.321 562.255,-85.4976 624,-22 626.792,-19.1292 629.886,-16.6208 633.202,-14.4397"/>
<polygon fill="midnightblue" stroke="midnightblue" points="543.238,-252.104 536.721,-260.458 547.025,-257.991 543.238,-252.104"/>
</g>
<!-- Node10 -->
<g id="node24" class="node"><title>Node10</title>
<a xlink:href="namespaceHandler.xhtml#ae5086bcf5857eb572beedd09158c3065" target="_top" xlink:title="Select a new Character sex.">
<polygon fill="white" stroke="black" points="639,-200.5 639,-221.5 797,-221.5 797,-200.5 639,-200.5"/>
<text text-anchor="middle" x="718" y="-208.5" font-family="FreeSans.ttf" font-size="10.00">Handler::CharacterCreateSex</text>
</a>
</g>
<!-- Node4&#45;&gt;Node10 -->
<g id="edge28" class="edge"><title>Node4&#45;&gt;Node10</title>
<path fill="none" stroke="midnightblue" d="M545.21,-255.157C564.704,-244.086 595.926,-230.641 624,-222 628.784,-220.528 633.738,-219.126 638.755,-217.812"/>
<polygon fill="midnightblue" stroke="midnightblue" points="543.368,-252.181 536.647,-260.371 547.009,-258.16 543.368,-252.181"/>
</g>
<!-- Node11 -->
<g id="node27" class="node"><title>Node11</title>
<a xlink:href="namespaceHandler.xhtml#a97a198bfc72285b2aca4f36978db715e" target="_top" xlink:title="Main Character deletion confirmation.">
<polygon fill="white" stroke="black" points="630,-160.5 630,-181.5 806,-181.5 806,-160.5 630,-160.5"/>
<text text-anchor="middle" x="718" y="-168.5" font-family="FreeSans.ttf" font-size="10.00">Handler::CharacterDeleteConfirm</text>
</a>
</g>
<!-- Node4&#45;&gt;Node11 -->
<g id="edge32" class="edge"><title>Node4&#45;&gt;Node11</title>
<path fill="none" stroke="midnightblue" d="M541.857,-253.557C554.716,-243.319 573.088,-230.593 588,-218 605.288,-203.401 604.116,-192.799 624,-182 625.906,-180.965 627.861,-179.983 629.855,-179.054"/>
<polygon fill="midnightblue" stroke="midnightblue" points="539.343,-251.098 533.946,-260.215 543.851,-256.454 539.343,-251.098"/>
</g>
<!-- Node12 -->
<g id="node30" class="node"><title>Node12</title>
<a xlink:href="namespaceHandler.xhtml#afc470ec6e82b7a9a1560588a368734f9" target="_top" xlink:title="Main Character deletion menu.">
<polygon fill="white" stroke="black" points="624,-120.5 624,-141.5 812,-141.5 812,-120.5 624,-120.5"/>
<text text-anchor="middle" x="718" y="-128.5" font-family="FreeSans.ttf" font-size="10.00">Handler::CharacterDeleteMenuMain</text>
</a>
</g>
<!-- Node4&#45;&gt;Node12 -->
<g id="edge36" class="edge"><title>Node4&#45;&gt;Node12</title>
<path fill="none" stroke="midnightblue" d="M544.028,-254.189C557.537,-244.768 575.732,-232.625 588,-218 612.021,-189.365 594.682,-165.181 624,-142 624.131,-141.897 624.262,-141.794 624.394,-141.691"/>
<polygon fill="midnightblue" stroke="midnightblue" points="541.636,-251.598 535.555,-260.273 545.719,-257.284 541.636,-251.598"/>
</g>
<!-- Node13 -->
<g id="node33" class="node"><title>Node13</title>
<a xlink:href="namespaceHandler.xhtml#a02b1b954749641ab646f6548a5360d3b" target="_top" xlink:title="Main Character load menu.">
<polygon fill="white" stroke="black" points="628.5,-80.5 628.5,-101.5 807.5,-101.5 807.5,-80.5 628.5,-80.5"/>
<text text-anchor="middle" x="718" y="-88.5" font-family="FreeSans.ttf" font-size="10.00">Handler::CharacterLoadMenuMain</text>
</a>
</g>
<!-- Node4&#45;&gt;Node13 -->
<g id="edge40" class="edge"><title>Node4&#45;&gt;Node13</title>
<path fill="none" stroke="midnightblue" d="M544.704,-254.613C558.527,-245.449 576.815,-233.429 588,-218 619.683,-174.295 584.128,-138.389 624,-102 625.356,-100.763 626.768,-99.595 628.231,-98.4936"/>
<polygon fill="midnightblue" stroke="midnightblue" points="542.715,-251.733 536.385,-260.23 546.632,-257.535 542.715,-251.733"/>
</g>
<!-- Node14 -->
<g id="node36" class="node"><title>Node14</title>
<a xlink:href="namespaceHandler.xhtml#a00bc24564bfd267e0329643c569da1e4" target="_top" xlink:title="Select a new account name.">
<polygon fill="white" stroke="black" points="649.5,-40.5 649.5,-61.5 786.5,-61.5 786.5,-40.5 649.5,-40.5"/>
<text text-anchor="middle" x="718" y="-48.5" font-family="FreeSans.ttf" font-size="10.00">Handler::GetNewAccount</text>
</a>
</g>
<!-- Node4&#45;&gt;Node14 -->
<g id="edge44" class="edge"><title>Node4&#45;&gt;Node14</title>
<path fill="none" stroke="midnightblue" d="M545.035,-254.843C559.032,-245.801 577.395,-233.832 588,-218 627.6,-158.882 573.256,-111.881 624,-62 631.02,-55.0992 639.797,-50.3169 649.149,-47.1534"/>
<polygon fill="midnightblue" stroke="midnightblue" points="543.039,-251.966 536.592,-260.374 546.875,-257.822 543.039,-251.966"/>
</g>
<!-- Node15 -->
<g id="node39" class="node"><title>Node15</title>
<a xlink:href="namespaceHandler.xhtml#a744adadcf407cdb3a9c33365afd5a7c2" target="_top" xlink:title="Create a new account.">
<polygon fill="white" stroke="black" points="647,-518.5 647,-539.5 789,-539.5 789,-518.5 647,-518.5"/>
<text text-anchor="middle" x="718" y="-526.5" font-family="FreeSans.ttf" font-size="10.00">Handler::GetNewPassword</text>
</a>
</g>
<!-- Node4&#45;&gt;Node15 -->
<g id="edge48" class="edge"><title>Node4&#45;&gt;Node15</title>
<path fill="none" stroke="midnightblue" d="M528.834,-291.876C535.665,-337.399 557.711,-444.739 624,-500 635.79,-509.829 651.247,-515.176 666.211,-518.412"/>
<polygon fill="midnightblue" stroke="midnightblue" points="532.263,-291.121 527.408,-281.704 525.331,-292.093 532.263,-291.121"/>
</g>
<!-- Node16 -->
<g id="node42" class="node"><title>Node16</title>
<a xlink:href="namespaceHandler.xhtml#adfe13cc9748392348f3941656a1323b6" target="_top" xlink:title="Compare a received password against an existing account.">
<polygon fill="white" stroke="black" points="649.5,-478.5 649.5,-499.5 786.5,-499.5 786.5,-478.5 649.5,-478.5"/>
<text text-anchor="middle" x="718" y="-486.5" font-family="FreeSans.ttf" font-size="10.00">Handler::GetOldPassword</text>
</a>
</g>
<!-- Node4&#45;&gt;Node16 -->
<g id="edge52" class="edge"><title>Node4&#45;&gt;Node16</title>
<path fill="none" stroke="midnightblue" d="M531.261,-291.653C541.324,-331.117 567.518,-416.126 624,-460 636.781,-469.928 653.372,-475.204 669.051,-478.417"/>
<polygon fill="midnightblue" stroke="midnightblue" points="534.626,-290.677 528.839,-281.802 527.828,-292.349 534.626,-290.677"/>
</g>
<!-- Node17 -->
<g id="node46" class="node"><title>Node17</title>
<a xlink:href="namespaceHandler.xhtml#a44b41bf69fdc6e615a029bea34910191" target="_top" xlink:title="Send initial greeting and request for account name.">
<polygon fill="white" stroke="black" points="658.5,-438.5 658.5,-459.5 777.5,-459.5 777.5,-438.5 658.5,-438.5"/>
<text text-anchor="middle" x="718" y="-446.5" font-family="FreeSans.ttf" font-size="10.00">Handler::LoginScreen</text>
</a>
</g>
<!-- Node4&#45;&gt;Node17 -->
<g id="edge58" class="edge"><title>Node4&#45;&gt;Node17</title>
<path fill="none" stroke="midnightblue" d="M535.786,-291.254C549.923,-322.775 579.362,-382.418 624,-415 641.868,-428.042 666.064,-434.283 685.432,-438.474"/>
<polygon fill="midnightblue" stroke="midnightblue" points="538.818,-289.457 531.578,-281.722 532.415,-292.283 538.818,-289.457"/>
</g>
<!-- Node18 -->
<g id="node49" class="node"><title>Node18</title>
<a xlink:href="classSocketClient.xhtml#a8399ef20292e9f3ec83b5c4bec2e105b" target="_top" xlink:title="Build a SocketClient for a new client connection and set all attributes.">
<polygon fill="white" stroke="black" points="666.5,-558.5 666.5,-579.5 769.5,-579.5 769.5,-558.5 666.5,-558.5"/>
<text text-anchor="middle" x="718" y="-566.5" font-family="FreeSans.ttf" font-size="10.00">SocketClient::New</text>
</a>
</g>
<!-- Node4&#45;&gt;Node18 -->
<g id="edge62" class="edge"><title>Node4&#45;&gt;Node18</title>
<path fill="none" stroke="midnightblue" d="M530.539,-291.684C543.738,-349.971 583.726,-513.623 624,-549 635.658,-559.24 651.251,-564.68 666.382,-567.455"/>
<polygon fill="midnightblue" stroke="midnightblue" points="533.925,-290.786 528.328,-281.79 527.094,-292.313 533.925,-290.786"/>
</g>
<!-- Node25 -->
<g id="node64" class="node"><title>Node25</title>
<a xlink:href="classSocketClient.xhtml#ad4f63c7d906310dc56a1217136047d7f" target="_top" xlink:title="Interpret the command at the front of the queue.">
<polygon fill="white" stroke="black" points="848,-419.5 848,-440.5 1018,-440.5 1018,-419.5 848,-419.5"/>
<text text-anchor="middle" x="933" y="-427.5" font-family="FreeSans.ttf" font-size="10.00">SocketClient::ProcessCommand</text>
</a>
</g>
<!-- Node4&#45;&gt;Node25 -->
<g id="edge78" class="edge"><title>Node4&#45;&gt;Node25</title>
<path fill="none" stroke="midnightblue" d="M535.829,-290.7C550.744,-318.29 581.877,-367.672 624,-391 661.309,-411.662 769.97,-421.669 847.88,-426.306"/>
<polygon fill="midnightblue" stroke="midnightblue" points="538.812,-288.851 531.077,-281.61 532.608,-292.093 538.812,-288.851"/>
</g>
<!-- Node5&#45;&gt;Node4 -->
<g id="edge10" class="edge"><title>Node5&#45;&gt;Node4</title>
<path fill="none" stroke="midnightblue" d="M642.389,-367.24C636.038,-365.199 629.825,-362.793 624,-360 583.6,-340.628 545.357,-301.329 531.487,-281.609"/>
<polygon fill="midnightblue" stroke="midnightblue" points="641.867,-370.732 652.446,-370.149 643.813,-364.008 641.867,-370.732"/>
</g>
<!-- Node6&#45;&gt;Node4 -->
<g id="edge14" class="edge"><title>Node6&#45;&gt;Node4</title>
<path fill="none" stroke="midnightblue" d="M638.301,-324.068C633.438,-322.79 628.639,-321.428 624,-320 591.332,-309.945 554.401,-293.386 536.647,-281.629"/>
<polygon fill="midnightblue" stroke="midnightblue" points="637.79,-327.548 648.34,-326.572 639.484,-320.756 637.79,-327.548"/>
</g>
<!-- Node7&#45;&gt;Node4 -->
<g id="edge18" class="edge"><title>Node7&#45;&gt;Node4</title>
<path fill="none" stroke="midnightblue" d="M633.784,-288.932C612.181,-286.849 589.77,-284.22 571.015,-281.51"/>
<polygon fill="midnightblue" stroke="midnightblue" points="633.688,-292.438 643.969,-289.879 634.336,-285.468 633.688,-292.438"/>
</g>
<!-- Node8&#45;&gt;Node4 -->
<g id="edge22" class="edge"><title>Node8&#45;&gt;Node4</title>
<path fill="none" stroke="midnightblue" d="M662.773,-262.93C639.25,-266.082 611.716,-269.007 587.542,-270.937"/>
<polygon fill="midnightblue" stroke="midnightblue" points="663.505,-266.362 672.928,-261.518 662.541,-259.428 663.505,-266.362"/>
</g>
<!-- Node9&#45;&gt;Node4 -->
<g id="edge26" class="edge"><title>Node9&#45;&gt;Node4</title>
<path fill="none" stroke="midnightblue" d="M649.343,-24.4819C639.85,-27.9114 630.979,-32.8229 624,-40 562.255,-103.498 635.617,-161.321 588,-236 581.755,-245.794 572.478,-254.053 562.99,-260.311"/>
<polygon fill="midnightblue" stroke="midnightblue" points="650.465,-27.799 658.996,-21.5174 648.409,-21.1074 650.465,-27.799"/>
</g>
<!-- Node10&#45;&gt;Node4 -->
<g id="edge30" class="edge"><title>Node10&#45;&gt;Node4</title>
<path fill="none" stroke="midnightblue" d="M686.522,-224.11C668.094,-228.679 644.491,-233.693 624,-240 605.207,-245.784 585.003,-253.721 567.852,-260.343"/>
<polygon fill="midnightblue" stroke="midnightblue" points="687.641,-227.436 696.443,-221.539 685.885,-220.66 687.641,-227.436"/>
</g>
<!-- Node11&#45;&gt;Node4 -->
<g id="edge34" class="edge"><title>Node11&#45;&gt;Node4</title>
<path fill="none" stroke="midnightblue" d="M673.44,-183.549C657.158,-186.988 639.056,-191.823 624,-200 604.116,-210.799 605.288,-221.401 588,-236 577.613,-244.772 565.548,-253.608 554.836,-260.45"/>
<polygon fill="midnightblue" stroke="midnightblue" points="674.183,-186.97 683.299,-181.57 672.806,-180.106 674.183,-186.97"/>
</g>
<!-- Node12&#45;&gt;Node4 -->
<g id="edge38" class="edge"><title>Node12&#45;&gt;Node4</title>
<path fill="none" stroke="midnightblue" d="M658.565,-143.891C646.191,-147.21 633.914,-152.161 624,-160 594.682,-183.181 612.021,-207.365 588,-236 580.026,-245.506 569.549,-253.963 559.482,-260.414"/>
<polygon fill="midnightblue" stroke="midnightblue" points="659.537,-147.258 668.466,-141.555 657.93,-140.445 659.537,-147.258"/>
</g>
<!-- Node13&#45;&gt;Node4 -->
<g id="edge42" class="edge"><title>Node13&#45;&gt;Node4</title>
<path fill="none" stroke="midnightblue" d="M652.888,-104.3C642.273,-107.675 632.115,-112.594 624,-120 584.128,-156.389 619.683,-192.295 588,-236 580.95,-245.725 571.078,-254.095 561.281,-260.442"/>
<polygon fill="midnightblue" stroke="midnightblue" points="653.998,-107.625 662.719,-101.608 652.149,-100.874 653.998,-107.625"/>
</g>
<!-- Node14&#45;&gt;Node4 -->
<g id="edge46" class="edge"><title>Node14&#45;&gt;Node4</title>
<path fill="none" stroke="midnightblue" d="M650.647,-64.4045C640.737,-67.8138 631.394,-72.7319 624,-80 573.256,-129.881 627.6,-176.882 588,-236 581.462,-245.76 571.977,-254.052 562.383,-260.338"/>
<polygon fill="midnightblue" stroke="midnightblue" points="651.672,-67.7513 660.277,-61.5705 649.696,-61.036 651.672,-67.7513"/>
</g>
<!-- Node15&#45;&gt;Node4 -->
<g id="edge50" class="edge"><title>Node15&#45;&gt;Node4</title>
<path fill="none" stroke="midnightblue" d="M637.318,-526.624C632.557,-524.239 628.061,-521.385 624,-518 547.46,-454.193 529.904,-320.954 526.65,-281.715"/>
<polygon fill="midnightblue" stroke="midnightblue" points="636.184,-529.945 646.755,-530.648 638.929,-523.506 636.184,-529.945"/>
</g>
<!-- Node16&#45;&gt;Node4 -->
<g id="edge54" class="edge"><title>Node16&#45;&gt;Node4</title>
<path fill="none" stroke="midnightblue" d="M639.506,-487.188C633.975,-484.707 628.727,-481.672 624,-478 557.361,-426.237 532.882,-317.214 527.315,-281.862"/>
<polygon fill="midnightblue" stroke="midnightblue" points="638.447,-490.531 649.037,-490.853 640.96,-483.997 638.447,-490.531"/>
</g>
<!-- Node17&#45;&gt;Node4 -->
<g id="edge60" class="edge"><title>Node17&#45;&gt;Node4</title>
<path fill="none" stroke="midnightblue" d="M648.707,-445.887C639.914,-442.65 631.412,-438.41 624,-433 568.966,-392.829 537.034,-311.524 528.399,-281.69"/>
<polygon fill="midnightblue" stroke="midnightblue" points="647.735,-449.251 658.327,-449.013 649.898,-442.594 647.735,-449.251"/>
</g>
<!-- Node19 -->
<g id="node51" class="node"><title>Node19</title>
<a xlink:href="namespaceServer.xhtml#a16ea0639731dee10e1a253375b508a02" target="_top" xlink:title="Recovers the server state and re&#45;connects client sockets after a reboot.">
<polygon fill="white" stroke="black" points="868,-558.5 868,-579.5 998,-579.5 998,-558.5 868,-558.5"/>
<text text-anchor="middle" x="933" y="-566.5" font-family="FreeSans.ttf" font-size="10.00">Server::RebootRecovery</text>
</a>
</g>
<!-- Node18&#45;&gt;Node19 -->
<g id="edge64" class="edge"><title>Node18&#45;&gt;Node19</title>
<path fill="none" stroke="midnightblue" d="M780.057,-569C807.565,-569 839.94,-569 867.803,-569"/>
<polygon fill="midnightblue" stroke="midnightblue" points="779.771,-565.5 769.771,-569 779.771,-572.5 779.771,-565.5"/>
</g>
<!-- Node22 -->
<g id="node57" class="node"><title>Node22</title>
<a xlink:href="classSocketServer.xhtml#afdbc60c3bc840875d2214b59c6213f63" target="_top" xlink:title="Accept a new connection on the listening port.">
<polygon fill="white" stroke="black" points="873,-518.5 873,-539.5 993,-539.5 993,-518.5 873,-518.5"/>
<text text-anchor="middle" x="933" y="-526.5" font-family="FreeSans.ttf" font-size="10.00">SocketServer::Accept</text>
</a>
</g>
<!-- Node18&#45;&gt;Node22 -->
<g id="edge70" class="edge"><title>Node18&#45;&gt;Node22</title>
<path fill="none" stroke="midnightblue" d="M779.843,-557.494C810.275,-551.833 846.702,-545.055 876.394,-539.531"/>
<polygon fill="midnightblue" stroke="midnightblue" points="778.963,-554.098 769.771,-559.368 780.243,-560.98 778.963,-554.098"/>
</g>
<!-- Node20 -->
<g id="node53" class="node"><title>Node20</title>
<a xlink:href="namespaceServer.xhtml#a19a1e493e1fb50a56d9c77332543d565" target="_top" xlink:title="Start the NAMS Server. Responsible for calling all critical boot&#45;time functions such as SocketServer ...">
<polygon fill="white" stroke="black" points="1206,-558.5 1206,-579.5 1296,-579.5 1296,-558.5 1206,-558.5"/>
<text text-anchor="middle" x="1251" y="-566.5" font-family="FreeSans.ttf" font-size="10.00">Server::Startup</text>
</a>
</g>
<!-- Node19&#45;&gt;Node20 -->
<g id="edge66" class="edge"><title>Node19&#45;&gt;Node20</title>
<path fill="none" stroke="midnightblue" d="M1008.16,-569C1069.64,-569 1154.54,-569 1205.95,-569"/>
<polygon fill="midnightblue" stroke="midnightblue" points="1008.12,-565.5 998.119,-569 1008.12,-572.5 1008.12,-565.5"/>
</g>
<!-- Node21 -->
<g id="node55" class="node"><title>Node21</title>
<a xlink:href="main_8cpp.xhtml#ad53223b8779f25caeddb70a3b9172967" target="_top" xlink:title="The default function required to execute the server.">
<polygon fill="white" stroke="black" points="1332.5,-538.5 1332.5,-559.5 1373.5,-559.5 1373.5,-538.5 1332.5,-538.5"/>
<text text-anchor="middle" x="1353" y="-546.5" font-family="FreeSans.ttf" font-size="10.00">main</text>
</a>
</g>
<!-- Node20&#45;&gt;Node21 -->
<g id="edge68" class="edge"><title>Node20&#45;&gt;Node21</title>
<path fill="none" stroke="midnightblue" d="M1305.9,-558.234C1315.36,-556.38 1324.64,-554.56 1332.43,-553.033"/>
<polygon fill="midnightblue" stroke="midnightblue" points="1305.18,-554.811 1296.04,-560.169 1306.52,-561.68 1305.18,-554.811"/>
</g>
<!-- Node22&#45;&gt;Node23 -->
<g id="edge72" class="edge"><title>Node22&#45;&gt;Node23</title>
<path fill="none" stroke="midnightblue" d="M1003.27,-529C1021.28,-529 1040.39,-529 1057.48,-529"/>
<polygon fill="midnightblue" stroke="midnightblue" points="1003.1,-525.5 993.102,-529 1003.1,-532.5 1003.1,-525.5"/>
</g>
<!-- Node24 -->
<g id="node61" class="node"><title>Node24</title>
<a xlink:href="namespaceServer.xhtml#a50b81aa91d8fdaee6f52c5c5ec987990" target="_top" xlink:title="The core update loop of NAMS. This loop spawns all other subsystem update routines and then sleeps fo...">
<polygon fill="white" stroke="black" points="1206.5,-518.5 1206.5,-539.5 1295.5,-539.5 1295.5,-518.5 1206.5,-518.5"/>
<text text-anchor="middle" x="1251" y="-526.5" font-family="FreeSans.ttf" font-size="10.00">Server::Update</text>
</a>
</g>
<!-- Node23&#45;&gt;Node24 -->
<g id="edge74" class="edge"><title>Node23&#45;&gt;Node24</title>
<path fill="none" stroke="midnightblue" d="M1176.57,-529C1186.69,-529 1196.94,-529 1206.47,-529"/>
<polygon fill="midnightblue" stroke="midnightblue" points="1176.54,-525.5 1166.54,-529 1176.54,-532.5 1176.54,-525.5"/>
</g>
<!-- Node24&#45;&gt;Node21 -->
<g id="edge76" class="edge"><title>Node24&#45;&gt;Node21</title>
<path fill="none" stroke="midnightblue" d="M1305.64,-539.714C1315.14,-541.576 1324.47,-543.405 1332.3,-544.941"/>
<polygon fill="midnightblue" stroke="midnightblue" points="1306.23,-536.262 1295.74,-537.772 1304.88,-543.131 1306.23,-536.262"/>
</g>
<!-- Node26 -->
<g id="node66" class="node"><title>Node26</title>
<a xlink:href="namespaceServer.xhtml#a2b4cec469bb99c2a45e49de5ba74d1ae" target="_top" xlink:title="Processes input from all active SocketClient objects.">
<polygon fill="white" stroke="black" points="1054,-439.5 1054,-460.5 1170,-460.5 1170,-439.5 1054,-439.5"/>
<text text-anchor="middle" x="1112" y="-447.5" font-family="FreeSans.ttf" font-size="10.00">Server::ProcessInput</text>
</a>
</g>
<!-- Node25&#45;&gt;Node26 -->
<g id="edge80" class="edge"><title>Node25&#45;&gt;Node26</title>
<path fill="none" stroke="midnightblue" d="M1028.25,-440.642C1036.93,-441.612 1045.54,-442.574 1053.75,-443.491"/>
<polygon fill="midnightblue" stroke="midnightblue" points="1028.37,-437.134 1018.04,-439.502 1027.59,-444.091 1028.37,-437.134"/>
</g>
<!-- Node26&#45;&gt;Node24 -->
<g id="edge82" class="edge"><title>Node26&#45;&gt;Node24</title>
<path fill="none" stroke="midnightblue" d="M1139.46,-465.604C1166.85,-481.172 1208.2,-504.675 1232.11,-518.262"/>
<polygon fill="midnightblue" stroke="midnightblue" points="1141.17,-462.553 1130.75,-460.654 1137.71,-468.638 1141.17,-462.553"/>
</g>
</g>
</svg>
        <g id="navigator" transform="translate(0 0)" fill="#404254">
                <rect fill="#f2f5e9" fill-opacity="0.5" stroke="#606060" stroke-width=".5" x="0" y="0" width="60" height="60"/>
                <use id="zoomplus" xlink:href="#zoomPlus" x="17" y="9" onmousedown="handleZoom(evt,'in')"/>
                <use id="zoomminus" xlink:href="#zoomMin" x="42" y="9" onmousedown="handleZoom(evt,'out')"/>
                <use id="reset" xlink:href="#resetDef" x="30" y="36" onmousedown="handleReset()"/>
                <g id="arrowUp" xlink:href="#dirArrow" transform="translate(30 24)" onmousedown="handlePan(0,-1)">
                  <use xlink:href="#rim" fill="#404040">
                        <set attributeName="fill" to="#808080" begin="arrowUp.mouseover" end="arrowUp.mouseout"/>
                  </use>
                  <path fill="none" stroke="white" stroke-width="1.5" d="M0,-3.0v7 M-2.5,-0.5L0,-3.0L2.5,-0.5"/>
                </g>
                <g id="arrowRight" xlink:href="#dirArrow" transform="rotate(90) translate(36 -43)" onmousedown="handlePan(1,0)">
                  <use xlink:href="#rim" fill="#404040">
                        <set attributeName="fill" to="#808080" begin="arrowRight.mouseover" end="arrowRight.mouseout"/>
                  </use>
                  <path fill="none" stroke="white" stroke-width="1.5" d="M0,-3.0v7 M-2.5,-0.5L0,-3.0L2.5,-0.5"/>
                </g>
                <g id="arrowDown" xlink:href="#dirArrow" transform="rotate(180) translate(-30 -48)" onmousedown="handlePan(0,1)">
                  <use xlink:href="#rim" fill="#404040">
                        <set attributeName="fill" to="#808080" begin="arrowDown.mouseover" end="arrowDown.mouseout"/>
                  </use>
                  <path fill="none" stroke="white" stroke-width="1.5" d="M0,-3.0v7 M-2.5,-0.5L0,-3.0L2.5,-0.5"/>
                </g>
                <g id="arrowLeft" xlink:href="#dirArrow" transform="rotate(270) translate(-36 17)" onmousedown="handlePan(-1,0)">
                  <use xlink:href="#rim" fill="#404040">
                        <set attributeName="fill" to="#808080" begin="arrowLeft.mouseover" end="arrowLeft.mouseout"/>
                  </use>
                  <path fill="none" stroke="white" stroke-width="1.5" d="M0,-3.0v7 M-2.5,-0.5L0,-3.0L2.5,-0.5"/>
                </g>
        </g>
</svg>
