<?xml version="1.0" encoding="UTF-8" standalone="no"?>
<!DOCTYPE svg PUBLIC "-//W3C//DTD SVG 1.1//EN"
 "http://www.w3.org/Graphics/SVG/1.1/DTD/svg11.dtd">
<!-- Generated by graphviz version 2.26.3 (20100126.1600)
 -->
<!-- Title: Thing::Move Pages: 1 -->
<svg width="792pt" height="28pt"
 viewBox="0.00 0.00 792.00 28.00" xmlns="http://www.w3.org/2000/svg" xmlns:xlink="http://www.w3.org/1999/xlink">
<g id="graph1" class="graph" transform="scale(1 1) rotate(0) translate(4 24)">
<title>Thing::Move</title>
<polygon fill="white" stroke="white" points="-4,5 -4,-24 789,-24 789,5 -4,5"/>
<!-- Node1 -->
<g id="node1" class="node"><title>Node1</title>
<polygon fill="#bfbfbf" stroke="black" points="0,-0 0,-20 74,-20 74,-0 0,-0"/>
<text text-anchor="middle" x="37" y="-7" font-family="FreeSans.ttf" font-size="10.00">Thing::Move</text>
</g>
<!-- Node2 -->
<g id="node3" class="node"><title>Node2</title>
<a xlink:href="classCharacter.xhtml#ad51f5ff0cfefa9bd7e674bc413f6b73c" target="_top" xlink:title="Interprets cmd with args at level security.">
<polygon fill="white" stroke="black" points="110.5,-0 110.5,-20 221.5,-20 221.5,-0 110.5,-0"/>
<text text-anchor="middle" x="166" y="-7" font-family="FreeSans.ttf" font-size="10.00">Character::Interpret</text>
</a>
</g>
<!-- Node1&#45;&gt;Node2 -->
<g id="edge2" class="edge"><title>Node1&#45;&gt;Node2</title>
<path fill="none" stroke="midnightblue" d="M84.5591,-10C92.8546,-10 101.552,-10 110.049,-10"/>
<polygon fill="midnightblue" stroke="midnightblue" points="84.3122,-6.5001 74.3121,-10 84.3121,-13.5001 84.3122,-6.5001"/>
</g>
<!-- Node3 -->
<g id="node5" class="node"><title>Node3</title>
<a xlink:href="classSocketClient.xhtml#ad4f63c7d906310dc56a1217136047d7f" target="_top" xlink:title="Interpret the command at the front of the queue.">
<polygon fill="white" stroke="black" points="258,-0 258,-20 428,-20 428,-0 258,-0"/>
<text text-anchor="middle" x="343" y="-7" font-family="FreeSans.ttf" font-size="10.00">SocketClient::ProcessCommand</text>
</a>
</g>
<!-- Node2&#45;&gt;Node3 -->
<g id="edge4" class="edge"><title>Node2&#45;&gt;Node3</title>
<path fill="none" stroke="midnightblue" d="M231.737,-10C240.257,-10 249.078,-10 257.856,-10"/>
<polygon fill="midnightblue" stroke="midnightblue" points="231.518,-6.5001 221.518,-10 231.518,-13.5001 231.518,-6.5001"/>
</g>
<!-- Node4 -->
<g id="node7" class="node"><title>Node4</title>
<a xlink:href="namespaceServer.xhtml#a2b4cec469bb99c2a45e49de5ba74d1ae" target="_top" xlink:title="Processes input from all active SocketClient objects.">
<polygon fill="white" stroke="black" points="464,-0 464,-20 580,-20 580,-0 464,-0"/>
<text text-anchor="middle" x="522" y="-7" font-family="FreeSans.ttf" font-size="10.00">Server::ProcessInput</text>
</a>
</g>
<!-- Node3&#45;&gt;Node4 -->
<g id="edge6" class="edge"><title>Node3&#45;&gt;Node4</title>
<path fill="none" stroke="midnightblue" d="M438.249,-10C446.93,-10 455.54,-10 463.748,-10"/>
<polygon fill="midnightblue" stroke="midnightblue" points="438.044,-6.5001 428.044,-10 438.044,-13.5001 438.044,-6.5001"/>
</g>
<!-- Node5 -->
<g id="node9" class="node"><title>Node5</title>
<a xlink:href="namespaceServer.xhtml#a50b81aa91d8fdaee6f52c5c5ec987990" target="_top" xlink:title="The core update loop of NAMS. This loop spawns all other subsystem update routines and then sleeps fo...">
<polygon fill="white" stroke="black" points="616.5,-0 616.5,-20 705.5,-20 705.5,-0 616.5,-0"/>
<text text-anchor="middle" x="661" y="-7" font-family="FreeSans.ttf" font-size="10.00">Server::Update</text>
</a>
</g>
<!-- Node4&#45;&gt;Node5 -->
<g id="edge8" class="edge"><title>Node4&#45;&gt;Node5</title>
<path fill="none" stroke="midnightblue" d="M590.39,-10C599.156,-10 607.945,-10 616.2,-10"/>
<polygon fill="midnightblue" stroke="midnightblue" points="590.143,-6.5001 580.143,-10 590.143,-13.5001 590.143,-6.5001"/>
</g>
<!-- Node6 -->
<g id="node11" class="node"><title>Node6</title>
<a xlink:href="main_8cpp.xhtml#ad53223b8779f25caeddb70a3b9172967" target="_top" xlink:title="The default function required to execute the server.">
<polygon fill="white" stroke="black" points="742.5,-0 742.5,-20 783.5,-20 783.5,-0 742.5,-0"/>
<text text-anchor="middle" x="763" y="-7" font-family="FreeSans.ttf" font-size="10.00">main</text>
</a>
</g>
<!-- Node5&#45;&gt;Node6 -->
<g id="edge10" class="edge"><title>Node5&#45;&gt;Node6</title>
<path fill="none" stroke="midnightblue" d="M715.942,-10C725.336,-10 734.55,-10 742.3,-10"/>
<polygon fill="midnightblue" stroke="midnightblue" points="715.739,-6.5001 705.739,-10 715.739,-13.5001 715.739,-6.5001"/>
</g>
</g>
</svg>
