<?xml version="1.0" encoding="UTF-8" standalone="no"?>
<!DOCTYPE svg PUBLIC "-//W3C//DTD SVG 1.1//EN"
 "http://www.w3.org/Graphics/SVG/1.1/DTD/svg11.dtd">
<!-- Generated by graphviz version 2.26.3 (20100126.1600)
 -->
<!-- Title: G Pages: 1 -->
<!--zoomable 541 -->
<svg id="main" version="1.1" xmlns="http://www.w3.org/2000/svg" xmlns:xlink="http://www.w3.org/1999/xlink" xml:space="preserve" onload="init(evt)">
        <defs>
                <circle id="rim" cx="0" cy="0" r="7"/>
                <circle id="rim2" cx="0" cy="0" r="3.5"/>
                <g id="zoomPlus">
                        <use xlink:href="#rim" fill="#404040">
                                <set attributeName="fill" to="#808080" begin="zoomplus.mouseover" end="zoomplus.mouseout"/>
                        </use>
                        <path d="M-4,0h8M0,-4v8" fill="none" stroke="white" stroke-width="1.5" pointer-events="none"/>
                </g>
                <g id="zoomMin">
                        <use xlink:href="#rim" fill="#404040">
                                <set attributeName="fill" to="#808080" begin="zoomminus.mouseover" end="zoomminus.mouseout"/>
                        </use>
                        <path d="M-4,0h8" fill="none" stroke="white" stroke-width="1.5" pointer-events="none"/>
                </g>
                <g id="dirArrow">
                        <path fill="none" stroke="white" stroke-width="1.5" d="M0,-3.0v7 M-2.5,-0.5L0,-3.0L2.5,-0.5"/>
                </g>
               <g id="resetDef">
                       <use xlink:href="#rim2" fill="#404040">
                               <set attributeName="fill" to="#808080" begin="reset.mouseover" end="reset.mouseout"/>
                       </use>
               </g>
        </defs>

<script type="text/javascript">
var viewWidth = 1476;
var viewHeight = 541;
var sectionId = 'dynsection-13';
</script>
<script xlink:href="svgpan.js"/>
<svg id="graph" class="graph">
<g id="viewport">
<title>G</title>
<polygon fill="white" stroke="white" points="-4,5 -4,-537.449 1473,-537.449 1473,5 -4,5"/>
<!-- Node1 -->
<g id="node1" class="node"><title>Node1</title>
<polygon fill="#bfbfbf" stroke="black" points="0,-257.949 0,-278.949 78,-278.949 78,-257.949 0,-257.949"/>
<text text-anchor="middle" x="39" y="-265.949" font-family="FreeSans.ttf" font-size="10.00">Socket::Valid</text>
</g>
<!-- Node2 -->
<g id="node3" class="node"><title>Node2</title>
<a xlink:href="classSocketClient.xhtml#af09328648d18ae943c8866cf744e5aad" target="_top" xlink:title="SocketClient::Delete">
<polygon fill="white" stroke="black" points="342,-328.949 342,-349.949 456,-349.949 456,-328.949 342,-328.949"/>
<text text-anchor="middle" x="399" y="-336.949" font-family="FreeSans.ttf" font-size="10.00">SocketClient::Delete</text>
</a>
</g>
<!-- Node1&#45;&gt;Node2 -->
<g id="edge2" class="edge"><title>Node1&#45;&gt;Node2</title>
<path fill="none" stroke="midnightblue" d="M50.3641,-287.775C63.0662,-307.259 85.6265,-336.156 114,-348.449 197.126,-384.461 307.043,-364.388 362.971,-350.012"/>
<polygon fill="midnightblue" stroke="midnightblue" points="53.2017,-285.711 44.9382,-279.08 47.2632,-289.417 53.2017,-285.711"/>
</g>
<!-- Node7 -->
<g id="node13" class="node"><title>Node7</title>
<a xlink:href="classSocketClient.xhtml#aa304eafc5814ed2ebda33c44ccb60316" target="_top" xlink:title="SocketClient::Thread">
<polygon fill="white" stroke="black" points="676,-163.949 676,-184.949 792,-184.949 792,-163.949 676,-163.949"/>
<text text-anchor="middle" x="734" y="-171.949" font-family="FreeSans.ttf" font-size="10.00">SocketClient::Thread</text>
</a>
</g>
<!-- Node1&#45;&gt;Node7 -->
<g id="edge52" class="edge"><title>Node1&#45;&gt;Node7</title>
<path fill="none" stroke="midnightblue" d="M48.6989,-248.829C60.6725,-227.075 83.2819,-193.118 114,-178.449 314.095,-82.8927 593.626,-138.532 695.184,-163.911"/>
<polygon fill="midnightblue" stroke="midnightblue" points="45.5104,-247.373 43.9551,-257.853 51.7064,-250.63 45.5104,-247.373"/>
</g>
<!-- Node8 -->
<g id="node15" class="node"><title>Node8</title>
<a xlink:href="classSocketServer.xhtml#afdbc60c3bc840875d2214b59c6213f63" target="_top" xlink:title="SocketServer::Accept">
<polygon fill="white" stroke="black" points="830,-144.949 830,-165.949 950,-165.949 950,-144.949 830,-144.949"/>
<text text-anchor="middle" x="890" y="-152.949" font-family="FreeSans.ttf" font-size="10.00">SocketServer::Accept</text>
</a>
</g>
<!-- Node1&#45;&gt;Node8 -->
<g id="edge56" class="edge"><title>Node1&#45;&gt;Node8</title>
<path fill="none" stroke="midnightblue" d="M43.1591,-247.821C50.8588,-215.677 70.6696,-154.522 114,-127.449 232.758,-53.2467 669.817,-117.918 830.349,-144.932"/>
<polygon fill="midnightblue" stroke="midnightblue" points="39.6771,-247.356 40.922,-257.877 46.5101,-248.876 39.6771,-247.356"/>
</g>
<!-- Node9 -->
<g id="node17" class="node"><title>Node9</title>
<a xlink:href="classSocketServer.xhtml#abf0a57a793cb3cf9ad308c238329b690" target="_top" xlink:title="SocketServer::Update">
<polygon fill="white" stroke="black" points="986,-105.949 986,-126.949 1108,-126.949 1108,-105.949 986,-105.949"/>
<text text-anchor="middle" x="1047" y="-113.949" font-family="FreeSans.ttf" font-size="10.00">SocketServer::Update</text>
</a>
</g>
<!-- Node1&#45;&gt;Node9 -->
<g id="edge74" class="edge"><title>Node1&#45;&gt;Node9</title>
<path fill="none" stroke="midnightblue" d="M42.8179,-247.778C52.6704,-196.847 80.5368,-67.5603 114,-41.4485 214.132,36.6862 271.99,-20.4485 399,-20.4485 399,-20.4485 399,-20.4485 734,-20.4485 849.383,-20.4485 978.59,-80.8133 1027.14,-105.808"/>
<polygon fill="midnightblue" stroke="midnightblue" points="39.3209,-247.433 40.8969,-257.91 46.1984,-248.737 39.3209,-247.433"/>
</g>
<!-- Node10 -->
<g id="node19" class="node"><title>Node10</title>
<a xlink:href="classSocketServer.xhtml#a613401f64ca4c185e0a90dd2ae57b546" target="_top" xlink:title="SocketServer::Thread">
<polygon fill="white" stroke="black" points="1144,-431.949 1144,-452.949 1264,-452.949 1264,-431.949 1144,-431.949"/>
<text text-anchor="middle" x="1204" y="-439.949" font-family="FreeSans.ttf" font-size="10.00">SocketServer::Thread</text>
</a>
</g>
<!-- Node1&#45;&gt;Node10 -->
<g id="edge72" class="edge"><title>Node1&#45;&gt;Node10</title>
<path fill="none" stroke="midnightblue" d="M44.1378,-289.002C52.9062,-319.444 73.8385,-375.88 114,-403.449 219.454,-475.836 271.092,-443.449 399,-443.449 399,-443.449 399,-443.449 890,-443.449 978.313,-443.449 1080.6,-443.048 1143.8,-442.754"/>
<polygon fill="midnightblue" stroke="midnightblue" points="47.4386,-287.801 41.4447,-279.064 40.6823,-289.632 47.4386,-287.801"/>
</g>
<!-- Node12 -->
<g id="node24" class="node"><title>Node12</title>
<a xlink:href="classSocketClient.xhtml#a920016d3ec4026b7cdfc1000cc8168cc" target="_top" xlink:title="SocketClient::Update">
<polygon fill="white" stroke="black" points="520,-201.949 520,-222.949 638,-222.949 638,-201.949 520,-201.949"/>
<text text-anchor="middle" x="579" y="-209.949" font-family="FreeSans.ttf" font-size="10.00">SocketClient::Update</text>
</a>
</g>
<!-- Node1&#45;&gt;Node12 -->
<g id="edge54" class="edge"><title>Node1&#45;&gt;Node12</title>
<path fill="none" stroke="midnightblue" d="M62.0558,-251.876C76.3509,-242.396 95.4677,-231.1 114,-224.449 269.354,-168.687 319.829,-175.355 484,-192.449 501.937,-194.316 521.477,-198.117 538.145,-201.908"/>
<polygon fill="midnightblue" stroke="midnightblue" points="59.6981,-249.248 53.4128,-257.777 63.6451,-255.029 59.6981,-249.248"/>
</g>
<!-- Node13 -->
<g id="node28" class="node"><title>Node13</title>
<a xlink:href="classSocketClient.xhtml#ad4f63c7d906310dc56a1217136047d7f" target="_top" xlink:title="SocketClient::ProcessCommand">
<polygon fill="white" stroke="black" points="314,-385.949 314,-406.949 484,-406.949 484,-385.949 314,-385.949"/>
<text text-anchor="middle" x="399" y="-393.949" font-family="FreeSans.ttf" font-size="10.00">SocketClient::ProcessCommand</text>
</a>
</g>
<!-- Node1&#45;&gt;Node13 -->
<g id="edge30" class="edge"><title>Node1&#45;&gt;Node13</title>
<path fill="none" stroke="midnightblue" d="M47.0902,-288.441C58.1785,-312.949 80.6053,-353.548 114,-372.449 176.011,-407.544 258.053,-410.836 318.184,-406.951"/>
<polygon fill="midnightblue" stroke="midnightblue" points="50.207,-286.829 43.0333,-279.033 43.7791,-289.601 50.207,-286.829"/>
</g>
<!-- Node14 -->
<g id="node31" class="node"><title>Node14</title>
<a xlink:href="classSocketClient.xhtml#a92fea2bf7e0f20578404ce1abb835a0b" target="_top" xlink:title="SocketClient::ProcessInput">
<polygon fill="white" stroke="black" points="327,-241.949 327,-262.949 471,-262.949 471,-241.949 327,-241.949"/>
<text text-anchor="middle" x="399" y="-249.949" font-family="FreeSans.ttf" font-size="10.00">SocketClient::ProcessInput</text>
</a>
</g>
<!-- Node1&#45;&gt;Node14 -->
<g id="edge34" class="edge"><title>Node1&#45;&gt;Node14</title>
<path fill="none" stroke="midnightblue" d="M88.4639,-266.25C150.188,-263.507 256.218,-258.794 326.962,-255.65"/>
<polygon fill="midnightblue" stroke="midnightblue" points="88.0463,-262.765 78.2116,-266.706 88.3572,-269.758 88.0463,-262.765"/>
</g>
<!-- Node15 -->
<g id="node34" class="node"><title>Node15</title>
<a xlink:href="classSocketClient.xhtml#aa3c0d7886b8fede981c73031cfaf17c6" target="_top" xlink:title="SocketClient::QueueCommand">
<polygon fill="white" stroke="black" points="114,-277.949 114,-298.949 278,-298.949 278,-277.949 114,-277.949"/>
<text text-anchor="middle" x="196" y="-285.949" font-family="FreeSans.ttf" font-size="10.00">SocketClient::QueueCommand</text>
</a>
</g>
<!-- Node1&#45;&gt;Node15 -->
<g id="edge38" class="edge"><title>Node1&#45;&gt;Node15</title>
<path fill="none" stroke="midnightblue" d="M88.2472,-274.722C96.4023,-275.761 105.049,-276.862 113.757,-277.972"/>
<polygon fill="midnightblue" stroke="midnightblue" points="88.5749,-271.236 78.2127,-273.444 87.6903,-278.179 88.5749,-271.236"/>
</g>
<!-- Node16 -->
<g id="node37" class="node"><title>Node16</title>
<a xlink:href="classSocketClient.xhtml#a9ee09f452d900e288b2aa187561ef05d" target="_top" xlink:title="SocketClient::Recv">
<polygon fill="white" stroke="black" points="347,-201.949 347,-222.949 451,-222.949 451,-201.949 347,-201.949"/>
<text text-anchor="middle" x="399" y="-209.949" font-family="FreeSans.ttf" font-size="10.00">SocketClient::Recv</text>
</a>
</g>
<!-- Node1&#45;&gt;Node16 -->
<g id="edge42" class="edge"><title>Node1&#45;&gt;Node16</title>
<path fill="none" stroke="midnightblue" d="M88.1599,-258.218C96.7577,-256.543 105.628,-254.887 114,-253.449 195.044,-239.525 289.612,-226.566 346.86,-219.082"/>
<polygon fill="midnightblue" stroke="midnightblue" points="87.3688,-254.807 78.2386,-260.181 88.7278,-261.673 87.3688,-254.807"/>
</g>
<!-- Node17 -->
<g id="node40" class="node"><title>Node17</title>
<a xlink:href="classSocketClient.xhtml#a6268f3d184970ec0076da657c39d2e80" target="_top" xlink:title="SocketClient::Send">
<polygon fill="white" stroke="black" points="142.5,-317.949 142.5,-338.949 249.5,-338.949 249.5,-317.949 142.5,-317.949"/>
<text text-anchor="middle" x="196" y="-325.949" font-family="FreeSans.ttf" font-size="10.00">SocketClient::Send</text>
</a>
</g>
<!-- Node1&#45;&gt;Node17 -->
<g id="edge46" class="edge"><title>Node1&#45;&gt;Node17</title>
<path fill="none" stroke="midnightblue" d="M64.667,-284.208C78.8123,-292.356 96.9225,-301.931 114,-308.449 123.583,-312.106 134.057,-315.259 144.217,-317.909"/>
<polygon fill="midnightblue" stroke="midnightblue" points="66.3886,-281.16 55.9947,-279.106 62.8392,-287.193 66.3886,-281.16"/>
</g>
<!-- Node18 -->
<g id="node47" class="node"><title>Node18</title>
<a xlink:href="classSocketServer.xhtml#aee14cfe29fef99baa29664eef8d89dc8" target="_top" xlink:title="SocketServer::Bind">
<polygon fill="white" stroke="black" points="142,-511.949 142,-532.949 250,-532.949 250,-511.949 142,-511.949"/>
<text text-anchor="middle" x="196" y="-519.949" font-family="FreeSans.ttf" font-size="10.00">SocketServer::Bind</text>
</a>
</g>
<!-- Node1&#45;&gt;Node18 -->
<g id="edge58" class="edge"><title>Node1&#45;&gt;Node18</title>
<path fill="none" stroke="midnightblue" d="M42.94,-289.09C53.1685,-340.571 82.0093,-472.65 114,-502.449 121.72,-509.64 131.584,-514.368 141.775,-517.449"/>
<polygon fill="midnightblue" stroke="midnightblue" points="46.3471,-288.276 40.9952,-279.132 39.4769,-289.617 46.3471,-288.276"/>
</g>
<!-- Node20 -->
<g id="node52" class="node"><title>Node20</title>
<a xlink:href="classSocketServer.xhtml#a4fb2589ed01cea5daae154b2f06b4f41" target="_top" xlink:title="SocketServer::Delete">
<polygon fill="white" stroke="black" points="674.5,-48.9485 674.5,-69.9485 793.5,-69.9485 793.5,-48.9485 674.5,-48.9485"/>
<text text-anchor="middle" x="734" y="-56.9485" font-family="FreeSans.ttf" font-size="10.00">SocketServer::Delete</text>
</a>
</g>
<!-- Node1&#45;&gt;Node20 -->
<g id="edge64" class="edge"><title>Node1&#45;&gt;Node20</title>
<path fill="none" stroke="midnightblue" d="M40.4225,-247.561C44.3725,-207.842 59.1542,-121.958 114,-83.4485 202.93,-21.0069 536.76,-42.0781 674.253,-53.8128"/>
<polygon fill="midnightblue" stroke="midnightblue" points="36.9226,-247.411 39.5562,-257.674 43.897,-248.009 36.9226,-247.411"/>
</g>
<!-- Node21 -->
<g id="node55" class="node"><title>Node21</title>
<a xlink:href="classSocketServer.xhtml#a5c5b0cbbee6a2e265d0510b40bcc12d8" target="_top" xlink:title="SocketServer::Listen">
<polygon fill="white" stroke="black" points="138,-471.949 138,-492.949 254,-492.949 254,-471.949 138,-471.949"/>
<text text-anchor="middle" x="196" y="-479.949" font-family="FreeSans.ttf" font-size="10.00">SocketServer::Listen</text>
</a>
</g>
<!-- Node1&#45;&gt;Node21 -->
<g id="edge68" class="edge"><title>Node1&#45;&gt;Node21</title>
<path fill="none" stroke="midnightblue" d="M41.3686,-289.343C46.881,-328.136 64.1413,-411.512 114,-457.449 120.786,-463.701 129.095,-468.391 137.791,-471.909"/>
<polygon fill="midnightblue" stroke="midnightblue" points="44.8153,-288.704 40.0596,-279.237 37.8733,-289.603 44.8153,-288.704"/>
</g>
<!-- Node3 -->
<g id="node5" class="node"><title>Node3</title>
<a xlink:href="classServer.xhtml#a7f5259e36a6bcf3a78a5bede522c3632" target="_top" xlink:title="Server::ProcessInput">
<polygon fill="white" stroke="black" points="521,-385.949 521,-406.949 637,-406.949 637,-385.949 521,-385.949"/>
<text text-anchor="middle" x="579" y="-393.949" font-family="FreeSans.ttf" font-size="10.00">Server::ProcessInput</text>
</a>
</g>
<!-- Node2&#45;&gt;Node3 -->
<g id="edge4" class="edge"><title>Node2&#45;&gt;Node3</title>
<path fill="none" stroke="midnightblue" d="M442.345,-353.174C474.122,-363.237 516.625,-376.697 545.744,-385.918"/>
<polygon fill="midnightblue" stroke="midnightblue" points="443.025,-349.718 432.435,-350.036 440.912,-356.392 443.025,-349.718"/>
</g>
<!-- Node6 -->
<g id="node11" class="node"><title>Node6</title>
<a xlink:href="classSocketClient.xhtml#a6b296c5002caa1229e7d7b9be6f08607" target="_top" xlink:title="SocketClient::New">
<polygon fill="white" stroke="black" points="527.5,-289.949 527.5,-310.949 630.5,-310.949 630.5,-289.949 527.5,-289.949"/>
<text text-anchor="middle" x="579" y="-297.949" font-family="FreeSans.ttf" font-size="10.00">SocketClient::New</text>
</a>
</g>
<!-- Node2&#45;&gt;Node6 -->
<g id="edge10" class="edge"><title>Node2&#45;&gt;Node6</title>
<path fill="none" stroke="midnightblue" d="M457.56,-326.761C481.062,-321.669 507.834,-315.868 530.25,-311.011"/>
<polygon fill="midnightblue" stroke="midnightblue" points="456.743,-323.356 447.711,-328.895 458.225,-330.198 456.743,-323.356"/>
</g>
<!-- Node2&#45;&gt;Node8 -->
<g id="edge28" class="edge"><title>Node2&#45;&gt;Node8</title>
<path fill="none" stroke="midnightblue" d="M466.282,-342.884C515.188,-343.299 582.295,-339.499 638,-320.449 741.909,-284.913 844.916,-196.647 878.579,-166.074"/>
<polygon fill="midnightblue" stroke="midnightblue" points="466.184,-339.383 456.133,-342.736 466.081,-346.382 466.184,-339.383"/>
</g>
<!-- Node2&#45;&gt;Node12 -->
<g id="edge24" class="edge"><title>Node2&#45;&gt;Node12</title>
<path fill="none" stroke="midnightblue" d="M422.337,-322.983C459.826,-296.532 532.438,-245.3 563.879,-223.117"/>
<polygon fill="midnightblue" stroke="midnightblue" points="420.19,-320.214 414.037,-328.839 424.226,-325.934 420.19,-320.214"/>
</g>
<!-- Node4 -->
<g id="node7" class="node"><title>Node4</title>
<a xlink:href="classServer.xhtml#a50b81aa91d8fdaee6f52c5c5ec987990" target="_top" xlink:title="Server::Update">
<polygon fill="white" stroke="black" points="845.5,-389.949 845.5,-410.949 934.5,-410.949 934.5,-389.949 845.5,-389.949"/>
<text text-anchor="middle" x="890" y="-397.949" font-family="FreeSans.ttf" font-size="10.00">Server::Update</text>
</a>
</g>
<!-- Node3&#45;&gt;Node4 -->
<g id="edge6" class="edge"><title>Node3&#45;&gt;Node4</title>
<path fill="none" stroke="midnightblue" d="M647.307,-397.327C707.492,-398.101 793.425,-399.206 845.247,-399.873"/>
<polygon fill="midnightblue" stroke="midnightblue" points="647.176,-393.825 637.132,-397.196 647.086,-400.825 647.176,-393.825"/>
</g>
<!-- Node5 -->
<g id="node9" class="node"><title>Node5</title>
<a xlink:href="main_8cpp.xhtml#ad53223b8779f25caeddb70a3b9172967" target="_top" xlink:title="The default function required to execute the server.">
<polygon fill="white" stroke="black" points="1426.5,-410.949 1426.5,-431.949 1467.5,-431.949 1467.5,-410.949 1426.5,-410.949"/>
<text text-anchor="middle" x="1447" y="-418.949" font-family="FreeSans.ttf" font-size="10.00">main</text>
</a>
</g>
<!-- Node4&#45;&gt;Node5 -->
<g id="edge8" class="edge"><title>Node4&#45;&gt;Node5</title>
<path fill="none" stroke="midnightblue" d="M944.734,-402.512C1065.02,-407.047 1347.94,-417.714 1426.47,-420.674"/>
<polygon fill="midnightblue" stroke="midnightblue" points="944.765,-399.011 934.64,-402.132 944.501,-406.006 944.765,-399.011"/>
</g>
<!-- Node6&#45;&gt;Node7 -->
<g id="edge12" class="edge"><title>Node6&#45;&gt;Node7</title>
<path fill="none" stroke="midnightblue" d="M599.898,-283.461C632.315,-257.108 693.793,-207.133 720.76,-185.212"/>
<polygon fill="midnightblue" stroke="midnightblue" points="597.5,-280.899 591.949,-289.923 601.916,-286.331 597.5,-280.899"/>
</g>
<!-- Node7&#45;&gt;Node8 -->
<g id="edge14" class="edge"><title>Node7&#45;&gt;Node8</title>
<path fill="none" stroke="midnightblue" d="M802.016,-166.165C811.256,-165.039 820.687,-163.891 829.777,-162.783"/>
<polygon fill="midnightblue" stroke="midnightblue" points="801.592,-162.69 792.089,-167.374 802.438,-169.639 801.592,-162.69"/>
</g>
<!-- Node8&#45;&gt;Node9 -->
<g id="edge16" class="edge"><title>Node8&#45;&gt;Node9</title>
<path fill="none" stroke="midnightblue" d="M942.454,-142.418C962.617,-137.41 985.364,-131.759 1004.48,-127.011"/>
<polygon fill="midnightblue" stroke="midnightblue" points="941.348,-139.087 932.486,-144.895 943.035,-145.88 941.348,-139.087"/>
</g>
<!-- Node9&#45;&gt;Node10 -->
<g id="edge18" class="edge"><title>Node9&#45;&gt;Node10</title>
<path fill="none" stroke="midnightblue" d="M1056.62,-136.416C1086.41,-198.278 1176.51,-385.374 1198.92,-431.891"/>
<polygon fill="midnightblue" stroke="midnightblue" points="1059.72,-134.786 1052.22,-127.295 1053.41,-137.823 1059.72,-134.786"/>
</g>
<!-- Node11 -->
<g id="node21" class="node"><title>Node11</title>
<a xlink:href="classServer.xhtml#a84ed4b0103f83fe0ece0a89983d0787a" target="_top" xlink:title="Server::Startup">
<polygon fill="white" stroke="black" points="1300,-430.949 1300,-451.949 1390,-451.949 1390,-430.949 1300,-430.949"/>
<text text-anchor="middle" x="1345" y="-438.949" font-family="FreeSans.ttf" font-size="10.00">Server::Startup</text>
</a>
</g>
<!-- Node10&#45;&gt;Node11 -->
<g id="edge20" class="edge"><title>Node10&#45;&gt;Node11</title>
<path fill="none" stroke="midnightblue" d="M1274.37,-441.949C1283.07,-441.888 1291.76,-441.826 1299.93,-441.768"/>
<polygon fill="midnightblue" stroke="midnightblue" points="1274.18,-438.451 1264.21,-442.022 1274.23,-445.45 1274.18,-438.451"/>
</g>
<!-- Node11&#45;&gt;Node5 -->
<g id="edge22" class="edge"><title>Node11&#45;&gt;Node5</title>
<path fill="none" stroke="midnightblue" d="M1399.9,-430.683C1409.36,-428.828 1418.64,-427.008 1426.43,-425.482"/>
<polygon fill="midnightblue" stroke="midnightblue" points="1399.18,-427.259 1390.04,-432.618 1400.52,-434.128 1399.18,-427.259"/>
</g>
<!-- Node12&#45;&gt;Node7 -->
<g id="edge26" class="edge"><title>Node12&#45;&gt;Node7</title>
<path fill="none" stroke="midnightblue" d="M632.013,-199.452C651.27,-194.731 672.775,-189.458 691.055,-184.977"/>
<polygon fill="midnightblue" stroke="midnightblue" points="631.055,-196.083 622.176,-201.863 632.722,-202.882 631.055,-196.083"/>
</g>
<!-- Node13&#45;&gt;Node3 -->
<g id="edge32" class="edge"><title>Node13&#45;&gt;Node3</title>
<path fill="none" stroke="midnightblue" d="M494.401,-396.449C503.377,-396.449 512.28,-396.449 520.753,-396.449"/>
<polygon fill="midnightblue" stroke="midnightblue" points="494.256,-392.949 484.256,-396.449 494.256,-399.949 494.256,-392.949"/>
</g>
<!-- Node14&#45;&gt;Node12 -->
<g id="edge36" class="edge"><title>Node14&#45;&gt;Node12</title>
<path fill="none" stroke="midnightblue" d="M456.124,-239.754C480.475,-234.343 508.55,-228.104 531.711,-222.957"/>
<polygon fill="midnightblue" stroke="midnightblue" points="455.295,-236.353 446.293,-241.939 456.814,-243.186 455.295,-236.353"/>
</g>
<!-- Node15&#45;&gt;Node14 -->
<g id="edge40" class="edge"><title>Node15&#45;&gt;Node14</title>
<path fill="none" stroke="midnightblue" d="M265.426,-276.137C289.57,-271.855 316.412,-267.095 339.665,-262.971"/>
<polygon fill="midnightblue" stroke="midnightblue" points="264.497,-272.747 255.262,-277.939 265.719,-279.639 264.497,-272.747"/>
</g>
<!-- Node16&#45;&gt;Node12 -->
<g id="edge44" class="edge"><title>Node16&#45;&gt;Node12</title>
<path fill="none" stroke="midnightblue" d="M461.11,-212.449C480.115,-212.449 500.962,-212.449 519.771,-212.449"/>
<polygon fill="midnightblue" stroke="midnightblue" points="461.063,-208.949 451.063,-212.449 461.063,-215.949 461.063,-208.949"/>
</g>
<!-- Node17&#45;&gt;Node6 -->
<g id="edge48" class="edge"><title>Node17&#45;&gt;Node6</title>
<path fill="none" stroke="midnightblue" d="M259.88,-323.523C277.421,-322.185 296.444,-320.747 314,-319.449 388.059,-313.969 473.779,-307.867 527.201,-304.092"/>
<polygon fill="midnightblue" stroke="midnightblue" points="259.449,-320.046 249.745,-324.298 259.983,-327.025 259.449,-320.046"/>
</g>
<!-- Node17&#45;&gt;Node13 -->
<g id="edge50" class="edge"><title>Node17&#45;&gt;Node13</title>
<path fill="none" stroke="midnightblue" d="M237.59,-342.38C276.12,-355.287 332.587,-374.202 367.504,-385.898"/>
<polygon fill="midnightblue" stroke="midnightblue" points="238.313,-338.931 227.719,-339.074 236.089,-345.569 238.313,-338.931"/>
</g>
<!-- Node19 -->
<g id="node49" class="node"><title>Node19</title>
<a xlink:href="classSocketServer.xhtml#a276e17da8bbf562313bce8edfd32e231" target="_top" xlink:title="SocketServer::New">
<polygon fill="white" stroke="black" points="345.5,-471.949 345.5,-492.949 452.5,-492.949 452.5,-471.949 345.5,-471.949"/>
<text text-anchor="middle" x="399" y="-479.949" font-family="FreeSans.ttf" font-size="10.00">SocketServer::New</text>
</a>
</g>
<!-- Node18&#45;&gt;Node19 -->
<g id="edge60" class="edge"><title>Node18&#45;&gt;Node19</title>
<path fill="none" stroke="midnightblue" d="M259.326,-509.97C287.041,-504.509 319.199,-498.173 345.668,-492.957"/>
<polygon fill="midnightblue" stroke="midnightblue" points="258.471,-506.572 249.336,-511.939 259.824,-513.44 258.471,-506.572"/>
</g>
<!-- Node19&#45;&gt;Node10 -->
<g id="edge62" class="edge"><title>Node19&#45;&gt;Node10</title>
<path fill="none" stroke="midnightblue" d="M462.707,-482.145C530.101,-481.851 639.541,-481.449 734,-481.449 734,-481.449 734,-481.449 890,-481.449 982.699,-481.449 1089.63,-464.502 1151.74,-452.951"/>
<polygon fill="midnightblue" stroke="midnightblue" points="462.653,-478.645 452.668,-482.19 462.684,-485.645 462.653,-478.645"/>
</g>
<!-- Node20&#45;&gt;Node9 -->
<g id="edge66" class="edge"><title>Node20&#45;&gt;Node9</title>
<path fill="none" stroke="midnightblue" d="M801.948,-71.8224C857.899,-82.0116 936.359,-96.2998 989.299,-105.941"/>
<polygon fill="midnightblue" stroke="midnightblue" points="802.239,-68.318 791.774,-69.9696 800.985,-75.2047 802.239,-68.318"/>
</g>
<!-- Node21&#45;&gt;Node19 -->
<g id="edge70" class="edge"><title>Node21&#45;&gt;Node19</title>
<path fill="none" stroke="midnightblue" d="M264.478,-482.449C290.851,-482.449 320.561,-482.449 345.339,-482.449"/>
<polygon fill="midnightblue" stroke="midnightblue" points="264.172,-478.949 254.172,-482.449 264.172,-485.949 264.172,-478.949"/>
</g>
</g>
</svg>
        <g id="navigator" transform="translate(0 0)" fill="#404254">
                <rect fill="#f2f5e9" fill-opacity="0.5" stroke="#606060" stroke-width=".5" x="0" y="0" width="60" height="60"/>
                <use id="zoomplus" xlink:href="#zoomPlus" x="17" y="9" onmousedown="handleZoom(evt,'in')"/>
                <use id="zoomminus" xlink:href="#zoomMin" x="42" y="9" onmousedown="handleZoom(evt,'out')"/>
                <use id="reset" xlink:href="#resetDef" x="30" y="36" onmousedown="handleReset()"/>
                <g id="arrowUp" xlink:href="#dirArrow" transform="translate(30 24)" onmousedown="handlePan(0,-1)">
                  <use xlink:href="#rim" fill="#404040">
                        <set attributeName="fill" to="#808080" begin="arrowUp.mouseover" end="arrowUp.mouseout"/>
                  </use>
                  <path fill="none" stroke="white" stroke-width="1.5" d="M0,-3.0v7 M-2.5,-0.5L0,-3.0L2.5,-0.5"/>
                </g>
                <g id="arrowRight" xlink:href="#dirArrow" transform="rotate(90) translate(36 -43)" onmousedown="handlePan(1,0)">
                  <use xlink:href="#rim" fill="#404040">
                        <set attributeName="fill" to="#808080" begin="arrowRight.mouseover" end="arrowRight.mouseout"/>
                  </use>
                  <path fill="none" stroke="white" stroke-width="1.5" d="M0,-3.0v7 M-2.5,-0.5L0,-3.0L2.5,-0.5"/>
                </g>
                <g id="arrowDown" xlink:href="#dirArrow" transform="rotate(180) translate(-30 -48)" onmousedown="handlePan(0,1)">
                  <use xlink:href="#rim" fill="#404040">
                        <set attributeName="fill" to="#808080" begin="arrowDown.mouseover" end="arrowDown.mouseout"/>
                  </use>
                  <path fill="none" stroke="white" stroke-width="1.5" d="M0,-3.0v7 M-2.5,-0.5L0,-3.0L2.5,-0.5"/>
                </g>
                <g id="arrowLeft" xlink:href="#dirArrow" transform="rotate(270) translate(-36 17)" onmousedown="handlePan(-1,0)">
                  <use xlink:href="#rim" fill="#404040">
                        <set attributeName="fill" to="#808080" begin="arrowLeft.mouseover" end="arrowLeft.mouseout"/>
                  </use>
                  <path fill="none" stroke="white" stroke-width="1.5" d="M0,-3.0v7 M-2.5,-0.5L0,-3.0L2.5,-0.5"/>
                </g>
        </g>
</svg>
