<?xml version="1.0" encoding="UTF-8" standalone="no"?>
<!DOCTYPE svg PUBLIC "-//W3C//DTD SVG 1.1//EN"
 "http://www.w3.org/Graphics/SVG/1.1/DTD/svg11.dtd">
<!-- Generated by graphviz version 2.26.3 (20100126.1600)
 -->
<!-- Title: G Pages: 1 -->
<!--zoomable 210 -->
<svg id="main" version="1.1" xmlns="http://www.w3.org/2000/svg" xmlns:xlink="http://www.w3.org/1999/xlink" xml:space="preserve" onload="init(evt)">
        <defs>
                <circle id="rim" cx="0" cy="0" r="7"/>
                <circle id="rim2" cx="0" cy="0" r="3.5"/>
                <g id="zoomPlus">
                        <use xlink:href="#rim" fill="#404040">
                                <set attributeName="fill" to="#808080" begin="zoomplus.mouseover" end="zoomplus.mouseout"/>
                        </use>
                        <path d="M-4,0h8M0,-4v8" fill="none" stroke="white" stroke-width="1.5" pointer-events="none"/>
                </g>
                <g id="zoomMin">
                        <use xlink:href="#rim" fill="#404040">
                                <set attributeName="fill" to="#808080" begin="zoomminus.mouseover" end="zoomminus.mouseout"/>
                        </use>
                        <path d="M-4,0h8" fill="none" stroke="white" stroke-width="1.5" pointer-events="none"/>
                </g>
                <g id="dirArrow">
                        <path fill="none" stroke="white" stroke-width="1.5" d="M0,-3.0v7 M-2.5,-0.5L0,-3.0L2.5,-0.5"/>
                </g>
               <g id="resetDef">
                       <use xlink:href="#rim2" fill="#404040">
                               <set attributeName="fill" to="#808080" begin="reset.mouseover" end="reset.mouseout"/>
                       </use>
               </g>
        </defs>

<script type="text/javascript">
var viewWidth = 1644;
var viewHeight = 210;
var sectionId = 'dynsection-23';
</script>
<script xlink:href="svgpan.js"/>
<svg id="graph" class="graph">
<g id="viewport">
<title>G</title>
<polygon fill="white" stroke="white" points="-4,5 -4,-206 1641,-206 1641,5 -4,5"/>
<!-- Node1 -->
<g id="node1" class="node"><title>Node1</title>
<polygon fill="#bfbfbf" stroke="black" points="0,-60.5 0,-81.5 102,-81.5 102,-60.5 0,-60.5"/>
<text text-anchor="middle" x="51" y="-68.5" font-family="FreeSans.ttf" font-size="10.00">SocketClient::Quit</text>
</g>
<!-- Node2 -->
<g id="node3" class="node"><title>Node2</title>
<a xlink:href="namespaceHandler.xhtml#a22b7749e3b3771d31eb2299efa5d821b" target="_top" xlink:title="Send initial account interface menu.">
<polygon fill="white" stroke="black" points="138,-60.5 138,-81.5 258,-81.5 258,-60.5 138,-60.5"/>
<text text-anchor="middle" x="198" y="-68.5" font-family="FreeSans.ttf" font-size="10.00">Handler::MenuScreen</text>
</a>
</g>
<!-- Node1&#45;&gt;Node2 -->
<g id="edge2" class="edge"><title>Node1&#45;&gt;Node2</title>
<path fill="none" stroke="midnightblue" d="M112.244,-71C120.76,-71 129.501,-71 137.994,-71"/>
<polygon fill="midnightblue" stroke="midnightblue" points="112.001,-67.5001 102.001,-71 112.001,-74.5001 112.001,-67.5001"/>
</g>
<!-- Node3 -->
<g id="node5" class="node"><title>Node3</title>
<a xlink:href="namespaceHandler.xhtml#a093ad11406855ab2a6ca197bc2db42b7" target="_top" xlink:title="Main account menu for all account actions.">
<polygon fill="white" stroke="black" points="294.5,-60.5 294.5,-81.5 419.5,-81.5 419.5,-60.5 294.5,-60.5"/>
<text text-anchor="middle" x="357" y="-68.5" font-family="FreeSans.ttf" font-size="10.00">Handler::AccountMenu</text>
</a>
</g>
<!-- Node2&#45;&gt;Node3 -->
<g id="edge4" class="edge"><title>Node2&#45;&gt;Node3</title>
<path fill="none" stroke="midnightblue" d="M268.248,-64.2908C276.964,-64.2136 285.831,-64.2459 294.421,-64.3878"/>
<polygon fill="midnightblue" stroke="midnightblue" points="268.061,-60.793 258.111,-64.4317 268.159,-67.7923 268.061,-60.793"/>
</g>
<!-- Node3&#45;&gt;Node2 -->
<g id="edge52" class="edge"><title>Node3&#45;&gt;Node2</title>
<path fill="none" stroke="midnightblue" d="M284.236,-77.7284C275.495,-77.7846 266.644,-77.7312 258.111,-77.5683"/>
<polygon fill="midnightblue" stroke="midnightblue" points="284.462,-81.2262 294.421,-77.6122 284.382,-74.2266 284.462,-81.2262"/>
</g>
<!-- Node4 -->
<g id="node7" class="node"><title>Node4</title>
<a xlink:href="namespaceHandler.xhtml#a142c6f0b9e36e54eba3d72f9db2dfe40" target="_top" xlink:title="Redirect to the appropriate subsystem based on socket state.">
<polygon fill="white" stroke="black" points="812.5,-160.5 812.5,-181.5 913.5,-181.5 913.5,-160.5 812.5,-160.5"/>
<text text-anchor="middle" x="863" y="-168.5" font-family="FreeSans.ttf" font-size="10.00">Handler::Interpret</text>
</a>
</g>
<!-- Node3&#45;&gt;Node4 -->
<g id="edge6" class="edge"><title>Node3&#45;&gt;Node4</title>
<path fill="none" stroke="midnightblue" d="M388.048,-85.7671C407.234,-94.3285 432.585,-104.641 456,-111 581.619,-145.115 734.655,-161.065 812.404,-167.424"/>
<polygon fill="midnightblue" stroke="midnightblue" points="389.442,-82.5564 378.89,-81.6053 386.546,-88.9291 389.442,-82.5564"/>
</g>
<!-- Node12 -->
<g id="node24" class="node"><title>Node12</title>
<a xlink:href="namespaceHandler.xhtml#a33a19d69ead678af81fbe96907eceaf0" target="_top" xlink:title="Create a new account object, or load an existing one, with a name and password.">
<polygon fill="white" stroke="black" points="460.5,-80.5 460.5,-101.5 591.5,-101.5 591.5,-80.5 460.5,-80.5"/>
<text text-anchor="middle" x="526" y="-88.5" font-family="FreeSans.ttf" font-size="10.00">Handler::AttachAccount</text>
</a>
</g>
<!-- Node3&#45;&gt;Node12 -->
<g id="edge24" class="edge"><title>Node3&#45;&gt;Node12</title>
<path fill="none" stroke="midnightblue" d="M429.973,-79.6359C440.114,-80.836 450.481,-82.0629 460.475,-83.2456"/>
<polygon fill="midnightblue" stroke="midnightblue" points="430.271,-76.1468 419.929,-78.4473 429.449,-83.0983 430.271,-76.1468"/>
</g>
<!-- Node18 -->
<g id="node42" class="node"><title>Node18</title>
<a xlink:href="namespaceHandler.xhtml#af55c3642454fd95ff0fa2c4ff575bf67" target="_top" xlink:title="Create a new character in the game.">
<polygon fill="white" stroke="black" points="456,-40.5 456,-61.5 596,-61.5 596,-40.5 456,-40.5"/>
<text text-anchor="middle" x="526" y="-48.5" font-family="FreeSans.ttf" font-size="10.00">Handler::CharacterCreate</text>
</a>
</g>
<!-- Node3&#45;&gt;Node18 -->
<g id="edge48" class="edge"><title>Node3&#45;&gt;Node18</title>
<path fill="none" stroke="midnightblue" d="M406.913,-58.8732C422.245,-56.5621 439.414,-54.3827 455.838,-52.6403"/>
<polygon fill="midnightblue" stroke="midnightblue" points="405.958,-55.4801 396.623,-60.4904 407.045,-62.3952 405.958,-55.4801"/>
</g>
<!-- Node5 -->
<g id="node9" class="node"><title>Node5</title>
<a xlink:href="classSocketClient.xhtml#a553658a2c076ea71ddcd1758fc64a925" target="_top" xlink:title="Build a SocketClient for a new client connection and set all attributes.">
<polygon fill="white" stroke="black" points="970.5,-179.5 970.5,-200.5 1073.5,-200.5 1073.5,-179.5 970.5,-179.5"/>
<text text-anchor="middle" x="1022" y="-187.5" font-family="FreeSans.ttf" font-size="10.00">SocketClient::New</text>
</a>
</g>
<!-- Node4&#45;&gt;Node5 -->
<g id="edge8" class="edge"><title>Node4&#45;&gt;Node5</title>
<path fill="none" stroke="midnightblue" d="M923.691,-178.252C939.084,-180.092 955.475,-182.05 970.371,-183.831"/>
<polygon fill="midnightblue" stroke="midnightblue" points="924.09,-174.775 913.746,-177.064 923.26,-181.726 924.09,-174.775"/>
</g>
<!-- Node10 -->
<g id="node19" class="node"><title>Node10</title>
<a xlink:href="classSocketClient.xhtml#ad4f63c7d906310dc56a1217136047d7f" target="_top" xlink:title="Interpret the command at the front of the queue.">
<polygon fill="white" stroke="black" points="1110,-140.5 1110,-161.5 1280,-161.5 1280,-140.5 1110,-140.5"/>
<text text-anchor="middle" x="1195" y="-148.5" font-family="FreeSans.ttf" font-size="10.00">SocketClient::ProcessCommand</text>
</a>
</g>
<!-- Node4&#45;&gt;Node10 -->
<g id="edge18" class="edge"><title>Node4&#45;&gt;Node10</title>
<path fill="none" stroke="midnightblue" d="M923.88,-167.333C975.981,-164.194 1051.56,-159.641 1109.69,-156.139"/>
<polygon fill="midnightblue" stroke="midnightblue" points="923.556,-163.846 913.785,-167.941 923.977,-170.833 923.556,-163.846"/>
</g>
<!-- Node6 -->
<g id="node11" class="node"><title>Node6</title>
<a xlink:href="classSocketServer.xhtml#afdbc60c3bc840875d2214b59c6213f63" target="_top" xlink:title="Accept a new connection on the listening port.">
<polygon fill="white" stroke="black" points="1135,-180.5 1135,-201.5 1255,-201.5 1255,-180.5 1135,-180.5"/>
<text text-anchor="middle" x="1195" y="-188.5" font-family="FreeSans.ttf" font-size="10.00">SocketServer::Accept</text>
</a>
</g>
<!-- Node5&#45;&gt;Node6 -->
<g id="edge10" class="edge"><title>Node5&#45;&gt;Node6</title>
<path fill="none" stroke="midnightblue" d="M1084.03,-190.359C1100.59,-190.454 1118.46,-190.558 1134.92,-190.653"/>
<polygon fill="midnightblue" stroke="midnightblue" points="1083.93,-186.858 1073.91,-190.3 1083.89,-193.858 1083.93,-186.858"/>
</g>
<!-- Node7 -->
<g id="node13" class="node"><title>Node7</title>
<a xlink:href="classServer.xhtml#a39dbe16fdc8c5f6fbd678c6540fbcd6c" target="_top" xlink:title="Poll all SocketClient objects that are communicating with the associated SocketServer object...">
<polygon fill="white" stroke="black" points="1319.5,-180.5 1319.5,-201.5 1428.5,-201.5 1428.5,-180.5 1319.5,-180.5"/>
<text text-anchor="middle" x="1374" y="-188.5" font-family="FreeSans.ttf" font-size="10.00">Server::PollSockets</text>
</a>
</g>
<!-- Node6&#45;&gt;Node7 -->
<g id="edge12" class="edge"><title>Node6&#45;&gt;Node7</title>
<path fill="none" stroke="midnightblue" d="M1265.27,-191C1283.28,-191 1302.39,-191 1319.48,-191"/>
<polygon fill="midnightblue" stroke="midnightblue" points="1265.1,-187.5 1255.1,-191 1265.1,-194.5 1265.1,-187.5"/>
</g>
<!-- Node8 -->
<g id="node15" class="node"><title>Node8</title>
<a xlink:href="classServer.xhtml#a50b81aa91d8fdaee6f52c5c5ec987990" target="_top" xlink:title="The core update loop of NAMS. This loop spawns all other subsystem update routines and then sleeps fo...">
<polygon fill="white" stroke="black" points="1468.5,-160.5 1468.5,-181.5 1557.5,-181.5 1557.5,-160.5 1468.5,-160.5"/>
<text text-anchor="middle" x="1513" y="-168.5" font-family="FreeSans.ttf" font-size="10.00">Server::Update</text>
</a>
</g>
<!-- Node7&#45;&gt;Node8 -->
<g id="edge14" class="edge"><title>Node7&#45;&gt;Node8</title>
<path fill="none" stroke="midnightblue" d="M1438.57,-181.709C1448.69,-180.253 1458.94,-178.778 1468.47,-177.407"/>
<polygon fill="midnightblue" stroke="midnightblue" points="1437.94,-178.264 1428.54,-183.153 1438.93,-185.193 1437.94,-178.264"/>
</g>
<!-- Node9 -->
<g id="node17" class="node"><title>Node9</title>
<a xlink:href="main_8cpp.xhtml#ad53223b8779f25caeddb70a3b9172967" target="_top" xlink:title="The default function required to execute the server.">
<polygon fill="white" stroke="black" points="1594.5,-160.5 1594.5,-181.5 1635.5,-181.5 1635.5,-160.5 1594.5,-160.5"/>
<text text-anchor="middle" x="1615" y="-168.5" font-family="FreeSans.ttf" font-size="10.00">main</text>
</a>
</g>
<!-- Node8&#45;&gt;Node9 -->
<g id="edge16" class="edge"><title>Node8&#45;&gt;Node9</title>
<path fill="none" stroke="midnightblue" d="M1567.94,-171C1577.34,-171 1586.55,-171 1594.3,-171"/>
<polygon fill="midnightblue" stroke="midnightblue" points="1567.74,-167.5 1557.74,-171 1567.74,-174.5 1567.74,-167.5"/>
</g>
<!-- Node11 -->
<g id="node21" class="node"><title>Node11</title>
<a xlink:href="classServer.xhtml#a2b4cec469bb99c2a45e49de5ba74d1ae" target="_top" xlink:title="Processes input from all active SocketClient objects.">
<polygon fill="white" stroke="black" points="1316,-140.5 1316,-161.5 1432,-161.5 1432,-140.5 1316,-140.5"/>
<text text-anchor="middle" x="1374" y="-148.5" font-family="FreeSans.ttf" font-size="10.00">Server::ProcessInput</text>
</a>
</g>
<!-- Node10&#45;&gt;Node11 -->
<g id="edge20" class="edge"><title>Node10&#45;&gt;Node11</title>
<path fill="none" stroke="midnightblue" d="M1290.25,-151C1298.93,-151 1307.54,-151 1315.75,-151"/>
<polygon fill="midnightblue" stroke="midnightblue" points="1290.04,-147.5 1280.04,-151 1290.04,-154.5 1290.04,-147.5"/>
</g>
<!-- Node11&#45;&gt;Node8 -->
<g id="edge22" class="edge"><title>Node11&#45;&gt;Node8</title>
<path fill="none" stroke="midnightblue" d="M1442.1,-160.799C1450.96,-162.074 1459.86,-163.353 1468.2,-164.554"/>
<polygon fill="midnightblue" stroke="midnightblue" points="1442.54,-157.326 1432.14,-159.366 1441.54,-164.255 1442.54,-157.326"/>
</g>
<!-- Node13 -->
<g id="node26" class="node"><title>Node13</title>
<a xlink:href="namespaceHandler.xhtml#af650e47f3d4baf393b54376d1eaa1fa9" target="_top" xlink:title="Handle SocketClient objects who have not fully logged into the game yet.">
<polygon fill="white" stroke="black" points="632.5,-80.5 632.5,-101.5 755.5,-101.5 755.5,-80.5 632.5,-80.5"/>
<text text-anchor="middle" x="694" y="-88.5" font-family="FreeSans.ttf" font-size="10.00">Handler::ProcessLogin</text>
</a>
</g>
<!-- Node12&#45;&gt;Node13 -->
<g id="edge26" class="edge"><title>Node12&#45;&gt;Node13</title>
<path fill="none" stroke="midnightblue" d="M602.01,-84.2772C612.179,-84.2078 622.506,-84.2713 632.387,-84.4677"/>
<polygon fill="midnightblue" stroke="midnightblue" points="601.876,-80.7784 591.916,-84.391 601.955,-87.778 601.876,-80.7784"/>
</g>
<!-- Node13&#45;&gt;Node4 -->
<g id="edge28" class="edge"><title>Node13&#45;&gt;Node4</title>
<path fill="none" stroke="midnightblue" d="M716.975,-107.584C736.231,-120.852 764.857,-139.139 792,-151 800.332,-154.641 809.503,-157.8 818.408,-160.466"/>
<polygon fill="midnightblue" stroke="midnightblue" points="718.773,-104.57 708.574,-101.703 714.759,-110.305 718.773,-104.57"/>
</g>
<!-- Node13&#45;&gt;Node12 -->
<g id="edge30" class="edge"><title>Node13&#45;&gt;Node12</title>
<path fill="none" stroke="midnightblue" d="M622.38,-97.6844C612.269,-97.7922 601.913,-97.7671 591.916,-97.609"/>
<polygon fill="midnightblue" stroke="midnightblue" points="622.441,-101.184 632.387,-97.5323 622.335,-94.1848 622.441,-101.184"/>
</g>
<!-- Node14 -->
<g id="node30" class="node"><title>Node14</title>
<a xlink:href="namespaceHandler.xhtml#a00bc24564bfd267e0329643c569da1e4" target="_top" xlink:title="Select a new account name.">
<polygon fill="white" stroke="black" points="794.5,-120.5 794.5,-141.5 931.5,-141.5 931.5,-120.5 794.5,-120.5"/>
<text text-anchor="middle" x="863" y="-128.5" font-family="FreeSans.ttf" font-size="10.00">Handler::GetNewAccount</text>
</a>
</g>
<!-- Node13&#45;&gt;Node14 -->
<g id="edge32" class="edge"><title>Node13&#45;&gt;Node14</title>
<path fill="none" stroke="midnightblue" d="M765.89,-101.333C792.041,-107.241 819.84,-114.42 838.963,-120.424"/>
<polygon fill="midnightblue" stroke="midnightblue" points="766.49,-97.8808 755.97,-99.1353 764.976,-104.715 766.49,-97.8808"/>
</g>
<!-- Node15 -->
<g id="node33" class="node"><title>Node15</title>
<a xlink:href="namespaceHandler.xhtml#a744adadcf407cdb3a9c33365afd5a7c2" target="_top" xlink:title="Create a new account.">
<polygon fill="white" stroke="black" points="792,-80.5 792,-101.5 934,-101.5 934,-80.5 792,-80.5"/>
<text text-anchor="middle" x="863" y="-88.5" font-family="FreeSans.ttf" font-size="10.00">Handler::GetNewPassword</text>
</a>
</g>
<!-- Node13&#45;&gt;Node15 -->
<g id="edge36" class="edge"><title>Node13&#45;&gt;Node15</title>
<path fill="none" stroke="midnightblue" d="M766.231,-84.3136C774.732,-84.2249 783.402,-84.229 791.887,-84.3259"/>
<polygon fill="midnightblue" stroke="midnightblue" points="765.916,-80.8179 755.97,-84.4679 766.021,-87.8171 765.916,-80.8179"/>
</g>
<!-- Node16 -->
<g id="node36" class="node"><title>Node16</title>
<a xlink:href="namespaceHandler.xhtml#adfe13cc9748392348f3941656a1323b6" target="_top" xlink:title="Compare a received password against an existing account.">
<polygon fill="white" stroke="black" points="794.5,-40.5 794.5,-61.5 931.5,-61.5 931.5,-40.5 794.5,-40.5"/>
<text text-anchor="middle" x="863" y="-48.5" font-family="FreeSans.ttf" font-size="10.00">Handler::GetOldPassword</text>
</a>
</g>
<!-- Node13&#45;&gt;Node16 -->
<g id="edge40" class="edge"><title>Node13&#45;&gt;Node16</title>
<path fill="none" stroke="midnightblue" d="M727.582,-77.537C746.697,-71.9467 771.355,-65.7344 794.38,-60.5985"/>
<polygon fill="midnightblue" stroke="midnightblue" points="726.412,-74.2342 717.855,-80.4809 728.44,-80.934 726.412,-74.2342"/>
</g>
<!-- Node17 -->
<g id="node39" class="node"><title>Node17</title>
<a xlink:href="namespaceHandler.xhtml#a44b41bf69fdc6e615a029bea34910191" target="_top" xlink:title="Send initial greeting and request for account name.">
<polygon fill="white" stroke="black" points="803.5,-0.5 803.5,-21.5 922.5,-21.5 922.5,-0.5 803.5,-0.5"/>
<text text-anchor="middle" x="863" y="-8.5" font-family="FreeSans.ttf" font-size="10.00">Handler::LoginScreen</text>
</a>
</g>
<!-- Node13&#45;&gt;Node17 -->
<g id="edge44" class="edge"><title>Node13&#45;&gt;Node17</title>
<path fill="none" stroke="midnightblue" d="M709.237,-73.4601C727.917,-57.5746 760.929,-35.5773 792,-22 795.638,-20.4104 799.436,-18.9125 803.301,-17.5233"/>
<polygon fill="midnightblue" stroke="midnightblue" points="706.778,-70.9658 701.722,-80.2766 711.48,-76.1508 706.778,-70.9658"/>
</g>
<!-- Node14&#45;&gt;Node13 -->
<g id="edge34" class="edge"><title>Node14&#45;&gt;Node13</title>
<path fill="none" stroke="midnightblue" d="M784.433,-119.139C760.227,-113.531 735.368,-107.027 717.855,-101.519"/>
<polygon fill="midnightblue" stroke="midnightblue" points="783.853,-122.597 794.38,-121.402 785.405,-115.771 783.853,-122.597"/>
</g>
<!-- Node15&#45;&gt;Node13 -->
<g id="edge38" class="edge"><title>Node15&#45;&gt;Node13</title>
<path fill="none" stroke="midnightblue" d="M781.752,-97.7456C773.082,-97.7693 764.366,-97.6981 755.97,-97.5321"/>
<polygon fill="midnightblue" stroke="midnightblue" points="781.912,-101.245 791.887,-97.6741 781.863,-94.2448 781.912,-101.245"/>
</g>
<!-- Node16&#45;&gt;Node13 -->
<g id="edge42" class="edge"><title>Node16&#45;&gt;Node13</title>
<path fill="none" stroke="midnightblue" d="M829.251,-64.5117C808.302,-70.6321 780.742,-77.4912 755.97,-82.8647"/>
<polygon fill="midnightblue" stroke="midnightblue" points="830.403,-67.8199 838.963,-61.5762 828.378,-61.1193 830.403,-67.8199"/>
</g>
<!-- Node17&#45;&gt;Node13 -->
<g id="edge46" class="edge"><title>Node17&#45;&gt;Node13</title>
<path fill="none" stroke="midnightblue" d="M836.21,-24.7644C822.652,-29.0414 806.12,-33.8298 792,-40 765.859,-51.423 738.344,-68.806 719.146,-80.3576"/>
<polygon fill="midnightblue" stroke="midnightblue" points="837.5,-28.0248 845.908,-21.579 835.315,-21.3743 837.5,-28.0248"/>
</g>
<!-- Node18&#45;&gt;Node3 -->
<g id="edge50" class="edge"><title>Node18&#45;&gt;Node3</title>
<path fill="none" stroke="midnightblue" d="M476.247,-63.1028C458.607,-65.7648 438.522,-68.2538 419.929,-70.1033"/>
<polygon fill="midnightblue" stroke="midnightblue" points="476.985,-66.5297 486.32,-61.5189 475.898,-59.6147 476.985,-66.5297"/>
</g>
</g>
</svg>
        <g id="navigator" transform="translate(0 0)" fill="#404254">
                <rect fill="#f2f5e9" fill-opacity="0.5" stroke="#606060" stroke-width=".5" x="0" y="0" width="60" height="60"/>
                <use id="zoomplus" xlink:href="#zoomPlus" x="17" y="9" onmousedown="handleZoom(evt,'in')"/>
                <use id="zoomminus" xlink:href="#zoomMin" x="42" y="9" onmousedown="handleZoom(evt,'out')"/>
                <use id="reset" xlink:href="#resetDef" x="30" y="36" onmousedown="handleReset()"/>
                <g id="arrowUp" xlink:href="#dirArrow" transform="translate(30 24)" onmousedown="handlePan(0,-1)">
                  <use xlink:href="#rim" fill="#404040">
                        <set attributeName="fill" to="#808080" begin="arrowUp.mouseover" end="arrowUp.mouseout"/>
                  </use>
                  <path fill="none" stroke="white" stroke-width="1.5" d="M0,-3.0v7 M-2.5,-0.5L0,-3.0L2.5,-0.5"/>
                </g>
                <g id="arrowRight" xlink:href="#dirArrow" transform="rotate(90) translate(36 -43)" onmousedown="handlePan(1,0)">
                  <use xlink:href="#rim" fill="#404040">
                        <set attributeName="fill" to="#808080" begin="arrowRight.mouseover" end="arrowRight.mouseout"/>
                  </use>
                  <path fill="none" stroke="white" stroke-width="1.5" d="M0,-3.0v7 M-2.5,-0.5L0,-3.0L2.5,-0.5"/>
                </g>
                <g id="arrowDown" xlink:href="#dirArrow" transform="rotate(180) translate(-30 -48)" onmousedown="handlePan(0,1)">
                  <use xlink:href="#rim" fill="#404040">
                        <set attributeName="fill" to="#808080" begin="arrowDown.mouseover" end="arrowDown.mouseout"/>
                  </use>
                  <path fill="none" stroke="white" stroke-width="1.5" d="M0,-3.0v7 M-2.5,-0.5L0,-3.0L2.5,-0.5"/>
                </g>
                <g id="arrowLeft" xlink:href="#dirArrow" transform="rotate(270) translate(-36 17)" onmousedown="handlePan(-1,0)">
                  <use xlink:href="#rim" fill="#404040">
                        <set attributeName="fill" to="#808080" begin="arrowLeft.mouseover" end="arrowLeft.mouseout"/>
                  </use>
                  <path fill="none" stroke="white" stroke-width="1.5" d="M0,-3.0v7 M-2.5,-0.5L0,-3.0L2.5,-0.5"/>
                </g>
        </g>
</svg>
