<?xml version="1.0" encoding="UTF-8" standalone="no"?>
<!DOCTYPE svg PUBLIC "-//W3C//DTD SVG 1.1//EN"
 "http://www.w3.org/Graphics/SVG/1.1/DTD/svg11.dtd">
<!-- Generated by graphviz version 2.26.3 (20100126.1600)
 -->
<!-- Title: SocketClient::ProcessInput Pages: 1 -->
<svg width="508pt" height="28pt"
 viewBox="0.00 0.00 508.00 28.00" xmlns="http://www.w3.org/2000/svg" xmlns:xlink="http://www.w3.org/1999/xlink">
<g id="graph1" class="graph" transform="scale(1 1) rotate(0) translate(4 24)">
<title>SocketClient::ProcessInput</title>
<polygon fill="white" stroke="white" points="-4,5 -4,-24 505,-24 505,5 -4,5"/>
<!-- Node1 -->
<g id="node1" class="node"><title>Node1</title>
<polygon fill="#bfbfbf" stroke="black" points="0,-0 0,-20 144,-20 144,-0 0,-0"/>
<text text-anchor="middle" x="72" y="-7" font-family="FreeSans.ttf" font-size="10.00">SocketClient::ProcessInput</text>
</g>
<!-- Node2 -->
<g id="node3" class="node"><title>Node2</title>
<a xlink:href="namespaceServer.xhtml#a2b4cec469bb99c2a45e49de5ba74d1ae" target="_top" xlink:title="Processes input from all active SocketClient objects.">
<polygon fill="white" stroke="black" points="180,-0 180,-20 296,-20 296,-0 180,-0"/>
<text text-anchor="middle" x="238" y="-7" font-family="FreeSans.ttf" font-size="10.00">Server::ProcessInput</text>
</a>
</g>
<!-- Node1&#45;&gt;Node2 -->
<g id="edge2" class="edge"><title>Node1&#45;&gt;Node2</title>
<path fill="none" stroke="midnightblue" d="M154.401,-10C163.005,-10 171.617,-10 179.868,-10"/>
<polygon fill="midnightblue" stroke="midnightblue" points="154.327,-6.5001 144.327,-10 154.327,-13.5001 154.327,-6.5001"/>
</g>
<!-- Node3 -->
<g id="node5" class="node"><title>Node3</title>
<a xlink:href="namespaceServer.xhtml#a50b81aa91d8fdaee6f52c5c5ec987990" target="_top" xlink:title="The core update loop of NAMS. This loop spawns all other subsystem update routines and then sleeps fo...">
<polygon fill="white" stroke="black" points="332.5,-0 332.5,-20 421.5,-20 421.5,-0 332.5,-0"/>
<text text-anchor="middle" x="377" y="-7" font-family="FreeSans.ttf" font-size="10.00">Server::Update</text>
</a>
</g>
<!-- Node2&#45;&gt;Node3 -->
<g id="edge4" class="edge"><title>Node2&#45;&gt;Node3</title>
<path fill="none" stroke="midnightblue" d="M306.39,-10C315.156,-10 323.945,-10 332.2,-10"/>
<polygon fill="midnightblue" stroke="midnightblue" points="306.143,-6.5001 296.143,-10 306.143,-13.5001 306.143,-6.5001"/>
</g>
<!-- Node4 -->
<g id="node7" class="node"><title>Node4</title>
<a xlink:href="main_8cpp.xhtml#ad53223b8779f25caeddb70a3b9172967" target="_top" xlink:title="The default function required to execute the server.">
<polygon fill="white" stroke="black" points="458.5,-0 458.5,-20 499.5,-20 499.5,-0 458.5,-0"/>
<text text-anchor="middle" x="479" y="-7" font-family="FreeSans.ttf" font-size="10.00">main</text>
</a>
</g>
<!-- Node3&#45;&gt;Node4 -->
<g id="edge6" class="edge"><title>Node3&#45;&gt;Node4</title>
<path fill="none" stroke="midnightblue" d="M431.942,-10C441.336,-10 450.55,-10 458.3,-10"/>
<polygon fill="midnightblue" stroke="midnightblue" points="431.739,-6.5001 421.739,-10 431.739,-13.5001 431.739,-6.5001"/>
</g>
</g>
</svg>
