<?xml version="1.0" encoding="UTF-8" standalone="no"?>
<!DOCTYPE svg PUBLIC "-//W3C//DTD SVG 1.1//EN"
 "http://www.w3.org/Graphics/SVG/1.1/DTD/svg11.dtd">
<!-- Generated by graphviz version 2.26.3 (20100126.1600)
 -->
<!-- Title: Thing::NewId Pages: 1 -->
<svg width="194pt" height="66pt"
 viewBox="0.00 0.00 194.00 66.00" xmlns="http://www.w3.org/2000/svg" xmlns:xlink="http://www.w3.org/1999/xlink">
<g id="graph1" class="graph" transform="scale(1 1) rotate(0) translate(4 62)">
<title>Thing::NewId</title>
<polygon fill="white" stroke="white" points="-4,5 -4,-62 191,-62 191,5 -4,5"/>
<!-- Node1 -->
<g id="node1" class="node"><title>Node1</title>
<polygon fill="#bfbfbf" stroke="black" points="0.5,-19 0.5,-39 77.5,-39 77.5,-19 0.5,-19"/>
<text text-anchor="middle" x="39" y="-26" font-family="FreeSans.ttf" font-size="10.00">Thing::NewId</text>
</g>
<!-- Node2 -->
<g id="node3" class="node"><title>Node2</title>
<a xlink:href="namespaceUtils.xhtml#adafa6fa32d5b637ea62db12aa35db6e0" target="_top" xlink:title="Returns a salt value for use with crypt.">
<polygon fill="white" stroke="black" points="119,-38 119,-58 181,-58 181,-38 119,-38"/>
<text text-anchor="middle" x="150" y="-45" font-family="FreeSans.ttf" font-size="10.00">Utils::Salt</text>
</a>
</g>
<!-- Node1&#45;&gt;Node2 -->
<g id="edge2" class="edge"><title>Node1&#45;&gt;Node2</title>
<path fill="none" stroke="midnightblue" d="M77.5109,-35.592C87.6547,-37.3283 98.6365,-39.208 108.91,-40.9666"/>
<polygon fill="midnightblue" stroke="midnightblue" points="108.444,-44.4376 118.891,-42.6751 109.625,-37.538 108.444,-44.4376"/>
</g>
<!-- Node3 -->
<g id="node5" class="node"><title>Node3</title>
<a xlink:href="namespaceUtils.xhtml#a594756861a60d256d31db7bb34ea70de" target="_top" xlink:title="Returns a string object from any data type: bool, int, char, etc.">
<polygon fill="white" stroke="black" points="114,-0 114,-20 186,-20 186,-0 114,-0"/>
<text text-anchor="middle" x="150" y="-7" font-family="FreeSans.ttf" font-size="10.00">Utils::String</text>
</a>
</g>
<!-- Node1&#45;&gt;Node3 -->
<g id="edge4" class="edge"><title>Node1&#45;&gt;Node3</title>
<path fill="none" stroke="midnightblue" d="M77.5109,-22.408C85.9719,-20.9598 95.0159,-19.4117 103.746,-17.9174"/>
<polygon fill="midnightblue" stroke="midnightblue" points="104.53,-21.3342 113.796,-16.1971 103.349,-14.4345 104.53,-21.3342"/>
</g>
</g>
</svg>
