<?xml version="1.0" encoding="UTF-8" standalone="no"?>
<!DOCTYPE svg PUBLIC "-//W3C//DTD SVG 1.1//EN"
 "http://www.w3.org/Graphics/SVG/1.1/DTD/svg11.dtd">
<!-- Generated by graphviz version 2.26.3 (20100126.1600)
 -->
<!-- Title: G Pages: 1 -->
<!--zoomable 642 -->
<svg id="main" version="1.1" xmlns="http://www.w3.org/2000/svg" xmlns:xlink="http://www.w3.org/1999/xlink" xml:space="preserve" onload="init(evt)">
        <defs>
                <circle id="rim" cx="0" cy="0" r="7"/>
                <circle id="rim2" cx="0" cy="0" r="3.5"/>
                <g id="zoomPlus">
                        <use xlink:href="#rim" fill="#404040">
                                <set attributeName="fill" to="#808080" begin="zoomplus.mouseover" end="zoomplus.mouseout"/>
                        </use>
                        <path d="M-4,0h8M0,-4v8" fill="none" stroke="white" stroke-width="1.5" pointer-events="none"/>
                </g>
                <g id="zoomMin">
                        <use xlink:href="#rim" fill="#404040">
                                <set attributeName="fill" to="#808080" begin="zoomminus.mouseover" end="zoomminus.mouseout"/>
                        </use>
                        <path d="M-4,0h8" fill="none" stroke="white" stroke-width="1.5" pointer-events="none"/>
                </g>
                <g id="dirArrow">
                        <path fill="none" stroke="white" stroke-width="1.5" d="M0,-3.0v7 M-2.5,-0.5L0,-3.0L2.5,-0.5"/>
                </g>
               <g id="resetDef">
                       <use xlink:href="#rim2" fill="#404040">
                               <set attributeName="fill" to="#808080" begin="reset.mouseover" end="reset.mouseout"/>
                       </use>
               </g>
        </defs>

<script type="text/javascript">
var viewWidth = 1842;
var viewHeight = 642;
var sectionId = 'dynsection-4';
</script>
<script xlink:href="svgpan.js"/>
<svg id="graph" class="graph">
<g id="viewport">
<title>G</title>
<polygon fill="white" stroke="white" points="-4,5 -4,-638.297 1839,-638.297 1839,5 -4,5"/>
<!-- Node1 -->
<g id="node1" class="node"><title>Node1</title>
<polygon fill="#bfbfbf" stroke="black" points="0.5,-208.499 0.5,-229.499 111.5,-229.499 111.5,-208.499 0.5,-208.499"/>
<text text-anchor="middle" x="56" y="-216.499" font-family="FreeSans.ttf" font-size="10.00">Socket::aBytesSent</text>
</g>
<!-- Node2 -->
<g id="node3" class="node"><title>Node2</title>
<a xlink:href="classServer.xhtml#a16ea0639731dee10e1a253375b508a02" target="_top" xlink:title="Recovers the server state and re&#45;connects client sockets after a reboot.">
<polygon fill="white" stroke="black" points="148,-130.499 148,-151.499 278,-151.499 278,-130.499 148,-130.499"/>
<text text-anchor="middle" x="213" y="-138.499" font-family="FreeSans.ttf" font-size="10.00">Server::RebootRecovery</text>
</a>
</g>
<!-- Node1&#45;&gt;Node2 -->
<g id="edge2" class="edge"><title>Node1&#45;&gt;Node2</title>
<path fill="none" stroke="midnightblue" d="M86.207,-203.992C117.136,-188.626 164.423,-165.133 191.66,-151.601"/>
<polygon fill="midnightblue" stroke="midnightblue" points="84.5721,-200.896 77.1737,-208.48 87.6867,-207.165 84.5721,-200.896"/>
</g>
<!-- Node5 -->
<g id="node9" class="node"><title>Node5</title>
<a xlink:href="classSocketClient.xhtml#a6268f3d184970ec0076da657c39d2e80" target="_top" xlink:title="Process data from the client&#39;s send buffer and transmit it via the socket.">
<polygon fill="white" stroke="black" points="159.5,-286.499 159.5,-307.499 266.5,-307.499 266.5,-286.499 159.5,-286.499"/>
<text text-anchor="middle" x="213" y="-294.499" font-family="FreeSans.ttf" font-size="10.00">SocketClient::Send</text>
</a>
</g>
<!-- Node1&#45;&gt;Node5 -->
<g id="edge8" class="edge"><title>Node1&#45;&gt;Node5</title>
<path fill="none" stroke="midnightblue" d="M86.207,-234.006C117.136,-249.372 164.423,-272.865 191.66,-286.397"/>
<polygon fill="midnightblue" stroke="midnightblue" points="87.6867,-230.833 77.1737,-229.518 84.5721,-237.102 87.6867,-230.833"/>
</g>
<!-- Node3 -->
<g id="node5" class="node"><title>Node3</title>
<a xlink:href="classServer.xhtml#a19a1e493e1fb50a56d9c77332543d565" target="_top" xlink:title="Start the NAMS Server. Responsible for calling all critical boot&#45;time functions such as SocketServer ...">
<polygon fill="white" stroke="black" points="1666,-72.499 1666,-93.499 1756,-93.499 1756,-72.499 1666,-72.499"/>
<text text-anchor="middle" x="1711" y="-80.499" font-family="FreeSans.ttf" font-size="10.00">Server::Startup</text>
</a>
</g>
<!-- Node2&#45;&gt;Node3 -->
<g id="edge4" class="edge"><title>Node2&#45;&gt;Node3</title>
<path fill="none" stroke="midnightblue" d="M224.086,-121.837C240.208,-95.9777 272.753,-50.7599 314,-29.999 409.359,17.9978 446.244,-5.999 553,-5.999 553,-5.999 553,-5.999 1424,-5.999 1525.37,-5.999 1640.22,-51.3656 1688.12,-72.4539"/>
<polygon fill="midnightblue" stroke="midnightblue" points="221.083,-120.039 218.904,-130.408 227.073,-123.662 221.083,-120.039"/>
</g>
<!-- Node4 -->
<g id="node7" class="node"><title>Node4</title>
<a xlink:href="main_8cpp.xhtml#ad53223b8779f25caeddb70a3b9172967" target="_top" xlink:title="The default function required to execute the server.">
<polygon fill="white" stroke="black" points="1792.5,-72.499 1792.5,-93.499 1833.5,-93.499 1833.5,-72.499 1792.5,-72.499"/>
<text text-anchor="middle" x="1813" y="-80.499" font-family="FreeSans.ttf" font-size="10.00">main</text>
</a>
</g>
<!-- Node3&#45;&gt;Node4 -->
<g id="edge6" class="edge"><title>Node3&#45;&gt;Node4</title>
<path fill="none" stroke="midnightblue" d="M1766.2,-82.999C1775.56,-82.999 1784.73,-82.999 1792.43,-82.999"/>
<polygon fill="midnightblue" stroke="midnightblue" points="1766.04,-79.4991 1756.04,-82.999 1766.04,-86.4991 1766.04,-79.4991"/>
</g>
<!-- Node6 -->
<g id="node11" class="node"><title>Node6</title>
<a xlink:href="classAccount.xhtml#ae236325fef7b2269f54e9567577e0b92" target="_top" xlink:title="Unserialize the account data from CFG_DAT_FILE_SETTINGS.">
<polygon fill="white" stroke="black" points="327,-344.499 327,-365.499 441,-365.499 441,-344.499 327,-344.499"/>
<text text-anchor="middle" x="384" y="-352.499" font-family="FreeSans.ttf" font-size="10.00">Account::Unserialize</text>
</a>
</g>
<!-- Node5&#45;&gt;Node6 -->
<g id="edge10" class="edge"><title>Node5&#45;&gt;Node6</title>
<path fill="none" stroke="midnightblue" d="M253.454,-310.72C283.925,-321.055 325.079,-335.014 352.975,-344.476"/>
<polygon fill="midnightblue" stroke="midnightblue" points="254.561,-307.4 243.967,-307.502 252.313,-314.029 254.561,-307.4"/>
</g>
<!-- Node8 -->
<g id="node15" class="node"><title>Node8</title>
<a xlink:href="namespaceHandler.xhtml#a33a19d69ead678af81fbe96907eceaf0" target="_top" xlink:title="Create a new account object, or load an existing one, with a name and password.">
<polygon fill="white" stroke="black" points="652.5,-306.499 652.5,-327.499 783.5,-327.499 783.5,-306.499 652.5,-306.499"/>
<text text-anchor="middle" x="718" y="-314.499" font-family="FreeSans.ttf" font-size="10.00">Handler::AttachAccount</text>
</a>
</g>
<!-- Node5&#45;&gt;Node8 -->
<g id="edge54" class="edge"><title>Node5&#45;&gt;Node8</title>
<path fill="none" stroke="midnightblue" d="M276.748,-299.524C373.083,-303.339 554.83,-310.537 652.303,-314.397"/>
<polygon fill="midnightblue" stroke="midnightblue" points="276.696,-296.019 266.566,-299.12 276.419,-303.013 276.696,-296.019"/>
</g>
<!-- Node13 -->
<g id="node25" class="node"><title>Node13</title>
<a xlink:href="classServer.xhtml#a39dbe16fdc8c5f6fbd678c6540fbcd6c" target="_top" xlink:title="Poll all SocketClient objects that are communicating with the associated SocketServer object...">
<polygon fill="white" stroke="black" points="1520.5,-264.499 1520.5,-285.499 1629.5,-285.499 1629.5,-264.499 1520.5,-264.499"/>
<text text-anchor="middle" x="1575" y="-272.499" font-family="FreeSans.ttf" font-size="10.00">Server::PollSockets</text>
</a>
</g>
<!-- Node5&#45;&gt;Node13 -->
<g id="edge94" class="edge"><title>Node5&#45;&gt;Node13</title>
<path fill="none" stroke="midnightblue" d="M217.141,-317.39C229.851,-377.914 270.111,-554.58 314,-590.999 396.616,-659.554 445.645,-625.999 553,-625.999 553,-625.999 553,-625.999 1243,-625.999 1435.5,-625.999 1549.68,-343.906 1571.25,-285.504"/>
<polygon fill="midnightblue" stroke="midnightblue" points="220.548,-316.583 215.094,-307.5 213.694,-318.002 220.548,-316.583"/>
</g>
<!-- Node15 -->
<g id="node30" class="node"><title>Node15</title>
<a xlink:href="classSocketClient.xhtml#ad4f63c7d906310dc56a1217136047d7f" target="_top" xlink:title="Interpret the command at the front of the queue.">
<polygon fill="white" stroke="black" points="1158,-184.499 1158,-205.499 1328,-205.499 1328,-184.499 1158,-184.499"/>
<text text-anchor="middle" x="1243" y="-192.499" font-family="FreeSans.ttf" font-size="10.00">SocketClient::ProcessCommand</text>
</a>
</g>
<!-- Node5&#45;&gt;Node15 -->
<g id="edge104" class="edge"><title>Node5&#45;&gt;Node15</title>
<path fill="none" stroke="midnightblue" d="M222.636,-277.094C244.823,-231.634 298.777,-123.297 314,-112.999 402.627,-53.0443 445.999,-83.999 553,-83.999 553,-83.999 553,-83.999 882,-83.999 990.867,-83.999 1019.27,-96.9543 1122,-132.999 1160.98,-146.675 1203.21,-170.626 1226.03,-184.413"/>
<polygon fill="midnightblue" stroke="midnightblue" points="219.405,-275.737 218.178,-286.26 225.699,-278.798 219.405,-275.737"/>
</g>
<!-- Node17 -->
<g id="node36" class="node"><title>Node17</title>
<a xlink:href="namespaceHandler.xhtml#a00bc24564bfd267e0329643c569da1e4" target="_top" xlink:title="Select a new account name.">
<polygon fill="white" stroke="black" points="982.5,-383.499 982.5,-404.499 1119.5,-404.499 1119.5,-383.499 982.5,-383.499"/>
<text text-anchor="middle" x="1051" y="-391.499" font-family="FreeSans.ttf" font-size="10.00">Handler::GetNewAccount</text>
</a>
</g>
<!-- Node5&#45;&gt;Node17 -->
<g id="edge70" class="edge"><title>Node5&#45;&gt;Node17</title>
<path fill="none" stroke="midnightblue" d="M223.9,-316.284C240.004,-342.902 272.747,-390.396 314,-414.999 382.73,-455.988 410.427,-444.507 490,-452.999 683.786,-473.681 915.287,-426.557 1008.77,-404.547"/>
<polygon fill="midnightblue" stroke="midnightblue" points="226.822,-314.348 218.735,-307.503 220.788,-317.897 226.822,-314.348"/>
</g>
<!-- Node18 -->
<g id="node39" class="node"><title>Node18</title>
<a xlink:href="namespaceHandler.xhtml#a744adadcf407cdb3a9c33365afd5a7c2" target="_top" xlink:title="Create a new account.">
<polygon fill="white" stroke="black" points="980,-481.499 980,-502.499 1122,-502.499 1122,-481.499 980,-481.499"/>
<text text-anchor="middle" x="1051" y="-489.499" font-family="FreeSans.ttf" font-size="10.00">Handler::GetNewPassword</text>
</a>
</g>
<!-- Node5&#45;&gt;Node18 -->
<g id="edge72" class="edge"><title>Node5&#45;&gt;Node18</title>
<path fill="none" stroke="midnightblue" d="M217.863,-317.412C228.328,-356.752 256.808,-443.136 314,-487.999 400.17,-555.593 443.482,-547.999 553,-547.999 553,-547.999 553,-547.999 718,-547.999 772.227,-547.999 921.983,-518.754 1000.88,-502.532"/>
<polygon fill="midnightblue" stroke="midnightblue" points="221.235,-316.467 215.38,-307.637 214.45,-318.191 221.235,-316.467"/>
</g>
<!-- Node19 -->
<g id="node42" class="node"><title>Node19</title>
<a xlink:href="namespaceHandler.xhtml#adfe13cc9748392348f3941656a1323b6" target="_top" xlink:title="Compare a received password against an existing account.">
<polygon fill="white" stroke="black" points="982.5,-423.499 982.5,-444.499 1119.5,-444.499 1119.5,-423.499 982.5,-423.499"/>
<text text-anchor="middle" x="1051" y="-431.499" font-family="FreeSans.ttf" font-size="10.00">Handler::GetOldPassword</text>
</a>
</g>
<!-- Node5&#45;&gt;Node19 -->
<g id="edge74" class="edge"><title>Node5&#45;&gt;Node19</title>
<path fill="none" stroke="midnightblue" d="M220.261,-317.067C233.364,-350.112 264.313,-415.363 314,-445.999 551.189,-592.244 918.096,-481.019 1022.44,-444.517"/>
<polygon fill="midnightblue" stroke="midnightblue" points="223.466,-315.65 216.632,-307.554 216.926,-318.145 223.466,-315.65"/>
</g>
<!-- Node20 -->
<g id="node45" class="node"><title>Node20</title>
<a xlink:href="namespaceHandler.xhtml#a44b41bf69fdc6e615a029bea34910191" target="_top" xlink:title="Send initial greeting and request for account name.">
<polygon fill="white" stroke="black" points="991.5,-343.499 991.5,-364.499 1110.5,-364.499 1110.5,-343.499 991.5,-343.499"/>
<text text-anchor="middle" x="1051" y="-351.499" font-family="FreeSans.ttf" font-size="10.00">Handler::LoginScreen</text>
</a>
</g>
<!-- Node5&#45;&gt;Node20 -->
<g id="edge76" class="edge"><title>Node5&#45;&gt;Node20</title>
<path fill="none" stroke="midnightblue" d="M276.7,-291.311C344.973,-285.714 456.56,-277.999 553,-277.999 553,-277.999 553,-277.999 718,-277.999 818.799,-277.999 847.315,-268.497 944,-296.999 979.129,-307.355 1015.94,-329.966 1035.91,-343.388"/>
<polygon fill="midnightblue" stroke="midnightblue" points="276.212,-287.84 266.536,-292.155 276.791,-294.816 276.212,-287.84"/>
</g>
<!-- Node21 -->
<g id="node49" class="node"><title>Node21</title>
<a xlink:href="namespaceHandler.xhtml#af55c3642454fd95ff0fa2c4ff575bf67" target="_top" xlink:title="Create a new character in the game.">
<polygon fill="white" stroke="black" points="314,-228.499 314,-249.499 454,-249.499 454,-228.499 314,-228.499"/>
<text text-anchor="middle" x="384" y="-236.499" font-family="FreeSans.ttf" font-size="10.00">Handler::CharacterCreate</text>
</a>
</g>
<!-- Node5&#45;&gt;Node21 -->
<g id="edge56" class="edge"><title>Node5&#45;&gt;Node21</title>
<path fill="none" stroke="midnightblue" d="M253.454,-283.278C283.925,-272.943 325.079,-258.984 352.975,-249.522"/>
<polygon fill="midnightblue" stroke="midnightblue" points="252.313,-279.969 243.967,-286.496 254.561,-286.598 252.313,-279.969"/>
</g>
<!-- Node23 -->
<g id="node56" class="node"><title>Node23</title>
<a xlink:href="namespaceHandler.xhtml#a22b7749e3b3771d31eb2299efa5d821b" target="_top" xlink:title="Send initial account interface menu.">
<polygon fill="white" stroke="black" points="658,-189.499 658,-210.499 778,-210.499 778,-189.499 658,-189.499"/>
<text text-anchor="middle" x="718" y="-197.499" font-family="FreeSans.ttf" font-size="10.00">Handler::MenuScreen</text>
</a>
</g>
<!-- Node5&#45;&gt;Node23 -->
<g id="edge78" class="edge"><title>Node5&#45;&gt;Node23</title>
<path fill="none" stroke="midnightblue" d="M224.619,-277.587C240.977,-252.288 273.39,-209.034 314,-189.999 439.467,-131.188 611.798,-169.072 684.007,-189.458"/>
<polygon fill="midnightblue" stroke="midnightblue" points="221.493,-275.984 219.152,-286.316 227.426,-279.699 221.493,-275.984"/>
</g>
<!-- Node24 -->
<g id="node64" class="node"><title>Node24</title>
<a xlink:href="classServer.xhtml#ae1bb8d3c7c71119bae6dd4205fd6c0cc" target="_top" xlink:title="Sends a message to all clients connected to the Server.">
<polygon fill="white" stroke="black" points="830.5,-34.499 830.5,-55.499 933.5,-55.499 933.5,-34.499 830.5,-34.499"/>
<text text-anchor="middle" x="882" y="-42.499" font-family="FreeSans.ttf" font-size="10.00">Server::Broadcast</text>
</a>
</g>
<!-- Node5&#45;&gt;Node24 -->
<g id="edge80" class="edge"><title>Node5&#45;&gt;Node24</title>
<path fill="none" stroke="midnightblue" d="M222.977,-277.234C236.125,-250.942 259.725,-202.9 278,-160.999 295.388,-121.132 278.577,-95.2365 314,-69.999 395.797,-11.7222 706.469,-30.2989 830.453,-40.3692"/>
<polygon fill="midnightblue" stroke="midnightblue" points="219.84,-275.68 218.482,-286.187 226.096,-278.82 219.84,-275.68"/>
</g>
<!-- Node27 -->
<g id="node75" class="node"><title>Node27</title>
<a xlink:href="classSocketClient.xhtml#af09328648d18ae943c8866cf744e5aad" target="_top" xlink:title="Unload a client&#39;s socket from memory that was previously loaded via SocketClient::New().">
<polygon fill="white" stroke="black" points="1186,-224.499 1186,-245.499 1300,-245.499 1300,-224.499 1186,-224.499"/>
<text text-anchor="middle" x="1243" y="-232.499" font-family="FreeSans.ttf" font-size="10.00">SocketClient::Delete</text>
</a>
</g>
<!-- Node5&#45;&gt;Node27 -->
<g id="edge96" class="edge"><title>Node5&#45;&gt;Node27</title>
<path fill="none" stroke="midnightblue" d="M221.137,-276.56C234.985,-244.704 266.349,-183.879 314,-154.999 405.702,-99.4202 445.77,-121.999 553,-121.999 553,-121.999 553,-121.999 882,-121.999 1011.44,-121.999 1033.53,-179.469 1158,-214.999 1169.81,-218.369 1182.65,-221.609 1194.7,-224.464"/>
<polygon fill="midnightblue" stroke="midnightblue" points="217.749,-275.589 217.114,-286.165 224.205,-278.293 217.749,-275.589"/>
</g>
<!-- Node28 -->
<g id="node81" class="node"><title>Node28</title>
<a xlink:href="classSocketClient.xhtml#ad8ab017dd47d5e8b20ad30f72773a759" target="_top" xlink:title="Flags a client as quitting to break out of nested loops.">
<polygon fill="white" stroke="black" points="502,-188.499 502,-209.499 604,-209.499 604,-188.499 502,-188.499"/>
<text text-anchor="middle" x="553" y="-196.499" font-family="FreeSans.ttf" font-size="10.00">SocketClient::Quit</text>
</a>
</g>
<!-- Node5&#45;&gt;Node28 -->
<g id="edge106" class="edge"><title>Node5&#45;&gt;Node28</title>
<path fill="none" stroke="midnightblue" d="M229.762,-278.988C248.353,-260.338 280.209,-232.126 314,-218.999 375.323,-195.175 451.99,-193.141 501.702,-195.074"/>
<polygon fill="midnightblue" stroke="midnightblue" points="227.095,-276.711 222.64,-286.324 232.117,-281.587 227.095,-276.711"/>
</g>
<!-- Node29 -->
<g id="node84" class="node"><title>Node29</title>
<a xlink:href="namespaceTelopt.xhtml#aae5468ac9f53474dea225a4485905ac3" target="_top" xlink:title="Send initial options to negotiate for, then the login string.">
<polygon fill="white" stroke="black" points="652.5,-576.499 652.5,-597.499 783.5,-597.499 783.5,-576.499 652.5,-576.499"/>
<text text-anchor="middle" x="718" y="-584.499" font-family="FreeSans.ttf" font-size="10.00">Telopt::InitialNegotiation</text>
</a>
</g>
<!-- Node5&#45;&gt;Node29 -->
<g id="edge110" class="edge"><title>Node5&#45;&gt;Node29</title>
<path fill="none" stroke="midnightblue" d="M217.852,-317.765C231.623,-374.788 272.636,-531.571 314,-561.999 366.078,-600.309 552.001,-596.463 652.463,-591.27"/>
<polygon fill="midnightblue" stroke="midnightblue" points="221.191,-316.675 215.469,-307.758 214.381,-318.296 221.191,-316.675"/>
</g>
<!-- Node30 -->
<g id="node87" class="node"><title>Node30</title>
<a xlink:href="namespaceTelopt.xhtml#a4f56b29258351832660a550c61bda34f" target="_top" xlink:title="Sends a formatted telnet negotiation command to the client.">
<polygon fill="white" stroke="black" points="346.5,-384.499 346.5,-405.499 421.5,-405.499 421.5,-384.499 346.5,-384.499"/>
<text text-anchor="middle" x="384" y="-392.499" font-family="FreeSans.ttf" font-size="10.00">Telopt::Send</text>
</a>
</g>
<!-- Node5&#45;&gt;Node30 -->
<g id="edge114" class="edge"><title>Node5&#45;&gt;Node30</title>
<path fill="none" stroke="midnightblue" d="M231.251,-314.604C250.425,-332.207 282.165,-358.91 314,-374.999 324.039,-380.073 335.559,-384.036 346.316,-387.048"/>
<polygon fill="midnightblue" stroke="midnightblue" points="233.535,-311.948 223.84,-307.675 228.754,-317.061 233.535,-311.948"/>
</g>
<!-- Node7 -->
<g id="node13" class="node"><title>Node7</title>
<a xlink:href="classAccount.xhtml#adc4545f17264112e532b5a48abe94baf" target="_top" xlink:title="Create a new account.">
<polygon fill="white" stroke="black" points="512,-344.499 512,-365.499 594,-365.499 594,-344.499 512,-344.499"/>
<text text-anchor="middle" x="553" y="-352.499" font-family="FreeSans.ttf" font-size="10.00">Account::New</text>
</a>
</g>
<!-- Node6&#45;&gt;Node7 -->
<g id="edge12" class="edge"><title>Node6&#45;&gt;Node7</title>
<path fill="none" stroke="midnightblue" d="M451.431,-354.999C471.87,-354.999 493.698,-354.999 511.861,-354.999"/>
<polygon fill="midnightblue" stroke="midnightblue" points="451.216,-351.499 441.216,-354.999 451.216,-358.499 451.216,-351.499"/>
</g>
<!-- Node7&#45;&gt;Node8 -->
<g id="edge14" class="edge"><title>Node7&#45;&gt;Node8</title>
<path fill="none" stroke="midnightblue" d="M603.98,-343.258C625.832,-338.226 651.157,-332.393 672.381,-327.505"/>
<polygon fill="midnightblue" stroke="midnightblue" points="603.17,-339.853 594.211,-345.508 604.741,-346.674 603.17,-339.853"/>
</g>
<!-- Node9 -->
<g id="node17" class="node"><title>Node9</title>
<a xlink:href="namespaceHandler.xhtml#af650e47f3d4baf393b54376d1eaa1fa9" target="_top" xlink:title="Handle SocketClient objects who have not fully logged into the game yet.">
<polygon fill="white" stroke="black" points="820.5,-346.499 820.5,-367.499 943.5,-367.499 943.5,-346.499 820.5,-346.499"/>
<text text-anchor="middle" x="882" y="-354.499" font-family="FreeSans.ttf" font-size="10.00">Handler::ProcessLogin</text>
</a>
</g>
<!-- Node8&#45;&gt;Node9 -->
<g id="edge16" class="edge"><title>Node8&#45;&gt;Node9</title>
<path fill="none" stroke="midnightblue" d="M793.807,-328.756C817.4,-334.379 841.681,-340.919 858.777,-346.456"/>
<polygon fill="midnightblue" stroke="midnightblue" points="794.294,-325.275 783.76,-326.407 792.701,-332.092 794.294,-325.275"/>
</g>
<!-- Node9&#45;&gt;Node8 -->
<g id="edge36" class="edge"><title>Node9&#45;&gt;Node8</title>
<path fill="none" stroke="midnightblue" d="M810.584,-346.28C785.613,-340.428 759.311,-333.404 741.149,-327.518"/>
<polygon fill="midnightblue" stroke="midnightblue" points="809.906,-349.716 820.436,-348.543 811.473,-342.893 809.906,-349.716"/>
</g>
<!-- Node10 -->
<g id="node19" class="node"><title>Node10</title>
<a xlink:href="namespaceHandler.xhtml#a142c6f0b9e36e54eba3d72f9db2dfe40" target="_top" xlink:title="Redirect to the appropriate subsystem based on socket state.">
<polygon fill="white" stroke="black" points="1000.5,-247.499 1000.5,-268.499 1101.5,-268.499 1101.5,-247.499 1000.5,-247.499"/>
<text text-anchor="middle" x="1051" y="-255.499" font-family="FreeSans.ttf" font-size="10.00">Handler::Interpret</text>
</a>
</g>
<!-- Node9&#45;&gt;Node10 -->
<g id="edge18" class="edge"><title>Node9&#45;&gt;Node10</title>
<path fill="none" stroke="midnightblue" d="M931.182,-342.783C935.593,-341.017 939.928,-339.088 944,-336.999 981.803,-317.605 1020.54,-285.278 1039.34,-268.629"/>
<polygon fill="midnightblue" stroke="midnightblue" points="929.628,-339.627 921.473,-346.39 932.065,-346.189 929.628,-339.627"/>
</g>
<!-- Node9&#45;&gt;Node17 -->
<g id="edge38" class="edge"><title>Node9&#45;&gt;Node17</title>
<path fill="none" stroke="midnightblue" d="M954.032,-366.085C979.563,-371.404 1006.65,-377.9 1025.68,-383.472"/>
<polygon fill="midnightblue" stroke="midnightblue" points="954.467,-362.602 943.97,-364.034 953.069,-369.461 954.467,-362.602"/>
</g>
<!-- Node9&#45;&gt;Node18 -->
<g id="edge42" class="edge"><title>Node9&#45;&gt;Node18</title>
<path fill="none" stroke="midnightblue" d="M903.522,-374.849C922.317,-393.922 951.053,-423.633 980,-444.999 999.797,-459.612 1025.93,-472.093 1040.33,-481.391"/>
<polygon fill="midnightblue" stroke="midnightblue" points="905.874,-372.251 896.345,-367.621 900.907,-377.183 905.874,-372.251"/>
</g>
<!-- Node9&#45;&gt;Node19 -->
<g id="edge46" class="edge"><title>Node9&#45;&gt;Node19</title>
<path fill="none" stroke="midnightblue" d="M917.919,-372.72C935.982,-383.042 958.548,-395.912 980,-404.999 997.923,-412.591 1019.59,-418.219 1034.24,-423.422"/>
<polygon fill="midnightblue" stroke="midnightblue" points="919.334,-369.498 908.913,-367.588 915.869,-375.58 919.334,-369.498"/>
</g>
<!-- Node9&#45;&gt;Node20 -->
<g id="edge50" class="edge"><title>Node9&#45;&gt;Node20</title>
<path fill="none" stroke="midnightblue" d="M954.24,-349.03C966.595,-348.682 979.308,-348.523 991.291,-348.574"/>
<polygon fill="midnightblue" stroke="midnightblue" points="953.85,-345.541 943.97,-349.367 954.079,-352.537 953.85,-345.541"/>
</g>
<!-- Node11 -->
<g id="node21" class="node"><title>Node11</title>
<a xlink:href="classSocketClient.xhtml#a553658a2c076ea71ddcd1758fc64a925" target="_top" xlink:title="Build a SocketClient for a new client connection and set all attributes.">
<polygon fill="white" stroke="black" points="1191.5,-264.499 1191.5,-285.499 1294.5,-285.499 1294.5,-264.499 1191.5,-264.499"/>
<text text-anchor="middle" x="1243" y="-272.499" font-family="FreeSans.ttf" font-size="10.00">SocketClient::New</text>
</a>
</g>
<!-- Node10&#45;&gt;Node11 -->
<g id="edge20" class="edge"><title>Node10&#45;&gt;Node11</title>
<path fill="none" stroke="midnightblue" d="M1111.67,-263.371C1137.28,-265.639 1166.8,-268.252 1191.35,-270.426"/>
<polygon fill="midnightblue" stroke="midnightblue" points="1111.97,-259.883 1101.7,-262.488 1111.35,-266.856 1111.97,-259.883"/>
</g>
<!-- Node10&#45;&gt;Node15 -->
<g id="edge30" class="edge"><title>Node10&#45;&gt;Node15</title>
<path fill="none" stroke="midnightblue" d="M1083.81,-243.313C1104.75,-234.319 1132.63,-223.032 1158,-214.999 1168.98,-211.522 1180.94,-208.346 1192.32,-205.6"/>
<polygon fill="midnightblue" stroke="midnightblue" points="1082.2,-240.196 1074.42,-247.392 1084.99,-246.617 1082.2,-240.196"/>
</g>
<!-- Node12 -->
<g id="node23" class="node"><title>Node12</title>
<a xlink:href="classSocketServer.xhtml#afdbc60c3bc840875d2214b59c6213f63" target="_top" xlink:title="Accept a new connection on the listening port.">
<polygon fill="white" stroke="black" points="1364,-264.499 1364,-285.499 1484,-285.499 1484,-264.499 1364,-264.499"/>
<text text-anchor="middle" x="1424" y="-272.499" font-family="FreeSans.ttf" font-size="10.00">SocketServer::Accept</text>
</a>
</g>
<!-- Node11&#45;&gt;Node12 -->
<g id="edge22" class="edge"><title>Node11&#45;&gt;Node12</title>
<path fill="none" stroke="midnightblue" d="M1304.93,-274.999C1323.97,-274.999 1344.89,-274.999 1363.82,-274.999"/>
<polygon fill="midnightblue" stroke="midnightblue" points="1304.87,-271.499 1294.87,-274.999 1304.87,-278.499 1304.87,-271.499"/>
</g>
<!-- Node12&#45;&gt;Node13 -->
<g id="edge24" class="edge"><title>Node12&#45;&gt;Node13</title>
<path fill="none" stroke="midnightblue" d="M1494.34,-274.999C1503.12,-274.999 1511.99,-274.999 1520.48,-274.999"/>
<polygon fill="midnightblue" stroke="midnightblue" points="1494.11,-271.499 1484.11,-274.999 1494.11,-278.499 1494.11,-271.499"/>
</g>
<!-- Node14 -->
<g id="node27" class="node"><title>Node14</title>
<a xlink:href="classServer.xhtml#a50b81aa91d8fdaee6f52c5c5ec987990" target="_top" xlink:title="The core update loop of NAMS. This loop spawns all other subsystem update routines and then sleeps fo...">
<polygon fill="white" stroke="black" points="1666.5,-168.499 1666.5,-189.499 1755.5,-189.499 1755.5,-168.499 1666.5,-168.499"/>
<text text-anchor="middle" x="1711" y="-176.499" font-family="FreeSans.ttf" font-size="10.00">Server::Update</text>
</a>
</g>
<!-- Node13&#45;&gt;Node14 -->
<g id="edge26" class="edge"><title>Node13&#45;&gt;Node14</title>
<path fill="none" stroke="midnightblue" d="M1598.46,-258.437C1626.4,-238.719 1672.23,-206.368 1695.86,-189.687"/>
<polygon fill="midnightblue" stroke="midnightblue" points="1596.23,-255.732 1590.07,-264.359 1600.26,-261.451 1596.23,-255.732"/>
</g>
<!-- Node14&#45;&gt;Node4 -->
<g id="edge28" class="edge"><title>Node14&#45;&gt;Node4</title>
<path fill="none" stroke="midnightblue" d="M1729.7,-161.401C1750.73,-141.604 1784.23,-110.079 1801.64,-93.6871"/>
<polygon fill="midnightblue" stroke="midnightblue" points="1727.19,-158.956 1722.31,-168.359 1731.99,-164.054 1727.19,-158.956"/>
</g>
<!-- Node16 -->
<g id="node32" class="node"><title>Node16</title>
<a xlink:href="classServer.xhtml#a2b4cec469bb99c2a45e49de5ba74d1ae" target="_top" xlink:title="Processes input from all active SocketClient objects.">
<polygon fill="white" stroke="black" points="1366,-186.499 1366,-207.499 1482,-207.499 1482,-186.499 1366,-186.499"/>
<text text-anchor="middle" x="1424" y="-194.499" font-family="FreeSans.ttf" font-size="10.00">Server::ProcessInput</text>
</a>
</g>
<!-- Node15&#45;&gt;Node16 -->
<g id="edge32" class="edge"><title>Node15&#45;&gt;Node16</title>
<path fill="none" stroke="midnightblue" d="M1338.37,-196.053C1347.73,-196.156 1357.02,-196.259 1365.84,-196.356"/>
<polygon fill="midnightblue" stroke="midnightblue" points="1338.24,-192.551 1328.2,-195.94 1338.16,-199.551 1338.24,-192.551"/>
</g>
<!-- Node16&#45;&gt;Node14 -->
<g id="edge34" class="edge"><title>Node16&#45;&gt;Node14</title>
<path fill="none" stroke="midnightblue" d="M1492.23,-192.72C1546.05,-189.344 1619.57,-184.733 1666.18,-181.81"/>
<polygon fill="midnightblue" stroke="midnightblue" points="1491.84,-189.237 1482.08,-193.356 1492.28,-196.224 1491.84,-189.237"/>
</g>
<!-- Node17&#45;&gt;Node9 -->
<g id="edge40" class="edge"><title>Node17&#45;&gt;Node9</title>
<path fill="none" stroke="midnightblue" d="M972.367,-383.519C948.84,-378.484 924.704,-372.616 907.301,-367.521"/>
<polygon fill="midnightblue" stroke="midnightblue" points="971.885,-386.994 982.391,-385.621 973.322,-380.143 971.885,-386.994"/>
</g>
<!-- Node18&#45;&gt;Node9 -->
<g id="edge44" class="edge"><title>Node18&#45;&gt;Node9</title>
<path fill="none" stroke="midnightblue" d="M1000.86,-476.431C993.651,-472.344 986.485,-467.786 980,-462.999 940.323,-433.714 901.044,-388.75 887.214,-367.613"/>
<polygon fill="midnightblue" stroke="midnightblue" points="999.507,-479.677 1009.97,-481.338 1002.83,-473.514 999.507,-479.677"/>
</g>
<!-- Node19&#45;&gt;Node9 -->
<g id="edge48" class="edge"><title>Node19&#45;&gt;Node9</title>
<path fill="none" stroke="midnightblue" d="M973.189,-419.92C938.514,-403.956 904.962,-381.549 890.021,-367.638"/>
<polygon fill="midnightblue" stroke="midnightblue" points="971.938,-423.194 982.499,-424.035 974.767,-416.791 971.938,-423.194"/>
</g>
<!-- Node20&#45;&gt;Node9 -->
<g id="edge52" class="edge"><title>Node20&#45;&gt;Node9</title>
<path fill="none" stroke="midnightblue" d="M981.077,-361.9C968.771,-362.272 956.04,-362.455 943.97,-362.431"/>
<polygon fill="midnightblue" stroke="midnightblue" points="981.419,-365.39 991.291,-361.544 981.175,-358.395 981.419,-365.39"/>
</g>
<!-- Node22 -->
<g id="node51" class="node"><title>Node22</title>
<a xlink:href="namespaceHandler.xhtml#a093ad11406855ab2a6ca197bc2db42b7" target="_top" xlink:title="Main account menu for all account actions.">
<polygon fill="white" stroke="black" points="490.5,-228.499 490.5,-249.499 615.5,-249.499 615.5,-228.499 490.5,-228.499"/>
<text text-anchor="middle" x="553" y="-236.499" font-family="FreeSans.ttf" font-size="10.00">Handler::AccountMenu</text>
</a>
</g>
<!-- Node21&#45;&gt;Node22 -->
<g id="edge58" class="edge"><title>Node21&#45;&gt;Node22</title>
<path fill="none" stroke="midnightblue" d="M464.375,-232.256C473.081,-232.226 481.847,-232.291 490.3,-232.453"/>
<polygon fill="midnightblue" stroke="midnightblue" points="464.175,-228.758 454.203,-232.336 464.23,-235.757 464.175,-228.758"/>
</g>
<!-- Node22&#45;&gt;Node8 -->
<g id="edge62" class="edge"><title>Node22&#45;&gt;Node8</title>
<path fill="none" stroke="midnightblue" d="M584.327,-253.808C616.823,-269.17 666.825,-292.807 695.573,-306.397"/>
<polygon fill="midnightblue" stroke="midnightblue" points="585.789,-250.628 575.253,-249.518 582.798,-256.957 585.789,-250.628"/>
</g>
<!-- Node22&#45;&gt;Node10 -->
<g id="edge60" class="edge"><title>Node22&#45;&gt;Node10</title>
<path fill="none" stroke="midnightblue" d="M625.81,-241.777C728.082,-245.679 911.674,-252.683 1000.34,-256.066"/>
<polygon fill="midnightblue" stroke="midnightblue" points="625.694,-238.27 615.568,-241.386 625.427,-245.265 625.694,-238.27"/>
</g>
<!-- Node22&#45;&gt;Node21 -->
<g id="edge64" class="edge"><title>Node22&#45;&gt;Node21</title>
<path fill="none" stroke="midnightblue" d="M480.255,-245.691C471.615,-245.777 462.807,-245.768 454.203,-245.662"/>
<polygon fill="midnightblue" stroke="midnightblue" points="480.351,-249.19 490.3,-245.545 480.25,-242.19 480.351,-249.19"/>
</g>
<!-- Node22&#45;&gt;Node23 -->
<g id="edge66" class="edge"><title>Node22&#45;&gt;Node23</title>
<path fill="none" stroke="midnightblue" d="M586.798,-225.439C607.285,-219.465 634.013,-212.831 657.995,-207.66"/>
<polygon fill="midnightblue" stroke="midnightblue" points="585.554,-222.159 576.992,-228.4 587.577,-228.86 585.554,-222.159"/>
</g>
<!-- Node23&#45;&gt;Node22 -->
<g id="edge68" class="edge"><title>Node23&#45;&gt;Node22</title>
<path fill="none" stroke="midnightblue" d="M684.288,-213.534C664.596,-219.279 639.116,-225.638 615.85,-230.72"/>
<polygon fill="midnightblue" stroke="midnightblue" points="685.455,-216.838 694.016,-210.595 683.431,-210.137 685.455,-216.838"/>
</g>
<!-- Node25 -->
<g id="node66" class="node"><title>Node25</title>
<a xlink:href="classServer.xhtml#a9b7082bbc9faca6eb84180f856116762" target="_top" xlink:title="Perform a clean shutdown of the NAMS Server providing a chance to complete disk writes and free all m...">
<polygon fill="white" stroke="black" points="1373.5,-71.499 1373.5,-92.499 1474.5,-92.499 1474.5,-71.499 1373.5,-71.499"/>
<text text-anchor="middle" x="1424" y="-79.499" font-family="FreeSans.ttf" font-size="10.00">Server::Shutdown</text>
</a>
</g>
<!-- Node24&#45;&gt;Node25 -->
<g id="edge82" class="edge"><title>Node24&#45;&gt;Node25</title>
<path fill="none" stroke="midnightblue" d="M944.088,-49.2374C1052.37,-56.6295 1273.71,-71.7393 1373.37,-78.5429"/>
<polygon fill="midnightblue" stroke="midnightblue" points="944.184,-45.736 933.969,-48.5467 943.708,-52.7197 944.184,-45.736"/>
</g>
<!-- Node25&#45;&gt;Node3 -->
<g id="edge86" class="edge"><title>Node25&#45;&gt;Node3</title>
<path fill="none" stroke="midnightblue" d="M1484.8,-82.2108C1538.88,-82.3993 1616.76,-82.6706 1665.58,-82.8408"/>
<polygon fill="midnightblue" stroke="midnightblue" points="1484.66,-78.7104 1474.65,-82.1755 1484.64,-85.7104 1484.66,-78.7104"/>
</g>
<!-- Node25&#45;&gt;Node4 -->
<g id="edge84" class="edge"><title>Node25&#45;&gt;Node4</title>
<path fill="none" stroke="midnightblue" d="M1484.69,-70.3978C1551.6,-59.4875 1662.21,-47.0225 1756,-62.999 1768.41,-65.1123 1781.71,-69.639 1792.34,-73.852"/>
<polygon fill="midnightblue" stroke="midnightblue" points="1484.02,-66.9604 1474.73,-72.0617 1485.17,-73.8646 1484.02,-66.9604"/>
</g>
<!-- Node25&#45;&gt;Node14 -->
<g id="edge88" class="edge"><title>Node25&#45;&gt;Node14</title>
<path fill="none" stroke="midnightblue" d="M1445.94,-98.6334C1464.66,-112.031 1492.8,-130.332 1520,-140.999 1568,-159.823 1626.59,-169.705 1666.12,-174.618"/>
<polygon fill="midnightblue" stroke="midnightblue" points="1447.93,-95.756 1437.79,-92.6868 1443.81,-101.41 1447.93,-95.756"/>
</g>
<!-- Node26 -->
<g id="node71" class="node"><title>Node26</title>
<a xlink:href="classSocketServer.xhtml#a72918e73dd56b8986a15678c2cfb5a48" target="_top" xlink:title="Build a socket for a server and set all attributes.">
<polygon fill="white" stroke="black" points="1521.5,-110.499 1521.5,-131.499 1628.5,-131.499 1628.5,-110.499 1521.5,-110.499"/>
<text text-anchor="middle" x="1575" y="-118.499" font-family="FreeSans.ttf" font-size="10.00">SocketServer::New</text>
</a>
</g>
<!-- Node25&#45;&gt;Node26 -->
<g id="edge90" class="edge"><title>Node25&#45;&gt;Node26</title>
<path fill="none" stroke="midnightblue" d="M1474.72,-95.0977C1494.04,-100.089 1515.8,-105.71 1534.1,-110.437"/>
<polygon fill="midnightblue" stroke="midnightblue" points="1475.42,-91.665 1464.86,-92.553 1473.67,-98.4425 1475.42,-91.665"/>
</g>
<!-- Node26&#45;&gt;Node3 -->
<g id="edge92" class="edge"><title>Node26&#45;&gt;Node3</title>
<path fill="none" stroke="midnightblue" d="M1622.91,-107.611C1639.45,-102.992 1657.72,-97.8856 1673.32,-93.5273"/>
<polygon fill="midnightblue" stroke="midnightblue" points="1621.57,-104.352 1612.88,-110.414 1623.46,-111.094 1621.57,-104.352"/>
</g>
<!-- Node27&#45;&gt;Node12 -->
<g id="edge102" class="edge"><title>Node27&#45;&gt;Node12</title>
<path fill="none" stroke="midnightblue" d="M1300.44,-247.693C1324.93,-253.105 1353.16,-259.343 1376.45,-264.49"/>
<polygon fill="midnightblue" stroke="midnightblue" points="1301.08,-244.249 1290.56,-245.509 1299.56,-251.084 1301.08,-244.249"/>
</g>
<!-- Node27&#45;&gt;Node13 -->
<g id="edge98" class="edge"><title>Node27&#45;&gt;Node13</title>
<path fill="none" stroke="midnightblue" d="M1310.28,-238.171C1358.77,-241.043 1425.67,-246.209 1484,-254.999 1500,-257.409 1517.38,-260.988 1532.63,-264.455"/>
<polygon fill="midnightblue" stroke="midnightblue" points="1310.41,-234.672 1300.22,-237.592 1310,-241.661 1310.41,-234.672"/>
</g>
<!-- Node27&#45;&gt;Node16 -->
<g id="edge100" class="edge"><title>Node27&#45;&gt;Node16</title>
<path fill="none" stroke="midnightblue" d="M1303.36,-222.326C1326.24,-217.523 1352.02,-212.112 1373.85,-207.527"/>
<polygon fill="midnightblue" stroke="midnightblue" points="1302.49,-218.934 1293.42,-224.414 1303.92,-225.784 1302.49,-218.934"/>
</g>
<!-- Node28&#45;&gt;Node23 -->
<g id="edge108" class="edge"><title>Node28&#45;&gt;Node23</title>
<path fill="none" stroke="midnightblue" d="M614.434,-199.371C628.599,-199.457 643.652,-199.548 657.766,-199.634"/>
<polygon fill="midnightblue" stroke="midnightblue" points="614.324,-195.871 604.303,-199.31 614.281,-202.871 614.324,-195.871"/>
</g>
<!-- Node29&#45;&gt;Node11 -->
<g id="edge112" class="edge"><title>Node29&#45;&gt;Node11</title>
<path fill="none" stroke="midnightblue" d="M793.861,-593.367C882.446,-596.615 1028.7,-588.42 1122,-511.999 1199.37,-448.619 1232.42,-322.935 1240.77,-285.658"/>
<polygon fill="midnightblue" stroke="midnightblue" points="793.757,-589.859 783.617,-592.931 793.459,-596.853 793.757,-589.859"/>
</g>
<!-- Node31 -->
<g id="node89" class="node"><title>Node31</title>
<a xlink:href="namespaceTelopt.xhtml#acb81c2e75d328c24352dd8ef356b84d8" target="_top" xlink:title="Begins a telnet negotiation handshake for requested options.">
<polygon fill="white" stroke="black" points="666,-346.499 666,-367.499 770,-367.499 770,-346.499 666,-346.499"/>
<text text-anchor="middle" x="718" y="-354.499" font-family="FreeSans.ttf" font-size="10.00">Telopt::Handshake</text>
</a>
</g>
<!-- Node30&#45;&gt;Node31 -->
<g id="edge116" class="edge"><title>Node30&#45;&gt;Node31</title>
<path fill="none" stroke="midnightblue" d="M432.08,-392.103C479.093,-388.977 552.648,-383.303 616,-374.999 632.314,-372.861 649.997,-369.951 665.985,-367.095"/>
<polygon fill="midnightblue" stroke="midnightblue" points="431.635,-388.624 421.885,-392.768 432.091,-395.609 431.635,-388.624"/>
</g>
<!-- Node34 -->
<g id="node96" class="node"><title>Node34</title>
<a xlink:href="namespaceTelopt.xhtml#a71c731d78947d4c909f93df74950b64c" target="_top" xlink:title="Negotiate requested options.">
<polygon fill="white" stroke="black" points="504,-422.499 504,-443.499 602,-443.499 602,-422.499 504,-422.499"/>
<text text-anchor="middle" x="553" y="-430.499" font-family="FreeSans.ttf" font-size="10.00">Telopt::Negotiate</text>
</a>
</g>
<!-- Node30&#45;&gt;Node34 -->
<g id="edge124" class="edge"><title>Node30&#45;&gt;Node34</title>
<path fill="none" stroke="midnightblue" d="M431.541,-405.689C454.909,-410.943 482.974,-417.253 506.236,-422.484"/>
<polygon fill="midnightblue" stroke="midnightblue" points="432.031,-402.212 421.507,-403.432 430.495,-409.041 432.031,-402.212"/>
</g>
<!-- Node32 -->
<g id="node91" class="node"><title>Node32</title>
<a xlink:href="namespaceTelopt.xhtml#abdb8913fd8eb65e47c6035240d9a291f" target="_top" xlink:title="Processes data received from a SocketClient for telnet sequences.">
<polygon fill="white" stroke="black" points="826,-306.499 826,-327.499 938,-327.499 938,-306.499 826,-306.499"/>
<text text-anchor="middle" x="882" y="-314.499" font-family="FreeSans.ttf" font-size="10.00">Telopt::ProcessInput</text>
</a>
</g>
<!-- Node31&#45;&gt;Node32 -->
<g id="edge118" class="edge"><title>Node31&#45;&gt;Node32</title>
<path fill="none" stroke="midnightblue" d="M770.935,-344.088C792.914,-338.727 818.093,-332.586 838.914,-327.508"/>
<polygon fill="midnightblue" stroke="midnightblue" points="769.975,-340.72 761.089,-346.489 771.634,-347.52 769.975,-340.72"/>
</g>
<!-- Node33 -->
<g id="node93" class="node"><title>Node33</title>
<a xlink:href="classSocketClient.xhtml#a9ee09f452d900e288b2aa187561ef05d" target="_top" xlink:title="Receive data from the client and append it to a receive buffer.">
<polygon fill="white" stroke="black" points="1372,-304.499 1372,-325.499 1476,-325.499 1476,-304.499 1372,-304.499"/>
<text text-anchor="middle" x="1424" y="-312.499" font-family="FreeSans.ttf" font-size="10.00">SocketClient::Recv</text>
</a>
</g>
<!-- Node32&#45;&gt;Node33 -->
<g id="edge120" class="edge"><title>Node32&#45;&gt;Node33</title>
<path fill="none" stroke="midnightblue" d="M948.45,-316.754C1057.7,-316.351 1273.02,-315.556 1372,-315.191"/>
<polygon fill="midnightblue" stroke="midnightblue" points="948.203,-313.255 938.216,-316.792 948.229,-320.255 948.203,-313.255"/>
</g>
<!-- Node33&#45;&gt;Node13 -->
<g id="edge122" class="edge"><title>Node33&#45;&gt;Node13</title>
<path fill="none" stroke="midnightblue" d="M1473.56,-301.87C1493.6,-296.561 1516.42,-290.517 1535.33,-285.508"/>
<polygon fill="midnightblue" stroke="midnightblue" points="1472.44,-298.545 1463.67,-304.489 1474.24,-305.312 1472.44,-298.545"/>
</g>
<!-- Node34&#45;&gt;Node8 -->
<g id="edge126" class="edge"><title>Node34&#45;&gt;Node8</title>
<path fill="none" stroke="midnightblue" d="M572.934,-415.283C585.492,-403.968 601.931,-388.869 616,-374.999 632.567,-358.666 632.207,-349.225 652,-336.999 658.112,-333.224 664.984,-330.12 671.925,-327.579"/>
<polygon fill="midnightblue" stroke="midnightblue" points="570.417,-412.84 565.307,-422.121 575.089,-418.052 570.417,-412.84"/>
</g>
<!-- Node34&#45;&gt;Node18 -->
<g id="edge128" class="edge"><title>Node34&#45;&gt;Node18</title>
<path fill="none" stroke="midnightblue" d="M612.346,-441.669C625.4,-443.498 639.16,-445.367 652,-446.999 766.623,-461.564 900.081,-476.133 979.934,-484.595"/>
<polygon fill="midnightblue" stroke="midnightblue" points="612.451,-438.149 602.06,-440.215 611.472,-445.08 612.451,-438.149"/>
</g>
<!-- Node34&#45;&gt;Node19 -->
<g id="edge130" class="edge"><title>Node34&#45;&gt;Node19</title>
<path fill="none" stroke="midnightblue" d="M612.163,-433.118C704.842,-433.304 883.8,-433.663 982.131,-433.861"/>
<polygon fill="midnightblue" stroke="midnightblue" points="612.12,-429.618 602.113,-433.098 612.106,-436.618 612.12,-429.618"/>
</g>
<!-- Node34&#45;&gt;Node29 -->
<g id="edge132" class="edge"><title>Node34&#45;&gt;Node29</title>
<path fill="none" stroke="midnightblue" d="M571.865,-450.606C606.351,-482.793 678.59,-550.216 706.58,-576.34"/>
<polygon fill="midnightblue" stroke="midnightblue" points="574.04,-447.849 564.341,-443.584 569.264,-452.966 574.04,-447.849"/>
</g>
<!-- Node34&#45;&gt;Node31 -->
<g id="edge134" class="edge"><title>Node34&#45;&gt;Node31</title>
<path fill="none" stroke="midnightblue" d="M593.607,-418.607C601.204,-415.435 608.963,-411.858 616,-407.999 633.305,-398.509 634.621,-391.353 652,-381.999 662.358,-376.424 674.228,-371.515 685.021,-367.556"/>
<polygon fill="midnightblue" stroke="midnightblue" points="592.12,-415.432 584.138,-422.398 594.722,-421.931 592.12,-415.432"/>
</g>
</g>
</svg>
        <g id="navigator" transform="translate(0 0)" fill="#404254">
                <rect fill="#f2f5e9" fill-opacity="0.5" stroke="#606060" stroke-width=".5" x="0" y="0" width="60" height="60"/>
                <use id="zoomplus" xlink:href="#zoomPlus" x="17" y="9" onmousedown="handleZoom(evt,'in')"/>
                <use id="zoomminus" xlink:href="#zoomMin" x="42" y="9" onmousedown="handleZoom(evt,'out')"/>
                <use id="reset" xlink:href="#resetDef" x="30" y="36" onmousedown="handleReset()"/>
                <g id="arrowUp" xlink:href="#dirArrow" transform="translate(30 24)" onmousedown="handlePan(0,-1)">
                  <use xlink:href="#rim" fill="#404040">
                        <set attributeName="fill" to="#808080" begin="arrowUp.mouseover" end="arrowUp.mouseout"/>
                  </use>
                  <path fill="none" stroke="white" stroke-width="1.5" d="M0,-3.0v7 M-2.5,-0.5L0,-3.0L2.5,-0.5"/>
                </g>
                <g id="arrowRight" xlink:href="#dirArrow" transform="rotate(90) translate(36 -43)" onmousedown="handlePan(1,0)">
                  <use xlink:href="#rim" fill="#404040">
                        <set attributeName="fill" to="#808080" begin="arrowRight.mouseover" end="arrowRight.mouseout"/>
                  </use>
                  <path fill="none" stroke="white" stroke-width="1.5" d="M0,-3.0v7 M-2.5,-0.5L0,-3.0L2.5,-0.5"/>
                </g>
                <g id="arrowDown" xlink:href="#dirArrow" transform="rotate(180) translate(-30 -48)" onmousedown="handlePan(0,1)">
                  <use xlink:href="#rim" fill="#404040">
                        <set attributeName="fill" to="#808080" begin="arrowDown.mouseover" end="arrowDown.mouseout"/>
                  </use>
                  <path fill="none" stroke="white" stroke-width="1.5" d="M0,-3.0v7 M-2.5,-0.5L0,-3.0L2.5,-0.5"/>
                </g>
                <g id="arrowLeft" xlink:href="#dirArrow" transform="rotate(270) translate(-36 17)" onmousedown="handlePan(-1,0)">
                  <use xlink:href="#rim" fill="#404040">
                        <set attributeName="fill" to="#808080" begin="arrowLeft.mouseover" end="arrowLeft.mouseout"/>
                  </use>
                  <path fill="none" stroke="white" stroke-width="1.5" d="M0,-3.0v7 M-2.5,-0.5L0,-3.0L2.5,-0.5"/>
                </g>
        </g>
</svg>
