<?xml version="1.0" encoding="UTF-8" standalone="no"?>
<!DOCTYPE svg PUBLIC "-//W3C//DTD SVG 1.1//EN"
 "http://www.w3.org/Graphics/SVG/1.1/DTD/svg11.dtd">
<!-- Generated by graphviz version 2.26.3 (20100126.1600)
 -->
<!-- Title: Thing Pages: 1 -->
<!--zoomable 432 -->
<svg id="main" version="1.1" xmlns="http://www.w3.org/2000/svg" xmlns:xlink="http://www.w3.org/1999/xlink" xml:space="preserve" onload="init(evt)">
        <defs>
                <circle id="rim" cx="0" cy="0" r="7"/>
                <circle id="rim2" cx="0" cy="0" r="3.5"/>
                <g id="zoomPlus">
                        <use xlink:href="#rim" fill="#404040">
                                <set attributeName="fill" to="#808080" begin="zoomplus.mouseover" end="zoomplus.mouseout"/>
                        </use>
                        <path d="M-4,0h8M0,-4v8" fill="none" stroke="white" stroke-width="1.5" pointer-events="none"/>
                </g>
                <g id="zoomMin">
                        <use xlink:href="#rim" fill="#404040">
                                <set attributeName="fill" to="#808080" begin="zoomminus.mouseover" end="zoomminus.mouseout"/>
                        </use>
                        <path d="M-4,0h8" fill="none" stroke="white" stroke-width="1.5" pointer-events="none"/>
                </g>
                <g id="dirArrow">
                        <path fill="none" stroke="white" stroke-width="1.5" d="M0,-3.0v7 M-2.5,-0.5L0,-3.0L2.5,-0.5"/>
                </g>
               <g id="resetDef">
                       <use xlink:href="#rim2" fill="#404040">
                               <set attributeName="fill" to="#808080" begin="reset.mouseover" end="reset.mouseout"/>
                       </use>
               </g>
        </defs>

<script type="text/javascript">
var viewWidth = 548;
var viewHeight = 432;
var sectionId = 'dynsection-1';
</script>
<script xlink:href="svgpan.js"/>
<svg id="graph" class="graph">
<g id="viewport">
<title>Thing</title>
<polygon fill="white" stroke="white" points="-4,5 -4,-428 545,-428 545,5 -4,5"/>
<!-- Node1 -->
<g id="node1" class="node"><title>Node1</title>
<polygon fill="#bfbfbf" stroke="black" points="291,-236 291,-256 333,-256 333,-236 291,-236"/>
<text text-anchor="middle" x="312" y="-243" font-family="FreeSans.ttf" font-size="10.00">Thing</text>
</g>
<!-- Node2 -->
<g id="node2" class="node"><title>Node2</title>
<polygon fill="white" stroke="#bfbfbf" points="125,-153 125,-173 249,-173 249,-153 125,-153"/>
<text text-anchor="middle" x="187" y="-160" font-family="FreeSans.ttf" font-size="10.00">std::vector&lt; Thing * &gt;</text>
</g>
<!-- Node1&#45;&gt;Node2 -->
<g id="edge4" class="edge"><title>Node1&#45;&gt;Node2</title>
<path fill="none" stroke="#9a32cd" stroke-dasharray="5,2" d="M280.597,-243.054C246.662,-239.145 195.835,-230.929 184,-216 174.382,-203.867 178.679,-184.833 182.771,-173.181"/>
<polygon fill="#9a32cd" stroke="#9a32cd" points="280.632,-246.578 290.951,-244.175 281.386,-239.619 280.632,-246.578"/>
<text text-anchor="middle" x="208.5" y="-201" font-family="FreeSans.ttf" font-size="10.00"> elements</text>
</g>
<!-- Node8 -->
<g id="node15" class="node"><title>Node8</title>
<a xlink:href="classLocation.xhtml" target="_top" xlink:title="A physical location within the game world.">
<polygon fill="white" stroke="black" points="339.5,-153 339.5,-173 396.5,-173 396.5,-153 339.5,-153"/>
<text text-anchor="middle" x="368" y="-160" font-family="FreeSans.ttf" font-size="10.00">Location</text>
</a>
</g>
<!-- Node1&#45;&gt;Node8 -->
<g id="edge18" class="edge"><title>Node1&#45;&gt;Node8</title>
<path fill="none" stroke="midnightblue" d="M324.591,-227.339C335.941,-210.516 352.197,-186.423 361.252,-173.001"/>
<polygon fill="midnightblue" stroke="midnightblue" points="321.558,-225.575 318.867,-235.823 327.361,-229.49 321.558,-225.575"/>
</g>
<!-- Node2&#45;&gt;Node1 -->
<g id="edge2" class="edge"><title>Node2&#45;&gt;Node1</title>
<path fill="none" stroke="#9a32cd" stroke-dasharray="5,2" d="M214.765,-178.326C222.101,-182.585 229.939,-187.328 237,-192 251.826,-201.81 254.597,-205.579 269,-216 278.292,-222.723 288.854,-230.096 297.185,-235.85"/>
<polygon fill="#9a32cd" stroke="#9a32cd" points="216.258,-175.148 205.838,-173.231 212.788,-181.228 216.258,-175.148"/>
<text text-anchor="middle" x="299.5" y="-201" font-family="FreeSans.ttf" font-size="10.00"> m_contents</text>
</g>
<!-- Node3 -->
<g id="node5" class="node"><title>Node3</title>
<a xlink:title="STL class.">
<polygon fill="white" stroke="#bfbfbf" points="60.5,-236 60.5,-256 155.5,-256 155.5,-236 60.5,-236"/>
<text text-anchor="middle" x="108" y="-243" font-family="FreeSans.ttf" font-size="10.00">std::vector&lt; T &gt;</text>
</a>
</g>
<!-- Node3&#45;&gt;Node2 -->
<g id="edge6" class="edge"><title>Node3&#45;&gt;Node2</title>
<path fill="none" stroke="orange" stroke-dasharray="5,2" d="M101.181,-225.84C98.79,-214.892 98.17,-201.66 105,-192 110.056,-184.849 127.367,-178.224 144.788,-173.117"/>
<polygon fill="orange" stroke="orange" points="97.9018,-227.113 103.952,-235.81 104.646,-225.238 97.9018,-227.113"/>
<text text-anchor="middle" x="135" y="-201" font-family="FreeSans.ttf" font-size="10.00"> &lt; Thing * &gt;</text>
</g>
<!-- Node4 -->
<g id="node7" class="node"><title>Node4</title>
<polygon fill="white" stroke="#bfbfbf" points="55.5,-331 55.5,-351 84.5,-351 84.5,-331 55.5,-331"/>
<text text-anchor="middle" x="70" y="-338" font-family="FreeSans.ttf" font-size="10.00">T</text>
</g>
<!-- Node4&#45;&gt;Node3 -->
<g id="edge8" class="edge"><title>Node4&#45;&gt;Node3</title>
<path fill="none" stroke="#9a32cd" stroke-dasharray="5,2" d="M80.3936,-321.841C82.0149,-318.594 83.611,-315.228 85,-312 93.345,-292.606 100.971,-269.085 105.001,-256.007"/>
<polygon fill="#9a32cd" stroke="#9a32cd" points="77.1536,-320.485 75.6356,-330.97 83.3611,-323.72 77.1536,-320.485"/>
<text text-anchor="middle" x="123.5" y="-291" font-family="FreeSans.ttf" font-size="10.00"> elements</text>
</g>
<!-- Node11 -->
<g id="node25" class="node"><title>Node11</title>
<a xlink:title="STL class.">
<polygon fill="white" stroke="#bfbfbf" points="-0.5,-194 -0.5,-214 78.5,-214 78.5,-194 -0.5,-194"/>
<text text-anchor="middle" x="39" y="-201" font-family="FreeSans.ttf" font-size="10.00">std::list&lt; T &gt;</text>
</a>
</g>
<!-- Node4&#45;&gt;Node11 -->
<g id="edge32" class="edge"><title>Node4&#45;&gt;Node11</title>
<path fill="none" stroke="#9a32cd" stroke-dasharray="5,2" d="M46.7046,-328.483C40.8271,-324.103 35.264,-318.597 32,-312 15.835,-279.329 28.19,-234.153 35.1227,-214.187"/>
<polygon fill="#9a32cd" stroke="#9a32cd" points="45.0205,-331.563 55.3097,-334.09 48.842,-325.699 45.0205,-331.563"/>
<text text-anchor="middle" x="56.5" y="-291" font-family="FreeSans.ttf" font-size="10.00"> elements</text>
</g>
<!-- Node5 -->
<g id="node9" class="node"><title>Node5</title>
<a xlink:title="STL class.">
<polygon fill="white" stroke="#bfbfbf" points="406.5,-331 406.5,-351 471.5,-351 471.5,-331 406.5,-331"/>
<text text-anchor="middle" x="439" y="-338" font-family="FreeSans.ttf" font-size="10.00">std::string</text>
</a>
</g>
<!-- Node5&#45;&gt;Node1 -->
<g id="edge10" class="edge"><title>Node5&#45;&gt;Node1</title>
<path fill="none" stroke="#9a32cd" stroke-dasharray="5,2" d="M396.403,-332.548C381.887,-328.164 366.248,-321.633 354,-312 353.68,-311.748 330.215,-274.749 318.502,-256.265"/>
<polygon fill="#9a32cd" stroke="#9a32cd" points="395.647,-335.97 406.218,-335.251 397.506,-329.221 395.647,-335.97"/>
<text text-anchor="middle" x="389.5" y="-303" font-family="FreeSans.ttf" font-size="10.00"> m_description</text>
<text text-anchor="middle" x="389.5" y="-291" font-family="FreeSans.ttf" font-size="10.00">m_id</text>
<text text-anchor="middle" x="389.5" y="-279" font-family="FreeSans.ttf" font-size="10.00">m_name</text>
</g>
<!-- Node5&#45;&gt;Node8 -->
<g id="edge20" class="edge"><title>Node5&#45;&gt;Node8</title>
<path fill="none" stroke="#9a32cd" stroke-dasharray="5,2" d="M441.624,-320.605C444.472,-289.93 445.538,-231.328 419,-192 413.417,-183.726 404.634,-177.537 395.92,-173.049"/>
<polygon fill="#9a32cd" stroke="#9a32cd" points="438.106,-320.575 440.498,-330.896 445.065,-321.336 438.106,-320.575"/>
<text text-anchor="middle" x="462" y="-249" font-family="FreeSans.ttf" font-size="10.00"> m_zone</text>
<text text-anchor="middle" x="462" y="-237" font-family="FreeSans.ttf" font-size="10.00">m_file</text>
</g>
<!-- Node10 -->
<g id="node21" class="node"><title>Node10</title>
<a xlink:href="classExit.xhtml" target="_top" xlink:title="A link between two locations within the game world.">
<polygon fill="white" stroke="black" points="399,-71 399,-91 433,-91 433,-71 399,-71"/>
<text text-anchor="middle" x="416" y="-78" font-family="FreeSans.ttf" font-size="10.00">Exit</text>
</a>
</g>
<!-- Node5&#45;&gt;Node10 -->
<g id="edge26" class="edge"><title>Node5&#45;&gt;Node10</title>
<path fill="none" stroke="#9a32cd" stroke-dasharray="5,2" d="M450.187,-321.973C452.13,-318.652 454.128,-315.228 456,-312 469.887,-288.063 479.87,-284.739 487,-258 489.748,-247.693 487.726,-244.642 487,-234 483.213,-178.502 501.734,-155.686 470,-110 461.319,-97.5021 445.487,-89.9179 433.201,-85.6576"/>
<polygon fill="#9a32cd" stroke="#9a32cd" points="447.042,-320.417 445.002,-330.813 453.08,-323.958 447.042,-320.417"/>
<text text-anchor="middle" x="513.5" y="-207" font-family="FreeSans.ttf" font-size="10.00"> m_dest_id</text>
<text text-anchor="middle" x="513.5" y="-195" font-family="FreeSans.ttf" font-size="10.00">m_name</text>
</g>
<!-- Node6 -->
<g id="node11" class="node"><title>Node6</title>
<a xlink:title="STL class.">
<polygon fill="white" stroke="#bfbfbf" points="387.5,-391 387.5,-423 490.5,-423 490.5,-391 387.5,-391"/>
<text text-anchor="start" x="395.5" y="-410" font-family="FreeSans.ttf" font-size="10.00">std::basic_string&lt;</text>
<text text-anchor="middle" x="439" y="-398" font-family="FreeSans.ttf" font-size="10.00"> char &gt;</text>
</a>
</g>
<!-- Node6&#45;&gt;Node5 -->
<g id="edge12" class="edge"><title>Node6&#45;&gt;Node5</title>
<path fill="none" stroke="midnightblue" d="M439,-380.45C439,-370.156 439,-358.991 439,-351.175"/>
<polygon fill="midnightblue" stroke="midnightblue" points="435.5,-380.685 439,-390.685 442.5,-380.685 435.5,-380.685"/>
</g>
<!-- Node7 -->
<g id="node13" class="node"><title>Node7</title>
<polygon fill="white" stroke="#bfbfbf" points="252.5,-331 252.5,-351 327.5,-351 327.5,-331 252.5,-331"/>
<text text-anchor="middle" x="290" y="-338" font-family="FreeSans.ttf" font-size="10.00">unsigned int</text>
</g>
<!-- Node7&#45;&gt;Node1 -->
<g id="edge14" class="edge"><title>Node7&#45;&gt;Node1</title>
<path fill="none" stroke="#9a32cd" stroke-dasharray="5,2" d="M287.27,-320.303C286.288,-307.275 286.376,-290.284 291,-276 293.35,-268.742 298.111,-261.696 302.506,-256.259"/>
<polygon fill="#9a32cd" stroke="#9a32cd" points="283.82,-320.972 288.321,-330.563 290.784,-320.258 283.82,-320.972"/>
<text text-anchor="middle" x="311" y="-291" font-family="FreeSans.ttf" font-size="10.00"> m_type</text>
</g>
<!-- Node8&#45;&gt;Node1 -->
<g id="edge16" class="edge"><title>Node8&#45;&gt;Node1</title>
<path fill="none" stroke="#9a32cd" stroke-dasharray="5,2" d="M362.259,-182.599C358.614,-193.098 353.213,-205.91 346,-216 340.598,-223.557 332.952,-230.521 326.279,-235.833"/>
<polygon fill="#9a32cd" stroke="#9a32cd" points="365.598,-183.649 365.321,-173.057 358.933,-181.51 365.598,-183.649"/>
<text text-anchor="middle" x="387" y="-201" font-family="FreeSans.ttf" font-size="10.00"> m_location</text>
</g>
<!-- Node8&#45;&gt;Node10 -->
<g id="edge28" class="edge"><title>Node8&#45;&gt;Node10</title>
<path fill="none" stroke="#9a32cd" stroke-dasharray="5,2" d="M379.032,-144.153C388.686,-127.661 402.34,-104.335 410.066,-91.1371"/>
<polygon fill="#9a32cd" stroke="#9a32cd" points="375.917,-142.547 373.886,-152.945 381.958,-146.083 375.917,-142.547"/>
<text text-anchor="middle" x="431.5" y="-125" font-family="FreeSans.ttf" font-size="10.00"> m_location</text>
<text text-anchor="middle" x="431.5" y="-113" font-family="FreeSans.ttf" font-size="10.00">m_destination</text>
</g>
<!-- Node9 -->
<g id="node19" class="node"><title>Node9</title>
<polygon fill="white" stroke="#bfbfbf" points="290.5,-1 290.5,-21 389.5,-21 389.5,-1 290.5,-1"/>
<text text-anchor="middle" x="340" y="-8" font-family="FreeSans.ttf" font-size="10.00">std::list&lt; Exit * &gt;</text>
</g>
<!-- Node9&#45;&gt;Node8 -->
<g id="edge22" class="edge"><title>Node9&#45;&gt;Node8</title>
<path fill="none" stroke="#9a32cd" stroke-dasharray="5,2" d="M341.389,-31.1389C342.727,-47.6041 345.129,-71.4383 349,-92 353.155,-114.07 360.577,-139.352 364.81,-152.999"/>
<polygon fill="#9a32cd" stroke="#9a32cd" points="344.87,-30.756 340.627,-21.0479 337.89,-31.283 344.87,-30.756"/>
<text text-anchor="middle" x="369.5" y="-78" font-family="FreeSans.ttf" font-size="10.00"> m_exits</text>
</g>
<!-- Node10&#45;&gt;Node9 -->
<g id="edge24" class="edge"><title>Node10&#45;&gt;Node9</title>
<path fill="none" stroke="#9a32cd" stroke-dasharray="5,2" d="M397.623,-64.0738C383.006,-50.6107 363.05,-32.2306 350.869,-21.0107"/>
<polygon fill="#9a32cd" stroke="#9a32cd" points="395.384,-66.7703 405.111,-70.9707 400.127,-61.6215 395.384,-66.7703"/>
<text text-anchor="middle" x="406.5" y="-43" font-family="FreeSans.ttf" font-size="10.00"> elements</text>
</g>
<!-- Node11&#45;&gt;Node9 -->
<g id="edge30" class="edge"><title>Node11&#45;&gt;Node9</title>
<path fill="none" stroke="orange" stroke-dasharray="5,2" d="M61.9773,-188.201C77.2163,-177.792 97.7024,-163.933 116,-152 192.98,-101.797 286.398,-43.9766 323.584,-21.0825"/>
<polygon fill="orange" stroke="orange" points="59.9419,-185.352 53.6674,-193.89 63.8962,-191.129 59.9419,-185.352"/>
<text text-anchor="middle" x="206" y="-119" font-family="FreeSans.ttf" font-size="10.00"> &lt; Exit * &gt;</text>
</g>
</g>
</svg>
        <g id="navigator" transform="translate(0 0)" fill="#404254">
                <rect fill="#f2f5e9" fill-opacity="0.5" stroke="#606060" stroke-width=".5" x="0" y="0" width="60" height="60"/>
                <use id="zoomplus" xlink:href="#zoomPlus" x="17" y="9" onmousedown="handleZoom(evt,'in')"/>
                <use id="zoomminus" xlink:href="#zoomMin" x="42" y="9" onmousedown="handleZoom(evt,'out')"/>
                <use id="reset" xlink:href="#resetDef" x="30" y="36" onmousedown="handleReset()"/>
                <g id="arrowUp" xlink:href="#dirArrow" transform="translate(30 24)" onmousedown="handlePan(0,-1)">
                  <use xlink:href="#rim" fill="#404040">
                        <set attributeName="fill" to="#808080" begin="arrowUp.mouseover" end="arrowUp.mouseout"/>
                  </use>
                  <path fill="none" stroke="white" stroke-width="1.5" d="M0,-3.0v7 M-2.5,-0.5L0,-3.0L2.5,-0.5"/>
                </g>
                <g id="arrowRight" xlink:href="#dirArrow" transform="rotate(90) translate(36 -43)" onmousedown="handlePan(1,0)">
                  <use xlink:href="#rim" fill="#404040">
                        <set attributeName="fill" to="#808080" begin="arrowRight.mouseover" end="arrowRight.mouseout"/>
                  </use>
                  <path fill="none" stroke="white" stroke-width="1.5" d="M0,-3.0v7 M-2.5,-0.5L0,-3.0L2.5,-0.5"/>
                </g>
                <g id="arrowDown" xlink:href="#dirArrow" transform="rotate(180) translate(-30 -48)" onmousedown="handlePan(0,1)">
                  <use xlink:href="#rim" fill="#404040">
                        <set attributeName="fill" to="#808080" begin="arrowDown.mouseover" end="arrowDown.mouseout"/>
                  </use>
                  <path fill="none" stroke="white" stroke-width="1.5" d="M0,-3.0v7 M-2.5,-0.5L0,-3.0L2.5,-0.5"/>
                </g>
                <g id="arrowLeft" xlink:href="#dirArrow" transform="rotate(270) translate(-36 17)" onmousedown="handlePan(-1,0)">
                  <use xlink:href="#rim" fill="#404040">
                        <set attributeName="fill" to="#808080" begin="arrowLeft.mouseover" end="arrowLeft.mouseout"/>
                  </use>
                  <path fill="none" stroke="white" stroke-width="1.5" d="M0,-3.0v7 M-2.5,-0.5L0,-3.0L2.5,-0.5"/>
                </g>
        </g>
        <svg viewBox="0 0 15 15" width="100%" height="30px" preserveAspectRatio="xMaxYMin meet">
         <g id="arrow_out" transform="scale(0.3 0.3)">
          <a xlink:href="classThing__coll__graph_org.svg" target="_base">
           <rect id="button" ry="5" rx="5" y="6" x="6" height="38" width="38"
                fill="#f2f5e9" fill-opacity="0.5" stroke="#606060" stroke-width="1.0"/>
           <path id="arrow"
             d="M 11.500037,31.436501 C 11.940474,20.09759 22.043105,11.32322 32.158766,21.979434 L 37.068811,17.246167 C 37.068811,17.246167 37.088388,32 37.088388,32 L 22.160133,31.978069 C 22.160133,31.978069 26.997745,27.140456 26.997745,27.140456 C 18.528582,18.264221 13.291696,25.230495 11.500037,31.436501 z"
             style="fill:#404040;"/>
          </a>
         </g>
        </svg>
</svg>
