<?xml version="1.0" encoding="UTF-8" standalone="no"?>
<!DOCTYPE svg PUBLIC "-//W3C//DTD SVG 1.1//EN"
 "http://www.w3.org/Graphics/SVG/1.1/DTD/svg11.dtd">
<!-- Generated by graphviz version 2.26.3 (20100126.1600)
 -->
<!-- Title: Thing::RemoveThing Pages: 1 -->
<svg width="948pt" height="66pt"
 viewBox="0.00 0.00 948.00 66.00" xmlns="http://www.w3.org/2000/svg" xmlns:xlink="http://www.w3.org/1999/xlink">
<g id="graph1" class="graph" transform="scale(1 1) rotate(0) translate(4 62)">
<title>Thing::RemoveThing</title>
<polygon fill="white" stroke="white" points="-4,5 -4,-62 945,-62 945,5 -4,5"/>
<!-- Node1 -->
<g id="node1" class="node"><title>Node1</title>
<polygon fill="#bfbfbf" stroke="black" points="0,-19 0,-39 112,-39 112,-19 0,-19"/>
<text text-anchor="middle" x="56" y="-26" font-family="FreeSans.ttf" font-size="10.00">Thing::RemoveThing</text>
</g>
<!-- Node2 -->
<g id="node3" class="node"><title>Node2</title>
<a xlink:href="classThing.xhtml#a1134d82f5d0d47167badcfc99170b8a0" target="_top" xlink:title="Moves a Thing from within one Thing and into another Thing.">
<polygon fill="white" stroke="black" points="152,-38 152,-58 226,-58 226,-38 152,-38"/>
<text text-anchor="middle" x="189" y="-45" font-family="FreeSans.ttf" font-size="10.00">Thing::Move</text>
</a>
</g>
<!-- Node1&#45;&gt;Node2 -->
<g id="edge2" class="edge"><title>Node1&#45;&gt;Node2</title>
<path fill="none" stroke="midnightblue" d="M122.21,-38.4585C132.44,-39.92 142.679,-41.3827 151.959,-42.7084"/>
<polygon fill="midnightblue" stroke="midnightblue" points="122.413,-34.9521 112.019,-37.0026 121.423,-41.8818 122.413,-34.9521"/>
</g>
<!-- Node8 -->
<g id="node15" class="node"><title>Node8</title>
<a xlink:href="classThing.xhtml#ad4cc59aaae978053d0764b444d088984" target="_top" xlink:title="Destructor for the Thing class.">
<polygon fill="white" stroke="black" points="148,-0 148,-20 230,-20 230,-0 148,-0"/>
<text text-anchor="middle" x="189" y="-7" font-family="FreeSans.ttf" font-size="10.00">Thing::~Thing</text>
</a>
</g>
<!-- Node1&#45;&gt;Node8 -->
<g id="edge14" class="edge"><title>Node1&#45;&gt;Node8</title>
<path fill="none" stroke="midnightblue" d="M121.991,-19.5727C130.858,-18.306 139.737,-17.0376 147.998,-15.8575"/>
<polygon fill="midnightblue" stroke="midnightblue" points="121.423,-16.1182 112.019,-20.9974 122.413,-23.0479 121.423,-16.1182"/>
</g>
<!-- Node3 -->
<g id="node5" class="node"><title>Node3</title>
<a xlink:href="classCharacter.xhtml#ad51f5ff0cfefa9bd7e674bc413f6b73c" target="_top" xlink:title="Interprets cmd with args at level security.">
<polygon fill="white" stroke="black" points="266.5,-38 266.5,-58 377.5,-58 377.5,-38 266.5,-38"/>
<text text-anchor="middle" x="322" y="-45" font-family="FreeSans.ttf" font-size="10.00">Character::Interpret</text>
</a>
</g>
<!-- Node2&#45;&gt;Node3 -->
<g id="edge4" class="edge"><title>Node2&#45;&gt;Node3</title>
<path fill="none" stroke="midnightblue" d="M236.357,-48C246.116,-48 256.476,-48 266.494,-48"/>
<polygon fill="midnightblue" stroke="midnightblue" points="236.048,-44.5001 226.048,-48 236.048,-51.5001 236.048,-44.5001"/>
</g>
<!-- Node4 -->
<g id="node7" class="node"><title>Node4</title>
<a xlink:href="classSocketClient.xhtml#ad4f63c7d906310dc56a1217136047d7f" target="_top" xlink:title="Interpret the command at the front of the queue.">
<polygon fill="white" stroke="black" points="414,-38 414,-58 584,-58 584,-38 414,-38"/>
<text text-anchor="middle" x="499" y="-45" font-family="FreeSans.ttf" font-size="10.00">SocketClient::ProcessCommand</text>
</a>
</g>
<!-- Node3&#45;&gt;Node4 -->
<g id="edge6" class="edge"><title>Node3&#45;&gt;Node4</title>
<path fill="none" stroke="midnightblue" d="M387.737,-48C396.257,-48 405.078,-48 413.856,-48"/>
<polygon fill="midnightblue" stroke="midnightblue" points="387.518,-44.5001 377.518,-48 387.518,-51.5001 387.518,-44.5001"/>
</g>
<!-- Node5 -->
<g id="node9" class="node"><title>Node5</title>
<a xlink:href="namespaceServer.xhtml#a2b4cec469bb99c2a45e49de5ba74d1ae" target="_top" xlink:title="Processes input from all active SocketClient objects.">
<polygon fill="white" stroke="black" points="620,-38 620,-58 736,-58 736,-38 620,-38"/>
<text text-anchor="middle" x="678" y="-45" font-family="FreeSans.ttf" font-size="10.00">Server::ProcessInput</text>
</a>
</g>
<!-- Node4&#45;&gt;Node5 -->
<g id="edge8" class="edge"><title>Node4&#45;&gt;Node5</title>
<path fill="none" stroke="midnightblue" d="M594.249,-48C602.93,-48 611.54,-48 619.748,-48"/>
<polygon fill="midnightblue" stroke="midnightblue" points="594.044,-44.5001 584.044,-48 594.044,-51.5001 594.044,-44.5001"/>
</g>
<!-- Node6 -->
<g id="node11" class="node"><title>Node6</title>
<a xlink:href="namespaceServer.xhtml#a50b81aa91d8fdaee6f52c5c5ec987990" target="_top" xlink:title="The core update loop of NAMS. This loop spawns all other subsystem update routines and then sleeps fo...">
<polygon fill="white" stroke="black" points="772.5,-38 772.5,-58 861.5,-58 861.5,-38 772.5,-38"/>
<text text-anchor="middle" x="817" y="-45" font-family="FreeSans.ttf" font-size="10.00">Server::Update</text>
</a>
</g>
<!-- Node5&#45;&gt;Node6 -->
<g id="edge10" class="edge"><title>Node5&#45;&gt;Node6</title>
<path fill="none" stroke="midnightblue" d="M746.39,-48C755.156,-48 763.945,-48 772.2,-48"/>
<polygon fill="midnightblue" stroke="midnightblue" points="746.143,-44.5001 736.143,-48 746.143,-51.5001 746.143,-44.5001"/>
</g>
<!-- Node7 -->
<g id="node13" class="node"><title>Node7</title>
<a xlink:href="main_8cpp.xhtml#ad53223b8779f25caeddb70a3b9172967" target="_top" xlink:title="The default function required to execute the server.">
<polygon fill="white" stroke="black" points="898.5,-38 898.5,-58 939.5,-58 939.5,-38 898.5,-38"/>
<text text-anchor="middle" x="919" y="-45" font-family="FreeSans.ttf" font-size="10.00">main</text>
</a>
</g>
<!-- Node6&#45;&gt;Node7 -->
<g id="edge12" class="edge"><title>Node6&#45;&gt;Node7</title>
<path fill="none" stroke="midnightblue" d="M871.942,-48C881.336,-48 890.55,-48 898.3,-48"/>
<polygon fill="midnightblue" stroke="midnightblue" points="871.739,-44.5001 861.739,-48 871.739,-51.5001 871.739,-44.5001"/>
</g>
</g>
</svg>
