<?xml version="1.0" encoding="UTF-8" standalone="no"?>
<!DOCTYPE svg PUBLIC "-//W3C//DTD SVG 1.1//EN"
 "http://www.w3.org/Graphics/SVG/1.1/DTD/svg11.dtd">
<!-- Generated by graphviz version 2.26.3 (20100126.1600)
 -->
<!-- Title: Thing::Brain Pages: 1 -->
<!--zoomable 730 -->
<svg id="main" version="1.1" xmlns="http://www.w3.org/2000/svg" xmlns:xlink="http://www.w3.org/1999/xlink" xml:space="preserve" onload="init(evt)">
        <defs>
                <circle id="rim" cx="0" cy="0" r="7"/>
                <circle id="rim2" cx="0" cy="0" r="3.5"/>
                <g id="zoomPlus">
                        <use xlink:href="#rim" fill="#404040">
                                <set attributeName="fill" to="#808080" begin="zoomplus.mouseover" end="zoomplus.mouseout"/>
                        </use>
                        <path d="M-4,0h8M0,-4v8" fill="none" stroke="white" stroke-width="1.5" pointer-events="none"/>
                </g>
                <g id="zoomMin">
                        <use xlink:href="#rim" fill="#404040">
                                <set attributeName="fill" to="#808080" begin="zoomminus.mouseover" end="zoomminus.mouseout"/>
                        </use>
                        <path d="M-4,0h8" fill="none" stroke="white" stroke-width="1.5" pointer-events="none"/>
                </g>
                <g id="dirArrow">
                        <path fill="none" stroke="white" stroke-width="1.5" d="M0,-3.0v7 M-2.5,-0.5L0,-3.0L2.5,-0.5"/>
                </g>
               <g id="resetDef">
                       <use xlink:href="#rim2" fill="#404040">
                               <set attributeName="fill" to="#808080" begin="reset.mouseover" end="reset.mouseout"/>
                       </use>
               </g>
        </defs>

<script type="text/javascript">
var viewWidth = 1192;
var viewHeight = 730;
var sectionId = 'dynsection-0';
</script>
<script xlink:href="svgpan.js"/>
<svg id="graph" class="graph">
<g id="viewport">
<title>Thing::Brain</title>
<polygon fill="white" stroke="white" points="-4,5 -4,-726.226 1189,-726.226 1189,5 -4,5"/>
<!-- Node1 -->
<g id="node1" class="node"><title>Node1</title>
<polygon fill="#bfbfbf" stroke="black" points="143.5,-494.226 143.5,-514.226 216.5,-514.226 216.5,-494.226 143.5,-494.226"/>
<text text-anchor="middle" x="180" y="-501.226" font-family="FreeSans.ttf" font-size="10.00">Thing::Brain</text>
</g>
<!-- Node18 -->
<g id="node42" class="node"><title>Node18</title>
<a xlink:href="classThing.xhtml" target="_top" xlink:title="A generic &quot;thing&quot;: creature, character, room, object, etc.">
<polygon fill="white" stroke="black" points="366,-358.226 366,-378.226 408,-378.226 408,-358.226 366,-358.226"/>
<text text-anchor="middle" x="387" y="-365.226" font-family="FreeSans.ttf" font-size="10.00">Thing</text>
</a>
</g>
<!-- Node1&#45;&gt;Node18 -->
<g id="edge64" class="edge"><title>Node1&#45;&gt;Node18</title>
<path fill="none" stroke="#9a32cd" stroke-dasharray="5,2" d="M205.703,-488.867C232.148,-472.913 274.391,-447.002 310,-423.226 332.543,-408.173 358.014,-389.676 373.274,-378.428"/>
<polygon fill="#9a32cd" stroke="#9a32cd" points="203.81,-485.922 197.044,-494.075 207.418,-491.92 203.81,-485.922"/>
<text text-anchor="middle" x="273" y="-472.226" font-family="FreeSans.ttf" font-size="10.00"> m_brain</text>
</g>
<!-- Node2 -->
<g id="node2" class="node"><title>Node2</title>
<a xlink:href="classAccount.xhtml" target="_top" xlink:title="Security structure to maintain characters, roles, and permissions.">
<polygon fill="white" stroke="black" points="932,-397.226 932,-417.226 988,-417.226 988,-397.226 932,-397.226"/>
<text text-anchor="middle" x="960" y="-404.226" font-family="FreeSans.ttf" font-size="10.00">Account</text>
</a>
</g>
<!-- Node2&#45;&gt;Node1 -->
<g id="edge2" class="edge"><title>Node2&#45;&gt;Node1</title>
<path fill="none" stroke="#9a32cd" stroke-dasharray="5,2" d="M922.409,-420.358C912.009,-423.629 900.651,-426.87 890,-429.226 843.385,-439.533 502.447,-456.924 464,-485.226 448.626,-496.543 462.081,-513.937 446,-524.226 401.824,-552.491 380.326,-527.745 328,-524.226 289.842,-521.659 246.523,-515.411 216.658,-510.575"/>
<polygon fill="#9a32cd" stroke="#9a32cd" points="923.598,-423.652 932.033,-417.241 921.441,-416.993 923.598,-423.652"/>
<text text-anchor="middle" x="528" y="-488.226" font-family="FreeSans.ttf" font-size="10.00"> m_account</text>
</g>
<!-- Node3 -->
<g id="node4" class="node"><title>Node3</title>
<a xlink:href="classSocketClient.xhtml" target="_top" xlink:title="SocketClient extends the Socket class to implement remote&#45;host socket functions.">
<polygon fill="white" stroke="black" points="1106.5,-207.226 1106.5,-227.226 1183.5,-227.226 1183.5,-207.226 1106.5,-207.226"/>
<text text-anchor="middle" x="1145" y="-214.226" font-family="FreeSans.ttf" font-size="10.00">SocketClient</text>
</a>
</g>
<!-- Node2&#45;&gt;Node3 -->
<g id="edge16" class="edge"><title>Node2&#45;&gt;Node3</title>
<path fill="none" stroke="#9a32cd" stroke-dasharray="5,2" d="M973.165,-388.873C986.272,-371.419 1007.62,-345.1 1030,-326.226 1053.02,-306.817 1065.54,-311.274 1088,-291.226 1110.02,-271.572 1129.54,-242.461 1138.98,-227.274"/>
<polygon fill="#9a32cd" stroke="#9a32cd" points="970.214,-386.978 967.101,-397.105 975.85,-391.13 970.214,-386.978"/>
<text text-anchor="middle" x="1059" y="-329.226" font-family="FreeSans.ttf" font-size="10.00"> m_account</text>
</g>
<!-- Node3&#45;&gt;Node2 -->
<g id="edge4" class="edge"><title>Node3&#45;&gt;Node2</title>
<path fill="none" stroke="#9a32cd" stroke-dasharray="5,2" d="M1140.37,-237.039C1133.22,-263.848 1117.16,-311.812 1088,-342.226 1060.14,-371.279 1016.49,-389.544 988.061,-399.07"/>
<polygon fill="#9a32cd" stroke="#9a32cd" points="1143.79,-237.816 1142.83,-227.264 1137,-236.107 1143.79,-237.816"/>
<text text-anchor="middle" x="1059" y="-384.226" font-family="FreeSans.ttf" font-size="10.00"> m_client</text>
</g>
<!-- Node4 -->
<g id="node6" class="node"><title>Node4</title>
<a xlink:href="classSocket.xhtml" target="_top" xlink:title="Functions and interfaces that are common to both SocketClient and SocketServer.">
<polygon fill="white" stroke="black" points="362,-62.2256 362,-82.2256 412,-82.2256 412,-62.2256 362,-62.2256"/>
<text text-anchor="middle" x="387" y="-69.2256" font-family="FreeSans.ttf" font-size="10.00">Socket</text>
</a>
</g>
<!-- Node4&#45;&gt;Node3 -->
<g id="edge6" class="edge"><title>Node4&#45;&gt;Node3</title>
<path fill="none" stroke="midnightblue" d="M417.211,-58.0166C431.129,-52.2158 448.065,-46.1833 464,-43.2256 527.801,-31.3835 545.11,-42.4478 610,-42.2256 822.734,-41.497 922.868,66.8919 1088,-67.2256 1132.76,-103.581 1142.4,-179.217 1144.45,-206.839"/>
<polygon fill="midnightblue" stroke="midnightblue" points="415.45,-54.9648 407.666,-62.1522 418.233,-61.3878 415.45,-54.9648"/>
</g>
<!-- Node5 -->
<g id="node8" class="node"><title>Node5</title>
<polygon fill="white" stroke="#bfbfbf" points="148.5,-61.2256 148.5,-81.2256 211.5,-81.2256 211.5,-61.2256 148.5,-61.2256"/>
<text text-anchor="middle" x="180" y="-68.2256" font-family="FreeSans.ttf" font-size="10.00">signed int</text>
</g>
<!-- Node5&#45;&gt;Node4 -->
<g id="edge8" class="edge"><title>Node5&#45;&gt;Node4</title>
<path fill="none" stroke="#9a32cd" stroke-dasharray="5,2" d="M222.081,-71.4289C264.075,-71.6317 327.203,-71.9367 361.912,-72.1044"/>
<polygon fill="#9a32cd" stroke="#9a32cd" points="221.907,-67.9281 211.89,-71.3796 221.873,-74.928 221.907,-67.9281"/>
<text text-anchor="middle" x="273" y="-75.2256" font-family="FreeSans.ttf" font-size="10.00"> m_descriptor</text>
</g>
<!-- Node6 -->
<g id="node10" class="node"><title>Node6</title>
<a xlink:title="STL class.">
<polygon fill="white" stroke="#bfbfbf" points="147.5,-336.226 147.5,-356.226 212.5,-356.226 212.5,-336.226 147.5,-336.226"/>
<text text-anchor="middle" x="180" y="-343.226" font-family="FreeSans.ttf" font-size="10.00">std::string</text>
</a>
</g>
<!-- Node6&#45;&gt;Node2 -->
<g id="edge36" class="edge"><title>Node6&#45;&gt;Node2</title>
<path fill="none" stroke="#9a32cd" stroke-dasharray="5,2" d="M187.863,-365.712C196.556,-384.326 212.511,-411.264 236,-423.226 242.608,-426.591 227.391,-436.327 748,-419.226 813.952,-417.059 891.322,-412.055 931.899,-409.241"/>
<polygon fill="#9a32cd" stroke="#9a32cd" points="190.993,-364.134 183.779,-356.374 184.58,-366.939 190.993,-364.134"/>
<text text-anchor="middle" x="528" y="-441.226" font-family="FreeSans.ttf" font-size="10.00"> m_password</text>
<text text-anchor="middle" x="528" y="-429.226" font-family="FreeSans.ttf" font-size="10.00">m_id</text>
</g>
<!-- Node6&#45;&gt;Node3 -->
<g id="edge28" class="edge"><title>Node6&#45;&gt;Node3</title>
<path fill="none" stroke="#9a32cd" stroke-dasharray="5,2" d="M191.263,-327.366C201.085,-312.816 216.761,-293.635 236,-284.226 238.489,-283.008 933.35,-232.568 1106.35,-220.026"/>
<polygon fill="#9a32cd" stroke="#9a32cd" points="188.111,-325.799 185.675,-336.11 194.009,-329.569 188.111,-325.799"/>
<text text-anchor="middle" x="679" y="-282.226" font-family="FreeSans.ttf" font-size="10.00"> m_output</text>
<text text-anchor="middle" x="679" y="-270.226" font-family="FreeSans.ttf" font-size="10.00">m_input</text>
<text text-anchor="middle" x="679" y="-258.226" font-family="FreeSans.ttf" font-size="10.00">m_login</text>
</g>
<!-- Node6&#45;&gt;Node4 -->
<g id="edge10" class="edge"><title>Node6&#45;&gt;Node4</title>
<path fill="none" stroke="#9a32cd" stroke-dasharray="5,2" d="M189.471,-326.987C199.999,-306.104 217.914,-272.018 236,-244.226 265.575,-198.777 284.769,-195.222 310,-147.226 321.968,-124.459 309.909,-110.508 328,-92.2256 336.977,-83.1538 350.213,-78.1958 361.876,-75.4866"/>
<polygon fill="#9a32cd" stroke="#9a32cd" points="186.26,-325.582 184.927,-336.092 192.524,-328.707 186.26,-325.582"/>
<text text-anchor="middle" x="273" y="-247.226" font-family="FreeSans.ttf" font-size="10.00"> m_hostname</text>
</g>
<!-- Node15 -->
<g id="node33" class="node"><title>Node15</title>
<polygon fill="white" stroke="#bfbfbf" points="620.5,-513.226 620.5,-533.226 737.5,-533.226 737.5,-513.226 620.5,-513.226"/>
<text text-anchor="middle" x="679" y="-520.226" font-family="FreeSans.ttf" font-size="10.00">std::vector&lt; string &gt;</text>
</g>
<!-- Node6&#45;&gt;Node15 -->
<g id="edge40" class="edge"><title>Node6&#45;&gt;Node15</title>
<path fill="none" stroke="#9a32cd" stroke-dasharray="5,2" d="M181.752,-366.391C185.621,-397.367 197.853,-456.027 236,-484.226 266.228,-506.57 506.841,-517.488 620.248,-521.434"/>
<polygon fill="#9a32cd" stroke="#9a32cd" points="185.221,-365.908 180.673,-356.339 178.261,-366.655 185.221,-365.908"/>
<text text-anchor="middle" x="387" y="-515.226" font-family="FreeSans.ttf" font-size="10.00"> elements</text>
</g>
<!-- Node17 -->
<g id="node40" class="node"><title>Node17</title>
<a xlink:href="classCharacter.xhtml" target="_top" xlink:title="An actor within the game world.">
<polygon fill="white" stroke="black" points="647,-331.226 647,-351.226 711,-351.226 711,-331.226 647,-331.226"/>
<text text-anchor="middle" x="679" y="-338.226" font-family="FreeSans.ttf" font-size="10.00">Character</text>
</a>
</g>
<!-- Node6&#45;&gt;Node17 -->
<g id="edge66" class="edge"><title>Node6&#45;&gt;Node17</title>
<path fill="none" stroke="#9a32cd" stroke-dasharray="5,2" d="M222.585,-343.032C252.144,-340.963 292.444,-338.437 328,-337.226 445.266,-333.232 474.714,-332.858 592,-336.226 610.147,-336.747 630.398,-337.878 646.792,-338.933"/>
<polygon fill="#9a32cd" stroke="#9a32cd" points="222.329,-339.541 212.603,-343.741 222.826,-346.523 222.329,-339.541"/>
<text text-anchor="middle" x="387" y="-340.226" font-family="FreeSans.ttf" font-size="10.00"> m_file</text>
</g>
<!-- Node6&#45;&gt;Node18 -->
<g id="edge58" class="edge"><title>Node6&#45;&gt;Node18</title>
<path fill="none" stroke="#9a32cd" stroke-dasharray="5,2" d="M222.828,-350.777C266.42,-355.41 332.206,-362.402 365.73,-365.965"/>
<polygon fill="#9a32cd" stroke="#9a32cd" points="223.114,-347.288 212.8,-349.712 222.374,-354.249 223.114,-347.288"/>
<text text-anchor="middle" x="273" y="-410.226" font-family="FreeSans.ttf" font-size="10.00"> m_zone</text>
<text text-anchor="middle" x="273" y="-398.226" font-family="FreeSans.ttf" font-size="10.00">m_location</text>
<text text-anchor="middle" x="273" y="-386.226" font-family="FreeSans.ttf" font-size="10.00">m_description</text>
<text text-anchor="middle" x="273" y="-374.226" font-family="FreeSans.ttf" font-size="10.00">m_id</text>
<text text-anchor="middle" x="273" y="-362.226" font-family="FreeSans.ttf" font-size="10.00">m_name</text>
</g>
<!-- Node7 -->
<g id="node12" class="node"><title>Node7</title>
<a xlink:title="STL class.">
<polygon fill="white" stroke="#bfbfbf" points="0.5,-330.226 0.5,-362.226 103.5,-362.226 103.5,-330.226 0.5,-330.226"/>
<text text-anchor="start" x="8.5" y="-349.226" font-family="FreeSans.ttf" font-size="10.00">std::basic_string&lt;</text>
<text text-anchor="middle" x="52" y="-337.226" font-family="FreeSans.ttf" font-size="10.00"> char &gt;</text>
</a>
</g>
<!-- Node7&#45;&gt;Node6 -->
<g id="edge12" class="edge"><title>Node7&#45;&gt;Node6</title>
<path fill="none" stroke="midnightblue" d="M113.792,-346.226C125.355,-346.226 137.014,-346.226 147.258,-346.226"/>
<polygon fill="midnightblue" stroke="midnightblue" points="113.694,-342.726 103.694,-346.226 113.694,-349.726 113.694,-342.726"/>
</g>
<!-- Node8 -->
<g id="node14" class="node"><title>Node8</title>
<polygon fill="white" stroke="#bfbfbf" points="142.5,-207.226 142.5,-227.226 217.5,-227.226 217.5,-207.226 142.5,-207.226"/>
<text text-anchor="middle" x="180" y="-214.226" font-family="FreeSans.ttf" font-size="10.00">unsigned int</text>
</g>
<!-- Node8&#45;&gt;Node2 -->
<g id="edge46" class="edge"><title>Node8&#45;&gt;Node2</title>
<path fill="none" stroke="#9a32cd" stroke-dasharray="5,2" d="M227.647,-211.963C284.004,-206.026 380.692,-196.739 464,-193.226 520.838,-190.828 536.126,-182.529 592,-193.226 750.968,-223.658 907.264,-358.633 949.122,-397.014"/>
<polygon fill="#9a32cd" stroke="#9a32cd" points="227.18,-208.493 217.606,-213.031 227.92,-215.454 227.18,-208.493"/>
<text text-anchor="middle" x="528" y="-196.226" font-family="FreeSans.ttf" font-size="10.00"> m_security</text>
</g>
<!-- Node8&#45;&gt;Node3 -->
<g id="edge30" class="edge"><title>Node8&#45;&gt;Node3</title>
<path fill="none" stroke="#9a32cd" stroke-dasharray="5,2" d="M195.81,-199.813C206.17,-189.625 220.607,-177.554 236,-171.226 298.336,-145.597 319.601,-157.226 387,-157.226 387,-157.226 387,-157.226 960,-157.226 1023.98,-157.226 1094.61,-190.102 1126.99,-207.183"/>
<polygon fill="#9a32cd" stroke="#9a32cd" points="193.183,-197.495 188.735,-207.112 198.209,-202.368 193.183,-197.495"/>
<text text-anchor="middle" x="679" y="-172.226" font-family="FreeSans.ttf" font-size="10.00"> m_idle</text>
<text text-anchor="middle" x="679" y="-160.226" font-family="FreeSans.ttf" font-size="10.00">m_state</text>
</g>
<!-- Node8&#45;&gt;Node4 -->
<g id="edge14" class="edge"><title>Node8&#45;&gt;Node4</title>
<path fill="none" stroke="#9a32cd" stroke-dasharray="5,2" d="M184.593,-197.388C191.43,-172.442 206.741,-130.114 236,-107.226 245.882,-99.4949 321.507,-84.4523 361.84,-76.8545"/>
<polygon fill="#9a32cd" stroke="#9a32cd" points="181.17,-196.648 182.097,-207.202 187.954,-198.373 181.17,-196.648"/>
<text text-anchor="middle" x="273" y="-134.226" font-family="FreeSans.ttf" font-size="10.00"> m_bytes_sent</text>
<text text-anchor="middle" x="273" y="-122.226" font-family="FreeSans.ttf" font-size="10.00">m_port</text>
<text text-anchor="middle" x="273" y="-110.226" font-family="FreeSans.ttf" font-size="10.00">m_bytes_recvd</text>
</g>
<!-- Node8&#45;&gt;Node17 -->
<g id="edge70" class="edge"><title>Node8&#45;&gt;Node17</title>
<path fill="none" stroke="#9a32cd" stroke-dasharray="5,2" d="M227.413,-229.007C328.229,-254.06 561.636,-312.061 646.993,-333.272"/>
<polygon fill="#9a32cd" stroke="#9a32cd" points="228.055,-225.561 217.506,-226.546 226.367,-232.354 228.055,-225.561"/>
<text text-anchor="middle" x="387" y="-284.226" font-family="FreeSans.ttf" font-size="10.00"> m_sex</text>
</g>
<!-- Node8&#45;&gt;Node18 -->
<g id="edge62" class="edge"><title>Node8&#45;&gt;Node18</title>
<path fill="none" stroke="#9a32cd" stroke-dasharray="5,2" d="M196.696,-234.813C222.693,-261.396 275.349,-312.107 328,-344.226 339.8,-351.424 354.144,-357.315 365.733,-361.459"/>
<polygon fill="#9a32cd" stroke="#9a32cd" points="198.981,-232.141 189.514,-227.385 193.949,-237.007 198.981,-232.141"/>
<text text-anchor="middle" x="273" y="-332.226" font-family="FreeSans.ttf" font-size="10.00"> m_type</text>
</g>
<!-- Node9 -->
<g id="node17" class="node"><title>Node9</title>
<polygon fill="white" stroke="#bfbfbf" points="610,-669.226 610,-701.226 748,-701.226 748,-669.226 610,-669.226"/>
<text text-anchor="start" x="618" y="-688.226" font-family="FreeSans.ttf" font-size="10.00">std::deque&lt; pair&lt; string,</text>
<text text-anchor="middle" x="679" y="-676.226" font-family="FreeSans.ttf" font-size="10.00"> string &gt; &gt;</text>
</g>
<!-- Node9&#45;&gt;Node3 -->
<g id="edge18" class="edge"><title>Node9&#45;&gt;Node3</title>
<path fill="none" stroke="#9a32cd" stroke-dasharray="5,2" d="M757.886,-669.762C799.494,-659.141 850.049,-642.166 890,-616.226 1000.05,-544.768 1022.7,-511.04 1088,-397.226 1121.93,-338.086 1138.35,-256.22 1143.32,-227.6"/>
<polygon fill="#9a32cd" stroke="#9a32cd" points="756.926,-666.394 748.061,-672.195 758.609,-673.189 756.926,-666.394"/>
<text text-anchor="middle" x="960" y="-605.226" font-family="FreeSans.ttf" font-size="10.00"> m_command_queue</text>
</g>
<!-- Node10 -->
<g id="node19" class="node"><title>Node10</title>
<polygon fill="white" stroke="#bfbfbf" points="328.5,-648.226 328.5,-668.226 445.5,-668.226 445.5,-648.226 328.5,-648.226"/>
<text text-anchor="middle" x="387" y="-655.226" font-family="FreeSans.ttf" font-size="10.00">pair&lt; string, string &gt;</text>
</g>
<!-- Node10&#45;&gt;Node9 -->
<g id="edge20" class="edge"><title>Node10&#45;&gt;Node9</title>
<path fill="none" stroke="#9a32cd" stroke-dasharray="5,2" d="M455.716,-664.579C502.167,-668.875 563.283,-674.526 609.829,-678.83"/>
<polygon fill="#9a32cd" stroke="#9a32cd" points="456.019,-661.093 445.739,-663.657 455.375,-668.063 456.019,-661.093"/>
<text text-anchor="middle" x="528" y="-679.226" font-family="FreeSans.ttf" font-size="10.00"> elements</text>
</g>
<!-- Node20 -->
<g id="node55" class="node"><title>Node20</title>
<polygon fill="white" stroke="#bfbfbf" points="626.5,-599.226 626.5,-631.226 731.5,-631.226 731.5,-599.226 626.5,-599.226"/>
<text text-anchor="start" x="634.5" y="-618.226" font-family="FreeSans.ttf" font-size="10.00">std::vector&lt; pair&lt;</text>
<text text-anchor="middle" x="679" y="-606.226" font-family="FreeSans.ttf" font-size="10.00"> string, string &gt; &gt;</text>
</g>
<!-- Node10&#45;&gt;Node20 -->
<g id="edge74" class="edge"><title>Node10&#45;&gt;Node20</title>
<path fill="none" stroke="#9a32cd" stroke-dasharray="5,2" d="M455.908,-648.078C508.036,-640.402 578.549,-630.018 626.241,-622.995"/>
<polygon fill="#9a32cd" stroke="#9a32cd" points="455.123,-644.656 445.739,-649.576 456.143,-651.581 455.123,-644.656"/>
<text text-anchor="middle" x="528" y="-649.226" font-family="FreeSans.ttf" font-size="10.00"> elements</text>
</g>
<!-- Node11 -->
<g id="node21" class="node"><title>Node11</title>
<a xlink:title="STL class.">
<polygon fill="white" stroke="#bfbfbf" points="339.5,-702.226 339.5,-722.226 434.5,-722.226 434.5,-702.226 339.5,-702.226"/>
<text text-anchor="middle" x="387" y="-709.226" font-family="FreeSans.ttf" font-size="10.00">std::deque&lt; T &gt;</text>
</a>
</g>
<!-- Node11&#45;&gt;Node9 -->
<g id="edge22" class="edge"><title>Node11&#45;&gt;Node9</title>
<path fill="none" stroke="orange" stroke-dasharray="5,2" d="M444.676,-706.892C492.143,-702.503 559.565,-696.269 609.911,-691.614"/>
<polygon fill="orange" stroke="orange" points="444.2,-703.422 434.565,-707.827 444.845,-710.392 444.2,-703.422"/>
<text text-anchor="middle" x="528" y="-707.226" font-family="FreeSans.ttf" font-size="10.00"> &lt; pair&lt; string, string &gt; &gt;</text>
</g>
<!-- Node12 -->
<g id="node23" class="node"><title>Node12</title>
<polygon fill="white" stroke="#bfbfbf" points="165.5,-644.226 165.5,-664.226 194.5,-664.226 194.5,-644.226 165.5,-644.226"/>
<text text-anchor="middle" x="180" y="-651.226" font-family="FreeSans.ttf" font-size="10.00">T</text>
</g>
<!-- Node12&#45;&gt;Node11 -->
<g id="edge24" class="edge"><title>Node12&#45;&gt;Node11</title>
<path fill="none" stroke="#9a32cd" stroke-dasharray="5,2" d="M204.292,-661.032C240.542,-671.189 309.018,-690.376 351.067,-702.157"/>
<polygon fill="#9a32cd" stroke="#9a32cd" points="205.129,-657.632 194.556,-658.304 203.241,-664.372 205.129,-657.632"/>
<text text-anchor="middle" x="273" y="-692.226" font-family="FreeSans.ttf" font-size="10.00"> elements</text>
</g>
<!-- Node16 -->
<g id="node36" class="node"><title>Node16</title>
<a xlink:title="STL class.">
<polygon fill="white" stroke="#bfbfbf" points="339.5,-587.226 339.5,-607.226 434.5,-607.226 434.5,-587.226 339.5,-587.226"/>
<text text-anchor="middle" x="387" y="-594.226" font-family="FreeSans.ttf" font-size="10.00">std::vector&lt; T &gt;</text>
</a>
</g>
<!-- Node12&#45;&gt;Node16 -->
<g id="edge44" class="edge"><title>Node12&#45;&gt;Node16</title>
<path fill="none" stroke="#9a32cd" stroke-dasharray="5,2" d="M204.262,-647.545C240.389,-637.597 308.577,-618.82 350.67,-607.229"/>
<polygon fill="#9a32cd" stroke="#9a32cd" points="203.268,-644.188 194.556,-650.217 205.126,-650.937 203.268,-644.188"/>
<text text-anchor="middle" x="273" y="-640.226" font-family="FreeSans.ttf" font-size="10.00"> elements</text>
</g>
<!-- Node13 -->
<g id="node25" class="node"><title>Node13</title>
<polygon fill="white" stroke="#bfbfbf" points="368.5,-101.226 368.5,-121.226 405.5,-121.226 405.5,-101.226 368.5,-101.226"/>
<text text-anchor="middle" x="387" y="-108.226" font-family="FreeSans.ttf" font-size="10.00">bool</text>
</g>
<!-- Node13&#45;&gt;Node3 -->
<g id="edge26" class="edge"><title>Node13&#45;&gt;Node3</title>
<path fill="none" stroke="#9a32cd" stroke-dasharray="5,2" d="M415.871,-109.332C532.592,-102.159 968.999,-80.1348 1088,-143.226 1114.79,-157.43 1132.86,-190.368 1140.65,-207.092"/>
<polygon fill="#9a32cd" stroke="#9a32cd" points="415.356,-105.857 405.595,-109.976 415.794,-112.843 415.356,-105.857"/>
<text text-anchor="middle" x="828" y="-108.226" font-family="FreeSans.ttf" font-size="10.00"> m_quitting</text>
</g>
<!-- Node14 -->
<g id="node29" class="node"><title>Node14</title>
<a xlink:href="classSocketClient_1_1TermInfo.xhtml" target="_top" xlink:title="Remote terminal information and configuration.">
<polygon fill="white" stroke="black" points="766.5,-62.2256 766.5,-82.2256 889.5,-82.2256 889.5,-62.2256 766.5,-62.2256"/>
<text text-anchor="middle" x="828" y="-69.2256" font-family="FreeSans.ttf" font-size="10.00">SocketClient::TermInfo</text>
</a>
</g>
<!-- Node13&#45;&gt;Node14 -->
<g id="edge34" class="edge"><title>Node13&#45;&gt;Node14</title>
<path fill="none" stroke="#9a32cd" stroke-dasharray="5,2" d="M415.193,-104.543C425.361,-101.407 436.63,-97.0492 446,-91.2256 455.609,-85.2532 453.553,-77.5695 464,-73.2256 572.241,-28.2163 714.739,-47.9103 785.014,-62.1708"/>
<polygon fill="#9a32cd" stroke="#9a32cd" points="414.175,-101.193 405.503,-107.28 416.078,-107.93 414.175,-101.193"/>
<text text-anchor="middle" x="528" y="-88.2256" font-family="FreeSans.ttf" font-size="10.00"> m_telopt</text>
<text text-anchor="middle" x="528" y="-76.2256" font-family="FreeSans.ttf" font-size="10.00">m_negotiated</text>
</g>
<!-- Node13&#45;&gt;Node17 -->
<g id="edge68" class="edge"><title>Node13&#45;&gt;Node17</title>
<path fill="none" stroke="#9a32cd" stroke-dasharray="5,2" d="M396.639,-130.416C409.004,-152.908 432.652,-189.485 464,-208.226 513.611,-237.884 550.55,-190.942 592,-231.226 620.004,-258.442 584.216,-287.898 610,-317.226 619.379,-327.894 633.759,-333.821 646.968,-337.114"/>
<polygon fill="#9a32cd" stroke="#9a32cd" points="399.671,-128.663 391.902,-121.459 393.483,-131.935 399.671,-128.663"/>
<text text-anchor="middle" x="528" y="-234.226" font-family="FreeSans.ttf" font-size="10.00"> m_creation</text>
</g>
<!-- Node14&#45;&gt;Node3 -->
<g id="edge32" class="edge"><title>Node14&#45;&gt;Node3</title>
<path fill="none" stroke="#9a32cd" stroke-dasharray="5,2" d="M895.154,-61.1491C952.046,-55.5981 1032.92,-57.1878 1088,-98.2256 1124.92,-125.736 1139,-183.406 1143.35,-206.917"/>
<polygon fill="#9a32cd" stroke="#9a32cd" points="894.747,-57.6726 885.177,-62.2192 895.493,-64.6327 894.747,-57.6726"/>
<text text-anchor="middle" x="960" y="-69.2256" font-family="FreeSans.ttf" font-size="10.00"> m_terminfo</text>
</g>
<!-- Node15&#45;&gt;Node2 -->
<g id="edge38" class="edge"><title>Node15&#45;&gt;Node2</title>
<path fill="none" stroke="#9a32cd" stroke-dasharray="5,2" d="M748.021,-528.237C791.409,-528.323 847.09,-522.596 890,-498.226 923.624,-479.129 946.486,-436.716 955.588,-417.293"/>
<polygon fill="#9a32cd" stroke="#9a32cd" points="747.878,-524.735 737.836,-528.11 747.792,-531.734 747.878,-524.735"/>
<text text-anchor="middle" x="828" y="-530.226" font-family="FreeSans.ttf" font-size="10.00"> m_characters</text>
</g>
<!-- Node16&#45;&gt;Node15 -->
<g id="edge42" class="edge"><title>Node16&#45;&gt;Node15</title>
<path fill="none" stroke="orange" stroke-dasharray="5,2" d="M444.815,-587.52C495.449,-578.782 565.03,-566.134 592,-558.226 614.809,-551.537 639.899,-541.094 657.249,-533.354"/>
<polygon fill="orange" stroke="orange" points="444.222,-584.07 434.959,-589.213 445.407,-590.969 444.222,-584.07"/>
<text text-anchor="middle" x="528" y="-586.226" font-family="FreeSans.ttf" font-size="10.00"> &lt; string &gt;</text>
</g>
<!-- Node19 -->
<g id="node44" class="node"><title>Node19</title>
<polygon fill="white" stroke="#bfbfbf" points="617,-390.226 617,-410.226 741,-410.226 741,-390.226 617,-390.226"/>
<text text-anchor="middle" x="679" y="-397.226" font-family="FreeSans.ttf" font-size="10.00">std::vector&lt; Thing * &gt;</text>
</g>
<!-- Node16&#45;&gt;Node19 -->
<g id="edge56" class="edge"><title>Node16&#45;&gt;Node19</title>
<path fill="none" stroke="orange" stroke-dasharray="5,2" d="M407.106,-580.634C422.065,-568.929 443.375,-553.555 464,-543.226 517.534,-516.413 542.196,-534.457 592,-501.226 629.54,-476.178 660.369,-430.687 672.929,-410.43"/>
<polygon fill="orange" stroke="orange" points="404.718,-578.062 399.086,-587.036 409.085,-583.533 404.718,-578.062"/>
<text text-anchor="middle" x="528" y="-546.226" font-family="FreeSans.ttf" font-size="10.00"> &lt; Thing * &gt;</text>
</g>
<!-- Node16&#45;&gt;Node20 -->
<g id="edge76" class="edge"><title>Node16&#45;&gt;Node20</title>
<path fill="none" stroke="orange" stroke-dasharray="5,2" d="M444.787,-600.788C497.614,-604.044 575.091,-608.82 626.268,-611.975"/>
<polygon fill="orange" stroke="orange" points="444.761,-597.28 434.565,-600.158 444.33,-604.266 444.761,-597.28"/>
<text text-anchor="middle" x="528" y="-612.226" font-family="FreeSans.ttf" font-size="10.00"> &lt; pair&lt; string, string &gt; &gt;</text>
</g>
<!-- Node17&#45;&gt;Node2 -->
<g id="edge48" class="edge"><title>Node17&#45;&gt;Node2</title>
<path fill="none" stroke="#9a32cd" stroke-dasharray="5,2" d="M721.194,-351.136C779.309,-364.786 882.402,-389 931.92,-400.63"/>
<polygon fill="#9a32cd" stroke="#9a32cd" points="721.77,-347.676 711.234,-348.797 720.169,-354.49 721.77,-347.676"/>
<text text-anchor="middle" x="828" y="-392.226" font-family="FreeSans.ttf" font-size="10.00"> m_character</text>
</g>
<!-- Node18&#45;&gt;Node17 -->
<g id="edge50" class="edge"><title>Node18&#45;&gt;Node17</title>
<path fill="none" stroke="midnightblue" d="M418.052,-359.026C431.975,-355.301 448.68,-351.378 464,-349.226 528.361,-340.185 604.556,-339.738 646.765,-340.379"/>
<polygon fill="midnightblue" stroke="midnightblue" points="416.72,-355.762 408.016,-361.803 418.587,-362.509 416.72,-355.762"/>
</g>
<!-- Node18&#45;&gt;Node18 -->
<g id="edge60" class="edge"><title>Node18&#45;&gt;Node18</title>
<path fill="none" stroke="#9a32cd" stroke-dasharray="5,2" d="M365.938,-387.787C367.455,-392.621 374.476,-396.226 387,-396.226 407.039,-396.226 412.988,-386.997 404.847,-378.273"/>
<polygon fill="#9a32cd" stroke="#9a32cd" points="369.268,-388.867 369.153,-378.273 362.636,-386.627 369.268,-388.867"/>
<text text-anchor="middle" x="387" y="-399.226" font-family="FreeSans.ttf" font-size="10.00"> m_container</text>
</g>
<!-- Node18&#45;&gt;Node19 -->
<g id="edge54" class="edge"><title>Node18&#45;&gt;Node19</title>
<path fill="none" stroke="#9a32cd" stroke-dasharray="5,2" d="M418.244,-364.173C458.729,-359.773 531.318,-354.789 592,-366.226 616.223,-370.791 642.352,-381.921 659.584,-390.211"/>
<polygon fill="#9a32cd" stroke="#9a32cd" points="417.727,-360.709 408.192,-365.326 418.525,-367.663 417.727,-360.709"/>
<text text-anchor="middle" x="528" y="-369.226" font-family="FreeSans.ttf" font-size="10.00"> elements</text>
</g>
<!-- Node19&#45;&gt;Node18 -->
<g id="edge52" class="edge"><title>Node19&#45;&gt;Node18</title>
<path fill="none" stroke="#9a32cd" stroke-dasharray="5,2" d="M606.678,-395.268C564.894,-392.046 511.383,-387.309 464,-381.226 445.04,-378.791 423.607,-375.095 408.177,-372.265"/>
<polygon fill="#9a32cd" stroke="#9a32cd" points="606.527,-398.767 616.764,-396.034 607.058,-391.787 606.527,-398.767"/>
<text text-anchor="middle" x="528" y="-396.226" font-family="FreeSans.ttf" font-size="10.00"> m_contents</text>
</g>
<!-- Node20&#45;&gt;Node2 -->
<g id="edge72" class="edge"><title>Node20&#45;&gt;Node2</title>
<path fill="none" stroke="#9a32cd" stroke-dasharray="5,2" d="M741.831,-606.61C787.424,-597.547 848.188,-579.32 890,-543.226 931.006,-507.826 951.11,-442.483 957.585,-417.398"/>
<polygon fill="#9a32cd" stroke="#9a32cd" points="740.937,-603.217 731.761,-608.513 742.237,-610.095 740.937,-603.217"/>
<text text-anchor="middle" x="828" y="-603.226" font-family="FreeSans.ttf" font-size="10.00"> m_logins</text>
</g>
</g>
</svg>
        <g id="navigator" transform="translate(0 0)" fill="#404254">
                <rect fill="#f2f5e9" fill-opacity="0.5" stroke="#606060" stroke-width=".5" x="0" y="0" width="60" height="60"/>
                <use id="zoomplus" xlink:href="#zoomPlus" x="17" y="9" onmousedown="handleZoom(evt,'in')"/>
                <use id="zoomminus" xlink:href="#zoomMin" x="42" y="9" onmousedown="handleZoom(evt,'out')"/>
                <use id="reset" xlink:href="#resetDef" x="30" y="36" onmousedown="handleReset()"/>
                <g id="arrowUp" xlink:href="#dirArrow" transform="translate(30 24)" onmousedown="handlePan(0,-1)">
                  <use xlink:href="#rim" fill="#404040">
                        <set attributeName="fill" to="#808080" begin="arrowUp.mouseover" end="arrowUp.mouseout"/>
                  </use>
                  <path fill="none" stroke="white" stroke-width="1.5" d="M0,-3.0v7 M-2.5,-0.5L0,-3.0L2.5,-0.5"/>
                </g>
                <g id="arrowRight" xlink:href="#dirArrow" transform="rotate(90) translate(36 -43)" onmousedown="handlePan(1,0)">
                  <use xlink:href="#rim" fill="#404040">
                        <set attributeName="fill" to="#808080" begin="arrowRight.mouseover" end="arrowRight.mouseout"/>
                  </use>
                  <path fill="none" stroke="white" stroke-width="1.5" d="M0,-3.0v7 M-2.5,-0.5L0,-3.0L2.5,-0.5"/>
                </g>
                <g id="arrowDown" xlink:href="#dirArrow" transform="rotate(180) translate(-30 -48)" onmousedown="handlePan(0,1)">
                  <use xlink:href="#rim" fill="#404040">
                        <set attributeName="fill" to="#808080" begin="arrowDown.mouseover" end="arrowDown.mouseout"/>
                  </use>
                  <path fill="none" stroke="white" stroke-width="1.5" d="M0,-3.0v7 M-2.5,-0.5L0,-3.0L2.5,-0.5"/>
                </g>
                <g id="arrowLeft" xlink:href="#dirArrow" transform="rotate(270) translate(-36 17)" onmousedown="handlePan(-1,0)">
                  <use xlink:href="#rim" fill="#404040">
                        <set attributeName="fill" to="#808080" begin="arrowLeft.mouseover" end="arrowLeft.mouseout"/>
                  </use>
                  <path fill="none" stroke="white" stroke-width="1.5" d="M0,-3.0v7 M-2.5,-0.5L0,-3.0L2.5,-0.5"/>
                </g>
        </g>
        <svg viewBox="0 0 15 15" width="100%" height="30px" preserveAspectRatio="xMaxYMin meet">
         <g id="arrow_out" transform="scale(0.3 0.3)">
          <a xlink:href="classThing_1_1Brain__coll__graph_org.svg" target="_base">
           <rect id="button" ry="5" rx="5" y="6" x="6" height="38" width="38"
                fill="#f2f5e9" fill-opacity="0.5" stroke="#606060" stroke-width="1.0"/>
           <path id="arrow"
             d="M 11.500037,31.436501 C 11.940474,20.09759 22.043105,11.32322 32.158766,21.979434 L 37.068811,17.246167 C 37.068811,17.246167 37.088388,32 37.088388,32 L 22.160133,31.978069 C 22.160133,31.978069 26.997745,27.140456 26.997745,27.140456 C 18.528582,18.264221 13.291696,25.230495 11.500037,31.436501 z"
             style="fill:#404040;"/>
          </a>
         </g>
        </svg>
</svg>
