<?xml version="1.0" encoding="UTF-8" standalone="no"?>
<!DOCTYPE svg PUBLIC "-//W3C//DTD SVG 1.1//EN"
 "http://www.w3.org/Graphics/SVG/1.1/DTD/svg11.dtd">
<!-- Generated by graphviz version 2.26.3 (20100126.1600)
 -->
<!-- Title: Object::Clone Pages: 1 -->
<svg width="354pt" height="275pt"
 viewBox="0.00 0.00 354.00 275.00" xmlns="http://www.w3.org/2000/svg" xmlns:xlink="http://www.w3.org/1999/xlink">
<g id="graph1" class="graph" transform="scale(1 1) rotate(0) translate(4 271)">
<title>Object::Clone</title>
<polygon fill="white" stroke="white" points="-4,5 -4,-271 351,-271 351,5 -4,5"/>
<!-- Node1 -->
<g id="node1" class="node"><title>Node1</title>
<polygon fill="#bfbfbf" stroke="black" points="0,-114 0,-134 80,-134 80,-114 0,-114"/>
<text text-anchor="middle" x="40" y="-121" font-family="FreeSans.ttf" font-size="10.00">Object::Clone</text>
</g>
<!-- Node2 -->
<g id="node3" class="node"><title>Node2</title>
<a xlink:href="namespaceHandler.xhtml#ac4aa107458ff170e3f933050ec42770c" target="_top" xlink:title="Locates an Object associated with the game.">
<polygon fill="white" stroke="black" points="116,-209 116,-229 226,-229 226,-209 116,-209"/>
<text text-anchor="middle" x="171" y="-216" font-family="FreeSans.ttf" font-size="10.00">Handler::FindObject</text>
</a>
</g>
<!-- Node1&#45;&gt;Node2 -->
<g id="edge2" class="edge"><title>Node1&#45;&gt;Node2</title>
<path fill="none" stroke="midnightblue" d="M48.9362,-134.338C62.3,-149.3 88.8392,-177.15 116,-195 121.428,-198.567 127.474,-201.82 133.515,-204.701"/>
<polygon fill="midnightblue" stroke="midnightblue" points="132.358,-208.018 142.915,-208.912 135.22,-201.629 132.358,-208.018"/>
</g>
<!-- Node5 -->
<g id="node9" class="node"><title>Node5</title>
<a xlink:href="classThing.xhtml#a3c3c40c996ff562baa335f2ded022578" target="_top" xlink:title="Returns the name associated with this Thing.">
<polygon fill="white" stroke="black" points="262.5,-171 262.5,-191 345.5,-191 345.5,-171 262.5,-171"/>
<text text-anchor="middle" x="304" y="-178" font-family="FreeSans.ttf" font-size="10.00">Thing::gName</text>
</a>
</g>
<!-- Node1&#45;&gt;Node5 -->
<g id="edge16" class="edge"><title>Node1&#45;&gt;Node5</title>
<path fill="none" stroke="midnightblue" d="M55.8999,-134.104C70.8104,-143.046 94.039,-155.633 116,-162 160.784,-174.984 213.793,-179.407 252.088,-180.773"/>
<polygon fill="midnightblue" stroke="midnightblue" points="252.38,-184.283 262.48,-181.082 252.588,-177.286 252.38,-184.283"/>
</g>
<!-- Node6 -->
<g id="node11" class="node"><title>Node6</title>
<a xlink:href="classThing.xhtml#adf1753595ae5f94906663f88b7d38edd" target="_top" xlink:title="Sets the description of the Thing from THING_DESCRIPTION.">
<polygon fill="white" stroke="black" points="117.5,-133 117.5,-153 224.5,-153 224.5,-133 117.5,-133"/>
<text text-anchor="middle" x="171" y="-140" font-family="FreeSans.ttf" font-size="10.00">Thing::sDescription</text>
</a>
</g>
<!-- Node1&#45;&gt;Node6 -->
<g id="edge10" class="edge"><title>Node1&#45;&gt;Node6</title>
<path fill="none" stroke="midnightblue" d="M80.0161,-129.804C88.6362,-131.054 97.954,-132.406 107.226,-133.75"/>
<polygon fill="midnightblue" stroke="midnightblue" points="106.834,-137.23 117.233,-135.202 107.839,-130.303 106.834,-137.23"/>
</g>
<!-- Node7 -->
<g id="node13" class="node"><title>Node7</title>
<a xlink:href="classThing.xhtml#afb35e940694ccbd0c9bc351d66251314" target="_top" xlink:title="Returns the description of the Thing from THING_DESCRIPTION.">
<polygon fill="white" stroke="black" points="117,-95 117,-115 225,-115 225,-95 117,-95"/>
<text text-anchor="middle" x="171" y="-102" font-family="FreeSans.ttf" font-size="10.00">Thing::gDescription</text>
</a>
</g>
<!-- Node1&#45;&gt;Node7 -->
<g id="edge12" class="edge"><title>Node1&#45;&gt;Node7</title>
<path fill="none" stroke="midnightblue" d="M80.0161,-118.196C88.4352,-116.975 97.5197,-115.657 106.577,-114.344"/>
<polygon fill="midnightblue" stroke="midnightblue" points="107.36,-117.767 116.754,-112.868 106.355,-110.839 107.36,-117.767"/>
</g>
<!-- Node8 -->
<g id="node15" class="node"><title>Node8</title>
<a xlink:href="classThing.xhtml#a69568f79edcdf1b0225f1b764a7ceb41" target="_top" xlink:title="Sets the name of this Thing.">
<polygon fill="white" stroke="black" points="129.5,-57 129.5,-77 212.5,-77 212.5,-57 129.5,-57"/>
<text text-anchor="middle" x="171" y="-64" font-family="FreeSans.ttf" font-size="10.00">Thing::sName</text>
</a>
</g>
<!-- Node1&#45;&gt;Node8 -->
<g id="edge14" class="edge"><title>Node1&#45;&gt;Node8</title>
<path fill="none" stroke="midnightblue" d="M58.4207,-113.936C73.6181,-105.843 95.8749,-94.4645 116,-86 120.479,-84.1163 125.216,-82.2698 129.956,-80.513"/>
<polygon fill="midnightblue" stroke="midnightblue" points="131.378,-83.7213 139.609,-77.0497 129.014,-77.1325 131.378,-83.7213"/>
</g>
<!-- Node9 -->
<g id="node18" class="node"><title>Node9</title>
<a xlink:href="classThing.xhtml#a9d7867991d8943d81101a32597eb4df1" target="_top" xlink:title="Generates a new unique id for this Thing.">
<polygon fill="white" stroke="black" points="132.5,-19 132.5,-39 209.5,-39 209.5,-19 132.5,-19"/>
<text text-anchor="middle" x="171" y="-26" font-family="FreeSans.ttf" font-size="10.00">Thing::NewId</text>
</a>
</g>
<!-- Node1&#45;&gt;Node9 -->
<g id="edge18" class="edge"><title>Node1&#45;&gt;Node9</title>
<path fill="none" stroke="midnightblue" d="M47.5417,-113.93C60.0769,-97.8448 86.7341,-66.3078 116,-48 118.915,-46.1767 122.026,-44.5024 125.231,-42.9697"/>
<polygon fill="midnightblue" stroke="midnightblue" points="126.618,-46.1833 134.423,-39.019 123.854,-39.7521 126.618,-46.1833"/>
</g>
<!-- Node3 -->
<g id="node5" class="node"><title>Node3</title>
<a xlink:href="namespaceUtils.xhtml#a9b70f9dd0af906c806695b35488e778f" target="_top" xlink:title="Returns a string converted to all lowercase letters.">
<polygon fill="white" stroke="black" points="268.5,-247 268.5,-267 339.5,-267 339.5,-247 268.5,-247"/>
<text text-anchor="middle" x="304" y="-254" font-family="FreeSans.ttf" font-size="10.00">Utils::Lower</text>
</a>
</g>
<!-- Node2&#45;&gt;Node3 -->
<g id="edge4" class="edge"><title>Node2&#45;&gt;Node3</title>
<path fill="none" stroke="midnightblue" d="M206.292,-229.084C222.375,-233.679 241.607,-239.174 258.739,-244.068"/>
<polygon fill="midnightblue" stroke="midnightblue" points="257.966,-247.487 268.543,-246.869 259.889,-240.757 257.966,-247.487"/>
</g>
<!-- Node4 -->
<g id="node7" class="node"><title>Node4</title>
<a xlink:href="classThing.xhtml#aea5dad4f4241b325cdf64b232e84e602" target="_top" xlink:title="Returns the id associated with this Thing.">
<polygon fill="white" stroke="black" points="273,-209 273,-229 335,-229 335,-209 273,-209"/>
<text text-anchor="middle" x="304" y="-216" font-family="FreeSans.ttf" font-size="10.00">Thing::gId</text>
</a>
</g>
<!-- Node2&#45;&gt;Node4 -->
<g id="edge6" class="edge"><title>Node2&#45;&gt;Node4</title>
<path fill="none" stroke="midnightblue" d="M226.249,-219C238.379,-219 251.024,-219 262.506,-219"/>
<polygon fill="midnightblue" stroke="midnightblue" points="262.674,-222.5 272.674,-219 262.674,-215.5 262.674,-222.5"/>
</g>
<!-- Node2&#45;&gt;Node5 -->
<g id="edge8" class="edge"><title>Node2&#45;&gt;Node5</title>
<path fill="none" stroke="midnightblue" d="M206.292,-208.916C222.375,-204.321 241.607,-198.826 258.739,-193.932"/>
<polygon fill="midnightblue" stroke="midnightblue" points="259.889,-197.243 268.543,-191.131 257.966,-190.513 259.889,-197.243"/>
</g>
<!-- Node10 -->
<g id="node20" class="node"><title>Node10</title>
<a xlink:href="namespaceUtils.xhtml#adafa6fa32d5b637ea62db12aa35db6e0" target="_top" xlink:title="Returns a salt value for use with crypt.">
<polygon fill="white" stroke="black" points="273,-38 273,-58 335,-58 335,-38 273,-38"/>
<text text-anchor="middle" x="304" y="-45" font-family="FreeSans.ttf" font-size="10.00">Utils::Salt</text>
</a>
</g>
<!-- Node9&#45;&gt;Node10 -->
<g id="edge20" class="edge"><title>Node9&#45;&gt;Node10</title>
<path fill="none" stroke="midnightblue" d="M209.827,-34.5467C226.462,-36.9232 245.91,-39.7015 262.799,-42.1142"/>
<polygon fill="midnightblue" stroke="midnightblue" points="262.542,-45.6129 272.937,-43.5624 263.532,-38.6833 262.542,-45.6129"/>
</g>
<!-- Node11 -->
<g id="node22" class="node"><title>Node11</title>
<a xlink:href="namespaceUtils.xhtml#a594756861a60d256d31db7bb34ea70de" target="_top" xlink:title="Returns a string object from any data type: bool, int, char, etc.">
<polygon fill="white" stroke="black" points="268,-0 268,-20 340,-20 340,-0 268,-0"/>
<text text-anchor="middle" x="304" y="-7" font-family="FreeSans.ttf" font-size="10.00">Utils::String</text>
</a>
</g>
<!-- Node9&#45;&gt;Node11 -->
<g id="edge22" class="edge"><title>Node9&#45;&gt;Node11</title>
<path fill="none" stroke="midnightblue" d="M209.827,-23.4533C224.796,-21.3149 242.042,-18.8511 257.652,-16.6211"/>
<polygon fill="midnightblue" stroke="midnightblue" points="258.229,-20.0743 267.634,-15.1952 257.239,-13.1446 258.229,-20.0743"/>
</g>
</g>
</svg>
