<?xml version="1.0" encoding="UTF-8" standalone="no"?>
<!DOCTYPE svg PUBLIC "-//W3C//DTD SVG 1.1//EN"
 "http://www.w3.org/Graphics/SVG/1.1/DTD/svg11.dtd">
<!-- Generated by graphviz version 2.26.3 (20100126.1600)
 -->
<!-- Title: G Pages: 1 -->
<!--zoomable 306 -->
<svg id="main" version="1.1" xmlns="http://www.w3.org/2000/svg" xmlns:xlink="http://www.w3.org/1999/xlink" xml:space="preserve" onload="init(evt)">
        <defs>
                <circle id="rim" cx="0" cy="0" r="7"/>
                <circle id="rim2" cx="0" cy="0" r="3.5"/>
                <g id="zoomPlus">
                        <use xlink:href="#rim" fill="#404040">
                                <set attributeName="fill" to="#808080" begin="zoomplus.mouseover" end="zoomplus.mouseout"/>
                        </use>
                        <path d="M-4,0h8M0,-4v8" fill="none" stroke="white" stroke-width="1.5" pointer-events="none"/>
                </g>
                <g id="zoomMin">
                        <use xlink:href="#rim" fill="#404040">
                                <set attributeName="fill" to="#808080" begin="zoomminus.mouseover" end="zoomminus.mouseout"/>
                        </use>
                        <path d="M-4,0h8" fill="none" stroke="white" stroke-width="1.5" pointer-events="none"/>
                </g>
                <g id="dirArrow">
                        <path fill="none" stroke="white" stroke-width="1.5" d="M0,-3.0v7 M-2.5,-0.5L0,-3.0L2.5,-0.5"/>
                </g>
               <g id="resetDef">
                       <use xlink:href="#rim2" fill="#404040">
                               <set attributeName="fill" to="#808080" begin="reset.mouseover" end="reset.mouseout"/>
                       </use>
               </g>
        </defs>

<script type="text/javascript">
var viewWidth = 1572;
var viewHeight = 306;
var sectionId = 'dynsection-9';
</script>
<script xlink:href="svgpan.js"/>
<svg id="graph" class="graph">
<g id="viewport">
<title>G</title>
<polygon fill="white" stroke="white" points="-4,5 -4,-302 1569,-302 1569,5 -4,5"/>
<!-- Node1 -->
<g id="node1" class="node"><title>Node1</title>
<polygon fill="#bfbfbf" stroke="black" points="0,-96.5 0,-117.5 120,-117.5 120,-96.5 0,-96.5"/>
<text text-anchor="middle" x="60" y="-104.5" font-family="FreeSans.ttf" font-size="10.00">SocketClient::gServer</text>
</g>
<!-- Node2 -->
<g id="node3" class="node"><title>Node2</title>
<a xlink:href="namespaceHandler.xhtml#a120400154c1559acfc874fe8a0bfbf88" target="_top" xlink:title="Check to see if the current account is already being created.">
<polygon fill="white" stroke="black" points="160,-194.5 160,-215.5 290,-215.5 290,-194.5 160,-194.5"/>
<text text-anchor="middle" x="225" y="-202.5" font-family="FreeSans.ttf" font-size="10.00">Handler::CheckCreating</text>
</a>
</g>
<!-- Node1&#45;&gt;Node2 -->
<g id="edge2" class="edge"><title>Node1&#45;&gt;Node2</title>
<path fill="none" stroke="midnightblue" d="M77.6817,-125.102C95.8326,-142.726 125.642,-169.11 156,-185 163.182,-188.76 171.166,-191.899 179.081,-194.492"/>
<polygon fill="midnightblue" stroke="midnightblue" points="79.7692,-122.243 70.2024,-117.691 74.842,-127.216 79.7692,-122.243"/>
</g>
<!-- Node11 -->
<g id="node21" class="node"><title>Node11</title>
<a xlink:href="classSocketClient.xhtml#ad4f63c7d906310dc56a1217136047d7f" target="_top" xlink:title="Interpret the command at the front of the queue.">
<polygon fill="white" stroke="black" points="888,-39.5 888,-60.5 1058,-60.5 1058,-39.5 888,-39.5"/>
<text text-anchor="middle" x="973" y="-47.5" font-family="FreeSans.ttf" font-size="10.00">SocketClient::ProcessCommand</text>
</a>
</g>
<!-- Node1&#45;&gt;Node11 -->
<g id="edge58" class="edge"><title>Node1&#45;&gt;Node11</title>
<path fill="none" stroke="midnightblue" d="M108.936,-93.9746C176.557,-77.15 302.622,-50 412,-50 412,-50 412,-50 602,-50 700.064,-50 812.708,-50 887.905,-50"/>
<polygon fill="midnightblue" stroke="midnightblue" points="107.837,-90.6421 98.9946,-96.4789 109.547,-97.4301 107.837,-90.6421"/>
</g>
<!-- Node13 -->
<g id="node26" class="node"><title>Node13</title>
<a xlink:href="namespaceHandler.xhtml#a33a19d69ead678af81fbe96907eceaf0" target="_top" xlink:title="Create a new account object, or load an existing one, with a name and password.">
<polygon fill="white" stroke="black" points="715.5,-116.5 715.5,-137.5 846.5,-137.5 846.5,-116.5 715.5,-116.5"/>
<text text-anchor="middle" x="781" y="-124.5" font-family="FreeSans.ttf" font-size="10.00">Handler::AttachAccount</text>
</a>
</g>
<!-- Node1&#45;&gt;Node13 -->
<g id="edge48" class="edge"><title>Node1&#45;&gt;Node13</title>
<path fill="none" stroke="midnightblue" d="M130.379,-108.952C269.87,-112.822 579.631,-121.414 715.255,-125.176"/>
<polygon fill="midnightblue" stroke="midnightblue" points="130.325,-105.45 120.232,-108.671 130.131,-112.447 130.325,-105.45"/>
</g>
<!-- Node17 -->
<g id="node39" class="node"><title>Node17</title>
<a xlink:href="namespaceHandler.xhtml#a4f2b4f0ba0aa42e2d348655a1bd2bc7e" target="_top" xlink:title="Checks to see if a name is on the server&#39;s prohibited list.">
<polygon fill="white" stroke="black" points="156.5,-154.5 156.5,-175.5 293.5,-175.5 293.5,-154.5 156.5,-154.5"/>
<text text-anchor="middle" x="225" y="-162.5" font-family="FreeSans.ttf" font-size="10.00">Handler::CheckProhibited</text>
</a>
</g>
<!-- Node1&#45;&gt;Node17 -->
<g id="edge44" class="edge"><title>Node1&#45;&gt;Node17</title>
<path fill="none" stroke="midnightblue" d="M99.4171,-120.856C128.78,-131.177 168.263,-145.056 195.064,-154.477"/>
<polygon fill="midnightblue" stroke="midnightblue" points="100.475,-117.518 89.8803,-117.503 98.1537,-124.122 100.475,-117.518"/>
</g>
<!-- Node18 -->
<g id="node43" class="node"><title>Node18</title>
<a xlink:href="classSocketClient.xhtml#af09328648d18ae943c8866cf744e5aad" target="_top" xlink:title="Unload a client&#39;s socket from memory that was previously loaded via SocketClient::New().">
<polygon fill="white" stroke="black" points="916,-79.5 916,-100.5 1030,-100.5 1030,-79.5 916,-79.5"/>
<text text-anchor="middle" x="973" y="-87.5" font-family="FreeSans.ttf" font-size="10.00">SocketClient::Delete</text>
</a>
</g>
<!-- Node1&#45;&gt;Node18 -->
<g id="edge50" class="edge"><title>Node1&#45;&gt;Node18</title>
<path fill="none" stroke="midnightblue" d="M130.216,-100.976C201.22,-95.4114 314.149,-88 412,-88 412,-88 412,-88 602,-88 713.108,-88 842.931,-88.9081 915.8,-89.5005"/>
<polygon fill="midnightblue" stroke="midnightblue" points="129.743,-97.5029 120.051,-101.783 130.296,-104.481 129.743,-97.5029"/>
</g>
<!-- Node19 -->
<g id="node49" class="node"><title>Node19</title>
<a xlink:href="classSocketClient.xhtml#aa3c0d7886b8fede981c73031cfaf17c6" target="_top" xlink:title="Append a command to the back of the queue.">
<polygon fill="white" stroke="black" points="330,-0.5 330,-21.5 494,-21.5 494,-0.5 330,-0.5"/>
<text text-anchor="middle" x="412" y="-8.5" font-family="FreeSans.ttf" font-size="10.00">SocketClient::QueueCommand</text>
</a>
</g>
<!-- Node1&#45;&gt;Node19 -->
<g id="edge60" class="edge"><title>Node1&#45;&gt;Node19</title>
<path fill="none" stroke="midnightblue" d="M77.7565,-89.142C95.7671,-72.2589 125.295,-47.8063 156,-36 211.436,-14.6849 278.368,-8.76972 329.888,-8.00618"/>
<polygon fill="midnightblue" stroke="midnightblue" points="75.1049,-86.8365 70.329,-96.2938 79.9602,-91.8789 75.1049,-86.8365"/>
</g>
<!-- Node3 -->
<g id="node5" class="node"><title>Node3</title>
<a xlink:href="namespaceHandler.xhtml#a44b41bf69fdc6e615a029bea34910191" target="_top" xlink:title="Send initial greeting and request for account name.">
<polygon fill="white" stroke="black" points="352.5,-194.5 352.5,-215.5 471.5,-215.5 471.5,-194.5 352.5,-194.5"/>
<text text-anchor="middle" x="412" y="-202.5" font-family="FreeSans.ttf" font-size="10.00">Handler::LoginScreen</text>
</a>
</g>
<!-- Node2&#45;&gt;Node3 -->
<g id="edge4" class="edge"><title>Node2&#45;&gt;Node3</title>
<path fill="none" stroke="midnightblue" d="M300.241,-205C317.599,-205 335.83,-205 352.414,-205"/>
<polygon fill="midnightblue" stroke="midnightblue" points="300.141,-201.5 290.141,-205 300.141,-208.5 300.141,-201.5"/>
</g>
<!-- Node4 -->
<g id="node7" class="node"><title>Node4</title>
<a xlink:href="namespaceHandler.xhtml#af650e47f3d4baf393b54376d1eaa1fa9" target="_top" xlink:title="Handle SocketClient objects who have not fully logged into the game yet.">
<polygon fill="white" stroke="black" points="540.5,-194.5 540.5,-215.5 663.5,-215.5 663.5,-194.5 540.5,-194.5"/>
<text text-anchor="middle" x="602" y="-202.5" font-family="FreeSans.ttf" font-size="10.00">Handler::ProcessLogin</text>
</a>
</g>
<!-- Node3&#45;&gt;Node4 -->
<g id="edge6" class="edge"><title>Node3&#45;&gt;Node4</title>
<path fill="none" stroke="midnightblue" d="M481.777,-198.466C500.962,-198.13 521.628,-198.186 540.322,-198.633"/>
<polygon fill="midnightblue" stroke="midnightblue" points="481.518,-194.971 471.596,-198.685 481.669,-201.969 481.518,-194.971"/>
</g>
<!-- Node4&#45;&gt;Node3 -->
<g id="edge42" class="edge"><title>Node4&#45;&gt;Node3</title>
<path fill="none" stroke="midnightblue" d="M530.071,-211.57C510.78,-211.877 490.138,-211.792 471.596,-211.315"/>
<polygon fill="midnightblue" stroke="midnightblue" points="530.393,-215.064 540.322,-211.367 530.254,-208.066 530.393,-215.064"/>
</g>
<!-- Node5 -->
<g id="node9" class="node"><title>Node5</title>
<a xlink:href="namespaceHandler.xhtml#a142c6f0b9e36e54eba3d72f9db2dfe40" target="_top" xlink:title="Redirect to the appropriate subsystem based on socket state.">
<polygon fill="white" stroke="black" points="730.5,-276.5 730.5,-297.5 831.5,-297.5 831.5,-276.5 730.5,-276.5"/>
<text text-anchor="middle" x="781" y="-284.5" font-family="FreeSans.ttf" font-size="10.00">Handler::Interpret</text>
</a>
</g>
<!-- Node4&#45;&gt;Node5 -->
<g id="edge8" class="edge"><title>Node4&#45;&gt;Node5</title>
<path fill="none" stroke="midnightblue" d="M625.885,-221.012C647.204,-234.734 679.655,-254.247 710,-267 718.5,-270.572 727.835,-273.717 736.863,-276.393"/>
<polygon fill="midnightblue" stroke="midnightblue" points="627.757,-218.054 617.469,-215.522 623.933,-223.917 627.757,-218.054"/>
</g>
<!-- Node4&#45;&gt;Node13 -->
<g id="edge26" class="edge"><title>Node4&#45;&gt;Node13</title>
<path fill="none" stroke="midnightblue" d="M619.067,-187.945C639.892,-172.643 676.477,-151.534 710,-138 711.781,-137.281 713.597,-136.577 715.439,-135.892"/>
<polygon fill="midnightblue" stroke="midnightblue" points="616.643,-185.398 610.919,-194.314 620.953,-190.914 616.643,-185.398"/>
</g>
<!-- Node14 -->
<g id="node29" class="node"><title>Node14</title>
<a xlink:href="namespaceHandler.xhtml#a00bc24564bfd267e0329643c569da1e4" target="_top" xlink:title="Select a new account name.">
<polygon fill="white" stroke="black" points="712.5,-236.5 712.5,-257.5 849.5,-257.5 849.5,-236.5 712.5,-236.5"/>
<text text-anchor="middle" x="781" y="-244.5" font-family="FreeSans.ttf" font-size="10.00">Handler::GetNewAccount</text>
</a>
</g>
<!-- Node4&#45;&gt;Node14 -->
<g id="edge30" class="edge"><title>Node4&#45;&gt;Node14</title>
<path fill="none" stroke="midnightblue" d="M673.482,-215.145C702.983,-221.659 735.207,-229.827 756.609,-236.469"/>
<polygon fill="midnightblue" stroke="midnightblue" points="674.116,-211.702 663.602,-213.004 672.634,-218.543 674.116,-211.702"/>
</g>
<!-- Node15 -->
<g id="node32" class="node"><title>Node15</title>
<a xlink:href="namespaceHandler.xhtml#a744adadcf407cdb3a9c33365afd5a7c2" target="_top" xlink:title="Create a new account.">
<polygon fill="white" stroke="black" points="710,-196.5 710,-217.5 852,-217.5 852,-196.5 710,-196.5"/>
<text text-anchor="middle" x="781" y="-204.5" font-family="FreeSans.ttf" font-size="10.00">Handler::GetNewPassword</text>
</a>
</g>
<!-- Node4&#45;&gt;Node15 -->
<g id="edge34" class="edge"><title>Node4&#45;&gt;Node15</title>
<path fill="none" stroke="midnightblue" d="M673.86,-199.171C685.683,-199.143 697.934,-199.283 709.742,-199.58"/>
<polygon fill="midnightblue" stroke="midnightblue" points="673.578,-195.673 663.602,-199.239 673.625,-202.672 673.578,-195.673"/>
</g>
<!-- Node16 -->
<g id="node35" class="node"><title>Node16</title>
<a xlink:href="namespaceHandler.xhtml#adfe13cc9748392348f3941656a1323b6" target="_top" xlink:title="Compare a received password against an existing account.">
<polygon fill="white" stroke="black" points="712.5,-156.5 712.5,-177.5 849.5,-177.5 849.5,-156.5 712.5,-156.5"/>
<text text-anchor="middle" x="781" y="-164.5" font-family="FreeSans.ttf" font-size="10.00">Handler::GetOldPassword</text>
</a>
</g>
<!-- Node4&#45;&gt;Node16 -->
<g id="edge38" class="edge"><title>Node4&#45;&gt;Node16</title>
<path fill="none" stroke="midnightblue" d="M638.306,-191.74C659.564,-186.132 687.108,-179.941 712.318,-174.996"/>
<polygon fill="midnightblue" stroke="midnightblue" points="637.139,-188.43 628.412,-194.438 638.981,-195.183 637.139,-188.43"/>
</g>
<!-- Node6 -->
<g id="node11" class="node"><title>Node6</title>
<a xlink:href="classSocketClient.xhtml#a553658a2c076ea71ddcd1758fc64a925" target="_top" xlink:title="Build a SocketClient for a new client connection and set all attributes.">
<polygon fill="white" stroke="black" points="921.5,-197.5 921.5,-218.5 1024.5,-218.5 1024.5,-197.5 921.5,-197.5"/>
<text text-anchor="middle" x="973" y="-205.5" font-family="FreeSans.ttf" font-size="10.00">SocketClient::New</text>
</a>
</g>
<!-- Node5&#45;&gt;Node6 -->
<g id="edge10" class="edge"><title>Node5&#45;&gt;Node6</title>
<path fill="none" stroke="midnightblue" d="M833.107,-273.484C839.527,-271.479 845.953,-269.305 852,-267 889.126,-252.85 930.303,-231.475 953.778,-218.711"/>
<polygon fill="midnightblue" stroke="midnightblue" points="831.653,-270.266 823.079,-276.49 833.663,-276.971 831.653,-270.266"/>
</g>
<!-- Node5&#45;&gt;Node11 -->
<g id="edge20" class="edge"><title>Node5&#45;&gt;Node11</title>
<path fill="none" stroke="midnightblue" d="M840.645,-276.02C844.856,-273.57 848.724,-270.599 852,-267 911.916,-201.181 826.668,-134.501 888,-70 891.552,-66.2647 895.659,-63.1688 900.113,-60.6084"/>
<polygon fill="midnightblue" stroke="midnightblue" points="839.104,-272.877 831.596,-280.353 842.127,-279.191 839.104,-272.877"/>
</g>
<!-- Node7 -->
<g id="node13" class="node"><title>Node7</title>
<a xlink:href="classSocketServer.xhtml#afdbc60c3bc840875d2214b59c6213f63" target="_top" xlink:title="Accept a new connection on the listening port.">
<polygon fill="white" stroke="black" points="1094,-117.5 1094,-138.5 1214,-138.5 1214,-117.5 1094,-117.5"/>
<text text-anchor="middle" x="1154" y="-125.5" font-family="FreeSans.ttf" font-size="10.00">SocketServer::Accept</text>
</a>
</g>
<!-- Node6&#45;&gt;Node7 -->
<g id="edge12" class="edge"><title>Node6&#45;&gt;Node7</title>
<path fill="none" stroke="midnightblue" d="M1006.59,-193.152C1042.5,-177.282 1098.52,-152.522 1130.15,-138.54"/>
<polygon fill="midnightblue" stroke="midnightblue" points="1004.77,-190.133 997.035,-197.377 1007.6,-196.535 1004.77,-190.133"/>
</g>
<!-- Node8 -->
<g id="node15" class="node"><title>Node8</title>
<a xlink:href="classServer.xhtml#a39dbe16fdc8c5f6fbd678c6540fbcd6c" target="_top" xlink:title="Poll all SocketClient objects that are communicating with the associated SocketServer object...">
<polygon fill="white" stroke="black" points="1250.5,-78.5 1250.5,-99.5 1359.5,-99.5 1359.5,-78.5 1250.5,-78.5"/>
<text text-anchor="middle" x="1305" y="-86.5" font-family="FreeSans.ttf" font-size="10.00">Server::PollSockets</text>
</a>
</g>
<!-- Node7&#45;&gt;Node8 -->
<g id="edge14" class="edge"><title>Node7&#45;&gt;Node8</title>
<path fill="none" stroke="midnightblue" d="M1204.72,-114.901C1224.04,-109.91 1245.8,-104.289 1264.1,-99.5624"/>
<polygon fill="midnightblue" stroke="midnightblue" points="1203.67,-111.556 1194.86,-117.446 1205.42,-118.334 1203.67,-111.556"/>
</g>
<!-- Node9 -->
<g id="node17" class="node"><title>Node9</title>
<a xlink:href="classServer.xhtml#a50b81aa91d8fdaee6f52c5c5ec987990" target="_top" xlink:title="The core update loop of NAMS. This loop spawns all other subsystem update routines and then sleeps fo...">
<polygon fill="white" stroke="black" points="1396.5,-58.5 1396.5,-79.5 1485.5,-79.5 1485.5,-58.5 1396.5,-58.5"/>
<text text-anchor="middle" x="1441" y="-66.5" font-family="FreeSans.ttf" font-size="10.00">Server::Update</text>
</a>
</g>
<!-- Node8&#45;&gt;Node9 -->
<g id="edge16" class="edge"><title>Node8&#45;&gt;Node9</title>
<path fill="none" stroke="midnightblue" d="M1369.7,-79.4856C1378.76,-78.1527 1387.9,-76.8084 1396.48,-75.5475"/>
<polygon fill="midnightblue" stroke="midnightblue" points="1368.92,-76.0627 1359.53,-80.9805 1369.94,-82.9882 1368.92,-76.0627"/>
</g>
<!-- Node10 -->
<g id="node19" class="node"><title>Node10</title>
<a xlink:href="main_8cpp.xhtml#ad53223b8779f25caeddb70a3b9172967" target="_top" xlink:title="The default function required to execute the server.">
<polygon fill="white" stroke="black" points="1522.5,-58.5 1522.5,-79.5 1563.5,-79.5 1563.5,-58.5 1522.5,-58.5"/>
<text text-anchor="middle" x="1543" y="-66.5" font-family="FreeSans.ttf" font-size="10.00">main</text>
</a>
</g>
<!-- Node9&#45;&gt;Node10 -->
<g id="edge18" class="edge"><title>Node9&#45;&gt;Node10</title>
<path fill="none" stroke="midnightblue" d="M1495.94,-69C1505.34,-69 1514.55,-69 1522.3,-69"/>
<polygon fill="midnightblue" stroke="midnightblue" points="1495.74,-65.5001 1485.74,-69 1495.74,-72.5001 1495.74,-65.5001"/>
</g>
<!-- Node12 -->
<g id="node23" class="node"><title>Node12</title>
<a xlink:href="classServer.xhtml#a2b4cec469bb99c2a45e49de5ba74d1ae" target="_top" xlink:title="Processes input from all active SocketClient objects.">
<polygon fill="white" stroke="black" points="1096,-39.5 1096,-60.5 1212,-60.5 1212,-39.5 1096,-39.5"/>
<text text-anchor="middle" x="1154" y="-47.5" font-family="FreeSans.ttf" font-size="10.00">Server::ProcessInput</text>
</a>
</g>
<!-- Node11&#45;&gt;Node12 -->
<g id="edge22" class="edge"><title>Node11&#45;&gt;Node12</title>
<path fill="none" stroke="midnightblue" d="M1068.37,-50C1077.73,-50 1087.02,-50 1095.84,-50"/>
<polygon fill="midnightblue" stroke="midnightblue" points="1068.2,-46.5001 1058.2,-50 1068.2,-53.5001 1068.2,-46.5001"/>
</g>
<!-- Node12&#45;&gt;Node9 -->
<g id="edge24" class="edge"><title>Node12&#45;&gt;Node9</title>
<path fill="none" stroke="midnightblue" d="M1222.23,-54.5168C1276.05,-58.0798 1349.57,-62.9473 1396.18,-66.0326"/>
<polygon fill="midnightblue" stroke="midnightblue" points="1222.29,-51.0132 1212.08,-53.8449 1221.83,-57.998 1222.29,-51.0132"/>
</g>
<!-- Node13&#45;&gt;Node4 -->
<g id="edge28" class="edge"><title>Node13&#45;&gt;Node4</title>
<path fill="none" stroke="midnightblue" d="M755.154,-140.843C741.489,-145.278 724.573,-150.117 710,-156 682.371,-167.154 652.661,-183.455 631.41,-194.465"/>
<polygon fill="midnightblue" stroke="midnightblue" points="756.547,-144.066 764.877,-137.52 754.283,-137.442 756.547,-144.066"/>
</g>
<!-- Node14&#45;&gt;Node4 -->
<g id="edge32" class="edge"><title>Node14&#45;&gt;Node4</title>
<path fill="none" stroke="midnightblue" d="M702.445,-235.273C675.024,-229.066 646.213,-221.676 626.514,-215.569"/>
<polygon fill="midnightblue" stroke="midnightblue" points="701.943,-238.747 712.465,-237.502 703.463,-231.914 701.943,-238.747"/>
</g>
<!-- Node15&#45;&gt;Node4 -->
<g id="edge36" class="edge"><title>Node15&#45;&gt;Node4</title>
<path fill="none" stroke="midnightblue" d="M699.636,-212.816C687.526,-212.755 675.216,-212.526 663.602,-212.138"/>
<polygon fill="midnightblue" stroke="midnightblue" points="699.738,-216.316 709.742,-212.828 699.746,-209.316 699.738,-216.316"/>
</g>
<!-- Node16&#45;&gt;Node4 -->
<g id="edge40" class="edge"><title>Node16&#45;&gt;Node4</title>
<path fill="none" stroke="midnightblue" d="M744.968,-180.188C721.668,-186.344 690.734,-193.215 663.602,-198.372"/>
<polygon fill="midnightblue" stroke="midnightblue" points="746.05,-183.521 754.774,-177.51 744.205,-176.768 746.05,-183.521"/>
</g>
<!-- Node17&#45;&gt;Node3 -->
<g id="edge46" class="edge"><title>Node17&#45;&gt;Node3</title>
<path fill="none" stroke="midnightblue" d="M284.008,-177.622C309.384,-183.05 338.703,-189.321 362.872,-194.491"/>
<polygon fill="midnightblue" stroke="midnightblue" points="284.643,-174.179 274.132,-175.51 283.179,-181.024 284.643,-174.179"/>
</g>
<!-- Node18&#45;&gt;Node7 -->
<g id="edge56" class="edge"><title>Node18&#45;&gt;Node7</title>
<path fill="none" stroke="midnightblue" d="M1033.36,-102.673C1056.24,-107.476 1082.02,-112.887 1103.85,-117.472"/>
<polygon fill="midnightblue" stroke="midnightblue" points="1033.92,-99.2145 1023.42,-100.585 1032.49,-106.065 1033.92,-99.2145"/>
</g>
<!-- Node18&#45;&gt;Node8 -->
<g id="edge52" class="edge"><title>Node18&#45;&gt;Node8</title>
<path fill="none" stroke="midnightblue" d="M1040.13,-89.7978C1102.01,-89.6114 1192.74,-89.3381 1250.32,-89.1647"/>
<polygon fill="midnightblue" stroke="midnightblue" points="1040.06,-86.2979 1030.07,-89.8281 1040.08,-93.2979 1040.06,-86.2979"/>
</g>
<!-- Node18&#45;&gt;Node12 -->
<g id="edge54" class="edge"><title>Node18&#45;&gt;Node12</title>
<path fill="none" stroke="midnightblue" d="M1030.44,-77.3059C1054.93,-71.8944 1083.16,-65.6557 1106.45,-60.5087"/>
<polygon fill="midnightblue" stroke="midnightblue" points="1029.56,-73.915 1020.56,-79.4905 1031.08,-80.7501 1029.56,-73.915"/>
</g>
<!-- Node20 -->
<g id="node51" class="node"><title>Node20</title>
<a xlink:href="classSocketClient.xhtml#a92fea2bf7e0f20578404ce1abb835a0b" target="_top" xlink:title="Process data from the client&#39;s receive buffer and split it into commands to queue as necessary...">
<polygon fill="white" stroke="black" points="530,-0.5 530,-21.5 674,-21.5 674,-0.5 530,-0.5"/>
<text text-anchor="middle" x="602" y="-8.5" font-family="FreeSans.ttf" font-size="10.00">SocketClient::ProcessInput</text>
</a>
</g>
<!-- Node19&#45;&gt;Node20 -->
<g id="edge62" class="edge"><title>Node19&#45;&gt;Node20</title>
<path fill="none" stroke="midnightblue" d="M504.264,-11C512.836,-11 521.438,-11 529.79,-11"/>
<polygon fill="midnightblue" stroke="midnightblue" points="504.232,-7.5001 494.232,-11 504.232,-14.5001 504.232,-7.5001"/>
</g>
<!-- Node20&#45;&gt;Node12 -->
<g id="edge64" class="edge"><title>Node20&#45;&gt;Node12</title>
<path fill="none" stroke="midnightblue" d="M684.208,-10.3882C775.771,-10.6436 928.019,-13.8628 1058,-30 1075.4,-32.1604 1094.34,-35.82 1110.76,-39.4226"/>
<polygon fill="midnightblue" stroke="midnightblue" points="684.176,-6.88821 674.17,-10.3714 684.165,-13.8882 684.176,-6.88821"/>
</g>
</g>
</svg>
        <g id="navigator" transform="translate(0 0)" fill="#404254">
                <rect fill="#f2f5e9" fill-opacity="0.5" stroke="#606060" stroke-width=".5" x="0" y="0" width="60" height="60"/>
                <use id="zoomplus" xlink:href="#zoomPlus" x="17" y="9" onmousedown="handleZoom(evt,'in')"/>
                <use id="zoomminus" xlink:href="#zoomMin" x="42" y="9" onmousedown="handleZoom(evt,'out')"/>
                <use id="reset" xlink:href="#resetDef" x="30" y="36" onmousedown="handleReset()"/>
                <g id="arrowUp" xlink:href="#dirArrow" transform="translate(30 24)" onmousedown="handlePan(0,-1)">
                  <use xlink:href="#rim" fill="#404040">
                        <set attributeName="fill" to="#808080" begin="arrowUp.mouseover" end="arrowUp.mouseout"/>
                  </use>
                  <path fill="none" stroke="white" stroke-width="1.5" d="M0,-3.0v7 M-2.5,-0.5L0,-3.0L2.5,-0.5"/>
                </g>
                <g id="arrowRight" xlink:href="#dirArrow" transform="rotate(90) translate(36 -43)" onmousedown="handlePan(1,0)">
                  <use xlink:href="#rim" fill="#404040">
                        <set attributeName="fill" to="#808080" begin="arrowRight.mouseover" end="arrowRight.mouseout"/>
                  </use>
                  <path fill="none" stroke="white" stroke-width="1.5" d="M0,-3.0v7 M-2.5,-0.5L0,-3.0L2.5,-0.5"/>
                </g>
                <g id="arrowDown" xlink:href="#dirArrow" transform="rotate(180) translate(-30 -48)" onmousedown="handlePan(0,1)">
                  <use xlink:href="#rim" fill="#404040">
                        <set attributeName="fill" to="#808080" begin="arrowDown.mouseover" end="arrowDown.mouseout"/>
                  </use>
                  <path fill="none" stroke="white" stroke-width="1.5" d="M0,-3.0v7 M-2.5,-0.5L0,-3.0L2.5,-0.5"/>
                </g>
                <g id="arrowLeft" xlink:href="#dirArrow" transform="rotate(270) translate(-36 17)" onmousedown="handlePan(-1,0)">
                  <use xlink:href="#rim" fill="#404040">
                        <set attributeName="fill" to="#808080" begin="arrowLeft.mouseover" end="arrowLeft.mouseout"/>
                  </use>
                  <path fill="none" stroke="white" stroke-width="1.5" d="M0,-3.0v7 M-2.5,-0.5L0,-3.0L2.5,-0.5"/>
                </g>
        </g>
</svg>
