<?xml version="1.0" encoding="UTF-8" standalone="no"?>
<!DOCTYPE svg PUBLIC "-//W3C//DTD SVG 1.1//EN"
 "http://www.w3.org/Graphics/SVG/1.1/DTD/svg11.dtd">
<!-- Generated by graphviz version 2.26.3 (20100126.1600)
 -->
<!-- Title: G Pages: 1 -->
<!--zoomable 652 -->
<svg id="main" version="1.1" xmlns="http://www.w3.org/2000/svg" xmlns:xlink="http://www.w3.org/1999/xlink" xml:space="preserve" onload="init(evt)">
        <defs>
                <circle id="rim" cx="0" cy="0" r="7"/>
                <circle id="rim2" cx="0" cy="0" r="3.5"/>
                <g id="zoomPlus">
                        <use xlink:href="#rim" fill="#404040">
                                <set attributeName="fill" to="#808080" begin="zoomplus.mouseover" end="zoomplus.mouseout"/>
                        </use>
                        <path d="M-4,0h8M0,-4v8" fill="none" stroke="white" stroke-width="1.5" pointer-events="none"/>
                </g>
                <g id="zoomMin">
                        <use xlink:href="#rim" fill="#404040">
                                <set attributeName="fill" to="#808080" begin="zoomminus.mouseover" end="zoomminus.mouseout"/>
                        </use>
                        <path d="M-4,0h8" fill="none" stroke="white" stroke-width="1.5" pointer-events="none"/>
                </g>
                <g id="dirArrow">
                        <path fill="none" stroke="white" stroke-width="1.5" d="M0,-3.0v7 M-2.5,-0.5L0,-3.0L2.5,-0.5"/>
                </g>
               <g id="resetDef">
                       <use xlink:href="#rim2" fill="#404040">
                               <set attributeName="fill" to="#808080" begin="reset.mouseover" end="reset.mouseout"/>
                       </use>
               </g>
        </defs>

<script type="text/javascript">
var viewWidth = 1672;
var viewHeight = 652;
var sectionId = 'dynsection-30';
</script>
<script xlink:href="svgpan.js"/>
<svg id="graph" class="graph">
<g id="viewport">
<title>G</title>
<polygon fill="white" stroke="white" points="-4,5 -4,-648.069 1669,-648.069 1669,5 -4,5"/>
<!-- Node1 -->
<g id="node1" class="node"><title>Node1</title>
<polygon fill="#bfbfbf" stroke="black" points="0.5,-351.465 0.5,-372.465 107.5,-372.465 107.5,-351.465 0.5,-351.465"/>
<text text-anchor="middle" x="54" y="-359.465" font-family="FreeSans.ttf" font-size="10.00">SocketClient::Send</text>
</g>
<!-- Node2 -->
<g id="node3" class="node"><title>Node2</title>
<a xlink:href="classAccount.xhtml#ae236325fef7b2269f54e9567577e0b92" target="_top" xlink:title="Unserialize the account data from CFG_DAT_FILE_SETTINGS.">
<polygon fill="white" stroke="black" points="157,-351.465 157,-372.465 271,-372.465 271,-351.465 157,-351.465"/>
<text text-anchor="middle" x="214" y="-359.465" font-family="FreeSans.ttf" font-size="10.00">Account::Unserialize</text>
</a>
</g>
<!-- Node1&#45;&gt;Node2 -->
<g id="edge2" class="edge"><title>Node1&#45;&gt;Node2</title>
<path fill="none" stroke="midnightblue" d="M117.897,-361.965C130.773,-361.965 144.229,-361.965 156.856,-361.965"/>
<polygon fill="midnightblue" stroke="midnightblue" points="117.723,-358.465 107.723,-361.965 117.723,-365.465 117.723,-358.465"/>
</g>
<!-- Node4 -->
<g id="node7" class="node"><title>Node4</title>
<a xlink:href="namespaceHandler.xhtml#a33a19d69ead678af81fbe96907eceaf0" target="_top" xlink:title="Create a new account object, or load an existing one, with a name and password.">
<polygon fill="white" stroke="black" points="482.5,-388.465 482.5,-409.465 613.5,-409.465 613.5,-388.465 482.5,-388.465"/>
<text text-anchor="middle" x="548" y="-396.465" font-family="FreeSans.ttf" font-size="10.00">Handler::AttachAccount</text>
</a>
</g>
<!-- Node1&#45;&gt;Node4 -->
<g id="edge46" class="edge"><title>Node1&#45;&gt;Node4</title>
<path fill="none" stroke="midnightblue" d="M104.521,-374.834C117.322,-377.641 131.102,-380.274 144,-381.965 262.503,-397.501 402.068,-399.892 482.269,-399.75"/>
<polygon fill="midnightblue" stroke="midnightblue" points="105.026,-371.36 94.4994,-372.561 103.477,-378.187 105.026,-371.36"/>
</g>
<!-- Node9 -->
<g id="node17" class="node"><title>Node9</title>
<a xlink:href="classServer.xhtml#a39dbe16fdc8c5f6fbd678c6540fbcd6c" target="_top" xlink:title="Poll all SocketClient objects that are communicating with the associated SocketServer object...">
<polygon fill="white" stroke="black" points="1350.5,-156.465 1350.5,-177.465 1459.5,-177.465 1459.5,-156.465 1350.5,-156.465"/>
<text text-anchor="middle" x="1405" y="-164.465" font-family="FreeSans.ttf" font-size="10.00">Server::PollSockets</text>
</a>
</g>
<!-- Node1&#45;&gt;Node9 -->
<g id="edge88" class="edge"><title>Node1&#45;&gt;Node9</title>
<path fill="none" stroke="midnightblue" d="M55.2026,-341.253C59.1076,-294.607 75.5344,-181.103 144,-125.965 227.663,-58.5882 275.58,-89.9649 383,-89.9649 383,-89.9649 383,-89.9649 1073,-89.9649 1181.88,-89.9649 1208.9,-105.528 1314,-133.965 1336.55,-140.066 1361.44,-149.27 1379.48,-156.41"/>
<polygon fill="midnightblue" stroke="midnightblue" points="51.7023,-341.131 54.4699,-351.358 58.684,-341.637 51.7023,-341.131"/>
</g>
<!-- Node12 -->
<g id="node23" class="node"><title>Node12</title>
<a xlink:href="classSocketClient.xhtml#ad4f63c7d906310dc56a1217136047d7f" target="_top" xlink:title="Interpret the command at the front of the queue.">
<polygon fill="white" stroke="black" points="988,-275.465 988,-296.465 1158,-296.465 1158,-275.465 988,-275.465"/>
<text text-anchor="middle" x="1073" y="-283.465" font-family="FreeSans.ttf" font-size="10.00">SocketClient::ProcessCommand</text>
</a>
</g>
<!-- Node1&#45;&gt;Node12 -->
<g id="edge98" class="edge"><title>Node1&#45;&gt;Node12</title>
<path fill="none" stroke="midnightblue" d="M58.5996,-382.488C71.0509,-436.114 106.976,-578.265 144,-606.965 228.375,-672.37 276.244,-630.965 383,-630.965 383,-630.965 383,-630.965 712,-630.965 819.199,-630.965 866.986,-672.265 952,-606.965 1057.33,-526.062 1070.97,-342.531 1072.74,-296.559"/>
<polygon fill="midnightblue" stroke="midnightblue" points="62.0095,-381.699 56.3677,-372.731 55.1858,-383.26 62.0095,-381.699"/>
</g>
<!-- Node14 -->
<g id="node29" class="node"><title>Node14</title>
<a xlink:href="namespaceHandler.xhtml#a00bc24564bfd267e0329643c569da1e4" target="_top" xlink:title="Select a new account name.">
<polygon fill="white" stroke="black" points="812.5,-398.465 812.5,-419.465 949.5,-419.465 949.5,-398.465 812.5,-398.465"/>
<text text-anchor="middle" x="881" y="-406.465" font-family="FreeSans.ttf" font-size="10.00">Handler::GetNewAccount</text>
</a>
</g>
<!-- Node1&#45;&gt;Node14 -->
<g id="edge62" class="edge"><title>Node1&#45;&gt;Node14</title>
<path fill="none" stroke="midnightblue" d="M63.9852,-381.667C78.0046,-406.962 106.112,-449.864 144,-468.965 265.008,-529.969 687.688,-449.544 832.156,-419.473"/>
<polygon fill="midnightblue" stroke="midnightblue" points="66.9535,-379.796 59.1571,-372.622 60.7781,-383.092 66.9535,-379.796"/>
</g>
<!-- Node15 -->
<g id="node32" class="node"><title>Node15</title>
<a xlink:href="namespaceHandler.xhtml#a744adadcf407cdb3a9c33365afd5a7c2" target="_top" xlink:title="Create a new account.">
<polygon fill="white" stroke="black" points="810,-235.465 810,-256.465 952,-256.465 952,-235.465 810,-235.465"/>
<text text-anchor="middle" x="881" y="-243.465" font-family="FreeSans.ttf" font-size="10.00">Handler::GetNewPassword</text>
</a>
</g>
<!-- Node1&#45;&gt;Node15 -->
<g id="edge64" class="edge"><title>Node1&#45;&gt;Node15</title>
<path fill="none" stroke="midnightblue" d="M66.2873,-342.96C81.5439,-321.262 109.781,-286.851 144,-271.965 261.99,-220.636 649.037,-233.881 809.901,-241.942"/>
<polygon fill="midnightblue" stroke="midnightblue" points="63.287,-341.148 60.5638,-351.387 69.0777,-345.081 63.287,-341.148"/>
</g>
<!-- Node16 -->
<g id="node35" class="node"><title>Node16</title>
<a xlink:href="namespaceHandler.xhtml#adfe13cc9748392348f3941656a1323b6" target="_top" xlink:title="Compare a received password against an existing account.">
<polygon fill="white" stroke="black" points="812.5,-447.465 812.5,-468.465 949.5,-468.465 949.5,-447.465 812.5,-447.465"/>
<text text-anchor="middle" x="881" y="-455.465" font-family="FreeSans.ttf" font-size="10.00">Handler::GetOldPassword</text>
</a>
</g>
<!-- Node1&#45;&gt;Node16 -->
<g id="edge66" class="edge"><title>Node1&#45;&gt;Node16</title>
<path fill="none" stroke="midnightblue" d="M62.126,-382.046C75.0123,-411.282 102.953,-465.207 144,-493.965 233.784,-556.869 273.373,-554.965 383,-554.965 383,-554.965 383,-554.965 548,-554.965 670.538,-554.965 808.683,-493.671 860.19,-468.53"/>
<polygon fill="midnightblue" stroke="midnightblue" points="65.3347,-380.647 58.199,-372.816 58.8935,-383.388 65.3347,-380.647"/>
</g>
<!-- Node17 -->
<g id="node38" class="node"><title>Node17</title>
<a xlink:href="namespaceHandler.xhtml#a44b41bf69fdc6e615a029bea34910191" target="_top" xlink:title="Send initial greeting and request for account name.">
<polygon fill="white" stroke="black" points="821.5,-358.465 821.5,-379.465 940.5,-379.465 940.5,-358.465 821.5,-358.465"/>
<text text-anchor="middle" x="881" y="-366.465" font-family="FreeSans.ttf" font-size="10.00">Handler::LoginScreen</text>
</a>
</g>
<!-- Node1&#45;&gt;Node17 -->
<g id="edge68" class="edge"><title>Node1&#45;&gt;Node17</title>
<path fill="none" stroke="midnightblue" d="M72.6399,-344.677C89.7355,-330.088 116.507,-310.289 144,-301.965 408.992,-221.732 750.1,-324.056 851.396,-358.441"/>
<polygon fill="midnightblue" stroke="midnightblue" points="70.2568,-342.112 65.064,-351.347 74.8824,-347.366 70.2568,-342.112"/>
</g>
<!-- Node18 -->
<g id="node42" class="node"><title>Node18</title>
<a xlink:href="namespaceHandler.xhtml#af55c3642454fd95ff0fa2c4ff575bf67" target="_top" xlink:title="Create a new character in the game.">
<polygon fill="white" stroke="black" points="144,-311.465 144,-332.465 284,-332.465 284,-311.465 144,-311.465"/>
<text text-anchor="middle" x="214" y="-319.465" font-family="FreeSans.ttf" font-size="10.00">Handler::CharacterCreate</text>
</a>
</g>
<!-- Node1&#45;&gt;Node18 -->
<g id="edge48" class="edge"><title>Node1&#45;&gt;Node18</title>
<path fill="none" stroke="midnightblue" d="M105.934,-348.981C127.308,-343.638 151.743,-337.529 171.965,-332.474"/>
<polygon fill="midnightblue" stroke="midnightblue" points="104.891,-345.634 96.0381,-351.455 106.588,-352.425 104.891,-345.634"/>
</g>
<!-- Node20 -->
<g id="node49" class="node"><title>Node20</title>
<a xlink:href="namespaceHandler.xhtml#a22b7749e3b3771d31eb2299efa5d821b" target="_top" xlink:title="Send initial account interface menu.">
<polygon fill="white" stroke="black" points="488,-428.465 488,-449.465 608,-449.465 608,-428.465 488,-428.465"/>
<text text-anchor="middle" x="548" y="-436.465" font-family="FreeSans.ttf" font-size="10.00">Handler::MenuScreen</text>
</a>
</g>
<!-- Node1&#45;&gt;Node20 -->
<g id="edge70" class="edge"><title>Node1&#45;&gt;Node20</title>
<path fill="none" stroke="midnightblue" d="M69.0365,-380.29C85.3787,-398.787 113.298,-426.488 144,-439.965 266.829,-493.88 431.612,-466.68 507.112,-449.472"/>
<polygon fill="midnightblue" stroke="midnightblue" points="71.5415,-377.834 62.3741,-372.523 66.2284,-382.392 71.5415,-377.834"/>
</g>
<!-- Node21 -->
<g id="node57" class="node"><title>Node21</title>
<a xlink:href="classServer.xhtml#ae1bb8d3c7c71119bae6dd4205fd6c0cc" target="_top" xlink:title="Sends a message to all clients connected to the Server.">
<polygon fill="white" stroke="black" points="660.5,-40.4649 660.5,-61.4649 763.5,-61.4649 763.5,-40.4649 660.5,-40.4649"/>
<text text-anchor="middle" x="712" y="-48.4649" font-family="FreeSans.ttf" font-size="10.00">Server::Broadcast</text>
</a>
</g>
<!-- Node1&#45;&gt;Node21 -->
<g id="edge72" class="edge"><title>Node1&#45;&gt;Node21</title>
<path fill="none" stroke="midnightblue" d="M57.4101,-341.182C67.7237,-281.096 100.563,-109.326 144,-75.9649 307.413,49.5448 582,-13.0111 677.795,-40.3786"/>
<polygon fill="midnightblue" stroke="midnightblue" points="53.9086,-340.898 55.6999,-351.34 60.8115,-342.06 53.9086,-340.898"/>
</g>
<!-- Node25 -->
<g id="node70" class="node"><title>Node25</title>
<a xlink:href="classSocketClient.xhtml#af09328648d18ae943c8866cf744e5aad" target="_top" xlink:title="Unload a client&#39;s socket from memory that was previously loaded via SocketClient::New().">
<polygon fill="white" stroke="black" points="1016,-218.465 1016,-239.465 1130,-239.465 1130,-218.465 1016,-218.465"/>
<text text-anchor="middle" x="1073" y="-226.465" font-family="FreeSans.ttf" font-size="10.00">SocketClient::Delete</text>
</a>
</g>
<!-- Node1&#45;&gt;Node25 -->
<g id="edge90" class="edge"><title>Node1&#45;&gt;Node25</title>
<path fill="none" stroke="midnightblue" d="M58.6138,-382.714C67.9625,-419.714 92.7542,-496.948 144,-536.965 229.988,-604.111 273.901,-592.965 383,-592.965 383,-592.965 383,-592.965 712,-592.965 830.28,-592.965 880.788,-572.405 952,-477.965 1009.54,-401.656 929.085,-341.217 988,-265.965 997.822,-253.419 1012.76,-245.043 1027.39,-239.488"/>
<polygon fill="midnightblue" stroke="midnightblue" points="61.9269,-381.519 56.196,-372.608 55.119,-383.148 61.9269,-381.519"/>
</g>
<!-- Node26 -->
<g id="node76" class="node"><title>Node26</title>
<a xlink:href="classSocketClient.xhtml#ad8ab017dd47d5e8b20ad30f72773a759" target="_top" xlink:title="Flags a client as quitting to break out of nested loops.">
<polygon fill="white" stroke="black" points="332,-429.465 332,-450.465 434,-450.465 434,-429.465 332,-429.465"/>
<text text-anchor="middle" x="383" y="-437.465" font-family="FreeSans.ttf" font-size="10.00">SocketClient::Quit</text>
</a>
</g>
<!-- Node1&#45;&gt;Node26 -->
<g id="edge100" class="edge"><title>Node1&#45;&gt;Node26</title>
<path fill="none" stroke="midnightblue" d="M76.0877,-378.636C93.553,-390.879 119.068,-406.752 144,-414.965 206.409,-435.523 282.491,-440.248 331.798,-440.84"/>
<polygon fill="midnightblue" stroke="midnightblue" points="77.895,-375.625 67.7339,-372.625 73.8063,-381.307 77.895,-375.625"/>
</g>
<!-- Node27 -->
<g id="node79" class="node"><title>Node27</title>
<a xlink:href="namespaceTelopt.xhtml#aae5468ac9f53474dea225a4485905ac3" target="_top" xlink:title="Send initial options to negotiate for, then the login string.">
<polygon fill="white" stroke="black" points="482.5,-118.465 482.5,-139.465 613.5,-139.465 613.5,-118.465 482.5,-118.465"/>
<text text-anchor="middle" x="548" y="-126.465" font-family="FreeSans.ttf" font-size="10.00">Telopt::InitialNegotiation</text>
</a>
</g>
<!-- Node1&#45;&gt;Node27 -->
<g id="edge104" class="edge"><title>Node1&#45;&gt;Node27</title>
<path fill="none" stroke="midnightblue" d="M57.9952,-341.66C66.5336,-304.12 90.3265,-224.213 144,-185.965 244.806,-114.131 396.238,-113.807 482.208,-120.838"/>
<polygon fill="midnightblue" stroke="midnightblue" points="54.5688,-340.946 55.8986,-351.458 61.4138,-342.411 54.5688,-340.946"/>
</g>
<!-- Node28 -->
<g id="node82" class="node"><title>Node28</title>
<a xlink:href="namespaceTelopt.xhtml#a4f56b29258351832660a550c61bda34f" target="_top" xlink:title="Sends a formatted telnet negotiation command to the client.">
<polygon fill="white" stroke="black" points="176.5,-195.465 176.5,-216.465 251.5,-216.465 251.5,-195.465 176.5,-195.465"/>
<text text-anchor="middle" x="214" y="-203.465" font-family="FreeSans.ttf" font-size="10.00">Telopt::Send</text>
</a>
</g>
<!-- Node1&#45;&gt;Node28 -->
<g id="edge108" class="edge"><title>Node1&#45;&gt;Node28</title>
<path fill="none" stroke="midnightblue" d="M62.9016,-341.723C76.4469,-313.142 104.854,-261.091 144,-230.965 153.409,-223.724 165.095,-218.459 176.207,-214.684"/>
<polygon fill="midnightblue" stroke="midnightblue" points="59.5849,-340.559 58.5913,-351.107 65.9459,-343.481 59.5849,-340.559"/>
</g>
<!-- Node3 -->
<g id="node5" class="node"><title>Node3</title>
<a xlink:href="classAccount.xhtml#adc4545f17264112e532b5a48abe94baf" target="_top" xlink:title="Create a new account.">
<polygon fill="white" stroke="black" points="342,-351.465 342,-372.465 424,-372.465 424,-351.465 342,-351.465"/>
<text text-anchor="middle" x="383" y="-359.465" font-family="FreeSans.ttf" font-size="10.00">Account::New</text>
</a>
</g>
<!-- Node2&#45;&gt;Node3 -->
<g id="edge4" class="edge"><title>Node2&#45;&gt;Node3</title>
<path fill="none" stroke="midnightblue" d="M281.431,-361.965C301.87,-361.965 323.698,-361.965 341.861,-361.965"/>
<polygon fill="midnightblue" stroke="midnightblue" points="281.216,-358.465 271.216,-361.965 281.216,-365.465 281.216,-358.465"/>
</g>
<!-- Node3&#45;&gt;Node4 -->
<g id="edge6" class="edge"><title>Node3&#45;&gt;Node4</title>
<path fill="none" stroke="midnightblue" d="M434.067,-373.416C455.394,-378.199 480.015,-383.72 500.901,-388.403"/>
<polygon fill="midnightblue" stroke="midnightblue" points="434.734,-369.979 424.211,-371.206 433.203,-376.809 434.734,-369.979"/>
</g>
<!-- Node5 -->
<g id="node9" class="node"><title>Node5</title>
<a xlink:href="namespaceHandler.xhtml#af650e47f3d4baf393b54376d1eaa1fa9" target="_top" xlink:title="Handle SocketClient objects who have not fully logged into the game yet.">
<polygon fill="white" stroke="black" points="650.5,-388.465 650.5,-409.465 773.5,-409.465 773.5,-388.465 650.5,-388.465"/>
<text text-anchor="middle" x="712" y="-396.465" font-family="FreeSans.ttf" font-size="10.00">Handler::ProcessLogin</text>
</a>
</g>
<!-- Node4&#45;&gt;Node5 -->
<g id="edge8" class="edge"><title>Node4&#45;&gt;Node5</title>
<path fill="none" stroke="midnightblue" d="M623.79,-392.232C632.73,-392.182 641.77,-392.24 650.48,-392.406"/>
<polygon fill="midnightblue" stroke="midnightblue" points="623.724,-388.733 613.76,-392.334 623.795,-395.732 623.724,-388.733"/>
</g>
<!-- Node5&#45;&gt;Node4 -->
<g id="edge28" class="edge"><title>Node5&#45;&gt;Node4</title>
<path fill="none" stroke="midnightblue" d="M640.242,-405.668C631.436,-405.749 622.471,-405.725 613.76,-405.596"/>
<polygon fill="midnightblue" stroke="midnightblue" points="640.531,-409.164 650.48,-405.524 640.432,-402.165 640.531,-409.164"/>
</g>
<!-- Node6 -->
<g id="node11" class="node"><title>Node6</title>
<a xlink:href="namespaceHandler.xhtml#a142c6f0b9e36e54eba3d72f9db2dfe40" target="_top" xlink:title="Redirect to the appropriate subsystem based on socket state.">
<polygon fill="white" stroke="black" points="830.5,-275.465 830.5,-296.465 931.5,-296.465 931.5,-275.465 830.5,-275.465"/>
<text text-anchor="middle" x="881" y="-283.465" font-family="FreeSans.ttf" font-size="10.00">Handler::Interpret</text>
</a>
</g>
<!-- Node5&#45;&gt;Node6 -->
<g id="edge10" class="edge"><title>Node5&#45;&gt;Node6</title>
<path fill="none" stroke="midnightblue" d="M736.597,-382.518C771.754,-359.011 835.39,-316.461 865.02,-296.65"/>
<polygon fill="midnightblue" stroke="midnightblue" points="734.267,-379.866 727.899,-388.334 738.157,-385.685 734.267,-379.866"/>
</g>
<!-- Node5&#45;&gt;Node14 -->
<g id="edge30" class="edge"><title>Node5&#45;&gt;Node14</title>
<path fill="none" stroke="midnightblue" d="M784.132,-396.548C794.4,-397.047 804.917,-397.697 815.059,-398.46"/>
<polygon fill="midnightblue" stroke="midnightblue" points="784.114,-393.044 773.97,-396.1 783.806,-400.037 784.114,-393.044"/>
</g>
<!-- Node5&#45;&gt;Node15 -->
<g id="edge34" class="edge"><title>Node5&#45;&gt;Node15</title>
<path fill="none" stroke="midnightblue" d="M718.954,-378.543C732.445,-347.052 764.861,-288.19 810,-256.965 810.211,-256.819 810.422,-256.675 810.635,-256.531"/>
<polygon fill="midnightblue" stroke="midnightblue" points="715.597,-377.51 715.113,-388.094 722.092,-380.122 715.597,-377.51"/>
</g>
<!-- Node5&#45;&gt;Node16 -->
<g id="edge38" class="edge"><title>Node5&#45;&gt;Node16</title>
<path fill="none" stroke="midnightblue" d="M769.876,-412.727C802.461,-423.328 840.93,-437.451 862.994,-447.316"/>
<polygon fill="midnightblue" stroke="midnightblue" points="770.568,-409.274 759.977,-409.559 768.434,-415.941 770.568,-409.274"/>
</g>
<!-- Node5&#45;&gt;Node17 -->
<g id="edge42" class="edge"><title>Node5&#45;&gt;Node17</title>
<path fill="none" stroke="midnightblue" d="M751.578,-386.121C772.352,-381.48 798.233,-376.664 821.38,-373.065"/>
<polygon fill="midnightblue" stroke="midnightblue" points="750.778,-382.714 741.825,-388.379 752.357,-389.533 750.778,-382.714"/>
</g>
<!-- Node7 -->
<g id="node13" class="node"><title>Node7</title>
<a xlink:href="classSocketClient.xhtml#a553658a2c076ea71ddcd1758fc64a925" target="_top" xlink:title="Build a SocketClient for a new client connection and set all attributes.">
<polygon fill="white" stroke="black" points="1021.5,-160.465 1021.5,-181.465 1124.5,-181.465 1124.5,-160.465 1021.5,-160.465"/>
<text text-anchor="middle" x="1073" y="-168.465" font-family="FreeSans.ttf" font-size="10.00">SocketClient::New</text>
</a>
</g>
<!-- Node6&#45;&gt;Node7 -->
<g id="edge12" class="edge"><title>Node6&#45;&gt;Node7</title>
<path fill="none" stroke="midnightblue" d="M940.989,-272.662C944.877,-270.725 948.594,-268.507 952,-265.965 976.015,-248.047 965.354,-228.585 988,-208.965 1002.17,-196.687 1020.95,-187.733 1037.26,-181.613"/>
<polygon fill="midnightblue" stroke="midnightblue" points="939.458,-269.51 931.667,-276.689 942.235,-275.936 939.458,-269.51"/>
</g>
<!-- Node6&#45;&gt;Node12 -->
<g id="edge22" class="edge"><title>Node6&#45;&gt;Node12</title>
<path fill="none" stroke="midnightblue" d="M942.053,-285.965C956.608,-285.965 972.404,-285.965 987.824,-285.965"/>
<polygon fill="midnightblue" stroke="midnightblue" points="941.697,-282.465 931.697,-285.965 941.697,-289.465 941.697,-282.465"/>
</g>
<!-- Node8 -->
<g id="node15" class="node"><title>Node8</title>
<a xlink:href="classSocketServer.xhtml#afdbc60c3bc840875d2214b59c6213f63" target="_top" xlink:title="Accept a new connection on the listening port.">
<polygon fill="white" stroke="black" points="1194,-159.465 1194,-180.465 1314,-180.465 1314,-159.465 1194,-159.465"/>
<text text-anchor="middle" x="1254" y="-167.465" font-family="FreeSans.ttf" font-size="10.00">SocketServer::Accept</text>
</a>
</g>
<!-- Node7&#45;&gt;Node8 -->
<g id="edge14" class="edge"><title>Node7&#45;&gt;Node8</title>
<path fill="none" stroke="midnightblue" d="M1134.93,-170.623C1153.97,-170.518 1174.89,-170.402 1193.82,-170.297"/>
<polygon fill="midnightblue" stroke="midnightblue" points="1134.85,-167.123 1124.87,-170.678 1134.89,-174.123 1134.85,-167.123"/>
</g>
<!-- Node8&#45;&gt;Node9 -->
<g id="edge16" class="edge"><title>Node8&#45;&gt;Node9</title>
<path fill="none" stroke="midnightblue" d="M1324.34,-168.567C1333.12,-168.393 1341.99,-168.217 1350.48,-168.048"/>
<polygon fill="midnightblue" stroke="midnightblue" points="1324.04,-165.073 1314.11,-168.771 1324.18,-172.071 1324.04,-165.073"/>
</g>
<!-- Node10 -->
<g id="node19" class="node"><title>Node10</title>
<a xlink:href="classServer.xhtml#a50b81aa91d8fdaee6f52c5c5ec987990" target="_top" xlink:title="The core update loop of NAMS. This loop spawns all other subsystem update routines and then sleeps fo...">
<polygon fill="white" stroke="black" points="1496.5,-136.465 1496.5,-157.465 1585.5,-157.465 1585.5,-136.465 1496.5,-136.465"/>
<text text-anchor="middle" x="1541" y="-144.465" font-family="FreeSans.ttf" font-size="10.00">Server::Update</text>
</a>
</g>
<!-- Node9&#45;&gt;Node10 -->
<g id="edge18" class="edge"><title>Node9&#45;&gt;Node10</title>
<path fill="none" stroke="midnightblue" d="M1469.7,-157.451C1478.76,-156.118 1487.9,-154.773 1496.48,-153.512"/>
<polygon fill="midnightblue" stroke="midnightblue" points="1468.92,-154.028 1459.53,-158.945 1469.94,-160.953 1468.92,-154.028"/>
</g>
<!-- Node11 -->
<g id="node21" class="node"><title>Node11</title>
<a xlink:href="main_8cpp.xhtml#ad53223b8779f25caeddb70a3b9172967" target="_top" xlink:title="The default function required to execute the server.">
<polygon fill="white" stroke="black" points="1622.5,-59.4649 1622.5,-80.4649 1663.5,-80.4649 1663.5,-59.4649 1622.5,-59.4649"/>
<text text-anchor="middle" x="1643" y="-67.4649" font-family="FreeSans.ttf" font-size="10.00">main</text>
</a>
</g>
<!-- Node10&#45;&gt;Node11 -->
<g id="edge20" class="edge"><title>Node10&#45;&gt;Node11</title>
<path fill="none" stroke="midnightblue" d="M1563.42,-130.041C1583.4,-114.959 1612.02,-93.3535 1628.94,-80.5805"/>
<polygon fill="midnightblue" stroke="midnightblue" points="1561.06,-127.44 1555.18,-136.258 1565.27,-133.027 1561.06,-127.44"/>
</g>
<!-- Node13 -->
<g id="node25" class="node"><title>Node13</title>
<a xlink:href="classServer.xhtml#a2b4cec469bb99c2a45e49de5ba74d1ae" target="_top" xlink:title="Processes input from all active SocketClient objects.">
<polygon fill="white" stroke="black" points="1196,-237.465 1196,-258.465 1312,-258.465 1312,-237.465 1196,-237.465"/>
<text text-anchor="middle" x="1254" y="-245.465" font-family="FreeSans.ttf" font-size="10.00">Server::ProcessInput</text>
</a>
</g>
<!-- Node12&#45;&gt;Node13 -->
<g id="edge24" class="edge"><title>Node12&#45;&gt;Node13</title>
<path fill="none" stroke="midnightblue" d="M1133.36,-273.292C1156.24,-268.489 1182.02,-263.078 1203.85,-258.493"/>
<polygon fill="midnightblue" stroke="midnightblue" points="1132.49,-269.9 1123.42,-275.38 1133.92,-276.75 1132.49,-269.9"/>
</g>
<!-- Node13&#45;&gt;Node10 -->
<g id="edge26" class="edge"><title>Node13&#45;&gt;Node10</title>
<path fill="none" stroke="midnightblue" d="M1307.09,-234.918C1349.2,-223.936 1409.2,-206.862 1460,-186.965 1481.76,-178.443 1505.63,-166.29 1521.78,-157.621"/>
<polygon fill="midnightblue" stroke="midnightblue" points="1306.13,-231.551 1297.33,-237.44 1307.89,-238.328 1306.13,-231.551"/>
</g>
<!-- Node14&#45;&gt;Node5 -->
<g id="edge32" class="edge"><title>Node14&#45;&gt;Node5</title>
<path fill="none" stroke="midnightblue" d="M802.245,-411.041C792.756,-410.525 783.171,-409.89 773.97,-409.164"/>
<polygon fill="midnightblue" stroke="midnightblue" points="802.318,-414.549 812.48,-411.552 802.667,-407.558 802.318,-414.549"/>
</g>
<!-- Node15&#45;&gt;Node5 -->
<g id="edge36" class="edge"><title>Node15&#45;&gt;Node5</title>
<path fill="none" stroke="midnightblue" d="M847.273,-259.112C834.766,-262.652 820.97,-267.377 810,-274.965 765.419,-305.804 733.249,-363.6 719.463,-388.119"/>
<polygon fill="midnightblue" stroke="midnightblue" points="848.21,-262.484 856.949,-256.494 846.381,-255.727 848.21,-262.484"/>
</g>
<!-- Node16&#45;&gt;Node5 -->
<g id="edge40" class="edge"><title>Node16&#45;&gt;Node5</title>
<path fill="none" stroke="midnightblue" d="M823.204,-444.229C790.483,-433.587 751.809,-419.384 729.767,-409.506"/>
<polygon fill="midnightblue" stroke="midnightblue" points="822.551,-447.695 833.142,-447.408 824.684,-441.027 822.551,-447.695"/>
</g>
<!-- Node17&#45;&gt;Node5 -->
<g id="edge44" class="edge"><title>Node17&#45;&gt;Node5</title>
<path fill="none" stroke="midnightblue" d="M841.224,-381.853C821.185,-386.324 796.432,-390.953 773.97,-394.496"/>
<polygon fill="midnightblue" stroke="midnightblue" points="842.283,-385.201 851.236,-379.536 840.704,-378.381 842.283,-385.201"/>
</g>
<!-- Node19 -->
<g id="node44" class="node"><title>Node19</title>
<a xlink:href="namespaceHandler.xhtml#a093ad11406855ab2a6ca197bc2db42b7" target="_top" xlink:title="Main account menu for all account actions.">
<polygon fill="white" stroke="black" points="320.5,-311.465 320.5,-332.465 445.5,-332.465 445.5,-311.465 320.5,-311.465"/>
<text text-anchor="middle" x="383" y="-319.465" font-family="FreeSans.ttf" font-size="10.00">Handler::AccountMenu</text>
</a>
</g>
<!-- Node18&#45;&gt;Node19 -->
<g id="edge50" class="edge"><title>Node18&#45;&gt;Node19</title>
<path fill="none" stroke="midnightblue" d="M294.375,-315.222C303.081,-315.192 311.847,-315.257 320.3,-315.419"/>
<polygon fill="midnightblue" stroke="midnightblue" points="294.175,-311.723 284.203,-315.302 294.23,-318.723 294.175,-311.723"/>
</g>
<!-- Node19&#45;&gt;Node4 -->
<g id="edge54" class="edge"><title>Node19&#45;&gt;Node4</title>
<path fill="none" stroke="midnightblue" d="M434.288,-336.207C438.342,-337.943 442.297,-339.859 446,-341.965 464.609,-352.546 463.687,-362.879 482,-373.965 491.538,-379.739 502.635,-384.567 512.977,-388.392"/>
<polygon fill="midnightblue" stroke="midnightblue" points="435.305,-332.847 424.717,-332.476 432.763,-339.369 435.305,-332.847"/>
</g>
<!-- Node19&#45;&gt;Node6 -->
<g id="edge52" class="edge"><title>Node19&#45;&gt;Node6</title>
<path fill="none" stroke="midnightblue" d="M455.81,-316.702C558.082,-309.308 741.674,-296.037 830.341,-289.627"/>
<polygon fill="midnightblue" stroke="midnightblue" points="455.289,-313.23 445.568,-317.442 455.794,-320.212 455.289,-313.23"/>
</g>
<!-- Node19&#45;&gt;Node18 -->
<g id="edge56" class="edge"><title>Node19&#45;&gt;Node18</title>
<path fill="none" stroke="midnightblue" d="M310.255,-328.657C301.615,-328.743 292.807,-328.733 284.203,-328.628"/>
<polygon fill="midnightblue" stroke="midnightblue" points="310.351,-332.156 320.3,-328.511 310.25,-325.156 310.351,-332.156"/>
</g>
<!-- Node19&#45;&gt;Node20 -->
<g id="edge58" class="edge"><title>Node19&#45;&gt;Node20</title>
<path fill="none" stroke="midnightblue" d="M452.615,-340C470.772,-363.203 456.234,-387.646 482,-409.965 493.403,-419.842 509.569,-424.842 523.048,-428.445"/>
<polygon fill="midnightblue" stroke="midnightblue" points="454.913,-337.337 445.479,-332.514 449.846,-342.167 454.913,-337.337"/>
</g>
<!-- Node20&#45;&gt;Node19 -->
<g id="edge60" class="edge"><title>Node20&#45;&gt;Node19</title>
<path fill="none" stroke="midnightblue" d="M480.373,-425.185C456.55,-398.76 472.062,-373.843 446,-350.965 434.875,-341.199 418.965,-336.197 405.917,-332.486"/>
<polygon fill="midnightblue" stroke="midnightblue" points="478.131,-427.885 487.76,-432.305 482.989,-422.845 478.131,-427.885"/>
</g>
<!-- Node22 -->
<g id="node59" class="node"><title>Node22</title>
<a xlink:href="classServer.xhtml#a9b7082bbc9faca6eb84180f856116762" target="_top" xlink:title="Perform a clean shutdown of the NAMS Server providing a chance to complete disk writes and free all m...">
<polygon fill="white" stroke="black" points="1203.5,-40.4649 1203.5,-61.4649 1304.5,-61.4649 1304.5,-40.4649 1203.5,-40.4649"/>
<text text-anchor="middle" x="1254" y="-48.4649" font-family="FreeSans.ttf" font-size="10.00">Server::Shutdown</text>
</a>
</g>
<!-- Node21&#45;&gt;Node22 -->
<g id="edge74" class="edge"><title>Node21&#45;&gt;Node22</title>
<path fill="none" stroke="midnightblue" d="M774.088,-50.9649C882.372,-50.9649 1103.71,-50.9649 1203.37,-50.9649"/>
<polygon fill="midnightblue" stroke="midnightblue" points="773.969,-47.465 763.969,-50.9649 773.969,-54.465 773.969,-47.465"/>
</g>
<!-- Node22&#45;&gt;Node10 -->
<g id="edge82" class="edge"><title>Node22&#45;&gt;Node10</title>
<path fill="none" stroke="midnightblue" d="M1290.63,-65.2344C1308.46,-72.0443 1330.26,-80.1691 1350,-86.9649 1403.73,-105.464 1466.74,-124.808 1505.26,-136.371"/>
<polygon fill="midnightblue" stroke="midnightblue" points="1291.76,-61.9194 1281.17,-61.6033 1289.25,-68.4545 1291.76,-61.9194"/>
</g>
<!-- Node22&#45;&gt;Node11 -->
<g id="edge76" class="edge"><title>Node22&#45;&gt;Node11</title>
<path fill="none" stroke="midnightblue" d="M1305.46,-38.216C1319.79,-35.222 1335.42,-32.4677 1350,-30.9649 1454.67,-20.1772 1483.88,-24.5881 1586,-49.9649 1598.32,-53.0252 1611.72,-57.6606 1622.44,-61.6985"/>
<polygon fill="midnightblue" stroke="midnightblue" points="1304.32,-34.8815 1295.29,-40.424 1305.81,-41.7221 1304.32,-34.8815"/>
</g>
<!-- Node23 -->
<g id="node62" class="node"><title>Node23</title>
<a xlink:href="classServer.xhtml#a19a1e493e1fb50a56d9c77332543d565" target="_top" xlink:title="Start the NAMS Server. Responsible for calling all critical boot&#45;time functions such as SocketServer ...">
<polygon fill="white" stroke="black" points="1496,-59.4649 1496,-80.4649 1586,-80.4649 1586,-59.4649 1496,-59.4649"/>
<text text-anchor="middle" x="1541" y="-67.4649" font-family="FreeSans.ttf" font-size="10.00">Server::Startup</text>
</a>
</g>
<!-- Node22&#45;&gt;Node23 -->
<g id="edge78" class="edge"><title>Node22&#45;&gt;Node23</title>
<path fill="none" stroke="midnightblue" d="M1305.46,-63.7139C1319.79,-66.7079 1335.42,-69.4622 1350,-70.9649 1398.63,-75.9769 1411.11,-71.2667 1460,-70.9649 1471.53,-70.8937 1483.99,-70.7656 1495.59,-70.6242"/>
<polygon fill="midnightblue" stroke="midnightblue" points="1305.81,-60.2077 1295.29,-61.5059 1304.32,-67.0483 1305.81,-60.2077"/>
</g>
<!-- Node24 -->
<g id="node66" class="node"><title>Node24</title>
<a xlink:href="classSocketServer.xhtml#a72918e73dd56b8986a15678c2cfb5a48" target="_top" xlink:title="Build a socket for a server and set all attributes.">
<polygon fill="white" stroke="black" points="1351.5,-40.4649 1351.5,-61.4649 1458.5,-61.4649 1458.5,-40.4649 1351.5,-40.4649"/>
<text text-anchor="middle" x="1405" y="-48.4649" font-family="FreeSans.ttf" font-size="10.00">SocketServer::New</text>
</a>
</g>
<!-- Node22&#45;&gt;Node24 -->
<g id="edge84" class="edge"><title>Node22&#45;&gt;Node24</title>
<path fill="none" stroke="midnightblue" d="M1314.72,-50.9649C1326.83,-50.9649 1339.48,-50.9649 1351.33,-50.9649"/>
<polygon fill="midnightblue" stroke="midnightblue" points="1314.7,-47.465 1304.7,-50.9649 1314.7,-54.465 1314.7,-47.465"/>
</g>
<!-- Node23&#45;&gt;Node11 -->
<g id="edge80" class="edge"><title>Node23&#45;&gt;Node11</title>
<path fill="none" stroke="midnightblue" d="M1596.2,-69.9649C1605.56,-69.9649 1614.73,-69.9649 1622.43,-69.9649"/>
<polygon fill="midnightblue" stroke="midnightblue" points="1596.04,-66.465 1586.04,-69.9649 1596.04,-73.465 1596.04,-66.465"/>
</g>
<!-- Node24&#45;&gt;Node23 -->
<g id="edge86" class="edge"><title>Node24&#45;&gt;Node23</title>
<path fill="none" stroke="midnightblue" d="M1468.68,-59.8612C1477.9,-61.1489 1487.22,-62.4514 1495.97,-63.6737"/>
<polygon fill="midnightblue" stroke="midnightblue" points="1469.14,-56.3916 1458.75,-58.4742 1468.17,-63.3243 1469.14,-56.3916"/>
</g>
<!-- Node25&#45;&gt;Node8 -->
<g id="edge96" class="edge"><title>Node25&#45;&gt;Node8</title>
<path fill="none" stroke="midnightblue" d="M1115.03,-215.263C1147.53,-204.671 1191.84,-190.226 1221.62,-180.521"/>
<polygon fill="midnightblue" stroke="midnightblue" points="1113.78,-211.99 1105.36,-218.417 1115.95,-218.645 1113.78,-211.99"/>
</g>
<!-- Node25&#45;&gt;Node9 -->
<g id="edge92" class="edge"><title>Node25&#45;&gt;Node9</title>
<path fill="none" stroke="midnightblue" d="M1140.29,-219.68C1188.78,-212.599 1255.68,-202.03 1314,-189.965 1331.23,-186.4 1350.12,-181.749 1366.2,-177.563"/>
<polygon fill="midnightblue" stroke="midnightblue" points="1139.62,-216.24 1130.23,-221.138 1140.63,-223.168 1139.62,-216.24"/>
</g>
<!-- Node25&#45;&gt;Node13 -->
<g id="edge94" class="edge"><title>Node25&#45;&gt;Node13</title>
<path fill="none" stroke="midnightblue" d="M1140.26,-236.025C1158.52,-237.942 1178.14,-240.002 1195.86,-241.862"/>
<polygon fill="midnightblue" stroke="midnightblue" points="1140.58,-232.54 1130.27,-234.977 1139.85,-239.502 1140.58,-232.54"/>
</g>
<!-- Node26&#45;&gt;Node20 -->
<g id="edge102" class="edge"><title>Node26&#45;&gt;Node20</title>
<path fill="none" stroke="midnightblue" d="M444.434,-439.593C458.599,-439.507 473.652,-439.416 487.766,-439.33"/>
<polygon fill="midnightblue" stroke="midnightblue" points="444.281,-436.093 434.303,-439.654 444.324,-443.093 444.281,-436.093"/>
</g>
<!-- Node27&#45;&gt;Node7 -->
<g id="edge106" class="edge"><title>Node27&#45;&gt;Node7</title>
<path fill="none" stroke="midnightblue" d="M599.209,-141.74C615.362,-145.303 633.339,-148.789 650,-150.965 783.044,-168.337 941.37,-171.105 1021.32,-171.262"/>
<polygon fill="midnightblue" stroke="midnightblue" points="599.942,-138.317 589.416,-139.523 598.396,-145.145 599.942,-138.317"/>
</g>
<!-- Node29 -->
<g id="node84" class="node"><title>Node29</title>
<a xlink:href="namespaceTelopt.xhtml#acb81c2e75d328c24352dd8ef356b84d8" target="_top" xlink:title="Begins a telnet negotiation handshake for requested options.">
<polygon fill="white" stroke="black" points="496,-158.465 496,-179.465 600,-179.465 600,-158.465 496,-158.465"/>
<text text-anchor="middle" x="548" y="-166.465" font-family="FreeSans.ttf" font-size="10.00">Telopt::Handshake</text>
</a>
</g>
<!-- Node28&#45;&gt;Node29 -->
<g id="edge110" class="edge"><title>Node28&#45;&gt;Node29</title>
<path fill="none" stroke="midnightblue" d="M261.423,-195.842C279.663,-192.259 300.73,-188.493 320,-185.965 380.018,-178.091 449.439,-173.565 495.762,-171.193"/>
<polygon fill="midnightblue" stroke="midnightblue" points="260.729,-192.412 251.61,-197.806 262.103,-199.276 260.729,-192.412"/>
</g>
<!-- Node32 -->
<g id="node91" class="node"><title>Node32</title>
<a xlink:href="namespaceTelopt.xhtml#a71c731d78947d4c909f93df74950b64c" target="_top" xlink:title="Negotiate requested options.">
<polygon fill="white" stroke="black" points="334,-195.465 334,-216.465 432,-216.465 432,-195.465 334,-195.465"/>
<text text-anchor="middle" x="383" y="-203.465" font-family="FreeSans.ttf" font-size="10.00">Telopt::Negotiate</text>
</a>
</g>
<!-- Node28&#45;&gt;Node32 -->
<g id="edge118" class="edge"><title>Node28&#45;&gt;Node32</title>
<path fill="none" stroke="midnightblue" d="M261.523,-205.965C284.06,-205.965 310.968,-205.965 333.724,-205.965"/>
<polygon fill="midnightblue" stroke="midnightblue" points="261.507,-202.465 251.507,-205.965 261.507,-209.465 261.507,-202.465"/>
</g>
<!-- Node30 -->
<g id="node86" class="node"><title>Node30</title>
<a xlink:href="namespaceTelopt.xhtml#abdb8913fd8eb65e47c6035240d9a291f" target="_top" xlink:title="Processes data received from a SocketClient for telnet sequences.">
<polygon fill="white" stroke="black" points="656,-120.465 656,-141.465 768,-141.465 768,-120.465 656,-120.465"/>
<text text-anchor="middle" x="712" y="-128.465" font-family="FreeSans.ttf" font-size="10.00">Telopt::ProcessInput</text>
</a>
</g>
<!-- Node29&#45;&gt;Node30 -->
<g id="edge112" class="edge"><title>Node29&#45;&gt;Node30</title>
<path fill="none" stroke="midnightblue" d="M603.531,-156.098C624.048,-151.344 647.043,-146.016 666.562,-141.493"/>
<polygon fill="midnightblue" stroke="midnightblue" points="602.635,-152.713 593.683,-158.38 604.215,-159.532 602.635,-152.713"/>
</g>
<!-- Node31 -->
<g id="node88" class="node"><title>Node31</title>
<a xlink:href="classSocketClient.xhtml#a9ee09f452d900e288b2aa187561ef05d" target="_top" xlink:title="Receive data from the client and append it to a receive buffer.">
<polygon fill="white" stroke="black" points="1021,-120.465 1021,-141.465 1125,-141.465 1125,-120.465 1021,-120.465"/>
<text text-anchor="middle" x="1073" y="-128.465" font-family="FreeSans.ttf" font-size="10.00">SocketClient::Recv</text>
</a>
</g>
<!-- Node30&#45;&gt;Node31 -->
<g id="edge114" class="edge"><title>Node30&#45;&gt;Node31</title>
<path fill="none" stroke="midnightblue" d="M778.033,-130.965C847.95,-130.965 956.879,-130.965 1020.96,-130.965"/>
<polygon fill="midnightblue" stroke="midnightblue" points="778.01,-127.465 768.01,-130.965 778.01,-134.465 778.01,-127.465"/>
</g>
<!-- Node31&#45;&gt;Node9 -->
<g id="edge116" class="edge"><title>Node31&#45;&gt;Node9</title>
<path fill="none" stroke="midnightblue" d="M1135.43,-134.066C1184.2,-136.928 1253.6,-141.965 1314,-149.965 1326.91,-151.674 1340.75,-154.004 1353.66,-156.39"/>
<polygon fill="midnightblue" stroke="midnightblue" points="1135.53,-130.567 1125.35,-133.489 1135.13,-137.555 1135.53,-130.567"/>
</g>
<!-- Node32&#45;&gt;Node4 -->
<g id="edge120" class="edge"><title>Node32&#45;&gt;Node4</title>
<path fill="none" stroke="midnightblue" d="M396.103,-225.061C414.269,-251.075 448.648,-298.678 482,-335.965 499.531,-355.564 522.077,-376.235 535.764,-388.347"/>
<polygon fill="midnightblue" stroke="midnightblue" points="398.75,-222.737 390.176,-216.513 392.998,-226.725 398.75,-222.737"/>
</g>
<!-- Node32&#45;&gt;Node15 -->
<g id="edge122" class="edge"><title>Node32&#45;&gt;Node15</title>
<path fill="none" stroke="midnightblue" d="M442.572,-208.744C519.317,-212.595 656.799,-220.413 774,-231.965 785.653,-233.114 797.993,-234.536 809.991,-236.03"/>
<polygon fill="midnightblue" stroke="midnightblue" points="442.315,-205.227 432.154,-208.227 441.968,-212.218 442.315,-205.227"/>
</g>
<!-- Node32&#45;&gt;Node16 -->
<g id="edge124" class="edge"><title>Node32&#45;&gt;Node16</title>
<path fill="none" stroke="midnightblue" d="M407.785,-222.161C451.449,-251.197 544.075,-315.067 614,-378.965 631.656,-395.099 629.04,-407.443 650,-418.965 699.898,-446.394 764.306,-455.487 812.43,-458.095"/>
<polygon fill="midnightblue" stroke="midnightblue" points="409.508,-219.104 399.236,-216.506 405.646,-224.942 409.508,-219.104"/>
</g>
<!-- Node32&#45;&gt;Node27 -->
<g id="edge126" class="edge"><title>Node32&#45;&gt;Node27</title>
<path fill="none" stroke="midnightblue" d="M407.45,-189.778C427.003,-177.361 455.444,-160.454 482,-148.965 490.241,-145.399 499.319,-142.206 508.035,-139.474"/>
<polygon fill="midnightblue" stroke="midnightblue" points="405.385,-186.945 398.872,-195.301 409.175,-192.831 405.385,-186.945"/>
</g>
<!-- Node32&#45;&gt;Node29 -->
<g id="edge128" class="edge"><title>Node32&#45;&gt;Node29</title>
<path fill="none" stroke="midnightblue" d="M439.751,-193.239C459.734,-188.758 481.957,-183.775 501.042,-179.495"/>
<polygon fill="midnightblue" stroke="midnightblue" points="438.833,-189.858 429.841,-195.461 440.365,-196.688 438.833,-189.858"/>
</g>
</g>
</svg>
        <g id="navigator" transform="translate(0 0)" fill="#404254">
                <rect fill="#f2f5e9" fill-opacity="0.5" stroke="#606060" stroke-width=".5" x="0" y="0" width="60" height="60"/>
                <use id="zoomplus" xlink:href="#zoomPlus" x="17" y="9" onmousedown="handleZoom(evt,'in')"/>
                <use id="zoomminus" xlink:href="#zoomMin" x="42" y="9" onmousedown="handleZoom(evt,'out')"/>
                <use id="reset" xlink:href="#resetDef" x="30" y="36" onmousedown="handleReset()"/>
                <g id="arrowUp" xlink:href="#dirArrow" transform="translate(30 24)" onmousedown="handlePan(0,-1)">
                  <use xlink:href="#rim" fill="#404040">
                        <set attributeName="fill" to="#808080" begin="arrowUp.mouseover" end="arrowUp.mouseout"/>
                  </use>
                  <path fill="none" stroke="white" stroke-width="1.5" d="M0,-3.0v7 M-2.5,-0.5L0,-3.0L2.5,-0.5"/>
                </g>
                <g id="arrowRight" xlink:href="#dirArrow" transform="rotate(90) translate(36 -43)" onmousedown="handlePan(1,0)">
                  <use xlink:href="#rim" fill="#404040">
                        <set attributeName="fill" to="#808080" begin="arrowRight.mouseover" end="arrowRight.mouseout"/>
                  </use>
                  <path fill="none" stroke="white" stroke-width="1.5" d="M0,-3.0v7 M-2.5,-0.5L0,-3.0L2.5,-0.5"/>
                </g>
                <g id="arrowDown" xlink:href="#dirArrow" transform="rotate(180) translate(-30 -48)" onmousedown="handlePan(0,1)">
                  <use xlink:href="#rim" fill="#404040">
                        <set attributeName="fill" to="#808080" begin="arrowDown.mouseover" end="arrowDown.mouseout"/>
                  </use>
                  <path fill="none" stroke="white" stroke-width="1.5" d="M0,-3.0v7 M-2.5,-0.5L0,-3.0L2.5,-0.5"/>
                </g>
                <g id="arrowLeft" xlink:href="#dirArrow" transform="rotate(270) translate(-36 17)" onmousedown="handlePan(-1,0)">
                  <use xlink:href="#rim" fill="#404040">
                        <set attributeName="fill" to="#808080" begin="arrowLeft.mouseover" end="arrowLeft.mouseout"/>
                  </use>
                  <path fill="none" stroke="white" stroke-width="1.5" d="M0,-3.0v7 M-2.5,-0.5L0,-3.0L2.5,-0.5"/>
                </g>
        </g>
</svg>
