<?xml version="1.0" encoding="UTF-8" standalone="no"?>
<!DOCTYPE svg PUBLIC "-//W3C//DTD SVG 1.1//EN"
 "http://www.w3.org/Graphics/SVG/1.1/DTD/svg11.dtd">
<!-- Generated by graphviz version 2.26.3 (20100126.1600)
 -->
<!-- Title: G Pages: 1 -->
<!--zoomable 588 -->
<svg id="main" version="1.1" xmlns="http://www.w3.org/2000/svg" xmlns:xlink="http://www.w3.org/1999/xlink" xml:space="preserve" onload="init(evt)">
        <defs>
                <circle id="rim" cx="0" cy="0" r="7"/>
                <circle id="rim2" cx="0" cy="0" r="3.5"/>
                <g id="zoomPlus">
                        <use xlink:href="#rim" fill="#404040">
                                <set attributeName="fill" to="#808080" begin="zoomplus.mouseover" end="zoomplus.mouseout"/>
                        </use>
                        <path d="M-4,0h8M0,-4v8" fill="none" stroke="white" stroke-width="1.5" pointer-events="none"/>
                </g>
                <g id="zoomMin">
                        <use xlink:href="#rim" fill="#404040">
                                <set attributeName="fill" to="#808080" begin="zoomminus.mouseover" end="zoomminus.mouseout"/>
                        </use>
                        <path d="M-4,0h8" fill="none" stroke="white" stroke-width="1.5" pointer-events="none"/>
                </g>
                <g id="dirArrow">
                        <path fill="none" stroke="white" stroke-width="1.5" d="M0,-3.0v7 M-2.5,-0.5L0,-3.0L2.5,-0.5"/>
                </g>
               <g id="resetDef">
                       <use xlink:href="#rim2" fill="#404040">
                               <set attributeName="fill" to="#808080" begin="reset.mouseover" end="reset.mouseout"/>
                       </use>
               </g>
        </defs>

<script type="text/javascript">
var viewWidth = 1424;
var viewHeight = 588;
var sectionId = 'dynsection-5';
</script>
<script xlink:href="svgpan.js"/>
<svg id="graph" class="graph">
<g id="viewport">
<title>G</title>
<polygon fill="white" stroke="white" points="-4,5 -4,-584 1421,-584 1421,5 -4,5"/>
<!-- Node1 -->
<g id="node1" class="node"><title>Node1</title>
<polygon fill="#bfbfbf" stroke="black" points="0,-199.5 0,-220.5 90,-220.5 90,-199.5 0,-199.5"/>
<text text-anchor="middle" x="45" y="-207.5" font-family="FreeSans.ttf" font-size="10.00">Server::gConfig</text>
</g>
<!-- Node2 -->
<g id="node3" class="node"><title>Node2</title>
<a xlink:href="namespaceHandler.xhtml#a934fb4c3d6add91bc9e6e347b3270927" target="_top" xlink:title="Checks to see if a name is on the server&#39;s prohibited list.">
<polygon fill="white" stroke="black" points="126.5,-199.5 126.5,-220.5 263.5,-220.5 263.5,-199.5 126.5,-199.5"/>
<text text-anchor="middle" x="195" y="-207.5" font-family="FreeSans.ttf" font-size="10.00">Handler::CheckProhibited</text>
</a>
</g>
<!-- Node1&#45;&gt;Node2 -->
<g id="edge2" class="edge"><title>Node1&#45;&gt;Node2</title>
<path fill="none" stroke="midnightblue" d="M100.206,-210C108.747,-210 117.656,-210 126.446,-210"/>
<polygon fill="midnightblue" stroke="midnightblue" points="100.005,-206.5 90.0049,-210 100.005,-213.5 100.005,-206.5"/>
</g>
<!-- Node3 -->
<g id="node5" class="node"><title>Node3</title>
<a xlink:href="namespaceHandler.xhtml#ab5889a65de2794129b375ec39ae923ae" target="_top" xlink:title="Select a new Character name.">
<polygon fill="white" stroke="black" points="300.5,-278.5 300.5,-299.5 469.5,-299.5 469.5,-278.5 300.5,-278.5"/>
<text text-anchor="middle" x="385" y="-286.5" font-family="FreeSans.ttf" font-size="10.00">Handler::CharacterCreateName</text>
</a>
</g>
<!-- Node2&#45;&gt;Node3 -->
<g id="edge4" class="edge"><title>Node2&#45;&gt;Node3</title>
<path fill="none" stroke="midnightblue" d="M230.142,-224.612C267.645,-240.205 326.15,-264.531 359.479,-278.389"/>
<polygon fill="midnightblue" stroke="midnightblue" points="231.202,-221.262 220.624,-220.654 228.514,-227.725 231.202,-221.262"/>
</g>
<!-- Node17 -->
<g id="node46" class="node"><title>Node17</title>
<a xlink:href="namespaceHandler.xhtml#a44b41bf69fdc6e615a029bea34910191" target="_top" xlink:title="Send initial greeting and request for account name.">
<polygon fill="white" stroke="black" points="700.5,-0.5 700.5,-21.5 819.5,-21.5 819.5,-0.5 700.5,-0.5"/>
<text text-anchor="middle" x="760" y="-8.5" font-family="FreeSans.ttf" font-size="10.00">Handler::LoginScreen</text>
</a>
</g>
<!-- Node2&#45;&gt;Node17 -->
<g id="edge84" class="edge"><title>Node2&#45;&gt;Node17</title>
<path fill="none" stroke="midnightblue" d="M232.897,-195.884C312.698,-166.275 504.048,-95.8793 666,-41 685.794,-34.2927 708.07,-27.165 725.967,-21.5408"/>
<polygon fill="midnightblue" stroke="midnightblue" points="231.437,-192.693 223.281,-199.455 233.874,-199.255 231.437,-192.693"/>
</g>
<!-- Node4 -->
<g id="node7" class="node"><title>Node4</title>
<a xlink:href="namespaceHandler.xhtml#a139febc000c9d767a620708148e0c888" target="_top" xlink:title="Dispatches the appropriate menu based on client state.">
<polygon fill="white" stroke="black" points="506.5,-278.5 506.5,-299.5 629.5,-299.5 629.5,-278.5 506.5,-278.5"/>
<text text-anchor="middle" x="568" y="-286.5" font-family="FreeSans.ttf" font-size="10.00">Handler::LoginHandler</text>
</a>
</g>
<!-- Node3&#45;&gt;Node4 -->
<g id="edge6" class="edge"><title>Node3&#45;&gt;Node4</title>
<path fill="none" stroke="midnightblue" d="M479.774,-282.254C488.842,-282.275 497.867,-282.385 506.492,-282.583"/>
<polygon fill="midnightblue" stroke="midnightblue" points="479.532,-278.754 469.536,-282.267 479.541,-285.754 479.532,-278.754"/>
</g>
<!-- Node4&#45;&gt;Node3 -->
<g id="edge24" class="edge"><title>Node4&#45;&gt;Node3</title>
<path fill="none" stroke="midnightblue" d="M496.316,-295.607C487.531,-295.736 478.489,-295.777 469.536,-295.733"/>
<polygon fill="midnightblue" stroke="midnightblue" points="496.559,-299.103 506.492,-295.417 496.428,-292.105 496.559,-299.103"/>
</g>
<!-- Node5 -->
<g id="node9" class="node"><title>Node5</title>
<a xlink:href="namespaceHandler.xhtml#a33a19d69ead678af81fbe96907eceaf0" target="_top" xlink:title="Create a new account object, or load an existing one, with a name and password.">
<polygon fill="white" stroke="black" points="694.5,-558.5 694.5,-579.5 825.5,-579.5 825.5,-558.5 694.5,-558.5"/>
<text text-anchor="middle" x="760" y="-566.5" font-family="FreeSans.ttf" font-size="10.00">Handler::AttachAccount</text>
</a>
</g>
<!-- Node4&#45;&gt;Node5 -->
<g id="edge8" class="edge"><title>Node4&#45;&gt;Node5</title>
<path fill="none" stroke="midnightblue" d="M569.789,-309.837C574.891,-358.38 594.2,-478.287 666,-540 677.388,-549.788 692.387,-555.166 707.05,-558.415"/>
<polygon fill="midnightblue" stroke="midnightblue" points="573.248,-309.229 568.817,-299.605 566.279,-309.892 573.248,-309.229"/>
</g>
<!-- Node6 -->
<g id="node12" class="node"><title>Node6</title>
<a xlink:href="namespaceHandler.xhtml#a2e4ebf6ed049eb872aa4948d54c4932c" target="_top" xlink:title="Attempt to write a new character to disk after creation was completed.">
<polygon fill="white" stroke="black" points="690.5,-518.5 690.5,-539.5 829.5,-539.5 829.5,-518.5 690.5,-518.5"/>
<text text-anchor="middle" x="760" y="-526.5" font-family="FreeSans.ttf" font-size="10.00">Handler::AttachCharacter</text>
</a>
</g>
<!-- Node4&#45;&gt;Node6 -->
<g id="edge12" class="edge"><title>Node4&#45;&gt;Node6</title>
<path fill="none" stroke="midnightblue" d="M571.809,-309.715C580.062,-352.547 604.105,-449.878 666,-500 678.188,-509.87 694.1,-515.188 709.356,-518.412"/>
<polygon fill="midnightblue" stroke="midnightblue" points="575.203,-308.817 569.959,-299.61 568.318,-310.077 575.203,-308.817"/>
</g>
<!-- Node7 -->
<g id="node15" class="node"><title>Node7</title>
<a xlink:href="namespaceHandler.xhtml#a73ed6064f2698dbffb5f4c247a02b661" target="_top" xlink:title="Send initial account interface menu.">
<polygon fill="white" stroke="black" points="686,-478.5 686,-499.5 834,-499.5 834,-478.5 686,-478.5"/>
<text text-anchor="middle" x="760" y="-486.5" font-family="FreeSans.ttf" font-size="10.00">Handler::AccountMenuMain</text>
</a>
</g>
<!-- Node4&#45;&gt;Node7 -->
<g id="edge16" class="edge"><title>Node4&#45;&gt;Node7</title>
<path fill="none" stroke="midnightblue" d="M574.641,-309.387C586.174,-345.863 613.825,-421.078 666,-460 679.373,-469.977 696.642,-475.211 712.722,-478.422"/>
<polygon fill="midnightblue" stroke="midnightblue" points="577.974,-308.319 571.689,-299.79 571.284,-310.377 577.974,-308.319"/>
</g>
<!-- Node8 -->
<g id="node18" class="node"><title>Node8</title>
<a xlink:href="namespaceHandler.xhtml#ad04998a7a6ece2486bc441052a57c2d7" target="_top" xlink:title="Main Character creation menu.">
<polygon fill="white" stroke="black" points="666,-438.5 666,-459.5 854,-459.5 854,-438.5 666,-438.5"/>
<text text-anchor="middle" x="760" y="-446.5" font-family="FreeSans.ttf" font-size="10.00">Handler::CharacterCreateMenuMain</text>
</a>
</g>
<!-- Node4&#45;&gt;Node8 -->
<g id="edge20" class="edge"><title>Node4&#45;&gt;Node8</title>
<path fill="none" stroke="midnightblue" d="M579.051,-309.086C593.925,-338.469 623.513,-391.868 666,-420 681.164,-430.04 700.456,-435.156 717.612,-438.416"/>
<polygon fill="midnightblue" stroke="midnightblue" points="582.003,-307.162 574.407,-299.775 575.739,-310.286 582.003,-307.162"/>
</g>
<!-- Node9 -->
<g id="node22" class="node"><title>Node9</title>
<a xlink:href="namespaceHandler.xhtml#ae5086bcf5857eb572beedd09158c3065" target="_top" xlink:title="Select a new Character sex.">
<polygon fill="white" stroke="black" points="681,-398.5 681,-419.5 839,-419.5 839,-398.5 681,-398.5"/>
<text text-anchor="middle" x="760" y="-406.5" font-family="FreeSans.ttf" font-size="10.00">Handler::CharacterCreateSex</text>
</a>
</g>
<!-- Node4&#45;&gt;Node9 -->
<g id="edge26" class="edge"><title>Node4&#45;&gt;Node9</title>
<path fill="none" stroke="midnightblue" d="M585.879,-307.426C603.55,-328.487 632.713,-361.704 666,-380 683.985,-389.885 706.387,-394.888 724.81,-398.417"/>
<polygon fill="midnightblue" stroke="midnightblue" points="588.561,-305.179 579.466,-299.746 583.188,-309.665 588.561,-305.179"/>
</g>
<!-- Node10 -->
<g id="node25" class="node"><title>Node10</title>
<a xlink:href="namespaceHandler.xhtml#a97a198bfc72285b2aca4f36978db715e" target="_top" xlink:title="Main Character deletion confirmation.">
<polygon fill="white" stroke="black" points="672,-358.5 672,-379.5 848,-379.5 848,-358.5 672,-358.5"/>
<text text-anchor="middle" x="760" y="-366.5" font-family="FreeSans.ttf" font-size="10.00">Handler::CharacterDeleteConfirm</text>
</a>
</g>
<!-- Node4&#45;&gt;Node10 -->
<g id="edge30" class="edge"><title>Node4&#45;&gt;Node10</title>
<path fill="none" stroke="midnightblue" d="M600.699,-304.952C619.079,-316.331 642.91,-330.791 666,-340 688.162,-348.839 714.895,-354.044 734.178,-358.485"/>
<polygon fill="midnightblue" stroke="midnightblue" points="602.486,-301.941 592.142,-299.65 598.799,-307.892 602.486,-301.941"/>
</g>
<!-- Node11 -->
<g id="node28" class="node"><title>Node11</title>
<a xlink:href="namespaceHandler.xhtml#afc470ec6e82b7a9a1560588a368734f9" target="_top" xlink:title="Main Character deletion menu.">
<polygon fill="white" stroke="black" points="666,-318.5 666,-339.5 854,-339.5 854,-318.5 666,-318.5"/>
<text text-anchor="middle" x="760" y="-326.5" font-family="FreeSans.ttf" font-size="10.00">Handler::CharacterDeleteMenuMain</text>
</a>
</g>
<!-- Node4&#45;&gt;Node11 -->
<g id="edge34" class="edge"><title>Node4&#45;&gt;Node11</title>
<path fill="none" stroke="midnightblue" d="M639.487,-297.343C672.004,-303.577 708.543,-311.746 732.775,-318.447"/>
<polygon fill="midnightblue" stroke="midnightblue" points="640.017,-293.881 629.542,-295.474 638.724,-300.761 640.017,-293.881"/>
</g>
<!-- Node12 -->
<g id="node31" class="node"><title>Node12</title>
<a xlink:href="namespaceHandler.xhtml#a02b1b954749641ab646f6548a5360d3b" target="_top" xlink:title="Main Character load menu.">
<polygon fill="white" stroke="black" points="670.5,-278.5 670.5,-299.5 849.5,-299.5 849.5,-278.5 670.5,-278.5"/>
<text text-anchor="middle" x="760" y="-286.5" font-family="FreeSans.ttf" font-size="10.00">Handler::CharacterLoadMenuMain</text>
</a>
</g>
<!-- Node4&#45;&gt;Node12 -->
<g id="edge38" class="edge"><title>Node4&#45;&gt;Node12</title>
<path fill="none" stroke="midnightblue" d="M639.813,-282.444C649.818,-282.28 660.199,-282.22 670.479,-282.264"/>
<polygon fill="midnightblue" stroke="midnightblue" points="639.469,-278.95 629.542,-282.652 639.611,-285.949 639.469,-278.95"/>
</g>
<!-- Node13 -->
<g id="node34" class="node"><title>Node13</title>
<a xlink:href="namespaceHandler.xhtml#a00bc24564bfd267e0329643c569da1e4" target="_top" xlink:title="Select a new account name.">
<polygon fill="white" stroke="black" points="691.5,-238.5 691.5,-259.5 828.5,-259.5 828.5,-238.5 691.5,-238.5"/>
<text text-anchor="middle" x="760" y="-246.5" font-family="FreeSans.ttf" font-size="10.00">Handler::GetNewAccount</text>
</a>
</g>
<!-- Node4&#45;&gt;Node13 -->
<g id="edge42" class="edge"><title>Node4&#45;&gt;Node13</title>
<path fill="none" stroke="midnightblue" d="M605.022,-275.829C629.438,-269.504 662.164,-262.338 691.25,-256.821"/>
<polygon fill="midnightblue" stroke="midnightblue" points="603.859,-272.517 595.102,-278.481 605.666,-279.28 603.859,-272.517"/>
</g>
<!-- Node14 -->
<g id="node37" class="node"><title>Node14</title>
<a xlink:href="namespaceHandler.xhtml#a744adadcf407cdb3a9c33365afd5a7c2" target="_top" xlink:title="Create a new account.">
<polygon fill="white" stroke="black" points="689,-198.5 689,-219.5 831,-219.5 831,-198.5 689,-198.5"/>
<text text-anchor="middle" x="760" y="-206.5" font-family="FreeSans.ttf" font-size="10.00">Handler::GetNewPassword</text>
</a>
</g>
<!-- Node4&#45;&gt;Node14 -->
<g id="edge46" class="edge"><title>Node4&#45;&gt;Node14</title>
<path fill="none" stroke="midnightblue" d="M583.094,-271.116C601.631,-254.892 634.505,-232.562 666,-220 673.284,-217.095 681.062,-214.582 688.906,-212.472"/>
<polygon fill="midnightblue" stroke="midnightblue" points="580.556,-268.697 575.641,-278.084 585.336,-273.811 580.556,-268.697"/>
</g>
<!-- Node15 -->
<g id="node40" class="node"><title>Node15</title>
<a xlink:href="namespaceHandler.xhtml#adfe13cc9748392348f3941656a1323b6" target="_top" xlink:title="Compare a received password against an existing account.">
<polygon fill="white" stroke="black" points="691.5,-158.5 691.5,-179.5 828.5,-179.5 828.5,-158.5 691.5,-158.5"/>
<text text-anchor="middle" x="760" y="-166.5" font-family="FreeSans.ttf" font-size="10.00">Handler::GetOldPassword</text>
</a>
</g>
<!-- Node4&#45;&gt;Node15 -->
<g id="edge50" class="edge"><title>Node4&#45;&gt;Node15</title>
<path fill="none" stroke="midnightblue" d="M577.257,-269.719C592.844,-244.388 626.522,-201.699 666,-180 673.749,-175.741 682.319,-172.388 691.037,-169.828"/>
<polygon fill="midnightblue" stroke="midnightblue" points="574.158,-268.086 572.195,-278.498 580.222,-271.583 574.158,-268.086"/>
</g>
<!-- Node16 -->
<g id="node43" class="node"><title>Node16</title>
<a xlink:href="namespaceHandler.xhtml#ae70e4e50054c729c14493eafefe01b5c" target="_top" xlink:title="Load a character from the account to enter into the game with.">
<polygon fill="white" stroke="black" points="694.5,-118.5 694.5,-139.5 825.5,-139.5 825.5,-118.5 694.5,-118.5"/>
<text text-anchor="middle" x="760" y="-126.5" font-family="FreeSans.ttf" font-size="10.00">Handler::LoadCharacter</text>
</a>
</g>
<!-- Node4&#45;&gt;Node16 -->
<g id="edge54" class="edge"><title>Node4&#45;&gt;Node16</title>
<path fill="none" stroke="midnightblue" d="M574.015,-268.853C586.474,-235.793 618.008,-171.777 666,-140 674.486,-134.381 684.265,-130.304 694.239,-127.476"/>
<polygon fill="midnightblue" stroke="midnightblue" points="570.667,-267.824 570.643,-278.418 577.268,-270.151 570.667,-267.824"/>
</g>
<!-- Node4&#45;&gt;Node17 -->
<g id="edge58" class="edge"><title>Node4&#45;&gt;Node17</title>
<path fill="none" stroke="midnightblue" d="M574.971,-268.571C586.936,-239.03 611.848,-183.821 630,-136 648.105,-88.3023 628.875,-61.9946 666,-27 675.462,-18.0811 687.736,-12.2657 700.274,-8.73873"/>
<polygon fill="midnightblue" stroke="midnightblue" points="571.575,-267.645 571.184,-278.232 578.092,-270.199 571.575,-267.645"/>
</g>
<!-- Node18 -->
<g id="node49" class="node"><title>Node18</title>
<a xlink:href="classSocketClient.xhtml#a48c79d01b91f2c1553c3b33b26714215" target="_top" xlink:title="Build a SocketClient for a new client connection and set all attributes.">
<polygon fill="white" stroke="black" points="708.5,-78.5 708.5,-99.5 811.5,-99.5 811.5,-78.5 708.5,-78.5"/>
<text text-anchor="middle" x="760" y="-86.5" font-family="FreeSans.ttf" font-size="10.00">SocketClient::New</text>
</a>
</g>
<!-- Node4&#45;&gt;Node18 -->
<g id="edge62" class="edge"><title>Node4&#45;&gt;Node18</title>
<path fill="none" stroke="midnightblue" d="M573.038,-268.56C583.484,-230.711 611.23,-149.858 666,-109 678.17,-99.9213 693.565,-94.7699 708.355,-91.9008"/>
<polygon fill="midnightblue" stroke="midnightblue" points="569.601,-267.87 570.442,-278.431 576.371,-269.651 569.601,-267.87"/>
</g>
<!-- Node25 -->
<g id="node64" class="node"><title>Node25</title>
<a xlink:href="classSocketClient.xhtml#ad4f63c7d906310dc56a1217136047d7f" target="_top" xlink:title="Interpret the command at the front of the queue.">
<polygon fill="white" stroke="black" points="890,-38.5 890,-59.5 1060,-59.5 1060,-38.5 890,-38.5"/>
<text text-anchor="middle" x="975" y="-46.5" font-family="FreeSans.ttf" font-size="10.00">SocketClient::ProcessCommand</text>
</a>
</g>
<!-- Node4&#45;&gt;Node25 -->
<g id="edge78" class="edge"><title>Node4&#45;&gt;Node25</title>
<path fill="none" stroke="midnightblue" d="M576.688,-268.758C599.836,-214.926 661.546,-72.1007 666,-69 700.964,-44.6575 811.083,-42.7912 889.892,-44.9005"/>
<polygon fill="midnightblue" stroke="midnightblue" points="573.333,-267.701 572.601,-278.27 579.765,-270.464 573.333,-267.701"/>
</g>
<!-- Node5&#45;&gt;Node4 -->
<g id="edge10" class="edge"><title>Node5&#45;&gt;Node4</title>
<path fill="none" stroke="midnightblue" d="M684.83,-569.369C677.998,-566.516 671.567,-562.785 666,-558 583.872,-487.41 570.422,-340.676 568.356,-299.565"/>
<polygon fill="midnightblue" stroke="midnightblue" points="683.758,-572.702 694.353,-572.73 686.088,-566.101 683.758,-572.702"/>
</g>
<!-- Node6&#45;&gt;Node4 -->
<g id="edge14" class="edge"><title>Node6&#45;&gt;Node4</title>
<path fill="none" stroke="midnightblue" d="M681.045,-527.263C675.66,-524.76 670.569,-521.7 666,-518 593.863,-459.584 573.141,-337.04 568.909,-299.651"/>
<polygon fill="midnightblue" stroke="midnightblue" points="679.756,-530.517 690.341,-530.964 682.345,-524.013 679.756,-530.517"/>
</g>
<!-- Node7&#45;&gt;Node4 -->
<g id="edge18" class="edge"><title>Node7&#45;&gt;Node4</title>
<path fill="none" stroke="midnightblue" d="M676.505,-484.528C672.818,-482.623 669.291,-480.455 666,-478 603.542,-431.406 576.227,-332.803 569.636,-299.639"/>
<polygon fill="midnightblue" stroke="midnightblue" points="675.398,-487.867 685.957,-488.737 678.246,-481.472 675.398,-487.867"/>
</g>
<!-- Node8&#45;&gt;Node4 -->
<g id="edge22" class="edge"><title>Node8&#45;&gt;Node4</title>
<path fill="none" stroke="midnightblue" d="M658.111,-432.345C609.403,-395.023 579.356,-326.475 570.643,-299.582"/>
<polygon fill="midnightblue" stroke="midnightblue" points="656.246,-435.314 666.418,-438.275 660.313,-429.616 656.246,-435.314"/>
</g>
<!-- Node9&#45;&gt;Node4 -->
<g id="edge28" class="edge"><title>Node9&#45;&gt;Node4</title>
<path fill="none" stroke="midnightblue" d="M671.382,-400.755C669.551,-399.882 667.755,-398.964 666,-398 621.478,-373.529 584.333,-322.363 572.195,-299.502"/>
<polygon fill="midnightblue" stroke="midnightblue" points="670.213,-404.061 680.786,-404.749 672.95,-397.618 670.213,-404.061"/>
</g>
<!-- Node10&#45;&gt;Node4 -->
<g id="edge32" class="edge"><title>Node10&#45;&gt;Node4</title>
<path fill="none" stroke="midnightblue" d="M662.391,-356.275C624.141,-339.499 590.351,-314.842 575.641,-299.916"/>
<polygon fill="midnightblue" stroke="midnightblue" points="661.092,-359.525 671.669,-360.148 663.789,-353.066 661.092,-359.525"/>
</g>
<!-- Node11&#45;&gt;Node4 -->
<g id="edge36" class="edge"><title>Node11&#45;&gt;Node4</title>
<path fill="none" stroke="midnightblue" d="M667.29,-316.432C640.894,-310.989 614.167,-304.797 595.102,-299.519"/>
<polygon fill="midnightblue" stroke="midnightblue" points="666.877,-319.919 677.373,-318.478 668.269,-313.059 666.877,-319.919"/>
</g>
<!-- Node12&#45;&gt;Node4 -->
<g id="edge40" class="edge"><title>Node12&#45;&gt;Node4</title>
<path fill="none" stroke="midnightblue" d="M660.4,-295.746C649.888,-295.721 639.434,-295.588 629.542,-295.348"/>
<polygon fill="midnightblue" stroke="midnightblue" points="660.483,-299.246 670.479,-295.736 660.476,-292.246 660.483,-299.246"/>
</g>
<!-- Node13&#45;&gt;Node4 -->
<g id="edge44" class="edge"><title>Node13&#45;&gt;Node4</title>
<path fill="none" stroke="midnightblue" d="M722.793,-262.219C696.353,-269.061 660.238,-276.879 629.542,-282.526"/>
<polygon fill="midnightblue" stroke="midnightblue" points="724.017,-265.515 732.775,-259.553 722.21,-258.752 724.017,-265.515"/>
</g>
<!-- Node14&#45;&gt;Node4 -->
<g id="edge48" class="edge"><title>Node14&#45;&gt;Node4</title>
<path fill="none" stroke="midnightblue" d="M724.389,-221.719C706.449,-225.717 684.612,-230.577 666,-238 639.132,-248.716 611.26,-266.542 592.142,-278.35"/>
<polygon fill="midnightblue" stroke="midnightblue" points="725.191,-225.127 734.178,-219.515 723.653,-218.298 725.191,-225.127"/>
</g>
<!-- Node15&#45;&gt;Node4 -->
<g id="edge52" class="edge"><title>Node15&#45;&gt;Node4</title>
<path fill="none" stroke="midnightblue" d="M715.001,-181.55C698.817,-184.976 680.894,-189.814 666,-198 628.295,-218.724 595.881,-258.595 579.466,-278.254"/>
<polygon fill="midnightblue" stroke="midnightblue" points="715.694,-184.981 724.81,-179.583 714.317,-178.118 715.694,-184.981"/>
</g>
<!-- Node16&#45;&gt;Node4 -->
<g id="edge56" class="edge"><title>Node16&#45;&gt;Node4</title>
<path fill="none" stroke="midnightblue" d="M707.777,-141.633C693.366,-144.935 678.32,-149.842 666,-158 618.504,-189.449 587.127,-252.474 574.407,-278.225"/>
<polygon fill="midnightblue" stroke="midnightblue" points="708.536,-145.051 717.612,-139.584 707.108,-138.198 708.536,-145.051"/>
</g>
<!-- Node17&#45;&gt;Node4 -->
<g id="edge60" class="edge"><title>Node17&#45;&gt;Node4</title>
<path fill="none" stroke="midnightblue" d="M708.354,-23.8996C693.131,-27.9139 677.491,-34.1681 666,-45 628.875,-79.9946 648.105,-106.302 630,-154 612.13,-201.077 587.71,-255.315 575.538,-278.382"/>
<polygon fill="midnightblue" stroke="midnightblue" points="709.324,-27.2668 718.25,-21.5595 707.713,-20.4547 709.324,-27.2668"/>
</g>
<!-- Node19 -->
<g id="node51" class="node"><title>Node19</title>
<a xlink:href="classServer.xhtml#a16ea0639731dee10e1a253375b508a02" target="_top" xlink:title="Recovers the server state and re&#45;connects client sockets after a reboot.">
<polygon fill="white" stroke="black" points="910,-118.5 910,-139.5 1040,-139.5 1040,-118.5 910,-118.5"/>
<text text-anchor="middle" x="975" y="-126.5" font-family="FreeSans.ttf" font-size="10.00">Server::RebootRecovery</text>
</a>
</g>
<!-- Node18&#45;&gt;Node19 -->
<g id="edge64" class="edge"><title>Node18&#45;&gt;Node19</title>
<path fill="none" stroke="midnightblue" d="M821.843,-100.506C852.275,-106.167 888.702,-112.945 918.394,-118.469"/>
<polygon fill="midnightblue" stroke="midnightblue" points="822.243,-97.0201 811.771,-98.6319 820.963,-103.902 822.243,-97.0201"/>
</g>
<!-- Node22 -->
<g id="node57" class="node"><title>Node22</title>
<a xlink:href="classSocketServer.xhtml#afdbc60c3bc840875d2214b59c6213f63" target="_top" xlink:title="Accept a new connection on the listening port.">
<polygon fill="white" stroke="black" points="915,-78.5 915,-99.5 1035,-99.5 1035,-78.5 915,-78.5"/>
<text text-anchor="middle" x="975" y="-86.5" font-family="FreeSans.ttf" font-size="10.00">SocketServer::Accept</text>
</a>
</g>
<!-- Node18&#45;&gt;Node22 -->
<g id="edge70" class="edge"><title>Node18&#45;&gt;Node22</title>
<path fill="none" stroke="midnightblue" d="M821.868,-89C851.117,-89 885.901,-89 914.92,-89"/>
<polygon fill="midnightblue" stroke="midnightblue" points="821.771,-85.5001 811.771,-89 821.771,-92.5001 821.771,-85.5001"/>
</g>
<!-- Node20 -->
<g id="node53" class="node"><title>Node20</title>
<a xlink:href="classServer.xhtml#a19a1e493e1fb50a56d9c77332543d565" target="_top" xlink:title="Start the NAMS Server. Responsible for calling all critical boot&#45;time functions such as SocketServer ...">
<polygon fill="white" stroke="black" points="1248,-118.5 1248,-139.5 1338,-139.5 1338,-118.5 1248,-118.5"/>
<text text-anchor="middle" x="1293" y="-126.5" font-family="FreeSans.ttf" font-size="10.00">Server::Startup</text>
</a>
</g>
<!-- Node19&#45;&gt;Node20 -->
<g id="edge66" class="edge"><title>Node19&#45;&gt;Node20</title>
<path fill="none" stroke="midnightblue" d="M1050.16,-129C1111.64,-129 1196.54,-129 1247.95,-129"/>
<polygon fill="midnightblue" stroke="midnightblue" points="1050.12,-125.5 1040.12,-129 1050.12,-132.5 1050.12,-125.5"/>
</g>
<!-- Node21 -->
<g id="node55" class="node"><title>Node21</title>
<a xlink:href="main_8cpp.xhtml#ad53223b8779f25caeddb70a3b9172967" target="_top" xlink:title="The default function required to execute the server.">
<polygon fill="white" stroke="black" points="1374.5,-98.5 1374.5,-119.5 1415.5,-119.5 1415.5,-98.5 1374.5,-98.5"/>
<text text-anchor="middle" x="1395" y="-106.5" font-family="FreeSans.ttf" font-size="10.00">main</text>
</a>
</g>
<!-- Node20&#45;&gt;Node21 -->
<g id="edge68" class="edge"><title>Node20&#45;&gt;Node21</title>
<path fill="none" stroke="midnightblue" d="M1347.9,-118.234C1357.36,-116.38 1366.64,-114.56 1374.43,-113.033"/>
<polygon fill="midnightblue" stroke="midnightblue" points="1347.18,-114.811 1338.04,-120.169 1348.52,-121.68 1347.18,-114.811"/>
</g>
<!-- Node23 -->
<g id="node59" class="node"><title>Node23</title>
<a xlink:href="classServer.xhtml#a39dbe16fdc8c5f6fbd678c6540fbcd6c" target="_top" xlink:title="Poll all SocketClient objects that are communicating with the associated SocketServer object...">
<polygon fill="white" stroke="black" points="1099.5,-78.5 1099.5,-99.5 1208.5,-99.5 1208.5,-78.5 1099.5,-78.5"/>
<text text-anchor="middle" x="1154" y="-86.5" font-family="FreeSans.ttf" font-size="10.00">Server::PollSockets</text>
</a>
</g>
<!-- Node22&#45;&gt;Node23 -->
<g id="edge72" class="edge"><title>Node22&#45;&gt;Node23</title>
<path fill="none" stroke="midnightblue" d="M1045.27,-89C1063.28,-89 1082.39,-89 1099.48,-89"/>
<polygon fill="midnightblue" stroke="midnightblue" points="1045.1,-85.5001 1035.1,-89 1045.1,-92.5001 1045.1,-85.5001"/>
</g>
<!-- Node24 -->
<g id="node61" class="node"><title>Node24</title>
<a xlink:href="classServer.xhtml#a50b81aa91d8fdaee6f52c5c5ec987990" target="_top" xlink:title="The core update loop of NAMS. This loop spawns all other subsystem update routines and then sleeps fo...">
<polygon fill="white" stroke="black" points="1248.5,-78.5 1248.5,-99.5 1337.5,-99.5 1337.5,-78.5 1248.5,-78.5"/>
<text text-anchor="middle" x="1293" y="-86.5" font-family="FreeSans.ttf" font-size="10.00">Server::Update</text>
</a>
</g>
<!-- Node23&#45;&gt;Node24 -->
<g id="edge74" class="edge"><title>Node23&#45;&gt;Node24</title>
<path fill="none" stroke="midnightblue" d="M1218.57,-89C1228.69,-89 1238.94,-89 1248.47,-89"/>
<polygon fill="midnightblue" stroke="midnightblue" points="1218.54,-85.5001 1208.54,-89 1218.54,-92.5001 1218.54,-85.5001"/>
</g>
<!-- Node24&#45;&gt;Node21 -->
<g id="edge76" class="edge"><title>Node24&#45;&gt;Node21</title>
<path fill="none" stroke="midnightblue" d="M1347.64,-99.7141C1357.14,-101.576 1366.47,-103.405 1374.3,-104.941"/>
<polygon fill="midnightblue" stroke="midnightblue" points="1348.23,-96.2619 1337.74,-97.7723 1346.88,-103.131 1348.23,-96.2619"/>
</g>
<!-- Node26 -->
<g id="node66" class="node"><title>Node26</title>
<a xlink:href="classServer.xhtml#a2b4cec469bb99c2a45e49de5ba74d1ae" target="_top" xlink:title="Processes input from all active SocketClient objects.">
<polygon fill="white" stroke="black" points="1096,-38.5 1096,-59.5 1212,-59.5 1212,-38.5 1096,-38.5"/>
<text text-anchor="middle" x="1154" y="-46.5" font-family="FreeSans.ttf" font-size="10.00">Server::ProcessInput</text>
</a>
</g>
<!-- Node25&#45;&gt;Node26 -->
<g id="edge80" class="edge"><title>Node25&#45;&gt;Node26</title>
<path fill="none" stroke="midnightblue" d="M1070.25,-49C1078.93,-49 1087.54,-49 1095.75,-49"/>
<polygon fill="midnightblue" stroke="midnightblue" points="1070.04,-45.5001 1060.04,-49 1070.04,-52.5001 1070.04,-45.5001"/>
</g>
<!-- Node26&#45;&gt;Node24 -->
<g id="edge82" class="edge"><title>Node26&#45;&gt;Node24</title>
<path fill="none" stroke="midnightblue" d="M1200.34,-62.3358C1218.53,-67.5696 1239.11,-73.4909 1256.24,-78.4218"/>
<polygon fill="midnightblue" stroke="midnightblue" points="1201.1,-58.9116 1190.52,-59.5095 1199.16,-65.6386 1201.1,-58.9116"/>
</g>
</g>
</svg>
        <g id="navigator" transform="translate(0 0)" fill="#404254">
                <rect fill="#f2f5e9" fill-opacity="0.5" stroke="#606060" stroke-width=".5" x="0" y="0" width="60" height="60"/>
                <use id="zoomplus" xlink:href="#zoomPlus" x="17" y="9" onmousedown="handleZoom(evt,'in')"/>
                <use id="zoomminus" xlink:href="#zoomMin" x="42" y="9" onmousedown="handleZoom(evt,'out')"/>
                <use id="reset" xlink:href="#resetDef" x="30" y="36" onmousedown="handleReset()"/>
                <g id="arrowUp" xlink:href="#dirArrow" transform="translate(30 24)" onmousedown="handlePan(0,-1)">
                  <use xlink:href="#rim" fill="#404040">
                        <set attributeName="fill" to="#808080" begin="arrowUp.mouseover" end="arrowUp.mouseout"/>
                  </use>
                  <path fill="none" stroke="white" stroke-width="1.5" d="M0,-3.0v7 M-2.5,-0.5L0,-3.0L2.5,-0.5"/>
                </g>
                <g id="arrowRight" xlink:href="#dirArrow" transform="rotate(90) translate(36 -43)" onmousedown="handlePan(1,0)">
                  <use xlink:href="#rim" fill="#404040">
                        <set attributeName="fill" to="#808080" begin="arrowRight.mouseover" end="arrowRight.mouseout"/>
                  </use>
                  <path fill="none" stroke="white" stroke-width="1.5" d="M0,-3.0v7 M-2.5,-0.5L0,-3.0L2.5,-0.5"/>
                </g>
                <g id="arrowDown" xlink:href="#dirArrow" transform="rotate(180) translate(-30 -48)" onmousedown="handlePan(0,1)">
                  <use xlink:href="#rim" fill="#404040">
                        <set attributeName="fill" to="#808080" begin="arrowDown.mouseover" end="arrowDown.mouseout"/>
                  </use>
                  <path fill="none" stroke="white" stroke-width="1.5" d="M0,-3.0v7 M-2.5,-0.5L0,-3.0L2.5,-0.5"/>
                </g>
                <g id="arrowLeft" xlink:href="#dirArrow" transform="rotate(270) translate(-36 17)" onmousedown="handlePan(-1,0)">
                  <use xlink:href="#rim" fill="#404040">
                        <set attributeName="fill" to="#808080" begin="arrowLeft.mouseover" end="arrowLeft.mouseout"/>
                  </use>
                  <path fill="none" stroke="white" stroke-width="1.5" d="M0,-3.0v7 M-2.5,-0.5L0,-3.0L2.5,-0.5"/>
                </g>
        </g>
</svg>
