<?xml version="1.0" encoding="UTF-8" standalone="no"?>
<!DOCTYPE svg PUBLIC "-//W3C//DTD SVG 1.1//EN"
 "http://www.w3.org/Graphics/SVG/1.1/DTD/svg11.dtd">
<!-- Generated by graphviz version 2.26.3 (20100126.1600)
 -->
<!-- Title: G Pages: 1 -->
<!--zoomable 637 -->
<svg id="main" version="1.1" xmlns="http://www.w3.org/2000/svg" xmlns:xlink="http://www.w3.org/1999/xlink" xml:space="preserve" onload="init(evt)">
        <defs>
                <circle id="rim" cx="0" cy="0" r="7"/>
                <circle id="rim2" cx="0" cy="0" r="3.5"/>
                <g id="zoomPlus">
                        <use xlink:href="#rim" fill="#404040">
                                <set attributeName="fill" to="#808080" begin="zoomplus.mouseover" end="zoomplus.mouseout"/>
                        </use>
                        <path d="M-4,0h8M0,-4v8" fill="none" stroke="white" stroke-width="1.5" pointer-events="none"/>
                </g>
                <g id="zoomMin">
                        <use xlink:href="#rim" fill="#404040">
                                <set attributeName="fill" to="#808080" begin="zoomminus.mouseover" end="zoomminus.mouseout"/>
                        </use>
                        <path d="M-4,0h8" fill="none" stroke="white" stroke-width="1.5" pointer-events="none"/>
                </g>
                <g id="dirArrow">
                        <path fill="none" stroke="white" stroke-width="1.5" d="M0,-3.0v7 M-2.5,-0.5L0,-3.0L2.5,-0.5"/>
                </g>
               <g id="resetDef">
                       <use xlink:href="#rim2" fill="#404040">
                               <set attributeName="fill" to="#808080" begin="reset.mouseover" end="reset.mouseout"/>
                       </use>
               </g>
        </defs>

<script type="text/javascript">
var viewWidth = 1288;
var viewHeight = 637;
var sectionId = 'dynsection-0';
</script>
<script xlink:href="svgpan.js"/>
<svg id="graph" class="graph">
<g id="viewport">
<title>G</title>
<polygon fill="white" stroke="white" points="-4,5 -4,-632.851 1285,-632.851 1285,5 -4,5"/>
<!-- Node1 -->
<g id="node1" class="node"><title>Node1</title>
<polygon fill="#bfbfbf" stroke="black" points="676,-330.082 676,-351.082 724,-351.082 724,-330.082 676,-330.082"/>
<text text-anchor="middle" x="700" y="-338.082" font-family="FreeSans.ttf" font-size="10.00">Server</text>
</g>
<!-- Node3 -->
<g id="node4" class="node"><title>Node3</title>
<a xlink:href="classSocketClient.xhtml" target="_top" xlink:title="Client / remote host specific functions that extend the Socket class.">
<polygon fill="white" stroke="black" points="951.5,-349.082 951.5,-370.082 1028.5,-370.082 1028.5,-349.082 951.5,-349.082"/>
<text text-anchor="middle" x="990" y="-357.082" font-family="FreeSans.ttf" font-size="10.00">SocketClient</text>
</a>
</g>
<!-- Node1&#45;&gt;Node3 -->
<g id="edge32" class="edge"><title>Node1&#45;&gt;Node3</title>
<path fill="none" stroke="#9a32cd" stroke-dasharray="5,2" d="M734.381,-348.219C756.898,-352.823 787.041,-358.235 814,-360.582 860.048,-364.591 871.779,-360.903 918,-360.582 928.751,-360.507 940.404,-360.37 951.14,-360.221"/>
<polygon fill="#9a32cd" stroke="#9a32cd" points="734.805,-344.732 724.3,-346.109 733.37,-351.584 734.805,-344.732"/>
<text text-anchor="middle" x="866" y="-365.582" font-family="FreeSans.ttf" font-size="10.00"> m_server</text>
</g>
<!-- Node20 -->
<g id="node49" class="node"><title>Node20</title>
<a xlink:href="classSocketServer.xhtml" target="_top" xlink:title="SocketServer extends the Socket class to implement server&#45;side socket functions.">
<polygon fill="white" stroke="black" points="949.5,-309.082 949.5,-330.082 1030.5,-330.082 1030.5,-309.082 949.5,-309.082"/>
<text text-anchor="middle" x="990" y="-317.082" font-family="FreeSans.ttf" font-size="10.00">SocketServer</text>
</a>
</g>
<!-- Node1&#45;&gt;Node20 -->
<g id="edge64" class="edge"><title>Node1&#45;&gt;Node20</title>
<path fill="none" stroke="#9a32cd" stroke-dasharray="5,2" d="M733.731,-328.099C756.138,-320.489 786.403,-311.496 814,-307.582 859.764,-301.092 871.935,-303.77 918,-307.582 928.23,-308.429 939.194,-309.941 949.404,-311.613"/>
<polygon fill="#9a32cd" stroke="#9a32cd" points="732.322,-324.884 724.027,-331.476 734.622,-331.495 732.322,-324.884"/>
<text text-anchor="middle" x="866" y="-311.582" font-family="FreeSans.ttf" font-size="10.00"> m_server</text>
</g>
<!-- Node2 -->
<g id="node2" class="node"><title>Node2</title>
<polygon fill="white" stroke="#bfbfbf" points="1138,-267.082 1138,-288.082 1280,-288.082 1280,-267.082 1138,-267.082"/>
<text text-anchor="middle" x="1209" y="-275.082" font-family="FreeSans.ttf" font-size="10.00">std::list&lt; SocketClient * &gt;</text>
</g>
<!-- Node2&#45;&gt;Node1 -->
<g id="edge2" class="edge"><title>Node2&#45;&gt;Node1</title>
<path fill="none" stroke="#9a32cd" stroke-dasharray="5,2" d="M1127.61,-274.137C1046.96,-272.577 920.403,-275.15 814,-299.582 782.021,-306.925 746.684,-320.543 723.956,-330.063"/>
<polygon fill="#9a32cd" stroke="#9a32cd" points="1127.63,-277.638 1137.71,-274.358 1127.79,-270.639 1127.63,-277.638"/>
<text text-anchor="middle" x="990" y="-283.582" font-family="FreeSans.ttf" font-size="10.00"> m_socket_client_next</text>
</g>
<!-- Node3&#45;&gt;Node2 -->
<g id="edge4" class="edge"><title>Node3&#45;&gt;Node2</title>
<path fill="none" stroke="#9a32cd" stroke-dasharray="5,2" d="M1033.78,-344.99C1037.31,-343.326 1040.77,-341.523 1044,-339.582 1053.18,-334.073 1052.68,-328.854 1062,-323.582 1091.56,-306.856 1127.97,-295.405 1157.15,-288.11"/>
<polygon fill="#9a32cd" stroke="#9a32cd" points="1032.11,-341.898 1024.31,-349.068 1034.88,-348.327 1032.11,-341.898"/>
<text text-anchor="middle" x="1091" y="-327.582" font-family="FreeSans.ttf" font-size="10.00"> elements</text>
</g>
<!-- Node9 -->
<g id="node16" class="node"><title>Node9</title>
<a xlink:href="classAccount.xhtml" target="_top" xlink:title="Security structure to maintain characters, roles, and permissions.">
<polygon fill="white" stroke="black" points="1181,-336.082 1181,-357.082 1237,-357.082 1237,-336.082 1181,-336.082"/>
<text text-anchor="middle" x="1209" y="-344.082" font-family="FreeSans.ttf" font-size="10.00">Account</text>
</a>
</g>
<!-- Node3&#45;&gt;Node9 -->
<g id="edge18" class="edge"><title>Node3&#45;&gt;Node9</title>
<path fill="none" stroke="#9a32cd" stroke-dasharray="5,2" d="M1038.64,-347.265C1046.4,-345.736 1054.39,-344.418 1062,-343.582 1103.23,-339.056 1151.35,-341.485 1181,-343.862"/>
<polygon fill="#9a32cd" stroke="#9a32cd" points="1037.67,-343.893 1028.6,-349.376 1039.11,-350.743 1037.67,-343.893"/>
<text text-anchor="middle" x="1091" y="-347.582" font-family="FreeSans.ttf" font-size="10.00"> m_client</text>
</g>
<!-- Node4 -->
<g id="node6" class="node"><title>Node4</title>
<a xlink:href="classSocket.xhtml" target="_top" xlink:title="Functions and interfaces that are common to both SocketClient and SocketServer.">
<polygon fill="white" stroke="black" points="675,-256.082 675,-277.082 725,-277.082 725,-256.082 675,-256.082"/>
<text text-anchor="middle" x="700" y="-264.082" font-family="FreeSans.ttf" font-size="10.00">Socket</text>
</a>
</g>
<!-- Node4&#45;&gt;Node3 -->
<g id="edge6" class="edge"><title>Node4&#45;&gt;Node3</title>
<path fill="none" stroke="midnightblue" d="M735.362,-262.263C782.037,-258.536 864.531,-259.012 918,-299.582 933.53,-311.366 921.753,-326.275 936,-339.582 940.457,-343.745 945.855,-347.059 951.494,-349.694"/>
<polygon fill="midnightblue" stroke="midnightblue" points="734.779,-258.802 725.138,-263.194 735.414,-265.773 734.779,-258.802"/>
</g>
<!-- Node4&#45;&gt;Node20 -->
<g id="edge62" class="edge"><title>Node4&#45;&gt;Node20</title>
<path fill="none" stroke="midnightblue" d="M735.155,-256.948C789.211,-243.047 889.49,-221.155 918,-241.582 938.222,-256.071 919.368,-276.083 936,-294.582 941.457,-300.651 948.688,-305.355 956.079,-308.959"/>
<polygon fill="midnightblue" stroke="midnightblue" points="734.1,-253.606 725.311,-259.523 735.871,-260.378 734.1,-253.606"/>
</g>
<!-- Node5 -->
<g id="node8" class="node"><title>Node5</title>
<polygon fill="white" stroke="#bfbfbf" points="349.5,-252.082 349.5,-273.082 412.5,-273.082 412.5,-252.082 349.5,-252.082"/>
<text text-anchor="middle" x="381" y="-260.082" font-family="FreeSans.ttf" font-size="10.00">signed int</text>
</g>
<!-- Node5&#45;&gt;Node4 -->
<g id="edge8" class="edge"><title>Node5&#45;&gt;Node4</title>
<path fill="none" stroke="#9a32cd" stroke-dasharray="5,2" d="M422.984,-263.108C490.206,-263.951 619.981,-265.579 674.694,-266.265"/>
<polygon fill="#9a32cd" stroke="#9a32cd" points="422.796,-259.606 412.753,-262.98 422.708,-266.605 422.796,-259.606"/>
<text text-anchor="middle" x="522" y="-268.582" font-family="FreeSans.ttf" font-size="10.00"> m_descriptor</text>
</g>
<!-- Node6 -->
<g id="node10" class="node"><title>Node6</title>
<a xlink:title="STL class.">
<polygon fill="white" stroke="#bfbfbf" points="348.5,-187.082 348.5,-208.082 413.5,-208.082 413.5,-187.082 348.5,-187.082"/>
<text text-anchor="middle" x="381" y="-195.082" font-family="FreeSans.ttf" font-size="10.00">std::string</text>
</a>
</g>
<!-- Node6&#45;&gt;Node3 -->
<g id="edge44" class="edge"><title>Node6&#45;&gt;Node3</title>
<path fill="none" stroke="#9a32cd" stroke-dasharray="5,2" d="M423.63,-193.382C499.528,-187.055 662.639,-178.669 796,-207.582 853.604,-220.071 880.272,-214.296 918,-259.582 941.327,-287.583 912.005,-312.152 936,-339.582 940.147,-344.323 945.523,-347.941 951.272,-350.703"/>
<polygon fill="#9a32cd" stroke="#9a32cd" points="423.172,-189.909 413.511,-194.257 423.775,-196.883 423.172,-189.909"/>
<text text-anchor="middle" x="700" y="-237.582" font-family="FreeSans.ttf" font-size="10.00"> m_output</text>
<text text-anchor="middle" x="700" y="-224.582" font-family="FreeSans.ttf" font-size="10.00">m_input</text>
<text text-anchor="middle" x="700" y="-211.582" font-family="FreeSans.ttf" font-size="10.00">m_login</text>
</g>
<!-- Node6&#45;&gt;Node4 -->
<g id="edge10" class="edge"><title>Node6&#45;&gt;Node4</title>
<path fill="none" stroke="#9a32cd" stroke-dasharray="5,2" d="M423.517,-206.779C490.961,-221.367 620.397,-249.364 674.866,-261.145"/>
<polygon fill="#9a32cd" stroke="#9a32cd" points="424.153,-203.335 413.639,-204.642 422.673,-210.177 424.153,-203.335"/>
<text text-anchor="middle" x="522" y="-243.582" font-family="FreeSans.ttf" font-size="10.00"> m_hostname</text>
</g>
<!-- Node6&#45;&gt;Node9 -->
<g id="edge28" class="edge"><title>Node6&#45;&gt;Node9</title>
<path fill="none" stroke="#9a32cd" stroke-dasharray="5,2" d="M423.874,-188.229C516.113,-169.847 739.499,-134.689 918,-181.582 978.103,-197.371 1141.07,-302.064 1192.93,-335.991"/>
<polygon fill="#9a32cd" stroke="#9a32cd" points="422.907,-184.854 413.804,-190.275 424.301,-191.714 422.907,-184.854"/>
<text text-anchor="middle" x="866" y="-198.582" font-family="FreeSans.ttf" font-size="10.00"> m_password</text>
<text text-anchor="middle" x="866" y="-185.582" font-family="FreeSans.ttf" font-size="10.00">m_name</text>
</g>
<!-- Node7 -->
<g id="node12" class="node"><title>Node7</title>
<a xlink:title="STL class.">
<polygon fill="white" stroke="#bfbfbf" points="0,-187.082 0,-208.082 138,-208.082 138,-187.082 0,-187.082"/>
<text text-anchor="middle" x="69" y="-195.082" font-family="FreeSans.ttf" font-size="10.00">std::basic_string&lt; char &gt;</text>
</a>
</g>
<!-- Node7&#45;&gt;Node6 -->
<g id="edge12" class="edge"><title>Node7&#45;&gt;Node6</title>
<path fill="none" stroke="midnightblue" d="M148.419,-197.582C213.135,-197.582 301.235,-197.582 348.255,-197.582"/>
<polygon fill="midnightblue" stroke="midnightblue" points="148.243,-194.082 138.243,-197.582 148.243,-201.082 148.243,-194.082"/>
</g>
<!-- Node8 -->
<g id="node14" class="node"><title>Node8</title>
<polygon fill="white" stroke="#bfbfbf" points="343.5,-540.082 343.5,-561.082 418.5,-561.082 418.5,-540.082 343.5,-540.082"/>
<text text-anchor="middle" x="381" y="-548.082" font-family="FreeSans.ttf" font-size="10.00">unsigned int</text>
</g>
<!-- Node8&#45;&gt;Node1 -->
<g id="edge58" class="edge"><title>Node8&#45;&gt;Node1</title>
<path fill="none" stroke="#9a32cd" stroke-dasharray="5,2" d="M407.298,-534.851C421.805,-526.8 440.4,-517.479 458,-511.582 512.805,-493.219 544.936,-529.259 586,-488.582 616.53,-458.339 578.794,-428.386 604,-393.582 621.532,-369.374 653.667,-354.925 675.899,-347.369"/>
<polygon fill="#9a32cd" stroke="#9a32cd" points="405.368,-531.922 398.407,-539.909 408.829,-538.007 405.368,-531.922"/>
<text text-anchor="middle" x="522" y="-567.582" font-family="FreeSans.ttf" font-size="10.00"> m_dir_close</text>
<text text-anchor="middle" x="522" y="-554.582" font-family="FreeSans.ttf" font-size="10.00">m_socket_close</text>
<text text-anchor="middle" x="522" y="-541.582" font-family="FreeSans.ttf" font-size="10.00">m_port</text>
<text text-anchor="middle" x="522" y="-528.582" font-family="FreeSans.ttf" font-size="10.00">m_dir_open</text>
<text text-anchor="middle" x="522" y="-515.582" font-family="FreeSans.ttf" font-size="10.00">m_socket_open</text>
</g>
<!-- Node8&#45;&gt;Node3 -->
<g id="edge46" class="edge"><title>Node8&#45;&gt;Node3</title>
<path fill="none" stroke="#9a32cd" stroke-dasharray="5,2" d="M415.042,-564.736C428.218,-569.503 443.577,-574.213 458,-576.582 514.136,-585.804 530.825,-590.44 586,-576.582 753.563,-534.497 927.337,-407.84 976.395,-370.226"/>
<polygon fill="#9a32cd" stroke="#9a32cd" points="416.036,-561.37 405.444,-561.117 413.566,-567.92 416.036,-561.37"/>
<text text-anchor="middle" x="700" y="-587.582" font-family="FreeSans.ttf" font-size="10.00"> m_idle</text>
<text text-anchor="middle" x="700" y="-574.582" font-family="FreeSans.ttf" font-size="10.00">m_state</text>
</g>
<!-- Node8&#45;&gt;Node4 -->
<g id="edge14" class="edge"><title>Node8&#45;&gt;Node4</title>
<path fill="none" stroke="#9a32cd" stroke-dasharray="5,2" d="M390.536,-530.857C402.917,-507.258 426.699,-468.119 458,-445.582 506.478,-410.678 545.9,-448.858 586,-404.582 611.631,-376.283 581.36,-351.326 604,-320.582 621.462,-296.869 652.656,-282.145 674.74,-274.175"/>
<polygon fill="#9a32cd" stroke="#9a32cd" points="387.338,-529.423 385.939,-539.925 393.582,-532.588 387.338,-529.423"/>
<text text-anchor="middle" x="522" y="-475.582" font-family="FreeSans.ttf" font-size="10.00"> m_bytes_sent</text>
<text text-anchor="middle" x="522" y="-462.582" font-family="FreeSans.ttf" font-size="10.00">m_port</text>
<text text-anchor="middle" x="522" y="-449.582" font-family="FreeSans.ttf" font-size="10.00">m_bytes_recvd</text>
</g>
<!-- Node8&#45;&gt;Node9 -->
<g id="edge30" class="edge"><title>Node8&#45;&gt;Node9</title>
<path fill="none" stroke="#9a32cd" stroke-dasharray="5,2" d="M403.234,-567.115C417.958,-577.063 438.149,-588.872 458,-594.582 602.39,-636.119 651.428,-641.481 796,-600.582 974.195,-550.171 1151.13,-398.819 1197.37,-357.248"/>
<polygon fill="#9a32cd" stroke="#9a32cd" points="405.026,-564.097 394.825,-561.233 401.014,-569.833 405.026,-564.097"/>
<text text-anchor="middle" x="866" y="-598.582" font-family="FreeSans.ttf" font-size="10.00"> m_security</text>
</g>
<!-- Node9&#45;&gt;Node3 -->
<g id="edge16" class="edge"><title>Node9&#45;&gt;Node3</title>
<path fill="none" stroke="#9a32cd" stroke-dasharray="5,2" d="M1170.81,-353.929C1155.13,-356.595 1136.76,-359.272 1120,-360.582 1094.3,-362.591 1087.78,-360.761 1062,-360.582 1051.25,-360.507 1039.6,-360.37 1028.86,-360.221"/>
<polygon fill="#9a32cd" stroke="#9a32cd" points="1171.43,-357.373 1180.68,-352.194 1170.22,-350.479 1171.43,-357.373"/>
<text text-anchor="middle" x="1091" y="-364.582" font-family="FreeSans.ttf" font-size="10.00"> m_account</text>
</g>
<!-- Node10 -->
<g id="node19" class="node"><title>Node10</title>
<polygon fill="white" stroke="#bfbfbf" points="613,-63.082 613,-84.082 787,-84.082 787,-63.082 613,-63.082"/>
<text text-anchor="middle" x="700" y="-71.082" font-family="FreeSans.ttf" font-size="10.00">std::list&lt; pair&lt; string, string &gt; &gt;</text>
</g>
<!-- Node10&#45;&gt;Node9 -->
<g id="edge20" class="edge"><title>Node10&#45;&gt;Node9</title>
<path fill="none" stroke="#9a32cd" stroke-dasharray="5,2" d="M764.625,-61.6231C858.142,-48.4637 1029.84,-40.6335 1120,-138.582 1144.08,-164.745 1119.73,-267.078 1138,-297.582 1148.54,-315.184 1168.14,-327.979 1184.07,-336.072"/>
<polygon fill="#9a32cd" stroke="#9a32cd" points="764.107,-58.1615 754.722,-63.0779 765.125,-65.0872 764.107,-58.1615"/>
<text text-anchor="middle" x="990" y="-87.582" font-family="FreeSans.ttf" font-size="10.00"> m_logins</text>
</g>
<!-- Node11 -->
<g id="node21" class="node"><title>Node11</title>
<polygon fill="white" stroke="#bfbfbf" points="322.5,-98.082 322.5,-119.082 439.5,-119.082 439.5,-98.082 322.5,-98.082"/>
<text text-anchor="middle" x="381" y="-106.082" font-family="FreeSans.ttf" font-size="10.00">pair&lt; string, string &gt;</text>
</g>
<!-- Node11&#45;&gt;Node10 -->
<g id="edge22" class="edge"><title>Node11&#45;&gt;Node10</title>
<path fill="none" stroke="#9a32cd" stroke-dasharray="5,2" d="M441.16,-96.2049C446.839,-95.2352 452.519,-94.34 458,-93.582 509.156,-86.5073 566.766,-81.6238 612.941,-78.4544"/>
<polygon fill="#9a32cd" stroke="#9a32cd" points="440.216,-92.818 430.984,-98.0173 441.443,-99.7095 440.216,-92.818"/>
<text text-anchor="middle" x="522" y="-97.582" font-family="FreeSans.ttf" font-size="10.00"> elements</text>
</g>
<!-- Node14 -->
<g id="node30" class="node"><title>Node14</title>
<polygon fill="white" stroke="#bfbfbf" points="604.5,-103.082 604.5,-124.082 795.5,-124.082 795.5,-103.082 604.5,-103.082"/>
<text text-anchor="middle" x="700" y="-111.082" font-family="FreeSans.ttf" font-size="10.00">std::deque&lt; pair&lt; string, string &gt; &gt;</text>
</g>
<!-- Node11&#45;&gt;Node14 -->
<g id="edge36" class="edge"><title>Node11&#45;&gt;Node14</title>
<path fill="none" stroke="#9a32cd" stroke-dasharray="5,2" d="M449.78,-109.66C494.908,-110.367 554.553,-111.302 604.289,-112.082"/>
<polygon fill="#9a32cd" stroke="#9a32cd" points="449.563,-106.156 439.51,-109.499 449.453,-113.156 449.563,-106.156"/>
<text text-anchor="middle" x="522" y="-116.582" font-family="FreeSans.ttf" font-size="10.00"> elements</text>
</g>
<!-- Node12 -->
<g id="node23" class="node"><title>Node12</title>
<a xlink:title="STL class.">
<polygon fill="white" stroke="#bfbfbf" points="341.5,-2.08205 341.5,-23.082 420.5,-23.082 420.5,-2.08205 341.5,-2.08205"/>
<text text-anchor="middle" x="381" y="-10.082" font-family="FreeSans.ttf" font-size="10.00">std::list&lt; T &gt;</text>
</a>
</g>
<!-- Node12&#45;&gt;Node2 -->
<g id="edge48" class="edge"><title>Node12&#45;&gt;Node2</title>
<path fill="none" stroke="orange" stroke-dasharray="5,2" d="M430.865,-5.15212C439.877,-4.08154 449.204,-3.15086 458,-2.58205 514.77,1.08892 529.19,0.404204 586,-2.58205 790.581,-13.3359 848.537,6.76398 1044,-54.582 1080.22,-65.9508 1093.47,-66.4215 1120,-93.582 1172.07,-146.893 1198.6,-236.557 1206.46,-267.058"/>
<polygon fill="orange" stroke="orange" points="430.354,-1.68866 420.869,-6.40844 431.227,-8.63402 430.354,-1.68866"/>
<text text-anchor="middle" x="866" y="-26.582" font-family="FreeSans.ttf" font-size="10.00"> &lt; SocketClient * &gt;</text>
</g>
<!-- Node12&#45;&gt;Node10 -->
<g id="edge24" class="edge"><title>Node12&#45;&gt;Node10</title>
<path fill="none" stroke="orange" stroke-dasharray="5,2" d="M430.556,-7.90804C472.569,-5.33302 534.093,-4.85237 586,-17.582 623.478,-26.7732 662.989,-49.5672 684.24,-63.0713"/>
<polygon fill="orange" stroke="orange" points="430.319,-4.41593 420.578,-8.58148 430.791,-11.4 430.319,-4.41593"/>
<text text-anchor="middle" x="522" y="-21.582" font-family="FreeSans.ttf" font-size="10.00"> &lt; pair&lt; string, string &gt; &gt;</text>
</g>
<!-- Node13 -->
<g id="node25" class="node"><title>Node13</title>
<polygon fill="white" stroke="#bfbfbf" points="54.5,-23.082 54.5,-44.082 83.5,-44.082 83.5,-23.082 54.5,-23.082"/>
<text text-anchor="middle" x="69" y="-31.082" font-family="FreeSans.ttf" font-size="10.00">T</text>
</g>
<!-- Node13&#45;&gt;Node12 -->
<g id="edge26" class="edge"><title>Node13&#45;&gt;Node12</title>
<path fill="none" stroke="#9a32cd" stroke-dasharray="5,2" d="M93.6467,-29.9229C111.035,-27.4746 134.896,-24.3822 156,-22.582 220.673,-17.0656 296.079,-14.4986 341.106,-13.3754"/>
<polygon fill="#9a32cd" stroke="#9a32cd" points="93.1394,-26.4598 83.7391,-31.3468 94.1353,-33.3886 93.1394,-26.4598"/>
<text text-anchor="middle" x="230" y="-26.582" font-family="FreeSans.ttf" font-size="10.00"> elements</text>
</g>
<!-- Node15 -->
<g id="node33" class="node"><title>Node15</title>
<a xlink:title="STL class.">
<polygon fill="white" stroke="#bfbfbf" points="333.5,-42.082 333.5,-63.082 428.5,-63.082 428.5,-42.082 333.5,-42.082"/>
<text text-anchor="middle" x="381" y="-50.082" font-family="FreeSans.ttf" font-size="10.00">std::deque&lt; T &gt;</text>
</a>
</g>
<!-- Node13&#45;&gt;Node15 -->
<g id="edge40" class="edge"><title>Node13&#45;&gt;Node15</title>
<path fill="none" stroke="#9a32cd" stroke-dasharray="5,2" d="M93.8869,-35.0976C145.725,-38.2544 266.033,-45.5809 333.302,-49.6773"/>
<polygon fill="#9a32cd" stroke="#9a32cd" points="93.8242,-31.5874 83.6299,-34.473 93.3987,-38.5744 93.8242,-31.5874"/>
<text text-anchor="middle" x="230" y="-51.582" font-family="FreeSans.ttf" font-size="10.00"> elements</text>
</g>
<!-- Node14&#45;&gt;Node3 -->
<g id="edge34" class="edge"><title>Node14&#45;&gt;Node3</title>
<path fill="none" stroke="#9a32cd" stroke-dasharray="5,2" d="M805.781,-102.574C852.918,-100.197 901.515,-102.097 918,-117.582 954.076,-151.469 906.105,-300.135 936,-339.582 939.925,-344.761 945.338,-348.6 951.23,-351.444"/>
<polygon fill="#9a32cd" stroke="#9a32cd" points="805.542,-99.0814 795.757,-103.142 805.939,-106.07 805.542,-99.0814"/>
<text text-anchor="middle" x="866" y="-121.582" font-family="FreeSans.ttf" font-size="10.00"> m_command_queue</text>
</g>
<!-- Node15&#45;&gt;Node14 -->
<g id="edge38" class="edge"><title>Node15&#45;&gt;Node14</title>
<path fill="none" stroke="orange" stroke-dasharray="5,2" d="M438.668,-42.4258C482.188,-37.8072 541.756,-38.2478 586,-64.582 599.036,-72.3408 591.569,-84.8874 604,-93.582 609.441,-97.3875 615.452,-100.498 621.733,-103.036"/>
<polygon fill="orange" stroke="orange" points="438.047,-38.9747 428.527,-43.6234 438.868,-45.9264 438.047,-38.9747"/>
<text text-anchor="middle" x="522" y="-68.582" font-family="FreeSans.ttf" font-size="10.00"> &lt; pair&lt; string, string &gt; &gt;</text>
</g>
<!-- Node16 -->
<g id="node36" class="node"><title>Node16</title>
<polygon fill="white" stroke="#bfbfbf" points="362.5,-391.082 362.5,-412.082 399.5,-412.082 399.5,-391.082 362.5,-391.082"/>
<text text-anchor="middle" x="381" y="-399.082" font-family="FreeSans.ttf" font-size="10.00">bool</text>
</g>
<!-- Node16&#45;&gt;Node1 -->
<g id="edge52" class="edge"><title>Node16&#45;&gt;Node1</title>
<path fill="none" stroke="#9a32cd" stroke-dasharray="5,2" d="M409.811,-396.677C457.944,-388.456 552.712,-372.152 586,-365.582 617.011,-359.462 652.559,-351.517 675.6,-346.244"/>
<polygon fill="#9a32cd" stroke="#9a32cd" points="409.005,-393.264 399.737,-398.396 410.183,-400.164 409.005,-393.264"/>
<text text-anchor="middle" x="522" y="-391.582" font-family="FreeSans.ttf" font-size="10.00"> m_shutdown</text>
</g>
<!-- Node16&#45;&gt;Node3 -->
<g id="edge42" class="edge"><title>Node16&#45;&gt;Node3</title>
<path fill="none" stroke="#9a32cd" stroke-dasharray="5,2" d="M410.117,-402.785C491.215,-405.61 726.306,-410.223 918,-378.582 930.373,-376.54 943.706,-373.317 955.496,-370.102"/>
<polygon fill="#9a32cd" stroke="#9a32cd" points="409.838,-399.272 399.716,-402.402 409.581,-406.268 409.838,-399.272"/>
<text text-anchor="middle" x="700" y="-407.582" font-family="FreeSans.ttf" font-size="10.00"> m_quitting</text>
</g>
<!-- Node17 -->
<g id="node41" class="node"><title>Node17</title>
<polygon fill="white" stroke="#bfbfbf" points="347,-332.082 347,-353.082 415,-353.082 415,-332.082 347,-332.082"/>
<text text-anchor="middle" x="381" y="-340.082" font-family="FreeSans.ttf" font-size="10.00">time_point</text>
</g>
<!-- Node17&#45;&gt;Node1 -->
<g id="edge50" class="edge"><title>Node17&#45;&gt;Node1</title>
<path fill="none" stroke="#9a32cd" stroke-dasharray="5,2" d="M425.142,-340.567C435.891,-340.158 447.357,-339.789 458,-339.582 537.812,-338.028 632.457,-339.332 675.953,-340.107"/>
<polygon fill="#9a32cd" stroke="#9a32cd" points="424.959,-337.071 415.106,-340.968 425.238,-344.066 424.959,-337.071"/>
<text text-anchor="middle" x="522" y="-356.582" font-family="FreeSans.ttf" font-size="10.00"> m_time_current</text>
<text text-anchor="middle" x="522" y="-343.582" font-family="FreeSans.ttf" font-size="10.00">m_time_boot</text>
</g>
<!-- Node18 -->
<g id="node44" class="node"><title>Node18</title>
<a xlink:href="classServer_1_1Config.xhtml" target="_top" xlink:title="Runtime settings.">
<polygon fill="white" stroke="black" points="339,-292.082 339,-313.082 423,-313.082 423,-292.082 339,-292.082"/>
<text text-anchor="middle" x="381" y="-300.082" font-family="FreeSans.ttf" font-size="10.00">Server::Config</text>
</a>
</g>
<!-- Node18&#45;&gt;Node1 -->
<g id="edge54" class="edge"><title>Node18&#45;&gt;Node1</title>
<path fill="none" stroke="#9a32cd" stroke-dasharray="5,2" d="M433.256,-306.371C474.752,-309.634 534.206,-314.875 586,-321.582 617.042,-325.602 652.584,-331.778 675.615,-335.99"/>
<polygon fill="#9a32cd" stroke="#9a32cd" points="433.349,-302.868 423.109,-305.585 432.808,-309.847 433.349,-302.868"/>
<text text-anchor="middle" x="522" y="-325.582" font-family="FreeSans.ttf" font-size="10.00"> m_config</text>
</g>
<!-- Node19 -->
<g id="node46" class="node"><title>Node19</title>
<polygon fill="white" stroke="#bfbfbf" points="9,-292.082 9,-313.082 129,-313.082 129,-292.082 9,-292.082"/>
<text text-anchor="middle" x="69" y="-300.082" font-family="FreeSans.ttf" font-size="10.00">forward_list&lt; string &gt;</text>
</g>
<!-- Node19&#45;&gt;Node18 -->
<g id="edge56" class="edge"><title>Node19&#45;&gt;Node18</title>
<path fill="none" stroke="#9a32cd" stroke-dasharray="5,2" d="M139.517,-302.582C200.747,-302.582 287.397,-302.582 338.537,-302.582"/>
<polygon fill="#9a32cd" stroke="#9a32cd" points="139.157,-299.082 129.157,-302.582 139.157,-306.082 139.157,-299.082"/>
<text text-anchor="middle" x="230" y="-306.582" font-family="FreeSans.ttf" font-size="10.00"> m_account_prohibited_names</text>
</g>
<!-- Node20&#45;&gt;Node1 -->
<g id="edge60" class="edge"><title>Node20&#45;&gt;Node1</title>
<path fill="none" stroke="#9a32cd" stroke-dasharray="5,2" d="M939.28,-323.255C876.279,-327.817 771.358,-335.415 724.226,-338.828"/>
<polygon fill="#9a32cd" stroke="#9a32cd" points="939.674,-326.736 949.395,-322.522 939.168,-319.754 939.674,-326.736"/>
<text text-anchor="middle" x="866" y="-335.582" font-family="FreeSans.ttf" font-size="10.00"> m_socket</text>
</g>
</g>
</svg>
        <g id="navigator" transform="translate(0 0)" fill="#404254">
                <rect fill="#f2f5e9" fill-opacity="0.5" stroke="#606060" stroke-width=".5" x="0" y="0" width="60" height="60"/>
                <use id="zoomplus" xlink:href="#zoomPlus" x="17" y="9" onmousedown="handleZoom(evt,'in')"/>
                <use id="zoomminus" xlink:href="#zoomMin" x="42" y="9" onmousedown="handleZoom(evt,'out')"/>
                <use id="reset" xlink:href="#resetDef" x="30" y="36" onmousedown="handleReset()"/>
                <g id="arrowUp" xlink:href="#dirArrow" transform="translate(30 24)" onmousedown="handlePan(0,-1)">
                  <use xlink:href="#rim" fill="#404040">
                        <set attributeName="fill" to="#808080" begin="arrowUp.mouseover" end="arrowUp.mouseout"/>
                  </use>
                  <path fill="none" stroke="white" stroke-width="1.5" d="M0,-3.0v7 M-2.5,-0.5L0,-3.0L2.5,-0.5"/>
                </g>
                <g id="arrowRight" xlink:href="#dirArrow" transform="rotate(90) translate(36 -43)" onmousedown="handlePan(1,0)">
                  <use xlink:href="#rim" fill="#404040">
                        <set attributeName="fill" to="#808080" begin="arrowRight.mouseover" end="arrowRight.mouseout"/>
                  </use>
                  <path fill="none" stroke="white" stroke-width="1.5" d="M0,-3.0v7 M-2.5,-0.5L0,-3.0L2.5,-0.5"/>
                </g>
                <g id="arrowDown" xlink:href="#dirArrow" transform="rotate(180) translate(-30 -48)" onmousedown="handlePan(0,1)">
                  <use xlink:href="#rim" fill="#404040">
                        <set attributeName="fill" to="#808080" begin="arrowDown.mouseover" end="arrowDown.mouseout"/>
                  </use>
                  <path fill="none" stroke="white" stroke-width="1.5" d="M0,-3.0v7 M-2.5,-0.5L0,-3.0L2.5,-0.5"/>
                </g>
                <g id="arrowLeft" xlink:href="#dirArrow" transform="rotate(270) translate(-36 17)" onmousedown="handlePan(-1,0)">
                  <use xlink:href="#rim" fill="#404040">
                        <set attributeName="fill" to="#808080" begin="arrowLeft.mouseover" end="arrowLeft.mouseout"/>
                  </use>
                  <path fill="none" stroke="white" stroke-width="1.5" d="M0,-3.0v7 M-2.5,-0.5L0,-3.0L2.5,-0.5"/>
                </g>
        </g>
</svg>
