<?xml version="1.0" encoding="UTF-8" standalone="no"?>
<!DOCTYPE svg PUBLIC "-//W3C//DTD SVG 1.1//EN"
 "http://www.w3.org/Graphics/SVG/1.1/DTD/svg11.dtd">
<!-- Generated by graphviz version 2.26.3 (20100126.1600)
 -->
<!-- Title: G Pages: 1 -->
<!--zoomable 544 -->
<svg id="main" version="1.1" xmlns="http://www.w3.org/2000/svg" xmlns:xlink="http://www.w3.org/1999/xlink" xml:space="preserve" onload="init(evt)">
        <defs>
                <circle id="rim" cx="0" cy="0" r="7"/>
                <circle id="rim2" cx="0" cy="0" r="3.5"/>
                <g id="zoomPlus">
                        <use xlink:href="#rim" fill="#404040">
                                <set attributeName="fill" to="#808080" begin="zoomplus.mouseover" end="zoomplus.mouseout"/>
                        </use>
                        <path d="M-4,0h8M0,-4v8" fill="none" stroke="white" stroke-width="1.5" pointer-events="none"/>
                </g>
                <g id="zoomMin">
                        <use xlink:href="#rim" fill="#404040">
                                <set attributeName="fill" to="#808080" begin="zoomminus.mouseover" end="zoomminus.mouseout"/>
                        </use>
                        <path d="M-4,0h8" fill="none" stroke="white" stroke-width="1.5" pointer-events="none"/>
                </g>
                <g id="dirArrow">
                        <path fill="none" stroke="white" stroke-width="1.5" d="M0,-3.0v7 M-2.5,-0.5L0,-3.0L2.5,-0.5"/>
                </g>
               <g id="resetDef">
                       <use xlink:href="#rim2" fill="#404040">
                               <set attributeName="fill" to="#808080" begin="reset.mouseover" end="reset.mouseout"/>
                       </use>
               </g>
        </defs>

<script type="text/javascript">
var viewWidth = 854;
var viewHeight = 544;
var sectionId = 'dynsection-1';
</script>
<script xlink:href="svgpan.js"/>
<svg id="graph" class="graph">
<g id="viewport">
<title>G</title>
<polygon fill="white" stroke="white" points="-4,5 -4,-540 851,-540 851,5 -4,5"/>
<!-- Node1 -->
<g id="node1" class="node"><title>Node1</title>
<polygon fill="#bfbfbf" stroke="black" points="393.5,-230.5 393.5,-251.5 474.5,-251.5 474.5,-230.5 393.5,-230.5"/>
<text text-anchor="middle" x="434" y="-238.5" font-family="FreeSans.ttf" font-size="10.00">SocketServer</text>
</g>
<!-- Node7 -->
<g id="node12" class="node"><title>Node7</title>
<a xlink:href="classServer.xhtml" target="_top" xlink:title="The core of the game server.">
<polygon fill="white" stroke="black" points="367,-144.5 367,-165.5 415,-165.5 415,-144.5 367,-144.5"/>
<text text-anchor="middle" x="391" y="-152.5" font-family="FreeSans.ttf" font-size="10.00">Server</text>
</a>
</g>
<!-- Node1&#45;&gt;Node7 -->
<g id="edge44" class="edge"><title>Node1&#45;&gt;Node7</title>
<path fill="none" stroke="#9a32cd" stroke-dasharray="5,2" d="M448.951,-221.772C456.001,-210.22 461.409,-195.567 454,-184 445.492,-170.718 429.195,-163.435 415.308,-159.49"/>
<polygon fill="#9a32cd" stroke="#9a32cd" points="445.908,-220.022 443.159,-230.254 451.689,-223.969 445.908,-220.022"/>
<text text-anchor="middle" x="482" y="-194.5" font-family="FreeSans.ttf" font-size="10.00"> m_socket</text>
</g>
<!-- Node2 -->
<g id="node2" class="node"><title>Node2</title>
<a xlink:href="classSocket.xhtml" target="_top" xlink:title="Functions and interfaces that are common to both SocketClient and SocketServer.">
<polygon fill="white" stroke="black" points="409,-356.5 409,-377.5 459,-377.5 459,-356.5 409,-356.5"/>
<text text-anchor="middle" x="434" y="-364.5" font-family="FreeSans.ttf" font-size="10.00">Socket</text>
</a>
</g>
<!-- Node2&#45;&gt;Node1 -->
<g id="edge2" class="edge"><title>Node2&#45;&gt;Node1</title>
<path fill="none" stroke="midnightblue" d="M434,-345.906C434,-318.731 434,-272.523 434,-251.715"/>
<polygon fill="midnightblue" stroke="midnightblue" points="430.5,-346.257 434,-356.257 437.5,-346.257 430.5,-346.257"/>
</g>
<!-- Node9 -->
<g id="node16" class="node"><title>Node9</title>
<a xlink:href="classSocketClient.xhtml" target="_top" xlink:title="Client / remote host specific functions that extend the Socket class.">
<polygon fill="white" stroke="black" points="515.5,-72.5 515.5,-93.5 592.5,-93.5 592.5,-72.5 515.5,-72.5"/>
<text text-anchor="middle" x="554" y="-80.5" font-family="FreeSans.ttf" font-size="10.00">SocketClient</text>
</a>
</g>
<!-- Node2&#45;&gt;Node9 -->
<g id="edge18" class="edge"><title>Node2&#45;&gt;Node9</title>
<path fill="none" stroke="midnightblue" d="M444.667,-347.348C460.367,-317.985 490.095,-260.681 511,-210 528.398,-167.822 544.361,-115.784 550.888,-93.7081"/>
<polygon fill="midnightblue" stroke="midnightblue" points="441.568,-345.72 439.913,-356.185 447.733,-349.036 441.568,-345.72"/>
</g>
<!-- Node3 -->
<g id="node4" class="node"><title>Node3</title>
<polygon fill="white" stroke="#bfbfbf" points="-0.5,-454.5 -0.5,-475.5 62.5,-475.5 62.5,-454.5 -0.5,-454.5"/>
<text text-anchor="middle" x="31" y="-462.5" font-family="FreeSans.ttf" font-size="10.00">signed int</text>
</g>
<!-- Node3&#45;&gt;Node2 -->
<g id="edge4" class="edge"><title>Node3&#45;&gt;Node2</title>
<path fill="none" stroke="#9a32cd" stroke-dasharray="5,2" d="M59.7531,-449.687C91.2835,-433.614 143.821,-408.924 192,-396 269.244,-375.28 364.336,-369.347 408.821,-367.662"/>
<polygon fill="#9a32cd" stroke="#9a32cd" points="57.9507,-446.678 50.6703,-454.375 61.1617,-452.898 57.9507,-446.678"/>
<text text-anchor="middle" x="225.5" y="-413.5" font-family="FreeSans.ttf" font-size="10.00"> m_descriptor</text>
</g>
<!-- Node4 -->
<g id="node6" class="node"><title>Node4</title>
<a xlink:title="STL class.">
<polygon fill="white" stroke="#bfbfbf" points="546.5,-454.5 546.5,-475.5 611.5,-475.5 611.5,-454.5 546.5,-454.5"/>
<text text-anchor="middle" x="579" y="-462.5" font-family="FreeSans.ttf" font-size="10.00">std::string</text>
</a>
</g>
<!-- Node4&#45;&gt;Node2 -->
<g id="edge6" class="edge"><title>Node4&#45;&gt;Node2</title>
<path fill="none" stroke="#9a32cd" stroke-dasharray="5,2" d="M536.501,-454.041C523.523,-449.601 509.623,-443.671 498,-436 473.591,-419.889 452.026,-392.574 441.262,-377.599"/>
<polygon fill="#9a32cd" stroke="#9a32cd" points="535.601,-457.428 546.192,-457.15 537.739,-450.762 535.601,-457.428"/>
<text text-anchor="middle" x="531.5" y="-413.5" font-family="FreeSans.ttf" font-size="10.00"> m_hostname</text>
</g>
<!-- Node4&#45;&gt;Node9 -->
<g id="edge30" class="edge"><title>Node4&#45;&gt;Node9</title>
<path fill="none" stroke="#9a32cd" stroke-dasharray="5,2" d="M579,-444.371C579,-424.539 579,-393.72 579,-367 579,-367 579,-367 579,-155 579,-132.241 567.715,-107.562 560.309,-93.8175"/>
<polygon fill="#9a32cd" stroke="#9a32cd" points="575.5,-444.414 579,-454.414 582.5,-444.414 575.5,-444.414"/>
<text text-anchor="middle" x="604" y="-245" font-family="FreeSans.ttf" font-size="10.00"> m_output</text>
<text text-anchor="middle" x="604" y="-232" font-family="FreeSans.ttf" font-size="10.00">m_input</text>
</g>
<!-- Node10 -->
<g id="node20" class="node"><title>Node10</title>
<polygon fill="white" stroke="#bfbfbf" points="606.5,-144.5 606.5,-165.5 723.5,-165.5 723.5,-144.5 606.5,-144.5"/>
<text text-anchor="middle" x="665" y="-152.5" font-family="FreeSans.ttf" font-size="10.00">std::deque&lt; string &gt;</text>
</g>
<!-- Node4&#45;&gt;Node10 -->
<g id="edge24" class="edge"><title>Node4&#45;&gt;Node10</title>
<path fill="none" stroke="#9a32cd" stroke-dasharray="5,2" d="M589.164,-445.277C590.554,-442.213 591.885,-439.052 593,-436 630.417,-333.59 656.042,-203.422 663.059,-165.691"/>
<polygon fill="#9a32cd" stroke="#9a32cd" points="585.916,-443.952 584.706,-454.478 592.216,-447.004 585.916,-443.952"/>
<text text-anchor="middle" x="664.5" y="-302.5" font-family="FreeSans.ttf" font-size="10.00"> elements</text>
</g>
<!-- Node5 -->
<g id="node8" class="node"><title>Node5</title>
<a xlink:title="STL class.">
<polygon fill="white" stroke="#bfbfbf" points="510,-514.5 510,-535.5 648,-535.5 648,-514.5 510,-514.5"/>
<text text-anchor="middle" x="579" y="-522.5" font-family="FreeSans.ttf" font-size="10.00">std::basic_string&lt; char &gt;</text>
</a>
</g>
<!-- Node5&#45;&gt;Node4 -->
<g id="edge8" class="edge"><title>Node5&#45;&gt;Node4</title>
<path fill="none" stroke="midnightblue" d="M579,-504.231C579,-494.592 579,-483.544 579,-475.634"/>
<polygon fill="midnightblue" stroke="midnightblue" points="575.5,-504.273 579,-514.273 582.5,-504.273 575.5,-504.273"/>
</g>
<!-- Node6 -->
<g id="node10" class="node"><title>Node6</title>
<polygon fill="white" stroke="#bfbfbf" points="143.5,-454.5 143.5,-475.5 218.5,-475.5 218.5,-454.5 143.5,-454.5"/>
<text text-anchor="middle" x="181" y="-462.5" font-family="FreeSans.ttf" font-size="10.00">unsigned int</text>
</g>
<!-- Node6&#45;&gt;Node2 -->
<g id="edge10" class="edge"><title>Node6&#45;&gt;Node2</title>
<path fill="none" stroke="#9a32cd" stroke-dasharray="5,2" d="M218.102,-450.629C270.266,-430.423 363.914,-394.148 408.742,-376.784"/>
<polygon fill="#9a32cd" stroke="#9a32cd" points="216.618,-447.45 208.557,-454.326 219.146,-453.977 216.618,-447.45"/>
<text text-anchor="middle" x="388.5" y="-426.5" font-family="FreeSans.ttf" font-size="10.00"> m_bytes_sent</text>
<text text-anchor="middle" x="388.5" y="-413.5" font-family="FreeSans.ttf" font-size="10.00">m_port</text>
<text text-anchor="middle" x="388.5" y="-400.5" font-family="FreeSans.ttf" font-size="10.00">m_bytes_recvd</text>
</g>
<!-- Node6&#45;&gt;Node7 -->
<g id="edge42" class="edge"><title>Node6&#45;&gt;Node7</title>
<path fill="none" stroke="#9a32cd" stroke-dasharray="5,2" d="M175.917,-444.477C163.901,-390.408 140.595,-244.087 223,-184 245.54,-167.564 325.973,-159.61 366.821,-156.557"/>
<polygon fill="#9a32cd" stroke="#9a32cd" points="172.523,-445.336 178.201,-454.28 179.34,-443.747 172.523,-445.336"/>
<text text-anchor="middle" x="208.5" y="-328.5" font-family="FreeSans.ttf" font-size="10.00"> m_dir_close</text>
<text text-anchor="middle" x="208.5" y="-315.5" font-family="FreeSans.ttf" font-size="10.00">m_socket_close</text>
<text text-anchor="middle" x="208.5" y="-302.5" font-family="FreeSans.ttf" font-size="10.00">m_port</text>
<text text-anchor="middle" x="208.5" y="-289.5" font-family="FreeSans.ttf" font-size="10.00">m_dir_open</text>
<text text-anchor="middle" x="208.5" y="-276.5" font-family="FreeSans.ttf" font-size="10.00">m_socket_open</text>
</g>
<!-- Node6&#45;&gt;Node9 -->
<g id="edge32" class="edge"><title>Node6&#45;&gt;Node9</title>
<path fill="none" stroke="#9a32cd" stroke-dasharray="5,2" d="M159.141,-447.662C139.259,-429.787 113,-399.944 113,-367 113,-367 113,-367 113,-155 113,-65.5228 423.329,-111.887 511,-94 512.359,-93.7227 513.74,-93.4301 515.132,-93.1255"/>
<polygon fill="#9a32cd" stroke="#9a32cd" points="157.047,-450.478 166.91,-454.346 161.612,-445.171 157.047,-450.478"/>
<text text-anchor="middle" x="133" y="-245" font-family="FreeSans.ttf" font-size="10.00"> m_idle</text>
<text text-anchor="middle" x="133" y="-232" font-family="FreeSans.ttf" font-size="10.00">m_state</text>
</g>
<!-- Node7&#45;&gt;Node1 -->
<g id="edge12" class="edge"><title>Node7&#45;&gt;Node1</title>
<path fill="none" stroke="#9a32cd" stroke-dasharray="5,2" d="M393.763,-175.838C395.796,-186.529 399.243,-199.479 405,-210 409.174,-217.629 415.662,-224.811 421.443,-230.338"/>
<polygon fill="#9a32cd" stroke="#9a32cd" points="397.176,-175.022 392.119,-165.712 390.267,-176.144 397.176,-175.022"/>
<text text-anchor="middle" x="429.5" y="-194.5" font-family="FreeSans.ttf" font-size="10.00"> m_server</text>
</g>
<!-- Node7&#45;&gt;Node9 -->
<g id="edge20" class="edge"><title>Node7&#45;&gt;Node9</title>
<path fill="none" stroke="#9a32cd" stroke-dasharray="5,2" d="M420.379,-139.615C437.089,-131.084 458.511,-120.512 478,-112 493.142,-105.387 510.318,-98.7609 524.506,-93.5154"/>
<polygon fill="#9a32cd" stroke="#9a32cd" points="418.426,-136.684 411.135,-144.372 421.629,-142.909 418.426,-136.684"/>
<text text-anchor="middle" x="502.5" y="-116.5" font-family="FreeSans.ttf" font-size="10.00"> m_server</text>
</g>
<!-- Node8 -->
<g id="node14" class="node"><title>Node8</title>
<polygon fill="white" stroke="#bfbfbf" points="483,-0.5 483,-21.5 625,-21.5 625,-0.5 483,-0.5"/>
<text text-anchor="middle" x="554" y="-8.5" font-family="FreeSans.ttf" font-size="10.00">std::list&lt; SocketClient * &gt;</text>
</g>
<!-- Node8&#45;&gt;Node7 -->
<g id="edge14" class="edge"><title>Node8&#45;&gt;Node7</title>
<path fill="none" stroke="#9a32cd" stroke-dasharray="5,2" d="M476.008,-24.4192C447.797,-33.2452 418.39,-47.8506 400,-72 383.755,-93.3329 386.289,-127.178 388.944,-144.311"/>
<polygon fill="#9a32cd" stroke="#9a32cd" points="477.295,-27.6897 485.917,-21.5321 475.337,-20.9692 477.295,-27.6897"/>
<text text-anchor="middle" x="453.5" y="-80.5" font-family="FreeSans.ttf" font-size="10.00"> m_socket_client_next</text>
</g>
<!-- Node9&#45;&gt;Node8 -->
<g id="edge16" class="edge"><title>Node9&#45;&gt;Node8</title>
<path fill="none" stroke="#9a32cd" stroke-dasharray="5,2" d="M554,-62.2348C554,-48.969 554,-32.3188 554,-21.6674"/>
<polygon fill="#9a32cd" stroke="#9a32cd" points="550.5,-62.3761 554,-72.3762 557.5,-62.3762 550.5,-62.3761"/>
<text text-anchor="middle" x="578.5" y="-44.5" font-family="FreeSans.ttf" font-size="10.00"> elements</text>
</g>
<!-- Node10&#45;&gt;Node9 -->
<g id="edge22" class="edge"><title>Node10&#45;&gt;Node9</title>
<path fill="none" stroke="#9a32cd" stroke-dasharray="5,2" d="M640.099,-138.848C618.829,-125.051 588.837,-105.597 570.446,-93.6674"/>
<polygon fill="#9a32cd" stroke="#9a32cd" points="638.327,-141.871 648.622,-144.376 642.137,-135.998 638.327,-141.871"/>
<text text-anchor="middle" x="670.5" y="-116.5" font-family="FreeSans.ttf" font-size="10.00"> m_command_queue</text>
</g>
<!-- Node11 -->
<g id="node23" class="node"><title>Node11</title>
<a xlink:title="STL class.">
<polygon fill="white" stroke="#bfbfbf" points="684.5,-230.5 684.5,-251.5 779.5,-251.5 779.5,-230.5 684.5,-230.5"/>
<text text-anchor="middle" x="732" y="-238.5" font-family="FreeSans.ttf" font-size="10.00">std::deque&lt; T &gt;</text>
</a>
</g>
<!-- Node11&#45;&gt;Node10 -->
<g id="edge26" class="edge"><title>Node11&#45;&gt;Node10</title>
<path fill="none" stroke="orange" stroke-dasharray="5,2" d="M713.026,-223.273C708.89,-219.075 704.66,-214.504 701,-210 689.195,-195.476 677.741,-176.989 671.033,-165.577"/>
<polygon fill="orange" stroke="orange" points="710.635,-225.83 720.225,-230.334 715.536,-220.833 710.635,-225.83"/>
<text text-anchor="middle" x="727.5" y="-194.5" font-family="FreeSans.ttf" font-size="10.00"> &lt; string &gt;</text>
</g>
<!-- Node12 -->
<g id="node25" class="node"><title>Node12</title>
<polygon fill="white" stroke="#bfbfbf" points="755.5,-356.5 755.5,-377.5 784.5,-377.5 784.5,-356.5 755.5,-356.5"/>
<text text-anchor="middle" x="770" y="-364.5" font-family="FreeSans.ttf" font-size="10.00">T</text>
</g>
<!-- Node12&#45;&gt;Node11 -->
<g id="edge28" class="edge"><title>Node12&#45;&gt;Node11</title>
<path fill="none" stroke="#9a32cd" stroke-dasharray="5,2" d="M747.081,-352.053C742.651,-348.043 738.589,-343.319 736,-338 722.061,-309.356 726.523,-270.136 729.814,-251.569"/>
<polygon fill="#9a32cd" stroke="#9a32cd" points="745.194,-355.023 755.21,-358.477 749.534,-349.531 745.194,-355.023"/>
<text text-anchor="middle" x="760.5" y="-302.5" font-family="FreeSans.ttf" font-size="10.00"> elements</text>
</g>
<!-- Node13 -->
<g id="node29" class="node"><title>Node13</title>
<a xlink:title="STL class.">
<polygon fill="white" stroke="#bfbfbf" points="762.5,-186.5 762.5,-207.5 841.5,-207.5 841.5,-186.5 762.5,-186.5"/>
<text text-anchor="middle" x="802" y="-194.5" font-family="FreeSans.ttf" font-size="10.00">std::list&lt; T &gt;</text>
</a>
</g>
<!-- Node12&#45;&gt;Node13 -->
<g id="edge36" class="edge"><title>Node12&#45;&gt;Node13</title>
<path fill="none" stroke="#9a32cd" stroke-dasharray="5,2" d="M781.365,-347.296C782.771,-344.256 784.047,-341.096 785,-338 799.51,-290.87 801.724,-231.321 801.998,-207.524"/>
<polygon fill="#9a32cd" stroke="#9a32cd" points="778.153,-345.888 776.661,-356.377 784.369,-349.107 778.153,-345.888"/>
<text text-anchor="middle" x="821.5" y="-302.5" font-family="FreeSans.ttf" font-size="10.00"> elements</text>
</g>
<!-- Node13&#45;&gt;Node8 -->
<g id="edge34" class="edge"><title>Node13&#45;&gt;Node8</title>
<path fill="none" stroke="orange" stroke-dasharray="5,2" d="M787.963,-178.289C773.668,-160.016 750.219,-132.098 726,-112 678.43,-72.5241 660.572,-70.8435 607,-40 596.092,-33.7199 583.765,-26.9553 573.746,-21.5404"/>
<polygon fill="orange" stroke="orange" points="785.337,-180.616 794.208,-186.409 790.885,-176.348 785.337,-180.616"/>
<text text-anchor="middle" x="787" y="-116.5" font-family="FreeSans.ttf" font-size="10.00"> &lt; SocketClient * &gt;</text>
</g>
<!-- Node14 -->
<g id="node32" class="node"><title>Node14</title>
<polygon fill="white" stroke="#bfbfbf" points="209,-230.5 209,-251.5 261,-251.5 261,-230.5 209,-230.5"/>
<text text-anchor="middle" x="235" y="-238.5" font-family="FreeSans.ttf" font-size="10.00">timeval</text>
</g>
<!-- Node14&#45;&gt;Node7 -->
<g id="edge38" class="edge"><title>Node14&#45;&gt;Node7</title>
<path fill="none" stroke="#9a32cd" stroke-dasharray="5,2" d="M228.126,-220.763C225.421,-208.767 224.666,-194.003 233,-184 249.736,-163.913 326.714,-157.693 366.711,-155.803"/>
<polygon fill="#9a32cd" stroke="#9a32cd" points="224.759,-221.717 230.826,-230.402 231.499,-219.829 224.759,-221.717"/>
<text text-anchor="middle" x="273" y="-201" font-family="FreeSans.ttf" font-size="10.00"> m_time_current</text>
<text text-anchor="middle" x="273" y="-188" font-family="FreeSans.ttf" font-size="10.00">m_time_boot</text>
</g>
<!-- Node15 -->
<g id="node34" class="node"><title>Node15</title>
<polygon fill="white" stroke="#bfbfbf" points="298.5,-230.5 298.5,-251.5 335.5,-251.5 335.5,-230.5 298.5,-230.5"/>
<text text-anchor="middle" x="317" y="-238.5" font-family="FreeSans.ttf" font-size="10.00">bool</text>
</g>
<!-- Node15&#45;&gt;Node7 -->
<g id="edge40" class="edge"><title>Node15&#45;&gt;Node7</title>
<path fill="none" stroke="#9a32cd" stroke-dasharray="5,2" d="M316.099,-219.934C316.647,-208.26 319.163,-194.109 327,-184 336.717,-171.467 353.069,-164.185 366.812,-160.052"/>
<polygon fill="#9a32cd" stroke="#9a32cd" points="312.598,-220.142 316.066,-230.153 319.598,-220.164 312.598,-220.142"/>
<text text-anchor="middle" x="359" y="-194.5" font-family="FreeSans.ttf" font-size="10.00"> m_shutdown</text>
</g>
</g>
</svg>
        <g id="navigator" transform="translate(0 0)" fill="#404254">
                <rect fill="#f2f5e9" fill-opacity="0.5" stroke="#606060" stroke-width=".5" x="0" y="0" width="60" height="60"/>
                <use id="zoomplus" xlink:href="#zoomPlus" x="17" y="9" onmousedown="handleZoom(evt,'in')"/>
                <use id="zoomminus" xlink:href="#zoomMin" x="42" y="9" onmousedown="handleZoom(evt,'out')"/>
                <use id="reset" xlink:href="#resetDef" x="30" y="36" onmousedown="handleReset()"/>
                <g id="arrowUp" xlink:href="#dirArrow" transform="translate(30 24)" onmousedown="handlePan(0,-1)">
                  <use xlink:href="#rim" fill="#404040">
                        <set attributeName="fill" to="#808080" begin="arrowUp.mouseover" end="arrowUp.mouseout"/>
                  </use>
                  <path fill="none" stroke="white" stroke-width="1.5" d="M0,-3.0v7 M-2.5,-0.5L0,-3.0L2.5,-0.5"/>
                </g>
                <g id="arrowRight" xlink:href="#dirArrow" transform="rotate(90) translate(36 -43)" onmousedown="handlePan(1,0)">
                  <use xlink:href="#rim" fill="#404040">
                        <set attributeName="fill" to="#808080" begin="arrowRight.mouseover" end="arrowRight.mouseout"/>
                  </use>
                  <path fill="none" stroke="white" stroke-width="1.5" d="M0,-3.0v7 M-2.5,-0.5L0,-3.0L2.5,-0.5"/>
                </g>
                <g id="arrowDown" xlink:href="#dirArrow" transform="rotate(180) translate(-30 -48)" onmousedown="handlePan(0,1)">
                  <use xlink:href="#rim" fill="#404040">
                        <set attributeName="fill" to="#808080" begin="arrowDown.mouseover" end="arrowDown.mouseout"/>
                  </use>
                  <path fill="none" stroke="white" stroke-width="1.5" d="M0,-3.0v7 M-2.5,-0.5L0,-3.0L2.5,-0.5"/>
                </g>
                <g id="arrowLeft" xlink:href="#dirArrow" transform="rotate(270) translate(-36 17)" onmousedown="handlePan(-1,0)">
                  <use xlink:href="#rim" fill="#404040">
                        <set attributeName="fill" to="#808080" begin="arrowLeft.mouseover" end="arrowLeft.mouseout"/>
                  </use>
                  <path fill="none" stroke="white" stroke-width="1.5" d="M0,-3.0v7 M-2.5,-0.5L0,-3.0L2.5,-0.5"/>
                </g>
        </g>
</svg>
