<?xml version="1.0" encoding="UTF-8" standalone="no"?>
<!DOCTYPE svg PUBLIC "-//W3C//DTD SVG 1.1//EN"
 "http://www.w3.org/Graphics/SVG/1.1/DTD/svg11.dtd">
<!-- Generated by graphviz version 2.26.3 (20100126.1600)
 -->
<!-- Title: Thing::sZone Pages: 1 -->
<svg width="1542pt" height="786pt"
 viewBox="0.00 0.00 1542.00 786.00" xmlns="http://www.w3.org/2000/svg" xmlns:xlink="http://www.w3.org/1999/xlink">
<g id="graph1" class="graph" transform="scale(1 1) rotate(0) translate(4 782)">
<title>Thing::sZone</title>
<polygon fill="white" stroke="white" points="-4,5 -4,-782 1539,-782 1539,5 -4,5"/>
<!-- Node1 -->
<g id="node1" class="node"><title>Node1</title>
<polygon fill="#bfbfbf" stroke="black" points="0.5,-682 0.5,-702 79.5,-702 79.5,-682 0.5,-682"/>
<text text-anchor="middle" x="40" y="-689" font-family="FreeSans.ttf" font-size="10.00">Thing::sZone</text>
</g>
<!-- Node2 -->
<g id="node3" class="node"><title>Node2</title>
<a xlink:href="classCharacter.xhtml#a13ee03b0f19ce2938d23115d6d661280" target="_top" xlink:title="Clones a Character from the character_template_list into the character_list.">
<polygon fill="white" stroke="black" points="128.5,-758 128.5,-778 225.5,-778 225.5,-758 128.5,-758"/>
<text text-anchor="middle" x="177" y="-765" font-family="FreeSans.ttf" font-size="10.00">Character::Clone</text>
</a>
</g>
<!-- Node1&#45;&gt;Node2 -->
<g id="edge2" class="edge"><title>Node1&#45;&gt;Node2</title>
<path fill="none" stroke="midnightblue" d="M60.8853,-708.19C75.7171,-719.204 96.3989,-733.609 116,-744 125.954,-749.277 137.332,-754.062 147.544,-757.946"/>
<polygon fill="midnightblue" stroke="midnightblue" points="62.9723,-705.38 52.881,-702.153 58.7571,-710.969 62.9723,-705.38"/>
</g>
<!-- Node3 -->
<g id="node5" class="node"><title>Node3</title>
<a xlink:href="classCharacter.xhtml#a91193d9bb29423c2ec95fb56c27d6bb3" target="_top" xlink:title="Unserialize the character data.">
<polygon fill="white" stroke="black" points="116,-644 116,-664 238,-664 238,-644 116,-644"/>
<text text-anchor="middle" x="177" y="-651" font-family="FreeSans.ttf" font-size="10.00">Character::Unserialize</text>
</a>
</g>
<!-- Node1&#45;&gt;Node3 -->
<g id="edge4" class="edge"><title>Node1&#45;&gt;Node3</title>
<path fill="none" stroke="midnightblue" d="M86.4419,-679.118C104.073,-674.228 123.888,-668.732 140.476,-664.131"/>
<polygon fill="midnightblue" stroke="midnightblue" points="85.0545,-675.871 76.3538,-681.916 86.9255,-682.616 85.0545,-675.871"/>
</g>
<!-- Node30 -->
<g id="node78" class="node"><title>Node30</title>
<a xlink:href="classLocation.xhtml#af65d15c0c107b1fdea7711d632ac909d" target="_top" xlink:title="Unserialize the location data.">
<polygon fill="white" stroke="black" points="274,-720 274,-740 390,-740 390,-720 274,-720"/>
<text text-anchor="middle" x="332" y="-727" font-family="FreeSans.ttf" font-size="10.00">Location::Unserialize</text>
</a>
</g>
<!-- Node1&#45;&gt;Node30 -->
<g id="edge96" class="edge"><title>Node1&#45;&gt;Node30</title>
<path fill="none" stroke="midnightblue" d="M85.1666,-704.53C95.252,-706.981 105.94,-709.311 116,-711 169.089,-719.914 230.265,-724.798 273.929,-727.373"/>
<polygon fill="midnightblue" stroke="midnightblue" points="85.8793,-701.1 75.3279,-702.059 84.1738,-707.89 85.8793,-701.1"/>
</g>
<!-- Node33 -->
<g id="node85" class="node"><title>Node33</title>
<a xlink:href="classObject.xhtml#a2238f4fd2bdae2764e400556c0c7e310" target="_top" xlink:title="Clones an Object from the object_template_list into the object_list.">
<polygon fill="white" stroke="black" points="137,-606 137,-626 217,-626 217,-606 137,-606"/>
<text text-anchor="middle" x="177" y="-613" font-family="FreeSans.ttf" font-size="10.00">Object::Clone</text>
</a>
</g>
<!-- Node1&#45;&gt;Node33 -->
<g id="edge104" class="edge"><title>Node1&#45;&gt;Node33</title>
<path fill="none" stroke="midnightblue" d="M58.837,-674.968C73.516,-662.446 94.8868,-645.797 116,-635 122.814,-631.515 130.387,-628.529 137.813,-626.025"/>
<polygon fill="midnightblue" stroke="midnightblue" points="56.2542,-672.577 51.0201,-681.788 60.8562,-677.851 56.2542,-672.577"/>
</g>
<!-- Node34 -->
<g id="node87" class="node"><title>Node34</title>
<a xlink:href="classObject.xhtml#a194a597210a8466f7a1668d6383c5b70" target="_top" xlink:title="Unserialize the object data.">
<polygon fill="white" stroke="black" points="124,-682 124,-702 230,-702 230,-682 124,-682"/>
<text text-anchor="middle" x="177" y="-689" font-family="FreeSans.ttf" font-size="10.00">Object::Unserialize</text>
</a>
</g>
<!-- Node1&#45;&gt;Node34 -->
<g id="edge106" class="edge"><title>Node1&#45;&gt;Node34</title>
<path fill="none" stroke="midnightblue" d="M89.629,-692C100.784,-692 112.663,-692 123.951,-692"/>
<polygon fill="midnightblue" stroke="midnightblue" points="89.6261,-688.5 79.6261,-692 89.626,-695.5 89.6261,-688.5"/>
</g>
<!-- Node4 -->
<g id="node7" class="node"><title>Node4</title>
<a xlink:href="classCharacter.xhtml#a59fd38e0e8347e4e242603cc82ae551b" target="_top" xlink:title="Create a new character.">
<polygon fill="white" stroke="black" points="287,-606 287,-626 377,-626 377,-606 287,-606"/>
<text text-anchor="middle" x="332" y="-613" font-family="FreeSans.ttf" font-size="10.00">Character::New</text>
</a>
</g>
<!-- Node3&#45;&gt;Node4 -->
<g id="edge6" class="edge"><title>Node3&#45;&gt;Node4</title>
<path fill="none" stroke="midnightblue" d="M227.912,-641.518C248.357,-636.506 271.611,-630.805 290.947,-626.065"/>
<polygon fill="midnightblue" stroke="midnightblue" points="227.009,-638.136 218.13,-643.916 228.676,-644.935 227.009,-638.136"/>
</g>
<!-- Node5 -->
<g id="node9" class="node"><title>Node5</title>
<a xlink:href="namespaceHandler.xhtml#ab5889a65de2794129b375ec39ae923ae" target="_top" xlink:title="Select a new Character name.">
<polygon fill="white" stroke="black" points="426.5,-322 426.5,-342 595.5,-342 595.5,-322 426.5,-322"/>
<text text-anchor="middle" x="511" y="-329" font-family="FreeSans.ttf" font-size="10.00">Handler::CharacterCreateName</text>
</a>
</g>
<!-- Node4&#45;&gt;Node5 -->
<g id="edge8" class="edge"><title>Node4&#45;&gt;Node5</title>
<path fill="none" stroke="midnightblue" d="M343.856,-597.19C378.387,-542.404 478.109,-384.184 504.519,-342.283"/>
<polygon fill="midnightblue" stroke="midnightblue" points="340.742,-595.566 338.371,-605.892 346.664,-599.299 340.742,-595.566"/>
</g>
<!-- Node18 -->
<g id="node47" class="node"><title>Node18</title>
<a xlink:href="namespaceHandler.xhtml#ae70e4e50054c729c14493eafefe01b5c" target="_top" xlink:title="Load a character from the account to enter into the game with.">
<polygon fill="white" stroke="black" points="816.5,-0 816.5,-20 947.5,-20 947.5,-0 816.5,-0"/>
<text text-anchor="middle" x="882" y="-7" font-family="FreeSans.ttf" font-size="10.00">Handler::LoadCharacter</text>
</a>
</g>
<!-- Node4&#45;&gt;Node18 -->
<g id="edge88" class="edge"><title>Node4&#45;&gt;Node18</title>
<path fill="none" stroke="midnightblue" d="M333.955,-595.696C339.786,-544.051 360.904,-405.252 426,-313 543.154,-146.972 611.498,-132.323 792,-39 807.312,-31.0836 825.203,-24.7825 840.983,-20.1034"/>
<polygon fill="midnightblue" stroke="midnightblue" points="330.451,-595.548 332.882,-605.861 337.413,-596.283 330.451,-595.548"/>
</g>
<!-- Node21 -->
<g id="node55" class="node"><title>Node21</title>
<a xlink:href="namespaceServer.xhtml#a16ea0639731dee10e1a253375b508a02" target="_top" xlink:title="Recovers the server state and re&#45;connects client sockets after a reboot.">
<polygon fill="white" stroke="black" points="1028,-606 1028,-626 1158,-626 1158,-606 1028,-606"/>
<text text-anchor="middle" x="1093" y="-613" font-family="FreeSans.ttf" font-size="10.00">Server::RebootRecovery</text>
</a>
</g>
<!-- Node4&#45;&gt;Node21 -->
<g id="edge94" class="edge"><title>Node4&#45;&gt;Node21</title>
<path fill="none" stroke="midnightblue" d="M387.324,-616C524.647,-616 880.607,-616 1027.81,-616"/>
<polygon fill="midnightblue" stroke="midnightblue" points="387.044,-612.5 377.044,-616 387.044,-619.5 387.044,-612.5"/>
</g>
<!-- Node29 -->
<g id="node74" class="node"><title>Node29</title>
<a xlink:href="namespaceServer.xhtml#a04744ab6fef0eabc2a6c30d111b9074f" target="_top" xlink:title="Search all subfolders of CFG_DAT_DIR_WORLD and call Character::New() to load each file found to memor...">
<polygon fill="white" stroke="black" points="642.5,-644 642.5,-664 745.5,-664 745.5,-644 642.5,-644"/>
<text text-anchor="middle" x="694" y="-651" font-family="FreeSans.ttf" font-size="10.00">Server::LoadNPCs</text>
</a>
</g>
<!-- Node4&#45;&gt;Node29 -->
<g id="edge90" class="edge"><title>Node4&#45;&gt;Node29</title>
<path fill="none" stroke="midnightblue" d="M387.329,-624.791C400.016,-626.654 413.46,-628.506 426,-630 501.029,-638.939 588.236,-646.163 642.279,-650.271"/>
<polygon fill="midnightblue" stroke="midnightblue" points="387.756,-621.316 377.349,-623.302 386.723,-628.24 387.756,-621.316"/>
</g>
<!-- Node6 -->
<g id="node11" class="node"><title>Node6</title>
<a xlink:href="namespaceHandler.xhtml#a139febc000c9d767a620708148e0c888" target="_top" xlink:title="Dispatches the appropriate menu based on client state.">
<polygon fill="white" stroke="black" points="632.5,-322 632.5,-342 755.5,-342 755.5,-322 632.5,-322"/>
<text text-anchor="middle" x="694" y="-329" font-family="FreeSans.ttf" font-size="10.00">Handler::LoginHandler</text>
</a>
</g>
<!-- Node5&#45;&gt;Node6 -->
<g id="edge10" class="edge"><title>Node5&#45;&gt;Node6</title>
<path fill="none" stroke="midnightblue" d="M605.774,-325.254C614.842,-325.275 623.867,-325.385 632.492,-325.583"/>
<polygon fill="midnightblue" stroke="midnightblue" points="605.532,-321.754 595.536,-325.267 605.541,-328.754 605.532,-321.754"/>
</g>
<!-- Node6&#45;&gt;Node5 -->
<g id="edge28" class="edge"><title>Node6&#45;&gt;Node5</title>
<path fill="none" stroke="midnightblue" d="M622.316,-338.607C613.531,-338.736 604.489,-338.777 595.536,-338.733"/>
<polygon fill="midnightblue" stroke="midnightblue" points="622.559,-342.103 632.492,-338.417 622.428,-335.105 622.559,-342.103"/>
</g>
<!-- Node7 -->
<g id="node13" class="node"><title>Node7</title>
<a xlink:href="namespaceHandler.xhtml#a33a19d69ead678af81fbe96907eceaf0" target="_top" xlink:title="Create a new account object, or load an existing one, with a name and password.">
<polygon fill="white" stroke="black" points="816.5,-530 816.5,-550 947.5,-550 947.5,-530 816.5,-530"/>
<text text-anchor="middle" x="882" y="-537" font-family="FreeSans.ttf" font-size="10.00">Handler::AttachAccount</text>
</a>
</g>
<!-- Node6&#45;&gt;Node7 -->
<g id="edge12" class="edge"><title>Node6&#45;&gt;Node7</title>
<path fill="none" stroke="midnightblue" d="M699.758,-351.982C710.437,-389.753 737.378,-470.454 792,-512 804.965,-521.861 821.886,-526.88 837.553,-529.92"/>
<polygon fill="midnightblue" stroke="midnightblue" points="703.077,-350.851 697.059,-342.13 696.325,-352.7 703.077,-350.851"/>
</g>
<!-- Node8 -->
<g id="node16" class="node"><title>Node8</title>
<a xlink:href="namespaceHandler.xhtml#a2e4ebf6ed049eb872aa4948d54c4932c" target="_top" xlink:title="Attempt to write a new character to disk after creation was completed.">
<polygon fill="white" stroke="black" points="812.5,-492 812.5,-512 951.5,-512 951.5,-492 812.5,-492"/>
<text text-anchor="middle" x="882" y="-499" font-family="FreeSans.ttf" font-size="10.00">Handler::AttachCharacter</text>
</a>
</g>
<!-- Node6&#45;&gt;Node8 -->
<g id="edge16" class="edge"><title>Node6&#45;&gt;Node8</title>
<path fill="none" stroke="midnightblue" d="M703.422,-351.776C717.306,-383.109 746.628,-442.854 792,-474 806.482,-483.942 825.136,-488.848 841.702,-491.924"/>
<polygon fill="midnightblue" stroke="midnightblue" points="706.506,-350.093 699.304,-342.322 700.088,-352.888 706.506,-350.093"/>
</g>
<!-- Node9 -->
<g id="node19" class="node"><title>Node9</title>
<a xlink:href="namespaceHandler.xhtml#a73ed6064f2698dbffb5f4c247a02b661" target="_top" xlink:title="Send initial account interface menu.">
<polygon fill="white" stroke="black" points="808,-454 808,-474 956,-474 956,-454 808,-454"/>
<text text-anchor="middle" x="882" y="-461" font-family="FreeSans.ttf" font-size="10.00">Handler::AccountMenuMain</text>
</a>
</g>
<!-- Node6&#45;&gt;Node9 -->
<g id="edge20" class="edge"><title>Node6&#45;&gt;Node9</title>
<path fill="none" stroke="midnightblue" d="M708.642,-350.267C725.389,-374.071 755.293,-414.384 792,-436 808.788,-445.886 830.015,-450.665 847.637,-453.933"/>
<polygon fill="midnightblue" stroke="midnightblue" points="711.479,-348.216 702.881,-342.026 705.741,-352.227 711.479,-348.216"/>
</g>
<!-- Node10 -->
<g id="node22" class="node"><title>Node10</title>
<a xlink:href="namespaceHandler.xhtml#ad04998a7a6ece2486bc441052a57c2d7" target="_top" xlink:title="Main Character creation menu.">
<polygon fill="white" stroke="black" points="812,-404 812,-436 952,-436 952,-404 812,-404"/>
<text text-anchor="start" x="820" y="-423" font-family="FreeSans.ttf" font-size="10.00">Handler::CharacterCreate</text>
<text text-anchor="middle" x="882" y="-411" font-family="FreeSans.ttf" font-size="10.00">MenuMain</text>
</a>
</g>
<!-- Node6&#45;&gt;Node10 -->
<g id="edge24" class="edge"><title>Node6&#45;&gt;Node10</title>
<path fill="none" stroke="midnightblue" d="M725.259,-347.674C743.855,-359.655 768.364,-375.412 792,-386 808.576,-393.425 827.874,-399.138 844.34,-403.97"/>
<polygon fill="midnightblue" stroke="midnightblue" points="726.941,-344.594 716.635,-342.135 723.158,-350.484 726.941,-344.594"/>
</g>
<!-- Node11 -->
<g id="node26" class="node"><title>Node11</title>
<a xlink:href="namespaceHandler.xhtml#ae5086bcf5857eb572beedd09158c3065" target="_top" xlink:title="Select a new Character sex.">
<polygon fill="white" stroke="black" points="803,-366 803,-386 961,-386 961,-366 803,-366"/>
<text text-anchor="middle" x="882" y="-373" font-family="FreeSans.ttf" font-size="10.00">Handler::CharacterCreateSex</text>
</a>
</g>
<!-- Node6&#45;&gt;Node11 -->
<g id="edge30" class="edge"><title>Node6&#45;&gt;Node11</title>
<path fill="none" stroke="midnightblue" d="M765.565,-341.692C774.453,-343.829 783.427,-346.002 792,-348 817.351,-353.907 846.906,-359.994 865.034,-365.961"/>
<polygon fill="midnightblue" stroke="midnightblue" points="766.131,-338.228 755.591,-339.306 764.503,-345.036 766.131,-338.228"/>
</g>
<!-- Node12 -->
<g id="node29" class="node"><title>Node12</title>
<a xlink:href="namespaceHandler.xhtml#a97a198bfc72285b2aca4f36978db715e" target="_top" xlink:title="Main Character deletion confirmation.">
<polygon fill="white" stroke="black" points="812.5,-316 812.5,-348 951.5,-348 951.5,-316 812.5,-316"/>
<text text-anchor="start" x="820.5" y="-335" font-family="FreeSans.ttf" font-size="10.00">Handler::CharacterDelete</text>
<text text-anchor="middle" x="882" y="-323" font-family="FreeSans.ttf" font-size="10.00">Confirm</text>
</a>
</g>
<!-- Node6&#45;&gt;Node12 -->
<g id="edge34" class="edge"><title>Node6&#45;&gt;Node12</title>
<path fill="none" stroke="midnightblue" d="M765.972,-325.418C781.235,-325.181 797.319,-325.195 812.488,-325.458"/>
<polygon fill="midnightblue" stroke="midnightblue" points="765.488,-321.926 755.558,-325.621 765.625,-328.925 765.488,-321.926"/>
</g>
<!-- Node13 -->
<g id="node32" class="node"><title>Node13</title>
<a xlink:href="namespaceHandler.xhtml#afc470ec6e82b7a9a1560588a368734f9" target="_top" xlink:title="Main Character deletion menu.">
<polygon fill="white" stroke="black" points="812.5,-266 812.5,-298 951.5,-298 951.5,-266 812.5,-266"/>
<text text-anchor="start" x="820.5" y="-285" font-family="FreeSans.ttf" font-size="10.00">Handler::CharacterDelete</text>
<text text-anchor="middle" x="882" y="-273" font-family="FreeSans.ttf" font-size="10.00">MenuMain</text>
</a>
</g>
<!-- Node6&#45;&gt;Node13 -->
<g id="edge38" class="edge"><title>Node6&#45;&gt;Node13</title>
<path fill="none" stroke="midnightblue" d="M724.718,-318.684C748.455,-310.918 782.243,-301.466 812.422,-293.961"/>
<polygon fill="midnightblue" stroke="midnightblue" points="723.555,-315.382 715.201,-321.898 725.795,-322.014 723.555,-315.382"/>
</g>
<!-- Node14 -->
<g id="node35" class="node"><title>Node14</title>
<a xlink:href="namespaceHandler.xhtml#a02b1b954749641ab646f6548a5360d3b" target="_top" xlink:title="Main Character load menu.">
<polygon fill="white" stroke="black" points="792.5,-228 792.5,-248 971.5,-248 971.5,-228 792.5,-228"/>
<text text-anchor="middle" x="882" y="-235" font-family="FreeSans.ttf" font-size="10.00">Handler::CharacterLoadMenuMain</text>
</a>
</g>
<!-- Node6&#45;&gt;Node14 -->
<g id="edge42" class="edge"><title>Node6&#45;&gt;Node14</title>
<path fill="none" stroke="midnightblue" d="M705.952,-313.981C723.314,-294.13 757.249,-263.965 792,-248 792.145,-247.933 792.29,-247.867 792.436,-247.801"/>
<polygon fill="midnightblue" stroke="midnightblue" points="703.191,-311.829 699.572,-321.786 708.611,-316.259 703.191,-311.829"/>
</g>
<!-- Node15 -->
<g id="node38" class="node"><title>Node15</title>
<a xlink:href="namespaceHandler.xhtml#a00bc24564bfd267e0329643c569da1e4" target="_top" xlink:title="Select a new account name.">
<polygon fill="white" stroke="black" points="813.5,-190 813.5,-210 950.5,-210 950.5,-190 813.5,-190"/>
<text text-anchor="middle" x="882" y="-197" font-family="FreeSans.ttf" font-size="10.00">Handler::GetNewAccount</text>
</a>
</g>
<!-- Node6&#45;&gt;Node15 -->
<g id="edge46" class="edge"><title>Node6&#45;&gt;Node15</title>
<path fill="none" stroke="midnightblue" d="M701.977,-312.487C716.513,-284.529 749.751,-234.88 792,-210 798.605,-206.11 805.897,-203.011 813.387,-200.602"/>
<polygon fill="midnightblue" stroke="midnightblue" points="698.713,-311.197 697.486,-321.72 705.008,-314.259 698.713,-311.197"/>
</g>
<!-- Node16 -->
<g id="node41" class="node"><title>Node16</title>
<a xlink:href="namespaceHandler.xhtml#a744adadcf407cdb3a9c33365afd5a7c2" target="_top" xlink:title="Create a new account.">
<polygon fill="white" stroke="black" points="811,-152 811,-172 953,-172 953,-152 811,-152"/>
<text text-anchor="middle" x="882" y="-159" font-family="FreeSans.ttf" font-size="10.00">Handler::GetNewPassword</text>
</a>
</g>
<!-- Node6&#45;&gt;Node16 -->
<g id="edge50" class="edge"><title>Node6&#45;&gt;Node16</title>
<path fill="none" stroke="midnightblue" d="M699.189,-312.107C710.677,-277.233 741.33,-206.783 792,-172 797.793,-168.023 804.253,-164.852 810.98,-162.373"/>
<polygon fill="midnightblue" stroke="midnightblue" points="695.83,-311.121 696.237,-321.708 702.521,-313.178 695.83,-311.121"/>
</g>
<!-- Node17 -->
<g id="node44" class="node"><title>Node17</title>
<a xlink:href="namespaceHandler.xhtml#adfe13cc9748392348f3941656a1323b6" target="_top" xlink:title="Compare a received password against an existing account.">
<polygon fill="white" stroke="black" points="813.5,-114 813.5,-134 950.5,-134 950.5,-114 813.5,-114"/>
<text text-anchor="middle" x="882" y="-121" font-family="FreeSans.ttf" font-size="10.00">Handler::GetOldPassword</text>
</a>
</g>
<!-- Node6&#45;&gt;Node17 -->
<g id="edge54" class="edge"><title>Node6&#45;&gt;Node17</title>
<path fill="none" stroke="midnightblue" d="M697.254,-312.041C705.797,-271.142 732.445,-179.297 792,-134 798.355,-129.166 805.661,-125.496 813.304,-122.786"/>
<polygon fill="midnightblue" stroke="midnightblue" points="693.803,-311.449 695.349,-321.931 700.677,-312.773 693.803,-311.449"/>
</g>
<!-- Node6&#45;&gt;Node18 -->
<g id="edge58" class="edge"><title>Node6&#45;&gt;Node18</title>
<path fill="none" stroke="midnightblue" d="M700.077,-311.995C711.75,-279.276 737.767,-213.559 756,-157 774.658,-99.1236 748.88,-67.8771 792,-25 798.765,-18.2727 807.193,-13.3714 816.157,-9.92205"/>
<polygon fill="midnightblue" stroke="midnightblue" points="696.659,-311.171 696.7,-321.766 703.275,-313.458 696.659,-311.171"/>
</g>
<!-- Node19 -->
<g id="node50" class="node"><title>Node19</title>
<a xlink:href="namespaceHandler.xhtml#a44b41bf69fdc6e615a029bea34910191" target="_top" xlink:title="Send initial greeting and request for account name.">
<polygon fill="white" stroke="black" points="822.5,-568 822.5,-588 941.5,-588 941.5,-568 822.5,-568"/>
<text text-anchor="middle" x="882" y="-575" font-family="FreeSans.ttf" font-size="10.00">Handler::LoginScreen</text>
</a>
</g>
<!-- Node6&#45;&gt;Node19 -->
<g id="edge62" class="edge"><title>Node6&#45;&gt;Node19</title>
<path fill="none" stroke="midnightblue" d="M697.266,-351.989C704.805,-395.454 727.968,-497.619 792,-550 803.99,-559.808 819.815,-564.911 834.847,-567.957"/>
<polygon fill="midnightblue" stroke="midnightblue" points="700.708,-351.346 695.636,-342.044 693.8,-352.479 700.708,-351.346"/>
</g>
<!-- Node20 -->
<g id="node53" class="node"><title>Node20</title>
<a xlink:href="classSocketClient.xhtml#a8399ef20292e9f3ec83b5c4bec2e105b" target="_top" xlink:title="Build a SocketClient for a new client connection and set all attributes.">
<polygon fill="white" stroke="black" points="830.5,-76 830.5,-96 933.5,-96 933.5,-76 830.5,-76"/>
<text text-anchor="middle" x="882" y="-83" font-family="FreeSans.ttf" font-size="10.00">SocketClient::New</text>
</a>
</g>
<!-- Node6&#45;&gt;Node20 -->
<g id="edge66" class="edge"><title>Node6&#45;&gt;Node20</title>
<path fill="none" stroke="midnightblue" d="M701.309,-312.308C720.986,-259.737 774.749,-119.112 792,-105 802.754,-96.203 816.592,-91.1909 830.178,-88.407"/>
<polygon fill="midnightblue" stroke="midnightblue" points="697.966,-311.257 697.751,-321.85 704.525,-313.703 697.966,-311.257"/>
</g>
<!-- Node27 -->
<g id="node68" class="node"><title>Node27</title>
<a xlink:href="classSocketClient.xhtml#ad4f63c7d906310dc56a1217136047d7f" target="_top" xlink:title="Interpret the command at the front of the queue.">
<polygon fill="white" stroke="black" points="1008,-38 1008,-58 1178,-58 1178,-38 1008,-38"/>
<text text-anchor="middle" x="1093" y="-45" font-family="FreeSans.ttf" font-size="10.00">SocketClient::ProcessCommand</text>
</a>
</g>
<!-- Node6&#45;&gt;Node27 -->
<g id="edge82" class="edge"><title>Node6&#45;&gt;Node27</title>
<path fill="none" stroke="midnightblue" d="M701.427,-312.283C713.118,-281.21 736.491,-218.934 756,-166 772.191,-122.07 754.518,-95.055 792,-67 824.959,-42.3306 930.998,-40.799 1007.9,-43.2882"/>
<polygon fill="midnightblue" stroke="midnightblue" points="698.052,-311.314 697.805,-321.906 704.604,-313.78 698.052,-311.314"/>
</g>
<!-- Node7&#45;&gt;Node6 -->
<g id="edge14" class="edge"><title>Node7&#45;&gt;Node6</title>
<path fill="none" stroke="midnightblue" d="M806.533,-538.51C801.363,-536.197 796.449,-533.384 792,-530 726.985,-480.55 701.187,-375.625 695.349,-342.069"/>
<polygon fill="midnightblue" stroke="midnightblue" points="805.478,-541.854 816.069,-542.149 807.974,-535.314 805.478,-541.854"/>
</g>
<!-- Node8&#45;&gt;Node6 -->
<g id="edge18" class="edge"><title>Node8&#45;&gt;Node6</title>
<path fill="none" stroke="midnightblue" d="M803.078,-498.32C799.202,-496.488 795.481,-494.389 792,-492 736.088,-453.618 704.549,-371.809 696.237,-342.292"/>
<polygon fill="midnightblue" stroke="midnightblue" points="801.78,-501.571 812.36,-502.124 804.434,-495.093 801.78,-501.571"/>
</g>
<!-- Node9&#45;&gt;Node6 -->
<g id="edge22" class="edge"><title>Node9&#45;&gt;Node6</title>
<path fill="none" stroke="midnightblue" d="M798.215,-457.338C796.089,-456.297 794.012,-455.185 792,-454 744.562,-426.064 708.486,-366.903 697.486,-342.28"/>
<polygon fill="midnightblue" stroke="midnightblue" points="797.245,-460.73 807.814,-461.46 800.007,-454.298 797.245,-460.73"/>
</g>
<!-- Node10&#45;&gt;Node6 -->
<g id="edge26" class="edge"><title>Node10&#45;&gt;Node6</title>
<path fill="none" stroke="midnightblue" d="M802.435,-408.324C798.875,-406.958 795.381,-405.514 792,-404 755.082,-387.463 716.034,-358.313 700.717,-342.06"/>
<polygon fill="midnightblue" stroke="midnightblue" points="801.387,-411.666 811.981,-411.757 803.756,-405.079 801.387,-411.666"/>
</g>
<!-- Node11&#45;&gt;Node6 -->
<g id="edge32" class="edge"><title>Node11&#45;&gt;Node6</title>
<path fill="none" stroke="midnightblue" d="M793.008,-366.234C792.671,-366.156 792.335,-366.078 792,-366 762.245,-359.067 727.664,-350.009 708.564,-342.092"/>
<polygon fill="midnightblue" stroke="midnightblue" points="792.411,-369.688 802.939,-368.497 793.966,-362.863 792.411,-369.688"/>
</g>
<!-- Node12&#45;&gt;Node6 -->
<g id="edge36" class="edge"><title>Node12&#45;&gt;Node6</title>
<path fill="none" stroke="midnightblue" d="M802.309,-338.68C786.671,-338.834 770.492,-338.734 755.558,-338.379"/>
<polygon fill="midnightblue" stroke="midnightblue" points="802.537,-342.177 812.488,-338.542 802.442,-335.178 802.537,-342.177"/>
</g>
<!-- Node13&#45;&gt;Node6 -->
<g id="edge40" class="edge"><title>Node13&#45;&gt;Node6</title>
<path fill="none" stroke="midnightblue" d="M832.964,-301.052C809.303,-308.187 780.67,-315.925 755.558,-322.007"/>
<polygon fill="midnightblue" stroke="midnightblue" points="834.244,-304.32 842.775,-298.038 832.188,-297.629 834.244,-304.32"/>
</g>
<!-- Node14&#45;&gt;Node6 -->
<g id="edge44" class="edge"><title>Node14&#45;&gt;Node6</title>
<path fill="none" stroke="midnightblue" d="M845.404,-250.139C828.582,-253.712 808.704,-258.326 792,-266 760.266,-280.578 729.213,-306.998 710.839,-321.946"/>
<polygon fill="midnightblue" stroke="midnightblue" points="846.361,-253.515 855.426,-248.031 844.92,-246.664 846.361,-253.515"/>
</g>
<!-- Node15&#45;&gt;Node6 -->
<g id="edge48" class="edge"><title>Node15&#45;&gt;Node6</title>
<path fill="none" stroke="midnightblue" d="M837.398,-212.088C822.211,-215.307 805.64,-219.967 792,-228 750.604,-252.378 717.859,-300.534 702.881,-321.974"/>
<polygon fill="midnightblue" stroke="midnightblue" points="838.504,-215.438 847.637,-210.067 837.149,-208.57 838.504,-215.438"/>
</g>
<!-- Node16&#45;&gt;Node6 -->
<g id="edge52" class="edge"><title>Node16&#45;&gt;Node6</title>
<path fill="none" stroke="midnightblue" d="M831.803,-174.112C818.008,-177.261 803.654,-182 792,-190 741.499,-224.667 710.882,-294.764 699.304,-321.678"/>
<polygon fill="midnightblue" stroke="midnightblue" points="832.612,-177.519 841.702,-172.076 831.202,-170.662 832.612,-177.519"/>
</g>
<!-- Node17&#45;&gt;Node6 -->
<g id="edge56" class="edge"><title>Node17&#45;&gt;Node6</title>
<path fill="none" stroke="midnightblue" d="M827.52,-136.295C814.923,-139.453 802.23,-144.219 792,-152 731.986,-197.647 705.388,-290.561 697.059,-321.87"/>
<polygon fill="midnightblue" stroke="midnightblue" points="828.542,-139.653 837.553,-134.08 827.033,-132.818 828.542,-139.653"/>
</g>
<!-- Node18&#45;&gt;Node6 -->
<g id="edge60" class="edge"><title>Node18&#45;&gt;Node6</title>
<path fill="none" stroke="midnightblue" d="M832.178,-22.4163C817.597,-26.272 802.714,-32.346 792,-43 748.88,-85.8771 774.658,-117.124 756,-175 737.877,-231.218 712.064,-296.484 700.289,-321.806"/>
<polygon fill="midnightblue" stroke="midnightblue" points="833.233,-25.7639 842.169,-20.0724 831.634,-18.9489 833.233,-25.7639"/>
</g>
<!-- Node19&#45;&gt;Node6 -->
<g id="edge64" class="edge"><title>Node19&#45;&gt;Node6</title>
<path fill="none" stroke="midnightblue" d="M812.609,-579.514C805.155,-576.742 798.084,-572.977 792,-568 717.743,-507.254 698.449,-379.554 694.747,-342.121"/>
<polygon fill="midnightblue" stroke="midnightblue" points="811.621,-582.872 822.21,-582.51 813.707,-576.19 811.621,-582.872"/>
</g>
<!-- Node20&#45;&gt;Node21 -->
<g id="edge68" class="edge"><title>Node20&#45;&gt;Node21</title>
<path fill="none" stroke="midnightblue" d="M943.684,-89.4007C954.194,-92.5 964.212,-97.4002 972,-105 1047.85,-179.02 1085.73,-540.079 1092.05,-605.744"/>
<polygon fill="midnightblue" stroke="midnightblue" points="944.487,-85.9942 933.944,-87.0349 942.835,-92.7964 944.487,-85.9942"/>
</g>
<!-- Node24 -->
<g id="node61" class="node"><title>Node24</title>
<a xlink:href="classSocketServer.xhtml#afdbc60c3bc840875d2214b59c6213f63" target="_top" xlink:title="Accept a new connection on the listening port.">
<polygon fill="white" stroke="black" points="1033,-76 1033,-96 1153,-96 1153,-76 1033,-76"/>
<text text-anchor="middle" x="1093" y="-83" font-family="FreeSans.ttf" font-size="10.00">SocketServer::Accept</text>
</a>
</g>
<!-- Node20&#45;&gt;Node24 -->
<g id="edge74" class="edge"><title>Node20&#45;&gt;Node24</title>
<path fill="none" stroke="midnightblue" d="M943.731,-86C971.855,-86 1005.02,-86 1032.94,-86"/>
<polygon fill="midnightblue" stroke="midnightblue" points="943.616,-82.5001 933.616,-86 943.616,-89.5001 943.616,-82.5001"/>
</g>
<!-- Node22 -->
<g id="node57" class="node"><title>Node22</title>
<a xlink:href="namespaceServer.xhtml#a19a1e493e1fb50a56d9c77332543d565" target="_top" xlink:title="Start the NAMS Server. Responsible for calling all critical boot&#45;time functions such as SocketServer ...">
<polygon fill="white" stroke="black" points="1227,-644 1227,-664 1317,-664 1317,-644 1227,-644"/>
<text text-anchor="middle" x="1272" y="-651" font-family="FreeSans.ttf" font-size="10.00">Server::Startup</text>
</a>
</g>
<!-- Node21&#45;&gt;Node22 -->
<g id="edge70" class="edge"><title>Node21&#45;&gt;Node22</title>
<path fill="none" stroke="midnightblue" d="M1150.47,-628.2C1175.16,-633.441 1203.59,-639.478 1226.75,-644.394"/>
<polygon fill="midnightblue" stroke="midnightblue" points="1151.01,-624.737 1140.5,-626.084 1149.55,-631.584 1151.01,-624.737"/>
</g>
<!-- Node23 -->
<g id="node59" class="node"><title>Node23</title>
<a xlink:href="main_8cpp.xhtml#ad53223b8779f25caeddb70a3b9172967" target="_top" xlink:title="The default function required to execute the server.">
<polygon fill="white" stroke="black" points="1492.5,-227 1492.5,-247 1533.5,-247 1533.5,-227 1492.5,-227"/>
<text text-anchor="middle" x="1513" y="-234" font-family="FreeSans.ttf" font-size="10.00">main</text>
</a>
</g>
<!-- Node22&#45;&gt;Node23 -->
<g id="edge72" class="edge"><title>Node22&#45;&gt;Node23</title>
<path fill="none" stroke="midnightblue" d="M1283.2,-634.621C1325.57,-561.312 1475.24,-302.334 1507.04,-247.321"/>
<polygon fill="midnightblue" stroke="midnightblue" points="1279.93,-633.283 1277.96,-643.692 1285.99,-636.785 1279.93,-633.283"/>
</g>
<!-- Node25 -->
<g id="node63" class="node"><title>Node25</title>
<a xlink:href="namespaceServer.xhtml#a39dbe16fdc8c5f6fbd678c6540fbcd6c" target="_top" xlink:title="Poll all SocketClient objects that are communicating with the associated SocketServer object...">
<polygon fill="white" stroke="black" points="1217.5,-76 1217.5,-96 1326.5,-96 1326.5,-76 1217.5,-76"/>
<text text-anchor="middle" x="1272" y="-83" font-family="FreeSans.ttf" font-size="10.00">Server::PollSockets</text>
</a>
</g>
<!-- Node24&#45;&gt;Node25 -->
<g id="edge76" class="edge"><title>Node24&#45;&gt;Node25</title>
<path fill="none" stroke="midnightblue" d="M1163.27,-86C1181.28,-86 1200.39,-86 1217.48,-86"/>
<polygon fill="midnightblue" stroke="midnightblue" points="1163.1,-82.5001 1153.1,-86 1163.1,-89.5001 1163.1,-82.5001"/>
</g>
<!-- Node26 -->
<g id="node65" class="node"><title>Node26</title>
<a xlink:href="namespaceServer.xhtml#a50b81aa91d8fdaee6f52c5c5ec987990" target="_top" xlink:title="The core update loop of NAMS. This loop spawns all other subsystem update routines and then sleeps fo...">
<polygon fill="white" stroke="black" points="1366.5,-76 1366.5,-96 1455.5,-96 1455.5,-76 1366.5,-76"/>
<text text-anchor="middle" x="1411" y="-83" font-family="FreeSans.ttf" font-size="10.00">Server::Update</text>
</a>
</g>
<!-- Node25&#45;&gt;Node26 -->
<g id="edge78" class="edge"><title>Node25&#45;&gt;Node26</title>
<path fill="none" stroke="midnightblue" d="M1336.57,-86C1346.69,-86 1356.94,-86 1366.47,-86"/>
<polygon fill="midnightblue" stroke="midnightblue" points="1336.54,-82.5001 1326.54,-86 1336.54,-89.5001 1336.54,-82.5001"/>
</g>
<!-- Node26&#45;&gt;Node23 -->
<g id="edge80" class="edge"><title>Node26&#45;&gt;Node23</title>
<path fill="none" stroke="midnightblue" d="M1423.79,-104.938C1445.64,-137.276 1489.4,-202.062 1506.21,-226.946"/>
<polygon fill="midnightblue" stroke="midnightblue" points="1426.51,-102.706 1418.01,-96.3788 1420.71,-106.625 1426.51,-102.706"/>
</g>
<!-- Node28 -->
<g id="node70" class="node"><title>Node28</title>
<a xlink:href="namespaceServer.xhtml#a2b4cec469bb99c2a45e49de5ba74d1ae" target="_top" xlink:title="Processes input from all active SocketClient objects.">
<polygon fill="white" stroke="black" points="1214,-38 1214,-58 1330,-58 1330,-38 1214,-38"/>
<text text-anchor="middle" x="1272" y="-45" font-family="FreeSans.ttf" font-size="10.00">Server::ProcessInput</text>
</a>
</g>
<!-- Node27&#45;&gt;Node28 -->
<g id="edge84" class="edge"><title>Node27&#45;&gt;Node28</title>
<path fill="none" stroke="midnightblue" d="M1188.25,-48C1196.93,-48 1205.54,-48 1213.75,-48"/>
<polygon fill="midnightblue" stroke="midnightblue" points="1188.04,-44.5001 1178.04,-48 1188.04,-51.5001 1188.04,-44.5001"/>
</g>
<!-- Node28&#45;&gt;Node26 -->
<g id="edge86" class="edge"><title>Node28&#45;&gt;Node26</title>
<path fill="none" stroke="midnightblue" d="M1318.62,-60.7447C1336.63,-65.6694 1356.96,-71.2251 1373.94,-75.8693"/>
<polygon fill="midnightblue" stroke="midnightblue" points="1319.45,-57.3445 1308.88,-58.0835 1317.61,-64.0968 1319.45,-57.3445"/>
</g>
<!-- Node29&#45;&gt;Node22 -->
<g id="edge92" class="edge"><title>Node29&#45;&gt;Node22</title>
<path fill="none" stroke="midnightblue" d="M755.767,-654C872.782,-654 1124.24,-654 1226.92,-654"/>
<polygon fill="midnightblue" stroke="midnightblue" points="755.548,-650.5 745.548,-654 755.548,-657.5 755.548,-650.5"/>
</g>
<!-- Node31 -->
<g id="node80" class="node"><title>Node31</title>
<a xlink:href="classLocation.xhtml#a6396aba5eab9bcbabb000c3f6478e1a2" target="_top" xlink:title="Create a new location.">
<polygon fill="white" stroke="black" points="469.5,-720 469.5,-740 552.5,-740 552.5,-720 469.5,-720"/>
<text text-anchor="middle" x="511" y="-727" font-family="FreeSans.ttf" font-size="10.00">Location::New</text>
</a>
</g>
<!-- Node30&#45;&gt;Node31 -->
<g id="edge98" class="edge"><title>Node30&#45;&gt;Node31</title>
<path fill="none" stroke="midnightblue" d="M400.281,-730C423.527,-730 448.8,-730 469.323,-730"/>
<polygon fill="midnightblue" stroke="midnightblue" points="400.116,-726.5 390.116,-730 400.116,-733.5 400.116,-726.5"/>
</g>
<!-- Node32 -->
<g id="node82" class="node"><title>Node32</title>
<a xlink:href="namespaceServer.xhtml#a9b8efad79a32f2356d431788449e1f82" target="_top" xlink:title="Search all subfolders of CFG_DAT_DIR_WORLD and call Location::New() to load each file found to memory...">
<polygon fill="white" stroke="black" points="632.5,-720 632.5,-740 755.5,-740 755.5,-720 632.5,-720"/>
<text text-anchor="middle" x="694" y="-727" font-family="FreeSans.ttf" font-size="10.00">Server::LoadLocations</text>
</a>
</g>
<!-- Node31&#45;&gt;Node32 -->
<g id="edge100" class="edge"><title>Node31&#45;&gt;Node32</title>
<path fill="none" stroke="midnightblue" d="M562.548,-730C584.29,-730 609.776,-730 632.491,-730"/>
<polygon fill="midnightblue" stroke="midnightblue" points="562.526,-726.5 552.526,-730 562.525,-733.5 562.526,-726.5"/>
</g>
<!-- Node32&#45;&gt;Node22 -->
<g id="edge102" class="edge"><title>Node32&#45;&gt;Node22</title>
<path fill="none" stroke="midnightblue" d="M765.977,-736.41C861.983,-742.727 1036.3,-746.35 1178,-706 1209.03,-697.164 1241.05,-676.523 1258.55,-664.067"/>
<polygon fill="midnightblue" stroke="midnightblue" points="766.016,-732.904 755.8,-735.711 765.536,-739.888 766.016,-732.904"/>
</g>
<!-- Node35 -->
<g id="node89" class="node"><title>Node35</title>
<a xlink:href="classObject.xhtml#abbf694ca0643b6bd1e0b5fbc8d6ade24" target="_top" xlink:title="Create a new object.">
<polygon fill="white" stroke="black" points="295,-682 295,-702 369,-702 369,-682 295,-682"/>
<text text-anchor="middle" x="332" y="-689" font-family="FreeSans.ttf" font-size="10.00">Object::New</text>
</a>
</g>
<!-- Node34&#45;&gt;Node35 -->
<g id="edge108" class="edge"><title>Node34&#45;&gt;Node35</title>
<path fill="none" stroke="midnightblue" d="M240.444,-692C258.881,-692 278.417,-692 294.686,-692"/>
<polygon fill="midnightblue" stroke="midnightblue" points="240.342,-688.5 230.342,-692 240.342,-695.5 240.342,-688.5"/>
</g>
<!-- Node36 -->
<g id="node91" class="node"><title>Node36</title>
<a xlink:href="namespaceServer.xhtml#a0a8c7c124f8cc8e5e6a9c7b067be5ff5" target="_top" xlink:title="Search all subfolders of CFG_DAT_DIR_WORLD and call Object::New() to load each file found to memory...">
<polygon fill="white" stroke="black" points="454.5,-682 454.5,-702 567.5,-702 567.5,-682 454.5,-682"/>
<text text-anchor="middle" x="511" y="-689" font-family="FreeSans.ttf" font-size="10.00">Server::LoadObjects</text>
</a>
</g>
<!-- Node35&#45;&gt;Node36 -->
<g id="edge110" class="edge"><title>Node35&#45;&gt;Node36</title>
<path fill="none" stroke="midnightblue" d="M379.281,-692C402.27,-692 430.079,-692 454.21,-692"/>
<polygon fill="midnightblue" stroke="midnightblue" points="379.089,-688.5 369.089,-692 379.089,-695.5 379.089,-688.5"/>
</g>
<!-- Node36&#45;&gt;Node22 -->
<g id="edge112" class="edge"><title>Node36&#45;&gt;Node22</title>
<path fill="none" stroke="midnightblue" d="M577.958,-692.064C698.316,-691.629 959.092,-688.176 1178,-668 1193.94,-666.531 1211.29,-664.165 1226.7,-661.793"/>
<polygon fill="midnightblue" stroke="midnightblue" points="577.786,-688.564 567.796,-692.095 577.807,-695.564 577.786,-688.564"/>
</g>
</g>
</svg>
