<?xml version="1.0" encoding="UTF-8" standalone="no"?>
<!DOCTYPE svg PUBLIC "-//W3C//DTD SVG 1.1//EN"
 "http://www.w3.org/Graphics/SVG/1.1/DTD/svg11.dtd">
<!-- Generated by graphviz version 2.26.3 (20100126.1600)
 -->
<!-- Title: G Pages: 1 -->
<!--zoomable 230 -->
<svg id="main" version="1.1" xmlns="http://www.w3.org/2000/svg" xmlns:xlink="http://www.w3.org/1999/xlink" xml:space="preserve" onload="init(evt)">
        <defs>
                <circle id="rim" cx="0" cy="0" r="7"/>
                <circle id="rim2" cx="0" cy="0" r="3.5"/>
                <g id="zoomPlus">
                        <use xlink:href="#rim" fill="#404040">
                                <set attributeName="fill" to="#808080" begin="zoomplus.mouseover" end="zoomplus.mouseout"/>
                        </use>
                        <path d="M-4,0h8M0,-4v8" fill="none" stroke="white" stroke-width="1.5" pointer-events="none"/>
                </g>
                <g id="zoomMin">
                        <use xlink:href="#rim" fill="#404040">
                                <set attributeName="fill" to="#808080" begin="zoomminus.mouseover" end="zoomminus.mouseout"/>
                        </use>
                        <path d="M-4,0h8" fill="none" stroke="white" stroke-width="1.5" pointer-events="none"/>
                </g>
                <g id="dirArrow">
                        <path fill="none" stroke="white" stroke-width="1.5" d="M0,-3.0v7 M-2.5,-0.5L0,-3.0L2.5,-0.5"/>
                </g>
               <g id="resetDef">
                       <use xlink:href="#rim2" fill="#404040">
                               <set attributeName="fill" to="#808080" begin="reset.mouseover" end="reset.mouseout"/>
                       </use>
               </g>
        </defs>

<script type="text/javascript">
var viewWidth = 1190;
var viewHeight = 230;
var sectionId = 'dynsection-2';
</script>
<script xlink:href="svgpan.js"/>
<svg id="graph" class="graph">
<g id="viewport">
<title>G</title>
<polygon fill="white" stroke="white" points="-4,5 -4,-226 1187,-226 1187,5 -4,5"/>
<!-- Node1 -->
<g id="node1" class="node"><title>Node1</title>
<polygon fill="#bfbfbf" stroke="black" points="0.5,-80.5 0.5,-101.5 93.5,-101.5 93.5,-80.5 0.5,-80.5"/>
<text text-anchor="middle" x="47" y="-88.5" font-family="FreeSans.ttf" font-size="10.00">Account::Delete</text>
</g>
<!-- Node2 -->
<g id="node3" class="node"><title>Node2</title>
<a xlink:href="namespaceHandler.xhtml#a33a19d69ead678af81fbe96907eceaf0" target="_top" xlink:title="Create a new account object, or load an existing one, with a name and password.">
<polygon fill="white" stroke="black" points="140.5,-100.5 140.5,-121.5 271.5,-121.5 271.5,-100.5 140.5,-100.5"/>
<text text-anchor="middle" x="206" y="-108.5" font-family="FreeSans.ttf" font-size="10.00">Handler::AttachAccount</text>
</a>
</g>
<!-- Node1&#45;&gt;Node2 -->
<g id="edge2" class="edge"><title>Node1&#45;&gt;Node2</title>
<path fill="none" stroke="midnightblue" d="M103.988,-98.1683C115.774,-99.6509 128.28,-101.224 140.346,-102.742"/>
<polygon fill="midnightblue" stroke="midnightblue" points="104.204,-94.668 93.8453,-96.8925 103.33,-101.613 104.204,-94.668"/>
</g>
<!-- Node16 -->
<g id="node37" class="node"><title>Node16</title>
<a xlink:href="classSocketClient.xhtml#af4ecba63b08737b5be4fef324cef1df6" target="_top" xlink:title="Destructor for the SocketClient class.">
<polygon fill="white" stroke="black" points="130.5,-60.5 130.5,-81.5 281.5,-81.5 281.5,-60.5 130.5,-60.5"/>
<text text-anchor="middle" x="206" y="-68.5" font-family="FreeSans.ttf" font-size="10.00">SocketClient::~SocketClient</text>
</a>
</g>
<!-- Node1&#45;&gt;Node16 -->
<g id="edge42" class="edge"><title>Node1&#45;&gt;Node16</title>
<path fill="none" stroke="midnightblue" d="M104.02,-83.8277C112.538,-82.7563 121.431,-81.6376 130.262,-80.5268"/>
<polygon fill="midnightblue" stroke="midnightblue" points="103.33,-80.3868 93.8453,-85.1075 104.204,-87.332 103.33,-80.3868"/>
</g>
<!-- Node3 -->
<g id="node5" class="node"><title>Node3</title>
<a xlink:href="namespaceHandler.xhtml#af650e47f3d4baf393b54376d1eaa1fa9" target="_top" xlink:title="Handle SocketClient objects who have not fully logged into the game yet.">
<polygon fill="white" stroke="black" points="318.5,-100.5 318.5,-121.5 441.5,-121.5 441.5,-100.5 318.5,-100.5"/>
<text text-anchor="middle" x="380" y="-108.5" font-family="FreeSans.ttf" font-size="10.00">Handler::ProcessLogin</text>
</a>
</g>
<!-- Node2&#45;&gt;Node3 -->
<g id="edge4" class="edge"><title>Node2&#45;&gt;Node3</title>
<path fill="none" stroke="midnightblue" d="M281.936,-104.299C294.133,-104.191 306.624,-104.262 318.43,-104.513"/>
<polygon fill="midnightblue" stroke="midnightblue" points="281.735,-100.801 271.782,-104.432 281.827,-107.8 281.735,-100.801"/>
</g>
<!-- Node3&#45;&gt;Node2 -->
<g id="edge16" class="edge"><title>Node3&#45;&gt;Node2</title>
<path fill="none" stroke="midnightblue" d="M308.373,-117.655C296.26,-117.806 283.736,-117.777 271.782,-117.568"/>
<polygon fill="midnightblue" stroke="midnightblue" points="308.49,-121.154 318.43,-117.487 308.373,-114.155 308.49,-121.154"/>
</g>
<!-- Node4 -->
<g id="node7" class="node"><title>Node4</title>
<a xlink:href="namespaceHandler.xhtml#a142c6f0b9e36e54eba3d72f9db2dfe40" target="_top" xlink:title="Redirect to the appropriate subsystem based on socket state.">
<polygon fill="white" stroke="black" points="498.5,-200.5 498.5,-221.5 599.5,-221.5 599.5,-200.5 498.5,-200.5"/>
<text text-anchor="middle" x="549" y="-208.5" font-family="FreeSans.ttf" font-size="10.00">Handler::Interpret</text>
</a>
</g>
<!-- Node3&#45;&gt;Node4 -->
<g id="edge6" class="edge"><title>Node3&#45;&gt;Node4</title>
<path fill="none" stroke="midnightblue" d="M397.211,-128.839C415.622,-146.95 446.458,-174.595 478,-191 485.158,-194.723 493.092,-197.824 500.988,-200.385"/>
<polygon fill="midnightblue" stroke="midnightblue" points="399.654,-126.332 390.115,-121.721 394.696,-131.274 399.654,-126.332"/>
</g>
<!-- Node9 -->
<g id="node18" class="node"><title>Node9</title>
<a xlink:href="namespaceHandler.xhtml#a00bc24564bfd267e0329643c569da1e4" target="_top" xlink:title="Select a new account name.">
<polygon fill="white" stroke="black" points="480.5,-160.5 480.5,-181.5 617.5,-181.5 617.5,-160.5 480.5,-160.5"/>
<text text-anchor="middle" x="549" y="-168.5" font-family="FreeSans.ttf" font-size="10.00">Handler::GetNewAccount</text>
</a>
</g>
<!-- Node3&#45;&gt;Node9 -->
<g id="edge18" class="edge"><title>Node3&#45;&gt;Node9</title>
<path fill="none" stroke="midnightblue" d="M433.245,-125.331C447.647,-130.879 463.315,-136.953 478,-142 497.135,-148.577 519.696,-154.654 534.164,-160.458"/>
<polygon fill="midnightblue" stroke="midnightblue" points="434.095,-121.908 423.504,-121.593 431.586,-128.443 434.095,-121.908"/>
</g>
<!-- Node10 -->
<g id="node21" class="node"><title>Node10</title>
<a xlink:href="namespaceHandler.xhtml#a744adadcf407cdb3a9c33365afd5a7c2" target="_top" xlink:title="Create a new account.">
<polygon fill="white" stroke="black" points="478,-120.5 478,-141.5 620,-141.5 620,-120.5 478,-120.5"/>
<text text-anchor="middle" x="549" y="-128.5" font-family="FreeSans.ttf" font-size="10.00">Handler::GetNewPassword</text>
</a>
</g>
<!-- Node3&#45;&gt;Node10 -->
<g id="edge22" class="edge"><title>Node3&#45;&gt;Node10</title>
<path fill="none" stroke="midnightblue" d="M452.125,-112.85C471.747,-114.966 492.28,-117.684 509.365,-120.489"/>
<polygon fill="midnightblue" stroke="midnightblue" points="452.276,-109.347 441.97,-111.802 451.557,-116.31 452.276,-109.347"/>
</g>
<!-- Node11 -->
<g id="node24" class="node"><title>Node11</title>
<a xlink:href="namespaceHandler.xhtml#adfe13cc9748392348f3941656a1323b6" target="_top" xlink:title="Compare a received password against an existing account.">
<polygon fill="white" stroke="black" points="480.5,-80.5 480.5,-101.5 617.5,-101.5 617.5,-80.5 480.5,-80.5"/>
<text text-anchor="middle" x="549" y="-88.5" font-family="FreeSans.ttf" font-size="10.00">Handler::GetOldPassword</text>
</a>
</g>
<!-- Node3&#45;&gt;Node11 -->
<g id="edge26" class="edge"><title>Node3&#45;&gt;Node11</title>
<path fill="none" stroke="midnightblue" d="M429.695,-98.906C445.499,-96.5198 463.272,-94.2723 480.177,-92.4991"/>
<polygon fill="midnightblue" stroke="midnightblue" points="428.958,-95.4789 419.623,-100.49 430.045,-102.394 428.958,-95.4789"/>
</g>
<!-- Node12 -->
<g id="node27" class="node"><title>Node12</title>
<a xlink:href="namespaceHandler.xhtml#a44b41bf69fdc6e615a029bea34910191" target="_top" xlink:title="Send initial greeting and request for account name.">
<polygon fill="white" stroke="black" points="489.5,-40.5 489.5,-61.5 608.5,-61.5 608.5,-40.5 489.5,-40.5"/>
<text text-anchor="middle" x="549" y="-48.5" font-family="FreeSans.ttf" font-size="10.00">Handler::LoginScreen</text>
</a>
</g>
<!-- Node3&#45;&gt;Node12 -->
<g id="edge30" class="edge"><title>Node3&#45;&gt;Node12</title>
<path fill="none" stroke="midnightblue" d="M399.652,-95.3672C419.262,-84.6248 450.371,-71.4962 478,-62 481.633,-60.7513 485.39,-59.5205 489.191,-58.3353"/>
<polygon fill="midnightblue" stroke="midnightblue" points="397.876,-92.3507 391.014,-100.423 401.412,-98.392 397.876,-92.3507"/>
</g>
<!-- Node13 -->
<g id="node30" class="node"><title>Node13</title>
<a xlink:href="classSocketClient.xhtml#a553658a2c076ea71ddcd1758fc64a925" target="_top" xlink:title="Build a SocketClient for a new client connection and set all attributes.">
<polygon fill="white" stroke="black" points="497.5,-0.5 497.5,-21.5 600.5,-21.5 600.5,-0.5 497.5,-0.5"/>
<text text-anchor="middle" x="549" y="-8.5" font-family="FreeSans.ttf" font-size="10.00">SocketClient::New</text>
</a>
</g>
<!-- Node3&#45;&gt;Node13 -->
<g id="edge34" class="edge"><title>Node3&#45;&gt;Node13</title>
<path fill="none" stroke="midnightblue" d="M397.211,-93.1612C415.622,-75.05 446.458,-47.4047 478,-31 485.158,-27.2773 493.092,-24.1757 500.988,-21.6148"/>
<polygon fill="midnightblue" stroke="midnightblue" points="394.696,-90.7259 390.115,-100.279 399.654,-95.668 394.696,-90.7259"/>
</g>
<!-- Node5 -->
<g id="node9" class="node"><title>Node5</title>
<a xlink:href="classSocketClient.xhtml#ad4f63c7d906310dc56a1217136047d7f" target="_top" xlink:title="Interpret the command at the front of the queue.">
<polygon fill="white" stroke="black" points="656,-190.5 656,-211.5 826,-211.5 826,-190.5 656,-190.5"/>
<text text-anchor="middle" x="741" y="-198.5" font-family="FreeSans.ttf" font-size="10.00">SocketClient::ProcessCommand</text>
</a>
</g>
<!-- Node4&#45;&gt;Node5 -->
<g id="edge8" class="edge"><title>Node4&#45;&gt;Node5</title>
<path fill="none" stroke="midnightblue" d="M610.053,-207.82C624.608,-207.062 640.404,-206.239 655.824,-205.436"/>
<polygon fill="midnightblue" stroke="midnightblue" points="609.501,-204.344 599.697,-208.36 609.865,-211.335 609.501,-204.344"/>
</g>
<!-- Node6 -->
<g id="node11" class="node"><title>Node6</title>
<a xlink:href="classServer.xhtml#a2b4cec469bb99c2a45e49de5ba74d1ae" target="_top" xlink:title="Processes input from all active SocketClient objects.">
<polygon fill="white" stroke="black" points="862,-150.5 862,-171.5 978,-171.5 978,-150.5 862,-150.5"/>
<text text-anchor="middle" x="920" y="-158.5" font-family="FreeSans.ttf" font-size="10.00">Server::ProcessInput</text>
</a>
</g>
<!-- Node5&#45;&gt;Node6 -->
<g id="edge10" class="edge"><title>Node5&#45;&gt;Node6</title>
<path fill="none" stroke="midnightblue" d="M797.806,-188.306C822.023,-182.894 849.941,-176.656 872.974,-171.509"/>
<polygon fill="midnightblue" stroke="midnightblue" points="797.026,-184.894 788.03,-190.49 798.553,-191.725 797.026,-184.894"/>
</g>
<!-- Node7 -->
<g id="node13" class="node"><title>Node7</title>
<a xlink:href="classServer.xhtml#a50b81aa91d8fdaee6f52c5c5ec987990" target="_top" xlink:title="The core update loop of NAMS. This loop spawns all other subsystem update routines and then sleeps fo...">
<polygon fill="white" stroke="black" points="1014.5,-120.5 1014.5,-141.5 1103.5,-141.5 1103.5,-120.5 1014.5,-120.5"/>
<text text-anchor="middle" x="1059" y="-128.5" font-family="FreeSans.ttf" font-size="10.00">Server::Update</text>
</a>
</g>
<!-- Node6&#45;&gt;Node7 -->
<g id="edge12" class="edge"><title>Node6&#45;&gt;Node7</title>
<path fill="none" stroke="midnightblue" d="M978.811,-148.307C990.639,-145.754 1002.89,-143.11 1014.15,-140.68"/>
<polygon fill="midnightblue" stroke="midnightblue" points="978.043,-144.892 969.006,-150.423 979.52,-151.735 978.043,-144.892"/>
</g>
<!-- Node8 -->
<g id="node15" class="node"><title>Node8</title>
<a xlink:href="main_8cpp.xhtml#ad53223b8779f25caeddb70a3b9172967" target="_top" xlink:title="The default function required to execute the server.">
<polygon fill="white" stroke="black" points="1140.5,-120.5 1140.5,-141.5 1181.5,-141.5 1181.5,-120.5 1140.5,-120.5"/>
<text text-anchor="middle" x="1161" y="-128.5" font-family="FreeSans.ttf" font-size="10.00">main</text>
</a>
</g>
<!-- Node7&#45;&gt;Node8 -->
<g id="edge14" class="edge"><title>Node7&#45;&gt;Node8</title>
<path fill="none" stroke="midnightblue" d="M1113.94,-131C1123.34,-131 1132.55,-131 1140.3,-131"/>
<polygon fill="midnightblue" stroke="midnightblue" points="1113.74,-127.5 1103.74,-131 1113.74,-134.5 1113.74,-127.5"/>
</g>
<!-- Node9&#45;&gt;Node3 -->
<g id="edge20" class="edge"><title>Node9&#45;&gt;Node3</title>
<path fill="none" stroke="midnightblue" d="M470.486,-157.326C439.104,-145.996 407.303,-131.912 391.014,-121.577"/>
<polygon fill="midnightblue" stroke="midnightblue" points="469.599,-160.725 480.194,-160.747 471.926,-154.122 469.599,-160.725"/>
</g>
<!-- Node10&#45;&gt;Node3 -->
<g id="edge24" class="edge"><title>Node10&#45;&gt;Node3</title>
<path fill="none" stroke="midnightblue" d="M467.497,-128.101C450.828,-126.17 434.004,-123.871 419.623,-121.51"/>
<polygon fill="midnightblue" stroke="midnightblue" points="467.506,-131.623 477.832,-129.253 468.281,-124.667 467.506,-131.623"/>
</g>
<!-- Node11&#45;&gt;Node3 -->
<g id="edge28" class="edge"><title>Node11&#45;&gt;Node3</title>
<path fill="none" stroke="midnightblue" d="M499.389,-103.081C481.411,-105.797 460.879,-108.335 441.97,-110.198"/>
<polygon fill="midnightblue" stroke="midnightblue" points="500.031,-106.523 509.365,-101.511 498.943,-99.6085 500.031,-106.523"/>
</g>
<!-- Node12&#45;&gt;Node3 -->
<g id="edge32" class="edge"><title>Node12&#45;&gt;Node3</title>
<path fill="none" stroke="midnightblue" d="M524.442,-65.1144C510.672,-69.8357 493.248,-74.7592 478,-80 459.926,-86.212 440.363,-93.9783 423.504,-100.407"/>
<polygon fill="midnightblue" stroke="midnightblue" points="525.986,-68.2763 534.164,-61.5415 523.571,-61.7059 525.986,-68.2763"/>
</g>
<!-- Node14 -->
<g id="node32" class="node"><title>Node14</title>
<a xlink:href="classSocketServer.xhtml#afdbc60c3bc840875d2214b59c6213f63" target="_top" xlink:title="Accept a new connection on the listening port.">
<polygon fill="white" stroke="black" points="681,-80.5 681,-101.5 801,-101.5 801,-80.5 681,-80.5"/>
<text text-anchor="middle" x="741" y="-88.5" font-family="FreeSans.ttf" font-size="10.00">SocketServer::Accept</text>
</a>
</g>
<!-- Node13&#45;&gt;Node14 -->
<g id="edge36" class="edge"><title>Node13&#45;&gt;Node14</title>
<path fill="none" stroke="midnightblue" d="M601.372,-24.5558C607.706,-26.5459 614.039,-28.7055 620,-31 657.419,-45.4041 698.837,-67.3361 722.215,-80.3124"/>
<polygon fill="midnightblue" stroke="midnightblue" points="602.056,-21.1064 591.471,-21.5729 600.037,-27.8088 602.056,-21.1064"/>
</g>
<!-- Node15 -->
<g id="node34" class="node"><title>Node15</title>
<a xlink:href="classServer.xhtml#a39dbe16fdc8c5f6fbd678c6540fbcd6c" target="_top" xlink:title="Poll all SocketClient objects that are communicating with the associated SocketServer object...">
<polygon fill="white" stroke="black" points="865.5,-90.5 865.5,-111.5 974.5,-111.5 974.5,-90.5 865.5,-90.5"/>
<text text-anchor="middle" x="920" y="-98.5" font-family="FreeSans.ttf" font-size="10.00">Server::PollSockets</text>
</a>
</g>
<!-- Node14&#45;&gt;Node15 -->
<g id="edge38" class="edge"><title>Node14&#45;&gt;Node15</title>
<path fill="none" stroke="midnightblue" d="M811.268,-94.9256C829.284,-95.9321 848.391,-96.9995 865.478,-97.9541"/>
<polygon fill="midnightblue" stroke="midnightblue" points="811.282,-91.421 801.102,-94.3577 810.892,-98.4101 811.282,-91.421"/>
</g>
<!-- Node15&#45;&gt;Node7 -->
<g id="edge40" class="edge"><title>Node15&#45;&gt;Node7</title>
<path fill="none" stroke="midnightblue" d="M978.811,-113.693C990.639,-116.246 1002.89,-118.89 1014.15,-121.32"/>
<polygon fill="midnightblue" stroke="midnightblue" points="979.52,-110.265 969.006,-111.577 978.043,-117.108 979.52,-110.265"/>
</g>
</g>
</svg>
        <g id="navigator" transform="translate(0 0)" fill="#404254">
                <rect fill="#f2f5e9" fill-opacity="0.5" stroke="#606060" stroke-width=".5" x="0" y="0" width="60" height="60"/>
                <use id="zoomplus" xlink:href="#zoomPlus" x="17" y="9" onmousedown="handleZoom(evt,'in')"/>
                <use id="zoomminus" xlink:href="#zoomMin" x="42" y="9" onmousedown="handleZoom(evt,'out')"/>
                <use id="reset" xlink:href="#resetDef" x="30" y="36" onmousedown="handleReset()"/>
                <g id="arrowUp" xlink:href="#dirArrow" transform="translate(30 24)" onmousedown="handlePan(0,-1)">
                  <use xlink:href="#rim" fill="#404040">
                        <set attributeName="fill" to="#808080" begin="arrowUp.mouseover" end="arrowUp.mouseout"/>
                  </use>
                  <path fill="none" stroke="white" stroke-width="1.5" d="M0,-3.0v7 M-2.5,-0.5L0,-3.0L2.5,-0.5"/>
                </g>
                <g id="arrowRight" xlink:href="#dirArrow" transform="rotate(90) translate(36 -43)" onmousedown="handlePan(1,0)">
                  <use xlink:href="#rim" fill="#404040">
                        <set attributeName="fill" to="#808080" begin="arrowRight.mouseover" end="arrowRight.mouseout"/>
                  </use>
                  <path fill="none" stroke="white" stroke-width="1.5" d="M0,-3.0v7 M-2.5,-0.5L0,-3.0L2.5,-0.5"/>
                </g>
                <g id="arrowDown" xlink:href="#dirArrow" transform="rotate(180) translate(-30 -48)" onmousedown="handlePan(0,1)">
                  <use xlink:href="#rim" fill="#404040">
                        <set attributeName="fill" to="#808080" begin="arrowDown.mouseover" end="arrowDown.mouseout"/>
                  </use>
                  <path fill="none" stroke="white" stroke-width="1.5" d="M0,-3.0v7 M-2.5,-0.5L0,-3.0L2.5,-0.5"/>
                </g>
                <g id="arrowLeft" xlink:href="#dirArrow" transform="rotate(270) translate(-36 17)" onmousedown="handlePan(-1,0)">
                  <use xlink:href="#rim" fill="#404040">
                        <set attributeName="fill" to="#808080" begin="arrowLeft.mouseover" end="arrowLeft.mouseout"/>
                  </use>
                  <path fill="none" stroke="white" stroke-width="1.5" d="M0,-3.0v7 M-2.5,-0.5L0,-3.0L2.5,-0.5"/>
                </g>
        </g>
</svg>
