<?xml version="1.0" encoding="UTF-8" standalone="no"?>
<!DOCTYPE svg PUBLIC "-//W3C//DTD SVG 1.1//EN"
 "http://www.w3.org/Graphics/SVG/1.1/DTD/svg11.dtd">
<!-- Generated by graphviz version 2.26.3 (20100126.1600)
 -->
<!-- Title: G Pages: 1 -->
<!--zoomable 738 -->
<svg id="main" version="1.1" xmlns="http://www.w3.org/2000/svg" xmlns:xlink="http://www.w3.org/1999/xlink" xml:space="preserve" onload="init(evt)">
        <defs>
                <circle id="rim" cx="0" cy="0" r="7"/>
                <circle id="rim2" cx="0" cy="0" r="3.5"/>
                <g id="zoomPlus">
                        <use xlink:href="#rim" fill="#404040">
                                <set attributeName="fill" to="#808080" begin="zoomplus.mouseover" end="zoomplus.mouseout"/>
                        </use>
                        <path d="M-4,0h8M0,-4v8" fill="none" stroke="white" stroke-width="1.5" pointer-events="none"/>
                </g>
                <g id="zoomMin">
                        <use xlink:href="#rim" fill="#404040">
                                <set attributeName="fill" to="#808080" begin="zoomminus.mouseover" end="zoomminus.mouseout"/>
                        </use>
                        <path d="M-4,0h8" fill="none" stroke="white" stroke-width="1.5" pointer-events="none"/>
                </g>
                <g id="dirArrow">
                        <path fill="none" stroke="white" stroke-width="1.5" d="M0,-3.0v7 M-2.5,-0.5L0,-3.0L2.5,-0.5"/>
                </g>
               <g id="resetDef">
                       <use xlink:href="#rim2" fill="#404040">
                               <set attributeName="fill" to="#808080" begin="reset.mouseover" end="reset.mouseout"/>
                       </use>
               </g>
        </defs>

<script type="text/javascript">
var viewWidth = 682;
var viewHeight = 738;
var sectionId = 'dynsection-13';
</script>
<script xlink:href="svgpan.js"/>
<svg id="graph" class="graph">
<g id="viewport">
<title>G</title>
<polygon fill="white" stroke="white" points="-4,5 -4,-734 679,-734 679,5 -4,5"/>
<!-- Node1 -->
<g id="node1" class="node"><title>Node1</title>
<polygon fill="#bfbfbf" stroke="black" points="0,-393.5 0,-414.5 82,-414.5 82,-393.5 0,-393.5"/>
<text text-anchor="middle" x="41" y="-401.5" font-family="FreeSans.ttf" font-size="10.00">Account::New</text>
</g>
<!-- Node2 -->
<g id="node3" class="node"><title>Node2</title>
<a xlink:href="classSocketClient.xhtml#acdff38db903da34b2a9fcc3e12d6a796" target="_top" xlink:title="Returns the value of a SOC_LOGIN key.">
<polygon fill="white" stroke="black" points="282,-668.5 282,-689.5 396,-689.5 396,-668.5 282,-668.5"/>
<text text-anchor="middle" x="339" y="-676.5" font-family="FreeSans.ttf" font-size="10.00">SocketClient::gLogin</text>
</a>
</g>
<!-- Node1&#45;&gt;Node2 -->
<g id="edge2" class="edge"><title>Node1&#45;&gt;Node2</title>
<path fill="none" stroke="midnightblue" d="M48.1715,-414.675C74.6074,-453.242 170.856,-586.889 282,-659 284.949,-660.913 288.102,-662.668 291.356,-664.274"/>
<polygon fill="midnightblue" stroke="midnightblue" points="290.147,-667.565 300.708,-668.409 292.978,-661.164 290.147,-667.565"/>
</g>
<!-- Node3 -->
<g id="node5" class="node"><title>Node3</title>
<a xlink:href="classAccount.xhtml#ae236325fef7b2269f54e9567577e0b92" target="_top" xlink:title="Unserialize the account data.">
<polygon fill="white" stroke="black" points="125,-393.5 125,-414.5 239,-414.5 239,-393.5 125,-393.5"/>
<text text-anchor="middle" x="182" y="-401.5" font-family="FreeSans.ttf" font-size="10.00">Account::Unserialize</text>
</a>
</g>
<!-- Node1&#45;&gt;Node3 -->
<g id="edge4" class="edge"><title>Node1&#45;&gt;Node3</title>
<path fill="none" stroke="midnightblue" d="M82.1621,-404C92.3685,-404 103.573,-404 114.673,-404"/>
<polygon fill="midnightblue" stroke="midnightblue" points="114.806,-407.5 124.806,-404 114.806,-400.5 114.806,-407.5"/>
</g>
<!-- Node6 -->
<g id="node12" class="node"><title>Node6</title>
<a xlink:href="namespaceUtils.xhtml#ad21617b756ef242fbc66e63dec3e4e4d" target="_top" xlink:title="Returns a string consisting of directory/file.ext.">
<polygon fill="white" stroke="black" points="596,-456.5 596,-477.5 674,-477.5 674,-456.5 596,-456.5"/>
<text text-anchor="middle" x="635" y="-464.5" font-family="FreeSans.ttf" font-size="10.00">Utils::DirPath</text>
</a>
</g>
<!-- Node1&#45;&gt;Node6 -->
<g id="edge68" class="edge"><title>Node1&#45;&gt;Node6</title>
<path fill="none" stroke="midnightblue" d="M44.5469,-393.364C61.4332,-344.684 138.857,-142.358 282,-69 391.957,-12.649 464.887,9.86373 560,-69 618.949,-117.878 631.881,-371.713 634.427,-446.342"/>
<polygon fill="midnightblue" stroke="midnightblue" points="630.929,-446.482 634.741,-456.367 637.926,-446.262 630.929,-446.482"/>
</g>
<!-- Node19 -->
<g id="node39" class="node"><title>Node19</title>
<a xlink:href="classAccount.xhtml#a87dfcb1fd6c275ea89ec6f279e7ee8ff" target="_top" xlink:title="Serialize the account data.">
<polygon fill="white" stroke="black" points="288,-708.5 288,-729.5 390,-729.5 390,-708.5 288,-708.5"/>
<text text-anchor="middle" x="339" y="-716.5" font-family="FreeSans.ttf" font-size="10.00">Account::Serialize</text>
</a>
</g>
<!-- Node1&#45;&gt;Node19 -->
<g id="edge70" class="edge"><title>Node1&#45;&gt;Node19</title>
<path fill="none" stroke="midnightblue" d="M43.3792,-414.892C50.3617,-444.847 73.1833,-529.894 118,-585 174.009,-653.868 202.955,-658.604 282,-699 285.995,-701.042 290.247,-702.96 294.558,-704.738"/>
<polygon fill="midnightblue" stroke="midnightblue" points="293.424,-708.052 304.013,-708.402 295.954,-701.525 293.424,-708.052"/>
</g>
<!-- Node28 -->
<g id="node64" class="node"><title>Node28</title>
<a xlink:href="classSocketClient.xhtml#aaa13ed7d0aa65770b617cbf72a5c28d9" target="_top" xlink:title="Associates an Account object to the SocketClient.">
<polygon fill="white" stroke="black" points="118.5,-0.5 118.5,-21.5 245.5,-21.5 245.5,-0.5 118.5,-0.5"/>
<text text-anchor="middle" x="182" y="-8.5" font-family="FreeSans.ttf" font-size="10.00">SocketClient::sAccount</text>
</a>
</g>
<!-- Node1&#45;&gt;Node28 -->
<g id="edge72" class="edge"><title>Node1&#45;&gt;Node28</title>
<path fill="none" stroke="midnightblue" d="M41.8671,-393.44C46.5108,-339.243 70.0363,-92.6759 118,-36 121.111,-32.3236 124.833,-29.185 128.895,-26.506"/>
<polygon fill="midnightblue" stroke="midnightblue" points="130.604,-29.5609 137.626,-21.6274 127.189,-23.4502 130.604,-29.5609"/>
</g>
<!-- Node3&#45;&gt;Node2 -->
<g id="edge8" class="edge"><title>Node3&#45;&gt;Node2</title>
<path fill="none" stroke="midnightblue" d="M187.225,-414.594C198.703,-438.083 226.634,-496.456 246,-547 264.708,-595.825 245.521,-621.542 282,-659 283.399,-660.437 284.908,-661.771 286.501,-663.009"/>
<polygon fill="midnightblue" stroke="midnightblue" points="284.744,-666.039 295.064,-668.436 288.491,-660.126 284.744,-666.039"/>
</g>
<!-- Node4 -->
<g id="node7" class="node"><title>Node4</title>
<a xlink:href="namespaceUtils.xhtml#a3e236b07fd628bcaf2e7c5854dd2a281" target="_top" xlink:title="Returns a string consisting of file.ext.">
<polygon fill="white" stroke="black" points="459,-476.5 459,-497.5 533,-497.5 533,-476.5 459,-476.5"/>
<text text-anchor="middle" x="496" y="-484.5" font-family="FreeSans.ttf" font-size="10.00">Utils::FileExt</text>
</a>
</g>
<!-- Node3&#45;&gt;Node4 -->
<g id="edge6" class="edge"><title>Node3&#45;&gt;Node4</title>
<path fill="none" stroke="midnightblue" d="M221.768,-414.512C279.764,-429.842 387.346,-458.279 449.117,-474.607"/>
<polygon fill="midnightblue" stroke="midnightblue" points="448.429,-478.046 458.992,-477.218 450.218,-471.278 448.429,-478.046"/>
</g>
<!-- Node5 -->
<g id="node10" class="node"><title>Node5</title>
<a xlink:href="namespaceUtils.xhtml#a67fd451200ee8a3cc646aeba5cb9513b" target="_top" xlink:title="Begins a write to a temporary file that is intended to replace a live file.">
<polygon fill="white" stroke="black" points="454,-516.5 454,-537.5 538,-537.5 538,-516.5 454,-516.5"/>
<text text-anchor="middle" x="496" y="-524.5" font-family="FreeSans.ttf" font-size="10.00">Utils::FileOpen</text>
</a>
</g>
<!-- Node3&#45;&gt;Node5 -->
<g id="edge10" class="edge"><title>Node3&#45;&gt;Node5</title>
<path fill="none" stroke="midnightblue" d="M189.305,-414.755C204.063,-435.5 239.658,-480.779 282,-501 333.228,-525.464 398.879,-530.066 443.877,-529.753"/>
<polygon fill="midnightblue" stroke="midnightblue" points="444.055,-533.251 454,-529.598 443.947,-526.252 444.055,-533.251"/>
</g>
<!-- Node3&#45;&gt;Node6 -->
<g id="edge14" class="edge"><title>Node3&#45;&gt;Node6</title>
<path fill="none" stroke="midnightblue" d="M239.211,-399.212C314.574,-394.751 450.384,-393.135 560,-427 577.927,-432.538 596.548,-442.443 610.751,-451.01"/>
<polygon fill="midnightblue" stroke="midnightblue" points="609.055,-454.076 619.394,-456.387 612.752,-448.133 609.055,-454.076"/>
</g>
<!-- Node7 -->
<g id="node15" class="node"><title>Node7</title>
<a xlink:href="namespaceUtils.xhtml#a4a4d3dfd2ddb691bc5bcff82252c058b" target="_top" xlink:title="Splits a string in the format of key=value. Retains any whitespace in the value.">
<polygon fill="white" stroke="black" points="296,-238.5 296,-259.5 382,-259.5 382,-238.5 296,-238.5"/>
<text text-anchor="middle" x="339" y="-246.5" font-family="FreeSans.ttf" font-size="10.00">Utils::KeyValue</text>
</a>
</g>
<!-- Node3&#45;&gt;Node7 -->
<g id="edge16" class="edge"><title>Node3&#45;&gt;Node7</title>
<path fill="none" stroke="midnightblue" d="M187.141,-393.181C199.732,-367.805 234.579,-303.965 282,-269 284.494,-267.161 287.172,-265.48 289.957,-263.945"/>
<polygon fill="midnightblue" stroke="midnightblue" points="291.64,-267.02 299.129,-259.526 288.601,-260.714 291.64,-267.02"/>
</g>
<!-- Node8 -->
<g id="node17" class="node"><title>Node8</title>
<a xlink:href="namespaceUtils.xhtml#aba8fca9daa0f767d7f5af5e2b1d6b81d" target="_top" xlink:title="If the contents of keyd == valu, assigns loc = item.">
<polygon fill="white" stroke="black" points="300.5,-198.5 300.5,-219.5 377.5,-219.5 377.5,-198.5 300.5,-198.5"/>
<text text-anchor="middle" x="339" y="-206.5" font-family="FreeSans.ttf" font-size="10.00">Utils::KeySet</text>
</a>
</g>
<!-- Node3&#45;&gt;Node8 -->
<g id="edge18" class="edge"><title>Node3&#45;&gt;Node8</title>
<path fill="none" stroke="midnightblue" d="M185.192,-393.203C194.715,-362.829 225.808,-275.809 282,-229 284.868,-226.611 288.041,-224.499 291.377,-222.635"/>
<polygon fill="midnightblue" stroke="midnightblue" points="292.999,-225.739 300.497,-218.253 289.968,-219.429 292.999,-225.739"/>
</g>
<!-- Node9 -->
<g id="node19" class="node"><title>Node9</title>
<a xlink:href="namespaceUtils.xhtml#a402a36406edb7938330204e83b1abe83" target="_top" xlink:title="Returns a vector of strings split at spaces based on input.">
<polygon fill="white" stroke="black" points="294,-158.5 294,-179.5 384,-179.5 384,-158.5 294,-158.5"/>
<text text-anchor="middle" x="339" y="-166.5" font-family="FreeSans.ttf" font-size="10.00">Utils::StrTokens</text>
</a>
</g>
<!-- Node3&#45;&gt;Node9 -->
<g id="edge20" class="edge"><title>Node3&#45;&gt;Node9</title>
<path fill="none" stroke="midnightblue" d="M183.922,-393.316C190.705,-358.656 216.733,-248.171 282,-189 283.704,-187.455 285.535,-186.027 287.459,-184.709"/>
<polygon fill="midnightblue" stroke="midnightblue" points="289.438,-187.609 296.375,-179.601 285.959,-181.535 289.438,-187.609"/>
</g>
<!-- Node10 -->
<g id="node21" class="node"><title>Node10</title>
<a xlink:href="namespaceUtils.xhtml#acf9ee675ffc2d73b7b2a2a71aa68e36a" target="_top" xlink:title="Returns if string s1 is a prefix of string s2.">
<polygon fill="white" stroke="black" points="297,-118.5 297,-139.5 381,-139.5 381,-118.5 297,-118.5"/>
<text text-anchor="middle" x="339" y="-126.5" font-family="FreeSans.ttf" font-size="10.00">Utils::StrPrefix</text>
</a>
</g>
<!-- Node3&#45;&gt;Node10 -->
<g id="edge22" class="edge"><title>Node3&#45;&gt;Node10</title>
<path fill="none" stroke="midnightblue" d="M183.053,-393.304C187.423,-354.663 207.551,-220.797 282,-149 283.849,-147.216 285.867,-145.591 288.004,-144.11"/>
<polygon fill="midnightblue" stroke="midnightblue" points="289.812,-147.107 296.73,-139.083 286.318,-141.042 289.812,-147.107"/>
</g>
<!-- Node12 -->
<g id="node25" class="node"><title>Node12</title>
<a xlink:href="namespaceUtils.xhtml#af8586b5c4d77ae0617279186b2bfdb66" target="_top" xlink:title="Returns the first delimeter separated argument from input and then erases it from input...">
<polygon fill="white" stroke="black" points="293,-78.5 293,-99.5 385,-99.5 385,-78.5 293,-78.5"/>
<text text-anchor="middle" x="339" y="-86.5" font-family="FreeSans.ttf" font-size="10.00">Utils::Argument</text>
</a>
</g>
<!-- Node3&#45;&gt;Node12 -->
<g id="edge26" class="edge"><title>Node3&#45;&gt;Node12</title>
<path fill="none" stroke="midnightblue" d="M182.397,-393.445C184.551,-351.365 198.133,-193.763 282,-109 283.411,-107.574 284.929,-106.25 286.53,-105.02"/>
<polygon fill="midnightblue" stroke="midnightblue" points="288.517,-107.905 295.122,-99.6208 284.793,-101.978 288.517,-107.905"/>
</g>
<!-- Node13 -->
<g id="node27" class="node"><title>Node13</title>
<a xlink:href="namespaceUtils.xhtml#a11bfe61c6e77603d59116397b1d3f580" target="_top" xlink:title="Returns a pair of type T,V after receiving an input string generated from Utils::MakePair().">
<polygon fill="white" stroke="black" points="297,-628.5 297,-649.5 381,-649.5 381,-628.5 297,-628.5"/>
<text text-anchor="middle" x="339" y="-636.5" font-family="FreeSans.ttf" font-size="10.00">Utils::ReadPair</text>
</a>
</g>
<!-- Node3&#45;&gt;Node13 -->
<g id="edge28" class="edge"><title>Node3&#45;&gt;Node13</title>
<path fill="none" stroke="midnightblue" d="M186.624,-414.529C205.171,-456.682 273.575,-611.362 282,-619 283.904,-620.726 285.965,-622.304 288.136,-623.748"/>
<polygon fill="midnightblue" stroke="midnightblue" points="286.519,-626.854 296.956,-628.675 289.933,-620.743 286.519,-626.854"/>
</g>
<!-- Node14 -->
<g id="node29" class="node"><title>Node14</title>
<a xlink:href="namespaceUtils.xhtml#a7008f8effca71806721305d1834bde1e" target="_top" xlink:title="Completes a read from a file.">
<polygon fill="white" stroke="black" points="453.5,-436.5 453.5,-457.5 538.5,-457.5 538.5,-436.5 453.5,-436.5"/>
<text text-anchor="middle" x="496" y="-444.5" font-family="FreeSans.ttf" font-size="10.00">Utils::FileClose</text>
</a>
</g>
<!-- Node3&#45;&gt;Node14 -->
<g id="edge30" class="edge"><title>Node3&#45;&gt;Node14</title>
<path fill="none" stroke="midnightblue" d="M239.378,-409.239C282.558,-413.471 343.137,-420.025 396,-428 411.333,-430.313 427.904,-433.273 443.063,-436.164"/>
<polygon fill="midnightblue" stroke="midnightblue" points="442.816,-439.681 453.299,-438.146 444.147,-432.809 442.816,-439.681"/>
</g>
<!-- Node15 -->
<g id="node31" class="node"><title>Node15</title>
<a xlink:href="classAccount.xhtml#a1314e9f054a5354c77c20f48e1c6d7f9" target="_top" xlink:title="Returns the associated SocketClient.">
<polygon fill="white" stroke="black" points="291.5,-588.5 291.5,-609.5 386.5,-609.5 386.5,-588.5 291.5,-588.5"/>
<text text-anchor="middle" x="339" y="-596.5" font-family="FreeSans.ttf" font-size="10.00">Account::gClient</text>
</a>
</g>
<!-- Node3&#45;&gt;Node15 -->
<g id="edge32" class="edge"><title>Node3&#45;&gt;Node15</title>
<path fill="none" stroke="midnightblue" d="M185.192,-414.797C194.715,-445.171 225.808,-532.191 282,-579 284.009,-580.674 286.168,-582.211 288.428,-583.623"/>
<polygon fill="midnightblue" stroke="midnightblue" points="287.072,-586.866 297.545,-588.469 290.357,-580.685 287.072,-586.866"/>
</g>
<!-- Node16 -->
<g id="node33" class="node"><title>Node16</title>
<a xlink:href="classAccount.xhtml#ae5536f896c11d85f4f948484dd70449a" target="_top" xlink:title="Adds a hostname to the list of previous successful logins. Bumps the oldest entry.">
<polygon fill="white" stroke="black" points="292.5,-548.5 292.5,-569.5 385.5,-569.5 385.5,-548.5 292.5,-548.5"/>
<text text-anchor="middle" x="339" y="-556.5" font-family="FreeSans.ttf" font-size="10.00">Account::aLogin</text>
</a>
</g>
<!-- Node3&#45;&gt;Node16 -->
<g id="edge34" class="edge"><title>Node3&#45;&gt;Node16</title>
<path fill="none" stroke="midnightblue" d="M187.624,-414.538C200.989,-438.699 236.934,-498.719 282,-534 286.797,-537.755 292.245,-541.069 297.825,-543.953"/>
<polygon fill="midnightblue" stroke="midnightblue" points="296.712,-547.298 307.249,-548.405 299.702,-540.969 296.712,-547.298"/>
</g>
<!-- Node17 -->
<g id="node35" class="node"><title>Node17</title>
<a xlink:href="namespaceUtils.xhtml#a2b2dad8fa1999271cf613dc735f851d4" target="_top" xlink:title="Returns a given time as a string.">
<polygon fill="white" stroke="black" points="298.5,-470.5 298.5,-491.5 379.5,-491.5 379.5,-470.5 298.5,-470.5"/>
<text text-anchor="middle" x="339" y="-478.5" font-family="FreeSans.ttf" font-size="10.00">Utils::StrTime</text>
</a>
</g>
<!-- Node3&#45;&gt;Node17 -->
<g id="edge36" class="edge"><title>Node3&#45;&gt;Node17</title>
<path fill="none" stroke="midnightblue" d="M201.352,-414.549C221.357,-425.338 253.583,-442.398 282,-456 289.264,-459.477 297.13,-463.049 304.632,-466.365"/>
<polygon fill="midnightblue" stroke="midnightblue" points="303.301,-469.603 313.866,-470.403 306.106,-463.189 303.301,-469.603"/>
</g>
<!-- Node18 -->
<g id="node37" class="node"><title>Node18</title>
<a xlink:href="classSocket.xhtml#adc72a37934a4f2d10f6ae8fc94bb4ca7" target="_top" xlink:title="Returns the hostname associated to the Socket.">
<polygon fill="white" stroke="black" points="440,-358.5 440,-379.5 552,-379.5 552,-358.5 440,-358.5"/>
<text text-anchor="middle" x="496" y="-366.5" font-family="FreeSans.ttf" font-size="10.00">Socket::gHostname</text>
</a>
</g>
<!-- Node3&#45;&gt;Node18 -->
<g id="edge38" class="edge"><title>Node3&#45;&gt;Node18</title>
<path fill="none" stroke="midnightblue" d="M196.674,-393.46C215.403,-380.719 249.306,-359.993 282,-352 337.251,-338.493 402.68,-347.132 446.516,-356.312"/>
<polygon fill="midnightblue" stroke="midnightblue" points="445.835,-359.746 456.352,-358.457 447.327,-352.907 445.835,-359.746"/>
</g>
<!-- Node3&#45;&gt;Node19 -->
<g id="edge40" class="edge"><title>Node3&#45;&gt;Node19</title>
<path fill="none" stroke="midnightblue" d="M184.3,-414.658C194.788,-462.377 239.401,-655.946 282,-699 283.411,-700.426 284.929,-701.75 286.53,-702.98"/>
<polygon fill="midnightblue" stroke="midnightblue" points="284.793,-706.022 295.122,-708.379 288.517,-700.095 284.793,-706.022"/>
</g>
<!-- Node21 -->
<g id="node47" class="node"><title>Node21</title>
<a xlink:href="classSocketClient.xhtml#a6268f3d184970ec0076da657c39d2e80" target="_top" xlink:title="Process data from the client&#39;s send buffer and transmit it via the socket.">
<polygon fill="white" stroke="black" points="285.5,-278.5 285.5,-299.5 392.5,-299.5 392.5,-278.5 285.5,-278.5"/>
<text text-anchor="middle" x="339" y="-286.5" font-family="FreeSans.ttf" font-size="10.00">SocketClient::Send</text>
</a>
</g>
<!-- Node3&#45;&gt;Node21 -->
<g id="edge52" class="edge"><title>Node3&#45;&gt;Node21</title>
<path fill="none" stroke="midnightblue" d="M191.609,-393.363C208.468,-375.186 245.104,-337.809 282,-314 287.795,-310.26 294.244,-306.831 300.66,-303.79"/>
<polygon fill="midnightblue" stroke="midnightblue" points="302.264,-306.907 309.957,-299.622 299.401,-300.52 302.264,-306.907"/>
</g>
<!-- Node5&#45;&gt;Node6 -->
<g id="edge12" class="edge"><title>Node5&#45;&gt;Node6</title>
<path fill="none" stroke="midnightblue" d="M533.985,-516.416C542.647,-513.649 551.732,-510.461 560,-507 576.638,-500.036 594.485,-490.603 608.594,-482.647"/>
<polygon fill="midnightblue" stroke="midnightblue" points="610.339,-485.681 617.276,-477.673 606.859,-479.608 610.339,-485.681"/>
</g>
<!-- Node11 -->
<g id="node23" class="node"><title>Node11</title>
<a xlink:href="namespaceUtils.xhtml#a9b70f9dd0af906c806695b35488e778f" target="_top" xlink:title="Returns a string converted to all lowercase letters.">
<polygon fill="white" stroke="black" points="460.5,-78.5 460.5,-99.5 531.5,-99.5 531.5,-78.5 460.5,-78.5"/>
<text text-anchor="middle" x="496" y="-86.5" font-family="FreeSans.ttf" font-size="10.00">Utils::Lower</text>
</a>
</g>
<!-- Node10&#45;&gt;Node11 -->
<g id="edge24" class="edge"><title>Node10&#45;&gt;Node11</title>
<path fill="none" stroke="midnightblue" d="M380.25,-118.49C401.837,-112.991 428.317,-106.244 450.499,-100.592"/>
<polygon fill="midnightblue" stroke="midnightblue" points="451.53,-103.942 460.356,-98.0813 449.801,-97.1586 451.53,-103.942"/>
</g>
<!-- Node19&#45;&gt;Node4 -->
<g id="edge42" class="edge"><title>Node19&#45;&gt;Node4</title>
<path fill="none" stroke="midnightblue" d="M384.246,-708.41C388.668,-705.91 392.721,-702.82 396,-699 452.549,-633.122 374.321,-571.891 432,-507 436.677,-501.739 442.715,-497.847 449.21,-494.972"/>
<polygon fill="midnightblue" stroke="midnightblue" points="450.738,-498.141 458.949,-491.445 448.354,-491.559 450.738,-498.141"/>
</g>
<!-- Node19&#45;&gt;Node5 -->
<g id="edge44" class="edge"><title>Node19&#45;&gt;Node5</title>
<path fill="none" stroke="midnightblue" d="M382.11,-708.47C387.191,-705.955 391.986,-702.845 396,-699 427.112,-669.2 410.533,-646.352 432,-609 445.486,-585.534 465.118,-561.438 479.076,-545.494"/>
<polygon fill="midnightblue" stroke="midnightblue" points="481.761,-547.742 485.796,-537.945 476.533,-543.087 481.761,-547.742"/>
</g>
<!-- Node19&#45;&gt;Node6 -->
<g id="edge50" class="edge"><title>Node19&#45;&gt;Node6</title>
<path fill="none" stroke="midnightblue" d="M376.19,-708.44C383.008,-705.818 389.892,-702.681 396,-699 495.849,-638.815 586.66,-529.535 620.741,-485.817"/>
<polygon fill="midnightblue" stroke="midnightblue" points="623.625,-487.808 626.961,-477.752 618.082,-483.533 623.625,-487.808"/>
</g>
<!-- Node19&#45;&gt;Node14 -->
<g id="edge48" class="edge"><title>Node19&#45;&gt;Node14</title>
<path fill="none" stroke="midnightblue" d="M384.64,-708.353C388.933,-705.863 392.849,-702.79 396,-699 462.712,-618.767 363.911,-546.068 432,-467 435.425,-463.022 439.63,-459.825 444.233,-457.257"/>
<polygon fill="midnightblue" stroke="midnightblue" points="445.82,-460.38 453.475,-453.055 442.923,-454.008 445.82,-460.38"/>
</g>
<!-- Node20 -->
<g id="node43" class="node"><title>Node20</title>
<a xlink:href="namespaceUtils.xhtml#a1cd33b86e538bb0c765d5c0bcde259e1" target="_top" xlink:title="Generates a string from the pair of t and v.">
<polygon fill="white" stroke="black" points="453,-708.5 453,-729.5 539,-729.5 539,-708.5 453,-708.5"/>
<text text-anchor="middle" x="496" y="-716.5" font-family="FreeSans.ttf" font-size="10.00">Utils::MakePair</text>
</a>
</g>
<!-- Node19&#45;&gt;Node20 -->
<g id="edge46" class="edge"><title>Node19&#45;&gt;Node20</title>
<path fill="none" stroke="midnightblue" d="M390.408,-719C407.145,-719 425.755,-719 442.632,-719"/>
<polygon fill="midnightblue" stroke="midnightblue" points="442.885,-722.5 452.885,-719 442.885,-715.5 442.885,-722.5"/>
</g>
<!-- Node21&#45;&gt;Node18 -->
<g id="edge62" class="edge"><title>Node21&#45;&gt;Node18</title>
<path fill="none" stroke="midnightblue" d="M368.464,-299.551C377.649,-303.452 387.573,-308.329 396,-314 414.514,-326.458 412.827,-337.582 432,-349 435.446,-351.052 439.124,-352.914 442.908,-354.6"/>
<polygon fill="midnightblue" stroke="midnightblue" points="441.88,-357.959 452.465,-358.436 444.488,-351.463 441.88,-357.959"/>
</g>
<!-- Node22 -->
<g id="node49" class="node"><title>Node22</title>
<a xlink:href="classSocket.xhtml#a508457b48e6296d1e86c7cc72af65948" target="_top" xlink:title="Return if the Socket is valid for use.">
<polygon fill="white" stroke="black" points="457,-318.5 457,-339.5 535,-339.5 535,-318.5 457,-318.5"/>
<text text-anchor="middle" x="496" y="-326.5" font-family="FreeSans.ttf" font-size="10.00">Socket::Valid</text>
</a>
</g>
<!-- Node21&#45;&gt;Node22 -->
<g id="edge54" class="edge"><title>Node21&#45;&gt;Node22</title>
<path fill="none" stroke="midnightblue" d="M380.25,-299.51C400.72,-304.725 425.59,-311.061 447.023,-316.522"/>
<polygon fill="midnightblue" stroke="midnightblue" points="446.362,-319.965 456.917,-319.042 448.09,-313.182 446.362,-319.965"/>
</g>
<!-- Node23 -->
<g id="node51" class="node"><title>Node23</title>
<a xlink:href="classSocket.xhtml#a45d3aa99d71b868921543a4708471f82" target="_top" xlink:title="Returns the file descriptor associated to the Socket.">
<polygon fill="white" stroke="black" points="440.5,-278.5 440.5,-299.5 551.5,-299.5 551.5,-278.5 440.5,-278.5"/>
<text text-anchor="middle" x="496" y="-286.5" font-family="FreeSans.ttf" font-size="10.00">Socket::gDescriptor</text>
</a>
</g>
<!-- Node21&#45;&gt;Node23 -->
<g id="edge56" class="edge"><title>Node21&#45;&gt;Node23</title>
<path fill="none" stroke="midnightblue" d="M392.591,-289C404.598,-289 417.471,-289 429.917,-289"/>
<polygon fill="midnightblue" stroke="midnightblue" points="430.243,-292.5 440.243,-289 430.243,-285.5 430.243,-292.5"/>
</g>
<!-- Node24 -->
<g id="node53" class="node"><title>Node24</title>
<a xlink:href="classSocketClient.xhtml#aa0badca8f614127e98281995c02cb385" target="_top" xlink:title="Returns the connection state of the client from SOC_STATE.">
<polygon fill="white" stroke="black" points="438.5,-238.5 438.5,-259.5 553.5,-259.5 553.5,-238.5 438.5,-238.5"/>
<text text-anchor="middle" x="496" y="-246.5" font-family="FreeSans.ttf" font-size="10.00">SocketClient::gState</text>
</a>
</g>
<!-- Node21&#45;&gt;Node24 -->
<g id="edge58" class="edge"><title>Node21&#45;&gt;Node24</title>
<path fill="none" stroke="midnightblue" d="M380.25,-278.49C400.093,-273.435 424.07,-267.326 445.043,-261.983"/>
<polygon fill="midnightblue" stroke="midnightblue" points="445.927,-265.369 454.753,-259.509 444.199,-258.586 445.927,-265.369"/>
</g>
<!-- Node25 -->
<g id="node55" class="node"><title>Node25</title>
<a xlink:href="classSocketClient.xhtml#a56e10cbe469179d7d7bc18eae6ca351c" target="_top" xlink:title="Returns the Account object associated to this SocketClient.">
<polygon fill="white" stroke="black" points="432,-198.5 432,-219.5 560,-219.5 560,-198.5 432,-198.5"/>
<text text-anchor="middle" x="496" y="-206.5" font-family="FreeSans.ttf" font-size="10.00">SocketClient::gAccount</text>
</a>
</g>
<!-- Node21&#45;&gt;Node25 -->
<g id="edge60" class="edge"><title>Node21&#45;&gt;Node25</title>
<path fill="none" stroke="midnightblue" d="M377.668,-278.405C384.059,-275.832 390.414,-272.721 396,-269 415.904,-255.739 411.869,-241.915 432,-229 435.123,-226.996 438.461,-225.182 441.911,-223.54"/>
<polygon fill="midnightblue" stroke="midnightblue" points="443.396,-226.712 451.237,-219.586 440.664,-220.267 443.396,-226.712"/>
</g>
<!-- Node26 -->
<g id="node58" class="node"><title>Node26</title>
<a xlink:href="classSocket.xhtml#a688f0d2182f7ca098de3f76156efad0a" target="_top" xlink:title="Increment the total count of bytes sent by the socket.">
<polygon fill="white" stroke="black" points="440.5,-158.5 440.5,-179.5 551.5,-179.5 551.5,-158.5 440.5,-158.5"/>
<text text-anchor="middle" x="496" y="-166.5" font-family="FreeSans.ttf" font-size="10.00">Socket::aBytesSent</text>
</a>
</g>
<!-- Node21&#45;&gt;Node26 -->
<g id="edge64" class="edge"><title>Node21&#45;&gt;Node26</title>
<path fill="none" stroke="midnightblue" d="M381.669,-278.448C386.88,-275.934 391.828,-272.83 396,-269 424.722,-242.632 402.827,-214.868 432,-189 433.769,-187.431 435.661,-185.985 437.644,-184.653"/>
<polygon fill="midnightblue" stroke="midnightblue" points="439.816,-187.448 446.831,-179.508 436.395,-181.341 439.816,-187.448"/>
</g>
<!-- Node27 -->
<g id="node60" class="node"><title>Node27</title>
<a xlink:href="classSocket.xhtml#a3bb9f40d6e5f32cfa960a86323322c0c" target="_top" xlink:title="Returns the number of bytes sent by the Socket.">
<polygon fill="white" stroke="black" points="440.5,-118.5 440.5,-139.5 551.5,-139.5 551.5,-118.5 440.5,-118.5"/>
<text text-anchor="middle" x="496" y="-126.5" font-family="FreeSans.ttf" font-size="10.00">Socket::gBytesSent</text>
</a>
</g>
<!-- Node21&#45;&gt;Node27 -->
<g id="edge66" class="edge"><title>Node21&#45;&gt;Node27</title>
<path fill="none" stroke="midnightblue" d="M383.291,-278.357C387.997,-275.866 392.378,-272.792 396,-269 434.457,-228.732 392.853,-188.597 432,-149 433.412,-147.572 434.924,-146.246 436.516,-145.014"/>
<polygon fill="midnightblue" stroke="midnightblue" points="438.479,-147.913 445.057,-139.607 434.735,-141.999 438.479,-147.913"/>
</g>
</g>
</svg>
        <g id="navigator" transform="translate(0 0)" fill="#404254">
                <rect fill="#f2f5e9" fill-opacity="0.5" stroke="#606060" stroke-width=".5" x="0" y="0" width="60" height="60"/>
                <use id="zoomplus" xlink:href="#zoomPlus" x="17" y="9" onmousedown="handleZoom(evt,'in')"/>
                <use id="zoomminus" xlink:href="#zoomMin" x="42" y="9" onmousedown="handleZoom(evt,'out')"/>
                <use id="reset" xlink:href="#resetDef" x="30" y="36" onmousedown="handleReset()"/>
                <g id="arrowUp" xlink:href="#dirArrow" transform="translate(30 24)" onmousedown="handlePan(0,-1)">
                  <use xlink:href="#rim" fill="#404040">
                        <set attributeName="fill" to="#808080" begin="arrowUp.mouseover" end="arrowUp.mouseout"/>
                  </use>
                  <path fill="none" stroke="white" stroke-width="1.5" d="M0,-3.0v7 M-2.5,-0.5L0,-3.0L2.5,-0.5"/>
                </g>
                <g id="arrowRight" xlink:href="#dirArrow" transform="rotate(90) translate(36 -43)" onmousedown="handlePan(1,0)">
                  <use xlink:href="#rim" fill="#404040">
                        <set attributeName="fill" to="#808080" begin="arrowRight.mouseover" end="arrowRight.mouseout"/>
                  </use>
                  <path fill="none" stroke="white" stroke-width="1.5" d="M0,-3.0v7 M-2.5,-0.5L0,-3.0L2.5,-0.5"/>
                </g>
                <g id="arrowDown" xlink:href="#dirArrow" transform="rotate(180) translate(-30 -48)" onmousedown="handlePan(0,1)">
                  <use xlink:href="#rim" fill="#404040">
                        <set attributeName="fill" to="#808080" begin="arrowDown.mouseover" end="arrowDown.mouseout"/>
                  </use>
                  <path fill="none" stroke="white" stroke-width="1.5" d="M0,-3.0v7 M-2.5,-0.5L0,-3.0L2.5,-0.5"/>
                </g>
                <g id="arrowLeft" xlink:href="#dirArrow" transform="rotate(270) translate(-36 17)" onmousedown="handlePan(-1,0)">
                  <use xlink:href="#rim" fill="#404040">
                        <set attributeName="fill" to="#808080" begin="arrowLeft.mouseover" end="arrowLeft.mouseout"/>
                  </use>
                  <path fill="none" stroke="white" stroke-width="1.5" d="M0,-3.0v7 M-2.5,-0.5L0,-3.0L2.5,-0.5"/>
                </g>
        </g>
</svg>
