<?xml version="1.0" encoding="UTF-8" standalone="no"?>
<!DOCTYPE svg PUBLIC "-//W3C//DTD SVG 1.1//EN"
 "http://www.w3.org/Graphics/SVG/1.1/DTD/svg11.dtd">
<!-- Generated by graphviz version 2.26.3 (20100126.1600)
 -->
<!-- Title: Thing::gType Pages: 1 -->
<svg width="934pt" height="66pt"
 viewBox="0.00 0.00 934.00 66.00" xmlns="http://www.w3.org/2000/svg" xmlns:xlink="http://www.w3.org/1999/xlink">
<g id="graph1" class="graph" transform="scale(1 1) rotate(0) translate(4 62)">
<title>Thing::gType</title>
<polygon fill="white" stroke="white" points="-4,5 -4,-62 931,-62 931,5 -4,5"/>
<!-- Node1 -->
<g id="node1" class="node"><title>Node1</title>
<polygon fill="#bfbfbf" stroke="black" points="0.5,-19 0.5,-39 75.5,-39 75.5,-19 0.5,-19"/>
<text text-anchor="middle" x="38" y="-26" font-family="FreeSans.ttf" font-size="10.00">Thing::gType</text>
</g>
<!-- Node2 -->
<g id="node3" class="node"><title>Node2</title>
<a xlink:href="namespaceHandler.xhtml#a1541ed8653b973ffb4657e9f43a1f30f" target="_top" xlink:title="Locates an Exit within a Location.">
<polygon fill="white" stroke="black" points="116,-38 116,-58 212,-58 212,-38 116,-38"/>
<text text-anchor="middle" x="164" y="-45" font-family="FreeSans.ttf" font-size="10.00">Handler::FindExit</text>
</a>
</g>
<!-- Node1&#45;&gt;Node2 -->
<g id="edge2" class="edge"><title>Node1&#45;&gt;Node2</title>
<path fill="none" stroke="midnightblue" d="M85.8374,-36.2136C95.69,-37.6993 106.069,-39.2643 115.929,-40.7513"/>
<polygon fill="midnightblue" stroke="midnightblue" points="86.2143,-32.7309 75.8042,-34.7006 85.1705,-39.6527 86.2143,-32.7309"/>
</g>
<!-- Node8 -->
<g id="node15" class="node"><title>Node8</title>
<a xlink:href="namespaceHandler.xhtml#a6eb7e25d52b1ecf7d91a229ca116b583" target="_top" xlink:title="Locates a Thing within another Thing.">
<polygon fill="white" stroke="black" points="112,-0 112,-20 216,-20 216,-0 112,-0"/>
<text text-anchor="middle" x="164" y="-7" font-family="FreeSans.ttf" font-size="10.00">Handler::FindThing</text>
</a>
</g>
<!-- Node1&#45;&gt;Node8 -->
<g id="edge14" class="edge"><title>Node1&#45;&gt;Node8</title>
<path fill="none" stroke="midnightblue" d="M85.8911,-21.7783C94.3542,-20.5022 103.204,-19.1677 111.779,-17.8746"/>
<polygon fill="midnightblue" stroke="midnightblue" points="85.1705,-18.3473 75.8042,-23.2994 86.2143,-25.2691 85.1705,-18.3473"/>
</g>
<!-- Node3 -->
<g id="node5" class="node"><title>Node3</title>
<a xlink:href="classCharacter.xhtml#ad51f5ff0cfefa9bd7e674bc413f6b73c" target="_top" xlink:title="Interprets cmd with args at level security.">
<polygon fill="white" stroke="black" points="252.5,-38 252.5,-58 363.5,-58 363.5,-38 252.5,-38"/>
<text text-anchor="middle" x="308" y="-45" font-family="FreeSans.ttf" font-size="10.00">Character::Interpret</text>
</a>
</g>
<!-- Node2&#45;&gt;Node3 -->
<g id="edge4" class="edge"><title>Node2&#45;&gt;Node3</title>
<path fill="none" stroke="midnightblue" d="M222.464,-48C232.322,-48 242.532,-48 252.317,-48"/>
<polygon fill="midnightblue" stroke="midnightblue" points="222.351,-44.5001 212.351,-48 222.35,-51.5001 222.351,-44.5001"/>
</g>
<!-- Node4 -->
<g id="node7" class="node"><title>Node4</title>
<a xlink:href="classSocketClient.xhtml#ad4f63c7d906310dc56a1217136047d7f" target="_top" xlink:title="Interpret the command at the front of the queue.">
<polygon fill="white" stroke="black" points="400,-38 400,-58 570,-58 570,-38 400,-38"/>
<text text-anchor="middle" x="485" y="-45" font-family="FreeSans.ttf" font-size="10.00">SocketClient::ProcessCommand</text>
</a>
</g>
<!-- Node3&#45;&gt;Node4 -->
<g id="edge6" class="edge"><title>Node3&#45;&gt;Node4</title>
<path fill="none" stroke="midnightblue" d="M373.737,-48C382.257,-48 391.078,-48 399.856,-48"/>
<polygon fill="midnightblue" stroke="midnightblue" points="373.518,-44.5001 363.518,-48 373.518,-51.5001 373.518,-44.5001"/>
</g>
<!-- Node5 -->
<g id="node9" class="node"><title>Node5</title>
<a xlink:href="namespaceServer.xhtml#a2b4cec469bb99c2a45e49de5ba74d1ae" target="_top" xlink:title="Processes input from all active SocketClient objects.">
<polygon fill="white" stroke="black" points="606,-38 606,-58 722,-58 722,-38 606,-38"/>
<text text-anchor="middle" x="664" y="-45" font-family="FreeSans.ttf" font-size="10.00">Server::ProcessInput</text>
</a>
</g>
<!-- Node4&#45;&gt;Node5 -->
<g id="edge8" class="edge"><title>Node4&#45;&gt;Node5</title>
<path fill="none" stroke="midnightblue" d="M580.249,-48C588.93,-48 597.54,-48 605.748,-48"/>
<polygon fill="midnightblue" stroke="midnightblue" points="580.044,-44.5001 570.044,-48 580.044,-51.5001 580.044,-44.5001"/>
</g>
<!-- Node6 -->
<g id="node11" class="node"><title>Node6</title>
<a xlink:href="namespaceServer.xhtml#a50b81aa91d8fdaee6f52c5c5ec987990" target="_top" xlink:title="The core update loop of NAMS. This loop spawns all other subsystem update routines and then sleeps fo...">
<polygon fill="white" stroke="black" points="758.5,-38 758.5,-58 847.5,-58 847.5,-38 758.5,-38"/>
<text text-anchor="middle" x="803" y="-45" font-family="FreeSans.ttf" font-size="10.00">Server::Update</text>
</a>
</g>
<!-- Node5&#45;&gt;Node6 -->
<g id="edge10" class="edge"><title>Node5&#45;&gt;Node6</title>
<path fill="none" stroke="midnightblue" d="M732.39,-48C741.156,-48 749.945,-48 758.2,-48"/>
<polygon fill="midnightblue" stroke="midnightblue" points="732.143,-44.5001 722.143,-48 732.143,-51.5001 732.143,-44.5001"/>
</g>
<!-- Node7 -->
<g id="node13" class="node"><title>Node7</title>
<a xlink:href="main_8cpp.xhtml#ad53223b8779f25caeddb70a3b9172967" target="_top" xlink:title="The default function required to execute the server.">
<polygon fill="white" stroke="black" points="884.5,-38 884.5,-58 925.5,-58 925.5,-38 884.5,-38"/>
<text text-anchor="middle" x="905" y="-45" font-family="FreeSans.ttf" font-size="10.00">main</text>
</a>
</g>
<!-- Node6&#45;&gt;Node7 -->
<g id="edge12" class="edge"><title>Node6&#45;&gt;Node7</title>
<path fill="none" stroke="midnightblue" d="M857.942,-48C867.336,-48 876.55,-48 884.3,-48"/>
<polygon fill="midnightblue" stroke="midnightblue" points="857.739,-44.5001 847.739,-48 857.739,-51.5001 857.739,-44.5001"/>
</g>
</g>
</svg>
