<?xml version="1.0" encoding="UTF-8" standalone="no"?>
<!DOCTYPE svg PUBLIC "-//W3C//DTD SVG 1.1//EN"
 "http://www.w3.org/Graphics/SVG/1.1/DTD/svg11.dtd">
<!-- Generated by graphviz version 2.26.3 (20100126.1600)
 -->
<!-- Title: G Pages: 1 -->
<!--zoomable 70 -->
<svg id="main" version="1.1" xmlns="http://www.w3.org/2000/svg" xmlns:xlink="http://www.w3.org/1999/xlink" xml:space="preserve" onload="init(evt)">
        <defs>
                <circle id="rim" cx="0" cy="0" r="7"/>
                <circle id="rim2" cx="0" cy="0" r="3.5"/>
                <g id="zoomPlus">
                        <use xlink:href="#rim" fill="#404040">
                                <set attributeName="fill" to="#808080" begin="zoomplus.mouseover" end="zoomplus.mouseout"/>
                        </use>
                        <path d="M-4,0h8M0,-4v8" fill="none" stroke="white" stroke-width="1.5" pointer-events="none"/>
                </g>
                <g id="zoomMin">
                        <use xlink:href="#rim" fill="#404040">
                                <set attributeName="fill" to="#808080" begin="zoomminus.mouseover" end="zoomminus.mouseout"/>
                        </use>
                        <path d="M-4,0h8" fill="none" stroke="white" stroke-width="1.5" pointer-events="none"/>
                </g>
                <g id="dirArrow">
                        <path fill="none" stroke="white" stroke-width="1.5" d="M0,-3.0v7 M-2.5,-0.5L0,-3.0L2.5,-0.5"/>
                </g>
               <g id="resetDef">
                       <use xlink:href="#rim2" fill="#404040">
                               <set attributeName="fill" to="#808080" begin="reset.mouseover" end="reset.mouseout"/>
                       </use>
               </g>
        </defs>

<script type="text/javascript">
var viewWidth = 772;
var viewHeight = 70;
var sectionId = 'dynsection-3';
</script>
<script xlink:href="svgpan.js"/>
<svg id="graph" class="graph">
<g id="viewport">
<title>G</title>
<polygon fill="white" stroke="white" points="-4,5 -4,-66 769,-66 769,5 -4,5"/>
<!-- Node1 -->
<g id="node1" class="node"><title>Node1</title>
<polygon fill="#bfbfbf" stroke="black" points="0,-20.5 0,-41.5 86,-41.5 86,-20.5 0,-20.5"/>
<text text-anchor="middle" x="43" y="-28.5" font-family="FreeSans.ttf" font-size="10.00">Plugin::gName</text>
</g>
<!-- Node2 -->
<g id="node3" class="node"><title>Node2</title>
<a xlink:href="classCommand.xhtml#a7e591e2b82f59fd73d9b25daaa192021" target="_top" xlink:title="Return the name of the associated Plugin object.">
<polygon fill="white" stroke="black" points="122,-20.5 122,-41.5 230,-41.5 230,-20.5 122,-20.5"/>
<text text-anchor="middle" x="176" y="-28.5" font-family="FreeSans.ttf" font-size="10.00">Command::gName</text>
</a>
</g>
<!-- Node1&#45;&gt;Node2 -->
<g id="edge2" class="edge"><title>Node1&#45;&gt;Node2</title>
<path fill="none" stroke="midnightblue" d="M96.2707,-31C104.694,-31 113.412,-31 121.854,-31"/>
<polygon fill="midnightblue" stroke="midnightblue" points="96.1813,-27.5001 86.1813,-31 96.1813,-34.5001 96.1813,-27.5001"/>
</g>
<!-- Node3 -->
<g id="node5" class="node"><title>Node3</title>
<a xlink:href="classCommand.xhtml#a6b8eed27f76619d07effd72372a4be48" target="_top" xlink:title="Load a plugin command from CFG_DAT_DIR_OBJ.">
<polygon fill="white" stroke="black" points="281.5,-40.5 281.5,-61.5 374.5,-61.5 374.5,-40.5 281.5,-40.5"/>
<text text-anchor="middle" x="328" y="-48.5" font-family="FreeSans.ttf" font-size="10.00">Command::New</text>
</a>
</g>
<!-- Node2&#45;&gt;Node3 -->
<g id="edge4" class="edge"><title>Node2&#45;&gt;Node3</title>
<path fill="none" stroke="midnightblue" d="M239.968,-39.4168C253.803,-41.2372 268.184,-43.1294 281.213,-44.8438"/>
<polygon fill="midnightblue" stroke="midnightblue" points="240.389,-35.9421 230.017,-38.1076 239.475,-42.8823 240.389,-35.9421"/>
</g>
<!-- Node7 -->
<g id="node13" class="node"><title>Node7</title>
<a xlink:href="classServer.xhtml#acf928ad938e32e6342c0cdd278e793bc" target="_top" xlink:title="Server::FindCommand">
<polygon fill="white" stroke="black" points="266.5,-0.5 266.5,-21.5 389.5,-21.5 389.5,-0.5 266.5,-0.5"/>
<text text-anchor="middle" x="328" y="-8.5" font-family="FreeSans.ttf" font-size="10.00">Server::FindCommand</text>
</a>
</g>
<!-- Node2&#45;&gt;Node7 -->
<g id="edge12" class="edge"><title>Node2&#45;&gt;Node7</title>
<path fill="none" stroke="midnightblue" d="M240.108,-22.5648C248.811,-21.4197 257.727,-20.2465 266.385,-19.1073"/>
<polygon fill="midnightblue" stroke="midnightblue" points="239.475,-19.1177 230.017,-23.8924 240.389,-26.0579 239.475,-19.1177"/>
</g>
<!-- Node4 -->
<g id="node7" class="node"><title>Node4</title>
<a xlink:href="classServer.xhtml#ac2e1d14caee54a38a89c2394abe6e5a5" target="_top" xlink:title="Search all subfolders of CFG_DAT_DIR_COMMAND and call Command::New() to load each file found to memor...">
<polygon fill="white" stroke="black" points="426.5,-40.5 426.5,-61.5 559.5,-61.5 559.5,-40.5 426.5,-40.5"/>
<text text-anchor="middle" x="493" y="-48.5" font-family="FreeSans.ttf" font-size="10.00">Server::LoadCommands</text>
</a>
</g>
<!-- Node3&#45;&gt;Node4 -->
<g id="edge6" class="edge"><title>Node3&#45;&gt;Node4</title>
<path fill="none" stroke="midnightblue" d="M384.843,-51C398.211,-51 412.578,-51 426.334,-51"/>
<polygon fill="midnightblue" stroke="midnightblue" points="384.841,-47.5001 374.841,-51 384.841,-54.5001 384.841,-47.5001"/>
</g>
<!-- Node5 -->
<g id="node9" class="node"><title>Node5</title>
<a xlink:href="classServer.xhtml#a84ed4b0103f83fe0ece0a89983d0787a" target="_top" xlink:title="Start the NAMS Server. Responsible for calling all critical boot&#45;time functions such as SocketServer ...">
<polygon fill="white" stroke="black" points="596,-40.5 596,-61.5 686,-61.5 686,-40.5 596,-40.5"/>
<text text-anchor="middle" x="641" y="-48.5" font-family="FreeSans.ttf" font-size="10.00">Server::Startup</text>
</a>
</g>
<!-- Node4&#45;&gt;Node5 -->
<g id="edge8" class="edge"><title>Node4&#45;&gt;Node5</title>
<path fill="none" stroke="midnightblue" d="M569.743,-51C578.696,-51 587.596,-51 595.917,-51"/>
<polygon fill="midnightblue" stroke="midnightblue" points="569.64,-47.5001 559.64,-51 569.64,-54.5001 569.64,-47.5001"/>
</g>
<!-- Node6 -->
<g id="node11" class="node"><title>Node6</title>
<a xlink:href="main_8cpp.xhtml#ad53223b8779f25caeddb70a3b9172967" target="_top" xlink:title="The default function required to execute the server.">
<polygon fill="white" stroke="black" points="722.5,-40.5 722.5,-61.5 763.5,-61.5 763.5,-40.5 722.5,-40.5"/>
<text text-anchor="middle" x="743" y="-48.5" font-family="FreeSans.ttf" font-size="10.00">main</text>
</a>
</g>
<!-- Node5&#45;&gt;Node6 -->
<g id="edge10" class="edge"><title>Node5&#45;&gt;Node6</title>
<path fill="none" stroke="midnightblue" d="M696.203,-51C705.56,-51 714.726,-51 722.432,-51"/>
<polygon fill="midnightblue" stroke="midnightblue" points="696.036,-47.5001 686.036,-51 696.036,-54.5001 696.036,-47.5001"/>
</g>
</g>
</svg>
        <g id="navigator" transform="translate(0 0)" fill="#404254">
                <rect fill="#f2f5e9" fill-opacity="0.5" stroke="#606060" stroke-width=".5" x="0" y="0" width="60" height="60"/>
                <use id="zoomplus" xlink:href="#zoomPlus" x="17" y="9" onmousedown="handleZoom(evt,'in')"/>
                <use id="zoomminus" xlink:href="#zoomMin" x="42" y="9" onmousedown="handleZoom(evt,'out')"/>
                <use id="reset" xlink:href="#resetDef" x="30" y="36" onmousedown="handleReset()"/>
                <g id="arrowUp" xlink:href="#dirArrow" transform="translate(30 24)" onmousedown="handlePan(0,-1)">
                  <use xlink:href="#rim" fill="#404040">
                        <set attributeName="fill" to="#808080" begin="arrowUp.mouseover" end="arrowUp.mouseout"/>
                  </use>
                  <path fill="none" stroke="white" stroke-width="1.5" d="M0,-3.0v7 M-2.5,-0.5L0,-3.0L2.5,-0.5"/>
                </g>
                <g id="arrowRight" xlink:href="#dirArrow" transform="rotate(90) translate(36 -43)" onmousedown="handlePan(1,0)">
                  <use xlink:href="#rim" fill="#404040">
                        <set attributeName="fill" to="#808080" begin="arrowRight.mouseover" end="arrowRight.mouseout"/>
                  </use>
                  <path fill="none" stroke="white" stroke-width="1.5" d="M0,-3.0v7 M-2.5,-0.5L0,-3.0L2.5,-0.5"/>
                </g>
                <g id="arrowDown" xlink:href="#dirArrow" transform="rotate(180) translate(-30 -48)" onmousedown="handlePan(0,1)">
                  <use xlink:href="#rim" fill="#404040">
                        <set attributeName="fill" to="#808080" begin="arrowDown.mouseover" end="arrowDown.mouseout"/>
                  </use>
                  <path fill="none" stroke="white" stroke-width="1.5" d="M0,-3.0v7 M-2.5,-0.5L0,-3.0L2.5,-0.5"/>
                </g>
                <g id="arrowLeft" xlink:href="#dirArrow" transform="rotate(270) translate(-36 17)" onmousedown="handlePan(-1,0)">
                  <use xlink:href="#rim" fill="#404040">
                        <set attributeName="fill" to="#808080" begin="arrowLeft.mouseover" end="arrowLeft.mouseout"/>
                  </use>
                  <path fill="none" stroke="white" stroke-width="1.5" d="M0,-3.0v7 M-2.5,-0.5L0,-3.0L2.5,-0.5"/>
                </g>
        </g>
</svg>
