<?xml version="1.0" encoding="UTF-8" standalone="no"?>
<!DOCTYPE svg PUBLIC "-//W3C//DTD SVG 1.1//EN"
 "http://www.w3.org/Graphics/SVG/1.1/DTD/svg11.dtd">
<!-- Generated by graphviz version 2.26.3 (20100126.1600)
 -->
<!-- Title: G Pages: 1 -->
<!--zoomable 588 -->
<svg id="main" version="1.1" xmlns="http://www.w3.org/2000/svg" xmlns:xlink="http://www.w3.org/1999/xlink" xml:space="preserve" onload="init(evt)">
        <defs>
                <circle id="rim" cx="0" cy="0" r="7"/>
                <circle id="rim2" cx="0" cy="0" r="3.5"/>
                <g id="zoomPlus">
                        <use xlink:href="#rim" fill="#404040">
                                <set attributeName="fill" to="#808080" begin="zoomplus.mouseover" end="zoomplus.mouseout"/>
                        </use>
                        <path d="M-4,0h8M0,-4v8" fill="none" stroke="white" stroke-width="1.5" pointer-events="none"/>
                </g>
                <g id="zoomMin">
                        <use xlink:href="#rim" fill="#404040">
                                <set attributeName="fill" to="#808080" begin="zoomminus.mouseover" end="zoomminus.mouseout"/>
                        </use>
                        <path d="M-4,0h8" fill="none" stroke="white" stroke-width="1.5" pointer-events="none"/>
                </g>
                <g id="dirArrow">
                        <path fill="none" stroke="white" stroke-width="1.5" d="M0,-3.0v7 M-2.5,-0.5L0,-3.0L2.5,-0.5"/>
                </g>
               <g id="resetDef">
                       <use xlink:href="#rim2" fill="#404040">
                               <set attributeName="fill" to="#808080" begin="reset.mouseover" end="reset.mouseout"/>
                       </use>
               </g>
        </defs>

<script type="text/javascript">
var viewWidth = 1492;
var viewHeight = 588;
var sectionId = 'dynsection-17';
</script>
<script xlink:href="svgpan.js"/>
<svg id="graph" class="graph">
<g id="viewport">
<title>G</title>
<polygon fill="white" stroke="white" points="-4,5 -4,-584 1489,-584 1489,5 -4,5"/>
<!-- Node1 -->
<g id="node1" class="node"><title>Node1</title>
<polygon fill="#bfbfbf" stroke="black" points="0,-260.5 0,-281.5 102,-281.5 102,-260.5 0,-260.5"/>
<text text-anchor="middle" x="51" y="-268.5" font-family="FreeSans.ttf" font-size="10.00">Account::Serialize</text>
</g>
<!-- Node2 -->
<g id="node3" class="node"><title>Node2</title>
<a xlink:href="classAccount.xhtml#adc4545f17264112e532b5a48abe94baf" target="_top" xlink:title="Create a new account.">
<polygon fill="white" stroke="black" points="288,-260.5 288,-281.5 370,-281.5 370,-260.5 288,-260.5"/>
<text text-anchor="middle" x="329" y="-268.5" font-family="FreeSans.ttf" font-size="10.00">Account::New</text>
</a>
</g>
<!-- Node1&#45;&gt;Node2 -->
<g id="edge2" class="edge"><title>Node1&#45;&gt;Node2</title>
<path fill="none" stroke="midnightblue" d="M112.152,-271.791C120.829,-271.878 129.64,-271.952 138,-272 188.666,-272.291 201.334,-272.329 252,-272 263.631,-271.924 276.25,-271.785 287.841,-271.633"/>
<polygon fill="midnightblue" stroke="midnightblue" points="112.1,-268.291 102.063,-271.685 112.026,-275.29 112.1,-268.291"/>
</g>
<!-- Node5 -->
<g id="node10" class="node"><title>Node5</title>
<a xlink:href="namespaceHandler.xhtml#a2e4ebf6ed049eb872aa4948d54c4932c" target="_top" xlink:title="Attempt to write a new character to disk after creation was completed.">
<polygon fill="white" stroke="black" points="758.5,-558.5 758.5,-579.5 897.5,-579.5 897.5,-558.5 758.5,-558.5"/>
<text text-anchor="middle" x="828" y="-566.5" font-family="FreeSans.ttf" font-size="10.00">Handler::AttachCharacter</text>
</a>
</g>
<!-- Node1&#45;&gt;Node5 -->
<g id="edge88" class="edge"><title>Node1&#45;&gt;Node5</title>
<path fill="none" stroke="midnightblue" d="M90.7781,-284.684C144.258,-301.832 242.617,-329 329,-329 329,-329 329,-329 472,-329 624.052,-329 597.355,-482.307 734,-549 741.797,-552.805 750.305,-555.89 758.913,-558.39"/>
<polygon fill="midnightblue" stroke="midnightblue" points="91.6048,-281.272 81.0125,-281.503 89.4369,-287.928 91.6048,-281.272"/>
</g>
<!-- Node10 -->
<g id="node25" class="node"><title>Node10</title>
<a xlink:href="namespaceHandler.xhtml#a97a198bfc72285b2aca4f36978db715e" target="_top" xlink:title="Main Character deletion confirmation.">
<polygon fill="white" stroke="black" points="740,-0.5 740,-21.5 916,-21.5 916,-0.5 740,-0.5"/>
<text text-anchor="middle" x="828" y="-8.5" font-family="FreeSans.ttf" font-size="10.00">Handler::CharacterDeleteConfirm</text>
</a>
</g>
<!-- Node1&#45;&gt;Node10 -->
<g id="edge90" class="edge"><title>Node1&#45;&gt;Node10</title>
<path fill="none" stroke="midnightblue" d="M70.4005,-253.254C113.469,-215.782 221.753,-132 329,-132 329,-132 329,-132 472,-132 596.797,-132 614.371,-66.5413 734,-31 745.995,-27.4362 759.03,-24.244 771.466,-21.5115"/>
<polygon fill="midnightblue" stroke="midnightblue" points="67.8434,-250.844 62.676,-260.093 72.4835,-256.085 67.8434,-250.844"/>
</g>
<!-- Node27 -->
<g id="node69" class="node"><title>Node27</title>
<a xlink:href="classAccount.xhtml#ae236325fef7b2269f54e9567577e0b92" target="_top" xlink:title="Unserialize the account data.">
<polygon fill="white" stroke="black" points="138,-241.5 138,-262.5 252,-262.5 252,-241.5 138,-241.5"/>
<text text-anchor="middle" x="195" y="-249.5" font-family="FreeSans.ttf" font-size="10.00">Account::Unserialize</text>
</a>
</g>
<!-- Node1&#45;&gt;Node27 -->
<g id="edge84" class="edge"><title>Node1&#45;&gt;Node27</title>
<path fill="none" stroke="midnightblue" d="M112.291,-262.913C120.692,-261.805 129.291,-260.67 137.619,-259.571"/>
<polygon fill="midnightblue" stroke="midnightblue" points="111.631,-259.47 102.174,-264.248 112.546,-266.41 111.631,-259.47"/>
</g>
<!-- Node3 -->
<g id="node5" class="node"><title>Node3</title>
<a xlink:href="namespaceHandler.xhtml#a33a19d69ead678af81fbe96907eceaf0" target="_top" xlink:title="Create a new account object, or load an existing one, with a name and password.">
<polygon fill="white" stroke="black" points="406.5,-260.5 406.5,-281.5 537.5,-281.5 537.5,-260.5 406.5,-260.5"/>
<text text-anchor="middle" x="472" y="-268.5" font-family="FreeSans.ttf" font-size="10.00">Handler::AttachAccount</text>
</a>
</g>
<!-- Node2&#45;&gt;Node3 -->
<g id="edge4" class="edge"><title>Node2&#45;&gt;Node3</title>
<path fill="none" stroke="midnightblue" d="M380.434,-271C388.886,-271 397.746,-271 406.485,-271"/>
<polygon fill="midnightblue" stroke="midnightblue" points="380.362,-267.5 370.362,-271 380.361,-274.5 380.362,-267.5"/>
</g>
<!-- Node4 -->
<g id="node7" class="node"><title>Node4</title>
<a xlink:href="namespaceHandler.xhtml#a139febc000c9d767a620708148e0c888" target="_top" xlink:title="Dispatches the appropriate menu based on client state.">
<polygon fill="white" stroke="black" points="574.5,-260.5 574.5,-281.5 697.5,-281.5 697.5,-260.5 574.5,-260.5"/>
<text text-anchor="middle" x="636" y="-268.5" font-family="FreeSans.ttf" font-size="10.00">Handler::LoginHandler</text>
</a>
</g>
<!-- Node3&#45;&gt;Node4 -->
<g id="edge6" class="edge"><title>Node3&#45;&gt;Node4</title>
<path fill="none" stroke="midnightblue" d="M547.79,-264.267C556.73,-264.218 565.77,-264.275 574.48,-264.441"/>
<polygon fill="midnightblue" stroke="midnightblue" points="547.724,-260.768 537.76,-264.369 547.795,-267.767 547.724,-260.768"/>
</g>
<!-- Node4&#45;&gt;Node3 -->
<g id="edge8" class="edge"><title>Node4&#45;&gt;Node3</title>
<path fill="none" stroke="midnightblue" d="M564.242,-277.703C555.436,-277.784 546.471,-277.76 537.76,-277.631"/>
<polygon fill="midnightblue" stroke="midnightblue" points="564.531,-281.199 574.48,-277.559 564.432,-274.2 564.531,-281.199"/>
</g>
<!-- Node4&#45;&gt;Node5 -->
<g id="edge10" class="edge"><title>Node4&#45;&gt;Node5</title>
<path fill="none" stroke="midnightblue" d="M681.484,-287.671C687.871,-292.891 693.71,-299.051 698,-306 753.279,-395.533 661.746,-463.506 734,-540 742.936,-549.461 755.154,-555.013 767.823,-558.415"/>
<polygon fill="midnightblue" stroke="midnightblue" points="683.307,-284.668 673.174,-281.573 679.166,-290.311 683.307,-284.668"/>
</g>
<!-- Node6 -->
<g id="node13" class="node"><title>Node6</title>
<a xlink:href="namespaceHandler.xhtml#a73ed6064f2698dbffb5f4c247a02b661" target="_top" xlink:title="Send initial account interface menu.">
<polygon fill="white" stroke="black" points="754,-440.5 754,-461.5 902,-461.5 902,-440.5 754,-440.5"/>
<text text-anchor="middle" x="828" y="-448.5" font-family="FreeSans.ttf" font-size="10.00">Handler::AccountMenuMain</text>
</a>
</g>
<!-- Node4&#45;&gt;Node6 -->
<g id="edge14" class="edge"><title>Node4&#45;&gt;Node6</title>
<path fill="none" stroke="midnightblue" d="M679.501,-287.378C686.408,-292.72 692.933,-299.01 698,-306 729.683,-349.705 694.128,-385.611 734,-422 744.599,-431.673 758.684,-437.104 772.719,-440.392"/>
<polygon fill="midnightblue" stroke="midnightblue" points="681.465,-284.481 671.281,-281.558 677.42,-290.194 681.465,-284.481"/>
</g>
<!-- Node7 -->
<g id="node16" class="node"><title>Node7</title>
<a xlink:href="namespaceHandler.xhtml#ad04998a7a6ece2486bc441052a57c2d7" target="_top" xlink:title="Main Character creation menu.">
<polygon fill="white" stroke="black" points="734,-400.5 734,-421.5 922,-421.5 922,-400.5 734,-400.5"/>
<text text-anchor="middle" x="828" y="-408.5" font-family="FreeSans.ttf" font-size="10.00">Handler::CharacterCreateMenuMain</text>
</a>
</g>
<!-- Node4&#45;&gt;Node7 -->
<g id="edge18" class="edge"><title>Node4&#45;&gt;Node7</title>
<path fill="none" stroke="midnightblue" d="M678.008,-287.484C685.244,-292.877 692.269,-299.168 698,-306 722.021,-334.635 704.682,-358.819 734,-382 746.564,-391.934 762.924,-397.23 778.466,-400.445"/>
<polygon fill="midnightblue" stroke="midnightblue" points="679.697,-284.396 669.482,-281.586 675.715,-290.153 679.697,-284.396"/>
</g>
<!-- Node8 -->
<g id="node19" class="node"><title>Node8</title>
<a xlink:href="namespaceHandler.xhtml#ab5889a65de2794129b375ec39ae923ae" target="_top" xlink:title="Select a new Character name.">
<polygon fill="white" stroke="black" points="743.5,-360.5 743.5,-381.5 912.5,-381.5 912.5,-360.5 743.5,-360.5"/>
<text text-anchor="middle" x="828" y="-368.5" font-family="FreeSans.ttf" font-size="10.00">Handler::CharacterCreateName</text>
</a>
</g>
<!-- Node4&#45;&gt;Node8 -->
<g id="edge22" class="edge"><title>Node4&#45;&gt;Node8</title>
<path fill="none" stroke="midnightblue" d="M673.339,-287.205C681.658,-292.944 690.291,-299.49 698,-306 715.288,-320.599 714.116,-331.201 734,-342 752.181,-351.874 774.803,-356.875 793.299,-360.43"/>
<polygon fill="midnightblue" stroke="midnightblue" points="675.101,-284.173 664.836,-281.55 671.225,-290.002 675.101,-284.173"/>
</g>
<!-- Node9 -->
<g id="node22" class="node"><title>Node9</title>
<a xlink:href="namespaceHandler.xhtml#ae5086bcf5857eb572beedd09158c3065" target="_top" xlink:title="Select a new Character sex.">
<polygon fill="white" stroke="black" points="749,-320.5 749,-341.5 907,-341.5 907,-320.5 749,-320.5"/>
<text text-anchor="middle" x="828" y="-328.5" font-family="FreeSans.ttf" font-size="10.00">Handler::CharacterCreateSex</text>
</a>
</g>
<!-- Node4&#45;&gt;Node9 -->
<g id="edge26" class="edge"><title>Node4&#45;&gt;Node9</title>
<path fill="none" stroke="midnightblue" d="M687.367,-285.334C702.219,-291.062 718.584,-297.255 734,-302 758.398,-309.509 787.209,-315.187 806.443,-320.461"/>
<polygon fill="midnightblue" stroke="midnightblue" points="688.441,-281.996 677.852,-281.657 685.918,-288.526 688.441,-281.996"/>
</g>
<!-- Node4&#45;&gt;Node10 -->
<g id="edge30" class="edge"><title>Node4&#45;&gt;Node10</title>
<path fill="none" stroke="midnightblue" d="M644.089,-250.895C656.727,-224.651 681.422,-178.277 698,-137 717.96,-87.3016 694.397,-58.0545 734,-22 735.851,-20.3152 737.807,-18.7591 739.851,-17.3244"/>
<polygon fill="midnightblue" stroke="midnightblue" points="640.794,-249.681 639.741,-260.223 647.139,-252.638 640.794,-249.681"/>
</g>
<!-- Node11 -->
<g id="node28" class="node"><title>Node11</title>
<a xlink:href="namespaceHandler.xhtml#afc470ec6e82b7a9a1560588a368734f9" target="_top" xlink:title="Main Character deletion menu.">
<polygon fill="white" stroke="black" points="734,-280.5 734,-301.5 922,-301.5 922,-280.5 734,-280.5"/>
<text text-anchor="middle" x="828" y="-288.5" font-family="FreeSans.ttf" font-size="10.00">Handler::CharacterDeleteMenuMain</text>
</a>
</g>
<!-- Node4&#45;&gt;Node11 -->
<g id="edge34" class="edge"><title>Node4&#45;&gt;Node11</title>
<path fill="none" stroke="midnightblue" d="M707.799,-271.923C732.988,-274.135 760.555,-277.251 782.928,-280.482"/>
<polygon fill="midnightblue" stroke="midnightblue" points="707.8,-268.411 697.542,-271.063 707.215,-275.387 707.8,-268.411"/>
</g>
<!-- Node12 -->
<g id="node31" class="node"><title>Node12</title>
<a xlink:href="namespaceHandler.xhtml#a02b1b954749641ab646f6548a5360d3b" target="_top" xlink:title="Main Character load menu.">
<polygon fill="white" stroke="black" points="738.5,-240.5 738.5,-261.5 917.5,-261.5 917.5,-240.5 738.5,-240.5"/>
<text text-anchor="middle" x="828" y="-248.5" font-family="FreeSans.ttf" font-size="10.00">Handler::CharacterLoadMenuMain</text>
</a>
</g>
<!-- Node4&#45;&gt;Node12 -->
<g id="edge38" class="edge"><title>Node4&#45;&gt;Node12</title>
<path fill="none" stroke="midnightblue" d="M690.98,-259.103C705.776,-257.117 722.173,-255.22 738.33,-253.604"/>
<polygon fill="midnightblue" stroke="midnightblue" points="690.437,-255.645 681.015,-260.49 691.403,-262.578 690.437,-255.645"/>
</g>
<!-- Node13 -->
<g id="node34" class="node"><title>Node13</title>
<a xlink:href="namespaceHandler.xhtml#a00bc24564bfd267e0329643c569da1e4" target="_top" xlink:title="Select a new account name.">
<polygon fill="white" stroke="black" points="759.5,-200.5 759.5,-221.5 896.5,-221.5 896.5,-200.5 759.5,-200.5"/>
<text text-anchor="middle" x="828" y="-208.5" font-family="FreeSans.ttf" font-size="10.00">Handler::GetNewAccount</text>
</a>
</g>
<!-- Node4&#45;&gt;Node13 -->
<g id="edge42" class="edge"><title>Node4&#45;&gt;Node13</title>
<path fill="none" stroke="midnightblue" d="M655.21,-255.157C674.704,-244.086 705.926,-230.641 734,-222 742.133,-219.497 750.756,-217.197 759.351,-215.191"/>
<polygon fill="midnightblue" stroke="midnightblue" points="653.368,-252.181 646.647,-260.371 657.009,-258.16 653.368,-252.181"/>
</g>
<!-- Node14 -->
<g id="node37" class="node"><title>Node14</title>
<a xlink:href="namespaceHandler.xhtml#a744adadcf407cdb3a9c33365afd5a7c2" target="_top" xlink:title="Create a new account.">
<polygon fill="white" stroke="black" points="757,-160.5 757,-181.5 899,-181.5 899,-160.5 757,-160.5"/>
<text text-anchor="middle" x="828" y="-168.5" font-family="FreeSans.ttf" font-size="10.00">Handler::GetNewPassword</text>
</a>
</g>
<!-- Node4&#45;&gt;Node14 -->
<g id="edge46" class="edge"><title>Node4&#45;&gt;Node14</title>
<path fill="none" stroke="midnightblue" d="M647.558,-252.436C664.65,-231.445 698.492,-199.027 734,-182 741.221,-178.537 749.039,-175.67 756.976,-173.356"/>
<polygon fill="midnightblue" stroke="midnightblue" points="644.772,-250.318 641.487,-260.391 650.336,-254.565 644.772,-250.318"/>
</g>
<!-- Node15 -->
<g id="node40" class="node"><title>Node15</title>
<a xlink:href="namespaceHandler.xhtml#adfe13cc9748392348f3941656a1323b6" target="_top" xlink:title="Compare a received password against an existing account.">
<polygon fill="white" stroke="black" points="759.5,-120.5 759.5,-141.5 896.5,-141.5 896.5,-120.5 759.5,-120.5"/>
<text text-anchor="middle" x="828" y="-128.5" font-family="FreeSans.ttf" font-size="10.00">Handler::GetOldPassword</text>
</a>
</g>
<!-- Node4&#45;&gt;Node15 -->
<g id="edge50" class="edge"><title>Node4&#45;&gt;Node15</title>
<path fill="none" stroke="midnightblue" d="M643.563,-251.005C657.646,-221.624 690.455,-168.567 734,-142 741.691,-137.308 750.32,-133.705 759.149,-131.025"/>
<polygon fill="midnightblue" stroke="midnightblue" points="640.28,-249.771 639.376,-260.327 646.666,-252.639 640.28,-249.771"/>
</g>
<!-- Node16 -->
<g id="node43" class="node"><title>Node16</title>
<a xlink:href="namespaceHandler.xhtml#ae70e4e50054c729c14493eafefe01b5c" target="_top" xlink:title="Load a character from the account to enter into the game with.">
<polygon fill="white" stroke="black" points="762.5,-80.5 762.5,-101.5 893.5,-101.5 893.5,-80.5 762.5,-80.5"/>
<text text-anchor="middle" x="828" y="-88.5" font-family="FreeSans.ttf" font-size="10.00">Handler::LoadCharacter</text>
</a>
</g>
<!-- Node4&#45;&gt;Node16 -->
<g id="edge54" class="edge"><title>Node4&#45;&gt;Node16</title>
<path fill="none" stroke="midnightblue" d="M643.44,-251.095C661.284,-210.346 707.028,-121.07 734,-102 742.447,-96.0279 752.315,-91.7755 762.422,-88.8879"/>
<polygon fill="midnightblue" stroke="midnightblue" points="640.203,-249.763 639.533,-260.337 646.651,-252.489 640.203,-249.763"/>
</g>
<!-- Node17 -->
<g id="node46" class="node"><title>Node17</title>
<a xlink:href="namespaceHandler.xhtml#a44b41bf69fdc6e615a029bea34910191" target="_top" xlink:title="Send initial greeting and request for account name.">
<polygon fill="white" stroke="black" points="768.5,-40.5 768.5,-61.5 887.5,-61.5 887.5,-40.5 768.5,-40.5"/>
<text text-anchor="middle" x="828" y="-48.5" font-family="FreeSans.ttf" font-size="10.00">Handler::LoginScreen</text>
</a>
</g>
<!-- Node4&#45;&gt;Node17 -->
<g id="edge58" class="edge"><title>Node4&#45;&gt;Node17</title>
<path fill="none" stroke="midnightblue" d="M643.219,-250.966C654.846,-224.367 678.399,-177.168 698,-137 714.215,-103.771 704.937,-84.8578 734,-62 743.836,-54.264 755.977,-49.3443 768.227,-46.4808"/>
<polygon fill="midnightblue" stroke="midnightblue" points="639.901,-249.83 639.257,-260.405 646.355,-252.54 639.901,-249.83"/>
</g>
<!-- Node18 -->
<g id="node49" class="node"><title>Node18</title>
<a xlink:href="classSocketClient.xhtml#a48c79d01b91f2c1553c3b33b26714215" target="_top" xlink:title="Build a SocketClient for a new client connection and set all attributes.">
<polygon fill="white" stroke="black" points="776.5,-518.5 776.5,-539.5 879.5,-539.5 879.5,-518.5 776.5,-518.5"/>
<text text-anchor="middle" x="828" y="-526.5" font-family="FreeSans.ttf" font-size="10.00">SocketClient::New</text>
</a>
</g>
<!-- Node4&#45;&gt;Node18 -->
<g id="edge62" class="edge"><title>Node4&#45;&gt;Node18</title>
<path fill="none" stroke="midnightblue" d="M667.721,-286.867C678.924,-293.994 690.571,-303.433 698,-315 744.21,-386.949 675.742,-441.406 734,-504 744.93,-515.743 760.692,-522.213 776.196,-525.707"/>
<polygon fill="midnightblue" stroke="midnightblue" points="669.307,-283.739 658.92,-281.651 665.738,-289.761 669.307,-283.739"/>
</g>
<!-- Node25 -->
<g id="node64" class="node"><title>Node25</title>
<a xlink:href="classSocketClient.xhtml#ad4f63c7d906310dc56a1217136047d7f" target="_top" xlink:title="Interpret the command at the front of the queue.">
<polygon fill="white" stroke="black" points="958,-478.5 958,-499.5 1128,-499.5 1128,-478.5 958,-478.5"/>
<text text-anchor="middle" x="1043" y="-486.5" font-family="FreeSans.ttf" font-size="10.00">SocketClient::ProcessCommand</text>
</a>
</g>
<!-- Node4&#45;&gt;Node25 -->
<g id="edge78" class="edge"><title>Node4&#45;&gt;Node25</title>
<path fill="none" stroke="midnightblue" d="M667.233,-286.859C678.483,-294.024 690.291,-303.492 698,-315 737.6,-374.118 679.627,-425.101 734,-471 766.696,-498.6 878.288,-498.828 957.965,-495.057"/>
<polygon fill="midnightblue" stroke="midnightblue" points="668.801,-283.719 658.419,-281.611 665.22,-289.734 668.801,-283.719"/>
</g>
<!-- Node5&#45;&gt;Node4 -->
<g id="edge12" class="edge"><title>Node5&#45;&gt;Node4</title>
<path fill="none" stroke="midnightblue" d="M748.699,-568.995C743.258,-566.127 738.257,-562.507 734,-558 661.746,-481.506 753.279,-413.533 698,-324 685.935,-304.458 661.628,-291.154 647.295,-281.81"/>
<polygon fill="midnightblue" stroke="midnightblue" points="747.648,-572.354 758.214,-573.135 750.441,-565.936 747.648,-572.354"/>
</g>
<!-- Node6&#45;&gt;Node4 -->
<g id="edge16" class="edge"><title>Node6&#45;&gt;Node4</title>
<path fill="none" stroke="midnightblue" d="M744.66,-447.759C740.846,-445.546 737.258,-442.974 734,-440 694.128,-403.611 729.683,-367.705 698,-324 684.365,-305.192 660.174,-291.448 646.385,-281.77"/>
<polygon fill="midnightblue" stroke="midnightblue" points="743.403,-451.04 753.924,-452.289 746.478,-444.752 743.403,-451.04"/>
</g>
<!-- Node7&#45;&gt;Node4 -->
<g id="edge20" class="edge"><title>Node7&#45;&gt;Node4</title>
<path fill="none" stroke="midnightblue" d="M726.953,-393.404C707.674,-372.053 719.675,-349.838 698,-324 682.901,-306 658.824,-291.759 645.555,-281.727"/>
<polygon fill="midnightblue" stroke="midnightblue" points="724.683,-396.072 734.394,-400.309 729.445,-390.941 724.683,-396.072"/>
</g>
<!-- Node8&#45;&gt;Node4 -->
<g id="edge24" class="edge"><title>Node8&#45;&gt;Node4</title>
<path fill="none" stroke="midnightblue" d="M734.275,-360.149C734.183,-360.099 734.092,-360.05 734,-360 714.116,-349.201 715.288,-338.599 698,-324 679.647,-308.501 656.053,-292.8 643.946,-281.785"/>
<polygon fill="midnightblue" stroke="midnightblue" points="732.58,-363.217 743.108,-364.403 735.617,-356.91 732.58,-363.217"/>
</g>
<!-- Node9&#45;&gt;Node4 -->
<g id="edge28" class="edge"><title>Node9&#45;&gt;Node4</title>
<path fill="none" stroke="midnightblue" d="M738.989,-321.493C737.309,-321.004 735.644,-320.506 734,-320 701.332,-309.945 664.401,-293.386 646.647,-281.629"/>
<polygon fill="midnightblue" stroke="midnightblue" points="738.185,-324.901 748.755,-324.188 740.047,-318.154 738.185,-324.901"/>
</g>
<!-- Node10&#45;&gt;Node4 -->
<g id="edge32" class="edge"><title>Node10&#45;&gt;Node4</title>
<path fill="none" stroke="midnightblue" d="M763.273,-24.1996C752.523,-27.576 742.218,-32.5183 734,-40 694.397,-76.0545 717.96,-105.302 698,-155 681.93,-195.013 658.233,-239.815 645.284,-260.377"/>
<polygon fill="midnightblue" stroke="midnightblue" points="764.483,-27.4983 773.224,-21.511 762.657,-20.7407 764.483,-27.4983"/>
</g>
<!-- Node11&#45;&gt;Node4 -->
<g id="edge36" class="edge"><title>Node11&#45;&gt;Node4</title>
<path fill="none" stroke="midnightblue" d="M723.377,-286.828C708.496,-285.193 693.894,-283.371 681.015,-281.51"/>
<polygon fill="midnightblue" stroke="midnightblue" points="723.392,-290.349 733.706,-287.927 724.133,-283.388 723.392,-290.349"/>
</g>
<!-- Node12&#45;&gt;Node4 -->
<g id="edge40" class="edge"><title>Node12&#45;&gt;Node4</title>
<path fill="none" stroke="midnightblue" d="M772.773,-262.93C749.25,-266.082 721.716,-269.007 697.542,-270.937"/>
<polygon fill="midnightblue" stroke="midnightblue" points="773.505,-266.362 782.928,-261.518 772.541,-259.428 773.505,-266.362"/>
</g>
<!-- Node13&#45;&gt;Node4 -->
<g id="edge44" class="edge"><title>Node13&#45;&gt;Node4</title>
<path fill="none" stroke="midnightblue" d="M796.522,-224.11C778.094,-228.679 754.491,-233.693 734,-240 715.207,-245.784 695.003,-253.721 677.852,-260.343"/>
<polygon fill="midnightblue" stroke="midnightblue" points="797.641,-227.436 806.443,-221.539 795.885,-220.66 797.641,-227.436"/>
</g>
<!-- Node14&#45;&gt;Node4 -->
<g id="edge48" class="edge"><title>Node14&#45;&gt;Node4</title>
<path fill="none" stroke="midnightblue" d="M787.365,-183.624C770.282,-187.244 750.57,-192.054 734,-200 701.324,-215.669 670.058,-244.373 651.959,-260.391"/>
<polygon fill="midnightblue" stroke="midnightblue" points="788.525,-186.959 797.61,-181.507 787.108,-180.103 788.525,-186.959"/>
</g>
<!-- Node15&#45;&gt;Node4 -->
<g id="edge52" class="edge"><title>Node15&#45;&gt;Node4</title>
<path fill="none" stroke="midnightblue" d="M779.358,-143.51C764.018,-146.846 747.553,-151.731 734,-160 691.291,-186.057 658.91,-237.597 644.395,-260.383"/>
<polygon fill="midnightblue" stroke="midnightblue" points="780.122,-146.926 789.234,-141.521 778.74,-140.064 780.122,-146.926"/>
</g>
<!-- Node16&#45;&gt;Node4 -->
<g id="edge56" class="edge"><title>Node16&#45;&gt;Node4</title>
<path fill="none" stroke="midnightblue" d="M773.065,-103.715C759.394,-107.011 745.401,-111.939 734,-120 707.004,-139.088 661.199,-228.511 643.391,-260.233"/>
<polygon fill="midnightblue" stroke="midnightblue" points="773.888,-107.118 782.921,-101.581 772.407,-100.276 773.888,-107.118"/>
</g>
<!-- Node17&#45;&gt;Node4 -->
<g id="edge60" class="edge"><title>Node17&#45;&gt;Node4</title>
<path fill="none" stroke="midnightblue" d="M768.595,-63.9292C756.22,-67.2461 743.934,-72.1867 734,-80 704.937,-102.858 714.215,-121.771 698,-155 678.984,-193.969 656.248,-239.556 644.292,-260.377"/>
<polygon fill="midnightblue" stroke="midnightblue" points="769.567,-67.2961 778.496,-61.5933 767.959,-60.4832 769.567,-67.2961"/>
</g>
<!-- Node19 -->
<g id="node51" class="node"><title>Node19</title>
<a xlink:href="classServer.xhtml#a16ea0639731dee10e1a253375b508a02" target="_top" xlink:title="Recovers the server state and re&#45;connects client sockets after a reboot.">
<polygon fill="white" stroke="black" points="978,-558.5 978,-579.5 1108,-579.5 1108,-558.5 978,-558.5"/>
<text text-anchor="middle" x="1043" y="-566.5" font-family="FreeSans.ttf" font-size="10.00">Server::RebootRecovery</text>
</a>
</g>
<!-- Node18&#45;&gt;Node19 -->
<g id="edge64" class="edge"><title>Node18&#45;&gt;Node19</title>
<path fill="none" stroke="midnightblue" d="M889.843,-540.506C920.275,-546.167 956.702,-552.945 986.394,-558.469"/>
<polygon fill="midnightblue" stroke="midnightblue" points="890.243,-537.02 879.771,-538.632 888.963,-543.902 890.243,-537.02"/>
</g>
<!-- Node22 -->
<g id="node57" class="node"><title>Node22</title>
<a xlink:href="classSocketServer.xhtml#afdbc60c3bc840875d2214b59c6213f63" target="_top" xlink:title="Accept a new connection on the listening port.">
<polygon fill="white" stroke="black" points="983,-518.5 983,-539.5 1103,-539.5 1103,-518.5 983,-518.5"/>
<text text-anchor="middle" x="1043" y="-526.5" font-family="FreeSans.ttf" font-size="10.00">SocketServer::Accept</text>
</a>
</g>
<!-- Node18&#45;&gt;Node22 -->
<g id="edge70" class="edge"><title>Node18&#45;&gt;Node22</title>
<path fill="none" stroke="midnightblue" d="M889.868,-529C919.117,-529 953.901,-529 982.92,-529"/>
<polygon fill="midnightblue" stroke="midnightblue" points="889.771,-525.5 879.771,-529 889.771,-532.5 889.771,-525.5"/>
</g>
<!-- Node20 -->
<g id="node53" class="node"><title>Node20</title>
<a xlink:href="classServer.xhtml#a19a1e493e1fb50a56d9c77332543d565" target="_top" xlink:title="Start the NAMS Server. Responsible for calling all critical boot&#45;time functions such as SocketServer ...">
<polygon fill="white" stroke="black" points="1316,-558.5 1316,-579.5 1406,-579.5 1406,-558.5 1316,-558.5"/>
<text text-anchor="middle" x="1361" y="-566.5" font-family="FreeSans.ttf" font-size="10.00">Server::Startup</text>
</a>
</g>
<!-- Node19&#45;&gt;Node20 -->
<g id="edge66" class="edge"><title>Node19&#45;&gt;Node20</title>
<path fill="none" stroke="midnightblue" d="M1118.16,-569C1179.64,-569 1264.54,-569 1315.95,-569"/>
<polygon fill="midnightblue" stroke="midnightblue" points="1118.12,-565.5 1108.12,-569 1118.12,-572.5 1118.12,-565.5"/>
</g>
<!-- Node21 -->
<g id="node55" class="node"><title>Node21</title>
<a xlink:href="main_8cpp.xhtml#ad53223b8779f25caeddb70a3b9172967" target="_top" xlink:title="The default function required to execute the server.">
<polygon fill="white" stroke="black" points="1442.5,-538.5 1442.5,-559.5 1483.5,-559.5 1483.5,-538.5 1442.5,-538.5"/>
<text text-anchor="middle" x="1463" y="-546.5" font-family="FreeSans.ttf" font-size="10.00">main</text>
</a>
</g>
<!-- Node20&#45;&gt;Node21 -->
<g id="edge68" class="edge"><title>Node20&#45;&gt;Node21</title>
<path fill="none" stroke="midnightblue" d="M1415.9,-558.234C1425.36,-556.38 1434.64,-554.56 1442.43,-553.033"/>
<polygon fill="midnightblue" stroke="midnightblue" points="1415.18,-554.811 1406.04,-560.169 1416.52,-561.68 1415.18,-554.811"/>
</g>
<!-- Node23 -->
<g id="node59" class="node"><title>Node23</title>
<a xlink:href="classServer.xhtml#a39dbe16fdc8c5f6fbd678c6540fbcd6c" target="_top" xlink:title="Poll all SocketClient objects that are communicating with the associated SocketServer object...">
<polygon fill="white" stroke="black" points="1167.5,-518.5 1167.5,-539.5 1276.5,-539.5 1276.5,-518.5 1167.5,-518.5"/>
<text text-anchor="middle" x="1222" y="-526.5" font-family="FreeSans.ttf" font-size="10.00">Server::PollSockets</text>
</a>
</g>
<!-- Node22&#45;&gt;Node23 -->
<g id="edge72" class="edge"><title>Node22&#45;&gt;Node23</title>
<path fill="none" stroke="midnightblue" d="M1113.27,-529C1131.28,-529 1150.39,-529 1167.48,-529"/>
<polygon fill="midnightblue" stroke="midnightblue" points="1113.1,-525.5 1103.1,-529 1113.1,-532.5 1113.1,-525.5"/>
</g>
<!-- Node24 -->
<g id="node61" class="node"><title>Node24</title>
<a xlink:href="classServer.xhtml#a50b81aa91d8fdaee6f52c5c5ec987990" target="_top" xlink:title="The core update loop of NAMS. This loop spawns all other subsystem update routines and then sleeps fo...">
<polygon fill="white" stroke="black" points="1316.5,-518.5 1316.5,-539.5 1405.5,-539.5 1405.5,-518.5 1316.5,-518.5"/>
<text text-anchor="middle" x="1361" y="-526.5" font-family="FreeSans.ttf" font-size="10.00">Server::Update</text>
</a>
</g>
<!-- Node23&#45;&gt;Node24 -->
<g id="edge74" class="edge"><title>Node23&#45;&gt;Node24</title>
<path fill="none" stroke="midnightblue" d="M1286.57,-529C1296.69,-529 1306.94,-529 1316.47,-529"/>
<polygon fill="midnightblue" stroke="midnightblue" points="1286.54,-525.5 1276.54,-529 1286.54,-532.5 1286.54,-525.5"/>
</g>
<!-- Node24&#45;&gt;Node21 -->
<g id="edge76" class="edge"><title>Node24&#45;&gt;Node21</title>
<path fill="none" stroke="midnightblue" d="M1415.64,-539.714C1425.14,-541.576 1434.47,-543.405 1442.3,-544.941"/>
<polygon fill="midnightblue" stroke="midnightblue" points="1416.23,-536.262 1405.74,-537.772 1414.88,-543.131 1416.23,-536.262"/>
</g>
<!-- Node26 -->
<g id="node66" class="node"><title>Node26</title>
<a xlink:href="classServer.xhtml#a2b4cec469bb99c2a45e49de5ba74d1ae" target="_top" xlink:title="Processes input from all active SocketClient objects.">
<polygon fill="white" stroke="black" points="1164,-478.5 1164,-499.5 1280,-499.5 1280,-478.5 1164,-478.5"/>
<text text-anchor="middle" x="1222" y="-486.5" font-family="FreeSans.ttf" font-size="10.00">Server::ProcessInput</text>
</a>
</g>
<!-- Node25&#45;&gt;Node26 -->
<g id="edge80" class="edge"><title>Node25&#45;&gt;Node26</title>
<path fill="none" stroke="midnightblue" d="M1138.25,-489C1146.93,-489 1155.54,-489 1163.75,-489"/>
<polygon fill="midnightblue" stroke="midnightblue" points="1138.04,-485.5 1128.04,-489 1138.04,-492.5 1138.04,-485.5"/>
</g>
<!-- Node26&#45;&gt;Node24 -->
<g id="edge82" class="edge"><title>Node26&#45;&gt;Node24</title>
<path fill="none" stroke="midnightblue" d="M1268.34,-502.336C1286.53,-507.57 1307.11,-513.491 1324.24,-518.422"/>
<polygon fill="midnightblue" stroke="midnightblue" points="1269.1,-498.912 1258.52,-499.51 1267.16,-505.639 1269.1,-498.912"/>
</g>
<!-- Node27&#45;&gt;Node2 -->
<g id="edge86" class="edge"><title>Node27&#45;&gt;Node2</title>
<path fill="none" stroke="midnightblue" d="M262.366,-261.552C271.038,-262.782 279.702,-264.01 287.776,-265.155"/>
<polygon fill="midnightblue" stroke="midnightblue" points="262.609,-258.051 252.217,-260.113 261.626,-264.982 262.609,-258.051"/>
</g>
</g>
</svg>
        <g id="navigator" transform="translate(0 0)" fill="#404254">
                <rect fill="#f2f5e9" fill-opacity="0.5" stroke="#606060" stroke-width=".5" x="0" y="0" width="60" height="60"/>
                <use id="zoomplus" xlink:href="#zoomPlus" x="17" y="9" onmousedown="handleZoom(evt,'in')"/>
                <use id="zoomminus" xlink:href="#zoomMin" x="42" y="9" onmousedown="handleZoom(evt,'out')"/>
                <use id="reset" xlink:href="#resetDef" x="30" y="36" onmousedown="handleReset()"/>
                <g id="arrowUp" xlink:href="#dirArrow" transform="translate(30 24)" onmousedown="handlePan(0,-1)">
                  <use xlink:href="#rim" fill="#404040">
                        <set attributeName="fill" to="#808080" begin="arrowUp.mouseover" end="arrowUp.mouseout"/>
                  </use>
                  <path fill="none" stroke="white" stroke-width="1.5" d="M0,-3.0v7 M-2.5,-0.5L0,-3.0L2.5,-0.5"/>
                </g>
                <g id="arrowRight" xlink:href="#dirArrow" transform="rotate(90) translate(36 -43)" onmousedown="handlePan(1,0)">
                  <use xlink:href="#rim" fill="#404040">
                        <set attributeName="fill" to="#808080" begin="arrowRight.mouseover" end="arrowRight.mouseout"/>
                  </use>
                  <path fill="none" stroke="white" stroke-width="1.5" d="M0,-3.0v7 M-2.5,-0.5L0,-3.0L2.5,-0.5"/>
                </g>
                <g id="arrowDown" xlink:href="#dirArrow" transform="rotate(180) translate(-30 -48)" onmousedown="handlePan(0,1)">
                  <use xlink:href="#rim" fill="#404040">
                        <set attributeName="fill" to="#808080" begin="arrowDown.mouseover" end="arrowDown.mouseout"/>
                  </use>
                  <path fill="none" stroke="white" stroke-width="1.5" d="M0,-3.0v7 M-2.5,-0.5L0,-3.0L2.5,-0.5"/>
                </g>
                <g id="arrowLeft" xlink:href="#dirArrow" transform="rotate(270) translate(-36 17)" onmousedown="handlePan(-1,0)">
                  <use xlink:href="#rim" fill="#404040">
                        <set attributeName="fill" to="#808080" begin="arrowLeft.mouseover" end="arrowLeft.mouseout"/>
                  </use>
                  <path fill="none" stroke="white" stroke-width="1.5" d="M0,-3.0v7 M-2.5,-0.5L0,-3.0L2.5,-0.5"/>
                </g>
        </g>
</svg>
