<?xml version="1.0" encoding="UTF-8" standalone="no"?>
<!DOCTYPE svg PUBLIC "-//W3C//DTD SVG 1.1//EN"
 "http://www.w3.org/Graphics/SVG/1.1/DTD/svg11.dtd">
<!-- Generated by graphviz version 2.26.3 (20100126.1600)
 -->
<!-- Title: G Pages: 1 -->
<svg width="346pt" height="30pt"
 viewBox="0.00 0.00 346.00 30.00" xmlns="http://www.w3.org/2000/svg" xmlns:xlink="http://www.w3.org/1999/xlink">
<g id="graph1" class="graph" transform="scale(1 1) rotate(0) translate(4 26)">
<title>G</title>
<polygon fill="white" stroke="white" points="-4,5 -4,-26 343,-26 343,5 -4,5"/>
<!-- Node1 -->
<g id="node1" class="node"><title>Node1</title>
<polygon fill="#bfbfbf" stroke="black" points="0.5,-0.5 0.5,-21.5 133.5,-21.5 133.5,-0.5 0.5,-0.5"/>
<text text-anchor="middle" x="67" y="-8.5" font-family="FreeSans.ttf" font-size="10.00">Server::LoadCommands</text>
</g>
<!-- Node2 -->
<g id="node3" class="node"><title>Node2</title>
<a xlink:href="classServer.xhtml#a84ed4b0103f83fe0ece0a89983d0787a" target="_top" xlink:title="Server::Startup">
<polygon fill="white" stroke="black" points="170,-0.5 170,-21.5 260,-21.5 260,-0.5 170,-0.5"/>
<text text-anchor="middle" x="215" y="-8.5" font-family="FreeSans.ttf" font-size="10.00">Server::Startup</text>
</a>
</g>
<!-- Node1&#45;&gt;Node2 -->
<g id="edge2" class="edge"><title>Node1&#45;&gt;Node2</title>
<path fill="none" stroke="midnightblue" d="M143.743,-11C152.696,-11 161.596,-11 169.917,-11"/>
<polygon fill="midnightblue" stroke="midnightblue" points="143.64,-7.5001 133.64,-11 143.64,-14.5001 143.64,-7.5001"/>
</g>
<!-- Node3 -->
<g id="node5" class="node"><title>Node3</title>
<a xlink:href="main_8cpp.xhtml#ad53223b8779f25caeddb70a3b9172967" target="_top" xlink:title="The default function required to execute the server.">
<polygon fill="white" stroke="black" points="296.5,-0.5 296.5,-21.5 337.5,-21.5 337.5,-0.5 296.5,-0.5"/>
<text text-anchor="middle" x="317" y="-8.5" font-family="FreeSans.ttf" font-size="10.00">main</text>
</a>
</g>
<!-- Node2&#45;&gt;Node3 -->
<g id="edge4" class="edge"><title>Node2&#45;&gt;Node3</title>
<path fill="none" stroke="midnightblue" d="M270.203,-11C279.56,-11 288.726,-11 296.432,-11"/>
<polygon fill="midnightblue" stroke="midnightblue" points="270.036,-7.5001 260.036,-11 270.036,-14.5001 270.036,-7.5001"/>
</g>
</g>
</svg>
