<?xml version="1.0" encoding="UTF-8" standalone="no"?>
<!DOCTYPE svg PUBLIC "-//W3C//DTD SVG 1.1//EN"
 "http://www.w3.org/Graphics/SVG/1.1/DTD/svg11.dtd">
<!-- Generated by graphviz version 2.26.3 (20100126.1600)
 -->
<!-- Title: G Pages: 1 -->
<!--zoomable 688 -->
<svg id="main" version="1.1" xmlns="http://www.w3.org/2000/svg" xmlns:xlink="http://www.w3.org/1999/xlink" xml:space="preserve" onload="init(evt)">
        <defs>
                <circle id="rim" cx="0" cy="0" r="7"/>
                <circle id="rim2" cx="0" cy="0" r="3.5"/>
                <g id="zoomPlus">
                        <use xlink:href="#rim" fill="#404040">
                                <set attributeName="fill" to="#808080" begin="zoomplus.mouseover" end="zoomplus.mouseout"/>
                        </use>
                        <path d="M-4,0h8M0,-4v8" fill="none" stroke="white" stroke-width="1.5" pointer-events="none"/>
                </g>
                <g id="zoomMin">
                        <use xlink:href="#rim" fill="#404040">
                                <set attributeName="fill" to="#808080" begin="zoomminus.mouseover" end="zoomminus.mouseout"/>
                        </use>
                        <path d="M-4,0h8" fill="none" stroke="white" stroke-width="1.5" pointer-events="none"/>
                </g>
                <g id="dirArrow">
                        <path fill="none" stroke="white" stroke-width="1.5" d="M0,-3.0v7 M-2.5,-0.5L0,-3.0L2.5,-0.5"/>
                </g>
               <g id="resetDef">
                       <use xlink:href="#rim2" fill="#404040">
                               <set attributeName="fill" to="#808080" begin="reset.mouseover" end="reset.mouseout"/>
                       </use>
               </g>
        </defs>

<script type="text/javascript">
var viewWidth = 1416;
var viewHeight = 688;
var sectionId = 'dynsection-6';
</script>
<script xlink:href="svgpan.js"/>
<svg id="graph" class="graph">
<g id="viewport">
<title>G</title>
<polygon fill="white" stroke="white" points="-4,5 -4,-684.496 1413,-684.496 1413,5 -4,5"/>
<!-- Node1 -->
<g id="node1" class="node"><title>Node1</title>
<polygon fill="#bfbfbf" stroke="black" points="0,-375.996 0,-396.996 108,-396.996 108,-375.996 0,-375.996"/>
<text text-anchor="middle" x="54" y="-383.996" font-family="FreeSans.ttf" font-size="10.00">Command::gName</text>
</g>
<!-- Node2 -->
<g id="node3" class="node"><title>Node2</title>
<a xlink:href="classCommand.xhtml#a6b8eed27f76619d07effd72372a4be48" target="_top" xlink:title="Load a plugin command from CFG_DAT_DIR_OBJ.">
<polygon fill="white" stroke="black" points="162.5,-430.996 162.5,-451.996 255.5,-451.996 255.5,-430.996 162.5,-430.996"/>
<text text-anchor="middle" x="209" y="-438.996" font-family="FreeSans.ttf" font-size="10.00">Command::New</text>
</a>
</g>
<!-- Node1&#45;&gt;Node2 -->
<g id="edge2" class="edge"><title>Node1&#45;&gt;Node2</title>
<path fill="none" stroke="midnightblue" d="M93.3244,-400.45C120.026,-409.924 154.787,-422.259 179.206,-430.924"/>
<polygon fill="midnightblue" stroke="midnightblue" points="94.4803,-397.146 83.8856,-397.1 92.1394,-403.743 94.4803,-397.146"/>
</g>
<!-- Node10 -->
<g id="node20" class="node"><title>Node10</title>
<a xlink:href="namespaceHandler.xhtml#a02ba68c0c416219816c97189ea8bae4d" target="_top" xlink:title="Locates a Command associated with the game.">
<polygon fill="white" stroke="black" points="144.5,-320.996 144.5,-341.996 273.5,-341.996 273.5,-320.996 144.5,-320.996"/>
<text text-anchor="middle" x="209" y="-328.996" font-family="FreeSans.ttf" font-size="10.00">Handler::FindCommand</text>
</a>
</g>
<!-- Node1&#45;&gt;Node10 -->
<g id="edge20" class="edge"><title>Node1&#45;&gt;Node10</title>
<path fill="none" stroke="midnightblue" d="M93.3244,-372.542C120.026,-363.067 154.787,-350.733 179.206,-342.068"/>
<polygon fill="midnightblue" stroke="midnightblue" points="92.1394,-369.249 83.8856,-375.891 94.4803,-375.846 92.1394,-369.249"/>
</g>
<!-- Node3 -->
<g id="node5" class="node"><title>Node3</title>
<a xlink:href="classServer.xhtml#ac2e1d14caee54a38a89c2394abe6e5a5" target="_top" xlink:title="Search all subfolders of CFG_DAT_DIR_COMMAND and call Command::New() to load each file found to memor...">
<polygon fill="white" stroke="black" points="515.5,-658.996 515.5,-679.996 648.5,-679.996 648.5,-658.996 515.5,-658.996"/>
<text text-anchor="middle" x="582" y="-666.996" font-family="FreeSans.ttf" font-size="10.00">Server::LoadCommands</text>
</a>
</g>
<!-- Node2&#45;&gt;Node3 -->
<g id="edge4" class="edge"><title>Node2&#45;&gt;Node3</title>
<path fill="none" stroke="midnightblue" d="M230.023,-458.531C277.465,-496.312 397.492,-588.224 510,-644.496 521.243,-650.119 534.056,-655.011 545.727,-658.941"/>
<polygon fill="midnightblue" stroke="midnightblue" points="232.021,-455.647 222.028,-452.128 227.645,-461.111 232.021,-455.647"/>
</g>
<!-- Node6 -->
<g id="node11" class="node"><title>Node6</title>
<a xlink:href="classServer.xhtml#a4073e768d93ce18c25cb5996f4cd3729" target="_top" xlink:title="Reloads a Command Plugin.">
<polygon fill="white" stroke="black" points="324,-430.996 324,-451.996 460,-451.996 460,-430.996 324,-430.996"/>
<text text-anchor="middle" x="392" y="-438.996" font-family="FreeSans.ttf" font-size="10.00">Server::ReloadCommand</text>
</a>
</g>
<!-- Node2&#45;&gt;Node6 -->
<g id="edge10" class="edge"><title>Node2&#45;&gt;Node6</title>
<path fill="none" stroke="midnightblue" d="M265.86,-441.496C284.161,-441.496 304.63,-441.496 323.667,-441.496"/>
<polygon fill="midnightblue" stroke="midnightblue" points="265.652,-437.996 255.652,-441.496 265.652,-444.996 265.652,-437.996"/>
</g>
<!-- Node4 -->
<g id="node7" class="node"><title>Node4</title>
<a xlink:href="classServer.xhtml#a19a1e493e1fb50a56d9c77332543d565" target="_top" xlink:title="Start the NAMS Server. Responsible for calling all critical boot&#45;time functions such as SocketServer ...">
<polygon fill="white" stroke="black" points="1097,-140.996 1097,-161.996 1187,-161.996 1187,-140.996 1097,-140.996"/>
<text text-anchor="middle" x="1142" y="-148.996" font-family="FreeSans.ttf" font-size="10.00">Server::Startup</text>
</a>
</g>
<!-- Node3&#45;&gt;Node4 -->
<g id="edge6" class="edge"><title>Node3&#45;&gt;Node4</title>
<path fill="none" stroke="midnightblue" d="M658.788,-677.904C721.68,-681.153 810.912,-677.164 878,-639.496 1071.18,-531.031 1130.34,-223.555 1140.36,-162.218"/>
<polygon fill="midnightblue" stroke="midnightblue" points="658.727,-674.394 648.538,-677.299 658.314,-681.382 658.727,-674.394"/>
</g>
<!-- Node5 -->
<g id="node9" class="node"><title>Node5</title>
<a xlink:href="main_8cpp.xhtml#ad53223b8779f25caeddb70a3b9172967" target="_top" xlink:title="The default function required to execute the server.">
<polygon fill="white" stroke="black" points="1366.5,-99.9958 1366.5,-120.996 1407.5,-120.996 1407.5,-99.9958 1366.5,-99.9958"/>
<text text-anchor="middle" x="1387" y="-107.996" font-family="FreeSans.ttf" font-size="10.00">main</text>
</a>
</g>
<!-- Node4&#45;&gt;Node5 -->
<g id="edge8" class="edge"><title>Node4&#45;&gt;Node5</title>
<path fill="none" stroke="midnightblue" d="M1197.26,-142.248C1250.89,-133.274 1329.42,-120.132 1366.35,-113.951"/>
<polygon fill="midnightblue" stroke="midnightblue" points="1196.51,-138.825 1187.22,-143.928 1197.66,-145.729 1196.51,-138.825"/>
</g>
<!-- Node7 -->
<g id="node13" class="node"><title>Node7</title>
<a xlink:href="classEvent.xhtml#ae00620af2a424d3d0041676e76b9303c" target="_top" xlink:title="Execute the function stored within the Event object.">
<polygon fill="white" stroke="black" points="945.5,-389.996 945.5,-410.996 1012.5,-410.996 1012.5,-389.996 945.5,-389.996"/>
<text text-anchor="middle" x="979" y="-397.996" font-family="FreeSans.ttf" font-size="10.00">Event::Run</text>
</a>
</g>
<!-- Node6&#45;&gt;Node7 -->
<g id="edge12" class="edge"><title>Node6&#45;&gt;Node7</title>
<path fill="none" stroke="midnightblue" d="M410.778,-459.151C478.339,-520.474 713.722,-714.989 878,-611.496 952.05,-564.845 973.001,-447.216 977.776,-411.165"/>
<polygon fill="midnightblue" stroke="midnightblue" points="412.78,-456.237 403.049,-452.047 408.043,-461.391 412.78,-456.237"/>
</g>
<!-- Node8 -->
<g id="node15" class="node"><title>Node8</title>
<a xlink:href="classServer.xhtml#a266931bde9b1955346955140986d2b00" target="_top" xlink:title="Process any scheduled events tied to the Server.">
<polygon fill="white" stroke="black" points="1080,-100.996 1080,-121.996 1204,-121.996 1204,-100.996 1080,-100.996"/>
<text text-anchor="middle" x="1142" y="-108.996" font-family="FreeSans.ttf" font-size="10.00">Server::ProcessEvents</text>
</a>
</g>
<!-- Node7&#45;&gt;Node8 -->
<g id="edge14" class="edge"><title>Node7&#45;&gt;Node8</title>
<path fill="none" stroke="midnightblue" d="M980.759,-379.797C986.116,-329.805 1006.66,-201.454 1080,-131.496 1084.01,-127.67 1088.76,-124.577 1093.81,-122.075"/>
<polygon fill="midnightblue" stroke="midnightblue" points="977.252,-379.696 979.766,-389.988 984.219,-380.375 977.252,-379.696"/>
</g>
<!-- Node9 -->
<g id="node17" class="node"><title>Node9</title>
<a xlink:href="classServer.xhtml#a50b81aa91d8fdaee6f52c5c5ec987990" target="_top" xlink:title="The core update loop of NAMS. This loop spawns all other subsystem update routines and then sleeps fo...">
<polygon fill="white" stroke="black" points="1240.5,-70.9958 1240.5,-91.9958 1329.5,-91.9958 1329.5,-70.9958 1240.5,-70.9958"/>
<text text-anchor="middle" x="1285" y="-78.9958" font-family="FreeSans.ttf" font-size="10.00">Server::Update</text>
</a>
</g>
<!-- Node8&#45;&gt;Node9 -->
<g id="edge16" class="edge"><title>Node8&#45;&gt;Node9</title>
<path fill="none" stroke="midnightblue" d="M1202.45,-98.8134C1215.13,-96.153 1228.29,-93.393 1240.27,-90.879"/>
<polygon fill="midnightblue" stroke="midnightblue" points="1201.48,-95.4402 1192.42,-100.919 1202.92,-102.291 1201.48,-95.4402"/>
</g>
<!-- Node9&#45;&gt;Node5 -->
<g id="edge18" class="edge"><title>Node9&#45;&gt;Node5</title>
<path fill="none" stroke="midnightblue" d="M1331.73,-94.7826C1343.88,-98.2367 1356.36,-101.783 1366.37,-104.631"/>
<polygon fill="midnightblue" stroke="midnightblue" points="1332.69,-91.4157 1322.11,-92.0475 1330.77,-98.1489 1332.69,-91.4157"/>
</g>
<!-- Node10&#45;&gt;Node6 -->
<g id="edge98" class="edge"><title>Node10&#45;&gt;Node6</title>
<path fill="none" stroke="midnightblue" d="M235.492,-347.42C273.457,-370.241 342.3,-411.622 374.506,-430.98"/>
<polygon fill="midnightblue" stroke="midnightblue" points="236.921,-344.195 226.547,-342.043 233.314,-350.195 236.921,-344.195"/>
</g>
<!-- Node11 -->
<g id="node22" class="node"><title>Node11</title>
<a xlink:href="namespaceHandler.xhtml#a33a19d69ead678af81fbe96907eceaf0" target="_top" xlink:title="Create a new account object, or load an existing one, with a name and password.">
<polygon fill="white" stroke="black" points="326.5,-320.996 326.5,-341.996 457.5,-341.996 457.5,-320.996 326.5,-320.996"/>
<text text-anchor="middle" x="392" y="-328.996" font-family="FreeSans.ttf" font-size="10.00">Handler::AttachAccount</text>
</a>
</g>
<!-- Node10&#45;&gt;Node11 -->
<g id="edge22" class="edge"><title>Node10&#45;&gt;Node11</title>
<path fill="none" stroke="midnightblue" d="M283.666,-331.496C297.762,-331.496 312.41,-331.496 326.21,-331.496"/>
<polygon fill="midnightblue" stroke="midnightblue" points="283.519,-327.996 273.519,-331.496 283.519,-334.996 283.519,-327.996"/>
</g>
<!-- Node30 -->
<g id="node76" class="node"><title>Node30</title>
<a xlink:href="classSocketClient.xhtml#ad4f63c7d906310dc56a1217136047d7f" target="_top" xlink:title="Interpret the command at the front of the queue.">
<polygon fill="white" stroke="black" points="699,-20.9958 699,-41.9958 869,-41.9958 869,-20.9958 699,-20.9958"/>
<text text-anchor="middle" x="784" y="-28.9958" font-family="FreeSans.ttf" font-size="10.00">SocketClient::ProcessCommand</text>
</a>
</g>
<!-- Node10&#45;&gt;Node30 -->
<g id="edge100" class="edge"><title>Node10&#45;&gt;Node30</title>
<path fill="none" stroke="midnightblue" d="M246.311,-317.124C326.453,-285.115 518.727,-202.138 654,-93.4958 673.169,-78.1008 668.861,-64.0496 690,-51.4958 696.456,-47.662 703.546,-44.558 710.849,-42.0458"/>
<polygon fill="midnightblue" stroke="midnightblue" points="244.665,-314.011 236.657,-320.949 247.243,-320.519 244.665,-314.011"/>
</g>
<!-- Node32 -->
<g id="node83" class="node"><title>Node32</title>
<a xlink:href="classSocketClient.xhtml#aa3c0d7886b8fede981c73031cfaf17c6" target="_top" xlink:title="Append a command to the back of the queue.">
<polygon fill="white" stroke="black" points="310,-92.9958 310,-113.996 474,-113.996 474,-92.9958 310,-92.9958"/>
<text text-anchor="middle" x="392" y="-100.996" font-family="FreeSans.ttf" font-size="10.00">SocketClient::QueueCommand</text>
</a>
</g>
<!-- Node10&#45;&gt;Node32 -->
<g id="edge102" class="edge"><title>Node10&#45;&gt;Node32</title>
<path fill="none" stroke="midnightblue" d="M217.212,-311.225C231.891,-276.805 265.328,-206.045 310,-158.496 327.723,-139.631 353.068,-123.885 370.876,-114.143"/>
<polygon fill="midnightblue" stroke="midnightblue" points="213.889,-310.098 213.266,-320.675 220.349,-312.795 213.889,-310.098"/>
</g>
<!-- Node12 -->
<g id="node24" class="node"><title>Node12</title>
<a xlink:href="namespaceHandler.xhtml#a139febc000c9d767a620708148e0c888" target="_top" xlink:title="Dispatches the appropriate menu based on client state.">
<polygon fill="white" stroke="black" points="520.5,-320.996 520.5,-341.996 643.5,-341.996 643.5,-320.996 520.5,-320.996"/>
<text text-anchor="middle" x="582" y="-328.996" font-family="FreeSans.ttf" font-size="10.00">Handler::LoginHandler</text>
</a>
</g>
<!-- Node11&#45;&gt;Node12 -->
<g id="edge24" class="edge"><title>Node11&#45;&gt;Node12</title>
<path fill="none" stroke="midnightblue" d="M467.826,-324.87C485.314,-324.641 503.707,-324.729 520.498,-325.134"/>
<polygon fill="midnightblue" stroke="midnightblue" points="467.593,-321.373 457.653,-325.041 467.711,-328.372 467.593,-321.373"/>
</g>
<!-- Node12&#45;&gt;Node11 -->
<g id="edge26" class="edge"><title>Node12&#45;&gt;Node11</title>
<path fill="none" stroke="midnightblue" d="M510.445,-338.06C493.122,-338.34 474.69,-338.304 457.653,-337.951"/>
<polygon fill="midnightblue" stroke="midnightblue" points="510.57,-341.558 520.498,-337.858 510.43,-334.559 510.57,-341.558"/>
</g>
<!-- Node13 -->
<g id="node27" class="node"><title>Node13</title>
<a xlink:href="namespaceHandler.xhtml#a2e4ebf6ed049eb872aa4948d54c4932c" target="_top" xlink:title="Attempt to write a new character to disk after creation was completed.">
<polygon fill="white" stroke="black" points="714.5,-580.996 714.5,-601.996 853.5,-601.996 853.5,-580.996 714.5,-580.996"/>
<text text-anchor="middle" x="784" y="-588.996" font-family="FreeSans.ttf" font-size="10.00">Handler::AttachCharacter</text>
</a>
</g>
<!-- Node12&#45;&gt;Node13 -->
<g id="edge28" class="edge"><title>Node12&#45;&gt;Node13</title>
<path fill="none" stroke="midnightblue" d="M585.795,-352.03C594.559,-397.707 621.007,-506.841 690,-562.496 702.337,-572.448 718.462,-577.767 733.866,-580.983"/>
<polygon fill="midnightblue" stroke="midnightblue" points="589.219,-351.296 583.974,-342.091 582.334,-352.558 589.219,-351.296"/>
</g>
<!-- Node14 -->
<g id="node30" class="node"><title>Node14</title>
<a xlink:href="namespaceHandler.xhtml#a73ed6064f2698dbffb5f4c247a02b661" target="_top" xlink:title="Send initial account interface menu.">
<polygon fill="white" stroke="black" points="710,-540.996 710,-561.996 858,-561.996 858,-540.996 710,-540.996"/>
<text text-anchor="middle" x="784" y="-548.996" font-family="FreeSans.ttf" font-size="10.00">Handler::AccountMenuMain</text>
</a>
</g>
<!-- Node12&#45;&gt;Node14 -->
<g id="edge32" class="edge"><title>Node12&#45;&gt;Node14</title>
<path fill="none" stroke="midnightblue" d="M588.46,-352.206C600.573,-392.061 630.97,-478.302 690,-522.496 703.356,-532.495 720.621,-537.734 736.703,-540.943"/>
<polygon fill="midnightblue" stroke="midnightblue" points="591.776,-351.077 585.581,-342.482 585.064,-353.064 591.776,-351.077"/>
</g>
<!-- Node15 -->
<g id="node33" class="node"><title>Node15</title>
<a xlink:href="namespaceHandler.xhtml#ad04998a7a6ece2486bc441052a57c2d7" target="_top" xlink:title="Main Character creation menu.">
<polygon fill="white" stroke="black" points="690,-500.996 690,-521.996 878,-521.996 878,-500.996 690,-500.996"/>
<text text-anchor="middle" x="784" y="-508.996" font-family="FreeSans.ttf" font-size="10.00">Handler::CharacterCreateMenuMain</text>
</a>
</g>
<!-- Node12&#45;&gt;Node15 -->
<g id="edge36" class="edge"><title>Node12&#45;&gt;Node15</title>
<path fill="none" stroke="midnightblue" d="M592.057,-351.446C607.452,-384.432 640.394,-449.041 690,-482.496 704.94,-492.571 724.004,-497.705 741.054,-500.949"/>
<polygon fill="midnightblue" stroke="midnightblue" points="595.204,-349.913 587.843,-342.293 588.846,-352.84 595.204,-349.913"/>
</g>
<!-- Node16 -->
<g id="node36" class="node"><title>Node16</title>
<a xlink:href="namespaceHandler.xhtml#ab5889a65de2794129b375ec39ae923ae" target="_top" xlink:title="Select a new Character name.">
<polygon fill="white" stroke="black" points="699.5,-460.996 699.5,-481.996 868.5,-481.996 868.5,-460.996 699.5,-460.996"/>
<text text-anchor="middle" x="784" y="-468.996" font-family="FreeSans.ttf" font-size="10.00">Handler::CharacterCreateName</text>
</a>
</g>
<!-- Node12&#45;&gt;Node16 -->
<g id="edge40" class="edge"><title>Node12&#45;&gt;Node16</title>
<path fill="none" stroke="midnightblue" d="M597.593,-350.212C616.107,-375.475 649.618,-419.17 690,-442.496 707.337,-452.51 729.075,-457.531 747.279,-460.966"/>
<polygon fill="midnightblue" stroke="midnightblue" points="600.403,-348.126 591.683,-342.109 594.748,-352.251 600.403,-348.126"/>
</g>
<!-- Node17 -->
<g id="node39" class="node"><title>Node17</title>
<a xlink:href="namespaceHandler.xhtml#ae5086bcf5857eb572beedd09158c3065" target="_top" xlink:title="Select a new Character sex.">
<polygon fill="white" stroke="black" points="705,-420.996 705,-441.996 863,-441.996 863,-420.996 705,-420.996"/>
<text text-anchor="middle" x="784" y="-428.996" font-family="FreeSans.ttf" font-size="10.00">Handler::CharacterCreateSex</text>
</a>
</g>
<!-- Node12&#45;&gt;Node17 -->
<g id="edge44" class="edge"><title>Node12&#45;&gt;Node17</title>
<path fill="none" stroke="midnightblue" d="M607.901,-348.359C628.596,-364.764 659.152,-388.587 690,-402.496 710.686,-411.823 735.922,-416.884 755.036,-420.93"/>
<polygon fill="midnightblue" stroke="midnightblue" points="609.945,-345.513 599.933,-342.046 605.598,-350.999 609.945,-345.513"/>
</g>
<!-- Node18 -->
<g id="node42" class="node"><title>Node18</title>
<a xlink:href="namespaceHandler.xhtml#a97a198bfc72285b2aca4f36978db715e" target="_top" xlink:title="Main Character deletion confirmation.">
<polygon fill="white" stroke="black" points="696,-380.996 696,-401.996 872,-401.996 872,-380.996 696,-380.996"/>
<text text-anchor="middle" x="784" y="-388.996" font-family="FreeSans.ttf" font-size="10.00">Handler::CharacterDeleteConfirm</text>
</a>
</g>
<!-- Node12&#45;&gt;Node18 -->
<g id="edge48" class="edge"><title>Node12&#45;&gt;Node18</title>
<path fill="none" stroke="midnightblue" d="M638.081,-345.401C654.636,-351.193 672.903,-357.539 690,-362.496 714.839,-369.697 744.059,-375.51 763.249,-380.973"/>
<polygon fill="midnightblue" stroke="midnightblue" points="639.147,-342.066 628.553,-342.069 636.837,-348.674 639.147,-342.066"/>
</g>
<!-- Node19 -->
<g id="node45" class="node"><title>Node19</title>
<a xlink:href="namespaceHandler.xhtml#afc470ec6e82b7a9a1560588a368734f9" target="_top" xlink:title="Main Character deletion menu.">
<polygon fill="white" stroke="black" points="690,-340.996 690,-361.996 878,-361.996 878,-340.996 690,-340.996"/>
<text text-anchor="middle" x="784" y="-348.996" font-family="FreeSans.ttf" font-size="10.00">Handler::CharacterDeleteMenuMain</text>
</a>
</g>
<!-- Node12&#45;&gt;Node19 -->
<g id="edge52" class="edge"><title>Node12&#45;&gt;Node19</title>
<path fill="none" stroke="midnightblue" d="M654.027,-332.13C681.408,-334.35 711.892,-337.592 736.452,-340.96"/>
<polygon fill="midnightblue" stroke="midnightblue" points="653.945,-328.614 643.704,-331.331 653.404,-335.593 653.945,-328.614"/>
</g>
<!-- Node20 -->
<g id="node48" class="node"><title>Node20</title>
<a xlink:href="namespaceHandler.xhtml#a02b1b954749641ab646f6548a5360d3b" target="_top" xlink:title="Main Character load menu.">
<polygon fill="white" stroke="black" points="694.5,-300.996 694.5,-321.996 873.5,-321.996 873.5,-300.996 694.5,-300.996"/>
<text text-anchor="middle" x="784" y="-308.996" font-family="FreeSans.ttf" font-size="10.00">Handler::CharacterLoadMenuMain</text>
</a>
</g>
<!-- Node12&#45;&gt;Node20 -->
<g id="edge56" class="edge"><title>Node12&#45;&gt;Node20</title>
<path fill="none" stroke="midnightblue" d="M639.647,-319.624C656.623,-317.455 675.616,-315.392 694.106,-313.683"/>
<polygon fill="midnightblue" stroke="midnightblue" points="638.814,-316.204 629.36,-320.986 639.733,-323.143 638.814,-316.204"/>
</g>
<!-- Node21 -->
<g id="node51" class="node"><title>Node21</title>
<a xlink:href="namespaceHandler.xhtml#a00bc24564bfd267e0329643c569da1e4" target="_top" xlink:title="Select a new account name.">
<polygon fill="white" stroke="black" points="715.5,-260.996 715.5,-281.996 852.5,-281.996 852.5,-260.996 715.5,-260.996"/>
<text text-anchor="middle" x="784" y="-268.996" font-family="FreeSans.ttf" font-size="10.00">Handler::GetNewAccount</text>
</a>
</g>
<!-- Node12&#45;&gt;Node21 -->
<g id="edge60" class="edge"><title>Node12&#45;&gt;Node21</title>
<path fill="none" stroke="midnightblue" d="M602.688,-316.062C624.208,-305.019 659.025,-291.476 690,-282.496 698.173,-280.126 706.82,-277.907 715.428,-275.944"/>
<polygon fill="midnightblue" stroke="midnightblue" points="600.884,-313.059 593.797,-320.934 604.248,-319.197 600.884,-313.059"/>
</g>
<!-- Node22 -->
<g id="node54" class="node"><title>Node22</title>
<a xlink:href="namespaceHandler.xhtml#a744adadcf407cdb3a9c33365afd5a7c2" target="_top" xlink:title="Create a new account.">
<polygon fill="white" stroke="black" points="713,-220.996 713,-241.996 855,-241.996 855,-220.996 713,-220.996"/>
<text text-anchor="middle" x="784" y="-228.996" font-family="FreeSans.ttf" font-size="10.00">Handler::GetNewPassword</text>
</a>
</g>
<!-- Node12&#45;&gt;Node22 -->
<g id="edge64" class="edge"><title>Node12&#45;&gt;Node22</title>
<path fill="none" stroke="midnightblue" d="M594.751,-313.256C613.833,-292.331 651.691,-259.769 690,-242.496 697.149,-239.272 704.841,-236.559 712.636,-234.331"/>
<polygon fill="midnightblue" stroke="midnightblue" points="592.039,-311.041 588.187,-320.91 597.353,-315.598 592.039,-311.041"/>
</g>
<!-- Node23 -->
<g id="node57" class="node"><title>Node23</title>
<a xlink:href="namespaceHandler.xhtml#adfe13cc9748392348f3941656a1323b6" target="_top" xlink:title="Compare a received password against an existing account.">
<polygon fill="white" stroke="black" points="715.5,-180.996 715.5,-201.996 852.5,-201.996 852.5,-180.996 715.5,-180.996"/>
<text text-anchor="middle" x="784" y="-188.996" font-family="FreeSans.ttf" font-size="10.00">Handler::GetOldPassword</text>
</a>
</g>
<!-- Node12&#45;&gt;Node23 -->
<g id="edge68" class="edge"><title>Node12&#45;&gt;Node23</title>
<path fill="none" stroke="midnightblue" d="M590.52,-311.888C606.548,-282.594 643.773,-229.198 690,-202.496 697.802,-197.989 706.495,-194.494 715.356,-191.868"/>
<polygon fill="midnightblue" stroke="midnightblue" points="587.384,-310.332 585.915,-320.825 593.607,-313.539 587.384,-310.332"/>
</g>
<!-- Node24 -->
<g id="node60" class="node"><title>Node24</title>
<a xlink:href="namespaceHandler.xhtml#ae70e4e50054c729c14493eafefe01b5c" target="_top" xlink:title="Load a character from the account to enter into the game with.">
<polygon fill="white" stroke="black" points="718.5,-140.996 718.5,-161.996 849.5,-161.996 849.5,-140.996 718.5,-140.996"/>
<text text-anchor="middle" x="784" y="-148.996" font-family="FreeSans.ttf" font-size="10.00">Handler::LoadCharacter</text>
</a>
</g>
<!-- Node12&#45;&gt;Node24 -->
<g id="edge72" class="edge"><title>Node12&#45;&gt;Node24</title>
<path fill="none" stroke="midnightblue" d="M587.744,-311.182C600.638,-274.643 635.123,-199.505 690,-162.496 698.438,-156.805 708.192,-152.691 718.156,-149.847"/>
<polygon fill="midnightblue" stroke="midnightblue" points="584.38,-310.206 584.558,-320.8 591.025,-312.408 584.38,-310.206"/>
</g>
<!-- Node25 -->
<g id="node63" class="node"><title>Node25</title>
<a xlink:href="namespaceHandler.xhtml#a44b41bf69fdc6e615a029bea34910191" target="_top" xlink:title="Send initial greeting and request for account name.">
<polygon fill="white" stroke="black" points="724.5,-100.996 724.5,-121.996 843.5,-121.996 843.5,-100.996 724.5,-100.996"/>
<text text-anchor="middle" x="784" y="-108.996" font-family="FreeSans.ttf" font-size="10.00">Handler::LoginScreen</text>
</a>
</g>
<!-- Node12&#45;&gt;Node25 -->
<g id="edge76" class="edge"><title>Node12&#45;&gt;Node25</title>
<path fill="none" stroke="midnightblue" d="M589.729,-311.322C611.607,-261.049 673.448,-134.888 690,-122.496 700.017,-114.996 712.233,-110.174 724.499,-107.331"/>
<polygon fill="midnightblue" stroke="midnightblue" points="586.379,-310.256 585.698,-320.829 592.824,-312.989 586.379,-310.256"/>
</g>
<!-- Node26 -->
<g id="node66" class="node"><title>Node26</title>
<a xlink:href="classSocketClient.xhtml#a48c79d01b91f2c1553c3b33b26714215" target="_top" xlink:title="Build a SocketClient for a new client connection and set all attributes.">
<polygon fill="white" stroke="black" points="732.5,-60.9958 732.5,-81.9958 835.5,-81.9958 835.5,-60.9958 732.5,-60.9958"/>
<text text-anchor="middle" x="784" y="-68.9958" font-family="FreeSans.ttf" font-size="10.00">SocketClient::New</text>
</a>
</g>
<!-- Node12&#45;&gt;Node26 -->
<g id="edge80" class="edge"><title>Node12&#45;&gt;Node26</title>
<path fill="none" stroke="midnightblue" d="M592.594,-311.729C607.227,-284.089 634.073,-232.15 654,-186.496 672.062,-145.114 655.732,-120.897 690,-91.4958 701.65,-81.5006 717.066,-76.1064 732.038,-73.2972"/>
<polygon fill="midnightblue" stroke="midnightblue" points="589.399,-310.283 587.791,-320.755 595.578,-313.571 589.399,-310.283"/>
</g>
<!-- Node12&#45;&gt;Node30 -->
<g id="edge92" class="edge"><title>Node12&#45;&gt;Node30</title>
<path fill="none" stroke="midnightblue" d="M593.26,-311.999C608.67,-284.676 636.417,-233.103 654,-186.496 675.918,-128.396 644.987,-94.2718 690,-51.4958 693.87,-47.8179 698.242,-44.747 702.929,-42.1887"/>
<polygon fill="midnightblue" stroke="midnightblue" points="590.09,-310.493 588.183,-320.915 596.173,-313.957 590.09,-310.493"/>
</g>
<!-- Node13&#45;&gt;Node12 -->
<g id="edge30" class="edge"><title>Node13&#45;&gt;Node12</title>
<path fill="none" stroke="midnightblue" d="M705.06,-589.739C699.672,-587.241 694.576,-584.187 690,-580.496 610.517,-516.38 587.5,-381.286 582.937,-342.029"/>
<polygon fill="midnightblue" stroke="midnightblue" points="703.776,-592.995 714.361,-593.435 706.36,-586.49 703.776,-592.995"/>
</g>
<!-- Node14&#45;&gt;Node12 -->
<g id="edge34" class="edge"><title>Node14&#45;&gt;Node12</title>
<path fill="none" stroke="midnightblue" d="M700.495,-547.038C696.811,-545.129 693.287,-542.957 690,-540.496 620.504,-488.466 590.693,-378.157 583.684,-342.45"/>
<polygon fill="midnightblue" stroke="midnightblue" points="699.383,-550.375 709.942,-551.254 702.236,-543.982 699.383,-550.375"/>
</g>
<!-- Node15&#45;&gt;Node12 -->
<g id="edge38" class="edge"><title>Node15&#45;&gt;Node12</title>
<path fill="none" stroke="midnightblue" d="M682.044,-494.726C626.419,-451.828 593.585,-371.692 584.558,-342.192"/>
<polygon fill="midnightblue" stroke="midnightblue" points="680.26,-497.755 690.416,-500.774 684.36,-492.081 680.26,-497.755"/>
</g>
<!-- Node16&#45;&gt;Node12 -->
<g id="edge42" class="edge"><title>Node16&#45;&gt;Node12</title>
<path fill="none" stroke="midnightblue" d="M690.285,-460.66C690.19,-460.605 690.095,-460.551 690,-460.496 638.547,-430.775 598.248,-367.984 585.915,-342.167"/>
<polygon fill="midnightblue" stroke="midnightblue" points="688.961,-463.912 699.464,-465.303 692.12,-457.666 688.961,-463.912"/>
</g>
<!-- Node17&#45;&gt;Node12 -->
<g id="edge46" class="edge"><title>Node17&#45;&gt;Node12</title>
<path fill="none" stroke="midnightblue" d="M694.941,-422.61C693.27,-421.931 691.621,-421.227 690,-420.496 646.606,-400.93 603.79,-361.746 588.187,-342.081"/>
<polygon fill="midnightblue" stroke="midnightblue" points="694.135,-426.043 704.728,-426.215 696.555,-419.474 694.135,-426.043"/>
</g>
<!-- Node18&#45;&gt;Node12 -->
<g id="edge50" class="edge"><title>Node18&#45;&gt;Node12</title>
<path fill="none" stroke="midnightblue" d="M686.124,-379.253C648.031,-367.603 611.918,-352.806 593.797,-342.058"/>
<polygon fill="midnightblue" stroke="midnightblue" points="685.258,-382.647 695.841,-382.142 687.253,-375.937 685.258,-382.647"/>
</g>
<!-- Node19&#45;&gt;Node12 -->
<g id="edge54" class="edge"><title>Node19&#45;&gt;Node12</title>
<path fill="none" stroke="midnightblue" d="M679.347,-347.88C661.835,-346.109 644.469,-344.081 629.36,-342.005"/>
<polygon fill="midnightblue" stroke="midnightblue" points="679.365,-351.399 689.659,-348.892 680.049,-344.432 679.365,-351.399"/>
</g>
<!-- Node20&#45;&gt;Node12 -->
<g id="edge58" class="edge"><title>Node20&#45;&gt;Node12</title>
<path fill="none" stroke="midnightblue" d="M726.425,-323.358C700.571,-326.663 670.028,-329.724 643.704,-331.66"/>
<polygon fill="midnightblue" stroke="midnightblue" points="726.998,-326.813 736.452,-322.031 726.08,-319.873 726.998,-326.813"/>
</g>
<!-- Node21&#45;&gt;Node12 -->
<g id="edge62" class="edge"><title>Node21&#45;&gt;Node12</title>
<path fill="none" stroke="midnightblue" d="M753.574,-284.609C735.035,-289.332 710.958,-294.42 690,-300.496 669.548,-306.425 647.421,-314.344 628.553,-320.922"/>
<polygon fill="midnightblue" stroke="midnightblue" points="754.495,-287.986 763.249,-282.018 752.684,-281.224 754.495,-287.986"/>
</g>
<!-- Node22&#45;&gt;Node12 -->
<g id="edge66" class="edge"><title>Node22&#45;&gt;Node12</title>
<path fill="none" stroke="midnightblue" d="M745.181,-244.149C727.764,-247.883 707.292,-252.699 690,-260.496 654.902,-276.321 620.182,-304.98 599.933,-320.946"/>
<polygon fill="midnightblue" stroke="midnightblue" points="745.978,-247.558 755.036,-242.062 744.528,-240.71 745.978,-247.558"/>
</g>
<!-- Node23&#45;&gt;Node12 -->
<g id="edge70" class="edge"><title>Node23&#45;&gt;Node12</title>
<path fill="none" stroke="midnightblue" d="M737.169,-204.051C721.405,-207.426 704.222,-212.281 690,-220.496 644.857,-246.572 608.3,-298.103 591.683,-320.883"/>
<polygon fill="midnightblue" stroke="midnightblue" points="738.161,-207.422 747.279,-202.026 736.786,-200.558 738.161,-207.422"/>
</g>
<!-- Node24&#45;&gt;Node12 -->
<g id="edge74" class="edge"><title>Node24&#45;&gt;Node12</title>
<path fill="none" stroke="midnightblue" d="M730.879,-164.182C716.714,-167.481 702.022,-172.388 690,-180.496 635.263,-217.411 600.814,-292.26 587.843,-320.699"/>
<polygon fill="midnightblue" stroke="midnightblue" points="731.988,-167.526 741.054,-162.042 730.547,-160.675 731.988,-167.526"/>
</g>
<!-- Node25&#45;&gt;Node12 -->
<g id="edge78" class="edge"><title>Node25&#45;&gt;Node12</title>
<path fill="none" stroke="midnightblue" d="M726.8,-124.278C713.769,-127.582 700.643,-132.527 690,-140.496 673.258,-153.03 610.179,-281.963 588.991,-320.802"/>
<polygon fill="midnightblue" stroke="midnightblue" points="727.716,-127.659 736.703,-122.049 726.179,-120.83 727.716,-127.659"/>
</g>
<!-- Node27 -->
<g id="node68" class="node"><title>Node27</title>
<a xlink:href="classServer.xhtml#a16ea0639731dee10e1a253375b508a02" target="_top" xlink:title="Recovers the server state and re&#45;connects client sockets after a reboot.">
<polygon fill="white" stroke="black" points="914,-120.996 914,-141.996 1044,-141.996 1044,-120.996 914,-120.996"/>
<text text-anchor="middle" x="979" y="-128.996" font-family="FreeSans.ttf" font-size="10.00">Server::RebootRecovery</text>
</a>
</g>
<!-- Node26&#45;&gt;Node27 -->
<g id="edge82" class="edge"><title>Node26&#45;&gt;Node27</title>
<path fill="none" stroke="midnightblue" d="M845.521,-83.0363C856.422,-85.52 867.606,-88.3559 878,-91.4958 905.262,-99.731 935.503,-112.168 955.723,-120.985"/>
<polygon fill="midnightblue" stroke="midnightblue" points="846.139,-79.5887 835.62,-80.8558 844.634,-86.4248 846.139,-79.5887"/>
</g>
<!-- Node28 -->
<g id="node71" class="node"><title>Node28</title>
<a xlink:href="classSocketServer.xhtml#afdbc60c3bc840875d2214b59c6213f63" target="_top" xlink:title="Accept a new connection on the listening port.">
<polygon fill="white" stroke="black" points="919,-60.9958 919,-81.9958 1039,-81.9958 1039,-60.9958 919,-60.9958"/>
<text text-anchor="middle" x="979" y="-68.9958" font-family="FreeSans.ttf" font-size="10.00">SocketServer::Accept</text>
</a>
</g>
<!-- Node26&#45;&gt;Node28 -->
<g id="edge86" class="edge"><title>Node26&#45;&gt;Node28</title>
<path fill="none" stroke="midnightblue" d="M845.854,-71.4958C869.139,-71.4958 895.569,-71.4958 918.709,-71.4958"/>
<polygon fill="midnightblue" stroke="midnightblue" points="845.744,-67.9959 835.744,-71.4958 845.744,-74.9959 845.744,-67.9959"/>
</g>
<!-- Node27&#45;&gt;Node4 -->
<g id="edge84" class="edge"><title>Node27&#45;&gt;Node4</title>
<path fill="none" stroke="midnightblue" d="M1054.31,-140.736C1068.78,-142.511 1083.51,-144.319 1096.66,-145.933"/>
<polygon fill="midnightblue" stroke="midnightblue" points="1054.71,-137.259 1044.36,-139.515 1053.86,-144.207 1054.71,-137.259"/>
</g>
<!-- Node29 -->
<g id="node73" class="node"><title>Node29</title>
<a xlink:href="classServer.xhtml#a39dbe16fdc8c5f6fbd678c6540fbcd6c" target="_top" xlink:title="Poll all SocketClient objects that are communicating with the associated SocketServer object...">
<polygon fill="white" stroke="black" points="1087.5,-60.9958 1087.5,-81.9958 1196.5,-81.9958 1196.5,-60.9958 1087.5,-60.9958"/>
<text text-anchor="middle" x="1142" y="-68.9958" font-family="FreeSans.ttf" font-size="10.00">Server::PollSockets</text>
</a>
</g>
<!-- Node28&#45;&gt;Node29 -->
<g id="edge88" class="edge"><title>Node28&#45;&gt;Node29</title>
<path fill="none" stroke="midnightblue" d="M1049.35,-71.4958C1062.09,-71.4958 1075.2,-71.4958 1087.4,-71.4958"/>
<polygon fill="midnightblue" stroke="midnightblue" points="1049.23,-67.9959 1039.23,-71.4958 1049.23,-74.9959 1049.23,-67.9959"/>
</g>
<!-- Node29&#45;&gt;Node9 -->
<g id="edge90" class="edge"><title>Node29&#45;&gt;Node9</title>
<path fill="none" stroke="midnightblue" d="M1207.08,-76.0469C1218.29,-76.8308 1229.71,-77.6295 1240.23,-78.3652"/>
<polygon fill="midnightblue" stroke="midnightblue" points="1207.1,-72.5397 1196.88,-75.3335 1206.61,-79.5226 1207.1,-72.5397"/>
</g>
<!-- Node31 -->
<g id="node78" class="node"><title>Node31</title>
<a xlink:href="classServer.xhtml#a2b4cec469bb99c2a45e49de5ba74d1ae" target="_top" xlink:title="Processes input from all active SocketClient objects.">
<polygon fill="white" stroke="black" points="921,-20.9958 921,-41.9958 1037,-41.9958 1037,-20.9958 921,-20.9958"/>
<text text-anchor="middle" x="979" y="-28.9958" font-family="FreeSans.ttf" font-size="10.00">Server::ProcessInput</text>
</a>
</g>
<!-- Node30&#45;&gt;Node31 -->
<g id="edge94" class="edge"><title>Node30&#45;&gt;Node31</title>
<path fill="none" stroke="midnightblue" d="M879.498,-31.4958C893.615,-31.4958 907.787,-31.4958 920.831,-31.4958"/>
<polygon fill="midnightblue" stroke="midnightblue" points="879.246,-27.9959 869.246,-31.4958 879.246,-34.9959 879.246,-27.9959"/>
</g>
<!-- Node31&#45;&gt;Node9 -->
<g id="edge96" class="edge"><title>Node31&#45;&gt;Node9</title>
<path fill="none" stroke="midnightblue" d="M1047.68,-32.8754C1092.62,-34.9312 1152.36,-39.8567 1204,-51.4958 1223.9,-55.9799 1245.51,-64.1665 1261.41,-70.8561"/>
<polygon fill="midnightblue" stroke="midnightblue" points="1047.6,-29.3689 1037.46,-32.4455 1047.3,-36.3628 1047.6,-29.3689"/>
</g>
<!-- Node33 -->
<g id="node85" class="node"><title>Node33</title>
<a xlink:href="classSocketClient.xhtml#a92fea2bf7e0f20578404ce1abb835a0b" target="_top" xlink:title="Process data from the client&#39;s receive buffer and split it into commands to queue as necessary...">
<polygon fill="white" stroke="black" points="510,-62.9958 510,-83.9958 654,-83.9958 654,-62.9958 510,-62.9958"/>
<text text-anchor="middle" x="582" y="-70.9958" font-family="FreeSans.ttf" font-size="10.00">SocketClient::ProcessInput</text>
</a>
</g>
<!-- Node32&#45;&gt;Node33 -->
<g id="edge104" class="edge"><title>Node32&#45;&gt;Node33</title>
<path fill="none" stroke="midnightblue" d="M468.766,-91.3748C484.229,-88.9333 500.362,-86.3861 515.441,-84.0051"/>
<polygon fill="midnightblue" stroke="midnightblue" points="468.051,-87.9442 458.72,-92.9611 469.143,-94.8586 468.051,-87.9442"/>
</g>
<!-- Node33&#45;&gt;Node31 -->
<g id="edge106" class="edge"><title>Node33&#45;&gt;Node31</title>
<path fill="none" stroke="midnightblue" d="M603.397,-56.6651C624.171,-41.4766 657.281,-20.2198 690,-11.4958 777.23,11.7623 884.218,-7.42828 940.371,-20.9746"/>
<polygon fill="midnightblue" stroke="midnightblue" points="601.185,-53.9486 595.286,-62.7487 605.385,-59.5485 601.185,-53.9486"/>
</g>
</g>
</svg>
        <g id="navigator" transform="translate(0 0)" fill="#404254">
                <rect fill="#f2f5e9" fill-opacity="0.5" stroke="#606060" stroke-width=".5" x="0" y="0" width="60" height="60"/>
                <use id="zoomplus" xlink:href="#zoomPlus" x="17" y="9" onmousedown="handleZoom(evt,'in')"/>
                <use id="zoomminus" xlink:href="#zoomMin" x="42" y="9" onmousedown="handleZoom(evt,'out')"/>
                <use id="reset" xlink:href="#resetDef" x="30" y="36" onmousedown="handleReset()"/>
                <g id="arrowUp" xlink:href="#dirArrow" transform="translate(30 24)" onmousedown="handlePan(0,-1)">
                  <use xlink:href="#rim" fill="#404040">
                        <set attributeName="fill" to="#808080" begin="arrowUp.mouseover" end="arrowUp.mouseout"/>
                  </use>
                  <path fill="none" stroke="white" stroke-width="1.5" d="M0,-3.0v7 M-2.5,-0.5L0,-3.0L2.5,-0.5"/>
                </g>
                <g id="arrowRight" xlink:href="#dirArrow" transform="rotate(90) translate(36 -43)" onmousedown="handlePan(1,0)">
                  <use xlink:href="#rim" fill="#404040">
                        <set attributeName="fill" to="#808080" begin="arrowRight.mouseover" end="arrowRight.mouseout"/>
                  </use>
                  <path fill="none" stroke="white" stroke-width="1.5" d="M0,-3.0v7 M-2.5,-0.5L0,-3.0L2.5,-0.5"/>
                </g>
                <g id="arrowDown" xlink:href="#dirArrow" transform="rotate(180) translate(-30 -48)" onmousedown="handlePan(0,1)">
                  <use xlink:href="#rim" fill="#404040">
                        <set attributeName="fill" to="#808080" begin="arrowDown.mouseover" end="arrowDown.mouseout"/>
                  </use>
                  <path fill="none" stroke="white" stroke-width="1.5" d="M0,-3.0v7 M-2.5,-0.5L0,-3.0L2.5,-0.5"/>
                </g>
                <g id="arrowLeft" xlink:href="#dirArrow" transform="rotate(270) translate(-36 17)" onmousedown="handlePan(-1,0)">
                  <use xlink:href="#rim" fill="#404040">
                        <set attributeName="fill" to="#808080" begin="arrowLeft.mouseover" end="arrowLeft.mouseout"/>
                  </use>
                  <path fill="none" stroke="white" stroke-width="1.5" d="M0,-3.0v7 M-2.5,-0.5L0,-3.0L2.5,-0.5"/>
                </g>
        </g>
</svg>
