<?xml version="1.0" encoding="UTF-8" standalone="no"?>
<!DOCTYPE svg PUBLIC "-//W3C//DTD SVG 1.1//EN"
 "http://www.w3.org/Graphics/SVG/1.1/DTD/svg11.dtd">
<!-- Generated by graphviz version 2.26.3 (20100126.1600)
 -->
<!-- Title: SocketClient::Delete Pages: 1 -->
<svg width="634pt" height="79pt"
 viewBox="0.00 0.00 634.00 79.01" xmlns="http://www.w3.org/2000/svg" xmlns:xlink="http://www.w3.org/1999/xlink">
<g id="graph1" class="graph" transform="scale(1 1) rotate(0) translate(4 75.0099)">
<title>SocketClient::Delete</title>
<polygon fill="white" stroke="white" points="-4,5 -4,-75.0099 631,-75.0099 631,5 -4,5"/>
<!-- Node1 -->
<g id="node1" class="node"><title>Node1</title>
<polygon fill="#bfbfbf" stroke="black" points="0,-38 0,-58 114,-58 114,-38 0,-38"/>
<text text-anchor="middle" x="57" y="-45" font-family="FreeSans.ttf" font-size="10.00">SocketClient::Delete</text>
</g>
<!-- Node2 -->
<g id="node3" class="node"><title>Node2</title>
<a xlink:href="namespaceServer.xhtml#a39dbe16fdc8c5f6fbd678c6540fbcd6c" target="_top" xlink:title="Poll all SocketClient objects that are communicating with the associated SocketServer object...">
<polygon fill="white" stroke="black" points="309.5,-38 309.5,-58 418.5,-58 418.5,-38 309.5,-38"/>
<text text-anchor="middle" x="364" y="-45" font-family="FreeSans.ttf" font-size="10.00">Server::PollSockets</text>
</a>
</g>
<!-- Node1&#45;&gt;Node2 -->
<g id="edge2" class="edge"><title>Node1&#45;&gt;Node2</title>
<path fill="none" stroke="midnightblue" d="M106.862,-60.1119C120.742,-62.9562 135.883,-65.5727 150,-67 203.063,-72.365 216.932,-72.3096 270,-67 287.726,-65.2264 307.056,-61.6162 323.552,-58.0145"/>
<polygon fill="midnightblue" stroke="midnightblue" points="107.521,-56.6738 97.0116,-58.0143 106.063,-63.5203 107.521,-56.6738"/>
</g>
<!-- Node5 -->
<g id="node9" class="node"><title>Node5</title>
<a xlink:href="namespaceServer.xhtml#a2b4cec469bb99c2a45e49de5ba74d1ae" target="_top" xlink:title="Processes input from all active SocketClient objects.">
<polygon fill="white" stroke="black" points="306,-0 306,-20 422,-20 422,-0 306,-0"/>
<text text-anchor="middle" x="364" y="-7" font-family="FreeSans.ttf" font-size="10.00">Server::ProcessInput</text>
</a>
</g>
<!-- Node1&#45;&gt;Node5 -->
<g id="edge8" class="edge"><title>Node1&#45;&gt;Node5</title>
<path fill="none" stroke="midnightblue" d="M110.856,-35.9228C123.638,-33.3548 137.262,-30.8606 150,-29 202.408,-21.3449 262.519,-16.3363 305.663,-13.3935"/>
<polygon fill="midnightblue" stroke="midnightblue" points="109.907,-32.5445 100.817,-37.9873 111.317,-39.401 109.907,-32.5445"/>
</g>
<!-- Node6 -->
<g id="node12" class="node"><title>Node6</title>
<a xlink:href="classSocketServer.xhtml#afdbc60c3bc840875d2214b59c6213f63" target="_top" xlink:title="Accept a new connection on the listening port.">
<polygon fill="white" stroke="black" points="150,-38 150,-58 270,-58 270,-38 150,-38"/>
<text text-anchor="middle" x="210" y="-45" font-family="FreeSans.ttf" font-size="10.00">SocketServer::Accept</text>
</a>
</g>
<!-- Node1&#45;&gt;Node6 -->
<g id="edge12" class="edge"><title>Node1&#45;&gt;Node6</title>
<path fill="none" stroke="midnightblue" d="M124.61,-48C133.057,-48 141.651,-48 149.972,-48"/>
<polygon fill="midnightblue" stroke="midnightblue" points="124.407,-44.5001 114.407,-48 124.407,-51.5001 124.407,-44.5001"/>
</g>
<!-- Node3 -->
<g id="node5" class="node"><title>Node3</title>
<a xlink:href="namespaceServer.xhtml#a50b81aa91d8fdaee6f52c5c5ec987990" target="_top" xlink:title="The core update loop of NAMS. This loop spawns all other subsystem update routines and then sleeps fo...">
<polygon fill="white" stroke="black" points="458.5,-19 458.5,-39 547.5,-39 547.5,-19 458.5,-19"/>
<text text-anchor="middle" x="503" y="-26" font-family="FreeSans.ttf" font-size="10.00">Server::Update</text>
</a>
</g>
<!-- Node2&#45;&gt;Node3 -->
<g id="edge4" class="edge"><title>Node2&#45;&gt;Node3</title>
<path fill="none" stroke="midnightblue" d="M428.574,-39.1734C438.688,-37.7908 448.943,-36.3891 458.474,-35.0862"/>
<polygon fill="midnightblue" stroke="midnightblue" points="427.971,-35.7231 418.538,-40.5452 428.919,-42.6586 427.971,-35.7231"/>
</g>
<!-- Node4 -->
<g id="node7" class="node"><title>Node4</title>
<a xlink:href="main_8cpp.xhtml#ad53223b8779f25caeddb70a3b9172967" target="_top" xlink:title="The default function required to execute the server.">
<polygon fill="white" stroke="black" points="584.5,-19 584.5,-39 625.5,-39 625.5,-19 584.5,-19"/>
<text text-anchor="middle" x="605" y="-26" font-family="FreeSans.ttf" font-size="10.00">main</text>
</a>
</g>
<!-- Node3&#45;&gt;Node4 -->
<g id="edge6" class="edge"><title>Node3&#45;&gt;Node4</title>
<path fill="none" stroke="midnightblue" d="M557.942,-29C567.336,-29 576.55,-29 584.3,-29"/>
<polygon fill="midnightblue" stroke="midnightblue" points="557.739,-25.5001 547.739,-29 557.739,-32.5001 557.739,-25.5001"/>
</g>
<!-- Node5&#45;&gt;Node3 -->
<g id="edge10" class="edge"><title>Node5&#45;&gt;Node3</title>
<path fill="none" stroke="midnightblue" d="M432.104,-19.3091C440.964,-20.5203 449.856,-21.7357 458.2,-22.8763"/>
<polygon fill="midnightblue" stroke="midnightblue" points="432.525,-15.8343 422.143,-17.9476 431.577,-22.7698 432.525,-15.8343"/>
</g>
<!-- Node6&#45;&gt;Node2 -->
<g id="edge14" class="edge"><title>Node6&#45;&gt;Node2</title>
<path fill="none" stroke="midnightblue" d="M280.432,-48C290.109,-48 299.926,-48 309.265,-48"/>
<polygon fill="midnightblue" stroke="midnightblue" points="280.423,-44.5001 270.423,-48 280.423,-51.5001 280.423,-44.5001"/>
</g>
</g>
</svg>
