<?xml version="1.0" encoding="UTF-8" standalone="no"?>
<!DOCTYPE svg PUBLIC "-//W3C//DTD SVG 1.1//EN"
 "http://www.w3.org/Graphics/SVG/1.1/DTD/svg11.dtd">
<!-- Generated by graphviz version 2.26.3 (20100126.1600)
 -->
<!-- Title: G Pages: 1 -->
<svg width="404pt" height="230pt"
 viewBox="0.00 0.00 404.00 230.00" xmlns="http://www.w3.org/2000/svg" xmlns:xlink="http://www.w3.org/1999/xlink">
<g id="graph1" class="graph" transform="scale(1 1) rotate(0) translate(4 226)">
<title>G</title>
<polygon fill="white" stroke="white" points="-4,5 -4,-226 401,-226 401,5 -4,5"/>
<!-- Node1 -->
<g id="node1" class="node"><title>Node1</title>
<polygon fill="#bfbfbf" stroke="black" points="0.5,-100.5 0.5,-121.5 103.5,-121.5 103.5,-100.5 0.5,-100.5"/>
<text text-anchor="middle" x="52" y="-108.5" font-family="FreeSans.ttf" font-size="10.00">Server::Broadcast</text>
</g>
<!-- Node2 -->
<g id="node3" class="node"><title>Node2</title>
<a xlink:href="classSocketClient.xhtml#a6268f3d184970ec0076da657c39d2e80" target="_top" xlink:title="Process data from the client&#39;s send buffer and transmit it via the socket.">
<polygon fill="white" stroke="black" points="140.5,-100.5 140.5,-121.5 247.5,-121.5 247.5,-100.5 140.5,-100.5"/>
<text text-anchor="middle" x="194" y="-108.5" font-family="FreeSans.ttf" font-size="10.00">SocketClient::Send</text>
</a>
</g>
<!-- Node1&#45;&gt;Node2 -->
<g id="edge2" class="edge"><title>Node1&#45;&gt;Node2</title>
<path fill="none" stroke="midnightblue" d="M103.667,-111C112.216,-111 121.171,-111 129.98,-111"/>
<polygon fill="midnightblue" stroke="midnightblue" points="130.223,-114.5 140.223,-111 130.223,-107.5 130.223,-114.5"/>
</g>
<!-- Node3 -->
<g id="node5" class="node"><title>Node3</title>
<a xlink:href="classSocket.xhtml#a508457b48e6296d1e86c7cc72af65948" target="_top" xlink:title="Return if the Socket is valid for use.">
<polygon fill="white" stroke="black" points="301,-200.5 301,-221.5 379,-221.5 379,-200.5 301,-200.5"/>
<text text-anchor="middle" x="340" y="-208.5" font-family="FreeSans.ttf" font-size="10.00">Socket::Valid</text>
</a>
</g>
<!-- Node2&#45;&gt;Node3 -->
<g id="edge4" class="edge"><title>Node2&#45;&gt;Node3</title>
<path fill="none" stroke="midnightblue" d="M203.499,-121.772C218.89,-138.643 250.905,-171.394 284,-191 287.352,-192.986 290.932,-194.82 294.6,-196.506"/>
<polygon fill="midnightblue" stroke="midnightblue" points="293.247,-199.733 303.822,-200.388 295.963,-193.282 293.247,-199.733"/>
</g>
<!-- Node4 -->
<g id="node7" class="node"><title>Node4</title>
<a xlink:href="classSocket.xhtml#a45d3aa99d71b868921543a4708471f82" target="_top" xlink:title="Returns the file descriptor associated to the Socket.">
<polygon fill="white" stroke="black" points="284.5,-160.5 284.5,-181.5 395.5,-181.5 395.5,-160.5 284.5,-160.5"/>
<text text-anchor="middle" x="340" y="-168.5" font-family="FreeSans.ttf" font-size="10.00">Socket::gDescriptor</text>
</a>
</g>
<!-- Node2&#45;&gt;Node4 -->
<g id="edge6" class="edge"><title>Node2&#45;&gt;Node4</title>
<path fill="none" stroke="midnightblue" d="M216.362,-121.501C234.452,-129.859 260.664,-141.662 284,-151 288.906,-152.963 294.089,-154.941 299.242,-156.849"/>
<polygon fill="midnightblue" stroke="midnightblue" points="298.44,-160.281 309.035,-160.41 300.833,-153.703 298.44,-160.281"/>
</g>
<!-- Node5 -->
<g id="node9" class="node"><title>Node5</title>
<a xlink:href="classSocket.xhtml#adc72a37934a4f2d10f6ae8fc94bb4ca7" target="_top" xlink:title="Returns the hostname associated to the Socket.">
<polygon fill="white" stroke="black" points="284,-120.5 284,-141.5 396,-141.5 396,-120.5 284,-120.5"/>
<text text-anchor="middle" x="340" y="-128.5" font-family="FreeSans.ttf" font-size="10.00">Socket::gHostname</text>
</a>
</g>
<!-- Node2&#45;&gt;Node5 -->
<g id="edge8" class="edge"><title>Node2&#45;&gt;Node5</title>
<path fill="none" stroke="midnightblue" d="M247.536,-118.334C255.959,-119.488 264.755,-120.693 273.429,-121.881"/>
<polygon fill="midnightblue" stroke="midnightblue" points="273.144,-125.374 283.526,-123.264 274.094,-118.439 273.144,-125.374"/>
</g>
<!-- Node6 -->
<g id="node11" class="node"><title>Node6</title>
<a xlink:href="classServer.xhtml#a686505fb3a2ee84bdac3f42710341b71" target="_top" xlink:title="Returns the SocketServer associated with the current Server instance.">
<polygon fill="white" stroke="black" points="293.5,-80.5 293.5,-101.5 386.5,-101.5 386.5,-80.5 293.5,-80.5"/>
<text text-anchor="middle" x="340" y="-88.5" font-family="FreeSans.ttf" font-size="10.00">Server::gSocket</text>
</a>
</g>
<!-- Node2&#45;&gt;Node6 -->
<g id="edge10" class="edge"><title>Node2&#45;&gt;Node6</title>
<path fill="none" stroke="midnightblue" d="M247.536,-103.666C259.118,-102.08 271.405,-100.397 283.11,-98.7931"/>
<polygon fill="midnightblue" stroke="midnightblue" points="283.782,-102.234 293.215,-97.4089 282.832,-95.2986 283.782,-102.234"/>
</g>
<!-- Node7 -->
<g id="node13" class="node"><title>Node7</title>
<a xlink:href="classSocket.xhtml#a688f0d2182f7ca098de3f76156efad0a" target="_top" xlink:title="Increment the total count of bytes sent by the socket.">
<polygon fill="white" stroke="black" points="284.5,-40.5 284.5,-61.5 395.5,-61.5 395.5,-40.5 284.5,-40.5"/>
<text text-anchor="middle" x="340" y="-48.5" font-family="FreeSans.ttf" font-size="10.00">Socket::aBytesSent</text>
</a>
</g>
<!-- Node2&#45;&gt;Node7 -->
<g id="edge12" class="edge"><title>Node2&#45;&gt;Node7</title>
<path fill="none" stroke="midnightblue" d="M216.362,-100.499C234.452,-92.1407 260.664,-80.3377 284,-71 288.906,-69.0368 294.089,-67.0591 299.242,-65.1512"/>
<polygon fill="midnightblue" stroke="midnightblue" points="300.833,-68.2972 309.035,-61.5903 298.44,-61.7187 300.833,-68.2972"/>
</g>
<!-- Node8 -->
<g id="node15" class="node"><title>Node8</title>
<a xlink:href="classSocket.xhtml#a3bb9f40d6e5f32cfa960a86323322c0c" target="_top" xlink:title="Returns the number of bytes sent by the Socket.">
<polygon fill="white" stroke="black" points="284.5,-0.5 284.5,-21.5 395.5,-21.5 395.5,-0.5 284.5,-0.5"/>
<text text-anchor="middle" x="340" y="-8.5" font-family="FreeSans.ttf" font-size="10.00">Socket::gBytesSent</text>
</a>
</g>
<!-- Node2&#45;&gt;Node8 -->
<g id="edge14" class="edge"><title>Node2&#45;&gt;Node8</title>
<path fill="none" stroke="midnightblue" d="M203.499,-100.228C218.89,-83.3566 250.905,-50.6061 284,-31 287.352,-29.0144 290.932,-27.1797 294.6,-25.4944"/>
<polygon fill="midnightblue" stroke="midnightblue" points="295.963,-28.7182 303.822,-21.6125 293.247,-22.2666 295.963,-28.7182"/>
</g>
</g>
</svg>
