<?xml version="1.0" encoding="UTF-8" standalone="no"?>
<!DOCTYPE svg PUBLIC "-//W3C//DTD SVG 1.1//EN"
 "http://www.w3.org/Graphics/SVG/1.1/DTD/svg11.dtd">
<!-- Generated by graphviz version 2.26.3 (20100126.1600)
 -->
<!-- Title: G Pages: 1 -->
<!--zoomable 690 -->
<svg id="main" version="1.1" xmlns="http://www.w3.org/2000/svg" xmlns:xlink="http://www.w3.org/1999/xlink" xml:space="preserve" onload="init(evt)">
        <defs>
                <circle id="rim" cx="0" cy="0" r="7"/>
                <circle id="rim2" cx="0" cy="0" r="3.5"/>
                <g id="zoomPlus">
                        <use xlink:href="#rim" fill="#404040">
                                <set attributeName="fill" to="#808080" begin="zoomplus.mouseover" end="zoomplus.mouseout"/>
                        </use>
                        <path d="M-4,0h8M0,-4v8" fill="none" stroke="white" stroke-width="1.5" pointer-events="none"/>
                </g>
                <g id="zoomMin">
                        <use xlink:href="#rim" fill="#404040">
                                <set attributeName="fill" to="#808080" begin="zoomminus.mouseover" end="zoomminus.mouseout"/>
                        </use>
                        <path d="M-4,0h8" fill="none" stroke="white" stroke-width="1.5" pointer-events="none"/>
                </g>
                <g id="dirArrow">
                        <path fill="none" stroke="white" stroke-width="1.5" d="M0,-3.0v7 M-2.5,-0.5L0,-3.0L2.5,-0.5"/>
                </g>
               <g id="resetDef">
                       <use xlink:href="#rim2" fill="#404040">
                               <set attributeName="fill" to="#808080" begin="reset.mouseover" end="reset.mouseout"/>
                       </use>
               </g>
        </defs>

<script type="text/javascript">
var viewWidth = 778;
var viewHeight = 690;
var sectionId = 'dynsection-10';
</script>
<script xlink:href="svgpan.js"/>
<svg id="graph" class="graph">
<g id="viewport">
<title>G</title>
<polygon fill="white" stroke="white" points="-4,5 -4,-686.289 775,-686.289 775,5 -4,5"/>
<!-- Node1 -->
<g id="node1" class="node"><title>Node1</title>
<polygon fill="#bfbfbf" stroke="black" points="0.5,-167.5 0.5,-188.5 109.5,-188.5 109.5,-167.5 0.5,-167.5"/>
<text text-anchor="middle" x="55" y="-175.5" font-family="FreeSans.ttf" font-size="10.00">Server::PollSockets</text>
</g>
<!-- Node2 -->
<g id="node3" class="node"><title>Node2</title>
<a xlink:href="classSocket.xhtml#a45d3aa99d71b868921543a4708471f82" target="_top" xlink:title="Socket::gDescriptor">
<polygon fill="white" stroke="black" points="656.5,-395.5 656.5,-416.5 767.5,-416.5 767.5,-395.5 656.5,-395.5"/>
<text text-anchor="middle" x="712" y="-403.5" font-family="FreeSans.ttf" font-size="10.00">Socket::gDescriptor</text>
</a>
</g>
<!-- Node1&#45;&gt;Node2 -->
<g id="edge2" class="edge"><title>Node1&#45;&gt;Node2</title>
<path fill="none" stroke="midnightblue" d="M56.2882,-188.603C62.9706,-241.91 95.3347,-480.079 146,-531 296.512,-682.27 439.224,-735.515 618,-619 685.131,-575.248 704.661,-471.527 710.056,-426.953"/>
<polygon fill="midnightblue" stroke="midnightblue" points="713.565,-427.055 711.166,-416.735 706.606,-426.299 713.565,-427.055"/>
</g>
<!-- Node3 -->
<g id="node5" class="node"><title>Node3</title>
<a xlink:href="classSocketClient.xhtml#af09328648d18ae943c8866cf744e5aad" target="_top" xlink:title="Unload a client&#39;s socket from memory that was previously loaded via SocketClient::New().">
<polygon fill="white" stroke="black" points="342,-550.5 342,-571.5 456,-571.5 456,-550.5 342,-550.5"/>
<text text-anchor="middle" x="399" y="-558.5" font-family="FreeSans.ttf" font-size="10.00">SocketClient::Delete</text>
</a>
</g>
<!-- Node1&#45;&gt;Node3 -->
<g id="edge4" class="edge"><title>Node1&#45;&gt;Node3</title>
<path fill="none" stroke="midnightblue" d="M56.8112,-188.716C65.2724,-237.598 102.34,-438.941 146,-483 195.138,-532.587 275.023,-550.791 331.876,-557.395"/>
<polygon fill="midnightblue" stroke="midnightblue" points="331.54,-560.879 341.855,-558.464 332.285,-553.919 331.54,-560.879"/>
</g>
<!-- Node7 -->
<g id="node13" class="node"><title>Node7</title>
<a xlink:href="classSocketServer.xhtml#afdbc60c3bc840875d2214b59c6213f63" target="_top" xlink:title="Accept a new connection on the listening port.">
<polygon fill="white" stroke="black" points="163,-452.5 163,-473.5 283,-473.5 283,-452.5 163,-452.5"/>
<text text-anchor="middle" x="223" y="-460.5" font-family="FreeSans.ttf" font-size="10.00">SocketServer::Accept</text>
</a>
</g>
<!-- Node1&#45;&gt;Node7 -->
<g id="edge12" class="edge"><title>Node1&#45;&gt;Node7</title>
<path fill="none" stroke="midnightblue" d="M61.3807,-188.824C86.5415,-231.508 179.092,-388.514 211.611,-443.68"/>
<polygon fill="midnightblue" stroke="midnightblue" points="208.698,-445.631 216.792,-452.468 214.729,-442.076 208.698,-445.631"/>
</g>
<!-- Node14 -->
<g id="node30" class="node"><title>Node14</title>
<a xlink:href="classSocketClient.xhtml#a6268f3d184970ec0076da657c39d2e80" target="_top" xlink:title="Process data from the client&#39;s send buffer and transmit it via the socket.">
<polygon fill="white" stroke="black" points="504.5,-196.5 504.5,-217.5 611.5,-217.5 611.5,-196.5 504.5,-196.5"/>
<text text-anchor="middle" x="558" y="-204.5" font-family="FreeSans.ttf" font-size="10.00">SocketClient::Send</text>
</a>
</g>
<!-- Node1&#45;&gt;Node14 -->
<g id="edge70" class="edge"><title>Node1&#45;&gt;Node14</title>
<path fill="none" stroke="midnightblue" d="M109.787,-181.159C203.606,-186.568 394.518,-197.575 494.19,-203.321"/>
<polygon fill="midnightblue" stroke="midnightblue" points="494.236,-206.829 504.421,-203.911 494.639,-199.841 494.236,-206.829"/>
</g>
<!-- Node19 -->
<g id="node44" class="node"><title>Node19</title>
<a xlink:href="classSocketClient.xhtml#a686aea73a8e9c9dbaac6438ec1b24293" target="_top" xlink:title="Set the idle timer value of the socket.">
<polygon fill="white" stroke="black" points="660,-36.5 660,-57.5 764,-57.5 764,-36.5 660,-36.5"/>
<text text-anchor="middle" x="712" y="-44.5" font-family="FreeSans.ttf" font-size="10.00">SocketClient::sIdle</text>
</a>
</g>
<!-- Node1&#45;&gt;Node19 -->
<g id="edge50" class="edge"><title>Node1&#45;&gt;Node19</title>
<path fill="none" stroke="midnightblue" d="M87.626,-167.4C104.864,-162.034 126.448,-155.683 146,-151 327.243,-107.592 544.874,-72.2247 649.633,-56.2277"/>
<polygon fill="midnightblue" stroke="midnightblue" points="650.357,-59.658 659.717,-54.6945 649.305,-52.7375 650.357,-59.658"/>
</g>
<!-- Node20 -->
<g id="node46" class="node"><title>Node20</title>
<a xlink:href="classSocketClient.xhtml#a9ee09f452d900e288b2aa187561ef05d" target="_top" xlink:title="Receive data from the client and append it to a receive buffer.">
<polygon fill="white" stroke="black" points="506,-118.5 506,-139.5 610,-139.5 610,-118.5 506,-118.5"/>
<text text-anchor="middle" x="558" y="-126.5" font-family="FreeSans.ttf" font-size="10.00">SocketClient::Recv</text>
</a>
</g>
<!-- Node1&#45;&gt;Node20 -->
<g id="edge52" class="edge"><title>Node1&#45;&gt;Node20</title>
<path fill="none" stroke="midnightblue" d="M109.787,-172.663C204.097,-163.476 396.523,-144.73 495.75,-135.064"/>
<polygon fill="midnightblue" stroke="midnightblue" points="496.312,-138.526 505.926,-134.073 495.634,-131.559 496.312,-138.526"/>
</g>
<!-- Node23 -->
<g id="node57" class="node"><title>Node23</title>
<a xlink:href="classSocketClient.xhtml#a9c982fdda7a3daa5b153eada40a3b6fb" target="_top" xlink:title="SocketClient::gIdle">
<polygon fill="white" stroke="black" points="170.5,-40.5 170.5,-61.5 275.5,-61.5 275.5,-40.5 170.5,-40.5"/>
<text text-anchor="middle" x="223" y="-48.5" font-family="FreeSans.ttf" font-size="10.00">SocketClient::gIdle</text>
</a>
</g>
<!-- Node1&#45;&gt;Node23 -->
<g id="edge68" class="edge"><title>Node1&#45;&gt;Node23</title>
<path fill="none" stroke="midnightblue" d="M61.6427,-167.377C75.0645,-146.763 107.443,-101.159 146,-76 152.538,-71.7337 159.864,-68.1418 167.329,-65.1325"/>
<polygon fill="midnightblue" stroke="midnightblue" points="168.644,-68.3778 176.808,-61.6254 166.215,-61.8127 168.644,-68.3778"/>
</g>
<!-- Node24 -->
<g id="node60" class="node"><title>Node24</title>
<a xlink:href="classSocketClient.xhtml#ad887231d8188cf23b88b6dad24b9408a" target="_top" xlink:title="SocketClient::PendingOutput">
<polygon fill="white" stroke="black" points="146,-0.5 146,-21.5 300,-21.5 300,-0.5 146,-0.5"/>
<text text-anchor="middle" x="223" y="-8.5" font-family="FreeSans.ttf" font-size="10.00">SocketClient::PendingOutput</text>
</a>
</g>
<!-- Node1&#45;&gt;Node24 -->
<g id="edge72" class="edge"><title>Node1&#45;&gt;Node24</title>
<path fill="none" stroke="midnightblue" d="M58.4991,-167.17C67.9133,-139.812 96.4743,-67.514 146,-31 148.531,-29.1341 151.22,-27.4419 154.021,-25.9072"/>
<polygon fill="midnightblue" stroke="midnightblue" points="155.741,-28.9654 163.281,-21.5224 152.745,-22.6388 155.741,-28.9654"/>
</g>
<!-- Node4 -->
<g id="node7" class="node"><title>Node4</title>
<a xlink:href="classSocket.xhtml#a508457b48e6296d1e86c7cc72af65948" target="_top" xlink:title="Socket::Valid">
<polygon fill="white" stroke="black" points="673,-336.5 673,-357.5 751,-357.5 751,-336.5 673,-336.5"/>
<text text-anchor="middle" x="712" y="-344.5" font-family="FreeSans.ttf" font-size="10.00">Socket::Valid</text>
</a>
</g>
<!-- Node3&#45;&gt;Node4 -->
<g id="edge6" class="edge"><title>Node3&#45;&gt;Node4</title>
<path fill="none" stroke="midnightblue" d="M442.679,-550.401C491.214,-536.593 569.163,-508.089 618,-458 642.976,-432.384 630.376,-412.868 654,-386 661.913,-377 672.354,-369.139 682.193,-362.879"/>
<polygon fill="midnightblue" stroke="midnightblue" points="684.211,-365.75 690.971,-357.592 680.599,-359.753 684.211,-365.75"/>
</g>
<!-- Node5 -->
<g id="node9" class="node"><title>Node5</title>
<a xlink:href="classServer.xhtml#a1e68e32745cdfe194e0af388d9d5244a" target="_top" xlink:title="Set the amount of subordinate SocketClient and SocketServer objects that have been closed on a NAMS S...">
<polygon fill="white" stroke="black" points="498.5,-588.5 498.5,-609.5 617.5,-609.5 617.5,-588.5 498.5,-588.5"/>
<text text-anchor="middle" x="558" y="-596.5" font-family="FreeSans.ttf" font-size="10.00">Server::sSocketClose</text>
</a>
</g>
<!-- Node3&#45;&gt;Node5 -->
<g id="edge8" class="edge"><title>Node3&#45;&gt;Node5</title>
<path fill="none" stroke="midnightblue" d="M443.29,-571.585C462.156,-576.094 484.337,-581.395 504.141,-586.128"/>
<polygon fill="midnightblue" stroke="midnightblue" points="503.407,-589.551 513.947,-588.472 505.035,-582.743 503.407,-589.551"/>
</g>
<!-- Node6 -->
<g id="node11" class="node"><title>Node6</title>
<a xlink:href="classServer.xhtml#a01c4cacfdade91bc99d6c8911ca33a54" target="_top" xlink:title="Returns the combined number of SocketClient and SocketServer objects that have been destroyed...">
<polygon fill="white" stroke="black" points="498.5,-548.5 498.5,-569.5 617.5,-569.5 617.5,-548.5 498.5,-548.5"/>
<text text-anchor="middle" x="558" y="-556.5" font-family="FreeSans.ttf" font-size="10.00">Server::gSocketClose</text>
</a>
</g>
<!-- Node3&#45;&gt;Node6 -->
<g id="edge10" class="edge"><title>Node3&#45;&gt;Node6</title>
<path fill="none" stroke="midnightblue" d="M456.403,-560.278C466.716,-560.148 477.569,-560.012 488.187,-559.878"/>
<polygon fill="midnightblue" stroke="midnightblue" points="488.316,-563.377 498.271,-559.751 488.228,-556.377 488.316,-563.377"/>
</g>
<!-- Node7&#45;&gt;Node2 -->
<g id="edge16" class="edge"><title>Node7&#45;&gt;Node2</title>
<path fill="none" stroke="midnightblue" d="M283.113,-471.196C361.622,-479.887 502.647,-488.56 618,-458 644.493,-450.981 671.545,-434.886 689.784,-422.447"/>
<polygon fill="midnightblue" stroke="midnightblue" points="691.813,-425.299 697.989,-416.69 687.792,-419.569 691.813,-425.299"/>
</g>
<!-- Node7&#45;&gt;Node3 -->
<g id="edge48" class="edge"><title>Node7&#45;&gt;Node3</title>
<path fill="none" stroke="midnightblue" d="M243.684,-473.528C259.628,-482.008 281.931,-494.675 300,-508 317.469,-520.882 317.214,-530.127 336,-541 339.631,-543.102 343.51,-545.011 347.493,-546.74"/>
<polygon fill="midnightblue" stroke="midnightblue" points="346.316,-550.039 356.903,-550.453 348.885,-543.527 346.316,-550.039"/>
</g>
<!-- Node7&#45;&gt;Node4 -->
<g id="edge14" class="edge"><title>Node7&#45;&gt;Node4</title>
<path fill="none" stroke="midnightblue" d="M283.183,-455.473C361.471,-444.767 501.947,-422.417 618,-387 639.755,-380.361 663.305,-370.335 681.39,-361.981"/>
<polygon fill="midnightblue" stroke="midnightblue" points="683.268,-364.966 690.83,-357.545 680.291,-358.631 683.268,-364.966"/>
</g>
<!-- Node8 -->
<g id="node17" class="node"><title>Node8</title>
<a xlink:href="classSocketServer.xhtml#a659e5775db60e3f8d29b70f2fdd317e7" target="_top" xlink:title="SocketServer::gServer">
<polygon fill="white" stroke="black" points="336.5,-510.5 336.5,-531.5 461.5,-531.5 461.5,-510.5 336.5,-510.5"/>
<text text-anchor="middle" x="399" y="-518.5" font-family="FreeSans.ttf" font-size="10.00">SocketServer::gServer</text>
</a>
</g>
<!-- Node7&#45;&gt;Node8 -->
<g id="edge18" class="edge"><title>Node7&#45;&gt;Node8</title>
<path fill="none" stroke="midnightblue" d="M254.872,-473.503C283.565,-482.959 325.921,-496.917 357.298,-507.257"/>
<polygon fill="midnightblue" stroke="midnightblue" points="356.475,-510.671 367.068,-510.477 358.666,-504.023 356.475,-510.671"/>
</g>
<!-- Node9 -->
<g id="node19" class="node"><title>Node9</title>
<a xlink:href="classSocketClient.xhtml#a6b296c5002caa1229e7d7b9be6f08607" target="_top" xlink:title="Build a socket for a new client connection and set all attributes.">
<polygon fill="white" stroke="black" points="347.5,-296.5 347.5,-317.5 450.5,-317.5 450.5,-296.5 347.5,-296.5"/>
<text text-anchor="middle" x="399" y="-304.5" font-family="FreeSans.ttf" font-size="10.00">SocketClient::New</text>
</a>
</g>
<!-- Node7&#45;&gt;Node9 -->
<g id="edge20" class="edge"><title>Node7&#45;&gt;Node9</title>
<path fill="none" stroke="midnightblue" d="M235.097,-452.277C264.989,-425.783 342.563,-357.024 379.237,-324.517"/>
<polygon fill="midnightblue" stroke="midnightblue" points="381.656,-327.05 386.818,-317.798 377.013,-321.811 381.656,-327.05"/>
</g>
<!-- Node9&#45;&gt;Node2 -->
<g id="edge22" class="edge"><title>Node9&#45;&gt;Node2</title>
<path fill="none" stroke="midnightblue" d="M408.092,-317.64C424.147,-335.585 459.483,-371.432 498,-387 545.061,-406.021 602.563,-410.188 646.106,-409.919"/>
<polygon fill="midnightblue" stroke="midnightblue" points="646.347,-413.416 656.296,-409.774 646.248,-406.417 646.347,-413.416"/>
</g>
<!-- Node10 -->
<g id="node22" class="node"><title>Node10</title>
<a xlink:href="classSocket.xhtml#a14e5e2493abcae97043297dd170e7a39" target="_top" xlink:title="Sets the hostname of the socket.">
<polygon fill="white" stroke="black" points="502.5,-356.5 502.5,-377.5 613.5,-377.5 613.5,-356.5 502.5,-356.5"/>
<text text-anchor="middle" x="558" y="-364.5" font-family="FreeSans.ttf" font-size="10.00">Socket::sHostname</text>
</a>
</g>
<!-- Node9&#45;&gt;Node10 -->
<g id="edge24" class="edge"><title>Node9&#45;&gt;Node10</title>
<path fill="none" stroke="midnightblue" d="M424.06,-317.628C443.974,-325.952 472.603,-337.647 498,-347 503.611,-349.066 509.549,-351.158 515.422,-353.172"/>
<polygon fill="midnightblue" stroke="midnightblue" points="514.58,-356.582 525.175,-356.468 516.822,-349.95 514.58,-356.582"/>
</g>
<!-- Node11 -->
<g id="node24" class="node"><title>Node11</title>
<a xlink:href="classSocket.xhtml#a24c8132ced233add89f4fda68284e578" target="_top" xlink:title="Sets the port that was opened for the socket.">
<polygon fill="white" stroke="black" points="518,-236.5 518,-257.5 598,-257.5 598,-236.5 518,-236.5"/>
<text text-anchor="middle" x="558" y="-244.5" font-family="FreeSans.ttf" font-size="10.00">Socket::sPort</text>
</a>
</g>
<!-- Node9&#45;&gt;Node11 -->
<g id="edge26" class="edge"><title>Node9&#45;&gt;Node11</title>
<path fill="none" stroke="midnightblue" d="M424.06,-296.372C443.974,-288.048 472.603,-276.353 498,-267 503.611,-264.934 509.549,-262.842 515.422,-260.828"/>
<polygon fill="midnightblue" stroke="midnightblue" points="516.822,-264.05 525.175,-257.532 514.58,-257.418 516.822,-264.05"/>
</g>
<!-- Node12 -->
<g id="node26" class="node"><title>Node12</title>
<a xlink:href="classSocket.xhtml#adc72a37934a4f2d10f6ae8fc94bb4ca7" target="_top" xlink:title="Socket::gHostname">
<polygon fill="white" stroke="black" points="656,-196.5 656,-217.5 768,-217.5 768,-196.5 656,-196.5"/>
<text text-anchor="middle" x="712" y="-204.5" font-family="FreeSans.ttf" font-size="10.00">Socket::gHostname</text>
</a>
</g>
<!-- Node9&#45;&gt;Node12 -->
<g id="edge28" class="edge"><title>Node9&#45;&gt;Node12</title>
<path fill="none" stroke="midnightblue" d="M403.769,-296.34C415.542,-271.528 448.652,-210.262 498,-187 546.242,-164.259 564.959,-181.42 618,-187 632.287,-188.503 647.597,-191.257 661.626,-194.251"/>
<polygon fill="midnightblue" stroke="midnightblue" points="661.06,-197.711 671.581,-196.459 662.576,-190.877 661.06,-197.711"/>
</g>
<!-- Node13 -->
<g id="node28" class="node"><title>Node13</title>
<a xlink:href="classSocket.xhtml#accd94dbf518b30cdd878a9710d3c481c" target="_top" xlink:title="Socket::gPort">
<polygon fill="white" stroke="black" points="517.5,-316.5 517.5,-337.5 598.5,-337.5 598.5,-316.5 517.5,-316.5"/>
<text text-anchor="middle" x="558" y="-324.5" font-family="FreeSans.ttf" font-size="10.00">Socket::gPort</text>
</a>
</g>
<!-- Node9&#45;&gt;Node13 -->
<g id="edge30" class="edge"><title>Node9&#45;&gt;Node13</title>
<path fill="none" stroke="midnightblue" d="M450.623,-313.493C468.824,-315.783 489.257,-318.353 507.375,-320.632"/>
<polygon fill="midnightblue" stroke="midnightblue" points="507.097,-324.125 517.456,-321.9 507.971,-317.179 507.097,-324.125"/>
</g>
<!-- Node9&#45;&gt;Node14 -->
<g id="edge32" class="edge"><title>Node9&#45;&gt;Node14</title>
<path fill="none" stroke="midnightblue" d="M409.346,-296.481C426.406,-279.664 462.137,-246.624 498,-227 501.739,-224.954 505.723,-223.069 509.792,-221.343"/>
<polygon fill="midnightblue" stroke="midnightblue" points="511.325,-224.502 519.366,-217.603 508.778,-217.981 511.325,-224.502"/>
</g>
<!-- Node18 -->
<g id="node41" class="node"><title>Node18</title>
<a xlink:href="classSocketClient.xhtml#ab5e6737c8acd4aaa21268e10c1a050b4" target="_top" xlink:title="Set the connection state value of the socket.">
<polygon fill="white" stroke="black" points="501,-276.5 501,-297.5 615,-297.5 615,-276.5 501,-276.5"/>
<text text-anchor="middle" x="558" y="-284.5" font-family="FreeSans.ttf" font-size="10.00">SocketClient::sState</text>
</a>
</g>
<!-- Node9&#45;&gt;Node18 -->
<g id="edge46" class="edge"><title>Node9&#45;&gt;Node18</title>
<path fill="none" stroke="midnightblue" d="M450.623,-300.507C463.413,-298.898 477.305,-297.15 490.721,-295.463"/>
<polygon fill="midnightblue" stroke="midnightblue" points="491.376,-298.908 500.861,-294.187 490.503,-291.963 491.376,-298.908"/>
</g>
<!-- Node14&#45;&gt;Node2 -->
<g id="edge36" class="edge"><title>Node14&#45;&gt;Node2</title>
<path fill="none" stroke="midnightblue" d="M605.345,-217.52C610.05,-220.032 614.406,-223.145 618,-227 661.81,-273.992 616.919,-314.535 654,-367 660.649,-376.407 670.343,-384.201 679.909,-390.284"/>
<polygon fill="midnightblue" stroke="midnightblue" points="678.175,-393.325 688.568,-395.387 681.73,-387.294 678.175,-393.325"/>
</g>
<!-- Node14&#45;&gt;Node4 -->
<g id="edge34" class="edge"><title>Node14&#45;&gt;Node4</title>
<path fill="none" stroke="midnightblue" d="M603.509,-217.567C608.773,-220.074 613.764,-223.172 618,-227 646.928,-253.142 629.033,-277.053 654,-307 661.875,-316.447 672.512,-324.643 682.525,-331.114"/>
<polygon fill="midnightblue" stroke="midnightblue" points="680.722,-334.114 691.08,-336.345 684.374,-328.142 680.722,-334.114"/>
</g>
<!-- Node14&#45;&gt;Node12 -->
<g id="edge38" class="edge"><title>Node14&#45;&gt;Node12</title>
<path fill="none" stroke="midnightblue" d="M611.862,-207C622.753,-207 634.324,-207 645.588,-207"/>
<polygon fill="midnightblue" stroke="midnightblue" points="645.817,-210.5 655.817,-207 645.817,-203.5 645.817,-210.5"/>
</g>
<!-- Node15 -->
<g id="node35" class="node"><title>Node15</title>
<a xlink:href="classServer.xhtml#a686505fb3a2ee84bdac3f42710341b71" target="_top" xlink:title="Returns the SocketServer associated with the current Server instance.">
<polygon fill="white" stroke="black" points="665.5,-156.5 665.5,-177.5 758.5,-177.5 758.5,-156.5 665.5,-156.5"/>
<text text-anchor="middle" x="712" y="-164.5" font-family="FreeSans.ttf" font-size="10.00">Server::gSocket</text>
</a>
</g>
<!-- Node14&#45;&gt;Node15 -->
<g id="edge40" class="edge"><title>Node14&#45;&gt;Node15</title>
<path fill="none" stroke="midnightblue" d="M598.462,-196.49C617.838,-191.458 641.232,-185.381 661.737,-180.055"/>
<polygon fill="midnightblue" stroke="midnightblue" points="662.743,-183.41 671.541,-177.509 660.983,-176.635 662.743,-183.41"/>
</g>
<!-- Node16 -->
<g id="node37" class="node"><title>Node16</title>
<a xlink:href="classSocket.xhtml#a688f0d2182f7ca098de3f76156efad0a" target="_top" xlink:title="Increment the total count of bytes sent by the socket.">
<polygon fill="white" stroke="black" points="656.5,-276.5 656.5,-297.5 767.5,-297.5 767.5,-276.5 656.5,-276.5"/>
<text text-anchor="middle" x="712" y="-284.5" font-family="FreeSans.ttf" font-size="10.00">Socket::aBytesSent</text>
</a>
</g>
<!-- Node14&#45;&gt;Node16 -->
<g id="edge42" class="edge"><title>Node14&#45;&gt;Node16</title>
<path fill="none" stroke="midnightblue" d="M599.335,-217.623C605.849,-220.174 612.305,-223.27 618,-227 638.008,-240.105 634.06,-253.792 654,-267 656.93,-268.941 660.069,-270.714 663.314,-272.33"/>
<polygon fill="midnightblue" stroke="midnightblue" points="662.093,-275.617 672.653,-276.477 664.934,-269.22 662.093,-275.617"/>
</g>
<!-- Node17 -->
<g id="node39" class="node"><title>Node17</title>
<a xlink:href="classSocket.xhtml#a3bb9f40d6e5f32cfa960a86323322c0c" target="_top" xlink:title="Socket::gBytesSent">
<polygon fill="white" stroke="black" points="656.5,-236.5 656.5,-257.5 767.5,-257.5 767.5,-236.5 656.5,-236.5"/>
<text text-anchor="middle" x="712" y="-244.5" font-family="FreeSans.ttf" font-size="10.00">Socket::gBytesSent</text>
</a>
</g>
<!-- Node14&#45;&gt;Node17 -->
<g id="edge44" class="edge"><title>Node14&#45;&gt;Node17</title>
<path fill="none" stroke="midnightblue" d="M598.462,-217.51C617.838,-222.542 641.232,-228.619 661.737,-233.945"/>
<polygon fill="midnightblue" stroke="midnightblue" points="660.983,-237.365 671.541,-236.491 662.743,-230.59 660.983,-237.365"/>
</g>
<!-- Node20&#45;&gt;Node2 -->
<g id="edge56" class="edge"><title>Node20&#45;&gt;Node2</title>
<path fill="none" stroke="midnightblue" d="M573.354,-139.556C587.256,-149.966 607.167,-167.164 618,-187 657.104,-258.602 608.738,-299.123 654,-367 660.34,-376.507 669.864,-384.297 679.371,-390.347"/>
<polygon fill="midnightblue" stroke="midnightblue" points="677.61,-393.372 688.006,-395.413 681.152,-387.334 677.61,-393.372"/>
</g>
<!-- Node20&#45;&gt;Node4 -->
<g id="edge54" class="edge"><title>Node20&#45;&gt;Node4</title>
<path fill="none" stroke="midnightblue" d="M572.672,-139.597C586.284,-150.159 606.171,-167.572 618,-187 646.957,-234.56 621.229,-261.983 654,-307 661.055,-316.691 671.208,-324.825 681.054,-331.172"/>
<polygon fill="midnightblue" stroke="midnightblue" points="679.536,-334.344 689.911,-336.494 683.141,-328.344 679.536,-334.344"/>
</g>
<!-- Node20&#45;&gt;Node12 -->
<g id="edge58" class="edge"><title>Node20&#45;&gt;Node12</title>
<path fill="none" stroke="midnightblue" d="M588.932,-139.504C598.596,-143.403 609.06,-148.29 618,-154 636.293,-165.683 635.35,-175.896 654,-187 657.403,-189.026 661.042,-190.886 664.775,-192.585"/>
<polygon fill="midnightblue" stroke="midnightblue" points="663.594,-195.883 674.172,-196.478 666.274,-189.417 663.594,-195.883"/>
</g>
<!-- Node20&#45;&gt;Node15 -->
<g id="edge60" class="edge"><title>Node20&#45;&gt;Node15</title>
<path fill="none" stroke="midnightblue" d="M600.898,-139.585C619.087,-144.073 640.457,-149.347 659.572,-154.063"/>
<polygon fill="midnightblue" stroke="midnightblue" points="658.785,-157.474 669.332,-156.472 660.462,-150.678 658.785,-157.474"/>
</g>
<!-- Node20&#45;&gt;Node19 -->
<g id="edge66" class="edge"><title>Node20&#45;&gt;Node19</title>
<path fill="none" stroke="midnightblue" d="M590.061,-118.425C599.47,-114.6 609.507,-109.772 618,-104 636.976,-91.1029 634.629,-79.2957 654,-67 657.105,-65.0289 660.428,-63.2257 663.853,-61.5809"/>
<polygon fill="midnightblue" stroke="midnightblue" points="665.291,-64.7726 673.08,-57.5907 662.512,-58.3477 665.291,-64.7726"/>
</g>
<!-- Node21 -->
<g id="node52" class="node"><title>Node21</title>
<a xlink:href="classSocket.xhtml#aec278bc5096a3087a7bb6a1ed06d7ddd" target="_top" xlink:title="Increment the total count of bytes received by the socket.">
<polygon fill="white" stroke="black" points="654,-76.5 654,-97.5 770,-97.5 770,-76.5 654,-76.5"/>
<text text-anchor="middle" x="712" y="-84.5" font-family="FreeSans.ttf" font-size="10.00">Socket::aBytesRecvd</text>
</a>
</g>
<!-- Node20&#45;&gt;Node21 -->
<g id="edge62" class="edge"><title>Node20&#45;&gt;Node21</title>
<path fill="none" stroke="midnightblue" d="M596.861,-118.402C617.091,-112.884 642.021,-106.085 663.504,-100.226"/>
<polygon fill="midnightblue" stroke="midnightblue" points="664.692,-103.53 673.419,-97.5222 662.85,-96.7767 664.692,-103.53"/>
</g>
<!-- Node22 -->
<g id="node54" class="node"><title>Node22</title>
<a xlink:href="classSocket.xhtml#ad7ac03a288e6ef47a45e6837f7fef002" target="_top" xlink:title="Socket::gBytesRecvd">
<polygon fill="white" stroke="black" points="654,-116.5 654,-137.5 770,-137.5 770,-116.5 654,-116.5"/>
<text text-anchor="middle" x="712" y="-124.5" font-family="FreeSans.ttf" font-size="10.00">Socket::gBytesRecvd</text>
</a>
</g>
<!-- Node20&#45;&gt;Node22 -->
<g id="edge64" class="edge"><title>Node20&#45;&gt;Node22</title>
<path fill="none" stroke="midnightblue" d="M610.137,-128.323C620.893,-128.183 632.375,-128.034 643.608,-127.888"/>
<polygon fill="midnightblue" stroke="midnightblue" points="643.874,-131.385 653.827,-127.755 643.783,-124.386 643.874,-131.385"/>
</g>
</g>
</svg>
        <g id="navigator" transform="translate(0 0)" fill="#404254">
                <rect fill="#f2f5e9" fill-opacity="0.5" stroke="#606060" stroke-width=".5" x="0" y="0" width="60" height="60"/>
                <use id="zoomplus" xlink:href="#zoomPlus" x="17" y="9" onmousedown="handleZoom(evt,'in')"/>
                <use id="zoomminus" xlink:href="#zoomMin" x="42" y="9" onmousedown="handleZoom(evt,'out')"/>
                <use id="reset" xlink:href="#resetDef" x="30" y="36" onmousedown="handleReset()"/>
                <g id="arrowUp" xlink:href="#dirArrow" transform="translate(30 24)" onmousedown="handlePan(0,-1)">
                  <use xlink:href="#rim" fill="#404040">
                        <set attributeName="fill" to="#808080" begin="arrowUp.mouseover" end="arrowUp.mouseout"/>
                  </use>
                  <path fill="none" stroke="white" stroke-width="1.5" d="M0,-3.0v7 M-2.5,-0.5L0,-3.0L2.5,-0.5"/>
                </g>
                <g id="arrowRight" xlink:href="#dirArrow" transform="rotate(90) translate(36 -43)" onmousedown="handlePan(1,0)">
                  <use xlink:href="#rim" fill="#404040">
                        <set attributeName="fill" to="#808080" begin="arrowRight.mouseover" end="arrowRight.mouseout"/>
                  </use>
                  <path fill="none" stroke="white" stroke-width="1.5" d="M0,-3.0v7 M-2.5,-0.5L0,-3.0L2.5,-0.5"/>
                </g>
                <g id="arrowDown" xlink:href="#dirArrow" transform="rotate(180) translate(-30 -48)" onmousedown="handlePan(0,1)">
                  <use xlink:href="#rim" fill="#404040">
                        <set attributeName="fill" to="#808080" begin="arrowDown.mouseover" end="arrowDown.mouseout"/>
                  </use>
                  <path fill="none" stroke="white" stroke-width="1.5" d="M0,-3.0v7 M-2.5,-0.5L0,-3.0L2.5,-0.5"/>
                </g>
                <g id="arrowLeft" xlink:href="#dirArrow" transform="rotate(270) translate(-36 17)" onmousedown="handlePan(-1,0)">
                  <use xlink:href="#rim" fill="#404040">
                        <set attributeName="fill" to="#808080" begin="arrowLeft.mouseover" end="arrowLeft.mouseout"/>
                  </use>
                  <path fill="none" stroke="white" stroke-width="1.5" d="M0,-3.0v7 M-2.5,-0.5L0,-3.0L2.5,-0.5"/>
                </g>
        </g>
</svg>
