<?xml version="1.0" encoding="UTF-8" standalone="no"?>
<!DOCTYPE svg PUBLIC "-//W3C//DTD SVG 1.1//EN"
 "http://www.w3.org/Graphics/SVG/1.1/DTD/svg11.dtd">
<!-- Generated by graphviz version 2.26.3 (20100126.1600)
 -->
<!-- Title: Socket Pages: 1 -->
<svg width="182pt" height="88pt"
 viewBox="0.00 0.00 182.00 88.00" xmlns="http://www.w3.org/2000/svg" xmlns:xlink="http://www.w3.org/1999/xlink">
<g id="graph1" class="graph" transform="scale(1 1) rotate(0) translate(4 84)">
<title>Socket</title>
<polygon fill="white" stroke="white" points="-4,5 -4,-84 179,-84 179,5 -4,5"/>
<!-- Node1 -->
<g id="node1" class="node"><title>Node1</title>
<polygon fill="#bfbfbf" stroke="black" points="61,-59 61,-79 111,-79 111,-59 61,-59"/>
<text text-anchor="middle" x="86" y="-66" font-family="FreeSans.ttf" font-size="10.00">Socket</text>
</g>
<!-- Node2 -->
<g id="node3" class="node"><title>Node2</title>
<a xlink:href="classSocketClient.xhtml" target="_top" xlink:title="SocketClient extends the Socket class to implement remote&#45;host socket functions.">
<polygon fill="white" stroke="black" points="-0.5,-1 -0.5,-21 76.5,-21 76.5,-1 -0.5,-1"/>
<text text-anchor="middle" x="38" y="-8" font-family="FreeSans.ttf" font-size="10.00">SocketClient</text>
</a>
</g>
<!-- Node1&#45;&gt;Node2 -->
<g id="edge2" class="edge"><title>Node1&#45;&gt;Node2</title>
<path fill="none" stroke="midnightblue" d="M71.0877,-50.981C63.0363,-41.2522 53.3839,-29.5889 46.5884,-21.3776"/>
<polygon fill="midnightblue" stroke="midnightblue" points="68.5669,-53.4247 77.639,-58.8972 73.9597,-48.9617 68.5669,-53.4247"/>
</g>
<!-- Node3 -->
<g id="node5" class="node"><title>Node3</title>
<a xlink:href="classSocketServer.xhtml" target="_top" xlink:title="SocketServer extends the Socket class to implement server&#45;side socket functions.">
<polygon fill="white" stroke="black" points="93.5,-1 93.5,-21 174.5,-21 174.5,-1 93.5,-1"/>
<text text-anchor="middle" x="134" y="-8" font-family="FreeSans.ttf" font-size="10.00">SocketServer</text>
</a>
</g>
<!-- Node1&#45;&gt;Node3 -->
<g id="edge4" class="edge"><title>Node1&#45;&gt;Node3</title>
<path fill="none" stroke="midnightblue" d="M100.912,-50.981C108.964,-41.2522 118.616,-29.5889 125.412,-21.3776"/>
<polygon fill="midnightblue" stroke="midnightblue" points="98.0403,-48.9617 94.361,-58.8972 103.433,-53.4247 98.0403,-48.9617"/>
</g>
</g>
</svg>
