<?xml version="1.0" encoding="UTF-8" standalone="no"?>
<!DOCTYPE svg PUBLIC "-//W3C//DTD SVG 1.1//EN"
 "http://www.w3.org/Graphics/SVG/1.1/DTD/svg11.dtd">
<!-- Generated by graphviz version 2.26.3 (20100126.1600)
 -->
<!-- Title: G Pages: 1 -->
<!--zoomable 308 -->
<svg id="main" version="1.1" xmlns="http://www.w3.org/2000/svg" xmlns:xlink="http://www.w3.org/1999/xlink" xml:space="preserve" onload="init(evt)">
        <defs>
                <circle id="rim" cx="0" cy="0" r="7"/>
                <circle id="rim2" cx="0" cy="0" r="3.5"/>
                <g id="zoomPlus">
                        <use xlink:href="#rim" fill="#404040">
                                <set attributeName="fill" to="#808080" begin="zoomplus.mouseover" end="zoomplus.mouseout"/>
                        </use>
                        <path d="M-4,0h8M0,-4v8" fill="none" stroke="white" stroke-width="1.5" pointer-events="none"/>
                </g>
                <g id="zoomMin">
                        <use xlink:href="#rim" fill="#404040">
                                <set attributeName="fill" to="#808080" begin="zoomminus.mouseover" end="zoomminus.mouseout"/>
                        </use>
                        <path d="M-4,0h8" fill="none" stroke="white" stroke-width="1.5" pointer-events="none"/>
                </g>
                <g id="dirArrow">
                        <path fill="none" stroke="white" stroke-width="1.5" d="M0,-3.0v7 M-2.5,-0.5L0,-3.0L2.5,-0.5"/>
                </g>
               <g id="resetDef">
                       <use xlink:href="#rim2" fill="#404040">
                               <set attributeName="fill" to="#808080" begin="reset.mouseover" end="reset.mouseout"/>
                       </use>
               </g>
        </defs>

<script type="text/javascript">
var viewWidth = 1348;
var viewHeight = 308;
var sectionId = 'dynsection-6';
</script>
<script xlink:href="svgpan.js"/>
<svg id="graph" class="graph">
<g id="viewport">
<title>G</title>
<polygon fill="white" stroke="white" points="-4,5 -4,-304 1345,-304 1345,5 -4,5"/>
<!-- Node1 -->
<g id="node1" class="node"><title>Node1</title>
<polygon fill="#bfbfbf" stroke="black" points="0,-238.5 0,-259.5 108,-259.5 108,-238.5 0,-238.5"/>
<text text-anchor="middle" x="54" y="-246.5" font-family="FreeSans.ttf" font-size="10.00">Command::gName</text>
</g>
<!-- Node2 -->
<g id="node3" class="node"><title>Node2</title>
<a xlink:href="classCommand.xhtml#a6b8eed27f76619d07effd72372a4be48" target="_top" xlink:title="Load a plugin command from CFG_DAT_DIR_OBJ.">
<polygon fill="white" stroke="black" points="159.5,-258.5 159.5,-279.5 252.5,-279.5 252.5,-258.5 159.5,-258.5"/>
<text text-anchor="middle" x="206" y="-266.5" font-family="FreeSans.ttf" font-size="10.00">Command::New</text>
</a>
</g>
<!-- Node1&#45;&gt;Node2 -->
<g id="edge2" class="edge"><title>Node1&#45;&gt;Node2</title>
<path fill="none" stroke="midnightblue" d="M117.968,-257.417C131.803,-259.237 146.184,-261.129 159.213,-262.844"/>
<polygon fill="midnightblue" stroke="midnightblue" points="118.389,-253.942 108.017,-256.108 117.475,-260.882 118.389,-253.942"/>
</g>
<!-- Node10 -->
<g id="node20" class="node"><title>Node10</title>
<a xlink:href="classServer.xhtml#acf928ad938e32e6342c0cdd278e793bc" target="_top" xlink:title="Server::FindCommand">
<polygon fill="white" stroke="black" points="144.5,-218.5 144.5,-239.5 267.5,-239.5 267.5,-218.5 144.5,-218.5"/>
<text text-anchor="middle" x="206" y="-226.5" font-family="FreeSans.ttf" font-size="10.00">Server::FindCommand</text>
</a>
</g>
<!-- Node1&#45;&gt;Node10 -->
<g id="edge20" class="edge"><title>Node1&#45;&gt;Node10</title>
<path fill="none" stroke="midnightblue" d="M118.108,-240.565C126.811,-239.42 135.727,-238.246 144.385,-237.107"/>
<polygon fill="midnightblue" stroke="midnightblue" points="117.475,-237.118 108.017,-241.892 118.389,-244.058 117.475,-237.118"/>
</g>
<!-- Node3 -->
<g id="node5" class="node"><title>Node3</title>
<a xlink:href="classServer.xhtml#ac2e1d14caee54a38a89c2394abe6e5a5" target="_top" xlink:title="Search all subfolders of CFG_DAT_DIR_COMMAND and call Command::New() to load each file found to memor...">
<polygon fill="white" stroke="black" points="305.5,-278.5 305.5,-299.5 438.5,-299.5 438.5,-278.5 305.5,-278.5"/>
<text text-anchor="middle" x="372" y="-286.5" font-family="FreeSans.ttf" font-size="10.00">Server::LoadCommands</text>
</a>
</g>
<!-- Node2&#45;&gt;Node3 -->
<g id="edge4" class="edge"><title>Node2&#45;&gt;Node3</title>
<path fill="none" stroke="midnightblue" d="M262.876,-275.853C276.511,-277.495 291.193,-279.264 305.231,-280.956"/>
<polygon fill="midnightblue" stroke="midnightblue" points="263.029,-272.346 252.682,-274.624 262.192,-279.295 263.029,-272.346"/>
</g>
<!-- Node6 -->
<g id="node11" class="node"><title>Node6</title>
<a xlink:href="classServer.xhtml#a4073e768d93ce18c25cb5996f4cd3729" target="_top" xlink:title="Reloads a Command Plugin.">
<polygon fill="white" stroke="black" points="304,-238.5 304,-259.5 440,-259.5 440,-238.5 304,-238.5"/>
<text text-anchor="middle" x="372" y="-246.5" font-family="FreeSans.ttf" font-size="10.00">Server::ReloadCommand</text>
</a>
</g>
<!-- Node2&#45;&gt;Node6 -->
<g id="edge10" class="edge"><title>Node2&#45;&gt;Node6</title>
<path fill="none" stroke="midnightblue" d="M262.631,-262.177C275.933,-260.574 290.243,-258.85 303.986,-257.195"/>
<polygon fill="midnightblue" stroke="midnightblue" points="262.192,-258.705 252.682,-263.376 263.029,-265.654 262.192,-258.705"/>
</g>
<!-- Node4 -->
<g id="node7" class="node"><title>Node4</title>
<a xlink:href="classServer.xhtml#a19a1e493e1fb50a56d9c77332543d565" target="_top" xlink:title="Start the NAMS Server. Responsible for calling all critical boot&#45;time functions such as SocketServer ...">
<polygon fill="white" stroke="black" points="1172,-268.5 1172,-289.5 1262,-289.5 1262,-268.5 1172,-268.5"/>
<text text-anchor="middle" x="1217" y="-276.5" font-family="FreeSans.ttf" font-size="10.00">Server::Startup</text>
</a>
</g>
<!-- Node3&#45;&gt;Node4 -->
<g id="edge6" class="edge"><title>Node3&#45;&gt;Node4</title>
<path fill="none" stroke="midnightblue" d="M448.922,-289C516.822,-289 618.488,-289 707,-289 707,-289 707,-289 899,-289 996.353,-289 1110.39,-284.26 1171.99,-281.307"/>
<polygon fill="midnightblue" stroke="midnightblue" points="448.738,-285.5 438.738,-289 448.738,-292.5 448.738,-285.5"/>
</g>
<!-- Node5 -->
<g id="node9" class="node"><title>Node5</title>
<a xlink:href="main_8cpp.xhtml#ad53223b8779f25caeddb70a3b9172967" target="_top" xlink:title="The default function required to execute the server.">
<polygon fill="white" stroke="black" points="1298.5,-238.5 1298.5,-259.5 1339.5,-259.5 1339.5,-238.5 1298.5,-238.5"/>
<text text-anchor="middle" x="1319" y="-246.5" font-family="FreeSans.ttf" font-size="10.00">main</text>
</a>
</g>
<!-- Node4&#45;&gt;Node5 -->
<g id="edge8" class="edge"><title>Node4&#45;&gt;Node5</title>
<path fill="none" stroke="midnightblue" d="M1262.82,-265.523C1275.3,-261.853 1288.2,-258.06 1298.48,-255.035"/>
<polygon fill="midnightblue" stroke="midnightblue" points="1261.57,-262.244 1252.96,-268.423 1263.54,-268.959 1261.57,-262.244"/>
</g>
<!-- Node7 -->
<g id="node13" class="node"><title>Node7</title>
<a xlink:href="classEvent.xhtml#ae00620af2a424d3d0041676e76b9303c" target="_top" xlink:title="Execute the function stored within the Event object.">
<polygon fill="white" stroke="black" points="504.5,-238.5 504.5,-259.5 571.5,-259.5 571.5,-238.5 504.5,-238.5"/>
<text text-anchor="middle" x="538" y="-246.5" font-family="FreeSans.ttf" font-size="10.00">Event::Run</text>
</a>
</g>
<!-- Node6&#45;&gt;Node7 -->
<g id="edge12" class="edge"><title>Node6&#45;&gt;Node7</title>
<path fill="none" stroke="midnightblue" d="M450.593,-249C469.452,-249 488.615,-249 504.173,-249"/>
<polygon fill="midnightblue" stroke="midnightblue" points="450.477,-245.5 440.477,-249 450.477,-252.5 450.477,-245.5"/>
</g>
<!-- Node8 -->
<g id="node15" class="node"><title>Node8</title>
<a xlink:href="classServer.xhtml#a266931bde9b1955346955140986d2b00" target="_top" xlink:title="Process any scheduled events tied to the Server.">
<polygon fill="white" stroke="black" points="837,-239.5 837,-260.5 961,-260.5 961,-239.5 837,-239.5"/>
<text text-anchor="middle" x="899" y="-247.5" font-family="FreeSans.ttf" font-size="10.00">Server::ProcessEvents</text>
</a>
</g>
<!-- Node7&#45;&gt;Node8 -->
<g id="edge14" class="edge"><title>Node7&#45;&gt;Node8</title>
<path fill="none" stroke="midnightblue" d="M581.75,-249.121C645.463,-249.298 764.089,-249.626 836.844,-249.828"/>
<polygon fill="midnightblue" stroke="midnightblue" points="581.648,-245.621 571.638,-249.093 581.628,-252.621 581.648,-245.621"/>
</g>
<!-- Node9 -->
<g id="node17" class="node"><title>Node9</title>
<a xlink:href="classServer.xhtml#a50b81aa91d8fdaee6f52c5c5ec987990" target="_top" xlink:title="The core update loop of NAMS. This loop spawns all other subsystem update routines and then sleeps fo...">
<polygon fill="white" stroke="black" points="1172.5,-209.5 1172.5,-230.5 1261.5,-230.5 1261.5,-209.5 1172.5,-209.5"/>
<text text-anchor="middle" x="1217" y="-217.5" font-family="FreeSans.ttf" font-size="10.00">Server::Update</text>
</a>
</g>
<!-- Node8&#45;&gt;Node9 -->
<g id="edge16" class="edge"><title>Node8&#45;&gt;Node9</title>
<path fill="none" stroke="midnightblue" d="M971.513,-244.611C1018.46,-240.941 1080.9,-235.724 1136,-230 1147.84,-228.77 1160.63,-227.271 1172.47,-225.811"/>
<polygon fill="midnightblue" stroke="midnightblue" points="971.135,-241.129 961.436,-245.393 971.677,-248.108 971.135,-241.129"/>
</g>
<!-- Node9&#45;&gt;Node5 -->
<g id="edge18" class="edge"><title>Node9&#45;&gt;Node5</title>
<path fill="none" stroke="midnightblue" d="M1263.73,-233.287C1275.88,-236.741 1288.36,-240.287 1298.37,-243.135"/>
<polygon fill="midnightblue" stroke="midnightblue" points="1264.69,-229.92 1254.11,-230.552 1262.77,-236.653 1264.69,-229.92"/>
</g>
<!-- Node10&#45;&gt;Node6 -->
<g id="edge60" class="edge"><title>Node10&#45;&gt;Node6</title>
<path fill="none" stroke="midnightblue" d="M277.81,-237.652C286.41,-238.688 295.174,-239.744 303.722,-240.774"/>
<polygon fill="midnightblue" stroke="midnightblue" points="278.159,-234.169 267.812,-236.447 277.322,-241.118 278.159,-234.169"/>
</g>
<!-- Node11 -->
<g id="node22" class="node"><title>Node11</title>
<a xlink:href="namespaceHandler.xhtml#a33a19d69ead678af81fbe96907eceaf0" target="_top" xlink:title="Create a new account object, or load an existing one, with a name and password.">
<polygon fill="white" stroke="black" points="306.5,-120.5 306.5,-141.5 437.5,-141.5 437.5,-120.5 306.5,-120.5"/>
<text text-anchor="middle" x="372" y="-128.5" font-family="FreeSans.ttf" font-size="10.00">Handler::AttachAccount</text>
</a>
</g>
<!-- Node10&#45;&gt;Node11 -->
<g id="edge22" class="edge"><title>Node10&#45;&gt;Node11</title>
<path fill="none" stroke="midnightblue" d="M233.05,-213.03C267.233,-192.85 325.108,-158.683 354.193,-141.513"/>
<polygon fill="midnightblue" stroke="midnightblue" points="230.913,-210.228 224.081,-218.326 234.472,-216.256 230.913,-210.228"/>
</g>
<!-- Node12 -->
<g id="node24" class="node"><title>Node12</title>
<a xlink:href="namespaceHandler.xhtml#af650e47f3d4baf393b54376d1eaa1fa9" target="_top" xlink:title="Handle SocketClient objects who have not fully logged into the game yet.">
<polygon fill="white" stroke="black" points="476.5,-120.5 476.5,-141.5 599.5,-141.5 599.5,-120.5 476.5,-120.5"/>
<text text-anchor="middle" x="538" y="-128.5" font-family="FreeSans.ttf" font-size="10.00">Handler::ProcessLogin</text>
</a>
</g>
<!-- Node11&#45;&gt;Node12 -->
<g id="edge24" class="edge"><title>Node11&#45;&gt;Node12</title>
<path fill="none" stroke="midnightblue" d="M447.888,-124.272C457.43,-124.213 467.098,-124.273 476.383,-124.453"/>
<polygon fill="midnightblue" stroke="midnightblue" points="447.569,-120.775 437.608,-124.383 447.645,-127.775 447.569,-120.775"/>
</g>
<!-- Node12&#45;&gt;Node11 -->
<g id="edge34" class="edge"><title>Node12&#45;&gt;Node11</title>
<path fill="none" stroke="midnightblue" d="M466.182,-137.695C456.686,-137.789 446.992,-137.762 437.608,-137.617"/>
<polygon fill="midnightblue" stroke="midnightblue" points="466.435,-141.192 476.383,-137.547 466.333,-134.193 466.435,-141.192"/>
</g>
<!-- Node13 -->
<g id="node26" class="node"><title>Node13</title>
<a xlink:href="namespaceHandler.xhtml#a142c6f0b9e36e54eba3d72f9db2dfe40" target="_top" xlink:title="Redirect to the appropriate subsystem based on socket state.">
<polygon fill="white" stroke="black" points="656.5,-200.5 656.5,-221.5 757.5,-221.5 757.5,-200.5 656.5,-200.5"/>
<text text-anchor="middle" x="707" y="-208.5" font-family="FreeSans.ttf" font-size="10.00">Handler::Interpret</text>
</a>
</g>
<!-- Node12&#45;&gt;Node13 -->
<g id="edge26" class="edge"><title>Node12&#45;&gt;Node13</title>
<path fill="none" stroke="midnightblue" d="M560.975,-147.584C580.231,-160.852 608.857,-179.139 636,-191 644.332,-194.641 653.503,-197.8 662.408,-200.466"/>
<polygon fill="midnightblue" stroke="midnightblue" points="562.773,-144.57 552.574,-141.703 558.759,-150.305 562.773,-144.57"/>
</g>
<!-- Node16 -->
<g id="node34" class="node"><title>Node16</title>
<a xlink:href="namespaceHandler.xhtml#a00bc24564bfd267e0329643c569da1e4" target="_top" xlink:title="Select a new account name.">
<polygon fill="white" stroke="black" points="638.5,-160.5 638.5,-181.5 775.5,-181.5 775.5,-160.5 638.5,-160.5"/>
<text text-anchor="middle" x="707" y="-168.5" font-family="FreeSans.ttf" font-size="10.00">Handler::GetNewAccount</text>
</a>
</g>
<!-- Node12&#45;&gt;Node16 -->
<g id="edge36" class="edge"><title>Node12&#45;&gt;Node16</title>
<path fill="none" stroke="midnightblue" d="M609.89,-141.333C636.041,-147.241 663.84,-154.42 682.963,-160.424"/>
<polygon fill="midnightblue" stroke="midnightblue" points="610.49,-137.881 599.97,-139.135 608.976,-144.715 610.49,-137.881"/>
</g>
<!-- Node17 -->
<g id="node37" class="node"><title>Node17</title>
<a xlink:href="namespaceHandler.xhtml#a744adadcf407cdb3a9c33365afd5a7c2" target="_top" xlink:title="Create a new account.">
<polygon fill="white" stroke="black" points="636,-120.5 636,-141.5 778,-141.5 778,-120.5 636,-120.5"/>
<text text-anchor="middle" x="707" y="-128.5" font-family="FreeSans.ttf" font-size="10.00">Handler::GetNewPassword</text>
</a>
</g>
<!-- Node12&#45;&gt;Node17 -->
<g id="edge40" class="edge"><title>Node12&#45;&gt;Node17</title>
<path fill="none" stroke="midnightblue" d="M610.231,-124.314C618.732,-124.225 627.402,-124.229 635.887,-124.326"/>
<polygon fill="midnightblue" stroke="midnightblue" points="609.916,-120.818 599.97,-124.468 610.021,-127.817 609.916,-120.818"/>
</g>
<!-- Node18 -->
<g id="node40" class="node"><title>Node18</title>
<a xlink:href="namespaceHandler.xhtml#adfe13cc9748392348f3941656a1323b6" target="_top" xlink:title="Compare a received password against an existing account.">
<polygon fill="white" stroke="black" points="638.5,-80.5 638.5,-101.5 775.5,-101.5 775.5,-80.5 638.5,-80.5"/>
<text text-anchor="middle" x="707" y="-88.5" font-family="FreeSans.ttf" font-size="10.00">Handler::GetOldPassword</text>
</a>
</g>
<!-- Node12&#45;&gt;Node18 -->
<g id="edge44" class="edge"><title>Node12&#45;&gt;Node18</title>
<path fill="none" stroke="midnightblue" d="M571.582,-117.537C590.697,-111.947 615.355,-105.734 638.38,-100.598"/>
<polygon fill="midnightblue" stroke="midnightblue" points="570.412,-114.234 561.855,-120.481 572.44,-120.934 570.412,-114.234"/>
</g>
<!-- Node19 -->
<g id="node43" class="node"><title>Node19</title>
<a xlink:href="namespaceHandler.xhtml#a44b41bf69fdc6e615a029bea34910191" target="_top" xlink:title="Send initial greeting and request for account name.">
<polygon fill="white" stroke="black" points="647.5,-40.5 647.5,-61.5 766.5,-61.5 766.5,-40.5 647.5,-40.5"/>
<text text-anchor="middle" x="707" y="-48.5" font-family="FreeSans.ttf" font-size="10.00">Handler::LoginScreen</text>
</a>
</g>
<!-- Node12&#45;&gt;Node19 -->
<g id="edge48" class="edge"><title>Node12&#45;&gt;Node19</title>
<path fill="none" stroke="midnightblue" d="M553.237,-113.46C571.917,-97.5746 604.929,-75.5773 636,-62 639.638,-60.4104 643.436,-58.9125 647.301,-57.5233"/>
<polygon fill="midnightblue" stroke="midnightblue" points="550.778,-110.966 545.722,-120.277 555.48,-116.151 550.778,-110.966"/>
</g>
<!-- Node20 -->
<g id="node46" class="node"><title>Node20</title>
<a xlink:href="classSocketClient.xhtml#a553658a2c076ea71ddcd1758fc64a925" target="_top" xlink:title="Build a SocketClient for a new client connection and set all attributes.">
<polygon fill="white" stroke="black" points="655.5,-0.5 655.5,-21.5 758.5,-21.5 758.5,-0.5 655.5,-0.5"/>
<text text-anchor="middle" x="707" y="-8.5" font-family="FreeSans.ttf" font-size="10.00">SocketClient::New</text>
</a>
</g>
<!-- Node12&#45;&gt;Node20 -->
<g id="edge52" class="edge"><title>Node12&#45;&gt;Node20</title>
<path fill="none" stroke="midnightblue" d="M551.331,-112.362C568.43,-89.8087 600.187,-52.2267 636,-31 642.39,-27.2129 649.528,-24.1152 656.749,-21.589"/>
<polygon fill="midnightblue" stroke="midnightblue" points="548.461,-110.357 545.322,-120.476 554.086,-114.523 548.461,-110.357"/>
</g>
<!-- Node14 -->
<g id="node28" class="node"><title>Node14</title>
<a xlink:href="classSocketClient.xhtml#ad4f63c7d906310dc56a1217136047d7f" target="_top" xlink:title="Interpret the command at the front of the queue.">
<polygon fill="white" stroke="black" points="814,-199.5 814,-220.5 984,-220.5 984,-199.5 814,-199.5"/>
<text text-anchor="middle" x="899" y="-207.5" font-family="FreeSans.ttf" font-size="10.00">SocketClient::ProcessCommand</text>
</a>
</g>
<!-- Node13&#45;&gt;Node14 -->
<g id="edge28" class="edge"><title>Node13&#45;&gt;Node14</title>
<path fill="none" stroke="midnightblue" d="M768.053,-210.682C782.608,-210.606 798.404,-210.524 813.824,-210.444"/>
<polygon fill="midnightblue" stroke="midnightblue" points="767.678,-207.184 757.697,-210.736 767.715,-214.184 767.678,-207.184"/>
</g>
<!-- Node15 -->
<g id="node30" class="node"><title>Node15</title>
<a xlink:href="classServer.xhtml#a2b4cec469bb99c2a45e49de5ba74d1ae" target="_top" xlink:title="Processes input from all active SocketClient objects.">
<polygon fill="white" stroke="black" points="1020,-199.5 1020,-220.5 1136,-220.5 1136,-199.5 1020,-199.5"/>
<text text-anchor="middle" x="1078" y="-207.5" font-family="FreeSans.ttf" font-size="10.00">Server::ProcessInput</text>
</a>
</g>
<!-- Node14&#45;&gt;Node15 -->
<g id="edge30" class="edge"><title>Node14&#45;&gt;Node15</title>
<path fill="none" stroke="midnightblue" d="M994.249,-210C1002.93,-210 1011.54,-210 1019.75,-210"/>
<polygon fill="midnightblue" stroke="midnightblue" points="994.044,-206.5 984.044,-210 994.044,-213.5 994.044,-206.5"/>
</g>
<!-- Node15&#45;&gt;Node9 -->
<g id="edge32" class="edge"><title>Node15&#45;&gt;Node9</title>
<path fill="none" stroke="midnightblue" d="M1146.39,-214.92C1155.16,-215.551 1163.95,-216.183 1172.2,-216.777"/>
<polygon fill="midnightblue" stroke="midnightblue" points="1146.37,-211.41 1136.14,-214.183 1145.87,-218.392 1146.37,-211.41"/>
</g>
<!-- Node16&#45;&gt;Node12 -->
<g id="edge38" class="edge"><title>Node16&#45;&gt;Node12</title>
<path fill="none" stroke="midnightblue" d="M628.433,-159.139C604.227,-153.531 579.368,-147.027 561.855,-141.519"/>
<polygon fill="midnightblue" stroke="midnightblue" points="627.853,-162.597 638.38,-161.402 629.405,-155.771 627.853,-162.597"/>
</g>
<!-- Node17&#45;&gt;Node12 -->
<g id="edge42" class="edge"><title>Node17&#45;&gt;Node12</title>
<path fill="none" stroke="midnightblue" d="M625.752,-137.746C617.082,-137.769 608.366,-137.698 599.97,-137.532"/>
<polygon fill="midnightblue" stroke="midnightblue" points="625.912,-141.245 635.887,-137.674 625.863,-134.245 625.912,-141.245"/>
</g>
<!-- Node18&#45;&gt;Node12 -->
<g id="edge46" class="edge"><title>Node18&#45;&gt;Node12</title>
<path fill="none" stroke="midnightblue" d="M673.251,-104.512C652.302,-110.632 624.742,-117.491 599.97,-122.865"/>
<polygon fill="midnightblue" stroke="midnightblue" points="674.403,-107.82 682.963,-101.576 672.378,-101.119 674.403,-107.82"/>
</g>
<!-- Node19&#45;&gt;Node12 -->
<g id="edge50" class="edge"><title>Node19&#45;&gt;Node12</title>
<path fill="none" stroke="midnightblue" d="M680.21,-64.7644C666.652,-69.0414 650.12,-73.8298 636,-80 609.859,-91.423 582.344,-108.806 563.146,-120.358"/>
<polygon fill="midnightblue" stroke="midnightblue" points="681.5,-68.0248 689.908,-61.579 679.315,-61.3743 681.5,-68.0248"/>
</g>
<!-- Node21 -->
<g id="node48" class="node"><title>Node21</title>
<a xlink:href="classSocketServer.xhtml#afdbc60c3bc840875d2214b59c6213f63" target="_top" xlink:title="Accept a new connection on the listening port.">
<polygon fill="white" stroke="black" points="839,-40.5 839,-61.5 959,-61.5 959,-40.5 839,-40.5"/>
<text text-anchor="middle" x="899" y="-48.5" font-family="FreeSans.ttf" font-size="10.00">SocketServer::Accept</text>
</a>
</g>
<!-- Node20&#45;&gt;Node21 -->
<g id="edge54" class="edge"><title>Node20&#45;&gt;Node21</title>
<path fill="none" stroke="midnightblue" d="M767.24,-23.55C793.374,-28.9946 823.633,-35.2986 848.558,-40.4913"/>
<polygon fill="midnightblue" stroke="midnightblue" points="767.949,-20.1227 757.446,-21.5095 766.522,-26.9756 767.949,-20.1227"/>
</g>
<!-- Node22 -->
<g id="node50" class="node"><title>Node22</title>
<a xlink:href="classServer.xhtml#a39dbe16fdc8c5f6fbd678c6540fbcd6c" target="_top" xlink:title="Poll all SocketClient objects that are communicating with the associated SocketServer object...">
<polygon fill="white" stroke="black" points="1023.5,-80.5 1023.5,-101.5 1132.5,-101.5 1132.5,-80.5 1023.5,-80.5"/>
<text text-anchor="middle" x="1078" y="-88.5" font-family="FreeSans.ttf" font-size="10.00">Server::PollSockets</text>
</a>
</g>
<!-- Node21&#45;&gt;Node22 -->
<g id="edge56" class="edge"><title>Node21&#45;&gt;Node22</title>
<path fill="none" stroke="midnightblue" d="M955.806,-63.6941C980.023,-69.1056 1007.94,-75.3443 1030.97,-80.4913"/>
<polygon fill="midnightblue" stroke="midnightblue" points="956.553,-60.2747 946.03,-61.5095 955.026,-67.1062 956.553,-60.2747"/>
</g>
<!-- Node22&#45;&gt;Node9 -->
<g id="edge58" class="edge"><title>Node22&#45;&gt;Node9</title>
<path fill="none" stroke="midnightblue" d="M1096.88,-108.525C1126.13,-135.667 1181.5,-187.058 1205.47,-209.298"/>
<polygon fill="midnightblue" stroke="midnightblue" points="1099.09,-105.794 1089.37,-101.557 1094.32,-110.925 1099.09,-105.794"/>
</g>
</g>
</svg>
        <g id="navigator" transform="translate(0 0)" fill="#404254">
                <rect fill="#f2f5e9" fill-opacity="0.5" stroke="#606060" stroke-width=".5" x="0" y="0" width="60" height="60"/>
                <use id="zoomplus" xlink:href="#zoomPlus" x="17" y="9" onmousedown="handleZoom(evt,'in')"/>
                <use id="zoomminus" xlink:href="#zoomMin" x="42" y="9" onmousedown="handleZoom(evt,'out')"/>
                <use id="reset" xlink:href="#resetDef" x="30" y="36" onmousedown="handleReset()"/>
                <g id="arrowUp" xlink:href="#dirArrow" transform="translate(30 24)" onmousedown="handlePan(0,-1)">
                  <use xlink:href="#rim" fill="#404040">
                        <set attributeName="fill" to="#808080" begin="arrowUp.mouseover" end="arrowUp.mouseout"/>
                  </use>
                  <path fill="none" stroke="white" stroke-width="1.5" d="M0,-3.0v7 M-2.5,-0.5L0,-3.0L2.5,-0.5"/>
                </g>
                <g id="arrowRight" xlink:href="#dirArrow" transform="rotate(90) translate(36 -43)" onmousedown="handlePan(1,0)">
                  <use xlink:href="#rim" fill="#404040">
                        <set attributeName="fill" to="#808080" begin="arrowRight.mouseover" end="arrowRight.mouseout"/>
                  </use>
                  <path fill="none" stroke="white" stroke-width="1.5" d="M0,-3.0v7 M-2.5,-0.5L0,-3.0L2.5,-0.5"/>
                </g>
                <g id="arrowDown" xlink:href="#dirArrow" transform="rotate(180) translate(-30 -48)" onmousedown="handlePan(0,1)">
                  <use xlink:href="#rim" fill="#404040">
                        <set attributeName="fill" to="#808080" begin="arrowDown.mouseover" end="arrowDown.mouseout"/>
                  </use>
                  <path fill="none" stroke="white" stroke-width="1.5" d="M0,-3.0v7 M-2.5,-0.5L0,-3.0L2.5,-0.5"/>
                </g>
                <g id="arrowLeft" xlink:href="#dirArrow" transform="rotate(270) translate(-36 17)" onmousedown="handlePan(-1,0)">
                  <use xlink:href="#rim" fill="#404040">
                        <set attributeName="fill" to="#808080" begin="arrowLeft.mouseover" end="arrowLeft.mouseout"/>
                  </use>
                  <path fill="none" stroke="white" stroke-width="1.5" d="M0,-3.0v7 M-2.5,-0.5L0,-3.0L2.5,-0.5"/>
                </g>
        </g>
</svg>
