<?xml version="1.0" encoding="UTF-8" standalone="no"?>
<!DOCTYPE svg PUBLIC "-//W3C//DTD SVG 1.1//EN"
 "http://www.w3.org/Graphics/SVG/1.1/DTD/svg11.dtd">
<!-- Generated by graphviz version 2.26.3 (20100126.1600)
 -->
<!-- Title: G Pages: 1 -->
<svg width="476pt" height="30pt"
 viewBox="0.00 0.00 476.00 30.00" xmlns="http://www.w3.org/2000/svg" xmlns:xlink="http://www.w3.org/1999/xlink">
<g id="graph1" class="graph" transform="scale(1 1) rotate(0) translate(4 26)">
<title>G</title>
<polygon fill="white" stroke="white" points="-4,5 -4,-26 473,-26 473,5 -4,5"/>
<!-- Node1 -->
<g id="node1" class="node"><title>Node1</title>
<polygon fill="#bfbfbf" stroke="black" points="0.5,-0.5 0.5,-21.5 107.5,-21.5 107.5,-0.5 0.5,-0.5"/>
<text text-anchor="middle" x="54" y="-8.5" font-family="FreeSans.ttf" font-size="10.00">SocketServer::New</text>
</g>
<!-- Node2 -->
<g id="node3" class="node"><title>Node2</title>
<a xlink:href="classSocketServer.xhtml#a613401f64ca4c185e0a90dd2ae57b546" target="_top" xlink:title="SocketServer::Thread">
<polygon fill="white" stroke="black" points="144,-0.5 144,-21.5 264,-21.5 264,-0.5 144,-0.5"/>
<text text-anchor="middle" x="204" y="-8.5" font-family="FreeSans.ttf" font-size="10.00">SocketServer::Thread</text>
</a>
</g>
<!-- Node1&#45;&gt;Node2 -->
<g id="edge2" class="edge"><title>Node1&#45;&gt;Node2</title>
<path fill="none" stroke="midnightblue" d="M117.739,-11C126.369,-11 135.202,-11 143.768,-11"/>
<polygon fill="midnightblue" stroke="midnightblue" points="117.73,-7.5001 107.73,-11 117.73,-14.5001 117.73,-7.5001"/>
</g>
<!-- Node3 -->
<g id="node5" class="node"><title>Node3</title>
<a xlink:href="classServer.xhtml#a84ed4b0103f83fe0ece0a89983d0787a" target="_top" xlink:title="Server::Startup">
<polygon fill="white" stroke="black" points="300,-0.5 300,-21.5 390,-21.5 390,-0.5 300,-0.5"/>
<text text-anchor="middle" x="345" y="-8.5" font-family="FreeSans.ttf" font-size="10.00">Server::Startup</text>
</a>
</g>
<!-- Node2&#45;&gt;Node3 -->
<g id="edge4" class="edge"><title>Node2&#45;&gt;Node3</title>
<path fill="none" stroke="midnightblue" d="M274.375,-11C283.066,-11 291.759,-11 299.926,-11"/>
<polygon fill="midnightblue" stroke="midnightblue" points="274.206,-7.5001 264.206,-11 274.206,-14.5001 274.206,-7.5001"/>
</g>
<!-- Node4 -->
<g id="node7" class="node"><title>Node4</title>
<a xlink:href="main_8cpp.xhtml#ad53223b8779f25caeddb70a3b9172967" target="_top" xlink:title="The default function required to execute the server.">
<polygon fill="white" stroke="black" points="426.5,-0.5 426.5,-21.5 467.5,-21.5 467.5,-0.5 426.5,-0.5"/>
<text text-anchor="middle" x="447" y="-8.5" font-family="FreeSans.ttf" font-size="10.00">main</text>
</a>
</g>
<!-- Node3&#45;&gt;Node4 -->
<g id="edge6" class="edge"><title>Node3&#45;&gt;Node4</title>
<path fill="none" stroke="midnightblue" d="M400.203,-11C409.56,-11 418.726,-11 426.432,-11"/>
<polygon fill="midnightblue" stroke="midnightblue" points="400.036,-7.5001 390.036,-11 400.036,-14.5001 400.036,-7.5001"/>
</g>
</g>
</svg>
