<?xml version="1.0" encoding="UTF-8" standalone="no"?>
<!DOCTYPE svg PUBLIC "-//W3C//DTD SVG 1.1//EN"
 "http://www.w3.org/Graphics/SVG/1.1/DTD/svg11.dtd">
<!-- Generated by graphviz version 2.26.3 (20100126.1600)
 -->
<!-- Title: Location::Unserialize Pages: 1 -->
<svg width="608pt" height="28pt"
 viewBox="0.00 0.00 608.00 28.00" xmlns="http://www.w3.org/2000/svg" xmlns:xlink="http://www.w3.org/1999/xlink">
<g id="graph1" class="graph" transform="scale(1 1) rotate(0) translate(4 24)">
<title>Location::Unserialize</title>
<polygon fill="white" stroke="white" points="-4,5 -4,-24 605,-24 605,5 -4,5"/>
<!-- Node1 -->
<g id="node1" class="node"><title>Node1</title>
<polygon fill="#bfbfbf" stroke="black" points="0,-0 0,-20 116,-20 116,-0 0,-0"/>
<text text-anchor="middle" x="58" y="-7" font-family="FreeSans.ttf" font-size="10.00">Location::Unserialize</text>
</g>
<!-- Node2 -->
<g id="node3" class="node"><title>Node2</title>
<a xlink:href="classLocation.xhtml#a6396aba5eab9bcbabb000c3f6478e1a2" target="_top" xlink:title="Create a new location.">
<polygon fill="white" stroke="black" points="152.5,-0 152.5,-20 235.5,-20 235.5,-0 152.5,-0"/>
<text text-anchor="middle" x="194" y="-7" font-family="FreeSans.ttf" font-size="10.00">Location::New</text>
</a>
</g>
<!-- Node1&#45;&gt;Node2 -->
<g id="edge2" class="edge"><title>Node1&#45;&gt;Node2</title>
<path fill="none" stroke="midnightblue" d="M126.084,-10C134.982,-10 143.877,-10 152.161,-10"/>
<polygon fill="midnightblue" stroke="midnightblue" points="126.071,-6.5001 116.071,-10 126.071,-13.5001 126.071,-6.5001"/>
</g>
<!-- Node3 -->
<g id="node5" class="node"><title>Node3</title>
<a xlink:href="namespaceServer.xhtml#a9b8efad79a32f2356d431788449e1f82" target="_top" xlink:title="Search all subfolders of CFG_DAT_DIR_WORLD and call Location::New() to load each file found to memory...">
<polygon fill="white" stroke="black" points="272.5,-0 272.5,-20 395.5,-20 395.5,-0 272.5,-0"/>
<text text-anchor="middle" x="334" y="-7" font-family="FreeSans.ttf" font-size="10.00">Server::LoadLocations</text>
</a>
</g>
<!-- Node2&#45;&gt;Node3 -->
<g id="edge4" class="edge"><title>Node2&#45;&gt;Node3</title>
<path fill="none" stroke="midnightblue" d="M245.892,-10C254.5,-10 263.5,-10 272.321,-10"/>
<polygon fill="midnightblue" stroke="midnightblue" points="245.626,-6.5001 235.626,-10 245.626,-13.5001 245.626,-6.5001"/>
</g>
<!-- Node4 -->
<g id="node7" class="node"><title>Node4</title>
<a xlink:href="namespaceServer.xhtml#a19a1e493e1fb50a56d9c77332543d565" target="_top" xlink:title="Start the NAMS Server. Responsible for calling all critical boot&#45;time functions such as SocketServer ...">
<polygon fill="white" stroke="black" points="432,-0 432,-20 522,-20 522,-0 432,-0"/>
<text text-anchor="middle" x="477" y="-7" font-family="FreeSans.ttf" font-size="10.00">Server::Startup</text>
</a>
</g>
<!-- Node3&#45;&gt;Node4 -->
<g id="edge6" class="edge"><title>Node3&#45;&gt;Node4</title>
<path fill="none" stroke="midnightblue" d="M406.137,-10C414.888,-10 423.626,-10 431.828,-10"/>
<polygon fill="midnightblue" stroke="midnightblue" points="405.89,-6.5001 395.89,-10 405.89,-13.5001 405.89,-6.5001"/>
</g>
<!-- Node5 -->
<g id="node9" class="node"><title>Node5</title>
<a xlink:href="main_8cpp.xhtml#ad53223b8779f25caeddb70a3b9172967" target="_top" xlink:title="The default function required to execute the server.">
<polygon fill="white" stroke="black" points="558.5,-0 558.5,-20 599.5,-20 599.5,-0 558.5,-0"/>
<text text-anchor="middle" x="579" y="-7" font-family="FreeSans.ttf" font-size="10.00">main</text>
</a>
</g>
<!-- Node4&#45;&gt;Node5 -->
<g id="edge8" class="edge"><title>Node4&#45;&gt;Node5</title>
<path fill="none" stroke="midnightblue" d="M532.203,-10C541.56,-10 550.726,-10 558.432,-10"/>
<polygon fill="midnightblue" stroke="midnightblue" points="532.036,-6.5001 522.036,-10 532.036,-13.5001 532.036,-6.5001"/>
</g>
</g>
</svg>
