<?xml version="1.0" encoding="UTF-8" standalone="no"?>
<!DOCTYPE svg PUBLIC "-//W3C//DTD SVG 1.1//EN"
 "http://www.w3.org/Graphics/SVG/1.1/DTD/svg11.dtd">
<!-- Generated by graphviz version 2.26.3 (20100126.1600)
 -->
<!-- Title: G Pages: 1 -->
<svg width="272pt" height="70pt"
 viewBox="0.00 0.00 272.00 70.00" xmlns="http://www.w3.org/2000/svg" xmlns:xlink="http://www.w3.org/1999/xlink">
<g id="graph1" class="graph" transform="scale(1 1) rotate(0) translate(4 66)">
<title>G</title>
<polygon fill="white" stroke="white" points="-4,5 -4,-66 269,-66 269,5 -4,5"/>
<!-- Node1 -->
<g id="node1" class="node"><title>Node1</title>
<polygon fill="#bfbfbf" stroke="black" points="0,-20.5 0,-41.5 116,-41.5 116,-20.5 0,-20.5"/>
<text text-anchor="middle" x="58" y="-28.5" font-family="FreeSans.ttf" font-size="10.00">SocketServer::Listen</text>
</g>
<!-- Node2 -->
<g id="node3" class="node"><title>Node2</title>
<a xlink:href="classSocket.xhtml#a508457b48e6296d1e86c7cc72af65948" target="_top" xlink:title="Return if the Socket is valid for use.">
<polygon fill="white" stroke="black" points="169,-40.5 169,-61.5 247,-61.5 247,-40.5 169,-40.5"/>
<text text-anchor="middle" x="208" y="-48.5" font-family="FreeSans.ttf" font-size="10.00">Socket::Valid</text>
</a>
</g>
<!-- Node1&#45;&gt;Node2 -->
<g id="edge2" class="edge"><title>Node1&#45;&gt;Node2</title>
<path fill="none" stroke="midnightblue" d="M116.423,-38.7898C130.451,-40.6602 145.294,-42.6392 158.852,-44.4469"/>
<polygon fill="midnightblue" stroke="midnightblue" points="158.56,-47.9389 168.935,-45.7913 159.485,-41.0003 158.56,-47.9389"/>
</g>
<!-- Node3 -->
<g id="node5" class="node"><title>Node3</title>
<a xlink:href="classSocket.xhtml#a45d3aa99d71b868921543a4708471f82" target="_top" xlink:title="Returns the file descriptor associated to the Socket.">
<polygon fill="white" stroke="black" points="152.5,-0.5 152.5,-21.5 263.5,-21.5 263.5,-0.5 152.5,-0.5"/>
<text text-anchor="middle" x="208" y="-8.5" font-family="FreeSans.ttf" font-size="10.00">Socket::gDescriptor</text>
</a>
</g>
<!-- Node1&#45;&gt;Node3 -->
<g id="edge4" class="edge"><title>Node1&#45;&gt;Node3</title>
<path fill="none" stroke="midnightblue" d="M116.423,-23.2102C124.937,-22.075 133.751,-20.8998 142.396,-19.7472"/>
<polygon fill="midnightblue" stroke="midnightblue" points="142.989,-23.1992 152.439,-18.4082 142.064,-16.2606 142.989,-23.1992"/>
</g>
</g>
</svg>
