<?xml version="1.0" encoding="UTF-8" standalone="no"?>
<!DOCTYPE svg PUBLIC "-//W3C//DTD SVG 1.1//EN"
 "http://www.w3.org/Graphics/SVG/1.1/DTD/svg11.dtd">
<!-- Generated by graphviz version 2.26.3 (20100126.1600)
 -->
<!-- Title: G Pages: 1 -->
<!--zoomable 30 -->
<svg id="main" version="1.1" xmlns="http://www.w3.org/2000/svg" xmlns:xlink="http://www.w3.org/1999/xlink" xml:space="preserve" onload="init(evt)">
        <defs>
                <circle id="rim" cx="0" cy="0" r="7"/>
                <circle id="rim2" cx="0" cy="0" r="3.5"/>
                <g id="zoomPlus">
                        <use xlink:href="#rim" fill="#404040">
                                <set attributeName="fill" to="#808080" begin="zoomplus.mouseover" end="zoomplus.mouseout"/>
                        </use>
                        <path d="M-4,0h8M0,-4v8" fill="none" stroke="white" stroke-width="1.5" pointer-events="none"/>
                </g>
                <g id="zoomMin">
                        <use xlink:href="#rim" fill="#404040">
                                <set attributeName="fill" to="#808080" begin="zoomminus.mouseover" end="zoomminus.mouseout"/>
                        </use>
                        <path d="M-4,0h8" fill="none" stroke="white" stroke-width="1.5" pointer-events="none"/>
                </g>
                <g id="dirArrow">
                        <path fill="none" stroke="white" stroke-width="1.5" d="M0,-3.0v7 M-2.5,-0.5L0,-3.0L2.5,-0.5"/>
                </g>
               <g id="resetDef">
                       <use xlink:href="#rim2" fill="#404040">
                               <set attributeName="fill" to="#808080" begin="reset.mouseover" end="reset.mouseout"/>
                       </use>
               </g>
        </defs>

<script type="text/javascript">
var viewWidth = 736;
var viewHeight = 30;
var sectionId = 'dynsection-9';
</script>
<script xlink:href="svgpan.js"/>
<svg id="graph" class="graph">
<g id="viewport">
<title>G</title>
<polygon fill="white" stroke="white" points="-4,5 -4,-26 733,-26 733,5 -4,5"/>
<!-- Node1 -->
<g id="node1" class="node"><title>Node1</title>
<polygon fill="#bfbfbf" stroke="black" points="0.5,-0.5 0.5,-21.5 81.5,-21.5 81.5,-0.5 0.5,-0.5"/>
<text text-anchor="middle" x="41" y="-8.5" font-family="FreeSans.ttf" font-size="10.00">Socket::gPort</text>
</g>
<!-- Node2 -->
<g id="node3" class="node"><title>Node2</title>
<a xlink:href="classSocketClient.xhtml#a6b296c5002caa1229e7d7b9be6f08607" target="_top" xlink:title="Build a socket for a new client connection and set all attributes.">
<polygon fill="white" stroke="black" points="118.5,-0.5 118.5,-21.5 221.5,-21.5 221.5,-0.5 118.5,-0.5"/>
<text text-anchor="middle" x="170" y="-8.5" font-family="FreeSans.ttf" font-size="10.00">SocketClient::New</text>
</a>
</g>
<!-- Node1&#45;&gt;Node2 -->
<g id="edge2" class="edge"><title>Node1&#45;&gt;Node2</title>
<path fill="none" stroke="midnightblue" d="M92.0522,-11C100.614,-11 109.506,-11 118.088,-11"/>
<polygon fill="midnightblue" stroke="midnightblue" points="91.8164,-7.5001 81.8164,-11 91.8164,-14.5001 91.8164,-7.5001"/>
</g>
<!-- Node3 -->
<g id="node5" class="node"><title>Node3</title>
<a xlink:href="classSocketServer.xhtml#afdbc60c3bc840875d2214b59c6213f63" target="_top" xlink:title="Accept a new connection on the listening port.">
<polygon fill="white" stroke="black" points="258,-0.5 258,-21.5 378,-21.5 378,-0.5 258,-0.5"/>
<text text-anchor="middle" x="318" y="-8.5" font-family="FreeSans.ttf" font-size="10.00">SocketServer::Accept</text>
</a>
</g>
<!-- Node2&#45;&gt;Node3 -->
<g id="edge4" class="edge"><title>Node2&#45;&gt;Node3</title>
<path fill="none" stroke="midnightblue" d="M231.774,-11C240.415,-11 249.286,-11 257.896,-11"/>
<polygon fill="midnightblue" stroke="midnightblue" points="231.763,-7.5001 221.763,-11 231.763,-14.5001 231.763,-7.5001"/>
</g>
<!-- Node4 -->
<g id="node7" class="node"><title>Node4</title>
<a xlink:href="classServer.xhtml#a39dbe16fdc8c5f6fbd678c6540fbcd6c" target="_top" xlink:title="Poll all SocketClient objects that are communicating with the associated SocketServer object...">
<polygon fill="white" stroke="black" points="414.5,-0.5 414.5,-21.5 523.5,-21.5 523.5,-0.5 414.5,-0.5"/>
<text text-anchor="middle" x="469" y="-8.5" font-family="FreeSans.ttf" font-size="10.00">Server::PollSockets</text>
</a>
</g>
<!-- Node3&#45;&gt;Node4 -->
<g id="edge6" class="edge"><title>Node3&#45;&gt;Node4</title>
<path fill="none" stroke="midnightblue" d="M388.345,-11C397.121,-11 405.991,-11 414.477,-11"/>
<polygon fill="midnightblue" stroke="midnightblue" points="388.113,-7.5001 378.113,-11 388.113,-14.5001 388.113,-7.5001"/>
</g>
<!-- Node5 -->
<g id="node9" class="node"><title>Node5</title>
<a xlink:href="classServer.xhtml#a50b81aa91d8fdaee6f52c5c5ec987990" target="_top" xlink:title="The core update loop of NAMS. This loop spawns all other subsystem update routines and then sleeps fo...">
<polygon fill="white" stroke="black" points="560.5,-0.5 560.5,-21.5 649.5,-21.5 649.5,-0.5 560.5,-0.5"/>
<text text-anchor="middle" x="605" y="-8.5" font-family="FreeSans.ttf" font-size="10.00">Server::Update</text>
</a>
</g>
<!-- Node4&#45;&gt;Node5 -->
<g id="edge8" class="edge"><title>Node4&#45;&gt;Node5</title>
<path fill="none" stroke="midnightblue" d="M533.698,-11C542.761,-11 551.903,-11 560.477,-11"/>
<polygon fill="midnightblue" stroke="midnightblue" points="533.533,-7.5001 523.533,-11 533.533,-14.5001 533.533,-7.5001"/>
</g>
<!-- Node6 -->
<g id="node11" class="node"><title>Node6</title>
<a xlink:href="main_8cpp.xhtml#ad53223b8779f25caeddb70a3b9172967" target="_top" xlink:title="The default function required to execute the server.">
<polygon fill="white" stroke="black" points="686.5,-0.5 686.5,-21.5 727.5,-21.5 727.5,-0.5 686.5,-0.5"/>
<text text-anchor="middle" x="707" y="-8.5" font-family="FreeSans.ttf" font-size="10.00">main</text>
</a>
</g>
<!-- Node5&#45;&gt;Node6 -->
<g id="edge10" class="edge"><title>Node5&#45;&gt;Node6</title>
<path fill="none" stroke="midnightblue" d="M659.942,-11C669.336,-11 678.55,-11 686.3,-11"/>
<polygon fill="midnightblue" stroke="midnightblue" points="659.739,-7.5001 649.739,-11 659.739,-14.5001 659.739,-7.5001"/>
</g>
</g>
</svg>
        <g id="navigator" transform="translate(0 0)" fill="#404254">
                <rect fill="#f2f5e9" fill-opacity="0.5" stroke="#606060" stroke-width=".5" x="0" y="0" width="60" height="60"/>
                <use id="zoomplus" xlink:href="#zoomPlus" x="17" y="9" onmousedown="handleZoom(evt,'in')"/>
                <use id="zoomminus" xlink:href="#zoomMin" x="42" y="9" onmousedown="handleZoom(evt,'out')"/>
                <use id="reset" xlink:href="#resetDef" x="30" y="36" onmousedown="handleReset()"/>
                <g id="arrowUp" xlink:href="#dirArrow" transform="translate(30 24)" onmousedown="handlePan(0,-1)">
                  <use xlink:href="#rim" fill="#404040">
                        <set attributeName="fill" to="#808080" begin="arrowUp.mouseover" end="arrowUp.mouseout"/>
                  </use>
                  <path fill="none" stroke="white" stroke-width="1.5" d="M0,-3.0v7 M-2.5,-0.5L0,-3.0L2.5,-0.5"/>
                </g>
                <g id="arrowRight" xlink:href="#dirArrow" transform="rotate(90) translate(36 -43)" onmousedown="handlePan(1,0)">
                  <use xlink:href="#rim" fill="#404040">
                        <set attributeName="fill" to="#808080" begin="arrowRight.mouseover" end="arrowRight.mouseout"/>
                  </use>
                  <path fill="none" stroke="white" stroke-width="1.5" d="M0,-3.0v7 M-2.5,-0.5L0,-3.0L2.5,-0.5"/>
                </g>
                <g id="arrowDown" xlink:href="#dirArrow" transform="rotate(180) translate(-30 -48)" onmousedown="handlePan(0,1)">
                  <use xlink:href="#rim" fill="#404040">
                        <set attributeName="fill" to="#808080" begin="arrowDown.mouseover" end="arrowDown.mouseout"/>
                  </use>
                  <path fill="none" stroke="white" stroke-width="1.5" d="M0,-3.0v7 M-2.5,-0.5L0,-3.0L2.5,-0.5"/>
                </g>
                <g id="arrowLeft" xlink:href="#dirArrow" transform="rotate(270) translate(-36 17)" onmousedown="handlePan(-1,0)">
                  <use xlink:href="#rim" fill="#404040">
                        <set attributeName="fill" to="#808080" begin="arrowLeft.mouseover" end="arrowLeft.mouseout"/>
                  </use>
                  <path fill="none" stroke="white" stroke-width="1.5" d="M0,-3.0v7 M-2.5,-0.5L0,-3.0L2.5,-0.5"/>
                </g>
        </g>
</svg>
