<?xml version="1.0" encoding="UTF-8" standalone="no"?>
<!DOCTYPE svg PUBLIC "-//W3C//DTD SVG 1.1//EN"
 "http://www.w3.org/Graphics/SVG/1.1/DTD/svg11.dtd">
<!-- Generated by graphviz version 2.26.3 (20100126.1600)
 -->
<!-- Title: G Pages: 1 -->
<svg width="278pt" height="110pt"
 viewBox="0.00 0.00 278.00 110.00" xmlns="http://www.w3.org/2000/svg" xmlns:xlink="http://www.w3.org/1999/xlink">
<g id="graph1" class="graph" transform="scale(1 1) rotate(0) translate(4 106)">
<title>G</title>
<polygon fill="white" stroke="white" points="-4,5 -4,-106 275,-106 275,5 -4,5"/>
<!-- Node1 -->
<g id="node1" class="node"><title>Node1</title>
<polygon fill="#bfbfbf" stroke="black" points="0,-40.5 0,-61.5 114,-61.5 114,-40.5 0,-40.5"/>
<text text-anchor="middle" x="57" y="-48.5" font-family="FreeSans.ttf" font-size="10.00">SocketClient::Delete</text>
</g>
<!-- Node2 -->
<g id="node3" class="node"><title>Node2</title>
<a xlink:href="classSocket.xhtml#a508457b48e6296d1e86c7cc72af65948" target="_top" xlink:title="Socket::Valid">
<polygon fill="white" stroke="black" points="171,-80.5 171,-101.5 249,-101.5 249,-80.5 171,-80.5"/>
<text text-anchor="middle" x="210" y="-88.5" font-family="FreeSans.ttf" font-size="10.00">Socket::Valid</text>
</a>
</g>
<!-- Node1&#45;&gt;Node2 -->
<g id="edge2" class="edge"><title>Node1&#45;&gt;Node2</title>
<path fill="none" stroke="midnightblue" d="M97.1989,-61.5095C116.753,-66.6218 140.427,-72.811 161.028,-78.1968"/>
<polygon fill="midnightblue" stroke="midnightblue" points="160.302,-81.6247 170.863,-80.768 162.073,-74.8523 160.302,-81.6247"/>
</g>
<!-- Node3 -->
<g id="node5" class="node"><title>Node3</title>
<a xlink:href="classServer.xhtml#a1e68e32745cdfe194e0af388d9d5244a" target="_top" xlink:title="Set the amount of subordinate SocketClient and SocketServer objects that have been closed on a NAMS S...">
<polygon fill="white" stroke="black" points="150.5,-40.5 150.5,-61.5 269.5,-61.5 269.5,-40.5 150.5,-40.5"/>
<text text-anchor="middle" x="210" y="-48.5" font-family="FreeSans.ttf" font-size="10.00">Server::sSocketClose</text>
</a>
</g>
<!-- Node1&#45;&gt;Node3 -->
<g id="edge4" class="edge"><title>Node1&#45;&gt;Node3</title>
<path fill="none" stroke="midnightblue" d="M114.407,-51C122.878,-51 131.683,-51 140.369,-51"/>
<polygon fill="midnightblue" stroke="midnightblue" points="140.484,-54.5001 150.484,-51 140.484,-47.5001 140.484,-54.5001"/>
</g>
<!-- Node4 -->
<g id="node7" class="node"><title>Node4</title>
<a xlink:href="classServer.xhtml#a01c4cacfdade91bc99d6c8911ca33a54" target="_top" xlink:title="Returns the combined number of SocketClient and SocketServer objects that have been destroyed...">
<polygon fill="white" stroke="black" points="150.5,-0.5 150.5,-21.5 269.5,-21.5 269.5,-0.5 150.5,-0.5"/>
<text text-anchor="middle" x="210" y="-8.5" font-family="FreeSans.ttf" font-size="10.00">Server::gSocketClose</text>
</a>
</g>
<!-- Node1&#45;&gt;Node4 -->
<g id="edge6" class="edge"><title>Node1&#45;&gt;Node4</title>
<path fill="none" stroke="midnightblue" d="M97.1989,-40.4905C116.449,-35.4578 139.691,-29.3814 160.064,-24.0552"/>
<polygon fill="midnightblue" stroke="midnightblue" points="161.015,-27.4243 169.804,-21.5087 159.244,-20.652 161.015,-27.4243"/>
</g>
</g>
</svg>
