<?xml version="1.0" encoding="UTF-8" standalone="no"?>
<!DOCTYPE svg PUBLIC "-//W3C//DTD SVG 1.1//EN"
 "http://www.w3.org/Graphics/SVG/1.1/DTD/svg11.dtd">
<!-- Generated by graphviz version 2.26.3 (20100126.1600)
 -->
<!-- Title: G Pages: 1 -->
<!--zoomable 230 -->
<svg id="main" version="1.1" xmlns="http://www.w3.org/2000/svg" xmlns:xlink="http://www.w3.org/1999/xlink" xml:space="preserve" onload="init(evt)">
        <defs>
                <circle id="rim" cx="0" cy="0" r="7"/>
                <circle id="rim2" cx="0" cy="0" r="3.5"/>
                <g id="zoomPlus">
                        <use xlink:href="#rim" fill="#404040">
                                <set attributeName="fill" to="#808080" begin="zoomplus.mouseover" end="zoomplus.mouseout"/>
                        </use>
                        <path d="M-4,0h8M0,-4v8" fill="none" stroke="white" stroke-width="1.5" pointer-events="none"/>
                </g>
                <g id="zoomMin">
                        <use xlink:href="#rim" fill="#404040">
                                <set attributeName="fill" to="#808080" begin="zoomminus.mouseover" end="zoomminus.mouseout"/>
                        </use>
                        <path d="M-4,0h8" fill="none" stroke="white" stroke-width="1.5" pointer-events="none"/>
                </g>
                <g id="dirArrow">
                        <path fill="none" stroke="white" stroke-width="1.5" d="M0,-3.0v7 M-2.5,-0.5L0,-3.0L2.5,-0.5"/>
                </g>
               <g id="resetDef">
                       <use xlink:href="#rim2" fill="#404040">
                               <set attributeName="fill" to="#808080" begin="reset.mouseover" end="reset.mouseout"/>
                       </use>
               </g>
        </defs>

<script type="text/javascript">
var viewWidth = 1366;
var viewHeight = 230;
var sectionId = 'dynsection-6';
</script>
<script xlink:href="svgpan.js"/>
<svg id="graph" class="graph">
<g id="viewport">
<title>G</title>
<polygon fill="white" stroke="white" points="-4,5 -4,-226 1363,-226 1363,5 -4,5"/>
<!-- Node1 -->
<g id="node1" class="node"><title>Node1</title>
<polygon fill="#bfbfbf" stroke="black" points="0,-99.5 0,-120.5 128,-120.5 128,-99.5 0,-99.5"/>
<text text-anchor="middle" x="64" y="-107.5" font-family="FreeSans.ttf" font-size="10.00">SocketClient::gAccount</text>
</g>
<!-- Node2 -->
<g id="node3" class="node"><title>Node2</title>
<a xlink:href="namespaceHandler.xhtml#a093ad11406855ab2a6ca197bc2db42b7" target="_top" xlink:title="Main account menu for all account actions.">
<polygon fill="white" stroke="black" points="164.5,-119.5 164.5,-140.5 289.5,-140.5 289.5,-119.5 164.5,-119.5"/>
<text text-anchor="middle" x="227" y="-127.5" font-family="FreeSans.ttf" font-size="10.00">Handler::AccountMenu</text>
</a>
</g>
<!-- Node1&#45;&gt;Node2 -->
<g id="edge2" class="edge"><title>Node1&#45;&gt;Node2</title>
<path fill="none" stroke="midnightblue" d="M138.504,-119.142C147.153,-120.203 155.909,-121.277 164.377,-122.316"/>
<polygon fill="midnightblue" stroke="midnightblue" points="138.774,-115.649 128.422,-117.905 137.921,-122.596 138.774,-115.649"/>
</g>
<!-- Node17 -->
<g id="node40" class="node"><title>Node17</title>
<a xlink:href="namespaceHandler.xhtml#a22b7749e3b3771d31eb2299efa5d821b" target="_top" xlink:title="Send initial account interface menu.">
<polygon fill="white" stroke="black" points="332,-80.5 332,-101.5 452,-101.5 452,-80.5 332,-80.5"/>
<text text-anchor="middle" x="392" y="-88.5" font-family="FreeSans.ttf" font-size="10.00">Handler::MenuScreen</text>
</a>
</g>
<!-- Node1&#45;&gt;Node17 -->
<g id="edge50" class="edge"><title>Node1&#45;&gt;Node17</title>
<path fill="none" stroke="midnightblue" d="M138.305,-105.696C196.78,-102.308 277.228,-97.6484 331.738,-94.4908"/>
<polygon fill="midnightblue" stroke="midnightblue" points="137.801,-102.219 128.02,-106.292 138.206,-109.207 137.801,-102.219"/>
</g>
<!-- Node3 -->
<g id="node5" class="node"><title>Node3</title>
<a xlink:href="namespaceHandler.xhtml#a142c6f0b9e36e54eba3d72f9db2dfe40" target="_top" xlink:title="Redirect to the appropriate subsystem based on socket state.">
<polygon fill="white" stroke="black" points="674.5,-200.5 674.5,-221.5 775.5,-221.5 775.5,-200.5 674.5,-200.5"/>
<text text-anchor="middle" x="725" y="-208.5" font-family="FreeSans.ttf" font-size="10.00">Handler::Interpret</text>
</a>
</g>
<!-- Node2&#45;&gt;Node3 -->
<g id="edge4" class="edge"><title>Node2&#45;&gt;Node3</title>
<path fill="none" stroke="midnightblue" d="M283.602,-142.615C297.439,-145.531 312.227,-148.506 326,-151 450.761,-173.592 598.559,-194.231 674.452,-204.385"/>
<polygon fill="midnightblue" stroke="midnightblue" points="284.232,-139.171 273.722,-140.51 282.773,-146.017 284.232,-139.171"/>
</g>
<!-- Node8 -->
<g id="node15" class="node"><title>Node8</title>
<a xlink:href="namespaceHandler.xhtml#a33a19d69ead678af81fbe96907eceaf0" target="_top" xlink:title="Create a new account object, or load an existing one, with a name and password.">
<polygon fill="white" stroke="black" points="326.5,-120.5 326.5,-141.5 457.5,-141.5 457.5,-120.5 326.5,-120.5"/>
<text text-anchor="middle" x="392" y="-128.5" font-family="FreeSans.ttf" font-size="10.00">Handler::AttachAccount</text>
</a>
</g>
<!-- Node2&#45;&gt;Node8 -->
<g id="edge14" class="edge"><title>Node2&#45;&gt;Node8</title>
<path fill="none" stroke="midnightblue" d="M300.031,-130.443C308.78,-130.496 317.673,-130.55 326.309,-130.602"/>
<polygon fill="midnightblue" stroke="midnightblue" points="299.871,-126.942 289.85,-130.381 299.829,-133.942 299.871,-126.942"/>
</g>
<!-- Node2&#45;&gt;Node17 -->
<g id="edge46" class="edge"><title>Node2&#45;&gt;Node17</title>
<path fill="none" stroke="midnightblue" d="M260.798,-116.44C281.285,-110.466 308.013,-103.832 331.995,-98.6612"/>
<polygon fill="midnightblue" stroke="midnightblue" points="259.554,-113.16 250.992,-119.401 261.577,-119.861 259.554,-113.16"/>
</g>
<!-- Node4 -->
<g id="node7" class="node"><title>Node4</title>
<a xlink:href="classSocketClient.xhtml#ad4f63c7d906310dc56a1217136047d7f" target="_top" xlink:title="Interpret the command at the front of the queue.">
<polygon fill="white" stroke="black" points="832,-190.5 832,-211.5 1002,-211.5 1002,-190.5 832,-190.5"/>
<text text-anchor="middle" x="917" y="-198.5" font-family="FreeSans.ttf" font-size="10.00">SocketClient::ProcessCommand</text>
</a>
</g>
<!-- Node3&#45;&gt;Node4 -->
<g id="edge6" class="edge"><title>Node3&#45;&gt;Node4</title>
<path fill="none" stroke="midnightblue" d="M786.053,-207.82C800.608,-207.062 816.404,-206.239 831.824,-205.436"/>
<polygon fill="midnightblue" stroke="midnightblue" points="785.501,-204.344 775.697,-208.36 785.865,-211.335 785.501,-204.344"/>
</g>
<!-- Node5 -->
<g id="node9" class="node"><title>Node5</title>
<a xlink:href="classServer.xhtml#a2b4cec469bb99c2a45e49de5ba74d1ae" target="_top" xlink:title="Processes input from all active SocketClient objects.">
<polygon fill="white" stroke="black" points="1038,-150.5 1038,-171.5 1154,-171.5 1154,-150.5 1038,-150.5"/>
<text text-anchor="middle" x="1096" y="-158.5" font-family="FreeSans.ttf" font-size="10.00">Server::ProcessInput</text>
</a>
</g>
<!-- Node4&#45;&gt;Node5 -->
<g id="edge8" class="edge"><title>Node4&#45;&gt;Node5</title>
<path fill="none" stroke="midnightblue" d="M973.806,-188.306C998.023,-182.894 1025.94,-176.656 1048.97,-171.509"/>
<polygon fill="midnightblue" stroke="midnightblue" points="973.026,-184.894 964.03,-190.49 974.553,-191.725 973.026,-184.894"/>
</g>
<!-- Node6 -->
<g id="node11" class="node"><title>Node6</title>
<a xlink:href="classServer.xhtml#a50b81aa91d8fdaee6f52c5c5ec987990" target="_top" xlink:title="The core update loop of NAMS. This loop spawns all other subsystem update routines and then sleeps fo...">
<polygon fill="white" stroke="black" points="1190.5,-120.5 1190.5,-141.5 1279.5,-141.5 1279.5,-120.5 1190.5,-120.5"/>
<text text-anchor="middle" x="1235" y="-128.5" font-family="FreeSans.ttf" font-size="10.00">Server::Update</text>
</a>
</g>
<!-- Node5&#45;&gt;Node6 -->
<g id="edge10" class="edge"><title>Node5&#45;&gt;Node6</title>
<path fill="none" stroke="midnightblue" d="M1154.81,-148.307C1166.64,-145.754 1178.89,-143.11 1190.15,-140.68"/>
<polygon fill="midnightblue" stroke="midnightblue" points="1154.04,-144.892 1145.01,-150.423 1155.52,-151.735 1154.04,-144.892"/>
</g>
<!-- Node7 -->
<g id="node13" class="node"><title>Node7</title>
<a xlink:href="main_8cpp.xhtml#ad53223b8779f25caeddb70a3b9172967" target="_top" xlink:title="The default function required to execute the server.">
<polygon fill="white" stroke="black" points="1316.5,-120.5 1316.5,-141.5 1357.5,-141.5 1357.5,-120.5 1316.5,-120.5"/>
<text text-anchor="middle" x="1337" y="-128.5" font-family="FreeSans.ttf" font-size="10.00">main</text>
</a>
</g>
<!-- Node6&#45;&gt;Node7 -->
<g id="edge12" class="edge"><title>Node6&#45;&gt;Node7</title>
<path fill="none" stroke="midnightblue" d="M1289.94,-131C1299.34,-131 1308.55,-131 1316.3,-131"/>
<polygon fill="midnightblue" stroke="midnightblue" points="1289.74,-127.5 1279.74,-131 1289.74,-134.5 1289.74,-127.5"/>
</g>
<!-- Node9 -->
<g id="node17" class="node"><title>Node9</title>
<a xlink:href="namespaceHandler.xhtml#af650e47f3d4baf393b54376d1eaa1fa9" target="_top" xlink:title="Handle SocketClient objects who have not fully logged into the game yet.">
<polygon fill="white" stroke="black" points="494.5,-120.5 494.5,-141.5 617.5,-141.5 617.5,-120.5 494.5,-120.5"/>
<text text-anchor="middle" x="556" y="-128.5" font-family="FreeSans.ttf" font-size="10.00">Handler::ProcessLogin</text>
</a>
</g>
<!-- Node8&#45;&gt;Node9 -->
<g id="edge16" class="edge"><title>Node8&#45;&gt;Node9</title>
<path fill="none" stroke="midnightblue" d="M467.79,-124.267C476.73,-124.218 485.77,-124.275 494.48,-124.441"/>
<polygon fill="midnightblue" stroke="midnightblue" points="467.724,-120.768 457.76,-124.369 467.795,-127.767 467.724,-120.768"/>
</g>
<!-- Node9&#45;&gt;Node3 -->
<g id="edge18" class="edge"><title>Node9&#45;&gt;Node3</title>
<path fill="none" stroke="midnightblue" d="M578.975,-147.584C598.231,-160.852 626.857,-179.139 654,-191 662.332,-194.641 671.503,-197.8 680.408,-200.466"/>
<polygon fill="midnightblue" stroke="midnightblue" points="580.773,-144.57 570.574,-141.703 576.759,-150.305 580.773,-144.57"/>
</g>
<!-- Node9&#45;&gt;Node8 -->
<g id="edge20" class="edge"><title>Node9&#45;&gt;Node8</title>
<path fill="none" stroke="midnightblue" d="M484.242,-137.703C475.436,-137.784 466.471,-137.76 457.76,-137.631"/>
<polygon fill="midnightblue" stroke="midnightblue" points="484.531,-141.199 494.48,-137.559 484.432,-134.2 484.531,-141.199"/>
</g>
<!-- Node10 -->
<g id="node21" class="node"><title>Node10</title>
<a xlink:href="namespaceHandler.xhtml#a00bc24564bfd267e0329643c569da1e4" target="_top" xlink:title="Select a new account name.">
<polygon fill="white" stroke="black" points="656.5,-160.5 656.5,-181.5 793.5,-181.5 793.5,-160.5 656.5,-160.5"/>
<text text-anchor="middle" x="725" y="-168.5" font-family="FreeSans.ttf" font-size="10.00">Handler::GetNewAccount</text>
</a>
</g>
<!-- Node9&#45;&gt;Node10 -->
<g id="edge22" class="edge"><title>Node9&#45;&gt;Node10</title>
<path fill="none" stroke="midnightblue" d="M627.89,-141.333C654.041,-147.241 681.84,-154.42 700.963,-160.424"/>
<polygon fill="midnightblue" stroke="midnightblue" points="628.49,-137.881 617.97,-139.135 626.976,-144.715 628.49,-137.881"/>
</g>
<!-- Node11 -->
<g id="node24" class="node"><title>Node11</title>
<a xlink:href="namespaceHandler.xhtml#a744adadcf407cdb3a9c33365afd5a7c2" target="_top" xlink:title="Create a new account.">
<polygon fill="white" stroke="black" points="654,-120.5 654,-141.5 796,-141.5 796,-120.5 654,-120.5"/>
<text text-anchor="middle" x="725" y="-128.5" font-family="FreeSans.ttf" font-size="10.00">Handler::GetNewPassword</text>
</a>
</g>
<!-- Node9&#45;&gt;Node11 -->
<g id="edge26" class="edge"><title>Node9&#45;&gt;Node11</title>
<path fill="none" stroke="midnightblue" d="M628.231,-124.314C636.732,-124.225 645.402,-124.229 653.887,-124.326"/>
<polygon fill="midnightblue" stroke="midnightblue" points="627.916,-120.818 617.97,-124.468 628.021,-127.817 627.916,-120.818"/>
</g>
<!-- Node12 -->
<g id="node27" class="node"><title>Node12</title>
<a xlink:href="namespaceHandler.xhtml#adfe13cc9748392348f3941656a1323b6" target="_top" xlink:title="Compare a received password against an existing account.">
<polygon fill="white" stroke="black" points="656.5,-80.5 656.5,-101.5 793.5,-101.5 793.5,-80.5 656.5,-80.5"/>
<text text-anchor="middle" x="725" y="-88.5" font-family="FreeSans.ttf" font-size="10.00">Handler::GetOldPassword</text>
</a>
</g>
<!-- Node9&#45;&gt;Node12 -->
<g id="edge30" class="edge"><title>Node9&#45;&gt;Node12</title>
<path fill="none" stroke="midnightblue" d="M589.582,-117.537C608.697,-111.947 633.355,-105.734 656.38,-100.598"/>
<polygon fill="midnightblue" stroke="midnightblue" points="588.412,-114.234 579.855,-120.481 590.44,-120.934 588.412,-114.234"/>
</g>
<!-- Node13 -->
<g id="node30" class="node"><title>Node13</title>
<a xlink:href="namespaceHandler.xhtml#a44b41bf69fdc6e615a029bea34910191" target="_top" xlink:title="Send initial greeting and request for account name.">
<polygon fill="white" stroke="black" points="665.5,-40.5 665.5,-61.5 784.5,-61.5 784.5,-40.5 665.5,-40.5"/>
<text text-anchor="middle" x="725" y="-48.5" font-family="FreeSans.ttf" font-size="10.00">Handler::LoginScreen</text>
</a>
</g>
<!-- Node9&#45;&gt;Node13 -->
<g id="edge34" class="edge"><title>Node9&#45;&gt;Node13</title>
<path fill="none" stroke="midnightblue" d="M571.237,-113.46C589.917,-97.5746 622.929,-75.5773 654,-62 657.638,-60.4104 661.436,-58.9125 665.301,-57.5233"/>
<polygon fill="midnightblue" stroke="midnightblue" points="568.778,-110.966 563.722,-120.277 573.48,-116.151 568.778,-110.966"/>
</g>
<!-- Node14 -->
<g id="node33" class="node"><title>Node14</title>
<a xlink:href="classSocketClient.xhtml#a553658a2c076ea71ddcd1758fc64a925" target="_top" xlink:title="Build a SocketClient for a new client connection and set all attributes.">
<polygon fill="white" stroke="black" points="673.5,-0.5 673.5,-21.5 776.5,-21.5 776.5,-0.5 673.5,-0.5"/>
<text text-anchor="middle" x="725" y="-8.5" font-family="FreeSans.ttf" font-size="10.00">SocketClient::New</text>
</a>
</g>
<!-- Node9&#45;&gt;Node14 -->
<g id="edge38" class="edge"><title>Node9&#45;&gt;Node14</title>
<path fill="none" stroke="midnightblue" d="M569.331,-112.362C586.43,-89.8087 618.187,-52.2267 654,-31 660.39,-27.2129 667.528,-24.1152 674.749,-21.589"/>
<polygon fill="midnightblue" stroke="midnightblue" points="566.461,-110.357 563.322,-120.476 572.086,-114.523 566.461,-110.357"/>
</g>
<!-- Node10&#45;&gt;Node9 -->
<g id="edge24" class="edge"><title>Node10&#45;&gt;Node9</title>
<path fill="none" stroke="midnightblue" d="M646.433,-159.139C622.227,-153.531 597.368,-147.027 579.855,-141.519"/>
<polygon fill="midnightblue" stroke="midnightblue" points="645.853,-162.597 656.38,-161.402 647.405,-155.771 645.853,-162.597"/>
</g>
<!-- Node11&#45;&gt;Node9 -->
<g id="edge28" class="edge"><title>Node11&#45;&gt;Node9</title>
<path fill="none" stroke="midnightblue" d="M643.752,-137.746C635.082,-137.769 626.366,-137.698 617.97,-137.532"/>
<polygon fill="midnightblue" stroke="midnightblue" points="643.912,-141.245 653.887,-137.674 643.863,-134.245 643.912,-141.245"/>
</g>
<!-- Node12&#45;&gt;Node9 -->
<g id="edge32" class="edge"><title>Node12&#45;&gt;Node9</title>
<path fill="none" stroke="midnightblue" d="M691.251,-104.512C670.302,-110.632 642.742,-117.491 617.97,-122.865"/>
<polygon fill="midnightblue" stroke="midnightblue" points="692.403,-107.82 700.963,-101.576 690.378,-101.119 692.403,-107.82"/>
</g>
<!-- Node13&#45;&gt;Node9 -->
<g id="edge36" class="edge"><title>Node13&#45;&gt;Node9</title>
<path fill="none" stroke="midnightblue" d="M698.21,-64.7644C684.652,-69.0414 668.12,-73.8298 654,-80 627.859,-91.423 600.344,-108.806 581.146,-120.358"/>
<polygon fill="midnightblue" stroke="midnightblue" points="699.5,-68.0248 707.908,-61.579 697.315,-61.3743 699.5,-68.0248"/>
</g>
<!-- Node15 -->
<g id="node35" class="node"><title>Node15</title>
<a xlink:href="classSocketServer.xhtml#afdbc60c3bc840875d2214b59c6213f63" target="_top" xlink:title="Accept a new connection on the listening port.">
<polygon fill="white" stroke="black" points="857,-80.5 857,-101.5 977,-101.5 977,-80.5 857,-80.5"/>
<text text-anchor="middle" x="917" y="-88.5" font-family="FreeSans.ttf" font-size="10.00">SocketServer::Accept</text>
</a>
</g>
<!-- Node14&#45;&gt;Node15 -->
<g id="edge40" class="edge"><title>Node14&#45;&gt;Node15</title>
<path fill="none" stroke="midnightblue" d="M777.372,-24.5558C783.706,-26.5459 790.039,-28.7055 796,-31 833.419,-45.4041 874.837,-67.3361 898.215,-80.3124"/>
<polygon fill="midnightblue" stroke="midnightblue" points="778.056,-21.1064 767.471,-21.5729 776.037,-27.8088 778.056,-21.1064"/>
</g>
<!-- Node16 -->
<g id="node37" class="node"><title>Node16</title>
<a xlink:href="classServer.xhtml#a39dbe16fdc8c5f6fbd678c6540fbcd6c" target="_top" xlink:title="Poll all SocketClient objects that are communicating with the associated SocketServer object...">
<polygon fill="white" stroke="black" points="1041.5,-90.5 1041.5,-111.5 1150.5,-111.5 1150.5,-90.5 1041.5,-90.5"/>
<text text-anchor="middle" x="1096" y="-98.5" font-family="FreeSans.ttf" font-size="10.00">Server::PollSockets</text>
</a>
</g>
<!-- Node15&#45;&gt;Node16 -->
<g id="edge42" class="edge"><title>Node15&#45;&gt;Node16</title>
<path fill="none" stroke="midnightblue" d="M987.268,-94.9256C1005.28,-95.9321 1024.39,-96.9995 1041.48,-97.9541"/>
<polygon fill="midnightblue" stroke="midnightblue" points="987.282,-91.421 977.102,-94.3577 986.892,-98.4101 987.282,-91.421"/>
</g>
<!-- Node16&#45;&gt;Node6 -->
<g id="edge44" class="edge"><title>Node16&#45;&gt;Node6</title>
<path fill="none" stroke="midnightblue" d="M1154.81,-113.693C1166.64,-116.246 1178.89,-118.89 1190.15,-121.32"/>
<polygon fill="midnightblue" stroke="midnightblue" points="1155.52,-110.265 1145.01,-111.577 1154.04,-117.108 1155.52,-110.265"/>
</g>
<!-- Node17&#45;&gt;Node2 -->
<g id="edge48" class="edge"><title>Node17&#45;&gt;Node2</title>
<path fill="none" stroke="midnightblue" d="M358.288,-104.535C338.596,-110.28 313.116,-116.639 289.85,-121.721"/>
<polygon fill="midnightblue" stroke="midnightblue" points="359.455,-107.839 368.016,-101.596 357.431,-101.138 359.455,-107.839"/>
</g>
</g>
</svg>
        <g id="navigator" transform="translate(0 0)" fill="#404254">
                <rect fill="#f2f5e9" fill-opacity="0.5" stroke="#606060" stroke-width=".5" x="0" y="0" width="60" height="60"/>
                <use id="zoomplus" xlink:href="#zoomPlus" x="17" y="9" onmousedown="handleZoom(evt,'in')"/>
                <use id="zoomminus" xlink:href="#zoomMin" x="42" y="9" onmousedown="handleZoom(evt,'out')"/>
                <use id="reset" xlink:href="#resetDef" x="30" y="36" onmousedown="handleReset()"/>
                <g id="arrowUp" xlink:href="#dirArrow" transform="translate(30 24)" onmousedown="handlePan(0,-1)">
                  <use xlink:href="#rim" fill="#404040">
                        <set attributeName="fill" to="#808080" begin="arrowUp.mouseover" end="arrowUp.mouseout"/>
                  </use>
                  <path fill="none" stroke="white" stroke-width="1.5" d="M0,-3.0v7 M-2.5,-0.5L0,-3.0L2.5,-0.5"/>
                </g>
                <g id="arrowRight" xlink:href="#dirArrow" transform="rotate(90) translate(36 -43)" onmousedown="handlePan(1,0)">
                  <use xlink:href="#rim" fill="#404040">
                        <set attributeName="fill" to="#808080" begin="arrowRight.mouseover" end="arrowRight.mouseout"/>
                  </use>
                  <path fill="none" stroke="white" stroke-width="1.5" d="M0,-3.0v7 M-2.5,-0.5L0,-3.0L2.5,-0.5"/>
                </g>
                <g id="arrowDown" xlink:href="#dirArrow" transform="rotate(180) translate(-30 -48)" onmousedown="handlePan(0,1)">
                  <use xlink:href="#rim" fill="#404040">
                        <set attributeName="fill" to="#808080" begin="arrowDown.mouseover" end="arrowDown.mouseout"/>
                  </use>
                  <path fill="none" stroke="white" stroke-width="1.5" d="M0,-3.0v7 M-2.5,-0.5L0,-3.0L2.5,-0.5"/>
                </g>
                <g id="arrowLeft" xlink:href="#dirArrow" transform="rotate(270) translate(-36 17)" onmousedown="handlePan(-1,0)">
                  <use xlink:href="#rim" fill="#404040">
                        <set attributeName="fill" to="#808080" begin="arrowLeft.mouseover" end="arrowLeft.mouseout"/>
                  </use>
                  <path fill="none" stroke="white" stroke-width="1.5" d="M0,-3.0v7 M-2.5,-0.5L0,-3.0L2.5,-0.5"/>
                </g>
        </g>
</svg>
