<?xml version="1.0" encoding="UTF-8" standalone="no"?>
<!DOCTYPE svg PUBLIC "-//W3C//DTD SVG 1.1//EN"
 "http://www.w3.org/Graphics/SVG/1.1/DTD/svg11.dtd">
<!-- Generated by graphviz version 2.26.3 (20100126.1600)
 -->
<!-- Title: G Pages: 1 -->
<!--zoomable 241 -->
<svg id="main" version="1.1" xmlns="http://www.w3.org/2000/svg" xmlns:xlink="http://www.w3.org/1999/xlink" xml:space="preserve" onload="init(evt)">
        <defs>
                <circle id="rim" cx="0" cy="0" r="7"/>
                <circle id="rim2" cx="0" cy="0" r="3.5"/>
                <g id="zoomPlus">
                        <use xlink:href="#rim" fill="#404040">
                                <set attributeName="fill" to="#808080" begin="zoomplus.mouseover" end="zoomplus.mouseout"/>
                        </use>
                        <path d="M-4,0h8M0,-4v8" fill="none" stroke="white" stroke-width="1.5" pointer-events="none"/>
                </g>
                <g id="zoomMin">
                        <use xlink:href="#rim" fill="#404040">
                                <set attributeName="fill" to="#808080" begin="zoomminus.mouseover" end="zoomminus.mouseout"/>
                        </use>
                        <path d="M-4,0h8" fill="none" stroke="white" stroke-width="1.5" pointer-events="none"/>
                </g>
                <g id="dirArrow">
                        <path fill="none" stroke="white" stroke-width="1.5" d="M0,-3.0v7 M-2.5,-0.5L0,-3.0L2.5,-0.5"/>
                </g>
               <g id="resetDef">
                       <use xlink:href="#rim2" fill="#404040">
                               <set attributeName="fill" to="#808080" begin="reset.mouseover" end="reset.mouseout"/>
                       </use>
               </g>
        </defs>

<script type="text/javascript">
var viewWidth = 1104;
var viewHeight = 241;
var sectionId = 'dynsection-10';
</script>
<script xlink:href="svgpan.js"/>
<svg id="graph" class="graph">
<g id="viewport">
<title>G</title>
<polygon fill="white" stroke="white" points="-4,5 -4,-236.606 1101,-236.606 1101,5 -4,5"/>
<!-- Node1 -->
<g id="node1" class="node"><title>Node1</title>
<polygon fill="#bfbfbf" stroke="black" points="0.5,-172.106 0.5,-193.106 93.5,-193.106 93.5,-172.106 0.5,-172.106"/>
<text text-anchor="middle" x="47" y="-180.106" font-family="FreeSans.ttf" font-size="10.00">Server::gSocket</text>
</g>
<!-- Node2 -->
<g id="node3" class="node"><title>Node2</title>
<a xlink:href="classSocketClient.xhtml#a9ee09f452d900e288b2aa187561ef05d" target="_top" xlink:title="Receive data from the client and append it to a receive buffer.">
<polygon fill="white" stroke="black" points="132,-211.106 132,-232.106 236,-232.106 236,-211.106 132,-211.106"/>
<text text-anchor="middle" x="184" y="-219.106" font-family="FreeSans.ttf" font-size="10.00">SocketClient::Recv</text>
</a>
</g>
<!-- Node1&#45;&gt;Node2 -->
<g id="edge2" class="edge"><title>Node1&#45;&gt;Node2</title>
<path fill="none" stroke="midnightblue" d="M93.9807,-195.98C111.271,-200.902 130.597,-206.404 146.896,-211.044"/>
<polygon fill="midnightblue" stroke="midnightblue" points="94.6504,-192.532 84.0742,-193.16 92.7338,-199.264 94.6504,-192.532"/>
</g>
<!-- Node6 -->
<g id="node11" class="node"><title>Node6</title>
<a xlink:href="classSocketClient.xhtml#a6268f3d184970ec0076da657c39d2e80" target="_top" xlink:title="Process data from the client&#39;s send buffer and transmit it via the socket.">
<polygon fill="white" stroke="black" points="130.5,-133.106 130.5,-154.106 237.5,-154.106 237.5,-133.106 130.5,-133.106"/>
<text text-anchor="middle" x="184" y="-141.106" font-family="FreeSans.ttf" font-size="10.00">SocketClient::Send</text>
</a>
</g>
<!-- Node1&#45;&gt;Node6 -->
<g id="edge10" class="edge"><title>Node1&#45;&gt;Node6</title>
<path fill="none" stroke="midnightblue" d="M93.9807,-169.232C111.271,-164.31 130.597,-158.809 146.896,-154.169"/>
<polygon fill="midnightblue" stroke="midnightblue" points="92.7338,-165.948 84.0742,-172.052 94.6504,-172.68 92.7338,-165.948"/>
</g>
<!-- Node3 -->
<g id="node5" class="node"><title>Node3</title>
<a xlink:href="classServer.xhtml#a39dbe16fdc8c5f6fbd678c6540fbcd6c" target="_top" xlink:title="Poll all SocketClient objects that are communicating with the associated SocketServer object...">
<polygon fill="white" stroke="black" points="600.5,-182.106 600.5,-203.106 709.5,-203.106 709.5,-182.106 600.5,-182.106"/>
<text text-anchor="middle" x="655" y="-190.106" font-family="FreeSans.ttf" font-size="10.00">Server::PollSockets</text>
</a>
</g>
<!-- Node2&#45;&gt;Node3 -->
<g id="edge4" class="edge"><title>Node2&#45;&gt;Node3</title>
<path fill="none" stroke="midnightblue" d="M246.131,-226.417C316.319,-230.779 433.826,-234.839 534,-222.606 564.184,-218.92 597.683,-210.244 621.767,-203.165"/>
<polygon fill="midnightblue" stroke="midnightblue" points="246.33,-222.923 236.126,-225.773 245.881,-229.908 246.33,-222.923"/>
</g>
<!-- Node4 -->
<g id="node7" class="node"><title>Node4</title>
<a xlink:href="classServer.xhtml#a50b81aa91d8fdaee6f52c5c5ec987990" target="_top" xlink:title="The core update loop of NAMS. This loop spawns all other subsystem update routines and then sleeps fo...">
<polygon fill="white" stroke="black" points="928.5,-114.106 928.5,-135.106 1017.5,-135.106 1017.5,-114.106 928.5,-114.106"/>
<text text-anchor="middle" x="973" y="-122.106" font-family="FreeSans.ttf" font-size="10.00">Server::Update</text>
</a>
</g>
<!-- Node3&#45;&gt;Node4 -->
<g id="edge6" class="edge"><title>Node3&#45;&gt;Node4</title>
<path fill="none" stroke="midnightblue" d="M719.724,-190.888C768.052,-188.192 835.259,-181.424 892,-164.606 915.308,-157.698 940.085,-144.491 956.008,-135.146"/>
<polygon fill="midnightblue" stroke="midnightblue" points="719.515,-187.394 709.709,-191.404 719.875,-194.385 719.515,-187.394"/>
</g>
<!-- Node5 -->
<g id="node9" class="node"><title>Node5</title>
<a xlink:href="main_8cpp.xhtml#ad53223b8779f25caeddb70a3b9172967" target="_top" xlink:title="The default function required to execute the server.">
<polygon fill="white" stroke="black" points="1054.5,-37.1062 1054.5,-58.1062 1095.5,-58.1062 1095.5,-37.1062 1054.5,-37.1062"/>
<text text-anchor="middle" x="1075" y="-45.1062" font-family="FreeSans.ttf" font-size="10.00">main</text>
</a>
</g>
<!-- Node4&#45;&gt;Node5 -->
<g id="edge8" class="edge"><title>Node4&#45;&gt;Node5</title>
<path fill="none" stroke="midnightblue" d="M995.418,-107.682C1015.4,-92.6006 1044.02,-70.9947 1060.94,-58.2218"/>
<polygon fill="midnightblue" stroke="midnightblue" points="993.055,-105.081 987.183,-113.9 997.273,-110.668 993.055,-105.081"/>
</g>
<!-- Node6&#45;&gt;Node3 -->
<g id="edge38" class="edge"><title>Node6&#45;&gt;Node3</title>
<path fill="none" stroke="midnightblue" d="M247.708,-150.234C340.867,-159.926 512.687,-177.801 600.39,-186.925"/>
<polygon fill="midnightblue" stroke="midnightblue" points="247.88,-146.733 237.571,-149.179 247.155,-153.695 247.88,-146.733"/>
</g>
<!-- Node7 -->
<g id="node13" class="node"><title>Node7</title>
<a xlink:href="classAccount.xhtml#a1e12e66ca5fdd8ebbc741d4f037c806b" target="_top" xlink:title="Create a new account.">
<polygon fill="white" stroke="black" points="285,-114.106 285,-135.106 367,-135.106 367,-114.106 285,-114.106"/>
<text text-anchor="middle" x="326" y="-122.106" font-family="FreeSans.ttf" font-size="10.00">Account::New</text>
</a>
</g>
<!-- Node6&#45;&gt;Node7 -->
<g id="edge12" class="edge"><title>Node6&#45;&gt;Node7</title>
<path fill="none" stroke="midnightblue" d="M247.652,-135.089C260.202,-133.41 273.061,-131.69 284.639,-130.14"/>
<polygon fill="midnightblue" stroke="midnightblue" points="247.132,-131.628 237.684,-136.423 248.06,-138.566 247.132,-131.628"/>
</g>
<!-- Node9 -->
<g id="node17" class="node"><title>Node9</title>
<a xlink:href="classSocketClient.xhtml#ad4f63c7d906310dc56a1217136047d7f" target="_top" xlink:title="Interpret the command at the front of the queue.">
<polygon fill="white" stroke="black" points="570,-114.106 570,-135.106 740,-135.106 740,-114.106 570,-114.106"/>
<text text-anchor="middle" x="655" y="-122.106" font-family="FreeSans.ttf" font-size="10.00">SocketClient::ProcessCommand</text>
</a>
</g>
<!-- Node6&#45;&gt;Node9 -->
<g id="edge46" class="edge"><title>Node6&#45;&gt;Node9</title>
<path fill="none" stroke="midnightblue" d="M211.215,-128.326C228.584,-119.469 251.912,-109.186 274,-104.606 391.067,-80.3321 532.46,-100.231 605.677,-114.08"/>
<polygon fill="midnightblue" stroke="midnightblue" points="209.445,-125.303 202.224,-133.055 212.703,-131.498 209.445,-125.303"/>
</g>
<!-- Node11 -->
<g id="node22" class="node"><title>Node11</title>
<a xlink:href="classServer.xhtml#ae1bb8d3c7c71119bae6dd4205fd6c0cc" target="_top" xlink:title="Sends a message to all clients connected to the Server.">
<polygon fill="white" stroke="black" points="274.5,-36.1062 274.5,-57.1062 377.5,-57.1062 377.5,-36.1062 274.5,-36.1062"/>
<text text-anchor="middle" x="326" y="-44.1062" font-family="FreeSans.ttf" font-size="10.00">Server::Broadcast</text>
</a>
</g>
<!-- Node6&#45;&gt;Node11 -->
<g id="edge22" class="edge"><title>Node6&#45;&gt;Node11</title>
<path fill="none" stroke="midnightblue" d="M203.409,-125.925C221.01,-110.431 248.09,-87.9025 274,-71.6062 282.479,-66.2731 292.269,-61.2918 301.051,-57.2012"/>
<polygon fill="midnightblue" stroke="midnightblue" points="200.712,-123.641 195.577,-132.908 205.37,-128.866 200.712,-123.641"/>
</g>
<!-- Node15 -->
<g id="node35" class="node"><title>Node15</title>
<a xlink:href="classSocketClient.xhtml#a553658a2c076ea71ddcd1758fc64a925" target="_top" xlink:title="Build a SocketClient for a new client connection and set all attributes.">
<polygon fill="white" stroke="black" points="274.5,-192.106 274.5,-213.106 377.5,-213.106 377.5,-192.106 274.5,-192.106"/>
<text text-anchor="middle" x="326" y="-200.106" font-family="FreeSans.ttf" font-size="10.00">SocketClient::New</text>
</a>
</g>
<!-- Node6&#45;&gt;Node15 -->
<g id="edge40" class="edge"><title>Node6&#45;&gt;Node15</title>
<path fill="none" stroke="midnightblue" d="M218.942,-158.124C244.144,-168.595 277.596,-182.495 300.354,-191.951"/>
<polygon fill="midnightblue" stroke="midnightblue" points="219.964,-154.759 209.387,-154.154 217.278,-161.223 219.964,-154.759"/>
</g>
<!-- Node8 -->
<g id="node15" class="node"><title>Node8</title>
<a xlink:href="classServer.xhtml#af7c4b4e6fe763a8f07984365af7640f7" target="_top" xlink:title="Handle SocketClient objects who have not fully logged into the game yet.">
<polygon fill="white" stroke="black" points="415.5,-114.106 415.5,-135.106 532.5,-135.106 532.5,-114.106 415.5,-114.106"/>
<text text-anchor="middle" x="474" y="-122.106" font-family="FreeSans.ttf" font-size="10.00">Server::ProcessLogin</text>
</a>
</g>
<!-- Node7&#45;&gt;Node8 -->
<g id="edge14" class="edge"><title>Node7&#45;&gt;Node8</title>
<path fill="none" stroke="midnightblue" d="M377.277,-124.606C389.541,-124.606 402.727,-124.606 415.297,-124.606"/>
<polygon fill="midnightblue" stroke="midnightblue" points="377.226,-121.106 367.226,-124.606 377.226,-128.106 377.226,-121.106"/>
</g>
<!-- Node8&#45;&gt;Node9 -->
<g id="edge16" class="edge"><title>Node8&#45;&gt;Node9</title>
<path fill="none" stroke="midnightblue" d="M542.958,-124.606C551.772,-124.606 560.875,-124.606 569.907,-124.606"/>
<polygon fill="midnightblue" stroke="midnightblue" points="542.766,-121.106 532.766,-124.606 542.765,-128.106 542.766,-121.106"/>
</g>
<!-- Node10 -->
<g id="node19" class="node"><title>Node10</title>
<a xlink:href="classServer.xhtml#a2b4cec469bb99c2a45e49de5ba74d1ae" target="_top" xlink:title="Processes input from all active SocketClient objects.">
<polygon fill="white" stroke="black" points="776,-134.106 776,-155.106 892,-155.106 892,-134.106 776,-134.106"/>
<text text-anchor="middle" x="834" y="-142.106" font-family="FreeSans.ttf" font-size="10.00">Server::ProcessInput</text>
</a>
</g>
<!-- Node9&#45;&gt;Node10 -->
<g id="edge18" class="edge"><title>Node9&#45;&gt;Node10</title>
<path fill="none" stroke="midnightblue" d="M750.249,-135.249C758.93,-136.219 767.54,-137.18 775.748,-138.098"/>
<polygon fill="midnightblue" stroke="midnightblue" points="750.371,-131.74 740.044,-134.108 749.594,-138.697 750.371,-131.74"/>
</g>
<!-- Node10&#45;&gt;Node4 -->
<g id="edge20" class="edge"><title>Node10&#45;&gt;Node4</title>
<path fill="none" stroke="midnightblue" d="M902.104,-134.807C910.964,-133.532 919.856,-132.253 928.2,-131.052"/>
<polygon fill="midnightblue" stroke="midnightblue" points="901.543,-131.352 892.143,-136.24 902.54,-138.28 901.543,-131.352"/>
</g>
<!-- Node12 -->
<g id="node24" class="node"><title>Node12</title>
<a xlink:href="classServer.xhtml#a9b7082bbc9faca6eb84180f856116762" target="_top" xlink:title="Perform a clean shutdown of the NAMS Server providing a chance to complete disk writes and free all m...">
<polygon fill="white" stroke="black" points="604.5,-36.1062 604.5,-57.1062 705.5,-57.1062 705.5,-36.1062 604.5,-36.1062"/>
<text text-anchor="middle" x="655" y="-44.1062" font-family="FreeSans.ttf" font-size="10.00">Server::Shutdown</text>
</a>
</g>
<!-- Node11&#45;&gt;Node12 -->
<g id="edge24" class="edge"><title>Node11&#45;&gt;Node12</title>
<path fill="none" stroke="midnightblue" d="M387.904,-46.6062C450.506,-46.6062 546.105,-46.6062 604.344,-46.6062"/>
<polygon fill="midnightblue" stroke="midnightblue" points="387.768,-43.1063 377.768,-46.6062 387.768,-50.1063 387.768,-43.1063"/>
</g>
<!-- Node12&#45;&gt;Node4 -->
<g id="edge32" class="edge"><title>Node12&#45;&gt;Node4</title>
<path fill="none" stroke="midnightblue" d="M707.903,-59.5823C770.185,-74.8591 872.418,-99.935 930.032,-114.067"/>
<polygon fill="midnightblue" stroke="midnightblue" points="708.433,-56.1086 697.887,-57.1256 706.765,-62.9071 708.433,-56.1086"/>
</g>
<!-- Node12&#45;&gt;Node5 -->
<g id="edge26" class="edge"><title>Node12&#45;&gt;Node5</title>
<path fill="none" stroke="midnightblue" d="M690.521,-32.3041C714.279,-23.5281 746.482,-13.1322 776,-8.60617 882.64,7.74529 913.298,-1.58824 1018,-27.6062 1030.32,-30.6664 1043.72,-35.3018 1054.44,-39.3398"/>
<polygon fill="midnightblue" stroke="midnightblue" points="689.006,-29.1351 680.889,-35.9441 691.48,-35.6832 689.006,-29.1351"/>
</g>
<!-- Node13 -->
<g id="node27" class="node"><title>Node13</title>
<a xlink:href="classServer.xhtml#a19a1e493e1fb50a56d9c77332543d565" target="_top" xlink:title="Start the NAMS Server. Responsible for calling all critical boot&#45;time functions such as SocketServer ...">
<polygon fill="white" stroke="black" points="928,-37.1062 928,-58.1062 1018,-58.1062 1018,-37.1062 928,-37.1062"/>
<text text-anchor="middle" x="973" y="-45.1062" font-family="FreeSans.ttf" font-size="10.00">Server::Startup</text>
</a>
</g>
<!-- Node12&#45;&gt;Node13 -->
<g id="edge28" class="edge"><title>Node12&#45;&gt;Node13</title>
<path fill="none" stroke="midnightblue" d="M715.783,-47.8072C735.039,-48.135 756.411,-48.4443 776,-48.6062 827.554,-49.0322 840.445,-48.9244 892,-48.6062 903.532,-48.535 915.987,-48.4068 927.59,-48.2654"/>
<polygon fill="midnightblue" stroke="midnightblue" points="715.687,-44.3051 705.628,-47.6294 715.565,-51.304 715.687,-44.3051"/>
</g>
<!-- Node14 -->
<g id="node31" class="node"><title>Node14</title>
<a xlink:href="classSocketServer.xhtml#a72918e73dd56b8986a15678c2cfb5a48" target="_top" xlink:title="Build a socket for a server and set all attributes.">
<polygon fill="white" stroke="black" points="780.5,-18.1062 780.5,-39.1062 887.5,-39.1062 887.5,-18.1062 780.5,-18.1062"/>
<text text-anchor="middle" x="834" y="-26.1062" font-family="FreeSans.ttf" font-size="10.00">SocketServer::New</text>
</a>
</g>
<!-- Node12&#45;&gt;Node14 -->
<g id="edge34" class="edge"><title>Node12&#45;&gt;Node14</title>
<path fill="none" stroke="midnightblue" d="M715.859,-40.4862C736.747,-38.3858 759.962,-36.0514 780.245,-34.0117"/>
<polygon fill="midnightblue" stroke="midnightblue" points="715.415,-37.0132 705.815,-41.4962 716.115,-43.978 715.415,-37.0132"/>
</g>
<!-- Node13&#45;&gt;Node5 -->
<g id="edge30" class="edge"><title>Node13&#45;&gt;Node5</title>
<path fill="none" stroke="midnightblue" d="M1028.2,-47.6062C1037.56,-47.6062 1046.73,-47.6062 1054.43,-47.6062"/>
<polygon fill="midnightblue" stroke="midnightblue" points="1028.04,-44.1063 1018.04,-47.6062 1028.04,-51.1063 1028.04,-44.1063"/>
</g>
<!-- Node14&#45;&gt;Node13 -->
<g id="edge36" class="edge"><title>Node14&#45;&gt;Node13</title>
<path fill="none" stroke="midnightblue" d="M897.83,-37.3312C908.007,-38.7222 918.346,-40.1355 927.968,-41.4507"/>
<polygon fill="midnightblue" stroke="midnightblue" points="898.123,-33.8387 887.741,-35.9521 897.175,-40.7742 898.123,-33.8387"/>
</g>
<!-- Node16 -->
<g id="node37" class="node"><title>Node16</title>
<a xlink:href="classSocketServer.xhtml#afdbc60c3bc840875d2214b59c6213f63" target="_top" xlink:title="Accept a new connection on the listening port.">
<polygon fill="white" stroke="black" points="414,-192.106 414,-213.106 534,-213.106 534,-192.106 414,-192.106"/>
<text text-anchor="middle" x="474" y="-200.106" font-family="FreeSans.ttf" font-size="10.00">SocketServer::Accept</text>
</a>
</g>
<!-- Node15&#45;&gt;Node16 -->
<g id="edge42" class="edge"><title>Node15&#45;&gt;Node16</title>
<path fill="none" stroke="midnightblue" d="M387.774,-202.606C396.415,-202.606 405.286,-202.606 413.896,-202.606"/>
<polygon fill="midnightblue" stroke="midnightblue" points="387.763,-199.106 377.763,-202.606 387.763,-206.106 387.763,-199.106"/>
</g>
<!-- Node16&#45;&gt;Node3 -->
<g id="edge44" class="edge"><title>Node16&#45;&gt;Node3</title>
<path fill="none" stroke="midnightblue" d="M544.219,-198.727C562.843,-197.698 582.673,-196.602 600.333,-195.626"/>
<polygon fill="midnightblue" stroke="midnightblue" points="543.811,-195.244 534.019,-199.29 544.197,-202.233 543.811,-195.244"/>
</g>
</g>
</svg>
        <g id="navigator" transform="translate(0 0)" fill="#404254">
                <rect fill="#f2f5e9" fill-opacity="0.5" stroke="#606060" stroke-width=".5" x="0" y="0" width="60" height="60"/>
                <use id="zoomplus" xlink:href="#zoomPlus" x="17" y="9" onmousedown="handleZoom(evt,'in')"/>
                <use id="zoomminus" xlink:href="#zoomMin" x="42" y="9" onmousedown="handleZoom(evt,'out')"/>
                <use id="reset" xlink:href="#resetDef" x="30" y="36" onmousedown="handleReset()"/>
                <g id="arrowUp" xlink:href="#dirArrow" transform="translate(30 24)" onmousedown="handlePan(0,-1)">
                  <use xlink:href="#rim" fill="#404040">
                        <set attributeName="fill" to="#808080" begin="arrowUp.mouseover" end="arrowUp.mouseout"/>
                  </use>
                  <path fill="none" stroke="white" stroke-width="1.5" d="M0,-3.0v7 M-2.5,-0.5L0,-3.0L2.5,-0.5"/>
                </g>
                <g id="arrowRight" xlink:href="#dirArrow" transform="rotate(90) translate(36 -43)" onmousedown="handlePan(1,0)">
                  <use xlink:href="#rim" fill="#404040">
                        <set attributeName="fill" to="#808080" begin="arrowRight.mouseover" end="arrowRight.mouseout"/>
                  </use>
                  <path fill="none" stroke="white" stroke-width="1.5" d="M0,-3.0v7 M-2.5,-0.5L0,-3.0L2.5,-0.5"/>
                </g>
                <g id="arrowDown" xlink:href="#dirArrow" transform="rotate(180) translate(-30 -48)" onmousedown="handlePan(0,1)">
                  <use xlink:href="#rim" fill="#404040">
                        <set attributeName="fill" to="#808080" begin="arrowDown.mouseover" end="arrowDown.mouseout"/>
                  </use>
                  <path fill="none" stroke="white" stroke-width="1.5" d="M0,-3.0v7 M-2.5,-0.5L0,-3.0L2.5,-0.5"/>
                </g>
                <g id="arrowLeft" xlink:href="#dirArrow" transform="rotate(270) translate(-36 17)" onmousedown="handlePan(-1,0)">
                  <use xlink:href="#rim" fill="#404040">
                        <set attributeName="fill" to="#808080" begin="arrowLeft.mouseover" end="arrowLeft.mouseout"/>
                  </use>
                  <path fill="none" stroke="white" stroke-width="1.5" d="M0,-3.0v7 M-2.5,-0.5L0,-3.0L2.5,-0.5"/>
                </g>
        </g>
</svg>
