<?xml version="1.0" encoding="UTF-8" standalone="no"?>
<!DOCTYPE svg PUBLIC "-//W3C//DTD SVG 1.1//EN"
 "http://www.w3.org/Graphics/SVG/1.1/DTD/svg11.dtd">
<!-- Generated by graphviz version 2.26.3 (20100126.1600)
 -->
<!-- Title: G Pages: 1 -->
<svg width="336pt" height="30pt"
 viewBox="0.00 0.00 336.00 30.00" xmlns="http://www.w3.org/2000/svg" xmlns:xlink="http://www.w3.org/1999/xlink">
<g id="graph1" class="graph" transform="scale(1 1) rotate(0) translate(4 26)">
<title>G</title>
<polygon fill="white" stroke="white" points="-4,5 -4,-26 333,-26 333,5 -4,5"/>
<!-- Node1 -->
<g id="node1" class="node"><title>Node1</title>
<polygon fill="#bfbfbf" stroke="black" points="0,-0.5 0,-21.5 124,-21.5 124,-0.5 0,-0.5"/>
<text text-anchor="middle" x="62" y="-8.5" font-family="FreeSans.ttf" font-size="10.00">Server::ProcessEvents</text>
</g>
<!-- Node2 -->
<g id="node3" class="node"><title>Node2</title>
<a xlink:href="classServer.xhtml#a50b81aa91d8fdaee6f52c5c5ec987990" target="_top" xlink:title="The core update loop of NAMS. This loop spawns all other subsystem update routines and then sleeps fo...">
<polygon fill="white" stroke="black" points="160.5,-0.5 160.5,-21.5 249.5,-21.5 249.5,-0.5 160.5,-0.5"/>
<text text-anchor="middle" x="205" y="-8.5" font-family="FreeSans.ttf" font-size="10.00">Server::Update</text>
</a>
</g>
<!-- Node1&#45;&gt;Node2 -->
<g id="edge2" class="edge"><title>Node1&#45;&gt;Node2</title>
<path fill="none" stroke="midnightblue" d="M134.52,-11C143.239,-11 151.937,-11 160.097,-11"/>
<polygon fill="midnightblue" stroke="midnightblue" points="134.306,-7.5001 124.306,-11 134.306,-14.5001 134.306,-7.5001"/>
</g>
<!-- Node3 -->
<g id="node5" class="node"><title>Node3</title>
<a xlink:href="main_8cpp.xhtml#ad53223b8779f25caeddb70a3b9172967" target="_top" xlink:title="The default function required to execute the server.">
<polygon fill="white" stroke="black" points="286.5,-0.5 286.5,-21.5 327.5,-21.5 327.5,-0.5 286.5,-0.5"/>
<text text-anchor="middle" x="307" y="-8.5" font-family="FreeSans.ttf" font-size="10.00">main</text>
</a>
</g>
<!-- Node2&#45;&gt;Node3 -->
<g id="edge4" class="edge"><title>Node2&#45;&gt;Node3</title>
<path fill="none" stroke="midnightblue" d="M259.942,-11C269.336,-11 278.55,-11 286.3,-11"/>
<polygon fill="midnightblue" stroke="midnightblue" points="259.739,-7.5001 249.739,-11 259.739,-14.5001 259.739,-7.5001"/>
</g>
</g>
</svg>
