<?xml version="1.0" encoding="UTF-8" standalone="no"?>
<!DOCTYPE svg PUBLIC "-//W3C//DTD SVG 1.1//EN"
 "http://www.w3.org/Graphics/SVG/1.1/DTD/svg11.dtd">
<!-- Generated by graphviz version 2.26.3 (20100126.1600)
 -->
<!-- Title: SocketServer::Delete Pages: 1 -->
<svg width="316pt" height="104pt"
 viewBox="0.00 0.00 316.00 104.00" xmlns="http://www.w3.org/2000/svg" xmlns:xlink="http://www.w3.org/1999/xlink">
<g id="graph1" class="graph" transform="scale(1 1) rotate(0) translate(4 100)">
<title>SocketServer::Delete</title>
<polygon fill="white" stroke="white" points="-4,5 -4,-100 313,-100 313,5 -4,5"/>
<!-- Node1 -->
<g id="node1" class="node"><title>Node1</title>
<polygon fill="#bfbfbf" stroke="black" points="0.5,-38 0.5,-58 119.5,-58 119.5,-38 0.5,-38"/>
<text text-anchor="middle" x="60" y="-45" font-family="FreeSans.ttf" font-size="10.00">SocketServer::Delete</text>
</g>
<!-- Node2 -->
<g id="node3" class="node"><title>Node2</title>
<a xlink:href="classSocket.xhtml#a508457b48e6296d1e86c7cc72af65948" target="_top" xlink:title="Return if the Socket is valid for use.">
<polygon fill="white" stroke="black" points="193,-76 193,-96 271,-96 271,-76 193,-76"/>
<text text-anchor="middle" x="232" y="-83" font-family="FreeSans.ttf" font-size="10.00">Socket::Valid</text>
</a>
</g>
<!-- Node1&#45;&gt;Node2 -->
<g id="edge2" class="edge"><title>Node1&#45;&gt;Node2</title>
<path fill="none" stroke="midnightblue" d="M105.641,-58.0835C129.415,-63.3358 158.51,-69.7638 182.786,-75.1271"/>
<polygon fill="midnightblue" stroke="midnightblue" points="182.346,-78.6142 192.865,-77.354 183.856,-71.7791 182.346,-78.6142"/>
</g>
<!-- Node3 -->
<g id="node5" class="node"><title>Node3</title>
<a xlink:href="classServer_1_1Stats.xhtml#a9e9cff0e2ed046f840c5393d27016e60" target="_top" xlink:title="Set the amount of subordinate SocketClient and SocketServer objects that have been closed on a NAMS S...">
<polygon fill="white" stroke="black" points="157,-38 157,-58 307,-58 307,-38 157,-38"/>
<text text-anchor="middle" x="232" y="-45" font-family="FreeSans.ttf" font-size="10.00">Server::Stats::sSocketClose</text>
</a>
</g>
<!-- Node1&#45;&gt;Node3 -->
<g id="edge4" class="edge"><title>Node1&#45;&gt;Node3</title>
<path fill="none" stroke="midnightblue" d="M119.675,-48C128.416,-48 137.559,-48 146.692,-48"/>
<polygon fill="midnightblue" stroke="midnightblue" points="146.977,-51.5001 156.977,-48 146.977,-44.5001 146.977,-51.5001"/>
</g>
<!-- Node4 -->
<g id="node7" class="node"><title>Node4</title>
<a xlink:href="classServer_1_1Stats.xhtml#ab8b67dac3edf34148bfbc4059fca8b97" target="_top" xlink:title="Returns the combined number of SocketClient and SocketServer objects that have been destroyed...">
<polygon fill="white" stroke="black" points="156.5,-0 156.5,-20 307.5,-20 307.5,-0 156.5,-0"/>
<text text-anchor="middle" x="232" y="-7" font-family="FreeSans.ttf" font-size="10.00">Server::Stats::gSocketClose</text>
</a>
</g>
<!-- Node1&#45;&gt;Node4 -->
<g id="edge6" class="edge"><title>Node1&#45;&gt;Node4</title>
<path fill="none" stroke="midnightblue" d="M105.641,-37.9165C127.401,-33.109 153.62,-27.3165 176.521,-22.2571"/>
<polygon fill="midnightblue" stroke="midnightblue" points="177.435,-25.6396 186.444,-20.0647 175.925,-18.8044 177.435,-25.6396"/>
</g>
</g>
</svg>
