<?xml version="1.0" encoding="UTF-8" standalone="no"?>
<!DOCTYPE svg PUBLIC "-//W3C//DTD SVG 1.1//EN"
 "http://www.w3.org/Graphics/SVG/1.1/DTD/svg11.dtd">
<!-- Generated by graphviz version 2.26.3 (20100126.1600)
 -->
<!-- Title: Character::Delete Pages: 1 -->
<!--zoomable 654 -->
<svg id="main" version="1.1" xmlns="http://www.w3.org/2000/svg" xmlns:xlink="http://www.w3.org/1999/xlink" xml:space="preserve" onload="init(evt)">
        <defs>
                <circle id="rim" cx="0" cy="0" r="7"/>
                <circle id="rim2" cx="0" cy="0" r="3.5"/>
                <g id="zoomPlus">
                        <use xlink:href="#rim" fill="#404040">
                                <set attributeName="fill" to="#808080" begin="zoomplus.mouseover" end="zoomplus.mouseout"/>
                        </use>
                        <path d="M-4,0h8M0,-4v8" fill="none" stroke="white" stroke-width="1.5" pointer-events="none"/>
                </g>
                <g id="zoomMin">
                        <use xlink:href="#rim" fill="#404040">
                                <set attributeName="fill" to="#808080" begin="zoomminus.mouseover" end="zoomminus.mouseout"/>
                        </use>
                        <path d="M-4,0h8" fill="none" stroke="white" stroke-width="1.5" pointer-events="none"/>
                </g>
                <g id="dirArrow">
                        <path fill="none" stroke="white" stroke-width="1.5" d="M0,-3.0v7 M-2.5,-0.5L0,-3.0L2.5,-0.5"/>
                </g>
               <g id="resetDef">
                       <use xlink:href="#rim2" fill="#404040">
                               <set attributeName="fill" to="#808080" begin="reset.mouseover" end="reset.mouseout"/>
                       </use>
               </g>
        </defs>

<script type="text/javascript">
var viewWidth = 1300;
var viewHeight = 654;
var sectionId = 'dynsection-5';
</script>
<script xlink:href="svgpan.js"/>
<svg id="graph" class="graph">
<g id="viewport">
<title>Character::Delete</title>
<polygon fill="white" stroke="white" points="-4,5 -4,-649.927 1297,-649.927 1297,5 -4,5"/>
<!-- Node1 -->
<g id="node1" class="node"><title>Node1</title>
<polygon fill="#bfbfbf" stroke="black" points="0.5,-365.927 0.5,-385.927 101.5,-385.927 101.5,-365.927 0.5,-365.927"/>
<text text-anchor="middle" x="51" y="-372.927" font-family="FreeSans.ttf" font-size="10.00">Character::Delete</text>
</g>
<!-- Node2 -->
<g id="node3" class="node"><title>Node2</title>
<a xlink:href="classAccount.xhtml#aa82e62e930fb3a8ac58a4592f323db75" target="_top" xlink:title="Unload an account from memory that was previously loaded via Account::New().">
<polygon fill="white" stroke="black" points="138.5,-335.927 138.5,-355.927 231.5,-355.927 231.5,-335.927 138.5,-335.927"/>
<text text-anchor="middle" x="185" y="-342.927" font-family="FreeSans.ttf" font-size="10.00">Account::Delete</text>
</a>
</g>
<!-- Node1&#45;&gt;Node2 -->
<g id="edge2" class="edge"><title>Node1&#45;&gt;Node2</title>
<path fill="none" stroke="midnightblue" d="M105.797,-363.659C117.135,-361.121 128.954,-358.475 139.898,-356.025"/>
<polygon fill="midnightblue" stroke="midnightblue" points="104.987,-360.254 95.9928,-365.854 106.516,-367.085 104.987,-360.254"/>
</g>
<!-- Node5 -->
<g id="node10" class="node"><title>Node5</title>
<a xlink:href="namespaceHandler.xhtml#a2e4ebf6ed049eb872aa4948d54c4932c" target="_top" xlink:title="Attempt to write a new character to disk after creation was completed.">
<polygon fill="white" stroke="black" points="616.5,-625.927 616.5,-645.927 755.5,-645.927 755.5,-625.927 616.5,-625.927"/>
<text text-anchor="middle" x="686" y="-632.927" font-family="FreeSans.ttf" font-size="10.00">Handler::AttachCharacter</text>
</a>
</g>
<!-- Node1&#45;&gt;Node5 -->
<g id="edge92" class="edge"><title>Node1&#45;&gt;Node5</title>
<path fill="none" stroke="midnightblue" d="M70.8174,-392.723C87.8534,-406.603 113.483,-426.192 138,-439.927 211.215,-480.946 481.163,-583.314 596,-616.927 607.495,-620.292 619.979,-623.316 631.887,-625.91"/>
<polygon fill="midnightblue" stroke="midnightblue" points="72.6802,-389.721 62.7434,-386.046 68.2192,-395.116 72.6802,-389.721"/>
</g>
<!-- Node7 -->
<g id="node16" class="node"><title>Node7</title>
<a xlink:href="namespaceHandler.xhtml#ad04998a7a6ece2486bc441052a57c2d7" target="_top" xlink:title="Main Character creation menu.">
<polygon fill="white" stroke="black" points="616,-575.927 616,-607.927 756,-607.927 756,-575.927 616,-575.927"/>
<text text-anchor="start" x="624" y="-594.927" font-family="FreeSans.ttf" font-size="10.00">Handler::CharacterCreate</text>
<text text-anchor="middle" x="686" y="-582.927" font-family="FreeSans.ttf" font-size="10.00">MenuMain</text>
</a>
</g>
<!-- Node1&#45;&gt;Node7 -->
<g id="edge94" class="edge"><title>Node1&#45;&gt;Node7</title>
<path fill="none" stroke="midnightblue" d="M87.1449,-389.528C174.141,-422.058 402.333,-506.166 596,-566.927 605.593,-569.937 615.819,-572.956 625.807,-575.802"/>
<polygon fill="midnightblue" stroke="midnightblue" points="88.3182,-386.23 77.7258,-386.001 85.8634,-392.786 88.3182,-386.23"/>
</g>
<!-- Node8 -->
<g id="node19" class="node"><title>Node8</title>
<a xlink:href="namespaceHandler.xhtml#ab5889a65de2794129b375ec39ae923ae" target="_top" xlink:title="Select a new Character name.">
<polygon fill="white" stroke="black" points="601.5,-537.927 601.5,-557.927 770.5,-557.927 770.5,-537.927 601.5,-537.927"/>
<text text-anchor="middle" x="686" y="-544.927" font-family="FreeSans.ttf" font-size="10.00">Handler::CharacterCreateName</text>
</a>
</g>
<!-- Node1&#45;&gt;Node8 -->
<g id="edge96" class="edge"><title>Node1&#45;&gt;Node8</title>
<path fill="none" stroke="midnightblue" d="M111.877,-374.127C213.163,-373.999 419.056,-386.198 560,-477.927 583.254,-493.062 572.824,-513.674 596,-528.927 601.469,-532.527 607.495,-535.461 613.759,-537.85"/>
<polygon fill="midnightblue" stroke="midnightblue" points="111.8,-370.627 101.819,-374.181 111.838,-377.627 111.8,-370.627"/>
</g>
<!-- Node16 -->
<g id="node43" class="node"><title>Node16</title>
<a xlink:href="namespaceHandler.xhtml#ae70e4e50054c729c14493eafefe01b5c" target="_top" xlink:title="Load a character from the account to enter into the game with.">
<polygon fill="white" stroke="black" points="620.5,-19.9274 620.5,-39.9274 751.5,-39.9274 751.5,-19.9274 620.5,-19.9274"/>
<text text-anchor="middle" x="686" y="-26.9274" font-family="FreeSans.ttf" font-size="10.00">Handler::LoadCharacter</text>
</a>
</g>
<!-- Node1&#45;&gt;Node16 -->
<g id="edge98" class="edge"><title>Node1&#45;&gt;Node16</title>
<path fill="none" stroke="midnightblue" d="M72.1188,-359.63C142.314,-306.287 375.868,-135.383 596,-48.9274 605.067,-45.3664 614.923,-42.4236 624.677,-40.0066"/>
<polygon fill="midnightblue" stroke="midnightblue" points="69.8453,-356.963 64.0223,-365.814 74.094,-362.526 69.8453,-356.963"/>
</g>
<!-- Node28 -->
<g id="node78" class="node"><title>Node28</title>
<a xlink:href="namespaceServer.xhtml#a04744ab6fef0eabc2a6c30d111b9074f" target="_top" xlink:title="Search all subfolders of CFG_DAT_DIR_WORLD and call Character::New() to load each file found to memor...">
<polygon fill="white" stroke="black" points="282.5,-8.92743 282.5,-28.9274 385.5,-28.9274 385.5,-8.92743 282.5,-8.92743"/>
<text text-anchor="middle" x="334" y="-15.9274" font-family="FreeSans.ttf" font-size="10.00">Server::LoadNPCs</text>
</a>
</g>
<!-- Node1&#45;&gt;Node28 -->
<g id="edge100" class="edge"><title>Node1&#45;&gt;Node28</title>
<path fill="none" stroke="midnightblue" d="M59.2034,-356.425C72.9664,-324.851 102.696,-261.305 138,-213.927 197.082,-134.64 287.993,-56.6889 321.252,-29.2639"/>
<polygon fill="midnightblue" stroke="midnightblue" points="55.8915,-355.267 55.163,-365.837 62.3239,-358.028 55.8915,-355.267"/>
</g>
<!-- Node3 -->
<g id="node5" class="node"><title>Node3</title>
<a xlink:href="namespaceHandler.xhtml#a33a19d69ead678af81fbe96907eceaf0" target="_top" xlink:title="Create a new account object, or load an existing one, with a name and password.">
<polygon fill="white" stroke="black" points="268.5,-335.927 268.5,-355.927 399.5,-355.927 399.5,-335.927 268.5,-335.927"/>
<text text-anchor="middle" x="334" y="-342.927" font-family="FreeSans.ttf" font-size="10.00">Handler::AttachAccount</text>
</a>
</g>
<!-- Node2&#45;&gt;Node3 -->
<g id="edge4" class="edge"><title>Node2&#45;&gt;Node3</title>
<path fill="none" stroke="midnightblue" d="M241.747,-345.927C250.436,-345.927 259.466,-345.927 268.328,-345.927"/>
<polygon fill="midnightblue" stroke="midnightblue" points="241.736,-342.428 231.736,-345.927 241.736,-349.428 241.736,-342.428"/>
</g>
<!-- Node27 -->
<g id="node69" class="node"><title>Node27</title>
<a xlink:href="classSocketClient.xhtml#af09328648d18ae943c8866cf744e5aad" target="_top" xlink:title="Unload a client&#39;s socket from memory that was previously loaded via SocketClient::New().">
<polygon fill="white" stroke="black" points="629,-95.9274 629,-115.927 743,-115.927 743,-95.9274 629,-95.9274"/>
<text text-anchor="middle" x="686" y="-102.927" font-family="FreeSans.ttf" font-size="10.00">SocketClient::Delete</text>
</a>
</g>
<!-- Node2&#45;&gt;Node27 -->
<g id="edge84" class="edge"><title>Node2&#45;&gt;Node27</title>
<path fill="none" stroke="midnightblue" d="M235.159,-333.375C334.58,-308.31 548.132,-253.468 560,-241.927 599.005,-203.998 555.829,-161.62 596,-124.927 605.079,-116.634 616.839,-111.611 628.845,-108.641"/>
<polygon fill="midnightblue" stroke="midnightblue" points="234.175,-330.014 225.332,-335.849 235.884,-336.802 234.175,-330.014"/>
</g>
<!-- Node4 -->
<g id="node7" class="node"><title>Node4</title>
<a xlink:href="namespaceHandler.xhtml#a139febc000c9d767a620708148e0c888" target="_top" xlink:title="Dispatches the appropriate menu based on client state.">
<polygon fill="white" stroke="black" points="436.5,-335.927 436.5,-355.927 559.5,-355.927 559.5,-335.927 436.5,-335.927"/>
<text text-anchor="middle" x="498" y="-342.927" font-family="FreeSans.ttf" font-size="10.00">Handler::LoginHandler</text>
</a>
</g>
<!-- Node3&#45;&gt;Node4 -->
<g id="edge6" class="edge"><title>Node3&#45;&gt;Node4</title>
<path fill="none" stroke="midnightblue" d="M409.79,-339.195C418.73,-339.145 427.77,-339.203 436.48,-339.368"/>
<polygon fill="midnightblue" stroke="midnightblue" points="409.724,-335.695 399.76,-339.296 409.795,-342.695 409.724,-335.695"/>
</g>
<!-- Node4&#45;&gt;Node3 -->
<g id="edge8" class="edge"><title>Node4&#45;&gt;Node3</title>
<path fill="none" stroke="midnightblue" d="M426.242,-352.63C417.436,-352.712 408.471,-352.688 399.76,-352.558"/>
<polygon fill="midnightblue" stroke="midnightblue" points="426.531,-356.127 436.48,-352.487 426.432,-349.127 426.531,-356.127"/>
</g>
<!-- Node4&#45;&gt;Node5 -->
<g id="edge10" class="edge"><title>Node4&#45;&gt;Node5</title>
<path fill="none" stroke="midnightblue" d="M499.269,-366.106C503.414,-415.669 521.059,-542.737 596,-607.927 607.205,-617.675 622.147,-622.848 636.631,-625.915"/>
<polygon fill="midnightblue" stroke="midnightblue" points="502.75,-365.716 498.525,-356 495.769,-366.23 502.75,-365.716"/>
</g>
<!-- Node6 -->
<g id="node13" class="node"><title>Node6</title>
<a xlink:href="namespaceHandler.xhtml#a73ed6064f2698dbffb5f4c247a02b661" target="_top" xlink:title="Send initial account interface menu.">
<polygon fill="white" stroke="black" points="612,-133.927 612,-153.927 760,-153.927 760,-133.927 612,-133.927"/>
<text text-anchor="middle" x="686" y="-140.927" font-family="FreeSans.ttf" font-size="10.00">Handler::AccountMenuMain</text>
</a>
</g>
<!-- Node4&#45;&gt;Node6 -->
<g id="edge14" class="edge"><title>Node4&#45;&gt;Node6</title>
<path fill="none" stroke="midnightblue" d="M518.294,-330.806C532.056,-323.179 549.575,-313.161 560,-298.927 599.235,-245.358 548.226,-200.044 596,-153.927 600.596,-149.491 605.953,-145.977 611.721,-143.24"/>
<polygon fill="midnightblue" stroke="midnightblue" points="516.518,-327.789 509.501,-335.727 519.937,-333.897 516.518,-327.789"/>
</g>
<!-- Node4&#45;&gt;Node7 -->
<g id="edge18" class="edge"><title>Node4&#45;&gt;Node7</title>
<path fill="none" stroke="midnightblue" d="M510.576,-364.847C523.41,-389.078 543.703,-431.608 560,-468.927 577.076,-508.03 564.167,-529.515 596,-557.927 605.316,-566.242 617.17,-571.817 629.192,-575.792"/>
<polygon fill="midnightblue" stroke="midnightblue" points="513.58,-363.046 505.726,-355.936 507.432,-366.393 513.58,-363.046"/>
</g>
<!-- Node4&#45;&gt;Node8 -->
<g id="edge22" class="edge"><title>Node4&#45;&gt;Node8</title>
<path fill="none" stroke="midnightblue" d="M539.195,-362.184C547.021,-368.308 554.477,-375.688 560,-383.927 594.811,-435.867 550.68,-476.85 596,-519.927 606.07,-529.499 619.69,-534.76 633.284,-537.887"/>
<polygon fill="midnightblue" stroke="midnightblue" points="540.8,-359.029 530.632,-356.052 536.725,-364.72 540.8,-359.029"/>
</g>
<!-- Node9 -->
<g id="node22" class="node"><title>Node9</title>
<a xlink:href="namespaceHandler.xhtml#ae5086bcf5857eb572beedd09158c3065" target="_top" xlink:title="Select a new Character sex.">
<polygon fill="white" stroke="black" points="607,-499.927 607,-519.927 765,-519.927 765,-499.927 607,-499.927"/>
<text text-anchor="middle" x="686" y="-506.927" font-family="FreeSans.ttf" font-size="10.00">Handler::CharacterCreateSex</text>
</a>
</g>
<!-- Node4&#45;&gt;Node9 -->
<g id="edge26" class="edge"><title>Node4&#45;&gt;Node9</title>
<path fill="none" stroke="midnightblue" d="M537.633,-361.834C545.844,-368.083 553.853,-375.622 560,-383.927 587.603,-421.226 560.914,-451.562 596,-481.927 607.23,-491.646 622.178,-496.811 636.661,-499.88"/>
<polygon fill="midnightblue" stroke="midnightblue" points="539.606,-358.943 529.418,-356.036 535.57,-364.662 539.606,-358.943"/>
</g>
<!-- Node10 -->
<g id="node25" class="node"><title>Node10</title>
<a xlink:href="namespaceHandler.xhtml#a97a198bfc72285b2aca4f36978db715e" target="_top" xlink:title="Main Character deletion confirmation.">
<polygon fill="white" stroke="black" points="616.5,-449.927 616.5,-481.927 755.5,-481.927 755.5,-449.927 616.5,-449.927"/>
<text text-anchor="start" x="624.5" y="-468.927" font-family="FreeSans.ttf" font-size="10.00">Handler::CharacterDelete</text>
<text text-anchor="middle" x="686" y="-456.927" font-family="FreeSans.ttf" font-size="10.00">Confirm</text>
</a>
</g>
<!-- Node4&#45;&gt;Node10 -->
<g id="edge30" class="edge"><title>Node4&#45;&gt;Node10</title>
<path fill="none" stroke="midnightblue" d="M533.97,-361.822C542.885,-368.319 552.131,-376.018 560,-383.927 578.808,-402.832 573.978,-416.89 596,-431.927 608.053,-440.158 622.755,-445.691 636.753,-449.797"/>
<polygon fill="midnightblue" stroke="midnightblue" points="535.79,-358.824 525.58,-355.992 531.795,-364.572 535.79,-358.824"/>
</g>
<!-- Node11 -->
<g id="node28" class="node"><title>Node11</title>
<a xlink:href="namespaceHandler.xhtml#afc470ec6e82b7a9a1560588a368734f9" target="_top" xlink:title="Main Character deletion menu.">
<polygon fill="white" stroke="black" points="616.5,-399.927 616.5,-431.927 755.5,-431.927 755.5,-399.927 616.5,-399.927"/>
<text text-anchor="start" x="624.5" y="-418.927" font-family="FreeSans.ttf" font-size="10.00">Handler::CharacterDelete</text>
<text text-anchor="middle" x="686" y="-406.927" font-family="FreeSans.ttf" font-size="10.00">MenuMain</text>
</a>
</g>
<!-- Node4&#45;&gt;Node11 -->
<g id="edge34" class="edge"><title>Node4&#45;&gt;Node11</title>
<path fill="none" stroke="midnightblue" d="M543.492,-360.176C559.815,-367.308 578.51,-375.529 596,-381.927 614.275,-388.613 635.193,-394.524 652.26,-399.845"/>
<polygon fill="midnightblue" stroke="midnightblue" points="544.749,-356.906 534.183,-356.124 541.955,-363.324 544.749,-356.906"/>
</g>
<!-- Node12 -->
<g id="node31" class="node"><title>Node12</title>
<a xlink:href="namespaceHandler.xhtml#a02b1b954749641ab646f6548a5360d3b" target="_top" xlink:title="Main Character load menu.">
<polygon fill="white" stroke="black" points="596.5,-361.927 596.5,-381.927 775.5,-381.927 775.5,-361.927 596.5,-361.927"/>
<text text-anchor="middle" x="686" y="-368.927" font-family="FreeSans.ttf" font-size="10.00">Handler::CharacterLoadMenuMain</text>
</a>
</g>
<!-- Node4&#45;&gt;Node12 -->
<g id="edge38" class="edge"><title>Node4&#45;&gt;Node12</title>
<path fill="none" stroke="midnightblue" d="M569.812,-349.279C598.046,-352.743 629.113,-357.454 652.012,-361.89"/>
<polygon fill="midnightblue" stroke="midnightblue" points="569.901,-345.765 559.558,-348.062 569.076,-352.716 569.901,-345.765"/>
</g>
<!-- Node13 -->
<g id="node34" class="node"><title>Node13</title>
<a xlink:href="namespaceHandler.xhtml#a00bc24564bfd267e0329643c569da1e4" target="_top" xlink:title="Select a new account name.">
<polygon fill="white" stroke="black" points="617.5,-323.927 617.5,-343.927 754.5,-343.927 754.5,-323.927 617.5,-323.927"/>
<text text-anchor="middle" x="686" y="-330.927" font-family="FreeSans.ttf" font-size="10.00">Handler::GetNewAccount</text>
</a>
</g>
<!-- Node4&#45;&gt;Node13 -->
<g id="edge42" class="edge"><title>Node4&#45;&gt;Node13</title>
<path fill="none" stroke="midnightblue" d="M566.34,-335.044C582.901,-333.685 600.613,-332.551 617.196,-331.789"/>
<polygon fill="midnightblue" stroke="midnightblue" points="565.859,-331.572 556.197,-335.918 566.461,-338.546 565.859,-331.572"/>
</g>
<!-- Node14 -->
<g id="node37" class="node"><title>Node14</title>
<a xlink:href="namespaceHandler.xhtml#a744adadcf407cdb3a9c33365afd5a7c2" target="_top" xlink:title="Create a new account.">
<polygon fill="white" stroke="black" points="615,-247.927 615,-267.927 757,-267.927 757,-247.927 615,-247.927"/>
<text text-anchor="middle" x="686" y="-254.927" font-family="FreeSans.ttf" font-size="10.00">Handler::GetNewPassword</text>
</a>
</g>
<!-- Node4&#45;&gt;Node14 -->
<g id="edge46" class="edge"><title>Node4&#45;&gt;Node14</title>
<path fill="none" stroke="midnightblue" d="M514.138,-329.68C526.926,-320.691 545.064,-309.826 560,-298.927 577.056,-286.481 577.075,-277.291 596,-267.927 601.868,-265.024 608.166,-262.563 614.604,-260.514"/>
<polygon fill="midnightblue" stroke="midnightblue" points="511.791,-327.065 505.894,-335.867 515.993,-332.664 511.791,-327.065"/>
</g>
<!-- Node15 -->
<g id="node40" class="node"><title>Node15</title>
<a xlink:href="namespaceHandler.xhtml#adfe13cc9748392348f3941656a1323b6" target="_top" xlink:title="Compare a received password against an existing account.">
<polygon fill="white" stroke="black" points="617.5,-209.927 617.5,-229.927 754.5,-229.927 754.5,-209.927 617.5,-209.927"/>
<text text-anchor="middle" x="686" y="-216.927" font-family="FreeSans.ttf" font-size="10.00">Handler::GetOldPassword</text>
</a>
</g>
<!-- Node4&#45;&gt;Node15 -->
<g id="edge50" class="edge"><title>Node4&#45;&gt;Node15</title>
<path fill="none" stroke="midnightblue" d="M516.764,-330.301C530.124,-322.237 547.8,-311.999 560,-298.927 583.601,-273.64 568.442,-250.833 596,-229.927 602.361,-225.102 609.671,-221.436 617.316,-218.729"/>
<polygon fill="midnightblue" stroke="midnightblue" points="514.576,-327.54 507.938,-335.797 518.277,-333.482 514.576,-327.54"/>
</g>
<!-- Node4&#45;&gt;Node16 -->
<g id="edge54" class="edge"><title>Node4&#45;&gt;Node16</title>
<path fill="none" stroke="midnightblue" d="M507.743,-327.156C521.568,-305.133 546.677,-268.217 560,-232.927 590.82,-151.294 535.034,-102.353 596,-39.9274 602.695,-33.0726 611.195,-28.3872 620.287,-25.3468"/>
<polygon fill="midnightblue" stroke="midnightblue" points="504.63,-325.539 502.421,-335.901 510.61,-329.178 504.63,-325.539"/>
</g>
<!-- Node17 -->
<g id="node46" class="node"><title>Node17</title>
<a xlink:href="namespaceHandler.xhtml#a44b41bf69fdc6e615a029bea34910191" target="_top" xlink:title="Send initial greeting and request for account name.">
<polygon fill="white" stroke="black" points="626.5,-171.927 626.5,-191.927 745.5,-191.927 745.5,-171.927 626.5,-171.927"/>
<text text-anchor="middle" x="686" y="-178.927" font-family="FreeSans.ttf" font-size="10.00">Handler::LoginScreen</text>
</a>
</g>
<!-- Node4&#45;&gt;Node17 -->
<g id="edge58" class="edge"><title>Node4&#45;&gt;Node17</title>
<path fill="none" stroke="midnightblue" d="M517.47,-330.806C531.132,-323.017 548.878,-312.887 560,-298.927 591.266,-259.685 558.516,-225.281 596,-191.927 604.47,-184.39 615.165,-179.573 626.199,-176.737"/>
<polygon fill="midnightblue" stroke="midnightblue" points="515.686,-327.795 508.795,-335.843 519.201,-333.848 515.686,-327.795"/>
</g>
<!-- Node18 -->
<g id="node49" class="node"><title>Node18</title>
<a xlink:href="classSocketClient.xhtml#a8399ef20292e9f3ec83b5c4bec2e105b" target="_top" xlink:title="Build a SocketClient for a new client connection and set all attributes.">
<polygon fill="white" stroke="black" points="634.5,-57.9274 634.5,-77.9274 737.5,-77.9274 737.5,-57.9274 634.5,-57.9274"/>
<text text-anchor="middle" x="686" y="-64.9274" font-family="FreeSans.ttf" font-size="10.00">SocketClient::New</text>
</a>
</g>
<!-- Node4&#45;&gt;Node18 -->
<g id="edge62" class="edge"><title>Node4&#45;&gt;Node18</title>
<path fill="none" stroke="midnightblue" d="M511.302,-327.639C525.325,-307.551 547.128,-273.885 560,-241.927 586.423,-176.326 545.49,-136.429 596,-86.9274 606.265,-76.8675 620.436,-71.5326 634.498,-68.8439"/>
<polygon fill="midnightblue" stroke="midnightblue" points="508.402,-325.678 505.467,-335.858 514.11,-329.73 508.402,-325.678"/>
</g>
<!-- Node25 -->
<g id="node64" class="node"><title>Node25</title>
<a xlink:href="classSocketClient.xhtml#ad4f63c7d906310dc56a1217136047d7f" target="_top" xlink:title="Interpret the command at the front of the queue.">
<polygon fill="white" stroke="black" points="601,-285.927 601,-305.927 771,-305.927 771,-285.927 601,-285.927"/>
<text text-anchor="middle" x="686" y="-292.927" font-family="FreeSans.ttf" font-size="10.00">SocketClient::ProcessCommand</text>
</a>
</g>
<!-- Node4&#45;&gt;Node25 -->
<g id="edge78" class="edge"><title>Node4&#45;&gt;Node25</title>
<path fill="none" stroke="midnightblue" d="M536.891,-332.657C554.776,-326.805 576.342,-320.098 596,-314.927 608.201,-311.718 621.442,-308.68 633.92,-306.014"/>
<polygon fill="midnightblue" stroke="midnightblue" points="535.766,-329.343 527.37,-335.805 537.963,-335.989 535.766,-329.343"/>
</g>
<!-- Node5&#45;&gt;Node4 -->
<g id="edge12" class="edge"><title>Node5&#45;&gt;Node4</title>
<path fill="none" stroke="midnightblue" d="M606.838,-633.43C602.97,-631.303 599.321,-628.816 596,-625.927 510.692,-551.718 499.629,-397.329 498.207,-355.97"/>
<polygon fill="midnightblue" stroke="midnightblue" points="605.664,-636.743 616.21,-637.76 608.599,-630.389 605.664,-636.743"/>
</g>
<!-- Node6&#45;&gt;Node4 -->
<g id="edge16" class="edge"><title>Node6&#45;&gt;Node4</title>
<path fill="none" stroke="midnightblue" d="M623.011,-156.663C612.996,-159.92 603.488,-164.699 596,-171.927 548.226,-218.044 599.235,-263.358 560,-316.927 554.48,-324.464 546.97,-330.819 539.083,-335.828"/>
<polygon fill="midnightblue" stroke="midnightblue" points="624.014,-160.016 632.718,-153.976 622.147,-153.27 624.014,-160.016"/>
</g>
<!-- Node7&#45;&gt;Node4 -->
<g id="edge20" class="edge"><title>Node7&#45;&gt;Node4</title>
<path fill="none" stroke="midnightblue" d="M606.634,-583.692C602.845,-581.422 599.267,-578.843 596,-575.927 564.167,-547.515 577.076,-526.03 560,-486.927 538.62,-437.97 510.365,-380.043 501.092,-356.152"/>
<polygon fill="midnightblue" stroke="midnightblue" points="605.317,-586.951 615.807,-588.441 608.535,-580.735 605.317,-586.951"/>
</g>
<!-- Node8&#45;&gt;Node4 -->
<g id="edge24" class="edge"><title>Node8&#45;&gt;Node4</title>
<path fill="none" stroke="midnightblue" d="M594.147,-535.05C554.959,-490.659 593.043,-451.229 560,-401.927 546.314,-381.507 520.751,-366.366 507.116,-356.086"/>
<polygon fill="midnightblue" stroke="midnightblue" points="591.64,-537.493 601.122,-542.22 596.657,-532.611 591.64,-537.493"/>
</g>
<!-- Node9&#45;&gt;Node4 -->
<g id="edge28" class="edge"><title>Node9&#45;&gt;Node4</title>
<path fill="none" stroke="midnightblue" d="M598.183,-501.724C597.441,-501.144 596.713,-500.545 596,-499.927 560.914,-469.562 587.603,-439.226 560,-401.927 545.376,-382.167 520.209,-366.748 506.881,-356.251"/>
<polygon fill="midnightblue" stroke="midnightblue" points="596.342,-504.703 606.619,-507.28 600.192,-498.857 596.342,-504.703"/>
</g>
<!-- Node10&#45;&gt;Node4 -->
<g id="edge32" class="edge"><title>Node10&#45;&gt;Node4</title>
<path fill="none" stroke="midnightblue" d="M606.973,-456.369C603.149,-454.437 599.465,-452.294 596,-449.927 573.978,-434.89 578.808,-420.832 560,-401.927 542.281,-384.117 517.581,-367.376 505.397,-356.101"/>
<polygon fill="midnightblue" stroke="midnightblue" points="605.556,-459.569 616.11,-460.499 608.439,-453.191 605.556,-459.569"/>
</g>
<!-- Node11&#45;&gt;Node4 -->
<g id="edge36" class="edge"><title>Node11&#45;&gt;Node4</title>
<path fill="none" stroke="midnightblue" d="M606.679,-403.65C603.054,-402.445 599.479,-401.2 596,-399.927 562.418,-387.642 524.394,-368.639 507.25,-356.044"/>
<polygon fill="midnightblue" stroke="midnightblue" points="605.774,-407.035 616.365,-406.739 607.902,-400.366 605.774,-407.035"/>
</g>
<!-- Node12&#45;&gt;Node4 -->
<g id="edge40" class="edge"><title>Node12&#45;&gt;Node4</title>
<path fill="none" stroke="midnightblue" d="M586.259,-364.872C566.726,-362.095 547.524,-358.973 532.045,-355.976"/>
<polygon fill="midnightblue" stroke="midnightblue" points="585.785,-368.34 596.172,-366.248 586.748,-361.406 585.785,-368.34"/>
</g>
<!-- Node13&#45;&gt;Node4 -->
<g id="edge44" class="edge"><title>Node13&#45;&gt;Node4</title>
<path fill="none" stroke="midnightblue" d="M617.728,-344.805C598.709,-346.367 578.167,-347.631 559.558,-348.377"/>
<polygon fill="midnightblue" stroke="midnightblue" points="618.153,-348.282 627.815,-343.936 617.551,-341.308 618.153,-348.282"/>
</g>
<!-- Node14&#45;&gt;Node4 -->
<g id="edge48" class="edge"><title>Node14&#45;&gt;Node4</title>
<path fill="none" stroke="midnightblue" d="M647.365,-270.012C630.907,-273.453 611.883,-278.068 596,-285.927 577.075,-295.291 577.056,-304.481 560,-316.927 550.822,-323.625 540.434,-330.31 530.821,-335.772"/>
<polygon fill="midnightblue" stroke="midnightblue" points="648.129,-273.428 657.229,-268.003 646.732,-266.569 648.129,-273.428"/>
</g>
<!-- Node15&#45;&gt;Node4 -->
<g id="edge52" class="edge"><title>Node15&#45;&gt;Node4</title>
<path fill="none" stroke="midnightblue" d="M631.904,-232.148C619.186,-235.305 606.34,-240.083 596,-247.927 568.442,-268.833 583.601,-291.64 560,-316.927 553.195,-324.219 544.686,-330.629 536.172,-335.742"/>
<polygon fill="midnightblue" stroke="midnightblue" points="633.004,-235.49 642.027,-229.936 631.51,-228.652 633.004,-235.49"/>
</g>
<!-- Node16&#45;&gt;Node4 -->
<g id="edge56" class="edge"><title>Node16&#45;&gt;Node4</title>
<path fill="none" stroke="midnightblue" d="M621.312,-42.7529C611.835,-46.0389 602.946,-50.8155 596,-57.9274 535.034,-120.353 590.82,-169.294 560,-250.927 547.527,-283.966 524.723,-318.43 510.52,-335.677"/>
<polygon fill="midnightblue" stroke="midnightblue" points="622.323,-46.1039 630.935,-39.9326 620.354,-39.3865 622.323,-46.1039"/>
</g>
<!-- Node17&#45;&gt;Node4 -->
<g id="edge60" class="edge"><title>Node17&#45;&gt;Node4</title>
<path fill="none" stroke="midnightblue" d="M625.58,-194.536C614.766,-197.754 604.312,-202.531 596,-209.927 558.516,-243.281 591.266,-277.685 560,-316.927 554.021,-324.432 546.128,-330.829 537.984,-335.881"/>
<polygon fill="midnightblue" stroke="midnightblue" points="626.738,-197.853 635.562,-191.989 625.007,-191.07 626.738,-197.853"/>
</g>
<!-- Node19 -->
<g id="node51" class="node"><title>Node19</title>
<a xlink:href="namespaceServer.xhtml#a16ea0639731dee10e1a253375b508a02" target="_top" xlink:title="Recovers the server state and re&#45;connects client sockets after a reboot.">
<polygon fill="white" stroke="black" points="812,-19.9274 812,-39.9274 942,-39.9274 942,-19.9274 812,-19.9274"/>
<text text-anchor="middle" x="877" y="-26.9274" font-family="FreeSans.ttf" font-size="10.00">Server::RebootRecovery</text>
</a>
</g>
<!-- Node18&#45;&gt;Node19 -->
<g id="edge64" class="edge"><title>Node18&#45;&gt;Node19</title>
<path fill="none" stroke="midnightblue" d="M746.476,-55.8955C772.276,-50.7625 802.035,-44.8419 826.616,-39.9515"/>
<polygon fill="midnightblue" stroke="midnightblue" points="745.558,-52.5096 736.433,-57.8937 746.924,-59.375 745.558,-52.5096"/>
</g>
<!-- Node22 -->
<g id="node57" class="node"><title>Node22</title>
<a xlink:href="classSocketServer.xhtml#afdbc60c3bc840875d2214b59c6213f63" target="_top" xlink:title="Accept a new connection on the listening port.">
<polygon fill="white" stroke="black" points="817,-57.9274 817,-77.9274 937,-77.9274 937,-57.9274 817,-57.9274"/>
<text text-anchor="middle" x="877" y="-64.9274" font-family="FreeSans.ttf" font-size="10.00">SocketServer::Accept</text>
</a>
</g>
<!-- Node18&#45;&gt;Node22 -->
<g id="edge70" class="edge"><title>Node18&#45;&gt;Node22</title>
<path fill="none" stroke="midnightblue" d="M747.953,-67.9274C770.041,-67.9274 794.872,-67.9274 816.809,-67.9274"/>
<polygon fill="midnightblue" stroke="midnightblue" points="747.687,-64.4275 737.687,-67.9274 747.687,-71.4275 747.687,-64.4275"/>
</g>
<!-- Node20 -->
<g id="node53" class="node"><title>Node20</title>
<a xlink:href="namespaceServer.xhtml#a19a1e493e1fb50a56d9c77332543d565" target="_top" xlink:title="Start the NAMS Server. Responsible for calling all critical boot&#45;time functions such as SocketServer ...">
<polygon fill="white" stroke="black" points="988,-19.9274 988,-39.9274 1078,-39.9274 1078,-19.9274 988,-19.9274"/>
<text text-anchor="middle" x="1033" y="-26.9274" font-family="FreeSans.ttf" font-size="10.00">Server::Startup</text>
</a>
</g>
<!-- Node19&#45;&gt;Node20 -->
<g id="edge66" class="edge"><title>Node19&#45;&gt;Node20</title>
<path fill="none" stroke="midnightblue" d="M952.407,-29.9274C964.549,-29.9274 976.774,-29.9274 987.905,-29.9274"/>
<polygon fill="midnightblue" stroke="midnightblue" points="952.254,-26.4275 942.254,-29.9274 952.254,-33.4275 952.254,-26.4275"/>
</g>
<!-- Node21 -->
<g id="node55" class="node"><title>Node21</title>
<a xlink:href="main_8cpp.xhtml#ad53223b8779f25caeddb70a3b9172967" target="_top" xlink:title="The default function required to execute the server.">
<polygon fill="white" stroke="black" points="1250.5,-38.9274 1250.5,-58.9274 1291.5,-58.9274 1291.5,-38.9274 1250.5,-38.9274"/>
<text text-anchor="middle" x="1271" y="-45.9274" font-family="FreeSans.ttf" font-size="10.00">main</text>
</a>
</g>
<!-- Node20&#45;&gt;Node21 -->
<g id="edge68" class="edge"><title>Node20&#45;&gt;Node21</title>
<path fill="none" stroke="midnightblue" d="M1088.07,-34.3234C1139.78,-38.4522 1214.42,-44.4102 1250.26,-47.2713"/>
<polygon fill="midnightblue" stroke="midnightblue" points="1088.29,-30.8305 1078.05,-33.5235 1087.74,-37.8083 1088.29,-30.8305"/>
</g>
<!-- Node23 -->
<g id="node59" class="node"><title>Node23</title>
<a xlink:href="namespaceServer.xhtml#a39dbe16fdc8c5f6fbd678c6540fbcd6c" target="_top" xlink:title="Poll all SocketClient objects that are communicating with the associated SocketServer object...">
<polygon fill="white" stroke="black" points="978.5,-66.9274 978.5,-86.9274 1087.5,-86.9274 1087.5,-66.9274 978.5,-66.9274"/>
<text text-anchor="middle" x="1033" y="-73.9274" font-family="FreeSans.ttf" font-size="10.00">Server::PollSockets</text>
</a>
</g>
<!-- Node22&#45;&gt;Node23 -->
<g id="edge72" class="edge"><title>Node22&#45;&gt;Node23</title>
<path fill="none" stroke="midnightblue" d="M947.587,-71.9998C957.947,-72.5974 968.482,-73.2053 978.454,-73.7806"/>
<polygon fill="midnightblue" stroke="midnightblue" points="947.499,-68.4889 937.314,-71.4071 947.095,-75.4773 947.499,-68.4889"/>
</g>
<!-- Node24 -->
<g id="node61" class="node"><title>Node24</title>
<a xlink:href="namespaceServer.xhtml#a50b81aa91d8fdaee6f52c5c5ec987990" target="_top" xlink:title="The core update loop of NAMS. This loop spawns all other subsystem update routines and then sleeps fo...">
<polygon fill="white" stroke="black" points="1124.5,-66.9274 1124.5,-86.9274 1213.5,-86.9274 1213.5,-66.9274 1124.5,-66.9274"/>
<text text-anchor="middle" x="1169" y="-73.9274" font-family="FreeSans.ttf" font-size="10.00">Server::Update</text>
</a>
</g>
<!-- Node23&#45;&gt;Node24 -->
<g id="edge74" class="edge"><title>Node23&#45;&gt;Node24</title>
<path fill="none" stroke="midnightblue" d="M1097.7,-76.9274C1106.76,-76.9274 1115.9,-76.9274 1124.48,-76.9274"/>
<polygon fill="midnightblue" stroke="midnightblue" points="1097.53,-73.4275 1087.53,-76.9274 1097.53,-80.4275 1097.53,-73.4275"/>
</g>
<!-- Node24&#45;&gt;Node21 -->
<g id="edge76" class="edge"><title>Node24&#45;&gt;Node21</title>
<path fill="none" stroke="midnightblue" d="M1215.28,-64.2241C1227.59,-60.8439 1240.27,-57.362 1250.42,-54.5757"/>
<polygon fill="midnightblue" stroke="midnightblue" points="1214.25,-60.8755 1205.54,-66.8979 1216.11,-67.6258 1214.25,-60.8755"/>
</g>
<!-- Node26 -->
<g id="node66" class="node"><title>Node26</title>
<a xlink:href="namespaceServer.xhtml#a2b4cec469bb99c2a45e49de5ba74d1ae" target="_top" xlink:title="Processes input from all active SocketClient objects.">
<polygon fill="white" stroke="black" points="819,-133.927 819,-153.927 935,-153.927 935,-133.927 819,-133.927"/>
<text text-anchor="middle" x="877" y="-140.927" font-family="FreeSans.ttf" font-size="10.00">Server::ProcessInput</text>
</a>
</g>
<!-- Node25&#45;&gt;Node26 -->
<g id="edge80" class="edge"><title>Node25&#45;&gt;Node26</title>
<path fill="none" stroke="midnightblue" d="M767.121,-281.827C770.193,-280.35 773.167,-278.722 776,-276.927 825.965,-245.275 860.434,-179.612 872.376,-154.243"/>
<polygon fill="midnightblue" stroke="midnightblue" points="765.505,-278.71 757.65,-285.818 768.224,-285.16 765.505,-278.71"/>
</g>
<!-- Node26&#45;&gt;Node24 -->
<g id="edge82" class="edge"><title>Node26&#45;&gt;Node24</title>
<path fill="none" stroke="midnightblue" d="M931.365,-131.666C973.991,-122.026 1034.8,-108.219 1088,-95.9274 1100.53,-93.0337 1114.13,-89.8556 1126.55,-86.9406"/>
<polygon fill="midnightblue" stroke="midnightblue" points="930.459,-128.282 921.477,-133.901 932.002,-135.11 930.459,-128.282"/>
</g>
<!-- Node27&#45;&gt;Node22 -->
<g id="edge90" class="edge"><title>Node27&#45;&gt;Node22</title>
<path fill="none" stroke="midnightblue" d="M746.476,-93.8955C772.276,-88.7625 802.035,-82.8419 826.616,-77.9515"/>
<polygon fill="midnightblue" stroke="midnightblue" points="745.558,-90.5096 736.433,-95.8937 746.924,-97.375 745.558,-90.5096"/>
</g>
<!-- Node27&#45;&gt;Node23 -->
<g id="edge86" class="edge"><title>Node27&#45;&gt;Node23</title>
<path fill="none" stroke="midnightblue" d="M753.278,-101.587C804.94,-98.0953 878.032,-92.8142 942,-86.9274 953.712,-85.8496 966.257,-84.5594 978.174,-83.2695"/>
<polygon fill="midnightblue" stroke="midnightblue" points="752.983,-98.0984 743.24,-102.261 753.452,-105.083 752.983,-98.0984"/>
</g>
<!-- Node27&#45;&gt;Node26 -->
<g id="edge88" class="edge"><title>Node27&#45;&gt;Node26</title>
<path fill="none" stroke="midnightblue" d="M746.476,-117.959C772.276,-123.092 802.035,-129.013 826.616,-133.903"/>
<polygon fill="midnightblue" stroke="midnightblue" points="746.924,-114.48 736.433,-115.961 745.558,-121.345 746.924,-114.48"/>
</g>
<!-- Node28&#45;&gt;Node20 -->
<g id="edge102" class="edge"><title>Node28&#45;&gt;Node20</title>
<path fill="none" stroke="midnightblue" d="M396.097,-13.379C506.35,-4.58096 743.383,9.58617 942,-10.9274 959.178,-12.7016 977.893,-16.3119 993.861,-19.9135"/>
<polygon fill="midnightblue" stroke="midnightblue" points="395.513,-9.91484 385.829,-14.2124 396.079,-16.8919 395.513,-9.91484"/>
</g>
</g>
</svg>
        <g id="navigator" transform="translate(0 0)" fill="#404254">
                <rect fill="#f2f5e9" fill-opacity="0.5" stroke="#606060" stroke-width=".5" x="0" y="0" width="60" height="60"/>
                <use id="zoomplus" xlink:href="#zoomPlus" x="17" y="9" onmousedown="handleZoom(evt,'in')"/>
                <use id="zoomminus" xlink:href="#zoomMin" x="42" y="9" onmousedown="handleZoom(evt,'out')"/>
                <use id="reset" xlink:href="#resetDef" x="30" y="36" onmousedown="handleReset()"/>
                <g id="arrowUp" xlink:href="#dirArrow" transform="translate(30 24)" onmousedown="handlePan(0,-1)">
                  <use xlink:href="#rim" fill="#404040">
                        <set attributeName="fill" to="#808080" begin="arrowUp.mouseover" end="arrowUp.mouseout"/>
                  </use>
                  <path fill="none" stroke="white" stroke-width="1.5" d="M0,-3.0v7 M-2.5,-0.5L0,-3.0L2.5,-0.5"/>
                </g>
                <g id="arrowRight" xlink:href="#dirArrow" transform="rotate(90) translate(36 -43)" onmousedown="handlePan(1,0)">
                  <use xlink:href="#rim" fill="#404040">
                        <set attributeName="fill" to="#808080" begin="arrowRight.mouseover" end="arrowRight.mouseout"/>
                  </use>
                  <path fill="none" stroke="white" stroke-width="1.5" d="M0,-3.0v7 M-2.5,-0.5L0,-3.0L2.5,-0.5"/>
                </g>
                <g id="arrowDown" xlink:href="#dirArrow" transform="rotate(180) translate(-30 -48)" onmousedown="handlePan(0,1)">
                  <use xlink:href="#rim" fill="#404040">
                        <set attributeName="fill" to="#808080" begin="arrowDown.mouseover" end="arrowDown.mouseout"/>
                  </use>
                  <path fill="none" stroke="white" stroke-width="1.5" d="M0,-3.0v7 M-2.5,-0.5L0,-3.0L2.5,-0.5"/>
                </g>
                <g id="arrowLeft" xlink:href="#dirArrow" transform="rotate(270) translate(-36 17)" onmousedown="handlePan(-1,0)">
                  <use xlink:href="#rim" fill="#404040">
                        <set attributeName="fill" to="#808080" begin="arrowLeft.mouseover" end="arrowLeft.mouseout"/>
                  </use>
                  <path fill="none" stroke="white" stroke-width="1.5" d="M0,-3.0v7 M-2.5,-0.5L0,-3.0L2.5,-0.5"/>
                </g>
        </g>
        <svg viewBox="0 0 15 15" width="100%" height="30px" preserveAspectRatio="xMaxYMin meet">
         <g id="arrow_out" transform="scale(0.3 0.3)">
          <a xlink:href="classCharacter_a4f7ff295f5de0fa4f8fece0acb7aaa53_icgraph_org.svg" target="_base">
           <rect id="button" ry="5" rx="5" y="6" x="6" height="38" width="38"
                fill="#f2f5e9" fill-opacity="0.5" stroke="#606060" stroke-width="1.0"/>
           <path id="arrow"
             d="M 11.500037,31.436501 C 11.940474,20.09759 22.043105,11.32322 32.158766,21.979434 L 37.068811,17.246167 C 37.068811,17.246167 37.088388,32 37.088388,32 L 22.160133,31.978069 C 22.160133,31.978069 26.997745,27.140456 26.997745,27.140456 C 18.528582,18.264221 13.291696,25.230495 11.500037,31.436501 z"
             style="fill:#404040;"/>
          </a>
         </g>
        </svg>
</svg>
