<?xml version="1.0" encoding="UTF-8" standalone="no"?>
<!DOCTYPE svg PUBLIC "-//W3C//DTD SVG 1.1//EN"
 "http://www.w3.org/Graphics/SVG/1.1/DTD/svg11.dtd">
<!-- Generated by graphviz version 2.26.3 (20100126.1600)
 -->
<!-- Title: SocketClient::Recv Pages: 1 -->
<svg width="462pt" height="28pt"
 viewBox="0.00 0.00 462.00 28.00" xmlns="http://www.w3.org/2000/svg" xmlns:xlink="http://www.w3.org/1999/xlink">
<g id="graph1" class="graph" transform="scale(1 1) rotate(0) translate(4 24)">
<title>SocketClient::Recv</title>
<polygon fill="white" stroke="white" points="-4,5 -4,-24 459,-24 459,5 -4,5"/>
<!-- Node1 -->
<g id="node1" class="node"><title>Node1</title>
<polygon fill="#bfbfbf" stroke="black" points="0,-0 0,-20 104,-20 104,-0 0,-0"/>
<text text-anchor="middle" x="52" y="-7" font-family="FreeSans.ttf" font-size="10.00">SocketClient::Recv</text>
</g>
<!-- Node2 -->
<g id="node3" class="node"><title>Node2</title>
<a xlink:href="namespaceServer.xhtml#a39dbe16fdc8c5f6fbd678c6540fbcd6c" target="_top" xlink:title="Poll all SocketClient objects that are communicating with the associated SocketServer object...">
<polygon fill="white" stroke="black" points="140.5,-0 140.5,-20 249.5,-20 249.5,-0 140.5,-0"/>
<text text-anchor="middle" x="195" y="-7" font-family="FreeSans.ttf" font-size="10.00">Server::PollSockets</text>
</a>
</g>
<!-- Node1&#45;&gt;Node2 -->
<g id="edge2" class="edge"><title>Node1&#45;&gt;Node2</title>
<path fill="none" stroke="midnightblue" d="M114.154,-10C122.878,-10 131.791,-10 140.361,-10"/>
<polygon fill="midnightblue" stroke="midnightblue" points="114.031,-6.5001 104.031,-10 114.031,-13.5001 114.031,-6.5001"/>
</g>
<!-- Node3 -->
<g id="node5" class="node"><title>Node3</title>
<a xlink:href="namespaceServer.xhtml#a50b81aa91d8fdaee6f52c5c5ec987990" target="_top" xlink:title="The core update loop of NAMS. This loop spawns all other subsystem update routines and then sleeps fo...">
<polygon fill="white" stroke="black" points="286.5,-0 286.5,-20 375.5,-20 375.5,-0 286.5,-0"/>
<text text-anchor="middle" x="331" y="-7" font-family="FreeSans.ttf" font-size="10.00">Server::Update</text>
</a>
</g>
<!-- Node2&#45;&gt;Node3 -->
<g id="edge4" class="edge"><title>Node2&#45;&gt;Node3</title>
<path fill="none" stroke="midnightblue" d="M259.698,-10C268.761,-10 277.903,-10 286.477,-10"/>
<polygon fill="midnightblue" stroke="midnightblue" points="259.533,-6.5001 249.533,-10 259.533,-13.5001 259.533,-6.5001"/>
</g>
<!-- Node4 -->
<g id="node7" class="node"><title>Node4</title>
<a xlink:href="main_8cpp.xhtml#ad53223b8779f25caeddb70a3b9172967" target="_top" xlink:title="The default function required to execute the server.">
<polygon fill="white" stroke="black" points="412.5,-0 412.5,-20 453.5,-20 453.5,-0 412.5,-0"/>
<text text-anchor="middle" x="433" y="-7" font-family="FreeSans.ttf" font-size="10.00">main</text>
</a>
</g>
<!-- Node3&#45;&gt;Node4 -->
<g id="edge6" class="edge"><title>Node3&#45;&gt;Node4</title>
<path fill="none" stroke="midnightblue" d="M385.942,-10C395.336,-10 404.55,-10 412.3,-10"/>
<polygon fill="midnightblue" stroke="midnightblue" points="385.739,-6.5001 375.739,-10 385.739,-13.5001 385.739,-6.5001"/>
</g>
</g>
</svg>
