<?xml version="1.0" encoding="UTF-8" standalone="no"?>
<!DOCTYPE svg PUBLIC "-//W3C//DTD SVG 1.1//EN"
 "http://www.w3.org/Graphics/SVG/1.1/DTD/svg11.dtd">
<!-- Generated by graphviz version 2.26.3 (20100126.1600)
 -->
<!-- Title: G Pages: 1 -->
<svg width="279pt" height="128pt"
 viewBox="0.00 0.00 279.00 128.00" xmlns="http://www.w3.org/2000/svg" xmlns:xlink="http://www.w3.org/1999/xlink">
<g id="graph1" class="graph" transform="scale(1 1) rotate(0) translate(4 124)">
<title>G</title>
<polygon fill="white" stroke="white" points="-4,5 -4,-124 276,-124 276,5 -4,5"/>
<!-- Node1 -->
<g id="node1" class="node"><title>Node1</title>
<polygon fill="#bfbfbf" stroke="black" points="87,-0.5 87,-21.5 137,-21.5 137,-0.5 87,-0.5"/>
<text text-anchor="middle" x="112" y="-8.5" font-family="FreeSans.ttf" font-size="10.00">Socket</text>
</g>
<!-- Node2 -->
<g id="node2" class="node"><title>Node2</title>
<polygon fill="white" stroke="#bfbfbf" points="0,-98.5 0,-119.5 44,-119.5 44,-98.5 0,-98.5"/>
<text text-anchor="middle" x="22" y="-106.5" font-family="FreeSans.ttf" font-size="10.00">string</text>
</g>
<!-- Node2&#45;&gt;Node1 -->
<g id="edge2" class="edge"><title>Node2&#45;&gt;Node1</title>
<path fill="none" stroke="#9a32cd" stroke-dasharray="5,2" d="M22.9861,-87.9385C24.7336,-72.939 29.3014,-53.1815 41,-40 52.7549,-26.7551 71.4595,-19.445 86.7199,-15.478"/>
<polygon fill="#9a32cd" stroke="#9a32cd" points="19.4659,-88.0386 22.1281,-98.2935 26.442,-88.6167 19.4659,-88.0386"/>
<text text-anchor="middle" x="74.5" y="-57.5" font-family="FreeSans.ttf" font-size="10.00"> m_hostname</text>
</g>
<!-- Node3 -->
<g id="node4" class="node"><title>Node3</title>
<polygon fill="white" stroke="#bfbfbf" points="80.5,-98.5 80.5,-119.5 143.5,-119.5 143.5,-98.5 80.5,-98.5"/>
<text text-anchor="middle" x="112" y="-106.5" font-family="FreeSans.ttf" font-size="10.00">signed int</text>
</g>
<!-- Node3&#45;&gt;Node1 -->
<g id="edge4" class="edge"><title>Node3&#45;&gt;Node1</title>
<path fill="none" stroke="#9a32cd" stroke-dasharray="5,2" d="M112,-87.9567C112,-67.5572 112,-37.4427 112,-21.6129"/>
<polygon fill="#9a32cd" stroke="#9a32cd" points="108.5,-88.1378 112,-98.1378 115.5,-88.1379 108.5,-88.1378"/>
<text text-anchor="middle" x="145.5" y="-57.5" font-family="FreeSans.ttf" font-size="10.00"> m_descriptor</text>
</g>
<!-- Node4 -->
<g id="node6" class="node"><title>Node4</title>
<polygon fill="white" stroke="#bfbfbf" points="164.5,-98.5 164.5,-119.5 239.5,-119.5 239.5,-98.5 164.5,-98.5"/>
<text text-anchor="middle" x="202" y="-106.5" font-family="FreeSans.ttf" font-size="10.00">unsigned int</text>
</g>
<!-- Node4&#45;&gt;Node1 -->
<g id="edge6" class="edge"><title>Node4&#45;&gt;Node1</title>
<path fill="none" stroke="#9a32cd" stroke-dasharray="5,2" d="M199.937,-87.9449C197.457,-72.9485 192.001,-53.1922 180,-40 168.772,-27.6583 151.412,-20.3728 137.044,-16.1909"/>
<polygon fill="#9a32cd" stroke="#9a32cd" points="196.526,-88.8452 201.312,-98.2973 203.465,-87.9235 196.526,-88.8452"/>
<text text-anchor="middle" x="234.5" y="-70.5" font-family="FreeSans.ttf" font-size="10.00"> m_bytes_sent</text>
<text text-anchor="middle" x="234.5" y="-57.5" font-family="FreeSans.ttf" font-size="10.00">m_port</text>
<text text-anchor="middle" x="234.5" y="-44.5" font-family="FreeSans.ttf" font-size="10.00">m_bytes_recvd</text>
</g>
</g>
</svg>
