<?xml version="1.0" encoding="UTF-8" standalone="no"?>
<!DOCTYPE svg PUBLIC "-//W3C//DTD SVG 1.1//EN"
 "http://www.w3.org/Graphics/SVG/1.1/DTD/svg11.dtd">
<!-- Generated by graphviz version 2.26.3 (20100126.1600)
 -->
<!-- Title: Reset Pages: 1 -->
<!--zoomable 350 -->
<svg id="main" version="1.1" xmlns="http://www.w3.org/2000/svg" xmlns:xlink="http://www.w3.org/1999/xlink" xml:space="preserve" onload="init(evt)">
        <defs>
                <circle id="rim" cx="0" cy="0" r="7"/>
                <circle id="rim2" cx="0" cy="0" r="3.5"/>
                <g id="zoomPlus">
                        <use xlink:href="#rim" fill="#404040">
                                <set attributeName="fill" to="#808080" begin="zoomplus.mouseover" end="zoomplus.mouseout"/>
                        </use>
                        <path d="M-4,0h8M0,-4v8" fill="none" stroke="white" stroke-width="1.5" pointer-events="none"/>
                </g>
                <g id="zoomMin">
                        <use xlink:href="#rim" fill="#404040">
                                <set attributeName="fill" to="#808080" begin="zoomminus.mouseover" end="zoomminus.mouseout"/>
                        </use>
                        <path d="M-4,0h8" fill="none" stroke="white" stroke-width="1.5" pointer-events="none"/>
                </g>
                <g id="dirArrow">
                        <path fill="none" stroke="white" stroke-width="1.5" d="M0,-3.0v7 M-2.5,-0.5L0,-3.0L2.5,-0.5"/>
                </g>
               <g id="resetDef">
                       <use xlink:href="#rim2" fill="#404040">
                               <set attributeName="fill" to="#808080" begin="reset.mouseover" end="reset.mouseout"/>
                       </use>
               </g>
        </defs>

<script type="text/javascript">
var viewWidth = 580;
var viewHeight = 350;
var sectionId = 'dynsection-0';
</script>
<script xlink:href="svgpan.js"/>
<svg id="graph" class="graph">
<g id="viewport">
<title>Reset</title>
<polygon fill="white" stroke="white" points="-4,5 -4,-346 577.266,-346 577.266,5 -4,5"/>
<!-- Node1 -->
<g id="node1" class="node"><title>Node1</title>
<polygon fill="#bfbfbf" stroke="black" points="261.766,-71 261.766,-91 304.766,-91 304.766,-71 261.766,-71"/>
<text text-anchor="middle" x="283.266" y="-78" font-family="FreeSans.ttf" font-size="10.00">Reset</text>
</g>
<!-- Node2 -->
<g id="node2" class="node"><title>Node2</title>
<a xlink:title="STL class.">
<polygon fill="white" stroke="#bfbfbf" points="239.766,-249 239.766,-269 304.766,-269 304.766,-249 239.766,-249"/>
<text text-anchor="middle" x="272.266" y="-256" font-family="FreeSans.ttf" font-size="10.00">std::string</text>
</a>
</g>
<!-- Node2&#45;&gt;Node1 -->
<g id="edge2" class="edge"><title>Node2&#45;&gt;Node1</title>
<path fill="none" stroke="#9a32cd" stroke-dasharray="5,2" d="M287.485,-240.33C289.45,-237.055 291.16,-233.553 292.266,-230 308.123,-179.078 300.26,-162.731 292.266,-110 291.286,-103.537 289.144,-96.5311 287.195,-91.0246"/>
<polygon fill="#9a32cd" stroke="#9a32cd" points="284.419,-238.608 281.565,-248.811 290.159,-242.614 284.419,-238.608"/>
<text text-anchor="middle" x="324.266" y="-167" font-family="FreeSans.ttf" font-size="10.00"> m_name</text>
</g>
<!-- Node4 -->
<g id="node6" class="node"><title>Node4</title>
<a xlink:href="classLocation.xhtml" target="_top" xlink:title="A physical location within the game world.">
<polygon fill="white" stroke="black" points="185.766,-160 185.766,-180 242.766,-180 242.766,-160 185.766,-160"/>
<text text-anchor="middle" x="214.266" y="-167" font-family="FreeSans.ttf" font-size="10.00">Location</text>
</a>
</g>
<!-- Node2&#45;&gt;Node4 -->
<g id="edge24" class="edge"><title>Node2&#45;&gt;Node4</title>
<path fill="none" stroke="#9a32cd" stroke-dasharray="5,2" d="M257.972,-240.781C255.34,-237.254 252.667,-233.55 250.266,-230 238.832,-213.096 226.901,-192.538 220.05,-180.403"/>
<polygon fill="#9a32cd" stroke="#9a32cd" points="255.399,-243.178 264.252,-248.998 260.96,-238.927 255.399,-243.178"/>
<text text-anchor="middle" x="271.266" y="-221" font-family="FreeSans.ttf" font-size="10.00"> m_zone</text>
<text text-anchor="middle" x="271.266" y="-209" font-family="FreeSans.ttf" font-size="10.00">m_file</text>
</g>
<!-- Node5 -->
<g id="node8" class="node"><title>Node5</title>
<a xlink:href="classThing.xhtml" target="_top" xlink:title="A generic &quot;thing&quot;: creature, character, room, object, etc.">
<polygon fill="white" stroke="black" points="55.266,-71 55.266,-91 97.266,-91 97.266,-71 55.266,-71"/>
<text text-anchor="middle" x="76.266" y="-78" font-family="FreeSans.ttf" font-size="10.00">Thing</text>
</a>
</g>
<!-- Node2&#45;&gt;Node5 -->
<g id="edge18" class="edge"><title>Node2&#45;&gt;Node5</title>
<path fill="none" stroke="#9a32cd" stroke-dasharray="5,2" d="M229.659,-253.853C161.842,-244.688 34.2252,-223.133 7.26605,-188 -18.7044,-154.155 33.7016,-110.526 61.0679,-91.1019"/>
<polygon fill="#9a32cd" stroke="#9a32cd" points="229.237,-257.328 239.609,-255.167 230.153,-250.388 229.237,-257.328"/>
<text text-anchor="middle" x="42.766" y="-179" font-family="FreeSans.ttf" font-size="10.00"> m_description</text>
<text text-anchor="middle" x="42.766" y="-167" font-family="FreeSans.ttf" font-size="10.00">m_id</text>
<text text-anchor="middle" x="42.766" y="-155" font-family="FreeSans.ttf" font-size="10.00">m_name</text>
</g>
<!-- Node11 -->
<g id="node24" class="node"><title>Node11</title>
<a xlink:href="classExit.xhtml" target="_top" xlink:title="A link between two locations within the game world.">
<polygon fill="white" stroke="black" points="322.266,-71 322.266,-91 356.266,-91 356.266,-71 322.266,-71"/>
<text text-anchor="middle" x="339.266" y="-78" font-family="FreeSans.ttf" font-size="10.00">Exit</text>
</a>
</g>
<!-- Node2&#45;&gt;Node11 -->
<g id="edge30" class="edge"><title>Node2&#45;&gt;Node11</title>
<path fill="none" stroke="#9a32cd" stroke-dasharray="5,2" d="M297.205,-243.304C327.252,-222.618 375.757,-183.044 392.266,-134 395.669,-123.891 397.705,-119.176 392.266,-110 388.201,-103.143 370.279,-94.2048 356.388,-88.0745"/>
<polygon fill="#9a32cd" stroke="#9a32cd" points="295.257,-240.396 288.895,-248.868 299.152,-246.212 295.257,-240.396"/>
<text text-anchor="middle" x="409.766" y="-173" font-family="FreeSans.ttf" font-size="10.00"> m_dest_id</text>
<text text-anchor="middle" x="409.766" y="-161" font-family="FreeSans.ttf" font-size="10.00">m_name</text>
</g>
<!-- Node3 -->
<g id="node4" class="node"><title>Node3</title>
<a xlink:title="STL class.">
<polygon fill="white" stroke="#bfbfbf" points="220.766,-309 220.766,-341 323.766,-341 323.766,-309 220.766,-309"/>
<text text-anchor="start" x="228.766" y="-328" font-family="FreeSans.ttf" font-size="10.00">std::basic_string&lt;</text>
<text text-anchor="middle" x="272.266" y="-316" font-family="FreeSans.ttf" font-size="10.00"> char &gt;</text>
</a>
</g>
<!-- Node3&#45;&gt;Node2 -->
<g id="edge4" class="edge"><title>Node3&#45;&gt;Node2</title>
<path fill="none" stroke="midnightblue" d="M272.266,-298.45C272.266,-288.156 272.266,-276.991 272.266,-269.175"/>
<polygon fill="midnightblue" stroke="midnightblue" points="268.766,-298.685 272.266,-308.685 275.766,-298.685 268.766,-298.685"/>
</g>
<!-- Node4&#45;&gt;Node1 -->
<g id="edge6" class="edge"><title>Node4&#45;&gt;Node1</title>
<path fill="none" stroke="#9a32cd" stroke-dasharray="5,2" d="M218.156,-149.682C221.358,-137.186 226.931,-121.433 236.266,-110 242.936,-101.83 252.552,-95.3272 261.35,-90.5668"/>
<polygon fill="#9a32cd" stroke="#9a32cd" points="214.698,-149.11 215.919,-159.634 221.527,-150.645 214.698,-149.11"/>
<text text-anchor="middle" x="264.266" y="-119" font-family="FreeSans.ttf" font-size="10.00"> m_location</text>
</g>
<!-- Node4&#45;&gt;Node5 -->
<g id="edge22" class="edge"><title>Node4&#45;&gt;Node5</title>
<path fill="none" stroke="#9a32cd" stroke-dasharray="5,2" d="M180.81,-156.042C160.107,-147.277 136.658,-137.071 132.266,-134 120.158,-125.534 119.936,-120.219 109.266,-110 102.546,-103.564 94.7363,-96.6759 88.4017,-91.2285"/>
<polygon fill="#9a32cd" stroke="#9a32cd" points="179.477,-159.278 190.051,-159.937 182.195,-152.827 179.477,-159.278"/>
<text text-anchor="middle" x="160.266" y="-119" font-family="FreeSans.ttf" font-size="10.00"> m_location</text>
</g>
<!-- Node4&#45;&gt;Node11 -->
<g id="edge32" class="edge"><title>Node4&#45;&gt;Node11</title>
<path fill="none" stroke="#9a32cd" stroke-dasharray="5,2" d="M252.726,-157.501C267.214,-151.705 283.307,-143.881 296.266,-134 312.096,-121.93 325.667,-102.877 333.128,-91.2039"/>
<polygon fill="#9a32cd" stroke="#9a32cd" points="251.117,-154.368 243.01,-161.19 253.601,-160.912 251.117,-154.368"/>
<text text-anchor="middle" x="353.766" y="-125" font-family="FreeSans.ttf" font-size="10.00"> m_location</text>
<text text-anchor="middle" x="353.766" y="-113" font-family="FreeSans.ttf" font-size="10.00">m_destination</text>
</g>
<!-- Node5&#45;&gt;Node4 -->
<g id="edge8" class="edge"><title>Node5&#45;&gt;Node4</title>
<path fill="none" stroke="midnightblue" d="M85.1902,-100.24C91.3368,-111.551 100.514,-125.295 112.266,-134 133.955,-150.065 144.862,-142.882 170.266,-152 176.947,-154.398 184.104,-157.216 190.665,-159.902"/>
<polygon fill="midnightblue" stroke="midnightblue" points="88.2133,-98.462 80.5801,-91.1145 81.9654,-101.618 88.2133,-98.462"/>
</g>
<!-- Node6 -->
<g id="node10" class="node"><title>Node6</title>
<polygon fill="white" stroke="#bfbfbf" points="64.266,-1 64.266,-21 188.266,-21 188.266,-1 64.266,-1"/>
<text text-anchor="middle" x="126.266" y="-8" font-family="FreeSans.ttf" font-size="10.00">std::vector&lt; Thing * &gt;</text>
</g>
<!-- Node5&#45;&gt;Node6 -->
<g id="edge12" class="edge"><title>Node5&#45;&gt;Node6</title>
<path fill="none" stroke="#9a32cd" stroke-dasharray="5,2" d="M55.8692,-63.3201C49.8761,-55.9918 46.1428,-47.4738 51.266,-40 56.0019,-33.0912 72.7774,-26.2873 89.2648,-21.008"/>
<polygon fill="#9a32cd" stroke="#9a32cd" points="53.4989,-65.9052 62.947,-70.6995 58.5509,-61.0598 53.4989,-65.9052"/>
<text text-anchor="middle" x="75.766" y="-43" font-family="FreeSans.ttf" font-size="10.00"> elements</text>
</g>
<!-- Node6&#45;&gt;Node5 -->
<g id="edge10" class="edge"><title>Node6&#45;&gt;Node5</title>
<path fill="none" stroke="#9a32cd" stroke-dasharray="5,2" d="M117.101,-30.6861C113.493,-37.6696 109.063,-45.4225 104.266,-52 99.3171,-58.7851 92.8555,-65.5813 87.3867,-70.8872"/>
<polygon fill="#9a32cd" stroke="#9a32cd" points="120.478,-31.7502 121.747,-21.2316 114.195,-28.6633 120.478,-31.7502"/>
<text text-anchor="middle" x="142.766" y="-43" font-family="FreeSans.ttf" font-size="10.00"> m_contents</text>
</g>
<!-- Node7 -->
<g id="node13" class="node"><title>Node7</title>
<a xlink:title="STL class.">
<polygon fill="white" stroke="#bfbfbf" points="374.766,-71 374.766,-91 469.766,-91 469.766,-71 374.766,-71"/>
<text text-anchor="middle" x="422.266" y="-78" font-family="FreeSans.ttf" font-size="10.00">std::vector&lt; T &gt;</text>
</a>
</g>
<!-- Node7&#45;&gt;Node6 -->
<g id="edge14" class="edge"><title>Node7&#45;&gt;Node6</title>
<path fill="none" stroke="orange" stroke-dasharray="5,2" d="M412.794,-61.6996C407.821,-53.6436 400.939,-45.0103 392.266,-40 375.02,-30.0371 261.501,-20.4078 188.44,-15.1365"/>
<polygon fill="orange" stroke="orange" points="409.84,-63.5893 417.748,-70.6397 415.962,-60.1964 409.84,-63.5893"/>
<text text-anchor="middle" x="435.266" y="-43" font-family="FreeSans.ttf" font-size="10.00"> &lt; Thing * &gt;</text>
</g>
<!-- Node8 -->
<g id="node15" class="node"><title>Node8</title>
<polygon fill="white" stroke="#bfbfbf" points="503.766,-160 503.766,-180 532.766,-180 532.766,-160 503.766,-160"/>
<text text-anchor="middle" x="518.266" y="-167" font-family="FreeSans.ttf" font-size="10.00">T</text>
</g>
<!-- Node8&#45;&gt;Node7 -->
<g id="edge16" class="edge"><title>Node8&#45;&gt;Node7</title>
<path fill="none" stroke="#9a32cd" stroke-dasharray="5,2" d="M495.257,-155.105C486.462,-148.99 476.56,-141.573 468.266,-134 453.511,-120.527 438.782,-102.565 430.102,-91.3949"/>
<polygon fill="#9a32cd" stroke="#9a32cd" points="493.34,-158.034 503.583,-160.744 497.266,-152.238 493.34,-158.034"/>
<text text-anchor="middle" x="492.766" y="-119" font-family="FreeSans.ttf" font-size="10.00"> elements</text>
</g>
<!-- Node12 -->
<g id="node28" class="node"><title>Node12</title>
<a xlink:title="STL class.">
<polygon fill="white" stroke="#bfbfbf" points="487.766,-71 487.766,-91 566.766,-91 566.766,-71 487.766,-71"/>
<text text-anchor="middle" x="527.266" y="-78" font-family="FreeSans.ttf" font-size="10.00">std::list&lt; T &gt;</text>
</a>
</g>
<!-- Node8&#45;&gt;Node12 -->
<g id="edge36" class="edge"><title>Node8&#45;&gt;Node12</title>
<path fill="none" stroke="#9a32cd" stroke-dasharray="5,2" d="M520.331,-149.583C522.18,-131.295 524.815,-105.241 526.246,-91.0904"/>
<polygon fill="#9a32cd" stroke="#9a32cd" points="516.822,-149.489 519.298,-159.791 523.787,-150.193 516.822,-149.489"/>
<text text-anchor="middle" x="547.766" y="-119" font-family="FreeSans.ttf" font-size="10.00"> elements</text>
</g>
<!-- Node9 -->
<g id="node18" class="node"><title>Node9</title>
<polygon fill="white" stroke="#bfbfbf" points="86.766,-160 86.766,-180 161.766,-180 161.766,-160 86.766,-160"/>
<text text-anchor="middle" x="124.266" y="-167" font-family="FreeSans.ttf" font-size="10.00">unsigned int</text>
</g>
<!-- Node9&#45;&gt;Node5 -->
<g id="edge20" class="edge"><title>Node9&#45;&gt;Node5</title>
<path fill="none" stroke="#9a32cd" stroke-dasharray="5,2" d="M88.8777,-156.149C68.7633,-147.92 47.0324,-138.278 44.266,-134 38.4744,-125.043 39.9432,-119.751 44.266,-110 47.6084,-102.46 53.9866,-96.0458 60.1746,-91.1815"/>
<polygon fill="#9a32cd" stroke="#9a32cd" points="87.6479,-159.427 98.231,-159.925 90.2687,-152.936 87.6479,-159.427"/>
<text text-anchor="middle" x="64.266" y="-119" font-family="FreeSans.ttf" font-size="10.00"> m_type</text>
</g>
<!-- Node10 -->
<g id="node22" class="node"><title>Node10</title>
<polygon fill="white" stroke="#bfbfbf" points="289.766,-1 289.766,-21 388.766,-21 388.766,-1 289.766,-1"/>
<text text-anchor="middle" x="339.266" y="-8" font-family="FreeSans.ttf" font-size="10.00">std::list&lt; Exit * &gt;</text>
</g>
<!-- Node10&#45;&gt;Node4 -->
<g id="edge26" class="edge"><title>Node10&#45;&gt;Node4</title>
<path fill="none" stroke="#9a32cd" stroke-dasharray="5,2" d="M279.993,-23.4675C254.59,-32.063 227.341,-46.3747 212.266,-70 194.239,-98.2522 204.53,-140.743 210.687,-159.945"/>
<polygon fill="#9a32cd" stroke="#9a32cd" points="281.119,-26.7827 289.609,-20.4456 279.02,-20.1046 281.119,-26.7827"/>
<text text-anchor="middle" x="232.766" y="-78" font-family="FreeSans.ttf" font-size="10.00"> m_exits</text>
</g>
<!-- Node11&#45;&gt;Node10 -->
<g id="edge28" class="edge"><title>Node11&#45;&gt;Node10</title>
<path fill="none" stroke="#9a32cd" stroke-dasharray="5,2" d="M339.266,-60.6126C339.266,-47.5971 339.266,-31.2956 339.266,-21.0107"/>
<polygon fill="#9a32cd" stroke="#9a32cd" points="335.766,-60.9707 339.266,-70.9707 342.766,-60.9707 335.766,-60.9707"/>
<text text-anchor="middle" x="363.766" y="-43" font-family="FreeSans.ttf" font-size="10.00"> elements</text>
</g>
<!-- Node12&#45;&gt;Node10 -->
<g id="edge34" class="edge"><title>Node12&#45;&gt;Node10</title>
<path fill="none" stroke="orange" stroke-dasharray="5,2" d="M511.628,-63.667C503.142,-55.2904 492.003,-45.8161 480.266,-40 451.827,-25.907 416.904,-18.6598 388.928,-14.9344"/>
<polygon fill="orange" stroke="orange" points="509.155,-66.1453 518.616,-70.9148 514.194,-61.2866 509.155,-66.1453"/>
<text text-anchor="middle" x="523.266" y="-43" font-family="FreeSans.ttf" font-size="10.00"> &lt; Exit * &gt;</text>
</g>
</g>
</svg>
        <g id="navigator" transform="translate(0 0)" fill="#404254">
                <rect fill="#f2f5e9" fill-opacity="0.5" stroke="#606060" stroke-width=".5" x="0" y="0" width="60" height="60"/>
                <use id="zoomplus" xlink:href="#zoomPlus" x="17" y="9" onmousedown="handleZoom(evt,'in')"/>
                <use id="zoomminus" xlink:href="#zoomMin" x="42" y="9" onmousedown="handleZoom(evt,'out')"/>
                <use id="reset" xlink:href="#resetDef" x="30" y="36" onmousedown="handleReset()"/>
                <g id="arrowUp" xlink:href="#dirArrow" transform="translate(30 24)" onmousedown="handlePan(0,-1)">
                  <use xlink:href="#rim" fill="#404040">
                        <set attributeName="fill" to="#808080" begin="arrowUp.mouseover" end="arrowUp.mouseout"/>
                  </use>
                  <path fill="none" stroke="white" stroke-width="1.5" d="M0,-3.0v7 M-2.5,-0.5L0,-3.0L2.5,-0.5"/>
                </g>
                <g id="arrowRight" xlink:href="#dirArrow" transform="rotate(90) translate(36 -43)" onmousedown="handlePan(1,0)">
                  <use xlink:href="#rim" fill="#404040">
                        <set attributeName="fill" to="#808080" begin="arrowRight.mouseover" end="arrowRight.mouseout"/>
                  </use>
                  <path fill="none" stroke="white" stroke-width="1.5" d="M0,-3.0v7 M-2.5,-0.5L0,-3.0L2.5,-0.5"/>
                </g>
                <g id="arrowDown" xlink:href="#dirArrow" transform="rotate(180) translate(-30 -48)" onmousedown="handlePan(0,1)">
                  <use xlink:href="#rim" fill="#404040">
                        <set attributeName="fill" to="#808080" begin="arrowDown.mouseover" end="arrowDown.mouseout"/>
                  </use>
                  <path fill="none" stroke="white" stroke-width="1.5" d="M0,-3.0v7 M-2.5,-0.5L0,-3.0L2.5,-0.5"/>
                </g>
                <g id="arrowLeft" xlink:href="#dirArrow" transform="rotate(270) translate(-36 17)" onmousedown="handlePan(-1,0)">
                  <use xlink:href="#rim" fill="#404040">
                        <set attributeName="fill" to="#808080" begin="arrowLeft.mouseover" end="arrowLeft.mouseout"/>
                  </use>
                  <path fill="none" stroke="white" stroke-width="1.5" d="M0,-3.0v7 M-2.5,-0.5L0,-3.0L2.5,-0.5"/>
                </g>
        </g>
        <svg viewBox="0 0 15 15" width="100%" height="30px" preserveAspectRatio="xMaxYMin meet">
         <g id="arrow_out" transform="scale(0.3 0.3)">
          <a xlink:href="classReset__coll__graph_org.svg" target="_base">
           <rect id="button" ry="5" rx="5" y="6" x="6" height="38" width="38"
                fill="#f2f5e9" fill-opacity="0.5" stroke="#606060" stroke-width="1.0"/>
           <path id="arrow"
             d="M 11.500037,31.436501 C 11.940474,20.09759 22.043105,11.32322 32.158766,21.979434 L 37.068811,17.246167 C 37.068811,17.246167 37.088388,32 37.088388,32 L 22.160133,31.978069 C 22.160133,31.978069 26.997745,27.140456 26.997745,27.140456 C 18.528582,18.264221 13.291696,25.230495 11.500037,31.436501 z"
             style="fill:#404040;"/>
          </a>
         </g>
        </svg>
</svg>
