<?xml version="1.0" encoding="UTF-8" standalone="no"?>
<!DOCTYPE svg PUBLIC "-//W3C//DTD SVG 1.1//EN"
 "http://www.w3.org/Graphics/SVG/1.1/DTD/svg11.dtd">
<!-- Generated by graphviz version 2.26.3 (20100126.1600)
 -->
<!-- Title: G Pages: 1 -->
<svg width="436pt" height="110pt"
 viewBox="0.00 0.00 436.00 110.00" xmlns="http://www.w3.org/2000/svg" xmlns:xlink="http://www.w3.org/1999/xlink">
<g id="graph1" class="graph" transform="scale(1 1) rotate(0) translate(4 106)">
<title>G</title>
<polygon fill="white" stroke="white" points="-4,5 -4,-106 433,-106 433,5 -4,5"/>
<!-- Node1 -->
<g id="node1" class="node"><title>Node1</title>
<polygon fill="#bfbfbf" stroke="black" points="0.5,-40.5 0.5,-61.5 143.5,-61.5 143.5,-40.5 0.5,-40.5"/>
<text text-anchor="middle" x="72" y="-48.5" font-family="FreeSans.ttf" font-size="10.00">SocketClient::SocketClient</text>
</g>
<!-- Node2 -->
<g id="node3" class="node"><title>Node2</title>
<a xlink:href="classSocketClient.xhtml#aa3e0896a5e763ae0a7b250396d722084" target="_top" xlink:title="SocketClient::sServer">
<polygon fill="white" stroke="black" points="180.5,-80.5 180.5,-101.5 299.5,-101.5 299.5,-80.5 180.5,-80.5"/>
<text text-anchor="middle" x="240" y="-88.5" font-family="FreeSans.ttf" font-size="10.00">SocketClient::sServer</text>
</a>
</g>
<!-- Node1&#45;&gt;Node2 -->
<g id="edge2" class="edge"><title>Node1&#45;&gt;Node2</title>
<path fill="none" stroke="midnightblue" d="M116.14,-61.5095C137.566,-66.6108 163.495,-72.7845 186.081,-78.1622"/>
<polygon fill="midnightblue" stroke="midnightblue" points="185.325,-81.5798 195.863,-80.4913 186.946,-74.7702 185.325,-81.5798"/>
</g>
<!-- Node4 -->
<g id="node7" class="node"><title>Node4</title>
<a xlink:href="classServer.xhtml#a2b261b9b308edee58ec6191966bd019a" target="_top" xlink:title="Server::sSocketOpen">
<polygon fill="white" stroke="black" points="181,-40.5 181,-61.5 299,-61.5 299,-40.5 181,-40.5"/>
<text text-anchor="middle" x="240" y="-48.5" font-family="FreeSans.ttf" font-size="10.00">Server::sSocketOpen</text>
</a>
</g>
<!-- Node1&#45;&gt;Node4 -->
<g id="edge6" class="edge"><title>Node1&#45;&gt;Node4</title>
<path fill="none" stroke="midnightblue" d="M143.734,-51C152.644,-51 161.743,-51 170.616,-51"/>
<polygon fill="midnightblue" stroke="midnightblue" points="170.905,-54.5001 180.905,-51 170.905,-47.5001 170.905,-54.5001"/>
</g>
<!-- Node5 -->
<g id="node9" class="node"><title>Node5</title>
<a xlink:href="classServer.xhtml#a0c8164b5ed4b2c6efd0ecbd2a8c8a503" target="_top" xlink:title="Server::gSocketOpen">
<polygon fill="white" stroke="black" points="180.5,-0.5 180.5,-21.5 299.5,-21.5 299.5,-0.5 180.5,-0.5"/>
<text text-anchor="middle" x="240" y="-8.5" font-family="FreeSans.ttf" font-size="10.00">Server::gSocketOpen</text>
</a>
</g>
<!-- Node1&#45;&gt;Node5 -->
<g id="edge8" class="edge"><title>Node1&#45;&gt;Node5</title>
<path fill="none" stroke="midnightblue" d="M116.14,-40.4905C137.566,-35.3892 163.495,-29.2155 186.081,-23.8378"/>
<polygon fill="midnightblue" stroke="midnightblue" points="186.946,-27.2298 195.863,-21.5087 185.325,-20.4202 186.946,-27.2298"/>
</g>
<!-- Node3 -->
<g id="node5" class="node"><title>Node3</title>
<a xlink:href="classServer.xhtml#ae3d4d866381050c00f383248872877ea" target="_top" xlink:title="Server::Running">
<polygon fill="white" stroke="black" points="336,-80.5 336,-101.5 428,-101.5 428,-80.5 336,-80.5"/>
<text text-anchor="middle" x="382" y="-88.5" font-family="FreeSans.ttf" font-size="10.00">Server::Running</text>
</a>
</g>
<!-- Node2&#45;&gt;Node3 -->
<g id="edge4" class="edge"><title>Node2&#45;&gt;Node3</title>
<path fill="none" stroke="midnightblue" d="M299.809,-91C308.323,-91 317.058,-91 325.506,-91"/>
<polygon fill="midnightblue" stroke="midnightblue" points="325.634,-94.5001 335.634,-91 325.634,-87.5001 325.634,-94.5001"/>
</g>
</g>
</svg>
