<?xml version="1.0" encoding="UTF-8" standalone="no"?>
<!DOCTYPE svg PUBLIC "-//W3C//DTD SVG 1.1//EN"
 "http://www.w3.org/Graphics/SVG/1.1/DTD/svg11.dtd">
<!-- Generated by graphviz version 2.26.3 (20100126.1600)
 -->
<!-- Title: G Pages: 1 -->
<!--zoomable 388 -->
<svg id="main" version="1.1" xmlns="http://www.w3.org/2000/svg" xmlns:xlink="http://www.w3.org/1999/xlink" xml:space="preserve" onload="init(evt)">
        <defs>
                <circle id="rim" cx="0" cy="0" r="7"/>
                <circle id="rim2" cx="0" cy="0" r="3.5"/>
                <g id="zoomPlus">
                        <use xlink:href="#rim" fill="#404040">
                                <set attributeName="fill" to="#808080" begin="zoomplus.mouseover" end="zoomplus.mouseout"/>
                        </use>
                        <path d="M-4,0h8M0,-4v8" fill="none" stroke="white" stroke-width="1.5" pointer-events="none"/>
                </g>
                <g id="zoomMin">
                        <use xlink:href="#rim" fill="#404040">
                                <set attributeName="fill" to="#808080" begin="zoomminus.mouseover" end="zoomminus.mouseout"/>
                        </use>
                        <path d="M-4,0h8" fill="none" stroke="white" stroke-width="1.5" pointer-events="none"/>
                </g>
                <g id="dirArrow">
                        <path fill="none" stroke="white" stroke-width="1.5" d="M0,-3.0v7 M-2.5,-0.5L0,-3.0L2.5,-0.5"/>
                </g>
               <g id="resetDef">
                       <use xlink:href="#rim2" fill="#404040">
                               <set attributeName="fill" to="#808080" begin="reset.mouseover" end="reset.mouseout"/>
                       </use>
               </g>
        </defs>

<script type="text/javascript">
var viewWidth = 522;
var viewHeight = 388;
var sectionId = 'dynsection-8';
</script>
<script xlink:href="svgpan.js"/>
<svg id="graph" class="graph">
<g id="viewport">
<title>G</title>
<polygon fill="white" stroke="white" points="-4,5 -4,-384 519,-384 519,5 -4,5"/>
<!-- Node1 -->
<g id="node1" class="node"><title>Node1</title>
<polygon fill="#bfbfbf" stroke="black" points="0,-200.5 0,-221.5 90,-221.5 90,-200.5 0,-200.5"/>
<text text-anchor="middle" x="45" y="-208.5" font-family="FreeSans.ttf" font-size="10.00">Character::New</text>
</g>
<!-- Node2 -->
<g id="node3" class="node"><title>Node2</title>
<a xlink:href="classThing.xhtml#a4737f44c77897dbe813fc6308cdeaa04" target="_top" xlink:title="Associates a Server to this Thing.">
<polygon fill="white" stroke="black" points="144.5,-220.5 144.5,-241.5 229.5,-241.5 229.5,-220.5 144.5,-220.5"/>
<text text-anchor="middle" x="187" y="-228.5" font-family="FreeSans.ttf" font-size="10.00">Thing::sServer</text>
</a>
</g>
<!-- Node1&#45;&gt;Node2 -->
<g id="edge2" class="edge"><title>Node1&#45;&gt;Node2</title>
<path fill="none" stroke="midnightblue" d="M90.3201,-217.383C104.167,-219.333 119.519,-221.496 133.837,-223.512"/>
<polygon fill="midnightblue" stroke="midnightblue" points="133.653,-227.021 144.043,-224.95 134.629,-220.089 133.653,-227.021"/>
</g>
<!-- Node3 -->
<g id="node5" class="node"><title>Node3</title>
<a xlink:href="classCharacter.xhtml#a91193d9bb29423c2ec95fb56c27d6bb3" target="_top" xlink:title="Unserialize the character data.">
<polygon fill="white" stroke="black" points="126,-180.5 126,-201.5 248,-201.5 248,-180.5 126,-180.5"/>
<text text-anchor="middle" x="187" y="-188.5" font-family="FreeSans.ttf" font-size="10.00">Character::Unserialize</text>
</a>
</g>
<!-- Node1&#45;&gt;Node3 -->
<g id="edge4" class="edge"><title>Node1&#45;&gt;Node3</title>
<path fill="none" stroke="midnightblue" d="M90.3201,-204.617C98.4292,-203.475 107.055,-202.26 115.686,-201.044"/>
<polygon fill="midnightblue" stroke="midnightblue" points="116.378,-204.481 125.792,-199.621 115.401,-197.55 116.378,-204.481"/>
</g>
<!-- Node4 -->
<g id="node7" class="node"><title>Node4</title>
<a xlink:href="namespaceUtils.xhtml#a67fd451200ee8a3cc646aeba5cb9513b" target="_top" xlink:title="Begins a write to a temporary file that is intended to replace a live file.">
<polygon fill="white" stroke="black" points="300,-358.5 300,-379.5 384,-379.5 384,-358.5 300,-358.5"/>
<text text-anchor="middle" x="342" y="-366.5" font-family="FreeSans.ttf" font-size="10.00">Utils::FileOpen</text>
</a>
</g>
<!-- Node3&#45;&gt;Node4 -->
<g id="edge6" class="edge"><title>Node3&#45;&gt;Node4</title>
<path fill="none" stroke="midnightblue" d="M235.377,-201.627C240.057,-204.121 244.395,-207.2 248,-211 290.151,-255.423 243.894,-297.723 284,-344 287.198,-347.69 291.038,-350.853 295.201,-353.56"/>
<polygon fill="midnightblue" stroke="midnightblue" points="293.653,-356.704 304.095,-358.5 297.052,-350.585 293.653,-356.704"/>
</g>
<!-- Node5 -->
<g id="node9" class="node"><title>Node5</title>
<a xlink:href="namespaceUtils.xhtml#ad21617b756ef242fbc66e63dec3e4e4d" target="_top" xlink:title="Returns a string consisting of directory/file.ext.">
<polygon fill="white" stroke="black" points="436,-338.5 436,-359.5 514,-359.5 514,-338.5 436,-338.5"/>
<text text-anchor="middle" x="475" y="-346.5" font-family="FreeSans.ttf" font-size="10.00">Utils::DirPath</text>
</a>
</g>
<!-- Node3&#45;&gt;Node5 -->
<g id="edge10" class="edge"><title>Node3&#45;&gt;Node5</title>
<path fill="none" stroke="midnightblue" d="M234.469,-201.618C239.431,-204.113 244.083,-207.194 248,-211 281.878,-243.918 248.203,-280.18 284,-311 304.811,-328.917 376.118,-339.396 425.457,-344.663"/>
<polygon fill="midnightblue" stroke="midnightblue" points="425.32,-348.167 435.625,-345.708 426.036,-341.204 425.32,-348.167"/>
</g>
<!-- Node6 -->
<g id="node12" class="node"><title>Node6</title>
<a xlink:href="classCharacter.xhtml#a9dce3d7ce7ac17f02397d198e47707ef" target="_top" xlink:title="Returns the Account associated with this Character, if any.">
<polygon fill="white" stroke="black" points="284.5,-280.5 284.5,-301.5 399.5,-301.5 399.5,-280.5 284.5,-280.5"/>
<text text-anchor="middle" x="342" y="-288.5" font-family="FreeSans.ttf" font-size="10.00">Character::gAccount</text>
</a>
</g>
<!-- Node3&#45;&gt;Node6 -->
<g id="edge12" class="edge"><title>Node3&#45;&gt;Node6</title>
<path fill="none" stroke="midnightblue" d="M231.903,-201.556C237.661,-204.072 243.209,-207.176 248,-211 272.306,-230.399 259.843,-251.416 284,-271 286.063,-272.673 288.275,-274.209 290.587,-275.62"/>
<polygon fill="midnightblue" stroke="midnightblue" points="289.409,-278.953 299.895,-280.464 292.64,-272.743 289.409,-278.953"/>
</g>
<!-- Node7 -->
<g id="node14" class="node"><title>Node7</title>
<a xlink:href="classThing.xhtml#a3c3c40c996ff562baa335f2ded022578" target="_top" xlink:title="Returns the name associated with this Thing.">
<polygon fill="white" stroke="black" points="300.5,-240.5 300.5,-261.5 383.5,-261.5 383.5,-240.5 300.5,-240.5"/>
<text text-anchor="middle" x="342" y="-248.5" font-family="FreeSans.ttf" font-size="10.00">Thing::gName</text>
</a>
</g>
<!-- Node3&#45;&gt;Node7 -->
<g id="edge14" class="edge"><title>Node3&#45;&gt;Node7</title>
<path fill="none" stroke="midnightblue" d="M222.909,-201.513C231.26,-204.303 240.034,-207.519 248,-211 264.772,-218.329 267.284,-223.544 284,-231 288.683,-233.089 293.655,-235.099 298.643,-236.987"/>
<polygon fill="midnightblue" stroke="midnightblue" points="297.588,-240.327 308.182,-240.454 299.979,-233.749 297.588,-240.327"/>
</g>
<!-- Node8 -->
<g id="node16" class="node"><title>Node8</title>
<a xlink:href="namespaceUtils.xhtml#a4a4d3dfd2ddb691bc5bcff82252c058b" target="_top" xlink:title="Splits a string in the format of key=value. Retains any whitespace in the value.">
<polygon fill="white" stroke="black" points="299,-200.5 299,-221.5 385,-221.5 385,-200.5 299,-200.5"/>
<text text-anchor="middle" x="342" y="-208.5" font-family="FreeSans.ttf" font-size="10.00">Utils::KeyValue</text>
</a>
</g>
<!-- Node3&#45;&gt;Node8 -->
<g id="edge16" class="edge"><title>Node3&#45;&gt;Node8</title>
<path fill="none" stroke="midnightblue" d="M248.26,-198.905C261.614,-200.628 275.642,-202.438 288.659,-204.117"/>
<polygon fill="midnightblue" stroke="midnightblue" points="288.484,-207.624 298.85,-205.432 289.38,-200.681 288.484,-207.624"/>
</g>
<!-- Node9 -->
<g id="node18" class="node"><title>Node9</title>
<a xlink:href="classThing.xhtml#a946fbf68bcd90ea5b26f4cce0b37132b" target="_top" xlink:title="Sets the id of this Thing.">
<polygon fill="white" stroke="black" points="311,-160.5 311,-181.5 373,-181.5 373,-160.5 311,-160.5"/>
<text text-anchor="middle" x="342" y="-168.5" font-family="FreeSans.ttf" font-size="10.00">Thing::sId</text>
</a>
</g>
<!-- Node3&#45;&gt;Node9 -->
<g id="edge18" class="edge"><title>Node3&#45;&gt;Node9</title>
<path fill="none" stroke="midnightblue" d="M248.26,-183.095C265.891,-180.82 284.697,-178.394 300.801,-176.316"/>
<polygon fill="midnightblue" stroke="midnightblue" points="301.484,-179.757 310.954,-175.006 300.588,-172.815 301.484,-179.757"/>
</g>
<!-- Node10 -->
<g id="node20" class="node"><title>Node10</title>
<a xlink:href="classThing.xhtml#a69568f79edcdf1b0225f1b764a7ceb41" target="_top" xlink:title="Sets the name of this Thing.">
<polygon fill="white" stroke="black" points="300.5,-120.5 300.5,-141.5 383.5,-141.5 383.5,-120.5 300.5,-120.5"/>
<text text-anchor="middle" x="342" y="-128.5" font-family="FreeSans.ttf" font-size="10.00">Thing::sName</text>
</a>
</g>
<!-- Node3&#45;&gt;Node10 -->
<g id="edge20" class="edge"><title>Node3&#45;&gt;Node10</title>
<path fill="none" stroke="midnightblue" d="M211.559,-180.402C231.073,-172.096 259.125,-160.408 284,-151 289.293,-148.998 294.886,-146.966 300.428,-145.002"/>
<polygon fill="midnightblue" stroke="midnightblue" points="301.986,-148.165 310.271,-141.562 299.677,-141.557 301.986,-148.165"/>
</g>
<!-- Node11 -->
<g id="node22" class="node"><title>Node11</title>
<a xlink:href="namespaceUtils.xhtml#aba8fca9daa0f767d7f5af5e2b1d6b81d" target="_top" xlink:title="If the contents of keyd == valu, assigns loc = item.">
<polygon fill="white" stroke="black" points="303.5,-80.5 303.5,-101.5 380.5,-101.5 380.5,-80.5 303.5,-80.5"/>
<text text-anchor="middle" x="342" y="-88.5" font-family="FreeSans.ttf" font-size="10.00">Utils::KeySet</text>
</a>
</g>
<!-- Node3&#45;&gt;Node11 -->
<g id="edge22" class="edge"><title>Node3&#45;&gt;Node11</title>
<path fill="none" stroke="midnightblue" d="M197.388,-180.235C214.181,-163.374 248.963,-130.638 284,-111 287.658,-108.949 291.564,-107.057 295.553,-105.321"/>
<polygon fill="midnightblue" stroke="midnightblue" points="296.959,-108.529 304.938,-101.559 294.354,-102.031 296.959,-108.529"/>
</g>
<!-- Node12 -->
<g id="node24" class="node"><title>Node12</title>
<a xlink:href="classThing.xhtml#aea5dad4f4241b325cdf64b232e84e602" target="_top" xlink:title="Returns the id associated with this Thing.">
<polygon fill="white" stroke="black" points="311,-40.5 311,-61.5 373,-61.5 373,-40.5 311,-40.5"/>
<text text-anchor="middle" x="342" y="-48.5" font-family="FreeSans.ttf" font-size="10.00">Thing::gId</text>
</a>
</g>
<!-- Node3&#45;&gt;Node12 -->
<g id="edge24" class="edge"><title>Node3&#45;&gt;Node12</title>
<path fill="none" stroke="midnightblue" d="M192.793,-180.354C205.949,-157.141 240.352,-101.606 284,-71 289.265,-67.308 295.273,-64.245 301.38,-61.7198"/>
<polygon fill="midnightblue" stroke="midnightblue" points="302.797,-64.9275 310.967,-58.1809 300.373,-58.3607 302.797,-64.9275"/>
</g>
<!-- Node13 -->
<g id="node26" class="node"><title>Node13</title>
<a xlink:href="namespaceUtils.xhtml#a7008f8effca71806721305d1834bde1e" target="_top" xlink:title="Completes a read from a file.">
<polygon fill="white" stroke="black" points="299.5,-0.5 299.5,-21.5 384.5,-21.5 384.5,-0.5 299.5,-0.5"/>
<text text-anchor="middle" x="342" y="-8.5" font-family="FreeSans.ttf" font-size="10.00">Utils::FileClose</text>
</a>
</g>
<!-- Node3&#45;&gt;Node13 -->
<g id="edge26" class="edge"><title>Node3&#45;&gt;Node13</title>
<path fill="none" stroke="midnightblue" d="M192.237,-180.361C208.267,-148.159 257.203,-52.6224 284,-31 286.067,-29.332 288.282,-27.7993 290.596,-26.3911"/>
<polygon fill="midnightblue" stroke="midnightblue" points="292.648,-29.2694 299.911,-21.5558 289.423,-23.0566 292.648,-29.2694"/>
</g>
<!-- Node4&#45;&gt;Node5 -->
<g id="edge8" class="edge"><title>Node4&#45;&gt;Node5</title>
<path fill="none" stroke="midnightblue" d="M384.082,-362.672C397.303,-360.684 412.018,-358.471 425.693,-356.415"/>
<polygon fill="midnightblue" stroke="midnightblue" points="426.536,-359.827 435.905,-354.879 425.495,-352.905 426.536,-359.827"/>
</g>
</g>
</svg>
        <g id="navigator" transform="translate(0 0)" fill="#404254">
                <rect fill="#f2f5e9" fill-opacity="0.5" stroke="#606060" stroke-width=".5" x="0" y="0" width="60" height="60"/>
                <use id="zoomplus" xlink:href="#zoomPlus" x="17" y="9" onmousedown="handleZoom(evt,'in')"/>
                <use id="zoomminus" xlink:href="#zoomMin" x="42" y="9" onmousedown="handleZoom(evt,'out')"/>
                <use id="reset" xlink:href="#resetDef" x="30" y="36" onmousedown="handleReset()"/>
                <g id="arrowUp" xlink:href="#dirArrow" transform="translate(30 24)" onmousedown="handlePan(0,-1)">
                  <use xlink:href="#rim" fill="#404040">
                        <set attributeName="fill" to="#808080" begin="arrowUp.mouseover" end="arrowUp.mouseout"/>
                  </use>
                  <path fill="none" stroke="white" stroke-width="1.5" d="M0,-3.0v7 M-2.5,-0.5L0,-3.0L2.5,-0.5"/>
                </g>
                <g id="arrowRight" xlink:href="#dirArrow" transform="rotate(90) translate(36 -43)" onmousedown="handlePan(1,0)">
                  <use xlink:href="#rim" fill="#404040">
                        <set attributeName="fill" to="#808080" begin="arrowRight.mouseover" end="arrowRight.mouseout"/>
                  </use>
                  <path fill="none" stroke="white" stroke-width="1.5" d="M0,-3.0v7 M-2.5,-0.5L0,-3.0L2.5,-0.5"/>
                </g>
                <g id="arrowDown" xlink:href="#dirArrow" transform="rotate(180) translate(-30 -48)" onmousedown="handlePan(0,1)">
                  <use xlink:href="#rim" fill="#404040">
                        <set attributeName="fill" to="#808080" begin="arrowDown.mouseover" end="arrowDown.mouseout"/>
                  </use>
                  <path fill="none" stroke="white" stroke-width="1.5" d="M0,-3.0v7 M-2.5,-0.5L0,-3.0L2.5,-0.5"/>
                </g>
                <g id="arrowLeft" xlink:href="#dirArrow" transform="rotate(270) translate(-36 17)" onmousedown="handlePan(-1,0)">
                  <use xlink:href="#rim" fill="#404040">
                        <set attributeName="fill" to="#808080" begin="arrowLeft.mouseover" end="arrowLeft.mouseout"/>
                  </use>
                  <path fill="none" stroke="white" stroke-width="1.5" d="M0,-3.0v7 M-2.5,-0.5L0,-3.0L2.5,-0.5"/>
                </g>
        </g>
</svg>
