<?xml version="1.0" encoding="UTF-8" standalone="no"?>
<!DOCTYPE svg PUBLIC "-//W3C//DTD SVG 1.1//EN"
 "http://www.w3.org/Graphics/SVG/1.1/DTD/svg11.dtd">
<!-- Generated by graphviz version 2.26.3 (20100126.1600)
 -->
<!-- Title: G Pages: 1 -->
<!--zoomable 137 -->
<svg id="main" version="1.1" xmlns="http://www.w3.org/2000/svg" xmlns:xlink="http://www.w3.org/1999/xlink" xml:space="preserve" onload="init(evt)">
        <defs>
                <circle id="rim" cx="0" cy="0" r="7"/>
                <circle id="rim2" cx="0" cy="0" r="3.5"/>
                <g id="zoomPlus">
                        <use xlink:href="#rim" fill="#404040">
                                <set attributeName="fill" to="#808080" begin="zoomplus.mouseover" end="zoomplus.mouseout"/>
                        </use>
                        <path d="M-4,0h8M0,-4v8" fill="none" stroke="white" stroke-width="1.5" pointer-events="none"/>
                </g>
                <g id="zoomMin">
                        <use xlink:href="#rim" fill="#404040">
                                <set attributeName="fill" to="#808080" begin="zoomminus.mouseover" end="zoomminus.mouseout"/>
                        </use>
                        <path d="M-4,0h8" fill="none" stroke="white" stroke-width="1.5" pointer-events="none"/>
                </g>
                <g id="dirArrow">
                        <path fill="none" stroke="white" stroke-width="1.5" d="M0,-3.0v7 M-2.5,-0.5L0,-3.0L2.5,-0.5"/>
                </g>
               <g id="resetDef">
                       <use xlink:href="#rim2" fill="#404040">
                               <set attributeName="fill" to="#808080" begin="reset.mouseover" end="reset.mouseout"/>
                       </use>
               </g>
        </defs>

<script type="text/javascript">
var viewWidth = 948;
var viewHeight = 137;
var sectionId = 'dynsection-5';
</script>
<script xlink:href="svgpan.js"/>
<svg id="graph" class="graph">
<g id="viewport">
<title>G</title>
<polygon fill="white" stroke="white" points="-4,5 -4,-133 945,-133 945,5 -4,5"/>
<!-- Node1 -->
<g id="node1" class="node"><title>Node1</title>
<polygon fill="#bfbfbf" stroke="black" points="0.5,-78.5 0.5,-99.5 93.5,-99.5 93.5,-78.5 0.5,-78.5"/>
<text text-anchor="middle" x="47" y="-86.5" font-family="FreeSans.ttf" font-size="10.00">Server::gSocket</text>
</g>
<!-- Node2 -->
<g id="node3" class="node"><title>Node2</title>
<a xlink:href="classSocketClient.xhtml#a9ee09f452d900e288b2aa187561ef05d" target="_top" xlink:title="Receive data from the client and append it to a receive buffer.">
<polygon fill="white" stroke="black" points="132,-107.5 132,-128.5 236,-128.5 236,-107.5 132,-107.5"/>
<text text-anchor="middle" x="184" y="-115.5" font-family="FreeSans.ttf" font-size="10.00">SocketClient::Recv</text>
</a>
</g>
<!-- Node1&#45;&gt;Node2 -->
<g id="edge2" class="edge"><title>Node1&#45;&gt;Node2</title>
<path fill="none" stroke="midnightblue" d="M103.717,-101.006C113.82,-103.144 124.277,-105.358 134.17,-107.452"/>
<polygon fill="midnightblue" stroke="midnightblue" points="104.273,-97.5459 93.7645,-98.899 102.823,-104.394 104.273,-97.5459"/>
</g>
<!-- Node6 -->
<g id="node11" class="node"><title>Node6</title>
<a xlink:href="classSocketClient.xhtml#a6268f3d184970ec0076da657c39d2e80" target="_top" xlink:title="Process data from the client&#39;s send buffer and transmit it via the socket.">
<polygon fill="white" stroke="black" points="130.5,-49.5 130.5,-70.5 237.5,-70.5 237.5,-49.5 130.5,-49.5"/>
<text text-anchor="middle" x="184" y="-57.5" font-family="FreeSans.ttf" font-size="10.00">SocketClient::Send</text>
</a>
</g>
<!-- Node1&#45;&gt;Node6 -->
<g id="edge10" class="edge"><title>Node1&#45;&gt;Node6</title>
<path fill="none" stroke="midnightblue" d="M103.717,-76.9943C113.82,-74.8555 124.277,-72.6421 134.17,-70.5479"/>
<polygon fill="midnightblue" stroke="midnightblue" points="102.823,-73.6058 93.7645,-79.101 104.273,-80.4541 102.823,-73.6058"/>
</g>
<!-- Node3 -->
<g id="node5" class="node"><title>Node3</title>
<a xlink:href="classServer.xhtml#a39dbe16fdc8c5f6fbd678c6540fbcd6c" target="_top" xlink:title="Server::PollSockets">
<polygon fill="white" stroke="black" points="623.5,-69.5 623.5,-90.5 732.5,-90.5 732.5,-69.5 623.5,-69.5"/>
<text text-anchor="middle" x="678" y="-77.5" font-family="FreeSans.ttf" font-size="10.00">Server::PollSockets</text>
</a>
</g>
<!-- Node2&#45;&gt;Node3 -->
<g id="edge4" class="edge"><title>Node2&#45;&gt;Node3</title>
<path fill="none" stroke="midnightblue" d="M246.438,-115.549C325.244,-112.122 464.901,-104.94 584,-93 596.786,-91.7181 610.507,-90.0105 623.407,-88.2556"/>
<polygon fill="midnightblue" stroke="midnightblue" points="246.039,-112.063 236.198,-115.988 246.339,-119.057 246.039,-112.063"/>
</g>
<!-- Node4 -->
<g id="node7" class="node"><title>Node4</title>
<a xlink:href="classServer.xhtml#a50b81aa91d8fdaee6f52c5c5ec987990" target="_top" xlink:title="The core update loop of NAMS. This loop spawns all other subsystem update routines and then sleeps fo...">
<polygon fill="white" stroke="black" points="772.5,-44.5 772.5,-65.5 861.5,-65.5 861.5,-44.5 772.5,-44.5"/>
<text text-anchor="middle" x="817" y="-52.5" font-family="FreeSans.ttf" font-size="10.00">Server::Update</text>
</a>
</g>
<!-- Node3&#45;&gt;Node4 -->
<g id="edge6" class="edge"><title>Node3&#45;&gt;Node4</title>
<path fill="none" stroke="midnightblue" d="M742.574,-68.386C752.688,-66.5669 762.943,-64.7225 772.474,-63.0082"/>
<polygon fill="midnightblue" stroke="midnightblue" points="741.76,-64.9761 732.538,-70.1911 742.999,-71.8656 741.76,-64.9761"/>
</g>
<!-- Node5 -->
<g id="node9" class="node"><title>Node5</title>
<a xlink:href="main_8cpp.xhtml#ad53223b8779f25caeddb70a3b9172967" target="_top" xlink:title="The default function required to execute the server.">
<polygon fill="white" stroke="black" points="898.5,-44.5 898.5,-65.5 939.5,-65.5 939.5,-44.5 898.5,-44.5"/>
<text text-anchor="middle" x="919" y="-52.5" font-family="FreeSans.ttf" font-size="10.00">main</text>
</a>
</g>
<!-- Node4&#45;&gt;Node5 -->
<g id="edge8" class="edge"><title>Node4&#45;&gt;Node5</title>
<path fill="none" stroke="midnightblue" d="M871.942,-55C881.336,-55 890.55,-55 898.3,-55"/>
<polygon fill="midnightblue" stroke="midnightblue" points="871.739,-51.5001 861.739,-55 871.739,-58.5001 871.739,-51.5001"/>
</g>
<!-- Node6&#45;&gt;Node3 -->
<g id="edge12" class="edge"><title>Node6&#45;&gt;Node3</title>
<path fill="none" stroke="midnightblue" d="M247.885,-68.6018C256.647,-69.5492 265.536,-70.39 274,-71 398.73,-79.9894 545.63,-80.8237 623.356,-80.5013"/>
<polygon fill="midnightblue" stroke="midnightblue" points="248.023,-65.0951 237.693,-67.4481 247.235,-72.0507 248.023,-65.0951"/>
</g>
<!-- Node7 -->
<g id="node14" class="node"><title>Node7</title>
<a xlink:href="classSocketClient.xhtml#a6b296c5002caa1229e7d7b9be6f08607" target="_top" xlink:title="Build a socket for a new client connection and set all attributes.">
<polygon fill="white" stroke="black" points="274.5,-40.5 274.5,-61.5 377.5,-61.5 377.5,-40.5 274.5,-40.5"/>
<text text-anchor="middle" x="326" y="-48.5" font-family="FreeSans.ttf" font-size="10.00">SocketClient::New</text>
</a>
</g>
<!-- Node6&#45;&gt;Node7 -->
<g id="edge14" class="edge"><title>Node6&#45;&gt;Node7</title>
<path fill="none" stroke="midnightblue" d="M247.889,-55.9507C256.667,-55.3943 265.592,-54.8287 274.119,-54.2882"/>
<polygon fill="midnightblue" stroke="midnightblue" points="247.443,-52.4719 237.684,-56.5975 247.886,-59.4579 247.443,-52.4719"/>
</g>
<!-- Node9 -->
<g id="node19" class="node"><title>Node9</title>
<a xlink:href="classSocketClient.xhtml#ad4f63c7d906310dc56a1217136047d7f" target="_top" xlink:title="Interpret the command at the front of the queue.">
<polygon fill="white" stroke="black" points="414,-0.5 414,-21.5 584,-21.5 584,-0.5 414,-0.5"/>
<text text-anchor="middle" x="499" y="-8.5" font-family="FreeSans.ttf" font-size="10.00">SocketClient::ProcessCommand</text>
</a>
</g>
<!-- Node6&#45;&gt;Node9 -->
<g id="edge20" class="edge"><title>Node6&#45;&gt;Node9</title>
<path fill="none" stroke="midnightblue" d="M220.738,-46.111C236.861,-40.5535 256.147,-34.6224 274,-31 319.736,-21.72 371.569,-16.7459 413.949,-14.0798"/>
<polygon fill="midnightblue" stroke="midnightblue" points="219.412,-42.8674 211.15,-49.4991 221.745,-49.4675 219.412,-42.8674"/>
</g>
<!-- Node8 -->
<g id="node16" class="node"><title>Node8</title>
<a xlink:href="classSocketServer.xhtml#afdbc60c3bc840875d2214b59c6213f63" target="_top" xlink:title="Accept a new connection on the listening port.">
<polygon fill="white" stroke="black" points="439,-40.5 439,-61.5 559,-61.5 559,-40.5 439,-40.5"/>
<text text-anchor="middle" x="499" y="-48.5" font-family="FreeSans.ttf" font-size="10.00">SocketServer::Accept</text>
</a>
</g>
<!-- Node7&#45;&gt;Node8 -->
<g id="edge16" class="edge"><title>Node7&#45;&gt;Node8</title>
<path fill="none" stroke="midnightblue" d="M388.027,-51C404.594,-51 422.465,-51 438.924,-51"/>
<polygon fill="midnightblue" stroke="midnightblue" points="387.906,-47.5001 377.906,-51 387.906,-54.5001 387.906,-47.5001"/>
</g>
<!-- Node8&#45;&gt;Node3 -->
<g id="edge18" class="edge"><title>Node8&#45;&gt;Node3</title>
<path fill="none" stroke="midnightblue" d="M569.017,-62.3435C587.106,-65.2742 606.311,-68.3856 623.478,-71.1669"/>
<polygon fill="midnightblue" stroke="midnightblue" points="569.533,-58.8816 559.102,-60.7373 568.414,-65.7915 569.533,-58.8816"/>
</g>
<!-- Node10 -->
<g id="node21" class="node"><title>Node10</title>
<a xlink:href="classServer.xhtml#a7f5259e36a6bcf3a78a5bede522c3632" target="_top" xlink:title="Server::ProcessInput">
<polygon fill="white" stroke="black" points="620,-19.5 620,-40.5 736,-40.5 736,-19.5 620,-19.5"/>
<text text-anchor="middle" x="678" y="-27.5" font-family="FreeSans.ttf" font-size="10.00">Server::ProcessInput</text>
</a>
</g>
<!-- Node9&#45;&gt;Node10 -->
<g id="edge22" class="edge"><title>Node9&#45;&gt;Node10</title>
<path fill="none" stroke="midnightblue" d="M594.249,-21.1102C602.93,-22.0317 611.54,-22.9455 619.748,-23.8168"/>
<polygon fill="midnightblue" stroke="midnightblue" points="594.358,-17.6022 584.044,-20.027 593.619,-24.5631 594.358,-17.6022"/>
</g>
<!-- Node10&#45;&gt;Node4 -->
<g id="edge24" class="edge"><title>Node10&#45;&gt;Node4</title>
<path fill="none" stroke="midnightblue" d="M746.104,-42.2489C754.964,-43.8425 763.856,-45.4416 772.2,-46.9425"/>
<polygon fill="midnightblue" stroke="midnightblue" points="746.605,-38.7829 736.143,-40.4574 745.366,-45.6724 746.605,-38.7829"/>
</g>
</g>
</svg>
        <g id="navigator" transform="translate(0 0)" fill="#404254">
                <rect fill="#f2f5e9" fill-opacity="0.5" stroke="#606060" stroke-width=".5" x="0" y="0" width="60" height="60"/>
                <use id="zoomplus" xlink:href="#zoomPlus" x="17" y="9" onmousedown="handleZoom(evt,'in')"/>
                <use id="zoomminus" xlink:href="#zoomMin" x="42" y="9" onmousedown="handleZoom(evt,'out')"/>
                <use id="reset" xlink:href="#resetDef" x="30" y="36" onmousedown="handleReset()"/>
                <g id="arrowUp" xlink:href="#dirArrow" transform="translate(30 24)" onmousedown="handlePan(0,-1)">
                  <use xlink:href="#rim" fill="#404040">
                        <set attributeName="fill" to="#808080" begin="arrowUp.mouseover" end="arrowUp.mouseout"/>
                  </use>
                  <path fill="none" stroke="white" stroke-width="1.5" d="M0,-3.0v7 M-2.5,-0.5L0,-3.0L2.5,-0.5"/>
                </g>
                <g id="arrowRight" xlink:href="#dirArrow" transform="rotate(90) translate(36 -43)" onmousedown="handlePan(1,0)">
                  <use xlink:href="#rim" fill="#404040">
                        <set attributeName="fill" to="#808080" begin="arrowRight.mouseover" end="arrowRight.mouseout"/>
                  </use>
                  <path fill="none" stroke="white" stroke-width="1.5" d="M0,-3.0v7 M-2.5,-0.5L0,-3.0L2.5,-0.5"/>
                </g>
                <g id="arrowDown" xlink:href="#dirArrow" transform="rotate(180) translate(-30 -48)" onmousedown="handlePan(0,1)">
                  <use xlink:href="#rim" fill="#404040">
                        <set attributeName="fill" to="#808080" begin="arrowDown.mouseover" end="arrowDown.mouseout"/>
                  </use>
                  <path fill="none" stroke="white" stroke-width="1.5" d="M0,-3.0v7 M-2.5,-0.5L0,-3.0L2.5,-0.5"/>
                </g>
                <g id="arrowLeft" xlink:href="#dirArrow" transform="rotate(270) translate(-36 17)" onmousedown="handlePan(-1,0)">
                  <use xlink:href="#rim" fill="#404040">
                        <set attributeName="fill" to="#808080" begin="arrowLeft.mouseover" end="arrowLeft.mouseout"/>
                  </use>
                  <path fill="none" stroke="white" stroke-width="1.5" d="M0,-3.0v7 M-2.5,-0.5L0,-3.0L2.5,-0.5"/>
                </g>
        </g>
</svg>
