<?xml version="1.0" encoding="UTF-8" standalone="no"?>
<!DOCTYPE svg PUBLIC "-//W3C//DTD SVG 1.1//EN"
 "http://www.w3.org/Graphics/SVG/1.1/DTD/svg11.dtd">
<!-- Generated by graphviz version 2.26.3 (20100126.1600)
 -->
<!-- Title: G Pages: 1 -->
<!--zoomable 70 -->
<svg id="main" version="1.1" xmlns="http://www.w3.org/2000/svg" xmlns:xlink="http://www.w3.org/1999/xlink" xml:space="preserve" onload="init(evt)">
        <defs>
                <circle id="rim" cx="0" cy="0" r="7"/>
                <circle id="rim2" cx="0" cy="0" r="3.5"/>
                <g id="zoomPlus">
                        <use xlink:href="#rim" fill="#404040">
                                <set attributeName="fill" to="#808080" begin="zoomplus.mouseover" end="zoomplus.mouseout"/>
                        </use>
                        <path d="M-4,0h8M0,-4v8" fill="none" stroke="white" stroke-width="1.5" pointer-events="none"/>
                </g>
                <g id="zoomMin">
                        <use xlink:href="#rim" fill="#404040">
                                <set attributeName="fill" to="#808080" begin="zoomminus.mouseover" end="zoomminus.mouseout"/>
                        </use>
                        <path d="M-4,0h8" fill="none" stroke="white" stroke-width="1.5" pointer-events="none"/>
                </g>
                <g id="dirArrow">
                        <path fill="none" stroke="white" stroke-width="1.5" d="M0,-3.0v7 M-2.5,-0.5L0,-3.0L2.5,-0.5"/>
                </g>
               <g id="resetDef">
                       <use xlink:href="#rim2" fill="#404040">
                               <set attributeName="fill" to="#808080" begin="reset.mouseover" end="reset.mouseout"/>
                       </use>
               </g>
        </defs>

<script type="text/javascript">
var viewWidth = 1284;
var viewHeight = 70;
var sectionId = 'dynsection-4';
</script>
<script xlink:href="svgpan.js"/>
<svg id="graph" class="graph">
<g id="viewport">
<title>G</title>
<polygon fill="white" stroke="white" points="-4,5 -4,-66 1281,-66 1281,5 -4,5"/>
<!-- Node1 -->
<g id="node1" class="node"><title>Node1</title>
<polygon fill="#bfbfbf" stroke="black" points="0.5,-19.5 0.5,-40.5 111.5,-40.5 111.5,-19.5 0.5,-19.5"/>
<text text-anchor="middle" x="56" y="-27.5" font-family="FreeSans.ttf" font-size="10.00">Socket::gBytesSent</text>
</g>
<!-- Node2 -->
<g id="node3" class="node"><title>Node2</title>
<a xlink:href="classSocketClient.xhtml#a6268f3d184970ec0076da657c39d2e80" target="_top" xlink:title="Process data from the client&#39;s send buffer and transmit it via the socket.">
<polygon fill="white" stroke="black" points="148.5,-19.5 148.5,-40.5 255.5,-40.5 255.5,-19.5 148.5,-19.5"/>
<text text-anchor="middle" x="202" y="-27.5" font-family="FreeSans.ttf" font-size="10.00">SocketClient::Send</text>
</a>
</g>
<!-- Node1&#45;&gt;Node2 -->
<g id="edge2" class="edge"><title>Node1&#45;&gt;Node2</title>
<path fill="none" stroke="midnightblue" d="M121.651,-30C130.624,-30 139.746,-30 148.469,-30"/>
<polygon fill="midnightblue" stroke="midnightblue" points="121.613,-26.5001 111.613,-30 121.613,-33.5001 121.613,-26.5001"/>
</g>
<!-- Node3 -->
<g id="node5" class="node"><title>Node3</title>
<a xlink:href="classSocketClient.xhtml#a6b296c5002caa1229e7d7b9be6f08607" target="_top" xlink:title="Build a socket for a new client connection and set all attributes.">
<polygon fill="white" stroke="black" points="292.5,-39.5 292.5,-60.5 395.5,-60.5 395.5,-39.5 292.5,-39.5"/>
<text text-anchor="middle" x="344" y="-47.5" font-family="FreeSans.ttf" font-size="10.00">SocketClient::New</text>
</a>
</g>
<!-- Node2&#45;&gt;Node3 -->
<g id="edge4" class="edge"><title>Node2&#45;&gt;Node3</title>
<path fill="none" stroke="midnightblue" d="M265.603,-38.9582C274.473,-40.2075 283.5,-41.4788 292.119,-42.6929"/>
<polygon fill="midnightblue" stroke="midnightblue" points="266.075,-35.4901 255.684,-37.5611 265.098,-42.4217 266.075,-35.4901"/>
</g>
<!-- Node10 -->
<g id="node19" class="node"><title>Node10</title>
<a xlink:href="classSocketClient.xhtml#ad4f63c7d906310dc56a1217136047d7f" target="_top" xlink:title="Interpret the command at the front of the queue.">
<polygon fill="white" stroke="black" points="432,-0.5 432,-21.5 602,-21.5 602,-0.5 432,-0.5"/>
<text text-anchor="middle" x="517" y="-8.5" font-family="FreeSans.ttf" font-size="10.00">SocketClient::ProcessCommand</text>
</a>
</g>
<!-- Node2&#45;&gt;Node10 -->
<g id="edge18" class="edge"><title>Node2&#45;&gt;Node10</title>
<path fill="none" stroke="midnightblue" d="M266.019,-26.1386C313.854,-23.2533 379.718,-19.2805 431.971,-16.1287"/>
<polygon fill="midnightblue" stroke="midnightblue" points="265.564,-22.6595 255.793,-26.7554 265.985,-29.6469 265.564,-22.6595"/>
</g>
<!-- Node4 -->
<g id="node7" class="node"><title>Node4</title>
<a xlink:href="classSocketClient.xhtml#aa304eafc5814ed2ebda33c44ccb60316" target="_top" xlink:title="Spawns a new Thread of SocketClient::Update() for a fully connected client.">
<polygon fill="white" stroke="black" points="459,-40.5 459,-61.5 575,-61.5 575,-40.5 459,-40.5"/>
<text text-anchor="middle" x="517" y="-48.5" font-family="FreeSans.ttf" font-size="10.00">SocketClient::Thread</text>
</a>
</g>
<!-- Node3&#45;&gt;Node4 -->
<g id="edge6" class="edge"><title>Node3&#45;&gt;Node4</title>
<path fill="none" stroke="midnightblue" d="M406.348,-50.3604C423.447,-50.4592 441.914,-50.566 458.771,-50.6634"/>
<polygon fill="midnightblue" stroke="midnightblue" points="405.926,-46.858 395.906,-50.3 405.885,-53.8579 405.926,-46.858"/>
</g>
<!-- Node5 -->
<g id="node9" class="node"><title>Node5</title>
<a xlink:href="classSocketServer.xhtml#afdbc60c3bc840875d2214b59c6213f63" target="_top" xlink:title="SocketServer::Accept">
<polygon fill="white" stroke="black" points="638,-40.5 638,-61.5 758,-61.5 758,-40.5 638,-40.5"/>
<text text-anchor="middle" x="698" y="-48.5" font-family="FreeSans.ttf" font-size="10.00">SocketServer::Accept</text>
</a>
</g>
<!-- Node4&#45;&gt;Node5 -->
<g id="edge8" class="edge"><title>Node4&#45;&gt;Node5</title>
<path fill="none" stroke="midnightblue" d="M585.309,-51C602.628,-51 621.103,-51 637.977,-51"/>
<polygon fill="midnightblue" stroke="midnightblue" points="585.266,-47.5001 575.266,-51 585.266,-54.5001 585.266,-47.5001"/>
</g>
<!-- Node6 -->
<g id="node11" class="node"><title>Node6</title>
<a xlink:href="classSocketServer.xhtml#abf0a57a793cb3cf9ad308c238329b690" target="_top" xlink:title="SocketServer::Update">
<polygon fill="white" stroke="black" points="794,-40.5 794,-61.5 916,-61.5 916,-40.5 794,-40.5"/>
<text text-anchor="middle" x="855" y="-48.5" font-family="FreeSans.ttf" font-size="10.00">SocketServer::Update</text>
</a>
</g>
<!-- Node5&#45;&gt;Node6 -->
<g id="edge10" class="edge"><title>Node5&#45;&gt;Node6</title>
<path fill="none" stroke="midnightblue" d="M768.491,-51C776.959,-51 785.552,-51 793.871,-51"/>
<polygon fill="midnightblue" stroke="midnightblue" points="768.251,-47.5001 758.251,-51 768.251,-54.5001 768.251,-47.5001"/>
</g>
<!-- Node7 -->
<g id="node13" class="node"><title>Node7</title>
<a xlink:href="classSocketServer.xhtml#a613401f64ca4c185e0a90dd2ae57b546" target="_top" xlink:title="SocketServer::Thread">
<polygon fill="white" stroke="black" points="952,-39.5 952,-60.5 1072,-60.5 1072,-39.5 952,-39.5"/>
<text text-anchor="middle" x="1012" y="-47.5" font-family="FreeSans.ttf" font-size="10.00">SocketServer::Thread</text>
</a>
</g>
<!-- Node6&#45;&gt;Node7 -->
<g id="edge12" class="edge"><title>Node6&#45;&gt;Node7</title>
<path fill="none" stroke="midnightblue" d="M926.413,-50.5451C934.895,-50.4911 943.487,-50.4364 951.791,-50.3835"/>
<polygon fill="midnightblue" stroke="midnightblue" points="926.127,-47.0468 916.15,-50.6105 926.172,-54.0466 926.127,-47.0468"/>
</g>
<!-- Node8 -->
<g id="node15" class="node"><title>Node8</title>
<a xlink:href="classServer.xhtml#a84ed4b0103f83fe0ece0a89983d0787a" target="_top" xlink:title="Start the NAMS server. Responsible for calling all critical boot&#45;time functions such as SocketServer ...">
<polygon fill="white" stroke="black" points="1108,-39.5 1108,-60.5 1198,-60.5 1198,-39.5 1108,-39.5"/>
<text text-anchor="middle" x="1153" y="-47.5" font-family="FreeSans.ttf" font-size="10.00">Server::Startup</text>
</a>
</g>
<!-- Node7&#45;&gt;Node8 -->
<g id="edge14" class="edge"><title>Node7&#45;&gt;Node8</title>
<path fill="none" stroke="midnightblue" d="M1082.37,-50C1091.07,-50 1099.76,-50 1107.93,-50"/>
<polygon fill="midnightblue" stroke="midnightblue" points="1082.21,-46.5001 1072.21,-50 1082.21,-53.5001 1082.21,-46.5001"/>
</g>
<!-- Node9 -->
<g id="node17" class="node"><title>Node9</title>
<a xlink:href="main_8cpp.xhtml#ad53223b8779f25caeddb70a3b9172967" target="_top" xlink:title="The default function required to execute the server.">
<polygon fill="white" stroke="black" points="1234.5,-19.5 1234.5,-40.5 1275.5,-40.5 1275.5,-19.5 1234.5,-19.5"/>
<text text-anchor="middle" x="1255" y="-27.5" font-family="FreeSans.ttf" font-size="10.00">main</text>
</a>
</g>
<!-- Node8&#45;&gt;Node9 -->
<g id="edge16" class="edge"><title>Node8&#45;&gt;Node9</title>
<path fill="none" stroke="midnightblue" d="M1207.9,-39.2345C1217.36,-37.3795 1226.64,-35.56 1234.43,-34.033"/>
<polygon fill="midnightblue" stroke="midnightblue" points="1207.18,-35.8107 1198.04,-41.1695 1208.52,-42.6799 1207.18,-35.8107"/>
</g>
<!-- Node11 -->
<g id="node21" class="node"><title>Node11</title>
<a xlink:href="classServer.xhtml#a2b4cec469bb99c2a45e49de5ba74d1ae" target="_top" xlink:title="Loop through all connected SocketClient objects to obtain a Thread::MutexLock() and then signal each ...">
<polygon fill="white" stroke="black" points="640,-0.5 640,-21.5 756,-21.5 756,-0.5 640,-0.5"/>
<text text-anchor="middle" x="698" y="-8.5" font-family="FreeSans.ttf" font-size="10.00">Server::ProcessInput</text>
</a>
</g>
<!-- Node10&#45;&gt;Node11 -->
<g id="edge20" class="edge"><title>Node10&#45;&gt;Node11</title>
<path fill="none" stroke="midnightblue" d="M612.367,-11C621.729,-11 631.021,-11 639.841,-11"/>
<polygon fill="midnightblue" stroke="midnightblue" points="612.2,-7.5001 602.2,-11 612.2,-14.5001 612.2,-7.5001"/>
</g>
<!-- Node12 -->
<g id="node23" class="node"><title>Node12</title>
<a xlink:href="classServer.xhtml#a50b81aa91d8fdaee6f52c5c5ec987990" target="_top" xlink:title="The core update loop of NAMS. This loop spawns all other subsystem update routines and then sleeps fo...">
<polygon fill="white" stroke="black" points="810.5,-0.5 810.5,-21.5 899.5,-21.5 899.5,-0.5 810.5,-0.5"/>
<text text-anchor="middle" x="855" y="-8.5" font-family="FreeSans.ttf" font-size="10.00">Server::Update</text>
</a>
</g>
<!-- Node11&#45;&gt;Node12 -->
<g id="edge22" class="edge"><title>Node11&#45;&gt;Node12</title>
<path fill="none" stroke="midnightblue" d="M766.272,-11C781.244,-11 796.721,-11 810.474,-11"/>
<polygon fill="midnightblue" stroke="midnightblue" points="766.015,-7.5001 756.015,-11 766.015,-14.5001 766.015,-7.5001"/>
</g>
<!-- Node12&#45;&gt;Node9 -->
<g id="edge24" class="edge"><title>Node12&#45;&gt;Node9</title>
<path fill="none" stroke="midnightblue" d="M909.723,-13.5993C999.607,-17.8688 1174.51,-26.1765 1234.34,-29.0188"/>
<polygon fill="midnightblue" stroke="midnightblue" points="909.876,-10.1027 899.721,-13.1242 909.543,-17.0949 909.876,-10.1027"/>
</g>
</g>
</svg>
        <g id="navigator" transform="translate(0 0)" fill="#404254">
                <rect fill="#f2f5e9" fill-opacity="0.5" stroke="#606060" stroke-width=".5" x="0" y="0" width="60" height="60"/>
                <use id="zoomplus" xlink:href="#zoomPlus" x="17" y="9" onmousedown="handleZoom(evt,'in')"/>
                <use id="zoomminus" xlink:href="#zoomMin" x="42" y="9" onmousedown="handleZoom(evt,'out')"/>
                <use id="reset" xlink:href="#resetDef" x="30" y="36" onmousedown="handleReset()"/>
                <g id="arrowUp" xlink:href="#dirArrow" transform="translate(30 24)" onmousedown="handlePan(0,-1)">
                  <use xlink:href="#rim" fill="#404040">
                        <set attributeName="fill" to="#808080" begin="arrowUp.mouseover" end="arrowUp.mouseout"/>
                  </use>
                  <path fill="none" stroke="white" stroke-width="1.5" d="M0,-3.0v7 M-2.5,-0.5L0,-3.0L2.5,-0.5"/>
                </g>
                <g id="arrowRight" xlink:href="#dirArrow" transform="rotate(90) translate(36 -43)" onmousedown="handlePan(1,0)">
                  <use xlink:href="#rim" fill="#404040">
                        <set attributeName="fill" to="#808080" begin="arrowRight.mouseover" end="arrowRight.mouseout"/>
                  </use>
                  <path fill="none" stroke="white" stroke-width="1.5" d="M0,-3.0v7 M-2.5,-0.5L0,-3.0L2.5,-0.5"/>
                </g>
                <g id="arrowDown" xlink:href="#dirArrow" transform="rotate(180) translate(-30 -48)" onmousedown="handlePan(0,1)">
                  <use xlink:href="#rim" fill="#404040">
                        <set attributeName="fill" to="#808080" begin="arrowDown.mouseover" end="arrowDown.mouseout"/>
                  </use>
                  <path fill="none" stroke="white" stroke-width="1.5" d="M0,-3.0v7 M-2.5,-0.5L0,-3.0L2.5,-0.5"/>
                </g>
                <g id="arrowLeft" xlink:href="#dirArrow" transform="rotate(270) translate(-36 17)" onmousedown="handlePan(-1,0)">
                  <use xlink:href="#rim" fill="#404040">
                        <set attributeName="fill" to="#808080" begin="arrowLeft.mouseover" end="arrowLeft.mouseout"/>
                  </use>
                  <path fill="none" stroke="white" stroke-width="1.5" d="M0,-3.0v7 M-2.5,-0.5L0,-3.0L2.5,-0.5"/>
                </g>
        </g>
</svg>
