<?xml version="1.0" encoding="UTF-8" standalone="no"?>
<!DOCTYPE svg PUBLIC "-//W3C//DTD SVG 1.1//EN"
 "http://www.w3.org/Graphics/SVG/1.1/DTD/svg11.dtd">
<!-- Generated by graphviz version 2.26.3 (20100126.1600)
 -->
<!-- Title: G Pages: 1 -->
<!--zoomable 755 -->
<svg id="main" version="1.1" xmlns="http://www.w3.org/2000/svg" xmlns:xlink="http://www.w3.org/1999/xlink" xml:space="preserve" onload="init(evt)">
        <defs>
                <circle id="rim" cx="0" cy="0" r="7"/>
                <circle id="rim2" cx="0" cy="0" r="3.5"/>
                <g id="zoomPlus">
                        <use xlink:href="#rim" fill="#404040">
                                <set attributeName="fill" to="#808080" begin="zoomplus.mouseover" end="zoomplus.mouseout"/>
                        </use>
                        <path d="M-4,0h8M0,-4v8" fill="none" stroke="white" stroke-width="1.5" pointer-events="none"/>
                </g>
                <g id="zoomMin">
                        <use xlink:href="#rim" fill="#404040">
                                <set attributeName="fill" to="#808080" begin="zoomminus.mouseover" end="zoomminus.mouseout"/>
                        </use>
                        <path d="M-4,0h8" fill="none" stroke="white" stroke-width="1.5" pointer-events="none"/>
                </g>
                <g id="dirArrow">
                        <path fill="none" stroke="white" stroke-width="1.5" d="M0,-3.0v7 M-2.5,-0.5L0,-3.0L2.5,-0.5"/>
                </g>
               <g id="resetDef">
                       <use xlink:href="#rim2" fill="#404040">
                               <set attributeName="fill" to="#808080" begin="reset.mouseover" end="reset.mouseout"/>
                       </use>
               </g>
        </defs>

<script type="text/javascript">
var viewWidth = 654;
var viewHeight = 755;
var sectionId = 'dynsection-0';
</script>
<script xlink:href="svgpan.js"/>
<svg id="graph" class="graph">
<g id="viewport">
<title>G</title>
<polygon fill="white" stroke="white" points="-4,5 -4,-750.677 651,-750.677 651,5 -4,5"/>
<!-- Node1 -->
<g id="node1" class="node"><title>Node1</title>
<polygon fill="#bfbfbf" stroke="black" points="0,-350.5 0,-371.5 118,-371.5 118,-350.5 0,-350.5"/>
<text text-anchor="middle" x="59" y="-358.5" font-family="FreeSans.ttf" font-size="10.00">SocketClient::Update</text>
</g>
<!-- Node2 -->
<g id="node3" class="node"><title>Node2</title>
<a xlink:href="classSocket_a508457b48e6296d1e86c7cc72af65948.xhtml#a508457b48e6296d1e86c7cc72af65948" target="_top" xlink:title="Socket::Valid">
<polygon fill="white" stroke="black" points="551,-351.5 551,-372.5 629,-372.5 629,-351.5 551,-351.5"/>
<text text-anchor="middle" x="590" y="-359.5" font-family="FreeSans.ttf" font-size="10.00">Socket::Valid</text>
</a>
</g>
<!-- Node1&#45;&gt;Node2 -->
<g id="edge2" class="edge"><title>Node1&#45;&gt;Node2</title>
<path fill="none" stroke="midnightblue" d="M59.9842,-371.609C64.0793,-409.976 83.0305,-543.229 154,-619 261.305,-733.564 373.244,-794.263 498,-699 549.603,-659.596 579.244,-450.363 587.562,-382.949"/>
<polygon fill="midnightblue" stroke="midnightblue" points="591.071,-383.08 588.791,-372.733 584.121,-382.243 591.071,-383.08"/>
</g>
<!-- Node3 -->
<g id="node5" class="node"><title>Node3</title>
<a xlink:href="classSocketClient_af09328648d18ae943c8866cf744e5aad.xhtml#af09328648d18ae943c8866cf744e5aad" target="_top" xlink:title="SocketClient::Delete">
<polygon fill="white" stroke="black" points="169,-588.5 169,-609.5 283,-609.5 283,-588.5 169,-588.5"/>
<text text-anchor="middle" x="226" y="-596.5" font-family="FreeSans.ttf" font-size="10.00">SocketClient::Delete</text>
</a>
</g>
<!-- Node1&#45;&gt;Node3 -->
<g id="edge4" class="edge"><title>Node1&#45;&gt;Node3</title>
<path fill="none" stroke="midnightblue" d="M66.3913,-371.534C92.3063,-408.466 179.282,-532.419 212.734,-580.094"/>
<polygon fill="midnightblue" stroke="midnightblue" points="209.896,-582.142 218.505,-588.318 215.626,-578.122 209.896,-582.142"/>
</g>
<!-- Node7 -->
<g id="node14" class="node"><title>Node7</title>
<a xlink:href="classSocketClient_a686aea73a8e9c9dbaac6438ec1b24293.xhtml#a686aea73a8e9c9dbaac6438ec1b24293" target="_top" xlink:title="SocketClient::sIdle">
<polygon fill="white" stroke="black" points="364,-510.5 364,-531.5 468,-531.5 468,-510.5 364,-510.5"/>
<text text-anchor="middle" x="416" y="-518.5" font-family="FreeSans.ttf" font-size="10.00">SocketClient::sIdle</text>
</a>
</g>
<!-- Node1&#45;&gt;Node7 -->
<g id="edge14" class="edge"><title>Node1&#45;&gt;Node7</title>
<path fill="none" stroke="midnightblue" d="M68.8389,-371.547C85.0862,-388.404 119.202,-421.498 154,-441 217.565,-476.624 298.89,-498.262 353.949,-509.895"/>
<polygon fill="midnightblue" stroke="midnightblue" points="353.412,-513.358 363.913,-511.952 354.827,-506.503 353.412,-513.358"/>
</g>
<!-- Node8 -->
<g id="node16" class="node"><title>Node8</title>
<a xlink:href="classSocketClient_a9c982fdda7a3daa5b153eada40a3b6fb.xhtml#a9c982fdda7a3daa5b153eada40a3b6fb" target="_top" xlink:title="SocketClient::gIdle">
<polygon fill="white" stroke="black" points="173.5,-410.5 173.5,-431.5 278.5,-431.5 278.5,-410.5 173.5,-410.5"/>
<text text-anchor="middle" x="226" y="-418.5" font-family="FreeSans.ttf" font-size="10.00">SocketClient::gIdle</text>
</a>
</g>
<!-- Node1&#45;&gt;Node8 -->
<g id="edge16" class="edge"><title>Node1&#45;&gt;Node8</title>
<path fill="none" stroke="midnightblue" d="M81.7165,-371.531C100.765,-380.127 128.816,-392.24 154,-401 160.586,-403.291 167.581,-405.501 174.522,-407.564"/>
<polygon fill="midnightblue" stroke="midnightblue" points="174.021,-411.062 184.599,-410.473 175.962,-404.337 174.021,-411.062"/>
</g>
<!-- Node9 -->
<g id="node18" class="node"><title>Node9</title>
<a xlink:href="classSocket_a45d3aa99d71b868921543a4708471f82.xhtml#a45d3aa99d71b868921543a4708471f82" target="_top" xlink:title="Socket::gDescriptor">
<polygon fill="white" stroke="black" points="534.5,-176.5 534.5,-197.5 645.5,-197.5 645.5,-176.5 534.5,-176.5"/>
<text text-anchor="middle" x="590" y="-184.5" font-family="FreeSans.ttf" font-size="10.00">Socket::gDescriptor</text>
</a>
</g>
<!-- Node1&#45;&gt;Node9 -->
<g id="edge18" class="edge"><title>Node1&#45;&gt;Node9</title>
<path fill="none" stroke="midnightblue" d="M62.059,-350.463C71.1753,-320.784 100.879,-235.502 154,-187 218.387,-128.212 248.628,-126.702 334,-109 405.371,-94.2012 429.571,-83.896 498,-109 530.195,-120.811 558.848,-149.431 575.316,-168.52"/>
<polygon fill="midnightblue" stroke="midnightblue" points="572.702,-170.851 581.798,-176.283 578.075,-166.364 572.702,-170.851"/>
</g>
<!-- Node10 -->
<g id="node20" class="node"><title>Node10</title>
<a xlink:href="classSocketClient_a472a64c9b811361791c107498eebf57a.xhtml#a472a64c9b811361791c107498eebf57a" target="_top" xlink:title="SocketClient::Send">
<polygon fill="white" stroke="black" points="172.5,-330.5 172.5,-351.5 279.5,-351.5 279.5,-330.5 172.5,-330.5"/>
<text text-anchor="middle" x="226" y="-338.5" font-family="FreeSans.ttf" font-size="10.00">SocketClient::Send</text>
</a>
</g>
<!-- Node1&#45;&gt;Node10 -->
<g id="edge20" class="edge"><title>Node1&#45;&gt;Node10</title>
<path fill="none" stroke="midnightblue" d="M118.348,-353.892C132.531,-352.194 147.731,-350.374 162.109,-348.652"/>
<polygon fill="midnightblue" stroke="midnightblue" points="162.894,-352.083 172.406,-347.418 162.061,-345.132 162.894,-352.083"/>
</g>
<!-- Node11 -->
<g id="node22" class="node"><title>Node11</title>
<a xlink:href="classSocketClient_a9ee09f452d900e288b2aa187561ef05d.xhtml#a9ee09f452d900e288b2aa187561ef05d" target="_top" xlink:title="SocketClient::Recv">
<polygon fill="white" stroke="black" points="174,-370.5 174,-391.5 278,-391.5 278,-370.5 174,-370.5"/>
<text text-anchor="middle" x="226" y="-378.5" font-family="FreeSans.ttf" font-size="10.00">SocketClient::Recv</text>
</a>
</g>
<!-- Node1&#45;&gt;Node11 -->
<g id="edge22" class="edge"><title>Node1&#45;&gt;Node11</title>
<path fill="none" stroke="midnightblue" d="M118.348,-368.108C133.05,-369.868 148.844,-371.76 163.682,-373.537"/>
<polygon fill="midnightblue" stroke="midnightblue" points="163.432,-377.032 173.777,-374.746 164.265,-370.081 163.432,-377.032"/>
</g>
<!-- Node16 -->
<g id="node35" class="node"><title>Node16</title>
<a xlink:href="classSocketClient_a92fea2bf7e0f20578404ce1abb835a0b.xhtml#a92fea2bf7e0f20578404ce1abb835a0b" target="_top" xlink:title="SocketClient::ProcessInput">
<polygon fill="white" stroke="black" points="154,-196.5 154,-217.5 298,-217.5 298,-196.5 154,-196.5"/>
<text text-anchor="middle" x="226" y="-204.5" font-family="FreeSans.ttf" font-size="10.00">SocketClient::ProcessInput</text>
</a>
</g>
<!-- Node1&#45;&gt;Node16 -->
<g id="edge38" class="edge"><title>Node1&#45;&gt;Node16</title>
<path fill="none" stroke="midnightblue" d="M70.4786,-350.415C98.7226,-324.37 171.831,-256.952 206.807,-224.699"/>
<polygon fill="midnightblue" stroke="midnightblue" points="209.462,-227.011 214.441,-217.659 204.717,-221.865 209.462,-227.011"/>
</g>
<!-- Node19 -->
<g id="node45" class="node"><title>Node19</title>
<a xlink:href="classSocketClient_a074944c7006f994646ed22cb2c955dc9.xhtml#a074944c7006f994646ed22cb2c955dc9" target="_top" xlink:title="SocketClient::gServer">
<polygon fill="white" stroke="black" points="166,-40.5 166,-61.5 286,-61.5 286,-40.5 166,-40.5"/>
<text text-anchor="middle" x="226" y="-48.5" font-family="FreeSans.ttf" font-size="10.00">SocketClient::gServer</text>
</a>
</g>
<!-- Node1&#45;&gt;Node19 -->
<g id="edge52" class="edge"><title>Node1&#45;&gt;Node19</title>
<path fill="none" stroke="midnightblue" d="M59.3369,-350.239C61.2191,-308.751 73.5547,-157.453 154,-76 157.74,-72.2136 162.081,-68.9999 166.743,-66.2723"/>
<polygon fill="midnightblue" stroke="midnightblue" points="168.668,-69.2223 176.03,-61.6036 165.524,-62.9681 168.668,-69.2223"/>
</g>
<!-- Node20 -->
<g id="node47" class="node"><title>Node20</title>
<a xlink:href="classServer_ae3d4d866381050c00f383248872877ea.xhtml#ae3d4d866381050c00f383248872877ea" target="_top" xlink:title="Server::Running">
<polygon fill="white" stroke="black" points="180,-0.5 180,-21.5 272,-21.5 272,-0.5 180,-0.5"/>
<text text-anchor="middle" x="226" y="-8.5" font-family="FreeSans.ttf" font-size="10.00">Server::Running</text>
</a>
</g>
<!-- Node1&#45;&gt;Node20 -->
<g id="edge54" class="edge"><title>Node1&#45;&gt;Node20</title>
<path fill="none" stroke="midnightblue" d="M60.6364,-350.42C68.744,-299.301 106.141,-78.4137 154,-31 158.597,-26.4462 164.135,-22.9076 170.074,-20.1615"/>
<polygon fill="midnightblue" stroke="midnightblue" points="171.586,-23.3296 179.658,-16.4666 169.068,-16.7982 171.586,-23.3296"/>
</g>
<!-- Node3&#45;&gt;Node2 -->
<g id="edge6" class="edge"><title>Node3&#45;&gt;Node2</title>
<path fill="none" stroke="midnightblue" d="M281.403,-588.445C358.404,-573.594 489.372,-547.601 498,-541 551.041,-500.421 576.163,-420.656 585.489,-382.838"/>
<polygon fill="midnightblue" stroke="midnightblue" points="588.934,-383.477 587.801,-372.943 582.118,-381.884 588.934,-383.477"/>
</g>
<!-- Node4 -->
<g id="node8" class="node"><title>Node4</title>
<a xlink:href="classThread_a975e77d37e7955c21155bfe4b9ddc7d1.xhtml#a975e77d37e7955c21155bfe4b9ddc7d1" target="_top" xlink:title="Thread::MutexLock">
<polygon fill="white" stroke="black" points="362.5,-628.5 362.5,-649.5 469.5,-649.5 469.5,-628.5 362.5,-628.5"/>
<text text-anchor="middle" x="416" y="-636.5" font-family="FreeSans.ttf" font-size="10.00">Thread::MutexLock</text>
</a>
</g>
<!-- Node3&#45;&gt;Node4 -->
<g id="edge8" class="edge"><title>Node3&#45;&gt;Node4</title>
<path fill="none" stroke="midnightblue" d="M275.92,-609.51C300.477,-614.679 330.266,-620.951 356.049,-626.379"/>
<polygon fill="midnightblue" stroke="midnightblue" points="355.577,-629.856 366.084,-628.491 357.019,-623.006 355.577,-629.856"/>
</g>
<!-- Node5 -->
<g id="node10" class="node"><title>Node5</title>
<a xlink:href="classServer_a1e68e32745cdfe194e0af388d9d5244a.xhtml#a1e68e32745cdfe194e0af388d9d5244a" target="_top" xlink:title="Server::sSocketClose">
<polygon fill="white" stroke="black" points="356.5,-588.5 356.5,-609.5 475.5,-609.5 475.5,-588.5 356.5,-588.5"/>
<text text-anchor="middle" x="416" y="-596.5" font-family="FreeSans.ttf" font-size="10.00">Server::sSocketClose</text>
</a>
</g>
<!-- Node3&#45;&gt;Node5 -->
<g id="edge10" class="edge"><title>Node3&#45;&gt;Node5</title>
<path fill="none" stroke="midnightblue" d="M283.006,-599C302.921,-599 325.502,-599 346.331,-599"/>
<polygon fill="midnightblue" stroke="midnightblue" points="346.396,-602.5 356.396,-599 346.396,-595.5 346.396,-602.5"/>
</g>
<!-- Node6 -->
<g id="node12" class="node"><title>Node6</title>
<a xlink:href="classServer_a01c4cacfdade91bc99d6c8911ca33a54.xhtml#a01c4cacfdade91bc99d6c8911ca33a54" target="_top" xlink:title="Server::gSocketClose">
<polygon fill="white" stroke="black" points="356.5,-668.5 356.5,-689.5 475.5,-689.5 475.5,-668.5 356.5,-668.5"/>
<text text-anchor="middle" x="416" y="-676.5" font-family="FreeSans.ttf" font-size="10.00">Server::gSocketClose</text>
</a>
</g>
<!-- Node3&#45;&gt;Node6 -->
<g id="edge12" class="edge"><title>Node3&#45;&gt;Node6</title>
<path fill="none" stroke="midnightblue" d="M241.8,-609.565C262.273,-622.827 299.447,-645.472 334,-659 340.326,-661.477 347.049,-663.712 353.82,-665.713"/>
<polygon fill="midnightblue" stroke="midnightblue" points="353.158,-669.162 363.731,-668.476 355.039,-662.419 353.158,-669.162"/>
</g>
<!-- Node11&#45;&gt;Node2 -->
<g id="edge24" class="edge"><title>Node11&#45;&gt;Node2</title>
<path fill="none" stroke="midnightblue" d="M278.152,-378.278C348.271,-374.618 472.042,-368.157 540.68,-364.574"/>
<polygon fill="midnightblue" stroke="midnightblue" points="540.996,-368.063 550.8,-364.046 540.631,-361.072 540.996,-368.063"/>
</g>
<!-- Node11&#45;&gt;Node7 -->
<g id="edge36" class="edge"><title>Node11&#45;&gt;Node7</title>
<path fill="none" stroke="midnightblue" d="M278.323,-389.053C285.541,-391.924 292.39,-395.793 298,-401 332.624,-433.132 298.871,-469.421 334,-501 339.823,-506.235 346.788,-510.156 354.165,-513.083"/>
<polygon fill="midnightblue" stroke="midnightblue" points="353.08,-516.411 363.674,-516.284 355.313,-509.776 353.08,-516.411"/>
</g>
<!-- Node11&#45;&gt;Node9 -->
<g id="edge26" class="edge"><title>Node11&#45;&gt;Node9</title>
<path fill="none" stroke="midnightblue" d="M278.154,-371.572C285.231,-368.886 292.083,-365.435 298,-361 322.279,-342.805 311.198,-323.014 334,-303 343,-295.1 488.784,-231.082 556.24,-201.675"/>
<polygon fill="midnightblue" stroke="midnightblue" points="557.828,-204.801 565.598,-197.598 555.033,-198.383 557.828,-204.801"/>
</g>
<!-- Node12 -->
<g id="node26" class="node"><title>Node12</title>
<a xlink:href="classSocket_adc72a37934a4f2d10f6ae8fc94bb4ca7.xhtml#adc72a37934a4f2d10f6ae8fc94bb4ca7" target="_top" xlink:title="Socket::gHostname">
<polygon fill="white" stroke="black" points="360,-312.5 360,-333.5 472,-333.5 472,-312.5 360,-312.5"/>
<text text-anchor="middle" x="416" y="-320.5" font-family="FreeSans.ttf" font-size="10.00">Socket::gHostname</text>
</a>
</g>
<!-- Node11&#45;&gt;Node12 -->
<g id="edge28" class="edge"><title>Node11&#45;&gt;Node12</title>
<path fill="none" stroke="midnightblue" d="M266.147,-370.426C276.566,-367.525 287.741,-364.272 298,-361 314.207,-355.831 317.859,-353.371 334,-348 345.695,-344.109 358.404,-340.119 370.248,-336.501"/>
<polygon fill="midnightblue" stroke="midnightblue" points="371.396,-339.81 379.951,-333.561 369.366,-333.111 371.396,-339.81"/>
</g>
<!-- Node13 -->
<g id="node28" class="node"><title>Node13</title>
<a xlink:href="classServer_a2f8f36b615b6d10eb96dd35620ffd524.xhtml#a2f8f36b615b6d10eb96dd35620ffd524" target="_top" xlink:title="Server::gSocket">
<polygon fill="white" stroke="black" points="369.5,-470.5 369.5,-491.5 462.5,-491.5 462.5,-470.5 369.5,-470.5"/>
<text text-anchor="middle" x="416" y="-478.5" font-family="FreeSans.ttf" font-size="10.00">Server::gSocket</text>
</a>
</g>
<!-- Node11&#45;&gt;Node13 -->
<g id="edge30" class="edge"><title>Node11&#45;&gt;Node13</title>
<path fill="none" stroke="midnightblue" d="M278.215,-390.347C285.283,-393.045 292.116,-396.521 298,-401 322.744,-419.837 308.96,-442.558 334,-461 341.538,-466.552 350.421,-470.578 359.508,-473.495"/>
<polygon fill="midnightblue" stroke="midnightblue" points="358.823,-476.937 369.395,-476.244 360.698,-470.193 358.823,-476.937"/>
</g>
<!-- Node14 -->
<g id="node30" class="node"><title>Node14</title>
<a xlink:href="classSocket_a150a2ba8da11a6934d6943613ba011ec.xhtml#a150a2ba8da11a6934d6943613ba011ec" target="_top" xlink:title="Socket::sBytesRecvd">
<polygon fill="white" stroke="black" points="358,-430.5 358,-451.5 474,-451.5 474,-430.5 358,-430.5"/>
<text text-anchor="middle" x="416" y="-438.5" font-family="FreeSans.ttf" font-size="10.00">Socket::sBytesRecvd</text>
</a>
</g>
<!-- Node11&#45;&gt;Node14 -->
<g id="edge32" class="edge"><title>Node11&#45;&gt;Node14</title>
<path fill="none" stroke="midnightblue" d="M270.342,-391.542C279.617,-394.238 289.237,-397.408 298,-401 314.936,-407.942 316.956,-414.327 334,-421 340.326,-423.477 347.049,-425.712 353.82,-427.713"/>
<polygon fill="midnightblue" stroke="midnightblue" points="353.158,-431.162 363.731,-430.476 355.039,-424.419 353.158,-431.162"/>
</g>
<!-- Node15 -->
<g id="node32" class="node"><title>Node15</title>
<a xlink:href="classSocket_ad7ac03a288e6ef47a45e6837f7fef002.xhtml#ad7ac03a288e6ef47a45e6837f7fef002" target="_top" xlink:title="Socket::gBytesRecvd">
<polygon fill="white" stroke="black" points="358,-390.5 358,-411.5 474,-411.5 474,-390.5 358,-390.5"/>
<text text-anchor="middle" x="416" y="-398.5" font-family="FreeSans.ttf" font-size="10.00">Socket::gBytesRecvd</text>
</a>
</g>
<!-- Node11&#45;&gt;Node15 -->
<g id="edge34" class="edge"><title>Node11&#45;&gt;Node15</title>
<path fill="none" stroke="midnightblue" d="M278.17,-386.492C299.701,-388.758 324.946,-391.415 347.905,-393.832"/>
<polygon fill="midnightblue" stroke="midnightblue" points="347.617,-397.321 357.928,-394.887 348.35,-390.36 347.617,-397.321"/>
</g>
<!-- Node16&#45;&gt;Node2 -->
<g id="edge40" class="edge"><title>Node16&#45;&gt;Node2</title>
<path fill="none" stroke="midnightblue" d="M264.517,-217.531C318.265,-232.904 418.147,-263.956 498,-303 522.903,-315.176 549.345,-332.67 567.459,-345.446"/>
<polygon fill="midnightblue" stroke="midnightblue" points="565.469,-348.326 575.639,-351.295 569.54,-342.632 565.469,-348.326"/>
</g>
<!-- Node16&#45;&gt;Node9 -->
<g id="edge42" class="edge"><title>Node16&#45;&gt;Node9</title>
<path fill="none" stroke="midnightblue" d="M272.521,-196.457C291.481,-192.665 313.682,-188.865 334,-187 398.52,-181.076 472.574,-181.899 524.38,-183.706"/>
<polygon fill="midnightblue" stroke="midnightblue" points="524.312,-187.206 534.435,-184.079 524.572,-180.21 524.312,-187.206"/>
</g>
<!-- Node17 -->
<g id="node39" class="node"><title>Node17</title>
<a xlink:href="namespaceUtils_aeda29ae05e927b463309cf1db39344a0.xhtml#aeda29ae05e927b463309cf1db39344a0" target="_top" xlink:title="Utils::StrNewlines">
<polygon fill="white" stroke="black" points="366,-118.5 366,-139.5 466,-139.5 466,-118.5 366,-118.5"/>
<text text-anchor="middle" x="416" y="-126.5" font-family="FreeSans.ttf" font-size="10.00">Utils::StrNewlines</text>
</a>
</g>
<!-- Node16&#45;&gt;Node17 -->
<g id="edge44" class="edge"><title>Node16&#45;&gt;Node17</title>
<path fill="none" stroke="midnightblue" d="M245.087,-196.468C266.346,-185.015 301.946,-166.657 334,-154 344.493,-149.857 355.96,-145.976 366.906,-142.564"/>
<polygon fill="midnightblue" stroke="midnightblue" points="368.217,-145.824 376.768,-139.569 366.183,-139.126 368.217,-145.824"/>
</g>
<!-- Node18 -->
<g id="node41" class="node"><title>Node18</title>
<a xlink:href="classSocketClient_aa3c0d7886b8fede981c73031cfaf17c6.xhtml#aa3c0d7886b8fede981c73031cfaf17c6" target="_top" xlink:title="SocketClient::QueueCommand">
<polygon fill="white" stroke="black" points="334,-196.5 334,-217.5 498,-217.5 498,-196.5 334,-196.5"/>
<text text-anchor="middle" x="416" y="-204.5" font-family="FreeSans.ttf" font-size="10.00">SocketClient::QueueCommand</text>
</a>
</g>
<!-- Node16&#45;&gt;Node18 -->
<g id="edge46" class="edge"><title>Node16&#45;&gt;Node18</title>
<path fill="none" stroke="midnightblue" d="M298.102,-207C306.477,-207 315.105,-207 323.703,-207"/>
<polygon fill="midnightblue" stroke="midnightblue" points="323.767,-210.5 333.767,-207 323.767,-203.5 323.767,-210.5"/>
</g>
<!-- Node18&#45;&gt;Node2 -->
<g id="edge48" class="edge"><title>Node18&#45;&gt;Node2</title>
<path fill="none" stroke="midnightblue" d="M469.155,-217.606C479.311,-221.136 489.433,-225.814 498,-232 538.327,-261.122 567.41,-313.515 581.136,-342.09"/>
<polygon fill="midnightblue" stroke="midnightblue" points="578.1,-343.861 585.491,-351.452 584.447,-340.909 578.1,-343.861"/>
</g>
<!-- Node18&#45;&gt;Node9 -->
<g id="edge50" class="edge"><title>Node18&#45;&gt;Node9</title>
<path fill="none" stroke="midnightblue" d="M498.159,-197.556C506.792,-196.564 515.489,-195.564 523.908,-194.597"/>
<polygon fill="midnightblue" stroke="midnightblue" points="524.482,-198.054 534.017,-193.435 523.682,-191.1 524.482,-198.054"/>
</g>
</g>
</svg>
        <g id="navigator" transform="translate(0 0)" fill="#404254">
                <rect fill="#f2f5e9" fill-opacity="0.5" stroke="#606060" stroke-width=".5" x="0" y="0" width="60" height="60"/>
                <use id="zoomplus" xlink:href="#zoomPlus" x="17" y="9" onmousedown="handleZoom(evt,'in')"/>
                <use id="zoomminus" xlink:href="#zoomMin" x="42" y="9" onmousedown="handleZoom(evt,'out')"/>
                <use id="reset" xlink:href="#resetDef" x="30" y="36" onmousedown="handleReset()"/>
                <g id="arrowUp" xlink:href="#dirArrow" transform="translate(30 24)" onmousedown="handlePan(0,-1)">
                  <use xlink:href="#rim" fill="#404040">
                        <set attributeName="fill" to="#808080" begin="arrowUp.mouseover" end="arrowUp.mouseout"/>
                  </use>
                  <path fill="none" stroke="white" stroke-width="1.5" d="M0,-3.0v7 M-2.5,-0.5L0,-3.0L2.5,-0.5"/>
                </g>
                <g id="arrowRight" xlink:href="#dirArrow" transform="rotate(90) translate(36 -43)" onmousedown="handlePan(1,0)">
                  <use xlink:href="#rim" fill="#404040">
                        <set attributeName="fill" to="#808080" begin="arrowRight.mouseover" end="arrowRight.mouseout"/>
                  </use>
                  <path fill="none" stroke="white" stroke-width="1.5" d="M0,-3.0v7 M-2.5,-0.5L0,-3.0L2.5,-0.5"/>
                </g>
                <g id="arrowDown" xlink:href="#dirArrow" transform="rotate(180) translate(-30 -48)" onmousedown="handlePan(0,1)">
                  <use xlink:href="#rim" fill="#404040">
                        <set attributeName="fill" to="#808080" begin="arrowDown.mouseover" end="arrowDown.mouseout"/>
                  </use>
                  <path fill="none" stroke="white" stroke-width="1.5" d="M0,-3.0v7 M-2.5,-0.5L0,-3.0L2.5,-0.5"/>
                </g>
                <g id="arrowLeft" xlink:href="#dirArrow" transform="rotate(270) translate(-36 17)" onmousedown="handlePan(-1,0)">
                  <use xlink:href="#rim" fill="#404040">
                        <set attributeName="fill" to="#808080" begin="arrowLeft.mouseover" end="arrowLeft.mouseout"/>
                  </use>
                  <path fill="none" stroke="white" stroke-width="1.5" d="M0,-3.0v7 M-2.5,-0.5L0,-3.0L2.5,-0.5"/>
                </g>
        </g>
</svg>
