<?xml version="1.0" encoding="UTF-8" standalone="no"?>
<!DOCTYPE svg PUBLIC "-//W3C//DTD SVG 1.1//EN"
 "http://www.w3.org/Graphics/SVG/1.1/DTD/svg11.dtd">
<!-- Generated by graphviz version 2.26.3 (20100126.1600)
 -->
<!-- Title: Server::Stats::gSocketOpen Pages: 1 -->
<svg width="814pt" height="104pt"
 viewBox="0.00 0.00 814.00 104.00" xmlns="http://www.w3.org/2000/svg" xmlns:xlink="http://www.w3.org/1999/xlink">
<g id="graph1" class="graph" transform="scale(1 1) rotate(0) translate(4 100)">
<title>Server::Stats::gSocketOpen</title>
<polygon fill="white" stroke="white" points="-4,5 -4,-100 811,-100 811,5 -4,5"/>
<!-- Node1 -->
<g id="node1" class="node"><title>Node1</title>
<polygon fill="#bfbfbf" stroke="black" points="0,-38 0,-58 150,-58 150,-38 0,-38"/>
<text text-anchor="middle" x="75" y="-45" font-family="FreeSans.ttf" font-size="10.00">Server::Stats::gSocketOpen</text>
</g>
<!-- Node2 -->
<g id="node3" class="node"><title>Node2</title>
<a xlink:href="namespaceServer.xhtml#a0cd8d593edfecdbb98403c2a2c203d64" target="_top" xlink:title="Display miscellaneous data about the NAMS Server, such as total data transfered, objects in memory...">
<polygon fill="white" stroke="black" points="192,-76 192,-96 284,-96 284,-76 192,-76"/>
<text text-anchor="middle" x="238" y="-83" font-family="FreeSans.ttf" font-size="10.00">Server::gStatus</text>
</a>
</g>
<!-- Node1&#45;&gt;Node2 -->
<g id="edge2" class="edge"><title>Node1&#45;&gt;Node2</title>
<path fill="none" stroke="midnightblue" d="M128.247,-60.4133C149.818,-65.4421 174.402,-71.1735 194.828,-75.9353"/>
<polygon fill="midnightblue" stroke="midnightblue" points="128.787,-56.9454 118.253,-58.0835 127.197,-63.7626 128.787,-56.9454"/>
</g>
<!-- Node3 -->
<g id="node5" class="node"><title>Node3</title>
<a xlink:href="classSocketClient.xhtml#a8399ef20292e9f3ec83b5c4bec2e105b" target="_top" xlink:title="Build a SocketClient for a new client connection and set all attributes.">
<polygon fill="white" stroke="black" points="186.5,-38 186.5,-58 289.5,-58 289.5,-38 186.5,-38"/>
<text text-anchor="middle" x="238" y="-45" font-family="FreeSans.ttf" font-size="10.00">SocketClient::New</text>
</a>
</g>
<!-- Node1&#45;&gt;Node3 -->
<g id="edge4" class="edge"><title>Node1&#45;&gt;Node3</title>
<path fill="none" stroke="midnightblue" d="M160.307,-48C169.17,-48 177.973,-48 186.295,-48"/>
<polygon fill="midnightblue" stroke="midnightblue" points="160.297,-44.5001 150.297,-48 160.297,-51.5001 160.297,-44.5001"/>
</g>
<!-- Node10 -->
<g id="node20" class="node"><title>Node10</title>
<a xlink:href="classSocketServer.xhtml#a0e621d024f754a8c045b4243280cabbe" target="_top" xlink:title="Build a socket for a server and set all attributes.">
<polygon fill="white" stroke="black" points="337.5,-0 337.5,-20 444.5,-20 444.5,-0 337.5,-0"/>
<text text-anchor="middle" x="391" y="-7" font-family="FreeSans.ttf" font-size="10.00">SocketServer::New</text>
</a>
</g>
<!-- Node1&#45;&gt;Node10 -->
<g id="edge20" class="edge"><title>Node1&#45;&gt;Node10</title>
<path fill="none" stroke="midnightblue" d="M138.518,-36.2607C154.017,-33.636 170.576,-31.0317 186,-29 237.206,-22.2548 295.92,-17.0707 337.351,-13.8345"/>
<polygon fill="midnightblue" stroke="midnightblue" points="137.771,-32.8378 128.509,-37.9826 138.957,-39.7364 137.771,-32.8378"/>
</g>
<!-- Node4 -->
<g id="node7" class="node"><title>Node4</title>
<a xlink:href="namespaceServer.xhtml#a16ea0639731dee10e1a253375b508a02" target="_top" xlink:title="Recovers the server state and re&#45;connects client sockets after a reboot.">
<polygon fill="white" stroke="black" points="326,-38 326,-58 456,-58 456,-38 326,-38"/>
<text text-anchor="middle" x="391" y="-45" font-family="FreeSans.ttf" font-size="10.00">Server::RebootRecovery</text>
</a>
</g>
<!-- Node3&#45;&gt;Node4 -->
<g id="edge6" class="edge"><title>Node3&#45;&gt;Node4</title>
<path fill="none" stroke="midnightblue" d="M300.056,-48C308.591,-48 317.375,-48 325.962,-48"/>
<polygon fill="midnightblue" stroke="midnightblue" points="299.799,-44.5001 289.799,-48 299.799,-51.5001 299.799,-44.5001"/>
</g>
<!-- Node7 -->
<g id="node13" class="node"><title>Node7</title>
<a xlink:href="classSocketServer.xhtml#afdbc60c3bc840875d2214b59c6213f63" target="_top" xlink:title="Accept a new connection on the listening port.">
<polygon fill="white" stroke="black" points="331,-76 331,-96 451,-96 451,-76 331,-76"/>
<text text-anchor="middle" x="391" y="-83" font-family="FreeSans.ttf" font-size="10.00">SocketServer::Accept</text>
</a>
</g>
<!-- Node3&#45;&gt;Node7 -->
<g id="edge12" class="edge"><title>Node3&#45;&gt;Node7</title>
<path fill="none" stroke="midnightblue" d="M288.53,-60.55C308.645,-65.5458 331.477,-71.2166 350.476,-75.9353"/>
<polygon fill="midnightblue" stroke="midnightblue" points="289.148,-57.0972 278.6,-58.0835 287.461,-63.8908 289.148,-57.0972"/>
</g>
<!-- Node5 -->
<g id="node9" class="node"><title>Node5</title>
<a xlink:href="namespaceServer.xhtml#a19a1e493e1fb50a56d9c77332543d565" target="_top" xlink:title="Start the NAMS Server. Responsible for calling all critical boot&#45;time functions such as SocketServer ...">
<polygon fill="white" stroke="black" points="502,-38 502,-58 592,-58 592,-38 502,-38"/>
<text text-anchor="middle" x="547" y="-45" font-family="FreeSans.ttf" font-size="10.00">Server::Startup</text>
</a>
</g>
<!-- Node4&#45;&gt;Node5 -->
<g id="edge8" class="edge"><title>Node4&#45;&gt;Node5</title>
<path fill="none" stroke="midnightblue" d="M466.407,-48C478.549,-48 490.774,-48 501.905,-48"/>
<polygon fill="midnightblue" stroke="midnightblue" points="466.254,-44.5001 456.254,-48 466.254,-51.5001 466.254,-44.5001"/>
</g>
<!-- Node6 -->
<g id="node11" class="node"><title>Node6</title>
<a xlink:href="main_8cpp.xhtml#ad53223b8779f25caeddb70a3b9172967" target="_top" xlink:title="The default function required to execute the server.">
<polygon fill="white" stroke="black" points="764.5,-57 764.5,-77 805.5,-77 805.5,-57 764.5,-57"/>
<text text-anchor="middle" x="785" y="-64" font-family="FreeSans.ttf" font-size="10.00">main</text>
</a>
</g>
<!-- Node5&#45;&gt;Node6 -->
<g id="edge10" class="edge"><title>Node5&#45;&gt;Node6</title>
<path fill="none" stroke="midnightblue" d="M602.066,-52.396C653.783,-56.5247 728.416,-62.4828 764.255,-65.3439"/>
<polygon fill="midnightblue" stroke="midnightblue" points="602.293,-48.9031 592.046,-51.5961 601.736,-55.8809 602.293,-48.9031"/>
</g>
<!-- Node8 -->
<g id="node15" class="node"><title>Node8</title>
<a xlink:href="namespaceServer.xhtml#a39dbe16fdc8c5f6fbd678c6540fbcd6c" target="_top" xlink:title="Poll all SocketClient objects that are communicating with the associated SocketServer object...">
<polygon fill="white" stroke="black" points="492.5,-76 492.5,-96 601.5,-96 601.5,-76 492.5,-76"/>
<text text-anchor="middle" x="547" y="-83" font-family="FreeSans.ttf" font-size="10.00">Server::PollSockets</text>
</a>
</g>
<!-- Node7&#45;&gt;Node8 -->
<g id="edge14" class="edge"><title>Node7&#45;&gt;Node8</title>
<path fill="none" stroke="midnightblue" d="M461.587,-86C471.947,-86 482.482,-86 492.454,-86"/>
<polygon fill="midnightblue" stroke="midnightblue" points="461.314,-82.5001 451.314,-86 461.314,-89.5001 461.314,-82.5001"/>
</g>
<!-- Node9 -->
<g id="node17" class="node"><title>Node9</title>
<a xlink:href="namespaceServer.xhtml#a50b81aa91d8fdaee6f52c5c5ec987990" target="_top" xlink:title="The core update loop of NAMS. This loop spawns all other subsystem update routines and then sleeps fo...">
<polygon fill="white" stroke="black" points="638.5,-76 638.5,-96 727.5,-96 727.5,-76 638.5,-76"/>
<text text-anchor="middle" x="683" y="-83" font-family="FreeSans.ttf" font-size="10.00">Server::Update</text>
</a>
</g>
<!-- Node8&#45;&gt;Node9 -->
<g id="edge16" class="edge"><title>Node8&#45;&gt;Node9</title>
<path fill="none" stroke="midnightblue" d="M611.698,-86C620.761,-86 629.903,-86 638.477,-86"/>
<polygon fill="midnightblue" stroke="midnightblue" points="611.533,-82.5001 601.533,-86 611.533,-89.5001 611.533,-82.5001"/>
</g>
<!-- Node9&#45;&gt;Node6 -->
<g id="edge18" class="edge"><title>Node9&#45;&gt;Node6</title>
<path fill="none" stroke="midnightblue" d="M737.642,-75.8216C747.139,-74.0525 756.468,-72.3148 764.3,-70.8558"/>
<polygon fill="midnightblue" stroke="midnightblue" points="736.929,-72.3942 727.739,-77.6663 738.211,-79.2758 736.929,-72.3942"/>
</g>
<!-- Node10&#45;&gt;Node5 -->
<g id="edge22" class="edge"><title>Node10&#45;&gt;Node5</title>
<path fill="none" stroke="midnightblue" d="M442.24,-22.4816C462.817,-27.494 486.222,-33.1951 505.682,-37.9353"/>
<polygon fill="midnightblue" stroke="midnightblue" points="442.94,-19.0497 432.396,-20.0835 441.283,-25.8509 442.94,-19.0497"/>
</g>
</g>
</svg>
