<?xml version="1.0" encoding="UTF-8" standalone="no"?>
<!DOCTYPE svg PUBLIC "-//W3C//DTD SVG 1.1//EN"
 "http://www.w3.org/Graphics/SVG/1.1/DTD/svg11.dtd">
<!-- Generated by graphviz version 2.26.3 (20100126.1600)
 -->
<!-- Title: SocketServer Pages: 1 -->
<svg width="287pt" height="256pt"
 viewBox="0.00 0.00 287.00 256.00" xmlns="http://www.w3.org/2000/svg" xmlns:xlink="http://www.w3.org/1999/xlink">
<g id="graph1" class="graph" transform="scale(1 1) rotate(0) translate(4 252)">
<title>SocketServer</title>
<polygon fill="white" stroke="white" points="-4,5 -4,-252 284,-252 284,5 -4,5"/>
<!-- Node1 -->
<g id="node1" class="node"><title>Node1</title>
<polygon fill="#bfbfbf" stroke="black" points="80.5,-1 80.5,-21 161.5,-21 161.5,-1 80.5,-1"/>
<text text-anchor="middle" x="121" y="-8" font-family="FreeSans.ttf" font-size="10.00">SocketServer</text>
</g>
<!-- Node2 -->
<g id="node2" class="node"><title>Node2</title>
<a xlink:href="classSocket.xhtml" target="_top" xlink:title="Functions and interfaces that are common to both SocketClient and SocketServer.">
<polygon fill="white" stroke="black" points="96,-61 96,-81 146,-81 146,-61 96,-61"/>
<text text-anchor="middle" x="121" y="-68" font-family="FreeSans.ttf" font-size="10.00">Socket</text>
</a>
</g>
<!-- Node2&#45;&gt;Node1 -->
<g id="edge2" class="edge"><title>Node2&#45;&gt;Node1</title>
<path fill="none" stroke="midnightblue" d="M121,-50.5155C121,-40.562 121,-29.0495 121,-21.0279"/>
<polygon fill="midnightblue" stroke="midnightblue" points="117.5,-50.8218 121,-60.8218 124.5,-50.8219 117.5,-50.8218"/>
</g>
<!-- Node3 -->
<g id="node4" class="node"><title>Node3</title>
<polygon fill="white" stroke="#bfbfbf" points="-0.5,-155 -0.5,-175 62.5,-175 62.5,-155 -0.5,-155"/>
<text text-anchor="middle" x="31" y="-162" font-family="FreeSans.ttf" font-size="10.00">signed int</text>
</g>
<!-- Node3&#45;&gt;Node2 -->
<g id="edge4" class="edge"><title>Node3&#45;&gt;Node2</title>
<path fill="none" stroke="#9a32cd" stroke-dasharray="5,2" d="M32.36,-144.723C34.299,-130.637 38.9425,-112.264 50,-100 61.8583,-86.8476 80.5589,-79.5339 95.7915,-75.5421"/>
<polygon fill="#9a32cd" stroke="#9a32cd" points="28.8546,-144.598 31.3139,-154.903 35.8179,-145.313 28.8546,-144.598"/>
<text text-anchor="middle" x="83.5" y="-115" font-family="FreeSans.ttf" font-size="10.00"> m_descriptor</text>
</g>
<!-- Node4 -->
<g id="node6" class="node"><title>Node4</title>
<a xlink:title="STL class.">
<polygon fill="white" stroke="#bfbfbf" points="88.5,-155 88.5,-175 153.5,-175 153.5,-155 88.5,-155"/>
<text text-anchor="middle" x="121" y="-162" font-family="FreeSans.ttf" font-size="10.00">std::string</text>
</a>
</g>
<!-- Node4&#45;&gt;Node2 -->
<g id="edge6" class="edge"><title>Node4&#45;&gt;Node2</title>
<path fill="none" stroke="#9a32cd" stroke-dasharray="5,2" d="M121,-144.677C121,-125.153 121,-96.4447 121,-81.2723"/>
<polygon fill="#9a32cd" stroke="#9a32cd" points="117.5,-144.94 121,-154.94 124.5,-144.94 117.5,-144.94"/>
<text text-anchor="middle" x="154.5" y="-115" font-family="FreeSans.ttf" font-size="10.00"> m_hostname</text>
</g>
<!-- Node5 -->
<g id="node8" class="node"><title>Node5</title>
<a xlink:title="STL class.">
<polygon fill="white" stroke="#bfbfbf" points="69.5,-215 69.5,-247 172.5,-247 172.5,-215 69.5,-215"/>
<text text-anchor="start" x="77.5" y="-234" font-family="FreeSans.ttf" font-size="10.00">std::basic_string&lt;</text>
<text text-anchor="middle" x="121" y="-222" font-family="FreeSans.ttf" font-size="10.00"> char &gt;</text>
</a>
</g>
<!-- Node5&#45;&gt;Node4 -->
<g id="edge8" class="edge"><title>Node5&#45;&gt;Node4</title>
<path fill="none" stroke="midnightblue" d="M121,-204.45C121,-194.156 121,-182.991 121,-175.175"/>
<polygon fill="midnightblue" stroke="midnightblue" points="117.5,-204.685 121,-214.685 124.5,-204.685 117.5,-204.685"/>
</g>
<!-- Node6 -->
<g id="node10" class="node"><title>Node6</title>
<polygon fill="white" stroke="#bfbfbf" points="173.5,-155 173.5,-175 248.5,-175 248.5,-155 173.5,-155"/>
<text text-anchor="middle" x="211" y="-162" font-family="FreeSans.ttf" font-size="10.00">unsigned int</text>
</g>
<!-- Node6&#45;&gt;Node2 -->
<g id="edge10" class="edge"><title>Node6&#45;&gt;Node2</title>
<path fill="none" stroke="#9a32cd" stroke-dasharray="5,2" d="M208.549,-144.731C205.885,-130.649 200.369,-112.277 189,-100 177.751,-87.8524 160.572,-80.5836 146.296,-76.3612"/>
<polygon fill="#9a32cd" stroke="#9a32cd" points="205.136,-145.564 210.13,-154.908 212.053,-144.489 205.136,-145.564"/>
<text text-anchor="middle" x="242.5" y="-127" font-family="FreeSans.ttf" font-size="10.00"> m_bytes_sent</text>
<text text-anchor="middle" x="242.5" y="-115" font-family="FreeSans.ttf" font-size="10.00">m_port</text>
<text text-anchor="middle" x="242.5" y="-103" font-family="FreeSans.ttf" font-size="10.00">m_bytes_recvd</text>
</g>
</g>
</svg>
