<?xml version="1.0" encoding="UTF-8" standalone="no"?>
<!DOCTYPE svg PUBLIC "-//W3C//DTD SVG 1.1//EN"
 "http://www.w3.org/Graphics/SVG/1.1/DTD/svg11.dtd">
<!-- Generated by graphviz version 2.26.3 (20100126.1600)
 -->
<!-- Title: G Pages: 1 -->
<svg width="448pt" height="190pt"
 viewBox="0.00 0.00 448.00 190.00" xmlns="http://www.w3.org/2000/svg" xmlns:xlink="http://www.w3.org/1999/xlink">
<g id="graph1" class="graph" transform="scale(1 1) rotate(0) translate(4 186)">
<title>G</title>
<polygon fill="white" stroke="white" points="-4,5 -4,-186 445,-186 445,5 -4,5"/>
<!-- Node1 -->
<g id="node1" class="node"><title>Node1</title>
<polygon fill="#bfbfbf" stroke="black" points="0,-80.5 0,-101.5 152,-101.5 152,-80.5 0,-80.5"/>
<text text-anchor="middle" x="76" y="-88.5" font-family="FreeSans.ttf" font-size="10.00">SocketServer::SocketServer</text>
</g>
<!-- Node2 -->
<g id="node3" class="node"><title>Node2</title>
<a xlink:href="classSocketServer.xhtml#a89cde9791b2f0ce928329c55a9ad21e7" target="_top" xlink:title="Set the owning server object that the socket is actually connected to.">
<polygon fill="white" stroke="black" points="188,-160.5 188,-181.5 312,-181.5 312,-160.5 188,-160.5"/>
<text text-anchor="middle" x="250" y="-168.5" font-family="FreeSans.ttf" font-size="10.00">SocketServer::sServer</text>
</a>
</g>
<!-- Node1&#45;&gt;Node2 -->
<g id="edge2" class="edge"><title>Node1&#45;&gt;Node2</title>
<path fill="none" stroke="midnightblue" d="M93.3615,-101.571C114.975,-114.43 153.285,-136.244 188,-151 193.074,-153.157 198.464,-155.218 203.866,-157.14"/>
<polygon fill="midnightblue" stroke="midnightblue" points="202.941,-160.523 213.535,-160.444 205.204,-153.899 202.941,-160.523"/>
</g>
<!-- Node4 -->
<g id="node7" class="node"><title>Node4</title>
<a xlink:href="classSocket.xhtml#a24c8132ced233add89f4fda68284e578" target="_top" xlink:title="Sets the port that was opened for the socket.">
<polygon fill="white" stroke="black" points="210,-120.5 210,-141.5 290,-141.5 290,-120.5 210,-120.5"/>
<text text-anchor="middle" x="250" y="-128.5" font-family="FreeSans.ttf" font-size="10.00">Socket::sPort</text>
</a>
</g>
<!-- Node1&#45;&gt;Node4 -->
<g id="edge6" class="edge"><title>Node1&#45;&gt;Node4</title>
<path fill="none" stroke="midnightblue" d="M121.716,-101.51C145.788,-107.043 175.348,-113.839 200.023,-119.511"/>
<polygon fill="midnightblue" stroke="midnightblue" points="199.387,-122.956 209.917,-121.786 200.955,-116.134 199.387,-122.956"/>
</g>
<!-- Node5 -->
<g id="node9" class="node"><title>Node5</title>
<a xlink:href="classServer.xhtml#a307ecabcbab896360450e2b06b22a411" target="_top" xlink:title="Returns the port that any SocketServer should bind to. Defaults to CFG_SOC_PORTNUM.">
<polygon fill="white" stroke="black" points="210,-80.5 210,-101.5 290,-101.5 290,-80.5 210,-80.5"/>
<text text-anchor="middle" x="250" y="-88.5" font-family="FreeSans.ttf" font-size="10.00">Server::gPort</text>
</a>
</g>
<!-- Node1&#45;&gt;Node5 -->
<g id="edge8" class="edge"><title>Node1&#45;&gt;Node5</title>
<path fill="none" stroke="midnightblue" d="M152.066,-91C168.263,-91 184.975,-91 199.906,-91"/>
<polygon fill="midnightblue" stroke="midnightblue" points="199.93,-94.5001 209.93,-91 199.93,-87.5001 199.93,-94.5001"/>
</g>
<!-- Node6 -->
<g id="node11" class="node"><title>Node6</title>
<a xlink:href="classServer.xhtml#a2b261b9b308edee58ec6191966bd019a" target="_top" xlink:title="Set the amount of subordinate SocketClient and SocketServer objects that have been opened on a NAMS S...">
<polygon fill="white" stroke="black" points="191,-40.5 191,-61.5 309,-61.5 309,-40.5 191,-40.5"/>
<text text-anchor="middle" x="250" y="-48.5" font-family="FreeSans.ttf" font-size="10.00">Server::sSocketOpen</text>
</a>
</g>
<!-- Node1&#45;&gt;Node6 -->
<g id="edge10" class="edge"><title>Node1&#45;&gt;Node6</title>
<path fill="none" stroke="midnightblue" d="M121.716,-80.4905C144.007,-75.3663 171.004,-69.1601 194.47,-63.7655"/>
<polygon fill="midnightblue" stroke="midnightblue" points="195.325,-67.1602 204.287,-61.5087 193.757,-60.3382 195.325,-67.1602"/>
</g>
<!-- Node7 -->
<g id="node13" class="node"><title>Node7</title>
<a xlink:href="classServer.xhtml#a0c8164b5ed4b2c6efd0ecbd2a8c8a503" target="_top" xlink:title="Returns the combined number of SocketClient and SocketServer objects that have been created...">
<polygon fill="white" stroke="black" points="190.5,-0.5 190.5,-21.5 309.5,-21.5 309.5,-0.5 190.5,-0.5"/>
<text text-anchor="middle" x="250" y="-8.5" font-family="FreeSans.ttf" font-size="10.00">Server::gSocketOpen</text>
</a>
</g>
<!-- Node1&#45;&gt;Node7 -->
<g id="edge12" class="edge"><title>Node1&#45;&gt;Node7</title>
<path fill="none" stroke="midnightblue" d="M93.3615,-80.4288C114.975,-67.5698 153.285,-45.756 188,-31 193.074,-28.8431 198.464,-26.7824 203.866,-24.8595"/>
<polygon fill="midnightblue" stroke="midnightblue" points="205.204,-28.1011 213.535,-21.556 202.941,-21.477 205.204,-28.1011"/>
</g>
<!-- Node3 -->
<g id="node5" class="node"><title>Node3</title>
<a xlink:href="classServer.xhtml#ae3d4d866381050c00f383248872877ea" target="_top" xlink:title="Returns if the Server is shutdown or not.">
<polygon fill="white" stroke="black" points="348,-160.5 348,-181.5 440,-181.5 440,-160.5 348,-160.5"/>
<text text-anchor="middle" x="394" y="-168.5" font-family="FreeSans.ttf" font-size="10.00">Server::Running</text>
</a>
</g>
<!-- Node2&#45;&gt;Node3 -->
<g id="edge4" class="edge"><title>Node2&#45;&gt;Node3</title>
<path fill="none" stroke="midnightblue" d="M312.323,-171C320.66,-171 329.174,-171 337.406,-171"/>
<polygon fill="midnightblue" stroke="midnightblue" points="337.648,-174.5 347.648,-171 337.648,-167.5 337.648,-174.5"/>
</g>
</g>
</svg>
