<?xml version="1.0" encoding="UTF-8" standalone="no"?>
<!DOCTYPE svg PUBLIC "-//W3C//DTD SVG 1.1//EN"
 "http://www.w3.org/Graphics/SVG/1.1/DTD/svg11.dtd">
<!-- Generated by graphviz version 2.26.3 (20100126.1600)
 -->
<!-- Title: G Pages: 1 -->
<svg width="146pt" height="88pt"
 viewBox="0.00 0.00 146.00 88.00" xmlns="http://www.w3.org/2000/svg" xmlns:xlink="http://www.w3.org/1999/xlink">
<g id="graph1" class="graph" transform="scale(1 1) rotate(0) translate(4 84)">
<title>G</title>
<polygon fill="white" stroke="white" points="-4,5 -4,-84 143,-84 143,5 -4,5"/>
<!-- Node1 -->
<g id="node1" class="node"><title>Node1</title>
<polygon fill="#bfbfbf" stroke="black" points="50,-58.5 50,-79.5 92,-79.5 92,-58.5 50,-58.5"/>
<text text-anchor="middle" x="71" y="-66.5" font-family="FreeSans.ttf" font-size="10.00">Thing</text>
</g>
<!-- Node2 -->
<g id="node3" class="node"><title>Node2</title>
<a xlink:href="classCharacter.xhtml" target="_top" xlink:title="An actor within the game world.">
<polygon fill="white" stroke="black" points="0,-0.5 0,-21.5 64,-21.5 64,-0.5 0,-0.5"/>
<text text-anchor="middle" x="32" y="-8.5" font-family="FreeSans.ttf" font-size="10.00">Character</text>
</a>
</g>
<!-- Node1&#45;&gt;Node2 -->
<g id="edge2" class="edge"><title>Node1&#45;&gt;Node2</title>
<path fill="none" stroke="midnightblue" d="M58.1966,-49.9591C51.851,-40.522 44.4286,-29.4835 39.1079,-21.5707"/>
<polygon fill="midnightblue" stroke="midnightblue" points="55.3623,-52.0165 63.8468,-58.3619 61.1712,-48.1105 55.3623,-52.0165"/>
</g>
<!-- Node3 -->
<g id="node5" class="node"><title>Node3</title>
<a xlink:href="classLocation.xhtml" target="_top" xlink:title="A physical location within the game world.">
<polygon fill="white" stroke="black" points="81.5,-0.5 81.5,-21.5 138.5,-21.5 138.5,-0.5 81.5,-0.5"/>
<text text-anchor="middle" x="110" y="-8.5" font-family="FreeSans.ttf" font-size="10.00">Location</text>
</a>
</g>
<!-- Node1&#45;&gt;Node3 -->
<g id="edge4" class="edge"><title>Node1&#45;&gt;Node3</title>
<path fill="none" stroke="midnightblue" d="M83.8034,-49.9591C90.149,-40.522 97.5714,-29.4835 102.892,-21.5707"/>
<polygon fill="midnightblue" stroke="midnightblue" points="80.8288,-48.1105 78.1532,-58.3619 86.6377,-52.0165 80.8288,-48.1105"/>
</g>
</g>
</svg>
