<?xml version="1.0" encoding="UTF-8" standalone="no"?>
<!DOCTYPE svg PUBLIC "-//W3C//DTD SVG 1.1//EN"
 "http://www.w3.org/Graphics/SVG/1.1/DTD/svg11.dtd">
<!-- Generated by graphviz version 2.26.3 (20100126.1600)
 -->
<!-- Title: Account::Delete Pages: 1 -->
<!--zoomable 653 -->
<svg id="main" version="1.1" xmlns="http://www.w3.org/2000/svg" xmlns:xlink="http://www.w3.org/1999/xlink" xml:space="preserve" onload="init(evt)">
        <defs>
                <circle id="rim" cx="0" cy="0" r="7"/>
                <circle id="rim2" cx="0" cy="0" r="3.5"/>
                <g id="zoomPlus">
                        <use xlink:href="#rim" fill="#404040">
                                <set attributeName="fill" to="#808080" begin="zoomplus.mouseover" end="zoomplus.mouseout"/>
                        </use>
                        <path d="M-4,0h8M0,-4v8" fill="none" stroke="white" stroke-width="1.5" pointer-events="none"/>
                </g>
                <g id="zoomMin">
                        <use xlink:href="#rim" fill="#404040">
                                <set attributeName="fill" to="#808080" begin="zoomminus.mouseover" end="zoomminus.mouseout"/>
                        </use>
                        <path d="M-4,0h8" fill="none" stroke="white" stroke-width="1.5" pointer-events="none"/>
                </g>
                <g id="dirArrow">
                        <path fill="none" stroke="white" stroke-width="1.5" d="M0,-3.0v7 M-2.5,-0.5L0,-3.0L2.5,-0.5"/>
                </g>
               <g id="resetDef">
                       <use xlink:href="#rim2" fill="#404040">
                               <set attributeName="fill" to="#808080" begin="reset.mouseover" end="reset.mouseout"/>
                       </use>
               </g>
        </defs>

<script type="text/javascript">
var viewWidth = 1162;
var viewHeight = 653;
var sectionId = 'dynsection-7';
</script>
<script xlink:href="svgpan.js"/>
<svg id="graph" class="graph">
<g id="viewport">
<title>Account::Delete</title>
<polygon fill="white" stroke="white" points="-4,5 -4,-649 1159,-649 1159,5 -4,5"/>
<!-- Node1 -->
<g id="node1" class="node"><title>Node1</title>
<polygon fill="#bfbfbf" stroke="black" points="0.5,-291 0.5,-311 93.5,-311 93.5,-291 0.5,-291"/>
<text text-anchor="middle" x="47" y="-298" font-family="FreeSans.ttf" font-size="10.00">Account::Delete</text>
</g>
<!-- Node2 -->
<g id="node3" class="node"><title>Node2</title>
<a xlink:href="namespaceHandler.xhtml#a33a19d69ead678af81fbe96907eceaf0" target="_top" xlink:title="Create a new account object, or load an existing one, with a name and password.">
<polygon fill="white" stroke="black" points="130.5,-272 130.5,-292 261.5,-292 261.5,-272 130.5,-272"/>
<text text-anchor="middle" x="196" y="-279" font-family="FreeSans.ttf" font-size="10.00">Handler::AttachAccount</text>
</a>
</g>
<!-- Node1&#45;&gt;Node2 -->
<g id="edge2" class="edge"><title>Node1&#45;&gt;Node2</title>
<path fill="none" stroke="midnightblue" d="M103.747,-293.764C112.436,-292.656 121.466,-291.504 130.328,-290.374"/>
<polygon fill="midnightblue" stroke="midnightblue" points="103.213,-290.304 93.7357,-295.04 104.098,-297.247 103.213,-290.304"/>
</g>
<!-- Node26 -->
<g id="node67" class="node"><title>Node26</title>
<a xlink:href="classSocketClient.xhtml#af09328648d18ae943c8866cf744e5aad" target="_top" xlink:title="Unload a client&#39;s socket from memory that was previously loaded via SocketClient::New().">
<polygon fill="white" stroke="black" points="491,-568 491,-588 605,-588 605,-568 491,-568"/>
<text text-anchor="middle" x="548" y="-575" font-family="FreeSans.ttf" font-size="10.00">SocketClient::Delete</text>
</a>
</g>
<!-- Node1&#45;&gt;Node26 -->
<g id="edge82" class="edge"><title>Node1&#45;&gt;Node26</title>
<path fill="none" stroke="midnightblue" d="M67.1463,-317.363C124.479,-363.069 294.936,-493.054 458,-559 468.363,-563.191 479.788,-566.511 490.919,-569.122"/>
<polygon fill="midnightblue" stroke="midnightblue" points="69.2179,-314.538 59.2275,-311.01 64.8376,-319.998 69.2179,-314.538"/>
</g>
<!-- Node3 -->
<g id="node5" class="node"><title>Node3</title>
<a xlink:href="namespaceHandler.xhtml#a139febc000c9d767a620708148e0c888" target="_top" xlink:title="Dispatches the appropriate menu based on client state.">
<polygon fill="white" stroke="black" points="298.5,-272 298.5,-292 421.5,-292 421.5,-272 298.5,-272"/>
<text text-anchor="middle" x="360" y="-279" font-family="FreeSans.ttf" font-size="10.00">Handler::LoginHandler</text>
</a>
</g>
<!-- Node2&#45;&gt;Node3 -->
<g id="edge4" class="edge"><title>Node2&#45;&gt;Node3</title>
<path fill="none" stroke="midnightblue" d="M271.79,-275.267C280.73,-275.218 289.77,-275.275 298.48,-275.441"/>
<polygon fill="midnightblue" stroke="midnightblue" points="271.724,-271.768 261.76,-275.369 271.795,-278.767 271.724,-271.768"/>
</g>
<!-- Node3&#45;&gt;Node2 -->
<g id="edge6" class="edge"><title>Node3&#45;&gt;Node2</title>
<path fill="none" stroke="midnightblue" d="M288.242,-288.703C279.436,-288.784 270.471,-288.76 261.76,-288.631"/>
<polygon fill="midnightblue" stroke="midnightblue" points="288.531,-292.199 298.48,-288.559 288.432,-285.2 288.531,-292.199"/>
</g>
<!-- Node4 -->
<g id="node8" class="node"><title>Node4</title>
<a xlink:href="namespaceHandler.xhtml#a2e4ebf6ed049eb872aa4948d54c4932c" target="_top" xlink:title="Attempt to write a new character to disk after creation was completed.">
<polygon fill="white" stroke="black" points="478.5,-530 478.5,-550 617.5,-550 617.5,-530 478.5,-530"/>
<text text-anchor="middle" x="548" y="-537" font-family="FreeSans.ttf" font-size="10.00">Handler::AttachCharacter</text>
</a>
</g>
<!-- Node3&#45;&gt;Node4 -->
<g id="edge8" class="edge"><title>Node3&#45;&gt;Node4</title>
<path fill="none" stroke="midnightblue" d="M369.568,-301.238C394.007,-356.63 456.89,-511.075 458,-512 469.776,-521.816 485.376,-526.942 500.277,-529.989"/>
<polygon fill="midnightblue" stroke="midnightblue" points="372.76,-299.801 365.476,-292.107 366.372,-302.664 372.76,-299.801"/>
</g>
<!-- Node5 -->
<g id="node11" class="node"><title>Node5</title>
<a xlink:href="namespaceHandler.xhtml#a73ed6064f2698dbffb5f4c247a02b661" target="_top" xlink:title="Send initial account interface menu.">
<polygon fill="white" stroke="black" points="474,-492 474,-512 622,-512 622,-492 474,-492"/>
<text text-anchor="middle" x="548" y="-499" font-family="FreeSans.ttf" font-size="10.00">Handler::AccountMenuMain</text>
</a>
</g>
<!-- Node3&#45;&gt;Node5 -->
<g id="edge12" class="edge"><title>Node3&#45;&gt;Node5</title>
<path fill="none" stroke="midnightblue" d="M368.864,-301.578C386.773,-345.915 428.106,-450.674 458,-474 470.59,-483.824 487.077,-488.872 502.496,-491.913"/>
<polygon fill="midnightblue" stroke="midnightblue" points="372.039,-300.094 365.026,-292.152 365.556,-302.734 372.039,-300.094"/>
</g>
<!-- Node6 -->
<g id="node14" class="node"><title>Node6</title>
<a xlink:href="namespaceHandler.xhtml#ad04998a7a6ece2486bc441052a57c2d7" target="_top" xlink:title="Main Character creation menu.">
<polygon fill="white" stroke="black" points="478,-442 478,-474 618,-474 618,-442 478,-442"/>
<text text-anchor="start" x="486" y="-461" font-family="FreeSans.ttf" font-size="10.00">Handler::CharacterCreate</text>
<text text-anchor="middle" x="548" y="-449" font-family="FreeSans.ttf" font-size="10.00">MenuMain</text>
</a>
</g>
<!-- Node3&#45;&gt;Node6 -->
<g id="edge16" class="edge"><title>Node3&#45;&gt;Node6</title>
<path fill="none" stroke="midnightblue" d="M369.715,-301.364C383.932,-332.228 413.63,-391.443 458,-424 469.375,-432.346 483.413,-437.907 496.99,-441.965"/>
<polygon fill="midnightblue" stroke="midnightblue" points="372.812,-299.719 365.488,-292.063 366.439,-302.615 372.812,-299.719"/>
</g>
<!-- Node7 -->
<g id="node17" class="node"><title>Node7</title>
<a xlink:href="namespaceHandler.xhtml#ab5889a65de2794129b375ec39ae923ae" target="_top" xlink:title="Select a new Character name.">
<polygon fill="white" stroke="black" points="463.5,-404 463.5,-424 632.5,-424 632.5,-404 463.5,-404"/>
<text text-anchor="middle" x="548" y="-411" font-family="FreeSans.ttf" font-size="10.00">Handler::CharacterCreateName</text>
</a>
</g>
<!-- Node3&#45;&gt;Node7 -->
<g id="edge20" class="edge"><title>Node3&#45;&gt;Node7</title>
<path fill="none" stroke="midnightblue" d="M374.642,-300.267C391.389,-324.071 421.293,-364.384 458,-386 474.788,-395.886 496.015,-400.665 513.637,-403.933"/>
<polygon fill="midnightblue" stroke="midnightblue" points="377.479,-298.216 368.881,-292.026 371.741,-302.227 377.479,-298.216"/>
</g>
<!-- Node8 -->
<g id="node20" class="node"><title>Node8</title>
<a xlink:href="namespaceHandler.xhtml#ae5086bcf5857eb572beedd09158c3065" target="_top" xlink:title="Select a new Character sex.">
<polygon fill="white" stroke="black" points="469,-366 469,-386 627,-386 627,-366 469,-366"/>
<text text-anchor="middle" x="548" y="-373" font-family="FreeSans.ttf" font-size="10.00">Handler::CharacterCreateSex</text>
</a>
</g>
<!-- Node3&#45;&gt;Node8 -->
<g id="edge24" class="edge"><title>Node3&#45;&gt;Node8</title>
<path fill="none" stroke="midnightblue" d="M384.803,-298.562C403.474,-313.811 430.481,-335.358 458,-348 478.171,-357.266 502.971,-362.072 521.426,-365.969"/>
<polygon fill="midnightblue" stroke="midnightblue" points="386.797,-295.672 376.839,-292.054 382.368,-301.092 386.797,-295.672"/>
</g>
<!-- Node9 -->
<g id="node23" class="node"><title>Node9</title>
<a xlink:href="namespaceHandler.xhtml#a97a198bfc72285b2aca4f36978db715e" target="_top" xlink:title="Main Character deletion confirmation.">
<polygon fill="white" stroke="black" points="478.5,-316 478.5,-348 617.5,-348 617.5,-316 478.5,-316"/>
<text text-anchor="start" x="486.5" y="-335" font-family="FreeSans.ttf" font-size="10.00">Handler::CharacterDelete</text>
<text text-anchor="middle" x="548" y="-323" font-family="FreeSans.ttf" font-size="10.00">Confirm</text>
</a>
</g>
<!-- Node3&#45;&gt;Node9 -->
<g id="edge28" class="edge"><title>Node3&#45;&gt;Node9</title>
<path fill="none" stroke="midnightblue" d="M431.47,-294.433C457.698,-300.993 486.413,-308.953 508.775,-315.962"/>
<polygon fill="midnightblue" stroke="midnightblue" points="432.105,-290.985 421.558,-291.993 430.431,-297.782 432.105,-290.985"/>
</g>
<!-- Node10 -->
<g id="node26" class="node"><title>Node10</title>
<a xlink:href="namespaceHandler.xhtml#afc470ec6e82b7a9a1560588a368734f9" target="_top" xlink:title="Main Character deletion menu.">
<polygon fill="white" stroke="black" points="478.5,-266 478.5,-298 617.5,-298 617.5,-266 478.5,-266"/>
<text text-anchor="start" x="486.5" y="-285" font-family="FreeSans.ttf" font-size="10.00">Handler::CharacterDelete</text>
<text text-anchor="middle" x="548" y="-273" font-family="FreeSans.ttf" font-size="10.00">MenuMain</text>
</a>
</g>
<!-- Node3&#45;&gt;Node10 -->
<g id="edge32" class="edge"><title>Node3&#45;&gt;Node10</title>
<path fill="none" stroke="midnightblue" d="M431.972,-275.418C447.235,-275.181 463.319,-275.195 478.488,-275.458"/>
<polygon fill="midnightblue" stroke="midnightblue" points="431.488,-271.926 421.558,-275.621 431.625,-278.925 431.488,-271.926"/>
</g>
<!-- Node11 -->
<g id="node29" class="node"><title>Node11</title>
<a xlink:href="namespaceHandler.xhtml#a02b1b954749641ab646f6548a5360d3b" target="_top" xlink:title="Main Character load menu.">
<polygon fill="white" stroke="black" points="458.5,-228 458.5,-248 637.5,-248 637.5,-228 458.5,-228"/>
<text text-anchor="middle" x="548" y="-235" font-family="FreeSans.ttf" font-size="10.00">Handler::CharacterLoadMenuMain</text>
</a>
</g>
<!-- Node3&#45;&gt;Node11 -->
<g id="edge36" class="edge"><title>Node3&#45;&gt;Node11</title>
<path fill="none" stroke="midnightblue" d="M384.027,-268.318C403.824,-261.349 432.662,-253.904 458,-248 458.156,-247.964 458.311,-247.928 458.467,-247.891"/>
<polygon fill="midnightblue" stroke="midnightblue" points="382.672,-265.088 374.564,-271.908 385.156,-271.633 382.672,-265.088"/>
</g>
<!-- Node12 -->
<g id="node32" class="node"><title>Node12</title>
<a xlink:href="namespaceHandler.xhtml#a00bc24564bfd267e0329643c569da1e4" target="_top" xlink:title="Select a new account name.">
<polygon fill="white" stroke="black" points="479.5,-190 479.5,-210 616.5,-210 616.5,-190 479.5,-190"/>
<text text-anchor="middle" x="548" y="-197" font-family="FreeSans.ttf" font-size="10.00">Handler::GetNewAccount</text>
</a>
</g>
<!-- Node3&#45;&gt;Node12 -->
<g id="edge40" class="edge"><title>Node3&#45;&gt;Node12</title>
<path fill="none" stroke="midnightblue" d="M373.879,-264.526C392.088,-247.513 425.55,-223.327 458,-210 464.795,-207.209 472.054,-204.808 479.391,-202.798"/>
<polygon fill="midnightblue" stroke="midnightblue" points="371.233,-262.223 366.645,-271.773 376.187,-267.168 371.233,-262.223"/>
</g>
<!-- Node13 -->
<g id="node35" class="node"><title>Node13</title>
<a xlink:href="namespaceHandler.xhtml#a744adadcf407cdb3a9c33365afd5a7c2" target="_top" xlink:title="Create a new account.">
<polygon fill="white" stroke="black" points="477,-152 477,-172 619,-172 619,-152 477,-152"/>
<text text-anchor="middle" x="548" y="-159" font-family="FreeSans.ttf" font-size="10.00">Handler::GetNewPassword</text>
</a>
</g>
<!-- Node3&#45;&gt;Node13 -->
<g id="edge44" class="edge"><title>Node3&#45;&gt;Node13</title>
<path fill="none" stroke="midnightblue" d="M368.998,-262.939C384.431,-237.423 418.167,-193.982 458,-172 463.872,-168.759 470.24,-166.071 476.783,-163.88"/>
<polygon fill="midnightblue" stroke="midnightblue" points="365.886,-261.332 364.004,-271.758 371.977,-264.781 365.886,-261.332"/>
</g>
<!-- Node14 -->
<g id="node38" class="node"><title>Node14</title>
<a xlink:href="namespaceHandler.xhtml#adfe13cc9748392348f3941656a1323b6" target="_top" xlink:title="Compare a received password against an existing account.">
<polygon fill="white" stroke="black" points="479.5,-114 479.5,-134 616.5,-134 616.5,-114 479.5,-114"/>
<text text-anchor="middle" x="548" y="-121" font-family="FreeSans.ttf" font-size="10.00">Handler::GetOldPassword</text>
</a>
</g>
<!-- Node3&#45;&gt;Node14 -->
<g id="edge48" class="edge"><title>Node3&#45;&gt;Node14</title>
<path fill="none" stroke="midnightblue" d="M365.868,-262.409C378.253,-229.68 409.937,-165.653 458,-134 464.535,-129.696 471.866,-126.344 479.448,-123.799"/>
<polygon fill="midnightblue" stroke="midnightblue" points="362.562,-261.26 362.529,-271.855 369.162,-263.594 362.562,-261.26"/>
</g>
<!-- Node15 -->
<g id="node41" class="node"><title>Node15</title>
<a xlink:href="namespaceHandler.xhtml#ae70e4e50054c729c14493eafefe01b5c" target="_top" xlink:title="Load a character from the account to enter into the game with.">
<polygon fill="white" stroke="black" points="482.5,-76 482.5,-96 613.5,-96 613.5,-76 482.5,-76"/>
<text text-anchor="middle" x="548" y="-83" font-family="FreeSans.ttf" font-size="10.00">Handler::LoadCharacter</text>
</a>
</g>
<!-- Node3&#45;&gt;Node15 -->
<g id="edge52" class="edge"><title>Node3&#45;&gt;Node15</title>
<path fill="none" stroke="midnightblue" d="M363.813,-261.973C373.286,-222.864 401.323,-137.899 458,-96 465.191,-90.6838 473.543,-86.7843 482.203,-84.0302"/>
<polygon fill="midnightblue" stroke="midnightblue" points="360.355,-261.398 361.582,-271.921 367.185,-262.929 360.355,-261.398"/>
</g>
<!-- Node16 -->
<g id="node44" class="node"><title>Node16</title>
<a xlink:href="namespaceHandler.xhtml#a44b41bf69fdc6e615a029bea34910191" target="_top" xlink:title="Send initial greeting and request for account name.">
<polygon fill="white" stroke="black" points="488.5,-38 488.5,-58 607.5,-58 607.5,-38 488.5,-38"/>
<text text-anchor="middle" x="548" y="-45" font-family="FreeSans.ttf" font-size="10.00">Handler::LoginScreen</text>
</a>
</g>
<!-- Node3&#45;&gt;Node16 -->
<g id="edge56" class="edge"><title>Node3&#45;&gt;Node16</title>
<path fill="none" stroke="midnightblue" d="M362.339,-261.458C369.09,-216.466 392.489,-110.5 458,-58 466.723,-51.0094 477.405,-46.4212 488.322,-43.6283"/>
<polygon fill="midnightblue" stroke="midnightblue" points="358.851,-261.131 360.966,-271.513 365.787,-262.078 358.851,-261.131"/>
</g>
<!-- Node17 -->
<g id="node47" class="node"><title>Node17</title>
<a xlink:href="classSocketClient.xhtml#a8399ef20292e9f3ec83b5c4bec2e105b" target="_top" xlink:title="Build a SocketClient for a new client connection and set all attributes.">
<polygon fill="white" stroke="black" points="496.5,-606 496.5,-626 599.5,-626 599.5,-606 496.5,-606"/>
<text text-anchor="middle" x="548" y="-613" font-family="FreeSans.ttf" font-size="10.00">SocketClient::New</text>
</a>
</g>
<!-- Node3&#45;&gt;Node17 -->
<g id="edge60" class="edge"><title>Node3&#45;&gt;Node17</title>
<path fill="none" stroke="midnightblue" d="M363.517,-302.024C374.935,-364.78 412.858,-555.895 458,-597 468.509,-606.569 482.589,-611.781 496.486,-614.509"/>
<polygon fill="midnightblue" stroke="midnightblue" points="366.96,-301.394 361.751,-292.169 360.069,-302.629 366.96,-301.394"/>
</g>
<!-- Node24 -->
<g id="node62" class="node"><title>Node24</title>
<a xlink:href="classSocketClient.xhtml#ad4f63c7d906310dc56a1217136047d7f" target="_top" xlink:title="Interpret the command at the front of the queue.">
<polygon fill="white" stroke="black" points="463,-0 463,-20 633,-20 633,-0 463,-0"/>
<text text-anchor="middle" x="548" y="-7" font-family="FreeSans.ttf" font-size="10.00">SocketClient::ProcessCommand</text>
</a>
</g>
<!-- Node3&#45;&gt;Node24 -->
<g id="edge76" class="edge"><title>Node3&#45;&gt;Node24</title>
<path fill="none" stroke="midnightblue" d="M361.513,-261.741C366.262,-213.426 385.244,-90.8622 458,-29 462.136,-25.4829 466.762,-22.5649 471.673,-20.1488"/>
<polygon fill="midnightblue" stroke="midnightblue" points="358.012,-261.593 360.625,-271.86 364.986,-262.205 358.012,-261.593"/>
</g>
<!-- Node4&#45;&gt;Node3 -->
<g id="edge10" class="edge"><title>Node4&#45;&gt;Node3</title>
<path fill="none" stroke="midnightblue" d="M468.982,-537.334C465.077,-535.25 461.381,-532.818 458,-530 456.77,-528.975 379.66,-339.369 363.107,-292.246"/>
<polygon fill="midnightblue" stroke="midnightblue" points="467.864,-540.67 478.419,-541.586 470.74,-534.287 467.864,-540.67"/>
</g>
<!-- Node5&#45;&gt;Node3 -->
<g id="edge14" class="edge"><title>Node5&#45;&gt;Node3</title>
<path fill="none" stroke="midnightblue" d="M464.58,-496.511C462.294,-495.134 460.093,-493.633 458,-492 423.643,-465.192 374.178,-330.824 362.526,-292.093"/>
<polygon fill="midnightblue" stroke="midnightblue" points="463.273,-499.775 473.768,-501.223 466.467,-493.546 463.273,-499.775"/>
</g>
<!-- Node6&#45;&gt;Node3 -->
<g id="edge18" class="edge"><title>Node6&#45;&gt;Node3</title>
<path fill="none" stroke="midnightblue" d="M468.46,-448.555C464.801,-446.594 461.289,-444.413 458,-442 403.323,-401.88 370.925,-321.279 362.323,-292.171"/>
<polygon fill="midnightblue" stroke="midnightblue" points="467.279,-451.869 477.815,-452.988 470.276,-445.543 467.279,-451.869"/>
</g>
<!-- Node7&#45;&gt;Node3 -->
<g id="edge22" class="edge"><title>Node7&#45;&gt;Node3</title>
<path fill="none" stroke="midnightblue" d="M454.312,-401.29C406.556,-369.473 373.863,-315.508 363.486,-292.28"/>
<polygon fill="midnightblue" stroke="midnightblue" points="452.741,-404.436 463.075,-406.771 456.452,-398.501 452.741,-404.436"/>
</g>
<!-- Node8&#45;&gt;Node3 -->
<g id="edge26" class="edge"><title>Node8&#45;&gt;Node3</title>
<path fill="none" stroke="midnightblue" d="M459.312,-366.594C458.873,-366.398 458.435,-366.2 458,-366 418.284,-347.755 379.635,-310.962 365.572,-292.214"/>
<polygon fill="midnightblue" stroke="midnightblue" points="458.222,-369.927 468.806,-370.404 460.829,-363.431 458.222,-369.927"/>
</g>
<!-- Node9&#45;&gt;Node3 -->
<g id="edge30" class="edge"><title>Node9&#45;&gt;Node3</title>
<path fill="none" stroke="midnightblue" d="M468.615,-317.564C436.719,-309.402 402.522,-299.569 381.201,-292.102"/>
<polygon fill="midnightblue" stroke="midnightblue" points="467.87,-320.986 478.422,-320.039 469.583,-314.198 467.87,-320.986"/>
</g>
<!-- Node10&#45;&gt;Node3 -->
<g id="edge34" class="edge"><title>Node10&#45;&gt;Node3</title>
<path fill="none" stroke="midnightblue" d="M468.309,-288.68C452.671,-288.834 436.492,-288.734 421.558,-288.379"/>
<polygon fill="midnightblue" stroke="midnightblue" points="468.537,-292.177 478.488,-288.542 468.442,-285.178 468.537,-292.177"/>
</g>
<!-- Node11&#45;&gt;Node3 -->
<g id="edge38" class="edge"><title>Node11&#45;&gt;Node3</title>
<path fill="none" stroke="midnightblue" d="M521.258,-250.984C503.322,-255.998 479.192,-261.062 458,-266 446.201,-268.749 433.642,-271.833 421.591,-274.694"/>
<polygon fill="midnightblue" stroke="midnightblue" points="522.469,-254.275 531.034,-248.039 520.449,-247.572 522.469,-254.275"/>
</g>
<!-- Node12&#45;&gt;Node3 -->
<g id="edge42" class="edge"><title>Node12&#45;&gt;Node3</title>
<path fill="none" stroke="midnightblue" d="M513.829,-212.291C496.637,-216.084 475.738,-220.715 458,-228 429.748,-239.603 400.729,-259.437 381.677,-271.908"/>
<polygon fill="midnightblue" stroke="midnightblue" points="514.996,-215.617 523.993,-210.022 513.471,-208.785 514.996,-215.617"/>
</g>
<!-- Node13&#45;&gt;Node3 -->
<g id="edge46" class="edge"><title>Node13&#45;&gt;Node3</title>
<path fill="none" stroke="midnightblue" d="M505.952,-174.033C490.182,-177.319 472.566,-181.962 458,-190 419.71,-211.131 387.053,-252.091 370.872,-271.743"/>
<polygon fill="midnightblue" stroke="midnightblue" points="506.867,-177.42 515.999,-172.048 505.51,-170.553 506.867,-177.42"/>
</g>
<!-- Node14&#45;&gt;Node3 -->
<g id="edge50" class="edge"><title>Node14&#45;&gt;Node3</title>
<path fill="none" stroke="midnightblue" d="M499.499,-136.063C485.257,-139.22 470.235,-143.943 458,-152 410.407,-183.343 378.875,-246.431 366.237,-271.727"/>
<polygon fill="midnightblue" stroke="midnightblue" points="500.567,-139.418 509.681,-134.015 499.187,-132.556 500.567,-139.418"/>
</g>
<!-- Node15&#45;&gt;Node3 -->
<g id="edge54" class="edge"><title>Node15&#45;&gt;Node3</title>
<path fill="none" stroke="midnightblue" d="M495.165,-98.1254C482.08,-101.276 468.745,-106.057 458,-114 400.946,-156.178 372.913,-241.998 363.626,-271.904"/>
<polygon fill="midnightblue" stroke="midnightblue" points="496.027,-101.52 505.075,-96.0081 494.564,-94.6747 496.027,-101.52"/>
</g>
<!-- Node16&#45;&gt;Node3 -->
<g id="edge58" class="edge"><title>Node16&#45;&gt;Node3</title>
<path fill="none" stroke="midnightblue" d="M491.397,-60.4081C479.425,-63.582 467.541,-68.354 458,-76 391.418,-129.358 368.337,-237.943 362.022,-271.959"/>
<polygon fill="midnightblue" stroke="midnightblue" points="492.47,-63.7523 501.425,-58.0898 490.894,-56.9322 492.47,-63.7523"/>
</g>
<!-- Node18 -->
<g id="node49" class="node"><title>Node18</title>
<a xlink:href="namespaceServer.xhtml#a16ea0639731dee10e1a253375b508a02" target="_top" xlink:title="Recovers the server state and re&#45;connects client sockets after a reboot.">
<polygon fill="white" stroke="black" points="674,-625 674,-645 804,-645 804,-625 674,-625"/>
<text text-anchor="middle" x="739" y="-632" font-family="FreeSans.ttf" font-size="10.00">Server::RebootRecovery</text>
</a>
</g>
<!-- Node17&#45;&gt;Node18 -->
<g id="edge62" class="edge"><title>Node17&#45;&gt;Node18</title>
<path fill="none" stroke="midnightblue" d="M609.85,-622.153C630.343,-624.191 653.207,-626.466 673.935,-628.528"/>
<polygon fill="midnightblue" stroke="midnightblue" points="609.985,-618.649 599.687,-621.142 609.292,-625.614 609.985,-618.649"/>
</g>
<!-- Node21 -->
<g id="node55" class="node"><title>Node21</title>
<a xlink:href="classSocketServer.xhtml#afdbc60c3bc840875d2214b59c6213f63" target="_top" xlink:title="Accept a new connection on the listening port.">
<polygon fill="white" stroke="black" points="679,-587 679,-607 799,-607 799,-587 679,-587"/>
<text text-anchor="middle" x="739" y="-594" font-family="FreeSans.ttf" font-size="10.00">SocketServer::Accept</text>
</a>
</g>
<!-- Node17&#45;&gt;Node21 -->
<g id="edge68" class="edge"><title>Node17&#45;&gt;Node21</title>
<path fill="none" stroke="midnightblue" d="M609.653,-609.867C631.816,-607.662 656.772,-605.18 678.809,-602.988"/>
<polygon fill="midnightblue" stroke="midnightblue" points="609.292,-606.386 599.687,-610.858 609.985,-613.351 609.292,-606.386"/>
</g>
<!-- Node19 -->
<g id="node51" class="node"><title>Node19</title>
<a xlink:href="namespaceServer.xhtml#a19a1e493e1fb50a56d9c77332543d565" target="_top" xlink:title="Start the NAMS Server. Responsible for calling all critical boot&#45;time functions such as SocketServer ...">
<polygon fill="white" stroke="black" points="986,-617 986,-637 1076,-637 1076,-617 986,-617"/>
<text text-anchor="middle" x="1031" y="-624" font-family="FreeSans.ttf" font-size="10.00">Server::Startup</text>
</a>
</g>
<!-- Node18&#45;&gt;Node19 -->
<g id="edge64" class="edge"><title>Node18&#45;&gt;Node19</title>
<path fill="none" stroke="midnightblue" d="M814.449,-632.933C868.792,-631.444 940.302,-629.485 985.974,-628.234"/>
<polygon fill="midnightblue" stroke="midnightblue" points="814.067,-629.442 804.167,-633.215 814.259,-636.439 814.067,-629.442"/>
</g>
<!-- Node20 -->
<g id="node53" class="node"><title>Node20</title>
<a xlink:href="main_8cpp.xhtml#ad53223b8779f25caeddb70a3b9172967" target="_top" xlink:title="The default function required to execute the server.">
<polygon fill="white" stroke="black" points="1112.5,-597 1112.5,-617 1153.5,-617 1153.5,-597 1112.5,-597"/>
<text text-anchor="middle" x="1133" y="-604" font-family="FreeSans.ttf" font-size="10.00">main</text>
</a>
</g>
<!-- Node19&#45;&gt;Node20 -->
<g id="edge66" class="edge"><title>Node19&#45;&gt;Node20</title>
<path fill="none" stroke="midnightblue" d="M1085.9,-616.234C1095.36,-614.38 1104.64,-612.56 1112.43,-611.033"/>
<polygon fill="midnightblue" stroke="midnightblue" points="1085.18,-612.811 1076.04,-618.169 1086.52,-619.68 1085.18,-612.811"/>
</g>
<!-- Node22 -->
<g id="node57" class="node"><title>Node22</title>
<a xlink:href="namespaceServer.xhtml#a39dbe16fdc8c5f6fbd678c6540fbcd6c" target="_top" xlink:title="Poll all SocketClient objects that are communicating with the associated SocketServer object...">
<polygon fill="white" stroke="black" points="840.5,-577 840.5,-597 949.5,-597 949.5,-577 840.5,-577"/>
<text text-anchor="middle" x="895" y="-584" font-family="FreeSans.ttf" font-size="10.00">Server::PollSockets</text>
</a>
</g>
<!-- Node21&#45;&gt;Node22 -->
<g id="edge70" class="edge"><title>Node21&#45;&gt;Node22</title>
<path fill="none" stroke="midnightblue" d="M809.587,-592.475C819.947,-591.811 830.482,-591.136 840.454,-590.497"/>
<polygon fill="midnightblue" stroke="midnightblue" points="809.069,-589.001 799.314,-593.134 809.517,-595.987 809.069,-589.001"/>
</g>
<!-- Node23 -->
<g id="node59" class="node"><title>Node23</title>
<a xlink:href="namespaceServer.xhtml#a50b81aa91d8fdaee6f52c5c5ec987990" target="_top" xlink:title="The core update loop of NAMS. This loop spawns all other subsystem update routines and then sleeps fo...">
<polygon fill="white" stroke="black" points="986.5,-577 986.5,-597 1075.5,-597 1075.5,-577 986.5,-577"/>
<text text-anchor="middle" x="1031" y="-584" font-family="FreeSans.ttf" font-size="10.00">Server::Update</text>
</a>
</g>
<!-- Node22&#45;&gt;Node23 -->
<g id="edge72" class="edge"><title>Node22&#45;&gt;Node23</title>
<path fill="none" stroke="midnightblue" d="M959.698,-587C968.761,-587 977.903,-587 986.477,-587"/>
<polygon fill="midnightblue" stroke="midnightblue" points="959.533,-583.5 949.533,-587 959.533,-590.5 959.533,-583.5"/>
</g>
<!-- Node23&#45;&gt;Node20 -->
<g id="edge74" class="edge"><title>Node23&#45;&gt;Node20</title>
<path fill="none" stroke="midnightblue" d="M1085.64,-597.714C1095.14,-599.576 1104.47,-601.405 1112.3,-602.941"/>
<polygon fill="midnightblue" stroke="midnightblue" points="1086.23,-594.262 1075.74,-595.772 1084.88,-601.131 1086.23,-594.262"/>
</g>
<!-- Node25 -->
<g id="node64" class="node"><title>Node25</title>
<a xlink:href="namespaceServer.xhtml#a2b4cec469bb99c2a45e49de5ba74d1ae" target="_top" xlink:title="Processes input from all active SocketClient objects.">
<polygon fill="white" stroke="black" points="681,-511 681,-531 797,-531 797,-511 681,-511"/>
<text text-anchor="middle" x="739" y="-518" font-family="FreeSans.ttf" font-size="10.00">Server::ProcessInput</text>
</a>
</g>
<!-- Node24&#45;&gt;Node25 -->
<g id="edge78" class="edge"><title>Node24&#45;&gt;Node25</title>
<path fill="none" stroke="midnightblue" d="M634.594,-25.8739C635.772,-26.8619 636.909,-27.903 638,-29 709.324,-100.723 734.323,-446.522 738.384,-510.729"/>
<polygon fill="midnightblue" stroke="midnightblue" points="636.482,-22.9239 626.271,-20.0968 632.49,-28.6743 636.482,-22.9239"/>
</g>
<!-- Node25&#45;&gt;Node23 -->
<g id="edge80" class="edge"><title>Node25&#45;&gt;Node23</title>
<path fill="none" stroke="midnightblue" d="M794.606,-533.208C837.175,-542.596 897.332,-555.957 950,-568 962.532,-570.865 976.14,-574.035 988.562,-576.951"/>
<polygon fill="midnightblue" stroke="midnightblue" points="795.24,-529.763 784.721,-531.029 793.733,-536.599 795.24,-529.763"/>
</g>
<!-- Node26&#45;&gt;Node21 -->
<g id="edge88" class="edge"><title>Node26&#45;&gt;Node21</title>
<path fill="none" stroke="midnightblue" d="M615.077,-584.673C635.871,-586.741 658.642,-589.006 678.929,-591.024"/>
<polygon fill="midnightblue" stroke="midnightblue" points="615.345,-581.182 605.048,-583.675 614.652,-588.148 615.345,-581.182"/>
</g>
<!-- Node26&#45;&gt;Node22 -->
<g id="edge84" class="edge"><title>Node26&#45;&gt;Node22</title>
<path fill="none" stroke="midnightblue" d="M615.268,-576.192C666.925,-575.242 740.015,-574.844 804,-578 815.734,-578.579 828.288,-579.575 840.207,-580.699"/>
<polygon fill="midnightblue" stroke="midnightblue" points="615.161,-572.693 605.232,-576.389 615.298,-579.692 615.161,-572.693"/>
</g>
<!-- Node26&#45;&gt;Node25 -->
<g id="edge86" class="edge"><title>Node26&#45;&gt;Node25</title>
<path fill="none" stroke="midnightblue" d="M612.632,-565.685C621.217,-563.662 629.86,-561.425 638,-559 654.453,-554.1 657.947,-551.084 674,-545 686.261,-540.353 699.865,-535.312 711.445,-531.055"/>
<polygon fill="midnightblue" stroke="midnightblue" points="611.591,-562.332 602.614,-567.96 613.141,-569.158 611.591,-562.332"/>
</g>
</g>
</svg>
        <g id="navigator" transform="translate(0 0)" fill="#404254">
                <rect fill="#f2f5e9" fill-opacity="0.5" stroke="#606060" stroke-width=".5" x="0" y="0" width="60" height="60"/>
                <use id="zoomplus" xlink:href="#zoomPlus" x="17" y="9" onmousedown="handleZoom(evt,'in')"/>
                <use id="zoomminus" xlink:href="#zoomMin" x="42" y="9" onmousedown="handleZoom(evt,'out')"/>
                <use id="reset" xlink:href="#resetDef" x="30" y="36" onmousedown="handleReset()"/>
                <g id="arrowUp" xlink:href="#dirArrow" transform="translate(30 24)" onmousedown="handlePan(0,-1)">
                  <use xlink:href="#rim" fill="#404040">
                        <set attributeName="fill" to="#808080" begin="arrowUp.mouseover" end="arrowUp.mouseout"/>
                  </use>
                  <path fill="none" stroke="white" stroke-width="1.5" d="M0,-3.0v7 M-2.5,-0.5L0,-3.0L2.5,-0.5"/>
                </g>
                <g id="arrowRight" xlink:href="#dirArrow" transform="rotate(90) translate(36 -43)" onmousedown="handlePan(1,0)">
                  <use xlink:href="#rim" fill="#404040">
                        <set attributeName="fill" to="#808080" begin="arrowRight.mouseover" end="arrowRight.mouseout"/>
                  </use>
                  <path fill="none" stroke="white" stroke-width="1.5" d="M0,-3.0v7 M-2.5,-0.5L0,-3.0L2.5,-0.5"/>
                </g>
                <g id="arrowDown" xlink:href="#dirArrow" transform="rotate(180) translate(-30 -48)" onmousedown="handlePan(0,1)">
                  <use xlink:href="#rim" fill="#404040">
                        <set attributeName="fill" to="#808080" begin="arrowDown.mouseover" end="arrowDown.mouseout"/>
                  </use>
                  <path fill="none" stroke="white" stroke-width="1.5" d="M0,-3.0v7 M-2.5,-0.5L0,-3.0L2.5,-0.5"/>
                </g>
                <g id="arrowLeft" xlink:href="#dirArrow" transform="rotate(270) translate(-36 17)" onmousedown="handlePan(-1,0)">
                  <use xlink:href="#rim" fill="#404040">
                        <set attributeName="fill" to="#808080" begin="arrowLeft.mouseover" end="arrowLeft.mouseout"/>
                  </use>
                  <path fill="none" stroke="white" stroke-width="1.5" d="M0,-3.0v7 M-2.5,-0.5L0,-3.0L2.5,-0.5"/>
                </g>
        </g>
        <svg viewBox="0 0 15 15" width="100%" height="30px" preserveAspectRatio="xMaxYMin meet">
         <g id="arrow_out" transform="scale(0.3 0.3)">
          <a xlink:href="classAccount_aa82e62e930fb3a8ac58a4592f323db75_icgraph_org.svg" target="_base">
           <rect id="button" ry="5" rx="5" y="6" x="6" height="38" width="38"
                fill="#f2f5e9" fill-opacity="0.5" stroke="#606060" stroke-width="1.0"/>
           <path id="arrow"
             d="M 11.500037,31.436501 C 11.940474,20.09759 22.043105,11.32322 32.158766,21.979434 L 37.068811,17.246167 C 37.068811,17.246167 37.088388,32 37.088388,32 L 22.160133,31.978069 C 22.160133,31.978069 26.997745,27.140456 26.997745,27.140456 C 18.528582,18.264221 13.291696,25.230495 11.500037,31.436501 z"
             style="fill:#404040;"/>
          </a>
         </g>
        </svg>
</svg>
