<?xml version="1.0" encoding="UTF-8" standalone="no"?>
<!DOCTYPE svg PUBLIC "-//W3C//DTD SVG 1.1//EN"
 "http://www.w3.org/Graphics/SVG/1.1/DTD/svg11.dtd">
<!-- Generated by graphviz version 2.26.3 (20100126.1600)
 -->
<!-- Title: Exit::Delete Pages: 1 -->
<svg width="728pt" height="104pt"
 viewBox="0.00 0.00 728.00 104.00" xmlns="http://www.w3.org/2000/svg" xmlns:xlink="http://www.w3.org/1999/xlink">
<g id="graph1" class="graph" transform="scale(1 1) rotate(0) translate(4 100)">
<title>Exit::Delete</title>
<polygon fill="white" stroke="white" points="-4,5 -4,-100 725,-100 725,5 -4,5"/>
<!-- Node1 -->
<g id="node1" class="node"><title>Node1</title>
<polygon fill="#bfbfbf" stroke="black" points="0.5,-38 0.5,-58 71.5,-58 71.5,-38 0.5,-38"/>
<text text-anchor="middle" x="36" y="-45" font-family="FreeSans.ttf" font-size="10.00">Exit::Delete</text>
</g>
<!-- Node2 -->
<g id="node3" class="node"><title>Node2</title>
<a xlink:href="classLocation.xhtml#a2640eee7c5e9b2b08f84a401f7beab53" target="_top" xlink:title="Unload a location from memory that was previously loaded via Location::New().">
<polygon fill="white" stroke="black" points="260.5,-76 260.5,-96 355.5,-96 355.5,-76 260.5,-76"/>
<text text-anchor="middle" x="308" y="-83" font-family="FreeSans.ttf" font-size="10.00">Location::Delete</text>
</a>
</g>
<!-- Node1&#45;&gt;Node2 -->
<g id="edge2" class="edge"><title>Node1&#45;&gt;Node2</title>
<path fill="none" stroke="midnightblue" d="M79.3643,-60.6651C88.7441,-63.0607 98.6533,-65.3343 108,-67 159.678,-76.2097 219.717,-81.1575 260.426,-83.6714"/>
<polygon fill="midnightblue" stroke="midnightblue" points="80.0082,-57.2151 69.4456,-58.0407 78.2176,-63.9822 80.0082,-57.2151"/>
</g>
<!-- Node6 -->
<g id="node11" class="node"><title>Node6</title>
<a xlink:href="classLocation.xhtml#af65d15c0c107b1fdea7711d632ac909d" target="_top" xlink:title="Unserialize the location data.">
<polygon fill="white" stroke="black" points="108,-38 108,-58 224,-58 224,-38 108,-38"/>
<text text-anchor="middle" x="166" y="-45" font-family="FreeSans.ttf" font-size="10.00">Location::Unserialize</text>
</a>
</g>
<!-- Node1&#45;&gt;Node6 -->
<g id="edge10" class="edge"><title>Node1&#45;&gt;Node6</title>
<path fill="none" stroke="midnightblue" d="M81.7724,-48C90.0959,-48 98.8815,-48 107.512,-48"/>
<polygon fill="midnightblue" stroke="midnightblue" points="81.5231,-44.5001 71.5231,-48 81.523,-51.5001 81.5231,-44.5001"/>
</g>
<!-- Node8 -->
<g id="node16" class="node"><title>Node8</title>
<a xlink:href="namespaceServer.xhtml#a21b284fbb08f1d61510945f64d0673cb" target="_top" xlink:title="Links Exit pointers together after all locations are loaded.">
<polygon fill="white" stroke="black" points="406.5,-0 406.5,-20 501.5,-20 501.5,-0 406.5,-0"/>
<text text-anchor="middle" x="454" y="-7" font-family="FreeSans.ttf" font-size="10.00">Server::LinkExits</text>
</a>
</g>
<!-- Node1&#45;&gt;Node8 -->
<g id="edge16" class="edge"><title>Node1&#45;&gt;Node8</title>
<path fill="none" stroke="midnightblue" d="M78.1664,-35.3432C87.8857,-32.8541 98.2379,-30.5397 108,-29 213.629,-12.3401 339.381,-9.6554 406.388,-9.5707"/>
<polygon fill="midnightblue" stroke="midnightblue" points="77.0753,-32.0119 68.3181,-37.9752 78.8828,-38.7745 77.0753,-32.0119"/>
</g>
<!-- Node3 -->
<g id="node5" class="node"><title>Node3</title>
<a xlink:href="namespaceServer.xhtml#a9b8efad79a32f2356d431788449e1f82" target="_top" xlink:title="Search all subfolders of CFG_DAT_DIR_WORLD and call Location::New() to load each file found to memory...">
<polygon fill="white" stroke="black" points="392.5,-38 392.5,-58 515.5,-58 515.5,-38 392.5,-38"/>
<text text-anchor="middle" x="454" y="-45" font-family="FreeSans.ttf" font-size="10.00">Server::LoadLocations</text>
</a>
</g>
<!-- Node2&#45;&gt;Node3 -->
<g id="edge4" class="edge"><title>Node2&#45;&gt;Node3</title>
<path fill="none" stroke="midnightblue" d="M356.482,-73.3815C375.612,-68.4024 397.283,-62.7618 415.33,-58.0647"/>
<polygon fill="midnightblue" stroke="midnightblue" points="355.538,-70.0104 346.742,-75.9165 357.301,-76.7847 355.538,-70.0104"/>
</g>
<!-- Node4 -->
<g id="node7" class="node"><title>Node4</title>
<a xlink:href="namespaceServer.xhtml#a19a1e493e1fb50a56d9c77332543d565" target="_top" xlink:title="Start the NAMS Server. Responsible for calling all critical boot&#45;time functions such as SocketServer ...">
<polygon fill="white" stroke="black" points="552,-19 552,-39 642,-39 642,-19 552,-19"/>
<text text-anchor="middle" x="597" y="-26" font-family="FreeSans.ttf" font-size="10.00">Server::Startup</text>
</a>
</g>
<!-- Node3&#45;&gt;Node4 -->
<g id="edge6" class="edge"><title>Node3&#45;&gt;Node4</title>
<path fill="none" stroke="midnightblue" d="M525.852,-38.4532C534.698,-37.2778 543.537,-36.1034 551.828,-35.0019"/>
<polygon fill="midnightblue" stroke="midnightblue" points="525.342,-34.9901 515.89,-39.7768 526.264,-41.9292 525.342,-34.9901"/>
</g>
<!-- Node5 -->
<g id="node9" class="node"><title>Node5</title>
<a xlink:href="main_8cpp.xhtml#ad53223b8779f25caeddb70a3b9172967" target="_top" xlink:title="The default function required to execute the server.">
<polygon fill="white" stroke="black" points="678.5,-19 678.5,-39 719.5,-39 719.5,-19 678.5,-19"/>
<text text-anchor="middle" x="699" y="-26" font-family="FreeSans.ttf" font-size="10.00">main</text>
</a>
</g>
<!-- Node4&#45;&gt;Node5 -->
<g id="edge8" class="edge"><title>Node4&#45;&gt;Node5</title>
<path fill="none" stroke="midnightblue" d="M652.203,-29C661.56,-29 670.726,-29 678.432,-29"/>
<polygon fill="midnightblue" stroke="midnightblue" points="652.036,-25.5001 642.036,-29 652.036,-32.5001 652.036,-25.5001"/>
</g>
<!-- Node7 -->
<g id="node13" class="node"><title>Node7</title>
<a xlink:href="classLocation.xhtml#a6396aba5eab9bcbabb000c3f6478e1a2" target="_top" xlink:title="Create a new location.">
<polygon fill="white" stroke="black" points="266.5,-38 266.5,-58 349.5,-58 349.5,-38 266.5,-38"/>
<text text-anchor="middle" x="308" y="-45" font-family="FreeSans.ttf" font-size="10.00">Location::New</text>
</a>
</g>
<!-- Node6&#45;&gt;Node7 -->
<g id="edge12" class="edge"><title>Node6&#45;&gt;Node7</title>
<path fill="none" stroke="midnightblue" d="M234.496,-48C245.329,-48 256.239,-48 266.217,-48"/>
<polygon fill="midnightblue" stroke="midnightblue" points="234.167,-44.5001 224.167,-48 234.167,-51.5001 234.167,-44.5001"/>
</g>
<!-- Node7&#45;&gt;Node3 -->
<g id="edge14" class="edge"><title>Node7&#45;&gt;Node3</title>
<path fill="none" stroke="midnightblue" d="M360.039,-48C370.485,-48 381.556,-48 392.294,-48"/>
<polygon fill="midnightblue" stroke="midnightblue" points="359.838,-44.5001 349.838,-48 359.838,-51.5001 359.838,-44.5001"/>
</g>
<!-- Node8&#45;&gt;Node4 -->
<g id="edge18" class="edge"><title>Node8&#45;&gt;Node4</title>
<path fill="none" stroke="midnightblue" d="M511.614,-17.6549C524.897,-19.4199 538.846,-21.2733 551.53,-22.9585"/>
<polygon fill="midnightblue" stroke="midnightblue" points="511.991,-14.1744 501.617,-16.3267 511.069,-21.1134 511.991,-14.1744"/>
</g>
</g>
</svg>
