<?xml version="1.0" encoding="UTF-8" standalone="no"?>
<!DOCTYPE svg PUBLIC "-//W3C//DTD SVG 1.1//EN"
 "http://www.w3.org/Graphics/SVG/1.1/DTD/svg11.dtd">
<!-- Generated by graphviz version 2.26.3 (20100126.1600)
 -->
<!-- Title: G Pages: 1 -->
<!--zoomable 262 -->
<svg id="main" version="1.1" xmlns="http://www.w3.org/2000/svg" xmlns:xlink="http://www.w3.org/1999/xlink" xml:space="preserve" onload="init(evt)">
        <defs>
                <circle id="rim" cx="0" cy="0" r="7"/>
                <circle id="rim2" cx="0" cy="0" r="3.5"/>
                <g id="zoomPlus">
                        <use xlink:href="#rim" fill="#404040">
                                <set attributeName="fill" to="#808080" begin="zoomplus.mouseover" end="zoomplus.mouseout"/>
                        </use>
                        <path d="M-4,0h8M0,-4v8" fill="none" stroke="white" stroke-width="1.5" pointer-events="none"/>
                </g>
                <g id="zoomMin">
                        <use xlink:href="#rim" fill="#404040">
                                <set attributeName="fill" to="#808080" begin="zoomminus.mouseover" end="zoomminus.mouseout"/>
                        </use>
                        <path d="M-4,0h8" fill="none" stroke="white" stroke-width="1.5" pointer-events="none"/>
                </g>
                <g id="dirArrow">
                        <path fill="none" stroke="white" stroke-width="1.5" d="M0,-3.0v7 M-2.5,-0.5L0,-3.0L2.5,-0.5"/>
                </g>
               <g id="resetDef">
                       <use xlink:href="#rim2" fill="#404040">
                               <set attributeName="fill" to="#808080" begin="reset.mouseover" end="reset.mouseout"/>
                       </use>
               </g>
        </defs>

<script type="text/javascript">
var viewWidth = 1318;
var viewHeight = 262;
var sectionId = 'dynsection-0';
</script>
<script xlink:href="svgpan.js"/>
<svg id="graph" class="graph">
<g id="viewport">
<title>G</title>
<polygon fill="white" stroke="white" points="-4,5 -4,-258 1315,-258 1315,5 -4,5"/>
<!-- Node1 -->
<g id="node1" class="node"><title>Node1</title>
<polygon fill="#bfbfbf" stroke="black" points="638.5,-232.5 638.5,-253.5 697.5,-253.5 697.5,-232.5 638.5,-232.5"/>
<text text-anchor="middle" x="668" y="-240.5" font-family="FreeSans.ttf" font-size="10.00">h/class.h</text>
</g>
<!-- Node2 -->
<g id="node3" class="node"><title>Node2</title>
<a xlink:href="handler_8h.xhtml" target="_top" xlink:title="The Handler namespace.">
<polygon fill="white" stroke="black" points="359,-174.5 359,-195.5 429,-195.5 429,-174.5 359,-174.5"/>
<text text-anchor="middle" x="394" y="-182.5" font-family="FreeSans.ttf" font-size="10.00">h/handler.h</text>
</a>
</g>
<!-- Node1&#45;&gt;Node2 -->
<g id="edge2" class="edge"><title>Node1&#45;&gt;Node2</title>
<path fill="none" stroke="midnightblue" d="M628.56,-234.947C583.607,-225.725 507.947,-210.073 443,-196 438.484,-195.021 433.738,-193.977 429.05,-192.935"/>
<polygon fill="midnightblue" stroke="midnightblue" points="627.987,-238.402 638.486,-236.981 629.392,-231.545 627.987,-238.402"/>
</g>
<!-- Node5 -->
<g id="node9" class="node"><title>Node5</title>
<a xlink:href="account_8cpp.xhtml" target="_top" xlink:title="All non&#45;template member functions of the Account class.">
<polygon fill="white" stroke="black" points="-0.5,-0.5 -0.5,-21.5 74.5,-21.5 74.5,-0.5 -0.5,-0.5"/>
<text text-anchor="middle" x="37" y="-8.5" font-family="FreeSans.ttf" font-size="10.00">account.cpp</text>
</a>
</g>
<!-- Node1&#45;&gt;Node5 -->
<g id="edge40" class="edge"><title>Node1&#45;&gt;Node5</title>
<path fill="none" stroke="midnightblue" d="M628.151,-241.083C540.434,-236.418 333.333,-222.837 269,-196 168.205,-153.953 75.2483,-54.675 46.2719,-21.7903"/>
<polygon fill="midnightblue" stroke="midnightblue" points="628.071,-244.584 638.239,-241.608 628.435,-237.593 628.071,-244.584"/>
</g>
<!-- Node6 -->
<g id="node11" class="node"><title>Node6</title>
<a xlink:href="character_8cpp.xhtml" target="_top" xlink:title="All non&#45;template member functions of the Character class.">
<polygon fill="white" stroke="black" points="92,-0.5 92,-21.5 174,-21.5 174,-0.5 92,-0.5"/>
<text text-anchor="middle" x="133" y="-8.5" font-family="FreeSans.ttf" font-size="10.00">character.cpp</text>
</a>
</g>
<!-- Node1&#45;&gt;Node6 -->
<g id="edge42" class="edge"><title>Node1&#45;&gt;Node6</title>
<path fill="none" stroke="midnightblue" d="M628.051,-241.232C545.822,-237.048 360.687,-224.658 305,-196 222.332,-153.457 158.627,-54.5045 139.17,-21.7464"/>
<polygon fill="midnightblue" stroke="midnightblue" points="628.091,-244.739 638.251,-241.736 628.436,-237.747 628.091,-244.739"/>
</g>
<!-- Node7 -->
<g id="node13" class="node"><title>Node7</title>
<a xlink:href="command_8cpp.xhtml" target="_top" xlink:title="All non&#45;template member functions of the Command class.">
<polygon fill="white" stroke="black" points="192,-0.5 192,-21.5 278,-21.5 278,-0.5 192,-0.5"/>
<text text-anchor="middle" x="235" y="-8.5" font-family="FreeSans.ttf" font-size="10.00">command.cpp</text>
</a>
</g>
<!-- Node1&#45;&gt;Node7 -->
<g id="edge44" class="edge"><title>Node1&#45;&gt;Node7</title>
<path fill="none" stroke="midnightblue" d="M627.948,-241.901C549.461,-239.033 378.976,-229.073 332,-196 269.135,-151.741 243.868,-53.9146 237.04,-21.5943"/>
<polygon fill="midnightblue" stroke="midnightblue" points="628.276,-245.414 638.39,-242.26 628.516,-238.418 628.276,-245.414"/>
</g>
<!-- Node8 -->
<g id="node15" class="node"><title>Node8</title>
<a xlink:href="event_8cpp.xhtml" target="_top" xlink:title="All non&#45;template member functions of the Event class.">
<polygon fill="white" stroke="black" points="386,-0.5 386,-21.5 450,-21.5 450,-0.5 386,-0.5"/>
<text text-anchor="middle" x="418" y="-8.5" font-family="FreeSans.ttf" font-size="10.00">event.cpp</text>
</a>
</g>
<!-- Node1&#45;&gt;Node8 -->
<g id="edge46" class="edge"><title>Node1&#45;&gt;Node8</title>
<path fill="none" stroke="midnightblue" d="M628.559,-234.122C602.698,-226.913 569.148,-214.804 544,-196 478.333,-146.899 435.318,-53.0605 422.224,-21.5878"/>
<polygon fill="midnightblue" stroke="midnightblue" points="627.85,-237.555 638.413,-236.739 629.646,-230.79 627.85,-237.555"/>
</g>
<!-- Node9 -->
<g id="node17" class="node"><title>Node9</title>
<a xlink:href="handler_8cpp.xhtml" target="_top" xlink:title="All non&#45;template member functions of the Handler namespace.">
<polygon fill="white" stroke="black" points="296,-0.5 296,-21.5 368,-21.5 368,-0.5 296,-0.5"/>
<text text-anchor="middle" x="332" y="-8.5" font-family="FreeSans.ttf" font-size="10.00">handler.cpp</text>
</a>
</g>
<!-- Node1&#45;&gt;Node9 -->
<g id="edge48" class="edge"><title>Node1&#45;&gt;Node9</title>
<path fill="none" stroke="midnightblue" d="M628.02,-239.825C546.881,-232.995 368.937,-215.903 350,-196 303.066,-146.671 321.272,-52.9806 329.122,-21.5667"/>
<polygon fill="midnightblue" stroke="midnightblue" points="628.085,-243.342 638.34,-240.682 628.664,-236.366 628.085,-243.342"/>
</g>
<!-- Node10 -->
<g id="node19" class="node"><title>Node10</title>
<a xlink:href="list_8cpp.xhtml" target="_top" xlink:title="All globally referenced list / map / vector types.">
<polygon fill="white" stroke="black" points="468,-0.5 468,-21.5 518,-21.5 518,-0.5 468,-0.5"/>
<text text-anchor="middle" x="493" y="-8.5" font-family="FreeSans.ttf" font-size="10.00">list.cpp</text>
</a>
</g>
<!-- Node1&#45;&gt;Node10 -->
<g id="edge50" class="edge"><title>Node1&#45;&gt;Node10</title>
<path fill="none" stroke="midnightblue" d="M631.46,-228.387C595.478,-211.989 541.97,-181.817 514,-138 490.071,-100.514 490.655,-44.5654 492.101,-21.5094"/>
<polygon fill="midnightblue" stroke="midnightblue" points="630.094,-231.61 640.655,-232.453 632.925,-225.207 630.094,-231.61"/>
</g>
<!-- Node11 -->
<g id="node21" class="node"><title>Node11</title>
<a xlink:href="main_8cpp.xhtml" target="_top" xlink:title="Initial server entry point.">
<polygon fill="white" stroke="black" points="535.5,-0.5 535.5,-21.5 596.5,-21.5 596.5,-0.5 535.5,-0.5"/>
<text text-anchor="middle" x="566" y="-8.5" font-family="FreeSans.ttf" font-size="10.00">main.cpp</text>
</a>
</g>
<!-- Node1&#45;&gt;Node11 -->
<g id="edge52" class="edge"><title>Node1&#45;&gt;Node11</title>
<path fill="none" stroke="midnightblue" d="M663.596,-222.469C657.315,-196.232 644.037,-150.132 622,-116 609.555,-96.7245 596.676,-99.7507 585,-80 573.998,-61.3893 569.174,-36.2012 567.213,-21.9746"/>
<polygon fill="midnightblue" stroke="midnightblue" points="660.226,-223.434 665.865,-232.404 667.05,-221.876 660.226,-223.434"/>
</g>
<!-- Node12 -->
<g id="node23" class="node"><title>Node12</title>
<a xlink:href="plugin_8cpp.xhtml" target="_top" xlink:title="All non&#45;template member functions of the Plugin class.">
<polygon fill="white" stroke="black" points="613.5,-0.5 613.5,-21.5 678.5,-21.5 678.5,-0.5 613.5,-0.5"/>
<text text-anchor="middle" x="646" y="-8.5" font-family="FreeSans.ttf" font-size="10.00">plugin.cpp</text>
</a>
</g>
<!-- Node1&#45;&gt;Node12 -->
<g id="edge54" class="edge"><title>Node1&#45;&gt;Node12</title>
<path fill="none" stroke="midnightblue" d="M673.404,-222.358C681.544,-187.594 694.264,-115.528 677,-58 672.842,-44.1438 663.131,-30.6001 655.677,-21.6387"/>
<polygon fill="midnightblue" stroke="midnightblue" points="669.956,-221.722 670.966,-232.269 676.753,-223.394 669.956,-221.722"/>
</g>
<!-- Node13 -->
<g id="node25" class="node"><title>Node13</title>
<a xlink:href="server_8cpp.xhtml" target="_top" xlink:title="All non&#45;template member functions of the Server class.">
<polygon fill="white" stroke="black" points="696,-0.5 696,-21.5 762,-21.5 762,-0.5 696,-0.5"/>
<text text-anchor="middle" x="729" y="-8.5" font-family="FreeSans.ttf" font-size="10.00">server.cpp</text>
</a>
</g>
<!-- Node1&#45;&gt;Node13 -->
<g id="edge56" class="edge"><title>Node1&#45;&gt;Node13</title>
<path fill="none" stroke="midnightblue" d="M680.621,-223.493C685.44,-215.285 690.589,-205.457 694,-196 716.956,-132.349 725.672,-50.6763 728.167,-21.7428"/>
<polygon fill="midnightblue" stroke="midnightblue" points="677.485,-221.912 675.241,-232.267 683.452,-225.572 677.485,-221.912"/>
</g>
<!-- Node14 -->
<g id="node27" class="node"><title>Node14</title>
<a xlink:href="socket_8cpp.xhtml" target="_top" xlink:title="All non&#45;template member functions of the Socket class.">
<polygon fill="white" stroke="black" points="780,-0.5 780,-21.5 848,-21.5 848,-0.5 780,-0.5"/>
<text text-anchor="middle" x="814" y="-8.5" font-family="FreeSans.ttf" font-size="10.00">socket.cpp</text>
</a>
</g>
<!-- Node1&#45;&gt;Node14 -->
<g id="edge58" class="edge"><title>Node1&#45;&gt;Node14</title>
<path fill="none" stroke="midnightblue" d="M686.279,-225.028C694.349,-216.607 703.65,-206.199 711,-196 755.707,-133.97 795.761,-50.6098 809.21,-21.5305"/>
<polygon fill="midnightblue" stroke="midnightblue" points="683.53,-222.832 679.023,-232.421 688.525,-227.736 683.53,-222.832"/>
</g>
<!-- Node15 -->
<g id="node29" class="node"><title>Node15</title>
<a xlink:href="socketclient_8cpp.xhtml" target="_top" xlink:title="All non&#45;template member functions of the SocketClient class.">
<polygon fill="white" stroke="black" points="866,-0.5 866,-21.5 960,-21.5 960,-0.5 866,-0.5"/>
<text text-anchor="middle" x="913" y="-8.5" font-family="FreeSans.ttf" font-size="10.00">socketclient.cpp</text>
</a>
</g>
<!-- Node1&#45;&gt;Node15 -->
<g id="edge60" class="edge"><title>Node1&#45;&gt;Node15</title>
<path fill="none" stroke="midnightblue" d="M692.204,-226.633C704.49,-217.978 719.434,-206.908 732,-196 802.58,-134.734 877.956,-50.8962 903.74,-21.6111"/>
<polygon fill="midnightblue" stroke="midnightblue" points="690.016,-223.891 683.799,-232.471 694.009,-229.64 690.016,-223.891"/>
</g>
<!-- Node16 -->
<g id="node31" class="node"><title>Node16</title>
<a xlink:href="socketserver_8cpp.xhtml" target="_top" xlink:title="All non&#45;template member functions of the SocketServer class.">
<polygon fill="white" stroke="black" points="978,-0.5 978,-21.5 1076,-21.5 1076,-0.5 978,-0.5"/>
<text text-anchor="middle" x="1027" y="-8.5" font-family="FreeSans.ttf" font-size="10.00">socketserver.cpp</text>
</a>
</g>
<!-- Node1&#45;&gt;Node16 -->
<g id="edge62" class="edge"><title>Node1&#45;&gt;Node16</title>
<path fill="none" stroke="midnightblue" d="M698.731,-227.872C716.104,-219.048 738.069,-207.432 757,-196 858.173,-134.9 973.182,-50.9587 1012.75,-21.6286"/>
<polygon fill="midnightblue" stroke="midnightblue" points="696.959,-224.846 689.6,-232.468 700.106,-231.098 696.959,-224.846"/>
</g>
<!-- Node17 -->
<g id="node33" class="node"><title>Node17</title>
<a xlink:href="telopt_8cpp.xhtml" target="_top" xlink:title="All non&#45;template member functions of the Telopt namespace.">
<polygon fill="white" stroke="black" points="1093.5,-0.5 1093.5,-21.5 1158.5,-21.5 1158.5,-0.5 1093.5,-0.5"/>
<text text-anchor="middle" x="1126" y="-8.5" font-family="FreeSans.ttf" font-size="10.00">telopt.cpp</text>
</a>
</g>
<!-- Node1&#45;&gt;Node17 -->
<g id="edge64" class="edge"><title>Node1&#45;&gt;Node17</title>
<path fill="none" stroke="midnightblue" d="M707.371,-228.847C730.802,-220.081 760.948,-208.196 787,-196 913.607,-136.728 1058.85,-51.2877 1108.39,-21.622"/>
<polygon fill="midnightblue" stroke="midnightblue" points="705.931,-225.648 697.771,-232.405 708.364,-232.212 705.931,-225.648"/>
</g>
<!-- Node18 -->
<g id="node35" class="node"><title>Node18</title>
<a xlink:href="thing_8cpp.xhtml" target="_top" xlink:title="All non&#45;template member functions of the Thing class.">
<polygon fill="white" stroke="black" points="1175.5,-0.5 1175.5,-21.5 1236.5,-21.5 1236.5,-0.5 1175.5,-0.5"/>
<text text-anchor="middle" x="1206" y="-8.5" font-family="FreeSans.ttf" font-size="10.00">thing.cpp</text>
</a>
</g>
<!-- Node1&#45;&gt;Node18 -->
<g id="edge66" class="edge"><title>Node1&#45;&gt;Node18</title>
<path fill="none" stroke="midnightblue" d="M707.428,-232.645C738.659,-224.024 783.173,-210.802 821,-196 965.331,-139.522 1130.61,-51.9561 1186.43,-21.7065"/>
<polygon fill="midnightblue" stroke="midnightblue" points="706.506,-229.268 697.78,-235.278 708.349,-236.021 706.506,-229.268"/>
</g>
<!-- Node19 -->
<g id="node37" class="node"><title>Node19</title>
<a xlink:href="utils_8cpp.xhtml" target="_top" xlink:title="All non&#45;template member functions of the Utils namespace.">
<polygon fill="white" stroke="black" points="1254,-0.5 1254,-21.5 1310,-21.5 1310,-0.5 1254,-0.5"/>
<text text-anchor="middle" x="1282" y="-8.5" font-family="FreeSans.ttf" font-size="10.00">utils.cpp</text>
</a>
</g>
<!-- Node1&#45;&gt;Node19 -->
<g id="edge68" class="edge"><title>Node1&#45;&gt;Node19</title>
<path fill="none" stroke="midnightblue" d="M707.56,-235.484C746.982,-227.502 808.975,-213.613 861,-196 1019.8,-142.238 1201.37,-52.1905 1261.49,-21.5655"/>
<polygon fill="midnightblue" stroke="midnightblue" points="706.677,-232.091 697.556,-237.48 708.047,-238.955 706.677,-232.091"/>
</g>
<!-- Node3 -->
<g id="node5" class="node"><title>Node3</title>
<a xlink:href="namespace_8h.xhtml" target="_top" xlink:title="All namespace includes.">
<polygon fill="white" stroke="black" points="522.5,-116.5 522.5,-137.5 613.5,-137.5 613.5,-116.5 522.5,-116.5"/>
<text text-anchor="middle" x="568" y="-124.5" font-family="FreeSans.ttf" font-size="10.00">h/namespace.h</text>
</a>
</g>
<!-- Node2&#45;&gt;Node3 -->
<g id="edge4" class="edge"><title>Node2&#45;&gt;Node3</title>
<path fill="none" stroke="midnightblue" d="M435.164,-171.279C466.169,-160.944 508.045,-146.985 536.431,-137.523"/>
<polygon fill="midnightblue" stroke="midnightblue" points="433.89,-168.014 425.51,-174.497 436.104,-174.655 433.89,-168.014"/>
</g>
<!-- Node2&#45;&gt;Node9 -->
<g id="edge38" class="edge"><title>Node2&#45;&gt;Node9</title>
<path fill="none" stroke="midnightblue" d="M386.759,-164.679C373.574,-127.674 346.069,-50.483 335.894,-21.9277"/>
<polygon fill="midnightblue" stroke="midnightblue" points="383.561,-166.132 390.215,-174.377 390.155,-163.783 383.561,-166.132"/>
</g>
<!-- Node4 -->
<g id="node7" class="node"><title>Node4</title>
<a xlink:href="includes_8h.xhtml" target="_top" xlink:title="All non&#45;system includes that need to be within each .cpp file.">
<polygon fill="white" stroke="black" points="594,-58.5 594,-79.5 668,-79.5 668,-58.5 594,-58.5"/>
<text text-anchor="middle" x="631" y="-66.5" font-family="FreeSans.ttf" font-size="10.00">h/includes.h</text>
</a>
</g>
<!-- Node3&#45;&gt;Node4 -->
<g id="edge6" class="edge"><title>Node3&#45;&gt;Node4</title>
<path fill="none" stroke="midnightblue" d="M587.112,-109.405C597.688,-99.6683 610.48,-87.8914 619.518,-79.5707"/>
<polygon fill="midnightblue" stroke="midnightblue" points="584.542,-107.014 579.555,-116.362 589.283,-112.164 584.542,-107.014"/>
</g>
<!-- Node4&#45;&gt;Node5 -->
<g id="edge8" class="edge"><title>Node4&#45;&gt;Node5</title>
<path fill="none" stroke="midnightblue" d="M583.711,-67.32C488.428,-63.4128 266.765,-51.6822 83,-22 80.2439,-21.5548 77.4085,-21.0339 74.5634,-20.4651"/>
<polygon fill="midnightblue" stroke="midnightblue" points="583.753,-70.8244 593.885,-67.7269 584.033,-63.83 583.753,-70.8244"/>
</g>
<!-- Node4&#45;&gt;Node6 -->
<g id="edge10" class="edge"><title>Node4&#45;&gt;Node6</title>
<path fill="none" stroke="midnightblue" d="M583.947,-65.8069C502.082,-59.8634 328.289,-45.5271 183,-22 180.105,-21.5311 177.125,-21.0004 174.131,-20.4315"/>
<polygon fill="midnightblue" stroke="midnightblue" points="583.712,-69.299 593.937,-66.5235 584.213,-62.3169 583.712,-69.299"/>
</g>
<!-- Node4&#45;&gt;Node7 -->
<g id="edge12" class="edge"><title>Node4&#45;&gt;Node7</title>
<path fill="none" stroke="midnightblue" d="M583.805,-63.6533C517.362,-55.8758 392.554,-40.3502 287,-22 284.091,-21.4942 281.096,-20.9431 278.084,-20.3657"/>
<polygon fill="midnightblue" stroke="midnightblue" points="583.619,-67.1551 593.956,-64.8342 584.428,-60.202 583.619,-67.1551"/>
</g>
<!-- Node4&#45;&gt;Node8 -->
<g id="edge14" class="edge"><title>Node4&#45;&gt;Node8</title>
<path fill="none" stroke="midnightblue" d="M584.217,-56.2609C543.574,-45.1939 485.787,-29.4584 450.155,-19.7558"/>
<polygon fill="midnightblue" stroke="midnightblue" points="583.33,-59.6468 593.898,-58.8972 585.169,-52.8927 583.33,-59.6468"/>
</g>
<!-- Node4&#45;&gt;Node9 -->
<g id="edge16" class="edge"><title>Node4&#45;&gt;Node9</title>
<path fill="none" stroke="midnightblue" d="M583.766,-61.0859C532.641,-52.3276 448.788,-37.4029 377,-22 374.169,-21.3926 371.245,-20.7385 368.309,-20.0629"/>
<polygon fill="midnightblue" stroke="midnightblue" points="583.405,-64.5749 593.852,-62.8065 584.583,-57.6746 583.405,-64.5749"/>
</g>
<!-- Node4&#45;&gt;Node10 -->
<g id="edge18" class="edge"><title>Node4&#45;&gt;Node10</title>
<path fill="none" stroke="midnightblue" d="M596.774,-54.6153C572.443,-44.3889 540.3,-30.8796 518.271,-21.6212"/>
<polygon fill="midnightblue" stroke="midnightblue" points="595.434,-57.8486 606.009,-58.4966 598.146,-51.3954 595.434,-57.8486"/>
</g>
<!-- Node4&#45;&gt;Node11 -->
<g id="edge20" class="edge"><title>Node4&#45;&gt;Node11</title>
<path fill="none" stroke="midnightblue" d="M611.602,-51.6908C600.629,-41.8996 587.263,-29.973 577.846,-21.5707"/>
<polygon fill="midnightblue" stroke="midnightblue" points="609.286,-54.3155 619.078,-58.3619 613.947,-49.0925 609.286,-54.3155"/>
</g>
<!-- Node4&#45;&gt;Node12 -->
<g id="edge22" class="edge"><title>Node4&#45;&gt;Node12</title>
<path fill="none" stroke="midnightblue" d="M636.305,-48.4876C638.657,-39.3924 641.325,-29.0756 643.266,-21.5707"/>
<polygon fill="midnightblue" stroke="midnightblue" points="632.867,-47.8041 633.751,-58.3619 639.644,-49.5568 632.867,-47.8041"/>
</g>
<!-- Node4&#45;&gt;Node13 -->
<g id="edge24" class="edge"><title>Node4&#45;&gt;Node13</title>
<path fill="none" stroke="midnightblue" d="M657.864,-53.1009C674.82,-43.0658 696.253,-30.3808 711.139,-21.5707"/>
<polygon fill="midnightblue" stroke="midnightblue" points="655.798,-50.2566 648.975,-58.3619 659.363,-56.2807 655.798,-50.2566"/>
</g>
<!-- Node4&#45;&gt;Node14 -->
<g id="edge26" class="edge"><title>Node4&#45;&gt;Node14</title>
<path fill="none" stroke="midnightblue" d="M673.87,-55.4127C706.52,-45.0646 750.815,-31.0258 780.798,-21.5231"/>
<polygon fill="midnightblue" stroke="midnightblue" points="672.615,-52.1388 664.14,-58.4966 674.73,-58.8117 672.615,-52.1388"/>
</g>
<!-- Node4&#45;&gt;Node15 -->
<g id="edge28" class="edge"><title>Node4&#45;&gt;Node15</title>
<path fill="none" stroke="midnightblue" d="M678.146,-59.3032C730.279,-48.581 813.767,-31.4096 865.886,-20.69"/>
<polygon fill="midnightblue" stroke="midnightblue" points="677.246,-55.915 668.157,-61.3579 678.657,-62.7715 677.246,-55.915"/>
</g>
<!-- Node4&#45;&gt;Node16 -->
<g id="edge30" class="edge"><title>Node4&#45;&gt;Node16</title>
<path fill="none" stroke="midnightblue" d="M678.102,-63.1948C743.516,-54.9632 865.505,-38.9992 969,-22 971.933,-21.5183 974.946,-21.0045 977.982,-20.4722"/>
<polygon fill="midnightblue" stroke="midnightblue" points="677.588,-59.7317 668.101,-64.4484 678.459,-66.6774 677.588,-59.7317"/>
</g>
<!-- Node4&#45;&gt;Node17 -->
<g id="edge32" class="edge"><title>Node4&#45;&gt;Node17</title>
<path fill="none" stroke="midnightblue" d="M678.172,-66.5924C761.054,-61.8129 937.975,-49.155 1085,-22 1087.75,-21.4914 1090.59,-20.8913 1093.43,-20.2383"/>
<polygon fill="midnightblue" stroke="midnightblue" points="677.85,-63.1049 668.063,-67.1629 678.245,-70.0938 677.85,-63.1049"/>
</g>
<!-- Node4&#45;&gt;Node18 -->
<g id="edge34" class="edge"><title>Node4&#45;&gt;Node18</title>
<path fill="none" stroke="midnightblue" d="M678.055,-67.8324C771.82,-64.8566 988.323,-54.7328 1167,-22 1169.77,-21.4929 1172.62,-20.8758 1175.47,-20.1953"/>
<polygon fill="midnightblue" stroke="midnightblue" points="677.924,-64.3347 668.035,-68.1378 678.137,-71.3314 677.924,-64.3347"/>
</g>
<!-- Node4&#45;&gt;Node19 -->
<g id="edge36" class="edge"><title>Node4&#45;&gt;Node19</title>
<path fill="none" stroke="midnightblue" d="M678.409,-66.6778C802.787,-60.3764 1136.34,-42.0755 1245,-22 1247.9,-21.4643 1250.9,-20.7878 1253.87,-20.0347"/>
<polygon fill="midnightblue" stroke="midnightblue" points="677.889,-63.1994 668.078,-67.1979 678.241,-70.1906 677.889,-63.1994"/>
</g>
</g>
</svg>
        <g id="navigator" transform="translate(0 0)" fill="#404254">
                <rect fill="#f2f5e9" fill-opacity="0.5" stroke="#606060" stroke-width=".5" x="0" y="0" width="60" height="60"/>
                <use id="zoomplus" xlink:href="#zoomPlus" x="17" y="9" onmousedown="handleZoom(evt,'in')"/>
                <use id="zoomminus" xlink:href="#zoomMin" x="42" y="9" onmousedown="handleZoom(evt,'out')"/>
                <use id="reset" xlink:href="#resetDef" x="30" y="36" onmousedown="handleReset()"/>
                <g id="arrowUp" xlink:href="#dirArrow" transform="translate(30 24)" onmousedown="handlePan(0,-1)">
                  <use xlink:href="#rim" fill="#404040">
                        <set attributeName="fill" to="#808080" begin="arrowUp.mouseover" end="arrowUp.mouseout"/>
                  </use>
                  <path fill="none" stroke="white" stroke-width="1.5" d="M0,-3.0v7 M-2.5,-0.5L0,-3.0L2.5,-0.5"/>
                </g>
                <g id="arrowRight" xlink:href="#dirArrow" transform="rotate(90) translate(36 -43)" onmousedown="handlePan(1,0)">
                  <use xlink:href="#rim" fill="#404040">
                        <set attributeName="fill" to="#808080" begin="arrowRight.mouseover" end="arrowRight.mouseout"/>
                  </use>
                  <path fill="none" stroke="white" stroke-width="1.5" d="M0,-3.0v7 M-2.5,-0.5L0,-3.0L2.5,-0.5"/>
                </g>
                <g id="arrowDown" xlink:href="#dirArrow" transform="rotate(180) translate(-30 -48)" onmousedown="handlePan(0,1)">
                  <use xlink:href="#rim" fill="#404040">
                        <set attributeName="fill" to="#808080" begin="arrowDown.mouseover" end="arrowDown.mouseout"/>
                  </use>
                  <path fill="none" stroke="white" stroke-width="1.5" d="M0,-3.0v7 M-2.5,-0.5L0,-3.0L2.5,-0.5"/>
                </g>
                <g id="arrowLeft" xlink:href="#dirArrow" transform="rotate(270) translate(-36 17)" onmousedown="handlePan(-1,0)">
                  <use xlink:href="#rim" fill="#404040">
                        <set attributeName="fill" to="#808080" begin="arrowLeft.mouseover" end="arrowLeft.mouseout"/>
                  </use>
                  <path fill="none" stroke="white" stroke-width="1.5" d="M0,-3.0v7 M-2.5,-0.5L0,-3.0L2.5,-0.5"/>
                </g>
        </g>
</svg>
