<?xml version="1.0" encoding="UTF-8" standalone="no"?>
<!DOCTYPE svg PUBLIC "-//W3C//DTD SVG 1.1//EN"
 "http://www.w3.org/Graphics/SVG/1.1/DTD/svg11.dtd">
<!-- Generated by graphviz version 2.26.3 (20100126.1600)
 -->
<!-- Title: G Pages: 1 -->
<!--zoomable 625 -->
<svg id="main" version="1.1" xmlns="http://www.w3.org/2000/svg" xmlns:xlink="http://www.w3.org/1999/xlink" xml:space="preserve" onload="init(evt)">
        <defs>
                <circle id="rim" cx="0" cy="0" r="7"/>
                <circle id="rim2" cx="0" cy="0" r="3.5"/>
                <g id="zoomPlus">
                        <use xlink:href="#rim" fill="#404040">
                                <set attributeName="fill" to="#808080" begin="zoomplus.mouseover" end="zoomplus.mouseout"/>
                        </use>
                        <path d="M-4,0h8M0,-4v8" fill="none" stroke="white" stroke-width="1.5" pointer-events="none"/>
                </g>
                <g id="zoomMin">
                        <use xlink:href="#rim" fill="#404040">
                                <set attributeName="fill" to="#808080" begin="zoomminus.mouseover" end="zoomminus.mouseout"/>
                        </use>
                        <path d="M-4,0h8" fill="none" stroke="white" stroke-width="1.5" pointer-events="none"/>
                </g>
                <g id="dirArrow">
                        <path fill="none" stroke="white" stroke-width="1.5" d="M0,-3.0v7 M-2.5,-0.5L0,-3.0L2.5,-0.5"/>
                </g>
               <g id="resetDef">
                       <use xlink:href="#rim2" fill="#404040">
                               <set attributeName="fill" to="#808080" begin="reset.mouseover" end="reset.mouseout"/>
                       </use>
               </g>
        </defs>

<script type="text/javascript">
var viewWidth = 1354;
var viewHeight = 625;
var sectionId = 'dynsection-5';
</script>
<script xlink:href="svgpan.js"/>
<svg id="graph" class="graph">
<g id="viewport">
<title>G</title>
<polygon fill="white" stroke="white" points="-4,5 -4,-621 1351,-621 1351,5 -4,5"/>
<!-- Node1 -->
<g id="node1" class="node"><title>Node1</title>
<polygon fill="#bfbfbf" stroke="black" points="0,-537.5 0,-558.5 86,-558.5 86,-537.5 0,-537.5"/>
<text text-anchor="middle" x="43" y="-545.5" font-family="FreeSans.ttf" font-size="10.00">Thing::gServer</text>
</g>
<!-- Node2 -->
<g id="node3" class="node"><title>Node2</title>
<a xlink:href="classCharacter.xhtml#a4f7ff295f5de0fa4f8fece0acb7aaa53" target="_top" xlink:title="Unload a character from memory that was previously loaded via Character::New().">
<polygon fill="white" stroke="black" points="122.5,-537.5 122.5,-558.5 223.5,-558.5 223.5,-537.5 122.5,-537.5"/>
<text text-anchor="middle" x="173" y="-545.5" font-family="FreeSans.ttf" font-size="10.00">Character::Delete</text>
</a>
</g>
<!-- Node1&#45;&gt;Node2 -->
<g id="edge2" class="edge"><title>Node1&#45;&gt;Node2</title>
<path fill="none" stroke="midnightblue" d="M96.497,-548C105.011,-548 113.796,-548 122.244,-548"/>
<polygon fill="midnightblue" stroke="midnightblue" points="96.2882,-544.5 86.2881,-548 96.2881,-551.5 96.2882,-544.5"/>
</g>
<!-- Node3 -->
<g id="node5" class="node"><title>Node3</title>
<a xlink:href="classAccount.xhtml#a569c9ef0e42b9157690b4ceb646daba8" target="_top" xlink:title="Destructor for the Account class.">
<polygon fill="white" stroke="black" points="275.5,-595.5 275.5,-616.5 384.5,-616.5 384.5,-595.5 275.5,-595.5"/>
<text text-anchor="middle" x="330" y="-603.5" font-family="FreeSans.ttf" font-size="10.00">Account::~Account</text>
</a>
</g>
<!-- Node2&#45;&gt;Node3 -->
<g id="edge4" class="edge"><title>Node2&#45;&gt;Node3</title>
<path fill="none" stroke="midnightblue" d="M210.076,-562.246C225.492,-568.121 243.585,-574.956 260,-581 273.079,-585.815 287.581,-591.017 299.977,-595.422"/>
<polygon fill="midnightblue" stroke="midnightblue" points="210.968,-558.84 200.377,-558.541 208.47,-565.379 210.968,-558.84"/>
</g>
<!-- Node4 -->
<g id="node7" class="node"><title>Node4</title>
<a xlink:href="namespaceHandler.xhtml#a2e4ebf6ed049eb872aa4948d54c4932c" target="_top" xlink:title="Attempt to write a new character to disk after creation was completed.">
<polygon fill="white" stroke="black" points="260.5,-279.5 260.5,-300.5 399.5,-300.5 399.5,-279.5 260.5,-279.5"/>
<text text-anchor="middle" x="330" y="-287.5" font-family="FreeSans.ttf" font-size="10.00">Handler::AttachCharacter</text>
</a>
</g>
<!-- Node2&#45;&gt;Node4 -->
<g id="edge6" class="edge"><title>Node2&#45;&gt;Node4</title>
<path fill="none" stroke="midnightblue" d="M184.908,-528.432C216.168,-477.062 299.798,-339.632 323.599,-300.518"/>
<polygon fill="midnightblue" stroke="midnightblue" points="181.755,-526.88 179.546,-537.243 187.735,-530.519 181.755,-526.88"/>
</g>
<!-- Node8 -->
<g id="node18" class="node"><title>Node8</title>
<a xlink:href="namespaceHandler.xhtml#ad04998a7a6ece2486bc441052a57c2d7" target="_top" xlink:title="Main Character creation menu.">
<polygon fill="white" stroke="black" points="596,-558.5 596,-579.5 784,-579.5 784,-558.5 596,-558.5"/>
<text text-anchor="middle" x="690" y="-566.5" font-family="FreeSans.ttf" font-size="10.00">Handler::CharacterCreateMenuMain</text>
</a>
</g>
<!-- Node2&#45;&gt;Node8 -->
<g id="edge86" class="edge"><title>Node2&#45;&gt;Node8</title>
<path fill="none" stroke="midnightblue" d="M233.807,-551.652C242.594,-552.134 251.528,-552.599 260,-553 375.476,-558.466 508.47,-563.17 595.607,-566.036"/>
<polygon fill="midnightblue" stroke="midnightblue" points="233.775,-548.145 223.596,-551.081 233.385,-555.134 233.775,-548.145"/>
</g>
<!-- Node9 -->
<g id="node21" class="node"><title>Node9</title>
<a xlink:href="namespaceHandler.xhtml#ab5889a65de2794129b375ec39ae923ae" target="_top" xlink:title="Select a new Character name.">
<polygon fill="white" stroke="black" points="605.5,-518.5 605.5,-539.5 774.5,-539.5 774.5,-518.5 605.5,-518.5"/>
<text text-anchor="middle" x="690" y="-526.5" font-family="FreeSans.ttf" font-size="10.00">Handler::CharacterCreateName</text>
</a>
</g>
<!-- Node2&#45;&gt;Node9 -->
<g id="edge88" class="edge"><title>Node2&#45;&gt;Node9</title>
<path fill="none" stroke="midnightblue" d="M233.773,-545.767C325.78,-542.385 500.747,-535.955 605.227,-532.115"/>
<polygon fill="midnightblue" stroke="midnightblue" points="233.378,-542.279 223.513,-546.144 233.635,-549.274 233.378,-542.279"/>
</g>
<!-- Node5 -->
<g id="node9" class="node"><title>Node5</title>
<a xlink:href="namespaceHandler.xhtml#a139febc000c9d767a620708148e0c888" target="_top" xlink:title="Dispatches the appropriate menu based on client state.">
<polygon fill="white" stroke="black" points="436.5,-279.5 436.5,-300.5 559.5,-300.5 559.5,-279.5 436.5,-279.5"/>
<text text-anchor="middle" x="498" y="-287.5" font-family="FreeSans.ttf" font-size="10.00">Handler::LoginHandler</text>
</a>
</g>
<!-- Node4&#45;&gt;Node5 -->
<g id="edge8" class="edge"><title>Node4&#45;&gt;Node5</title>
<path fill="none" stroke="midnightblue" d="M409.841,-283.257C418.789,-283.226 427.8,-283.296 436.467,-283.469"/>
<polygon fill="midnightblue" stroke="midnightblue" points="409.76,-279.758 399.788,-283.337 409.815,-286.758 409.76,-279.758"/>
</g>
<!-- Node5&#45;&gt;Node4 -->
<g id="edge14" class="edge"><title>Node5&#45;&gt;Node4</title>
<path fill="none" stroke="midnightblue" d="M426.271,-296.686C417.495,-296.778 408.535,-296.771 399.788,-296.663"/>
<polygon fill="midnightblue" stroke="midnightblue" points="426.521,-300.182 436.467,-296.531 426.415,-293.183 426.521,-300.182"/>
</g>
<!-- Node6 -->
<g id="node11" class="node"><title>Node6</title>
<a xlink:href="namespaceHandler.xhtml#a33a19d69ead678af81fbe96907eceaf0" target="_top" xlink:title="Create a new account object, or load an existing one, with a name and password.">
<polygon fill="white" stroke="black" points="624.5,-240.5 624.5,-261.5 755.5,-261.5 755.5,-240.5 624.5,-240.5"/>
<text text-anchor="middle" x="690" y="-248.5" font-family="FreeSans.ttf" font-size="10.00">Handler::AttachAccount</text>
</a>
</g>
<!-- Node5&#45;&gt;Node6 -->
<g id="edge10" class="edge"><title>Node5&#45;&gt;Node6</title>
<path fill="none" stroke="midnightblue" d="M535.807,-276.823C560.994,-270.458 594.764,-263.283 624.28,-257.907"/>
<polygon fill="midnightblue" stroke="midnightblue" points="534.712,-273.491 525.918,-279.401 536.478,-280.265 534.712,-273.491"/>
</g>
<!-- Node7 -->
<g id="node15" class="node"><title>Node7</title>
<a xlink:href="namespaceHandler.xhtml#a73ed6064f2698dbffb5f4c247a02b661" target="_top" xlink:title="Send initial account interface menu.">
<polygon fill="white" stroke="black" points="616,-200.5 616,-221.5 764,-221.5 764,-200.5 616,-200.5"/>
<text text-anchor="middle" x="690" y="-208.5" font-family="FreeSans.ttf" font-size="10.00">Handler::AccountMenuMain</text>
</a>
</g>
<!-- Node5&#45;&gt;Node7 -->
<g id="edge16" class="edge"><title>Node5&#45;&gt;Node7</title>
<path fill="none" stroke="midnightblue" d="M513.126,-272.32C531.696,-256.334 564.601,-234.388 596,-222 602.363,-219.489 609.1,-217.27 615.926,-215.35"/>
<polygon fill="midnightblue" stroke="midnightblue" points="510.649,-269.843 505.66,-279.19 515.388,-274.994 510.649,-269.843"/>
</g>
<!-- Node5&#45;&gt;Node8 -->
<g id="edge20" class="edge"><title>Node5&#45;&gt;Node8</title>
<path fill="none" stroke="midnightblue" d="M499.823,-310.741C504.986,-359.086 524.403,-478.541 596,-540 607.394,-549.781 622.395,-555.156 637.058,-558.406"/>
<polygon fill="midnightblue" stroke="midnightblue" points="503.284,-310.167 498.836,-300.551 496.316,-310.842 503.284,-310.167"/>
</g>
<!-- Node5&#45;&gt;Node9 -->
<g id="edge24" class="edge"><title>Node5&#45;&gt;Node9</title>
<path fill="none" stroke="midnightblue" d="M501.847,-310.599C510.161,-353.224 534.298,-450.12 596,-500 608.197,-509.86 624.11,-515.175 639.367,-518.4"/>
<polygon fill="midnightblue" stroke="midnightblue" points="505.247,-309.739 499.982,-300.545 498.365,-311.015 505.247,-309.739"/>
</g>
<!-- Node10 -->
<g id="node24" class="node"><title>Node10</title>
<a xlink:href="namespaceHandler.xhtml#ae5086bcf5857eb572beedd09158c3065" target="_top" xlink:title="Select a new Character sex.">
<polygon fill="white" stroke="black" points="611,-160.5 611,-181.5 769,-181.5 769,-160.5 611,-160.5"/>
<text text-anchor="middle" x="690" y="-168.5" font-family="FreeSans.ttf" font-size="10.00">Handler::CharacterCreateSex</text>
</a>
</g>
<!-- Node5&#45;&gt;Node10 -->
<g id="edge28" class="edge"><title>Node5&#45;&gt;Node10</title>
<path fill="none" stroke="midnightblue" d="M507.516,-270.496C523.248,-245.344 556.857,-203.387 596,-182 600.685,-179.44 605.668,-177.208 610.801,-175.278"/>
<polygon fill="midnightblue" stroke="midnightblue" points="504.431,-268.839 502.388,-279.235 510.468,-272.382 504.431,-268.839"/>
</g>
<!-- Node11 -->
<g id="node27" class="node"><title>Node11</title>
<a xlink:href="namespaceHandler.xhtml#a97a198bfc72285b2aca4f36978db715e" target="_top" xlink:title="Main Character deletion confirmation.">
<polygon fill="white" stroke="black" points="602,-120.5 602,-141.5 778,-141.5 778,-120.5 602,-120.5"/>
<text text-anchor="middle" x="690" y="-128.5" font-family="FreeSans.ttf" font-size="10.00">Handler::CharacterDeleteConfirm</text>
</a>
</g>
<!-- Node5&#45;&gt;Node11 -->
<g id="edge32" class="edge"><title>Node5&#45;&gt;Node11</title>
<path fill="none" stroke="midnightblue" d="M504.046,-269.959C516.559,-237.106 548.185,-173.544 596,-142 597.811,-140.806 599.68,-139.681 601.597,-138.623"/>
<polygon fill="midnightblue" stroke="midnightblue" points="500.718,-268.873 500.658,-279.467 507.312,-271.222 500.718,-268.873"/>
</g>
<!-- Node12 -->
<g id="node30" class="node"><title>Node12</title>
<a xlink:href="namespaceHandler.xhtml#afc470ec6e82b7a9a1560588a368734f9" target="_top" xlink:title="Main Character deletion menu.">
<polygon fill="white" stroke="black" points="596,-80.5 596,-101.5 784,-101.5 784,-80.5 596,-80.5"/>
<text text-anchor="middle" x="690" y="-88.5" font-family="FreeSans.ttf" font-size="10.00">Handler::CharacterDeleteMenuMain</text>
</a>
</g>
<!-- Node5&#45;&gt;Node12 -->
<g id="edge36" class="edge"><title>Node5&#45;&gt;Node12</title>
<path fill="none" stroke="midnightblue" d="M501.831,-269.522C511.266,-229.914 539.104,-144.341 596,-102 596.134,-101.9 596.268,-101.801 596.403,-101.703"/>
<polygon fill="midnightblue" stroke="midnightblue" points="498.388,-268.881 499.649,-279.401 505.223,-270.391 498.388,-268.881"/>
</g>
<!-- Node13 -->
<g id="node33" class="node"><title>Node13</title>
<a xlink:href="namespaceHandler.xhtml#a02b1b954749641ab646f6548a5360d3b" target="_top" xlink:title="Main Character load menu.">
<polygon fill="white" stroke="black" points="600.5,-40.5 600.5,-61.5 779.5,-61.5 779.5,-40.5 600.5,-40.5"/>
<text text-anchor="middle" x="690" y="-48.5" font-family="FreeSans.ttf" font-size="10.00">Handler::CharacterLoadMenuMain</text>
</a>
</g>
<!-- Node5&#45;&gt;Node13 -->
<g id="edge40" class="edge"><title>Node5&#45;&gt;Node13</title>
<path fill="none" stroke="midnightblue" d="M500.203,-269.461C506.679,-223.918 529.565,-115.706 596,-62 597.427,-60.8462 598.905,-59.7546 600.428,-58.7228"/>
<polygon fill="midnightblue" stroke="midnightblue" points="496.732,-269.017 498.921,-279.383 503.674,-269.914 496.732,-269.017"/>
</g>
<!-- Node14 -->
<g id="node36" class="node"><title>Node14</title>
<a xlink:href="namespaceHandler.xhtml#a00bc24564bfd267e0329643c569da1e4" target="_top" xlink:title="Select a new account name.">
<polygon fill="white" stroke="black" points="621.5,-0.5 621.5,-21.5 758.5,-21.5 758.5,-0.5 621.5,-0.5"/>
<text text-anchor="middle" x="690" y="-8.5" font-family="FreeSans.ttf" font-size="10.00">Handler::GetNewAccount</text>
</a>
</g>
<!-- Node5&#45;&gt;Node14 -->
<g id="edge44" class="edge"><title>Node5&#45;&gt;Node14</title>
<path fill="none" stroke="midnightblue" d="M499.002,-269.322C502.733,-218.302 519.862,-87.3576 596,-22 603.343,-15.6969 612.184,-11.2232 621.466,-8.17828"/>
<polygon fill="midnightblue" stroke="midnightblue" points="495.499,-269.264 498.366,-279.464 502.486,-269.703 495.499,-269.264"/>
</g>
<!-- Node15 -->
<g id="node39" class="node"><title>Node15</title>
<a xlink:href="namespaceHandler.xhtml#a744adadcf407cdb3a9c33365afd5a7c2" target="_top" xlink:title="Create a new account.">
<polygon fill="white" stroke="black" points="619,-478.5 619,-499.5 761,-499.5 761,-478.5 619,-478.5"/>
<text text-anchor="middle" x="690" y="-486.5" font-family="FreeSans.ttf" font-size="10.00">Handler::GetNewPassword</text>
</a>
</g>
<!-- Node5&#45;&gt;Node15 -->
<g id="edge48" class="edge"><title>Node5&#45;&gt;Node15</title>
<path fill="none" stroke="midnightblue" d="M504.835,-310.714C516.514,-347.145 544.227,-421.472 596,-460 609.519,-470.06 627.002,-475.296 643.217,-478.5"/>
<polygon fill="midnightblue" stroke="midnightblue" points="508.033,-309.212 501.716,-300.706 501.35,-311.294 508.033,-309.212"/>
</g>
<!-- Node16 -->
<g id="node42" class="node"><title>Node16</title>
<a xlink:href="namespaceHandler.xhtml#adfe13cc9748392348f3941656a1323b6" target="_top" xlink:title="Compare a received password against an existing account.">
<polygon fill="white" stroke="black" points="621.5,-438.5 621.5,-459.5 758.5,-459.5 758.5,-438.5 621.5,-438.5"/>
<text text-anchor="middle" x="690" y="-446.5" font-family="FreeSans.ttf" font-size="10.00">Handler::GetOldPassword</text>
</a>
</g>
<!-- Node5&#45;&gt;Node16 -->
<g id="edge52" class="edge"><title>Node5&#45;&gt;Node16</title>
<path fill="none" stroke="midnightblue" d="M509.102,-309.899C524.028,-339.055 553.67,-392.074 596,-420 611.32,-430.107 630.83,-435.22 648.1,-438.48"/>
<polygon fill="midnightblue" stroke="midnightblue" points="512.07,-308.012 504.44,-300.662 505.821,-311.167 512.07,-308.012"/>
</g>
<!-- Node17 -->
<g id="node45" class="node"><title>Node17</title>
<a xlink:href="namespaceHandler.xhtml#ae70e4e50054c729c14493eafefe01b5c" target="_top" xlink:title="Load a character from the account to enter into the game with.">
<polygon fill="white" stroke="black" points="624.5,-398.5 624.5,-419.5 755.5,-419.5 755.5,-398.5 624.5,-398.5"/>
<text text-anchor="middle" x="690" y="-406.5" font-family="FreeSans.ttf" font-size="10.00">Handler::LoadCharacter</text>
</a>
</g>
<!-- Node5&#45;&gt;Node17 -->
<g id="edge56" class="edge"><title>Node5&#45;&gt;Node17</title>
<path fill="none" stroke="midnightblue" d="M516.171,-308.447C533.905,-329.287 562.984,-361.961 596,-380 614.156,-389.92 636.777,-394.922 655.279,-398.466"/>
<polygon fill="midnightblue" stroke="midnightblue" points="518.639,-305.946 509.506,-300.576 513.297,-310.469 518.639,-305.946"/>
</g>
<!-- Node18 -->
<g id="node48" class="node"><title>Node18</title>
<a xlink:href="namespaceHandler.xhtml#a44b41bf69fdc6e615a029bea34910191" target="_top" xlink:title="Send initial greeting and request for account name.">
<polygon fill="white" stroke="black" points="630.5,-358.5 630.5,-379.5 749.5,-379.5 749.5,-358.5 630.5,-358.5"/>
<text text-anchor="middle" x="690" y="-366.5" font-family="FreeSans.ttf" font-size="10.00">Handler::LoginScreen</text>
</a>
</g>
<!-- Node5&#45;&gt;Node18 -->
<g id="edge60" class="edge"><title>Node5&#45;&gt;Node18</title>
<path fill="none" stroke="midnightblue" d="M531.136,-305.764C549.48,-316.894 573.139,-330.981 596,-340 618.194,-348.756 644.924,-353.971 664.197,-358.437"/>
<polygon fill="midnightblue" stroke="midnightblue" points="532.949,-302.77 522.585,-300.573 529.317,-308.754 532.949,-302.77"/>
</g>
<!-- Node19 -->
<g id="node51" class="node"><title>Node19</title>
<a xlink:href="classSocketClient.xhtml#a48c79d01b91f2c1553c3b33b26714215" target="_top" xlink:title="Build a SocketClient for a new client connection and set all attributes.">
<polygon fill="white" stroke="black" points="638.5,-318.5 638.5,-339.5 741.5,-339.5 741.5,-318.5 638.5,-318.5"/>
<text text-anchor="middle" x="690" y="-326.5" font-family="FreeSans.ttf" font-size="10.00">SocketClient::New</text>
</a>
</g>
<!-- Node5&#45;&gt;Node19 -->
<g id="edge64" class="edge"><title>Node5&#45;&gt;Node19</title>
<path fill="none" stroke="midnightblue" d="M559.585,-302.509C584.933,-307.658 613.971,-313.557 638.203,-318.479"/>
<polygon fill="midnightblue" stroke="midnightblue" points="560.202,-299.063 549.705,-300.503 558.808,-305.923 560.202,-299.063"/>
</g>
<!-- Node26 -->
<g id="node66" class="node"><title>Node26</title>
<a xlink:href="classSocketClient.xhtml#ad4f63c7d906310dc56a1217136047d7f" target="_top" xlink:title="Interpret the command at the front of the queue.">
<polygon fill="white" stroke="black" points="820,-278.5 820,-299.5 990,-299.5 990,-278.5 820,-278.5"/>
<text text-anchor="middle" x="905" y="-286.5" font-family="FreeSans.ttf" font-size="10.00">SocketClient::ProcessCommand</text>
</a>
</g>
<!-- Node5&#45;&gt;Node26 -->
<g id="edge80" class="edge"><title>Node5&#45;&gt;Node26</title>
<path fill="none" stroke="midnightblue" d="M569.851,-289.823C639.713,-289.652 745.841,-289.391 819.896,-289.209"/>
<polygon fill="midnightblue" stroke="midnightblue" points="569.806,-286.323 559.815,-289.848 569.823,-293.323 569.806,-286.323"/>
</g>
<!-- Node6&#45;&gt;Node5 -->
<g id="edge12" class="edge"><title>Node6&#45;&gt;Node5</title>
<path fill="none" stroke="midnightblue" d="M652.291,-264.152C625.898,-270.826 590.044,-278.394 559.542,-283.847"/>
<polygon fill="midnightblue" stroke="midnightblue" points="653.475,-267.461 662.267,-261.549 651.707,-260.687 653.475,-267.461"/>
</g>
<!-- Node7&#45;&gt;Node5 -->
<g id="edge18" class="edge"><title>Node7&#45;&gt;Node5</title>
<path fill="none" stroke="midnightblue" d="M654.412,-223.778C636.478,-227.79 614.64,-232.646 596,-240 569.398,-250.495 541.715,-267.851 522.585,-279.427"/>
<polygon fill="midnightblue" stroke="midnightblue" points="655.216,-227.185 664.197,-221.563 653.671,-220.358 655.216,-227.185"/>
</g>
<!-- Node8&#45;&gt;Node5 -->
<g id="edge22" class="edge"><title>Node8&#45;&gt;Node5</title>
<path fill="none" stroke="midnightblue" d="M588.867,-551.487C513.263,-478.666 500.413,-340.236 498.366,-300.536"/>
<polygon fill="midnightblue" stroke="midnightblue" points="586.629,-554.183 596.381,-558.324 591.34,-549.006 586.629,-554.183"/>
</g>
<!-- Node9&#45;&gt;Node5 -->
<g id="edge26" class="edge"><title>Node9&#45;&gt;Node5</title>
<path fill="none" stroke="midnightblue" d="M596.538,-518.43C596.358,-518.287 596.178,-518.144 596,-518 524.087,-459.866 503.201,-337.867 498.921,-300.617"/>
<polygon fill="midnightblue" stroke="midnightblue" points="594.866,-521.523 605.118,-524.196 598.771,-515.713 594.866,-521.523"/>
</g>
<!-- Node10&#45;&gt;Node5 -->
<g id="edge30" class="edge"><title>Node10&#45;&gt;Node5</title>
<path fill="none" stroke="midnightblue" d="M645.417,-183.508C629.133,-186.943 611.035,-191.785 596,-200 558.435,-220.525 525.967,-259.994 509.506,-279.424"/>
<polygon fill="midnightblue" stroke="midnightblue" points="646.16,-186.929 655.279,-181.534 644.786,-180.065 646.16,-186.929"/>
</g>
<!-- Node11&#45;&gt;Node5 -->
<g id="edge34" class="edge"><title>Node11&#45;&gt;Node5</title>
<path fill="none" stroke="midnightblue" d="M638.192,-143.57C623.661,-146.873 608.447,-151.788 596,-160 548.679,-191.218 517.214,-253.797 504.44,-279.338"/>
<polygon fill="midnightblue" stroke="midnightblue" points="639.016,-146.973 648.1,-141.52 637.598,-140.118 639.016,-146.973"/>
</g>
<!-- Node12&#45;&gt;Node5 -->
<g id="edge38" class="edge"><title>Node12&#45;&gt;Node5</title>
<path fill="none" stroke="midnightblue" d="M633.223,-103.727C620.063,-107.03 606.773,-111.983 596,-120 538.871,-162.514 511.038,-248.616 501.716,-279.294"/>
<polygon fill="midnightblue" stroke="midnightblue" points="634.218,-107.092 643.217,-101.5 632.695,-100.259 634.218,-107.092"/>
</g>
<!-- Node13&#45;&gt;Node5 -->
<g id="edge42" class="edge"><title>Node13&#45;&gt;Node5</title>
<path fill="none" stroke="midnightblue" d="M629.306,-64.042C617.326,-67.3677 605.529,-72.297 596,-80 528.784,-134.337 506.147,-244.469 499.982,-279.455"/>
<polygon fill="midnightblue" stroke="midnightblue" points="630.474,-67.3602 639.367,-61.6 628.823,-60.5577 630.474,-67.3602"/>
</g>
<!-- Node14&#45;&gt;Node5 -->
<g id="edge46" class="edge"><title>Node14&#45;&gt;Node5</title>
<path fill="none" stroke="midnightblue" d="M627.085,-24.1565C615.783,-27.5056 604.813,-32.4352 596,-40 518.663,-106.386 502.208,-240.44 498.836,-279.449"/>
<polygon fill="midnightblue" stroke="midnightblue" points="628.244,-27.4726 637.058,-21.5937 626.501,-20.6929 628.244,-27.4726"/>
</g>
<!-- Node15&#45;&gt;Node5 -->
<g id="edge50" class="edge"><title>Node15&#45;&gt;Node5</title>
<path fill="none" stroke="midnightblue" d="M609.453,-485.966C604.695,-483.734 600.16,-481.096 596,-478 533.755,-431.679 506.288,-333.613 499.649,-300.599"/>
<polygon fill="midnightblue" stroke="midnightblue" points="608.255,-489.257 618.838,-489.767 610.883,-482.769 608.255,-489.257"/>
</g>
<!-- Node16&#45;&gt;Node5 -->
<g id="edge54" class="edge"><title>Node16&#45;&gt;Node5</title>
<path fill="none" stroke="midnightblue" d="M611.8,-446.231C606.244,-443.962 600.907,-441.237 596,-438 543.01,-403.042 509.904,-328.761 500.658,-300.533"/>
<polygon fill="midnightblue" stroke="midnightblue" points="610.724,-449.563 621.318,-449.629 613.077,-442.971 610.724,-449.563"/>
</g>
<!-- Node17&#45;&gt;Node5 -->
<g id="edge58" class="edge"><title>Node17&#45;&gt;Node5</title>
<path fill="none" stroke="midnightblue" d="M614.052,-405.897C607.774,-403.715 601.669,-401.097 596,-398 551.856,-373.881 514.751,-323.6 502.388,-300.765"/>
<polygon fill="midnightblue" stroke="midnightblue" points="613.437,-409.37 624.024,-408.972 615.5,-402.681 613.437,-409.37"/>
</g>
<!-- Node18&#45;&gt;Node5 -->
<g id="edge62" class="edge"><title>Node18&#45;&gt;Node5</title>
<path fill="none" stroke="midnightblue" d="M620.588,-365.912C612.179,-363.723 603.809,-361.081 596,-358 559.792,-343.715 521.582,-316.719 505.66,-300.81"/>
<polygon fill="midnightblue" stroke="midnightblue" points="619.907,-369.348 630.447,-368.272 621.537,-362.54 619.907,-369.348"/>
</g>
<!-- Node20 -->
<g id="node53" class="node"><title>Node20</title>
<a xlink:href="classServer.xhtml#a16ea0639731dee10e1a253375b508a02" target="_top" xlink:title="Recovers the server state and re&#45;connects client sockets after a reboot.">
<polygon fill="white" stroke="black" points="840,-358.5 840,-379.5 970,-379.5 970,-358.5 840,-358.5"/>
<text text-anchor="middle" x="905" y="-366.5" font-family="FreeSans.ttf" font-size="10.00">Server::RebootRecovery</text>
</a>
</g>
<!-- Node19&#45;&gt;Node20 -->
<g id="edge66" class="edge"><title>Node19&#45;&gt;Node20</title>
<path fill="none" stroke="midnightblue" d="M751.843,-340.506C782.275,-346.167 818.702,-352.945 848.394,-358.469"/>
<polygon fill="midnightblue" stroke="midnightblue" points="752.243,-337.02 741.771,-338.632 750.963,-343.902 752.243,-337.02"/>
</g>
<!-- Node23 -->
<g id="node59" class="node"><title>Node23</title>
<a xlink:href="classSocketServer.xhtml#afdbc60c3bc840875d2214b59c6213f63" target="_top" xlink:title="Accept a new connection on the listening port.">
<polygon fill="white" stroke="black" points="845,-318.5 845,-339.5 965,-339.5 965,-318.5 845,-318.5"/>
<text text-anchor="middle" x="905" y="-326.5" font-family="FreeSans.ttf" font-size="10.00">SocketServer::Accept</text>
</a>
</g>
<!-- Node19&#45;&gt;Node23 -->
<g id="edge72" class="edge"><title>Node19&#45;&gt;Node23</title>
<path fill="none" stroke="midnightblue" d="M751.868,-329C781.117,-329 815.901,-329 844.92,-329"/>
<polygon fill="midnightblue" stroke="midnightblue" points="751.771,-325.5 741.771,-329 751.771,-332.5 751.771,-325.5"/>
</g>
<!-- Node21 -->
<g id="node55" class="node"><title>Node21</title>
<a xlink:href="classServer.xhtml#a19a1e493e1fb50a56d9c77332543d565" target="_top" xlink:title="Start the NAMS Server. Responsible for calling all critical boot&#45;time functions such as SocketServer ...">
<polygon fill="white" stroke="black" points="1178,-358.5 1178,-379.5 1268,-379.5 1268,-358.5 1178,-358.5"/>
<text text-anchor="middle" x="1223" y="-366.5" font-family="FreeSans.ttf" font-size="10.00">Server::Startup</text>
</a>
</g>
<!-- Node20&#45;&gt;Node21 -->
<g id="edge68" class="edge"><title>Node20&#45;&gt;Node21</title>
<path fill="none" stroke="midnightblue" d="M980.16,-369C1041.64,-369 1126.54,-369 1177.95,-369"/>
<polygon fill="midnightblue" stroke="midnightblue" points="980.119,-365.5 970.119,-369 980.119,-372.5 980.119,-365.5"/>
</g>
<!-- Node22 -->
<g id="node57" class="node"><title>Node22</title>
<a xlink:href="main_8cpp.xhtml#ad53223b8779f25caeddb70a3b9172967" target="_top" xlink:title="The default function required to execute the server.">
<polygon fill="white" stroke="black" points="1304.5,-338.5 1304.5,-359.5 1345.5,-359.5 1345.5,-338.5 1304.5,-338.5"/>
<text text-anchor="middle" x="1325" y="-346.5" font-family="FreeSans.ttf" font-size="10.00">main</text>
</a>
</g>
<!-- Node21&#45;&gt;Node22 -->
<g id="edge70" class="edge"><title>Node21&#45;&gt;Node22</title>
<path fill="none" stroke="midnightblue" d="M1277.9,-358.234C1287.36,-356.38 1296.64,-354.56 1304.43,-353.033"/>
<polygon fill="midnightblue" stroke="midnightblue" points="1277.18,-354.811 1268.04,-360.169 1278.52,-361.68 1277.18,-354.811"/>
</g>
<!-- Node24 -->
<g id="node61" class="node"><title>Node24</title>
<a xlink:href="classServer.xhtml#a39dbe16fdc8c5f6fbd678c6540fbcd6c" target="_top" xlink:title="Poll all SocketClient objects that are communicating with the associated SocketServer object...">
<polygon fill="white" stroke="black" points="1029.5,-318.5 1029.5,-339.5 1138.5,-339.5 1138.5,-318.5 1029.5,-318.5"/>
<text text-anchor="middle" x="1084" y="-326.5" font-family="FreeSans.ttf" font-size="10.00">Server::PollSockets</text>
</a>
</g>
<!-- Node23&#45;&gt;Node24 -->
<g id="edge74" class="edge"><title>Node23&#45;&gt;Node24</title>
<path fill="none" stroke="midnightblue" d="M975.268,-329C993.284,-329 1012.39,-329 1029.48,-329"/>
<polygon fill="midnightblue" stroke="midnightblue" points="975.102,-325.5 965.102,-329 975.102,-332.5 975.102,-325.5"/>
</g>
<!-- Node25 -->
<g id="node63" class="node"><title>Node25</title>
<a xlink:href="classServer.xhtml#a50b81aa91d8fdaee6f52c5c5ec987990" target="_top" xlink:title="The core update loop of NAMS. This loop spawns all other subsystem update routines and then sleeps fo...">
<polygon fill="white" stroke="black" points="1178.5,-318.5 1178.5,-339.5 1267.5,-339.5 1267.5,-318.5 1178.5,-318.5"/>
<text text-anchor="middle" x="1223" y="-326.5" font-family="FreeSans.ttf" font-size="10.00">Server::Update</text>
</a>
</g>
<!-- Node24&#45;&gt;Node25 -->
<g id="edge76" class="edge"><title>Node24&#45;&gt;Node25</title>
<path fill="none" stroke="midnightblue" d="M1148.57,-329C1158.69,-329 1168.94,-329 1178.47,-329"/>
<polygon fill="midnightblue" stroke="midnightblue" points="1148.54,-325.5 1138.54,-329 1148.54,-332.5 1148.54,-325.5"/>
</g>
<!-- Node25&#45;&gt;Node22 -->
<g id="edge78" class="edge"><title>Node25&#45;&gt;Node22</title>
<path fill="none" stroke="midnightblue" d="M1277.64,-339.714C1287.14,-341.576 1296.47,-343.405 1304.3,-344.941"/>
<polygon fill="midnightblue" stroke="midnightblue" points="1278.23,-336.262 1267.74,-337.772 1276.88,-343.131 1278.23,-336.262"/>
</g>
<!-- Node27 -->
<g id="node68" class="node"><title>Node27</title>
<a xlink:href="classServer.xhtml#a2b4cec469bb99c2a45e49de5ba74d1ae" target="_top" xlink:title="Processes input from all active SocketClient objects.">
<polygon fill="white" stroke="black" points="1026,-278.5 1026,-299.5 1142,-299.5 1142,-278.5 1026,-278.5"/>
<text text-anchor="middle" x="1084" y="-286.5" font-family="FreeSans.ttf" font-size="10.00">Server::ProcessInput</text>
</a>
</g>
<!-- Node26&#45;&gt;Node27 -->
<g id="edge82" class="edge"><title>Node26&#45;&gt;Node27</title>
<path fill="none" stroke="midnightblue" d="M1000.25,-289C1008.93,-289 1017.54,-289 1025.75,-289"/>
<polygon fill="midnightblue" stroke="midnightblue" points="1000.04,-285.5 990.044,-289 1000.04,-292.5 1000.04,-285.5"/>
</g>
<!-- Node27&#45;&gt;Node25 -->
<g id="edge84" class="edge"><title>Node27&#45;&gt;Node25</title>
<path fill="none" stroke="midnightblue" d="M1130.34,-302.336C1148.53,-307.57 1169.11,-313.491 1186.24,-318.422"/>
<polygon fill="midnightblue" stroke="midnightblue" points="1131.1,-298.912 1120.52,-299.51 1129.16,-305.639 1131.1,-298.912"/>
</g>
</g>
</svg>
        <g id="navigator" transform="translate(0 0)" fill="#404254">
                <rect fill="#f2f5e9" fill-opacity="0.5" stroke="#606060" stroke-width=".5" x="0" y="0" width="60" height="60"/>
                <use id="zoomplus" xlink:href="#zoomPlus" x="17" y="9" onmousedown="handleZoom(evt,'in')"/>
                <use id="zoomminus" xlink:href="#zoomMin" x="42" y="9" onmousedown="handleZoom(evt,'out')"/>
                <use id="reset" xlink:href="#resetDef" x="30" y="36" onmousedown="handleReset()"/>
                <g id="arrowUp" xlink:href="#dirArrow" transform="translate(30 24)" onmousedown="handlePan(0,-1)">
                  <use xlink:href="#rim" fill="#404040">
                        <set attributeName="fill" to="#808080" begin="arrowUp.mouseover" end="arrowUp.mouseout"/>
                  </use>
                  <path fill="none" stroke="white" stroke-width="1.5" d="M0,-3.0v7 M-2.5,-0.5L0,-3.0L2.5,-0.5"/>
                </g>
                <g id="arrowRight" xlink:href="#dirArrow" transform="rotate(90) translate(36 -43)" onmousedown="handlePan(1,0)">
                  <use xlink:href="#rim" fill="#404040">
                        <set attributeName="fill" to="#808080" begin="arrowRight.mouseover" end="arrowRight.mouseout"/>
                  </use>
                  <path fill="none" stroke="white" stroke-width="1.5" d="M0,-3.0v7 M-2.5,-0.5L0,-3.0L2.5,-0.5"/>
                </g>
                <g id="arrowDown" xlink:href="#dirArrow" transform="rotate(180) translate(-30 -48)" onmousedown="handlePan(0,1)">
                  <use xlink:href="#rim" fill="#404040">
                        <set attributeName="fill" to="#808080" begin="arrowDown.mouseover" end="arrowDown.mouseout"/>
                  </use>
                  <path fill="none" stroke="white" stroke-width="1.5" d="M0,-3.0v7 M-2.5,-0.5L0,-3.0L2.5,-0.5"/>
                </g>
                <g id="arrowLeft" xlink:href="#dirArrow" transform="rotate(270) translate(-36 17)" onmousedown="handlePan(-1,0)">
                  <use xlink:href="#rim" fill="#404040">
                        <set attributeName="fill" to="#808080" begin="arrowLeft.mouseover" end="arrowLeft.mouseout"/>
                  </use>
                  <path fill="none" stroke="white" stroke-width="1.5" d="M0,-3.0v7 M-2.5,-0.5L0,-3.0L2.5,-0.5"/>
                </g>
        </g>
</svg>
