<?xml version="1.0" encoding="UTF-8" standalone="no"?>
<!DOCTYPE svg PUBLIC "-//W3C//DTD SVG 1.1//EN"
 "http://www.w3.org/Graphics/SVG/1.1/DTD/svg11.dtd">
<!-- Generated by graphviz version 2.26.3 (20100126.1600)
 -->
<!-- Title: G Pages: 1 -->
<!--zoomable 603 -->
<svg id="main" version="1.1" xmlns="http://www.w3.org/2000/svg" xmlns:xlink="http://www.w3.org/1999/xlink" xml:space="preserve" onload="init(evt)">
        <defs>
                <circle id="rim" cx="0" cy="0" r="7"/>
                <circle id="rim2" cx="0" cy="0" r="3.5"/>
                <g id="zoomPlus">
                        <use xlink:href="#rim" fill="#404040">
                                <set attributeName="fill" to="#808080" begin="zoomplus.mouseover" end="zoomplus.mouseout"/>
                        </use>
                        <path d="M-4,0h8M0,-4v8" fill="none" stroke="white" stroke-width="1.5" pointer-events="none"/>
                </g>
                <g id="zoomMin">
                        <use xlink:href="#rim" fill="#404040">
                                <set attributeName="fill" to="#808080" begin="zoomminus.mouseover" end="zoomminus.mouseout"/>
                        </use>
                        <path d="M-4,0h8" fill="none" stroke="white" stroke-width="1.5" pointer-events="none"/>
                </g>
                <g id="dirArrow">
                        <path fill="none" stroke="white" stroke-width="1.5" d="M0,-3.0v7 M-2.5,-0.5L0,-3.0L2.5,-0.5"/>
                </g>
               <g id="resetDef">
                       <use xlink:href="#rim2" fill="#404040">
                               <set attributeName="fill" to="#808080" begin="reset.mouseover" end="reset.mouseout"/>
                       </use>
               </g>
        </defs>

<script type="text/javascript">
var viewWidth = 1396;
var viewHeight = 603;
var sectionId = 'dynsection-26';
</script>
<script xlink:href="svgpan.js"/>
<svg id="graph" class="graph">
<g id="viewport">
<title>G</title>
<polygon fill="white" stroke="white" points="-4,5 -4,-598.631 1393,-598.631 1393,5 -4,5"/>
<!-- Node1 -->
<g id="node1" class="node"><title>Node1</title>
<polygon fill="#bfbfbf" stroke="black" points="0.5,-293.131 0.5,-314.131 127.5,-314.131 127.5,-293.131 0.5,-293.131"/>
<text text-anchor="middle" x="64" y="-301.131" font-family="FreeSans.ttf" font-size="10.00">SocketClient::sAccount</text>
</g>
<!-- Node2 -->
<g id="node3" class="node"><title>Node2</title>
<a xlink:href="classAccount.xhtml#adc4545f17264112e532b5a48abe94baf" target="_top" xlink:title="Create a new account.">
<polygon fill="white" stroke="black" points="178,-313.131 178,-334.131 260,-334.131 260,-313.131 178,-313.131"/>
<text text-anchor="middle" x="219" y="-321.131" font-family="FreeSans.ttf" font-size="10.00">Account::New</text>
</a>
</g>
<!-- Node1&#45;&gt;Node2 -->
<g id="edge2" class="edge"><title>Node1&#45;&gt;Node2</title>
<path fill="none" stroke="midnightblue" d="M137.886,-313.164C151.616,-314.936 165.498,-316.727 177.803,-318.315"/>
<polygon fill="midnightblue" stroke="midnightblue" points="138.305,-309.69 127.939,-311.881 137.409,-316.632 138.305,-309.69"/>
</g>
<!-- Node27 -->
<g id="node69" class="node"><title>Node27</title>
<a xlink:href="classAccount.xhtml#a569c9ef0e42b9157690b4ceb646daba8" target="_top" xlink:title="Destructor for the Account class.">
<polygon fill="white" stroke="black" points="164.5,-273.131 164.5,-294.131 273.5,-294.131 273.5,-273.131 164.5,-273.131"/>
<text text-anchor="middle" x="219" y="-281.131" font-family="FreeSans.ttf" font-size="10.00">Account::~Account</text>
</a>
</g>
<!-- Node1&#45;&gt;Node27 -->
<g id="edge84" class="edge"><title>Node1&#45;&gt;Node27</title>
<path fill="none" stroke="midnightblue" d="M137.866,-294.1C146.704,-292.959 155.604,-291.811 164.107,-290.714"/>
<polygon fill="midnightblue" stroke="midnightblue" points="137.409,-290.63 127.939,-295.381 138.305,-297.572 137.409,-290.63"/>
</g>
<!-- Node3 -->
<g id="node5" class="node"><title>Node3</title>
<a xlink:href="namespaceHandler.xhtml#a33a19d69ead678af81fbe96907eceaf0" target="_top" xlink:title="Create a new account object, or load an existing one, with a name and password.">
<polygon fill="white" stroke="black" points="310.5,-313.131 310.5,-334.131 441.5,-334.131 441.5,-313.131 310.5,-313.131"/>
<text text-anchor="middle" x="376" y="-321.131" font-family="FreeSans.ttf" font-size="10.00">Handler::AttachAccount</text>
</a>
</g>
<!-- Node2&#45;&gt;Node3 -->
<g id="edge4" class="edge"><title>Node2&#45;&gt;Node3</title>
<path fill="none" stroke="midnightblue" d="M270.265,-323.631C283.089,-323.631 297.018,-323.631 310.431,-323.631"/>
<polygon fill="midnightblue" stroke="midnightblue" points="270.25,-320.131 260.25,-323.631 270.25,-327.131 270.25,-320.131"/>
</g>
<!-- Node4 -->
<g id="node7" class="node"><title>Node4</title>
<a xlink:href="namespaceHandler.xhtml#a139febc000c9d767a620708148e0c888" target="_top" xlink:title="Dispatches the appropriate menu based on client state.">
<polygon fill="white" stroke="black" points="478.5,-313.131 478.5,-334.131 601.5,-334.131 601.5,-313.131 478.5,-313.131"/>
<text text-anchor="middle" x="540" y="-321.131" font-family="FreeSans.ttf" font-size="10.00">Handler::LoginHandler</text>
</a>
</g>
<!-- Node3&#45;&gt;Node4 -->
<g id="edge6" class="edge"><title>Node3&#45;&gt;Node4</title>
<path fill="none" stroke="midnightblue" d="M451.79,-316.898C460.73,-316.848 469.77,-316.906 478.48,-317.071"/>
<polygon fill="midnightblue" stroke="midnightblue" points="451.724,-313.398 441.76,-317 451.795,-320.398 451.724,-313.398"/>
</g>
<!-- Node4&#45;&gt;Node3 -->
<g id="edge8" class="edge"><title>Node4&#45;&gt;Node3</title>
<path fill="none" stroke="midnightblue" d="M468.242,-330.334C459.436,-330.415 450.471,-330.391 441.76,-330.262"/>
<polygon fill="midnightblue" stroke="midnightblue" points="468.531,-333.83 478.48,-330.19 468.432,-326.831 468.531,-333.83"/>
</g>
<!-- Node5 -->
<g id="node10" class="node"><title>Node5</title>
<a xlink:href="namespaceHandler.xhtml#a2e4ebf6ed049eb872aa4948d54c4932c" target="_top" xlink:title="Attempt to write a new character to disk after creation was completed.">
<polygon fill="white" stroke="black" points="662.5,-573.131 662.5,-594.131 801.5,-594.131 801.5,-573.131 662.5,-573.131"/>
<text text-anchor="middle" x="732" y="-581.131" font-family="FreeSans.ttf" font-size="10.00">Handler::AttachCharacter</text>
</a>
</g>
<!-- Node4&#45;&gt;Node5 -->
<g id="edge10" class="edge"><title>Node4&#45;&gt;Node5</title>
<path fill="none" stroke="midnightblue" d="M542.673,-344.102C549.275,-389.671 571.015,-498.623 638,-554.631 649.776,-564.477 665.228,-569.829 680.193,-573.064"/>
<polygon fill="midnightblue" stroke="midnightblue" points="546.141,-343.629 541.332,-334.189 539.204,-344.568 546.141,-343.629"/>
</g>
<!-- Node6 -->
<g id="node13" class="node"><title>Node6</title>
<a xlink:href="namespaceHandler.xhtml#a73ed6064f2698dbffb5f4c247a02b661" target="_top" xlink:title="Send initial account interface menu.">
<polygon fill="white" stroke="black" points="658,-533.131 658,-554.131 806,-554.131 806,-533.131 658,-533.131"/>
<text text-anchor="middle" x="732" y="-541.131" font-family="FreeSans.ttf" font-size="10.00">Handler::AccountMenuMain</text>
</a>
</g>
<!-- Node4&#45;&gt;Node6 -->
<g id="edge14" class="edge"><title>Node4&#45;&gt;Node6</title>
<path fill="none" stroke="midnightblue" d="M545.179,-344.543C555.122,-384.431 581.147,-470.287 638,-514.631 650.761,-524.584 667.348,-529.866 683.028,-533.078"/>
<polygon fill="midnightblue" stroke="midnightblue" points="548.526,-343.491 542.789,-334.584 541.719,-345.124 548.526,-343.491"/>
</g>
<!-- Node7 -->
<g id="node16" class="node"><title>Node7</title>
<a xlink:href="namespaceHandler.xhtml#ad04998a7a6ece2486bc441052a57c2d7" target="_top" xlink:title="Main Character creation menu.">
<polygon fill="white" stroke="black" points="638,-493.131 638,-514.131 826,-514.131 826,-493.131 638,-493.131"/>
<text text-anchor="middle" x="732" y="-501.131" font-family="FreeSans.ttf" font-size="10.00">Handler::CharacterCreateMenuMain</text>
</a>
</g>
<!-- Node4&#45;&gt;Node7 -->
<g id="edge18" class="edge"><title>Node4&#45;&gt;Node7</title>
<path fill="none" stroke="midnightblue" d="M548.617,-343.976C561.848,-377.051 590.72,-441.202 638,-474.631 652.168,-484.648 670.339,-489.828 686.921,-493.05"/>
<polygon fill="midnightblue" stroke="midnightblue" points="551.775,-342.441 544.867,-334.407 545.257,-344.995 551.775,-342.441"/>
</g>
<!-- Node8 -->
<g id="node19" class="node"><title>Node8</title>
<a xlink:href="namespaceHandler.xhtml#ab5889a65de2794129b375ec39ae923ae" target="_top" xlink:title="Select a new Character name.">
<polygon fill="white" stroke="black" points="647.5,-453.131 647.5,-474.131 816.5,-474.131 816.5,-453.131 647.5,-453.131"/>
<text text-anchor="middle" x="732" y="-461.131" font-family="FreeSans.ttf" font-size="10.00">Handler::CharacterCreateName</text>
</a>
</g>
<!-- Node4&#45;&gt;Node8 -->
<g id="edge22" class="edge"><title>Node4&#45;&gt;Node8</title>
<path fill="none" stroke="midnightblue" d="M553.789,-342.686C570.117,-368.003 599.962,-411.424 638,-434.631 654.522,-444.711 675.371,-449.762 693.234,-453.11"/>
<polygon fill="midnightblue" stroke="midnightblue" points="556.73,-340.788 548.395,-334.248 550.832,-344.559 556.73,-340.788"/>
</g>
<!-- Node9 -->
<g id="node22" class="node"><title>Node9</title>
<a xlink:href="namespaceHandler.xhtml#ae5086bcf5857eb572beedd09158c3065" target="_top" xlink:title="Select a new Character sex.">
<polygon fill="white" stroke="black" points="653,-413.131 653,-434.131 811,-434.131 811,-413.131 653,-413.131"/>
<text text-anchor="middle" x="732" y="-421.131" font-family="FreeSans.ttf" font-size="10.00">Handler::CharacterCreateSex</text>
</a>
</g>
<!-- Node4&#45;&gt;Node9 -->
<g id="edge26" class="edge"><title>Node4&#45;&gt;Node9</title>
<path fill="none" stroke="midnightblue" d="M563.589,-341.012C582.142,-357.441 609.536,-380.982 638,-394.631 658.009,-404.226 682.599,-409.249 701.61,-413.123"/>
<polygon fill="midnightblue" stroke="midnightblue" points="565.762,-338.26 555.959,-334.24 561.115,-343.496 565.762,-338.26"/>
</g>
<!-- Node10 -->
<g id="node25" class="node"><title>Node10</title>
<a xlink:href="namespaceHandler.xhtml#a97a198bfc72285b2aca4f36978db715e" target="_top" xlink:title="Main Character deletion confirmation.">
<polygon fill="white" stroke="black" points="644,-373.131 644,-394.131 820,-394.131 820,-373.131 644,-373.131"/>
<text text-anchor="middle" x="732" y="-381.131" font-family="FreeSans.ttf" font-size="10.00">Handler::CharacterDeleteConfirm</text>
</a>
</g>
<!-- Node4&#45;&gt;Node10 -->
<g id="edge30" class="edge"><title>Node4&#45;&gt;Node10</title>
<path fill="none" stroke="midnightblue" d="M591.367,-337.964C606.219,-343.693 622.584,-349.886 638,-354.631 662.398,-362.14 691.209,-367.817 710.443,-373.091"/>
<polygon fill="midnightblue" stroke="midnightblue" points="592.441,-334.627 581.852,-334.287 589.918,-341.157 592.441,-334.627"/>
</g>
<!-- Node11 -->
<g id="node28" class="node"><title>Node11</title>
<a xlink:href="namespaceHandler.xhtml#afc470ec6e82b7a9a1560588a368734f9" target="_top" xlink:title="Main Character deletion menu.">
<polygon fill="white" stroke="black" points="638,-333.131 638,-354.131 826,-354.131 826,-333.131 638,-333.131"/>
<text text-anchor="middle" x="732" y="-341.131" font-family="FreeSans.ttf" font-size="10.00">Handler::CharacterDeleteMenuMain</text>
</a>
</g>
<!-- Node4&#45;&gt;Node11 -->
<g id="edge34" class="edge"><title>Node4&#45;&gt;Node11</title>
<path fill="none" stroke="midnightblue" d="M611.799,-324.554C636.988,-326.765 664.555,-329.881 686.928,-333.113"/>
<polygon fill="midnightblue" stroke="midnightblue" points="611.8,-321.042 601.542,-323.694 611.215,-328.018 611.8,-321.042"/>
</g>
<!-- Node12 -->
<g id="node31" class="node"><title>Node12</title>
<a xlink:href="namespaceHandler.xhtml#a02b1b954749641ab646f6548a5360d3b" target="_top" xlink:title="Main Character load menu.">
<polygon fill="white" stroke="black" points="642.5,-293.131 642.5,-314.131 821.5,-314.131 821.5,-293.131 642.5,-293.131"/>
<text text-anchor="middle" x="732" y="-301.131" font-family="FreeSans.ttf" font-size="10.00">Handler::CharacterLoadMenuMain</text>
</a>
</g>
<!-- Node4&#45;&gt;Node12 -->
<g id="edge38" class="edge"><title>Node4&#45;&gt;Node12</title>
<path fill="none" stroke="midnightblue" d="M594.98,-311.734C609.776,-309.748 626.173,-307.851 642.33,-306.234"/>
<polygon fill="midnightblue" stroke="midnightblue" points="594.437,-308.276 585.015,-313.121 595.403,-315.209 594.437,-308.276"/>
</g>
<!-- Node13 -->
<g id="node34" class="node"><title>Node13</title>
<a xlink:href="namespaceHandler.xhtml#a00bc24564bfd267e0329643c569da1e4" target="_top" xlink:title="Select a new account name.">
<polygon fill="white" stroke="black" points="663.5,-253.131 663.5,-274.131 800.5,-274.131 800.5,-253.131 663.5,-253.131"/>
<text text-anchor="middle" x="732" y="-261.131" font-family="FreeSans.ttf" font-size="10.00">Handler::GetNewAccount</text>
</a>
</g>
<!-- Node4&#45;&gt;Node13 -->
<g id="edge42" class="edge"><title>Node4&#45;&gt;Node13</title>
<path fill="none" stroke="midnightblue" d="M559.21,-307.788C578.704,-296.716 609.926,-283.271 638,-274.631 646.133,-272.128 654.756,-269.828 663.351,-267.822"/>
<polygon fill="midnightblue" stroke="midnightblue" points="557.368,-304.811 550.647,-313.001 561.009,-310.79 557.368,-304.811"/>
</g>
<!-- Node14 -->
<g id="node37" class="node"><title>Node14</title>
<a xlink:href="namespaceHandler.xhtml#a744adadcf407cdb3a9c33365afd5a7c2" target="_top" xlink:title="Create a new account.">
<polygon fill="white" stroke="black" points="661,-213.131 661,-234.131 803,-234.131 803,-213.131 661,-213.131"/>
<text text-anchor="middle" x="732" y="-221.131" font-family="FreeSans.ttf" font-size="10.00">Handler::GetNewPassword</text>
</a>
</g>
<!-- Node4&#45;&gt;Node14 -->
<g id="edge46" class="edge"><title>Node4&#45;&gt;Node14</title>
<path fill="none" stroke="midnightblue" d="M551.558,-305.066C568.65,-284.076 602.492,-251.657 638,-234.631 645.221,-231.168 653.039,-228.301 660.976,-225.986"/>
<polygon fill="midnightblue" stroke="midnightblue" points="548.772,-302.949 545.487,-313.021 554.336,-307.196 548.772,-302.949"/>
</g>
<!-- Node15 -->
<g id="node40" class="node"><title>Node15</title>
<a xlink:href="namespaceHandler.xhtml#adfe13cc9748392348f3941656a1323b6" target="_top" xlink:title="Compare a received password against an existing account.">
<polygon fill="white" stroke="black" points="663.5,-173.131 663.5,-194.131 800.5,-194.131 800.5,-173.131 663.5,-173.131"/>
<text text-anchor="middle" x="732" y="-181.131" font-family="FreeSans.ttf" font-size="10.00">Handler::GetOldPassword</text>
</a>
</g>
<!-- Node4&#45;&gt;Node15 -->
<g id="edge50" class="edge"><title>Node4&#45;&gt;Node15</title>
<path fill="none" stroke="midnightblue" d="M547.563,-303.635C561.646,-274.255 594.455,-221.197 638,-194.631 645.691,-189.938 654.32,-186.336 663.149,-183.656"/>
<polygon fill="midnightblue" stroke="midnightblue" points="544.28,-302.402 543.376,-312.958 550.666,-305.27 544.28,-302.402"/>
</g>
<!-- Node16 -->
<g id="node43" class="node"><title>Node16</title>
<a xlink:href="namespaceHandler.xhtml#ae70e4e50054c729c14493eafefe01b5c" target="_top" xlink:title="Load a character from the account to enter into the game with.">
<polygon fill="white" stroke="black" points="666.5,-133.131 666.5,-154.131 797.5,-154.131 797.5,-133.131 666.5,-133.131"/>
<text text-anchor="middle" x="732" y="-141.131" font-family="FreeSans.ttf" font-size="10.00">Handler::LoadCharacter</text>
</a>
</g>
<!-- Node4&#45;&gt;Node16 -->
<g id="edge54" class="edge"><title>Node4&#45;&gt;Node16</title>
<path fill="none" stroke="midnightblue" d="M544.925,-302.865C555.919,-266.195 585.694,-191.613 638,-154.631 646.447,-148.659 656.315,-144.406 666.422,-141.519"/>
<polygon fill="midnightblue" stroke="midnightblue" points="541.429,-302.372 542.112,-312.945 548.171,-304.254 541.429,-302.372"/>
</g>
<!-- Node17 -->
<g id="node46" class="node"><title>Node17</title>
<a xlink:href="namespaceHandler.xhtml#a44b41bf69fdc6e615a029bea34910191" target="_top" xlink:title="Send initial greeting and request for account name.">
<polygon fill="white" stroke="black" points="672.5,-93.1308 672.5,-114.131 791.5,-114.131 791.5,-93.1308 672.5,-93.1308"/>
<text text-anchor="middle" x="732" y="-101.131" font-family="FreeSans.ttf" font-size="10.00">Handler::LoginScreen</text>
</a>
</g>
<!-- Node4&#45;&gt;Node17 -->
<g id="edge58" class="edge"><title>Node4&#45;&gt;Node17</title>
<path fill="none" stroke="midnightblue" d="M542.976,-302.766C550.905,-259.787 576.295,-162.759 638,-114.631 647.867,-106.935 660.021,-102.031 672.274,-99.1714"/>
<polygon fill="midnightblue" stroke="midnightblue" points="539.514,-302.249 541.29,-312.694 546.415,-303.421 539.514,-302.249"/>
</g>
<!-- Node18 -->
<g id="node49" class="node"><title>Node18</title>
<a xlink:href="classSocketClient.xhtml#a8399ef20292e9f3ec83b5c4bec2e105b" target="_top" xlink:title="Build a SocketClient for a new client connection and set all attributes.">
<polygon fill="white" stroke="black" points="680.5,-53.1308 680.5,-74.1308 783.5,-74.1308 783.5,-53.1308 680.5,-53.1308"/>
<text text-anchor="middle" x="732" y="-61.1308" font-family="FreeSans.ttf" font-size="10.00">SocketClient::New</text>
</a>
</g>
<!-- Node4&#45;&gt;Node18 -->
<g id="edge62" class="edge"><title>Node4&#45;&gt;Node18</title>
<path fill="none" stroke="midnightblue" d="M542.062,-302.822C547.876,-255.913 568.782,-141.505 638,-83.6308 649.776,-73.7846 665.228,-68.4323 680.193,-65.6156"/>
<polygon fill="midnightblue" stroke="midnightblue" points="538.56,-302.649 540.914,-312.979 545.515,-303.436 538.56,-302.649"/>
</g>
<!-- Node25 -->
<g id="node64" class="node"><title>Node25</title>
<a xlink:href="classSocketClient.xhtml#ad4f63c7d906310dc56a1217136047d7f" target="_top" xlink:title="Interpret the command at the front of the queue.">
<polygon fill="white" stroke="black" points="862,-13.1308 862,-34.1308 1032,-34.1308 1032,-13.1308 862,-13.1308"/>
<text text-anchor="middle" x="947" y="-21.1308" font-family="FreeSans.ttf" font-size="10.00">SocketClient::ProcessCommand</text>
</a>
</g>
<!-- Node4&#45;&gt;Node25 -->
<g id="edge78" class="edge"><title>Node4&#45;&gt;Node25</title>
<path fill="none" stroke="midnightblue" d="M544.189,-302.898C556.588,-243.747 594.936,-76.326 638,-43.6308 716.461,15.9384 840.925,0.473902 905.329,-13.1262"/>
<polygon fill="midnightblue" stroke="midnightblue" points="540.714,-302.42 542.121,-312.921 547.57,-303.835 540.714,-302.42"/>
</g>
<!-- Node5&#45;&gt;Node4 -->
<g id="edge12" class="edge"><title>Node5&#45;&gt;Node4</title>
<path fill="none" stroke="midnightblue" d="M652.522,-581.866C647.313,-579.361 642.4,-576.31 638,-572.631 560.831,-508.108 543.71,-373.317 540.606,-334.144"/>
<polygon fill="midnightblue" stroke="midnightblue" points="651.591,-585.266 662.172,-585.801 654.234,-578.784 651.591,-585.266"/>
</g>
<!-- Node6&#45;&gt;Node4 -->
<g id="edge16" class="edge"><title>Node6&#45;&gt;Node4</title>
<path fill="none" stroke="midnightblue" d="M648.374,-539.331C644.721,-537.381 641.238,-535.156 638,-532.631 570.924,-480.313 546.759,-370.211 541.29,-334.568"/>
<polygon fill="midnightblue" stroke="midnightblue" points="647.209,-542.647 657.758,-543.629 650.124,-536.283 647.209,-542.647"/>
</g>
<!-- Node7&#45;&gt;Node4 -->
<g id="edge20" class="edge"><title>Node7&#45;&gt;Node4</title>
<path fill="none" stroke="midnightblue" d="M630.419,-486.85C577.494,-443.827 549.63,-363.784 542.112,-334.317"/>
<polygon fill="midnightblue" stroke="midnightblue" points="628.329,-489.658 638.41,-492.918 632.563,-484.083 628.329,-489.658"/>
</g>
<!-- Node8&#45;&gt;Node4 -->
<g id="edge24" class="edge"><title>Node8&#45;&gt;Node4</title>
<path fill="none" stroke="midnightblue" d="M638.281,-452.801C638.187,-452.745 638.093,-452.688 638,-452.631 589.321,-422.932 554.059,-360.127 543.376,-334.304"/>
<polygon fill="midnightblue" stroke="midnightblue" points="636.882,-456.021 647.355,-457.621 640.165,-449.839 636.882,-456.021"/>
</g>
<!-- Node9&#45;&gt;Node4 -->
<g id="edge28" class="edge"><title>Node9&#45;&gt;Node4</title>
<path fill="none" stroke="midnightblue" d="M642.893,-414.849C641.236,-414.139 639.603,-413.4 638,-412.631 597.6,-393.258 559.357,-353.96 545.487,-334.24"/>
<polygon fill="midnightblue" stroke="midnightblue" points="642.02,-418.265 652.609,-418.606 644.544,-411.736 642.02,-418.265"/>
</g>
<!-- Node10&#45;&gt;Node4 -->
<g id="edge32" class="edge"><title>Node10&#45;&gt;Node4</title>
<path fill="none" stroke="midnightblue" d="M633.939,-371.224C599.126,-359.765 566.875,-345.006 550.647,-334.26"/>
<polygon fill="midnightblue" stroke="midnightblue" points="633.225,-374.67 643.815,-374.363 635.345,-367.998 633.225,-374.67"/>
</g>
<!-- Node11&#45;&gt;Node4 -->
<g id="edge36" class="edge"><title>Node11&#45;&gt;Node4</title>
<path fill="none" stroke="midnightblue" d="M627.377,-339.458C612.496,-337.824 597.894,-336.001 585.015,-334.14"/>
<polygon fill="midnightblue" stroke="midnightblue" points="627.392,-342.98 637.706,-340.558 628.133,-336.019 627.392,-342.98"/>
</g>
<!-- Node12&#45;&gt;Node4 -->
<g id="edge40" class="edge"><title>Node12&#45;&gt;Node4</title>
<path fill="none" stroke="midnightblue" d="M676.773,-315.56C653.25,-318.713 625.716,-321.638 601.542,-323.568"/>
<polygon fill="midnightblue" stroke="midnightblue" points="677.505,-318.992 686.928,-314.148 676.541,-312.059 677.505,-318.992"/>
</g>
<!-- Node13&#45;&gt;Node4 -->
<g id="edge44" class="edge"><title>Node13&#45;&gt;Node4</title>
<path fill="none" stroke="midnightblue" d="M700.522,-276.741C682.094,-281.31 658.491,-286.324 638,-292.631 619.207,-298.415 599.003,-306.352 581.852,-312.974"/>
<polygon fill="midnightblue" stroke="midnightblue" points="701.641,-280.067 710.443,-274.17 699.885,-273.291 701.641,-280.067"/>
</g>
<!-- Node14&#45;&gt;Node4 -->
<g id="edge48" class="edge"><title>Node14&#45;&gt;Node4</title>
<path fill="none" stroke="midnightblue" d="M691.365,-236.255C674.282,-239.874 654.57,-244.685 638,-252.631 605.324,-268.3 574.058,-297.004 555.959,-313.021"/>
<polygon fill="midnightblue" stroke="midnightblue" points="692.525,-239.589 701.61,-234.138 691.108,-232.734 692.525,-239.589"/>
</g>
<!-- Node15&#45;&gt;Node4 -->
<g id="edge52" class="edge"><title>Node15&#45;&gt;Node4</title>
<path fill="none" stroke="midnightblue" d="M683.358,-196.141C668.018,-199.477 651.553,-204.362 638,-212.631 595.291,-238.687 562.91,-290.228 548.395,-313.014"/>
<polygon fill="midnightblue" stroke="midnightblue" points="684.122,-199.557 693.234,-194.152 682.74,-192.695 684.122,-199.557"/>
</g>
<!-- Node16&#45;&gt;Node4 -->
<g id="edge56" class="edge"><title>Node16&#45;&gt;Node4</title>
<path fill="none" stroke="midnightblue" d="M677.065,-156.345C663.394,-159.642 649.401,-164.57 638,-172.631 585.603,-209.678 555.815,-284.456 544.867,-312.855"/>
<polygon fill="midnightblue" stroke="midnightblue" points="677.888,-159.748 686.921,-154.212 676.407,-152.907 677.888,-159.748"/>
</g>
<!-- Node17&#45;&gt;Node4 -->
<g id="edge60" class="edge"><title>Node17&#45;&gt;Node4</title>
<path fill="none" stroke="midnightblue" d="M673.029,-116.517C660.521,-119.831 648.07,-124.777 638,-132.631 575.802,-181.143 550.501,-279.341 542.789,-312.678"/>
<polygon fill="midnightblue" stroke="midnightblue" points="674.085,-119.865 683.028,-114.184 672.494,-113.048 674.085,-119.865"/>
</g>
<!-- Node19 -->
<g id="node51" class="node"><title>Node19</title>
<a xlink:href="namespaceServer.xhtml#a16ea0639731dee10e1a253375b508a02" target="_top" xlink:title="Recovers the server state and re&#45;connects client sockets after a reboot.">
<polygon fill="white" stroke="black" points="882,-93.1308 882,-114.131 1012,-114.131 1012,-93.1308 882,-93.1308"/>
<text text-anchor="middle" x="947" y="-101.131" font-family="FreeSans.ttf" font-size="10.00">Server::RebootRecovery</text>
</a>
</g>
<!-- Node18&#45;&gt;Node19 -->
<g id="edge64" class="edge"><title>Node18&#45;&gt;Node19</title>
<path fill="none" stroke="midnightblue" d="M793.843,-75.1365C824.275,-80.7982 860.702,-87.5753 890.394,-93.0995"/>
<polygon fill="midnightblue" stroke="midnightblue" points="794.243,-71.6509 783.771,-73.2627 792.963,-78.5328 794.243,-71.6509"/>
</g>
<!-- Node22 -->
<g id="node57" class="node"><title>Node22</title>
<a xlink:href="classSocketServer.xhtml#afdbc60c3bc840875d2214b59c6213f63" target="_top" xlink:title="Accept a new connection on the listening port.">
<polygon fill="white" stroke="black" points="887,-53.1308 887,-74.1308 1007,-74.1308 1007,-53.1308 887,-53.1308"/>
<text text-anchor="middle" x="947" y="-61.1308" font-family="FreeSans.ttf" font-size="10.00">SocketServer::Accept</text>
</a>
</g>
<!-- Node18&#45;&gt;Node22 -->
<g id="edge70" class="edge"><title>Node18&#45;&gt;Node22</title>
<path fill="none" stroke="midnightblue" d="M793.868,-63.6308C823.117,-63.6308 857.901,-63.6308 886.92,-63.6308"/>
<polygon fill="midnightblue" stroke="midnightblue" points="793.771,-60.1309 783.771,-63.6308 793.771,-67.1309 793.771,-60.1309"/>
</g>
<!-- Node20 -->
<g id="node53" class="node"><title>Node20</title>
<a xlink:href="namespaceServer.xhtml#a19a1e493e1fb50a56d9c77332543d565" target="_top" xlink:title="Start the NAMS Server. Responsible for calling all critical boot&#45;time functions such as SocketServer ...">
<polygon fill="white" stroke="black" points="1220,-93.1308 1220,-114.131 1310,-114.131 1310,-93.1308 1220,-93.1308"/>
<text text-anchor="middle" x="1265" y="-101.131" font-family="FreeSans.ttf" font-size="10.00">Server::Startup</text>
</a>
</g>
<!-- Node19&#45;&gt;Node20 -->
<g id="edge66" class="edge"><title>Node19&#45;&gt;Node20</title>
<path fill="none" stroke="midnightblue" d="M1022.16,-103.631C1083.64,-103.631 1168.54,-103.631 1219.95,-103.631"/>
<polygon fill="midnightblue" stroke="midnightblue" points="1022.12,-100.131 1012.12,-103.631 1022.12,-107.131 1022.12,-100.131"/>
</g>
<!-- Node21 -->
<g id="node55" class="node"><title>Node21</title>
<a xlink:href="main_8cpp.xhtml#ad53223b8779f25caeddb70a3b9172967" target="_top" xlink:title="The default function required to execute the server.">
<polygon fill="white" stroke="black" points="1346.5,-73.1308 1346.5,-94.1308 1387.5,-94.1308 1387.5,-73.1308 1346.5,-73.1308"/>
<text text-anchor="middle" x="1367" y="-81.1308" font-family="FreeSans.ttf" font-size="10.00">main</text>
</a>
</g>
<!-- Node20&#45;&gt;Node21 -->
<g id="edge68" class="edge"><title>Node20&#45;&gt;Node21</title>
<path fill="none" stroke="midnightblue" d="M1319.9,-92.8652C1329.36,-91.0103 1338.64,-89.1907 1346.43,-87.6638"/>
<polygon fill="midnightblue" stroke="midnightblue" points="1319.18,-89.4414 1310.04,-94.8003 1320.52,-96.3106 1319.18,-89.4414"/>
</g>
<!-- Node23 -->
<g id="node59" class="node"><title>Node23</title>
<a xlink:href="namespaceServer.xhtml#a39dbe16fdc8c5f6fbd678c6540fbcd6c" target="_top" xlink:title="Poll all SocketClient objects that are communicating with the associated SocketServer object...">
<polygon fill="white" stroke="black" points="1071.5,-53.1308 1071.5,-74.1308 1180.5,-74.1308 1180.5,-53.1308 1071.5,-53.1308"/>
<text text-anchor="middle" x="1126" y="-61.1308" font-family="FreeSans.ttf" font-size="10.00">Server::PollSockets</text>
</a>
</g>
<!-- Node22&#45;&gt;Node23 -->
<g id="edge72" class="edge"><title>Node22&#45;&gt;Node23</title>
<path fill="none" stroke="midnightblue" d="M1017.27,-63.6308C1035.28,-63.6308 1054.39,-63.6308 1071.48,-63.6308"/>
<polygon fill="midnightblue" stroke="midnightblue" points="1017.1,-60.1309 1007.1,-63.6308 1017.1,-67.1309 1017.1,-60.1309"/>
</g>
<!-- Node24 -->
<g id="node61" class="node"><title>Node24</title>
<a xlink:href="namespaceServer.xhtml#a50b81aa91d8fdaee6f52c5c5ec987990" target="_top" xlink:title="The core update loop of NAMS. This loop spawns all other subsystem update routines and then sleeps fo...">
<polygon fill="white" stroke="black" points="1220.5,-53.1308 1220.5,-74.1308 1309.5,-74.1308 1309.5,-53.1308 1220.5,-53.1308"/>
<text text-anchor="middle" x="1265" y="-61.1308" font-family="FreeSans.ttf" font-size="10.00">Server::Update</text>
</a>
</g>
<!-- Node23&#45;&gt;Node24 -->
<g id="edge74" class="edge"><title>Node23&#45;&gt;Node24</title>
<path fill="none" stroke="midnightblue" d="M1190.57,-63.6308C1200.69,-63.6308 1210.94,-63.6308 1220.47,-63.6308"/>
<polygon fill="midnightblue" stroke="midnightblue" points="1190.54,-60.1309 1180.54,-63.6308 1190.54,-67.1309 1190.54,-60.1309"/>
</g>
<!-- Node24&#45;&gt;Node21 -->
<g id="edge76" class="edge"><title>Node24&#45;&gt;Node21</title>
<path fill="none" stroke="midnightblue" d="M1319.64,-74.3449C1329.14,-76.2071 1338.47,-78.0362 1346.3,-79.572"/>
<polygon fill="midnightblue" stroke="midnightblue" points="1320.23,-70.8927 1309.74,-72.4031 1318.88,-77.7619 1320.23,-70.8927"/>
</g>
<!-- Node26 -->
<g id="node66" class="node"><title>Node26</title>
<a xlink:href="namespaceServer.xhtml#a2b4cec469bb99c2a45e49de5ba74d1ae" target="_top" xlink:title="Processes input from all active SocketClient objects.">
<polygon fill="white" stroke="black" points="1068,-13.1308 1068,-34.1308 1184,-34.1308 1184,-13.1308 1068,-13.1308"/>
<text text-anchor="middle" x="1126" y="-21.1308" font-family="FreeSans.ttf" font-size="10.00">Server::ProcessInput</text>
</a>
</g>
<!-- Node25&#45;&gt;Node26 -->
<g id="edge80" class="edge"><title>Node25&#45;&gt;Node26</title>
<path fill="none" stroke="midnightblue" d="M1042.25,-23.6308C1050.93,-23.6308 1059.54,-23.6308 1067.75,-23.6308"/>
<polygon fill="midnightblue" stroke="midnightblue" points="1042.04,-20.1309 1032.04,-23.6308 1042.04,-27.1309 1042.04,-20.1309"/>
</g>
<!-- Node26&#45;&gt;Node24 -->
<g id="edge82" class="edge"><title>Node26&#45;&gt;Node24</title>
<path fill="none" stroke="midnightblue" d="M1172.34,-36.9666C1190.53,-42.2004 1211.11,-48.1216 1228.24,-53.0525"/>
<polygon fill="midnightblue" stroke="midnightblue" points="1173.1,-33.5423 1162.52,-34.1403 1171.16,-40.2693 1173.1,-33.5423"/>
</g>
</g>
</svg>
        <g id="navigator" transform="translate(0 0)" fill="#404254">
                <rect fill="#f2f5e9" fill-opacity="0.5" stroke="#606060" stroke-width=".5" x="0" y="0" width="60" height="60"/>
                <use id="zoomplus" xlink:href="#zoomPlus" x="17" y="9" onmousedown="handleZoom(evt,'in')"/>
                <use id="zoomminus" xlink:href="#zoomMin" x="42" y="9" onmousedown="handleZoom(evt,'out')"/>
                <use id="reset" xlink:href="#resetDef" x="30" y="36" onmousedown="handleReset()"/>
                <g id="arrowUp" xlink:href="#dirArrow" transform="translate(30 24)" onmousedown="handlePan(0,-1)">
                  <use xlink:href="#rim" fill="#404040">
                        <set attributeName="fill" to="#808080" begin="arrowUp.mouseover" end="arrowUp.mouseout"/>
                  </use>
                  <path fill="none" stroke="white" stroke-width="1.5" d="M0,-3.0v7 M-2.5,-0.5L0,-3.0L2.5,-0.5"/>
                </g>
                <g id="arrowRight" xlink:href="#dirArrow" transform="rotate(90) translate(36 -43)" onmousedown="handlePan(1,0)">
                  <use xlink:href="#rim" fill="#404040">
                        <set attributeName="fill" to="#808080" begin="arrowRight.mouseover" end="arrowRight.mouseout"/>
                  </use>
                  <path fill="none" stroke="white" stroke-width="1.5" d="M0,-3.0v7 M-2.5,-0.5L0,-3.0L2.5,-0.5"/>
                </g>
                <g id="arrowDown" xlink:href="#dirArrow" transform="rotate(180) translate(-30 -48)" onmousedown="handlePan(0,1)">
                  <use xlink:href="#rim" fill="#404040">
                        <set attributeName="fill" to="#808080" begin="arrowDown.mouseover" end="arrowDown.mouseout"/>
                  </use>
                  <path fill="none" stroke="white" stroke-width="1.5" d="M0,-3.0v7 M-2.5,-0.5L0,-3.0L2.5,-0.5"/>
                </g>
                <g id="arrowLeft" xlink:href="#dirArrow" transform="rotate(270) translate(-36 17)" onmousedown="handlePan(-1,0)">
                  <use xlink:href="#rim" fill="#404040">
                        <set attributeName="fill" to="#808080" begin="arrowLeft.mouseover" end="arrowLeft.mouseout"/>
                  </use>
                  <path fill="none" stroke="white" stroke-width="1.5" d="M0,-3.0v7 M-2.5,-0.5L0,-3.0L2.5,-0.5"/>
                </g>
        </g>
</svg>
