<?xml version="1.0" encoding="UTF-8" standalone="no"?>
<!DOCTYPE svg PUBLIC "-//W3C//DTD SVG 1.1//EN"
 "http://www.w3.org/Graphics/SVG/1.1/DTD/svg11.dtd">
<!-- Generated by graphviz version 2.26.3 (20100126.1600)
 -->
<!-- Title: Account::gId Pages: 1 -->
<!--zoomable 638 -->
<svg id="main" version="1.1" xmlns="http://www.w3.org/2000/svg" xmlns:xlink="http://www.w3.org/1999/xlink" xml:space="preserve" onload="init(evt)">
        <defs>
                <circle id="rim" cx="0" cy="0" r="7"/>
                <circle id="rim2" cx="0" cy="0" r="3.5"/>
                <g id="zoomPlus">
                        <use xlink:href="#rim" fill="#404040">
                                <set attributeName="fill" to="#808080" begin="zoomplus.mouseover" end="zoomplus.mouseout"/>
                        </use>
                        <path d="M-4,0h8M0,-4v8" fill="none" stroke="white" stroke-width="1.5" pointer-events="none"/>
                </g>
                <g id="zoomMin">
                        <use xlink:href="#rim" fill="#404040">
                                <set attributeName="fill" to="#808080" begin="zoomminus.mouseover" end="zoomminus.mouseout"/>
                        </use>
                        <path d="M-4,0h8" fill="none" stroke="white" stroke-width="1.5" pointer-events="none"/>
                </g>
                <g id="dirArrow">
                        <path fill="none" stroke="white" stroke-width="1.5" d="M0,-3.0v7 M-2.5,-0.5L0,-3.0L2.5,-0.5"/>
                </g>
               <g id="resetDef">
                       <use xlink:href="#rim2" fill="#404040">
                               <set attributeName="fill" to="#808080" begin="reset.mouseover" end="reset.mouseout"/>
                       </use>
               </g>
        </defs>

<script type="text/javascript">
var viewWidth = 1228;
var viewHeight = 638;
var sectionId = 'dynsection-11';
</script>
<script xlink:href="svgpan.js"/>
<svg id="graph" class="graph">
<g id="viewport">
<title>Account::gId</title>
<polygon fill="white" stroke="white" points="-4,5 -4,-634.05 1225,-634.05 1225,5 -4,5"/>
<!-- Node1 -->
<g id="node1" class="node"><title>Node1</title>
<polygon fill="#bfbfbf" stroke="black" points="0,-80.0502 0,-100.05 76,-100.05 76,-80.0502 0,-80.0502"/>
<text text-anchor="middle" x="38" y="-87.0502" font-family="FreeSans.ttf" font-size="10.00">Account::gId</text>
</g>
<!-- Node2 -->
<g id="node3" class="node"><title>Node2</title>
<a xlink:href="namespaceHandler.xhtml#ab5889a65de2794129b375ec39ae923ae" target="_top" xlink:title="Select a new Character name.">
<polygon fill="white" stroke="black" points="112.5,-320.05 112.5,-340.05 281.5,-340.05 281.5,-320.05 112.5,-320.05"/>
<text text-anchor="middle" x="197" y="-327.05" font-family="FreeSans.ttf" font-size="10.00">Handler::CharacterCreateName</text>
</a>
</g>
<!-- Node1&#45;&gt;Node2 -->
<g id="edge2" class="edge"><title>Node1&#45;&gt;Node2</title>
<path fill="none" stroke="midnightblue" d="M50.243,-108.53C81.9669,-156.415 166.052,-283.336 190.342,-320.001"/>
<polygon fill="midnightblue" stroke="midnightblue" points="53.0704,-106.461 44.6296,-100.057 47.2348,-110.327 53.0704,-106.461"/>
</g>
<!-- Node10 -->
<g id="node26" class="node"><title>Node10</title>
<a xlink:href="namespaceHandler.xhtml#afc470ec6e82b7a9a1560588a368734f9" target="_top" xlink:title="Main Character deletion menu.">
<polygon fill="white" stroke="black" points="498.5,-118.05 498.5,-150.05 637.5,-150.05 637.5,-118.05 498.5,-118.05"/>
<text text-anchor="start" x="506.5" y="-137.05" font-family="FreeSans.ttf" font-size="10.00">Handler::CharacterDelete</text>
<text text-anchor="middle" x="568" y="-125.05" font-family="FreeSans.ttf" font-size="10.00">MenuMain</text>
</a>
</g>
<!-- Node1&#45;&gt;Node10 -->
<g id="edge82" class="edge"><title>Node1&#45;&gt;Node10</title>
<path fill="none" stroke="midnightblue" d="M86.1553,-100.035C94.7343,-101.563 103.609,-102.985 112,-104.05 248.161,-121.344 408.538,-128.965 498.22,-132.088"/>
<polygon fill="midnightblue" stroke="midnightblue" points="86.7369,-96.583 76.267,-98.2055 85.4635,-103.466 86.7369,-96.583"/>
</g>
<!-- Node11 -->
<g id="node29" class="node"><title>Node11</title>
<a xlink:href="namespaceHandler.xhtml#a02b1b954749641ab646f6548a5360d3b" target="_top" xlink:title="Main Character load menu.">
<polygon fill="white" stroke="black" points="478.5,-80.0502 478.5,-100.05 657.5,-100.05 657.5,-80.0502 478.5,-80.0502"/>
<text text-anchor="middle" x="568" y="-87.0502" font-family="FreeSans.ttf" font-size="10.00">Handler::CharacterLoadMenuMain</text>
</a>
</g>
<!-- Node1&#45;&gt;Node11 -->
<g id="edge84" class="edge"><title>Node1&#45;&gt;Node11</title>
<path fill="none" stroke="midnightblue" d="M86.163,-90.0502C174.866,-90.0502 365.303,-90.0502 478.393,-90.0502"/>
<polygon fill="midnightblue" stroke="midnightblue" points="86.1163,-86.5503 76.1163,-90.0502 86.1163,-93.5503 86.1163,-86.5503"/>
</g>
<!-- Node15 -->
<g id="node41" class="node"><title>Node15</title>
<a xlink:href="namespaceHandler.xhtml#ae70e4e50054c729c14493eafefe01b5c" target="_top" xlink:title="Load a character from the account to enter into the game with.">
<polygon fill="white" stroke="black" points="502.5,-42.0502 502.5,-62.0502 633.5,-62.0502 633.5,-42.0502 502.5,-42.0502"/>
<text text-anchor="middle" x="568" y="-49.0502" font-family="FreeSans.ttf" font-size="10.00">Handler::LoadCharacter</text>
</a>
</g>
<!-- Node1&#45;&gt;Node15 -->
<g id="edge86" class="edge"><title>Node1&#45;&gt;Node15</title>
<path fill="none" stroke="midnightblue" d="M86.3327,-86.5849C181.667,-79.7496 394.044,-64.5226 502.105,-56.7748"/>
<polygon fill="midnightblue" stroke="midnightblue" points="85.8404,-83.1111 76.1163,-87.3174 86.341,-90.0932 85.8404,-83.1111"/>
</g>
<!-- Node18 -->
<g id="node49" class="node"><title>Node18</title>
<a xlink:href="namespaceServer.xhtml#a16ea0639731dee10e1a253375b508a02" target="_top" xlink:title="Recovers the server state and re&#45;connects client sockets after a reboot.">
<polygon fill="white" stroke="black" points="714,-130.05 714,-150.05 844,-150.05 844,-130.05 714,-130.05"/>
<text text-anchor="middle" x="779" y="-137.05" font-family="FreeSans.ttf" font-size="10.00">Server::RebootRecovery</text>
</a>
</g>
<!-- Node1&#45;&gt;Node18 -->
<g id="edge88" class="edge"><title>Node1&#45;&gt;Node18</title>
<path fill="none" stroke="midnightblue" d="M72.8538,-76.4602C169.497,-40.9304 447.605,46.6323 658,-33.0502 710.449,-52.9143 754.799,-107.048 771.692,-129.782"/>
<polygon fill="midnightblue" stroke="midnightblue" points="71.4336,-73.2543 63.2862,-80.0271 73.8789,-79.8133 71.4336,-73.2543"/>
</g>
<!-- Node3 -->
<g id="node5" class="node"><title>Node3</title>
<a xlink:href="namespaceHandler.xhtml#a139febc000c9d767a620708148e0c888" target="_top" xlink:title="Dispatches the appropriate menu based on client state.">
<polygon fill="white" stroke="black" points="318.5,-320.05 318.5,-340.05 441.5,-340.05 441.5,-320.05 318.5,-320.05"/>
<text text-anchor="middle" x="380" y="-327.05" font-family="FreeSans.ttf" font-size="10.00">Handler::LoginHandler</text>
</a>
</g>
<!-- Node2&#45;&gt;Node3 -->
<g id="edge4" class="edge"><title>Node2&#45;&gt;Node3</title>
<path fill="none" stroke="midnightblue" d="M291.774,-323.304C300.842,-323.325 309.867,-323.435 318.492,-323.633"/>
<polygon fill="midnightblue" stroke="midnightblue" points="291.532,-319.804 281.536,-323.318 291.541,-326.804 291.532,-319.804"/>
</g>
<!-- Node3&#45;&gt;Node2 -->
<g id="edge22" class="edge"><title>Node3&#45;&gt;Node2</title>
<path fill="none" stroke="midnightblue" d="M308.316,-336.658C299.531,-336.786 290.489,-336.828 281.536,-336.783"/>
<polygon fill="midnightblue" stroke="midnightblue" points="308.559,-340.154 318.492,-336.467 308.428,-333.155 308.559,-340.154"/>
</g>
<!-- Node4 -->
<g id="node7" class="node"><title>Node4</title>
<a xlink:href="namespaceHandler.xhtml#a33a19d69ead678af81fbe96907eceaf0" target="_top" xlink:title="Create a new account object, or load an existing one, with a name and password.">
<polygon fill="white" stroke="black" points="502.5,-610.05 502.5,-630.05 633.5,-630.05 633.5,-610.05 502.5,-610.05"/>
<text text-anchor="middle" x="568" y="-617.05" font-family="FreeSans.ttf" font-size="10.00">Handler::AttachAccount</text>
</a>
</g>
<!-- Node3&#45;&gt;Node4 -->
<g id="edge6" class="edge"><title>Node3&#45;&gt;Node4</title>
<path fill="none" stroke="midnightblue" d="M381.269,-350.229C385.414,-399.792 403.059,-526.859 478,-592.05 489.205,-601.798 504.147,-606.97 518.631,-610.037"/>
<polygon fill="midnightblue" stroke="midnightblue" points="384.75,-349.839 380.525,-340.123 377.769,-350.353 384.75,-349.839"/>
</g>
<!-- Node5 -->
<g id="node10" class="node"><title>Node5</title>
<a xlink:href="namespaceHandler.xhtml#a2e4ebf6ed049eb872aa4948d54c4932c" target="_top" xlink:title="Attempt to write a new character to disk after creation was completed.">
<polygon fill="white" stroke="black" points="498.5,-572.05 498.5,-592.05 637.5,-592.05 637.5,-572.05 498.5,-572.05"/>
<text text-anchor="middle" x="568" y="-579.05" font-family="FreeSans.ttf" font-size="10.00">Handler::AttachCharacter</text>
</a>
</g>
<!-- Node3&#45;&gt;Node5 -->
<g id="edge10" class="edge"><title>Node3&#45;&gt;Node5</title>
<path fill="none" stroke="midnightblue" d="M382.999,-350.368C390.116,-394.873 412.636,-500.064 478,-554.05 489.82,-563.813 505.431,-568.926 520.328,-571.977"/>
<polygon fill="midnightblue" stroke="midnightblue" points="386.419,-349.569 381.473,-340.199 379.496,-350.608 386.419,-349.569"/>
</g>
<!-- Node6 -->
<g id="node13" class="node"><title>Node6</title>
<a xlink:href="namespaceHandler.xhtml#a73ed6064f2698dbffb5f4c247a02b661" target="_top" xlink:title="Send initial account interface menu.">
<polygon fill="white" stroke="black" points="494,-534.05 494,-554.05 642,-554.05 642,-534.05 494,-534.05"/>
<text text-anchor="middle" x="568" y="-541.05" font-family="FreeSans.ttf" font-size="10.00">Handler::AccountMenuMain</text>
</a>
</g>
<!-- Node3&#45;&gt;Node6 -->
<g id="edge14" class="edge"><title>Node3&#45;&gt;Node6</title>
<path fill="none" stroke="midnightblue" d="M385.358,-350.255C395.574,-389.063 422.004,-472.898 478,-516.05 490.776,-525.896 507.479,-530.93 523.023,-533.969"/>
<polygon fill="midnightblue" stroke="midnightblue" points="388.648,-348.991 382.793,-340.161 381.863,-350.715 388.648,-348.991"/>
</g>
<!-- Node7 -->
<g id="node16" class="node"><title>Node7</title>
<a xlink:href="namespaceHandler.xhtml#ad04998a7a6ece2486bc441052a57c2d7" target="_top" xlink:title="Main Character creation menu.">
<polygon fill="white" stroke="black" points="498,-484.05 498,-516.05 638,-516.05 638,-484.05 498,-484.05"/>
<text text-anchor="start" x="506" y="-503.05" font-family="FreeSans.ttf" font-size="10.00">Handler::CharacterCreate</text>
<text text-anchor="middle" x="568" y="-491.05" font-family="FreeSans.ttf" font-size="10.00">MenuMain</text>
</a>
</g>
<!-- Node3&#45;&gt;Node7 -->
<g id="edge18" class="edge"><title>Node3&#45;&gt;Node7</title>
<path fill="none" stroke="midnightblue" d="M390.439,-349.32C405.133,-379.092 435.013,-435.12 478,-466.05 489.584,-474.385 503.838,-479.944 517.559,-484.015"/>
<polygon fill="midnightblue" stroke="midnightblue" points="393.571,-347.758 386.041,-340.304 387.279,-350.827 393.571,-347.758"/>
</g>
<!-- Node8 -->
<g id="node20" class="node"><title>Node8</title>
<a xlink:href="namespaceHandler.xhtml#ae5086bcf5857eb572beedd09158c3065" target="_top" xlink:title="Select a new Character sex.">
<polygon fill="white" stroke="black" points="489,-446.05 489,-466.05 647,-466.05 647,-446.05 489,-446.05"/>
<text text-anchor="middle" x="568" y="-453.05" font-family="FreeSans.ttf" font-size="10.00">Handler::CharacterCreateSex</text>
</a>
</g>
<!-- Node3&#45;&gt;Node8 -->
<g id="edge24" class="edge"><title>Node3&#45;&gt;Node8</title>
<path fill="none" stroke="midnightblue" d="M396.024,-348.39C413.218,-370.959 442.849,-407.987 478,-428.05 495.336,-437.946 517.2,-442.708 535.037,-446.038"/>
<polygon fill="midnightblue" stroke="midnightblue" points="398.679,-346.098 389.851,-340.24 393.099,-350.325 398.679,-346.098"/>
</g>
<!-- Node9 -->
<g id="node23" class="node"><title>Node9</title>
<a xlink:href="namespaceHandler.xhtml#a97a198bfc72285b2aca4f36978db715e" target="_top" xlink:title="Main Character deletion confirmation.">
<polygon fill="white" stroke="black" points="498.5,-396.05 498.5,-428.05 637.5,-428.05 637.5,-396.05 498.5,-396.05"/>
<text text-anchor="start" x="506.5" y="-415.05" font-family="FreeSans.ttf" font-size="10.00">Handler::CharacterDelete</text>
<text text-anchor="middle" x="568" y="-403.05" font-family="FreeSans.ttf" font-size="10.00">Confirm</text>
</a>
</g>
<!-- Node3&#45;&gt;Node9 -->
<g id="edge28" class="edge"><title>Node3&#45;&gt;Node9</title>
<path fill="none" stroke="midnightblue" d="M415.128,-345.361C433.315,-355.764 456.222,-368.872 478,-378.05 495.036,-385.23 514.746,-390.973 531.371,-395.93"/>
<polygon fill="midnightblue" stroke="midnightblue" points="416.5,-342.114 406.079,-340.202 413.033,-348.195 416.5,-342.114"/>
</g>
<!-- Node3&#45;&gt;Node10 -->
<g id="edge32" class="edge"><title>Node3&#45;&gt;Node10</title>
<path fill="none" stroke="midnightblue" d="M384.365,-310.02C394.744,-272.248 424.148,-191.903 478,-150.05 484.146,-145.274 491.151,-141.409 498.478,-138.343"/>
<polygon fill="midnightblue" stroke="midnightblue" points="380.929,-309.327 381.842,-319.883 387.711,-311.062 380.929,-309.327"/>
</g>
<!-- Node3&#45;&gt;Node11 -->
<g id="edge36" class="edge"><title>Node3&#45;&gt;Node11</title>
<path fill="none" stroke="midnightblue" d="M382.104,-309.688C388.389,-263.958 410.948,-154.354 478,-100.05 478.124,-99.9497 478.249,-99.8497 478.374,-99.7502"/>
<polygon fill="midnightblue" stroke="midnightblue" points="378.599,-309.51 380.84,-319.865 385.546,-310.373 378.599,-309.51"/>
</g>
<!-- Node12 -->
<g id="node32" class="node"><title>Node12</title>
<a xlink:href="namespaceHandler.xhtml#a00bc24564bfd267e0329643c569da1e4" target="_top" xlink:title="Select a new account name.">
<polygon fill="white" stroke="black" points="499.5,-358.05 499.5,-378.05 636.5,-378.05 636.5,-358.05 499.5,-358.05"/>
<text text-anchor="middle" x="568" y="-365.05" font-family="FreeSans.ttf" font-size="10.00">Handler::GetNewAccount</text>
</a>
</g>
<!-- Node3&#45;&gt;Node12 -->
<g id="edge40" class="edge"><title>Node3&#45;&gt;Node12</title>
<path fill="none" stroke="midnightblue" d="M451.7,-337.965C483.387,-343.873 518.662,-351.583 541.964,-357.95"/>
<polygon fill="midnightblue" stroke="midnightblue" points="452.024,-334.466 441.558,-336.114 450.767,-341.352 452.024,-334.466"/>
</g>
<!-- Node13 -->
<g id="node35" class="node"><title>Node13</title>
<a xlink:href="namespaceHandler.xhtml#a744adadcf407cdb3a9c33365afd5a7c2" target="_top" xlink:title="Create a new account.">
<polygon fill="white" stroke="black" points="497,-320.05 497,-340.05 639,-340.05 639,-320.05 497,-320.05"/>
<text text-anchor="middle" x="568" y="-327.05" font-family="FreeSans.ttf" font-size="10.00">Handler::GetNewPassword</text>
</a>
</g>
<!-- Node3&#45;&gt;Node13 -->
<g id="edge44" class="edge"><title>Node3&#45;&gt;Node13</title>
<path fill="none" stroke="midnightblue" d="M451.662,-323.473C466.465,-323.24 482.052,-323.243 496.837,-323.481"/>
<polygon fill="midnightblue" stroke="midnightblue" points="451.488,-319.975 441.558,-323.671 451.625,-326.974 451.488,-319.975"/>
</g>
<!-- Node14 -->
<g id="node38" class="node"><title>Node14</title>
<a xlink:href="namespaceHandler.xhtml#adfe13cc9748392348f3941656a1323b6" target="_top" xlink:title="Compare a received password against an existing account.">
<polygon fill="white" stroke="black" points="499.5,-282.05 499.5,-302.05 636.5,-302.05 636.5,-282.05 499.5,-282.05"/>
<text text-anchor="middle" x="568" y="-289.05" font-family="FreeSans.ttf" font-size="10.00">Handler::GetOldPassword</text>
</a>
</g>
<!-- Node3&#45;&gt;Node14 -->
<g id="edge48" class="edge"><title>Node3&#45;&gt;Node14</title>
<path fill="none" stroke="midnightblue" d="M415.648,-317.418C439.235,-311.407 470.931,-304.633 499.304,-299.408"/>
<polygon fill="midnightblue" stroke="midnightblue" points="414.523,-314.095 405.746,-320.029 416.308,-320.864 414.523,-314.095"/>
</g>
<!-- Node3&#45;&gt;Node15 -->
<g id="edge52" class="edge"><title>Node3&#45;&gt;Node15</title>
<path fill="none" stroke="midnightblue" d="M380.973,-309.706C384.638,-258.914 401.64,-127.493 478,-62.0502 485.033,-56.0229 493.499,-51.7514 502.387,-48.8542"/>
<polygon fill="midnightblue" stroke="midnightblue" points="377.473,-309.587 380.35,-319.783 384.46,-310.018 377.473,-309.587"/>
</g>
<!-- Node16 -->
<g id="node44" class="node"><title>Node16</title>
<a xlink:href="namespaceHandler.xhtml#a44b41bf69fdc6e615a029bea34910191" target="_top" xlink:title="Send initial greeting and request for account name.">
<polygon fill="white" stroke="black" points="508.5,-244.05 508.5,-264.05 627.5,-264.05 627.5,-244.05 508.5,-244.05"/>
<text text-anchor="middle" x="568" y="-251.05" font-family="FreeSans.ttf" font-size="10.00">Handler::LoginScreen</text>
</a>
</g>
<!-- Node3&#45;&gt;Node16 -->
<g id="edge56" class="edge"><title>Node3&#45;&gt;Node16</title>
<path fill="none" stroke="midnightblue" d="M394.872,-313.033C413.443,-297.494 446.602,-276.135 478,-264.05 487.538,-260.379 497.932,-257.356 508.158,-255.027"/>
<polygon fill="midnightblue" stroke="midnightblue" points="392.309,-310.631 387.211,-319.918 396.988,-315.837 392.309,-310.631"/>
</g>
<!-- Node17 -->
<g id="node47" class="node"><title>Node17</title>
<a xlink:href="classSocketClient.xhtml#a8399ef20292e9f3ec83b5c4bec2e105b" target="_top" xlink:title="Build a SocketClient for a new client connection and set all attributes.">
<polygon fill="white" stroke="black" points="516.5,-168.05 516.5,-188.05 619.5,-188.05 619.5,-168.05 516.5,-168.05"/>
<text text-anchor="middle" x="568" y="-175.05" font-family="FreeSans.ttf" font-size="10.00">SocketClient::New</text>
</a>
</g>
<!-- Node3&#45;&gt;Node17 -->
<g id="edge60" class="edge"><title>Node3&#45;&gt;Node17</title>
<path fill="none" stroke="midnightblue" d="M389.51,-310.679C404.401,-282.408 435.925,-230.16 478,-202.05 489.429,-194.414 503.191,-189.203 516.476,-185.649"/>
<polygon fill="midnightblue" stroke="midnightblue" points="386.221,-309.424 384.788,-319.921 392.454,-312.609 386.221,-309.424"/>
</g>
<!-- Node24 -->
<g id="node62" class="node"><title>Node24</title>
<a xlink:href="classSocketClient.xhtml#ad4f63c7d906310dc56a1217136047d7f" target="_top" xlink:title="Interpret the command at the front of the queue.">
<polygon fill="white" stroke="black" points="694,-206.05 694,-226.05 864,-226.05 864,-206.05 694,-206.05"/>
<text text-anchor="middle" x="779" y="-213.05" font-family="FreeSans.ttf" font-size="10.00">SocketClient::ProcessCommand</text>
</a>
</g>
<!-- Node3&#45;&gt;Node24 -->
<g id="edge76" class="edge"><title>Node3&#45;&gt;Node24</title>
<path fill="none" stroke="midnightblue" d="M392.613,-311.508C409.203,-288.869 440.669,-251.562 478,-235.05 546.117,-204.921 631.472,-202.408 693.875,-206.125"/>
<polygon fill="midnightblue" stroke="midnightblue" points="389.564,-309.757 386.627,-319.937 395.271,-313.811 389.564,-309.757"/>
</g>
<!-- Node4&#45;&gt;Node3 -->
<g id="edge8" class="edge"><title>Node4&#45;&gt;Node3</title>
<path fill="none" stroke="midnightblue" d="M492.952,-619.645C487.55,-617.109 482.477,-613.945 478,-610.05 392.692,-535.841 381.629,-381.451 380.207,-340.093"/>
<polygon fill="midnightblue" stroke="midnightblue" points="491.72,-622.922 502.307,-623.339 494.291,-616.411 491.72,-622.922"/>
</g>
<!-- Node5&#45;&gt;Node3 -->
<g id="edge12" class="edge"><title>Node5&#45;&gt;Node3</title>
<path fill="none" stroke="midnightblue" d="M489.012,-579.348C485.1,-577.273 481.394,-574.853 478,-572.05 402.209,-509.452 384.021,-378.01 380.658,-340.098"/>
<polygon fill="midnightblue" stroke="midnightblue" points="487.907,-582.688 498.464,-583.583 490.769,-576.3 487.907,-582.688"/>
</g>
<!-- Node6&#45;&gt;Node3 -->
<g id="edge16" class="edge"><title>Node6&#45;&gt;Node3</title>
<path fill="none" stroke="midnightblue" d="M484.605,-538.529C482.312,-537.161 480.103,-535.671 478,-534.05 411.675,-482.938 386.829,-374.75 381.275,-340.332"/>
<polygon fill="midnightblue" stroke="midnightblue" points="483.317,-541.8 493.817,-543.211 486.489,-535.56 483.317,-541.8"/>
</g>
<!-- Node7&#45;&gt;Node3 -->
<g id="edge20" class="edge"><title>Node7&#45;&gt;Node3</title>
<path fill="none" stroke="midnightblue" d="M488.829,-490.696C485.043,-488.712 481.406,-486.501 478,-484.05 424.727,-445.72 391.585,-368.844 382.528,-340.351"/>
<polygon fill="midnightblue" stroke="midnightblue" points="487.355,-493.871 497.897,-494.925 490.313,-487.526 487.355,-493.871"/>
</g>
<!-- Node8&#45;&gt;Node3 -->
<g id="edge26" class="edge"><title>Node8&#45;&gt;Node3</title>
<path fill="none" stroke="midnightblue" d="M479.638,-446.963C479.088,-446.664 478.542,-446.359 478,-446.05 431.839,-419.702 395.196,-364.098 383.741,-340.325"/>
<polygon fill="midnightblue" stroke="midnightblue" points="478.346,-450.224 488.877,-451.384 481.367,-443.91 478.346,-450.224"/>
</g>
<!-- Node9&#45;&gt;Node3 -->
<g id="edge30" class="edge"><title>Node9&#45;&gt;Node3</title>
<path fill="none" stroke="midnightblue" d="M488.517,-400.186C484.935,-398.87 481.414,-397.489 478,-396.05 442.451,-381.067 403.89,-355.615 387.768,-340.468"/>
<polygon fill="midnightblue" stroke="midnightblue" points="487.515,-403.543 498.11,-403.511 489.808,-396.929 487.515,-403.543"/>
</g>
<!-- Node10&#45;&gt;Node3 -->
<g id="edge34" class="edge"><title>Node10&#45;&gt;Node3</title>
<path fill="none" stroke="midnightblue" d="M505.73,-153.315C495.813,-156.986 486.151,-161.716 478,-168.05 423.965,-210.045 394.545,-290.793 384.26,-319.819"/>
<polygon fill="midnightblue" stroke="midnightblue" points="506.915,-156.61 515.277,-150.103 504.683,-149.975 506.915,-156.61"/>
</g>
<!-- Node11&#45;&gt;Node3 -->
<g id="edge38" class="edge"><title>Node11&#45;&gt;Node3</title>
<path fill="none" stroke="midnightblue" d="M511.339,-102.386C499.37,-105.564 487.501,-110.355 478,-118.05 410.158,-172.994 387.864,-284.549 381.889,-319.623"/>
<polygon fill="midnightblue" stroke="midnightblue" points="512.412,-105.73 521.367,-100.068 510.836,-98.9101 512.412,-105.73"/>
</g>
<!-- Node12&#45;&gt;Node3 -->
<g id="edge42" class="edge"><title>Node12&#45;&gt;Node3</title>
<path fill="none" stroke="midnightblue" d="M489.262,-358.805C459.36,-353.076 427.34,-345.986 405.746,-340.071"/>
<polygon fill="midnightblue" stroke="midnightblue" points="488.829,-362.285 499.304,-360.693 490.122,-355.406 488.829,-362.285"/>
</g>
<!-- Node13&#45;&gt;Node3 -->
<g id="edge46" class="edge"><title>Node13&#45;&gt;Node3</title>
<path fill="none" stroke="midnightblue" d="M486.493,-336.747C471.422,-336.876 455.915,-336.77 441.558,-336.429"/>
<polygon fill="midnightblue" stroke="midnightblue" points="486.881,-340.243 496.837,-336.62 486.795,-333.243 486.881,-340.243"/>
</g>
<!-- Node14&#45;&gt;Node3 -->
<g id="edge50" class="edge"><title>Node14&#45;&gt;Node3</title>
<path fill="none" stroke="midnightblue" d="M531.974,-304.779C506.42,-311.276 471.488,-318.648 441.558,-323.987"/>
<polygon fill="midnightblue" stroke="midnightblue" points="533.184,-308.079 541.964,-302.15 531.403,-301.31 533.184,-308.079"/>
</g>
<!-- Node15&#45;&gt;Node3 -->
<g id="edge54" class="edge"><title>Node15&#45;&gt;Node3</title>
<path fill="none" stroke="midnightblue" d="M509.212,-64.4973C497.883,-67.6986 486.816,-72.495 478,-80.0502 400.246,-146.688 384.036,-281.736 380.785,-320.039"/>
<polygon fill="midnightblue" stroke="midnightblue" points="510.299,-67.8349 519.185,-62.0654 508.641,-61.0342 510.299,-67.8349"/>
</g>
<!-- Node16&#45;&gt;Node3 -->
<g id="edge58" class="edge"><title>Node16&#45;&gt;Node3</title>
<path fill="none" stroke="midnightblue" d="M535.023,-266.437C517.671,-270.366 496.266,-275.019 478,-282.05 451.733,-292.161 424.232,-308.761 405.072,-319.878"/>
<polygon fill="midnightblue" stroke="midnightblue" points="536.286,-269.737 545.238,-264.07 534.706,-262.918 536.286,-269.737"/>
</g>
<!-- Node17&#45;&gt;Node18 -->
<g id="edge62" class="edge"><title>Node17&#45;&gt;Node18</title>
<path fill="none" stroke="midnightblue" d="M629.808,-166.919C659.328,-161.602 694.393,-155.288 723.108,-150.116"/>
<polygon fill="midnightblue" stroke="midnightblue" points="628.838,-163.537 619.616,-168.754 630.078,-170.426 628.838,-163.537"/>
</g>
<!-- Node21 -->
<g id="node55" class="node"><title>Node21</title>
<a xlink:href="classSocketServer.xhtml#afdbc60c3bc840875d2214b59c6213f63" target="_top" xlink:title="Accept a new connection on the listening port.">
<polygon fill="white" stroke="black" points="719,-168.05 719,-188.05 839,-188.05 839,-168.05 719,-168.05"/>
<text text-anchor="middle" x="779" y="-175.05" font-family="FreeSans.ttf" font-size="10.00">SocketServer::Accept</text>
</a>
</g>
<!-- Node17&#45;&gt;Node21 -->
<g id="edge68" class="edge"><title>Node17&#45;&gt;Node21</title>
<path fill="none" stroke="midnightblue" d="M629.731,-178.05C657.855,-178.05 691.024,-178.05 718.944,-178.05"/>
<polygon fill="midnightblue" stroke="midnightblue" points="629.616,-174.55 619.616,-178.05 629.616,-181.55 629.616,-174.55"/>
</g>
<!-- Node19 -->
<g id="node51" class="node"><title>Node19</title>
<a xlink:href="namespaceServer.xhtml#a19a1e493e1fb50a56d9c77332543d565" target="_top" xlink:title="Start the NAMS Server. Responsible for calling all critical boot&#45;time functions such as SocketServer ...">
<polygon fill="white" stroke="black" points="1052,-130.05 1052,-150.05 1142,-150.05 1142,-130.05 1052,-130.05"/>
<text text-anchor="middle" x="1097" y="-137.05" font-family="FreeSans.ttf" font-size="10.00">Server::Startup</text>
</a>
</g>
<!-- Node18&#45;&gt;Node19 -->
<g id="edge64" class="edge"><title>Node18&#45;&gt;Node19</title>
<path fill="none" stroke="midnightblue" d="M854.16,-140.05C915.639,-140.05 1000.54,-140.05 1051.95,-140.05"/>
<polygon fill="midnightblue" stroke="midnightblue" points="854.119,-136.55 844.119,-140.05 854.119,-143.55 854.119,-136.55"/>
</g>
<!-- Node20 -->
<g id="node53" class="node"><title>Node20</title>
<a xlink:href="main_8cpp.xhtml#ad53223b8779f25caeddb70a3b9172967" target="_top" xlink:title="The default function required to execute the server.">
<polygon fill="white" stroke="black" points="1178.5,-149.05 1178.5,-169.05 1219.5,-169.05 1219.5,-149.05 1178.5,-149.05"/>
<text text-anchor="middle" x="1199" y="-156.05" font-family="FreeSans.ttf" font-size="10.00">main</text>
</a>
</g>
<!-- Node19&#45;&gt;Node20 -->
<g id="edge66" class="edge"><title>Node19&#45;&gt;Node20</title>
<path fill="none" stroke="midnightblue" d="M1151.9,-150.277C1161.36,-152.04 1170.64,-153.768 1178.43,-155.219"/>
<polygon fill="midnightblue" stroke="midnightblue" points="1152.51,-146.83 1142.04,-148.439 1151.23,-153.711 1152.51,-146.83"/>
</g>
<!-- Node22 -->
<g id="node57" class="node"><title>Node22</title>
<a xlink:href="namespaceServer.xhtml#a39dbe16fdc8c5f6fbd678c6540fbcd6c" target="_top" xlink:title="Poll all SocketClient objects that are communicating with the associated SocketServer object...">
<polygon fill="white" stroke="black" points="903.5,-168.05 903.5,-188.05 1012.5,-188.05 1012.5,-168.05 903.5,-168.05"/>
<text text-anchor="middle" x="958" y="-175.05" font-family="FreeSans.ttf" font-size="10.00">Server::PollSockets</text>
</a>
</g>
<!-- Node21&#45;&gt;Node22 -->
<g id="edge70" class="edge"><title>Node21&#45;&gt;Node22</title>
<path fill="none" stroke="midnightblue" d="M849.268,-178.05C867.284,-178.05 886.391,-178.05 903.478,-178.05"/>
<polygon fill="midnightblue" stroke="midnightblue" points="849.102,-174.55 839.102,-178.05 849.102,-181.55 849.102,-174.55"/>
</g>
<!-- Node23 -->
<g id="node59" class="node"><title>Node23</title>
<a xlink:href="namespaceServer.xhtml#a50b81aa91d8fdaee6f52c5c5ec987990" target="_top" xlink:title="The core update loop of NAMS. This loop spawns all other subsystem update routines and then sleeps fo...">
<polygon fill="white" stroke="black" points="1052.5,-168.05 1052.5,-188.05 1141.5,-188.05 1141.5,-168.05 1052.5,-168.05"/>
<text text-anchor="middle" x="1097" y="-175.05" font-family="FreeSans.ttf" font-size="10.00">Server::Update</text>
</a>
</g>
<!-- Node22&#45;&gt;Node23 -->
<g id="edge72" class="edge"><title>Node22&#45;&gt;Node23</title>
<path fill="none" stroke="midnightblue" d="M1022.57,-178.05C1032.69,-178.05 1042.94,-178.05 1052.47,-178.05"/>
<polygon fill="midnightblue" stroke="midnightblue" points="1022.54,-174.55 1012.54,-178.05 1022.54,-181.55 1022.54,-174.55"/>
</g>
<!-- Node23&#45;&gt;Node20 -->
<g id="edge74" class="edge"><title>Node23&#45;&gt;Node20</title>
<path fill="none" stroke="midnightblue" d="M1151.64,-167.872C1161.14,-166.103 1170.47,-164.365 1178.3,-162.906"/>
<polygon fill="midnightblue" stroke="midnightblue" points="1150.93,-164.444 1141.74,-169.717 1152.21,-171.326 1150.93,-164.444"/>
</g>
<!-- Node25 -->
<g id="node64" class="node"><title>Node25</title>
<a xlink:href="namespaceServer.xhtml#a2b4cec469bb99c2a45e49de5ba74d1ae" target="_top" xlink:title="Processes input from all active SocketClient objects.">
<polygon fill="white" stroke="black" points="900,-206.05 900,-226.05 1016,-226.05 1016,-206.05 900,-206.05"/>
<text text-anchor="middle" x="958" y="-213.05" font-family="FreeSans.ttf" font-size="10.00">Server::ProcessInput</text>
</a>
</g>
<!-- Node24&#45;&gt;Node25 -->
<g id="edge78" class="edge"><title>Node24&#45;&gt;Node25</title>
<path fill="none" stroke="midnightblue" d="M874.249,-216.05C882.93,-216.05 891.54,-216.05 899.748,-216.05"/>
<polygon fill="midnightblue" stroke="midnightblue" points="874.044,-212.55 864.044,-216.05 874.044,-219.55 874.044,-212.55"/>
</g>
<!-- Node25&#45;&gt;Node23 -->
<g id="edge80" class="edge"><title>Node25&#45;&gt;Node23</title>
<path fill="none" stroke="midnightblue" d="M1004.62,-203.305C1022.63,-198.381 1042.96,-192.825 1059.94,-188.181"/>
<polygon fill="midnightblue" stroke="midnightblue" points="1003.61,-199.953 994.885,-205.967 1005.45,-206.706 1003.61,-199.953"/>
</g>
</g>
</svg>
        <g id="navigator" transform="translate(0 0)" fill="#404254">
                <rect fill="#f2f5e9" fill-opacity="0.5" stroke="#606060" stroke-width=".5" x="0" y="0" width="60" height="60"/>
                <use id="zoomplus" xlink:href="#zoomPlus" x="17" y="9" onmousedown="handleZoom(evt,'in')"/>
                <use id="zoomminus" xlink:href="#zoomMin" x="42" y="9" onmousedown="handleZoom(evt,'out')"/>
                <use id="reset" xlink:href="#resetDef" x="30" y="36" onmousedown="handleReset()"/>
                <g id="arrowUp" xlink:href="#dirArrow" transform="translate(30 24)" onmousedown="handlePan(0,-1)">
                  <use xlink:href="#rim" fill="#404040">
                        <set attributeName="fill" to="#808080" begin="arrowUp.mouseover" end="arrowUp.mouseout"/>
                  </use>
                  <path fill="none" stroke="white" stroke-width="1.5" d="M0,-3.0v7 M-2.5,-0.5L0,-3.0L2.5,-0.5"/>
                </g>
                <g id="arrowRight" xlink:href="#dirArrow" transform="rotate(90) translate(36 -43)" onmousedown="handlePan(1,0)">
                  <use xlink:href="#rim" fill="#404040">
                        <set attributeName="fill" to="#808080" begin="arrowRight.mouseover" end="arrowRight.mouseout"/>
                  </use>
                  <path fill="none" stroke="white" stroke-width="1.5" d="M0,-3.0v7 M-2.5,-0.5L0,-3.0L2.5,-0.5"/>
                </g>
                <g id="arrowDown" xlink:href="#dirArrow" transform="rotate(180) translate(-30 -48)" onmousedown="handlePan(0,1)">
                  <use xlink:href="#rim" fill="#404040">
                        <set attributeName="fill" to="#808080" begin="arrowDown.mouseover" end="arrowDown.mouseout"/>
                  </use>
                  <path fill="none" stroke="white" stroke-width="1.5" d="M0,-3.0v7 M-2.5,-0.5L0,-3.0L2.5,-0.5"/>
                </g>
                <g id="arrowLeft" xlink:href="#dirArrow" transform="rotate(270) translate(-36 17)" onmousedown="handlePan(-1,0)">
                  <use xlink:href="#rim" fill="#404040">
                        <set attributeName="fill" to="#808080" begin="arrowLeft.mouseover" end="arrowLeft.mouseout"/>
                  </use>
                  <path fill="none" stroke="white" stroke-width="1.5" d="M0,-3.0v7 M-2.5,-0.5L0,-3.0L2.5,-0.5"/>
                </g>
        </g>
        <svg viewBox="0 0 15 15" width="100%" height="30px" preserveAspectRatio="xMaxYMin meet">
         <g id="arrow_out" transform="scale(0.3 0.3)">
          <a xlink:href="classAccount_acee0aed5b91b420a7dbcf37b4b5d08e8_icgraph_org.svg" target="_base">
           <rect id="button" ry="5" rx="5" y="6" x="6" height="38" width="38"
                fill="#f2f5e9" fill-opacity="0.5" stroke="#606060" stroke-width="1.0"/>
           <path id="arrow"
             d="M 11.500037,31.436501 C 11.940474,20.09759 22.043105,11.32322 32.158766,21.979434 L 37.068811,17.246167 C 37.068811,17.246167 37.088388,32 37.088388,32 L 22.160133,31.978069 C 22.160133,31.978069 26.997745,27.140456 26.997745,27.140456 C 18.528582,18.264221 13.291696,25.230495 11.500037,31.436501 z"
             style="fill:#404040;"/>
          </a>
         </g>
        </svg>
</svg>
