<?xml version="1.0" encoding="UTF-8" standalone="no"?>
<!DOCTYPE svg PUBLIC "-//W3C//DTD SVG 1.1//EN"
 "http://www.w3.org/Graphics/SVG/1.1/DTD/svg11.dtd">
<!-- Generated by graphviz version 2.26.3 (20100126.1600)
 -->
<!-- Title: SocketClient Pages: 1 -->
<svg width="1532pt" height="724pt"
 viewBox="0.00 0.00 1532.00 724.00" xmlns="http://www.w3.org/2000/svg" xmlns:xlink="http://www.w3.org/1999/xlink">
<g id="graph1" class="graph" transform="scale(1 1) rotate(0) translate(4 720)">
<title>SocketClient</title>
<polygon fill="white" stroke="white" points="-4,5 -4,-720 1529,-720 1529,5 -4,5"/>
<!-- Node1 -->
<g id="node1" class="node"><title>Node1</title>
<polygon fill="#bfbfbf" stroke="black" points="750.5,-327 750.5,-347 827.5,-347 827.5,-327 750.5,-327"/>
<text text-anchor="middle" x="789" y="-334" font-family="FreeSans.ttf" font-size="10.00">SocketClient</text>
</g>
<!-- Node7 -->
<g id="node12" class="node"><title>Node7</title>
<a xlink:href="classAccount.xhtml" target="_top" xlink:title="Security structure to maintain characters, roles, and permissions.">
<polygon fill="white" stroke="black" points="934,-435 934,-455 990,-455 990,-435 934,-435"/>
<text text-anchor="middle" x="962" y="-442" font-family="FreeSans.ttf" font-size="10.00">Account</text>
</a>
</g>
<!-- Node1&#45;&gt;Node7 -->
<g id="edge14" class="edge"><title>Node1&#45;&gt;Node7</title>
<path fill="none" stroke="#9a32cd" stroke-dasharray="5,2" d="M801.527,-355.802C811.946,-370.175 827.949,-389.573 846,-402 873.067,-420.634 909.215,-432.354 933.921,-438.768"/>
<polygon fill="#9a32cd" stroke="#9a32cd" points="804.118,-353.399 795.522,-347.206 798.38,-357.408 804.118,-353.399"/>
<text text-anchor="middle" x="880" y="-435" font-family="FreeSans.ttf" font-size="10.00"> m_client</text>
</g>
<!-- Node2 -->
<g id="node2" class="node"><title>Node2</title>
<a xlink:href="classSocket.xhtml" target="_top" xlink:title="Functions and interfaces that are common to both SocketClient and SocketServer.">
<polygon fill="white" stroke="black" points="516,-350 516,-370 566,-370 566,-350 516,-350"/>
<text text-anchor="middle" x="541" y="-357" font-family="FreeSans.ttf" font-size="10.00">Socket</text>
</a>
</g>
<!-- Node2&#45;&gt;Node1 -->
<g id="edge2" class="edge"><title>Node2&#45;&gt;Node1</title>
<path fill="none" stroke="midnightblue" d="M576.257,-356.73C622.345,-352.456 702.789,-344.995 750.449,-340.575"/>
<polygon fill="midnightblue" stroke="midnightblue" points="575.778,-353.259 566.144,-357.668 576.425,-360.23 575.778,-353.259"/>
</g>
<!-- Node3 -->
<g id="node4" class="node"><title>Node3</title>
<polygon fill="white" stroke="#bfbfbf" points="217.5,-347 217.5,-367 280.5,-367 280.5,-347 217.5,-347"/>
<text text-anchor="middle" x="249" y="-354" font-family="FreeSans.ttf" font-size="10.00">signed int</text>
</g>
<!-- Node3&#45;&gt;Node2 -->
<g id="edge4" class="edge"><title>Node3&#45;&gt;Node2</title>
<path fill="none" stroke="#9a32cd" stroke-dasharray="5,2" d="M290.866,-356.983C332.298,-357.018 397.528,-357.213 454,-358 474.847,-358.29 498.5,-358.849 515.875,-359.302"/>
<polygon fill="#9a32cd" stroke="#9a32cd" points="290.61,-353.483 280.608,-356.977 290.606,-360.483 290.61,-353.483"/>
<text text-anchor="middle" x="390" y="-361" font-family="FreeSans.ttf" font-size="10.00"> m_descriptor</text>
</g>
<!-- Node4 -->
<g id="node6" class="node"><title>Node4</title>
<a xlink:title="STL class.">
<polygon fill="white" stroke="#bfbfbf" points="216.5,-108 216.5,-128 281.5,-128 281.5,-108 216.5,-108"/>
<text text-anchor="middle" x="249" y="-115" font-family="FreeSans.ttf" font-size="10.00">std::string</text>
</a>
</g>
<!-- Node4&#45;&gt;Node1 -->
<g id="edge70" class="edge"><title>Node4&#45;&gt;Node1</title>
<path fill="none" stroke="#9a32cd" stroke-dasharray="5,2" d="M291.709,-113.862C385.01,-107.341 608.542,-105.816 732,-224 763.427,-254.085 780.338,-305.229 786.388,-326.86"/>
<polygon fill="#9a32cd" stroke="#9a32cd" points="291.223,-110.389 281.515,-114.632 291.75,-117.369 291.223,-110.389"/>
<text text-anchor="middle" x="541" y="-177" font-family="FreeSans.ttf" font-size="10.00"> m_output</text>
<text text-anchor="middle" x="541" y="-165" font-family="FreeSans.ttf" font-size="10.00">m_input</text>
<text text-anchor="middle" x="541" y="-153" font-family="FreeSans.ttf" font-size="10.00">m_login</text>
</g>
<!-- Node4&#45;&gt;Node2 -->
<g id="edge6" class="edge"><title>Node4&#45;&gt;Node2</title>
<path fill="none" stroke="#9a32cd" stroke-dasharray="5,2" d="M291.328,-127.214C297.728,-130.316 303.638,-134.46 308,-140 349.268,-192.406 283.745,-237.387 326,-289 338.388,-304.132 461.433,-338.641 515.613,-353.258"/>
<polygon fill="#9a32cd" stroke="#9a32cd" points="292.308,-123.837 281.723,-123.377 289.711,-130.337 292.308,-123.837"/>
<text text-anchor="middle" x="390" y="-338" font-family="FreeSans.ttf" font-size="10.00"> m_hostname</text>
</g>
<!-- Node4&#45;&gt;Node7 -->
<g id="edge16" class="edge"><title>Node4&#45;&gt;Node7</title>
<path fill="none" stroke="#9a32cd" stroke-dasharray="5,2" d="M291.569,-107.032C380.175,-86.697 588.128,-52.1559 732,-133 863.119,-206.678 940.601,-389.517 958.16,-434.754"/>
<polygon fill="#9a32cd" stroke="#9a32cd" points="290.55,-103.676 281.617,-109.373 292.153,-110.491 290.55,-103.676"/>
<text text-anchor="middle" x="680" y="-148" font-family="FreeSans.ttf" font-size="10.00"> m_password</text>
<text text-anchor="middle" x="680" y="-136" font-family="FreeSans.ttf" font-size="10.00">m_id</text>
</g>
<!-- Node8 -->
<g id="node16" class="node"><title>Node8</title>
<polygon fill="white" stroke="#bfbfbf" points="482.5,-475 482.5,-495 599.5,-495 599.5,-475 482.5,-475"/>
<text text-anchor="middle" x="541" y="-482" font-family="FreeSans.ttf" font-size="10.00">std::vector&lt; string &gt;</text>
</g>
<!-- Node4&#45;&gt;Node8 -->
<g id="edge20" class="edge"><title>Node4&#45;&gt;Node8</title>
<path fill="none" stroke="#9a32cd" stroke-dasharray="5,2" d="M291.402,-126.909C297.85,-130.042 303.756,-134.277 308,-140 346.327,-191.687 283.022,-381.11 326,-429 364.554,-471.96 399.555,-431.823 454,-451 462.632,-454.04 463.647,-457.261 472,-461 483.576,-466.182 496.637,-470.978 508.256,-474.898"/>
<polygon fill="#9a32cd" stroke="#9a32cd" points="292.284,-123.493 281.698,-123.061 289.703,-130 292.284,-123.493"/>
<text text-anchor="middle" x="390" y="-454" font-family="FreeSans.ttf" font-size="10.00"> elements</text>
</g>
<!-- Node11 -->
<g id="node24" class="node"><title>Node11</title>
<a xlink:href="classCharacter.xhtml" target="_top" xlink:title="An actor within the game world.">
<polygon fill="white" stroke="black" points="1430,-409 1430,-429 1494,-429 1494,-409 1430,-409"/>
<text text-anchor="middle" x="1462" y="-416" font-family="FreeSans.ttf" font-size="10.00">Character</text>
</a>
</g>
<!-- Node4&#45;&gt;Node11 -->
<g id="edge48" class="edge"><title>Node4&#45;&gt;Node11</title>
<path fill="none" stroke="#9a32cd" stroke-dasharray="5,2" d="M264.972,-99.8666C279.425,-84.5837 302.06,-63.2958 326,-51 413.358,-6.1311 442.793,-0 541,-0 541,-0 541,-0 1281,-0 1350.71,-0 1349.78,-58.185 1382,-120 1436.52,-224.592 1456.36,-369.641 1460.91,-408.877"/>
<polygon fill="#9a32cd" stroke="#9a32cd" points="262.015,-97.9118 257.828,-107.644 267.17,-102.647 262.015,-97.9118"/>
<text text-anchor="middle" x="962" y="-3" font-family="FreeSans.ttf" font-size="10.00"> m_file</text>
</g>
<!-- Node12 -->
<g id="node26" class="node"><title>Node12</title>
<a xlink:href="classThing.xhtml" target="_top" xlink:title="A generic &quot;thing&quot;: creature, character, room, object, etc.">
<polygon fill="white" stroke="black" points="1260,-505 1260,-525 1302,-525 1302,-505 1260,-505"/>
<text text-anchor="middle" x="1281" y="-512" font-family="FreeSans.ttf" font-size="10.00">Thing</text>
</a>
</g>
<!-- Node4&#45;&gt;Node12 -->
<g id="edge38" class="edge"><title>Node4&#45;&gt;Node12</title>
<path fill="none" stroke="#9a32cd" stroke-dasharray="5,2" d="M273.705,-102.765C288.352,-94.5233 307.597,-85.0267 326,-80 452.326,-45.4936 788.665,-3.05167 914,-41 1120,-103.373 1033.58,-287.407 1178,-447 1201.58,-473.056 1237.22,-493.635 1259.79,-505.061"/>
<polygon fill="#9a32cd" stroke="#9a32cd" points="271.687,-99.8896 264.799,-107.94 275.204,-105.942 271.687,-99.8896"/>
<text text-anchor="middle" x="880" y="-92" font-family="FreeSans.ttf" font-size="10.00"> m_zone</text>
<text text-anchor="middle" x="880" y="-80" font-family="FreeSans.ttf" font-size="10.00">m_location</text>
<text text-anchor="middle" x="880" y="-68" font-family="FreeSans.ttf" font-size="10.00">m_description</text>
<text text-anchor="middle" x="880" y="-56" font-family="FreeSans.ttf" font-size="10.00">m_id</text>
<text text-anchor="middle" x="880" y="-44" font-family="FreeSans.ttf" font-size="10.00">m_name</text>
</g>
<!-- Node5 -->
<g id="node8" class="node"><title>Node5</title>
<a xlink:title="STL class.">
<polygon fill="white" stroke="#bfbfbf" points="0.5,-102 0.5,-134 103.5,-134 103.5,-102 0.5,-102"/>
<text text-anchor="start" x="8.5" y="-121" font-family="FreeSans.ttf" font-size="10.00">std::basic_string&lt;</text>
<text text-anchor="middle" x="52" y="-109" font-family="FreeSans.ttf" font-size="10.00"> char &gt;</text>
</a>
</g>
<!-- Node5&#45;&gt;Node4 -->
<g id="edge8" class="edge"><title>Node5&#45;&gt;Node4</title>
<path fill="none" stroke="midnightblue" d="M113.799,-118C147.752,-118 188.494,-118 216.318,-118"/>
<polygon fill="midnightblue" stroke="midnightblue" points="113.502,-114.5 103.502,-118 113.502,-121.5 113.502,-114.5"/>
</g>
<!-- Node6 -->
<g id="node10" class="node"><title>Node6</title>
<polygon fill="white" stroke="#bfbfbf" points="211.5,-558 211.5,-578 286.5,-578 286.5,-558 211.5,-558"/>
<text text-anchor="middle" x="249" y="-565" font-family="FreeSans.ttf" font-size="10.00">unsigned int</text>
</g>
<!-- Node6&#45;&gt;Node1 -->
<g id="edge72" class="edge"><title>Node6&#45;&gt;Node1</title>
<path fill="none" stroke="#9a32cd" stroke-dasharray="5,2" d="M262.641,-549.467C276.583,-531.912 299.85,-506.188 326,-492 377.186,-464.229 404.36,-494.449 454,-464 464.769,-457.394 461.527,-449.066 472,-442 572.333,-374.306 618.316,-402.532 732,-361 743.497,-356.8 756.058,-351.581 766.455,-347.084"/>
<polygon fill="#9a32cd" stroke="#9a32cd" points="259.557,-547.737 256.235,-557.797 265.106,-552.004 259.557,-547.737"/>
<text text-anchor="middle" x="541" y="-457" font-family="FreeSans.ttf" font-size="10.00"> m_idle</text>
<text text-anchor="middle" x="541" y="-445" font-family="FreeSans.ttf" font-size="10.00">m_state</text>
</g>
<!-- Node6&#45;&gt;Node2 -->
<g id="edge10" class="edge"><title>Node6&#45;&gt;Node2</title>
<path fill="none" stroke="#9a32cd" stroke-dasharray="5,2" d="M251.622,-547.474C257.55,-510.188 275.637,-431.628 326,-393 333.491,-387.254 460.503,-370.345 515.712,-363.222"/>
<polygon fill="#9a32cd" stroke="#9a32cd" points="248.12,-547.232 250.15,-557.63 255.048,-548.236 248.12,-547.232"/>
<text text-anchor="middle" x="390" y="-420" font-family="FreeSans.ttf" font-size="10.00"> m_bytes_sent</text>
<text text-anchor="middle" x="390" y="-408" font-family="FreeSans.ttf" font-size="10.00">m_port</text>
<text text-anchor="middle" x="390" y="-396" font-family="FreeSans.ttf" font-size="10.00">m_bytes_recvd</text>
</g>
<!-- Node6&#45;&gt;Node7 -->
<g id="edge26" class="edge"><title>Node6&#45;&gt;Node7</title>
<path fill="none" stroke="#9a32cd" stroke-dasharray="5,2" d="M296.722,-569.086C396.871,-570.237 635.608,-567.054 828,-518 867.226,-507.999 879.136,-508.572 914,-488 929.225,-479.017 943.94,-464.743 952.976,-455.13"/>
<polygon fill="#9a32cd" stroke="#9a32cd" points="296.665,-565.585 286.619,-568.949 296.57,-572.584 296.665,-565.585"/>
<text text-anchor="middle" x="680" y="-556" font-family="FreeSans.ttf" font-size="10.00"> m_security</text>
</g>
<!-- Node6&#45;&gt;Node11 -->
<g id="edge52" class="edge"><title>Node6&#45;&gt;Node11</title>
<path fill="none" stroke="#9a32cd" stroke-dasharray="5,2" d="M295.919,-580.534C300.144,-582.419 304.24,-584.565 308,-587 318.037,-593.501 315.076,-602.135 326,-607 377.968,-630.145 397.242,-610.861 454,-607 578.417,-598.536 609.167,-590.524 732,-569 882.431,-542.64 920.665,-537.209 1068,-497 1076.14,-494.78 1077.83,-493.095 1086,-491 1215.53,-457.773 1250.96,-463.683 1382,-437 1397.76,-433.79 1415.2,-429.907 1429.76,-426.57"/>
<polygon fill="#9a32cd" stroke="#9a32cd" points="297.131,-577.249 286.546,-576.809 294.546,-583.754 297.131,-577.249"/>
<text text-anchor="middle" x="962" y="-534" font-family="FreeSans.ttf" font-size="10.00"> m_sex</text>
</g>
<!-- Node6&#45;&gt;Node12 -->
<g id="edge42" class="edge"><title>Node6&#45;&gt;Node12</title>
<path fill="none" stroke="#9a32cd" stroke-dasharray="5,2" d="M296.005,-578.337C300.419,-580.663 304.531,-583.511 308,-587 326.732,-605.838 305.094,-627.608 326,-644 401.355,-703.086 445.242,-658 541,-658 541,-658 541,-658 1123,-658 1202.17,-658 1259.39,-558.073 1276.03,-525.284"/>
<polygon fill="#9a32cd" stroke="#9a32cd" points="297.195,-575.038 286.629,-574.259 294.403,-581.457 297.195,-575.038"/>
<text text-anchor="middle" x="880" y="-661" font-family="FreeSans.ttf" font-size="10.00"> m_type</text>
</g>
<!-- Node7&#45;&gt;Node1 -->
<g id="edge12" class="edge"><title>Node7&#45;&gt;Node1</title>
<path fill="none" stroke="#9a32cd" stroke-dasharray="5,2" d="M949.343,-426.604C940.532,-414.889 927.902,-400.075 914,-390 886.421,-370.012 850.15,-355.702 823.786,-347.029"/>
<polygon fill="#9a32cd" stroke="#9a32cd" points="946.597,-428.78 955.295,-434.83 952.268,-424.677 946.597,-428.78"/>
<text text-anchor="middle" x="880" y="-393" font-family="FreeSans.ttf" font-size="10.00"> m_account</text>
</g>
<!-- Node14 -->
<g id="node35" class="node"><title>Node14</title>
<a xlink:href="classThing_1_1Brain.xhtml" target="_top" xlink:title="Abstraction layer between player characters (Account&#45;&gt;SocketClient) and non&#45;player characters (AI)...">
<polygon fill="white" stroke="black" points="1086.5,-500 1086.5,-520 1159.5,-520 1159.5,-500 1086.5,-500"/>
<text text-anchor="middle" x="1123" y="-507" font-family="FreeSans.ttf" font-size="10.00">Thing::Brain</text>
</a>
</g>
<!-- Node7&#45;&gt;Node14 -->
<g id="edge46" class="edge"><title>Node7&#45;&gt;Node14</title>
<path fill="none" stroke="#9a32cd" stroke-dasharray="5,2" d="M996.218,-458.815C1026.79,-471.158 1070.86,-488.948 1098.17,-499.975"/>
<polygon fill="#9a32cd" stroke="#9a32cd" points="997.387,-455.512 986.803,-455.014 994.766,-462.003 997.387,-455.512"/>
<text text-anchor="middle" x="1039" y="-490" font-family="FreeSans.ttf" font-size="10.00"> m_account</text>
</g>
<!-- Node8&#45;&gt;Node7 -->
<g id="edge18" class="edge"><title>Node8&#45;&gt;Node7</title>
<path fill="none" stroke="#9a32cd" stroke-dasharray="5,2" d="M609.523,-478.489C703.518,-469.559 868.256,-453.907 933.872,-447.672"/>
<polygon fill="#9a32cd" stroke="#9a32cd" points="609.162,-475.008 599.538,-479.438 609.824,-481.977 609.162,-475.008"/>
<text text-anchor="middle" x="789" y="-468" font-family="FreeSans.ttf" font-size="10.00"> m_characters</text>
</g>
<!-- Node9 -->
<g id="node19" class="node"><title>Node9</title>
<a xlink:title="STL class.">
<polygon fill="white" stroke="#bfbfbf" points="201.5,-596 201.5,-616 296.5,-616 296.5,-596 201.5,-596"/>
<text text-anchor="middle" x="249" y="-603" font-family="FreeSans.ttf" font-size="10.00">std::vector&lt; T &gt;</text>
</a>
</g>
<!-- Node9&#45;&gt;Node8 -->
<g id="edge22" class="edge"><title>Node9&#45;&gt;Node8</title>
<path fill="none" stroke="orange" stroke-dasharray="5,2" d="M303.238,-590.775C304.907,-589.608 306.502,-588.352 308,-587 322.772,-573.665 310.323,-558.259 326,-546 371.471,-510.442 403.457,-551.881 454,-524 464.471,-518.224 461.826,-510.285 472,-504 477.814,-500.409 484.315,-497.483 490.939,-495.104"/>
<polygon fill="orange" stroke="orange" points="301.279,-587.864 294.369,-595.895 304.779,-593.926 301.279,-587.864"/>
<text text-anchor="middle" x="390" y="-549" font-family="FreeSans.ttf" font-size="10.00"> &lt; string &gt;</text>
</g>
<!-- Node13 -->
<g id="node28" class="node"><title>Node13</title>
<polygon fill="white" stroke="#bfbfbf" points="1400,-540 1400,-560 1524,-560 1524,-540 1400,-540"/>
<text text-anchor="middle" x="1462" y="-547" font-family="FreeSans.ttf" font-size="10.00">std::vector&lt; Thing * &gt;</text>
</g>
<!-- Node9&#45;&gt;Node13 -->
<g id="edge36" class="edge"><title>Node9&#45;&gt;Node13</title>
<path fill="none" stroke="orange" stroke-dasharray="5,2" d="M263.843,-623.72C278.074,-639.415 301.032,-661.56 326,-673 413.77,-713.214 444.456,-704 541,-704 541,-704 541,-704 1281,-704 1370.12,-704 1437.71,-594.365 1456.65,-560.104"/>
<polygon fill="orange" stroke="orange" points="266.461,-621.396 257.232,-616.191 261.2,-626.015 266.461,-621.396"/>
<text text-anchor="middle" x="962" y="-707" font-family="FreeSans.ttf" font-size="10.00"> &lt; Thing * &gt;</text>
</g>
<!-- Node16 -->
<g id="node42" class="node"><title>Node16</title>
<polygon fill="white" stroke="#bfbfbf" points="488.5,-513 488.5,-545 593.5,-545 593.5,-513 488.5,-513"/>
<text text-anchor="start" x="496.5" y="-532" font-family="FreeSans.ttf" font-size="10.00">std::vector&lt; pair&lt;</text>
<text text-anchor="middle" x="541" y="-520" font-family="FreeSans.ttf" font-size="10.00"> string, string &gt; &gt;</text>
</g>
<!-- Node9&#45;&gt;Node16 -->
<g id="edge58" class="edge"><title>Node9&#45;&gt;Node16</title>
<path fill="none" stroke="orange" stroke-dasharray="5,2" d="M306.648,-596.04C348.054,-588.303 404.976,-576.469 454,-562 470.113,-557.244 487.493,-550.906 502.451,-545.057"/>
<polygon fill="orange" stroke="orange" points="305.934,-592.612 296.736,-597.869 307.205,-599.496 305.934,-592.612"/>
<text text-anchor="middle" x="390" y="-594" font-family="FreeSans.ttf" font-size="10.00"> &lt; pair&lt; string, string &gt; &gt;</text>
</g>
<!-- Node10 -->
<g id="node21" class="node"><title>Node10</title>
<polygon fill="white" stroke="#bfbfbf" points="37.5,-271 37.5,-291 66.5,-291 66.5,-271 37.5,-271"/>
<text text-anchor="middle" x="52" y="-278" font-family="FreeSans.ttf" font-size="10.00">T</text>
</g>
<!-- Node10&#45;&gt;Node9 -->
<g id="edge24" class="edge"><title>Node10&#45;&gt;Node9</title>
<path fill="none" stroke="#9a32cd" stroke-dasharray="5,2" d="M55.3088,-301.301C65.2531,-355.782 99.941,-506.512 190,-587 194.092,-590.657 198.895,-593.611 203.964,-595.997"/>
<polygon fill="#9a32cd" stroke="#9a32cd" points="58.7132,-300.449 53.5513,-291.197 51.8167,-301.649 58.7132,-300.449"/>
<text text-anchor="middle" x="147" y="-571" font-family="FreeSans.ttf" font-size="10.00"> elements</text>
</g>
<!-- Node19 -->
<g id="node50" class="node"><title>Node19</title>
<a xlink:title="STL class.">
<polygon fill="white" stroke="#bfbfbf" points="201.5,-149 201.5,-169 296.5,-169 296.5,-149 201.5,-149"/>
<text text-anchor="middle" x="249" y="-156" font-family="FreeSans.ttf" font-size="10.00">std::deque&lt; T &gt;</text>
</a>
</g>
<!-- Node10&#45;&gt;Node19 -->
<g id="edge66" class="edge"><title>Node10&#45;&gt;Node19</title>
<path fill="none" stroke="#9a32cd" stroke-dasharray="5,2" d="M75.4622,-266.47C115.905,-241.425 197.755,-190.735 232.647,-169.127"/>
<polygon fill="#9a32cd" stroke="#9a32cd" points="73.466,-263.589 66.807,-271.83 77.1515,-269.541 73.466,-263.589"/>
<text text-anchor="middle" x="147" y="-237" font-family="FreeSans.ttf" font-size="10.00"> elements</text>
</g>
<!-- Node11&#45;&gt;Node7 -->
<g id="edge28" class="edge"><title>Node11&#45;&gt;Node7</title>
<path fill="none" stroke="#9a32cd" stroke-dasharray="5,2" d="M1419.45,-420.499C1363.9,-422.525 1263.65,-426.416 1178,-431 1110.64,-434.605 1031.55,-440.038 990.293,-442.963"/>
<polygon fill="#9a32cd" stroke="#9a32cd" points="1419.75,-423.991 1429.62,-420.131 1419.5,-416.995 1419.75,-423.991"/>
<text text-anchor="middle" x="1210" y="-434" font-family="FreeSans.ttf" font-size="10.00"> m_character</text>
</g>
<!-- Node12&#45;&gt;Node11 -->
<g id="edge30" class="edge"><title>Node12&#45;&gt;Node11</title>
<path fill="none" stroke="midnightblue" d="M1311.59,-501.856C1331.85,-492.885 1358.86,-480.418 1382,-468 1405.11,-455.6 1430.79,-439.416 1446.67,-429.113"/>
<polygon fill="midnightblue" stroke="midnightblue" points="1309.98,-498.739 1302.23,-505.963 1312.8,-505.149 1309.98,-498.739"/>
</g>
<!-- Node12&#45;&gt;Node12 -->
<g id="edge40" class="edge"><title>Node12&#45;&gt;Node12</title>
<path fill="none" stroke="#9a32cd" stroke-dasharray="5,2" d="M1268.14,-534.922C1269.22,-539.573 1273.5,-543 1281,-543 1293.3,-543 1296.96,-533.771 1291.96,-525.048"/>
<polygon fill="#9a32cd" stroke="#9a32cd" points="1271.59,-535.529 1270.04,-525.048 1264.72,-534.207 1271.59,-535.529"/>
<text text-anchor="middle" x="1281" y="-546" font-family="FreeSans.ttf" font-size="10.00"> m_container</text>
</g>
<!-- Node12&#45;&gt;Node13 -->
<g id="edge34" class="edge"><title>Node12&#45;&gt;Node13</title>
<path fill="none" stroke="#9a32cd" stroke-dasharray="5,2" d="M1312.35,-510.626C1332.48,-508.733 1359.06,-507.952 1382,-513 1405.46,-518.163 1430.24,-530.91 1445.89,-539.996"/>
<polygon fill="#9a32cd" stroke="#9a32cd" points="1311.74,-507.171 1302.17,-511.727 1312.49,-514.131 1311.74,-507.171"/>
<text text-anchor="middle" x="1351" y="-516" font-family="FreeSans.ttf" font-size="10.00"> elements</text>
</g>
<!-- Node13&#45;&gt;Node12 -->
<g id="edge32" class="edge"><title>Node13&#45;&gt;Node12</title>
<path fill="none" stroke="#9a32cd" stroke-dasharray="5,2" d="M1389.56,-541.175C1367.11,-537.8 1342.39,-533.426 1320,-528 1314.17,-526.588 1307.97,-524.703 1302.27,-522.808"/>
<polygon fill="#9a32cd" stroke="#9a32cd" points="1389.3,-544.674 1399.7,-542.656 1390.31,-537.748 1389.3,-544.674"/>
<text text-anchor="middle" x="1351" y="-542" font-family="FreeSans.ttf" font-size="10.00"> m_contents</text>
</g>
<!-- Node14&#45;&gt;Node12 -->
<g id="edge44" class="edge"><title>Node14&#45;&gt;Node12</title>
<path fill="none" stroke="#9a32cd" stroke-dasharray="5,2" d="M1169.83,-511.482C1199.59,-512.424 1236.69,-513.598 1259.61,-514.323"/>
<polygon fill="#9a32cd" stroke="#9a32cd" points="1169.75,-507.978 1159.65,-511.16 1169.53,-514.974 1169.75,-507.978"/>
<text text-anchor="middle" x="1210" y="-516" font-family="FreeSans.ttf" font-size="10.00"> m_brain</text>
</g>
<!-- Node15 -->
<g id="node39" class="node"><title>Node15</title>
<polygon fill="white" stroke="#bfbfbf" points="230.5,-205 230.5,-225 267.5,-225 267.5,-205 230.5,-205"/>
<text text-anchor="middle" x="249" y="-212" font-family="FreeSans.ttf" font-size="10.00">bool</text>
</g>
<!-- Node15&#45;&gt;Node1 -->
<g id="edge68" class="edge"><title>Node15&#45;&gt;Node1</title>
<path fill="none" stroke="#9a32cd" stroke-dasharray="5,2" d="M265.562,-232.227C280.098,-246.203 302.532,-265.146 326,-275 364.883,-291.326 646.234,-322.052 750.373,-333"/>
<polygon fill="#9a32cd" stroke="#9a32cd" points="267.906,-229.623 258.343,-225.063 262.975,-234.592 267.906,-229.623"/>
<text text-anchor="middle" x="541" y="-319" font-family="FreeSans.ttf" font-size="10.00"> m_quitting</text>
</g>
<!-- Node15&#45;&gt;Node11 -->
<g id="edge50" class="edge"><title>Node15&#45;&gt;Node11</title>
<path fill="none" stroke="#9a32cd" stroke-dasharray="5,2" d="M277.338,-206.873C291.789,-203.018 309.71,-198.681 326,-196 450.991,-175.43 485.76,-196.706 610,-172 691.888,-155.716 705.508,-115 789,-115 789,-115 789,-115 1281,-115 1421.05,-115 1455.21,-356.137 1461,-408.885"/>
<polygon fill="#9a32cd" stroke="#9a32cd" points="276.223,-203.549 267.501,-209.563 278.07,-210.301 276.223,-203.549"/>
<text text-anchor="middle" x="962" y="-118" font-family="FreeSans.ttf" font-size="10.00"> m_creation</text>
</g>
<!-- Node20 -->
<g id="node56" class="node"><title>Node20</title>
<a xlink:href="classSocketClient_1_1TermInfo.xhtml" target="_top" xlink:title="Remote terminal information and configuration.">
<polygon fill="white" stroke="black" points="479.5,-264 479.5,-284 602.5,-284 602.5,-264 479.5,-264"/>
<text text-anchor="middle" x="541" y="-271" font-family="FreeSans.ttf" font-size="10.00">SocketClient::TermInfo</text>
</a>
</g>
<!-- Node15&#45;&gt;Node20 -->
<g id="edge76" class="edge"><title>Node15&#45;&gt;Node20</title>
<path fill="none" stroke="#9a32cd" stroke-dasharray="5,2" d="M277.422,-206.261C319.646,-195.102 399.778,-181.12 454,-216 470.055,-226.328 457.443,-242.65 472,-255 476.264,-258.617 481.16,-261.55 486.336,-263.927"/>
<polygon fill="#9a32cd" stroke="#9a32cd" points="276.241,-202.956 267.543,-209.005 278.115,-209.701 276.241,-202.956"/>
<text text-anchor="middle" x="390" y="-231" font-family="FreeSans.ttf" font-size="10.00"> m_telopt</text>
<text text-anchor="middle" x="390" y="-219" font-family="FreeSans.ttf" font-size="10.00">m_negotiated</text>
</g>
<!-- Node16&#45;&gt;Node7 -->
<g id="edge54" class="edge"><title>Node16&#45;&gt;Node7</title>
<path fill="none" stroke="#9a32cd" stroke-dasharray="5,2" d="M603.753,-523.248C678.774,-515.27 807.546,-498.063 914,-466 923.406,-463.167 933.419,-458.987 941.852,-455.1"/>
<polygon fill="#9a32cd" stroke="#9a32cd" points="603.115,-519.796 593.531,-524.313 603.84,-526.758 603.115,-519.796"/>
<text text-anchor="middle" x="789" y="-505" font-family="FreeSans.ttf" font-size="10.00"> m_logins</text>
</g>
<!-- Node17 -->
<g id="node44" class="node"><title>Node17</title>
<polygon fill="white" stroke="#bfbfbf" points="190.5,-280 190.5,-300 307.5,-300 307.5,-280 190.5,-280"/>
<text text-anchor="middle" x="249" y="-287" font-family="FreeSans.ttf" font-size="10.00">pair&lt; string, string &gt;</text>
</g>
<!-- Node17&#45;&gt;Node16 -->
<g id="edge56" class="edge"><title>Node17&#45;&gt;Node16</title>
<path fill="none" stroke="#9a32cd" stroke-dasharray="5,2" d="M276.269,-305.657C287.936,-313.789 300.56,-324.8 308,-338 336.424,-388.43 288.076,-423.264 326,-467 336.832,-479.492 428.346,-502.79 488.438,-516.996"/>
<polygon fill="#9a32cd" stroke="#9a32cd" points="277.921,-302.556 267.636,-300.012 274.09,-308.414 277.921,-302.556"/>
<text text-anchor="middle" x="390" y="-511" font-family="FreeSans.ttf" font-size="10.00"> elements</text>
</g>
<!-- Node18 -->
<g id="node47" class="node"><title>Node18</title>
<polygon fill="white" stroke="#bfbfbf" points="472,-214 472,-246 610,-246 610,-214 472,-214"/>
<text text-anchor="start" x="480" y="-233" font-family="FreeSans.ttf" font-size="10.00">std::deque&lt; pair&lt; string,</text>
<text text-anchor="middle" x="541" y="-221" font-family="FreeSans.ttf" font-size="10.00"> string &gt; &gt;</text>
</g>
<!-- Node17&#45;&gt;Node18 -->
<g id="edge62" class="edge"><title>Node17&#45;&gt;Node18</title>
<path fill="none" stroke="#9a32cd" stroke-dasharray="5,2" d="M307.688,-277.941C355.123,-268.194 421.994,-254.453 471.992,-244.18"/>
<polygon fill="#9a32cd" stroke="#9a32cd" points="306.965,-274.516 297.874,-279.957 308.374,-281.373 306.965,-274.516"/>
<text text-anchor="middle" x="390" y="-276" font-family="FreeSans.ttf" font-size="10.00"> elements</text>
</g>
<!-- Node18&#45;&gt;Node1 -->
<g id="edge60" class="edge"><title>Node18&#45;&gt;Node1</title>
<path fill="none" stroke="#9a32cd" stroke-dasharray="5,2" d="M620.454,-227.312C656.744,-229.437 698.908,-236.889 732,-257 759.544,-273.739 777.486,-309.367 784.991,-326.869"/>
<polygon fill="#9a32cd" stroke="#9a32cd" points="620.537,-223.812 610.386,-226.847 620.214,-230.804 620.537,-223.812"/>
<text text-anchor="middle" x="680" y="-260" font-family="FreeSans.ttf" font-size="10.00"> m_command_queue</text>
</g>
<!-- Node19&#45;&gt;Node18 -->
<g id="edge64" class="edge"><title>Node19&#45;&gt;Node18</title>
<path fill="none" stroke="orange" stroke-dasharray="5,2" d="M306.627,-157.584C348.487,-158.163 405.974,-162.32 454,-178 478.422,-185.973 503.285,-201.766 520.143,-213.865"/>
<polygon fill="orange" stroke="orange" points="306.632,-154.084 296.606,-157.51 306.58,-161.084 306.632,-154.084"/>
<text text-anchor="middle" x="390" y="-181" font-family="FreeSans.ttf" font-size="10.00"> &lt; pair&lt; string, string &gt; &gt;</text>
</g>
<!-- Node20&#45;&gt;Node1 -->
<g id="edge74" class="edge"><title>Node20&#45;&gt;Node1</title>
<path fill="none" stroke="#9a32cd" stroke-dasharray="5,2" d="M612.909,-272.478C649.659,-273.925 694.43,-279.198 732,-294 750.683,-301.361 768.546,-316.625 779.146,-326.842"/>
<polygon fill="#9a32cd" stroke="#9a32cd" points="612.872,-268.975 602.769,-272.166 612.657,-275.972 612.872,-268.975"/>
<text text-anchor="middle" x="680" y="-297" font-family="FreeSans.ttf" font-size="10.00"> m_terminfo</text>
</g>
</g>
</svg>
