<?xml version="1.0" encoding="UTF-8" standalone="no"?>
<!DOCTYPE svg PUBLIC "-//W3C//DTD SVG 1.1//EN"
 "http://www.w3.org/Graphics/SVG/1.1/DTD/svg11.dtd">
<!-- Generated by graphviz version 2.26.3 (20100126.1600)
 -->
<!-- Title: G Pages: 1 -->
<svg width="469pt" height="320pt"
 viewBox="0.00 0.00 469.00 320.00" xmlns="http://www.w3.org/2000/svg" xmlns:xlink="http://www.w3.org/1999/xlink">
<g id="graph1" class="graph" transform="scale(1 1) rotate(0) translate(4 316)">
<title>G</title>
<polygon fill="white" stroke="white" points="-4,5 -4,-316 466,-316 466,5 -4,5"/>
<!-- Node1 -->
<g id="node1" class="node"><title>Node1</title>
<polygon fill="#bfbfbf" stroke="black" points="78.5,-290.5 78.5,-311.5 161.5,-311.5 161.5,-290.5 78.5,-290.5"/>
<text text-anchor="middle" x="120" y="-298.5" font-family="FreeSans.ttf" font-size="10.00">h/command.h</text>
</g>
<!-- Node2 -->
<g id="node3" class="node"><title>Node2</title>
<polygon fill="white" stroke="#bfbfbf" points="-0.5,-232.5 -0.5,-253.5 44.5,-253.5 44.5,-232.5 -0.5,-232.5"/>
<text text-anchor="middle" x="22" y="-240.5" font-family="FreeSans.ttf" font-size="10.00">cstdio</text>
</g>
<!-- Node1&#45;&gt;Node2 -->
<g id="edge2" class="edge"><title>Node1&#45;&gt;Node2</title>
<path fill="none" stroke="midnightblue" d="M102.025,-290.362C87.1058,-281.532 65.6674,-268.844 48.7344,-258.822"/>
<polygon fill="midnightblue" stroke="midnightblue" points="50.2492,-255.652 39.8608,-253.571 46.6839,-261.676 50.2492,-255.652"/>
</g>
<!-- Node3 -->
<g id="node5" class="node"><title>Node3</title>
<polygon fill="white" stroke="#bfbfbf" points="62,-232.5 62,-253.5 110,-253.5 110,-232.5 62,-232.5"/>
<text text-anchor="middle" x="86" y="-240.5" font-family="FreeSans.ttf" font-size="10.00">dlfcn.h</text>
</g>
<!-- Node1&#45;&gt;Node3 -->
<g id="edge4" class="edge"><title>Node1&#45;&gt;Node3</title>
<path fill="none" stroke="midnightblue" d="M113.764,-290.362C109.163,-282.513 102.775,-271.616 97.2861,-262.253"/>
<polygon fill="midnightblue" stroke="midnightblue" points="100.273,-260.428 92.1966,-253.571 94.2344,-263.968 100.273,-260.428"/>
</g>
<!-- Node4 -->
<g id="node7" class="node"><title>Node4</title>
<polygon fill="white" stroke="#bfbfbf" points="128,-232.5 128,-253.5 182,-253.5 182,-232.5 128,-232.5"/>
<text text-anchor="middle" x="155" y="-240.5" font-family="FreeSans.ttf" font-size="10.00">fstream</text>
</g>
<!-- Node1&#45;&gt;Node4 -->
<g id="edge6" class="edge"><title>Node1&#45;&gt;Node4</title>
<path fill="none" stroke="midnightblue" d="M126.42,-290.362C131.156,-282.513 137.732,-271.616 143.382,-262.253"/>
<polygon fill="midnightblue" stroke="midnightblue" points="146.451,-263.941 148.621,-253.571 140.458,-260.324 146.451,-263.941"/>
</g>
<!-- Node5 -->
<g id="node9" class="node"><title>Node5</title>
<a xlink:href="plugin_8h.xhtml" target="_top" xlink:title="The Plugin class.">
<polygon fill="white" stroke="black" points="200,-232.5 200,-253.5 254,-253.5 254,-232.5 200,-232.5"/>
<text text-anchor="middle" x="227" y="-240.5" font-family="FreeSans.ttf" font-size="10.00">plugin.h</text>
</a>
</g>
<!-- Node1&#45;&gt;Node5 -->
<g id="edge8" class="edge"><title>Node1&#45;&gt;Node5</title>
<path fill="none" stroke="midnightblue" d="M139.625,-290.362C156.141,-281.409 179.974,-268.491 198.578,-258.406"/>
<polygon fill="midnightblue" stroke="midnightblue" points="200.375,-261.413 207.499,-253.571 197.04,-255.259 200.375,-261.413"/>
</g>
<!-- Node6 -->
<g id="node11" class="node"><title>Node6</title>
<a xlink:href="socketclient_8h.xhtml" target="_top" xlink:title="The SocketClient class.">
<polygon fill="white" stroke="black" points="185.5,-174.5 185.5,-195.5 268.5,-195.5 268.5,-174.5 185.5,-174.5"/>
<text text-anchor="middle" x="227" y="-182.5" font-family="FreeSans.ttf" font-size="10.00">socketclient.h</text>
</a>
</g>
<!-- Node5&#45;&gt;Node6 -->
<g id="edge10" class="edge"><title>Node5&#45;&gt;Node6</title>
<path fill="none" stroke="midnightblue" d="M227,-232.362C227,-224.922 227,-214.743 227,-205.728"/>
<polygon fill="midnightblue" stroke="midnightblue" points="230.5,-205.571 227,-195.571 223.5,-205.571 230.5,-205.571"/>
</g>
<!-- Node7 -->
<g id="node13" class="node"><title>Node7</title>
<polygon fill="white" stroke="#bfbfbf" points="82.5,-116.5 82.5,-137.5 129.5,-137.5 129.5,-116.5 82.5,-116.5"/>
<text text-anchor="middle" x="106" y="-124.5" font-family="FreeSans.ttf" font-size="10.00">deque</text>
</g>
<!-- Node6&#45;&gt;Node7 -->
<g id="edge12" class="edge"><title>Node6&#45;&gt;Node7</title>
<path fill="none" stroke="midnightblue" d="M205.088,-174.497C186.189,-165.438 158.669,-152.246 137.424,-142.063"/>
<polygon fill="midnightblue" stroke="midnightblue" points="138.689,-138.788 128.158,-137.621 135.663,-145.1 138.689,-138.788"/>
</g>
<!-- Node8 -->
<g id="node15" class="node"><title>Node8</title>
<polygon fill="white" stroke="#bfbfbf" points="146.5,-116.5 146.5,-137.5 199.5,-137.5 199.5,-116.5 146.5,-116.5"/>
<text text-anchor="middle" x="173" y="-124.5" font-family="FreeSans.ttf" font-size="10.00">netdb.h</text>
</g>
<!-- Node6&#45;&gt;Node8 -->
<g id="edge14" class="edge"><title>Node6&#45;&gt;Node8</title>
<path fill="none" stroke="midnightblue" d="M217.096,-174.362C209.484,-166.186 198.792,-154.702 189.843,-145.091"/>
<polygon fill="midnightblue" stroke="midnightblue" points="192.217,-142.505 182.842,-137.571 187.094,-147.275 192.217,-142.505"/>
</g>
<!-- Node9 -->
<g id="node17" class="node"><title>Node9</title>
<a xlink:href="socket_8h.xhtml" target="_top" xlink:title="The Socket class.">
<polygon fill="white" stroke="black" points="265.5,-0.5 265.5,-21.5 322.5,-21.5 322.5,-0.5 265.5,-0.5"/>
<text text-anchor="middle" x="294" y="-8.5" font-family="FreeSans.ttf" font-size="10.00">socket.h</text>
</a>
</g>
<!-- Node6&#45;&gt;Node9 -->
<g id="edge16" class="edge"><title>Node6&#45;&gt;Node9</title>
<path fill="none" stroke="midnightblue" d="M226.392,-174.451C225.536,-151.785 225.922,-97.3113 246,-58 251.908,-46.4319 261.761,-36.0334 271.008,-27.9764"/>
<polygon fill="midnightblue" stroke="midnightblue" points="273.354,-30.5783 278.863,-21.5282 268.913,-25.1677 273.354,-30.5783"/>
</g>
<!-- Node10 -->
<g id="node19" class="node"><title>Node10</title>
<a xlink:href="server_8h.xhtml" target="_top" xlink:title="The Server class.">
<polygon fill="white" stroke="black" points="254.5,-116.5 254.5,-137.5 309.5,-137.5 309.5,-116.5 254.5,-116.5"/>
<text text-anchor="middle" x="282" y="-124.5" font-family="FreeSans.ttf" font-size="10.00">server.h</text>
</a>
</g>
<!-- Node6&#45;&gt;Node10 -->
<g id="edge18" class="edge"><title>Node6&#45;&gt;Node10</title>
<path fill="none" stroke="midnightblue" d="M231.724,-174.362C238.156,-166.023 249.03,-154.242 259.134,-144.516"/>
<polygon fill="midnightblue" stroke="midnightblue" points="261.671,-146.937 266.624,-137.571 256.912,-141.804 261.671,-146.937"/>
</g>
<!-- Node10&#45;&gt;Node6 -->
<g id="edge22" class="edge"><title>Node10&#45;&gt;Node6</title>
<path fill="none" stroke="midnightblue" d="M277.328,-137.571C270.92,-145.891 260.056,-157.668 249.948,-167.405"/>
<polygon fill="midnightblue" stroke="midnightblue" points="247.401,-164.994 242.452,-174.362 252.163,-170.125 247.401,-164.994"/>
</g>
<!-- Node11 -->
<g id="node21" class="node"><title>Node11</title>
<polygon fill="white" stroke="#bfbfbf" points="255,-58.5 255,-79.5 301,-79.5 301,-58.5 255,-58.5"/>
<text text-anchor="middle" x="278" y="-66.5" font-family="FreeSans.ttf" font-size="10.00">fcntl.h</text>
</g>
<!-- Node10&#45;&gt;Node11 -->
<g id="edge20" class="edge"><title>Node10&#45;&gt;Node11</title>
<path fill="none" stroke="midnightblue" d="M281.266,-116.362C280.753,-108.922 280.051,-98.7427 279.429,-89.7276"/>
<polygon fill="midnightblue" stroke="midnightblue" points="282.909,-89.3061 278.729,-79.5707 275.925,-89.7878 282.909,-89.3061"/>
</g>
<!-- Node12 -->
<g id="node24" class="node"><title>Node12</title>
<a xlink:href="socketserver_8h.xhtml" target="_top" xlink:title="The SocketServer class.">
<polygon fill="white" stroke="black" points="319,-58.5 319,-79.5 405,-79.5 405,-58.5 319,-58.5"/>
<text text-anchor="middle" x="362" y="-66.5" font-family="FreeSans.ttf" font-size="10.00">socketserver.h</text>
</a>
</g>
<!-- Node10&#45;&gt;Node12 -->
<g id="edge24" class="edge"><title>Node10&#45;&gt;Node12</title>
<path fill="none" stroke="midnightblue" d="M296.673,-116.362C308.514,-107.777 325.385,-95.5459 339.016,-85.6636"/>
<polygon fill="midnightblue" stroke="midnightblue" points="341.378,-88.274 347.42,-79.5707 337.269,-82.6067 341.378,-88.274"/>
</g>
<!-- Node13 -->
<g id="node27" class="node"><title>Node13</title>
<a xlink:href="list_8h.xhtml" target="_top" xlink:title="All globally referenced list / map / vector types.">
<polygon fill="white" stroke="black" points="422.5,-58.5 422.5,-79.5 461.5,-79.5 461.5,-58.5 422.5,-58.5"/>
<text text-anchor="middle" x="442" y="-66.5" font-family="FreeSans.ttf" font-size="10.00">list.h</text>
</a>
</g>
<!-- Node10&#45;&gt;Node13 -->
<g id="edge28" class="edge"><title>Node10&#45;&gt;Node13</title>
<path fill="none" stroke="midnightblue" d="M309.651,-117.446C334.489,-108.8 372.17,-95.528 412.884,-80.3531"/>
<polygon fill="midnightblue" stroke="midnightblue" points="414.31,-83.5566 422.449,-76.7736 411.856,-77.0007 414.31,-83.5566"/>
</g>
<!-- Node12&#45;&gt;Node9 -->
<g id="edge26" class="edge"><title>Node12&#45;&gt;Node9</title>
<path fill="none" stroke="midnightblue" d="M349.528,-58.3619C339.655,-49.9408 325.667,-38.0105 314.202,-28.2308"/>
<polygon fill="midnightblue" stroke="midnightblue" points="316.273,-25.3972 306.393,-21.5707 311.73,-30.7231 316.273,-25.3972"/>
</g>
<!-- Node14 -->
<g id="node29" class="node"><title>Node14</title>
<polygon fill="white" stroke="#bfbfbf" points="427,-0.5 427,-21.5 457,-21.5 457,-0.5 427,-0.5"/>
<text text-anchor="middle" x="442" y="-8.5" font-family="FreeSans.ttf" font-size="10.00">list</text>
</g>
<!-- Node13&#45;&gt;Node14 -->
<g id="edge30" class="edge"><title>Node13&#45;&gt;Node14</title>
<path fill="none" stroke="midnightblue" d="M442,-58.3619C442,-50.9219 442,-40.7427 442,-31.7276"/>
<polygon fill="midnightblue" stroke="midnightblue" points="445.5,-31.5706 442,-21.5707 438.5,-31.5707 445.5,-31.5706"/>
</g>
</g>
</svg>
