<?xml version="1.0" encoding="UTF-8" standalone="no"?>
<!DOCTYPE svg PUBLIC "-//W3C//DTD SVG 1.1//EN"
 "http://www.w3.org/Graphics/SVG/1.1/DTD/svg11.dtd">
<!-- Generated by graphviz version 2.26.3 (20100126.1600)
 -->
<!-- Title: G Pages: 1 -->
<!--zoomable 378 -->
<svg id="main" version="1.1" xmlns="http://www.w3.org/2000/svg" xmlns:xlink="http://www.w3.org/1999/xlink" xml:space="preserve" onload="init(evt)">
        <defs>
                <circle id="rim" cx="0" cy="0" r="7"/>
                <circle id="rim2" cx="0" cy="0" r="3.5"/>
                <g id="zoomPlus">
                        <use xlink:href="#rim" fill="#404040">
                                <set attributeName="fill" to="#808080" begin="zoomplus.mouseover" end="zoomplus.mouseout"/>
                        </use>
                        <path d="M-4,0h8M0,-4v8" fill="none" stroke="white" stroke-width="1.5" pointer-events="none"/>
                </g>
                <g id="zoomMin">
                        <use xlink:href="#rim" fill="#404040">
                                <set attributeName="fill" to="#808080" begin="zoomminus.mouseover" end="zoomminus.mouseout"/>
                        </use>
                        <path d="M-4,0h8" fill="none" stroke="white" stroke-width="1.5" pointer-events="none"/>
                </g>
                <g id="dirArrow">
                        <path fill="none" stroke="white" stroke-width="1.5" d="M0,-3.0v7 M-2.5,-0.5L0,-3.0L2.5,-0.5"/>
                </g>
               <g id="resetDef">
                       <use xlink:href="#rim2" fill="#404040">
                               <set attributeName="fill" to="#808080" begin="reset.mouseover" end="reset.mouseout"/>
                       </use>
               </g>
        </defs>

<script type="text/javascript">
var viewWidth = 561;
var viewHeight = 378;
var sectionId = 'dynsection-0';
</script>
<script xlink:href="svgpan.js"/>
<svg id="graph" class="graph">
<g id="viewport">
<title>G</title>
<polygon fill="white" stroke="white" points="-4,5 -4,-374 558,-374 558,5 -4,5"/>
<!-- Node1 -->
<g id="node1" class="node"><title>Node1</title>
<polygon fill="#bfbfbf" stroke="black" points="251,-348.5 251,-369.5 313,-369.5 313,-348.5 251,-348.5"/>
<text text-anchor="middle" x="282" y="-356.5" font-family="FreeSans.ttf" font-size="10.00">h/event.h</text>
</g>
<!-- Node2 -->
<g id="node3" class="node"><title>Node2</title>
<a xlink:href="command_8h.xhtml" target="_top" xlink:title="The Command class.">
<polygon fill="white" stroke="black" points="118,-290.5 118,-311.5 192,-311.5 192,-290.5 118,-290.5"/>
<text text-anchor="middle" x="155" y="-298.5" font-family="FreeSans.ttf" font-size="10.00">command.h</text>
</a>
</g>
<!-- Node1&#45;&gt;Node2 -->
<g id="edge2" class="edge"><title>Node1&#45;&gt;Node2</title>
<path fill="none" stroke="midnightblue" d="M259.001,-348.497C238.987,-339.356 209.759,-326.008 187.381,-315.788"/>
<polygon fill="midnightblue" stroke="midnightblue" points="188.807,-312.592 178.257,-311.621 185.899,-318.959 188.807,-312.592"/>
</g>
<!-- Node7 -->
<g id="node13" class="node"><title>Node7</title>
<a xlink:href="socketclient_8h.xhtml" target="_top" xlink:title="The SocketClient class.">
<polygon fill="white" stroke="black" points="197.5,-174.5 197.5,-195.5 280.5,-195.5 280.5,-174.5 197.5,-174.5"/>
<text text-anchor="middle" x="239" y="-182.5" font-family="FreeSans.ttf" font-size="10.00">socketclient.h</text>
</a>
</g>
<!-- Node1&#45;&gt;Node7 -->
<g id="edge36" class="edge"><title>Node1&#45;&gt;Node7</title>
<path fill="none" stroke="midnightblue" d="M281.557,-348.198C280.392,-325.949 276.343,-273.609 263,-232 259.984,-222.594 255.251,-212.775 250.783,-204.558"/>
<polygon fill="midnightblue" stroke="midnightblue" points="253.769,-202.727 245.778,-195.77 247.686,-206.192 253.769,-202.727"/>
</g>
<!-- Node11 -->
<g id="node21" class="node"><title>Node11</title>
<a xlink:href="server_8h.xhtml" target="_top" xlink:title="The Server class.">
<polygon fill="white" stroke="black" points="292.5,-116.5 292.5,-137.5 347.5,-137.5 347.5,-116.5 292.5,-116.5"/>
<text text-anchor="middle" x="320" y="-124.5" font-family="FreeSans.ttf" font-size="10.00">server.h</text>
</a>
</g>
<!-- Node1&#45;&gt;Node11 -->
<g id="edge34" class="edge"><title>Node1&#45;&gt;Node11</title>
<path fill="none" stroke="midnightblue" d="M284.487,-348.209C286.631,-338.706 289.731,-324.476 292,-312 302.759,-252.85 312.596,-182.532 317.221,-148.11"/>
<polygon fill="midnightblue" stroke="midnightblue" points="320.732,-148.255 318.583,-137.88 313.794,-147.331 320.732,-148.255"/>
</g>
<!-- Node3 -->
<g id="node5" class="node"><title>Node3</title>
<polygon fill="white" stroke="#bfbfbf" points="-0.5,-232.5 -0.5,-253.5 44.5,-253.5 44.5,-232.5 -0.5,-232.5"/>
<text text-anchor="middle" x="22" y="-240.5" font-family="FreeSans.ttf" font-size="10.00">cstdio</text>
</g>
<!-- Node2&#45;&gt;Node3 -->
<g id="edge4" class="edge"><title>Node2&#45;&gt;Node3</title>
<path fill="none" stroke="midnightblue" d="M130.915,-290.497C109.335,-281.086 77.5273,-267.215 53.8509,-256.89"/>
<polygon fill="midnightblue" stroke="midnightblue" points="55.1412,-253.634 44.5758,-252.845 52.343,-260.051 55.1412,-253.634"/>
</g>
<!-- Node4 -->
<g id="node7" class="node"><title>Node4</title>
<polygon fill="white" stroke="#bfbfbf" points="62,-232.5 62,-253.5 110,-253.5 110,-232.5 62,-232.5"/>
<text text-anchor="middle" x="86" y="-240.5" font-family="FreeSans.ttf" font-size="10.00">dlfcn.h</text>
</g>
<!-- Node2&#45;&gt;Node4 -->
<g id="edge6" class="edge"><title>Node2&#45;&gt;Node4</title>
<path fill="none" stroke="midnightblue" d="M142.344,-290.362C132.326,-281.941 118.133,-270.011 106.499,-260.231"/>
<polygon fill="midnightblue" stroke="midnightblue" points="108.482,-257.326 98.5754,-253.571 103.978,-262.684 108.482,-257.326"/>
</g>
<!-- Node5 -->
<g id="node9" class="node"><title>Node5</title>
<polygon fill="white" stroke="#bfbfbf" points="128,-232.5 128,-253.5 182,-253.5 182,-232.5 128,-232.5"/>
<text text-anchor="middle" x="155" y="-240.5" font-family="FreeSans.ttf" font-size="10.00">fstream</text>
</g>
<!-- Node2&#45;&gt;Node5 -->
<g id="edge8" class="edge"><title>Node2&#45;&gt;Node5</title>
<path fill="none" stroke="midnightblue" d="M155,-290.362C155,-282.922 155,-272.743 155,-263.728"/>
<polygon fill="midnightblue" stroke="midnightblue" points="158.5,-263.571 155,-253.571 151.5,-263.571 158.5,-263.571"/>
</g>
<!-- Node6 -->
<g id="node11" class="node"><title>Node6</title>
<a xlink:href="plugin_8h.xhtml" target="_top" xlink:title="The Plugin class.">
<polygon fill="white" stroke="black" points="200,-232.5 200,-253.5 254,-253.5 254,-232.5 200,-232.5"/>
<text text-anchor="middle" x="227" y="-240.5" font-family="FreeSans.ttf" font-size="10.00">plugin.h</text>
</a>
</g>
<!-- Node2&#45;&gt;Node6 -->
<g id="edge10" class="edge"><title>Node2&#45;&gt;Node6</title>
<path fill="none" stroke="midnightblue" d="M168.206,-290.362C178.761,-281.859 193.758,-269.779 205.963,-259.947"/>
<polygon fill="midnightblue" stroke="midnightblue" points="208.286,-262.57 213.878,-253.571 203.895,-257.118 208.286,-262.57"/>
</g>
<!-- Node6&#45;&gt;Node7 -->
<g id="edge12" class="edge"><title>Node6&#45;&gt;Node7</title>
<path fill="none" stroke="midnightblue" d="M229.201,-232.362C230.757,-224.84 232.893,-214.519 234.773,-205.431"/>
<polygon fill="midnightblue" stroke="midnightblue" points="238.214,-206.072 236.813,-195.571 231.359,-204.654 238.214,-206.072"/>
</g>
<!-- Node8 -->
<g id="node15" class="node"><title>Node8</title>
<polygon fill="white" stroke="#bfbfbf" points="94.5,-116.5 94.5,-137.5 141.5,-137.5 141.5,-116.5 94.5,-116.5"/>
<text text-anchor="middle" x="118" y="-124.5" font-family="FreeSans.ttf" font-size="10.00">deque</text>
</g>
<!-- Node7&#45;&gt;Node8 -->
<g id="edge14" class="edge"><title>Node7&#45;&gt;Node8</title>
<path fill="none" stroke="midnightblue" d="M217.088,-174.497C198.189,-165.438 170.669,-152.246 149.424,-142.063"/>
<polygon fill="midnightblue" stroke="midnightblue" points="150.689,-138.788 140.158,-137.621 147.663,-145.1 150.689,-138.788"/>
</g>
<!-- Node9 -->
<g id="node17" class="node"><title>Node9</title>
<polygon fill="white" stroke="#bfbfbf" points="158.5,-116.5 158.5,-137.5 211.5,-137.5 211.5,-116.5 158.5,-116.5"/>
<text text-anchor="middle" x="185" y="-124.5" font-family="FreeSans.ttf" font-size="10.00">netdb.h</text>
</g>
<!-- Node7&#45;&gt;Node9 -->
<g id="edge16" class="edge"><title>Node7&#45;&gt;Node9</title>
<path fill="none" stroke="midnightblue" d="M229.096,-174.362C221.484,-166.186 210.792,-154.702 201.843,-145.091"/>
<polygon fill="midnightblue" stroke="midnightblue" points="204.217,-142.505 194.842,-137.571 199.094,-147.275 204.217,-142.505"/>
</g>
<!-- Node10 -->
<g id="node19" class="node"><title>Node10</title>
<a xlink:href="socket_8h.xhtml" target="_top" xlink:title="The Socket class.">
<polygon fill="white" stroke="black" points="345.5,-0.5 345.5,-21.5 402.5,-21.5 402.5,-0.5 345.5,-0.5"/>
<text text-anchor="middle" x="374" y="-8.5" font-family="FreeSans.ttf" font-size="10.00">socket.h</text>
</a>
</g>
<!-- Node7&#45;&gt;Node10 -->
<g id="edge18" class="edge"><title>Node7&#45;&gt;Node10</title>
<path fill="none" stroke="midnightblue" d="M237.369,-174.456C234.333,-150.839 230.41,-93.0272 258,-58 276.754,-34.1902 309.509,-22.3734 335.44,-16.5491"/>
<polygon fill="midnightblue" stroke="midnightblue" points="336.255,-19.955 345.357,-14.5324 334.86,-13.0954 336.255,-19.955"/>
</g>
<!-- Node7&#45;&gt;Node11 -->
<g id="edge20" class="edge"><title>Node7&#45;&gt;Node11</title>
<path fill="none" stroke="midnightblue" d="M248.493,-174.362C259.162,-165.614 276.417,-153.079 291.396,-143.101"/>
<polygon fill="midnightblue" stroke="midnightblue" points="293.417,-145.962 299.885,-137.571 289.596,-140.097 293.417,-145.962"/>
</g>
<!-- Node11&#45;&gt;Node7 -->
<g id="edge28" class="edge"><title>Node11&#45;&gt;Node7</title>
<path fill="none" stroke="midnightblue" d="M310.59,-137.571C299.954,-146.299 282.711,-158.831 267.72,-168.821"/>
<polygon fill="midnightblue" stroke="midnightblue" points="265.687,-165.969 259.221,-174.362 269.509,-171.833 265.687,-165.969"/>
</g>
<!-- Node12 -->
<g id="node23" class="node"><title>Node12</title>
<polygon fill="white" stroke="#bfbfbf" points="267,-58.5 267,-79.5 313,-79.5 313,-58.5 267,-58.5"/>
<text text-anchor="middle" x="290" y="-66.5" font-family="FreeSans.ttf" font-size="10.00">fcntl.h</text>
</g>
<!-- Node11&#45;&gt;Node12 -->
<g id="edge22" class="edge"><title>Node11&#45;&gt;Node12</title>
<path fill="none" stroke="midnightblue" d="M314.498,-116.362C310.48,-108.595 304.919,-97.8426 300.11,-88.5458"/>
<polygon fill="midnightblue" stroke="midnightblue" points="303.171,-86.8448 295.468,-79.5707 296.953,-90.0608 303.171,-86.8448"/>
</g>
<!-- Node13 -->
<g id="node25" class="node"><title>Node13</title>
<polygon fill="white" stroke="#bfbfbf" points="330.5,-58.5 330.5,-79.5 401.5,-79.5 401.5,-58.5 330.5,-58.5"/>
<text text-anchor="middle" x="366" y="-66.5" font-family="FreeSans.ttf" font-size="10.00">forward_list</text>
</g>
<!-- Node11&#45;&gt;Node13 -->
<g id="edge24" class="edge"><title>Node11&#45;&gt;Node13</title>
<path fill="none" stroke="midnightblue" d="M328.437,-116.362C334.792,-108.35 343.666,-97.1605 351.193,-87.6696"/>
<polygon fill="midnightblue" stroke="midnightblue" points="354.145,-89.5805 357.616,-79.5707 348.66,-85.2308 354.145,-89.5805"/>
</g>
<!-- Node14 -->
<g id="node27" class="node"><title>Node14</title>
<polygon fill="white" stroke="#bfbfbf" points="419,-58.5 419,-79.5 449,-79.5 449,-58.5 419,-58.5"/>
<text text-anchor="middle" x="434" y="-66.5" font-family="FreeSans.ttf" font-size="10.00">list</text>
</g>
<!-- Node11&#45;&gt;Node14 -->
<g id="edge26" class="edge"><title>Node11&#45;&gt;Node14</title>
<path fill="none" stroke="midnightblue" d="M340.645,-116.497C360.142,-106.577 389.38,-91.7013 409.929,-81.2468"/>
<polygon fill="midnightblue" stroke="midnightblue" points="411.639,-84.3037 418.965,-76.6496 408.465,-78.0647 411.639,-84.3037"/>
</g>
<!-- Node15 -->
<g id="node30" class="node"><title>Node15</title>
<a xlink:href="socketserver_8h.xhtml" target="_top" xlink:title="The SocketServer class.">
<polygon fill="white" stroke="black" points="467,-58.5 467,-79.5 553,-79.5 553,-58.5 467,-58.5"/>
<text text-anchor="middle" x="510" y="-66.5" font-family="FreeSans.ttf" font-size="10.00">socketserver.h</text>
</a>
</g>
<!-- Node11&#45;&gt;Node15 -->
<g id="edge30" class="edge"><title>Node11&#45;&gt;Node15</title>
<path fill="none" stroke="midnightblue" d="M347.628,-118.566C378.579,-109.118 429.188,-93.669 465.684,-82.5279"/>
<polygon fill="midnightblue" stroke="midnightblue" points="467.034,-85.7756 475.576,-79.5084 464.99,-79.0805 467.034,-85.7756"/>
</g>
<!-- Node15&#45;&gt;Node10 -->
<g id="edge32" class="edge"><title>Node15&#45;&gt;Node10</title>
<path fill="none" stroke="midnightblue" d="M485.371,-58.4966C463.843,-49.3154 432.36,-35.8889 408.355,-25.6516"/>
<polygon fill="midnightblue" stroke="midnightblue" points="409.476,-22.3247 398.905,-21.6212 406.73,-28.7636 409.476,-22.3247"/>
</g>
</g>
</svg>
        <g id="navigator" transform="translate(0 0)" fill="#404254">
                <rect fill="#f2f5e9" fill-opacity="0.5" stroke="#606060" stroke-width=".5" x="0" y="0" width="60" height="60"/>
                <use id="zoomplus" xlink:href="#zoomPlus" x="17" y="9" onmousedown="handleZoom(evt,'in')"/>
                <use id="zoomminus" xlink:href="#zoomMin" x="42" y="9" onmousedown="handleZoom(evt,'out')"/>
                <use id="reset" xlink:href="#resetDef" x="30" y="36" onmousedown="handleReset()"/>
                <g id="arrowUp" xlink:href="#dirArrow" transform="translate(30 24)" onmousedown="handlePan(0,-1)">
                  <use xlink:href="#rim" fill="#404040">
                        <set attributeName="fill" to="#808080" begin="arrowUp.mouseover" end="arrowUp.mouseout"/>
                  </use>
                  <path fill="none" stroke="white" stroke-width="1.5" d="M0,-3.0v7 M-2.5,-0.5L0,-3.0L2.5,-0.5"/>
                </g>
                <g id="arrowRight" xlink:href="#dirArrow" transform="rotate(90) translate(36 -43)" onmousedown="handlePan(1,0)">
                  <use xlink:href="#rim" fill="#404040">
                        <set attributeName="fill" to="#808080" begin="arrowRight.mouseover" end="arrowRight.mouseout"/>
                  </use>
                  <path fill="none" stroke="white" stroke-width="1.5" d="M0,-3.0v7 M-2.5,-0.5L0,-3.0L2.5,-0.5"/>
                </g>
                <g id="arrowDown" xlink:href="#dirArrow" transform="rotate(180) translate(-30 -48)" onmousedown="handlePan(0,1)">
                  <use xlink:href="#rim" fill="#404040">
                        <set attributeName="fill" to="#808080" begin="arrowDown.mouseover" end="arrowDown.mouseout"/>
                  </use>
                  <path fill="none" stroke="white" stroke-width="1.5" d="M0,-3.0v7 M-2.5,-0.5L0,-3.0L2.5,-0.5"/>
                </g>
                <g id="arrowLeft" xlink:href="#dirArrow" transform="rotate(270) translate(-36 17)" onmousedown="handlePan(-1,0)">
                  <use xlink:href="#rim" fill="#404040">
                        <set attributeName="fill" to="#808080" begin="arrowLeft.mouseover" end="arrowLeft.mouseout"/>
                  </use>
                  <path fill="none" stroke="white" stroke-width="1.5" d="M0,-3.0v7 M-2.5,-0.5L0,-3.0L2.5,-0.5"/>
                </g>
        </g>
</svg>
