<?xml version="1.0" encoding="UTF-8" standalone="no"?>
<!DOCTYPE svg PUBLIC "-//W3C//DTD SVG 1.1//EN"
 "http://www.w3.org/Graphics/SVG/1.1/DTD/svg11.dtd">
<!-- Generated by graphviz version 2.26.3 (20100126.1600)
 -->
<!-- Title: exit.cpp Pages: 1 -->
<svg width="2040pt" height="204pt"
 viewBox="0.00 0.00 2040.00 204.00" xmlns="http://www.w3.org/2000/svg" xmlns:xlink="http://www.w3.org/1999/xlink">
<g id="graph1" class="graph" transform="scale(1 1) rotate(0) translate(4 200)">
<title>exit.cpp</title>
<polygon fill="white" stroke="white" points="-4,5 -4,-200 2037,-200 2037,5 -4,5"/>
<!-- Node1 -->
<g id="node1" class="node"><title>Node1</title>
<polygon fill="#bfbfbf" stroke="black" points="1696,-175 1696,-195 1750,-195 1750,-175 1696,-175"/>
<text text-anchor="middle" x="1723" y="-182" font-family="FreeSans.ttf" font-size="10.00">exit.cpp</text>
</g>
<!-- Node2 -->
<g id="node3" class="node"><title>Node2</title>
<a xlink:href="includes_8h.xhtml" target="_top" xlink:title="All non&#45;system includes that need to be within each .cpp file.">
<polygon fill="white" stroke="black" points="1646,-117 1646,-137 1720,-137 1720,-117 1646,-117"/>
<text text-anchor="middle" x="1683" y="-124" font-family="FreeSans.ttf" font-size="10.00">h/includes.h</text>
</a>
</g>
<!-- Node1&#45;&gt;Node2 -->
<g id="edge2" class="edge"><title>Node1&#45;&gt;Node2</title>
<path fill="none" stroke="midnightblue" d="M1716.03,-174.897C1710.48,-166.846 1702.55,-155.353 1695.86,-145.643"/>
<polygon fill="midnightblue" stroke="midnightblue" points="1698.72,-143.623 1690.16,-137.378 1692.95,-147.597 1698.72,-143.623"/>
</g>
<!-- Node40 -->
<g id="node79" class="node"><title>Node40</title>
<a xlink:href="exit_8h.xhtml" target="_top" xlink:title="The Exit class.">
<polygon fill="white" stroke="black" points="1738,-117 1738,-137 1790,-137 1790,-117 1738,-117"/>
<text text-anchor="middle" x="1764" y="-124" font-family="FreeSans.ttf" font-size="10.00">h/exit.h</text>
</a>
</g>
<!-- Node1&#45;&gt;Node40 -->
<g id="edge78" class="edge"><title>Node1&#45;&gt;Node40</title>
<path fill="none" stroke="midnightblue" d="M1730.14,-174.897C1735.83,-166.846 1743.96,-155.353 1750.82,-145.643"/>
<polygon fill="midnightblue" stroke="midnightblue" points="1753.75,-147.564 1756.66,-137.378 1748.03,-143.523 1753.75,-147.564"/>
</g>
<!-- Node3 -->
<g id="node5" class="node"><title>Node3</title>
<a xlink:href="sysincludes_8h.xhtml" target="_top" xlink:title="All system standard includes that are used within NAMS.">
<polygon fill="white" stroke="black" points="831,-59 831,-79 911,-79 911,-59 831,-59"/>
<text text-anchor="middle" x="871" y="-66" font-family="FreeSans.ttf" font-size="10.00">sysincludes.h</text>
</a>
</g>
<!-- Node2&#45;&gt;Node3 -->
<g id="edge4" class="edge"><title>Node2&#45;&gt;Node3</title>
<path fill="none" stroke="midnightblue" d="M1645.73,-124.338C1514.19,-114.942 1071.49,-83.321 921.32,-72.5943"/>
<polygon fill="midnightblue" stroke="midnightblue" points="921.245,-69.0801 911.021,-71.8586 920.746,-76.0623 921.245,-69.0801"/>
</g>
<!-- Node29 -->
<g id="node57" class="node"><title>Node29</title>
<a xlink:href="limits_8h.xhtml" target="_top" xlink:title="Custom defined numeric types and system limits.">
<polygon fill="white" stroke="black" points="1473.5,-59 1473.5,-79 1524.5,-79 1524.5,-59 1473.5,-59"/>
<text text-anchor="middle" x="1499" y="-66" font-family="FreeSans.ttf" font-size="10.00">limits.h</text>
</a>
</g>
<!-- Node2&#45;&gt;Node29 -->
<g id="edge56" class="edge"><title>Node2&#45;&gt;Node29</title>
<path fill="none" stroke="midnightblue" d="M1650.49,-116.91C1622.11,-108.079 1579.56,-94.7888 1534.31,-80.4"/>
<polygon fill="midnightblue" stroke="midnightblue" points="1535.2,-77.0125 1524.61,-77.3141 1533.08,-83.6826 1535.2,-77.0125"/>
</g>
<!-- Node30 -->
<g id="node59" class="node"><title>Node30</title>
<a xlink:href="macros_8h.xhtml" target="_top" xlink:title="All pre&#45;processor macros within NAMS and select reference values.">
<polygon fill="white" stroke="black" points="1542,-59 1542,-79 1604,-79 1604,-59 1542,-59"/>
<text text-anchor="middle" x="1573" y="-66" font-family="FreeSans.ttf" font-size="10.00">macros.h</text>
</a>
</g>
<!-- Node2&#45;&gt;Node30 -->
<g id="edge58" class="edge"><title>Node2&#45;&gt;Node30</title>
<path fill="none" stroke="midnightblue" d="M1663.84,-116.897C1646.59,-107.804 1621.02,-94.3218 1601.4,-83.9757"/>
<polygon fill="midnightblue" stroke="midnightblue" points="1602.79,-80.7498 1592.31,-79.1817 1599.52,-86.9418 1602.79,-80.7498"/>
</g>
<!-- Node31 -->
<g id="node61" class="node"><title>Node31</title>
<a xlink:href="enum_8h.xhtml" target="_top" xlink:title="All numerical and boolean defines for every class and namespace.">
<polygon fill="white" stroke="black" points="1621.5,-59 1621.5,-79 1674.5,-79 1674.5,-59 1621.5,-59"/>
<text text-anchor="middle" x="1648" y="-66" font-family="FreeSans.ttf" font-size="10.00">enum.h</text>
</a>
</g>
<!-- Node2&#45;&gt;Node31 -->
<g id="edge60" class="edge"><title>Node2&#45;&gt;Node31</title>
<path fill="none" stroke="midnightblue" d="M1676.9,-116.897C1672.09,-108.928 1665.25,-97.5874 1659.43,-87.9413"/>
<polygon fill="midnightblue" stroke="midnightblue" points="1662.43,-86.1311 1654.26,-79.3776 1656.43,-89.7478 1662.43,-86.1311"/>
</g>
<!-- Node32 -->
<g id="node63" class="node"><title>Node32</title>
<a xlink:href="config_8h.xhtml" target="_top" xlink:title="NAMS configuration options.">
<polygon fill="white" stroke="black" points="1692,-59 1692,-79 1746,-79 1746,-59 1692,-59"/>
<text text-anchor="middle" x="1719" y="-66" font-family="FreeSans.ttf" font-size="10.00">config.h</text>
</a>
</g>
<!-- Node2&#45;&gt;Node32 -->
<g id="edge62" class="edge"><title>Node2&#45;&gt;Node32</title>
<path fill="none" stroke="midnightblue" d="M1689.27,-116.897C1694.22,-108.928 1701.26,-97.5874 1707.24,-87.9413"/>
<polygon fill="midnightblue" stroke="midnightblue" points="1710.26,-89.7198 1712.56,-79.3776 1704.31,-86.0282 1710.26,-89.7198"/>
</g>
<!-- Node33 -->
<g id="node65" class="node"><title>Node33</title>
<a xlink:href="class_8h.xhtml" target="_top" xlink:title="All class declarations.">
<polygon fill="white" stroke="black" points="1764,-59 1764,-79 1814,-79 1814,-59 1764,-59"/>
<text text-anchor="middle" x="1789" y="-66" font-family="FreeSans.ttf" font-size="10.00">class.h</text>
</a>
</g>
<!-- Node2&#45;&gt;Node33 -->
<g id="edge64" class="edge"><title>Node2&#45;&gt;Node33</title>
<path fill="none" stroke="midnightblue" d="M1701.46,-116.897C1718.01,-107.846 1742.5,-94.4442 1761.37,-84.117"/>
<polygon fill="midnightblue" stroke="midnightblue" points="1763.3,-87.0522 1770.39,-79.1817 1759.94,-80.9114 1763.3,-87.0522"/>
</g>
<!-- Node34 -->
<g id="node67" class="node"><title>Node34</title>
<a xlink:href="namespace_8h.xhtml" target="_top" xlink:title="All namespace includes.">
<polygon fill="white" stroke="black" points="1832,-59 1832,-79 1914,-79 1914,-59 1832,-59"/>
<text text-anchor="middle" x="1873" y="-66" font-family="FreeSans.ttf" font-size="10.00">namespace.h</text>
</a>
</g>
<!-- Node2&#45;&gt;Node34 -->
<g id="edge66" class="edge"><title>Node2&#45;&gt;Node34</title>
<path fill="none" stroke="midnightblue" d="M1716.1,-116.897C1747.74,-107.238 1795.61,-92.6237 1830.15,-82.0792"/>
<polygon fill="midnightblue" stroke="midnightblue" points="1831.42,-85.3514 1839.97,-79.0842 1829.38,-78.6564 1831.42,-85.3514"/>
</g>
<!-- Node39 -->
<g id="node77" class="node"><title>Node39</title>
<a xlink:href="globals_8h.xhtml" target="_top" xlink:title="Externs to reference global scope variables.">
<polygon fill="white" stroke="black" points="1931.5,-59 1931.5,-79 1990.5,-79 1990.5,-59 1931.5,-59"/>
<text text-anchor="middle" x="1961" y="-66" font-family="FreeSans.ttf" font-size="10.00">globals.h</text>
</a>
</g>
<!-- Node2&#45;&gt;Node39 -->
<g id="edge76" class="edge"><title>Node2&#45;&gt;Node39</title>
<path fill="none" stroke="midnightblue" d="M1720.12,-117.951C1723.12,-117.272 1726.11,-116.614 1729,-116 1811.68,-98.4541 1835.93,-100.068 1921.33,-80.2473"/>
<polygon fill="midnightblue" stroke="midnightblue" points="1922.27,-83.6227 1931.2,-77.9256 1920.67,-76.8088 1922.27,-83.6227"/>
</g>
<!-- Node4 -->
<g id="node7" class="node"><title>Node4</title>
<polygon fill="white" stroke="#bfbfbf" points="0,-1 0,-21 62,-21 62,-1 0,-1"/>
<text text-anchor="middle" x="31" y="-8" font-family="FreeSans.ttf" font-size="10.00">algorithm</text>
</g>
<!-- Node3&#45;&gt;Node4 -->
<g id="edge6" class="edge"><title>Node3&#45;&gt;Node4</title>
<path fill="none" stroke="midnightblue" d="M830.841,-67.7553C692.998,-63.3127 238.922,-47.2253 72.3817,-21.8807"/>
<polygon fill="midnightblue" stroke="midnightblue" points="72.7306,-18.3922 62.3047,-20.2766 71.6301,-25.3052 72.7306,-18.3922"/>
</g>
<!-- Node5 -->
<g id="node9" class="node"><title>Node5</title>
<polygon fill="white" stroke="#bfbfbf" points="80,-1 80,-21 124,-21 124,-1 80,-1"/>
<text text-anchor="middle" x="102" y="-8" font-family="FreeSans.ttf" font-size="10.00">bitset</text>
</g>
<!-- Node3&#45;&gt;Node5 -->
<g id="edge8" class="edge"><title>Node3&#45;&gt;Node5</title>
<path fill="none" stroke="midnightblue" d="M830.678,-67.9032C699.851,-64.1196 287.306,-50.3659 134.272,-21.6868"/>
<polygon fill="midnightblue" stroke="midnightblue" points="134.629,-18.1899 124.141,-19.6862 133.273,-25.0573 134.629,-18.1899"/>
</g>
<!-- Node6 -->
<g id="node11" class="node"><title>Node6</title>
<polygon fill="white" stroke="#bfbfbf" points="142,-1 142,-21 192,-21 192,-1 142,-1"/>
<text text-anchor="middle" x="167" y="-8" font-family="FreeSans.ttf" font-size="10.00">chrono</text>
</g>
<!-- Node3&#45;&gt;Node6 -->
<g id="edge10" class="edge"><title>Node3&#45;&gt;Node6</title>
<path fill="none" stroke="midnightblue" d="M830.96,-67.4676C708.837,-62.5978 341.456,-46.4477 202.099,-21.734"/>
<polygon fill="midnightblue" stroke="midnightblue" points="202.545,-18.2568 192.072,-19.8625 201.26,-25.138 202.545,-18.2568"/>
</g>
<!-- Node7 -->
<g id="node13" class="node"><title>Node7</title>
<polygon fill="white" stroke="#bfbfbf" points="209.5,-1 209.5,-21 262.5,-21 262.5,-1 209.5,-1"/>
<text text-anchor="middle" x="236" y="-8" font-family="FreeSans.ttf" font-size="10.00">cstdarg</text>
</g>
<!-- Node3&#45;&gt;Node7 -->
<g id="edge12" class="edge"><title>Node3&#45;&gt;Node7</title>
<path fill="none" stroke="midnightblue" d="M830.694,-67.0348C717.436,-61.3289 397.015,-43.8795 272.611,-21.9042"/>
<polygon fill="midnightblue" stroke="midnightblue" points="273.064,-18.4286 262.593,-20.0403 271.784,-25.3105 273.064,-18.4286"/>
</g>
<!-- Node8 -->
<g id="node15" class="node"><title>Node8</title>
<polygon fill="white" stroke="#bfbfbf" points="279.5,-1 279.5,-21 324.5,-21 324.5,-1 279.5,-1"/>
<text text-anchor="middle" x="302" y="-8" font-family="FreeSans.ttf" font-size="10.00">cstdio</text>
</g>
<!-- Node3&#45;&gt;Node8 -->
<g id="edge14" class="edge"><title>Node3&#45;&gt;Node8</title>
<path fill="none" stroke="midnightblue" d="M830.621,-66.8034C725.749,-60.8925 445.71,-43.7454 334.724,-21.8919"/>
<polygon fill="midnightblue" stroke="midnightblue" points="335.338,-18.4447 324.834,-19.8316 333.91,-25.2976 335.338,-18.4447"/>
</g>
<!-- Node9 -->
<g id="node17" class="node"><title>Node9</title>
<polygon fill="white" stroke="#bfbfbf" points="341.5,-1 341.5,-21 388.5,-21 388.5,-1 341.5,-1"/>
<text text-anchor="middle" x="365" y="-8" font-family="FreeSans.ttf" font-size="10.00">deque</text>
</g>
<!-- Node3&#45;&gt;Node9 -->
<g id="edge16" class="edge"><title>Node3&#45;&gt;Node9</title>
<path fill="none" stroke="midnightblue" d="M830.873,-68.1533C750.191,-65.781 562.664,-56.8871 398.38,-21.9148"/>
<polygon fill="midnightblue" stroke="midnightblue" points="399.105,-18.4908 388.591,-19.7936 397.623,-25.332 399.105,-18.4908"/>
</g>
<!-- Node10 -->
<g id="node19" class="node"><title>Node10</title>
<polygon fill="white" stroke="#bfbfbf" points="405.5,-1 405.5,-21 476.5,-21 476.5,-1 405.5,-1"/>
<text text-anchor="middle" x="441" y="-8" font-family="FreeSans.ttf" font-size="10.00">forward_list</text>
</g>
<!-- Node3&#45;&gt;Node10 -->
<g id="edge18" class="edge"><title>Node3&#45;&gt;Node10</title>
<path fill="none" stroke="midnightblue" d="M830.742,-65.7523C762.056,-59.8529 617.7,-45.8993 487.115,-22.2389"/>
<polygon fill="midnightblue" stroke="midnightblue" points="487.407,-18.7339 476.939,-20.3699 486.142,-25.6188 487.407,-18.7339"/>
</g>
<!-- Node11 -->
<g id="node21" class="node"><title>Node11</title>
<polygon fill="white" stroke="#bfbfbf" points="494,-1 494,-21 548,-21 548,-1 494,-1"/>
<text text-anchor="middle" x="521" y="-8" font-family="FreeSans.ttf" font-size="10.00">fstream</text>
</g>
<!-- Node3&#45;&gt;Node11 -->
<g id="edge20" class="edge"><title>Node3&#45;&gt;Node11</title>
<path fill="none" stroke="midnightblue" d="M830.995,-64.9321C772.859,-58.6027 661.545,-44.9129 558.005,-21.9717"/>
<polygon fill="midnightblue" stroke="midnightblue" points="558.536,-18.5036 548.012,-19.7226 556.999,-25.3328 558.536,-18.5036"/>
</g>
<!-- Node12 -->
<g id="node23" class="node"><title>Node12</title>
<polygon fill="white" stroke="#bfbfbf" points="565.5,-1 565.5,-21 624.5,-21 624.5,-1 565.5,-1"/>
<text text-anchor="middle" x="595" y="-8" font-family="FreeSans.ttf" font-size="10.00">iostream</text>
</g>
<!-- Node3&#45;&gt;Node12 -->
<g id="edge22" class="edge"><title>Node3&#45;&gt;Node12</title>
<path fill="none" stroke="midnightblue" d="M830.763,-62.154C785.292,-54.1751 708.885,-40.0387 634.771,-22.3033"/>
<polygon fill="midnightblue" stroke="midnightblue" points="635.348,-18.8419 624.805,-19.8929 633.702,-25.6457 635.348,-18.8419"/>
</g>
<!-- Node13 -->
<g id="node25" class="node"><title>Node13</title>
<polygon fill="white" stroke="#bfbfbf" points="642,-1 642,-21 694,-21 694,-1 642,-1"/>
<text text-anchor="middle" x="668" y="-8" font-family="FreeSans.ttf" font-size="10.00">iterator</text>
</g>
<!-- Node3&#45;&gt;Node13 -->
<g id="edge24" class="edge"><title>Node3&#45;&gt;Node13</title>
<path fill="none" stroke="midnightblue" d="M833.868,-58.9753C801.826,-50.2439 754.077,-37.0404 704.044,-22.2559"/>
<polygon fill="midnightblue" stroke="midnightblue" points="704.928,-18.8675 694.346,-19.3785 702.937,-25.5783 704.928,-18.8675"/>
</g>
<!-- Node14 -->
<g id="node27" class="node"><title>Node14</title>
<polygon fill="white" stroke="#bfbfbf" points="712,-1 712,-21 754,-21 754,-1 712,-1"/>
<text text-anchor="middle" x="733" y="-8" font-family="FreeSans.ttf" font-size="10.00">limits</text>
</g>
<!-- Node3&#45;&gt;Node14 -->
<g id="edge26" class="edge"><title>Node3&#45;&gt;Node14</title>
<path fill="none" stroke="midnightblue" d="M846.962,-58.8972C823.783,-49.1554 788.615,-34.3743 763.48,-23.8106"/>
<polygon fill="midnightblue" stroke="midnightblue" points="764.628,-20.4964 754.053,-19.8484 761.916,-26.9497 764.628,-20.4964"/>
</g>
<!-- Node15 -->
<g id="node29" class="node"><title>Node15</title>
<polygon fill="white" stroke="#bfbfbf" points="772,-1 772,-21 802,-21 802,-1 772,-1"/>
<text text-anchor="middle" x="787" y="-8" font-family="FreeSans.ttf" font-size="10.00">list</text>
</g>
<!-- Node3&#45;&gt;Node15 -->
<g id="edge28" class="edge"><title>Node3&#45;&gt;Node15</title>
<path fill="none" stroke="midnightblue" d="M856.368,-58.8972C843.678,-50.1351 825.085,-37.2965 810.341,-27.1164"/>
<polygon fill="midnightblue" stroke="midnightblue" points="811.964,-23.9835 801.746,-21.1817 807.986,-29.7438 811.964,-23.9835"/>
</g>
<!-- Node16 -->
<g id="node31" class="node"><title>Node16</title>
<polygon fill="white" stroke="#bfbfbf" points="820,-1 820,-21 858,-21 858,-1 820,-1"/>
<text text-anchor="middle" x="839" y="-8" font-family="FreeSans.ttf" font-size="10.00">map</text>
</g>
<!-- Node3&#45;&gt;Node16 -->
<g id="edge30" class="edge"><title>Node3&#45;&gt;Node16</title>
<path fill="none" stroke="midnightblue" d="M865.426,-58.8972C861.075,-51.0104 854.901,-39.8209 849.615,-30.2401"/>
<polygon fill="midnightblue" stroke="midnightblue" points="852.621,-28.4426 844.726,-21.3776 846.492,-31.8242 852.621,-28.4426"/>
</g>
<!-- Node17 -->
<g id="node33" class="node"><title>Node17</title>
<polygon fill="white" stroke="#bfbfbf" points="876,-1 876,-21 932,-21 932,-1 876,-1"/>
<text text-anchor="middle" x="904" y="-8" font-family="FreeSans.ttf" font-size="10.00">sstream</text>
</g>
<!-- Node3&#45;&gt;Node17 -->
<g id="edge32" class="edge"><title>Node3&#45;&gt;Node17</title>
<path fill="none" stroke="midnightblue" d="M876.748,-58.8972C881.235,-51.0104 887.602,-39.8209 893.053,-30.2401"/>
<polygon fill="midnightblue" stroke="midnightblue" points="896.192,-31.8001 898.096,-21.3776 890.108,-28.3384 896.192,-31.8001"/>
</g>
<!-- Node18 -->
<g id="node35" class="node"><title>Node18</title>
<polygon fill="white" stroke="#bfbfbf" points="949.5,-1 949.5,-21 996.5,-21 996.5,-1 949.5,-1"/>
<text text-anchor="middle" x="973" y="-8" font-family="FreeSans.ttf" font-size="10.00">vector</text>
</g>
<!-- Node3&#45;&gt;Node18 -->
<g id="edge34" class="edge"><title>Node3&#45;&gt;Node18</title>
<path fill="none" stroke="midnightblue" d="M888.767,-58.8972C904.612,-49.8871 928.038,-36.5665 946.166,-26.2586"/>
<polygon fill="midnightblue" stroke="midnightblue" points="948.131,-29.1673 955.094,-21.1817 944.671,-23.0822 948.131,-29.1673"/>
</g>
<!-- Node19 -->
<g id="node37" class="node"><title>Node19</title>
<polygon fill="white" stroke="#bfbfbf" points="1014,-1 1014,-21 1082,-21 1082,-1 1014,-1"/>
<text text-anchor="middle" x="1048" y="-8" font-family="FreeSans.ttf" font-size="10.00">arpa/inet.h</text>
</g>
<!-- Node3&#45;&gt;Node19 -->
<g id="edge36" class="edge"><title>Node3&#45;&gt;Node19</title>
<path fill="none" stroke="midnightblue" d="M901.831,-58.8972C931.183,-49.2791 975.525,-34.749 1007.67,-24.2152"/>
<polygon fill="midnightblue" stroke="midnightblue" points="1008.81,-27.5242 1017.23,-21.0842 1006.63,-20.8722 1008.81,-27.5242"/>
</g>
<!-- Node20 -->
<g id="node39" class="node"><title>Node20</title>
<polygon fill="white" stroke="#bfbfbf" points="1100,-1 1100,-21 1178,-21 1178,-1 1100,-1"/>
<text text-anchor="middle" x="1139" y="-8" font-family="FreeSans.ttf" font-size="10.00">arpa/telnet.h</text>
</g>
<!-- Node3&#45;&gt;Node20 -->
<g id="edge38" class="edge"><title>Node3&#45;&gt;Node20</title>
<path fill="none" stroke="midnightblue" d="M911.184,-60.6017C953.25,-51.7684 1021.5,-37.322 1089.89,-22.2249"/>
<polygon fill="midnightblue" stroke="midnightblue" points="1090.97,-25.5705 1099.98,-19.9933 1089.46,-18.7357 1090.97,-25.5705"/>
</g>
<!-- Node21 -->
<g id="node41" class="node"><title>Node21</title>
<polygon fill="white" stroke="#bfbfbf" points="1195.5,-1 1195.5,-21 1248.5,-21 1248.5,-1 1195.5,-1"/>
<text text-anchor="middle" x="1222" y="-8" font-family="FreeSans.ttf" font-size="10.00">dirent.h</text>
</g>
<!-- Node3&#45;&gt;Node21 -->
<g id="edge40" class="edge"><title>Node3&#45;&gt;Node21</title>
<path fill="none" stroke="midnightblue" d="M911.283,-65.0561C969.82,-58.8799 1081.88,-45.3821 1185.38,-22.1255"/>
<polygon fill="midnightblue" stroke="midnightblue" points="1186.4,-25.4833 1195.37,-19.8444 1184.84,-18.6591 1186.4,-25.4833"/>
</g>
<!-- Node22 -->
<g id="node43" class="node"><title>Node22</title>
<polygon fill="white" stroke="#bfbfbf" points="1266,-1 1266,-21 1314,-21 1314,-1 1266,-1"/>
<text text-anchor="middle" x="1290" y="-8" font-family="FreeSans.ttf" font-size="10.00">dlfcn.h</text>
</g>
<!-- Node3&#45;&gt;Node22 -->
<g id="edge42" class="edge"><title>Node3&#45;&gt;Node22</title>
<path fill="none" stroke="midnightblue" d="M911.182,-66.7682C980.126,-62.3652 1125.37,-50.583 1255.88,-21.9085"/>
<polygon fill="midnightblue" stroke="midnightblue" points="1256.65,-25.322 1265.65,-19.7239 1255.12,-18.4908 1256.65,-25.322"/>
</g>
<!-- Node23 -->
<g id="node45" class="node"><title>Node23</title>
<polygon fill="white" stroke="#bfbfbf" points="1331.5,-1 1331.5,-21 1382.5,-21 1382.5,-1 1331.5,-1"/>
<text text-anchor="middle" x="1357" y="-8" font-family="FreeSans.ttf" font-size="10.00">errno.h</text>
</g>
<!-- Node3&#45;&gt;Node23 -->
<g id="edge44" class="edge"><title>Node3&#45;&gt;Node23</title>
<path fill="none" stroke="midnightblue" d="M911.037,-67.6462C988.715,-64.4176 1165.26,-54.1405 1320.94,-22.1167"/>
<polygon fill="midnightblue" stroke="midnightblue" points="1322.09,-25.4512 1331.16,-19.9757 1320.66,-18.5999 1322.09,-25.4512"/>
</g>
<!-- Node24 -->
<g id="node47" class="node"><title>Node24</title>
<polygon fill="white" stroke="#bfbfbf" points="1400,-1 1400,-21 1446,-21 1446,-1 1400,-1"/>
<text text-anchor="middle" x="1423" y="-8" font-family="FreeSans.ttf" font-size="10.00">fcntl.h</text>
</g>
<!-- Node3&#45;&gt;Node24 -->
<g id="edge46" class="edge"><title>Node3&#45;&gt;Node24</title>
<path fill="none" stroke="midnightblue" d="M911.158,-66.6259C1013.28,-60.3943 1281.86,-42.7412 1389.83,-21.7534"/>
<polygon fill="midnightblue" stroke="midnightblue" points="1390.67,-25.153 1399.77,-19.7122 1389.27,-18.2962 1390.67,-25.153"/>
</g>
<!-- Node25 -->
<g id="node49" class="node"><title>Node25</title>
<polygon fill="white" stroke="#bfbfbf" points="1463.5,-1 1463.5,-21 1528.5,-21 1528.5,-1 1463.5,-1"/>
<text text-anchor="middle" x="1496" y="-8" font-family="FreeSans.ttf" font-size="10.00">memory.h</text>
</g>
<!-- Node3&#45;&gt;Node25 -->
<g id="edge48" class="edge"><title>Node3&#45;&gt;Node25</title>
<path fill="none" stroke="midnightblue" d="M911.32,-68.273C1005.1,-66.0448 1245.13,-57.2448 1453.55,-22.005"/>
<polygon fill="midnightblue" stroke="midnightblue" points="1454.18,-25.4472 1463.45,-20.3068 1453,-18.5479 1454.18,-25.4472"/>
</g>
<!-- Node26 -->
<g id="node51" class="node"><title>Node26</title>
<polygon fill="white" stroke="#bfbfbf" points="1545.5,-1 1545.5,-21 1598.5,-21 1598.5,-1 1545.5,-1"/>
<text text-anchor="middle" x="1572" y="-8" font-family="FreeSans.ttf" font-size="10.00">netdb.h</text>
</g>
<!-- Node3&#45;&gt;Node26 -->
<g id="edge50" class="edge"><title>Node3&#45;&gt;Node26</title>
<path fill="none" stroke="midnightblue" d="M911.232,-67.3967C1033.04,-62.3522 1397.47,-45.8166 1535.48,-21.8735"/>
<polygon fill="midnightblue" stroke="midnightblue" points="1536.2,-25.3002 1545.41,-20.0622 1534.95,-18.4138 1536.2,-25.3002"/>
</g>
<!-- Node27 -->
<g id="node53" class="node"><title>Node27</title>
<polygon fill="white" stroke="#bfbfbf" points="1615.5,-1 1615.5,-21 1678.5,-21 1678.5,-1 1615.5,-1"/>
<text text-anchor="middle" x="1647" y="-8" font-family="FreeSans.ttf" font-size="10.00">sys/stat.h</text>
</g>
<!-- Node3&#45;&gt;Node27 -->
<g id="edge52" class="edge"><title>Node3&#45;&gt;Node27</title>
<path fill="none" stroke="midnightblue" d="M911.142,-67.5203C1041.4,-62.5531 1452.23,-45.5411 1605.13,-21.994"/>
<polygon fill="midnightblue" stroke="midnightblue" points="1605.94,-25.4087 1615.25,-20.3606 1604.82,-18.4981 1605.94,-25.4087"/>
</g>
<!-- Node28 -->
<g id="node55" class="node"><title>Node28</title>
<polygon fill="white" stroke="#bfbfbf" points="1695.5,-1 1695.5,-21 1750.5,-21 1750.5,-1 1695.5,-1"/>
<text text-anchor="middle" x="1723" y="-8" font-family="FreeSans.ttf" font-size="10.00">unistd.h</text>
</g>
<!-- Node3&#45;&gt;Node28 -->
<g id="edge54" class="edge"><title>Node3&#45;&gt;Node28</title>
<path fill="none" stroke="midnightblue" d="M911.492,-67.9479C1051.65,-64.1106 1516.32,-49.7083 1685.27,-21.9156"/>
<polygon fill="midnightblue" stroke="midnightblue" points="1685.99,-25.3434 1695.25,-20.1955 1684.8,-18.4451 1685.99,-25.3434"/>
</g>
<!-- Node35 -->
<g id="node69" class="node"><title>Node35</title>
<a xlink:href="handler_8h.xhtml" target="_top" xlink:title="The Handler namespace.">
<polygon fill="white" stroke="black" points="1767.5,-1 1767.5,-21 1828.5,-21 1828.5,-1 1767.5,-1"/>
<text text-anchor="middle" x="1798" y="-8" font-family="FreeSans.ttf" font-size="10.00">handler.h</text>
</a>
</g>
<!-- Node34&#45;&gt;Node35 -->
<g id="edge68" class="edge"><title>Node34&#45;&gt;Node35</title>
<path fill="none" stroke="midnightblue" d="M1859.94,-58.8972C1848.71,-50.2178 1832.32,-37.5384 1819.21,-27.4053"/>
<polygon fill="midnightblue" stroke="midnightblue" points="1821.22,-24.5305 1811.17,-21.1817 1816.94,-30.0679 1821.22,-24.5305"/>
</g>
<!-- Node36 -->
<g id="node71" class="node"><title>Node36</title>
<a xlink:href="server_8h.xhtml" target="_top" xlink:title="The Server namespace.">
<polygon fill="white" stroke="black" points="1845.5,-1 1845.5,-21 1900.5,-21 1900.5,-1 1845.5,-1"/>
<text text-anchor="middle" x="1873" y="-8" font-family="FreeSans.ttf" font-size="10.00">server.h</text>
</a>
</g>
<!-- Node34&#45;&gt;Node36 -->
<g id="edge70" class="edge"><title>Node34&#45;&gt;Node36</title>
<path fill="none" stroke="midnightblue" d="M1873,-58.8972C1873,-51.339 1873,-40.7476 1873,-31.4458"/>
<polygon fill="midnightblue" stroke="midnightblue" points="1876.5,-31.3776 1873,-21.3776 1869.5,-31.3776 1876.5,-31.3776"/>
</g>
<!-- Node37 -->
<g id="node73" class="node"><title>Node37</title>
<a xlink:href="telopt_8h.xhtml" target="_top" xlink:title="The telopt namespace.">
<polygon fill="white" stroke="black" points="1917.5,-1 1917.5,-21 1970.5,-21 1970.5,-1 1917.5,-1"/>
<text text-anchor="middle" x="1944" y="-8" font-family="FreeSans.ttf" font-size="10.00">telopt.h</text>
</a>
</g>
<!-- Node34&#45;&gt;Node37 -->
<g id="edge72" class="edge"><title>Node34&#45;&gt;Node37</title>
<path fill="none" stroke="midnightblue" d="M1885.37,-58.8972C1895.83,-50.3532 1911.03,-37.933 1923.33,-27.8813"/>
<polygon fill="midnightblue" stroke="midnightblue" points="1925.77,-30.4146 1931.3,-21.3776 1921.34,-24.9935 1925.77,-30.4146"/>
</g>
<!-- Node38 -->
<g id="node75" class="node"><title>Node38</title>
<a xlink:href="utils_8h.xhtml" target="_top" xlink:title="The Utils namespace.">
<polygon fill="white" stroke="black" points="1987.5,-1 1987.5,-21 2032.5,-21 2032.5,-1 1987.5,-1"/>
<text text-anchor="middle" x="2010" y="-8" font-family="FreeSans.ttf" font-size="10.00">utils.h</text>
</a>
</g>
<!-- Node34&#45;&gt;Node38 -->
<g id="edge74" class="edge"><title>Node34&#45;&gt;Node38</title>
<path fill="none" stroke="midnightblue" d="M1896.86,-58.8972C1919.33,-49.3846 1953.15,-35.0671 1977.96,-24.5632"/>
<polygon fill="midnightblue" stroke="midnightblue" points="1979.48,-27.7236 1987.32,-20.6019 1976.75,-21.2775 1979.48,-27.7236"/>
</g>
</g>
</svg>
