<?xml version="1.0" encoding="UTF-8" standalone="no"?>
<!DOCTYPE svg PUBLIC "-//W3C//DTD SVG 1.1//EN"
 "http://www.w3.org/Graphics/SVG/1.1/DTD/svg11.dtd">
<!-- Generated by graphviz version 2.26.3 (20100126.1600)
 -->
<!-- Title: handler.cpp Pages: 1 -->
<svg width="2730pt" height="204pt"
 viewBox="0.00 0.00 2730.00 204.00" xmlns="http://www.w3.org/2000/svg" xmlns:xlink="http://www.w3.org/1999/xlink">
<g id="graph1" class="graph" transform="scale(1 1) rotate(0) translate(4 200)">
<title>handler.cpp</title>
<polygon fill="white" stroke="white" points="-4,5 -4,-200 2727,-200 2727,5 -4,5"/>
<!-- Node1 -->
<g id="node1" class="node"><title>Node1</title>
<polygon fill="#bfbfbf" stroke="black" points="2274,-175 2274,-195 2346,-195 2346,-175 2274,-175"/>
<text text-anchor="middle" x="2310" y="-182" font-family="FreeSans.ttf" font-size="10.00">handler.cpp</text>
</g>
<!-- Node2 -->
<g id="node3" class="node"><title>Node2</title>
<a xlink:href="includes_8h.xhtml" target="_top" xlink:title="All non&#45;system includes that need to be within each .cpp file.">
<polygon fill="white" stroke="black" points="1672,-117 1672,-137 1746,-137 1746,-117 1672,-117"/>
<text text-anchor="middle" x="1709" y="-124" font-family="FreeSans.ttf" font-size="10.00">h/includes.h</text>
</a>
</g>
<!-- Node1&#45;&gt;Node2 -->
<g id="edge2" class="edge"><title>Node1&#45;&gt;Node2</title>
<path fill="none" stroke="midnightblue" d="M2273.76,-181.502C2170.05,-171.494 1872.1,-142.74 1756.05,-131.541"/>
<polygon fill="midnightblue" stroke="midnightblue" points="1756.34,-128.053 1746.05,-130.576 1755.67,-135.02 1756.34,-128.053"/>
</g>
<!-- Node35 -->
<g id="node69" class="node"><title>Node35</title>
<a xlink:href="handler_8h.xhtml" target="_top" xlink:title="The Handler namespace.">
<polygon fill="white" stroke="black" points="1975.5,-1 1975.5,-21 2036.5,-21 2036.5,-1 1975.5,-1"/>
<text text-anchor="middle" x="2006" y="-8" font-family="FreeSans.ttf" font-size="10.00">handler.h</text>
</a>
</g>
<!-- Node1&#45;&gt;Node35 -->
<g id="edge78" class="edge"><title>Node1&#45;&gt;Node35</title>
<path fill="none" stroke="midnightblue" d="M2273.99,-184.068C2205.69,-181.519 2061.1,-172.129 2027,-138 1998.95,-109.935 1999.71,-59.7148 2002.81,-31.5676"/>
<polygon fill="midnightblue" stroke="midnightblue" points="2006.32,-31.676 2004.15,-21.3061 1999.38,-30.7668 2006.32,-31.676"/>
</g>
<!-- Node40 -->
<g id="node80" class="node"><title>Node40</title>
<a xlink:href="account_8h.xhtml" target="_top" xlink:title="The Account class.">
<polygon fill="white" stroke="black" points="2035.5,-117 2035.5,-137 2108.5,-137 2108.5,-117 2035.5,-117"/>
<text text-anchor="middle" x="2072" y="-124" font-family="FreeSans.ttf" font-size="10.00">h/account.h</text>
</a>
</g>
<!-- Node1&#45;&gt;Node40 -->
<g id="edge80" class="edge"><title>Node1&#45;&gt;Node40</title>
<path fill="none" stroke="midnightblue" d="M2273.72,-176.174C2236.97,-167.233 2178.22,-152.933 2118.77,-138.43"/>
<polygon fill="midnightblue" stroke="midnightblue" points="2119.38,-134.977 2108.84,-136.007 2117.72,-141.778 2119.38,-134.977"/>
</g>
<!-- Node41 -->
<g id="node82" class="node"><title>Node41</title>
<a xlink:href="character_8h.xhtml" target="_top" xlink:title="The Character class.">
<polygon fill="white" stroke="black" points="2126,-117 2126,-137 2206,-137 2206,-117 2126,-117"/>
<text text-anchor="middle" x="2166" y="-124" font-family="FreeSans.ttf" font-size="10.00">h/character.h</text>
</a>
</g>
<!-- Node1&#45;&gt;Node41 -->
<g id="edge82" class="edge"><title>Node1&#45;&gt;Node41</title>
<path fill="none" stroke="midnightblue" d="M2284.92,-174.897C2261.62,-165.515 2226.73,-151.459 2200.75,-140.998"/>
<polygon fill="midnightblue" stroke="midnightblue" points="2201.86,-137.671 2191.28,-137.182 2199.25,-144.164 2201.86,-137.671"/>
</g>
<!-- Node43 -->
<g id="node86" class="node"><title>Node43</title>
<a xlink:href="command_8h.xhtml" target="_top" xlink:title="The Command class.">
<polygon fill="white" stroke="black" points="2223.5,-117 2223.5,-137 2306.5,-137 2306.5,-117 2223.5,-117"/>
<text text-anchor="middle" x="2265" y="-124" font-family="FreeSans.ttf" font-size="10.00">h/command.h</text>
</a>
</g>
<!-- Node1&#45;&gt;Node43 -->
<g id="edge86" class="edge"><title>Node1&#45;&gt;Node43</title>
<path fill="none" stroke="midnightblue" d="M2302.16,-174.897C2295.85,-166.764 2286.82,-155.118 2279.23,-145.347"/>
<polygon fill="midnightblue" stroke="midnightblue" points="2281.95,-143.133 2273.05,-137.378 2276.42,-147.424 2281.95,-143.133"/>
</g>
<!-- Node44 -->
<g id="node88" class="node"><title>Node44</title>
<a xlink:href="event_8h.xhtml" target="_top" xlink:title="The Event class.">
<polygon fill="white" stroke="black" points="2324,-117 2324,-137 2386,-137 2386,-117 2324,-117"/>
<text text-anchor="middle" x="2355" y="-124" font-family="FreeSans.ttf" font-size="10.00">h/event.h</text>
</a>
</g>
<!-- Node1&#45;&gt;Node44 -->
<g id="edge88" class="edge"><title>Node1&#45;&gt;Node44</title>
<path fill="none" stroke="midnightblue" d="M2317.84,-174.897C2324.15,-166.764 2333.18,-155.118 2340.77,-145.347"/>
<polygon fill="midnightblue" stroke="midnightblue" points="2343.58,-147.424 2346.95,-137.378 2338.05,-143.133 2343.58,-147.424"/>
</g>
<!-- Node45 -->
<g id="node90" class="node"><title>Node45</title>
<a xlink:href="exit_8h.xhtml" target="_top" xlink:title="The Exit class.">
<polygon fill="white" stroke="black" points="2404,-117 2404,-137 2456,-137 2456,-117 2404,-117"/>
<text text-anchor="middle" x="2430" y="-124" font-family="FreeSans.ttf" font-size="10.00">h/exit.h</text>
</a>
</g>
<!-- Node1&#45;&gt;Node45 -->
<g id="edge90" class="edge"><title>Node1&#45;&gt;Node45</title>
<path fill="none" stroke="midnightblue" d="M2330.9,-174.897C2349.97,-165.68 2378.37,-151.953 2399.89,-141.554"/>
<polygon fill="midnightblue" stroke="midnightblue" points="2401.45,-144.685 2408.93,-137.182 2398.41,-138.382 2401.45,-144.685"/>
</g>
<!-- Node46 -->
<g id="node92" class="node"><title>Node46</title>
<a xlink:href="list_8h.xhtml" target="_top" xlink:title="All globally referenced list / map / vector types.">
<polygon fill="white" stroke="black" points="2474,-117 2474,-137 2522,-137 2522,-117 2474,-117"/>
<text text-anchor="middle" x="2498" y="-124" font-family="FreeSans.ttf" font-size="10.00">h/list.h</text>
</a>
</g>
<!-- Node1&#45;&gt;Node46 -->
<g id="edge92" class="edge"><title>Node1&#45;&gt;Node46</title>
<path fill="none" stroke="midnightblue" d="M2343.95,-174.997C2373.38,-166.26 2417.34,-153.057 2464.16,-138.216"/>
<polygon fill="midnightblue" stroke="midnightblue" points="2465.41,-141.493 2473.87,-135.126 2463.28,-134.822 2465.41,-141.493"/>
</g>
<!-- Node47 -->
<g id="node94" class="node"><title>Node47</title>
<a xlink:href="location_8h.xhtml" target="_top" xlink:title="The Location class.">
<polygon fill="white" stroke="black" points="2540,-117 2540,-137 2612,-137 2612,-117 2540,-117"/>
<text text-anchor="middle" x="2576" y="-124" font-family="FreeSans.ttf" font-size="10.00">h/location.h</text>
</a>
</g>
<!-- Node1&#45;&gt;Node47 -->
<g id="edge94" class="edge"><title>Node1&#45;&gt;Node47</title>
<path fill="none" stroke="midnightblue" d="M2346.06,-177.681C2387.9,-169.11 2459.22,-154.265 2529.73,-138.247"/>
<polygon fill="midnightblue" stroke="midnightblue" points="2530.7,-141.616 2539.67,-135.98 2529.15,-134.791 2530.7,-141.616"/>
</g>
<!-- Node48 -->
<g id="node97" class="node"><title>Node48</title>
<a xlink:href="socketclient_8h.xhtml" target="_top" xlink:title="The SocketClient class.">
<polygon fill="white" stroke="black" points="2630,-117 2630,-137 2722,-137 2722,-117 2630,-117"/>
<text text-anchor="middle" x="2676" y="-124" font-family="FreeSans.ttf" font-size="10.00">h/socketclient.h</text>
</a>
</g>
<!-- Node1&#45;&gt;Node48 -->
<g id="edge98" class="edge"><title>Node1&#45;&gt;Node48</title>
<path fill="none" stroke="midnightblue" d="M2346.01,-180.124C2402.22,-172.388 2514.47,-156.448 2619.66,-138.177"/>
<polygon fill="midnightblue" stroke="midnightblue" points="2620.57,-141.572 2629.82,-136.402 2619.36,-134.676 2620.57,-141.572"/>
</g>
<!-- Node3 -->
<g id="node5" class="node"><title>Node3</title>
<a xlink:href="sysincludes_8h.xhtml" target="_top" xlink:title="All system standard includes that are used within NAMS.">
<polygon fill="white" stroke="black" points="831,-59 831,-79 911,-79 911,-59 831,-59"/>
<text text-anchor="middle" x="871" y="-66" font-family="FreeSans.ttf" font-size="10.00">sysincludes.h</text>
</a>
</g>
<!-- Node2&#45;&gt;Node3 -->
<g id="edge4" class="edge"><title>Node2&#45;&gt;Node3</title>
<path fill="none" stroke="midnightblue" d="M1671.91,-124.433C1537.37,-115.121 1074.87,-83.1106 921.137,-72.4701"/>
<polygon fill="midnightblue" stroke="midnightblue" points="921.254,-68.9699 911.036,-71.771 920.77,-75.9532 921.254,-68.9699"/>
</g>
<!-- Node29 -->
<g id="node57" class="node"><title>Node29</title>
<a xlink:href="limits_8h.xhtml" target="_top" xlink:title="Custom defined numeric types and system limits.">
<polygon fill="white" stroke="black" points="1463.5,-59 1463.5,-79 1514.5,-79 1514.5,-59 1463.5,-59"/>
<text text-anchor="middle" x="1489" y="-66" font-family="FreeSans.ttf" font-size="10.00">limits.h</text>
</a>
</g>
<!-- Node2&#45;&gt;Node29 -->
<g id="edge56" class="edge"><title>Node2&#45;&gt;Node29</title>
<path fill="none" stroke="midnightblue" d="M1671.75,-118.346C1636.13,-109.901 1580.69,-96.3255 1524.35,-80.2783"/>
<polygon fill="midnightblue" stroke="midnightblue" points="1525.14,-76.8647 1514.56,-77.4689 1523.21,-83.5929 1525.14,-76.8647"/>
</g>
<!-- Node30 -->
<g id="node59" class="node"><title>Node30</title>
<a xlink:href="macros_8h.xhtml" target="_top" xlink:title="All pre&#45;processor macros within NAMS and select reference values.">
<polygon fill="white" stroke="black" points="1532,-59 1532,-79 1594,-79 1594,-59 1532,-59"/>
<text text-anchor="middle" x="1563" y="-66" font-family="FreeSans.ttf" font-size="10.00">macros.h</text>
</a>
</g>
<!-- Node2&#45;&gt;Node30 -->
<g id="edge58" class="edge"><title>Node2&#45;&gt;Node30</title>
<path fill="none" stroke="midnightblue" d="M1683.57,-116.897C1659.95,-107.515 1624.57,-93.4593 1598.24,-82.9979"/>
<polygon fill="midnightblue" stroke="midnightblue" points="1599.22,-79.6209 1588.63,-79.1817 1596.63,-86.1264 1599.22,-79.6209"/>
</g>
<!-- Node31 -->
<g id="node61" class="node"><title>Node31</title>
<a xlink:href="enum_8h.xhtml" target="_top" xlink:title="All numerical and boolean defines for every class and namespace.">
<polygon fill="white" stroke="black" points="1611.5,-59 1611.5,-79 1664.5,-79 1664.5,-59 1611.5,-59"/>
<text text-anchor="middle" x="1638" y="-66" font-family="FreeSans.ttf" font-size="10.00">enum.h</text>
</a>
</g>
<!-- Node2&#45;&gt;Node31 -->
<g id="edge60" class="edge"><title>Node2&#45;&gt;Node31</title>
<path fill="none" stroke="midnightblue" d="M1696.63,-116.897C1686.17,-108.353 1670.97,-95.933 1658.67,-85.8813"/>
<polygon fill="midnightblue" stroke="midnightblue" points="1660.66,-82.9935 1650.7,-79.3776 1656.23,-88.4146 1660.66,-82.9935"/>
</g>
<!-- Node32 -->
<g id="node63" class="node"><title>Node32</title>
<a xlink:href="config_8h.xhtml" target="_top" xlink:title="NAMS configuration options.">
<polygon fill="white" stroke="black" points="1682,-59 1682,-79 1736,-79 1736,-59 1682,-59"/>
<text text-anchor="middle" x="1709" y="-66" font-family="FreeSans.ttf" font-size="10.00">config.h</text>
</a>
</g>
<!-- Node2&#45;&gt;Node32 -->
<g id="edge62" class="edge"><title>Node2&#45;&gt;Node32</title>
<path fill="none" stroke="midnightblue" d="M1709,-116.897C1709,-109.339 1709,-98.7476 1709,-89.4458"/>
<polygon fill="midnightblue" stroke="midnightblue" points="1712.5,-89.3776 1709,-79.3776 1705.5,-89.3776 1712.5,-89.3776"/>
</g>
<!-- Node33 -->
<g id="node65" class="node"><title>Node33</title>
<a xlink:href="class_8h.xhtml" target="_top" xlink:title="All class declarations.">
<polygon fill="white" stroke="black" points="1754,-59 1754,-79 1804,-79 1804,-59 1754,-59"/>
<text text-anchor="middle" x="1779" y="-66" font-family="FreeSans.ttf" font-size="10.00">class.h</text>
</a>
</g>
<!-- Node2&#45;&gt;Node33 -->
<g id="edge64" class="edge"><title>Node2&#45;&gt;Node33</title>
<path fill="none" stroke="midnightblue" d="M1721.19,-116.897C1731.5,-108.353 1746.49,-95.933 1758.63,-85.8813"/>
<polygon fill="midnightblue" stroke="midnightblue" points="1761.01,-88.4529 1766.48,-79.3776 1756.54,-83.0627 1761.01,-88.4529"/>
</g>
<!-- Node34 -->
<g id="node67" class="node"><title>Node34</title>
<a xlink:href="namespace_8h.xhtml" target="_top" xlink:title="All namespace includes.">
<polygon fill="white" stroke="black" points="1822,-59 1822,-79 1904,-79 1904,-59 1822,-59"/>
<text text-anchor="middle" x="1863" y="-66" font-family="FreeSans.ttf" font-size="10.00">namespace.h</text>
</a>
</g>
<!-- Node2&#45;&gt;Node34 -->
<g id="edge66" class="edge"><title>Node2&#45;&gt;Node34</title>
<path fill="none" stroke="midnightblue" d="M1735.82,-116.897C1761.03,-107.403 1798.95,-93.124 1826.82,-82.6258"/>
<polygon fill="midnightblue" stroke="midnightblue" points="1828.1,-85.8842 1836.22,-79.0842 1825.63,-79.3334 1828.1,-85.8842"/>
</g>
<!-- Node39 -->
<g id="node77" class="node"><title>Node39</title>
<a xlink:href="globals_8h.xhtml" target="_top" xlink:title="Externs to reference global scope variables.">
<polygon fill="white" stroke="black" points="1921.5,-59 1921.5,-79 1980.5,-79 1980.5,-59 1921.5,-59"/>
<text text-anchor="middle" x="1951" y="-66" font-family="FreeSans.ttf" font-size="10.00">globals.h</text>
</a>
</g>
<!-- Node2&#45;&gt;Node39 -->
<g id="edge76" class="edge"><title>Node2&#45;&gt;Node39</title>
<path fill="none" stroke="midnightblue" d="M1746,-119.12C1784.99,-110.676 1848.38,-96.5411 1911.46,-80.3178"/>
<polygon fill="midnightblue" stroke="midnightblue" points="1912.37,-83.6988 1921.17,-77.8033 1910.61,-76.9224 1912.37,-83.6988"/>
</g>
<!-- Node4 -->
<g id="node7" class="node"><title>Node4</title>
<polygon fill="white" stroke="#bfbfbf" points="0,-1 0,-21 62,-21 62,-1 0,-1"/>
<text text-anchor="middle" x="31" y="-8" font-family="FreeSans.ttf" font-size="10.00">algorithm</text>
</g>
<!-- Node3&#45;&gt;Node4 -->
<g id="edge6" class="edge"><title>Node3&#45;&gt;Node4</title>
<path fill="none" stroke="midnightblue" d="M830.841,-67.7553C692.998,-63.3127 238.922,-47.2253 72.3817,-21.8807"/>
<polygon fill="midnightblue" stroke="midnightblue" points="72.7306,-18.3922 62.3047,-20.2766 71.6301,-25.3052 72.7306,-18.3922"/>
</g>
<!-- Node5 -->
<g id="node9" class="node"><title>Node5</title>
<polygon fill="white" stroke="#bfbfbf" points="80,-1 80,-21 124,-21 124,-1 80,-1"/>
<text text-anchor="middle" x="102" y="-8" font-family="FreeSans.ttf" font-size="10.00">bitset</text>
</g>
<!-- Node3&#45;&gt;Node5 -->
<g id="edge8" class="edge"><title>Node3&#45;&gt;Node5</title>
<path fill="none" stroke="midnightblue" d="M830.678,-67.9032C699.851,-64.1196 287.306,-50.3659 134.272,-21.6868"/>
<polygon fill="midnightblue" stroke="midnightblue" points="134.629,-18.1899 124.141,-19.6862 133.273,-25.0573 134.629,-18.1899"/>
</g>
<!-- Node6 -->
<g id="node11" class="node"><title>Node6</title>
<polygon fill="white" stroke="#bfbfbf" points="142,-1 142,-21 192,-21 192,-1 142,-1"/>
<text text-anchor="middle" x="167" y="-8" font-family="FreeSans.ttf" font-size="10.00">chrono</text>
</g>
<!-- Node3&#45;&gt;Node6 -->
<g id="edge10" class="edge"><title>Node3&#45;&gt;Node6</title>
<path fill="none" stroke="midnightblue" d="M830.96,-67.4676C708.837,-62.5978 341.456,-46.4477 202.099,-21.734"/>
<polygon fill="midnightblue" stroke="midnightblue" points="202.545,-18.2568 192.072,-19.8625 201.26,-25.138 202.545,-18.2568"/>
</g>
<!-- Node7 -->
<g id="node13" class="node"><title>Node7</title>
<polygon fill="white" stroke="#bfbfbf" points="209.5,-1 209.5,-21 262.5,-21 262.5,-1 209.5,-1"/>
<text text-anchor="middle" x="236" y="-8" font-family="FreeSans.ttf" font-size="10.00">cstdarg</text>
</g>
<!-- Node3&#45;&gt;Node7 -->
<g id="edge12" class="edge"><title>Node3&#45;&gt;Node7</title>
<path fill="none" stroke="midnightblue" d="M830.694,-67.0348C717.436,-61.3289 397.015,-43.8795 272.611,-21.9042"/>
<polygon fill="midnightblue" stroke="midnightblue" points="273.064,-18.4286 262.593,-20.0403 271.784,-25.3105 273.064,-18.4286"/>
</g>
<!-- Node8 -->
<g id="node15" class="node"><title>Node8</title>
<polygon fill="white" stroke="#bfbfbf" points="279.5,-1 279.5,-21 324.5,-21 324.5,-1 279.5,-1"/>
<text text-anchor="middle" x="302" y="-8" font-family="FreeSans.ttf" font-size="10.00">cstdio</text>
</g>
<!-- Node3&#45;&gt;Node8 -->
<g id="edge14" class="edge"><title>Node3&#45;&gt;Node8</title>
<path fill="none" stroke="midnightblue" d="M830.621,-66.8034C725.749,-60.8925 445.71,-43.7454 334.724,-21.8919"/>
<polygon fill="midnightblue" stroke="midnightblue" points="335.338,-18.4447 324.834,-19.8316 333.91,-25.2976 335.338,-18.4447"/>
</g>
<!-- Node9 -->
<g id="node17" class="node"><title>Node9</title>
<polygon fill="white" stroke="#bfbfbf" points="341.5,-1 341.5,-21 388.5,-21 388.5,-1 341.5,-1"/>
<text text-anchor="middle" x="365" y="-8" font-family="FreeSans.ttf" font-size="10.00">deque</text>
</g>
<!-- Node3&#45;&gt;Node9 -->
<g id="edge16" class="edge"><title>Node3&#45;&gt;Node9</title>
<path fill="none" stroke="midnightblue" d="M830.873,-68.1533C750.191,-65.781 562.664,-56.8871 398.38,-21.9148"/>
<polygon fill="midnightblue" stroke="midnightblue" points="399.105,-18.4908 388.591,-19.7936 397.623,-25.332 399.105,-18.4908"/>
</g>
<!-- Node10 -->
<g id="node19" class="node"><title>Node10</title>
<polygon fill="white" stroke="#bfbfbf" points="405.5,-1 405.5,-21 476.5,-21 476.5,-1 405.5,-1"/>
<text text-anchor="middle" x="441" y="-8" font-family="FreeSans.ttf" font-size="10.00">forward_list</text>
</g>
<!-- Node3&#45;&gt;Node10 -->
<g id="edge18" class="edge"><title>Node3&#45;&gt;Node10</title>
<path fill="none" stroke="midnightblue" d="M830.742,-65.7523C762.056,-59.8529 617.7,-45.8993 487.115,-22.2389"/>
<polygon fill="midnightblue" stroke="midnightblue" points="487.407,-18.7339 476.939,-20.3699 486.142,-25.6188 487.407,-18.7339"/>
</g>
<!-- Node11 -->
<g id="node21" class="node"><title>Node11</title>
<polygon fill="white" stroke="#bfbfbf" points="494,-1 494,-21 548,-21 548,-1 494,-1"/>
<text text-anchor="middle" x="521" y="-8" font-family="FreeSans.ttf" font-size="10.00">fstream</text>
</g>
<!-- Node3&#45;&gt;Node11 -->
<g id="edge20" class="edge"><title>Node3&#45;&gt;Node11</title>
<path fill="none" stroke="midnightblue" d="M830.995,-64.9321C772.859,-58.6027 661.545,-44.9129 558.005,-21.9717"/>
<polygon fill="midnightblue" stroke="midnightblue" points="558.536,-18.5036 548.012,-19.7226 556.999,-25.3328 558.536,-18.5036"/>
</g>
<!-- Node12 -->
<g id="node23" class="node"><title>Node12</title>
<polygon fill="white" stroke="#bfbfbf" points="565.5,-1 565.5,-21 624.5,-21 624.5,-1 565.5,-1"/>
<text text-anchor="middle" x="595" y="-8" font-family="FreeSans.ttf" font-size="10.00">iostream</text>
</g>
<!-- Node3&#45;&gt;Node12 -->
<g id="edge22" class="edge"><title>Node3&#45;&gt;Node12</title>
<path fill="none" stroke="midnightblue" d="M830.763,-62.154C785.292,-54.1751 708.885,-40.0387 634.771,-22.3033"/>
<polygon fill="midnightblue" stroke="midnightblue" points="635.348,-18.8419 624.805,-19.8929 633.702,-25.6457 635.348,-18.8419"/>
</g>
<!-- Node13 -->
<g id="node25" class="node"><title>Node13</title>
<polygon fill="white" stroke="#bfbfbf" points="642,-1 642,-21 694,-21 694,-1 642,-1"/>
<text text-anchor="middle" x="668" y="-8" font-family="FreeSans.ttf" font-size="10.00">iterator</text>
</g>
<!-- Node3&#45;&gt;Node13 -->
<g id="edge24" class="edge"><title>Node3&#45;&gt;Node13</title>
<path fill="none" stroke="midnightblue" d="M833.868,-58.9753C801.826,-50.2439 754.077,-37.0404 704.044,-22.2559"/>
<polygon fill="midnightblue" stroke="midnightblue" points="704.928,-18.8675 694.346,-19.3785 702.937,-25.5783 704.928,-18.8675"/>
</g>
<!-- Node14 -->
<g id="node27" class="node"><title>Node14</title>
<polygon fill="white" stroke="#bfbfbf" points="712,-1 712,-21 754,-21 754,-1 712,-1"/>
<text text-anchor="middle" x="733" y="-8" font-family="FreeSans.ttf" font-size="10.00">limits</text>
</g>
<!-- Node3&#45;&gt;Node14 -->
<g id="edge26" class="edge"><title>Node3&#45;&gt;Node14</title>
<path fill="none" stroke="midnightblue" d="M846.962,-58.8972C823.783,-49.1554 788.615,-34.3743 763.48,-23.8106"/>
<polygon fill="midnightblue" stroke="midnightblue" points="764.628,-20.4964 754.053,-19.8484 761.916,-26.9497 764.628,-20.4964"/>
</g>
<!-- Node15 -->
<g id="node29" class="node"><title>Node15</title>
<polygon fill="white" stroke="#bfbfbf" points="772,-1 772,-21 802,-21 802,-1 772,-1"/>
<text text-anchor="middle" x="787" y="-8" font-family="FreeSans.ttf" font-size="10.00">list</text>
</g>
<!-- Node3&#45;&gt;Node15 -->
<g id="edge28" class="edge"><title>Node3&#45;&gt;Node15</title>
<path fill="none" stroke="midnightblue" d="M856.368,-58.8972C843.678,-50.1351 825.085,-37.2965 810.341,-27.1164"/>
<polygon fill="midnightblue" stroke="midnightblue" points="811.964,-23.9835 801.746,-21.1817 807.986,-29.7438 811.964,-23.9835"/>
</g>
<!-- Node16 -->
<g id="node31" class="node"><title>Node16</title>
<polygon fill="white" stroke="#bfbfbf" points="820,-1 820,-21 858,-21 858,-1 820,-1"/>
<text text-anchor="middle" x="839" y="-8" font-family="FreeSans.ttf" font-size="10.00">map</text>
</g>
<!-- Node3&#45;&gt;Node16 -->
<g id="edge30" class="edge"><title>Node3&#45;&gt;Node16</title>
<path fill="none" stroke="midnightblue" d="M865.426,-58.8972C861.075,-51.0104 854.901,-39.8209 849.615,-30.2401"/>
<polygon fill="midnightblue" stroke="midnightblue" points="852.621,-28.4426 844.726,-21.3776 846.492,-31.8242 852.621,-28.4426"/>
</g>
<!-- Node17 -->
<g id="node33" class="node"><title>Node17</title>
<polygon fill="white" stroke="#bfbfbf" points="876,-1 876,-21 932,-21 932,-1 876,-1"/>
<text text-anchor="middle" x="904" y="-8" font-family="FreeSans.ttf" font-size="10.00">sstream</text>
</g>
<!-- Node3&#45;&gt;Node17 -->
<g id="edge32" class="edge"><title>Node3&#45;&gt;Node17</title>
<path fill="none" stroke="midnightblue" d="M876.748,-58.8972C881.235,-51.0104 887.602,-39.8209 893.053,-30.2401"/>
<polygon fill="midnightblue" stroke="midnightblue" points="896.192,-31.8001 898.096,-21.3776 890.108,-28.3384 896.192,-31.8001"/>
</g>
<!-- Node18 -->
<g id="node35" class="node"><title>Node18</title>
<polygon fill="white" stroke="#bfbfbf" points="949.5,-1 949.5,-21 996.5,-21 996.5,-1 949.5,-1"/>
<text text-anchor="middle" x="973" y="-8" font-family="FreeSans.ttf" font-size="10.00">vector</text>
</g>
<!-- Node3&#45;&gt;Node18 -->
<g id="edge34" class="edge"><title>Node3&#45;&gt;Node18</title>
<path fill="none" stroke="midnightblue" d="M888.767,-58.8972C904.612,-49.8871 928.038,-36.5665 946.166,-26.2586"/>
<polygon fill="midnightblue" stroke="midnightblue" points="948.131,-29.1673 955.094,-21.1817 944.671,-23.0822 948.131,-29.1673"/>
</g>
<!-- Node19 -->
<g id="node37" class="node"><title>Node19</title>
<polygon fill="white" stroke="#bfbfbf" points="1014,-1 1014,-21 1082,-21 1082,-1 1014,-1"/>
<text text-anchor="middle" x="1048" y="-8" font-family="FreeSans.ttf" font-size="10.00">arpa/inet.h</text>
</g>
<!-- Node3&#45;&gt;Node19 -->
<g id="edge36" class="edge"><title>Node3&#45;&gt;Node19</title>
<path fill="none" stroke="midnightblue" d="M901.831,-58.8972C931.183,-49.2791 975.525,-34.749 1007.67,-24.2152"/>
<polygon fill="midnightblue" stroke="midnightblue" points="1008.81,-27.5242 1017.23,-21.0842 1006.63,-20.8722 1008.81,-27.5242"/>
</g>
<!-- Node20 -->
<g id="node39" class="node"><title>Node20</title>
<polygon fill="white" stroke="#bfbfbf" points="1100,-1 1100,-21 1178,-21 1178,-1 1100,-1"/>
<text text-anchor="middle" x="1139" y="-8" font-family="FreeSans.ttf" font-size="10.00">arpa/telnet.h</text>
</g>
<!-- Node3&#45;&gt;Node20 -->
<g id="edge38" class="edge"><title>Node3&#45;&gt;Node20</title>
<path fill="none" stroke="midnightblue" d="M911.184,-60.6017C953.25,-51.7684 1021.5,-37.322 1089.89,-22.2249"/>
<polygon fill="midnightblue" stroke="midnightblue" points="1090.97,-25.5705 1099.98,-19.9933 1089.46,-18.7357 1090.97,-25.5705"/>
</g>
<!-- Node21 -->
<g id="node41" class="node"><title>Node21</title>
<polygon fill="white" stroke="#bfbfbf" points="1195.5,-1 1195.5,-21 1248.5,-21 1248.5,-1 1195.5,-1"/>
<text text-anchor="middle" x="1222" y="-8" font-family="FreeSans.ttf" font-size="10.00">dirent.h</text>
</g>
<!-- Node3&#45;&gt;Node21 -->
<g id="edge40" class="edge"><title>Node3&#45;&gt;Node21</title>
<path fill="none" stroke="midnightblue" d="M911.283,-65.0561C969.82,-58.8799 1081.88,-45.3821 1185.38,-22.1255"/>
<polygon fill="midnightblue" stroke="midnightblue" points="1186.4,-25.4833 1195.37,-19.8444 1184.84,-18.6591 1186.4,-25.4833"/>
</g>
<!-- Node22 -->
<g id="node43" class="node"><title>Node22</title>
<polygon fill="white" stroke="#bfbfbf" points="1266,-1 1266,-21 1314,-21 1314,-1 1266,-1"/>
<text text-anchor="middle" x="1290" y="-8" font-family="FreeSans.ttf" font-size="10.00">dlfcn.h</text>
</g>
<!-- Node3&#45;&gt;Node22 -->
<g id="edge42" class="edge"><title>Node3&#45;&gt;Node22</title>
<path fill="none" stroke="midnightblue" d="M911.182,-66.7682C980.126,-62.3652 1125.37,-50.583 1255.88,-21.9085"/>
<polygon fill="midnightblue" stroke="midnightblue" points="1256.65,-25.322 1265.65,-19.7239 1255.12,-18.4908 1256.65,-25.322"/>
</g>
<!-- Node23 -->
<g id="node45" class="node"><title>Node23</title>
<polygon fill="white" stroke="#bfbfbf" points="1331.5,-1 1331.5,-21 1382.5,-21 1382.5,-1 1331.5,-1"/>
<text text-anchor="middle" x="1357" y="-8" font-family="FreeSans.ttf" font-size="10.00">errno.h</text>
</g>
<!-- Node3&#45;&gt;Node23 -->
<g id="edge44" class="edge"><title>Node3&#45;&gt;Node23</title>
<path fill="none" stroke="midnightblue" d="M911.037,-67.6462C988.715,-64.4176 1165.26,-54.1405 1320.94,-22.1167"/>
<polygon fill="midnightblue" stroke="midnightblue" points="1322.09,-25.4512 1331.16,-19.9757 1320.66,-18.5999 1322.09,-25.4512"/>
</g>
<!-- Node24 -->
<g id="node47" class="node"><title>Node24</title>
<polygon fill="white" stroke="#bfbfbf" points="1400,-1 1400,-21 1446,-21 1446,-1 1400,-1"/>
<text text-anchor="middle" x="1423" y="-8" font-family="FreeSans.ttf" font-size="10.00">fcntl.h</text>
</g>
<!-- Node3&#45;&gt;Node24 -->
<g id="edge46" class="edge"><title>Node3&#45;&gt;Node24</title>
<path fill="none" stroke="midnightblue" d="M911.158,-66.6259C1013.28,-60.3943 1281.86,-42.7412 1389.83,-21.7534"/>
<polygon fill="midnightblue" stroke="midnightblue" points="1390.67,-25.153 1399.77,-19.7122 1389.27,-18.2962 1390.67,-25.153"/>
</g>
<!-- Node25 -->
<g id="node49" class="node"><title>Node25</title>
<polygon fill="white" stroke="#bfbfbf" points="1463.5,-1 1463.5,-21 1528.5,-21 1528.5,-1 1463.5,-1"/>
<text text-anchor="middle" x="1496" y="-8" font-family="FreeSans.ttf" font-size="10.00">memory.h</text>
</g>
<!-- Node3&#45;&gt;Node25 -->
<g id="edge48" class="edge"><title>Node3&#45;&gt;Node25</title>
<path fill="none" stroke="midnightblue" d="M911.32,-68.273C1005.1,-66.0448 1245.13,-57.2448 1453.55,-22.005"/>
<polygon fill="midnightblue" stroke="midnightblue" points="1454.18,-25.4472 1463.45,-20.3068 1453,-18.5479 1454.18,-25.4472"/>
</g>
<!-- Node26 -->
<g id="node51" class="node"><title>Node26</title>
<polygon fill="white" stroke="#bfbfbf" points="1545.5,-1 1545.5,-21 1598.5,-21 1598.5,-1 1545.5,-1"/>
<text text-anchor="middle" x="1572" y="-8" font-family="FreeSans.ttf" font-size="10.00">netdb.h</text>
</g>
<!-- Node3&#45;&gt;Node26 -->
<g id="edge50" class="edge"><title>Node3&#45;&gt;Node26</title>
<path fill="none" stroke="midnightblue" d="M911.232,-67.3967C1033.04,-62.3522 1397.47,-45.8166 1535.48,-21.8735"/>
<polygon fill="midnightblue" stroke="midnightblue" points="1536.2,-25.3002 1545.41,-20.0622 1534.95,-18.4138 1536.2,-25.3002"/>
</g>
<!-- Node27 -->
<g id="node53" class="node"><title>Node27</title>
<polygon fill="white" stroke="#bfbfbf" points="1615.5,-1 1615.5,-21 1678.5,-21 1678.5,-1 1615.5,-1"/>
<text text-anchor="middle" x="1647" y="-8" font-family="FreeSans.ttf" font-size="10.00">sys/stat.h</text>
</g>
<!-- Node3&#45;&gt;Node27 -->
<g id="edge52" class="edge"><title>Node3&#45;&gt;Node27</title>
<path fill="none" stroke="midnightblue" d="M911.142,-67.5203C1041.4,-62.5531 1452.23,-45.5411 1605.13,-21.994"/>
<polygon fill="midnightblue" stroke="midnightblue" points="1605.94,-25.4087 1615.25,-20.3606 1604.82,-18.4981 1605.94,-25.4087"/>
</g>
<!-- Node28 -->
<g id="node55" class="node"><title>Node28</title>
<polygon fill="white" stroke="#bfbfbf" points="1695.5,-1 1695.5,-21 1750.5,-21 1750.5,-1 1695.5,-1"/>
<text text-anchor="middle" x="1723" y="-8" font-family="FreeSans.ttf" font-size="10.00">unistd.h</text>
</g>
<!-- Node3&#45;&gt;Node28 -->
<g id="edge54" class="edge"><title>Node3&#45;&gt;Node28</title>
<path fill="none" stroke="midnightblue" d="M911.492,-67.9479C1051.65,-64.1106 1516.32,-49.7083 1685.27,-21.9156"/>
<polygon fill="midnightblue" stroke="midnightblue" points="1685.99,-25.3434 1695.25,-20.1955 1684.8,-18.4451 1685.99,-25.3434"/>
</g>
<!-- Node34&#45;&gt;Node35 -->
<g id="edge68" class="edge"><title>Node34&#45;&gt;Node35</title>
<path fill="none" stroke="midnightblue" d="M1887.91,-58.8972C1911.04,-49.5152 1945.7,-35.4593 1971.49,-24.9979"/>
<polygon fill="midnightblue" stroke="midnightblue" points="1972.95,-28.1837 1980.9,-21.1817 1970.31,-21.6969 1972.95,-28.1837"/>
</g>
<!-- Node36 -->
<g id="node71" class="node"><title>Node36</title>
<a xlink:href="server_8h.xhtml" target="_top" xlink:title="The Server namespace.">
<polygon fill="white" stroke="black" points="1767.5,-1 1767.5,-21 1822.5,-21 1822.5,-1 1767.5,-1"/>
<text text-anchor="middle" x="1795" y="-8" font-family="FreeSans.ttf" font-size="10.00">server.h</text>
</a>
</g>
<!-- Node34&#45;&gt;Node36 -->
<g id="edge70" class="edge"><title>Node34&#45;&gt;Node36</title>
<path fill="none" stroke="midnightblue" d="M1851.16,-58.8972C1841.14,-50.3532 1826.58,-37.933 1814.79,-27.8813"/>
<polygon fill="midnightblue" stroke="midnightblue" points="1817.05,-25.2042 1807.17,-21.3776 1812.5,-30.53 1817.05,-25.2042"/>
</g>
<!-- Node37 -->
<g id="node73" class="node"><title>Node37</title>
<a xlink:href="telopt_8h.xhtml" target="_top" xlink:title="The telopt namespace.">
<polygon fill="white" stroke="black" points="1839.5,-1 1839.5,-21 1892.5,-21 1892.5,-1 1839.5,-1"/>
<text text-anchor="middle" x="1866" y="-8" font-family="FreeSans.ttf" font-size="10.00">telopt.h</text>
</a>
</g>
<!-- Node34&#45;&gt;Node37 -->
<g id="edge72" class="edge"><title>Node34&#45;&gt;Node37</title>
<path fill="none" stroke="midnightblue" d="M1863.52,-58.8972C1863.91,-51.339 1864.46,-40.7476 1864.94,-31.4458"/>
<polygon fill="midnightblue" stroke="midnightblue" points="1868.44,-31.5451 1865.46,-21.3776 1861.45,-31.1834 1868.44,-31.5451"/>
</g>
<!-- Node38 -->
<g id="node75" class="node"><title>Node38</title>
<a xlink:href="utils_8h.xhtml" target="_top" xlink:title="The Utils namespace.">
<polygon fill="white" stroke="black" points="1909.5,-1 1909.5,-21 1954.5,-21 1954.5,-1 1909.5,-1"/>
<text text-anchor="middle" x="1932" y="-8" font-family="FreeSans.ttf" font-size="10.00">utils.h</text>
</a>
</g>
<!-- Node34&#45;&gt;Node38 -->
<g id="edge74" class="edge"><title>Node34&#45;&gt;Node38</title>
<path fill="none" stroke="midnightblue" d="M1875.02,-58.8972C1885.18,-50.3532 1899.96,-37.933 1911.92,-27.8813"/>
<polygon fill="midnightblue" stroke="midnightblue" points="1914.25,-30.4914 1919.65,-21.3776 1909.75,-25.133 1914.25,-30.4914"/>
</g>
<!-- Node42 -->
<g id="node84" class="node"><title>Node42</title>
<a xlink:href="thing_8h.xhtml" target="_top" xlink:title="The Thing class.">
<polygon fill="white" stroke="black" points="2346,-59 2346,-79 2396,-79 2396,-59 2346,-59"/>
<text text-anchor="middle" x="2371" y="-66" font-family="FreeSans.ttf" font-size="10.00">thing.h</text>
</a>
</g>
<!-- Node41&#45;&gt;Node42 -->
<g id="edge84" class="edge"><title>Node41&#45;&gt;Node42</title>
<path fill="none" stroke="midnightblue" d="M2201.71,-116.897C2239.35,-106.247 2298.28,-89.5736 2335.75,-78.9727"/>
<polygon fill="midnightblue" stroke="midnightblue" points="2337.05,-82.244 2345.72,-76.1537 2335.14,-75.5084 2337.05,-82.244"/>
</g>
<!-- Node47&#45;&gt;Node42 -->
<g id="edge96" class="edge"><title>Node47&#45;&gt;Node42</title>
<path fill="none" stroke="midnightblue" d="M2540.29,-116.897C2502.65,-106.247 2443.72,-89.5736 2406.25,-78.9727"/>
<polygon fill="midnightblue" stroke="midnightblue" points="2406.86,-75.5084 2396.28,-76.1537 2404.95,-82.244 2406.86,-75.5084"/>
</g>
<!-- Node49 -->
<g id="node99" class="node"><title>Node49</title>
<a xlink:href="socket_8h.xhtml" target="_top" xlink:title="The Socket class.">
<polygon fill="white" stroke="black" points="2647.5,-59 2647.5,-79 2704.5,-79 2704.5,-59 2647.5,-59"/>
<text text-anchor="middle" x="2676" y="-66" font-family="FreeSans.ttf" font-size="10.00">socket.h</text>
</a>
</g>
<!-- Node48&#45;&gt;Node49 -->
<g id="edge100" class="edge"><title>Node48&#45;&gt;Node49</title>
<path fill="none" stroke="midnightblue" d="M2676,-116.897C2676,-109.339 2676,-98.7476 2676,-89.4458"/>
<polygon fill="midnightblue" stroke="midnightblue" points="2679.5,-89.3776 2676,-79.3776 2672.5,-89.3776 2679.5,-89.3776"/>
</g>
</g>
</svg>
