<?xml version="1.0" encoding="UTF-8" standalone="no"?>
<!DOCTYPE svg PUBLIC "-//W3C//DTD SVG 1.1//EN"
 "http://www.w3.org/Graphics/SVG/1.1/DTD/svg11.dtd">
<!-- Generated by graphviz version 2.26.3 (20100126.1600)
 -->
<!-- Title: handler.cpp Pages: 1 -->
<!--zoomable 204 -->
<svg id="main" version="1.1" xmlns="http://www.w3.org/2000/svg" xmlns:xlink="http://www.w3.org/1999/xlink" xml:space="preserve" onload="init(evt)">
        <defs>
                <circle id="rim" cx="0" cy="0" r="7"/>
                <circle id="rim2" cx="0" cy="0" r="3.5"/>
                <g id="zoomPlus">
                        <use xlink:href="#rim" fill="#404040">
                                <set attributeName="fill" to="#808080" begin="zoomplus.mouseover" end="zoomplus.mouseout"/>
                        </use>
                        <path d="M-4,0h8M0,-4v8" fill="none" stroke="white" stroke-width="1.5" pointer-events="none"/>
                </g>
                <g id="zoomMin">
                        <use xlink:href="#rim" fill="#404040">
                                <set attributeName="fill" to="#808080" begin="zoomminus.mouseover" end="zoomminus.mouseout"/>
                        </use>
                        <path d="M-4,0h8" fill="none" stroke="white" stroke-width="1.5" pointer-events="none"/>
                </g>
                <g id="dirArrow">
                        <path fill="none" stroke="white" stroke-width="1.5" d="M0,-3.0v7 M-2.5,-0.5L0,-3.0L2.5,-0.5"/>
                </g>
               <g id="resetDef">
                       <use xlink:href="#rim2" fill="#404040">
                               <set attributeName="fill" to="#808080" begin="reset.mouseover" end="reset.mouseout"/>
                       </use>
               </g>
        </defs>

<script type="text/javascript">
var viewWidth = 2724;
var viewHeight = 204;
var sectionId = 'dynsection-0';
</script>
<script xlink:href="svgpan.js"/>
<svg id="graph" class="graph">
<g id="viewport">
<title>handler.cpp</title>
<polygon fill="white" stroke="white" points="-4,5 -4,-200 2721,-200 2721,5 -4,5"/>
<!-- Node1 -->
<g id="node1" class="node"><title>Node1</title>
<polygon fill="#bfbfbf" stroke="black" points="2231,-175 2231,-195 2303,-195 2303,-175 2231,-175"/>
<text text-anchor="middle" x="2267" y="-182" font-family="FreeSans.ttf" font-size="10.00">handler.cpp</text>
</g>
<!-- Node2 -->
<g id="node3" class="node"><title>Node2</title>
<a xlink:href="includes_8h.xhtml" target="_top" xlink:title="All non&#45;system includes that need to be within each .cpp file.">
<polygon fill="white" stroke="black" points="1584,-117 1584,-137 1658,-137 1658,-117 1584,-117"/>
<text text-anchor="middle" x="1621" y="-124" font-family="FreeSans.ttf" font-size="10.00">h/includes.h</text>
</a>
</g>
<!-- Node1&#45;&gt;Node2 -->
<g id="edge2" class="edge"><title>Node1&#45;&gt;Node2</title>
<path fill="none" stroke="midnightblue" d="M2230.88,-181.757C2121.16,-171.906 1791.67,-142.323 1668.31,-131.248"/>
<polygon fill="midnightblue" stroke="midnightblue" points="1668.34,-127.736 1658.06,-130.328 1667.71,-134.708 1668.34,-127.736"/>
</g>
<!-- Node34 -->
<g id="node67" class="node"><title>Node34</title>
<a xlink:href="handler_8h.xhtml" target="_top" xlink:title="The Handler namespace.">
<polygon fill="white" stroke="black" points="1887.5,-1 1887.5,-21 1948.5,-21 1948.5,-1 1887.5,-1"/>
<text text-anchor="middle" x="1918" y="-8" font-family="FreeSans.ttf" font-size="10.00">handler.h</text>
</a>
</g>
<!-- Node1&#45;&gt;Node34 -->
<g id="edge76" class="edge"><title>Node1&#45;&gt;Node34</title>
<path fill="none" stroke="midnightblue" d="M2230.95,-182.224C2150.08,-175.662 1959.66,-158.219 1939,-138 1910.52,-110.125 1911.53,-59.4592 1914.76,-31.2807"/>
<polygon fill="midnightblue" stroke="midnightblue" points="1918.23,-31.7325 1916.1,-21.3537 1911.29,-30.7948 1918.23,-31.7325"/>
</g>
<!-- Node39 -->
<g id="node78" class="node"><title>Node39</title>
<a xlink:href="account_8h.xhtml" target="_top" xlink:title="The Account class.">
<polygon fill="white" stroke="black" points="1947.5,-117 1947.5,-137 2020.5,-137 2020.5,-117 1947.5,-117"/>
<text text-anchor="middle" x="1984" y="-124" font-family="FreeSans.ttf" font-size="10.00">h/account.h</text>
</a>
</g>
<!-- Node1&#45;&gt;Node39 -->
<g id="edge78" class="edge"><title>Node1&#45;&gt;Node39</title>
<path fill="none" stroke="midnightblue" d="M2230.61,-178.337C2185.74,-170.009 2106.95,-155.008 2030.59,-138.293"/>
<polygon fill="midnightblue" stroke="midnightblue" points="2031.32,-134.871 2020.81,-136.139 2029.82,-141.708 2031.32,-134.871"/>
</g>
<!-- Node40 -->
<g id="node80" class="node"><title>Node40</title>
<a xlink:href="character_8h.xhtml" target="_top" xlink:title="The Character class.">
<polygon fill="white" stroke="black" points="2038,-117 2038,-137 2118,-137 2118,-117 2038,-117"/>
<text text-anchor="middle" x="2078" y="-124" font-family="FreeSans.ttf" font-size="10.00">h/character.h</text>
</a>
</g>
<!-- Node1&#45;&gt;Node40 -->
<g id="edge80" class="edge"><title>Node1&#45;&gt;Node40</title>
<path fill="none" stroke="midnightblue" d="M2234.08,-174.897C2202.6,-165.238 2154.98,-150.624 2120.62,-140.079"/>
<polygon fill="midnightblue" stroke="midnightblue" points="2121.45,-136.672 2110.86,-137.084 2119.39,-143.364 2121.45,-136.672"/>
</g>
<!-- Node42 -->
<g id="node84" class="node"><title>Node42</title>
<a xlink:href="command_8h.xhtml" target="_top" xlink:title="The Command class.">
<polygon fill="white" stroke="black" points="2135.5,-117 2135.5,-137 2218.5,-137 2218.5,-117 2135.5,-117"/>
<text text-anchor="middle" x="2177" y="-124" font-family="FreeSans.ttf" font-size="10.00">h/command.h</text>
</a>
</g>
<!-- Node1&#45;&gt;Node42 -->
<g id="edge84" class="edge"><title>Node1&#45;&gt;Node42</title>
<path fill="none" stroke="midnightblue" d="M2251.32,-174.897C2237.6,-166.052 2217.43,-153.054 2201.56,-142.829"/>
<polygon fill="midnightblue" stroke="midnightblue" points="2203.1,-139.657 2192.8,-137.182 2199.31,-145.541 2203.1,-139.657"/>
</g>
<!-- Node43 -->
<g id="node86" class="node"><title>Node43</title>
<a xlink:href="event_8h.xhtml" target="_top" xlink:title="The Event class.">
<polygon fill="white" stroke="black" points="2236,-117 2236,-137 2298,-137 2298,-117 2236,-117"/>
<text text-anchor="middle" x="2267" y="-124" font-family="FreeSans.ttf" font-size="10.00">h/event.h</text>
</a>
</g>
<!-- Node1&#45;&gt;Node43 -->
<g id="edge86" class="edge"><title>Node1&#45;&gt;Node43</title>
<path fill="none" stroke="midnightblue" d="M2267,-174.897C2267,-167.339 2267,-156.748 2267,-147.446"/>
<polygon fill="midnightblue" stroke="midnightblue" points="2270.5,-147.378 2267,-137.378 2263.5,-147.378 2270.5,-147.378"/>
</g>
<!-- Node44 -->
<g id="node88" class="node"><title>Node44</title>
<a xlink:href="exit_8h.xhtml" target="_top" xlink:title="The Exit class.">
<polygon fill="white" stroke="black" points="2316,-117 2316,-137 2368,-137 2368,-117 2316,-117"/>
<text text-anchor="middle" x="2342" y="-124" font-family="FreeSans.ttf" font-size="10.00">h/exit.h</text>
</a>
</g>
<!-- Node1&#45;&gt;Node44 -->
<g id="edge88" class="edge"><title>Node1&#45;&gt;Node44</title>
<path fill="none" stroke="midnightblue" d="M2280.06,-174.897C2291.29,-166.218 2307.68,-153.538 2320.79,-143.405"/>
<polygon fill="midnightblue" stroke="midnightblue" points="2323.06,-146.068 2328.83,-137.182 2318.78,-140.53 2323.06,-146.068"/>
</g>
<!-- Node45 -->
<g id="node90" class="node"><title>Node45</title>
<a xlink:href="list_8h.xhtml" target="_top" xlink:title="All globally referenced list / map / vector types.">
<polygon fill="white" stroke="black" points="2386,-117 2386,-137 2434,-137 2434,-117 2386,-117"/>
<text text-anchor="middle" x="2410" y="-124" font-family="FreeSans.ttf" font-size="10.00">h/list.h</text>
</a>
</g>
<!-- Node1&#45;&gt;Node45 -->
<g id="edge90" class="edge"><title>Node1&#45;&gt;Node45</title>
<path fill="none" stroke="midnightblue" d="M2291.91,-174.897C2315.32,-165.4 2350.55,-151.114 2376.43,-140.614"/>
<polygon fill="midnightblue" stroke="midnightblue" points="2377.9,-143.796 2385.85,-136.794 2375.27,-137.309 2377.9,-143.796"/>
</g>
<!-- Node46 -->
<g id="node92" class="node"><title>Node46</title>
<a xlink:href="location_8h.xhtml" target="_top" xlink:title="The Location class.">
<polygon fill="white" stroke="black" points="2452,-117 2452,-137 2524,-137 2524,-117 2452,-117"/>
<text text-anchor="middle" x="2488" y="-124" font-family="FreeSans.ttf" font-size="10.00">h/location.h</text>
</a>
</g>
<!-- Node1&#45;&gt;Node46 -->
<g id="edge92" class="edge"><title>Node1&#45;&gt;Node46</title>
<path fill="none" stroke="midnightblue" d="M2303.49,-175.422C2341.44,-165.465 2400.92,-149.853 2442.04,-139.061"/>
<polygon fill="midnightblue" stroke="midnightblue" points="2443.04,-142.419 2451.82,-136.495 2441.26,-135.649 2443.04,-142.419"/>
</g>
<!-- Node47 -->
<g id="node95" class="node"><title>Node47</title>
<a xlink:href="object_8h.xhtml" target="_top" xlink:title="The Object class.">
<polygon fill="white" stroke="black" points="2542,-117 2542,-137 2606,-137 2606,-117 2542,-117"/>
<text text-anchor="middle" x="2574" y="-124" font-family="FreeSans.ttf" font-size="10.00">h/object.h</text>
</a>
</g>
<!-- Node1&#45;&gt;Node47 -->
<g id="edge96" class="edge"><title>Node1&#45;&gt;Node47</title>
<path fill="none" stroke="midnightblue" d="M2303.34,-179.609C2352.88,-172.033 2444.58,-157.216 2532.02,-138.083"/>
<polygon fill="midnightblue" stroke="midnightblue" points="2532.83,-141.49 2541.84,-135.913 2531.32,-134.655 2532.83,-141.49"/>
</g>
<!-- Node48 -->
<g id="node98" class="node"><title>Node48</title>
<a xlink:href="socketclient_8h.xhtml" target="_top" xlink:title="The SocketClient class.">
<polygon fill="white" stroke="black" points="2624,-117 2624,-137 2716,-137 2716,-117 2624,-117"/>
<text text-anchor="middle" x="2670" y="-124" font-family="FreeSans.ttf" font-size="10.00">h/socketclient.h</text>
</a>
</g>
<!-- Node1&#45;&gt;Node48 -->
<g id="edge100" class="edge"><title>Node1&#45;&gt;Node48</title>
<path fill="none" stroke="midnightblue" d="M2303.18,-180.877C2364.82,-173.688 2494.32,-157.865 2613.78,-138.129"/>
<polygon fill="midnightblue" stroke="midnightblue" points="2614.54,-141.55 2623.83,-136.455 2613.39,-134.645 2614.54,-141.55"/>
</g>
<!-- Node3 -->
<g id="node5" class="node"><title>Node3</title>
<a xlink:href="sysincludes_8h.xhtml" target="_top" xlink:title="All system standard includes that are used within NAMS.">
<polygon fill="white" stroke="black" points="776,-59 776,-79 856,-79 856,-59 776,-59"/>
<text text-anchor="middle" x="816" y="-66" font-family="FreeSans.ttf" font-size="10.00">sysincludes.h</text>
</a>
</g>
<!-- Node2&#45;&gt;Node3 -->
<g id="edge4" class="edge"><title>Node2&#45;&gt;Node3</title>
<path fill="none" stroke="midnightblue" d="M1583.79,-124.319C1453.19,-114.909 1015.57,-83.3792 866.35,-72.6277"/>
<polygon fill="midnightblue" stroke="midnightblue" points="866.338,-69.1178 856.112,-71.8901 865.835,-76.0997 866.338,-69.1178"/>
</g>
<!-- Node28 -->
<g id="node55" class="node"><title>Node28</title>
<a xlink:href="limits_8h.xhtml" target="_top" xlink:title="Custom defined numeric types and system limits.">
<polygon fill="white" stroke="black" points="1375.5,-59 1375.5,-79 1426.5,-79 1426.5,-59 1375.5,-59"/>
<text text-anchor="middle" x="1401" y="-66" font-family="FreeSans.ttf" font-size="10.00">limits.h</text>
</a>
</g>
<!-- Node2&#45;&gt;Node28 -->
<g id="edge54" class="edge"><title>Node2&#45;&gt;Node28</title>
<path fill="none" stroke="midnightblue" d="M1583.75,-118.346C1548.13,-109.901 1492.69,-96.3255 1436.35,-80.2783"/>
<polygon fill="midnightblue" stroke="midnightblue" points="1437.14,-76.8647 1426.56,-77.4689 1435.21,-83.5929 1437.14,-76.8647"/>
</g>
<!-- Node29 -->
<g id="node57" class="node"><title>Node29</title>
<a xlink:href="macros_8h.xhtml" target="_top" xlink:title="All pre&#45;processor macros within NAMS and select reference values.">
<polygon fill="white" stroke="black" points="1444,-59 1444,-79 1506,-79 1506,-59 1444,-59"/>
<text text-anchor="middle" x="1475" y="-66" font-family="FreeSans.ttf" font-size="10.00">macros.h</text>
</a>
</g>
<!-- Node2&#45;&gt;Node29 -->
<g id="edge56" class="edge"><title>Node2&#45;&gt;Node29</title>
<path fill="none" stroke="midnightblue" d="M1595.57,-116.897C1571.95,-107.515 1536.57,-93.4593 1510.24,-82.9979"/>
<polygon fill="midnightblue" stroke="midnightblue" points="1511.22,-79.6209 1500.63,-79.1817 1508.63,-86.1264 1511.22,-79.6209"/>
</g>
<!-- Node30 -->
<g id="node59" class="node"><title>Node30</title>
<a xlink:href="enum_8h.xhtml" target="_top" xlink:title="All numerical and boolean defines for every class and namespace.">
<polygon fill="white" stroke="black" points="1523.5,-59 1523.5,-79 1576.5,-79 1576.5,-59 1523.5,-59"/>
<text text-anchor="middle" x="1550" y="-66" font-family="FreeSans.ttf" font-size="10.00">enum.h</text>
</a>
</g>
<!-- Node2&#45;&gt;Node30 -->
<g id="edge58" class="edge"><title>Node2&#45;&gt;Node30</title>
<path fill="none" stroke="midnightblue" d="M1608.63,-116.897C1598.17,-108.353 1582.97,-95.933 1570.67,-85.8813"/>
<polygon fill="midnightblue" stroke="midnightblue" points="1572.66,-82.9935 1562.7,-79.3776 1568.23,-88.4146 1572.66,-82.9935"/>
</g>
<!-- Node31 -->
<g id="node61" class="node"><title>Node31</title>
<a xlink:href="config_8h.xhtml" target="_top" xlink:title="NAMS configuration options.">
<polygon fill="white" stroke="black" points="1594,-59 1594,-79 1648,-79 1648,-59 1594,-59"/>
<text text-anchor="middle" x="1621" y="-66" font-family="FreeSans.ttf" font-size="10.00">config.h</text>
</a>
</g>
<!-- Node2&#45;&gt;Node31 -->
<g id="edge60" class="edge"><title>Node2&#45;&gt;Node31</title>
<path fill="none" stroke="midnightblue" d="M1621,-116.897C1621,-109.339 1621,-98.7476 1621,-89.4458"/>
<polygon fill="midnightblue" stroke="midnightblue" points="1624.5,-89.3776 1621,-79.3776 1617.5,-89.3776 1624.5,-89.3776"/>
</g>
<!-- Node32 -->
<g id="node63" class="node"><title>Node32</title>
<a xlink:href="class_8h.xhtml" target="_top" xlink:title="All class declarations.">
<polygon fill="white" stroke="black" points="1666,-59 1666,-79 1716,-79 1716,-59 1666,-59"/>
<text text-anchor="middle" x="1691" y="-66" font-family="FreeSans.ttf" font-size="10.00">class.h</text>
</a>
</g>
<!-- Node2&#45;&gt;Node32 -->
<g id="edge62" class="edge"><title>Node2&#45;&gt;Node32</title>
<path fill="none" stroke="midnightblue" d="M1633.19,-116.897C1643.5,-108.353 1658.49,-95.933 1670.63,-85.8813"/>
<polygon fill="midnightblue" stroke="midnightblue" points="1673.01,-88.4529 1678.48,-79.3776 1668.54,-83.0627 1673.01,-88.4529"/>
</g>
<!-- Node33 -->
<g id="node65" class="node"><title>Node33</title>
<a xlink:href="namespace_8h.xhtml" target="_top" xlink:title="All namespace includes.">
<polygon fill="white" stroke="black" points="1734,-59 1734,-79 1816,-79 1816,-59 1734,-59"/>
<text text-anchor="middle" x="1775" y="-66" font-family="FreeSans.ttf" font-size="10.00">namespace.h</text>
</a>
</g>
<!-- Node2&#45;&gt;Node33 -->
<g id="edge64" class="edge"><title>Node2&#45;&gt;Node33</title>
<path fill="none" stroke="midnightblue" d="M1647.82,-116.897C1673.03,-107.403 1710.95,-93.124 1738.82,-82.6258"/>
<polygon fill="midnightblue" stroke="midnightblue" points="1740.1,-85.8842 1748.22,-79.0842 1737.63,-79.3334 1740.1,-85.8842"/>
</g>
<!-- Node38 -->
<g id="node75" class="node"><title>Node38</title>
<a xlink:href="globals_8h.xhtml" target="_top" xlink:title="Externs to reference global scope variables.">
<polygon fill="white" stroke="black" points="1833.5,-59 1833.5,-79 1892.5,-79 1892.5,-59 1833.5,-59"/>
<text text-anchor="middle" x="1863" y="-66" font-family="FreeSans.ttf" font-size="10.00">globals.h</text>
</a>
</g>
<!-- Node2&#45;&gt;Node38 -->
<g id="edge74" class="edge"><title>Node2&#45;&gt;Node38</title>
<path fill="none" stroke="midnightblue" d="M1658,-119.12C1696.99,-110.676 1760.38,-96.5411 1823.46,-80.3178"/>
<polygon fill="midnightblue" stroke="midnightblue" points="1824.37,-83.6988 1833.17,-77.8033 1822.61,-76.9224 1824.37,-83.6988"/>
</g>
<!-- Node4 -->
<g id="node7" class="node"><title>Node4</title>
<polygon fill="white" stroke="#bfbfbf" points="0,-1 0,-21 62,-21 62,-1 0,-1"/>
<text text-anchor="middle" x="31" y="-8" font-family="FreeSans.ttf" font-size="10.00">algorithm</text>
</g>
<!-- Node3&#45;&gt;Node4 -->
<g id="edge6" class="edge"><title>Node3&#45;&gt;Node4</title>
<path fill="none" stroke="midnightblue" d="M775.836,-67.5551C644.513,-62.6639 227.866,-45.786 72.5897,-21.9196"/>
<polygon fill="midnightblue" stroke="midnightblue" points="72.7362,-18.3982 62.3069,-20.2635 71.6231,-25.3091 72.7362,-18.3982"/>
</g>
<!-- Node5 -->
<g id="node9" class="node"><title>Node5</title>
<polygon fill="white" stroke="#bfbfbf" points="80,-1 80,-21 124,-21 124,-1 80,-1"/>
<text text-anchor="middle" x="102" y="-8" font-family="FreeSans.ttf" font-size="10.00">bitset</text>
</g>
<!-- Node3&#45;&gt;Node5 -->
<g id="edge8" class="edge"><title>Node3&#45;&gt;Node5</title>
<path fill="none" stroke="midnightblue" d="M775.603,-67.6624C651.482,-63.3315 276.03,-48.5263 134.335,-21.708"/>
<polygon fill="midnightblue" stroke="midnightblue" points="134.636,-18.1991 124.144,-19.6721 133.264,-25.0634 134.636,-18.1991"/>
</g>
<!-- Node6 -->
<g id="node11" class="node"><title>Node6</title>
<polygon fill="white" stroke="#bfbfbf" points="142,-1 142,-21 192,-21 192,-1 142,-1"/>
<text text-anchor="middle" x="167" y="-8" font-family="FreeSans.ttf" font-size="10.00">chrono</text>
</g>
<!-- Node3&#45;&gt;Node6 -->
<g id="edge10" class="edge"><title>Node3&#45;&gt;Node6</title>
<path fill="none" stroke="midnightblue" d="M775.946,-67.1787C660.875,-61.7554 329.923,-44.7728 202.013,-21.7298"/>
<polygon fill="midnightblue" stroke="midnightblue" points="202.553,-18.2699 192.076,-19.8445 201.248,-25.1473 202.553,-18.2699"/>
</g>
<!-- Node7 -->
<g id="node13" class="node"><title>Node7</title>
<polygon fill="white" stroke="#bfbfbf" points="209.5,-1 209.5,-21 262.5,-21 262.5,-1 209.5,-1"/>
<text text-anchor="middle" x="236" y="-8" font-family="FreeSans.ttf" font-size="10.00">cstdarg</text>
</g>
<!-- Node3&#45;&gt;Node7 -->
<g id="edge12" class="edge"><title>Node3&#45;&gt;Node7</title>
<path fill="none" stroke="midnightblue" d="M775.924,-66.6838C670.413,-60.4097 385.834,-42.3058 272.683,-21.9325"/>
<polygon fill="midnightblue" stroke="midnightblue" points="273.075,-18.4445 262.597,-20.0181 271.769,-25.3217 273.075,-18.4445"/>
</g>
<!-- Node8 -->
<g id="node15" class="node"><title>Node8</title>
<polygon fill="white" stroke="#bfbfbf" points="279.5,-1 279.5,-21 324.5,-21 324.5,-1 279.5,-1"/>
<text text-anchor="middle" x="302" y="-8" font-family="FreeSans.ttf" font-size="10.00">cstdio</text>
</g>
<!-- Node3&#45;&gt;Node8 -->
<g id="edge14" class="edge"><title>Node3&#45;&gt;Node8</title>
<path fill="none" stroke="midnightblue" d="M775.723,-68.3843C693.817,-66.427 502.075,-58.2478 334.486,-21.9056"/>
<polygon fill="midnightblue" stroke="midnightblue" points="335.02,-18.4393 324.5,-19.7001 333.51,-25.2745 335.02,-18.4393"/>
</g>
<!-- Node9 -->
<g id="node17" class="node"><title>Node9</title>
<polygon fill="white" stroke="#bfbfbf" points="341.5,-1 341.5,-21 388.5,-21 388.5,-1 341.5,-1"/>
<text text-anchor="middle" x="365" y="-8" font-family="FreeSans.ttf" font-size="10.00">deque</text>
</g>
<!-- Node3&#45;&gt;Node9 -->
<g id="edge16" class="edge"><title>Node3&#45;&gt;Node9</title>
<path fill="none" stroke="midnightblue" d="M775.946,-67.429C702.496,-63.9207 541.384,-53.3136 398.423,-21.9533"/>
<polygon fill="midnightblue" stroke="midnightblue" points="399.121,-18.523 388.599,-19.7585 397.595,-25.3546 399.121,-18.523"/>
</g>
<!-- Node10 -->
<g id="node19" class="node"><title>Node10</title>
<polygon fill="white" stroke="#bfbfbf" points="406,-1 406,-21 460,-21 460,-1 406,-1"/>
<text text-anchor="middle" x="433" y="-8" font-family="FreeSans.ttf" font-size="10.00">fstream</text>
</g>
<!-- Node3&#45;&gt;Node10 -->
<g id="edge18" class="edge"><title>Node3&#45;&gt;Node10</title>
<path fill="none" stroke="midnightblue" d="M775.82,-65.6879C712.639,-60.018 586.143,-46.8033 470.119,-21.9654"/>
<polygon fill="midnightblue" stroke="midnightblue" points="470.518,-18.4704 460.002,-19.7639 469.029,-25.3103 470.518,-18.4704"/>
</g>
<!-- Node11 -->
<g id="node21" class="node"><title>Node11</title>
<polygon fill="white" stroke="#bfbfbf" points="477.5,-1 477.5,-21 536.5,-21 536.5,-1 477.5,-1"/>
<text text-anchor="middle" x="507" y="-8" font-family="FreeSans.ttf" font-size="10.00">iostream</text>
</g>
<!-- Node3&#45;&gt;Node11 -->
<g id="edge20" class="edge"><title>Node3&#45;&gt;Node11</title>
<path fill="none" stroke="midnightblue" d="M775.776,-63.4381C724.585,-56.0498 633.289,-41.8379 546.769,-22.2481"/>
<polygon fill="midnightblue" stroke="midnightblue" points="547.319,-18.7834 536.79,-19.9592 545.754,-25.6062 547.319,-18.7834"/>
</g>
<!-- Node12 -->
<g id="node23" class="node"><title>Node12</title>
<polygon fill="white" stroke="#bfbfbf" points="554,-1 554,-21 606,-21 606,-1 554,-1"/>
<text text-anchor="middle" x="580" y="-8" font-family="FreeSans.ttf" font-size="10.00">iterator</text>
</g>
<!-- Node3&#45;&gt;Node12 -->
<g id="edge22" class="edge"><title>Node3&#45;&gt;Node12</title>
<path fill="none" stroke="midnightblue" d="M775.735,-60.5137C737.064,-52.1572 676.814,-38.5998 616.062,-22.1633"/>
<polygon fill="midnightblue" stroke="midnightblue" points="616.88,-18.7584 606.311,-19.501 615.036,-25.5113 616.88,-18.7584"/>
</g>
<!-- Node13 -->
<g id="node25" class="node"><title>Node13</title>
<polygon fill="white" stroke="#bfbfbf" points="624,-1 624,-21 666,-21 666,-1 624,-1"/>
<text text-anchor="middle" x="645" y="-8" font-family="FreeSans.ttf" font-size="10.00">limits</text>
</g>
<!-- Node3&#45;&gt;Node13 -->
<g id="edge24" class="edge"><title>Node3&#45;&gt;Node13</title>
<path fill="none" stroke="midnightblue" d="M785.104,-58.9936C758.434,-50.2915 718.658,-37.1603 675.765,-22.2096"/>
<polygon fill="midnightblue" stroke="midnightblue" points="676.872,-18.8887 666.277,-18.8901 674.56,-25.4961 676.872,-18.8887"/>
</g>
<!-- Node14 -->
<g id="node27" class="node"><title>Node14</title>
<polygon fill="white" stroke="#bfbfbf" points="684,-1 684,-21 714,-21 714,-1 684,-1"/>
<text text-anchor="middle" x="699" y="-8" font-family="FreeSans.ttf" font-size="10.00">list</text>
</g>
<!-- Node3&#45;&gt;Node14 -->
<g id="edge26" class="edge"><title>Node3&#45;&gt;Node14</title>
<path fill="none" stroke="midnightblue" d="M795.62,-58.8972C775.522,-48.9337 744.79,-33.6992 723.401,-23.0963"/>
<polygon fill="midnightblue" stroke="midnightblue" points="724.817,-19.8919 714.303,-18.5862 721.708,-26.1636 724.817,-19.8919"/>
</g>
<!-- Node15 -->
<g id="node29" class="node"><title>Node15</title>
<polygon fill="white" stroke="#bfbfbf" points="732,-1 732,-21 770,-21 770,-1 732,-1"/>
<text text-anchor="middle" x="751" y="-8" font-family="FreeSans.ttf" font-size="10.00">map</text>
</g>
<!-- Node3&#45;&gt;Node15 -->
<g id="edge28" class="edge"><title>Node3&#45;&gt;Node15</title>
<path fill="none" stroke="midnightblue" d="M804.678,-58.8972C795.195,-50.4353 781.451,-38.1715 770.244,-28.1719"/>
<polygon fill="midnightblue" stroke="midnightblue" points="772.422,-25.424 762.63,-21.3776 767.761,-30.647 772.422,-25.424"/>
</g>
<!-- Node16 -->
<g id="node31" class="node"><title>Node16</title>
<polygon fill="white" stroke="#bfbfbf" points="788,-1 788,-21 844,-21 844,-1 788,-1"/>
<text text-anchor="middle" x="816" y="-8" font-family="FreeSans.ttf" font-size="10.00">sstream</text>
</g>
<!-- Node3&#45;&gt;Node16 -->
<g id="edge30" class="edge"><title>Node3&#45;&gt;Node16</title>
<path fill="none" stroke="midnightblue" d="M816,-58.8972C816,-51.339 816,-40.7476 816,-31.4458"/>
<polygon fill="midnightblue" stroke="midnightblue" points="819.5,-31.3776 816,-21.3776 812.5,-31.3776 819.5,-31.3776"/>
</g>
<!-- Node17 -->
<g id="node33" class="node"><title>Node17</title>
<polygon fill="white" stroke="#bfbfbf" points="861.5,-1 861.5,-21 908.5,-21 908.5,-1 861.5,-1"/>
<text text-anchor="middle" x="885" y="-8" font-family="FreeSans.ttf" font-size="10.00">vector</text>
</g>
<!-- Node3&#45;&gt;Node17 -->
<g id="edge32" class="edge"><title>Node3&#45;&gt;Node17</title>
<path fill="none" stroke="midnightblue" d="M828.019,-58.8972C838.183,-50.3532 852.959,-37.933 864.917,-27.8813"/>
<polygon fill="midnightblue" stroke="midnightblue" points="867.251,-30.4914 872.654,-21.3776 862.747,-25.133 867.251,-30.4914"/>
</g>
<!-- Node18 -->
<g id="node35" class="node"><title>Node18</title>
<polygon fill="white" stroke="#bfbfbf" points="926,-1 926,-21 994,-21 994,-1 926,-1"/>
<text text-anchor="middle" x="960" y="-8" font-family="FreeSans.ttf" font-size="10.00">arpa/inet.h</text>
</g>
<!-- Node3&#45;&gt;Node18 -->
<g id="edge34" class="edge"><title>Node3&#45;&gt;Node18</title>
<path fill="none" stroke="midnightblue" d="M841.083,-58.8972C864.376,-49.5152 899.273,-35.4593 925.247,-24.9979"/>
<polygon fill="midnightblue" stroke="midnightblue" points="926.753,-28.1644 934.721,-21.1817 924.138,-21.6713 926.753,-28.1644"/>
</g>
<!-- Node19 -->
<g id="node37" class="node"><title>Node19</title>
<polygon fill="white" stroke="#bfbfbf" points="1012,-1 1012,-21 1090,-21 1090,-1 1012,-1"/>
<text text-anchor="middle" x="1051" y="-8" font-family="FreeSans.ttf" font-size="10.00">arpa/telnet.h</text>
</g>
<!-- Node3&#45;&gt;Node19 -->
<g id="edge36" class="edge"><title>Node3&#45;&gt;Node19</title>
<path fill="none" stroke="midnightblue" d="M856.131,-59.0953C896.508,-49.1299 958.828,-33.7489 1002.08,-23.0746"/>
<polygon fill="midnightblue" stroke="midnightblue" points="1002.95,-26.4649 1011.82,-20.6707 1001.27,-19.6689 1002.95,-26.4649"/>
</g>
<!-- Node20 -->
<g id="node39" class="node"><title>Node20</title>
<polygon fill="white" stroke="#bfbfbf" points="1107.5,-1 1107.5,-21 1160.5,-21 1160.5,-1 1107.5,-1"/>
<text text-anchor="middle" x="1134" y="-8" font-family="FreeSans.ttf" font-size="10.00">dirent.h</text>
</g>
<!-- Node3&#45;&gt;Node20 -->
<g id="edge38" class="edge"><title>Node3&#45;&gt;Node20</title>
<path fill="none" stroke="midnightblue" d="M856.19,-64.1278C909.434,-57.2792 1006.38,-43.4465 1097.43,-22.1541"/>
<polygon fill="midnightblue" stroke="midnightblue" points="1098.43,-25.5126 1107.35,-19.7969 1096.82,-18.702 1098.43,-25.5126"/>
</g>
<!-- Node21 -->
<g id="node41" class="node"><title>Node21</title>
<polygon fill="white" stroke="#bfbfbf" points="1178,-1 1178,-21 1226,-21 1226,-1 1178,-1"/>
<text text-anchor="middle" x="1202" y="-8" font-family="FreeSans.ttf" font-size="10.00">dlfcn.h</text>
</g>
<!-- Node3&#45;&gt;Node21 -->
<g id="edge40" class="edge"><title>Node3&#45;&gt;Node21</title>
<path fill="none" stroke="midnightblue" d="M856.146,-66.1438C920.305,-61.0409 1049.92,-48.5268 1168.06,-21.8668"/>
<polygon fill="midnightblue" stroke="midnightblue" points="1169.04,-25.2346 1178,-19.5846 1167.47,-18.4122 1169.04,-25.2346"/>
</g>
<!-- Node22 -->
<g id="node43" class="node"><title>Node22</title>
<polygon fill="white" stroke="#bfbfbf" points="1243.5,-1 1243.5,-21 1294.5,-21 1294.5,-1 1243.5,-1"/>
<text text-anchor="middle" x="1269" y="-8" font-family="FreeSans.ttf" font-size="10.00">errno.h</text>
</g>
<!-- Node3&#45;&gt;Node22 -->
<g id="edge42" class="edge"><title>Node3&#45;&gt;Node22</title>
<path fill="none" stroke="midnightblue" d="M856.002,-67.1933C929.368,-63.3036 1090.35,-52.0944 1233.33,-22.0541"/>
<polygon fill="midnightblue" stroke="midnightblue" points="1234.11,-25.4668 1243.16,-19.9535 1232.65,-18.6215 1234.11,-25.4668"/>
</g>
<!-- Node23 -->
<g id="node45" class="node"><title>Node23</title>
<polygon fill="white" stroke="#bfbfbf" points="1312,-1 1312,-21 1358,-21 1358,-1 1312,-1"/>
<text text-anchor="middle" x="1335" y="-8" font-family="FreeSans.ttf" font-size="10.00">fcntl.h</text>
</g>
<!-- Node3&#45;&gt;Node23 -->
<g id="edge44" class="edge"><title>Node3&#45;&gt;Node23</title>
<path fill="none" stroke="midnightblue" d="M856.26,-68.2987C938.649,-66.1833 1132.32,-57.7212 1301.91,-21.8174"/>
<polygon fill="midnightblue" stroke="midnightblue" points="1302.72,-25.2232 1311.76,-19.6952 1301.25,-18.3803 1302.72,-25.2232"/>
</g>
<!-- Node24 -->
<g id="node47" class="node"><title>Node24</title>
<polygon fill="white" stroke="#bfbfbf" points="1375.5,-1 1375.5,-21 1440.5,-21 1440.5,-1 1375.5,-1"/>
<text text-anchor="middle" x="1408" y="-8" font-family="FreeSans.ttf" font-size="10.00">memory.h</text>
</g>
<!-- Node3&#45;&gt;Node24 -->
<g id="edge46" class="edge"><title>Node3&#45;&gt;Node24</title>
<path fill="none" stroke="midnightblue" d="M856.071,-68.0087C945.862,-65.2687 1170.03,-55.5397 1365.57,-22.011"/>
<polygon fill="midnightblue" stroke="midnightblue" points="1366.19,-25.4548 1375.44,-20.2925 1364.99,-18.5584 1366.19,-25.4548"/>
</g>
<!-- Node25 -->
<g id="node49" class="node"><title>Node25</title>
<polygon fill="white" stroke="#bfbfbf" points="1457.5,-1 1457.5,-21 1510.5,-21 1510.5,-1 1457.5,-1"/>
<text text-anchor="middle" x="1484" y="-8" font-family="FreeSans.ttf" font-size="10.00">netdb.h</text>
</g>
<!-- Node3&#45;&gt;Node25 -->
<g id="edge48" class="edge"><title>Node3&#45;&gt;Node25</title>
<path fill="none" stroke="midnightblue" d="M856.356,-67.2212C973.964,-61.8499 1315.86,-44.8587 1447.21,-21.9278"/>
<polygon fill="midnightblue" stroke="midnightblue" points="1448.21,-25.3031 1457.41,-20.0518 1446.94,-18.4186 1448.21,-25.3031"/>
</g>
<!-- Node26 -->
<g id="node51" class="node"><title>Node26</title>
<polygon fill="white" stroke="#bfbfbf" points="1527.5,-1 1527.5,-21 1590.5,-21 1590.5,-1 1527.5,-1"/>
<text text-anchor="middle" x="1559" y="-8" font-family="FreeSans.ttf" font-size="10.00">sys/stat.h</text>
</g>
<!-- Node3&#45;&gt;Node26 -->
<g id="edge50" class="edge"><title>Node3&#45;&gt;Node26</title>
<path fill="none" stroke="midnightblue" d="M856.137,-67.3825C982.375,-62.1317 1371.14,-44.6736 1517.17,-21.9937"/>
<polygon fill="midnightblue" stroke="midnightblue" points="1517.95,-25.413 1527.25,-20.3518 1516.82,-18.5039 1517.95,-25.413"/>
</g>
<!-- Node27 -->
<g id="node53" class="node"><title>Node27</title>
<polygon fill="white" stroke="#bfbfbf" points="1607.5,-1 1607.5,-21 1662.5,-21 1662.5,-1 1607.5,-1"/>
<text text-anchor="middle" x="1635" y="-8" font-family="FreeSans.ttf" font-size="10.00">unistd.h</text>
</g>
<!-- Node3&#45;&gt;Node27 -->
<g id="edge52" class="edge"><title>Node3&#45;&gt;Node27</title>
<path fill="none" stroke="midnightblue" d="M856.29,-67.8408C992.292,-63.7353 1434.52,-48.7703 1596.96,-21.971"/>
<polygon fill="midnightblue" stroke="midnightblue" points="1598,-25.3442 1607.25,-20.1887 1596.8,-18.447 1598,-25.3442"/>
</g>
<!-- Node33&#45;&gt;Node34 -->
<g id="edge66" class="edge"><title>Node33&#45;&gt;Node34</title>
<path fill="none" stroke="midnightblue" d="M1799.91,-58.8972C1823.04,-49.5152 1857.7,-35.4593 1883.49,-24.9979"/>
<polygon fill="midnightblue" stroke="midnightblue" points="1884.95,-28.1837 1892.9,-21.1817 1882.31,-21.6969 1884.95,-28.1837"/>
</g>
<!-- Node35 -->
<g id="node69" class="node"><title>Node35</title>
<a xlink:href="server_8h.xhtml" target="_top" xlink:title="The Server namespace.">
<polygon fill="white" stroke="black" points="1679.5,-1 1679.5,-21 1734.5,-21 1734.5,-1 1679.5,-1"/>
<text text-anchor="middle" x="1707" y="-8" font-family="FreeSans.ttf" font-size="10.00">server.h</text>
</a>
</g>
<!-- Node33&#45;&gt;Node35 -->
<g id="edge68" class="edge"><title>Node33&#45;&gt;Node35</title>
<path fill="none" stroke="midnightblue" d="M1763.16,-58.8972C1753.14,-50.3532 1738.58,-37.933 1726.79,-27.8813"/>
<polygon fill="midnightblue" stroke="midnightblue" points="1729.05,-25.2042 1719.17,-21.3776 1724.5,-30.53 1729.05,-25.2042"/>
</g>
<!-- Node36 -->
<g id="node71" class="node"><title>Node36</title>
<a xlink:href="telopt_8h.xhtml" target="_top" xlink:title="The telopt namespace.">
<polygon fill="white" stroke="black" points="1751.5,-1 1751.5,-21 1804.5,-21 1804.5,-1 1751.5,-1"/>
<text text-anchor="middle" x="1778" y="-8" font-family="FreeSans.ttf" font-size="10.00">telopt.h</text>
</a>
</g>
<!-- Node33&#45;&gt;Node36 -->
<g id="edge70" class="edge"><title>Node33&#45;&gt;Node36</title>
<path fill="none" stroke="midnightblue" d="M1775.52,-58.8972C1775.91,-51.339 1776.46,-40.7476 1776.94,-31.4458"/>
<polygon fill="midnightblue" stroke="midnightblue" points="1780.44,-31.5451 1777.46,-21.3776 1773.45,-31.1834 1780.44,-31.5451"/>
</g>
<!-- Node37 -->
<g id="node73" class="node"><title>Node37</title>
<a xlink:href="utils_8h.xhtml" target="_top" xlink:title="The Utils namespace.">
<polygon fill="white" stroke="black" points="1821.5,-1 1821.5,-21 1866.5,-21 1866.5,-1 1821.5,-1"/>
<text text-anchor="middle" x="1844" y="-8" font-family="FreeSans.ttf" font-size="10.00">utils.h</text>
</a>
</g>
<!-- Node33&#45;&gt;Node37 -->
<g id="edge72" class="edge"><title>Node33&#45;&gt;Node37</title>
<path fill="none" stroke="midnightblue" d="M1787.02,-58.8972C1797.18,-50.3532 1811.96,-37.933 1823.92,-27.8813"/>
<polygon fill="midnightblue" stroke="midnightblue" points="1826.25,-30.4914 1831.65,-21.3776 1821.75,-25.133 1826.25,-30.4914"/>
</g>
<!-- Node41 -->
<g id="node82" class="node"><title>Node41</title>
<a xlink:href="thing_8h.xhtml" target="_top" xlink:title="The Thing class.">
<polygon fill="white" stroke="black" points="2463,-59 2463,-79 2513,-79 2513,-59 2463,-59"/>
<text text-anchor="middle" x="2488" y="-66" font-family="FreeSans.ttf" font-size="10.00">thing.h</text>
</a>
</g>
<!-- Node40&#45;&gt;Node41 -->
<g id="edge82" class="edge"><title>Node40&#45;&gt;Node41</title>
<path fill="none" stroke="midnightblue" d="M2118.05,-117.696C2121.07,-117.09 2124.08,-116.517 2127,-116 2245.79,-94.9786 2388.13,-79.176 2452.86,-72.4962"/>
<polygon fill="midnightblue" stroke="midnightblue" points="2453.34,-75.9655 2462.93,-71.4661 2452.63,-69.0018 2453.34,-75.9655"/>
</g>
<!-- Node46&#45;&gt;Node41 -->
<g id="edge94" class="edge"><title>Node46&#45;&gt;Node41</title>
<path fill="none" stroke="midnightblue" d="M2488,-116.897C2488,-109.339 2488,-98.7476 2488,-89.4458"/>
<polygon fill="midnightblue" stroke="midnightblue" points="2491.5,-89.3776 2488,-79.3776 2484.5,-89.3776 2491.5,-89.3776"/>
</g>
<!-- Node47&#45;&gt;Node41 -->
<g id="edge98" class="edge"><title>Node47&#45;&gt;Node41</title>
<path fill="none" stroke="midnightblue" d="M2559.02,-116.897C2545.91,-108.052 2526.63,-95.0539 2511.47,-84.829"/>
<polygon fill="midnightblue" stroke="midnightblue" points="2513.34,-81.8714 2503.1,-79.1817 2509.43,-87.6749 2513.34,-81.8714"/>
</g>
<!-- Node49 -->
<g id="node100" class="node"><title>Node49</title>
<a xlink:href="socket_8h.xhtml" target="_top" xlink:title="The Socket class.">
<polygon fill="white" stroke="black" points="2641.5,-59 2641.5,-79 2698.5,-79 2698.5,-59 2641.5,-59"/>
<text text-anchor="middle" x="2670" y="-66" font-family="FreeSans.ttf" font-size="10.00">socket.h</text>
</a>
</g>
<!-- Node48&#45;&gt;Node49 -->
<g id="edge102" class="edge"><title>Node48&#45;&gt;Node49</title>
<path fill="none" stroke="midnightblue" d="M2670,-116.897C2670,-109.339 2670,-98.7476 2670,-89.4458"/>
<polygon fill="midnightblue" stroke="midnightblue" points="2673.5,-89.3776 2670,-79.3776 2666.5,-89.3776 2673.5,-89.3776"/>
</g>
</g>
</svg>
        <g id="navigator" transform="translate(0 0)" fill="#404254">
                <rect fill="#f2f5e9" fill-opacity="0.5" stroke="#606060" stroke-width=".5" x="0" y="0" width="60" height="60"/>
                <use id="zoomplus" xlink:href="#zoomPlus" x="17" y="9" onmousedown="handleZoom(evt,'in')"/>
                <use id="zoomminus" xlink:href="#zoomMin" x="42" y="9" onmousedown="handleZoom(evt,'out')"/>
                <use id="reset" xlink:href="#resetDef" x="30" y="36" onmousedown="handleReset()"/>
                <g id="arrowUp" xlink:href="#dirArrow" transform="translate(30 24)" onmousedown="handlePan(0,-1)">
                  <use xlink:href="#rim" fill="#404040">
                        <set attributeName="fill" to="#808080" begin="arrowUp.mouseover" end="arrowUp.mouseout"/>
                  </use>
                  <path fill="none" stroke="white" stroke-width="1.5" d="M0,-3.0v7 M-2.5,-0.5L0,-3.0L2.5,-0.5"/>
                </g>
                <g id="arrowRight" xlink:href="#dirArrow" transform="rotate(90) translate(36 -43)" onmousedown="handlePan(1,0)">
                  <use xlink:href="#rim" fill="#404040">
                        <set attributeName="fill" to="#808080" begin="arrowRight.mouseover" end="arrowRight.mouseout"/>
                  </use>
                  <path fill="none" stroke="white" stroke-width="1.5" d="M0,-3.0v7 M-2.5,-0.5L0,-3.0L2.5,-0.5"/>
                </g>
                <g id="arrowDown" xlink:href="#dirArrow" transform="rotate(180) translate(-30 -48)" onmousedown="handlePan(0,1)">
                  <use xlink:href="#rim" fill="#404040">
                        <set attributeName="fill" to="#808080" begin="arrowDown.mouseover" end="arrowDown.mouseout"/>
                  </use>
                  <path fill="none" stroke="white" stroke-width="1.5" d="M0,-3.0v7 M-2.5,-0.5L0,-3.0L2.5,-0.5"/>
                </g>
                <g id="arrowLeft" xlink:href="#dirArrow" transform="rotate(270) translate(-36 17)" onmousedown="handlePan(-1,0)">
                  <use xlink:href="#rim" fill="#404040">
                        <set attributeName="fill" to="#808080" begin="arrowLeft.mouseover" end="arrowLeft.mouseout"/>
                  </use>
                  <path fill="none" stroke="white" stroke-width="1.5" d="M0,-3.0v7 M-2.5,-0.5L0,-3.0L2.5,-0.5"/>
                </g>
        </g>
        <svg viewBox="0 0 15 15" width="100%" height="30px" preserveAspectRatio="xMaxYMin meet">
         <g id="arrow_out" transform="scale(0.3 0.3)">
          <a xlink:href="handler_8cpp__incl_org.svg" target="_base">
           <rect id="button" ry="5" rx="5" y="6" x="6" height="38" width="38"
                fill="#f2f5e9" fill-opacity="0.5" stroke="#606060" stroke-width="1.0"/>
           <path id="arrow"
             d="M 11.500037,31.436501 C 11.940474,20.09759 22.043105,11.32322 32.158766,21.979434 L 37.068811,17.246167 C 37.068811,17.246167 37.088388,32 37.088388,32 L 22.160133,31.978069 C 22.160133,31.978069 26.997745,27.140456 26.997745,27.140456 C 18.528582,18.264221 13.291696,25.230495 11.500037,31.436501 z"
             style="fill:#404040;"/>
          </a>
         </g>
        </svg>
</svg>
