<?xml version="1.0" encoding="UTF-8" standalone="no"?>
<!DOCTYPE svg PUBLIC "-//W3C//DTD SVG 1.1//EN"
 "http://www.w3.org/Graphics/SVG/1.1/DTD/svg11.dtd">
<!-- Generated by graphviz version 2.26.3 (20100126.1600)
 -->
<!-- Title: G Pages: 1 -->
<!--zoomable 146 -->
<svg id="main" version="1.1" xmlns="http://www.w3.org/2000/svg" xmlns:xlink="http://www.w3.org/1999/xlink" xml:space="preserve" onload="init(evt)">
        <defs>
                <circle id="rim" cx="0" cy="0" r="7"/>
                <circle id="rim2" cx="0" cy="0" r="3.5"/>
                <g id="zoomPlus">
                        <use xlink:href="#rim" fill="#404040">
                                <set attributeName="fill" to="#808080" begin="zoomplus.mouseover" end="zoomplus.mouseout"/>
                        </use>
                        <path d="M-4,0h8M0,-4v8" fill="none" stroke="white" stroke-width="1.5" pointer-events="none"/>
                </g>
                <g id="zoomMin">
                        <use xlink:href="#rim" fill="#404040">
                                <set attributeName="fill" to="#808080" begin="zoomminus.mouseover" end="zoomminus.mouseout"/>
                        </use>
                        <path d="M-4,0h8" fill="none" stroke="white" stroke-width="1.5" pointer-events="none"/>
                </g>
                <g id="dirArrow">
                        <path fill="none" stroke="white" stroke-width="1.5" d="M0,-3.0v7 M-2.5,-0.5L0,-3.0L2.5,-0.5"/>
                </g>
               <g id="resetDef">
                       <use xlink:href="#rim2" fill="#404040">
                               <set attributeName="fill" to="#808080" begin="reset.mouseover" end="reset.mouseout"/>
                       </use>
               </g>
        </defs>

<script type="text/javascript">
var viewWidth = 1206;
var viewHeight = 146;
var sectionId = 'dynsection-0';
</script>
<script xlink:href="svgpan.js"/>
<svg id="graph" class="graph">
<g id="viewport">
<title>G</title>
<polygon fill="white" stroke="white" points="-4,5 -4,-142 1203,-142 1203,5 -4,5"/>
<!-- Node1 -->
<g id="node1" class="node"><title>Node1</title>
<polygon fill="#bfbfbf" stroke="black" points="615,-116.5 615,-137.5 689,-137.5 689,-116.5 615,-116.5"/>
<text text-anchor="middle" x="652" y="-124.5" font-family="FreeSans.ttf" font-size="10.00">h/includes.h</text>
</g>
<!-- Node2 -->
<g id="node3" class="node"><title>Node2</title>
<a xlink:href="sysincludes_8h.xhtml" target="_top" xlink:title="All system standard includes that are used within NAMS.">
<polygon fill="white" stroke="black" points="233,-58.5 233,-79.5 313,-79.5 313,-58.5 233,-58.5"/>
<text text-anchor="middle" x="273" y="-66.5" font-family="FreeSans.ttf" font-size="10.00">sysincludes.h</text>
</a>
</g>
<!-- Node1&#45;&gt;Node2 -->
<g id="edge2" class="edge"><title>Node1&#45;&gt;Node2</title>
<path fill="none" stroke="midnightblue" d="M614.97,-121.333C546.518,-110.858 400.15,-88.4583 322.984,-76.6492"/>
<polygon fill="midnightblue" stroke="midnightblue" points="323.436,-73.1778 313.022,-75.1247 322.377,-80.0973 323.436,-73.1778"/>
</g>
<!-- Node10 -->
<g id="node19" class="node"><title>Node10</title>
<a xlink:href="limits_8h.xhtml" target="_top" xlink:title="Custom defined numeric types and system limits.">
<polygon fill="white" stroke="black" points="515.5,-58.5 515.5,-79.5 566.5,-79.5 566.5,-58.5 515.5,-58.5"/>
<text text-anchor="middle" x="541" y="-66.5" font-family="FreeSans.ttf" font-size="10.00">limits.h</text>
</a>
</g>
<!-- Node1&#45;&gt;Node10 -->
<g id="edge18" class="edge"><title>Node1&#45;&gt;Node10</title>
<path fill="none" stroke="midnightblue" d="M631.899,-116.497C614.718,-107.519 589.77,-94.4835 570.355,-84.3387"/>
<polygon fill="midnightblue" stroke="midnightblue" points="571.811,-81.1503 561.327,-79.6212 568.569,-87.3544 571.811,-81.1503"/>
</g>
<!-- Node12 -->
<g id="node23" class="node"><title>Node12</title>
<a xlink:href="macros_8h.xhtml" target="_top" xlink:title="All pre&#45;processor macros within NAMS and select reference values.">
<polygon fill="white" stroke="black" points="584,-58.5 584,-79.5 646,-79.5 646,-58.5 584,-58.5"/>
<text text-anchor="middle" x="615" y="-66.5" font-family="FreeSans.ttf" font-size="10.00">macros.h</text>
</a>
</g>
<!-- Node1&#45;&gt;Node12 -->
<g id="edge22" class="edge"><title>Node1&#45;&gt;Node12</title>
<path fill="none" stroke="midnightblue" d="M645.214,-116.362C640.207,-108.513 633.255,-97.6159 627.282,-88.2527"/>
<polygon fill="midnightblue" stroke="midnightblue" points="630.072,-86.1189 621.743,-79.5707 624.171,-89.8837 630.072,-86.1189"/>
</g>
<!-- Node13 -->
<g id="node25" class="node"><title>Node13</title>
<a xlink:href="enum_8h.xhtml" target="_top" xlink:title="All numerical and boolean defines for every class and namespace.">
<polygon fill="white" stroke="black" points="663.5,-58.5 663.5,-79.5 716.5,-79.5 716.5,-58.5 663.5,-58.5"/>
<text text-anchor="middle" x="690" y="-66.5" font-family="FreeSans.ttf" font-size="10.00">enum.h</text>
</a>
</g>
<!-- Node1&#45;&gt;Node13 -->
<g id="edge24" class="edge"><title>Node1&#45;&gt;Node13</title>
<path fill="none" stroke="midnightblue" d="M658.97,-116.362C664.166,-108.431 671.401,-97.3885 677.578,-87.9606"/>
<polygon fill="midnightblue" stroke="midnightblue" points="680.522,-89.8534 683.074,-79.5707 674.666,-86.0172 680.522,-89.8534"/>
</g>
<!-- Node14 -->
<g id="node27" class="node"><title>Node14</title>
<a xlink:href="config_8h.xhtml" target="_top" xlink:title="NAMS configuration options.">
<polygon fill="white" stroke="black" points="734,-58.5 734,-79.5 788,-79.5 788,-58.5 734,-58.5"/>
<text text-anchor="middle" x="761" y="-66.5" font-family="FreeSans.ttf" font-size="10.00">config.h</text>
</a>
</g>
<!-- Node1&#45;&gt;Node14 -->
<g id="edge26" class="edge"><title>Node1&#45;&gt;Node14</title>
<path fill="none" stroke="midnightblue" d="M671.739,-116.497C688.61,-107.519 713.109,-94.4835 732.174,-84.3387"/>
<polygon fill="midnightblue" stroke="midnightblue" points="733.856,-87.4086 741.039,-79.6212 730.567,-81.2289 733.856,-87.4086"/>
</g>
<!-- Node15 -->
<g id="node29" class="node"><title>Node15</title>
<a xlink:href="utils_8h.xhtml" target="_top" xlink:title="The Utils namespace.">
<polygon fill="white" stroke="black" points="828.5,-58.5 828.5,-79.5 873.5,-79.5 873.5,-58.5 828.5,-58.5"/>
<text text-anchor="middle" x="851" y="-66.5" font-family="FreeSans.ttf" font-size="10.00">utils.h</text>
</a>
</g>
<!-- Node1&#45;&gt;Node15 -->
<g id="edge28" class="edge"><title>Node1&#45;&gt;Node15</title>
<path fill="none" stroke="midnightblue" d="M688.037,-116.497C725.144,-105.682 782.461,-88.9761 818.297,-78.5314"/>
<polygon fill="midnightblue" stroke="midnightblue" points="819.621,-81.7914 828.242,-75.633 817.662,-75.071 819.621,-81.7914"/>
</g>
<!-- Node3 -->
<g id="node5" class="node"><title>Node3</title>
<polygon fill="white" stroke="#bfbfbf" points="0,-0.5 0,-21.5 62,-21.5 62,-0.5 0,-0.5"/>
<text text-anchor="middle" x="31" y="-8.5" font-family="FreeSans.ttf" font-size="10.00">algorithm</text>
</g>
<!-- Node2&#45;&gt;Node3 -->
<g id="edge4" class="edge"><title>Node2&#45;&gt;Node3</title>
<path fill="none" stroke="midnightblue" d="M232.644,-60.1062C193.861,-51.4488 133.374,-37.6586 72.2277,-22.2512"/>
<polygon fill="midnightblue" stroke="midnightblue" points="72.9649,-18.8274 62.4116,-19.765 71.2462,-25.6132 72.9649,-18.8274"/>
</g>
<!-- Node4 -->
<g id="node7" class="node"><title>Node4</title>
<polygon fill="white" stroke="#bfbfbf" points="80,-0.5 80,-21.5 118,-21.5 118,-0.5 80,-0.5"/>
<text text-anchor="middle" x="99" y="-8.5" font-family="FreeSans.ttf" font-size="10.00">map</text>
</g>
<!-- Node2&#45;&gt;Node4 -->
<g id="edge6" class="edge"><title>Node2&#45;&gt;Node4</title>
<path fill="none" stroke="midnightblue" d="M238.28,-58.4974C210.599,-49.9746 170.668,-37.3487 127.719,-22.1264"/>
<polygon fill="midnightblue" stroke="midnightblue" points="128.814,-18.8011 118.22,-18.7342 126.46,-25.3934 128.814,-18.8011"/>
</g>
<!-- Node5 -->
<g id="node9" class="node"><title>Node5</title>
<polygon fill="white" stroke="#bfbfbf" points="135.5,-0.5 135.5,-21.5 182.5,-21.5 182.5,-0.5 135.5,-0.5"/>
<text text-anchor="middle" x="159" y="-8.5" font-family="FreeSans.ttf" font-size="10.00">vector</text>
</g>
<!-- Node2&#45;&gt;Node5 -->
<g id="edge8" class="edge"><title>Node2&#45;&gt;Node5</title>
<path fill="none" stroke="midnightblue" d="M252.355,-58.4966C234.63,-49.4786 208.855,-36.3649 188.877,-26.2006"/>
<polygon fill="midnightblue" stroke="midnightblue" points="190.376,-23.0364 179.876,-21.6212 187.202,-29.2753 190.376,-23.0364"/>
</g>
<!-- Node6 -->
<g id="node11" class="node"><title>Node6</title>
<polygon fill="white" stroke="#bfbfbf" points="200,-0.5 200,-21.5 268,-21.5 268,-0.5 200,-0.5"/>
<text text-anchor="middle" x="234" y="-8.5" font-family="FreeSans.ttf" font-size="10.00">arpa/inet.h</text>
</g>
<!-- Node2&#45;&gt;Node6 -->
<g id="edge10" class="edge"><title>Node2&#45;&gt;Node6</title>
<path fill="none" stroke="midnightblue" d="M265.847,-58.3619C260.514,-50.4313 253.089,-39.3885 246.749,-29.9606"/>
<polygon fill="midnightblue" stroke="midnightblue" points="249.592,-27.9161 241.108,-21.5707 243.783,-31.8221 249.592,-27.9161"/>
</g>
<!-- Node7 -->
<g id="node13" class="node"><title>Node7</title>
<polygon fill="white" stroke="#bfbfbf" points="285.5,-0.5 285.5,-21.5 336.5,-21.5 336.5,-0.5 285.5,-0.5"/>
<text text-anchor="middle" x="311" y="-8.5" font-family="FreeSans.ttf" font-size="10.00">errno.h</text>
</g>
<!-- Node2&#45;&gt;Node7 -->
<g id="edge12" class="edge"><title>Node2&#45;&gt;Node7</title>
<path fill="none" stroke="midnightblue" d="M279.97,-58.3619C285.166,-50.4313 292.401,-39.3885 298.578,-29.9606"/>
<polygon fill="midnightblue" stroke="midnightblue" points="301.522,-31.8534 304.074,-21.5707 295.666,-28.0172 301.522,-31.8534"/>
</g>
<!-- Node8 -->
<g id="node15" class="node"><title>Node8</title>
<polygon fill="white" stroke="#bfbfbf" points="353.5,-0.5 353.5,-21.5 418.5,-21.5 418.5,-0.5 353.5,-0.5"/>
<text text-anchor="middle" x="386" y="-8.5" font-family="FreeSans.ttf" font-size="10.00">memory.h</text>
</g>
<!-- Node2&#45;&gt;Node8 -->
<g id="edge14" class="edge"><title>Node2&#45;&gt;Node8</title>
<path fill="none" stroke="midnightblue" d="M293.463,-58.4966C311.033,-49.4786 336.582,-36.3649 356.385,-26.2006"/>
<polygon fill="midnightblue" stroke="midnightblue" points="358.009,-29.3014 365.307,-21.6212 354.812,-23.0738 358.009,-29.3014"/>
</g>
<!-- Node9 -->
<g id="node17" class="node"><title>Node9</title>
<polygon fill="white" stroke="#bfbfbf" points="436,-0.5 436,-21.5 502,-21.5 502,-0.5 436,-0.5"/>
<text text-anchor="middle" x="469" y="-8.5" font-family="FreeSans.ttf" font-size="10.00">sys/time.h</text>
</g>
<!-- Node2&#45;&gt;Node9 -->
<g id="edge16" class="edge"><title>Node2&#45;&gt;Node9</title>
<path fill="none" stroke="midnightblue" d="M308.494,-58.4966C341.427,-48.7512 390.523,-34.2229 425.737,-23.8023"/>
<polygon fill="midnightblue" stroke="midnightblue" points="427.135,-27.0388 435.73,-20.8451 425.148,-20.3265 427.135,-27.0388"/>
</g>
<!-- Node11 -->
<g id="node21" class="node"><title>Node11</title>
<polygon fill="white" stroke="#bfbfbf" points="520,-0.5 520,-21.5 562,-21.5 562,-0.5 520,-0.5"/>
<text text-anchor="middle" x="541" y="-8.5" font-family="FreeSans.ttf" font-size="10.00">limits</text>
</g>
<!-- Node10&#45;&gt;Node11 -->
<g id="edge20" class="edge"><title>Node10&#45;&gt;Node11</title>
<path fill="none" stroke="midnightblue" d="M541,-58.3619C541,-50.9219 541,-40.7427 541,-31.7276"/>
<polygon fill="midnightblue" stroke="midnightblue" points="544.5,-31.5706 541,-21.5707 537.5,-31.5707 544.5,-31.5706"/>
</g>
<!-- Node16 -->
<g id="node31" class="node"><title>Node16</title>
<polygon fill="white" stroke="#bfbfbf" points="580,-0.5 580,-21.5 624,-21.5 624,-0.5 580,-0.5"/>
<text text-anchor="middle" x="602" y="-8.5" font-family="FreeSans.ttf" font-size="10.00">bitset</text>
</g>
<!-- Node15&#45;&gt;Node16 -->
<g id="edge30" class="edge"><title>Node15&#45;&gt;Node16</title>
<path fill="none" stroke="midnightblue" d="M828.117,-64.2409C780.828,-54.3831 673.972,-31.9836 634.135,-21.924"/>
<polygon fill="midnightblue" stroke="midnightblue" points="634.805,-18.4803 624.24,-19.2776 632.997,-25.2426 634.805,-18.4803"/>
</g>
<!-- Node17 -->
<g id="node33" class="node"><title>Node17</title>
<polygon fill="white" stroke="#bfbfbf" points="641.5,-0.5 641.5,-21.5 694.5,-21.5 694.5,-0.5 641.5,-0.5"/>
<text text-anchor="middle" x="668" y="-8.5" font-family="FreeSans.ttf" font-size="10.00">cstdarg</text>
</g>
<!-- Node15&#45;&gt;Node17 -->
<g id="edge32" class="edge"><title>Node15&#45;&gt;Node17</title>
<path fill="none" stroke="midnightblue" d="M828.193,-61.7715C797.19,-51.9454 741.391,-34.2607 704.521,-22.575"/>
<polygon fill="midnightblue" stroke="midnightblue" points="705.25,-19.1346 694.66,-19.4497 703.135,-25.8075 705.25,-19.1346"/>
</g>
<!-- Node18 -->
<g id="node35" class="node"><title>Node18</title>
<polygon fill="white" stroke="#bfbfbf" points="711.5,-0.5 711.5,-21.5 756.5,-21.5 756.5,-0.5 711.5,-0.5"/>
<text text-anchor="middle" x="734" y="-8.5" font-family="FreeSans.ttf" font-size="10.00">cstdio</text>
</g>
<!-- Node15&#45;&gt;Node18 -->
<g id="edge34" class="edge"><title>Node15&#45;&gt;Node18</title>
<path fill="none" stroke="midnightblue" d="M829.812,-58.4966C811.538,-49.4378 784.928,-36.2462 764.385,-26.0628"/>
<polygon fill="midnightblue" stroke="midnightblue" points="765.94,-22.9269 755.426,-21.6212 762.831,-29.1986 765.94,-22.9269"/>
</g>
<!-- Node19 -->
<g id="node37" class="node"><title>Node19</title>
<polygon fill="white" stroke="#bfbfbf" points="774,-0.5 774,-21.5 828,-21.5 828,-0.5 774,-0.5"/>
<text text-anchor="middle" x="801" y="-8.5" font-family="FreeSans.ttf" font-size="10.00">fstream</text>
</g>
<!-- Node15&#45;&gt;Node19 -->
<g id="edge36" class="edge"><title>Node15&#45;&gt;Node19</title>
<path fill="none" stroke="midnightblue" d="M841.829,-58.3619C834.852,-50.2678 825.079,-38.9318 816.844,-29.3796"/>
<polygon fill="midnightblue" stroke="midnightblue" points="819.293,-26.8595 810.113,-21.5707 813.991,-31.4301 819.293,-26.8595"/>
</g>
<!-- Node20 -->
<g id="node39" class="node"><title>Node20</title>
<polygon fill="white" stroke="#bfbfbf" points="845.5,-0.5 845.5,-21.5 904.5,-21.5 904.5,-0.5 845.5,-0.5"/>
<text text-anchor="middle" x="875" y="-8.5" font-family="FreeSans.ttf" font-size="10.00">iostream</text>
</g>
<!-- Node15&#45;&gt;Node20 -->
<g id="edge38" class="edge"><title>Node15&#45;&gt;Node20</title>
<path fill="none" stroke="midnightblue" d="M855.402,-58.3619C858.582,-50.6766 862.972,-40.0686 866.79,-30.8399"/>
<polygon fill="midnightblue" stroke="midnightblue" points="870.036,-32.1491 870.626,-21.5707 863.568,-29.4726 870.036,-32.1491"/>
</g>
<!-- Node21 -->
<g id="node41" class="node"><title>Node21</title>
<polygon fill="white" stroke="#bfbfbf" points="922,-0.5 922,-21.5 974,-21.5 974,-0.5 922,-0.5"/>
<text text-anchor="middle" x="948" y="-8.5" font-family="FreeSans.ttf" font-size="10.00">iterator</text>
</g>
<!-- Node15&#45;&gt;Node21 -->
<g id="edge40" class="edge"><title>Node15&#45;&gt;Node21</title>
<path fill="none" stroke="midnightblue" d="M868.791,-58.3619C883.559,-49.532 904.778,-36.844 921.538,-26.8224"/>
<polygon fill="midnightblue" stroke="midnightblue" points="923.535,-29.7066 930.321,-21.5707 919.943,-23.6987 923.535,-29.7066"/>
</g>
<!-- Node22 -->
<g id="node43" class="node"><title>Node22</title>
<polygon fill="white" stroke="#bfbfbf" points="992,-0.5 992,-21.5 1048,-21.5 1048,-0.5 992,-0.5"/>
<text text-anchor="middle" x="1020" y="-8.5" font-family="FreeSans.ttf" font-size="10.00">sstream</text>
</g>
<!-- Node15&#45;&gt;Node22 -->
<g id="edge42" class="edge"><title>Node15&#45;&gt;Node22</title>
<path fill="none" stroke="midnightblue" d="M873.792,-61.1779C901.553,-51.6503 948.853,-35.4173 982.12,-24.0002"/>
<polygon fill="midnightblue" stroke="midnightblue" points="983.634,-27.1809 991.957,-20.6243 981.362,-20.56 983.634,-27.1809"/>
</g>
<!-- Node23 -->
<g id="node45" class="node"><title>Node23</title>
<polygon fill="white" stroke="#bfbfbf" points="1065.5,-0.5 1065.5,-21.5 1118.5,-21.5 1118.5,-0.5 1065.5,-0.5"/>
<text text-anchor="middle" x="1092" y="-8.5" font-family="FreeSans.ttf" font-size="10.00">dirent.h</text>
</g>
<!-- Node15&#45;&gt;Node23 -->
<g id="edge44" class="edge"><title>Node15&#45;&gt;Node23</title>
<path fill="none" stroke="midnightblue" d="M873.704,-64.442C910.101,-57.0024 983.936,-41.3683 1055.27,-22.3374"/>
<polygon fill="midnightblue" stroke="midnightblue" points="1056.57,-25.612 1065.31,-19.63 1054.75,-18.8532 1056.57,-25.612"/>
</g>
<!-- Node24 -->
<g id="node47" class="node"><title>Node24</title>
<polygon fill="white" stroke="#bfbfbf" points="1135.5,-0.5 1135.5,-21.5 1198.5,-21.5 1198.5,-0.5 1135.5,-0.5"/>
<text text-anchor="middle" x="1167" y="-8.5" font-family="FreeSans.ttf" font-size="10.00">sys/stat.h</text>
</g>
<!-- Node15&#45;&gt;Node24 -->
<g id="edge46" class="edge"><title>Node15&#45;&gt;Node24</title>
<path fill="none" stroke="midnightblue" d="M873.687,-65.9189C919.519,-59.5289 1026.56,-43.7656 1125.36,-22.2251"/>
<polygon fill="midnightblue" stroke="midnightblue" points="1126.18,-25.6266 1135.19,-20.0541 1124.68,-18.791 1126.18,-25.6266"/>
</g>
</g>
</svg>
        <g id="navigator" transform="translate(0 0)" fill="#404254">
                <rect fill="#f2f5e9" fill-opacity="0.5" stroke="#606060" stroke-width=".5" x="0" y="0" width="60" height="60"/>
                <use id="zoomplus" xlink:href="#zoomPlus" x="17" y="9" onmousedown="handleZoom(evt,'in')"/>
                <use id="zoomminus" xlink:href="#zoomMin" x="42" y="9" onmousedown="handleZoom(evt,'out')"/>
                <use id="reset" xlink:href="#resetDef" x="30" y="36" onmousedown="handleReset()"/>
                <g id="arrowUp" xlink:href="#dirArrow" transform="translate(30 24)" onmousedown="handlePan(0,-1)">
                  <use xlink:href="#rim" fill="#404040">
                        <set attributeName="fill" to="#808080" begin="arrowUp.mouseover" end="arrowUp.mouseout"/>
                  </use>
                  <path fill="none" stroke="white" stroke-width="1.5" d="M0,-3.0v7 M-2.5,-0.5L0,-3.0L2.5,-0.5"/>
                </g>
                <g id="arrowRight" xlink:href="#dirArrow" transform="rotate(90) translate(36 -43)" onmousedown="handlePan(1,0)">
                  <use xlink:href="#rim" fill="#404040">
                        <set attributeName="fill" to="#808080" begin="arrowRight.mouseover" end="arrowRight.mouseout"/>
                  </use>
                  <path fill="none" stroke="white" stroke-width="1.5" d="M0,-3.0v7 M-2.5,-0.5L0,-3.0L2.5,-0.5"/>
                </g>
                <g id="arrowDown" xlink:href="#dirArrow" transform="rotate(180) translate(-30 -48)" onmousedown="handlePan(0,1)">
                  <use xlink:href="#rim" fill="#404040">
                        <set attributeName="fill" to="#808080" begin="arrowDown.mouseover" end="arrowDown.mouseout"/>
                  </use>
                  <path fill="none" stroke="white" stroke-width="1.5" d="M0,-3.0v7 M-2.5,-0.5L0,-3.0L2.5,-0.5"/>
                </g>
                <g id="arrowLeft" xlink:href="#dirArrow" transform="rotate(270) translate(-36 17)" onmousedown="handlePan(-1,0)">
                  <use xlink:href="#rim" fill="#404040">
                        <set attributeName="fill" to="#808080" begin="arrowLeft.mouseover" end="arrowLeft.mouseout"/>
                  </use>
                  <path fill="none" stroke="white" stroke-width="1.5" d="M0,-3.0v7 M-2.5,-0.5L0,-3.0L2.5,-0.5"/>
                </g>
        </g>
</svg>
