<?xml version="1.0" encoding="UTF-8" standalone="no"?>
<!DOCTYPE svg PUBLIC "-//W3C//DTD SVG 1.1//EN"
 "http://www.w3.org/Graphics/SVG/1.1/DTD/svg11.dtd">
<!-- Generated by graphviz version 2.26.3 (20100126.1600)
 -->
<!-- Title: G Pages: 1 -->
<!--zoomable 204 -->
<svg id="main" version="1.1" xmlns="http://www.w3.org/2000/svg" xmlns:xlink="http://www.w3.org/1999/xlink" xml:space="preserve" onload="init(evt)">
        <defs>
                <circle id="rim" cx="0" cy="0" r="7"/>
                <circle id="rim2" cx="0" cy="0" r="3.5"/>
                <g id="zoomPlus">
                        <use xlink:href="#rim" fill="#404040">
                                <set attributeName="fill" to="#808080" begin="zoomplus.mouseover" end="zoomplus.mouseout"/>
                        </use>
                        <path d="M-4,0h8M0,-4v8" fill="none" stroke="white" stroke-width="1.5" pointer-events="none"/>
                </g>
                <g id="zoomMin">
                        <use xlink:href="#rim" fill="#404040">
                                <set attributeName="fill" to="#808080" begin="zoomminus.mouseover" end="zoomminus.mouseout"/>
                        </use>
                        <path d="M-4,0h8" fill="none" stroke="white" stroke-width="1.5" pointer-events="none"/>
                </g>
                <g id="dirArrow">
                        <path fill="none" stroke="white" stroke-width="1.5" d="M0,-3.0v7 M-2.5,-0.5L0,-3.0L2.5,-0.5"/>
                </g>
               <g id="resetDef">
                       <use xlink:href="#rim2" fill="#404040">
                               <set attributeName="fill" to="#808080" begin="reset.mouseover" end="reset.mouseout"/>
                       </use>
               </g>
        </defs>

<script type="text/javascript">
var viewWidth = 1482;
var viewHeight = 204;
var sectionId = 'dynsection-0';
</script>
<script xlink:href="svgpan.js"/>
<svg id="graph" class="graph">
<g id="viewport">
<title>G</title>
<polygon fill="white" stroke="white" points="-4,5 -4,-200 1479,-200 1479,5 -4,5"/>
<!-- Node1 -->
<g id="node1" class="node"><title>Node1</title>
<polygon fill="#bfbfbf" stroke="black" points="567,-174.5 567,-195.5 641,-195.5 641,-174.5 567,-174.5"/>
<text text-anchor="middle" x="604" y="-182.5" font-family="FreeSans.ttf" font-size="10.00">h/includes.h</text>
</g>
<!-- Node2 -->
<g id="node3" class="node"><title>Node2</title>
<a xlink:href="sysincludes_8h.xhtml" target="_top" xlink:title="All system standard includes that are used within NAMS.">
<polygon fill="white" stroke="black" points="235,-116.5 235,-137.5 315,-137.5 315,-116.5 235,-116.5"/>
<text text-anchor="middle" x="275" y="-124.5" font-family="FreeSans.ttf" font-size="10.00">sysincludes.h</text>
</a>
</g>
<!-- Node1&#45;&gt;Node2 -->
<g id="edge2" class="edge"><title>Node1&#45;&gt;Node2</title>
<path fill="none" stroke="midnightblue" d="M566.899,-178.459C507.718,-168.026 391.855,-147.601 325.28,-135.864"/>
<polygon fill="midnightblue" stroke="midnightblue" points="325.491,-132.347 315.035,-134.058 324.275,-139.241 325.491,-132.347"/>
</g>
<!-- Node11 -->
<g id="node21" class="node"><title>Node11</title>
<a xlink:href="limits_8h.xhtml" target="_top" xlink:title="Custom defined numeric types and system limits.">
<polygon fill="white" stroke="black" points="467.5,-116.5 467.5,-137.5 518.5,-137.5 518.5,-116.5 467.5,-116.5"/>
<text text-anchor="middle" x="493" y="-124.5" font-family="FreeSans.ttf" font-size="10.00">limits.h</text>
</a>
</g>
<!-- Node1&#45;&gt;Node11 -->
<g id="edge20" class="edge"><title>Node1&#45;&gt;Node11</title>
<path fill="none" stroke="midnightblue" d="M583.899,-174.497C566.718,-165.519 541.77,-152.484 522.355,-142.339"/>
<polygon fill="midnightblue" stroke="midnightblue" points="523.811,-139.15 513.327,-137.621 520.569,-145.354 523.811,-139.15"/>
</g>
<!-- Node13 -->
<g id="node25" class="node"><title>Node13</title>
<a xlink:href="macros_8h.xhtml" target="_top" xlink:title="All pre&#45;processor macros within NAMS and select reference values.">
<polygon fill="white" stroke="black" points="536,-116.5 536,-137.5 598,-137.5 598,-116.5 536,-116.5"/>
<text text-anchor="middle" x="567" y="-124.5" font-family="FreeSans.ttf" font-size="10.00">macros.h</text>
</a>
</g>
<!-- Node1&#45;&gt;Node13 -->
<g id="edge24" class="edge"><title>Node1&#45;&gt;Node13</title>
<path fill="none" stroke="midnightblue" d="M597.214,-174.362C592.207,-166.513 585.255,-155.616 579.282,-146.253"/>
<polygon fill="midnightblue" stroke="midnightblue" points="582.072,-144.119 573.743,-137.571 576.171,-147.884 582.072,-144.119"/>
</g>
<!-- Node14 -->
<g id="node27" class="node"><title>Node14</title>
<a xlink:href="enum_8h.xhtml" target="_top" xlink:title="All numerical and boolean defines for every class and namespace.">
<polygon fill="white" stroke="black" points="615.5,-116.5 615.5,-137.5 668.5,-137.5 668.5,-116.5 615.5,-116.5"/>
<text text-anchor="middle" x="642" y="-124.5" font-family="FreeSans.ttf" font-size="10.00">enum.h</text>
</a>
</g>
<!-- Node1&#45;&gt;Node14 -->
<g id="edge26" class="edge"><title>Node1&#45;&gt;Node14</title>
<path fill="none" stroke="midnightblue" d="M610.97,-174.362C616.166,-166.431 623.401,-155.389 629.578,-145.961"/>
<polygon fill="midnightblue" stroke="midnightblue" points="632.522,-147.853 635.074,-137.571 626.666,-144.017 632.522,-147.853"/>
</g>
<!-- Node15 -->
<g id="node29" class="node"><title>Node15</title>
<a xlink:href="config_8h.xhtml" target="_top" xlink:title="NAMS configuration options.">
<polygon fill="white" stroke="black" points="686,-116.5 686,-137.5 740,-137.5 740,-116.5 686,-116.5"/>
<text text-anchor="middle" x="713" y="-124.5" font-family="FreeSans.ttf" font-size="10.00">config.h</text>
</a>
</g>
<!-- Node1&#45;&gt;Node15 -->
<g id="edge28" class="edge"><title>Node1&#45;&gt;Node15</title>
<path fill="none" stroke="midnightblue" d="M623.739,-174.497C640.61,-165.519 665.109,-152.484 684.174,-142.339"/>
<polygon fill="midnightblue" stroke="midnightblue" points="685.856,-145.409 693.039,-137.621 682.567,-139.229 685.856,-145.409"/>
</g>
<!-- Node16 -->
<g id="node31" class="node"><title>Node16</title>
<a xlink:href="namespace_8h.xhtml" target="_top" xlink:title="All namespace includes.">
<polygon fill="white" stroke="black" points="758,-116.5 758,-137.5 840,-137.5 840,-116.5 758,-116.5"/>
<text text-anchor="middle" x="799" y="-124.5" font-family="FreeSans.ttf" font-size="10.00">namespace.h</text>
</a>
</g>
<!-- Node1&#45;&gt;Node16 -->
<g id="edge30" class="edge"><title>Node1&#45;&gt;Node16</title>
<path fill="none" stroke="midnightblue" d="M639.313,-174.497C671.379,-164.959 718.845,-150.841 753.696,-140.475"/>
<polygon fill="midnightblue" stroke="midnightblue" points="755.034,-143.729 763.621,-137.523 753.038,-137.019 755.034,-143.729"/>
</g>
<!-- Node3 -->
<g id="node5" class="node"><title>Node3</title>
<polygon fill="white" stroke="#bfbfbf" points="0,-58.5 0,-79.5 62,-79.5 62,-58.5 0,-58.5"/>
<text text-anchor="middle" x="31" y="-66.5" font-family="FreeSans.ttf" font-size="10.00">algorithm</text>
</g>
<!-- Node2&#45;&gt;Node3 -->
<g id="edge4" class="edge"><title>Node2&#45;&gt;Node3</title>
<path fill="none" stroke="midnightblue" d="M234.625,-118.222C195.477,-109.594 134.179,-95.7781 72.3366,-80.2738"/>
<polygon fill="midnightblue" stroke="midnightblue" points="72.9622,-76.8221 62.41,-77.7715 71.2511,-83.6097 72.9622,-76.8221"/>
</g>
<!-- Node4 -->
<g id="node7" class="node"><title>Node4</title>
<polygon fill="white" stroke="#bfbfbf" points="80,-58.5 80,-79.5 130,-79.5 130,-58.5 80,-58.5"/>
<text text-anchor="middle" x="105" y="-66.5" font-family="FreeSans.ttf" font-size="10.00">chrono</text>
</g>
<!-- Node2&#45;&gt;Node4 -->
<g id="edge6" class="edge"><title>Node2&#45;&gt;Node4</title>
<path fill="none" stroke="midnightblue" d="M244.214,-116.497C214.814,-106.466 170.563,-91.3687 139.875,-80.8985"/>
<polygon fill="midnightblue" stroke="midnightblue" points="140.623,-77.4557 130.028,-77.5391 138.363,-84.0807 140.623,-77.4557"/>
</g>
<!-- Node5 -->
<g id="node9" class="node"><title>Node5</title>
<polygon fill="white" stroke="#bfbfbf" points="148,-58.5 148,-79.5 178,-79.5 178,-58.5 148,-58.5"/>
<text text-anchor="middle" x="163" y="-66.5" font-family="FreeSans.ttf" font-size="10.00">list</text>
</g>
<!-- Node2&#45;&gt;Node5 -->
<g id="edge8" class="edge"><title>Node2&#45;&gt;Node5</title>
<path fill="none" stroke="midnightblue" d="M254.718,-116.497C235.671,-106.633 207.163,-91.8701 186.994,-81.4254"/>
<polygon fill="midnightblue" stroke="midnightblue" points="188.599,-78.3151 178.109,-76.8245 185.38,-84.5311 188.599,-78.3151"/>
</g>
<!-- Node6 -->
<g id="node11" class="node"><title>Node6</title>
<polygon fill="white" stroke="#bfbfbf" points="196,-58.5 196,-79.5 234,-79.5 234,-58.5 196,-58.5"/>
<text text-anchor="middle" x="215" y="-66.5" font-family="FreeSans.ttf" font-size="10.00">map</text>
</g>
<!-- Node2&#45;&gt;Node6 -->
<g id="edge10" class="edge"><title>Node2&#45;&gt;Node6</title>
<path fill="none" stroke="midnightblue" d="M263.995,-116.362C255.453,-108.104 243.42,-96.4725 233.417,-86.8029"/>
<polygon fill="midnightblue" stroke="midnightblue" points="235.558,-84.0044 225.935,-79.5707 230.692,-89.0374 235.558,-84.0044"/>
</g>
<!-- Node7 -->
<g id="node13" class="node"><title>Node7</title>
<polygon fill="white" stroke="#bfbfbf" points="251.5,-58.5 251.5,-79.5 298.5,-79.5 298.5,-58.5 251.5,-58.5"/>
<text text-anchor="middle" x="275" y="-66.5" font-family="FreeSans.ttf" font-size="10.00">vector</text>
</g>
<!-- Node2&#45;&gt;Node7 -->
<g id="edge12" class="edge"><title>Node2&#45;&gt;Node7</title>
<path fill="none" stroke="midnightblue" d="M275,-116.362C275,-108.922 275,-98.7427 275,-89.7276"/>
<polygon fill="midnightblue" stroke="midnightblue" points="278.5,-89.5706 275,-79.5707 271.5,-89.5707 278.5,-89.5706"/>
</g>
<!-- Node8 -->
<g id="node15" class="node"><title>Node8</title>
<polygon fill="white" stroke="#bfbfbf" points="316,-58.5 316,-79.5 384,-79.5 384,-58.5 316,-58.5"/>
<text text-anchor="middle" x="350" y="-66.5" font-family="FreeSans.ttf" font-size="10.00">arpa/inet.h</text>
</g>
<!-- Node2&#45;&gt;Node8 -->
<g id="edge14" class="edge"><title>Node2&#45;&gt;Node8</title>
<path fill="none" stroke="midnightblue" d="M288.756,-116.362C299.751,-107.859 315.373,-95.7785 328.086,-85.9466"/>
<polygon fill="midnightblue" stroke="midnightblue" points="330.562,-88.4569 336.331,-79.5707 326.279,-82.9195 330.562,-88.4569"/>
</g>
<!-- Node9 -->
<g id="node17" class="node"><title>Node9</title>
<polygon fill="white" stroke="#bfbfbf" points="401.5,-58.5 401.5,-79.5 452.5,-79.5 452.5,-58.5 401.5,-58.5"/>
<text text-anchor="middle" x="427" y="-66.5" font-family="FreeSans.ttf" font-size="10.00">errno.h</text>
</g>
<!-- Node2&#45;&gt;Node9 -->
<g id="edge16" class="edge"><title>Node2&#45;&gt;Node9</title>
<path fill="none" stroke="midnightblue" d="M302.526,-116.497C327.518,-106.96 364.512,-92.8442 391.676,-82.4788"/>
<polygon fill="midnightblue" stroke="midnightblue" points="393.104,-85.6802 401.199,-78.8451 390.608,-79.1402 393.104,-85.6802"/>
</g>
<!-- Node10 -->
<g id="node19" class="node"><title>Node10</title>
<polygon fill="white" stroke="#bfbfbf" points="469.5,-58.5 469.5,-79.5 534.5,-79.5 534.5,-58.5 469.5,-58.5"/>
<text text-anchor="middle" x="502" y="-66.5" font-family="FreeSans.ttf" font-size="10.00">memory.h</text>
</g>
<!-- Node2&#45;&gt;Node10 -->
<g id="edge18" class="edge"><title>Node2&#45;&gt;Node10</title>
<path fill="none" stroke="midnightblue" d="M315.318,-116.993C350.886,-108.124 404.391,-94.6851 459.414,-80.3921"/>
<polygon fill="midnightblue" stroke="midnightblue" points="460.542,-83.7152 469.338,-77.8091 458.778,-76.9409 460.542,-83.7152"/>
</g>
<!-- Node12 -->
<g id="node23" class="node"><title>Node12</title>
<polygon fill="white" stroke="#bfbfbf" points="552,-58.5 552,-79.5 594,-79.5 594,-58.5 552,-58.5"/>
<text text-anchor="middle" x="573" y="-66.5" font-family="FreeSans.ttf" font-size="10.00">limits</text>
</g>
<!-- Node11&#45;&gt;Node12 -->
<g id="edge22" class="edge"><title>Node11&#45;&gt;Node12</title>
<path fill="none" stroke="midnightblue" d="M507.673,-116.362C519.514,-107.777 536.385,-95.5459 550.016,-85.6636"/>
<polygon fill="midnightblue" stroke="midnightblue" points="552.378,-88.274 558.42,-79.5707 548.269,-82.6067 552.378,-88.274"/>
</g>
<!-- Node17 -->
<g id="node33" class="node"><title>Node17</title>
<a xlink:href="handler_8h.xhtml" target="_top" xlink:title="The Handler namespace.">
<polygon fill="white" stroke="black" points="690.5,-58.5 690.5,-79.5 751.5,-79.5 751.5,-58.5 690.5,-58.5"/>
<text text-anchor="middle" x="721" y="-66.5" font-family="FreeSans.ttf" font-size="10.00">handler.h</text>
</a>
</g>
<!-- Node16&#45;&gt;Node17 -->
<g id="edge32" class="edge"><title>Node16&#45;&gt;Node17</title>
<path fill="none" stroke="midnightblue" d="M784.694,-116.362C773.149,-107.777 756.7,-95.5459 743.41,-85.6636"/>
<polygon fill="midnightblue" stroke="midnightblue" points="745.329,-82.7291 735.216,-79.5707 741.152,-88.3463 745.329,-82.7291"/>
</g>
<!-- Node19 -->
<g id="node37" class="node"><title>Node19</title>
<a xlink:href="telopt_8h.xhtml" target="_top" xlink:title="The telopt namespace.">
<polygon fill="white" stroke="black" points="772.5,-58.5 772.5,-79.5 825.5,-79.5 825.5,-58.5 772.5,-58.5"/>
<text text-anchor="middle" x="799" y="-66.5" font-family="FreeSans.ttf" font-size="10.00">telopt.h</text>
</a>
</g>
<!-- Node16&#45;&gt;Node19 -->
<g id="edge36" class="edge"><title>Node16&#45;&gt;Node19</title>
<path fill="none" stroke="midnightblue" d="M799,-116.362C799,-108.922 799,-98.7427 799,-89.7276"/>
<polygon fill="midnightblue" stroke="midnightblue" points="802.5,-89.5706 799,-79.5707 795.5,-89.5707 802.5,-89.5706"/>
</g>
<!-- Node21 -->
<g id="node41" class="node"><title>Node21</title>
<a xlink:href="utils_8h.xhtml" target="_top" xlink:title="The Utils namespace.">
<polygon fill="white" stroke="black" points="1091.5,-58.5 1091.5,-79.5 1136.5,-79.5 1136.5,-58.5 1091.5,-58.5"/>
<text text-anchor="middle" x="1114" y="-66.5" font-family="FreeSans.ttf" font-size="10.00">utils.h</text>
</a>
</g>
<!-- Node16&#45;&gt;Node21 -->
<g id="edge40" class="edge"><title>Node16&#45;&gt;Node21</title>
<path fill="none" stroke="midnightblue" d="M840.181,-119.418C903.45,-107.768 1023.3,-85.7003 1081.14,-75.0503"/>
<polygon fill="midnightblue" stroke="midnightblue" points="1081.99,-78.4527 1091.19,-73.1997 1080.72,-71.5684 1081.99,-78.4527"/>
</g>
<!-- Node18 -->
<g id="node35" class="node"><title>Node18</title>
<a xlink:href="class_8h.xhtml" target="_top" xlink:title="All class declarations.">
<polygon fill="white" stroke="black" points="692,-0.5 692,-21.5 742,-21.5 742,-0.5 692,-0.5"/>
<text text-anchor="middle" x="717" y="-8.5" font-family="FreeSans.ttf" font-size="10.00">class.h</text>
</a>
</g>
<!-- Node17&#45;&gt;Node18 -->
<g id="edge34" class="edge"><title>Node17&#45;&gt;Node18</title>
<path fill="none" stroke="midnightblue" d="M720.266,-58.3619C719.753,-50.9219 719.051,-40.7427 718.429,-31.7276"/>
<polygon fill="midnightblue" stroke="midnightblue" points="721.909,-31.3061 717.729,-21.5707 714.925,-31.7878 721.909,-31.3061"/>
</g>
<!-- Node20 -->
<g id="node39" class="node"><title>Node20</title>
<polygon fill="white" stroke="#bfbfbf" points="760,-0.5 760,-21.5 838,-21.5 838,-0.5 760,-0.5"/>
<text text-anchor="middle" x="799" y="-8.5" font-family="FreeSans.ttf" font-size="10.00">arpa/telnet.h</text>
</g>
<!-- Node19&#45;&gt;Node20 -->
<g id="edge38" class="edge"><title>Node19&#45;&gt;Node20</title>
<path fill="none" stroke="midnightblue" d="M799,-58.3619C799,-50.9219 799,-40.7427 799,-31.7276"/>
<polygon fill="midnightblue" stroke="midnightblue" points="802.5,-31.5706 799,-21.5707 795.5,-31.5707 802.5,-31.5706"/>
</g>
<!-- Node22 -->
<g id="node43" class="node"><title>Node22</title>
<polygon fill="white" stroke="#bfbfbf" points="856,-0.5 856,-21.5 900,-21.5 900,-0.5 856,-0.5"/>
<text text-anchor="middle" x="878" y="-8.5" font-family="FreeSans.ttf" font-size="10.00">bitset</text>
</g>
<!-- Node21&#45;&gt;Node22 -->
<g id="edge42" class="edge"><title>Node21&#45;&gt;Node22</title>
<path fill="none" stroke="midnightblue" d="M1091.33,-64.6957C1055.01,-57.609 981.394,-42.4691 910.266,-22.1442"/>
<polygon fill="midnightblue" stroke="midnightblue" points="910.83,-18.6635 900.251,-19.2422 908.881,-25.387 910.83,-18.6635"/>
</g>
<!-- Node23 -->
<g id="node45" class="node"><title>Node23</title>
<polygon fill="white" stroke="#bfbfbf" points="917.5,-0.5 917.5,-21.5 970.5,-21.5 970.5,-0.5 917.5,-0.5"/>
<text text-anchor="middle" x="944" y="-8.5" font-family="FreeSans.ttf" font-size="10.00">cstdarg</text>
</g>
<!-- Node21&#45;&gt;Node23 -->
<g id="edge44" class="edge"><title>Node21&#45;&gt;Node23</title>
<path fill="none" stroke="midnightblue" d="M1091.43,-61.298C1062.98,-51.5941 1013.76,-34.7992 980.073,-23.3072"/>
<polygon fill="midnightblue" stroke="midnightblue" points="981.182,-19.9875 970.587,-20.071 978.921,-26.6126 981.182,-19.9875"/>
</g>
<!-- Node24 -->
<g id="node47" class="node"><title>Node24</title>
<polygon fill="white" stroke="#bfbfbf" points="987.5,-0.5 987.5,-21.5 1032.5,-21.5 1032.5,-0.5 987.5,-0.5"/>
<text text-anchor="middle" x="1010" y="-8.5" font-family="FreeSans.ttf" font-size="10.00">cstdio</text>
</g>
<!-- Node21&#45;&gt;Node24 -->
<g id="edge46" class="edge"><title>Node21&#45;&gt;Node24</title>
<path fill="none" stroke="midnightblue" d="M1094.92,-58.3619C1078.95,-49.4502 1055.92,-36.6087 1037.87,-26.5447"/>
<polygon fill="midnightblue" stroke="midnightblue" points="1039.39,-23.3846 1028.95,-21.5707 1035.98,-29.4982 1039.39,-23.3846"/>
</g>
<!-- Node25 -->
<g id="node49" class="node"><title>Node25</title>
<polygon fill="white" stroke="#bfbfbf" points="1050,-0.5 1050,-21.5 1104,-21.5 1104,-0.5 1050,-0.5"/>
<text text-anchor="middle" x="1077" y="-8.5" font-family="FreeSans.ttf" font-size="10.00">fstream</text>
</g>
<!-- Node21&#45;&gt;Node25 -->
<g id="edge48" class="edge"><title>Node21&#45;&gt;Node25</title>
<path fill="none" stroke="midnightblue" d="M1107.21,-58.3619C1102.21,-50.5131 1095.25,-39.6159 1089.28,-30.2527"/>
<polygon fill="midnightblue" stroke="midnightblue" points="1092.07,-28.1189 1083.74,-21.5707 1086.17,-31.8837 1092.07,-28.1189"/>
</g>
<!-- Node26 -->
<g id="node51" class="node"><title>Node26</title>
<polygon fill="white" stroke="#bfbfbf" points="1121.5,-0.5 1121.5,-21.5 1180.5,-21.5 1180.5,-0.5 1121.5,-0.5"/>
<text text-anchor="middle" x="1151" y="-8.5" font-family="FreeSans.ttf" font-size="10.00">iostream</text>
</g>
<!-- Node21&#45;&gt;Node26 -->
<g id="edge50" class="edge"><title>Node21&#45;&gt;Node26</title>
<path fill="none" stroke="midnightblue" d="M1120.79,-58.3619C1125.79,-50.5131 1132.75,-39.6159 1138.72,-30.2527"/>
<polygon fill="midnightblue" stroke="midnightblue" points="1141.83,-31.8837 1144.26,-21.5707 1135.93,-28.1189 1141.83,-31.8837"/>
</g>
<!-- Node27 -->
<g id="node53" class="node"><title>Node27</title>
<polygon fill="white" stroke="#bfbfbf" points="1198,-0.5 1198,-21.5 1250,-21.5 1250,-0.5 1198,-0.5"/>
<text text-anchor="middle" x="1224" y="-8.5" font-family="FreeSans.ttf" font-size="10.00">iterator</text>
</g>
<!-- Node21&#45;&gt;Node27 -->
<g id="edge52" class="edge"><title>Node21&#45;&gt;Node27</title>
<path fill="none" stroke="midnightblue" d="M1133.92,-58.4966C1150.95,-49.5194 1175.67,-36.4835 1194.91,-26.3387"/>
<polygon fill="midnightblue" stroke="midnightblue" points="1196.64,-29.3814 1203.86,-21.6212 1193.38,-23.1894 1196.64,-29.3814"/>
</g>
<!-- Node28 -->
<g id="node55" class="node"><title>Node28</title>
<polygon fill="white" stroke="#bfbfbf" points="1268,-0.5 1268,-21.5 1324,-21.5 1324,-0.5 1268,-0.5"/>
<text text-anchor="middle" x="1296" y="-8.5" font-family="FreeSans.ttf" font-size="10.00">sstream</text>
</g>
<!-- Node21&#45;&gt;Node28 -->
<g id="edge54" class="edge"><title>Node21&#45;&gt;Node28</title>
<path fill="none" stroke="midnightblue" d="M1136.68,-61.7715C1167.08,-52.0842 1221.45,-34.7587 1258.11,-23.0737"/>
<polygon fill="midnightblue" stroke="midnightblue" points="1259.49,-26.3098 1267.95,-19.9386 1257.36,-19.6403 1259.49,-26.3098"/>
</g>
<!-- Node29 -->
<g id="node57" class="node"><title>Node29</title>
<polygon fill="white" stroke="#bfbfbf" points="1341.5,-0.5 1341.5,-21.5 1394.5,-21.5 1394.5,-0.5 1341.5,-0.5"/>
<text text-anchor="middle" x="1368" y="-8.5" font-family="FreeSans.ttf" font-size="10.00">dirent.h</text>
</g>
<!-- Node21&#45;&gt;Node29 -->
<g id="edge56" class="edge"><title>Node21&#45;&gt;Node29</title>
<path fill="none" stroke="midnightblue" d="M1136.55,-64.8799C1174.8,-57.7373 1255,-42.1022 1331.53,-22.2376"/>
<polygon fill="midnightblue" stroke="midnightblue" points="1332.54,-25.5906 1341.32,-19.6659 1330.76,-18.8201 1332.54,-25.5906"/>
</g>
<!-- Node30 -->
<g id="node59" class="node"><title>Node30</title>
<polygon fill="white" stroke="#bfbfbf" points="1411.5,-0.5 1411.5,-21.5 1474.5,-21.5 1474.5,-0.5 1411.5,-0.5"/>
<text text-anchor="middle" x="1443" y="-8.5" font-family="FreeSans.ttf" font-size="10.00">sys/stat.h</text>
</g>
<!-- Node21&#45;&gt;Node30 -->
<g id="edge58" class="edge"><title>Node21&#45;&gt;Node30</title>
<path fill="none" stroke="midnightblue" d="M1136.64,-66.1591C1184.03,-60.034 1297.29,-44.4669 1401.18,-22.2468"/>
<polygon fill="midnightblue" stroke="midnightblue" points="1402.17,-25.6137 1411.2,-20.0758 1400.69,-18.7723 1402.17,-25.6137"/>
</g>
</g>
</svg>
        <g id="navigator" transform="translate(0 0)" fill="#404254">
                <rect fill="#f2f5e9" fill-opacity="0.5" stroke="#606060" stroke-width=".5" x="0" y="0" width="60" height="60"/>
                <use id="zoomplus" xlink:href="#zoomPlus" x="17" y="9" onmousedown="handleZoom(evt,'in')"/>
                <use id="zoomminus" xlink:href="#zoomMin" x="42" y="9" onmousedown="handleZoom(evt,'out')"/>
                <use id="reset" xlink:href="#resetDef" x="30" y="36" onmousedown="handleReset()"/>
                <g id="arrowUp" xlink:href="#dirArrow" transform="translate(30 24)" onmousedown="handlePan(0,-1)">
                  <use xlink:href="#rim" fill="#404040">
                        <set attributeName="fill" to="#808080" begin="arrowUp.mouseover" end="arrowUp.mouseout"/>
                  </use>
                  <path fill="none" stroke="white" stroke-width="1.5" d="M0,-3.0v7 M-2.5,-0.5L0,-3.0L2.5,-0.5"/>
                </g>
                <g id="arrowRight" xlink:href="#dirArrow" transform="rotate(90) translate(36 -43)" onmousedown="handlePan(1,0)">
                  <use xlink:href="#rim" fill="#404040">
                        <set attributeName="fill" to="#808080" begin="arrowRight.mouseover" end="arrowRight.mouseout"/>
                  </use>
                  <path fill="none" stroke="white" stroke-width="1.5" d="M0,-3.0v7 M-2.5,-0.5L0,-3.0L2.5,-0.5"/>
                </g>
                <g id="arrowDown" xlink:href="#dirArrow" transform="rotate(180) translate(-30 -48)" onmousedown="handlePan(0,1)">
                  <use xlink:href="#rim" fill="#404040">
                        <set attributeName="fill" to="#808080" begin="arrowDown.mouseover" end="arrowDown.mouseout"/>
                  </use>
                  <path fill="none" stroke="white" stroke-width="1.5" d="M0,-3.0v7 M-2.5,-0.5L0,-3.0L2.5,-0.5"/>
                </g>
                <g id="arrowLeft" xlink:href="#dirArrow" transform="rotate(270) translate(-36 17)" onmousedown="handlePan(-1,0)">
                  <use xlink:href="#rim" fill="#404040">
                        <set attributeName="fill" to="#808080" begin="arrowLeft.mouseover" end="arrowLeft.mouseout"/>
                  </use>
                  <path fill="none" stroke="white" stroke-width="1.5" d="M0,-3.0v7 M-2.5,-0.5L0,-3.0L2.5,-0.5"/>
                </g>
        </g>
</svg>
