<?xml version="1.0" encoding="UTF-8" standalone="no"?>
<!DOCTYPE svg PUBLIC "-//W3C//DTD SVG 1.1//EN"
 "http://www.w3.org/Graphics/SVG/1.1/DTD/svg11.dtd">
<!-- Generated by graphviz version 2.26.3 (20100126.1600)
 -->
<!-- Title: Graphical Class Hierarchy Pages: 1 -->
<svg width="150pt" height="66pt"
 viewBox="0.00 0.00 150.00 66.00" xmlns="http://www.w3.org/2000/svg" xmlns:xlink="http://www.w3.org/1999/xlink">
<g id="graph1" class="graph" transform="scale(1 1) rotate(0) translate(4 62)">
<title>Graphical Class Hierarchy</title>
<polygon fill="white" stroke="white" points="-4,5 -4,-62 147,-62 147,5 -4,5"/>
<!-- Node1 -->
<g id="node1" class="node"><title>Node1</title>
<a xlink:href="classThing.xhtml" target="_top" xlink:title="A generic &quot;thing&quot;: creature, character, room, object, etc.">
<polygon fill="white" stroke="black" points="0,-19 0,-39 42,-39 42,-19 0,-19"/>
<text text-anchor="middle" x="21" y="-26" font-family="FreeSans.ttf" font-size="10.00">Thing</text>
</a>
</g>
<!-- Node2 -->
<g id="node3" class="node"><title>Node2</title>
<a xlink:href="classCharacter.xhtml" target="_top" xlink:title="An actor within the game world.">
<polygon fill="white" stroke="black" points="78,-38 78,-58 142,-58 142,-38 78,-38"/>
<text text-anchor="middle" x="110" y="-45" font-family="FreeSans.ttf" font-size="10.00">Character</text>
</a>
</g>
<!-- Node1&#45;&gt;Node2 -->
<g id="edge2" class="edge"><title>Node1&#45;&gt;Node2</title>
<path fill="none" stroke="midnightblue" d="M51.9033,-35.5973C60.314,-37.3929 69.4416,-39.3415 77.9161,-41.1506"/>
<polygon fill="midnightblue" stroke="midnightblue" points="52.6021,-32.1677 42.0918,-33.5027 51.1406,-39.0135 52.6021,-32.1677"/>
</g>
<!-- Node3 -->
<g id="node5" class="node"><title>Node3</title>
<a xlink:href="classLocation.xhtml" target="_top" xlink:title="A physical location within the game world.">
<polygon fill="white" stroke="black" points="81.5,-0 81.5,-20 138.5,-20 138.5,-0 81.5,-0"/>
<text text-anchor="middle" x="110" y="-7" font-family="FreeSans.ttf" font-size="10.00">Location</text>
</a>
</g>
<!-- Node1&#45;&gt;Node3 -->
<g id="edge4" class="edge"><title>Node1&#45;&gt;Node3</title>
<path fill="none" stroke="midnightblue" d="M51.978,-22.3867C61.5061,-20.3526 71.9482,-18.1234 81.3154,-16.1237"/>
<polygon fill="midnightblue" stroke="midnightblue" points="51.1406,-18.9865 42.0918,-24.4973 52.6021,-25.8323 51.1406,-18.9865"/>
</g>
</g>
</svg>
