<?xml version="1.0" encoding="UTF-8" standalone="no"?>
<!DOCTYPE svg PUBLIC "-//W3C//DTD SVG 1.1//EN"
 "http://www.w3.org/Graphics/SVG/1.1/DTD/svg11.dtd">
<!-- Generated by graphviz version 2.26.3 (20100126.1600)
 -->
<!-- Title: h/list.h Pages: 1 -->
<svg width="994pt" height="88pt"
 viewBox="0.00 0.00 994.00 88.00" xmlns="http://www.w3.org/2000/svg" xmlns:xlink="http://www.w3.org/1999/xlink">
<g id="graph1" class="graph" transform="scale(1 1) rotate(0) translate(4 84)">
<title>h/list.h</title>
<polygon fill="white" stroke="white" points="-4,5 -4,-84 991,-84 991,5 -4,5"/>
<!-- Node1 -->
<g id="node1" class="node"><title>Node1</title>
<polygon fill="#bfbfbf" stroke="black" points="449,-59 449,-79 497,-79 497,-59 449,-59"/>
<text text-anchor="middle" x="473" y="-66" font-family="FreeSans.ttf" font-size="10.00">h/list.h</text>
</g>
<!-- Node2 -->
<g id="node3" class="node"><title>Node2</title>
<a xlink:href="character_8cpp.xhtml" target="_top" xlink:title="All non&#45;template member functions of the Character class.">
<polygon fill="white" stroke="black" points="0,-1 0,-21 82,-21 82,-1 0,-1"/>
<text text-anchor="middle" x="41" y="-8" font-family="FreeSans.ttf" font-size="10.00">character.cpp</text>
</a>
</g>
<!-- Node1&#45;&gt;Node2 -->
<g id="edge2" class="edge"><title>Node1&#45;&gt;Node2</title>
<path fill="none" stroke="midnightblue" d="M438.746,-65.8772C371.696,-59.524 218.536,-43.8249 91,-22 88.1089,-21.5053 85.1324,-20.9553 82.1404,-20.3725"/>
<polygon fill="midnightblue" stroke="midnightblue" points="438.467,-69.3664 448.75,-66.8162 439.121,-62.397 438.467,-69.3664"/>
</g>
<!-- Node3 -->
<g id="node5" class="node"><title>Node3</title>
<a xlink:href="command_8cpp.xhtml" target="_top" xlink:title="All non&#45;template member functions of the Command class.">
<polygon fill="white" stroke="black" points="100,-1 100,-21 186,-21 186,-1 100,-1"/>
<text text-anchor="middle" x="143" y="-8" font-family="FreeSans.ttf" font-size="10.00">command.cpp</text>
</a>
</g>
<!-- Node1&#45;&gt;Node3 -->
<g id="edge4" class="edge"><title>Node1&#45;&gt;Node3</title>
<path fill="none" stroke="midnightblue" d="M438.649,-63.657C386.065,-55.373 282.5,-38.6442 195,-22 192.099,-21.4482 189.111,-20.8625 186.103,-20.26"/>
<polygon fill="midnightblue" stroke="midnightblue" points="438.348,-67.1524 448.77,-65.2461 439.434,-60.2371 438.348,-67.1524"/>
</g>
<!-- Node4 -->
<g id="node7" class="node"><title>Node4</title>
<a xlink:href="event_8cpp.xhtml" target="_top" xlink:title="All non&#45;template member functions of the Event class.">
<polygon fill="white" stroke="black" points="204,-1 204,-21 268,-21 268,-1 204,-1"/>
<text text-anchor="middle" x="236" y="-8" font-family="FreeSans.ttf" font-size="10.00">event.cpp</text>
</a>
</g>
<!-- Node1&#45;&gt;Node4 -->
<g id="edge6" class="edge"><title>Node1&#45;&gt;Node4</title>
<path fill="none" stroke="midnightblue" d="M438.989,-61.1357C399.846,-52.0169 333.663,-36.3921 277,-22 274.143,-21.2743 271.178,-20.5068 268.208,-19.7283"/>
<polygon fill="midnightblue" stroke="midnightblue" points="438.277,-64.5632 448.809,-63.4189 439.862,-57.7451 438.277,-64.5632"/>
</g>
<!-- Node5 -->
<g id="node9" class="node"><title>Node5</title>
<a xlink:href="exit_8cpp.xhtml" target="_top" xlink:title="All non&#45;template member functions of the Exit class.">
<polygon fill="white" stroke="black" points="286,-1 286,-21 340,-21 340,-1 286,-1"/>
<text text-anchor="middle" x="313" y="-8" font-family="FreeSans.ttf" font-size="10.00">exit.cpp</text>
</a>
</g>
<!-- Node1&#45;&gt;Node5 -->
<g id="edge8" class="edge"><title>Node1&#45;&gt;Node5</title>
<path fill="none" stroke="midnightblue" d="M439.235,-56.7601C409.768,-46.0784 367.559,-30.7776 340.213,-20.8646"/>
<polygon fill="midnightblue" stroke="midnightblue" points="438.105,-60.0735 448.699,-60.191 440.491,-53.4925 438.105,-60.0735"/>
</g>
<!-- Node6 -->
<g id="node11" class="node"><title>Node6</title>
<a xlink:href="handler_8cpp.xhtml" target="_top" xlink:title="All non&#45;template member functions of the Handler namespace.">
<polygon fill="white" stroke="black" points="358,-1 358,-21 430,-21 430,-1 358,-1"/>
<text text-anchor="middle" x="394" y="-8" font-family="FreeSans.ttf" font-size="10.00">handler.cpp</text>
</a>
</g>
<!-- Node1&#45;&gt;Node6 -->
<g id="edge10" class="edge"><title>Node1&#45;&gt;Node6</title>
<path fill="none" stroke="midnightblue" d="M451.173,-52.975C437.329,-42.8109 419.836,-29.9681 407.868,-21.1817"/>
<polygon fill="midnightblue" stroke="midnightblue" points="449.107,-55.8004 459.239,-58.8972 453.25,-50.1578 449.107,-55.8004"/>
</g>
<!-- Node7 -->
<g id="node13" class="node"><title>Node7</title>
<a xlink:href="list_8cpp.xhtml" target="_top" xlink:title="All globally referenced list / map / vector types.">
<polygon fill="white" stroke="black" points="448,-1 448,-21 498,-21 498,-1 448,-1"/>
<text text-anchor="middle" x="473" y="-8" font-family="FreeSans.ttf" font-size="10.00">list.cpp</text>
</a>
</g>
<!-- Node1&#45;&gt;Node7 -->
<g id="edge12" class="edge"><title>Node1&#45;&gt;Node7</title>
<path fill="none" stroke="midnightblue" d="M473,-48.8902C473,-39.6201 473,-29.0083 473,-21.3776"/>
<polygon fill="midnightblue" stroke="midnightblue" points="469.5,-48.8971 473,-58.8972 476.5,-48.8972 469.5,-48.8971"/>
</g>
<!-- Node8 -->
<g id="node15" class="node"><title>Node8</title>
<a xlink:href="location_8cpp.xhtml" target="_top" xlink:title="All non&#45;template member functions of the Location class.">
<polygon fill="white" stroke="black" points="516,-1 516,-21 590,-21 590,-1 516,-1"/>
<text text-anchor="middle" x="553" y="-8" font-family="FreeSans.ttf" font-size="10.00">location.cpp</text>
</a>
</g>
<!-- Node1&#45;&gt;Node8 -->
<g id="edge14" class="edge"><title>Node1&#45;&gt;Node8</title>
<path fill="none" stroke="midnightblue" d="M495.104,-52.975C509.123,-42.8109 526.837,-29.9681 538.956,-21.1817"/>
<polygon fill="midnightblue" stroke="midnightblue" points="492.977,-50.1938 486.935,-58.8972 497.085,-55.8611 492.977,-50.1938"/>
</g>
<!-- Node9 -->
<g id="node17" class="node"><title>Node9</title>
<a xlink:href="object_8cpp.xhtml" target="_top" xlink:title="All non&#45;template member functions of the Object class.">
<polygon fill="white" stroke="black" points="608,-1 608,-21 674,-21 674,-1 608,-1"/>
<text text-anchor="middle" x="641" y="-8" font-family="FreeSans.ttf" font-size="10.00">object.cpp</text>
</a>
</g>
<!-- Node1&#45;&gt;Node9 -->
<g id="edge16" class="edge"><title>Node1&#45;&gt;Node9</title>
<path fill="none" stroke="midnightblue" d="M506.531,-57.4238C537.347,-46.7848 582.565,-31.1741 611.895,-21.048"/>
<polygon fill="midnightblue" stroke="midnightblue" points="505.381,-54.1182 497.07,-60.69 507.665,-60.735 505.381,-54.1182"/>
</g>
<!-- Node10 -->
<g id="node19" class="node"><title>Node10</title>
<a xlink:href="server_8cpp.xhtml" target="_top" xlink:title="All non&#45;template member functions of the Server namespace.">
<polygon fill="white" stroke="black" points="692,-1 692,-21 758,-21 758,-1 692,-1"/>
<text text-anchor="middle" x="725" y="-8" font-family="FreeSans.ttf" font-size="10.00">server.cpp</text>
</a>
</g>
<!-- Node1&#45;&gt;Node10 -->
<g id="edge18" class="edge"><title>Node1&#45;&gt;Node10</title>
<path fill="none" stroke="midnightblue" d="M506.878,-61.8103C548.461,-52.8951 621.082,-37.0321 683,-22 685.783,-21.3243 688.666,-20.6067 691.557,-19.8748"/>
<polygon fill="midnightblue" stroke="midnightblue" points="506.047,-58.4087 497,-63.9224 507.511,-65.2539 506.047,-58.4087"/>
</g>
<!-- Node11 -->
<g id="node21" class="node"><title>Node11</title>
<a xlink:href="socketclient_8cpp.xhtml" target="_top" xlink:title="All non&#45;template member functions of the SocketClient class.">
<polygon fill="white" stroke="black" points="776,-1 776,-21 870,-21 870,-1 776,-1"/>
<text text-anchor="middle" x="823" y="-8" font-family="FreeSans.ttf" font-size="10.00">socketclient.cpp</text>
</a>
</g>
<!-- Node1&#45;&gt;Node11 -->
<g id="edge20" class="edge"><title>Node1&#45;&gt;Node11</title>
<path fill="none" stroke="midnightblue" d="M507.27,-63.9244C562.185,-55.7006 673.253,-38.6953 767,-22 769.926,-21.4788 772.936,-20.9288 775.969,-20.3637"/>
<polygon fill="midnightblue" stroke="midnightblue" points="506.431,-60.5108 497.057,-65.4494 507.465,-67.4341 506.431,-60.5108"/>
</g>
<!-- Node12 -->
<g id="node23" class="node"><title>Node12</title>
<a xlink:href="socketserver_8cpp.xhtml" target="_top" xlink:title="All non&#45;template member functions of the SocketServer class.">
<polygon fill="white" stroke="black" points="888,-1 888,-21 986,-21 986,-1 888,-1"/>
<text text-anchor="middle" x="937" y="-8" font-family="FreeSans.ttf" font-size="10.00">socketserver.cpp</text>
</a>
</g>
<!-- Node1&#45;&gt;Node12 -->
<g id="edge22" class="edge"><title>Node1&#45;&gt;Node12</title>
<path fill="none" stroke="midnightblue" d="M507.368,-65.8665C577.463,-59.2895 741.889,-42.9102 879,-22 881.938,-21.5519 884.955,-21.0642 887.995,-20.5515"/>
<polygon fill="midnightblue" stroke="midnightblue" points="506.968,-62.3885 497.336,-66.8011 507.617,-69.3583 506.968,-62.3885"/>
</g>
</g>
</svg>
