<?xml version="1.0" encoding="UTF-8" standalone="no"?>
<!DOCTYPE svg PUBLIC "-//W3C//DTD SVG 1.1//EN"
 "http://www.w3.org/Graphics/SVG/1.1/DTD/svg11.dtd">
<!-- Generated by graphviz version 2.26.3 (20100126.1600)
 -->
<!-- Title: G Pages: 1 -->
<svg width="409pt" height="204pt"
 viewBox="0.00 0.00 409.00 204.00" xmlns="http://www.w3.org/2000/svg" xmlns:xlink="http://www.w3.org/1999/xlink">
<g id="graph1" class="graph" transform="scale(1 1) rotate(0) translate(4 200)">
<title>G</title>
<polygon fill="white" stroke="white" points="-4,5 -4,-200 406,-200 406,5 -4,5"/>
<!-- Node1 -->
<g id="node1" class="node"><title>Node1</title>
<polygon fill="#bfbfbf" stroke="black" points="142,-174.5 142,-195.5 190,-195.5 190,-174.5 142,-174.5"/>
<text text-anchor="middle" x="166" y="-182.5" font-family="FreeSans.ttf" font-size="10.00">h/list.h</text>
</g>
<!-- Node2 -->
<g id="node3" class="node"><title>Node2</title>
<a xlink:href="command_8cpp.xhtml" target="_top" xlink:title="All non&#45;trivial member functions of the Command class.">
<polygon fill="white" stroke="black" points="0,-116.5 0,-137.5 86,-137.5 86,-116.5 0,-116.5"/>
<text text-anchor="middle" x="43" y="-124.5" font-family="FreeSans.ttf" font-size="10.00">command.cpp</text>
</a>
</g>
<!-- Node1&#45;&gt;Node2 -->
<g id="edge2" class="edge"><title>Node1&#45;&gt;Node2</title>
<path fill="none" stroke="midnightblue" d="M134.627,-170.206C113.049,-160.031 84.8978,-146.757 65.5243,-137.621"/>
<polygon fill="midnightblue" stroke="midnightblue" points="133.188,-173.397 143.726,-174.497 136.174,-167.066 133.188,-173.397"/>
</g>
<!-- Node3 -->
<g id="node5" class="node"><title>Node3</title>
<a xlink:href="list_8cpp.xhtml" target="_top" xlink:title="All globally referenced list / map / vector types.">
<polygon fill="white" stroke="black" points="104,-116.5 104,-137.5 154,-137.5 154,-116.5 104,-116.5"/>
<text text-anchor="middle" x="129" y="-124.5" font-family="FreeSans.ttf" font-size="10.00">list.cpp</text>
</a>
</g>
<!-- Node1&#45;&gt;Node3 -->
<g id="edge4" class="edge"><title>Node1&#45;&gt;Node3</title>
<path fill="none" stroke="midnightblue" d="M153.667,-165.667C147.688,-156.295 140.739,-145.402 135.743,-137.571"/>
<polygon fill="midnightblue" stroke="midnightblue" points="150.885,-167.814 159.214,-174.362 156.786,-164.049 150.885,-167.814"/>
</g>
<!-- Node4 -->
<g id="node7" class="node"><title>Node4</title>
<a xlink:href="server_8h.xhtml" target="_top" xlink:title="The Server class.">
<polygon fill="white" stroke="black" points="172,-116.5 172,-137.5 236,-137.5 236,-116.5 172,-116.5"/>
<text text-anchor="middle" x="204" y="-124.5" font-family="FreeSans.ttf" font-size="10.00">h/server.h</text>
</a>
</g>
<!-- Node1&#45;&gt;Node4 -->
<g id="edge6" class="edge"><title>Node1&#45;&gt;Node4</title>
<path fill="none" stroke="midnightblue" d="M178.475,-165.959C184.658,-156.522 191.89,-145.484 197.074,-137.571"/>
<polygon fill="midnightblue" stroke="midnightblue" points="175.522,-164.079 172.97,-174.362 181.378,-167.915 175.522,-164.079"/>
</g>
<!-- Node9 -->
<g id="node18" class="node"><title>Node9</title>
<a xlink:href="socketserver_8cpp.xhtml" target="_top" xlink:title="All non&#45;trivial member functions of the SocketServer class.">
<polygon fill="white" stroke="black" points="303,-58.5 303,-79.5 401,-79.5 401,-58.5 303,-58.5"/>
<text text-anchor="middle" x="352" y="-66.5" font-family="FreeSans.ttf" font-size="10.00">socketserver.cpp</text>
</a>
</g>
<!-- Node1&#45;&gt;Node9 -->
<g id="edge20" class="edge"><title>Node1&#45;&gt;Node9</title>
<path fill="none" stroke="midnightblue" d="M193.248,-169.116C208.541,-160.119 227.924,-148.581 245,-138 277.506,-117.859 314.943,-93.4288 335.801,-79.7046"/>
<polygon fill="midnightblue" stroke="midnightblue" points="191.166,-166.279 184.311,-174.358 194.708,-172.317 191.166,-166.279"/>
</g>
<!-- Node5 -->
<g id="node9" class="node"><title>Node5</title>
<a xlink:href="main_8cpp.xhtml" target="_top" xlink:title="Initial server entry point.">
<polygon fill="white" stroke="black" points="30.5,-58.5 30.5,-79.5 91.5,-79.5 91.5,-58.5 30.5,-58.5"/>
<text text-anchor="middle" x="61" y="-66.5" font-family="FreeSans.ttf" font-size="10.00">main.cpp</text>
</a>
</g>
<!-- Node4&#45;&gt;Node5 -->
<g id="edge8" class="edge"><title>Node4&#45;&gt;Node5</title>
<path fill="none" stroke="midnightblue" d="M168.534,-112.615C143.321,-102.389 110.013,-88.8796 87.1868,-79.6212"/>
<polygon fill="midnightblue" stroke="midnightblue" points="167.521,-115.981 178.104,-116.497 170.153,-109.495 167.521,-115.981"/>
</g>
<!-- Node6 -->
<g id="node11" class="node"><title>Node6</title>
<a xlink:href="socketclient_8h.xhtml" target="_top" xlink:title="The SocketClient class.">
<polygon fill="white" stroke="black" points="109,-58.5 109,-79.5 201,-79.5 201,-58.5 109,-58.5"/>
<text text-anchor="middle" x="155" y="-66.5" font-family="FreeSans.ttf" font-size="10.00">h/socketclient.h</text>
</a>
</g>
<!-- Node4&#45;&gt;Node6 -->
<g id="edge10" class="edge"><title>Node4&#45;&gt;Node6</title>
<path fill="none" stroke="midnightblue" d="M182.605,-109.118C173.583,-99.4377 164.071,-87.8098 158.578,-79.5707"/>
<polygon fill="midnightblue" stroke="midnightblue" points="180.168,-111.633 189.649,-116.362 185.186,-106.753 180.168,-111.633"/>
</g>
<!-- Node8 -->
<g id="node16" class="node"><title>Node8</title>
<a xlink:href="server_8cpp.xhtml" target="_top" xlink:title="All non&#45;trivial member functions of the Server class.">
<polygon fill="white" stroke="black" points="219,-58.5 219,-79.5 285,-79.5 285,-58.5 219,-58.5"/>
<text text-anchor="middle" x="252" y="-66.5" font-family="FreeSans.ttf" font-size="10.00">server.cpp</text>
</a>
</g>
<!-- Node4&#45;&gt;Node8 -->
<g id="edge16" class="edge"><title>Node4&#45;&gt;Node8</title>
<path fill="none" stroke="midnightblue" d="M219.277,-108.541C227.19,-98.9786 236.568,-87.6467 243.252,-79.5707"/>
<polygon fill="midnightblue" stroke="midnightblue" points="216.483,-106.426 212.804,-116.362 221.876,-110.889 216.483,-106.426"/>
</g>
<!-- Node4&#45;&gt;Node9 -->
<g id="edge18" class="edge"><title>Node4&#45;&gt;Node9</title>
<path fill="none" stroke="midnightblue" d="M240.36,-112.751C266.495,-102.509 301.168,-88.9206 324.898,-79.6212"/>
<polygon fill="midnightblue" stroke="midnightblue" points="238.835,-109.589 230.802,-116.497 241.389,-116.107 238.835,-109.589"/>
</g>
<!-- Node6&#45;&gt;Node4 -->
<g id="edge12" class="edge"><title>Node6&#45;&gt;Node4</title>
<path fill="none" stroke="midnightblue" d="M176.322,-86.8029C185.341,-96.4725 194.862,-108.104 200.377,-116.362"/>
<polygon fill="midnightblue" stroke="midnightblue" points="178.765,-84.2955 169.282,-79.5707 173.749,-89.1779 178.765,-84.2955"/>
</g>
<!-- Node7 -->
<g id="node14" class="node"><title>Node7</title>
<a xlink:href="socketclient_8cpp.xhtml" target="_top" xlink:title="All non&#45;trivial member functions of the SocketClient class.">
<polygon fill="white" stroke="black" points="108,-0.5 108,-21.5 202,-21.5 202,-0.5 108,-0.5"/>
<text text-anchor="middle" x="155" y="-8.5" font-family="FreeSans.ttf" font-size="10.00">socketclient.cpp</text>
</a>
</g>
<!-- Node6&#45;&gt;Node7 -->
<g id="edge14" class="edge"><title>Node6&#45;&gt;Node7</title>
<path fill="none" stroke="midnightblue" d="M155,-48.1906C155,-39.1684 155,-28.9941 155,-21.5707"/>
<polygon fill="midnightblue" stroke="midnightblue" points="151.5,-48.3619 155,-58.3619 158.5,-48.3619 151.5,-48.3619"/>
</g>
</g>
</svg>
