<?xml version="1.0" encoding="UTF-8" standalone="no"?>
<!DOCTYPE svg PUBLIC "-//W3C//DTD SVG 1.1//EN"
 "http://www.w3.org/Graphics/SVG/1.1/DTD/svg11.dtd">
<!-- Generated by graphviz version 2.26.3 (20100126.1600)
 -->
<!-- Title: G Pages: 1 -->
<!--zoomable 88 -->
<svg id="main" version="1.1" xmlns="http://www.w3.org/2000/svg" xmlns:xlink="http://www.w3.org/1999/xlink" xml:space="preserve" onload="init(evt)">
        <defs>
                <circle id="rim" cx="0" cy="0" r="7"/>
                <circle id="rim2" cx="0" cy="0" r="3.5"/>
                <g id="zoomPlus">
                        <use xlink:href="#rim" fill="#404040">
                                <set attributeName="fill" to="#808080" begin="zoomplus.mouseover" end="zoomplus.mouseout"/>
                        </use>
                        <path d="M-4,0h8M0,-4v8" fill="none" stroke="white" stroke-width="1.5" pointer-events="none"/>
                </g>
                <g id="zoomMin">
                        <use xlink:href="#rim" fill="#404040">
                                <set attributeName="fill" to="#808080" begin="zoomminus.mouseover" end="zoomminus.mouseout"/>
                        </use>
                        <path d="M-4,0h8" fill="none" stroke="white" stroke-width="1.5" pointer-events="none"/>
                </g>
                <g id="dirArrow">
                        <path fill="none" stroke="white" stroke-width="1.5" d="M0,-3.0v7 M-2.5,-0.5L0,-3.0L2.5,-0.5"/>
                </g>
               <g id="resetDef">
                       <use xlink:href="#rim2" fill="#404040">
                               <set attributeName="fill" to="#808080" begin="reset.mouseover" end="reset.mouseout"/>
                       </use>
               </g>
        </defs>

<script type="text/javascript">
var viewWidth = 556;
var viewHeight = 88;
var sectionId = 'dynsection-1';
</script>
<script xlink:href="svgpan.js"/>
<svg id="graph" class="graph">
<g id="viewport">
<title>G</title>
<polygon fill="white" stroke="white" points="-4,5 -4,-84 553,-84 553,5 -4,5"/>
<!-- Node1 -->
<g id="node1" class="node"><title>Node1</title>
<polygon fill="#bfbfbf" stroke="black" points="225,-58.5 225,-79.5 273,-79.5 273,-58.5 225,-58.5"/>
<text text-anchor="middle" x="249" y="-66.5" font-family="FreeSans.ttf" font-size="10.00">h/list.h</text>
</g>
<!-- Node2 -->
<g id="node3" class="node"><title>Node2</title>
<a xlink:href="command_8cpp.xhtml" target="_top" xlink:title="All non&#45;template member functions of the Command class.">
<polygon fill="white" stroke="black" points="0,-0.5 0,-21.5 86,-21.5 86,-0.5 0,-0.5"/>
<text text-anchor="middle" x="43" y="-8.5" font-family="FreeSans.ttf" font-size="10.00">command.cpp</text>
</a>
</g>
<!-- Node1&#45;&gt;Node2 -->
<g id="edge2" class="edge"><title>Node1&#45;&gt;Node2</title>
<path fill="none" stroke="midnightblue" d="M215.14,-59.4666C178.092,-49.0355 118.871,-32.3618 80.4572,-21.5462"/>
<polygon fill="midnightblue" stroke="midnightblue" points="214.392,-62.8919 224.966,-62.2332 216.289,-56.1539 214.392,-62.8919"/>
</g>
<!-- Node3 -->
<g id="node5" class="node"><title>Node3</title>
<a xlink:href="event_8cpp.xhtml" target="_top" xlink:title="All non&#45;template member functions of the Event class.">
<polygon fill="white" stroke="black" points="104,-0.5 104,-21.5 168,-21.5 168,-0.5 104,-0.5"/>
<text text-anchor="middle" x="136" y="-8.5" font-family="FreeSans.ttf" font-size="10.00">event.cpp</text>
</a>
</g>
<!-- Node1&#45;&gt;Node3 -->
<g id="edge4" class="edge"><title>Node1&#45;&gt;Node3</title>
<path fill="none" stroke="midnightblue" d="M219.375,-53.794C199.659,-43.6746 174.252,-30.6338 156.693,-21.6212"/>
<polygon fill="midnightblue" stroke="midnightblue" points="218.042,-57.044 228.537,-58.4966 221.238,-50.8164 218.042,-57.044"/>
</g>
<!-- Node4 -->
<g id="node7" class="node"><title>Node4</title>
<a xlink:href="list_8cpp.xhtml" target="_top" xlink:title="All globally referenced list / map / vector types.">
<polygon fill="white" stroke="black" points="186,-0.5 186,-21.5 236,-21.5 236,-0.5 186,-0.5"/>
<text text-anchor="middle" x="211" y="-8.5" font-family="FreeSans.ttf" font-size="10.00">list.cpp</text>
</a>
</g>
<!-- Node1&#45;&gt;Node4 -->
<g id="edge6" class="edge"><title>Node1&#45;&gt;Node4</title>
<path fill="none" stroke="midnightblue" d="M236.525,-49.9591C230.342,-40.522 223.11,-29.4835 217.926,-21.5707"/>
<polygon fill="midnightblue" stroke="midnightblue" points="233.622,-51.9154 242.03,-58.3619 239.478,-48.0792 233.622,-51.9154"/>
</g>
<!-- Node5 -->
<g id="node9" class="node"><title>Node5</title>
<a xlink:href="server_8cpp.xhtml" target="_top" xlink:title="All non&#45;template member functions of the Server class.">
<polygon fill="white" stroke="black" points="254,-0.5 254,-21.5 320,-21.5 320,-0.5 254,-0.5"/>
<text text-anchor="middle" x="287" y="-8.5" font-family="FreeSans.ttf" font-size="10.00">server.cpp</text>
</a>
</g>
<!-- Node1&#45;&gt;Node5 -->
<g id="edge8" class="edge"><title>Node1&#45;&gt;Node5</title>
<path fill="none" stroke="midnightblue" d="M261.475,-49.9591C267.658,-40.522 274.89,-29.4835 280.074,-21.5707"/>
<polygon fill="midnightblue" stroke="midnightblue" points="258.522,-48.0792 255.97,-58.3619 264.378,-51.9154 258.522,-48.0792"/>
</g>
<!-- Node6 -->
<g id="node11" class="node"><title>Node6</title>
<a xlink:href="socketclient_8cpp.xhtml" target="_top" xlink:title="All non&#45;template member functions of the SocketClient class.">
<polygon fill="white" stroke="black" points="338,-0.5 338,-21.5 432,-21.5 432,-0.5 338,-0.5"/>
<text text-anchor="middle" x="385" y="-8.5" font-family="FreeSans.ttf" font-size="10.00">socketclient.cpp</text>
</a>
</g>
<!-- Node1&#45;&gt;Node6 -->
<g id="edge10" class="edge"><title>Node1&#45;&gt;Node6</title>
<path fill="none" stroke="midnightblue" d="M282.464,-54.7286C306.558,-44.4534 338.526,-30.8198 360.321,-21.5249"/>
<polygon fill="midnightblue" stroke="midnightblue" points="280.826,-51.6219 273.001,-58.7643 283.572,-58.0608 280.826,-51.6219"/>
</g>
<!-- Node7 -->
<g id="node13" class="node"><title>Node7</title>
<a xlink:href="socketserver_8cpp.xhtml" target="_top" xlink:title="All non&#45;template member functions of the SocketServer class.">
<polygon fill="white" stroke="black" points="450,-0.5 450,-21.5 548,-21.5 548,-0.5 450,-0.5"/>
<text text-anchor="middle" x="499" y="-8.5" font-family="FreeSans.ttf" font-size="10.00">socketserver.cpp</text>
</a>
</g>
<!-- Node1&#45;&gt;Node7 -->
<g id="edge12" class="edge"><title>Node1&#45;&gt;Node7</title>
<path fill="none" stroke="midnightblue" d="M283.392,-61.0211C327.573,-50.7711 404.392,-32.9491 453.408,-21.5772"/>
<polygon fill="midnightblue" stroke="midnightblue" points="282.377,-57.6636 273.426,-63.3331 283.959,-64.4825 282.377,-57.6636"/>
</g>
</g>
</svg>
        <g id="navigator" transform="translate(0 0)" fill="#404254">
                <rect fill="#f2f5e9" fill-opacity="0.5" stroke="#606060" stroke-width=".5" x="0" y="0" width="60" height="60"/>
                <use id="zoomplus" xlink:href="#zoomPlus" x="17" y="9" onmousedown="handleZoom(evt,'in')"/>
                <use id="zoomminus" xlink:href="#zoomMin" x="42" y="9" onmousedown="handleZoom(evt,'out')"/>
                <use id="reset" xlink:href="#resetDef" x="30" y="36" onmousedown="handleReset()"/>
                <g id="arrowUp" xlink:href="#dirArrow" transform="translate(30 24)" onmousedown="handlePan(0,-1)">
                  <use xlink:href="#rim" fill="#404040">
                        <set attributeName="fill" to="#808080" begin="arrowUp.mouseover" end="arrowUp.mouseout"/>
                  </use>
                  <path fill="none" stroke="white" stroke-width="1.5" d="M0,-3.0v7 M-2.5,-0.5L0,-3.0L2.5,-0.5"/>
                </g>
                <g id="arrowRight" xlink:href="#dirArrow" transform="rotate(90) translate(36 -43)" onmousedown="handlePan(1,0)">
                  <use xlink:href="#rim" fill="#404040">
                        <set attributeName="fill" to="#808080" begin="arrowRight.mouseover" end="arrowRight.mouseout"/>
                  </use>
                  <path fill="none" stroke="white" stroke-width="1.5" d="M0,-3.0v7 M-2.5,-0.5L0,-3.0L2.5,-0.5"/>
                </g>
                <g id="arrowDown" xlink:href="#dirArrow" transform="rotate(180) translate(-30 -48)" onmousedown="handlePan(0,1)">
                  <use xlink:href="#rim" fill="#404040">
                        <set attributeName="fill" to="#808080" begin="arrowDown.mouseover" end="arrowDown.mouseout"/>
                  </use>
                  <path fill="none" stroke="white" stroke-width="1.5" d="M0,-3.0v7 M-2.5,-0.5L0,-3.0L2.5,-0.5"/>
                </g>
                <g id="arrowLeft" xlink:href="#dirArrow" transform="rotate(270) translate(-36 17)" onmousedown="handlePan(-1,0)">
                  <use xlink:href="#rim" fill="#404040">
                        <set attributeName="fill" to="#808080" begin="arrowLeft.mouseover" end="arrowLeft.mouseout"/>
                  </use>
                  <path fill="none" stroke="white" stroke-width="1.5" d="M0,-3.0v7 M-2.5,-0.5L0,-3.0L2.5,-0.5"/>
                </g>
        </g>
</svg>
