<?xml version="1.0" encoding="UTF-8" standalone="no"?>
<!DOCTYPE svg PUBLIC "-//W3C//DTD SVG 1.1//EN"
 "http://www.w3.org/Graphics/SVG/1.1/DTD/svg11.dtd">
<!-- Generated by graphviz version 2.26.3 (20100126.1600)
 -->
<!-- Title: G Pages: 1 -->
<!--zoomable 603 -->
<svg id="main" version="1.1" xmlns="http://www.w3.org/2000/svg" xmlns:xlink="http://www.w3.org/1999/xlink" xml:space="preserve" onload="init(evt)">
        <defs>
                <circle id="rim" cx="0" cy="0" r="7"/>
                <circle id="rim2" cx="0" cy="0" r="3.5"/>
                <g id="zoomPlus">
                        <use xlink:href="#rim" fill="#404040">
                                <set attributeName="fill" to="#808080" begin="zoomplus.mouseover" end="zoomplus.mouseout"/>
                        </use>
                        <path d="M-4,0h8M0,-4v8" fill="none" stroke="white" stroke-width="1.5" pointer-events="none"/>
                </g>
                <g id="zoomMin">
                        <use xlink:href="#rim" fill="#404040">
                                <set attributeName="fill" to="#808080" begin="zoomminus.mouseover" end="zoomminus.mouseout"/>
                        </use>
                        <path d="M-4,0h8" fill="none" stroke="white" stroke-width="1.5" pointer-events="none"/>
                </g>
                <g id="dirArrow">
                        <path fill="none" stroke="white" stroke-width="1.5" d="M0,-3.0v7 M-2.5,-0.5L0,-3.0L2.5,-0.5"/>
                </g>
               <g id="resetDef">
                       <use xlink:href="#rim2" fill="#404040">
                               <set attributeName="fill" to="#808080" begin="reset.mouseover" end="reset.mouseout"/>
                       </use>
               </g>
        </defs>

<script type="text/javascript">
var viewWidth = 1196;
var viewHeight = 603;
var sectionId = 'dynsection-7';
</script>
<script xlink:href="svgpan.js"/>
<svg id="graph" class="graph">
<g id="viewport">
<title>G</title>
<polygon fill="white" stroke="white" points="-4,5 -4,-598.631 1193,-598.631 1193,5 -4,5"/>
<!-- Node1 -->
<g id="node1" class="node"><title>Node1</title>
<polygon fill="#bfbfbf" stroke="black" points="0.5,-313.131 0.5,-334.131 85.5,-334.131 85.5,-313.131 0.5,-313.131"/>
<text text-anchor="middle" x="43" y="-321.131" font-family="FreeSans.ttf" font-size="10.00">Utils::DirExists</text>
</g>
<!-- Node2 -->
<g id="node3" class="node"><title>Node2</title>
<a xlink:href="namespaceHandler.xhtml#a44b41bf69fdc6e615a029bea34910191" target="_top" xlink:title="Send initial greeting and request for account name.">
<polygon fill="white" stroke="black" points="122.5,-313.131 122.5,-334.131 241.5,-334.131 241.5,-313.131 122.5,-313.131"/>
<text text-anchor="middle" x="182" y="-321.131" font-family="FreeSans.ttf" font-size="10.00">Handler::LoginScreen</text>
</a>
</g>
<!-- Node1&#45;&gt;Node2 -->
<g id="edge2" class="edge"><title>Node1&#45;&gt;Node2</title>
<path fill="none" stroke="midnightblue" d="M96.1218,-323.631C104.728,-323.631 113.689,-323.631 122.436,-323.631"/>
<polygon fill="midnightblue" stroke="midnightblue" points="95.8388,-320.131 85.8388,-323.631 95.8387,-327.131 95.8388,-320.131"/>
</g>
<!-- Node3 -->
<g id="node5" class="node"><title>Node3</title>
<a xlink:href="namespaceHandler.xhtml#a139febc000c9d767a620708148e0c888" target="_top" xlink:title="Dispatches the appropriate menu based on client state.">
<polygon fill="white" stroke="black" points="278.5,-313.131 278.5,-334.131 401.5,-334.131 401.5,-313.131 278.5,-313.131"/>
<text text-anchor="middle" x="340" y="-321.131" font-family="FreeSans.ttf" font-size="10.00">Handler::LoginHandler</text>
</a>
</g>
<!-- Node2&#45;&gt;Node3 -->
<g id="edge4" class="edge"><title>Node2&#45;&gt;Node3</title>
<path fill="none" stroke="midnightblue" d="M251.957,-316.92C260.749,-316.843 269.691,-316.879 278.342,-317.027"/>
<polygon fill="midnightblue" stroke="midnightblue" points="251.683,-313.424 241.733,-317.062 251.781,-320.423 251.683,-313.424"/>
</g>
<!-- Node3&#45;&gt;Node2 -->
<g id="edge58" class="edge"><title>Node3&#45;&gt;Node2</title>
<path fill="none" stroke="midnightblue" d="M268.079,-330.357C259.268,-330.417 250.338,-330.364 241.733,-330.199"/>
<polygon fill="midnightblue" stroke="midnightblue" points="268.385,-333.853 278.342,-330.234 268.301,-326.854 268.385,-333.853"/>
</g>
<!-- Node4 -->
<g id="node7" class="node"><title>Node4</title>
<a xlink:href="namespaceHandler.xhtml#a33a19d69ead678af81fbe96907eceaf0" target="_top" xlink:title="Create a new account object, or load an existing one, with a name and password.">
<polygon fill="white" stroke="black" points="466.5,-573.131 466.5,-594.131 597.5,-594.131 597.5,-573.131 466.5,-573.131"/>
<text text-anchor="middle" x="532" y="-581.131" font-family="FreeSans.ttf" font-size="10.00">Handler::AttachAccount</text>
</a>
</g>
<!-- Node3&#45;&gt;Node4 -->
<g id="edge6" class="edge"><title>Node3&#45;&gt;Node4</title>
<path fill="none" stroke="midnightblue" d="M342.673,-344.102C349.275,-389.671 371.015,-498.623 438,-554.631 449.776,-564.477 465.228,-569.829 480.193,-573.064"/>
<polygon fill="midnightblue" stroke="midnightblue" points="346.141,-343.629 341.332,-334.189 339.204,-344.568 346.141,-343.629"/>
</g>
<!-- Node5 -->
<g id="node10" class="node"><title>Node5</title>
<a xlink:href="namespaceHandler.xhtml#a2e4ebf6ed049eb872aa4948d54c4932c" target="_top" xlink:title="Attempt to write a new character to disk after creation was completed.">
<polygon fill="white" stroke="black" points="462.5,-533.131 462.5,-554.131 601.5,-554.131 601.5,-533.131 462.5,-533.131"/>
<text text-anchor="middle" x="532" y="-541.131" font-family="FreeSans.ttf" font-size="10.00">Handler::AttachCharacter</text>
</a>
</g>
<!-- Node3&#45;&gt;Node5 -->
<g id="edge10" class="edge"><title>Node3&#45;&gt;Node5</title>
<path fill="none" stroke="midnightblue" d="M345.179,-344.543C355.122,-384.431 381.147,-470.287 438,-514.631 450.761,-524.584 467.348,-529.866 483.028,-533.078"/>
<polygon fill="midnightblue" stroke="midnightblue" points="348.526,-343.491 342.789,-334.584 341.719,-345.124 348.526,-343.491"/>
</g>
<!-- Node6 -->
<g id="node13" class="node"><title>Node6</title>
<a xlink:href="namespaceHandler.xhtml#a73ed6064f2698dbffb5f4c247a02b661" target="_top" xlink:title="Send initial account interface menu.">
<polygon fill="white" stroke="black" points="458,-493.131 458,-514.131 606,-514.131 606,-493.131 458,-493.131"/>
<text text-anchor="middle" x="532" y="-501.131" font-family="FreeSans.ttf" font-size="10.00">Handler::AccountMenuMain</text>
</a>
</g>
<!-- Node3&#45;&gt;Node6 -->
<g id="edge14" class="edge"><title>Node3&#45;&gt;Node6</title>
<path fill="none" stroke="midnightblue" d="M348.617,-343.976C361.848,-377.051 390.72,-441.202 438,-474.631 452.168,-484.648 470.339,-489.828 486.921,-493.05"/>
<polygon fill="midnightblue" stroke="midnightblue" points="351.775,-342.441 344.867,-334.407 345.257,-344.995 351.775,-342.441"/>
</g>
<!-- Node7 -->
<g id="node16" class="node"><title>Node7</title>
<a xlink:href="namespaceHandler.xhtml#ad04998a7a6ece2486bc441052a57c2d7" target="_top" xlink:title="Main Character creation menu.">
<polygon fill="white" stroke="black" points="438,-453.131 438,-474.131 626,-474.131 626,-453.131 438,-453.131"/>
<text text-anchor="middle" x="532" y="-461.131" font-family="FreeSans.ttf" font-size="10.00">Handler::CharacterCreateMenuMain</text>
</a>
</g>
<!-- Node3&#45;&gt;Node7 -->
<g id="edge18" class="edge"><title>Node3&#45;&gt;Node7</title>
<path fill="none" stroke="midnightblue" d="M353.789,-342.686C370.117,-368.003 399.962,-411.424 438,-434.631 454.522,-444.711 475.371,-449.762 493.234,-453.11"/>
<polygon fill="midnightblue" stroke="midnightblue" points="356.73,-340.788 348.395,-334.248 350.832,-344.559 356.73,-340.788"/>
</g>
<!-- Node8 -->
<g id="node19" class="node"><title>Node8</title>
<a xlink:href="namespaceHandler.xhtml#ab5889a65de2794129b375ec39ae923ae" target="_top" xlink:title="Select a new Character name.">
<polygon fill="white" stroke="black" points="447.5,-413.131 447.5,-434.131 616.5,-434.131 616.5,-413.131 447.5,-413.131"/>
<text text-anchor="middle" x="532" y="-421.131" font-family="FreeSans.ttf" font-size="10.00">Handler::CharacterCreateName</text>
</a>
</g>
<!-- Node3&#45;&gt;Node8 -->
<g id="edge22" class="edge"><title>Node3&#45;&gt;Node8</title>
<path fill="none" stroke="midnightblue" d="M363.589,-341.012C382.142,-357.441 409.536,-380.982 438,-394.631 458.009,-404.226 482.599,-409.249 501.61,-413.123"/>
<polygon fill="midnightblue" stroke="midnightblue" points="365.762,-338.26 355.959,-334.24 361.115,-343.496 365.762,-338.26"/>
</g>
<!-- Node9 -->
<g id="node22" class="node"><title>Node9</title>
<a xlink:href="namespaceHandler.xhtml#ae5086bcf5857eb572beedd09158c3065" target="_top" xlink:title="Select a new Character sex.">
<polygon fill="white" stroke="black" points="453,-373.131 453,-394.131 611,-394.131 611,-373.131 453,-373.131"/>
<text text-anchor="middle" x="532" y="-381.131" font-family="FreeSans.ttf" font-size="10.00">Handler::CharacterCreateSex</text>
</a>
</g>
<!-- Node3&#45;&gt;Node9 -->
<g id="edge26" class="edge"><title>Node3&#45;&gt;Node9</title>
<path fill="none" stroke="midnightblue" d="M391.367,-337.964C406.219,-343.693 422.584,-349.886 438,-354.631 462.398,-362.14 491.209,-367.817 510.443,-373.091"/>
<polygon fill="midnightblue" stroke="midnightblue" points="392.441,-334.627 381.852,-334.287 389.918,-341.157 392.441,-334.627"/>
</g>
<!-- Node10 -->
<g id="node25" class="node"><title>Node10</title>
<a xlink:href="namespaceHandler.xhtml#a97a198bfc72285b2aca4f36978db715e" target="_top" xlink:title="Main Character deletion confirmation.">
<polygon fill="white" stroke="black" points="444,-333.131 444,-354.131 620,-354.131 620,-333.131 444,-333.131"/>
<text text-anchor="middle" x="532" y="-341.131" font-family="FreeSans.ttf" font-size="10.00">Handler::CharacterDeleteConfirm</text>
</a>
</g>
<!-- Node3&#45;&gt;Node10 -->
<g id="edge30" class="edge"><title>Node3&#45;&gt;Node10</title>
<path fill="none" stroke="midnightblue" d="M411.799,-324.554C436.988,-326.765 464.555,-329.881 486.928,-333.113"/>
<polygon fill="midnightblue" stroke="midnightblue" points="411.8,-321.042 401.542,-323.694 411.215,-328.018 411.8,-321.042"/>
</g>
<!-- Node11 -->
<g id="node28" class="node"><title>Node11</title>
<a xlink:href="namespaceHandler.xhtml#afc470ec6e82b7a9a1560588a368734f9" target="_top" xlink:title="Main Character deletion menu.">
<polygon fill="white" stroke="black" points="438,-293.131 438,-314.131 626,-314.131 626,-293.131 438,-293.131"/>
<text text-anchor="middle" x="532" y="-301.131" font-family="FreeSans.ttf" font-size="10.00">Handler::CharacterDeleteMenuMain</text>
</a>
</g>
<!-- Node3&#45;&gt;Node11 -->
<g id="edge34" class="edge"><title>Node3&#45;&gt;Node11</title>
<path fill="none" stroke="midnightblue" d="M394.975,-311.735C408.362,-309.938 423.061,-308.213 437.706,-306.704"/>
<polygon fill="midnightblue" stroke="midnightblue" points="394.437,-308.276 385.015,-313.121 395.403,-315.209 394.437,-308.276"/>
</g>
<!-- Node12 -->
<g id="node31" class="node"><title>Node12</title>
<a xlink:href="namespaceHandler.xhtml#a02b1b954749641ab646f6548a5360d3b" target="_top" xlink:title="Main Character load menu.">
<polygon fill="white" stroke="black" points="442.5,-253.131 442.5,-274.131 621.5,-274.131 621.5,-253.131 442.5,-253.131"/>
<text text-anchor="middle" x="532" y="-261.131" font-family="FreeSans.ttf" font-size="10.00">Handler::CharacterLoadMenuMain</text>
</a>
</g>
<!-- Node3&#45;&gt;Node12 -->
<g id="edge38" class="edge"><title>Node3&#45;&gt;Node12</title>
<path fill="none" stroke="midnightblue" d="M359.21,-307.788C378.704,-296.716 409.926,-283.271 438,-274.631 439.435,-274.189 440.886,-273.754 442.349,-273.325"/>
<polygon fill="midnightblue" stroke="midnightblue" points="357.368,-304.811 350.647,-313.001 361.009,-310.79 357.368,-304.811"/>
</g>
<!-- Node13 -->
<g id="node34" class="node"><title>Node13</title>
<a xlink:href="namespaceHandler.xhtml#a00bc24564bfd267e0329643c569da1e4" target="_top" xlink:title="Select a new account name.">
<polygon fill="white" stroke="black" points="463.5,-213.131 463.5,-234.131 600.5,-234.131 600.5,-213.131 463.5,-213.131"/>
<text text-anchor="middle" x="532" y="-221.131" font-family="FreeSans.ttf" font-size="10.00">Handler::GetNewAccount</text>
</a>
</g>
<!-- Node3&#45;&gt;Node13 -->
<g id="edge42" class="edge"><title>Node3&#45;&gt;Node13</title>
<path fill="none" stroke="midnightblue" d="M351.558,-305.066C368.65,-284.076 402.492,-251.657 438,-234.631 445.974,-230.807 454.675,-227.71 463.46,-225.281"/>
<polygon fill="midnightblue" stroke="midnightblue" points="348.772,-302.949 345.487,-313.021 354.336,-307.196 348.772,-302.949"/>
</g>
<!-- Node14 -->
<g id="node37" class="node"><title>Node14</title>
<a xlink:href="namespaceHandler.xhtml#a744adadcf407cdb3a9c33365afd5a7c2" target="_top" xlink:title="Create a new account.">
<polygon fill="white" stroke="black" points="461,-173.131 461,-194.131 603,-194.131 603,-173.131 461,-173.131"/>
<text text-anchor="middle" x="532" y="-181.131" font-family="FreeSans.ttf" font-size="10.00">Handler::GetNewPassword</text>
</a>
</g>
<!-- Node3&#45;&gt;Node14 -->
<g id="edge46" class="edge"><title>Node3&#45;&gt;Node14</title>
<path fill="none" stroke="midnightblue" d="M347.563,-303.635C361.646,-274.255 394.455,-221.197 438,-194.631 444.979,-190.373 452.73,-187.012 460.703,-184.424"/>
<polygon fill="midnightblue" stroke="midnightblue" points="344.28,-302.402 343.376,-312.958 350.666,-305.27 344.28,-302.402"/>
</g>
<!-- Node15 -->
<g id="node40" class="node"><title>Node15</title>
<a xlink:href="namespaceHandler.xhtml#adfe13cc9748392348f3941656a1323b6" target="_top" xlink:title="Compare a received password against an existing account.">
<polygon fill="white" stroke="black" points="463.5,-133.131 463.5,-154.131 600.5,-154.131 600.5,-133.131 463.5,-133.131"/>
<text text-anchor="middle" x="532" y="-141.131" font-family="FreeSans.ttf" font-size="10.00">Handler::GetOldPassword</text>
</a>
</g>
<!-- Node3&#45;&gt;Node15 -->
<g id="edge50" class="edge"><title>Node3&#45;&gt;Node15</title>
<path fill="none" stroke="midnightblue" d="M344.925,-302.865C355.919,-266.195 385.694,-191.613 438,-154.631 445.629,-149.237 454.419,-145.245 463.496,-142.396"/>
<polygon fill="midnightblue" stroke="midnightblue" points="341.429,-302.372 342.112,-312.945 348.171,-304.254 341.429,-302.372"/>
</g>
<!-- Node16 -->
<g id="node43" class="node"><title>Node16</title>
<a xlink:href="namespaceHandler.xhtml#ae70e4e50054c729c14493eafefe01b5c" target="_top" xlink:title="Load a character from the account to enter into the game with.">
<polygon fill="white" stroke="black" points="466.5,-93.1308 466.5,-114.131 597.5,-114.131 597.5,-93.1308 466.5,-93.1308"/>
<text text-anchor="middle" x="532" y="-101.131" font-family="FreeSans.ttf" font-size="10.00">Handler::LoadCharacter</text>
</a>
</g>
<!-- Node3&#45;&gt;Node16 -->
<g id="edge54" class="edge"><title>Node3&#45;&gt;Node16</title>
<path fill="none" stroke="midnightblue" d="M342.976,-302.766C350.905,-259.787 376.295,-162.759 438,-114.631 446.288,-108.166 456.19,-103.672 466.409,-100.704"/>
<polygon fill="midnightblue" stroke="midnightblue" points="339.514,-302.249 341.29,-312.694 346.415,-303.421 339.514,-302.249"/>
</g>
<!-- Node17 -->
<g id="node47" class="node"><title>Node17</title>
<a xlink:href="classSocketClient.xhtml#a8399ef20292e9f3ec83b5c4bec2e105b" target="_top" xlink:title="Build a SocketClient for a new client connection and set all attributes.">
<polygon fill="white" stroke="black" points="480.5,-53.1308 480.5,-74.1308 583.5,-74.1308 583.5,-53.1308 480.5,-53.1308"/>
<text text-anchor="middle" x="532" y="-61.1308" font-family="FreeSans.ttf" font-size="10.00">SocketClient::New</text>
</a>
</g>
<!-- Node3&#45;&gt;Node17 -->
<g id="edge60" class="edge"><title>Node3&#45;&gt;Node17</title>
<path fill="none" stroke="midnightblue" d="M342.062,-302.822C347.876,-255.913 368.782,-141.505 438,-83.6308 449.776,-73.7846 465.228,-68.4323 480.193,-65.6156"/>
<polygon fill="midnightblue" stroke="midnightblue" points="338.56,-302.649 340.914,-312.979 345.515,-303.436 338.56,-302.649"/>
</g>
<!-- Node24 -->
<g id="node62" class="node"><title>Node24</title>
<a xlink:href="classSocketClient.xhtml#ad4f63c7d906310dc56a1217136047d7f" target="_top" xlink:title="Interpret the command at the front of the queue.">
<polygon fill="white" stroke="black" points="662,-13.1308 662,-34.1308 832,-34.1308 832,-13.1308 662,-13.1308"/>
<text text-anchor="middle" x="747" y="-21.1308" font-family="FreeSans.ttf" font-size="10.00">SocketClient::ProcessCommand</text>
</a>
</g>
<!-- Node3&#45;&gt;Node24 -->
<g id="edge76" class="edge"><title>Node3&#45;&gt;Node24</title>
<path fill="none" stroke="midnightblue" d="M344.189,-302.898C356.588,-243.747 394.936,-76.326 438,-43.6308 516.461,15.9384 640.925,0.473902 705.329,-13.1262"/>
<polygon fill="midnightblue" stroke="midnightblue" points="340.714,-302.42 342.121,-312.921 347.57,-303.835 340.714,-302.42"/>
</g>
<!-- Node4&#45;&gt;Node3 -->
<g id="edge8" class="edge"><title>Node4&#45;&gt;Node3</title>
<path fill="none" stroke="midnightblue" d="M456.183,-583.517C449.614,-580.74 443.418,-577.161 438,-572.631 360.831,-508.108 343.71,-373.317 340.606,-334.144"/>
<polygon fill="midnightblue" stroke="midnightblue" points="455.432,-586.965 466.027,-587.031 457.785,-580.373 455.432,-586.965"/>
</g>
<!-- Node5&#45;&gt;Node3 -->
<g id="edge12" class="edge"><title>Node5&#45;&gt;Node3</title>
<path fill="none" stroke="midnightblue" d="M452.51,-541.392C447.343,-538.992 442.44,-536.094 438,-532.631 370.924,-480.313 346.759,-370.211 341.29,-334.568"/>
<polygon fill="midnightblue" stroke="midnightblue" points="451.467,-544.744 462.053,-545.191 454.056,-538.24 451.467,-544.744"/>
</g>
<!-- Node6&#45;&gt;Node3 -->
<g id="edge16" class="edge"><title>Node6&#45;&gt;Node3</title>
<path fill="none" stroke="midnightblue" d="M448.408,-498.828C444.771,-497.007 441.278,-494.949 438,-492.631 380.283,-451.823 349.999,-365.234 342.112,-334.317"/>
<polygon fill="midnightblue" stroke="midnightblue" points="447.142,-502.094 457.709,-502.874 449.935,-495.675 447.142,-502.094"/>
</g>
<!-- Node7&#45;&gt;Node3 -->
<g id="edge20" class="edge"><title>Node7&#45;&gt;Node3</title>
<path fill="none" stroke="midnightblue" d="M429.941,-447.3C385.273,-415.699 353.433,-358.614 343.376,-334.304"/>
<polygon fill="midnightblue" stroke="midnightblue" points="428.152,-450.313 438.428,-452.89 432.002,-444.467 428.152,-450.313"/>
</g>
<!-- Node8&#45;&gt;Node3 -->
<g id="edge24" class="edge"><title>Node8&#45;&gt;Node3</title>
<path fill="none" stroke="midnightblue" d="M438.282,-412.766C438.188,-412.721 438.094,-412.676 438,-412.631 397.6,-393.258 359.357,-353.96 345.487,-334.24"/>
<polygon fill="midnightblue" stroke="midnightblue" points="436.734,-415.91 447.303,-416.652 439.504,-409.481 436.734,-415.91"/>
</g>
<!-- Node9&#45;&gt;Node3 -->
<g id="edge28" class="edge"><title>Node9&#45;&gt;Node3</title>
<path fill="none" stroke="midnightblue" d="M442.989,-374.123C441.309,-373.635 439.644,-373.137 438,-372.631 405.332,-362.576 368.401,-346.016 350.647,-334.26"/>
<polygon fill="midnightblue" stroke="midnightblue" points="442.185,-377.532 452.755,-376.819 444.047,-370.784 442.185,-377.532"/>
</g>
<!-- Node10&#45;&gt;Node3 -->
<g id="edge32" class="edge"><title>Node10&#45;&gt;Node3</title>
<path fill="none" stroke="midnightblue" d="M433.817,-340.152C416.736,-338.348 399.747,-336.269 385.015,-334.14"/>
<polygon fill="midnightblue" stroke="midnightblue" points="433.564,-343.644 443.868,-341.18 434.276,-336.68 433.564,-343.644"/>
</g>
<!-- Node11&#45;&gt;Node3 -->
<g id="edge36" class="edge"><title>Node11&#45;&gt;Node3</title>
<path fill="none" stroke="midnightblue" d="M476.773,-315.56C453.25,-318.713 425.716,-321.638 401.542,-323.568"/>
<polygon fill="midnightblue" stroke="midnightblue" points="477.505,-318.992 486.928,-314.148 476.541,-312.059 477.505,-318.992"/>
</g>
<!-- Node12&#45;&gt;Node3 -->
<g id="edge40" class="edge"><title>Node12&#45;&gt;Node3</title>
<path fill="none" stroke="midnightblue" d="M500.522,-276.741C482.094,-281.31 458.491,-286.324 438,-292.631 419.207,-298.415 399.003,-306.352 381.852,-312.974"/>
<polygon fill="midnightblue" stroke="midnightblue" points="501.641,-280.067 510.443,-274.17 499.885,-273.291 501.641,-280.067"/>
</g>
<!-- Node13&#45;&gt;Node3 -->
<g id="edge44" class="edge"><title>Node13&#45;&gt;Node3</title>
<path fill="none" stroke="midnightblue" d="M491.365,-236.255C474.282,-239.874 454.57,-244.685 438,-252.631 405.324,-268.3 374.058,-297.004 355.959,-313.021"/>
<polygon fill="midnightblue" stroke="midnightblue" points="492.525,-239.589 501.61,-234.138 491.108,-232.734 492.525,-239.589"/>
</g>
<!-- Node14&#45;&gt;Node3 -->
<g id="edge48" class="edge"><title>Node14&#45;&gt;Node3</title>
<path fill="none" stroke="midnightblue" d="M483.358,-196.141C468.018,-199.477 451.553,-204.362 438,-212.631 395.291,-238.687 362.91,-290.228 348.395,-313.014"/>
<polygon fill="midnightblue" stroke="midnightblue" points="484.122,-199.557 493.234,-194.152 482.74,-192.695 484.122,-199.557"/>
</g>
<!-- Node15&#45;&gt;Node3 -->
<g id="edge52" class="edge"><title>Node15&#45;&gt;Node3</title>
<path fill="none" stroke="midnightblue" d="M477.065,-156.345C463.394,-159.642 449.401,-164.57 438,-172.631 385.603,-209.678 355.815,-284.456 344.867,-312.855"/>
<polygon fill="midnightblue" stroke="midnightblue" points="477.888,-159.748 486.921,-154.212 476.407,-152.907 477.888,-159.748"/>
</g>
<!-- Node16&#45;&gt;Node3 -->
<g id="edge56" class="edge"><title>Node16&#45;&gt;Node3</title>
<path fill="none" stroke="midnightblue" d="M473.029,-116.517C460.521,-119.831 448.07,-124.777 438,-132.631 375.802,-181.143 350.501,-279.341 342.789,-312.678"/>
<polygon fill="midnightblue" stroke="midnightblue" points="474.085,-119.865 483.028,-114.184 472.494,-113.048 474.085,-119.865"/>
</g>
<!-- Node18 -->
<g id="node49" class="node"><title>Node18</title>
<a xlink:href="namespaceServer.xhtml#a16ea0639731dee10e1a253375b508a02" target="_top" xlink:title="Recovers the server state and re&#45;connects client sockets after a reboot.">
<polygon fill="white" stroke="black" points="682,-93.1308 682,-114.131 812,-114.131 812,-93.1308 682,-93.1308"/>
<text text-anchor="middle" x="747" y="-101.131" font-family="FreeSans.ttf" font-size="10.00">Server::RebootRecovery</text>
</a>
</g>
<!-- Node17&#45;&gt;Node18 -->
<g id="edge62" class="edge"><title>Node17&#45;&gt;Node18</title>
<path fill="none" stroke="midnightblue" d="M593.843,-75.1365C624.275,-80.7982 660.702,-87.5753 690.394,-93.0995"/>
<polygon fill="midnightblue" stroke="midnightblue" points="594.243,-71.6509 583.771,-73.2627 592.963,-78.5328 594.243,-71.6509"/>
</g>
<!-- Node21 -->
<g id="node55" class="node"><title>Node21</title>
<a xlink:href="classSocketServer.xhtml#afdbc60c3bc840875d2214b59c6213f63" target="_top" xlink:title="Accept a new connection on the listening port.">
<polygon fill="white" stroke="black" points="687,-53.1308 687,-74.1308 807,-74.1308 807,-53.1308 687,-53.1308"/>
<text text-anchor="middle" x="747" y="-61.1308" font-family="FreeSans.ttf" font-size="10.00">SocketServer::Accept</text>
</a>
</g>
<!-- Node17&#45;&gt;Node21 -->
<g id="edge68" class="edge"><title>Node17&#45;&gt;Node21</title>
<path fill="none" stroke="midnightblue" d="M593.868,-63.6308C623.117,-63.6308 657.901,-63.6308 686.92,-63.6308"/>
<polygon fill="midnightblue" stroke="midnightblue" points="593.771,-60.1309 583.771,-63.6308 593.771,-67.1309 593.771,-60.1309"/>
</g>
<!-- Node19 -->
<g id="node51" class="node"><title>Node19</title>
<a xlink:href="namespaceServer.xhtml#a19a1e493e1fb50a56d9c77332543d565" target="_top" xlink:title="Start the NAMS Server. Responsible for calling all critical boot&#45;time functions such as SocketServer ...">
<polygon fill="white" stroke="black" points="1020,-93.1308 1020,-114.131 1110,-114.131 1110,-93.1308 1020,-93.1308"/>
<text text-anchor="middle" x="1065" y="-101.131" font-family="FreeSans.ttf" font-size="10.00">Server::Startup</text>
</a>
</g>
<!-- Node18&#45;&gt;Node19 -->
<g id="edge64" class="edge"><title>Node18&#45;&gt;Node19</title>
<path fill="none" stroke="midnightblue" d="M822.16,-103.631C883.639,-103.631 968.543,-103.631 1019.95,-103.631"/>
<polygon fill="midnightblue" stroke="midnightblue" points="822.119,-100.131 812.119,-103.631 822.119,-107.131 822.119,-100.131"/>
</g>
<!-- Node20 -->
<g id="node53" class="node"><title>Node20</title>
<a xlink:href="main_8cpp.xhtml#ad53223b8779f25caeddb70a3b9172967" target="_top" xlink:title="The default function required to execute the server.">
<polygon fill="white" stroke="black" points="1146.5,-73.1308 1146.5,-94.1308 1187.5,-94.1308 1187.5,-73.1308 1146.5,-73.1308"/>
<text text-anchor="middle" x="1167" y="-81.1308" font-family="FreeSans.ttf" font-size="10.00">main</text>
</a>
</g>
<!-- Node19&#45;&gt;Node20 -->
<g id="edge66" class="edge"><title>Node19&#45;&gt;Node20</title>
<path fill="none" stroke="midnightblue" d="M1119.9,-92.8652C1129.36,-91.0103 1138.64,-89.1907 1146.43,-87.6638"/>
<polygon fill="midnightblue" stroke="midnightblue" points="1119.18,-89.4414 1110.04,-94.8003 1120.52,-96.3106 1119.18,-89.4414"/>
</g>
<!-- Node22 -->
<g id="node57" class="node"><title>Node22</title>
<a xlink:href="namespaceServer.xhtml#a39dbe16fdc8c5f6fbd678c6540fbcd6c" target="_top" xlink:title="Poll all SocketClient objects that are communicating with the associated SocketServer object...">
<polygon fill="white" stroke="black" points="871.5,-53.1308 871.5,-74.1308 980.5,-74.1308 980.5,-53.1308 871.5,-53.1308"/>
<text text-anchor="middle" x="926" y="-61.1308" font-family="FreeSans.ttf" font-size="10.00">Server::PollSockets</text>
</a>
</g>
<!-- Node21&#45;&gt;Node22 -->
<g id="edge70" class="edge"><title>Node21&#45;&gt;Node22</title>
<path fill="none" stroke="midnightblue" d="M817.268,-63.6308C835.284,-63.6308 854.391,-63.6308 871.478,-63.6308"/>
<polygon fill="midnightblue" stroke="midnightblue" points="817.102,-60.1309 807.102,-63.6308 817.102,-67.1309 817.102,-60.1309"/>
</g>
<!-- Node23 -->
<g id="node59" class="node"><title>Node23</title>
<a xlink:href="namespaceServer.xhtml#a50b81aa91d8fdaee6f52c5c5ec987990" target="_top" xlink:title="The core update loop of NAMS. This loop spawns all other subsystem update routines and then sleeps fo...">
<polygon fill="white" stroke="black" points="1020.5,-53.1308 1020.5,-74.1308 1109.5,-74.1308 1109.5,-53.1308 1020.5,-53.1308"/>
<text text-anchor="middle" x="1065" y="-61.1308" font-family="FreeSans.ttf" font-size="10.00">Server::Update</text>
</a>
</g>
<!-- Node22&#45;&gt;Node23 -->
<g id="edge72" class="edge"><title>Node22&#45;&gt;Node23</title>
<path fill="none" stroke="midnightblue" d="M990.574,-63.6308C1000.69,-63.6308 1010.94,-63.6308 1020.47,-63.6308"/>
<polygon fill="midnightblue" stroke="midnightblue" points="990.538,-60.1309 980.538,-63.6308 990.537,-67.1309 990.538,-60.1309"/>
</g>
<!-- Node23&#45;&gt;Node20 -->
<g id="edge74" class="edge"><title>Node23&#45;&gt;Node20</title>
<path fill="none" stroke="midnightblue" d="M1119.64,-74.3449C1129.14,-76.2071 1138.47,-78.0362 1146.3,-79.572"/>
<polygon fill="midnightblue" stroke="midnightblue" points="1120.23,-70.8927 1109.74,-72.4031 1118.88,-77.7619 1120.23,-70.8927"/>
</g>
<!-- Node25 -->
<g id="node64" class="node"><title>Node25</title>
<a xlink:href="namespaceServer.xhtml#a2b4cec469bb99c2a45e49de5ba74d1ae" target="_top" xlink:title="Processes input from all active SocketClient objects.">
<polygon fill="white" stroke="black" points="868,-13.1308 868,-34.1308 984,-34.1308 984,-13.1308 868,-13.1308"/>
<text text-anchor="middle" x="926" y="-21.1308" font-family="FreeSans.ttf" font-size="10.00">Server::ProcessInput</text>
</a>
</g>
<!-- Node24&#45;&gt;Node25 -->
<g id="edge78" class="edge"><title>Node24&#45;&gt;Node25</title>
<path fill="none" stroke="midnightblue" d="M842.249,-23.6308C850.93,-23.6308 859.54,-23.6308 867.748,-23.6308"/>
<polygon fill="midnightblue" stroke="midnightblue" points="842.044,-20.1309 832.044,-23.6308 842.044,-27.1309 842.044,-20.1309"/>
</g>
<!-- Node25&#45;&gt;Node23 -->
<g id="edge80" class="edge"><title>Node25&#45;&gt;Node23</title>
<path fill="none" stroke="midnightblue" d="M972.342,-36.9666C990.529,-42.2004 1011.11,-48.1216 1028.24,-53.0525"/>
<polygon fill="midnightblue" stroke="midnightblue" points="973.099,-33.5423 962.521,-34.1403 971.163,-40.2693 973.099,-33.5423"/>
</g>
</g>
</svg>
        <g id="navigator" transform="translate(0 0)" fill="#404254">
                <rect fill="#f2f5e9" fill-opacity="0.5" stroke="#606060" stroke-width=".5" x="0" y="0" width="60" height="60"/>
                <use id="zoomplus" xlink:href="#zoomPlus" x="17" y="9" onmousedown="handleZoom(evt,'in')"/>
                <use id="zoomminus" xlink:href="#zoomMin" x="42" y="9" onmousedown="handleZoom(evt,'out')"/>
                <use id="reset" xlink:href="#resetDef" x="30" y="36" onmousedown="handleReset()"/>
                <g id="arrowUp" xlink:href="#dirArrow" transform="translate(30 24)" onmousedown="handlePan(0,-1)">
                  <use xlink:href="#rim" fill="#404040">
                        <set attributeName="fill" to="#808080" begin="arrowUp.mouseover" end="arrowUp.mouseout"/>
                  </use>
                  <path fill="none" stroke="white" stroke-width="1.5" d="M0,-3.0v7 M-2.5,-0.5L0,-3.0L2.5,-0.5"/>
                </g>
                <g id="arrowRight" xlink:href="#dirArrow" transform="rotate(90) translate(36 -43)" onmousedown="handlePan(1,0)">
                  <use xlink:href="#rim" fill="#404040">
                        <set attributeName="fill" to="#808080" begin="arrowRight.mouseover" end="arrowRight.mouseout"/>
                  </use>
                  <path fill="none" stroke="white" stroke-width="1.5" d="M0,-3.0v7 M-2.5,-0.5L0,-3.0L2.5,-0.5"/>
                </g>
                <g id="arrowDown" xlink:href="#dirArrow" transform="rotate(180) translate(-30 -48)" onmousedown="handlePan(0,1)">
                  <use xlink:href="#rim" fill="#404040">
                        <set attributeName="fill" to="#808080" begin="arrowDown.mouseover" end="arrowDown.mouseout"/>
                  </use>
                  <path fill="none" stroke="white" stroke-width="1.5" d="M0,-3.0v7 M-2.5,-0.5L0,-3.0L2.5,-0.5"/>
                </g>
                <g id="arrowLeft" xlink:href="#dirArrow" transform="rotate(270) translate(-36 17)" onmousedown="handlePan(-1,0)">
                  <use xlink:href="#rim" fill="#404040">
                        <set attributeName="fill" to="#808080" begin="arrowLeft.mouseover" end="arrowLeft.mouseout"/>
                  </use>
                  <path fill="none" stroke="white" stroke-width="1.5" d="M0,-3.0v7 M-2.5,-0.5L0,-3.0L2.5,-0.5"/>
                </g>
        </g>
</svg>
