<?xml version="1.0" encoding="UTF-8" standalone="no"?>
<!DOCTYPE svg PUBLIC "-//W3C//DTD SVG 1.1//EN"
 "http://www.w3.org/Graphics/SVG/1.1/DTD/svg11.dtd">
<!-- Generated by graphviz version 2.26.3 (20100126.1600)
 -->
<!-- Title: Handler::FindExit Pages: 1 -->
<svg width="232pt" height="104pt"
 viewBox="0.00 0.00 232.00 104.00" xmlns="http://www.w3.org/2000/svg" xmlns:xlink="http://www.w3.org/1999/xlink">
<g id="graph1" class="graph" transform="scale(1 1) rotate(0) translate(4 100)">
<title>Handler::FindExit</title>
<polygon fill="white" stroke="white" points="-4,5 -4,-100 229,-100 229,5 -4,5"/>
<!-- Node1 -->
<g id="node1" class="node"><title>Node1</title>
<polygon fill="#bfbfbf" stroke="black" points="0,-38 0,-58 96,-58 96,-38 0,-38"/>
<text text-anchor="middle" x="48" y="-45" font-family="FreeSans.ttf" font-size="10.00">Handler::FindExit</text>
</g>
<!-- Node2 -->
<g id="node3" class="node"><title>Node2</title>
<a xlink:href="classLocation.xhtml#ae583e2944b9f01b0cf3784040f9ba32e" target="_top" xlink:title="Returns the list of Exits associated to this Location.">
<polygon fill="white" stroke="black" points="132,-76 132,-96 224,-96 224,-76 132,-76"/>
<text text-anchor="middle" x="178" y="-83" font-family="FreeSans.ttf" font-size="10.00">Location::gExits</text>
</a>
</g>
<!-- Node1&#45;&gt;Node2 -->
<g id="edge2" class="edge"><title>Node1&#45;&gt;Node2</title>
<path fill="none" stroke="midnightblue" d="M82.4963,-58.0835C98.0694,-62.6357 116.664,-68.0709 133.29,-72.9308"/>
<polygon fill="midnightblue" stroke="midnightblue" points="132.762,-76.423 143.342,-75.8693 134.726,-69.7042 132.762,-76.423"/>
</g>
<!-- Node3 -->
<g id="node5" class="node"><title>Node3</title>
<a xlink:href="namespaceUtils.xhtml#a9b70f9dd0af906c806695b35488e778f" target="_top" xlink:title="Returns a string converted to all lowercase letters.">
<polygon fill="white" stroke="black" points="142.5,-38 142.5,-58 213.5,-58 213.5,-38 142.5,-38"/>
<text text-anchor="middle" x="178" y="-45" font-family="FreeSans.ttf" font-size="10.00">Utils::Lower</text>
</a>
</g>
<!-- Node1&#45;&gt;Node3 -->
<g id="edge4" class="edge"><title>Node1&#45;&gt;Node3</title>
<path fill="none" stroke="midnightblue" d="M96.0379,-48C107.897,-48 120.567,-48 132.312,-48"/>
<polygon fill="midnightblue" stroke="midnightblue" points="132.351,-51.5001 142.351,-48 132.351,-44.5001 132.351,-51.5001"/>
</g>
<!-- Node4 -->
<g id="node7" class="node"><title>Node4</title>
<a xlink:href="classExit.xhtml#a34207621e47d7bf64933eb68d05fedd9" target="_top" xlink:title="Returns the name of the Exit.">
<polygon fill="white" stroke="black" points="140.5,-0 140.5,-20 215.5,-20 215.5,-0 140.5,-0"/>
<text text-anchor="middle" x="178" y="-7" font-family="FreeSans.ttf" font-size="10.00">Exit::gName</text>
</a>
</g>
<!-- Node1&#45;&gt;Node4 -->
<g id="edge6" class="edge"><title>Node1&#45;&gt;Node4</title>
<path fill="none" stroke="midnightblue" d="M82.4963,-37.9165C98.0694,-33.3643 116.664,-27.9291 133.29,-23.0692"/>
<polygon fill="midnightblue" stroke="midnightblue" points="134.726,-26.2958 143.342,-20.1307 132.762,-19.577 134.726,-26.2958"/>
</g>
</g>
</svg>
