<?xml version="1.0" encoding="UTF-8" standalone="no"?>
<!DOCTYPE svg PUBLIC "-//W3C//DTD SVG 1.1//EN"
 "http://www.w3.org/Graphics/SVG/1.1/DTD/svg11.dtd">
<!-- Generated by graphviz version 2.26.3 (20100126.1600)
 -->
<!-- Title: G Pages: 1 -->
<!--zoomable 603 -->
<svg id="main" version="1.1" xmlns="http://www.w3.org/2000/svg" xmlns:xlink="http://www.w3.org/1999/xlink" xml:space="preserve" onload="init(evt)">
        <defs>
                <circle id="rim" cx="0" cy="0" r="7"/>
                <circle id="rim2" cx="0" cy="0" r="3.5"/>
                <g id="zoomPlus">
                        <use xlink:href="#rim" fill="#404040">
                                <set attributeName="fill" to="#808080" begin="zoomplus.mouseover" end="zoomplus.mouseout"/>
                        </use>
                        <path d="M-4,0h8M0,-4v8" fill="none" stroke="white" stroke-width="1.5" pointer-events="none"/>
                </g>
                <g id="zoomMin">
                        <use xlink:href="#rim" fill="#404040">
                                <set attributeName="fill" to="#808080" begin="zoomminus.mouseover" end="zoomminus.mouseout"/>
                        </use>
                        <path d="M-4,0h8" fill="none" stroke="white" stroke-width="1.5" pointer-events="none"/>
                </g>
                <g id="dirArrow">
                        <path fill="none" stroke="white" stroke-width="1.5" d="M0,-3.0v7 M-2.5,-0.5L0,-3.0L2.5,-0.5"/>
                </g>
               <g id="resetDef">
                       <use xlink:href="#rim2" fill="#404040">
                               <set attributeName="fill" to="#808080" begin="reset.mouseover" end="reset.mouseout"/>
                       </use>
               </g>
        </defs>

<script type="text/javascript">
var viewWidth = 1074;
var viewHeight = 603;
var sectionId = 'dynsection-43';
</script>
<script xlink:href="svgpan.js"/>
<svg id="graph" class="graph">
<g id="viewport">
<title>G</title>
<polygon fill="white" stroke="white" points="-4,5 -4,-598.631 1071,-598.631 1071,5 -4,5"/>
<!-- Node1 -->
<g id="node1" class="node"><title>Node1</title>
<polygon fill="#bfbfbf" stroke="black" points="0.5,-313.131 0.5,-334.131 119.5,-334.131 119.5,-313.131 0.5,-313.131"/>
<text text-anchor="middle" x="60" y="-321.131" font-family="FreeSans.ttf" font-size="10.00">Handler::LoginScreen</text>
</g>
<!-- Node2 -->
<g id="node3" class="node"><title>Node2</title>
<a xlink:href="namespaceHandler.xhtml#a139febc000c9d767a620708148e0c888" target="_top" xlink:title="Dispatches the appropriate menu based on client state.">
<polygon fill="white" stroke="black" points="156.5,-313.131 156.5,-334.131 279.5,-334.131 279.5,-313.131 156.5,-313.131"/>
<text text-anchor="middle" x="218" y="-321.131" font-family="FreeSans.ttf" font-size="10.00">Handler::LoginHandler</text>
</a>
</g>
<!-- Node1&#45;&gt;Node2 -->
<g id="edge2" class="edge"><title>Node1&#45;&gt;Node2</title>
<path fill="none" stroke="midnightblue" d="M129.957,-316.92C138.749,-316.843 147.691,-316.879 156.342,-317.027"/>
<polygon fill="midnightblue" stroke="midnightblue" points="129.683,-313.424 119.733,-317.062 129.781,-320.423 129.683,-313.424"/>
</g>
<!-- Node2&#45;&gt;Node1 -->
<g id="edge56" class="edge"><title>Node2&#45;&gt;Node1</title>
<path fill="none" stroke="midnightblue" d="M146.079,-330.357C137.268,-330.417 128.338,-330.364 119.733,-330.199"/>
<polygon fill="midnightblue" stroke="midnightblue" points="146.385,-333.853 156.342,-330.234 146.301,-326.854 146.385,-333.853"/>
</g>
<!-- Node3 -->
<g id="node5" class="node"><title>Node3</title>
<a xlink:href="namespaceHandler.xhtml#a33a19d69ead678af81fbe96907eceaf0" target="_top" xlink:title="Create a new account object, or load an existing one, with a name and password.">
<polygon fill="white" stroke="black" points="344.5,-573.131 344.5,-594.131 475.5,-594.131 475.5,-573.131 344.5,-573.131"/>
<text text-anchor="middle" x="410" y="-581.131" font-family="FreeSans.ttf" font-size="10.00">Handler::AttachAccount</text>
</a>
</g>
<!-- Node2&#45;&gt;Node3 -->
<g id="edge4" class="edge"><title>Node2&#45;&gt;Node3</title>
<path fill="none" stroke="midnightblue" d="M220.673,-344.102C227.275,-389.671 249.015,-498.623 316,-554.631 327.776,-564.477 343.228,-569.829 358.193,-573.064"/>
<polygon fill="midnightblue" stroke="midnightblue" points="224.141,-343.629 219.332,-334.189 217.204,-344.568 224.141,-343.629"/>
</g>
<!-- Node4 -->
<g id="node8" class="node"><title>Node4</title>
<a xlink:href="namespaceHandler.xhtml#a2e4ebf6ed049eb872aa4948d54c4932c" target="_top" xlink:title="Attempt to write a new character to disk after creation was completed.">
<polygon fill="white" stroke="black" points="340.5,-533.131 340.5,-554.131 479.5,-554.131 479.5,-533.131 340.5,-533.131"/>
<text text-anchor="middle" x="410" y="-541.131" font-family="FreeSans.ttf" font-size="10.00">Handler::AttachCharacter</text>
</a>
</g>
<!-- Node2&#45;&gt;Node4 -->
<g id="edge8" class="edge"><title>Node2&#45;&gt;Node4</title>
<path fill="none" stroke="midnightblue" d="M223.179,-344.543C233.122,-384.431 259.147,-470.287 316,-514.631 328.761,-524.584 345.348,-529.866 361.028,-533.078"/>
<polygon fill="midnightblue" stroke="midnightblue" points="226.526,-343.491 220.789,-334.584 219.719,-345.124 226.526,-343.491"/>
</g>
<!-- Node5 -->
<g id="node11" class="node"><title>Node5</title>
<a xlink:href="namespaceHandler.xhtml#a73ed6064f2698dbffb5f4c247a02b661" target="_top" xlink:title="Send initial account interface menu.">
<polygon fill="white" stroke="black" points="336,-493.131 336,-514.131 484,-514.131 484,-493.131 336,-493.131"/>
<text text-anchor="middle" x="410" y="-501.131" font-family="FreeSans.ttf" font-size="10.00">Handler::AccountMenuMain</text>
</a>
</g>
<!-- Node2&#45;&gt;Node5 -->
<g id="edge12" class="edge"><title>Node2&#45;&gt;Node5</title>
<path fill="none" stroke="midnightblue" d="M226.617,-343.976C239.848,-377.051 268.72,-441.202 316,-474.631 330.168,-484.648 348.339,-489.828 364.921,-493.05"/>
<polygon fill="midnightblue" stroke="midnightblue" points="229.775,-342.441 222.867,-334.407 223.257,-344.995 229.775,-342.441"/>
</g>
<!-- Node6 -->
<g id="node14" class="node"><title>Node6</title>
<a xlink:href="namespaceHandler.xhtml#ad04998a7a6ece2486bc441052a57c2d7" target="_top" xlink:title="Main Character creation menu.">
<polygon fill="white" stroke="black" points="316,-453.131 316,-474.131 504,-474.131 504,-453.131 316,-453.131"/>
<text text-anchor="middle" x="410" y="-461.131" font-family="FreeSans.ttf" font-size="10.00">Handler::CharacterCreateMenuMain</text>
</a>
</g>
<!-- Node2&#45;&gt;Node6 -->
<g id="edge16" class="edge"><title>Node2&#45;&gt;Node6</title>
<path fill="none" stroke="midnightblue" d="M231.789,-342.686C248.117,-368.003 277.962,-411.424 316,-434.631 332.522,-444.711 353.371,-449.762 371.234,-453.11"/>
<polygon fill="midnightblue" stroke="midnightblue" points="234.73,-340.788 226.395,-334.248 228.832,-344.559 234.73,-340.788"/>
</g>
<!-- Node7 -->
<g id="node17" class="node"><title>Node7</title>
<a xlink:href="namespaceHandler.xhtml#ab5889a65de2794129b375ec39ae923ae" target="_top" xlink:title="Select a new Character name.">
<polygon fill="white" stroke="black" points="325.5,-413.131 325.5,-434.131 494.5,-434.131 494.5,-413.131 325.5,-413.131"/>
<text text-anchor="middle" x="410" y="-421.131" font-family="FreeSans.ttf" font-size="10.00">Handler::CharacterCreateName</text>
</a>
</g>
<!-- Node2&#45;&gt;Node7 -->
<g id="edge20" class="edge"><title>Node2&#45;&gt;Node7</title>
<path fill="none" stroke="midnightblue" d="M241.589,-341.012C260.142,-357.441 287.536,-380.982 316,-394.631 336.009,-404.226 360.599,-409.249 379.61,-413.123"/>
<polygon fill="midnightblue" stroke="midnightblue" points="243.762,-338.26 233.959,-334.24 239.115,-343.496 243.762,-338.26"/>
</g>
<!-- Node8 -->
<g id="node20" class="node"><title>Node8</title>
<a xlink:href="namespaceHandler.xhtml#ae5086bcf5857eb572beedd09158c3065" target="_top" xlink:title="Select a new Character sex.">
<polygon fill="white" stroke="black" points="331,-373.131 331,-394.131 489,-394.131 489,-373.131 331,-373.131"/>
<text text-anchor="middle" x="410" y="-381.131" font-family="FreeSans.ttf" font-size="10.00">Handler::CharacterCreateSex</text>
</a>
</g>
<!-- Node2&#45;&gt;Node8 -->
<g id="edge24" class="edge"><title>Node2&#45;&gt;Node8</title>
<path fill="none" stroke="midnightblue" d="M269.367,-337.964C284.219,-343.693 300.584,-349.886 316,-354.631 340.398,-362.14 369.209,-367.817 388.443,-373.091"/>
<polygon fill="midnightblue" stroke="midnightblue" points="270.441,-334.627 259.852,-334.287 267.918,-341.157 270.441,-334.627"/>
</g>
<!-- Node9 -->
<g id="node23" class="node"><title>Node9</title>
<a xlink:href="namespaceHandler.xhtml#a97a198bfc72285b2aca4f36978db715e" target="_top" xlink:title="Main Character deletion confirmation.">
<polygon fill="white" stroke="black" points="322,-333.131 322,-354.131 498,-354.131 498,-333.131 322,-333.131"/>
<text text-anchor="middle" x="410" y="-341.131" font-family="FreeSans.ttf" font-size="10.00">Handler::CharacterDeleteConfirm</text>
</a>
</g>
<!-- Node2&#45;&gt;Node9 -->
<g id="edge28" class="edge"><title>Node2&#45;&gt;Node9</title>
<path fill="none" stroke="midnightblue" d="M289.799,-324.554C314.988,-326.765 342.555,-329.881 364.928,-333.113"/>
<polygon fill="midnightblue" stroke="midnightblue" points="289.8,-321.042 279.542,-323.694 289.215,-328.018 289.8,-321.042"/>
</g>
<!-- Node10 -->
<g id="node26" class="node"><title>Node10</title>
<a xlink:href="namespaceHandler.xhtml#afc470ec6e82b7a9a1560588a368734f9" target="_top" xlink:title="Main Character deletion menu.">
<polygon fill="white" stroke="black" points="316,-293.131 316,-314.131 504,-314.131 504,-293.131 316,-293.131"/>
<text text-anchor="middle" x="410" y="-301.131" font-family="FreeSans.ttf" font-size="10.00">Handler::CharacterDeleteMenuMain</text>
</a>
</g>
<!-- Node2&#45;&gt;Node10 -->
<g id="edge32" class="edge"><title>Node2&#45;&gt;Node10</title>
<path fill="none" stroke="midnightblue" d="M272.975,-311.735C286.362,-309.938 301.061,-308.213 315.706,-306.704"/>
<polygon fill="midnightblue" stroke="midnightblue" points="272.437,-308.276 263.015,-313.121 273.403,-315.209 272.437,-308.276"/>
</g>
<!-- Node11 -->
<g id="node29" class="node"><title>Node11</title>
<a xlink:href="namespaceHandler.xhtml#a02b1b954749641ab646f6548a5360d3b" target="_top" xlink:title="Main Character load menu.">
<polygon fill="white" stroke="black" points="320.5,-253.131 320.5,-274.131 499.5,-274.131 499.5,-253.131 320.5,-253.131"/>
<text text-anchor="middle" x="410" y="-261.131" font-family="FreeSans.ttf" font-size="10.00">Handler::CharacterLoadMenuMain</text>
</a>
</g>
<!-- Node2&#45;&gt;Node11 -->
<g id="edge36" class="edge"><title>Node2&#45;&gt;Node11</title>
<path fill="none" stroke="midnightblue" d="M237.21,-307.788C256.704,-296.716 287.926,-283.271 316,-274.631 317.435,-274.189 318.886,-273.754 320.349,-273.325"/>
<polygon fill="midnightblue" stroke="midnightblue" points="235.368,-304.811 228.647,-313.001 239.009,-310.79 235.368,-304.811"/>
</g>
<!-- Node12 -->
<g id="node32" class="node"><title>Node12</title>
<a xlink:href="namespaceHandler.xhtml#a00bc24564bfd267e0329643c569da1e4" target="_top" xlink:title="Select a new account name.">
<polygon fill="white" stroke="black" points="341.5,-213.131 341.5,-234.131 478.5,-234.131 478.5,-213.131 341.5,-213.131"/>
<text text-anchor="middle" x="410" y="-221.131" font-family="FreeSans.ttf" font-size="10.00">Handler::GetNewAccount</text>
</a>
</g>
<!-- Node2&#45;&gt;Node12 -->
<g id="edge40" class="edge"><title>Node2&#45;&gt;Node12</title>
<path fill="none" stroke="midnightblue" d="M229.558,-305.066C246.65,-284.076 280.492,-251.657 316,-234.631 323.974,-230.807 332.675,-227.71 341.46,-225.281"/>
<polygon fill="midnightblue" stroke="midnightblue" points="226.772,-302.949 223.487,-313.021 232.336,-307.196 226.772,-302.949"/>
</g>
<!-- Node13 -->
<g id="node35" class="node"><title>Node13</title>
<a xlink:href="namespaceHandler.xhtml#a744adadcf407cdb3a9c33365afd5a7c2" target="_top" xlink:title="Create a new account.">
<polygon fill="white" stroke="black" points="339,-173.131 339,-194.131 481,-194.131 481,-173.131 339,-173.131"/>
<text text-anchor="middle" x="410" y="-181.131" font-family="FreeSans.ttf" font-size="10.00">Handler::GetNewPassword</text>
</a>
</g>
<!-- Node2&#45;&gt;Node13 -->
<g id="edge44" class="edge"><title>Node2&#45;&gt;Node13</title>
<path fill="none" stroke="midnightblue" d="M225.563,-303.635C239.646,-274.255 272.455,-221.197 316,-194.631 322.979,-190.373 330.73,-187.012 338.703,-184.424"/>
<polygon fill="midnightblue" stroke="midnightblue" points="222.28,-302.402 221.376,-312.958 228.666,-305.27 222.28,-302.402"/>
</g>
<!-- Node14 -->
<g id="node38" class="node"><title>Node14</title>
<a xlink:href="namespaceHandler.xhtml#adfe13cc9748392348f3941656a1323b6" target="_top" xlink:title="Compare a received password against an existing account.">
<polygon fill="white" stroke="black" points="341.5,-133.131 341.5,-154.131 478.5,-154.131 478.5,-133.131 341.5,-133.131"/>
<text text-anchor="middle" x="410" y="-141.131" font-family="FreeSans.ttf" font-size="10.00">Handler::GetOldPassword</text>
</a>
</g>
<!-- Node2&#45;&gt;Node14 -->
<g id="edge48" class="edge"><title>Node2&#45;&gt;Node14</title>
<path fill="none" stroke="midnightblue" d="M222.925,-302.865C233.919,-266.195 263.694,-191.613 316,-154.631 323.629,-149.237 332.419,-145.245 341.496,-142.396"/>
<polygon fill="midnightblue" stroke="midnightblue" points="219.429,-302.372 220.112,-312.945 226.171,-304.254 219.429,-302.372"/>
</g>
<!-- Node15 -->
<g id="node41" class="node"><title>Node15</title>
<a xlink:href="namespaceHandler.xhtml#ae70e4e50054c729c14493eafefe01b5c" target="_top" xlink:title="Load a character from the account to enter into the game with.">
<polygon fill="white" stroke="black" points="344.5,-93.1308 344.5,-114.131 475.5,-114.131 475.5,-93.1308 344.5,-93.1308"/>
<text text-anchor="middle" x="410" y="-101.131" font-family="FreeSans.ttf" font-size="10.00">Handler::LoadCharacter</text>
</a>
</g>
<!-- Node2&#45;&gt;Node15 -->
<g id="edge52" class="edge"><title>Node2&#45;&gt;Node15</title>
<path fill="none" stroke="midnightblue" d="M220.976,-302.766C228.905,-259.787 254.295,-162.759 316,-114.631 324.288,-108.166 334.19,-103.672 344.409,-100.704"/>
<polygon fill="midnightblue" stroke="midnightblue" points="217.514,-302.249 219.29,-312.694 224.415,-303.421 217.514,-302.249"/>
</g>
<!-- Node16 -->
<g id="node45" class="node"><title>Node16</title>
<a xlink:href="classSocketClient.xhtml#a8399ef20292e9f3ec83b5c4bec2e105b" target="_top" xlink:title="Build a SocketClient for a new client connection and set all attributes.">
<polygon fill="white" stroke="black" points="358.5,-53.1308 358.5,-74.1308 461.5,-74.1308 461.5,-53.1308 358.5,-53.1308"/>
<text text-anchor="middle" x="410" y="-61.1308" font-family="FreeSans.ttf" font-size="10.00">SocketClient::New</text>
</a>
</g>
<!-- Node2&#45;&gt;Node16 -->
<g id="edge58" class="edge"><title>Node2&#45;&gt;Node16</title>
<path fill="none" stroke="midnightblue" d="M220.062,-302.822C225.876,-255.913 246.782,-141.505 316,-83.6308 327.776,-73.7846 343.228,-68.4323 358.193,-65.6156"/>
<polygon fill="midnightblue" stroke="midnightblue" points="216.56,-302.649 218.914,-312.979 223.515,-303.436 216.56,-302.649"/>
</g>
<!-- Node23 -->
<g id="node60" class="node"><title>Node23</title>
<a xlink:href="classSocketClient.xhtml#ad4f63c7d906310dc56a1217136047d7f" target="_top" xlink:title="Interpret the command at the front of the queue.">
<polygon fill="white" stroke="black" points="540,-13.1308 540,-34.1308 710,-34.1308 710,-13.1308 540,-13.1308"/>
<text text-anchor="middle" x="625" y="-21.1308" font-family="FreeSans.ttf" font-size="10.00">SocketClient::ProcessCommand</text>
</a>
</g>
<!-- Node2&#45;&gt;Node23 -->
<g id="edge74" class="edge"><title>Node2&#45;&gt;Node23</title>
<path fill="none" stroke="midnightblue" d="M222.189,-302.898C234.588,-243.747 272.936,-76.326 316,-43.6308 394.461,15.9384 518.925,0.473902 583.329,-13.1262"/>
<polygon fill="midnightblue" stroke="midnightblue" points="218.714,-302.42 220.121,-312.921 225.57,-303.835 218.714,-302.42"/>
</g>
<!-- Node3&#45;&gt;Node2 -->
<g id="edge6" class="edge"><title>Node3&#45;&gt;Node2</title>
<path fill="none" stroke="midnightblue" d="M334.183,-583.517C327.614,-580.74 321.418,-577.161 316,-572.631 238.831,-508.108 221.71,-373.317 218.606,-334.144"/>
<polygon fill="midnightblue" stroke="midnightblue" points="333.432,-586.965 344.027,-587.031 335.785,-580.373 333.432,-586.965"/>
</g>
<!-- Node4&#45;&gt;Node2 -->
<g id="edge10" class="edge"><title>Node4&#45;&gt;Node2</title>
<path fill="none" stroke="midnightblue" d="M330.51,-541.392C325.343,-538.992 320.44,-536.094 316,-532.631 248.924,-480.313 224.759,-370.211 219.29,-334.568"/>
<polygon fill="midnightblue" stroke="midnightblue" points="329.467,-544.744 340.053,-545.191 332.056,-538.24 329.467,-544.744"/>
</g>
<!-- Node5&#45;&gt;Node2 -->
<g id="edge14" class="edge"><title>Node5&#45;&gt;Node2</title>
<path fill="none" stroke="midnightblue" d="M326.408,-498.828C322.771,-497.007 319.278,-494.949 316,-492.631 258.283,-451.823 227.999,-365.234 220.112,-334.317"/>
<polygon fill="midnightblue" stroke="midnightblue" points="325.142,-502.094 335.709,-502.874 327.935,-495.675 325.142,-502.094"/>
</g>
<!-- Node6&#45;&gt;Node2 -->
<g id="edge18" class="edge"><title>Node6&#45;&gt;Node2</title>
<path fill="none" stroke="midnightblue" d="M307.941,-447.3C263.273,-415.699 231.433,-358.614 221.376,-334.304"/>
<polygon fill="midnightblue" stroke="midnightblue" points="306.152,-450.313 316.428,-452.89 310.002,-444.467 306.152,-450.313"/>
</g>
<!-- Node7&#45;&gt;Node2 -->
<g id="edge22" class="edge"><title>Node7&#45;&gt;Node2</title>
<path fill="none" stroke="midnightblue" d="M316.282,-412.766C316.188,-412.721 316.094,-412.676 316,-412.631 275.6,-393.258 237.357,-353.96 223.487,-334.24"/>
<polygon fill="midnightblue" stroke="midnightblue" points="314.734,-415.91 325.303,-416.652 317.504,-409.481 314.734,-415.91"/>
</g>
<!-- Node8&#45;&gt;Node2 -->
<g id="edge26" class="edge"><title>Node8&#45;&gt;Node2</title>
<path fill="none" stroke="midnightblue" d="M320.989,-374.123C319.309,-373.635 317.644,-373.137 316,-372.631 283.332,-362.576 246.401,-346.016 228.647,-334.26"/>
<polygon fill="midnightblue" stroke="midnightblue" points="320.185,-377.532 330.755,-376.819 322.047,-370.784 320.185,-377.532"/>
</g>
<!-- Node9&#45;&gt;Node2 -->
<g id="edge30" class="edge"><title>Node9&#45;&gt;Node2</title>
<path fill="none" stroke="midnightblue" d="M311.817,-340.152C294.736,-338.348 277.747,-336.269 263.015,-334.14"/>
<polygon fill="midnightblue" stroke="midnightblue" points="311.564,-343.644 321.868,-341.18 312.276,-336.68 311.564,-343.644"/>
</g>
<!-- Node10&#45;&gt;Node2 -->
<g id="edge34" class="edge"><title>Node10&#45;&gt;Node2</title>
<path fill="none" stroke="midnightblue" d="M354.773,-315.56C331.25,-318.713 303.716,-321.638 279.542,-323.568"/>
<polygon fill="midnightblue" stroke="midnightblue" points="355.505,-318.992 364.928,-314.148 354.541,-312.059 355.505,-318.992"/>
</g>
<!-- Node11&#45;&gt;Node2 -->
<g id="edge38" class="edge"><title>Node11&#45;&gt;Node2</title>
<path fill="none" stroke="midnightblue" d="M378.522,-276.741C360.094,-281.31 336.491,-286.324 316,-292.631 297.207,-298.415 277.003,-306.352 259.852,-312.974"/>
<polygon fill="midnightblue" stroke="midnightblue" points="379.641,-280.067 388.443,-274.17 377.885,-273.291 379.641,-280.067"/>
</g>
<!-- Node12&#45;&gt;Node2 -->
<g id="edge42" class="edge"><title>Node12&#45;&gt;Node2</title>
<path fill="none" stroke="midnightblue" d="M369.365,-236.255C352.282,-239.874 332.57,-244.685 316,-252.631 283.324,-268.3 252.058,-297.004 233.959,-313.021"/>
<polygon fill="midnightblue" stroke="midnightblue" points="370.525,-239.589 379.61,-234.138 369.108,-232.734 370.525,-239.589"/>
</g>
<!-- Node13&#45;&gt;Node2 -->
<g id="edge46" class="edge"><title>Node13&#45;&gt;Node2</title>
<path fill="none" stroke="midnightblue" d="M361.358,-196.141C346.018,-199.477 329.553,-204.362 316,-212.631 273.291,-238.687 240.91,-290.228 226.395,-313.014"/>
<polygon fill="midnightblue" stroke="midnightblue" points="362.122,-199.557 371.234,-194.152 360.74,-192.695 362.122,-199.557"/>
</g>
<!-- Node14&#45;&gt;Node2 -->
<g id="edge50" class="edge"><title>Node14&#45;&gt;Node2</title>
<path fill="none" stroke="midnightblue" d="M355.065,-156.345C341.394,-159.642 327.401,-164.57 316,-172.631 263.603,-209.678 233.815,-284.456 222.867,-312.855"/>
<polygon fill="midnightblue" stroke="midnightblue" points="355.888,-159.748 364.921,-154.212 354.407,-152.907 355.888,-159.748"/>
</g>
<!-- Node15&#45;&gt;Node2 -->
<g id="edge54" class="edge"><title>Node15&#45;&gt;Node2</title>
<path fill="none" stroke="midnightblue" d="M351.029,-116.517C338.521,-119.831 326.07,-124.777 316,-132.631 253.802,-181.143 228.501,-279.341 220.789,-312.678"/>
<polygon fill="midnightblue" stroke="midnightblue" points="352.085,-119.865 361.028,-114.184 350.494,-113.048 352.085,-119.865"/>
</g>
<!-- Node17 -->
<g id="node47" class="node"><title>Node17</title>
<a xlink:href="namespaceServer.xhtml#a16ea0639731dee10e1a253375b508a02" target="_top" xlink:title="Recovers the server state and re&#45;connects client sockets after a reboot.">
<polygon fill="white" stroke="black" points="560,-93.1308 560,-114.131 690,-114.131 690,-93.1308 560,-93.1308"/>
<text text-anchor="middle" x="625" y="-101.131" font-family="FreeSans.ttf" font-size="10.00">Server::RebootRecovery</text>
</a>
</g>
<!-- Node16&#45;&gt;Node17 -->
<g id="edge60" class="edge"><title>Node16&#45;&gt;Node17</title>
<path fill="none" stroke="midnightblue" d="M471.843,-75.1365C502.275,-80.7982 538.702,-87.5753 568.394,-93.0995"/>
<polygon fill="midnightblue" stroke="midnightblue" points="472.243,-71.6509 461.771,-73.2627 470.963,-78.5328 472.243,-71.6509"/>
</g>
<!-- Node20 -->
<g id="node53" class="node"><title>Node20</title>
<a xlink:href="classSocketServer.xhtml#afdbc60c3bc840875d2214b59c6213f63" target="_top" xlink:title="Accept a new connection on the listening port.">
<polygon fill="white" stroke="black" points="565,-53.1308 565,-74.1308 685,-74.1308 685,-53.1308 565,-53.1308"/>
<text text-anchor="middle" x="625" y="-61.1308" font-family="FreeSans.ttf" font-size="10.00">SocketServer::Accept</text>
</a>
</g>
<!-- Node16&#45;&gt;Node20 -->
<g id="edge66" class="edge"><title>Node16&#45;&gt;Node20</title>
<path fill="none" stroke="midnightblue" d="M471.868,-63.6308C501.117,-63.6308 535.901,-63.6308 564.92,-63.6308"/>
<polygon fill="midnightblue" stroke="midnightblue" points="471.771,-60.1309 461.771,-63.6308 471.771,-67.1309 471.771,-60.1309"/>
</g>
<!-- Node18 -->
<g id="node49" class="node"><title>Node18</title>
<a xlink:href="namespaceServer.xhtml#a19a1e493e1fb50a56d9c77332543d565" target="_top" xlink:title="Start the NAMS Server. Responsible for calling all critical boot&#45;time functions such as SocketServer ...">
<polygon fill="white" stroke="black" points="898,-93.1308 898,-114.131 988,-114.131 988,-93.1308 898,-93.1308"/>
<text text-anchor="middle" x="943" y="-101.131" font-family="FreeSans.ttf" font-size="10.00">Server::Startup</text>
</a>
</g>
<!-- Node17&#45;&gt;Node18 -->
<g id="edge62" class="edge"><title>Node17&#45;&gt;Node18</title>
<path fill="none" stroke="midnightblue" d="M700.16,-103.631C761.639,-103.631 846.543,-103.631 897.954,-103.631"/>
<polygon fill="midnightblue" stroke="midnightblue" points="700.119,-100.131 690.119,-103.631 700.119,-107.131 700.119,-100.131"/>
</g>
<!-- Node19 -->
<g id="node51" class="node"><title>Node19</title>
<a xlink:href="main_8cpp.xhtml#ad53223b8779f25caeddb70a3b9172967" target="_top" xlink:title="The default function required to execute the server.">
<polygon fill="white" stroke="black" points="1024.5,-73.1308 1024.5,-94.1308 1065.5,-94.1308 1065.5,-73.1308 1024.5,-73.1308"/>
<text text-anchor="middle" x="1045" y="-81.1308" font-family="FreeSans.ttf" font-size="10.00">main</text>
</a>
</g>
<!-- Node18&#45;&gt;Node19 -->
<g id="edge64" class="edge"><title>Node18&#45;&gt;Node19</title>
<path fill="none" stroke="midnightblue" d="M997.904,-92.8652C1007.36,-91.0103 1016.64,-89.1907 1024.43,-87.6638"/>
<polygon fill="midnightblue" stroke="midnightblue" points="997.175,-89.4414 988.036,-94.8003 998.522,-96.3106 997.175,-89.4414"/>
</g>
<!-- Node21 -->
<g id="node55" class="node"><title>Node21</title>
<a xlink:href="namespaceServer.xhtml#a39dbe16fdc8c5f6fbd678c6540fbcd6c" target="_top" xlink:title="Poll all SocketClient objects that are communicating with the associated SocketServer object...">
<polygon fill="white" stroke="black" points="749.5,-53.1308 749.5,-74.1308 858.5,-74.1308 858.5,-53.1308 749.5,-53.1308"/>
<text text-anchor="middle" x="804" y="-61.1308" font-family="FreeSans.ttf" font-size="10.00">Server::PollSockets</text>
</a>
</g>
<!-- Node20&#45;&gt;Node21 -->
<g id="edge68" class="edge"><title>Node20&#45;&gt;Node21</title>
<path fill="none" stroke="midnightblue" d="M695.268,-63.6308C713.284,-63.6308 732.391,-63.6308 749.478,-63.6308"/>
<polygon fill="midnightblue" stroke="midnightblue" points="695.102,-60.1309 685.102,-63.6308 695.102,-67.1309 695.102,-60.1309"/>
</g>
<!-- Node22 -->
<g id="node57" class="node"><title>Node22</title>
<a xlink:href="namespaceServer.xhtml#a50b81aa91d8fdaee6f52c5c5ec987990" target="_top" xlink:title="The core update loop of NAMS. This loop spawns all other subsystem update routines and then sleeps fo...">
<polygon fill="white" stroke="black" points="898.5,-53.1308 898.5,-74.1308 987.5,-74.1308 987.5,-53.1308 898.5,-53.1308"/>
<text text-anchor="middle" x="943" y="-61.1308" font-family="FreeSans.ttf" font-size="10.00">Server::Update</text>
</a>
</g>
<!-- Node21&#45;&gt;Node22 -->
<g id="edge70" class="edge"><title>Node21&#45;&gt;Node22</title>
<path fill="none" stroke="midnightblue" d="M868.574,-63.6308C878.688,-63.6308 888.943,-63.6308 898.474,-63.6308"/>
<polygon fill="midnightblue" stroke="midnightblue" points="868.538,-60.1309 858.538,-63.6308 868.537,-67.1309 868.538,-60.1309"/>
</g>
<!-- Node22&#45;&gt;Node19 -->
<g id="edge72" class="edge"><title>Node22&#45;&gt;Node19</title>
<path fill="none" stroke="midnightblue" d="M997.642,-74.3449C1007.14,-76.2071 1016.47,-78.0362 1024.3,-79.572"/>
<polygon fill="midnightblue" stroke="midnightblue" points="998.225,-70.8927 987.739,-72.4031 996.878,-77.7619 998.225,-70.8927"/>
</g>
<!-- Node24 -->
<g id="node62" class="node"><title>Node24</title>
<a xlink:href="namespaceServer.xhtml#a2b4cec469bb99c2a45e49de5ba74d1ae" target="_top" xlink:title="Processes input from all active SocketClient objects.">
<polygon fill="white" stroke="black" points="746,-13.1308 746,-34.1308 862,-34.1308 862,-13.1308 746,-13.1308"/>
<text text-anchor="middle" x="804" y="-21.1308" font-family="FreeSans.ttf" font-size="10.00">Server::ProcessInput</text>
</a>
</g>
<!-- Node23&#45;&gt;Node24 -->
<g id="edge76" class="edge"><title>Node23&#45;&gt;Node24</title>
<path fill="none" stroke="midnightblue" d="M720.249,-23.6308C728.93,-23.6308 737.54,-23.6308 745.748,-23.6308"/>
<polygon fill="midnightblue" stroke="midnightblue" points="720.044,-20.1309 710.044,-23.6308 720.044,-27.1309 720.044,-20.1309"/>
</g>
<!-- Node24&#45;&gt;Node22 -->
<g id="edge78" class="edge"><title>Node24&#45;&gt;Node22</title>
<path fill="none" stroke="midnightblue" d="M850.342,-36.9666C868.529,-42.2004 889.106,-48.1216 906.241,-53.0525"/>
<polygon fill="midnightblue" stroke="midnightblue" points="851.099,-33.5423 840.521,-34.1403 849.163,-40.2693 851.099,-33.5423"/>
</g>
</g>
</svg>
        <g id="navigator" transform="translate(0 0)" fill="#404254">
                <rect fill="#f2f5e9" fill-opacity="0.5" stroke="#606060" stroke-width=".5" x="0" y="0" width="60" height="60"/>
                <use id="zoomplus" xlink:href="#zoomPlus" x="17" y="9" onmousedown="handleZoom(evt,'in')"/>
                <use id="zoomminus" xlink:href="#zoomMin" x="42" y="9" onmousedown="handleZoom(evt,'out')"/>
                <use id="reset" xlink:href="#resetDef" x="30" y="36" onmousedown="handleReset()"/>
                <g id="arrowUp" xlink:href="#dirArrow" transform="translate(30 24)" onmousedown="handlePan(0,-1)">
                  <use xlink:href="#rim" fill="#404040">
                        <set attributeName="fill" to="#808080" begin="arrowUp.mouseover" end="arrowUp.mouseout"/>
                  </use>
                  <path fill="none" stroke="white" stroke-width="1.5" d="M0,-3.0v7 M-2.5,-0.5L0,-3.0L2.5,-0.5"/>
                </g>
                <g id="arrowRight" xlink:href="#dirArrow" transform="rotate(90) translate(36 -43)" onmousedown="handlePan(1,0)">
                  <use xlink:href="#rim" fill="#404040">
                        <set attributeName="fill" to="#808080" begin="arrowRight.mouseover" end="arrowRight.mouseout"/>
                  </use>
                  <path fill="none" stroke="white" stroke-width="1.5" d="M0,-3.0v7 M-2.5,-0.5L0,-3.0L2.5,-0.5"/>
                </g>
                <g id="arrowDown" xlink:href="#dirArrow" transform="rotate(180) translate(-30 -48)" onmousedown="handlePan(0,1)">
                  <use xlink:href="#rim" fill="#404040">
                        <set attributeName="fill" to="#808080" begin="arrowDown.mouseover" end="arrowDown.mouseout"/>
                  </use>
                  <path fill="none" stroke="white" stroke-width="1.5" d="M0,-3.0v7 M-2.5,-0.5L0,-3.0L2.5,-0.5"/>
                </g>
                <g id="arrowLeft" xlink:href="#dirArrow" transform="rotate(270) translate(-36 17)" onmousedown="handlePan(-1,0)">
                  <use xlink:href="#rim" fill="#404040">
                        <set attributeName="fill" to="#808080" begin="arrowLeft.mouseover" end="arrowLeft.mouseout"/>
                  </use>
                  <path fill="none" stroke="white" stroke-width="1.5" d="M0,-3.0v7 M-2.5,-0.5L0,-3.0L2.5,-0.5"/>
                </g>
        </g>
</svg>
