<?xml version="1.0" encoding="UTF-8" standalone="no"?>
<!DOCTYPE svg PUBLIC "-//W3C//DTD SVG 1.1//EN"
 "http://www.w3.org/Graphics/SVG/1.1/DTD/svg11.dtd">
<!-- Generated by graphviz version 2.26.3 (20100126.1600)
 -->
<!-- Title: G Pages: 1 -->
<!--zoomable 230 -->
<svg id="main" version="1.1" xmlns="http://www.w3.org/2000/svg" xmlns:xlink="http://www.w3.org/1999/xlink" xml:space="preserve" onload="init(evt)">
        <defs>
                <circle id="rim" cx="0" cy="0" r="7"/>
                <circle id="rim2" cx="0" cy="0" r="3.5"/>
                <g id="zoomPlus">
                        <use xlink:href="#rim" fill="#404040">
                                <set attributeName="fill" to="#808080" begin="zoomplus.mouseover" end="zoomplus.mouseout"/>
                        </use>
                        <path d="M-4,0h8M0,-4v8" fill="none" stroke="white" stroke-width="1.5" pointer-events="none"/>
                </g>
                <g id="zoomMin">
                        <use xlink:href="#rim" fill="#404040">
                                <set attributeName="fill" to="#808080" begin="zoomminus.mouseover" end="zoomminus.mouseout"/>
                        </use>
                        <path d="M-4,0h8" fill="none" stroke="white" stroke-width="1.5" pointer-events="none"/>
                </g>
                <g id="dirArrow">
                        <path fill="none" stroke="white" stroke-width="1.5" d="M0,-3.0v7 M-2.5,-0.5L0,-3.0L2.5,-0.5"/>
                </g>
               <g id="resetDef">
                       <use xlink:href="#rim2" fill="#404040">
                               <set attributeName="fill" to="#808080" begin="reset.mouseover" end="reset.mouseout"/>
                       </use>
               </g>
        </defs>

<script type="text/javascript">
var viewWidth = 1426;
var viewHeight = 230;
var sectionId = 'dynsection-32';
</script>
<script xlink:href="svgpan.js"/>
<svg id="graph" class="graph">
<g id="viewport">
<title>G</title>
<polygon fill="white" stroke="white" points="-4,5 -4,-226 1423,-226 1423,5 -4,5"/>
<!-- Node1 -->
<g id="node1" class="node"><title>Node1</title>
<polygon fill="#bfbfbf" stroke="black" points="0.5,-80.5 0.5,-101.5 81.5,-101.5 81.5,-80.5 0.5,-80.5"/>
<text text-anchor="middle" x="41" y="-88.5" font-family="FreeSans.ttf" font-size="10.00">Utils::StrTime</text>
</g>
<!-- Node2 -->
<g id="node3" class="node"><title>Node2</title>
<a xlink:href="classAccount.xhtml#ae236325fef7b2269f54e9567577e0b92" target="_top" xlink:title="Unserialize the account data from CFG_DAT_FILE_SETTINGS.">
<polygon fill="white" stroke="black" points="118,-100.5 118,-121.5 232,-121.5 232,-100.5 118,-100.5"/>
<text text-anchor="middle" x="175" y="-108.5" font-family="FreeSans.ttf" font-size="10.00">Account::Unserialize</text>
</a>
</g>
<!-- Node1&#45;&gt;Node2 -->
<g id="edge2" class="edge"><title>Node1&#45;&gt;Node2</title>
<path fill="none" stroke="midnightblue" d="M91.7193,-98.57C100.226,-99.8397 109.105,-101.165 117.762,-102.457"/>
<polygon fill="midnightblue" stroke="midnightblue" points="91.9752,-95.0695 81.5681,-97.0549 90.9418,-101.993 91.9752,-95.0695"/>
</g>
<!-- Node18 -->
<g id="node41" class="node"><title>Node18</title>
<a xlink:href="namespaceUtils.xhtml#aa2ac8bf1bb304bab8f29829ec30af243" target="_top" xlink:title="This is the logging output engine. It should not be invoked directly, but rather by calling Utils::Lo...">
<polygon fill="white" stroke="black" points="134,-60.5 134,-81.5 216,-81.5 216,-60.5 134,-60.5"/>
<text text-anchor="middle" x="175" y="-68.5" font-family="FreeSans.ttf" font-size="10.00">Utils::_Logger</text>
</a>
</g>
<!-- Node1&#45;&gt;Node18 -->
<g id="edge46" class="edge"><title>Node1&#45;&gt;Node18</title>
<path fill="none" stroke="midnightblue" d="M91.4806,-83.4656C105.391,-81.3894 120.315,-79.162 133.644,-77.1726"/>
<polygon fill="midnightblue" stroke="midnightblue" points="90.9418,-80.0071 81.5681,-84.9451 91.9752,-86.9305 90.9418,-80.0071"/>
</g>
<!-- Node3 -->
<g id="node5" class="node"><title>Node3</title>
<a xlink:href="classAccount.xhtml#adc4545f17264112e532b5a48abe94baf" target="_top" xlink:title="Create a new account.">
<polygon fill="white" stroke="black" points="268,-100.5 268,-121.5 350,-121.5 350,-100.5 268,-100.5"/>
<text text-anchor="middle" x="309" y="-108.5" font-family="FreeSans.ttf" font-size="10.00">Account::New</text>
</a>
</g>
<!-- Node2&#45;&gt;Node3 -->
<g id="edge4" class="edge"><title>Node2&#45;&gt;Node3</title>
<path fill="none" stroke="midnightblue" d="M242.366,-111C251.038,-111 259.702,-111 267.776,-111"/>
<polygon fill="midnightblue" stroke="midnightblue" points="242.217,-107.5 232.217,-111 242.217,-114.5 242.217,-107.5"/>
</g>
<!-- Node4 -->
<g id="node7" class="node"><title>Node4</title>
<a xlink:href="namespaceHandler.xhtml#a33a19d69ead678af81fbe96907eceaf0" target="_top" xlink:title="Create a new account object, or load an existing one, with a name and password.">
<polygon fill="white" stroke="black" points="386.5,-100.5 386.5,-121.5 517.5,-121.5 517.5,-100.5 386.5,-100.5"/>
<text text-anchor="middle" x="452" y="-108.5" font-family="FreeSans.ttf" font-size="10.00">Handler::AttachAccount</text>
</a>
</g>
<!-- Node3&#45;&gt;Node4 -->
<g id="edge6" class="edge"><title>Node3&#45;&gt;Node4</title>
<path fill="none" stroke="midnightblue" d="M360.434,-111C368.886,-111 377.746,-111 386.485,-111"/>
<polygon fill="midnightblue" stroke="midnightblue" points="360.362,-107.5 350.362,-111 360.361,-114.5 360.362,-107.5"/>
</g>
<!-- Node5 -->
<g id="node9" class="node"><title>Node5</title>
<a xlink:href="namespaceHandler.xhtml#af650e47f3d4baf393b54376d1eaa1fa9" target="_top" xlink:title="Handle SocketClient objects who have not fully logged into the game yet.">
<polygon fill="white" stroke="black" points="554.5,-100.5 554.5,-121.5 677.5,-121.5 677.5,-100.5 554.5,-100.5"/>
<text text-anchor="middle" x="616" y="-108.5" font-family="FreeSans.ttf" font-size="10.00">Handler::ProcessLogin</text>
</a>
</g>
<!-- Node4&#45;&gt;Node5 -->
<g id="edge8" class="edge"><title>Node4&#45;&gt;Node5</title>
<path fill="none" stroke="midnightblue" d="M527.79,-104.267C536.73,-104.218 545.77,-104.275 554.48,-104.441"/>
<polygon fill="midnightblue" stroke="midnightblue" points="527.724,-100.768 517.76,-104.369 527.795,-107.767 527.724,-100.768"/>
</g>
<!-- Node5&#45;&gt;Node4 -->
<g id="edge20" class="edge"><title>Node5&#45;&gt;Node4</title>
<path fill="none" stroke="midnightblue" d="M544.242,-117.703C535.436,-117.784 526.471,-117.76 517.76,-117.631"/>
<polygon fill="midnightblue" stroke="midnightblue" points="544.531,-121.199 554.48,-117.559 544.432,-114.2 544.531,-121.199"/>
</g>
<!-- Node6 -->
<g id="node11" class="node"><title>Node6</title>
<a xlink:href="namespaceHandler.xhtml#a142c6f0b9e36e54eba3d72f9db2dfe40" target="_top" xlink:title="Redirect to the appropriate subsystem based on socket state.">
<polygon fill="white" stroke="black" points="734.5,-200.5 734.5,-221.5 835.5,-221.5 835.5,-200.5 734.5,-200.5"/>
<text text-anchor="middle" x="785" y="-208.5" font-family="FreeSans.ttf" font-size="10.00">Handler::Interpret</text>
</a>
</g>
<!-- Node5&#45;&gt;Node6 -->
<g id="edge10" class="edge"><title>Node5&#45;&gt;Node6</title>
<path fill="none" stroke="midnightblue" d="M633.211,-128.839C651.622,-146.95 682.458,-174.595 714,-191 721.158,-194.723 729.092,-197.824 736.988,-200.385"/>
<polygon fill="midnightblue" stroke="midnightblue" points="635.654,-126.332 626.115,-121.721 630.696,-131.274 635.654,-126.332"/>
</g>
<!-- Node11 -->
<g id="node22" class="node"><title>Node11</title>
<a xlink:href="namespaceHandler.xhtml#a00bc24564bfd267e0329643c569da1e4" target="_top" xlink:title="Select a new account name.">
<polygon fill="white" stroke="black" points="716.5,-160.5 716.5,-181.5 853.5,-181.5 853.5,-160.5 716.5,-160.5"/>
<text text-anchor="middle" x="785" y="-168.5" font-family="FreeSans.ttf" font-size="10.00">Handler::GetNewAccount</text>
</a>
</g>
<!-- Node5&#45;&gt;Node11 -->
<g id="edge22" class="edge"><title>Node5&#45;&gt;Node11</title>
<path fill="none" stroke="midnightblue" d="M669.245,-125.331C683.647,-130.879 699.315,-136.953 714,-142 733.135,-148.577 755.696,-154.654 770.164,-160.458"/>
<polygon fill="midnightblue" stroke="midnightblue" points="670.095,-121.908 659.504,-121.593 667.586,-128.443 670.095,-121.908"/>
</g>
<!-- Node12 -->
<g id="node25" class="node"><title>Node12</title>
<a xlink:href="namespaceHandler.xhtml#a744adadcf407cdb3a9c33365afd5a7c2" target="_top" xlink:title="Create a new account.">
<polygon fill="white" stroke="black" points="714,-120.5 714,-141.5 856,-141.5 856,-120.5 714,-120.5"/>
<text text-anchor="middle" x="785" y="-128.5" font-family="FreeSans.ttf" font-size="10.00">Handler::GetNewPassword</text>
</a>
</g>
<!-- Node5&#45;&gt;Node12 -->
<g id="edge26" class="edge"><title>Node5&#45;&gt;Node12</title>
<path fill="none" stroke="midnightblue" d="M688.125,-112.85C707.747,-114.966 728.28,-117.684 745.365,-120.489"/>
<polygon fill="midnightblue" stroke="midnightblue" points="688.276,-109.347 677.97,-111.802 687.557,-116.31 688.276,-109.347"/>
</g>
<!-- Node13 -->
<g id="node28" class="node"><title>Node13</title>
<a xlink:href="namespaceHandler.xhtml#adfe13cc9748392348f3941656a1323b6" target="_top" xlink:title="Compare a received password against an existing account.">
<polygon fill="white" stroke="black" points="716.5,-80.5 716.5,-101.5 853.5,-101.5 853.5,-80.5 716.5,-80.5"/>
<text text-anchor="middle" x="785" y="-88.5" font-family="FreeSans.ttf" font-size="10.00">Handler::GetOldPassword</text>
</a>
</g>
<!-- Node5&#45;&gt;Node13 -->
<g id="edge30" class="edge"><title>Node5&#45;&gt;Node13</title>
<path fill="none" stroke="midnightblue" d="M665.695,-98.906C681.499,-96.5198 699.272,-94.2723 716.177,-92.4991"/>
<polygon fill="midnightblue" stroke="midnightblue" points="664.958,-95.4789 655.623,-100.49 666.045,-102.394 664.958,-95.4789"/>
</g>
<!-- Node14 -->
<g id="node31" class="node"><title>Node14</title>
<a xlink:href="namespaceHandler.xhtml#a44b41bf69fdc6e615a029bea34910191" target="_top" xlink:title="Send initial greeting and request for account name.">
<polygon fill="white" stroke="black" points="725.5,-40.5 725.5,-61.5 844.5,-61.5 844.5,-40.5 725.5,-40.5"/>
<text text-anchor="middle" x="785" y="-48.5" font-family="FreeSans.ttf" font-size="10.00">Handler::LoginScreen</text>
</a>
</g>
<!-- Node5&#45;&gt;Node14 -->
<g id="edge34" class="edge"><title>Node5&#45;&gt;Node14</title>
<path fill="none" stroke="midnightblue" d="M635.652,-95.3672C655.262,-84.6248 686.371,-71.4962 714,-62 717.633,-60.7513 721.39,-59.5205 725.191,-58.3353"/>
<polygon fill="midnightblue" stroke="midnightblue" points="633.876,-92.3507 627.014,-100.423 637.412,-98.392 633.876,-92.3507"/>
</g>
<!-- Node15 -->
<g id="node34" class="node"><title>Node15</title>
<a xlink:href="classSocketClient.xhtml#a553658a2c076ea71ddcd1758fc64a925" target="_top" xlink:title="Build a SocketClient for a new client connection and set all attributes.">
<polygon fill="white" stroke="black" points="733.5,-0.5 733.5,-21.5 836.5,-21.5 836.5,-0.5 733.5,-0.5"/>
<text text-anchor="middle" x="785" y="-8.5" font-family="FreeSans.ttf" font-size="10.00">SocketClient::New</text>
</a>
</g>
<!-- Node5&#45;&gt;Node15 -->
<g id="edge38" class="edge"><title>Node5&#45;&gt;Node15</title>
<path fill="none" stroke="midnightblue" d="M633.211,-93.1612C651.622,-75.05 682.458,-47.4047 714,-31 721.158,-27.2773 729.092,-24.1757 736.988,-21.6148"/>
<polygon fill="midnightblue" stroke="midnightblue" points="630.696,-90.7259 626.115,-100.279 635.654,-95.668 630.696,-90.7259"/>
</g>
<!-- Node7 -->
<g id="node13" class="node"><title>Node7</title>
<a xlink:href="classSocketClient.xhtml#ad4f63c7d906310dc56a1217136047d7f" target="_top" xlink:title="Interpret the command at the front of the queue.">
<polygon fill="white" stroke="black" points="892,-190.5 892,-211.5 1062,-211.5 1062,-190.5 892,-190.5"/>
<text text-anchor="middle" x="977" y="-198.5" font-family="FreeSans.ttf" font-size="10.00">SocketClient::ProcessCommand</text>
</a>
</g>
<!-- Node6&#45;&gt;Node7 -->
<g id="edge12" class="edge"><title>Node6&#45;&gt;Node7</title>
<path fill="none" stroke="midnightblue" d="M846.053,-207.82C860.608,-207.062 876.404,-206.239 891.824,-205.436"/>
<polygon fill="midnightblue" stroke="midnightblue" points="845.501,-204.344 835.697,-208.36 845.865,-211.335 845.501,-204.344"/>
</g>
<!-- Node8 -->
<g id="node15" class="node"><title>Node8</title>
<a xlink:href="classServer.xhtml#a2b4cec469bb99c2a45e49de5ba74d1ae" target="_top" xlink:title="Processes input from all active SocketClient objects.">
<polygon fill="white" stroke="black" points="1098,-150.5 1098,-171.5 1214,-171.5 1214,-150.5 1098,-150.5"/>
<text text-anchor="middle" x="1156" y="-158.5" font-family="FreeSans.ttf" font-size="10.00">Server::ProcessInput</text>
</a>
</g>
<!-- Node7&#45;&gt;Node8 -->
<g id="edge14" class="edge"><title>Node7&#45;&gt;Node8</title>
<path fill="none" stroke="midnightblue" d="M1033.81,-188.306C1058.02,-182.894 1085.94,-176.656 1108.97,-171.509"/>
<polygon fill="midnightblue" stroke="midnightblue" points="1033.03,-184.894 1024.03,-190.49 1034.55,-191.725 1033.03,-184.894"/>
</g>
<!-- Node9 -->
<g id="node17" class="node"><title>Node9</title>
<a xlink:href="classServer.xhtml#a50b81aa91d8fdaee6f52c5c5ec987990" target="_top" xlink:title="The core update loop of NAMS. This loop spawns all other subsystem update routines and then sleeps fo...">
<polygon fill="white" stroke="black" points="1250.5,-120.5 1250.5,-141.5 1339.5,-141.5 1339.5,-120.5 1250.5,-120.5"/>
<text text-anchor="middle" x="1295" y="-128.5" font-family="FreeSans.ttf" font-size="10.00">Server::Update</text>
</a>
</g>
<!-- Node8&#45;&gt;Node9 -->
<g id="edge16" class="edge"><title>Node8&#45;&gt;Node9</title>
<path fill="none" stroke="midnightblue" d="M1214.81,-148.307C1226.64,-145.754 1238.89,-143.11 1250.15,-140.68"/>
<polygon fill="midnightblue" stroke="midnightblue" points="1214.04,-144.892 1205.01,-150.423 1215.52,-151.735 1214.04,-144.892"/>
</g>
<!-- Node10 -->
<g id="node19" class="node"><title>Node10</title>
<a xlink:href="main_8cpp.xhtml#ad53223b8779f25caeddb70a3b9172967" target="_top" xlink:title="The default function required to execute the server.">
<polygon fill="white" stroke="black" points="1376.5,-120.5 1376.5,-141.5 1417.5,-141.5 1417.5,-120.5 1376.5,-120.5"/>
<text text-anchor="middle" x="1397" y="-128.5" font-family="FreeSans.ttf" font-size="10.00">main</text>
</a>
</g>
<!-- Node9&#45;&gt;Node10 -->
<g id="edge18" class="edge"><title>Node9&#45;&gt;Node10</title>
<path fill="none" stroke="midnightblue" d="M1349.94,-131C1359.34,-131 1368.55,-131 1376.3,-131"/>
<polygon fill="midnightblue" stroke="midnightblue" points="1349.74,-127.5 1339.74,-131 1349.74,-134.5 1349.74,-127.5"/>
</g>
<!-- Node11&#45;&gt;Node5 -->
<g id="edge24" class="edge"><title>Node11&#45;&gt;Node5</title>
<path fill="none" stroke="midnightblue" d="M706.486,-157.326C675.104,-145.996 643.303,-131.912 627.014,-121.577"/>
<polygon fill="midnightblue" stroke="midnightblue" points="705.599,-160.725 716.194,-160.747 707.926,-154.122 705.599,-160.725"/>
</g>
<!-- Node12&#45;&gt;Node5 -->
<g id="edge28" class="edge"><title>Node12&#45;&gt;Node5</title>
<path fill="none" stroke="midnightblue" d="M703.497,-128.101C686.828,-126.17 670.004,-123.871 655.623,-121.51"/>
<polygon fill="midnightblue" stroke="midnightblue" points="703.506,-131.623 713.832,-129.253 704.281,-124.667 703.506,-131.623"/>
</g>
<!-- Node13&#45;&gt;Node5 -->
<g id="edge32" class="edge"><title>Node13&#45;&gt;Node5</title>
<path fill="none" stroke="midnightblue" d="M735.389,-103.081C717.411,-105.797 696.879,-108.335 677.97,-110.198"/>
<polygon fill="midnightblue" stroke="midnightblue" points="736.031,-106.523 745.365,-101.511 734.943,-99.6085 736.031,-106.523"/>
</g>
<!-- Node14&#45;&gt;Node5 -->
<g id="edge36" class="edge"><title>Node14&#45;&gt;Node5</title>
<path fill="none" stroke="midnightblue" d="M760.442,-65.1144C746.672,-69.8357 729.248,-74.7592 714,-80 695.926,-86.212 676.363,-93.9783 659.504,-100.407"/>
<polygon fill="midnightblue" stroke="midnightblue" points="761.986,-68.2763 770.164,-61.5415 759.571,-61.7059 761.986,-68.2763"/>
</g>
<!-- Node16 -->
<g id="node36" class="node"><title>Node16</title>
<a xlink:href="classSocketServer.xhtml#afdbc60c3bc840875d2214b59c6213f63" target="_top" xlink:title="Accept a new connection on the listening port.">
<polygon fill="white" stroke="black" points="917,-80.5 917,-101.5 1037,-101.5 1037,-80.5 917,-80.5"/>
<text text-anchor="middle" x="977" y="-88.5" font-family="FreeSans.ttf" font-size="10.00">SocketServer::Accept</text>
</a>
</g>
<!-- Node15&#45;&gt;Node16 -->
<g id="edge40" class="edge"><title>Node15&#45;&gt;Node16</title>
<path fill="none" stroke="midnightblue" d="M837.372,-24.5558C843.706,-26.5459 850.039,-28.7055 856,-31 893.419,-45.4041 934.837,-67.3361 958.215,-80.3124"/>
<polygon fill="midnightblue" stroke="midnightblue" points="838.056,-21.1064 827.471,-21.5729 836.037,-27.8088 838.056,-21.1064"/>
</g>
<!-- Node17 -->
<g id="node38" class="node"><title>Node17</title>
<a xlink:href="classServer.xhtml#a39dbe16fdc8c5f6fbd678c6540fbcd6c" target="_top" xlink:title="Poll all SocketClient objects that are communicating with the associated SocketServer object...">
<polygon fill="white" stroke="black" points="1101.5,-90.5 1101.5,-111.5 1210.5,-111.5 1210.5,-90.5 1101.5,-90.5"/>
<text text-anchor="middle" x="1156" y="-98.5" font-family="FreeSans.ttf" font-size="10.00">Server::PollSockets</text>
</a>
</g>
<!-- Node16&#45;&gt;Node17 -->
<g id="edge42" class="edge"><title>Node16&#45;&gt;Node17</title>
<path fill="none" stroke="midnightblue" d="M1047.27,-94.9256C1065.28,-95.9321 1084.39,-96.9995 1101.48,-97.9541"/>
<polygon fill="midnightblue" stroke="midnightblue" points="1047.28,-91.421 1037.1,-94.3577 1046.89,-98.4101 1047.28,-91.421"/>
</g>
<!-- Node17&#45;&gt;Node9 -->
<g id="edge44" class="edge"><title>Node17&#45;&gt;Node9</title>
<path fill="none" stroke="midnightblue" d="M1214.81,-113.693C1226.64,-116.246 1238.89,-118.89 1250.15,-121.32"/>
<polygon fill="midnightblue" stroke="midnightblue" points="1215.52,-110.265 1205.01,-111.577 1214.04,-117.108 1215.52,-110.265"/>
</g>
</g>
</svg>
        <g id="navigator" transform="translate(0 0)" fill="#404254">
                <rect fill="#f2f5e9" fill-opacity="0.5" stroke="#606060" stroke-width=".5" x="0" y="0" width="60" height="60"/>
                <use id="zoomplus" xlink:href="#zoomPlus" x="17" y="9" onmousedown="handleZoom(evt,'in')"/>
                <use id="zoomminus" xlink:href="#zoomMin" x="42" y="9" onmousedown="handleZoom(evt,'out')"/>
                <use id="reset" xlink:href="#resetDef" x="30" y="36" onmousedown="handleReset()"/>
                <g id="arrowUp" xlink:href="#dirArrow" transform="translate(30 24)" onmousedown="handlePan(0,-1)">
                  <use xlink:href="#rim" fill="#404040">
                        <set attributeName="fill" to="#808080" begin="arrowUp.mouseover" end="arrowUp.mouseout"/>
                  </use>
                  <path fill="none" stroke="white" stroke-width="1.5" d="M0,-3.0v7 M-2.5,-0.5L0,-3.0L2.5,-0.5"/>
                </g>
                <g id="arrowRight" xlink:href="#dirArrow" transform="rotate(90) translate(36 -43)" onmousedown="handlePan(1,0)">
                  <use xlink:href="#rim" fill="#404040">
                        <set attributeName="fill" to="#808080" begin="arrowRight.mouseover" end="arrowRight.mouseout"/>
                  </use>
                  <path fill="none" stroke="white" stroke-width="1.5" d="M0,-3.0v7 M-2.5,-0.5L0,-3.0L2.5,-0.5"/>
                </g>
                <g id="arrowDown" xlink:href="#dirArrow" transform="rotate(180) translate(-30 -48)" onmousedown="handlePan(0,1)">
                  <use xlink:href="#rim" fill="#404040">
                        <set attributeName="fill" to="#808080" begin="arrowDown.mouseover" end="arrowDown.mouseout"/>
                  </use>
                  <path fill="none" stroke="white" stroke-width="1.5" d="M0,-3.0v7 M-2.5,-0.5L0,-3.0L2.5,-0.5"/>
                </g>
                <g id="arrowLeft" xlink:href="#dirArrow" transform="rotate(270) translate(-36 17)" onmousedown="handlePan(-1,0)">
                  <use xlink:href="#rim" fill="#404040">
                        <set attributeName="fill" to="#808080" begin="arrowLeft.mouseover" end="arrowLeft.mouseout"/>
                  </use>
                  <path fill="none" stroke="white" stroke-width="1.5" d="M0,-3.0v7 M-2.5,-0.5L0,-3.0L2.5,-0.5"/>
                </g>
        </g>
</svg>
