<?xml version="1.0" encoding="UTF-8" standalone="no"?>
<!DOCTYPE svg PUBLIC "-//W3C//DTD SVG 1.1//EN"
 "http://www.w3.org/Graphics/SVG/1.1/DTD/svg11.dtd">
<!-- Generated by graphviz version 2.26.3 (20100126.1600)
 -->
<!-- Title: Utils::iAlNum Pages: 1 -->
<!--zoomable 596 -->
<svg id="main" version="1.1" xmlns="http://www.w3.org/2000/svg" xmlns:xlink="http://www.w3.org/1999/xlink" xml:space="preserve" onload="init(evt)">
        <defs>
                <circle id="rim" cx="0" cy="0" r="7"/>
                <circle id="rim2" cx="0" cy="0" r="3.5"/>
                <g id="zoomPlus">
                        <use xlink:href="#rim" fill="#404040">
                                <set attributeName="fill" to="#808080" begin="zoomplus.mouseover" end="zoomplus.mouseout"/>
                        </use>
                        <path d="M-4,0h8M0,-4v8" fill="none" stroke="white" stroke-width="1.5" pointer-events="none"/>
                </g>
                <g id="zoomMin">
                        <use xlink:href="#rim" fill="#404040">
                                <set attributeName="fill" to="#808080" begin="zoomminus.mouseover" end="zoomminus.mouseout"/>
                        </use>
                        <path d="M-4,0h8" fill="none" stroke="white" stroke-width="1.5" pointer-events="none"/>
                </g>
                <g id="dirArrow">
                        <path fill="none" stroke="white" stroke-width="1.5" d="M0,-3.0v7 M-2.5,-0.5L0,-3.0L2.5,-0.5"/>
                </g>
               <g id="resetDef">
                       <use xlink:href="#rim2" fill="#404040">
                               <set attributeName="fill" to="#808080" begin="reset.mouseover" end="reset.mouseout"/>
                       </use>
               </g>
        </defs>

<script type="text/javascript">
var viewWidth = 1230;
var viewHeight = 596;
var sectionId = 'dynsection-14';
</script>
<script xlink:href="svgpan.js"/>
<svg id="graph" class="graph">
<g id="viewport">
<title>Utils::iAlNum</title>
<polygon fill="white" stroke="white" points="-4,5 -4,-592 1227,-592 1227,5 -4,5"/>
<!-- Node1 -->
<g id="node1" class="node"><title>Node1</title>
<polygon fill="#bfbfbf" stroke="black" points="0,-190 0,-210 78,-210 78,-190 0,-190"/>
<text text-anchor="middle" x="39" y="-197" font-family="FreeSans.ttf" font-size="10.00">Utils::iAlNum</text>
</g>
<!-- Node2 -->
<g id="node3" class="node"><title>Node2</title>
<a xlink:href="namespaceHandler.xhtml#ab5889a65de2794129b375ec39ae923ae" target="_top" xlink:title="Select a new Character name.">
<polygon fill="white" stroke="black" points="114.5,-266 114.5,-286 283.5,-286 283.5,-266 114.5,-266"/>
<text text-anchor="middle" x="199" y="-273" font-family="FreeSans.ttf" font-size="10.00">Handler::CharacterCreateName</text>
</a>
</g>
<!-- Node1&#45;&gt;Node2 -->
<g id="edge2" class="edge"><title>Node1&#45;&gt;Node2</title>
<path fill="none" stroke="midnightblue" d="M69.5129,-214.494C101.281,-229.583 150.195,-252.817 177.92,-265.987"/>
<polygon fill="midnightblue" stroke="midnightblue" points="70.7813,-211.221 60.2468,-210.092 67.7778,-217.544 70.7813,-211.221"/>
</g>
<!-- Node16 -->
<g id="node44" class="node"><title>Node16</title>
<a xlink:href="namespaceHandler.xhtml#a44b41bf69fdc6e615a029bea34910191" target="_top" xlink:title="Send initial greeting and request for account name.">
<polygon fill="white" stroke="black" points="510.5,-0 510.5,-20 629.5,-20 629.5,-0 510.5,-0"/>
<text text-anchor="middle" x="570" y="-7" font-family="FreeSans.ttf" font-size="10.00">Handler::LoginScreen</text>
</a>
</g>
<!-- Node1&#45;&gt;Node16 -->
<g id="edge82" class="edge"><title>Node1&#45;&gt;Node16</title>
<path fill="none" stroke="midnightblue" d="M75.529,-186.378C150.91,-158.351 329.272,-92.4543 480,-40 499.6,-33.1793 521.708,-25.8052 539.108,-20.0749"/>
<polygon fill="midnightblue" stroke="midnightblue" points="74.1621,-183.153 66.0103,-189.92 76.6031,-189.713 74.1621,-183.153"/>
</g>
<!-- Node3 -->
<g id="node5" class="node"><title>Node3</title>
<a xlink:href="namespaceHandler.xhtml#a139febc000c9d767a620708148e0c888" target="_top" xlink:title="Dispatches the appropriate menu based on client state.">
<polygon fill="white" stroke="black" points="320.5,-266 320.5,-286 443.5,-286 443.5,-266 320.5,-266"/>
<text text-anchor="middle" x="382" y="-273" font-family="FreeSans.ttf" font-size="10.00">Handler::LoginHandler</text>
</a>
</g>
<!-- Node2&#45;&gt;Node3 -->
<g id="edge4" class="edge"><title>Node2&#45;&gt;Node3</title>
<path fill="none" stroke="midnightblue" d="M293.774,-269.254C302.842,-269.275 311.867,-269.385 320.492,-269.583"/>
<polygon fill="midnightblue" stroke="midnightblue" points="293.532,-265.754 283.536,-269.267 293.541,-272.754 293.532,-265.754"/>
</g>
<!-- Node3&#45;&gt;Node2 -->
<g id="edge22" class="edge"><title>Node3&#45;&gt;Node2</title>
<path fill="none" stroke="midnightblue" d="M310.316,-282.607C301.531,-282.736 292.489,-282.777 283.536,-282.733"/>
<polygon fill="midnightblue" stroke="midnightblue" points="310.559,-286.103 320.492,-282.417 310.428,-279.105 310.559,-286.103"/>
</g>
<!-- Node4 -->
<g id="node7" class="node"><title>Node4</title>
<a xlink:href="namespaceHandler.xhtml#a33a19d69ead678af81fbe96907eceaf0" target="_top" xlink:title="Create a new account object, or load an existing one, with a name and password.">
<polygon fill="white" stroke="black" points="504.5,-568 504.5,-588 635.5,-588 635.5,-568 504.5,-568"/>
<text text-anchor="middle" x="570" y="-575" font-family="FreeSans.ttf" font-size="10.00">Handler::AttachAccount</text>
</a>
</g>
<!-- Node3&#45;&gt;Node4 -->
<g id="edge6" class="edge"><title>Node3&#45;&gt;Node4</title>
<path fill="none" stroke="midnightblue" d="M387.296,-296.381C401.113,-353.992 439.969,-514.695 480,-550 491.019,-559.718 505.741,-564.905 520.083,-567.98"/>
<polygon fill="midnightblue" stroke="midnightblue" points="390.614,-295.206 384.874,-286.301 383.808,-296.842 390.614,-295.206"/>
</g>
<!-- Node5 -->
<g id="node10" class="node"><title>Node5</title>
<a xlink:href="namespaceHandler.xhtml#a2e4ebf6ed049eb872aa4948d54c4932c" target="_top" xlink:title="Attempt to write a new character to disk after creation was completed.">
<polygon fill="white" stroke="black" points="500.5,-530 500.5,-550 639.5,-550 639.5,-530 500.5,-530"/>
<text text-anchor="middle" x="570" y="-537" font-family="FreeSans.ttf" font-size="10.00">Handler::AttachCharacter</text>
</a>
</g>
<!-- Node3&#45;&gt;Node5 -->
<g id="edge10" class="edge"><title>Node3&#45;&gt;Node5</title>
<path fill="none" stroke="midnightblue" d="M384.358,-296.011C390.471,-342 411.491,-454.392 480,-512 491.611,-521.764 506.999,-526.898 521.761,-529.953"/>
<polygon fill="midnightblue" stroke="midnightblue" points="387.828,-295.555 383.132,-286.058 380.881,-296.411 387.828,-295.555"/>
</g>
<!-- Node6 -->
<g id="node13" class="node"><title>Node6</title>
<a xlink:href="namespaceHandler.xhtml#a73ed6064f2698dbffb5f4c247a02b661" target="_top" xlink:title="Send initial account interface menu.">
<polygon fill="white" stroke="black" points="496,-492 496,-512 644,-512 644,-492 496,-492"/>
<text text-anchor="middle" x="570" y="-499" font-family="FreeSans.ttf" font-size="10.00">Handler::AccountMenuMain</text>
</a>
</g>
<!-- Node3&#45;&gt;Node6 -->
<g id="edge14" class="edge"><title>Node3&#45;&gt;Node6</title>
<path fill="none" stroke="midnightblue" d="M386.474,-296.031C395.655,-336.594 420.953,-427.379 480,-474 492.534,-483.896 509.008,-488.96 524.432,-491.993"/>
<polygon fill="midnightblue" stroke="midnightblue" points="389.838,-295.031 384.297,-286 382.997,-296.515 389.838,-295.031"/>
</g>
<!-- Node7 -->
<g id="node16" class="node"><title>Node7</title>
<a xlink:href="namespaceHandler.xhtml#ad04998a7a6ece2486bc441052a57c2d7" target="_top" xlink:title="Main Character creation menu.">
<polygon fill="white" stroke="black" points="500,-442 500,-474 640,-474 640,-442 500,-442"/>
<text text-anchor="start" x="508" y="-461" font-family="FreeSans.ttf" font-size="10.00">Handler::CharacterCreate</text>
<text text-anchor="middle" x="570" y="-449" font-family="FreeSans.ttf" font-size="10.00">MenuMain</text>
</a>
</g>
<!-- Node3&#45;&gt;Node7 -->
<g id="edge18" class="edge"><title>Node3&#45;&gt;Node7</title>
<path fill="none" stroke="midnightblue" d="M391.046,-295.461C404.784,-327.399 434.25,-389.805 480,-424 491.171,-432.349 504.993,-437.91 518.425,-441.955"/>
<polygon fill="midnightblue" stroke="midnightblue" points="394.262,-294.079 387.138,-286.236 387.816,-296.809 394.262,-294.079"/>
</g>
<!-- Node8 -->
<g id="node20" class="node"><title>Node8</title>
<a xlink:href="namespaceHandler.xhtml#ae5086bcf5857eb572beedd09158c3065" target="_top" xlink:title="Select a new Character sex.">
<polygon fill="white" stroke="black" points="491,-404 491,-424 649,-424 649,-404 491,-404"/>
<text text-anchor="middle" x="570" y="-411" font-family="FreeSans.ttf" font-size="10.00">Handler::CharacterCreateSex</text>
</a>
</g>
<!-- Node3&#45;&gt;Node8 -->
<g id="edge24" class="edge"><title>Node3&#45;&gt;Node8</title>
<path fill="none" stroke="midnightblue" d="M395.788,-294.78C412.147,-319.866 442.05,-362.995 480,-386 496.387,-395.934 517.187,-400.73 534.662,-403.948"/>
<polygon fill="midnightblue" stroke="midnightblue" points="398.562,-292.625 390.193,-286.128 392.684,-296.426 398.562,-292.625"/>
</g>
<!-- Node9 -->
<g id="node23" class="node"><title>Node9</title>
<a xlink:href="namespaceHandler.xhtml#a97a198bfc72285b2aca4f36978db715e" target="_top" xlink:title="Main Character deletion confirmation.">
<polygon fill="white" stroke="black" points="500.5,-354 500.5,-386 639.5,-386 639.5,-354 500.5,-354"/>
<text text-anchor="start" x="508.5" y="-373" font-family="FreeSans.ttf" font-size="10.00">Handler::CharacterDelete</text>
<text text-anchor="middle" x="570" y="-361" font-family="FreeSans.ttf" font-size="10.00">Confirm</text>
</a>
</g>
<!-- Node3&#45;&gt;Node9 -->
<g id="edge28" class="edge"><title>Node3&#45;&gt;Node9</title>
<path fill="none" stroke="midnightblue" d="M410.106,-292.035C428.872,-305.538 454.673,-324.008 480,-336 495.976,-343.564 514.663,-349.219 530.857,-353.914"/>
<polygon fill="midnightblue" stroke="midnightblue" points="411.914,-289.024 401.748,-286.038 407.833,-294.712 411.914,-289.024"/>
</g>
<!-- Node10 -->
<g id="node26" class="node"><title>Node10</title>
<a xlink:href="namespaceHandler.xhtml#afc470ec6e82b7a9a1560588a368734f9" target="_top" xlink:title="Main Character deletion menu.">
<polygon fill="white" stroke="black" points="500.5,-304 500.5,-336 639.5,-336 639.5,-304 500.5,-304"/>
<text text-anchor="start" x="508.5" y="-323" font-family="FreeSans.ttf" font-size="10.00">Handler::CharacterDelete</text>
<text text-anchor="middle" x="570" y="-311" font-family="FreeSans.ttf" font-size="10.00">MenuMain</text>
</a>
</g>
<!-- Node3&#45;&gt;Node10 -->
<g id="edge32" class="edge"><title>Node3&#45;&gt;Node10</title>
<path fill="none" stroke="midnightblue" d="M453.522,-286.164C477.97,-291.499 504.573,-297.98 526.174,-303.933"/>
<polygon fill="midnightblue" stroke="midnightblue" points="454.07,-282.702 443.558,-284.028 452.603,-289.546 454.07,-282.702"/>
</g>
<!-- Node11 -->
<g id="node29" class="node"><title>Node11</title>
<a xlink:href="namespaceHandler.xhtml#a02b1b954749641ab646f6548a5360d3b" target="_top" xlink:title="Main Character load menu.">
<polygon fill="white" stroke="black" points="480.5,-266 480.5,-286 659.5,-286 659.5,-266 480.5,-266"/>
<text text-anchor="middle" x="570" y="-273" font-family="FreeSans.ttf" font-size="10.00">Handler::CharacterLoadMenuMain</text>
</a>
</g>
<!-- Node3&#45;&gt;Node11 -->
<g id="edge36" class="edge"><title>Node3&#45;&gt;Node11</title>
<path fill="none" stroke="midnightblue" d="M453.662,-269.422C462.392,-269.285 471.394,-269.23 480.345,-269.256"/>
<polygon fill="midnightblue" stroke="midnightblue" points="453.488,-265.925 443.558,-269.621 453.625,-272.924 453.488,-265.925"/>
</g>
<!-- Node12 -->
<g id="node32" class="node"><title>Node12</title>
<a xlink:href="namespaceHandler.xhtml#a00bc24564bfd267e0329643c569da1e4" target="_top" xlink:title="Select a new account name.">
<polygon fill="white" stroke="black" points="501.5,-228 501.5,-248 638.5,-248 638.5,-228 501.5,-228"/>
<text text-anchor="middle" x="570" y="-235" font-family="FreeSans.ttf" font-size="10.00">Handler::GetNewAccount</text>
</a>
</g>
<!-- Node3&#45;&gt;Node12 -->
<g id="edge40" class="edge"><title>Node3&#45;&gt;Node12</title>
<path fill="none" stroke="midnightblue" d="M417.648,-263.368C441.235,-257.357 472.931,-250.583 501.304,-245.358"/>
<polygon fill="midnightblue" stroke="midnightblue" points="416.523,-260.045 407.746,-265.979 418.308,-266.813 416.523,-260.045"/>
</g>
<!-- Node13 -->
<g id="node35" class="node"><title>Node13</title>
<a xlink:href="namespaceHandler.xhtml#a744adadcf407cdb3a9c33365afd5a7c2" target="_top" xlink:title="Create a new account.">
<polygon fill="white" stroke="black" points="499,-190 499,-210 641,-210 641,-190 499,-190"/>
<text text-anchor="middle" x="570" y="-197" font-family="FreeSans.ttf" font-size="10.00">Handler::GetNewPassword</text>
</a>
</g>
<!-- Node3&#45;&gt;Node13 -->
<g id="edge44" class="edge"><title>Node3&#45;&gt;Node13</title>
<path fill="none" stroke="midnightblue" d="M396.872,-258.983C415.443,-243.443 448.602,-222.085 480,-210 485.961,-207.705 492.257,-205.664 498.637,-203.887"/>
<polygon fill="midnightblue" stroke="midnightblue" points="394.309,-256.58 389.211,-265.868 398.988,-261.787 394.309,-256.58"/>
</g>
<!-- Node14 -->
<g id="node38" class="node"><title>Node14</title>
<a xlink:href="namespaceHandler.xhtml#adfe13cc9748392348f3941656a1323b6" target="_top" xlink:title="Compare a received password against an existing account.">
<polygon fill="white" stroke="black" points="501.5,-152 501.5,-172 638.5,-172 638.5,-152 501.5,-152"/>
<text text-anchor="middle" x="570" y="-159" font-family="FreeSans.ttf" font-size="10.00">Handler::GetOldPassword</text>
</a>
</g>
<!-- Node3&#45;&gt;Node14 -->
<g id="edge48" class="edge"><title>Node3&#45;&gt;Node14</title>
<path fill="none" stroke="midnightblue" d="M391.629,-257.085C407.535,-232.818 441.402,-192.536 480,-172 486.626,-168.475 493.853,-165.603 501.236,-163.32"/>
<polygon fill="midnightblue" stroke="midnightblue" points="388.518,-255.464 386.276,-265.819 394.486,-259.123 388.518,-255.464"/>
</g>
<!-- Node15 -->
<g id="node41" class="node"><title>Node15</title>
<a xlink:href="namespaceHandler.xhtml#ae70e4e50054c729c14493eafefe01b5c" target="_top" xlink:title="Load a character from the account to enter into the game with.">
<polygon fill="white" stroke="black" points="504.5,-114 504.5,-134 635.5,-134 635.5,-114 504.5,-114"/>
<text text-anchor="middle" x="570" y="-121" font-family="FreeSans.ttf" font-size="10.00">Handler::LoadCharacter</text>
</a>
</g>
<!-- Node3&#45;&gt;Node15 -->
<g id="edge52" class="edge"><title>Node3&#45;&gt;Node15</title>
<path fill="none" stroke="midnightblue" d="M388.394,-256.181C401.335,-224.443 433.414,-163.986 480,-134 487.385,-129.246 495.752,-125.658 504.336,-123.043"/>
<polygon fill="midnightblue" stroke="midnightblue" points="385.035,-255.167 384.746,-265.758 391.577,-257.659 385.035,-255.167"/>
</g>
<!-- Node3&#45;&gt;Node16 -->
<g id="edge56" class="edge"><title>Node3&#45;&gt;Node16</title>
<path fill="none" stroke="midnightblue" d="M388.948,-256.235C400.892,-227.798 425.789,-174.894 444,-129 462.041,-83.5354 444.18,-58.308 480,-25 488.408,-17.1816 499.075,-11.8539 510.101,-8.42868"/>
<polygon fill="midnightblue" stroke="midnightblue" points="385.555,-255.287 385.045,-265.869 392.043,-257.915 385.555,-255.287"/>
</g>
<!-- Node17 -->
<g id="node47" class="node"><title>Node17</title>
<a xlink:href="classSocketClient.xhtml#a8399ef20292e9f3ec83b5c4bec2e105b" target="_top" xlink:title="Build a SocketClient for a new client connection and set all attributes.">
<polygon fill="white" stroke="black" points="518.5,-76 518.5,-96 621.5,-96 621.5,-76 518.5,-76"/>
<text text-anchor="middle" x="570" y="-83" font-family="FreeSans.ttf" font-size="10.00">SocketClient::New</text>
</a>
</g>
<!-- Node3&#45;&gt;Node17 -->
<g id="edge60" class="edge"><title>Node3&#45;&gt;Node17</title>
<path fill="none" stroke="midnightblue" d="M387.488,-256.089C398.55,-219.895 427.101,-143.507 480,-105 491.103,-96.9175 504.904,-92.1212 518.336,-89.3153"/>
<polygon fill="midnightblue" stroke="midnightblue" points="384.054,-255.365 384.609,-265.945 390.773,-257.328 384.054,-255.365"/>
</g>
<!-- Node24 -->
<g id="node62" class="node"><title>Node24</title>
<a xlink:href="classSocketClient.xhtml#ad4f63c7d906310dc56a1217136047d7f" target="_top" xlink:title="Interpret the command at the front of the queue.">
<polygon fill="white" stroke="black" points="696,-38 696,-58 866,-58 866,-38 696,-38"/>
<text text-anchor="middle" x="781" y="-45" font-family="FreeSans.ttf" font-size="10.00">SocketClient::ProcessCommand</text>
</a>
</g>
<!-- Node3&#45;&gt;Node24 -->
<g id="edge76" class="edge"><title>Node3&#45;&gt;Node24</title>
<path fill="none" stroke="midnightblue" d="M390.85,-256.448C414.152,-205.058 475.709,-69.9208 480,-67 513.924,-43.9066 619.154,-41.9702 695.65,-43.9398"/>
<polygon fill="midnightblue" stroke="midnightblue" points="387.549,-255.253 386.61,-265.806 393.925,-258.142 387.549,-255.253"/>
</g>
<!-- Node4&#45;&gt;Node3 -->
<g id="edge8" class="edge"><title>Node4&#45;&gt;Node3</title>
<path fill="none" stroke="midnightblue" d="M494.894,-577.662C489.505,-575.11 484.45,-571.925 480,-568 435.35,-528.622 392.163,-333.241 383.55,-286.024"/>
<polygon fill="midnightblue" stroke="midnightblue" points="493.647,-580.932 504.232,-581.374 496.233,-574.427 493.647,-580.932"/>
</g>
<!-- Node5&#45;&gt;Node3 -->
<g id="edge12" class="edge"><title>Node5&#45;&gt;Node3</title>
<path fill="none" stroke="midnightblue" d="M490.953,-537.369C487.056,-535.276 483.369,-532.833 480,-530 401.284,-463.81 385.262,-325.295 382.511,-286.139"/>
<polygon fill="midnightblue" stroke="midnightblue" points="489.824,-540.7 500.377,-541.637 492.711,-534.323 489.824,-540.7"/>
</g>
<!-- Node6&#45;&gt;Node3 -->
<g id="edge16" class="edge"><title>Node6&#45;&gt;Node3</title>
<path fill="none" stroke="midnightblue" d="M486.555,-496.543C484.276,-495.157 482.084,-493.645 480,-492 410.721,-437.3 387.9,-321.803 383.061,-286.22"/>
<polygon fill="midnightblue" stroke="midnightblue" points="485.231,-499.799 495.722,-501.283 488.447,-493.581 485.231,-499.799"/>
</g>
<!-- Node7&#45;&gt;Node3 -->
<g id="edge20" class="edge"><title>Node7&#45;&gt;Node3</title>
<path fill="none" stroke="midnightblue" d="M490.407,-448.626C486.762,-446.646 483.268,-444.442 480,-442 423.894,-400.065 392.278,-315.7 384.128,-286.021"/>
<polygon fill="midnightblue" stroke="midnightblue" points="489.205,-451.931 499.735,-453.095 492.229,-445.618 489.205,-451.931"/>
</g>
<!-- Node8&#45;&gt;Node3 -->
<g id="edge26" class="edge"><title>Node8&#45;&gt;Node3</title>
<path fill="none" stroke="midnightblue" d="M481.614,-404.954C481.072,-404.641 480.533,-404.323 480,-404 431.251,-374.448 395.78,-311.692 385.24,-286.259"/>
<polygon fill="midnightblue" stroke="midnightblue" points="480.241,-408.181 490.747,-409.555 483.391,-401.93 480.241,-408.181"/>
</g>
<!-- Node9&#45;&gt;Node3 -->
<g id="edge30" class="edge"><title>Node9&#45;&gt;Node3</title>
<path fill="none" stroke="midnightblue" d="M490.921,-358.726C487.186,-357.247 483.527,-355.67 480,-354 442.011,-336.013 402.957,-303.451 388.171,-286.093"/>
<polygon fill="midnightblue" stroke="midnightblue" points="489.737,-362.019 500.33,-362.198 492.16,-355.452 489.737,-362.019"/>
</g>
<!-- Node10&#45;&gt;Node3 -->
<g id="edge34" class="edge"><title>Node10&#45;&gt;Node3</title>
<path fill="none" stroke="midnightblue" d="M490.214,-308.008C459.341,-301.084 426.375,-292.68 405.052,-286.01"/>
<polygon fill="midnightblue" stroke="midnightblue" points="489.627,-311.462 500.146,-310.199 491.135,-304.627 489.627,-311.462"/>
</g>
<!-- Node11&#45;&gt;Node3 -->
<g id="edge38" class="edge"><title>Node11&#45;&gt;Node3</title>
<path fill="none" stroke="midnightblue" d="M470.125,-282.738C461.084,-282.702 452.117,-282.582 443.558,-282.379"/>
<polygon fill="midnightblue" stroke="midnightblue" points="470.343,-286.238 480.345,-282.744 470.346,-279.238 470.343,-286.238"/>
</g>
<!-- Node12&#45;&gt;Node3 -->
<g id="edge42" class="edge"><title>Node12&#45;&gt;Node3</title>
<path fill="none" stroke="midnightblue" d="M533.974,-250.728C508.42,-257.226 473.488,-264.598 443.558,-269.937"/>
<polygon fill="midnightblue" stroke="midnightblue" points="535.184,-254.029 543.964,-248.1 533.403,-247.26 535.184,-254.029"/>
</g>
<!-- Node13&#45;&gt;Node3 -->
<g id="edge46" class="edge"><title>Node13&#45;&gt;Node3</title>
<path fill="none" stroke="midnightblue" d="M537.023,-212.387C519.671,-216.316 498.266,-220.969 480,-228 453.733,-238.111 426.232,-254.711 407.072,-265.828"/>
<polygon fill="midnightblue" stroke="midnightblue" points="538.286,-215.687 547.238,-210.019 536.706,-208.867 538.286,-215.687"/>
</g>
<!-- Node14&#45;&gt;Node3 -->
<g id="edge50" class="edge"><title>Node14&#45;&gt;Node3</title>
<path fill="none" stroke="midnightblue" d="M529.194,-174.037C513.161,-177.369 495.034,-182.001 480,-190 443.182,-209.589 410.669,-247.145 393.943,-265.781"/>
<polygon fill="midnightblue" stroke="midnightblue" points="530.249,-177.396 539.374,-172.012 528.883,-170.53 530.249,-177.396"/>
</g>
<!-- Node15&#45;&gt;Node3 -->
<g id="edge54" class="edge"><title>Node15&#45;&gt;Node3</title>
<path fill="none" stroke="midnightblue" d="M522.395,-136.047C507.924,-139.212 492.547,-143.924 480,-152 433.936,-181.65 402.056,-241.092 388.836,-265.628"/>
<polygon fill="midnightblue" stroke="midnightblue" points="523.103,-139.475 532.222,-134.08 521.729,-132.611 523.103,-139.475"/>
</g>
<!-- Node16&#45;&gt;Node3 -->
<g id="edge58" class="edge"><title>Node16&#45;&gt;Node3</title>
<path fill="none" stroke="midnightblue" d="M522.935,-22.2528C507.657,-26.1081 491.657,-32.1602 480,-43 444.18,-76.308 462.041,-101.535 444,-147 426.175,-191.921 401.944,-243.559 389.724,-265.71"/>
<polygon fill="midnightblue" stroke="midnightblue" points="523.842,-25.6361 532.819,-20.0083 522.292,-18.8099 523.842,-25.6361"/>
</g>
<!-- Node18 -->
<g id="node49" class="node"><title>Node18</title>
<a xlink:href="namespaceServer.xhtml#a16ea0639731dee10e1a253375b508a02" target="_top" xlink:title="Recovers the server state and re&#45;connects client sockets after a reboot.">
<polygon fill="white" stroke="black" points="716,-114 716,-134 846,-134 846,-114 716,-114"/>
<text text-anchor="middle" x="781" y="-121" font-family="FreeSans.ttf" font-size="10.00">Server::RebootRecovery</text>
</a>
</g>
<!-- Node17&#45;&gt;Node18 -->
<g id="edge62" class="edge"><title>Node17&#45;&gt;Node18</title>
<path fill="none" stroke="midnightblue" d="M631.808,-97.1312C661.328,-102.448 696.393,-108.763 725.108,-113.934"/>
<polygon fill="midnightblue" stroke="midnightblue" points="632.078,-93.6238 621.616,-95.2958 630.838,-100.513 632.078,-93.6238"/>
</g>
<!-- Node21 -->
<g id="node55" class="node"><title>Node21</title>
<a xlink:href="classSocketServer.xhtml#afdbc60c3bc840875d2214b59c6213f63" target="_top" xlink:title="Accept a new connection on the listening port.">
<polygon fill="white" stroke="black" points="721,-76 721,-96 841,-96 841,-76 721,-76"/>
<text text-anchor="middle" x="781" y="-83" font-family="FreeSans.ttf" font-size="10.00">SocketServer::Accept</text>
</a>
</g>
<!-- Node17&#45;&gt;Node21 -->
<g id="edge68" class="edge"><title>Node17&#45;&gt;Node21</title>
<path fill="none" stroke="midnightblue" d="M631.731,-86C659.855,-86 693.024,-86 720.944,-86"/>
<polygon fill="midnightblue" stroke="midnightblue" points="631.616,-82.5001 621.616,-86 631.616,-89.5001 631.616,-82.5001"/>
</g>
<!-- Node19 -->
<g id="node51" class="node"><title>Node19</title>
<a xlink:href="namespaceServer.xhtml#a19a1e493e1fb50a56d9c77332543d565" target="_top" xlink:title="Start the NAMS Server. Responsible for calling all critical boot&#45;time functions such as SocketServer ...">
<polygon fill="white" stroke="black" points="1054,-114 1054,-134 1144,-134 1144,-114 1054,-114"/>
<text text-anchor="middle" x="1099" y="-121" font-family="FreeSans.ttf" font-size="10.00">Server::Startup</text>
</a>
</g>
<!-- Node18&#45;&gt;Node19 -->
<g id="edge64" class="edge"><title>Node18&#45;&gt;Node19</title>
<path fill="none" stroke="midnightblue" d="M856.16,-124C917.639,-124 1002.54,-124 1053.95,-124"/>
<polygon fill="midnightblue" stroke="midnightblue" points="856.119,-120.5 846.119,-124 856.119,-127.5 856.119,-120.5"/>
</g>
<!-- Node20 -->
<g id="node53" class="node"><title>Node20</title>
<a xlink:href="main_8cpp.xhtml#ad53223b8779f25caeddb70a3b9172967" target="_top" xlink:title="The default function required to execute the server.">
<polygon fill="white" stroke="black" points="1180.5,-95 1180.5,-115 1221.5,-115 1221.5,-95 1180.5,-95"/>
<text text-anchor="middle" x="1201" y="-102" font-family="FreeSans.ttf" font-size="10.00">main</text>
</a>
</g>
<!-- Node19&#45;&gt;Node20 -->
<g id="edge66" class="edge"><title>Node19&#45;&gt;Node20</title>
<path fill="none" stroke="midnightblue" d="M1153.9,-113.773C1163.36,-112.011 1172.64,-110.282 1180.43,-108.831"/>
<polygon fill="midnightblue" stroke="midnightblue" points="1153.23,-110.339 1144.04,-115.611 1154.51,-117.221 1153.23,-110.339"/>
</g>
<!-- Node22 -->
<g id="node57" class="node"><title>Node22</title>
<a xlink:href="namespaceServer.xhtml#a39dbe16fdc8c5f6fbd678c6540fbcd6c" target="_top" xlink:title="Poll all SocketClient objects that are communicating with the associated SocketServer object...">
<polygon fill="white" stroke="black" points="905.5,-76 905.5,-96 1014.5,-96 1014.5,-76 905.5,-76"/>
<text text-anchor="middle" x="960" y="-83" font-family="FreeSans.ttf" font-size="10.00">Server::PollSockets</text>
</a>
</g>
<!-- Node21&#45;&gt;Node22 -->
<g id="edge70" class="edge"><title>Node21&#45;&gt;Node22</title>
<path fill="none" stroke="midnightblue" d="M851.268,-86C869.284,-86 888.391,-86 905.478,-86"/>
<polygon fill="midnightblue" stroke="midnightblue" points="851.102,-82.5001 841.102,-86 851.102,-89.5001 851.102,-82.5001"/>
</g>
<!-- Node23 -->
<g id="node59" class="node"><title>Node23</title>
<a xlink:href="namespaceServer.xhtml#a50b81aa91d8fdaee6f52c5c5ec987990" target="_top" xlink:title="The core update loop of NAMS. This loop spawns all other subsystem update routines and then sleeps fo...">
<polygon fill="white" stroke="black" points="1054.5,-76 1054.5,-96 1143.5,-96 1143.5,-76 1054.5,-76"/>
<text text-anchor="middle" x="1099" y="-83" font-family="FreeSans.ttf" font-size="10.00">Server::Update</text>
</a>
</g>
<!-- Node22&#45;&gt;Node23 -->
<g id="edge72" class="edge"><title>Node22&#45;&gt;Node23</title>
<path fill="none" stroke="midnightblue" d="M1024.57,-86C1034.69,-86 1044.94,-86 1054.47,-86"/>
<polygon fill="midnightblue" stroke="midnightblue" points="1024.54,-82.5001 1014.54,-86 1024.54,-89.5001 1024.54,-82.5001"/>
</g>
<!-- Node23&#45;&gt;Node20 -->
<g id="edge74" class="edge"><title>Node23&#45;&gt;Node20</title>
<path fill="none" stroke="midnightblue" d="M1153.64,-96.1784C1163.14,-97.9475 1172.47,-99.6852 1180.3,-101.144"/>
<polygon fill="midnightblue" stroke="midnightblue" points="1154.21,-92.7242 1143.74,-94.3337 1152.93,-99.6058 1154.21,-92.7242"/>
</g>
<!-- Node25 -->
<g id="node64" class="node"><title>Node25</title>
<a xlink:href="namespaceServer.xhtml#a2b4cec469bb99c2a45e49de5ba74d1ae" target="_top" xlink:title="Processes input from all active SocketClient objects.">
<polygon fill="white" stroke="black" points="902,-38 902,-58 1018,-58 1018,-38 902,-38"/>
<text text-anchor="middle" x="960" y="-45" font-family="FreeSans.ttf" font-size="10.00">Server::ProcessInput</text>
</a>
</g>
<!-- Node24&#45;&gt;Node25 -->
<g id="edge78" class="edge"><title>Node24&#45;&gt;Node25</title>
<path fill="none" stroke="midnightblue" d="M876.249,-48C884.93,-48 893.54,-48 901.748,-48"/>
<polygon fill="midnightblue" stroke="midnightblue" points="876.044,-44.5001 866.044,-48 876.044,-51.5001 876.044,-44.5001"/>
</g>
<!-- Node25&#45;&gt;Node23 -->
<g id="edge80" class="edge"><title>Node25&#45;&gt;Node23</title>
<path fill="none" stroke="midnightblue" d="M1006.62,-60.7447C1024.63,-65.6694 1044.96,-71.2251 1061.94,-75.8693"/>
<polygon fill="midnightblue" stroke="midnightblue" points="1007.45,-57.3445 996.885,-58.0835 1005.61,-64.0968 1007.45,-57.3445"/>
</g>
</g>
</svg>
        <g id="navigator" transform="translate(0 0)" fill="#404254">
                <rect fill="#f2f5e9" fill-opacity="0.5" stroke="#606060" stroke-width=".5" x="0" y="0" width="60" height="60"/>
                <use id="zoomplus" xlink:href="#zoomPlus" x="17" y="9" onmousedown="handleZoom(evt,'in')"/>
                <use id="zoomminus" xlink:href="#zoomMin" x="42" y="9" onmousedown="handleZoom(evt,'out')"/>
                <use id="reset" xlink:href="#resetDef" x="30" y="36" onmousedown="handleReset()"/>
                <g id="arrowUp" xlink:href="#dirArrow" transform="translate(30 24)" onmousedown="handlePan(0,-1)">
                  <use xlink:href="#rim" fill="#404040">
                        <set attributeName="fill" to="#808080" begin="arrowUp.mouseover" end="arrowUp.mouseout"/>
                  </use>
                  <path fill="none" stroke="white" stroke-width="1.5" d="M0,-3.0v7 M-2.5,-0.5L0,-3.0L2.5,-0.5"/>
                </g>
                <g id="arrowRight" xlink:href="#dirArrow" transform="rotate(90) translate(36 -43)" onmousedown="handlePan(1,0)">
                  <use xlink:href="#rim" fill="#404040">
                        <set attributeName="fill" to="#808080" begin="arrowRight.mouseover" end="arrowRight.mouseout"/>
                  </use>
                  <path fill="none" stroke="white" stroke-width="1.5" d="M0,-3.0v7 M-2.5,-0.5L0,-3.0L2.5,-0.5"/>
                </g>
                <g id="arrowDown" xlink:href="#dirArrow" transform="rotate(180) translate(-30 -48)" onmousedown="handlePan(0,1)">
                  <use xlink:href="#rim" fill="#404040">
                        <set attributeName="fill" to="#808080" begin="arrowDown.mouseover" end="arrowDown.mouseout"/>
                  </use>
                  <path fill="none" stroke="white" stroke-width="1.5" d="M0,-3.0v7 M-2.5,-0.5L0,-3.0L2.5,-0.5"/>
                </g>
                <g id="arrowLeft" xlink:href="#dirArrow" transform="rotate(270) translate(-36 17)" onmousedown="handlePan(-1,0)">
                  <use xlink:href="#rim" fill="#404040">
                        <set attributeName="fill" to="#808080" begin="arrowLeft.mouseover" end="arrowLeft.mouseout"/>
                  </use>
                  <path fill="none" stroke="white" stroke-width="1.5" d="M0,-3.0v7 M-2.5,-0.5L0,-3.0L2.5,-0.5"/>
                </g>
        </g>
        <svg viewBox="0 0 15 15" width="100%" height="30px" preserveAspectRatio="xMaxYMin meet">
         <g id="arrow_out" transform="scale(0.3 0.3)">
          <a xlink:href="namespaceUtils_a36780f0aa565047ca0db53bda2aff5fc_icgraph_org.svg" target="_base">
           <rect id="button" ry="5" rx="5" y="6" x="6" height="38" width="38"
                fill="#f2f5e9" fill-opacity="0.5" stroke="#606060" stroke-width="1.0"/>
           <path id="arrow"
             d="M 11.500037,31.436501 C 11.940474,20.09759 22.043105,11.32322 32.158766,21.979434 L 37.068811,17.246167 C 37.068811,17.246167 37.088388,32 37.088388,32 L 22.160133,31.978069 C 22.160133,31.978069 26.997745,27.140456 26.997745,27.140456 C 18.528582,18.264221 13.291696,25.230495 11.500037,31.436501 z"
             style="fill:#404040;"/>
          </a>
         </g>
        </svg>
</svg>
