<?xml version="1.0" encoding="UTF-8" standalone="no"?>
<!DOCTYPE svg PUBLIC "-//W3C//DTD SVG 1.1//EN"
 "http://www.w3.org/Graphics/SVG/1.1/DTD/svg11.dtd">
<!-- Generated by graphviz version 2.26.3 (20100126.1600)
 -->
<!-- Title: Utils::ReadPair Pages: 1 -->
<!--zoomable 676 -->
<svg id="main" version="1.1" xmlns="http://www.w3.org/2000/svg" xmlns:xlink="http://www.w3.org/1999/xlink" xml:space="preserve" onload="init(evt)">
        <defs>
                <circle id="rim" cx="0" cy="0" r="7"/>
                <circle id="rim2" cx="0" cy="0" r="3.5"/>
                <g id="zoomPlus">
                        <use xlink:href="#rim" fill="#404040">
                                <set attributeName="fill" to="#808080" begin="zoomplus.mouseover" end="zoomplus.mouseout"/>
                        </use>
                        <path d="M-4,0h8M0,-4v8" fill="none" stroke="white" stroke-width="1.5" pointer-events="none"/>
                </g>
                <g id="zoomMin">
                        <use xlink:href="#rim" fill="#404040">
                                <set attributeName="fill" to="#808080" begin="zoomminus.mouseover" end="zoomminus.mouseout"/>
                        </use>
                        <path d="M-4,0h8" fill="none" stroke="white" stroke-width="1.5" pointer-events="none"/>
                </g>
                <g id="dirArrow">
                        <path fill="none" stroke="white" stroke-width="1.5" d="M0,-3.0v7 M-2.5,-0.5L0,-3.0L2.5,-0.5"/>
                </g>
               <g id="resetDef">
                       <use xlink:href="#rim2" fill="#404040">
                               <set attributeName="fill" to="#808080" begin="reset.mouseover" end="reset.mouseout"/>
                       </use>
               </g>
        </defs>

<script type="text/javascript">
var viewWidth = 1500;
var viewHeight = 676;
var sectionId = 'dynsection-27';
</script>
<script xlink:href="svgpan.js"/>
<svg id="graph" class="graph">
<g id="viewport">
<title>Utils::ReadPair</title>
<polygon fill="white" stroke="white" points="-4,5 -4,-671.724 1497,-671.724 1497,5 -4,5"/>
<!-- Node1 -->
<g id="node1" class="node"><title>Node1</title>
<polygon fill="#bfbfbf" stroke="black" points="0,-628.724 0,-648.724 84,-648.724 84,-628.724 0,-628.724"/>
<text text-anchor="middle" x="42" y="-635.724" font-family="FreeSans.ttf" font-size="10.00">Utils::ReadPair</text>
</g>
<!-- Node2 -->
<g id="node3" class="node"><title>Node2</title>
<a xlink:href="classAccount.xhtml#ae236325fef7b2269f54e9567577e0b92" target="_top" xlink:title="Unserialize the account data.">
<polygon fill="white" stroke="black" points="120,-609.724 120,-629.724 234,-629.724 234,-609.724 120,-609.724"/>
<text text-anchor="middle" x="177" y="-616.724" font-family="FreeSans.ttf" font-size="10.00">Account::Unserialize</text>
</a>
</g>
<!-- Node1&#45;&gt;Node2 -->
<g id="edge2" class="edge"><title>Node1&#45;&gt;Node2</title>
<path fill="none" stroke="midnightblue" d="M94.372,-631.353C102.757,-630.173 111.47,-628.947 119.957,-627.752"/>
<polygon fill="midnightblue" stroke="midnightblue" points="93.759,-627.905 84.3444,-632.764 94.7347,-634.836 93.759,-627.905"/>
</g>
<!-- Node28 -->
<g id="node72" class="node"><title>Node28</title>
<a xlink:href="classExit.xhtml#a6e2bf2b62898e1f4c2b92ee100c6af75" target="_top" xlink:title="Unserialize the exit data.">
<polygon fill="white" stroke="black" points="131,-647.724 131,-667.724 223,-667.724 223,-647.724 131,-647.724"/>
<text text-anchor="middle" x="177" y="-654.724" font-family="FreeSans.ttf" font-size="10.00">Exit::Unserialize</text>
</a>
</g>
<!-- Node1&#45;&gt;Node28 -->
<g id="edge88" class="edge"><title>Node1&#45;&gt;Node28</title>
<path fill="none" stroke="midnightblue" d="M94.5766,-646.124C106.455,-647.795 118.983,-649.559 130.586,-651.192"/>
<polygon fill="midnightblue" stroke="midnightblue" points="94.7347,-642.611 84.3444,-644.684 93.759,-649.543 94.7347,-642.611"/>
</g>
<!-- Node3 -->
<g id="node5" class="node"><title>Node3</title>
<a xlink:href="classAccount.xhtml#adc4545f17264112e532b5a48abe94baf" target="_top" xlink:title="Create a new account.">
<polygon fill="white" stroke="black" points="287,-609.724 287,-629.724 369,-629.724 369,-609.724 287,-609.724"/>
<text text-anchor="middle" x="328" y="-616.724" font-family="FreeSans.ttf" font-size="10.00">Account::New</text>
</a>
</g>
<!-- Node2&#45;&gt;Node3 -->
<g id="edge4" class="edge"><title>Node2&#45;&gt;Node3</title>
<path fill="none" stroke="midnightblue" d="M244.494,-619.724C258.925,-619.724 273.75,-619.724 286.829,-619.724"/>
<polygon fill="midnightblue" stroke="midnightblue" points="244.087,-616.224 234.087,-619.724 244.087,-623.224 244.087,-616.224"/>
</g>
<!-- Node4 -->
<g id="node7" class="node"><title>Node4</title>
<a xlink:href="namespaceHandler.xhtml#a33a19d69ead678af81fbe96907eceaf0" target="_top" xlink:title="Create a new account object, or load an existing one, with a name and password.">
<polygon fill="white" stroke="black" points="422.5,-287.724 422.5,-307.724 553.5,-307.724 553.5,-287.724 422.5,-287.724"/>
<text text-anchor="middle" x="488" y="-294.724" font-family="FreeSans.ttf" font-size="10.00">Handler::AttachAccount</text>
</a>
</g>
<!-- Node3&#45;&gt;Node4 -->
<g id="edge6" class="edge"><title>Node3&#45;&gt;Node4</title>
<path fill="none" stroke="midnightblue" d="M337.771,-600.059C368.165,-538.891 460.354,-353.361 482.957,-307.874"/>
<polygon fill="midnightblue" stroke="midnightblue" points="334.458,-598.862 333.142,-609.375 340.727,-601.977 334.458,-598.862"/>
</g>
<!-- Node20 -->
<g id="node53" class="node"><title>Node20</title>
<a xlink:href="namespaceServer.xhtml#a16ea0639731dee10e1a253375b508a02" target="_top" xlink:title="Recovers the server state and re&#45;connects client sockets after a reboot.">
<polygon fill="white" stroke="black" points="986,-599.724 986,-619.724 1116,-619.724 1116,-599.724 986,-599.724"/>
<text text-anchor="middle" x="1051" y="-606.724" font-family="FreeSans.ttf" font-size="10.00">Server::RebootRecovery</text>
</a>
</g>
<!-- Node3&#45;&gt;Node20 -->
<g id="edge86" class="edge"><title>Node3&#45;&gt;Node20</title>
<path fill="none" stroke="midnightblue" d="M379.568,-619.011C508.355,-617.229 843.909,-612.588 985.961,-610.624"/>
<polygon fill="midnightblue" stroke="midnightblue" points="379.156,-615.516 369.205,-619.154 379.253,-622.515 379.156,-615.516"/>
</g>
<!-- Node5 -->
<g id="node9" class="node"><title>Node5</title>
<a xlink:href="namespaceHandler.xhtml#a139febc000c9d767a620708148e0c888" target="_top" xlink:title="Dispatches the appropriate menu based on client state.">
<polygon fill="white" stroke="black" points="590.5,-287.724 590.5,-307.724 713.5,-307.724 713.5,-287.724 590.5,-287.724"/>
<text text-anchor="middle" x="652" y="-294.724" font-family="FreeSans.ttf" font-size="10.00">Handler::LoginHandler</text>
</a>
</g>
<!-- Node4&#45;&gt;Node5 -->
<g id="edge8" class="edge"><title>Node4&#45;&gt;Node5</title>
<path fill="none" stroke="midnightblue" d="M563.79,-290.991C572.73,-290.941 581.77,-290.999 590.48,-291.165"/>
<polygon fill="midnightblue" stroke="midnightblue" points="563.724,-287.492 553.76,-291.093 563.795,-294.491 563.724,-287.492"/>
</g>
<!-- Node5&#45;&gt;Node4 -->
<g id="edge10" class="edge"><title>Node5&#45;&gt;Node4</title>
<path fill="none" stroke="midnightblue" d="M580.242,-304.427C571.436,-304.508 562.471,-304.484 553.76,-304.355"/>
<polygon fill="midnightblue" stroke="midnightblue" points="580.531,-307.923 590.48,-304.283 580.432,-300.924 580.531,-307.923"/>
</g>
<!-- Node6 -->
<g id="node12" class="node"><title>Node6</title>
<a xlink:href="namespaceHandler.xhtml#a2e4ebf6ed049eb872aa4948d54c4932c" target="_top" xlink:title="Attempt to write a new character to disk after creation was completed.">
<polygon fill="white" stroke="black" points="770.5,-495.724 770.5,-515.724 909.5,-515.724 909.5,-495.724 770.5,-495.724"/>
<text text-anchor="middle" x="840" y="-502.724" font-family="FreeSans.ttf" font-size="10.00">Handler::AttachCharacter</text>
</a>
</g>
<!-- Node5&#45;&gt;Node6 -->
<g id="edge12" class="edge"><title>Node5&#45;&gt;Node6</title>
<path fill="none" stroke="midnightblue" d="M657.758,-317.706C668.437,-355.477 695.378,-436.178 750,-477.724 762.965,-487.585 779.886,-492.604 795.553,-495.644"/>
<polygon fill="midnightblue" stroke="midnightblue" points="661.077,-316.575 655.059,-307.854 654.325,-318.424 661.077,-316.575"/>
</g>
<!-- Node7 -->
<g id="node15" class="node"><title>Node7</title>
<a xlink:href="namespaceHandler.xhtml#a73ed6064f2698dbffb5f4c247a02b661" target="_top" xlink:title="Send initial account interface menu.">
<polygon fill="white" stroke="black" points="766,-457.724 766,-477.724 914,-477.724 914,-457.724 766,-457.724"/>
<text text-anchor="middle" x="840" y="-464.724" font-family="FreeSans.ttf" font-size="10.00">Handler::AccountMenuMain</text>
</a>
</g>
<!-- Node5&#45;&gt;Node7 -->
<g id="edge16" class="edge"><title>Node5&#45;&gt;Node7</title>
<path fill="none" stroke="midnightblue" d="M661.422,-317.5C675.306,-348.833 704.628,-408.578 750,-439.724 764.482,-449.666 783.136,-454.572 799.702,-457.648"/>
<polygon fill="midnightblue" stroke="midnightblue" points="664.506,-315.817 657.304,-308.046 658.088,-318.612 664.506,-315.817"/>
</g>
<!-- Node8 -->
<g id="node18" class="node"><title>Node8</title>
<a xlink:href="namespaceHandler.xhtml#ad04998a7a6ece2486bc441052a57c2d7" target="_top" xlink:title="Main Character creation menu.">
<polygon fill="white" stroke="black" points="770,-407.724 770,-439.724 910,-439.724 910,-407.724 770,-407.724"/>
<text text-anchor="start" x="778" y="-426.724" font-family="FreeSans.ttf" font-size="10.00">Handler::CharacterCreate</text>
<text text-anchor="middle" x="840" y="-414.724" font-family="FreeSans.ttf" font-size="10.00">MenuMain</text>
</a>
</g>
<!-- Node5&#45;&gt;Node8 -->
<g id="edge20" class="edge"><title>Node5&#45;&gt;Node8</title>
<path fill="none" stroke="midnightblue" d="M670.023,-315.869C687.837,-336.829 717.132,-370.213 750,-389.724 763.666,-397.836 780.058,-403.401 795.086,-407.685"/>
<polygon fill="midnightblue" stroke="midnightblue" points="672.471,-313.345 663.334,-307.982 667.133,-317.873 672.471,-313.345"/>
</g>
<!-- Node9 -->
<g id="node21" class="node"><title>Node9</title>
<a xlink:href="namespaceHandler.xhtml#ab5889a65de2794129b375ec39ae923ae" target="_top" xlink:title="Select a new Character name.">
<polygon fill="white" stroke="black" points="755.5,-369.724 755.5,-389.724 924.5,-389.724 924.5,-369.724 755.5,-369.724"/>
<text text-anchor="middle" x="840" y="-376.724" font-family="FreeSans.ttf" font-size="10.00">Handler::CharacterCreateName</text>
</a>
</g>
<!-- Node5&#45;&gt;Node9 -->
<g id="edge24" class="edge"><title>Node5&#45;&gt;Node9</title>
<path fill="none" stroke="midnightblue" d="M682.276,-313.471C700.875,-325.703 725.721,-341.753 750,-351.724 771.42,-360.521 797.448,-365.448 815.993,-369.702"/>
<polygon fill="midnightblue" stroke="midnightblue" points="683.955,-310.386 673.677,-307.816 680.109,-316.235 683.955,-310.386"/>
</g>
<!-- Node10 -->
<g id="node24" class="node"><title>Node10</title>
<a xlink:href="namespaceHandler.xhtml#ae5086bcf5857eb572beedd09158c3065" target="_top" xlink:title="Select a new Character sex.">
<polygon fill="white" stroke="black" points="761,-331.724 761,-351.724 919,-351.724 919,-331.724 761,-331.724"/>
<text text-anchor="middle" x="840" y="-338.724" font-family="FreeSans.ttf" font-size="10.00">Handler::CharacterCreateSex</text>
</a>
</g>
<!-- Node5&#45;&gt;Node10 -->
<g id="edge28" class="edge"><title>Node5&#45;&gt;Node10</title>
<path fill="none" stroke="midnightblue" d="M723.565,-307.416C732.453,-309.553 741.427,-311.726 750,-313.724 775.351,-319.631 804.906,-325.718 823.034,-331.685"/>
<polygon fill="midnightblue" stroke="midnightblue" points="724.131,-303.952 713.591,-305.03 722.503,-310.76 724.131,-303.952"/>
</g>
<!-- Node11 -->
<g id="node27" class="node"><title>Node11</title>
<a xlink:href="namespaceHandler.xhtml#a97a198bfc72285b2aca4f36978db715e" target="_top" xlink:title="Main Character deletion confirmation.">
<polygon fill="white" stroke="black" points="770.5,-281.724 770.5,-313.724 909.5,-313.724 909.5,-281.724 770.5,-281.724"/>
<text text-anchor="start" x="778.5" y="-300.724" font-family="FreeSans.ttf" font-size="10.00">Handler::CharacterDelete</text>
<text text-anchor="middle" x="840" y="-288.724" font-family="FreeSans.ttf" font-size="10.00">Confirm</text>
</a>
</g>
<!-- Node5&#45;&gt;Node11 -->
<g id="edge32" class="edge"><title>Node5&#45;&gt;Node11</title>
<path fill="none" stroke="midnightblue" d="M723.972,-291.141C739.235,-290.905 755.319,-290.919 770.488,-291.182"/>
<polygon fill="midnightblue" stroke="midnightblue" points="723.488,-287.65 713.558,-291.345 723.625,-294.649 723.488,-287.65"/>
</g>
<!-- Node12 -->
<g id="node30" class="node"><title>Node12</title>
<a xlink:href="namespaceHandler.xhtml#afc470ec6e82b7a9a1560588a368734f9" target="_top" xlink:title="Main Character deletion menu.">
<polygon fill="white" stroke="black" points="770.5,-231.724 770.5,-263.724 909.5,-263.724 909.5,-231.724 770.5,-231.724"/>
<text text-anchor="start" x="778.5" y="-250.724" font-family="FreeSans.ttf" font-size="10.00">Handler::CharacterDelete</text>
<text text-anchor="middle" x="840" y="-238.724" font-family="FreeSans.ttf" font-size="10.00">MenuMain</text>
</a>
</g>
<!-- Node5&#45;&gt;Node12 -->
<g id="edge36" class="edge"><title>Node5&#45;&gt;Node12</title>
<path fill="none" stroke="midnightblue" d="M682.718,-284.408C706.455,-276.642 740.243,-267.19 770.422,-259.685"/>
<polygon fill="midnightblue" stroke="midnightblue" points="681.555,-281.106 673.201,-287.622 683.795,-287.738 681.555,-281.106"/>
</g>
<!-- Node13 -->
<g id="node33" class="node"><title>Node13</title>
<a xlink:href="namespaceHandler.xhtml#a02b1b954749641ab646f6548a5360d3b" target="_top" xlink:title="Main Character load menu.">
<polygon fill="white" stroke="black" points="750.5,-193.724 750.5,-213.724 929.5,-213.724 929.5,-193.724 750.5,-193.724"/>
<text text-anchor="middle" x="840" y="-200.724" font-family="FreeSans.ttf" font-size="10.00">Handler::CharacterLoadMenuMain</text>
</a>
</g>
<!-- Node5&#45;&gt;Node13 -->
<g id="edge40" class="edge"><title>Node5&#45;&gt;Node13</title>
<path fill="none" stroke="midnightblue" d="M663.952,-279.705C681.314,-259.854 715.249,-229.689 750,-213.724 750.145,-213.657 750.29,-213.591 750.436,-213.525"/>
<polygon fill="midnightblue" stroke="midnightblue" points="661.191,-277.553 657.572,-287.51 666.611,-281.983 661.191,-277.553"/>
</g>
<!-- Node14 -->
<g id="node36" class="node"><title>Node14</title>
<a xlink:href="namespaceHandler.xhtml#a00bc24564bfd267e0329643c569da1e4" target="_top" xlink:title="Select a new account name.">
<polygon fill="white" stroke="black" points="771.5,-155.724 771.5,-175.724 908.5,-175.724 908.5,-155.724 771.5,-155.724"/>
<text text-anchor="middle" x="840" y="-162.724" font-family="FreeSans.ttf" font-size="10.00">Handler::GetNewAccount</text>
</a>
</g>
<!-- Node5&#45;&gt;Node14 -->
<g id="edge44" class="edge"><title>Node5&#45;&gt;Node14</title>
<path fill="none" stroke="midnightblue" d="M659.977,-278.211C674.513,-250.253 707.751,-200.604 750,-175.724 756.605,-171.834 763.897,-168.735 771.387,-166.326"/>
<polygon fill="midnightblue" stroke="midnightblue" points="656.713,-276.921 655.486,-287.444 663.008,-279.983 656.713,-276.921"/>
</g>
<!-- Node15 -->
<g id="node39" class="node"><title>Node15</title>
<a xlink:href="namespaceHandler.xhtml#a744adadcf407cdb3a9c33365afd5a7c2" target="_top" xlink:title="Create a new account.">
<polygon fill="white" stroke="black" points="769,-117.724 769,-137.724 911,-137.724 911,-117.724 769,-117.724"/>
<text text-anchor="middle" x="840" y="-124.724" font-family="FreeSans.ttf" font-size="10.00">Handler::GetNewPassword</text>
</a>
</g>
<!-- Node5&#45;&gt;Node15 -->
<g id="edge48" class="edge"><title>Node5&#45;&gt;Node15</title>
<path fill="none" stroke="midnightblue" d="M657.189,-277.831C668.677,-242.957 699.33,-172.507 750,-137.724 755.793,-133.747 762.253,-130.576 768.98,-128.097"/>
<polygon fill="midnightblue" stroke="midnightblue" points="653.83,-276.845 654.237,-287.432 660.521,-278.902 653.83,-276.845"/>
</g>
<!-- Node16 -->
<g id="node42" class="node"><title>Node16</title>
<a xlink:href="namespaceHandler.xhtml#adfe13cc9748392348f3941656a1323b6" target="_top" xlink:title="Compare a received password against an existing account.">
<polygon fill="white" stroke="black" points="771.5,-79.724 771.5,-99.724 908.5,-99.724 908.5,-79.724 771.5,-79.724"/>
<text text-anchor="middle" x="840" y="-86.724" font-family="FreeSans.ttf" font-size="10.00">Handler::GetOldPassword</text>
</a>
</g>
<!-- Node5&#45;&gt;Node16 -->
<g id="edge52" class="edge"><title>Node5&#45;&gt;Node16</title>
<path fill="none" stroke="midnightblue" d="M655.254,-277.765C663.797,-236.866 690.445,-145.021 750,-99.724 756.355,-94.8902 763.661,-91.2198 771.304,-88.5098"/>
<polygon fill="midnightblue" stroke="midnightblue" points="651.803,-277.173 653.349,-287.655 658.677,-278.497 651.803,-277.173"/>
</g>
<!-- Node17 -->
<g id="node45" class="node"><title>Node17</title>
<a xlink:href="namespaceHandler.xhtml#ae70e4e50054c729c14493eafefe01b5c" target="_top" xlink:title="Load a character from the account to enter into the game with.">
<polygon fill="white" stroke="black" points="774.5,-41.724 774.5,-61.724 905.5,-61.724 905.5,-41.724 774.5,-41.724"/>
<text text-anchor="middle" x="840" y="-48.724" font-family="FreeSans.ttf" font-size="10.00">Handler::LoadCharacter</text>
</a>
</g>
<!-- Node5&#45;&gt;Node17 -->
<g id="edge56" class="edge"><title>Node5&#45;&gt;Node17</title>
<path fill="none" stroke="midnightblue" d="M653.882,-277.547C659.707,-231.104 681.399,-117.843 750,-61.724 757.045,-55.9604 765.415,-51.8215 774.17,-48.9689"/>
<polygon fill="midnightblue" stroke="midnightblue" points="650.39,-277.274 652.747,-287.603 657.346,-278.059 650.39,-277.274"/>
</g>
<!-- Node18 -->
<g id="node48" class="node"><title>Node18</title>
<a xlink:href="namespaceHandler.xhtml#a44b41bf69fdc6e615a029bea34910191" target="_top" xlink:title="Send initial greeting and request for account name.">
<polygon fill="white" stroke="black" points="780.5,-571.724 780.5,-591.724 899.5,-591.724 899.5,-571.724 780.5,-571.724"/>
<text text-anchor="middle" x="840" y="-578.724" font-family="FreeSans.ttf" font-size="10.00">Handler::LoginScreen</text>
</a>
</g>
<!-- Node5&#45;&gt;Node18 -->
<g id="edge60" class="edge"><title>Node5&#45;&gt;Node18</title>
<path fill="none" stroke="midnightblue" d="M653.516,-318.013C658.132,-366.868 676.621,-490.356 750,-553.724 761.24,-563.431 776.191,-568.593 790.674,-571.662"/>
<polygon fill="midnightblue" stroke="midnightblue" points="656.981,-317.441 652.653,-307.771 650.005,-318.03 656.981,-317.441"/>
</g>
<!-- Node19 -->
<g id="node51" class="node"><title>Node19</title>
<a xlink:href="classSocketClient.xhtml#a8399ef20292e9f3ec83b5c4bec2e105b" target="_top" xlink:title="Build a SocketClient for a new client connection and set all attributes.">
<polygon fill="white" stroke="black" points="788.5,-533.724 788.5,-553.724 891.5,-553.724 891.5,-533.724 788.5,-533.724"/>
<text text-anchor="middle" x="840" y="-540.724" font-family="FreeSans.ttf" font-size="10.00">SocketClient::New</text>
</a>
</g>
<!-- Node5&#45;&gt;Node19 -->
<g id="edge64" class="edge"><title>Node5&#45;&gt;Node19</title>
<path fill="none" stroke="midnightblue" d="M654.515,-318.008C661.199,-362.799 683.676,-470.467 750,-524.724 760.754,-533.521 774.592,-538.533 788.178,-541.317"/>
<polygon fill="midnightblue" stroke="midnightblue" points="657.943,-317.246 653.11,-307.817 651.009,-318.202 657.943,-317.246"/>
</g>
<!-- Node26 -->
<g id="node66" class="node"><title>Node26</title>
<a xlink:href="classSocketClient.xhtml#ad4f63c7d906310dc56a1217136047d7f" target="_top" xlink:title="Interpret the command at the front of the queue.">
<polygon fill="white" stroke="black" points="966,-249.724 966,-269.724 1136,-269.724 1136,-249.724 966,-249.724"/>
<text text-anchor="middle" x="1051" y="-256.724" font-family="FreeSans.ttf" font-size="10.00">SocketClient::ProcessCommand</text>
</a>
</g>
<!-- Node5&#45;&gt;Node26 -->
<g id="edge80" class="edge"><title>Node5&#45;&gt;Node26</title>
<path fill="none" stroke="midnightblue" d="M656.346,-277.602C669.039,-220.912 707.828,-62.0915 750,-32.724 815.65,12.9933 861.405,8.44353 930,-32.724 1013.48,-82.823 1042.53,-212.208 1049.31,-249.515"/>
<polygon fill="midnightblue" stroke="midnightblue" points="652.897,-276.991 654.162,-287.51 659.733,-278.498 652.897,-276.991"/>
</g>
<!-- Node6&#45;&gt;Node5 -->
<g id="edge14" class="edge"><title>Node6&#45;&gt;Node5</title>
<path fill="none" stroke="midnightblue" d="M761.031,-502.569C757.141,-500.605 753.432,-498.334 750,-495.724 684.985,-446.273 659.187,-341.349 653.349,-307.793"/>
<polygon fill="midnightblue" stroke="midnightblue" points="759.82,-505.859 770.389,-506.608 762.595,-499.432 759.82,-505.859"/>
</g>
<!-- Node7&#45;&gt;Node5 -->
<g id="edge18" class="edge"><title>Node7&#45;&gt;Node5</title>
<path fill="none" stroke="midnightblue" d="M756.645,-461.792C754.353,-460.541 752.131,-459.187 750,-457.724 694.088,-419.342 662.549,-337.533 654.237,-308.016"/>
<polygon fill="midnightblue" stroke="midnightblue" points="755.255,-465.006 765.792,-466.115 758.246,-458.677 755.255,-465.006"/>
</g>
<!-- Node8&#45;&gt;Node5 -->
<g id="edge22" class="edge"><title>Node8&#45;&gt;Node5</title>
<path fill="none" stroke="midnightblue" d="M760.189,-413.097C756.674,-411.449 753.26,-409.659 750,-407.724 705.88,-381.534 668.199,-330.348 656.082,-307.83"/>
<polygon fill="midnightblue" stroke="midnightblue" points="759.113,-416.443 769.686,-417.133 761.851,-410.001 759.113,-416.443"/>
</g>
<!-- Node9&#45;&gt;Node5 -->
<g id="edge26" class="edge"><title>Node9&#45;&gt;Node5</title>
<path fill="none" stroke="midnightblue" d="M745.946,-367.745C706.956,-350.004 672.689,-323.316 658.645,-307.951"/>
<polygon fill="midnightblue" stroke="midnightblue" points="744.838,-371.079 755.406,-371.829 747.612,-364.652 744.838,-371.079"/>
</g>
<!-- Node10&#45;&gt;Node5 -->
<g id="edge30" class="edge"><title>Node10&#45;&gt;Node5</title>
<path fill="none" stroke="midnightblue" d="M751.008,-331.958C750.671,-331.88 750.335,-331.802 750,-331.724 720.245,-324.791 685.664,-315.733 666.564,-307.816"/>
<polygon fill="midnightblue" stroke="midnightblue" points="750.411,-335.412 760.939,-334.221 751.966,-328.587 750.411,-335.412"/>
</g>
<!-- Node11&#45;&gt;Node5 -->
<g id="edge34" class="edge"><title>Node11&#45;&gt;Node5</title>
<path fill="none" stroke="midnightblue" d="M760.309,-304.404C744.671,-304.558 728.492,-304.458 713.558,-304.103"/>
<polygon fill="midnightblue" stroke="midnightblue" points="760.537,-307.901 770.488,-304.266 760.442,-300.902 760.537,-307.901"/>
</g>
<!-- Node12&#45;&gt;Node5 -->
<g id="edge38" class="edge"><title>Node12&#45;&gt;Node5</title>
<path fill="none" stroke="midnightblue" d="M790.964,-266.776C767.303,-273.911 738.67,-281.649 713.558,-287.731"/>
<polygon fill="midnightblue" stroke="midnightblue" points="792.244,-270.044 800.775,-263.762 790.188,-263.353 792.244,-270.044"/>
</g>
<!-- Node13&#45;&gt;Node5 -->
<g id="edge42" class="edge"><title>Node13&#45;&gt;Node5</title>
<path fill="none" stroke="midnightblue" d="M803.404,-215.863C786.582,-219.436 766.704,-224.05 750,-231.724 718.266,-246.302 687.213,-272.722 668.839,-287.67"/>
<polygon fill="midnightblue" stroke="midnightblue" points="804.361,-219.238 813.426,-213.755 802.92,-212.388 804.361,-219.238"/>
</g>
<!-- Node14&#45;&gt;Node5 -->
<g id="edge46" class="edge"><title>Node14&#45;&gt;Node5</title>
<path fill="none" stroke="midnightblue" d="M795.398,-177.812C780.211,-181.031 763.64,-185.691 750,-193.724 708.604,-218.102 675.859,-266.258 660.881,-287.698"/>
<polygon fill="midnightblue" stroke="midnightblue" points="796.504,-181.162 805.637,-175.791 795.149,-174.294 796.504,-181.162"/>
</g>
<!-- Node15&#45;&gt;Node5 -->
<g id="edge50" class="edge"><title>Node15&#45;&gt;Node5</title>
<path fill="none" stroke="midnightblue" d="M789.803,-139.836C776.008,-142.985 761.654,-147.724 750,-155.724 699.499,-190.391 668.882,-260.488 657.304,-287.402"/>
<polygon fill="midnightblue" stroke="midnightblue" points="790.612,-143.243 799.702,-137.8 789.202,-136.386 790.612,-143.243"/>
</g>
<!-- Node16&#45;&gt;Node5 -->
<g id="edge54" class="edge"><title>Node16&#45;&gt;Node5</title>
<path fill="none" stroke="midnightblue" d="M785.52,-102.019C772.923,-105.177 760.23,-109.943 750,-117.724 689.986,-163.371 663.388,-256.285 655.059,-287.594"/>
<polygon fill="midnightblue" stroke="midnightblue" points="786.542,-105.377 795.553,-99.804 785.033,-98.5419 786.542,-105.377"/>
</g>
<!-- Node17&#45;&gt;Node5 -->
<g id="edge58" class="edge"><title>Node17&#45;&gt;Node5</title>
<path fill="none" stroke="midnightblue" d="M782.917,-64.089C771.075,-67.2704 759.367,-72.0614 750,-79.724 680.394,-136.665 659.082,-252.434 653.636,-287.68"/>
<polygon fill="midnightblue" stroke="midnightblue" points="783.907,-67.452 792.847,-61.7674 782.313,-60.6358 783.907,-67.452"/>
</g>
<!-- Node18&#45;&gt;Node5 -->
<g id="edge62" class="edge"><title>Node18&#45;&gt;Node5</title>
<path fill="none" stroke="midnightblue" d="M770.663,-583.673C763.137,-580.835 756.034,-576.935 750,-571.724 666.283,-499.429 654.012,-348.88 652.277,-307.882"/>
<polygon fill="midnightblue" stroke="midnightblue" points="769.784,-587.065 780.373,-586.716 771.877,-580.385 769.784,-587.065"/>
</g>
<!-- Node19&#45;&gt;Node20 -->
<g id="edge66" class="edge"><title>Node19&#45;&gt;Node20</title>
<path fill="none" stroke="midnightblue" d="M901.638,-555.345C911.198,-557.547 920.912,-560.019 930,-562.724 964.991,-573.138 1004.15,-589.193 1028.19,-599.579"/>
<polygon fill="midnightblue" stroke="midnightblue" points="902.285,-551.903 891.763,-553.15 900.765,-558.737 902.285,-551.903"/>
</g>
<!-- Node23 -->
<g id="node59" class="node"><title>Node23</title>
<a xlink:href="classSocketServer.xhtml#afdbc60c3bc840875d2214b59c6213f63" target="_top" xlink:title="Accept a new connection on the listening port.">
<polygon fill="white" stroke="black" points="991,-533.724 991,-553.724 1111,-553.724 1111,-533.724 991,-533.724"/>
<text text-anchor="middle" x="1051" y="-540.724" font-family="FreeSans.ttf" font-size="10.00">SocketServer::Accept</text>
</a>
</g>
<!-- Node19&#45;&gt;Node23 -->
<g id="edge72" class="edge"><title>Node19&#45;&gt;Node23</title>
<path fill="none" stroke="midnightblue" d="M901.731,-543.724C929.855,-543.724 963.024,-543.724 990.944,-543.724"/>
<polygon fill="midnightblue" stroke="midnightblue" points="901.616,-540.224 891.616,-543.724 901.616,-547.224 901.616,-540.224"/>
</g>
<!-- Node21 -->
<g id="node55" class="node"><title>Node21</title>
<a xlink:href="namespaceServer.xhtml#a19a1e493e1fb50a56d9c77332543d565" target="_top" xlink:title="Start the NAMS Server. Responsible for calling all critical boot&#45;time functions such as SocketServer ...">
<polygon fill="white" stroke="black" points="1185,-599.724 1185,-619.724 1275,-619.724 1275,-599.724 1185,-599.724"/>
<text text-anchor="middle" x="1230" y="-606.724" font-family="FreeSans.ttf" font-size="10.00">Server::Startup</text>
</a>
</g>
<!-- Node20&#45;&gt;Node21 -->
<g id="edge68" class="edge"><title>Node20&#45;&gt;Node21</title>
<path fill="none" stroke="midnightblue" d="M1126.13,-609.724C1146.08,-609.724 1167,-609.724 1184.8,-609.724"/>
<polygon fill="midnightblue" stroke="midnightblue" points="1126.13,-606.224 1116.13,-609.724 1126.13,-613.224 1126.13,-606.224"/>
</g>
<!-- Node22 -->
<g id="node57" class="node"><title>Node22</title>
<a xlink:href="main_8cpp.xhtml#ad53223b8779f25caeddb70a3b9172967" target="_top" xlink:title="The default function required to execute the server.">
<polygon fill="white" stroke="black" points="1450.5,-556.724 1450.5,-576.724 1491.5,-576.724 1491.5,-556.724 1450.5,-556.724"/>
<text text-anchor="middle" x="1471" y="-563.724" font-family="FreeSans.ttf" font-size="10.00">main</text>
</a>
</g>
<!-- Node21&#45;&gt;Node22 -->
<g id="edge70" class="edge"><title>Node21&#45;&gt;Node22</title>
<path fill="none" stroke="midnightblue" d="M1284.91,-599.927C1337.55,-590.535 1414.21,-576.857 1450.49,-570.383"/>
<polygon fill="midnightblue" stroke="midnightblue" points="1284.28,-596.484 1275.05,-601.686 1285.51,-603.375 1284.28,-596.484"/>
</g>
<!-- Node24 -->
<g id="node61" class="node"><title>Node24</title>
<a xlink:href="namespaceServer.xhtml#a39dbe16fdc8c5f6fbd678c6540fbcd6c" target="_top" xlink:title="Poll all SocketClient objects that are communicating with the associated SocketServer object...">
<polygon fill="white" stroke="black" points="1175.5,-533.724 1175.5,-553.724 1284.5,-553.724 1284.5,-533.724 1175.5,-533.724"/>
<text text-anchor="middle" x="1230" y="-540.724" font-family="FreeSans.ttf" font-size="10.00">Server::PollSockets</text>
</a>
</g>
<!-- Node23&#45;&gt;Node24 -->
<g id="edge74" class="edge"><title>Node23&#45;&gt;Node24</title>
<path fill="none" stroke="midnightblue" d="M1121.27,-543.724C1139.28,-543.724 1158.39,-543.724 1175.48,-543.724"/>
<polygon fill="midnightblue" stroke="midnightblue" points="1121.1,-540.224 1111.1,-543.724 1121.1,-547.224 1121.1,-540.224"/>
</g>
<!-- Node25 -->
<g id="node63" class="node"><title>Node25</title>
<a xlink:href="namespaceServer.xhtml#a50b81aa91d8fdaee6f52c5c5ec987990" target="_top" xlink:title="The core update loop of NAMS. This loop spawns all other subsystem update routines and then sleeps fo...">
<polygon fill="white" stroke="black" points="1324.5,-533.724 1324.5,-553.724 1413.5,-553.724 1413.5,-533.724 1324.5,-533.724"/>
<text text-anchor="middle" x="1369" y="-540.724" font-family="FreeSans.ttf" font-size="10.00">Server::Update</text>
</a>
</g>
<!-- Node24&#45;&gt;Node25 -->
<g id="edge76" class="edge"><title>Node24&#45;&gt;Node25</title>
<path fill="none" stroke="midnightblue" d="M1294.57,-543.724C1304.69,-543.724 1314.94,-543.724 1324.47,-543.724"/>
<polygon fill="midnightblue" stroke="midnightblue" points="1294.54,-540.224 1284.54,-543.724 1294.54,-547.224 1294.54,-540.224"/>
</g>
<!-- Node25&#45;&gt;Node22 -->
<g id="edge78" class="edge"><title>Node25&#45;&gt;Node22</title>
<path fill="none" stroke="midnightblue" d="M1423.46,-556.005C1433.08,-558.173 1442.53,-560.303 1450.44,-562.087"/>
<polygon fill="midnightblue" stroke="midnightblue" points="1423.97,-552.531 1413.44,-553.745 1422.43,-559.359 1423.97,-552.531"/>
</g>
<!-- Node27 -->
<g id="node68" class="node"><title>Node27</title>
<a xlink:href="namespaceServer.xhtml#a2b4cec469bb99c2a45e49de5ba74d1ae" target="_top" xlink:title="Processes input from all active SocketClient objects.">
<polygon fill="white" stroke="black" points="1172,-372.724 1172,-392.724 1288,-392.724 1288,-372.724 1172,-372.724"/>
<text text-anchor="middle" x="1230" y="-379.724" font-family="FreeSans.ttf" font-size="10.00">Server::ProcessInput</text>
</a>
</g>
<!-- Node26&#45;&gt;Node27 -->
<g id="edge82" class="edge"><title>Node26&#45;&gt;Node27</title>
<path fill="none" stroke="midnightblue" d="M1073.91,-275.465C1111.27,-301.142 1184.29,-351.316 1215.4,-372.692"/>
<polygon fill="midnightblue" stroke="midnightblue" points="1075.87,-272.568 1065.65,-269.79 1071.91,-278.338 1075.87,-272.568"/>
</g>
<!-- Node27&#45;&gt;Node25 -->
<g id="edge84" class="edge"><title>Node27&#45;&gt;Node25</title>
<path fill="none" stroke="midnightblue" d="M1245.36,-400.511C1274.57,-434.353 1337.3,-507.006 1360.31,-533.657"/>
<polygon fill="midnightblue" stroke="midnightblue" points="1247.88,-398.077 1238.7,-392.795 1242.58,-402.652 1247.88,-398.077"/>
</g>
<!-- Node29 -->
<g id="node74" class="node"><title>Node29</title>
<a xlink:href="classLocation.xhtml#af65d15c0c107b1fdea7711d632ac909d" target="_top" xlink:title="Unserialize the location data.">
<polygon fill="white" stroke="black" points="270,-647.724 270,-667.724 386,-667.724 386,-647.724 270,-647.724"/>
<text text-anchor="middle" x="328" y="-654.724" font-family="FreeSans.ttf" font-size="10.00">Location::Unserialize</text>
</a>
</g>
<!-- Node28&#45;&gt;Node29 -->
<g id="edge90" class="edge"><title>Node28&#45;&gt;Node29</title>
<path fill="none" stroke="midnightblue" d="M233.387,-657.724C245.3,-657.724 257.893,-657.724 269.869,-657.724"/>
<polygon fill="midnightblue" stroke="midnightblue" points="233.125,-654.224 223.125,-657.724 233.125,-661.224 233.125,-654.224"/>
</g>
<!-- Node30 -->
<g id="node76" class="node"><title>Node30</title>
<a xlink:href="classLocation.xhtml#a6396aba5eab9bcbabb000c3f6478e1a2" target="_top" xlink:title="Create a new location.">
<polygon fill="white" stroke="black" points="446.5,-647.724 446.5,-667.724 529.5,-667.724 529.5,-647.724 446.5,-647.724"/>
<text text-anchor="middle" x="488" y="-654.724" font-family="FreeSans.ttf" font-size="10.00">Location::New</text>
</a>
</g>
<!-- Node29&#45;&gt;Node30 -->
<g id="edge92" class="edge"><title>Node29&#45;&gt;Node30</title>
<path fill="none" stroke="midnightblue" d="M396.588,-657.724C413.433,-657.724 430.967,-657.724 446.12,-657.724"/>
<polygon fill="midnightblue" stroke="midnightblue" points="396.216,-654.224 386.216,-657.724 396.216,-661.224 396.216,-654.224"/>
</g>
<!-- Node31 -->
<g id="node78" class="node"><title>Node31</title>
<a xlink:href="namespaceServer.xhtml#a9b8efad79a32f2356d431788449e1f82" target="_top" xlink:title="Search all subfolders of CFG_DAT_DIR_WORLD and call Location::New() to load each file found to memory...">
<polygon fill="white" stroke="black" points="590.5,-647.724 590.5,-667.724 713.5,-667.724 713.5,-647.724 590.5,-647.724"/>
<text text-anchor="middle" x="652" y="-654.724" font-family="FreeSans.ttf" font-size="10.00">Server::LoadLocations</text>
</a>
</g>
<!-- Node30&#45;&gt;Node31 -->
<g id="edge94" class="edge"><title>Node30&#45;&gt;Node31</title>
<path fill="none" stroke="midnightblue" d="M540.05,-657.724C556.069,-657.724 573.856,-657.724 590.449,-657.724"/>
<polygon fill="midnightblue" stroke="midnightblue" points="539.808,-654.224 529.808,-657.724 539.808,-661.224 539.808,-654.224"/>
</g>
<!-- Node31&#45;&gt;Node21 -->
<g id="edge96" class="edge"><title>Node31&#45;&gt;Node21</title>
<path fill="none" stroke="midnightblue" d="M723.812,-656.548C818.579,-654.282 990.428,-647.703 1136,-628.724 1152.67,-626.55 1170.82,-623.134 1186.69,-619.794"/>
<polygon fill="midnightblue" stroke="midnightblue" points="723.681,-653.05 713.764,-656.779 723.842,-660.048 723.681,-653.05"/>
</g>
</g>
</svg>
        <g id="navigator" transform="translate(0 0)" fill="#404254">
                <rect fill="#f2f5e9" fill-opacity="0.5" stroke="#606060" stroke-width=".5" x="0" y="0" width="60" height="60"/>
                <use id="zoomplus" xlink:href="#zoomPlus" x="17" y="9" onmousedown="handleZoom(evt,'in')"/>
                <use id="zoomminus" xlink:href="#zoomMin" x="42" y="9" onmousedown="handleZoom(evt,'out')"/>
                <use id="reset" xlink:href="#resetDef" x="30" y="36" onmousedown="handleReset()"/>
                <g id="arrowUp" xlink:href="#dirArrow" transform="translate(30 24)" onmousedown="handlePan(0,-1)">
                  <use xlink:href="#rim" fill="#404040">
                        <set attributeName="fill" to="#808080" begin="arrowUp.mouseover" end="arrowUp.mouseout"/>
                  </use>
                  <path fill="none" stroke="white" stroke-width="1.5" d="M0,-3.0v7 M-2.5,-0.5L0,-3.0L2.5,-0.5"/>
                </g>
                <g id="arrowRight" xlink:href="#dirArrow" transform="rotate(90) translate(36 -43)" onmousedown="handlePan(1,0)">
                  <use xlink:href="#rim" fill="#404040">
                        <set attributeName="fill" to="#808080" begin="arrowRight.mouseover" end="arrowRight.mouseout"/>
                  </use>
                  <path fill="none" stroke="white" stroke-width="1.5" d="M0,-3.0v7 M-2.5,-0.5L0,-3.0L2.5,-0.5"/>
                </g>
                <g id="arrowDown" xlink:href="#dirArrow" transform="rotate(180) translate(-30 -48)" onmousedown="handlePan(0,1)">
                  <use xlink:href="#rim" fill="#404040">
                        <set attributeName="fill" to="#808080" begin="arrowDown.mouseover" end="arrowDown.mouseout"/>
                  </use>
                  <path fill="none" stroke="white" stroke-width="1.5" d="M0,-3.0v7 M-2.5,-0.5L0,-3.0L2.5,-0.5"/>
                </g>
                <g id="arrowLeft" xlink:href="#dirArrow" transform="rotate(270) translate(-36 17)" onmousedown="handlePan(-1,0)">
                  <use xlink:href="#rim" fill="#404040">
                        <set attributeName="fill" to="#808080" begin="arrowLeft.mouseover" end="arrowLeft.mouseout"/>
                  </use>
                  <path fill="none" stroke="white" stroke-width="1.5" d="M0,-3.0v7 M-2.5,-0.5L0,-3.0L2.5,-0.5"/>
                </g>
        </g>
        <svg viewBox="0 0 15 15" width="100%" height="30px" preserveAspectRatio="xMaxYMin meet">
         <g id="arrow_out" transform="scale(0.3 0.3)">
          <a xlink:href="namespaceUtils_a11bfe61c6e77603d59116397b1d3f580_icgraph_org.svg" target="_base">
           <rect id="button" ry="5" rx="5" y="6" x="6" height="38" width="38"
                fill="#f2f5e9" fill-opacity="0.5" stroke="#606060" stroke-width="1.0"/>
           <path id="arrow"
             d="M 11.500037,31.436501 C 11.940474,20.09759 22.043105,11.32322 32.158766,21.979434 L 37.068811,17.246167 C 37.068811,17.246167 37.088388,32 37.088388,32 L 22.160133,31.978069 C 22.160133,31.978069 26.997745,27.140456 26.997745,27.140456 C 18.528582,18.264221 13.291696,25.230495 11.500037,31.436501 z"
             style="fill:#404040;"/>
          </a>
         </g>
        </svg>
</svg>
