<?xml version="1.0" encoding="UTF-8" standalone="no"?>
<!DOCTYPE svg PUBLIC "-//W3C//DTD SVG 1.1//EN"
 "http://www.w3.org/Graphics/SVG/1.1/DTD/svg11.dtd">
<!-- Generated by graphviz version 2.26.3 (20100126.1600)
 -->
<!-- Title: G Pages: 1 -->
<!--zoomable 210 -->
<svg id="main" version="1.1" xmlns="http://www.w3.org/2000/svg" xmlns:xlink="http://www.w3.org/1999/xlink" xml:space="preserve" onload="init(evt)">
        <defs>
                <circle id="rim" cx="0" cy="0" r="7"/>
                <circle id="rim2" cx="0" cy="0" r="3.5"/>
                <g id="zoomPlus">
                        <use xlink:href="#rim" fill="#404040">
                                <set attributeName="fill" to="#808080" begin="zoomplus.mouseover" end="zoomplus.mouseout"/>
                        </use>
                        <path d="M-4,0h8M0,-4v8" fill="none" stroke="white" stroke-width="1.5" pointer-events="none"/>
                </g>
                <g id="zoomMin">
                        <use xlink:href="#rim" fill="#404040">
                                <set attributeName="fill" to="#808080" begin="zoomminus.mouseover" end="zoomminus.mouseout"/>
                        </use>
                        <path d="M-4,0h8" fill="none" stroke="white" stroke-width="1.5" pointer-events="none"/>
                </g>
                <g id="dirArrow">
                        <path fill="none" stroke="white" stroke-width="1.5" d="M0,-3.0v7 M-2.5,-0.5L0,-3.0L2.5,-0.5"/>
                </g>
               <g id="resetDef">
                       <use xlink:href="#rim2" fill="#404040">
                               <set attributeName="fill" to="#808080" begin="reset.mouseover" end="reset.mouseout"/>
                       </use>
               </g>
        </defs>

<script type="text/javascript">
var viewWidth = 1186;
var viewHeight = 210;
var sectionId = 'dynsection-15';
</script>
<script xlink:href="svgpan.js"/>
<svg id="graph" class="graph">
<g id="viewport">
<title>G</title>
<polygon fill="white" stroke="white" points="-4,5 -4,-206 1183,-206 1183,5 -4,5"/>
<!-- Node1 -->
<g id="node1" class="node"><title>Node1</title>
<polygon fill="#bfbfbf" stroke="black" points="0.5,-80.5 0.5,-101.5 137.5,-101.5 137.5,-80.5 0.5,-80.5"/>
<text text-anchor="middle" x="69" y="-88.5" font-family="FreeSans.ttf" font-size="10.00">Handler::GetOldPassword</text>
</g>
<!-- Node2 -->
<g id="node3" class="node"><title>Node2</title>
<a xlink:href="namespaceHandler.xhtml#af650e47f3d4baf393b54376d1eaa1fa9" target="_top" xlink:title="Handle SocketClient objects who have not fully logged into the game yet.">
<polygon fill="white" stroke="black" points="174.5,-80.5 174.5,-101.5 297.5,-101.5 297.5,-80.5 174.5,-80.5"/>
<text text-anchor="middle" x="236" y="-88.5" font-family="FreeSans.ttf" font-size="10.00">Handler::ProcessLogin</text>
</a>
</g>
<!-- Node1&#45;&gt;Node2 -->
<g id="edge2" class="edge"><title>Node1&#45;&gt;Node2</title>
<path fill="none" stroke="midnightblue" d="M147.913,-84.2591C156.836,-84.2238 165.83,-84.2915 174.484,-84.4624"/>
<polygon fill="midnightblue" stroke="midnightblue" points="147.86,-80.7593 137.889,-84.3427 147.918,-87.759 147.86,-80.7593"/>
</g>
<!-- Node2&#45;&gt;Node1 -->
<g id="edge34" class="edge"><title>Node2&#45;&gt;Node1</title>
<path fill="none" stroke="midnightblue" d="M164.305,-97.6897C155.545,-97.7797 146.607,-97.769 137.889,-97.6573"/>
<polygon fill="midnightblue" stroke="midnightblue" points="164.538,-101.187 174.484,-97.5376 164.433,-94.1875 164.538,-101.187"/>
</g>
<!-- Node3 -->
<g id="node5" class="node"><title>Node3</title>
<a xlink:href="namespaceHandler.xhtml#a142c6f0b9e36e54eba3d72f9db2dfe40" target="_top" xlink:title="Redirect to the appropriate subsystem based on socket state.">
<polygon fill="white" stroke="black" points="354.5,-160.5 354.5,-181.5 455.5,-181.5 455.5,-160.5 354.5,-160.5"/>
<text text-anchor="middle" x="405" y="-168.5" font-family="FreeSans.ttf" font-size="10.00">Handler::Interpret</text>
</a>
</g>
<!-- Node2&#45;&gt;Node3 -->
<g id="edge4" class="edge"><title>Node2&#45;&gt;Node3</title>
<path fill="none" stroke="midnightblue" d="M258.975,-107.584C278.231,-120.852 306.857,-139.139 334,-151 342.332,-154.641 351.503,-157.8 360.408,-160.466"/>
<polygon fill="midnightblue" stroke="midnightblue" points="260.773,-104.57 250.574,-101.703 256.759,-110.305 260.773,-104.57"/>
</g>
<!-- Node11 -->
<g id="node22" class="node"><title>Node11</title>
<a xlink:href="namespaceHandler.xhtml#a33a19d69ead678af81fbe96907eceaf0" target="_top" xlink:title="Create a new account object, or load an existing one, with a name and password.">
<polygon fill="white" stroke="black" points="339.5,-120.5 339.5,-141.5 470.5,-141.5 470.5,-120.5 339.5,-120.5"/>
<text text-anchor="middle" x="405" y="-128.5" font-family="FreeSans.ttf" font-size="10.00">Handler::AttachAccount</text>
</a>
</g>
<!-- Node2&#45;&gt;Node11 -->
<g id="edge22" class="edge"><title>Node2&#45;&gt;Node11</title>
<path fill="none" stroke="midnightblue" d="M307.89,-101.333C334.041,-107.241 361.84,-114.42 380.963,-120.424"/>
<polygon fill="midnightblue" stroke="midnightblue" points="308.49,-97.8808 297.97,-99.1353 306.976,-104.715 308.49,-97.8808"/>
</g>
<!-- Node12 -->
<g id="node25" class="node"><title>Node12</title>
<a xlink:href="namespaceHandler.xhtml#a00bc24564bfd267e0329643c569da1e4" target="_top" xlink:title="Select a new account name.">
<polygon fill="white" stroke="black" points="336.5,-80.5 336.5,-101.5 473.5,-101.5 473.5,-80.5 336.5,-80.5"/>
<text text-anchor="middle" x="405" y="-88.5" font-family="FreeSans.ttf" font-size="10.00">Handler::GetNewAccount</text>
</a>
</g>
<!-- Node2&#45;&gt;Node12 -->
<g id="edge26" class="edge"><title>Node2&#45;&gt;Node12</title>
<path fill="none" stroke="midnightblue" d="M308.082,-84.3152C317.498,-84.2157 327.125,-84.2301 336.48,-84.3585"/>
<polygon fill="midnightblue" stroke="midnightblue" points="307.916,-80.8172 297.97,-84.4679 308.021,-87.8164 307.916,-80.8172"/>
</g>
<!-- Node13 -->
<g id="node28" class="node"><title>Node13</title>
<a xlink:href="namespaceHandler.xhtml#a744adadcf407cdb3a9c33365afd5a7c2" target="_top" xlink:title="Create a new account.">
<polygon fill="white" stroke="black" points="334,-40.5 334,-61.5 476,-61.5 476,-40.5 334,-40.5"/>
<text text-anchor="middle" x="405" y="-48.5" font-family="FreeSans.ttf" font-size="10.00">Handler::GetNewPassword</text>
</a>
</g>
<!-- Node2&#45;&gt;Node13 -->
<g id="edge30" class="edge"><title>Node2&#45;&gt;Node13</title>
<path fill="none" stroke="midnightblue" d="M269.509,-77.5585C287.913,-72.1734 311.473,-66.2088 333.769,-61.184"/>
<polygon fill="midnightblue" stroke="midnightblue" points="268.412,-74.2335 259.855,-80.4809 270.44,-80.9333 268.412,-74.2335"/>
</g>
<!-- Node14 -->
<g id="node32" class="node"><title>Node14</title>
<a xlink:href="namespaceHandler.xhtml#a44b41bf69fdc6e615a029bea34910191" target="_top" xlink:title="Send initial greeting and request for account name.">
<polygon fill="white" stroke="black" points="345.5,-0.5 345.5,-21.5 464.5,-21.5 464.5,-0.5 345.5,-0.5"/>
<text text-anchor="middle" x="405" y="-8.5" font-family="FreeSans.ttf" font-size="10.00">Handler::LoginScreen</text>
</a>
</g>
<!-- Node2&#45;&gt;Node14 -->
<g id="edge36" class="edge"><title>Node2&#45;&gt;Node14</title>
<path fill="none" stroke="midnightblue" d="M251.237,-73.4601C269.917,-57.5746 302.929,-35.5773 334,-22 337.638,-20.4104 341.436,-18.9125 345.301,-17.5233"/>
<polygon fill="midnightblue" stroke="midnightblue" points="248.778,-70.9658 243.722,-80.2766 253.48,-76.1508 248.778,-70.9658"/>
</g>
<!-- Node4 -->
<g id="node7" class="node"><title>Node4</title>
<a xlink:href="classSocketClient.xhtml#a553658a2c076ea71ddcd1758fc64a925" target="_top" xlink:title="Build a SocketClient for a new client connection and set all attributes.">
<polygon fill="white" stroke="black" points="512.5,-179.5 512.5,-200.5 615.5,-200.5 615.5,-179.5 512.5,-179.5"/>
<text text-anchor="middle" x="564" y="-187.5" font-family="FreeSans.ttf" font-size="10.00">SocketClient::New</text>
</a>
</g>
<!-- Node3&#45;&gt;Node4 -->
<g id="edge6" class="edge"><title>Node3&#45;&gt;Node4</title>
<path fill="none" stroke="midnightblue" d="M465.691,-178.252C481.084,-180.092 497.475,-182.05 512.371,-183.831"/>
<polygon fill="midnightblue" stroke="midnightblue" points="466.09,-174.775 455.746,-177.064 465.26,-181.726 466.09,-174.775"/>
</g>
<!-- Node9 -->
<g id="node17" class="node"><title>Node9</title>
<a xlink:href="classSocketClient.xhtml#ad4f63c7d906310dc56a1217136047d7f" target="_top" xlink:title="Interpret the command at the front of the queue.">
<polygon fill="white" stroke="black" points="652,-140.5 652,-161.5 822,-161.5 822,-140.5 652,-140.5"/>
<text text-anchor="middle" x="737" y="-148.5" font-family="FreeSans.ttf" font-size="10.00">SocketClient::ProcessCommand</text>
</a>
</g>
<!-- Node3&#45;&gt;Node9 -->
<g id="edge16" class="edge"><title>Node3&#45;&gt;Node9</title>
<path fill="none" stroke="midnightblue" d="M465.88,-167.333C517.981,-164.194 593.556,-159.641 651.687,-156.139"/>
<polygon fill="midnightblue" stroke="midnightblue" points="465.556,-163.846 455.785,-167.941 465.977,-170.833 465.556,-163.846"/>
</g>
<!-- Node5 -->
<g id="node9" class="node"><title>Node5</title>
<a xlink:href="classSocketServer.xhtml#afdbc60c3bc840875d2214b59c6213f63" target="_top" xlink:title="Accept a new connection on the listening port.">
<polygon fill="white" stroke="black" points="677,-180.5 677,-201.5 797,-201.5 797,-180.5 677,-180.5"/>
<text text-anchor="middle" x="737" y="-188.5" font-family="FreeSans.ttf" font-size="10.00">SocketServer::Accept</text>
</a>
</g>
<!-- Node4&#45;&gt;Node5 -->
<g id="edge8" class="edge"><title>Node4&#45;&gt;Node5</title>
<path fill="none" stroke="midnightblue" d="M626.027,-190.359C642.594,-190.454 660.465,-190.558 676.924,-190.653"/>
<polygon fill="midnightblue" stroke="midnightblue" points="625.926,-186.858 615.906,-190.3 625.885,-193.858 625.926,-186.858"/>
</g>
<!-- Node6 -->
<g id="node11" class="node"><title>Node6</title>
<a xlink:href="classServer.xhtml#a39dbe16fdc8c5f6fbd678c6540fbcd6c" target="_top" xlink:title="Poll all SocketClient objects that are communicating with the associated SocketServer object...">
<polygon fill="white" stroke="black" points="861.5,-180.5 861.5,-201.5 970.5,-201.5 970.5,-180.5 861.5,-180.5"/>
<text text-anchor="middle" x="916" y="-188.5" font-family="FreeSans.ttf" font-size="10.00">Server::PollSockets</text>
</a>
</g>
<!-- Node5&#45;&gt;Node6 -->
<g id="edge10" class="edge"><title>Node5&#45;&gt;Node6</title>
<path fill="none" stroke="midnightblue" d="M807.268,-191C825.284,-191 844.391,-191 861.478,-191"/>
<polygon fill="midnightblue" stroke="midnightblue" points="807.102,-187.5 797.102,-191 807.102,-194.5 807.102,-187.5"/>
</g>
<!-- Node7 -->
<g id="node13" class="node"><title>Node7</title>
<a xlink:href="classServer.xhtml#a50b81aa91d8fdaee6f52c5c5ec987990" target="_top" xlink:title="The core update loop of NAMS. This loop spawns all other subsystem update routines and then sleeps fo...">
<polygon fill="white" stroke="black" points="1010.5,-160.5 1010.5,-181.5 1099.5,-181.5 1099.5,-160.5 1010.5,-160.5"/>
<text text-anchor="middle" x="1055" y="-168.5" font-family="FreeSans.ttf" font-size="10.00">Server::Update</text>
</a>
</g>
<!-- Node6&#45;&gt;Node7 -->
<g id="edge12" class="edge"><title>Node6&#45;&gt;Node7</title>
<path fill="none" stroke="midnightblue" d="M980.574,-181.709C990.688,-180.253 1000.94,-178.778 1010.47,-177.407"/>
<polygon fill="midnightblue" stroke="midnightblue" points="979.937,-178.264 970.538,-183.153 980.934,-185.193 979.937,-178.264"/>
</g>
<!-- Node8 -->
<g id="node15" class="node"><title>Node8</title>
<a xlink:href="main_8cpp.xhtml#ad53223b8779f25caeddb70a3b9172967" target="_top" xlink:title="The default function required to execute the server.">
<polygon fill="white" stroke="black" points="1136.5,-160.5 1136.5,-181.5 1177.5,-181.5 1177.5,-160.5 1136.5,-160.5"/>
<text text-anchor="middle" x="1157" y="-168.5" font-family="FreeSans.ttf" font-size="10.00">main</text>
</a>
</g>
<!-- Node7&#45;&gt;Node8 -->
<g id="edge14" class="edge"><title>Node7&#45;&gt;Node8</title>
<path fill="none" stroke="midnightblue" d="M1109.94,-171C1119.34,-171 1128.55,-171 1136.3,-171"/>
<polygon fill="midnightblue" stroke="midnightblue" points="1109.74,-167.5 1099.74,-171 1109.74,-174.5 1109.74,-167.5"/>
</g>
<!-- Node10 -->
<g id="node19" class="node"><title>Node10</title>
<a xlink:href="classServer.xhtml#a2b4cec469bb99c2a45e49de5ba74d1ae" target="_top" xlink:title="Processes input from all active SocketClient objects.">
<polygon fill="white" stroke="black" points="858,-140.5 858,-161.5 974,-161.5 974,-140.5 858,-140.5"/>
<text text-anchor="middle" x="916" y="-148.5" font-family="FreeSans.ttf" font-size="10.00">Server::ProcessInput</text>
</a>
</g>
<!-- Node9&#45;&gt;Node10 -->
<g id="edge18" class="edge"><title>Node9&#45;&gt;Node10</title>
<path fill="none" stroke="midnightblue" d="M832.249,-151C840.93,-151 849.54,-151 857.748,-151"/>
<polygon fill="midnightblue" stroke="midnightblue" points="832.044,-147.5 822.044,-151 832.044,-154.5 832.044,-147.5"/>
</g>
<!-- Node10&#45;&gt;Node7 -->
<g id="edge20" class="edge"><title>Node10&#45;&gt;Node7</title>
<path fill="none" stroke="midnightblue" d="M984.104,-160.799C992.964,-162.074 1001.86,-163.353 1010.2,-164.554"/>
<polygon fill="midnightblue" stroke="midnightblue" points="984.54,-157.326 974.143,-159.366 983.543,-164.255 984.54,-157.326"/>
</g>
<!-- Node11&#45;&gt;Node2 -->
<g id="edge24" class="edge"><title>Node11&#45;&gt;Node2</title>
<path fill="none" stroke="midnightblue" d="M329.416,-119.827C304.285,-114.068 278.089,-107.253 259.855,-101.519"/>
<polygon fill="midnightblue" stroke="midnightblue" points="328.823,-123.281 339.347,-122.059 330.359,-116.451 328.823,-123.281"/>
</g>
<!-- Node12&#45;&gt;Node2 -->
<g id="edge28" class="edge"><title>Node12&#45;&gt;Node2</title>
<path fill="none" stroke="midnightblue" d="M326.245,-97.7361C316.756,-97.782 307.171,-97.714 297.97,-97.5321"/>
<polygon fill="midnightblue" stroke="midnightblue" points="326.513,-101.234 336.48,-97.6415 326.448,-94.2342 326.513,-101.234"/>
</g>
<!-- Node13&#45;&gt;Node2 -->
<g id="edge32" class="edge"><title>Node13&#45;&gt;Node2</title>
<path fill="none" stroke="midnightblue" d="M371.251,-64.5117C350.302,-70.6321 322.742,-77.4912 297.97,-82.8647"/>
<polygon fill="midnightblue" stroke="midnightblue" points="372.403,-67.8199 380.963,-61.5762 370.378,-61.1193 372.403,-67.8199"/>
</g>
<!-- Node14&#45;&gt;Node2 -->
<g id="edge38" class="edge"><title>Node14&#45;&gt;Node2</title>
<path fill="none" stroke="midnightblue" d="M378.21,-24.7644C364.652,-29.0414 348.12,-33.8298 334,-40 307.859,-51.423 280.344,-68.806 261.146,-80.3576"/>
<polygon fill="midnightblue" stroke="midnightblue" points="379.5,-28.0248 387.908,-21.579 377.315,-21.3743 379.5,-28.0248"/>
</g>
</g>
</svg>
        <g id="navigator" transform="translate(0 0)" fill="#404254">
                <rect fill="#f2f5e9" fill-opacity="0.5" stroke="#606060" stroke-width=".5" x="0" y="0" width="60" height="60"/>
                <use id="zoomplus" xlink:href="#zoomPlus" x="17" y="9" onmousedown="handleZoom(evt,'in')"/>
                <use id="zoomminus" xlink:href="#zoomMin" x="42" y="9" onmousedown="handleZoom(evt,'out')"/>
                <use id="reset" xlink:href="#resetDef" x="30" y="36" onmousedown="handleReset()"/>
                <g id="arrowUp" xlink:href="#dirArrow" transform="translate(30 24)" onmousedown="handlePan(0,-1)">
                  <use xlink:href="#rim" fill="#404040">
                        <set attributeName="fill" to="#808080" begin="arrowUp.mouseover" end="arrowUp.mouseout"/>
                  </use>
                  <path fill="none" stroke="white" stroke-width="1.5" d="M0,-3.0v7 M-2.5,-0.5L0,-3.0L2.5,-0.5"/>
                </g>
                <g id="arrowRight" xlink:href="#dirArrow" transform="rotate(90) translate(36 -43)" onmousedown="handlePan(1,0)">
                  <use xlink:href="#rim" fill="#404040">
                        <set attributeName="fill" to="#808080" begin="arrowRight.mouseover" end="arrowRight.mouseout"/>
                  </use>
                  <path fill="none" stroke="white" stroke-width="1.5" d="M0,-3.0v7 M-2.5,-0.5L0,-3.0L2.5,-0.5"/>
                </g>
                <g id="arrowDown" xlink:href="#dirArrow" transform="rotate(180) translate(-30 -48)" onmousedown="handlePan(0,1)">
                  <use xlink:href="#rim" fill="#404040">
                        <set attributeName="fill" to="#808080" begin="arrowDown.mouseover" end="arrowDown.mouseout"/>
                  </use>
                  <path fill="none" stroke="white" stroke-width="1.5" d="M0,-3.0v7 M-2.5,-0.5L0,-3.0L2.5,-0.5"/>
                </g>
                <g id="arrowLeft" xlink:href="#dirArrow" transform="rotate(270) translate(-36 17)" onmousedown="handlePan(-1,0)">
                  <use xlink:href="#rim" fill="#404040">
                        <set attributeName="fill" to="#808080" begin="arrowLeft.mouseover" end="arrowLeft.mouseout"/>
                  </use>
                  <path fill="none" stroke="white" stroke-width="1.5" d="M0,-3.0v7 M-2.5,-0.5L0,-3.0L2.5,-0.5"/>
                </g>
        </g>
</svg>
