<?xml version="1.0" encoding="UTF-8" standalone="no"?>
<!DOCTYPE svg PUBLIC "-//W3C//DTD SVG 1.1//EN"
 "http://www.w3.org/Graphics/SVG/1.1/DTD/svg11.dtd">
<!-- Generated by graphviz version 2.26.3 (20100126.1600)
 -->
<!-- Title: Handler::CharacterDeleteMenuMain Pages: 1 -->
<svg width="1086pt" height="597pt"
 viewBox="0.00 0.00 1086.00 596.97" xmlns="http://www.w3.org/2000/svg" xmlns:xlink="http://www.w3.org/1999/xlink">
<g id="graph1" class="graph" transform="scale(1 1) rotate(0) translate(4 592.973)">
<title>Handler::CharacterDeleteMenuMain</title>
<polygon fill="white" stroke="white" points="-4,5 -4,-592.973 1083,-592.973 1083,5 -4,5"/>
<!-- Node1 -->
<g id="node1" class="node"><title>Node1</title>
<polygon fill="#bfbfbf" stroke="black" points="0.5,-294.973 0.5,-326.973 139.5,-326.973 139.5,-294.973 0.5,-294.973"/>
<text text-anchor="start" x="8.5" y="-313.973" font-family="FreeSans.ttf" font-size="10.00">Handler::CharacterDelete</text>
<text text-anchor="middle" x="70" y="-301.973" font-family="FreeSans.ttf" font-size="10.00">MenuMain</text>
</g>
<!-- Node2 -->
<g id="node3" class="node"><title>Node2</title>
<a xlink:href="namespaceHandler.xhtml#a139febc000c9d767a620708148e0c888" target="_top" xlink:title="Dispatches the appropriate menu based on client state.">
<polygon fill="white" stroke="black" points="176.5,-300.973 176.5,-320.973 299.5,-320.973 299.5,-300.973 176.5,-300.973"/>
<text text-anchor="middle" x="238" y="-307.973" font-family="FreeSans.ttf" font-size="10.00">Handler::LoginHandler</text>
</a>
</g>
<!-- Node1&#45;&gt;Node2 -->
<g id="edge2" class="edge"><title>Node1&#45;&gt;Node2</title>
<path fill="none" stroke="midnightblue" d="M149.841,-304.231C158.789,-304.199 167.8,-304.27 176.467,-304.443"/>
<polygon fill="midnightblue" stroke="midnightblue" points="149.76,-300.731 139.788,-304.31 149.815,-307.731 149.76,-300.731"/>
</g>
<!-- Node2&#45;&gt;Node1 -->
<g id="edge32" class="edge"><title>Node2&#45;&gt;Node1</title>
<path fill="none" stroke="midnightblue" d="M166.271,-317.659C157.495,-317.752 148.535,-317.744 139.788,-317.637"/>
<polygon fill="midnightblue" stroke="midnightblue" points="166.521,-321.156 176.467,-317.504 166.415,-314.156 166.521,-321.156"/>
</g>
<!-- Node3 -->
<g id="node5" class="node"><title>Node3</title>
<a xlink:href="namespaceHandler.xhtml#a33a19d69ead678af81fbe96907eceaf0" target="_top" xlink:title="Create a new account object, or load an existing one, with a name and password.">
<polygon fill="white" stroke="black" points="360.5,-568.973 360.5,-588.973 491.5,-588.973 491.5,-568.973 360.5,-568.973"/>
<text text-anchor="middle" x="426" y="-575.973" font-family="FreeSans.ttf" font-size="10.00">Handler::AttachAccount</text>
</a>
</g>
<!-- Node2&#45;&gt;Node3 -->
<g id="edge4" class="edge"><title>Node2&#45;&gt;Node3</title>
<path fill="none" stroke="midnightblue" d="M240.182,-331.052C245.994,-377.628 266.524,-492.223 336,-550.973 347.584,-560.769 362.965,-565.911 377.729,-568.964"/>
<polygon fill="midnightblue" stroke="midnightblue" points="243.644,-330.522 239.025,-320.987 236.69,-331.322 243.644,-330.522"/>
</g>
<!-- Node4 -->
<g id="node8" class="node"><title>Node4</title>
<a xlink:href="namespaceHandler.xhtml#a2e4ebf6ed049eb872aa4948d54c4932c" target="_top" xlink:title="Attempt to write a new character to disk after creation was completed.">
<polygon fill="white" stroke="black" points="356.5,-530.973 356.5,-550.973 495.5,-550.973 495.5,-530.973 356.5,-530.973"/>
<text text-anchor="middle" x="426" y="-537.973" font-family="FreeSans.ttf" font-size="10.00">Handler::AttachCharacter</text>
</a>
</g>
<!-- Node2&#45;&gt;Node4 -->
<g id="edge8" class="edge"><title>Node2&#45;&gt;Node4</title>
<path fill="none" stroke="midnightblue" d="M242.262,-331.219C251.152,-372.488 276.066,-465.293 336,-512.973 348.372,-522.816 364.635,-527.887 379.929,-530.926"/>
<polygon fill="midnightblue" stroke="midnightblue" points="245.652,-330.33 240.205,-321.242 238.796,-331.743 245.652,-330.33"/>
</g>
<!-- Node5 -->
<g id="node11" class="node"><title>Node5</title>
<a xlink:href="namespaceHandler.xhtml#a73ed6064f2698dbffb5f4c247a02b661" target="_top" xlink:title="Send initial account interface menu.">
<polygon fill="white" stroke="black" points="352,-492.973 352,-512.973 500,-512.973 500,-492.973 352,-492.973"/>
<text text-anchor="middle" x="426" y="-499.973" font-family="FreeSans.ttf" font-size="10.00">Handler::AccountMenuMain</text>
</a>
</g>
<!-- Node2&#45;&gt;Node5 -->
<g id="edge12" class="edge"><title>Node2&#45;&gt;Node5</title>
<path fill="none" stroke="midnightblue" d="M245.092,-330.826C257.108,-365.962 285.256,-437.841 336,-474.973 349.532,-484.875 367.104,-489.851 383.125,-492.897"/>
<polygon fill="midnightblue" stroke="midnightblue" points="248.359,-329.559 241.873,-321.181 241.719,-331.774 248.359,-329.559"/>
</g>
<!-- Node6 -->
<g id="node14" class="node"><title>Node6</title>
<a xlink:href="namespaceHandler.xhtml#ad04998a7a6ece2486bc441052a57c2d7" target="_top" xlink:title="Main Character creation menu.">
<polygon fill="white" stroke="black" points="356,-442.973 356,-474.973 496,-474.973 496,-442.973 356,-442.973"/>
<text text-anchor="start" x="364" y="-461.973" font-family="FreeSans.ttf" font-size="10.00">Handler::CharacterCreate</text>
<text text-anchor="middle" x="426" y="-449.973" font-family="FreeSans.ttf" font-size="10.00">MenuMain</text>
</a>
</g>
<!-- Node2&#45;&gt;Node6 -->
<g id="edge16" class="edge"><title>Node2&#45;&gt;Node6</title>
<path fill="none" stroke="midnightblue" d="M251.643,-329.82C268.019,-355.379 298.076,-399.882 336,-424.973 348.443,-433.205 363.566,-438.75 377.835,-442.892"/>
<polygon fill="midnightblue" stroke="midnightblue" points="254.563,-327.888 246.24,-321.331 248.657,-331.647 254.563,-327.888"/>
</g>
<!-- Node7 -->
<g id="node17" class="node"><title>Node7</title>
<a xlink:href="namespaceHandler.xhtml#ab5889a65de2794129b375ec39ae923ae" target="_top" xlink:title="Select a new Character name.">
<polygon fill="white" stroke="black" points="341.5,-404.973 341.5,-424.973 510.5,-424.973 510.5,-404.973 341.5,-404.973"/>
<text text-anchor="middle" x="426" y="-411.973" font-family="FreeSans.ttf" font-size="10.00">Handler::CharacterCreateName</text>
</a>
</g>
<!-- Node2&#45;&gt;Node7 -->
<g id="edge20" class="edge"><title>Node2&#45;&gt;Node7</title>
<path fill="none" stroke="midnightblue" d="M259.393,-328.144C277.776,-345.782 306,-372.062 336,-386.973 355.163,-396.498 378.923,-401.257 397.218,-404.921"/>
<polygon fill="midnightblue" stroke="midnightblue" points="261.775,-325.579 252.14,-321.172 256.924,-330.626 261.775,-325.579"/>
</g>
<!-- Node8 -->
<g id="node20" class="node"><title>Node8</title>
<a xlink:href="namespaceHandler.xhtml#ae5086bcf5857eb572beedd09158c3065" target="_top" xlink:title="Select a new Character sex.">
<polygon fill="white" stroke="black" points="347,-366.973 347,-386.973 505,-386.973 505,-366.973 347,-366.973"/>
<text text-anchor="middle" x="426" y="-373.973" font-family="FreeSans.ttf" font-size="10.00">Handler::CharacterCreateSex</text>
</a>
</g>
<!-- Node2&#45;&gt;Node8 -->
<g id="edge24" class="edge"><title>Node2&#45;&gt;Node8</title>
<path fill="none" stroke="midnightblue" d="M279.853,-325.412C296.887,-333.319 317.007,-342.518 336,-348.973 359.134,-356.836 386.763,-362.087 405.251,-366.961"/>
<polygon fill="midnightblue" stroke="midnightblue" points="281.278,-322.215 270.734,-321.178 278.33,-328.564 281.278,-322.215"/>
</g>
<!-- Node9 -->
<g id="node23" class="node"><title>Node9</title>
<a xlink:href="namespaceHandler.xhtml#a97a198bfc72285b2aca4f36978db715e" target="_top" xlink:title="Main Character deletion confirmation.">
<polygon fill="white" stroke="black" points="356.5,-316.973 356.5,-348.973 495.5,-348.973 495.5,-316.973 356.5,-316.973"/>
<text text-anchor="start" x="364.5" y="-335.973" font-family="FreeSans.ttf" font-size="10.00">Handler::CharacterDelete</text>
<text text-anchor="middle" x="426" y="-323.973" font-family="FreeSans.ttf" font-size="10.00">Confirm</text>
</a>
</g>
<!-- Node2&#45;&gt;Node9 -->
<g id="edge28" class="edge"><title>Node2&#45;&gt;Node9</title>
<path fill="none" stroke="midnightblue" d="M309.532,-312.769C324.926,-314.327 341.173,-316.239 356.488,-318.297"/>
<polygon fill="midnightblue" stroke="midnightblue" points="309.85,-309.283 299.558,-311.798 309.172,-316.25 309.85,-309.283"/>
</g>
<!-- Node10 -->
<g id="node27" class="node"><title>Node10</title>
<a xlink:href="namespaceHandler.xhtml#a02b1b954749641ab646f6548a5360d3b" target="_top" xlink:title="Main Character load menu.">
<polygon fill="white" stroke="black" points="336.5,-278.973 336.5,-298.973 515.5,-298.973 515.5,-278.973 336.5,-278.973"/>
<text text-anchor="middle" x="426" y="-285.973" font-family="FreeSans.ttf" font-size="10.00">Handler::CharacterLoadMenuMain</text>
</a>
</g>
<!-- Node2&#45;&gt;Node10 -->
<g id="edge34" class="edge"><title>Node2&#45;&gt;Node10</title>
<path fill="none" stroke="midnightblue" d="M286.282,-299.34C301.605,-296.989 319.07,-294.692 336.34,-292.722"/>
<polygon fill="midnightblue" stroke="midnightblue" points="285.369,-295.941 276.045,-300.973 286.471,-302.854 285.369,-295.941"/>
</g>
<!-- Node11 -->
<g id="node30" class="node"><title>Node11</title>
<a xlink:href="namespaceHandler.xhtml#a00bc24564bfd267e0329643c569da1e4" target="_top" xlink:title="Select a new account name.">
<polygon fill="white" stroke="black" points="357.5,-240.973 357.5,-260.973 494.5,-260.973 494.5,-240.973 357.5,-240.973"/>
<text text-anchor="middle" x="426" y="-247.973" font-family="FreeSans.ttf" font-size="10.00">Handler::GetNewAccount</text>
</a>
</g>
<!-- Node2&#45;&gt;Node11 -->
<g id="edge38" class="edge"><title>Node2&#45;&gt;Node11</title>
<path fill="none" stroke="midnightblue" d="M256.205,-295.44C275.598,-284.015 307.381,-269.894 336,-260.973 342.861,-258.835 350.09,-256.861 357.347,-255.109"/>
<polygon fill="midnightblue" stroke="midnightblue" points="254.076,-292.645 247.512,-300.962 257.83,-298.554 254.076,-292.645"/>
</g>
<!-- Node12 -->
<g id="node33" class="node"><title>Node12</title>
<a xlink:href="namespaceHandler.xhtml#a744adadcf407cdb3a9c33365afd5a7c2" target="_top" xlink:title="Create a new account.">
<polygon fill="white" stroke="black" points="355,-202.973 355,-222.973 497,-222.973 497,-202.973 355,-202.973"/>
<text text-anchor="middle" x="426" y="-209.973" font-family="FreeSans.ttf" font-size="10.00">Handler::GetNewPassword</text>
</a>
</g>
<!-- Node2&#45;&gt;Node12 -->
<g id="edge42" class="edge"><title>Node2&#45;&gt;Node12</title>
<path fill="none" stroke="midnightblue" d="M249.566,-292.592C266.688,-271.823 300.588,-239.786 336,-222.973 341.915,-220.165 348.243,-217.769 354.702,-215.762"/>
<polygon fill="midnightblue" stroke="midnightblue" points="246.63,-290.668 243.3,-300.726 252.176,-294.94 246.63,-290.668"/>
</g>
<!-- Node13 -->
<g id="node36" class="node"><title>Node13</title>
<a xlink:href="namespaceHandler.xhtml#adfe13cc9748392348f3941656a1323b6" target="_top" xlink:title="Compare a received password against an existing account.">
<polygon fill="white" stroke="black" points="357.5,-164.973 357.5,-184.973 494.5,-184.973 494.5,-164.973 357.5,-164.973"/>
<text text-anchor="middle" x="426" y="-171.973" font-family="FreeSans.ttf" font-size="10.00">Handler::GetOldPassword</text>
</a>
</g>
<!-- Node2&#45;&gt;Node13 -->
<g id="edge46" class="edge"><title>Node2&#45;&gt;Node13</title>
<path fill="none" stroke="midnightblue" d="M245.643,-291.366C259.867,-262.624 292.908,-210.851 336,-184.973 342.571,-181.027 349.843,-177.893 357.32,-175.464"/>
<polygon fill="midnightblue" stroke="midnightblue" points="242.291,-290.277 241.271,-300.823 248.644,-293.215 242.291,-290.277"/>
</g>
<!-- Node14 -->
<g id="node39" class="node"><title>Node14</title>
<a xlink:href="namespaceHandler.xhtml#ae70e4e50054c729c14493eafefe01b5c" target="_top" xlink:title="Load a character from the account to enter into the game with.">
<polygon fill="white" stroke="black" points="360.5,-126.973 360.5,-146.973 491.5,-146.973 491.5,-126.973 360.5,-126.973"/>
<text text-anchor="middle" x="426" y="-133.973" font-family="FreeSans.ttf" font-size="10.00">Handler::LoadCharacter</text>
</a>
</g>
<!-- Node2&#45;&gt;Node14 -->
<g id="edge50" class="edge"><title>Node2&#45;&gt;Node14</title>
<path fill="none" stroke="midnightblue" d="M242.915,-291.18C254.057,-255.678 284.357,-182.878 336,-146.973 343.343,-141.868 351.78,-138.088 360.481,-135.39"/>
<polygon fill="midnightblue" stroke="midnightblue" points="239.515,-290.338 240.07,-300.918 246.234,-292.301 239.515,-290.338"/>
</g>
<!-- Node15 -->
<g id="node42" class="node"><title>Node15</title>
<a xlink:href="namespaceHandler.xhtml#a44b41bf69fdc6e615a029bea34910191" target="_top" xlink:title="Send initial greeting and request for account name.">
<polygon fill="white" stroke="black" points="366.5,-88.9734 366.5,-108.973 485.5,-108.973 485.5,-88.9734 366.5,-88.9734"/>
<text text-anchor="middle" x="426" y="-95.9734" font-family="FreeSans.ttf" font-size="10.00">Handler::LoginScreen</text>
</a>
</g>
<!-- Node2&#45;&gt;Node15 -->
<g id="edge54" class="edge"><title>Node2&#45;&gt;Node15</title>
<path fill="none" stroke="midnightblue" d="M241.149,-290.696C249.463,-249.041 275.646,-155.285 336,-108.973 344.742,-102.265 355.31,-97.7932 366.084,-95.015"/>
<polygon fill="midnightblue" stroke="midnightblue" points="237.664,-290.295 239.3,-300.762 244.549,-291.559 237.664,-290.295"/>
</g>
<!-- Node16 -->
<g id="node45" class="node"><title>Node16</title>
<a xlink:href="classSocketClient.xhtml#a8399ef20292e9f3ec83b5c4bec2e105b" target="_top" xlink:title="Build a SocketClient for a new client connection and set all attributes.">
<polygon fill="white" stroke="black" points="374.5,-50.9734 374.5,-70.9734 477.5,-70.9734 477.5,-50.9734 374.5,-50.9734"/>
<text text-anchor="middle" x="426" y="-57.9734" font-family="FreeSans.ttf" font-size="10.00">SocketClient::New</text>
</a>
</g>
<!-- Node2&#45;&gt;Node16 -->
<g id="edge58" class="edge"><title>Node2&#45;&gt;Node16</title>
<path fill="none" stroke="midnightblue" d="M240.356,-290.63C246.748,-245.245 268.721,-135.367 336,-79.9734 346.726,-71.1424 360.556,-66.1194 374.141,-63.336"/>
<polygon fill="midnightblue" stroke="midnightblue" points="236.865,-290.34 239.049,-300.707 243.807,-291.24 236.865,-290.34"/>
</g>
<!-- Node23 -->
<g id="node60" class="node"><title>Node23</title>
<a xlink:href="classSocketClient.xhtml#ad4f63c7d906310dc56a1217136047d7f" target="_top" xlink:title="Interpret the command at the front of the queue.">
<polygon fill="white" stroke="black" points="552,-12.9734 552,-32.9734 722,-32.9734 722,-12.9734 552,-12.9734"/>
<text text-anchor="middle" x="637" y="-19.9734" font-family="FreeSans.ttf" font-size="10.00">SocketClient::ProcessCommand</text>
</a>
</g>
<!-- Node2&#45;&gt;Node23 -->
<g id="edge74" class="edge"><title>Node2&#45;&gt;Node23</title>
<path fill="none" stroke="midnightblue" d="M242.393,-290.684C255.211,-233.503 294.302,-73.1642 336,-41.9734 413.149,15.7354 534.893,0.30326 597.272,-12.9422"/>
<polygon fill="midnightblue" stroke="midnightblue" points="238.925,-290.157 240.187,-300.676 245.761,-291.666 238.925,-290.157"/>
</g>
<!-- Node3&#45;&gt;Node2 -->
<g id="edge6" class="edge"><title>Node3&#45;&gt;Node2</title>
<path fill="none" stroke="midnightblue" d="M351.071,-578.43C345.642,-575.924 340.531,-572.805 336,-568.973 256.362,-501.629 241.035,-360.908 238.469,-321.227"/>
<polygon fill="midnightblue" stroke="midnightblue" points="349.87,-581.719 360.458,-582.086 352.41,-575.196 349.87,-581.719"/>
</g>
<!-- Node4&#45;&gt;Node2 -->
<g id="edge10" class="edge"><title>Node4&#45;&gt;Node2</title>
<path fill="none" stroke="midnightblue" d="M346.892,-537.996C343.038,-535.987 339.374,-533.658 336,-530.973 265.83,-475.15 243.664,-357.47 239.014,-321.327"/>
<polygon fill="midnightblue" stroke="midnightblue" points="345.625,-541.263 356.186,-542.119 348.464,-534.864 345.625,-541.263"/>
</g>
<!-- Node5&#45;&gt;Node2 -->
<g id="edge14" class="edge"><title>Node5&#45;&gt;Node2</title>
<path fill="none" stroke="midnightblue" d="M342.526,-497.208C340.268,-495.909 338.086,-494.5 336,-492.973 274.993,-448.331 246.646,-353.463 239.727,-321.338"/>
<polygon fill="midnightblue" stroke="midnightblue" points="341.051,-500.383 351.566,-501.683 344.156,-494.11 341.051,-500.383"/>
</g>
<!-- Node6&#45;&gt;Node2 -->
<g id="edge18" class="edge"><title>Node6&#45;&gt;Node2</title>
<path fill="none" stroke="midnightblue" d="M346.493,-449.011C342.848,-447.185 339.328,-445.175 336,-442.973 287.498,-410.884 251.863,-347.043 241.261,-321.318"/>
<polygon fill="midnightblue" stroke="midnightblue" points="345.212,-452.273 355.768,-453.177 348.08,-445.887 345.212,-452.273"/>
</g>
<!-- Node7&#45;&gt;Node2 -->
<g id="edge22" class="edge"><title>Node7&#45;&gt;Node2</title>
<path fill="none" stroke="midnightblue" d="M332.276,-402.701C289.418,-378.803 255.097,-340.142 242.808,-321.085"/>
<polygon fill="midnightblue" stroke="midnightblue" points="330.771,-405.864 341.252,-407.418 334.028,-399.667 330.771,-405.864"/>
</g>
<!-- Node8&#45;&gt;Node2 -->
<g id="edge26" class="edge"><title>Node8&#45;&gt;Node2</title>
<path fill="none" stroke="midnightblue" d="M336.981,-367.304C336.653,-367.194 336.326,-367.084 336,-366.973 301.519,-355.254 263.328,-334.492 246.619,-321.126"/>
<polygon fill="midnightblue" stroke="midnightblue" points="336.103,-370.697 346.691,-370.337 338.189,-364.015 336.103,-370.697"/>
</g>
<!-- Node9&#45;&gt;Node2 -->
<g id="edge30" class="edge"><title>Node9&#45;&gt;Node2</title>
<path fill="none" stroke="midnightblue" d="M346.458,-330.344C322.054,-327.731 296.319,-324.343 276.045,-320.974"/>
<polygon fill="midnightblue" stroke="midnightblue" points="346.144,-333.83 356.451,-331.377 346.864,-326.867 346.144,-333.83"/>
</g>
<!-- Node10&#45;&gt;Node2 -->
<g id="edge36" class="edge"><title>Node10&#45;&gt;Node2</title>
<path fill="none" stroke="midnightblue" d="M378.02,-300.56C354.159,-304.229 325.045,-307.772 299.558,-310.149"/>
<polygon fill="midnightblue" stroke="midnightblue" points="378.576,-304.016 387.899,-298.983 377.472,-297.104 378.576,-304.016"/>
</g>
<!-- Node11&#45;&gt;Node2 -->
<g id="edge40" class="edge"><title>Node11&#45;&gt;Node2</title>
<path fill="none" stroke="midnightblue" d="M396.625,-263.541C378.862,-267.963 355.882,-272.776 336,-278.973 316.104,-285.175 294.678,-293.89 276.949,-300.917"/>
<polygon fill="midnightblue" stroke="midnightblue" points="397.631,-266.896 406.417,-260.976 395.857,-260.124 397.631,-266.896"/>
</g>
<!-- Node12&#45;&gt;Node2 -->
<g id="edge44" class="edge"><title>Node12&#45;&gt;Node2</title>
<path fill="none" stroke="midnightblue" d="M388.586,-225.075C371.903,-228.588 352.367,-233.203 336,-240.973 303.229,-256.532 271.752,-285.13 253.67,-300.862"/>
<polygon fill="midnightblue" stroke="midnightblue" points="389.468,-228.466 398.55,-223.011 388.048,-221.612 389.468,-228.466"/>
</g>
<!-- Node13&#45;&gt;Node2 -->
<g id="edge48" class="edge"><title>Node13&#45;&gt;Node2</title>
<path fill="none" stroke="midnightblue" d="M380.945,-187.009C365.855,-190.214 349.459,-194.891 336,-202.973 293.749,-228.346 261.161,-278.612 246.498,-300.753"/>
<polygon fill="midnightblue" stroke="midnightblue" points="381.998,-190.369 391.132,-185.002 380.644,-183.501 381.998,-190.369"/>
</g>
<!-- Node14&#45;&gt;Node2 -->
<g id="edge52" class="edge"><title>Node14&#45;&gt;Node2</title>
<path fill="none" stroke="midnightblue" d="M375.365,-149.083C361.685,-152.231 347.501,-156.978 336,-164.973 284.504,-200.776 254.23,-273.264 243.011,-300.673"/>
<polygon fill="midnightblue" stroke="midnightblue" points="376.108,-152.503 385.191,-147.049 374.69,-145.648 376.108,-152.503"/>
</g>
<!-- Node15&#45;&gt;Node2 -->
<g id="edge56" class="edge"><title>Node15&#45;&gt;Node2</title>
<path fill="none" stroke="midnightblue" d="M371.473,-111.207C358.878,-114.366 346.197,-119.149 336,-126.973 275.181,-173.642 249.061,-268.489 240.96,-300.541"/>
<polygon fill="midnightblue" stroke="midnightblue" points="372.496,-114.565 381.507,-108.994 370.988,-107.73 372.496,-114.565"/>
</g>
<!-- Node17 -->
<g id="node47" class="node"><title>Node17</title>
<a xlink:href="namespaceServer.xhtml#a16ea0639731dee10e1a253375b508a02" target="_top" xlink:title="Recovers the server state and re&#45;connects client sockets after a reboot.">
<polygon fill="white" stroke="black" points="572,-88.9734 572,-108.973 702,-108.973 702,-88.9734 572,-88.9734"/>
<text text-anchor="middle" x="637" y="-95.9734" font-family="FreeSans.ttf" font-size="10.00">Server::RebootRecovery</text>
</a>
</g>
<!-- Node16&#45;&gt;Node17 -->
<g id="edge60" class="edge"><title>Node16&#45;&gt;Node17</title>
<path fill="none" stroke="midnightblue" d="M487.808,-72.1046C517.328,-77.4211 552.393,-83.736 581.108,-88.9075"/>
<polygon fill="midnightblue" stroke="midnightblue" points="488.078,-68.5971 477.616,-70.2692 486.838,-75.4863 488.078,-68.5971"/>
</g>
<!-- Node20 -->
<g id="node53" class="node"><title>Node20</title>
<a xlink:href="classSocketServer.xhtml#afdbc60c3bc840875d2214b59c6213f63" target="_top" xlink:title="Accept a new connection on the listening port.">
<polygon fill="white" stroke="black" points="577,-50.9734 577,-70.9734 697,-70.9734 697,-50.9734 577,-50.9734"/>
<text text-anchor="middle" x="637" y="-57.9734" font-family="FreeSans.ttf" font-size="10.00">SocketServer::Accept</text>
</a>
</g>
<!-- Node16&#45;&gt;Node20 -->
<g id="edge66" class="edge"><title>Node16&#45;&gt;Node20</title>
<path fill="none" stroke="midnightblue" d="M487.731,-60.9734C515.855,-60.9734 549.024,-60.9734 576.944,-60.9734"/>
<polygon fill="midnightblue" stroke="midnightblue" points="487.616,-57.4735 477.616,-60.9734 487.616,-64.4735 487.616,-57.4735"/>
</g>
<!-- Node18 -->
<g id="node49" class="node"><title>Node18</title>
<a xlink:href="namespaceServer.xhtml#a19a1e493e1fb50a56d9c77332543d565" target="_top" xlink:title="Start the NAMS Server. Responsible for calling all critical boot&#45;time functions such as SocketServer ...">
<polygon fill="white" stroke="black" points="910,-88.9734 910,-108.973 1000,-108.973 1000,-88.9734 910,-88.9734"/>
<text text-anchor="middle" x="955" y="-95.9734" font-family="FreeSans.ttf" font-size="10.00">Server::Startup</text>
</a>
</g>
<!-- Node17&#45;&gt;Node18 -->
<g id="edge62" class="edge"><title>Node17&#45;&gt;Node18</title>
<path fill="none" stroke="midnightblue" d="M712.16,-98.9734C773.639,-98.9734 858.543,-98.9734 909.954,-98.9734"/>
<polygon fill="midnightblue" stroke="midnightblue" points="712.119,-95.4735 702.119,-98.9734 712.119,-102.473 712.119,-95.4735"/>
</g>
<!-- Node19 -->
<g id="node51" class="node"><title>Node19</title>
<a xlink:href="main_8cpp.xhtml#ad53223b8779f25caeddb70a3b9172967" target="_top" xlink:title="The default function required to execute the server.">
<polygon fill="white" stroke="black" points="1036.5,-69.9734 1036.5,-89.9734 1077.5,-89.9734 1077.5,-69.9734 1036.5,-69.9734"/>
<text text-anchor="middle" x="1057" y="-76.9734" font-family="FreeSans.ttf" font-size="10.00">main</text>
</a>
</g>
<!-- Node18&#45;&gt;Node19 -->
<g id="edge64" class="edge"><title>Node18&#45;&gt;Node19</title>
<path fill="none" stroke="midnightblue" d="M1009.9,-88.7461C1019.36,-86.9839 1028.64,-85.2553 1036.43,-83.8047"/>
<polygon fill="midnightblue" stroke="midnightblue" points="1009.23,-85.3122 1000.04,-90.5844 1010.51,-92.1939 1009.23,-85.3122"/>
</g>
<!-- Node21 -->
<g id="node55" class="node"><title>Node21</title>
<a xlink:href="namespaceServer.xhtml#a39dbe16fdc8c5f6fbd678c6540fbcd6c" target="_top" xlink:title="Poll all SocketClient objects that are communicating with the associated SocketServer object...">
<polygon fill="white" stroke="black" points="761.5,-50.9734 761.5,-70.9734 870.5,-70.9734 870.5,-50.9734 761.5,-50.9734"/>
<text text-anchor="middle" x="816" y="-57.9734" font-family="FreeSans.ttf" font-size="10.00">Server::PollSockets</text>
</a>
</g>
<!-- Node20&#45;&gt;Node21 -->
<g id="edge68" class="edge"><title>Node20&#45;&gt;Node21</title>
<path fill="none" stroke="midnightblue" d="M707.268,-60.9734C725.284,-60.9734 744.391,-60.9734 761.478,-60.9734"/>
<polygon fill="midnightblue" stroke="midnightblue" points="707.102,-57.4735 697.102,-60.9734 707.102,-64.4735 707.102,-57.4735"/>
</g>
<!-- Node22 -->
<g id="node57" class="node"><title>Node22</title>
<a xlink:href="namespaceServer.xhtml#a50b81aa91d8fdaee6f52c5c5ec987990" target="_top" xlink:title="The core update loop of NAMS. This loop spawns all other subsystem update routines and then sleeps fo...">
<polygon fill="white" stroke="black" points="910.5,-50.9734 910.5,-70.9734 999.5,-70.9734 999.5,-50.9734 910.5,-50.9734"/>
<text text-anchor="middle" x="955" y="-57.9734" font-family="FreeSans.ttf" font-size="10.00">Server::Update</text>
</a>
</g>
<!-- Node21&#45;&gt;Node22 -->
<g id="edge70" class="edge"><title>Node21&#45;&gt;Node22</title>
<path fill="none" stroke="midnightblue" d="M880.574,-60.9734C890.688,-60.9734 900.943,-60.9734 910.474,-60.9734"/>
<polygon fill="midnightblue" stroke="midnightblue" points="880.538,-57.4735 870.538,-60.9734 880.537,-64.4735 880.538,-57.4735"/>
</g>
<!-- Node22&#45;&gt;Node19 -->
<g id="edge72" class="edge"><title>Node22&#45;&gt;Node19</title>
<path fill="none" stroke="midnightblue" d="M1009.64,-71.1517C1019.14,-72.9209 1028.47,-74.6585 1036.3,-76.1175"/>
<polygon fill="midnightblue" stroke="midnightblue" points="1010.21,-67.6975 999.739,-69.307 1008.93,-74.5792 1010.21,-67.6975"/>
</g>
<!-- Node24 -->
<g id="node62" class="node"><title>Node24</title>
<a xlink:href="namespaceServer.xhtml#a2b4cec469bb99c2a45e49de5ba74d1ae" target="_top" xlink:title="Processes input from all active SocketClient objects.">
<polygon fill="white" stroke="black" points="758,-12.9734 758,-32.9734 874,-32.9734 874,-12.9734 758,-12.9734"/>
<text text-anchor="middle" x="816" y="-19.9734" font-family="FreeSans.ttf" font-size="10.00">Server::ProcessInput</text>
</a>
</g>
<!-- Node23&#45;&gt;Node24 -->
<g id="edge76" class="edge"><title>Node23&#45;&gt;Node24</title>
<path fill="none" stroke="midnightblue" d="M732.249,-22.9734C740.93,-22.9734 749.54,-22.9734 757.748,-22.9734"/>
<polygon fill="midnightblue" stroke="midnightblue" points="732.044,-19.4735 722.044,-22.9734 732.044,-26.4735 732.044,-19.4735"/>
</g>
<!-- Node24&#45;&gt;Node22 -->
<g id="edge78" class="edge"><title>Node24&#45;&gt;Node22</title>
<path fill="none" stroke="midnightblue" d="M862.619,-35.7181C880.633,-40.6427 900.955,-46.1985 917.943,-50.8427"/>
<polygon fill="midnightblue" stroke="midnightblue" points="863.454,-32.3179 852.885,-33.0569 861.608,-39.0701 863.454,-32.3179"/>
</g>
</g>
</svg>
