<?xml version="1.0" encoding="UTF-8" standalone="no"?>
<!DOCTYPE svg PUBLIC "-//W3C//DTD SVG 1.1//EN"
 "http://www.w3.org/Graphics/SVG/1.1/DTD/svg11.dtd">
<!-- Generated by graphviz version 2.26.3 (20100126.1600)
 -->
<!-- Title: G Pages: 1 -->
<!--zoomable 310 -->
<svg id="main" version="1.1" xmlns="http://www.w3.org/2000/svg" xmlns:xlink="http://www.w3.org/1999/xlink" xml:space="preserve" onload="init(evt)">
        <defs>
                <circle id="rim" cx="0" cy="0" r="7"/>
                <circle id="rim2" cx="0" cy="0" r="3.5"/>
                <g id="zoomPlus">
                        <use xlink:href="#rim" fill="#404040">
                                <set attributeName="fill" to="#808080" begin="zoomplus.mouseover" end="zoomplus.mouseout"/>
                        </use>
                        <path d="M-4,0h8M0,-4v8" fill="none" stroke="white" stroke-width="1.5" pointer-events="none"/>
                </g>
                <g id="zoomMin">
                        <use xlink:href="#rim" fill="#404040">
                                <set attributeName="fill" to="#808080" begin="zoomminus.mouseover" end="zoomminus.mouseout"/>
                        </use>
                        <path d="M-4,0h8" fill="none" stroke="white" stroke-width="1.5" pointer-events="none"/>
                </g>
                <g id="dirArrow">
                        <path fill="none" stroke="white" stroke-width="1.5" d="M0,-3.0v7 M-2.5,-0.5L0,-3.0L2.5,-0.5"/>
                </g>
               <g id="resetDef">
                       <use xlink:href="#rim2" fill="#404040">
                               <set attributeName="fill" to="#808080" begin="reset.mouseover" end="reset.mouseout"/>
                       </use>
               </g>
        </defs>

<script type="text/javascript">
var viewWidth = 806;
var viewHeight = 310;
var sectionId = 'dynsection-2';
</script>
<script xlink:href="svgpan.js"/>
<svg id="graph" class="graph">
<g id="viewport">
<title>G</title>
<polygon fill="white" stroke="white" points="-4,5 -4,-306 803,-306 803,5 -4,5"/>
<!-- Node1 -->
<g id="node1" class="node"><title>Node1</title>
<polygon fill="#bfbfbf" stroke="black" points="0.5,-160.5 0.5,-181.5 131.5,-181.5 131.5,-160.5 0.5,-160.5"/>
<text text-anchor="middle" x="66" y="-168.5" font-family="FreeSans.ttf" font-size="10.00">Telopt::InitialNegotiation</text>
</g>
<!-- Node2 -->
<g id="node3" class="node"><title>Node2</title>
<a xlink:href="namespaceTelopt.xhtml#a71c731d78947d4c909f93df74950b64c" target="_top" xlink:title="Negotiate requested options.">
<polygon fill="white" stroke="black" points="168,-200.5 168,-221.5 266,-221.5 266,-200.5 168,-200.5"/>
<text text-anchor="middle" x="217" y="-208.5" font-family="FreeSans.ttf" font-size="10.00">Telopt::Negotiate</text>
</a>
</g>
<!-- Node1&#45;&gt;Node2 -->
<g id="edge2" class="edge"><title>Node1&#45;&gt;Node2</title>
<path fill="none" stroke="midnightblue" d="M105.673,-181.51C124.585,-186.519 147.402,-192.563 167.442,-197.872"/>
<polygon fill="midnightblue" stroke="midnightblue" points="166.767,-201.314 177.33,-200.491 168.559,-194.547 166.767,-201.314"/>
</g>
<!-- Node7 -->
<g id="node13" class="node"><title>Node7</title>
<a xlink:href="classSocketClient.xhtml#a6268f3d184970ec0076da657c39d2e80" target="_top" xlink:title="Process data from the client&#39;s send buffer and transmit it via the socket.">
<polygon fill="white" stroke="black" points="526.5,-140.5 526.5,-161.5 633.5,-161.5 633.5,-140.5 526.5,-140.5"/>
<text text-anchor="middle" x="580" y="-148.5" font-family="FreeSans.ttf" font-size="10.00">SocketClient::Send</text>
</a>
</g>
<!-- Node1&#45;&gt;Node7 -->
<g id="edge30" class="edge"><title>Node1&#45;&gt;Node7</title>
<path fill="none" stroke="midnightblue" d="M131.522,-163.951C178.83,-159.227 244.279,-153.441 302,-151 375.427,-147.894 459.861,-148.483 516.228,-149.47"/>
<polygon fill="midnightblue" stroke="midnightblue" points="516.355,-152.973 526.418,-149.658 516.484,-145.974 516.355,-152.973"/>
</g>
<!-- Node3 -->
<g id="node5" class="node"><title>Node3</title>
<a xlink:href="classSocketClient.xhtml#aaad671b55573cb36a5d0bcc1e4a518fb" target="_top" xlink:title="Returns a pointer to the terminal information of the SocketClient.">
<polygon fill="white" stroke="black" points="331.5,-280.5 331.5,-301.5 460.5,-301.5 460.5,-280.5 331.5,-280.5"/>
<text text-anchor="middle" x="396" y="-288.5" font-family="FreeSans.ttf" font-size="10.00">SocketClient::gTermInfo</text>
</a>
</g>
<!-- Node2&#45;&gt;Node3 -->
<g id="edge4" class="edge"><title>Node2&#45;&gt;Node3</title>
<path fill="none" stroke="midnightblue" d="M228.712,-221.649C244.283,-235.216 273.202,-258.41 302,-271 308.163,-273.694 314.716,-276.036 321.383,-278.069"/>
<polygon fill="midnightblue" stroke="midnightblue" points="320.626,-281.492 331.201,-280.833 322.523,-274.754 320.626,-281.492"/>
</g>
<!-- Node4 -->
<g id="node7" class="node"><title>Node4</title>
<a xlink:href="classSocketClient_1_1TermInfo.xhtml#a58debeabe9fe825bc7abbac06df5b216" target="_top" xlink:title="Returns if a telopt has been previously negotiated.">
<polygon fill="white" stroke="black" points="302,-240.5 302,-261.5 490,-261.5 490,-240.5 302,-240.5"/>
<text text-anchor="middle" x="396" y="-248.5" font-family="FreeSans.ttf" font-size="10.00">SocketClient::TermInfo::gNegotiated</text>
</a>
</g>
<!-- Node2&#45;&gt;Node4 -->
<g id="edge6" class="edge"><title>Node2&#45;&gt;Node4</title>
<path fill="none" stroke="midnightblue" d="M261.075,-221.56C274.228,-224.66 288.686,-228.018 302,-231 312.72,-233.401 324.144,-235.891 335.201,-238.263"/>
<polygon fill="midnightblue" stroke="midnightblue" points="334.71,-241.738 345.221,-240.404 336.173,-234.892 334.71,-241.738"/>
</g>
<!-- Node5 -->
<g id="node9" class="node"><title>Node5</title>
<a xlink:href="classSocketClient_1_1TermInfo.xhtml#aa576f2ec6f9de8d4160ccee6cbd1dc34" target="_top" xlink:title="Sets if a telopt has been previously negotiated.">
<polygon fill="white" stroke="black" points="302,-200.5 302,-221.5 490,-221.5 490,-200.5 302,-200.5"/>
<text text-anchor="middle" x="396" y="-208.5" font-family="FreeSans.ttf" font-size="10.00">SocketClient::TermInfo::sNegotiated</text>
</a>
</g>
<!-- Node2&#45;&gt;Node5 -->
<g id="edge8" class="edge"><title>Node2&#45;&gt;Node5</title>
<path fill="none" stroke="midnightblue" d="M266.386,-211C274.345,-211 282.837,-211 291.522,-211"/>
<polygon fill="midnightblue" stroke="midnightblue" points="291.787,-214.5 301.787,-211 291.787,-207.5 291.787,-214.5"/>
</g>
<!-- Node6 -->
<g id="node11" class="node"><title>Node6</title>
<a xlink:href="namespaceTelopt.xhtml#a4f56b29258351832660a550c61bda34f" target="_top" xlink:title="Sends a formatted telnet negotiation command to the client.">
<polygon fill="white" stroke="black" points="358.5,-160.5 358.5,-181.5 433.5,-181.5 433.5,-160.5 358.5,-160.5"/>
<text text-anchor="middle" x="396" y="-168.5" font-family="FreeSans.ttf" font-size="10.00">Telopt::Send</text>
</a>
</g>
<!-- Node2&#45;&gt;Node6 -->
<g id="edge10" class="edge"><title>Node2&#45;&gt;Node6</title>
<path fill="none" stroke="midnightblue" d="M261.075,-200.44C274.228,-197.34 288.686,-193.982 302,-191 317.081,-187.622 333.554,-184.07 348.438,-180.913"/>
<polygon fill="midnightblue" stroke="midnightblue" points="349.392,-184.288 358.452,-178.796 347.944,-177.44 349.392,-184.288"/>
</g>
<!-- Node6&#45;&gt;Node7 -->
<g id="edge12" class="edge"><title>Node6&#45;&gt;Node7</title>
<path fill="none" stroke="midnightblue" d="M433.679,-166.904C457.464,-164.319 488.795,-160.914 516.361,-157.917"/>
<polygon fill="midnightblue" stroke="midnightblue" points="516.762,-161.394 526.326,-156.834 516.006,-154.435 516.762,-161.394"/>
</g>
<!-- Node8 -->
<g id="node15" class="node"><title>Node8</title>
<a xlink:href="classSocket.xhtml#a508457b48e6296d1e86c7cc72af65948" target="_top" xlink:title="Return if the Socket is valid for use.">
<polygon fill="white" stroke="black" points="695,-280.5 695,-301.5 773,-301.5 773,-280.5 695,-280.5"/>
<text text-anchor="middle" x="734" y="-288.5" font-family="FreeSans.ttf" font-size="10.00">Socket::Valid</text>
</a>
</g>
<!-- Node7&#45;&gt;Node8 -->
<g id="edge14" class="edge"><title>Node7&#45;&gt;Node8</title>
<path fill="none" stroke="midnightblue" d="M585.104,-161.751C596.768,-185.172 627.675,-241.097 670,-271 674.751,-274.357 680.085,-277.165 685.595,-279.511"/>
<polygon fill="midnightblue" stroke="midnightblue" points="684.368,-282.789 694.959,-283.038 686.835,-276.238 684.368,-282.789"/>
</g>
<!-- Node9 -->
<g id="node17" class="node"><title>Node9</title>
<a xlink:href="classSocket.xhtml#a45d3aa99d71b868921543a4708471f82" target="_top" xlink:title="Returns the file descriptor associated to the Socket.">
<polygon fill="white" stroke="black" points="678.5,-240.5 678.5,-261.5 789.5,-261.5 789.5,-240.5 678.5,-240.5"/>
<text text-anchor="middle" x="734" y="-248.5" font-family="FreeSans.ttf" font-size="10.00">Socket::gDescriptor</text>
</a>
</g>
<!-- Node7&#45;&gt;Node9 -->
<g id="edge16" class="edge"><title>Node7&#45;&gt;Node9</title>
<path fill="none" stroke="midnightblue" d="M589.16,-161.654C604.327,-178.66 636.337,-211.959 670,-231 673.705,-233.095 677.657,-235 681.71,-236.726"/>
<polygon fill="midnightblue" stroke="midnightblue" points="680.692,-240.086 691.281,-240.434 683.221,-233.558 680.692,-240.086"/>
</g>
<!-- Node10 -->
<g id="node19" class="node"><title>Node10</title>
<a xlink:href="classSocketClient.xhtml#aa0badca8f614127e98281995c02cb385" target="_top" xlink:title="Returns the connection state of the client from SOC_STATE.">
<polygon fill="white" stroke="black" points="676.5,-200.5 676.5,-221.5 791.5,-221.5 791.5,-200.5 676.5,-200.5"/>
<text text-anchor="middle" x="734" y="-208.5" font-family="FreeSans.ttf" font-size="10.00">SocketClient::gState</text>
</a>
</g>
<!-- Node7&#45;&gt;Node10 -->
<g id="edge18" class="edge"><title>Node7&#45;&gt;Node10</title>
<path fill="none" stroke="midnightblue" d="M601.896,-161.584C619.94,-170.098 646.321,-182.072 670,-191 675.652,-193.131 681.643,-195.22 687.602,-197.196"/>
<polygon fill="midnightblue" stroke="midnightblue" points="686.944,-200.662 697.536,-200.403 689.095,-194 686.944,-200.662"/>
</g>
<!-- Node11 -->
<g id="node21" class="node"><title>Node11</title>
<a xlink:href="classSocketClient.xhtml#a56e10cbe469179d7d7bc18eae6ca351c" target="_top" xlink:title="Returns the Account object associated to this SocketClient.">
<polygon fill="white" stroke="black" points="670,-160.5 670,-181.5 798,-181.5 798,-160.5 670,-160.5"/>
<text text-anchor="middle" x="734" y="-168.5" font-family="FreeSans.ttf" font-size="10.00">SocketClient::gAccount</text>
</a>
</g>
<!-- Node7&#45;&gt;Node11 -->
<g id="edge20" class="edge"><title>Node7&#45;&gt;Node11</title>
<path fill="none" stroke="midnightblue" d="M633.862,-157.995C642.216,-159.08 650.97,-160.217 659.679,-161.348"/>
<polygon fill="midnightblue" stroke="midnightblue" points="659.486,-164.852 669.854,-162.669 660.388,-157.911 659.486,-164.852"/>
</g>
<!-- Node12 -->
<g id="node23" class="node"><title>Node12</title>
<a xlink:href="classSocket.xhtml#adc72a37934a4f2d10f6ae8fc94bb4ca7" target="_top" xlink:title="Returns the hostname associated to the Socket.">
<polygon fill="white" stroke="black" points="678,-120.5 678,-141.5 790,-141.5 790,-120.5 678,-120.5"/>
<text text-anchor="middle" x="734" y="-128.5" font-family="FreeSans.ttf" font-size="10.00">Socket::gHostname</text>
</a>
</g>
<!-- Node7&#45;&gt;Node12 -->
<g id="edge22" class="edge"><title>Node7&#45;&gt;Node12</title>
<path fill="none" stroke="midnightblue" d="M633.862,-144.005C644.753,-142.591 656.324,-141.088 667.588,-139.625"/>
<polygon fill="midnightblue" stroke="midnightblue" points="668.351,-143.055 677.817,-138.297 667.449,-136.114 668.351,-143.055"/>
</g>
<!-- Node13 -->
<g id="node25" class="node"><title>Node13</title>
<a xlink:href="classSocket.xhtml#a7d51c27fcddb7bddf1a3beb0be3c5abe" target="_top" xlink:title="Returns the Server object associated to this SocketServer.">
<polygon fill="white" stroke="black" points="687.5,-80.5 687.5,-101.5 780.5,-101.5 780.5,-80.5 687.5,-80.5"/>
<text text-anchor="middle" x="734" y="-88.5" font-family="FreeSans.ttf" font-size="10.00">Socket::gServer</text>
</a>
</g>
<!-- Node7&#45;&gt;Node13 -->
<g id="edge24" class="edge"><title>Node7&#45;&gt;Node13</title>
<path fill="none" stroke="midnightblue" d="M601.896,-140.416C619.94,-131.902 646.321,-119.928 670,-111 675.652,-108.869 681.643,-106.78 687.602,-104.804"/>
<polygon fill="midnightblue" stroke="midnightblue" points="689.095,-108 697.536,-101.597 686.944,-101.338 689.095,-108"/>
</g>
<!-- Node14 -->
<g id="node27" class="node"><title>Node14</title>
<a xlink:href="classSocket.xhtml#a688f0d2182f7ca098de3f76156efad0a" target="_top" xlink:title="Increment the total count of bytes sent by the socket.">
<polygon fill="white" stroke="black" points="678.5,-40.5 678.5,-61.5 789.5,-61.5 789.5,-40.5 678.5,-40.5"/>
<text text-anchor="middle" x="734" y="-48.5" font-family="FreeSans.ttf" font-size="10.00">Socket::aBytesSent</text>
</a>
</g>
<!-- Node7&#45;&gt;Node14 -->
<g id="edge26" class="edge"><title>Node7&#45;&gt;Node14</title>
<path fill="none" stroke="midnightblue" d="M589.16,-140.346C604.327,-123.34 636.337,-90.041 670,-71 673.705,-68.9045 677.657,-66.9997 681.71,-65.2737"/>
<polygon fill="midnightblue" stroke="midnightblue" points="683.221,-68.4417 691.281,-61.5655 680.692,-61.9144 683.221,-68.4417"/>
</g>
<!-- Node15 -->
<g id="node29" class="node"><title>Node15</title>
<a xlink:href="classSocket.xhtml#a3bb9f40d6e5f32cfa960a86323322c0c" target="_top" xlink:title="Returns the number of bytes sent by the Socket.">
<polygon fill="white" stroke="black" points="678.5,-0.5 678.5,-21.5 789.5,-21.5 789.5,-0.5 678.5,-0.5"/>
<text text-anchor="middle" x="734" y="-8.5" font-family="FreeSans.ttf" font-size="10.00">Socket::gBytesSent</text>
</a>
</g>
<!-- Node7&#45;&gt;Node15 -->
<g id="edge28" class="edge"><title>Node7&#45;&gt;Node15</title>
<path fill="none" stroke="midnightblue" d="M585.104,-140.249C596.768,-116.828 627.675,-60.9035 670,-31 672.71,-29.0856 675.609,-27.3496 678.623,-25.7759"/>
<polygon fill="midnightblue" stroke="midnightblue" points="680.287,-28.8637 687.93,-21.5261 677.379,-22.4961 680.287,-28.8637"/>
</g>
</g>
</svg>
        <g id="navigator" transform="translate(0 0)" fill="#404254">
                <rect fill="#f2f5e9" fill-opacity="0.5" stroke="#606060" stroke-width=".5" x="0" y="0" width="60" height="60"/>
                <use id="zoomplus" xlink:href="#zoomPlus" x="17" y="9" onmousedown="handleZoom(evt,'in')"/>
                <use id="zoomminus" xlink:href="#zoomMin" x="42" y="9" onmousedown="handleZoom(evt,'out')"/>
                <use id="reset" xlink:href="#resetDef" x="30" y="36" onmousedown="handleReset()"/>
                <g id="arrowUp" xlink:href="#dirArrow" transform="translate(30 24)" onmousedown="handlePan(0,-1)">
                  <use xlink:href="#rim" fill="#404040">
                        <set attributeName="fill" to="#808080" begin="arrowUp.mouseover" end="arrowUp.mouseout"/>
                  </use>
                  <path fill="none" stroke="white" stroke-width="1.5" d="M0,-3.0v7 M-2.5,-0.5L0,-3.0L2.5,-0.5"/>
                </g>
                <g id="arrowRight" xlink:href="#dirArrow" transform="rotate(90) translate(36 -43)" onmousedown="handlePan(1,0)">
                  <use xlink:href="#rim" fill="#404040">
                        <set attributeName="fill" to="#808080" begin="arrowRight.mouseover" end="arrowRight.mouseout"/>
                  </use>
                  <path fill="none" stroke="white" stroke-width="1.5" d="M0,-3.0v7 M-2.5,-0.5L0,-3.0L2.5,-0.5"/>
                </g>
                <g id="arrowDown" xlink:href="#dirArrow" transform="rotate(180) translate(-30 -48)" onmousedown="handlePan(0,1)">
                  <use xlink:href="#rim" fill="#404040">
                        <set attributeName="fill" to="#808080" begin="arrowDown.mouseover" end="arrowDown.mouseout"/>
                  </use>
                  <path fill="none" stroke="white" stroke-width="1.5" d="M0,-3.0v7 M-2.5,-0.5L0,-3.0L2.5,-0.5"/>
                </g>
                <g id="arrowLeft" xlink:href="#dirArrow" transform="rotate(270) translate(-36 17)" onmousedown="handlePan(-1,0)">
                  <use xlink:href="#rim" fill="#404040">
                        <set attributeName="fill" to="#808080" begin="arrowLeft.mouseover" end="arrowLeft.mouseout"/>
                  </use>
                  <path fill="none" stroke="white" stroke-width="1.5" d="M0,-3.0v7 M-2.5,-0.5L0,-3.0L2.5,-0.5"/>
                </g>
        </g>
</svg>
