<?xml version="1.0" encoding="UTF-8" standalone="no"?>
<!DOCTYPE svg PUBLIC "-//W3C//DTD SVG 1.1//EN"
 "http://www.w3.org/Graphics/SVG/1.1/DTD/svg11.dtd">
<!-- Generated by graphviz version 2.26.3 (20100126.1600)
 -->
<!-- Title: Handler::AttachAccount Pages: 1 -->
<svg width="1078pt" height="609pt"
 viewBox="0.00 0.00 1078.00 608.97" xmlns="http://www.w3.org/2000/svg" xmlns:xlink="http://www.w3.org/1999/xlink">
<g id="graph1" class="graph" transform="scale(1 1) rotate(0) translate(4 604.973)">
<title>Handler::AttachAccount</title>
<polygon fill="white" stroke="white" points="-4,5 -4,-604.973 1075,-604.973 1075,5 -4,5"/>
<!-- Node1 -->
<g id="node1" class="node"><title>Node1</title>
<polygon fill="#bfbfbf" stroke="black" points="0.5,-300.973 0.5,-320.973 131.5,-320.973 131.5,-300.973 0.5,-300.973"/>
<text text-anchor="middle" x="66" y="-307.973" font-family="FreeSans.ttf" font-size="10.00">Handler::AttachAccount</text>
</g>
<!-- Node2 -->
<g id="node3" class="node"><title>Node2</title>
<a xlink:href="namespaceHandler.xhtml#a139febc000c9d767a620708148e0c888" target="_top" xlink:title="Dispatches the appropriate menu based on client state.">
<polygon fill="white" stroke="black" points="168.5,-300.973 168.5,-320.973 291.5,-320.973 291.5,-300.973 168.5,-300.973"/>
<text text-anchor="middle" x="230" y="-307.973" font-family="FreeSans.ttf" font-size="10.00">Handler::LoginHandler</text>
</a>
</g>
<!-- Node1&#45;&gt;Node2 -->
<g id="edge2" class="edge"><title>Node1&#45;&gt;Node2</title>
<path fill="none" stroke="midnightblue" d="M141.79,-304.241C150.73,-304.191 159.77,-304.249 168.48,-304.414"/>
<polygon fill="midnightblue" stroke="midnightblue" points="141.724,-300.741 131.76,-304.342 141.795,-307.741 141.724,-300.741"/>
</g>
<!-- Node2&#45;&gt;Node1 -->
<g id="edge4" class="edge"><title>Node2&#45;&gt;Node1</title>
<path fill="none" stroke="midnightblue" d="M158.242,-317.676C149.436,-317.758 140.471,-317.734 131.76,-317.604"/>
<polygon fill="midnightblue" stroke="midnightblue" points="158.531,-321.173 168.48,-317.533 158.432,-314.173 158.531,-321.173"/>
</g>
<!-- Node3 -->
<g id="node6" class="node"><title>Node3</title>
<a xlink:href="namespaceHandler.xhtml#a2e4ebf6ed049eb872aa4948d54c4932c" target="_top" xlink:title="Attempt to write a new character to disk after creation was completed.">
<polygon fill="white" stroke="black" points="348.5,-580.973 348.5,-600.973 487.5,-600.973 487.5,-580.973 348.5,-580.973"/>
<text text-anchor="middle" x="418" y="-587.973" font-family="FreeSans.ttf" font-size="10.00">Handler::AttachCharacter</text>
</a>
</g>
<!-- Node2&#45;&gt;Node3 -->
<g id="edge6" class="edge"><title>Node2&#45;&gt;Node3</title>
<path fill="none" stroke="midnightblue" d="M231.678,-331.231C236.594,-379.537 255.609,-500.772 328,-562.973 339.264,-572.652 354.222,-577.806 368.703,-580.877"/>
<polygon fill="midnightblue" stroke="midnightblue" points="235.147,-330.726 230.747,-321.088 228.176,-331.366 235.147,-330.726"/>
</g>
<!-- Node4 -->
<g id="node9" class="node"><title>Node4</title>
<a xlink:href="namespaceHandler.xhtml#a73ed6064f2698dbffb5f4c247a02b661" target="_top" xlink:title="Send initial account interface menu.">
<polygon fill="white" stroke="black" points="344,-542.973 344,-562.973 492,-562.973 492,-542.973 344,-542.973"/>
<text text-anchor="middle" x="418" y="-549.973" font-family="FreeSans.ttf" font-size="10.00">Handler::AccountMenuMain</text>
</a>
</g>
<!-- Node2&#45;&gt;Node4 -->
<g id="edge10" class="edge"><title>Node2&#45;&gt;Node4</title>
<path fill="none" stroke="midnightblue" d="M233.516,-331.11C241.405,-374.083 265.035,-473.806 328,-524.973 340.021,-534.742 355.854,-539.836 370.884,-542.885"/>
<polygon fill="midnightblue" stroke="midnightblue" points="236.923,-330.276 231.761,-321.024 230.027,-331.476 236.923,-330.276"/>
</g>
<!-- Node5 -->
<g id="node12" class="node"><title>Node5</title>
<a xlink:href="namespaceHandler.xhtml#ad04998a7a6ece2486bc441052a57c2d7" target="_top" xlink:title="Main Character creation menu.">
<polygon fill="white" stroke="black" points="348,-492.973 348,-524.973 488,-524.973 488,-492.973 348,-492.973"/>
<text text-anchor="start" x="356" y="-511.973" font-family="FreeSans.ttf" font-size="10.00">Handler::CharacterCreate</text>
<text text-anchor="middle" x="418" y="-499.973" font-family="FreeSans.ttf" font-size="10.00">MenuMain</text>
</a>
</g>
<!-- Node2&#45;&gt;Node5 -->
<g id="edge14" class="edge"><title>Node2&#45;&gt;Node5</title>
<path fill="none" stroke="midnightblue" d="M237.576,-330.952C250.082,-365.76 278.696,-436.457 328,-474.973 338.735,-483.359 352.115,-488.934 365.248,-492.956"/>
<polygon fill="midnightblue" stroke="midnightblue" points="240.828,-329.648 234.207,-321.377 234.224,-331.972 240.828,-329.648"/>
</g>
<!-- Node6 -->
<g id="node15" class="node"><title>Node6</title>
<a xlink:href="namespaceHandler.xhtml#ab5889a65de2794129b375ec39ae923ae" target="_top" xlink:title="Select a new Character name.">
<polygon fill="white" stroke="black" points="333.5,-454.973 333.5,-474.973 502.5,-474.973 502.5,-454.973 333.5,-454.973"/>
<text text-anchor="middle" x="418" y="-461.973" font-family="FreeSans.ttf" font-size="10.00">Handler::CharacterCreateName</text>
</a>
</g>
<!-- Node2&#45;&gt;Node6 -->
<g id="edge18" class="edge"><title>Node2&#45;&gt;Node6</title>
<path fill="none" stroke="midnightblue" d="M241.297,-330.136C256.423,-358.391 286.27,-409.902 328,-436.973 343.407,-446.968 363.133,-451.817 380.19,-454.943"/>
<polygon fill="midnightblue" stroke="midnightblue" points="244.335,-328.393 236.566,-321.19 238.147,-331.666 244.335,-328.393"/>
</g>
<!-- Node7 -->
<g id="node18" class="node"><title>Node7</title>
<a xlink:href="namespaceHandler.xhtml#ae5086bcf5857eb572beedd09158c3065" target="_top" xlink:title="Select a new Character sex.">
<polygon fill="white" stroke="black" points="339,-416.973 339,-436.973 497,-436.973 497,-416.973 339,-416.973"/>
<text text-anchor="middle" x="418" y="-423.973" font-family="FreeSans.ttf" font-size="10.00">Handler::CharacterCreateSex</text>
</a>
</g>
<!-- Node2&#45;&gt;Node7 -->
<g id="edge22" class="edge"><title>Node2&#45;&gt;Node7</title>
<path fill="none" stroke="midnightblue" d="M248.277,-328.912C266.086,-349.294 295.214,-381.31 328,-398.973 346.136,-408.744 368.847,-413.492 386.918,-416.95"/>
<polygon fill="midnightblue" stroke="midnightblue" points="250.786,-326.463 241.581,-321.217 245.506,-331.058 250.786,-326.463"/>
</g>
<!-- Node8 -->
<g id="node21" class="node"><title>Node8</title>
<a xlink:href="namespaceHandler.xhtml#a97a198bfc72285b2aca4f36978db715e" target="_top" xlink:title="Main Character deletion confirmation.">
<polygon fill="white" stroke="black" points="348.5,-366.973 348.5,-398.973 487.5,-398.973 487.5,-366.973 348.5,-366.973"/>
<text text-anchor="start" x="356.5" y="-385.973" font-family="FreeSans.ttf" font-size="10.00">Handler::CharacterDelete</text>
<text text-anchor="middle" x="418" y="-373.973" font-family="FreeSans.ttf" font-size="10.00">Confirm</text>
</a>
</g>
<!-- Node2&#45;&gt;Node8 -->
<g id="edge26" class="edge"><title>Node2&#45;&gt;Node8</title>
<path fill="none" stroke="midnightblue" d="M273.355,-325.392C290.138,-333.087 309.688,-342.1 328,-348.973 346.067,-355.755 366.785,-361.633 383.785,-366.887"/>
<polygon fill="midnightblue" stroke="midnightblue" points="274.374,-322.01 263.824,-321.039 271.466,-328.377 274.374,-322.01"/>
</g>
<!-- Node9 -->
<g id="node24" class="node"><title>Node9</title>
<a xlink:href="namespaceHandler.xhtml#afc470ec6e82b7a9a1560588a368734f9" target="_top" xlink:title="Main Character deletion menu.">
<polygon fill="white" stroke="black" points="348.5,-316.973 348.5,-348.973 487.5,-348.973 487.5,-316.973 348.5,-316.973"/>
<text text-anchor="start" x="356.5" y="-335.973" font-family="FreeSans.ttf" font-size="10.00">Handler::CharacterDelete</text>
<text text-anchor="middle" x="418" y="-323.973" font-family="FreeSans.ttf" font-size="10.00">MenuMain</text>
</a>
</g>
<!-- Node2&#45;&gt;Node9 -->
<g id="edge30" class="edge"><title>Node2&#45;&gt;Node9</title>
<path fill="none" stroke="midnightblue" d="M301.532,-312.769C316.926,-314.327 333.173,-316.239 348.488,-318.297"/>
<polygon fill="midnightblue" stroke="midnightblue" points="301.85,-309.283 291.558,-311.798 301.172,-316.25 301.85,-309.283"/>
</g>
<!-- Node10 -->
<g id="node27" class="node"><title>Node10</title>
<a xlink:href="namespaceHandler.xhtml#a02b1b954749641ab646f6548a5360d3b" target="_top" xlink:title="Main Character load menu.">
<polygon fill="white" stroke="black" points="328.5,-278.973 328.5,-298.973 507.5,-298.973 507.5,-278.973 328.5,-278.973"/>
<text text-anchor="middle" x="418" y="-285.973" font-family="FreeSans.ttf" font-size="10.00">Handler::CharacterLoadMenuMain</text>
</a>
</g>
<!-- Node2&#45;&gt;Node10 -->
<g id="edge34" class="edge"><title>Node2&#45;&gt;Node10</title>
<path fill="none" stroke="midnightblue" d="M278.282,-299.34C293.605,-296.989 311.07,-294.692 328.34,-292.722"/>
<polygon fill="midnightblue" stroke="midnightblue" points="277.369,-295.941 268.045,-300.973 278.471,-302.854 277.369,-295.941"/>
</g>
<!-- Node11 -->
<g id="node30" class="node"><title>Node11</title>
<a xlink:href="namespaceHandler.xhtml#a00bc24564bfd267e0329643c569da1e4" target="_top" xlink:title="Select a new account name.">
<polygon fill="white" stroke="black" points="349.5,-240.973 349.5,-260.973 486.5,-260.973 486.5,-240.973 349.5,-240.973"/>
<text text-anchor="middle" x="418" y="-247.973" font-family="FreeSans.ttf" font-size="10.00">Handler::GetNewAccount</text>
</a>
</g>
<!-- Node2&#45;&gt;Node11 -->
<g id="edge38" class="edge"><title>Node2&#45;&gt;Node11</title>
<path fill="none" stroke="midnightblue" d="M248.205,-295.44C267.598,-284.015 299.381,-269.894 328,-260.973 334.861,-258.835 342.09,-256.861 349.347,-255.109"/>
<polygon fill="midnightblue" stroke="midnightblue" points="246.076,-292.645 239.512,-300.962 249.83,-298.554 246.076,-292.645"/>
</g>
<!-- Node12 -->
<g id="node33" class="node"><title>Node12</title>
<a xlink:href="namespaceHandler.xhtml#a744adadcf407cdb3a9c33365afd5a7c2" target="_top" xlink:title="Create a new account.">
<polygon fill="white" stroke="black" points="347,-202.973 347,-222.973 489,-222.973 489,-202.973 347,-202.973"/>
<text text-anchor="middle" x="418" y="-209.973" font-family="FreeSans.ttf" font-size="10.00">Handler::GetNewPassword</text>
</a>
</g>
<!-- Node2&#45;&gt;Node12 -->
<g id="edge42" class="edge"><title>Node2&#45;&gt;Node12</title>
<path fill="none" stroke="midnightblue" d="M241.566,-292.592C258.688,-271.823 292.588,-239.786 328,-222.973 333.915,-220.165 340.243,-217.769 346.702,-215.762"/>
<polygon fill="midnightblue" stroke="midnightblue" points="238.63,-290.668 235.3,-300.726 244.176,-294.94 238.63,-290.668"/>
</g>
<!-- Node13 -->
<g id="node36" class="node"><title>Node13</title>
<a xlink:href="namespaceHandler.xhtml#adfe13cc9748392348f3941656a1323b6" target="_top" xlink:title="Compare a received password against an existing account.">
<polygon fill="white" stroke="black" points="349.5,-164.973 349.5,-184.973 486.5,-184.973 486.5,-164.973 349.5,-164.973"/>
<text text-anchor="middle" x="418" y="-171.973" font-family="FreeSans.ttf" font-size="10.00">Handler::GetOldPassword</text>
</a>
</g>
<!-- Node2&#45;&gt;Node13 -->
<g id="edge46" class="edge"><title>Node2&#45;&gt;Node13</title>
<path fill="none" stroke="midnightblue" d="M237.643,-291.366C251.867,-262.624 284.908,-210.851 328,-184.973 334.571,-181.027 341.843,-177.893 349.32,-175.464"/>
<polygon fill="midnightblue" stroke="midnightblue" points="234.291,-290.277 233.271,-300.823 240.644,-293.215 234.291,-290.277"/>
</g>
<!-- Node14 -->
<g id="node39" class="node"><title>Node14</title>
<a xlink:href="namespaceHandler.xhtml#ae70e4e50054c729c14493eafefe01b5c" target="_top" xlink:title="Load a character from the account to enter into the game with.">
<polygon fill="white" stroke="black" points="352.5,-126.973 352.5,-146.973 483.5,-146.973 483.5,-126.973 352.5,-126.973"/>
<text text-anchor="middle" x="418" y="-133.973" font-family="FreeSans.ttf" font-size="10.00">Handler::LoadCharacter</text>
</a>
</g>
<!-- Node2&#45;&gt;Node14 -->
<g id="edge50" class="edge"><title>Node2&#45;&gt;Node14</title>
<path fill="none" stroke="midnightblue" d="M234.915,-291.18C246.057,-255.678 276.357,-182.878 328,-146.973 335.343,-141.868 343.78,-138.088 352.481,-135.39"/>
<polygon fill="midnightblue" stroke="midnightblue" points="231.515,-290.338 232.07,-300.918 238.234,-292.301 231.515,-290.338"/>
</g>
<!-- Node15 -->
<g id="node42" class="node"><title>Node15</title>
<a xlink:href="namespaceHandler.xhtml#a44b41bf69fdc6e615a029bea34910191" target="_top" xlink:title="Send initial greeting and request for account name.">
<polygon fill="white" stroke="black" points="358.5,-88.9734 358.5,-108.973 477.5,-108.973 477.5,-88.9734 358.5,-88.9734"/>
<text text-anchor="middle" x="418" y="-95.9734" font-family="FreeSans.ttf" font-size="10.00">Handler::LoginScreen</text>
</a>
</g>
<!-- Node2&#45;&gt;Node15 -->
<g id="edge54" class="edge"><title>Node2&#45;&gt;Node15</title>
<path fill="none" stroke="midnightblue" d="M233.149,-290.696C241.463,-249.041 267.646,-155.285 328,-108.973 336.742,-102.265 347.31,-97.7932 358.084,-95.015"/>
<polygon fill="midnightblue" stroke="midnightblue" points="229.664,-290.295 231.3,-300.762 236.549,-291.559 229.664,-290.295"/>
</g>
<!-- Node16 -->
<g id="node45" class="node"><title>Node16</title>
<a xlink:href="classSocketClient.xhtml#a8399ef20292e9f3ec83b5c4bec2e105b" target="_top" xlink:title="Build a SocketClient for a new client connection and set all attributes.">
<polygon fill="white" stroke="black" points="366.5,-50.9734 366.5,-70.9734 469.5,-70.9734 469.5,-50.9734 366.5,-50.9734"/>
<text text-anchor="middle" x="418" y="-57.9734" font-family="FreeSans.ttf" font-size="10.00">SocketClient::New</text>
</a>
</g>
<!-- Node2&#45;&gt;Node16 -->
<g id="edge58" class="edge"><title>Node2&#45;&gt;Node16</title>
<path fill="none" stroke="midnightblue" d="M232.356,-290.63C238.748,-245.245 260.721,-135.367 328,-79.9734 338.726,-71.1424 352.556,-66.1194 366.141,-63.336"/>
<polygon fill="midnightblue" stroke="midnightblue" points="228.865,-290.34 231.049,-300.707 235.807,-291.24 228.865,-290.34"/>
</g>
<!-- Node23 -->
<g id="node60" class="node"><title>Node23</title>
<a xlink:href="classSocketClient.xhtml#ad4f63c7d906310dc56a1217136047d7f" target="_top" xlink:title="Interpret the command at the front of the queue.">
<polygon fill="white" stroke="black" points="544,-12.9734 544,-32.9734 714,-32.9734 714,-12.9734 544,-12.9734"/>
<text text-anchor="middle" x="629" y="-19.9734" font-family="FreeSans.ttf" font-size="10.00">SocketClient::ProcessCommand</text>
</a>
</g>
<!-- Node2&#45;&gt;Node23 -->
<g id="edge74" class="edge"><title>Node2&#45;&gt;Node23</title>
<path fill="none" stroke="midnightblue" d="M234.393,-290.684C247.211,-233.503 286.302,-73.1642 328,-41.9734 405.149,15.7354 526.893,0.30326 589.272,-12.9422"/>
<polygon fill="midnightblue" stroke="midnightblue" points="230.925,-290.157 232.187,-300.676 237.761,-291.666 230.925,-290.157"/>
</g>
<!-- Node3&#45;&gt;Node2 -->
<g id="edge8" class="edge"><title>Node3&#45;&gt;Node2</title>
<path fill="none" stroke="midnightblue" d="M338.88,-588.428C335.001,-586.313 331.338,-583.842 328,-580.973 245.216,-509.843 232.235,-361.511 230.317,-321.025"/>
<polygon fill="midnightblue" stroke="midnightblue" points="337.722,-591.747 348.271,-592.735 340.641,-585.385 337.722,-591.747"/>
</g>
<!-- Node4&#45;&gt;Node2 -->
<g id="edge12" class="edge"><title>Node4&#45;&gt;Node2</title>
<path fill="none" stroke="midnightblue" d="M334.494,-547.593C332.233,-546.185 330.06,-544.648 328,-542.973 254.814,-483.5 234.769,-358.427 230.817,-321.221"/>
<polygon fill="midnightblue" stroke="midnightblue" points="333.128,-550.829 343.606,-552.401 336.395,-544.639 333.128,-550.829"/>
</g>
<!-- Node5&#45;&gt;Node2 -->
<g id="edge16" class="edge"><title>Node5&#45;&gt;Node2</title>
<path fill="none" stroke="midnightblue" d="M338.832,-500.075C335.019,-497.973 331.379,-495.613 328,-492.973 268.427,-446.435 239.061,-352.915 231.816,-321.219"/>
<polygon fill="midnightblue" stroke="midnightblue" points="337.472,-503.306 347.997,-504.518 340.525,-497.007 337.472,-503.306"/>
</g>
<!-- Node6&#45;&gt;Node2 -->
<g id="edge20" class="edge"><title>Node6&#45;&gt;Node2</title>
<path fill="none" stroke="midnightblue" d="M325.112,-452.494C272.536,-414.142 241.684,-347.551 232.716,-321.313"/>
<polygon fill="midnightblue" stroke="midnightblue" points="323.155,-455.396 333.38,-458.168 327.115,-449.624 323.155,-455.396"/>
</g>
<!-- Node7&#45;&gt;Node2 -->
<g id="edge24" class="edge"><title>Node7&#45;&gt;Node2</title>
<path fill="none" stroke="midnightblue" d="M329.66,-417.847C329.103,-417.56 328.549,-417.269 328,-416.973 283.953,-393.243 246.508,-343.608 234.243,-321.285"/>
<polygon fill="midnightblue" stroke="midnightblue" points="328.441,-421.138 338.993,-422.099 331.343,-414.768 328.441,-421.138"/>
</g>
<!-- Node8&#45;&gt;Node2 -->
<g id="edge28" class="edge"><title>Node8&#45;&gt;Node2</title>
<path fill="none" stroke="midnightblue" d="M338.653,-370.768C335.034,-369.544 331.468,-368.275 328,-366.973 294.081,-354.242 255.916,-334.17 238.953,-321.133"/>
<polygon fill="midnightblue" stroke="midnightblue" points="337.731,-374.149 348.323,-373.899 339.887,-367.489 337.731,-374.149"/>
</g>
<!-- Node9&#45;&gt;Node2 -->
<g id="edge32" class="edge"><title>Node9&#45;&gt;Node2</title>
<path fill="none" stroke="midnightblue" d="M338.458,-330.344C314.054,-327.731 288.319,-324.343 268.045,-320.974"/>
<polygon fill="midnightblue" stroke="midnightblue" points="338.144,-333.83 348.451,-331.377 338.864,-326.867 338.144,-333.83"/>
</g>
<!-- Node10&#45;&gt;Node2 -->
<g id="edge36" class="edge"><title>Node10&#45;&gt;Node2</title>
<path fill="none" stroke="midnightblue" d="M370.02,-300.56C346.159,-304.229 317.045,-307.772 291.558,-310.149"/>
<polygon fill="midnightblue" stroke="midnightblue" points="370.576,-304.016 379.899,-298.983 369.472,-297.104 370.576,-304.016"/>
</g>
<!-- Node11&#45;&gt;Node2 -->
<g id="edge40" class="edge"><title>Node11&#45;&gt;Node2</title>
<path fill="none" stroke="midnightblue" d="M388.625,-263.541C370.862,-267.963 347.882,-272.776 328,-278.973 308.104,-285.175 286.678,-293.89 268.949,-300.917"/>
<polygon fill="midnightblue" stroke="midnightblue" points="389.631,-266.896 398.417,-260.976 387.857,-260.124 389.631,-266.896"/>
</g>
<!-- Node12&#45;&gt;Node2 -->
<g id="edge44" class="edge"><title>Node12&#45;&gt;Node2</title>
<path fill="none" stroke="midnightblue" d="M380.586,-225.075C363.903,-228.588 344.367,-233.203 328,-240.973 295.229,-256.532 263.752,-285.13 245.67,-300.862"/>
<polygon fill="midnightblue" stroke="midnightblue" points="381.468,-228.466 390.55,-223.011 380.048,-221.612 381.468,-228.466"/>
</g>
<!-- Node13&#45;&gt;Node2 -->
<g id="edge48" class="edge"><title>Node13&#45;&gt;Node2</title>
<path fill="none" stroke="midnightblue" d="M372.945,-187.009C357.855,-190.214 341.459,-194.891 328,-202.973 285.749,-228.346 253.161,-278.612 238.498,-300.753"/>
<polygon fill="midnightblue" stroke="midnightblue" points="373.998,-190.369 383.132,-185.002 372.644,-183.501 373.998,-190.369"/>
</g>
<!-- Node14&#45;&gt;Node2 -->
<g id="edge52" class="edge"><title>Node14&#45;&gt;Node2</title>
<path fill="none" stroke="midnightblue" d="M367.365,-149.083C353.685,-152.231 339.501,-156.978 328,-164.973 276.504,-200.776 246.23,-273.264 235.011,-300.673"/>
<polygon fill="midnightblue" stroke="midnightblue" points="368.108,-152.503 377.191,-147.049 366.69,-145.648 368.108,-152.503"/>
</g>
<!-- Node15&#45;&gt;Node2 -->
<g id="edge56" class="edge"><title>Node15&#45;&gt;Node2</title>
<path fill="none" stroke="midnightblue" d="M363.473,-111.207C350.878,-114.366 338.197,-119.149 328,-126.973 267.181,-173.642 241.061,-268.489 232.96,-300.541"/>
<polygon fill="midnightblue" stroke="midnightblue" points="364.496,-114.565 373.507,-108.994 362.988,-107.73 364.496,-114.565"/>
</g>
<!-- Node17 -->
<g id="node47" class="node"><title>Node17</title>
<a xlink:href="namespaceServer.xhtml#a16ea0639731dee10e1a253375b508a02" target="_top" xlink:title="Recovers the server state and re&#45;connects client sockets after a reboot.">
<polygon fill="white" stroke="black" points="564,-88.9734 564,-108.973 694,-108.973 694,-88.9734 564,-88.9734"/>
<text text-anchor="middle" x="629" y="-95.9734" font-family="FreeSans.ttf" font-size="10.00">Server::RebootRecovery</text>
</a>
</g>
<!-- Node16&#45;&gt;Node17 -->
<g id="edge60" class="edge"><title>Node16&#45;&gt;Node17</title>
<path fill="none" stroke="midnightblue" d="M479.808,-72.1046C509.328,-77.4211 544.393,-83.736 573.108,-88.9075"/>
<polygon fill="midnightblue" stroke="midnightblue" points="480.078,-68.5971 469.616,-70.2692 478.838,-75.4863 480.078,-68.5971"/>
</g>
<!-- Node20 -->
<g id="node53" class="node"><title>Node20</title>
<a xlink:href="classSocketServer.xhtml#afdbc60c3bc840875d2214b59c6213f63" target="_top" xlink:title="Accept a new connection on the listening port.">
<polygon fill="white" stroke="black" points="569,-50.9734 569,-70.9734 689,-70.9734 689,-50.9734 569,-50.9734"/>
<text text-anchor="middle" x="629" y="-57.9734" font-family="FreeSans.ttf" font-size="10.00">SocketServer::Accept</text>
</a>
</g>
<!-- Node16&#45;&gt;Node20 -->
<g id="edge66" class="edge"><title>Node16&#45;&gt;Node20</title>
<path fill="none" stroke="midnightblue" d="M479.731,-60.9734C507.855,-60.9734 541.024,-60.9734 568.944,-60.9734"/>
<polygon fill="midnightblue" stroke="midnightblue" points="479.616,-57.4735 469.616,-60.9734 479.616,-64.4735 479.616,-57.4735"/>
</g>
<!-- Node18 -->
<g id="node49" class="node"><title>Node18</title>
<a xlink:href="namespaceServer.xhtml#a19a1e493e1fb50a56d9c77332543d565" target="_top" xlink:title="Start the NAMS Server. Responsible for calling all critical boot&#45;time functions such as SocketServer ...">
<polygon fill="white" stroke="black" points="902,-88.9734 902,-108.973 992,-108.973 992,-88.9734 902,-88.9734"/>
<text text-anchor="middle" x="947" y="-95.9734" font-family="FreeSans.ttf" font-size="10.00">Server::Startup</text>
</a>
</g>
<!-- Node17&#45;&gt;Node18 -->
<g id="edge62" class="edge"><title>Node17&#45;&gt;Node18</title>
<path fill="none" stroke="midnightblue" d="M704.16,-98.9734C765.639,-98.9734 850.543,-98.9734 901.954,-98.9734"/>
<polygon fill="midnightblue" stroke="midnightblue" points="704.119,-95.4735 694.119,-98.9734 704.119,-102.473 704.119,-95.4735"/>
</g>
<!-- Node19 -->
<g id="node51" class="node"><title>Node19</title>
<a xlink:href="main_8cpp.xhtml#ad53223b8779f25caeddb70a3b9172967" target="_top" xlink:title="The default function required to execute the server.">
<polygon fill="white" stroke="black" points="1028.5,-69.9734 1028.5,-89.9734 1069.5,-89.9734 1069.5,-69.9734 1028.5,-69.9734"/>
<text text-anchor="middle" x="1049" y="-76.9734" font-family="FreeSans.ttf" font-size="10.00">main</text>
</a>
</g>
<!-- Node18&#45;&gt;Node19 -->
<g id="edge64" class="edge"><title>Node18&#45;&gt;Node19</title>
<path fill="none" stroke="midnightblue" d="M1001.9,-88.7461C1011.36,-86.9839 1020.64,-85.2553 1028.43,-83.8047"/>
<polygon fill="midnightblue" stroke="midnightblue" points="1001.23,-85.3122 992.036,-90.5844 1002.51,-92.1939 1001.23,-85.3122"/>
</g>
<!-- Node21 -->
<g id="node55" class="node"><title>Node21</title>
<a xlink:href="namespaceServer.xhtml#a39dbe16fdc8c5f6fbd678c6540fbcd6c" target="_top" xlink:title="Poll all SocketClient objects that are communicating with the associated SocketServer object...">
<polygon fill="white" stroke="black" points="753.5,-50.9734 753.5,-70.9734 862.5,-70.9734 862.5,-50.9734 753.5,-50.9734"/>
<text text-anchor="middle" x="808" y="-57.9734" font-family="FreeSans.ttf" font-size="10.00">Server::PollSockets</text>
</a>
</g>
<!-- Node20&#45;&gt;Node21 -->
<g id="edge68" class="edge"><title>Node20&#45;&gt;Node21</title>
<path fill="none" stroke="midnightblue" d="M699.268,-60.9734C717.284,-60.9734 736.391,-60.9734 753.478,-60.9734"/>
<polygon fill="midnightblue" stroke="midnightblue" points="699.102,-57.4735 689.102,-60.9734 699.102,-64.4735 699.102,-57.4735"/>
</g>
<!-- Node22 -->
<g id="node57" class="node"><title>Node22</title>
<a xlink:href="namespaceServer.xhtml#a50b81aa91d8fdaee6f52c5c5ec987990" target="_top" xlink:title="The core update loop of NAMS. This loop spawns all other subsystem update routines and then sleeps fo...">
<polygon fill="white" stroke="black" points="902.5,-50.9734 902.5,-70.9734 991.5,-70.9734 991.5,-50.9734 902.5,-50.9734"/>
<text text-anchor="middle" x="947" y="-57.9734" font-family="FreeSans.ttf" font-size="10.00">Server::Update</text>
</a>
</g>
<!-- Node21&#45;&gt;Node22 -->
<g id="edge70" class="edge"><title>Node21&#45;&gt;Node22</title>
<path fill="none" stroke="midnightblue" d="M872.574,-60.9734C882.688,-60.9734 892.943,-60.9734 902.474,-60.9734"/>
<polygon fill="midnightblue" stroke="midnightblue" points="872.538,-57.4735 862.538,-60.9734 872.537,-64.4735 872.538,-57.4735"/>
</g>
<!-- Node22&#45;&gt;Node19 -->
<g id="edge72" class="edge"><title>Node22&#45;&gt;Node19</title>
<path fill="none" stroke="midnightblue" d="M1001.64,-71.1517C1011.14,-72.9209 1020.47,-74.6585 1028.3,-76.1175"/>
<polygon fill="midnightblue" stroke="midnightblue" points="1002.21,-67.6975 991.739,-69.307 1000.93,-74.5792 1002.21,-67.6975"/>
</g>
<!-- Node24 -->
<g id="node62" class="node"><title>Node24</title>
<a xlink:href="namespaceServer.xhtml#a2b4cec469bb99c2a45e49de5ba74d1ae" target="_top" xlink:title="Processes input from all active SocketClient objects.">
<polygon fill="white" stroke="black" points="750,-12.9734 750,-32.9734 866,-32.9734 866,-12.9734 750,-12.9734"/>
<text text-anchor="middle" x="808" y="-19.9734" font-family="FreeSans.ttf" font-size="10.00">Server::ProcessInput</text>
</a>
</g>
<!-- Node23&#45;&gt;Node24 -->
<g id="edge76" class="edge"><title>Node23&#45;&gt;Node24</title>
<path fill="none" stroke="midnightblue" d="M724.249,-22.9734C732.93,-22.9734 741.54,-22.9734 749.748,-22.9734"/>
<polygon fill="midnightblue" stroke="midnightblue" points="724.044,-19.4735 714.044,-22.9734 724.044,-26.4735 724.044,-19.4735"/>
</g>
<!-- Node24&#45;&gt;Node22 -->
<g id="edge78" class="edge"><title>Node24&#45;&gt;Node22</title>
<path fill="none" stroke="midnightblue" d="M854.619,-35.7181C872.633,-40.6427 892.955,-46.1985 909.943,-50.8427"/>
<polygon fill="midnightblue" stroke="midnightblue" points="855.454,-32.3179 844.885,-33.0569 853.608,-39.0701 855.454,-32.3179"/>
</g>
</g>
</svg>
