<?xml version="1.0" encoding="UTF-8" standalone="no"?>
<!DOCTYPE svg PUBLIC "-//W3C//DTD SVG 1.1//EN"
 "http://www.w3.org/Graphics/SVG/1.1/DTD/svg11.dtd">
<!-- Generated by graphviz version 2.26.3 (20100126.1600)
 -->
<!-- Title: Handler::CharacterLoadMenuMain Pages: 1 -->
<svg width="1116pt" height="608pt"
 viewBox="0.00 0.00 1116.00 608.12" xmlns="http://www.w3.org/2000/svg" xmlns:xlink="http://www.w3.org/1999/xlink">
<g id="graph1" class="graph" transform="scale(1 1) rotate(0) translate(4 604.124)">
<title>Handler::CharacterLoadMenuMain</title>
<polygon fill="white" stroke="white" points="-4,5 -4,-604.124 1113,-604.124 1113,5 -4,5"/>
<!-- Node1 -->
<g id="node1" class="node"><title>Node1</title>
<polygon fill="#bfbfbf" stroke="black" points="0.5,-309.124 0.5,-329.124 179.5,-329.124 179.5,-309.124 0.5,-309.124"/>
<text text-anchor="middle" x="90" y="-316.124" font-family="FreeSans.ttf" font-size="10.00">Handler::CharacterLoadMenuMain</text>
</g>
<!-- Node2 -->
<g id="node3" class="node"><title>Node2</title>
<a xlink:href="namespaceHandler.xhtml#a139febc000c9d767a620708148e0c888" target="_top" xlink:title="Dispatches the appropriate menu based on client state.">
<polygon fill="white" stroke="black" points="216.5,-309.124 216.5,-329.124 339.5,-329.124 339.5,-309.124 216.5,-309.124"/>
<text text-anchor="middle" x="278" y="-316.124" font-family="FreeSans.ttf" font-size="10.00">Handler::LoginHandler</text>
</a>
</g>
<!-- Node1&#45;&gt;Node2 -->
<g id="edge2" class="edge"><title>Node1&#45;&gt;Node2</title>
<path fill="none" stroke="midnightblue" d="M189.841,-312.385C198.904,-312.421 207.895,-312.541 216.474,-312.745"/>
<polygon fill="midnightblue" stroke="midnightblue" points="189.597,-308.885 179.595,-312.38 189.593,-315.885 189.597,-308.885"/>
</g>
<!-- Node2&#45;&gt;Node1 -->
<g id="edge36" class="edge"><title>Node2&#45;&gt;Node1</title>
<path fill="none" stroke="midnightblue" d="M206.346,-325.701C197.594,-325.839 188.568,-325.894 179.595,-325.867"/>
<polygon fill="midnightblue" stroke="midnightblue" points="206.545,-329.198 216.474,-325.502 206.407,-322.199 206.545,-329.198"/>
</g>
<!-- Node3 -->
<g id="node5" class="node"><title>Node3</title>
<a xlink:href="namespaceHandler.xhtml#a33a19d69ead678af81fbe96907eceaf0" target="_top" xlink:title="Create a new account object, or load an existing one, with a name and password.">
<polygon fill="white" stroke="black" points="395.5,-580.124 395.5,-600.124 526.5,-600.124 526.5,-580.124 395.5,-580.124"/>
<text text-anchor="middle" x="461" y="-587.124" font-family="FreeSans.ttf" font-size="10.00">Handler::AttachAccount</text>
</a>
</g>
<!-- Node2&#45;&gt;Node3 -->
<g id="edge4" class="edge"><title>Node2&#45;&gt;Node3</title>
<path fill="none" stroke="midnightblue" d="M280.14,-339.427C285.876,-386.472 306.274,-502.203 376,-562.124 387.468,-571.979 402.947,-577.034 417.553,-580.072"/>
<polygon fill="midnightblue" stroke="midnightblue" points="283.593,-338.809 279.001,-329.261 276.636,-339.588 283.593,-338.809"/>
</g>
<!-- Node4 -->
<g id="node8" class="node"><title>Node4</title>
<a xlink:href="namespaceHandler.xhtml#a2e4ebf6ed049eb872aa4948d54c4932c" target="_top" xlink:title="Attempt to write a new character to disk after creation was completed.">
<polygon fill="white" stroke="black" points="391.5,-542.124 391.5,-562.124 530.5,-562.124 530.5,-542.124 391.5,-542.124"/>
<text text-anchor="middle" x="461" y="-549.124" font-family="FreeSans.ttf" font-size="10.00">Handler::AttachCharacter</text>
</a>
</g>
<!-- Node2&#45;&gt;Node4 -->
<g id="edge8" class="edge"><title>Node2&#45;&gt;Node4</title>
<path fill="none" stroke="midnightblue" d="M282.141,-339.35C290.886,-380.978 315.637,-475.247 376,-524.124 388.222,-534.02 404.542,-539.011 419.613,-542.053"/>
<polygon fill="midnightblue" stroke="midnightblue" points="285.524,-338.419 280.124,-329.303 278.661,-339.797 285.524,-338.419"/>
</g>
<!-- Node5 -->
<g id="node11" class="node"><title>Node5</title>
<a xlink:href="namespaceHandler.xhtml#a73ed6064f2698dbffb5f4c247a02b661" target="_top" xlink:title="Send initial account interface menu.">
<polygon fill="white" stroke="black" points="387,-504.124 387,-524.124 535,-524.124 535,-504.124 387,-504.124"/>
<text text-anchor="middle" x="461" y="-511.124" font-family="FreeSans.ttf" font-size="10.00">Handler::AccountMenuMain</text>
</a>
</g>
<!-- Node2&#45;&gt;Node5 -->
<g id="edge12" class="edge"><title>Node2&#45;&gt;Node5</title>
<path fill="none" stroke="midnightblue" d="M285.016,-339.336C296.933,-375.028 324.952,-448.011 376,-486.124 389.328,-496.075 406.896,-500.982 422.6,-504.057"/>
<polygon fill="midnightblue" stroke="midnightblue" points="288.25,-337.963 281.827,-329.537 281.593,-340.129 288.25,-337.963"/>
</g>
<!-- Node6 -->
<g id="node14" class="node"><title>Node6</title>
<a xlink:href="namespaceHandler.xhtml#ad04998a7a6ece2486bc441052a57c2d7" target="_top" xlink:title="Main Character creation menu.">
<polygon fill="white" stroke="black" points="391,-454.124 391,-486.124 531,-486.124 531,-454.124 391,-454.124"/>
<text text-anchor="start" x="399" y="-473.124" font-family="FreeSans.ttf" font-size="10.00">Handler::CharacterCreate</text>
<text text-anchor="middle" x="461" y="-461.124" font-family="FreeSans.ttf" font-size="10.00">MenuMain</text>
</a>
</g>
<!-- Node2&#45;&gt;Node6 -->
<g id="edge16" class="edge"><title>Node2&#45;&gt;Node6</title>
<path fill="none" stroke="midnightblue" d="M291.301,-338.069C307.542,-364.151 337.648,-410.004 376,-436.124 388.078,-444.349 402.897,-449.913 416.76,-454.117"/>
<polygon fill="midnightblue" stroke="midnightblue" points="294.193,-336.091 285.956,-329.428 288.24,-339.774 294.193,-336.091"/>
</g>
<!-- Node7 -->
<g id="node17" class="node"><title>Node7</title>
<a xlink:href="namespaceHandler.xhtml#ab5889a65de2794129b375ec39ae923ae" target="_top" xlink:title="Select a new Character name.">
<polygon fill="white" stroke="black" points="376.5,-416.124 376.5,-436.124 545.5,-436.124 545.5,-416.124 376.5,-416.124"/>
<text text-anchor="middle" x="461" y="-423.124" font-family="FreeSans.ttf" font-size="10.00">Handler::CharacterCreateName</text>
</a>
</g>
<!-- Node2&#45;&gt;Node7 -->
<g id="edge20" class="edge"><title>Node2&#45;&gt;Node7</title>
<path fill="none" stroke="midnightblue" d="M298.627,-336.439C316.915,-354.717 345.408,-382.36 376,-398.124 394.281,-407.543 417.127,-412.317 434.529,-416.072"/>
<polygon fill="midnightblue" stroke="midnightblue" points="300.98,-333.842 291.437,-329.24 296.027,-338.789 300.98,-333.842"/>
</g>
<!-- Node8 -->
<g id="node20" class="node"><title>Node8</title>
<a xlink:href="namespaceHandler.xhtml#ae5086bcf5857eb572beedd09158c3065" target="_top" xlink:title="Select a new Character sex.">
<polygon fill="white" stroke="black" points="382,-378.124 382,-398.124 540,-398.124 540,-378.124 382,-378.124"/>
<text text-anchor="middle" x="461" y="-385.124" font-family="FreeSans.ttf" font-size="10.00">Handler::CharacterCreateSex</text>
</a>
</g>
<!-- Node2&#45;&gt;Node8 -->
<g id="edge24" class="edge"><title>Node2&#45;&gt;Node8</title>
<path fill="none" stroke="midnightblue" d="M317.33,-333.803C334.838,-342.512 355.987,-352.912 376,-360.124 397.765,-367.966 423.876,-373.221 441.363,-378.101"/>
<polygon fill="midnightblue" stroke="midnightblue" points="318.521,-330.487 308.009,-329.17 315.406,-336.755 318.521,-330.487"/>
</g>
<!-- Node9 -->
<g id="node23" class="node"><title>Node9</title>
<a xlink:href="namespaceHandler.xhtml#a97a198bfc72285b2aca4f36978db715e" target="_top" xlink:title="Main Character deletion confirmation.">
<polygon fill="white" stroke="black" points="391.5,-328.124 391.5,-360.124 530.5,-360.124 530.5,-328.124 391.5,-328.124"/>
<text text-anchor="start" x="399.5" y="-347.124" font-family="FreeSans.ttf" font-size="10.00">Handler::CharacterDelete</text>
<text text-anchor="middle" x="461" y="-335.124" font-family="FreeSans.ttf" font-size="10.00">Confirm</text>
</a>
</g>
<!-- Node2&#45;&gt;Node9 -->
<g id="edge28" class="edge"><title>Node2&#45;&gt;Node9</title>
<path fill="none" stroke="midnightblue" d="M349.64,-322.304C363.471,-323.991 377.939,-325.979 391.694,-328.085"/>
<polygon fill="midnightblue" stroke="midnightblue" points="350.042,-318.827 339.7,-321.131 349.221,-325.779 350.042,-318.827"/>
</g>
<!-- Node10 -->
<g id="node26" class="node"><title>Node10</title>
<a xlink:href="namespaceHandler.xhtml#afc470ec6e82b7a9a1560588a368734f9" target="_top" xlink:title="Main Character deletion menu.">
<polygon fill="white" stroke="black" points="391.5,-278.124 391.5,-310.124 530.5,-310.124 530.5,-278.124 391.5,-278.124"/>
<text text-anchor="start" x="399.5" y="-297.124" font-family="FreeSans.ttf" font-size="10.00">Handler::CharacterDelete</text>
<text text-anchor="middle" x="461" y="-285.124" font-family="FreeSans.ttf" font-size="10.00">MenuMain</text>
</a>
</g>
<!-- Node2&#45;&gt;Node10 -->
<g id="edge32" class="edge"><title>Node2&#45;&gt;Node10</title>
<path fill="none" stroke="midnightblue" d="M322.074,-307.234C342.783,-303.558 367.971,-299.881 391.184,-297.083"/>
<polygon fill="midnightblue" stroke="midnightblue" points="321.192,-303.837 311.992,-309.092 322.461,-310.721 321.192,-303.837"/>
</g>
<!-- Node11 -->
<g id="node30" class="node"><title>Node11</title>
<a xlink:href="namespaceHandler.xhtml#a00bc24564bfd267e0329643c569da1e4" target="_top" xlink:title="Select a new account name.">
<polygon fill="white" stroke="black" points="392.5,-240.124 392.5,-260.124 529.5,-260.124 529.5,-240.124 392.5,-240.124"/>
<text text-anchor="middle" x="461" y="-247.124" font-family="FreeSans.ttf" font-size="10.00">Handler::GetNewAccount</text>
</a>
</g>
<!-- Node2&#45;&gt;Node11 -->
<g id="edge38" class="edge"><title>Node2&#45;&gt;Node11</title>
<path fill="none" stroke="midnightblue" d="M293.962,-302.944C312.908,-289.209 345.75,-271.023 376,-260.124 381.264,-258.227 386.781,-256.482 392.37,-254.911"/>
<polygon fill="midnightblue" stroke="midnightblue" points="291.812,-300.182 286.072,-309.088 296.113,-305.705 291.812,-300.182"/>
</g>
<!-- Node12 -->
<g id="node33" class="node"><title>Node12</title>
<a xlink:href="namespaceHandler.xhtml#a744adadcf407cdb3a9c33365afd5a7c2" target="_top" xlink:title="Create a new account.">
<polygon fill="white" stroke="black" points="390,-202.124 390,-222.124 532,-222.124 532,-202.124 390,-202.124"/>
<text text-anchor="middle" x="461" y="-209.124" font-family="FreeSans.ttf" font-size="10.00">Handler::GetNewPassword</text>
</a>
</g>
<!-- Node2&#45;&gt;Node12 -->
<g id="edge42" class="edge"><title>Node2&#45;&gt;Node12</title>
<path fill="none" stroke="midnightblue" d="M288.576,-300.303C305.105,-277.596 339.019,-241.179 376,-222.124 380.436,-219.838 385.14,-217.826 389.971,-216.074"/>
<polygon fill="midnightblue" stroke="midnightblue" points="285.508,-298.591 282.772,-308.827 291.294,-302.531 285.508,-298.591"/>
</g>
<!-- Node13 -->
<g id="node36" class="node"><title>Node13</title>
<a xlink:href="namespaceHandler.xhtml#adfe13cc9748392348f3941656a1323b6" target="_top" xlink:title="Compare a received password against an existing account.">
<polygon fill="white" stroke="black" points="392.5,-164.124 392.5,-184.124 529.5,-184.124 529.5,-164.124 392.5,-164.124"/>
<text text-anchor="middle" x="461" y="-171.124" font-family="FreeSans.ttf" font-size="10.00">Handler::GetOldPassword</text>
</a>
</g>
<!-- Node2&#45;&gt;Node13 -->
<g id="edge46" class="edge"><title>Node2&#45;&gt;Node13</title>
<path fill="none" stroke="midnightblue" d="M285.007,-299.302C298.597,-268.903 331.19,-212.52 376,-184.124 381.109,-180.886 386.697,-178.196 392.489,-175.997"/>
<polygon fill="midnightblue" stroke="midnightblue" points="281.629,-298.306 281.003,-308.883 288.088,-301.005 281.629,-298.306"/>
</g>
<!-- Node14 -->
<g id="node39" class="node"><title>Node14</title>
<a xlink:href="namespaceHandler.xhtml#ae70e4e50054c729c14493eafefe01b5c" target="_top" xlink:title="Load a character from the account to enter into the game with.">
<polygon fill="white" stroke="black" points="395.5,-126.124 395.5,-146.124 526.5,-146.124 526.5,-126.124 395.5,-126.124"/>
<text text-anchor="middle" x="461" y="-133.124" font-family="FreeSans.ttf" font-size="10.00">Handler::LoadCharacter</text>
</a>
</g>
<!-- Node2&#45;&gt;Node14 -->
<g id="edge50" class="edge"><title>Node2&#45;&gt;Node14</title>
<path fill="none" stroke="midnightblue" d="M282.55,-299.006C293.138,-261.988 322.67,-184.685 376,-146.124 381.882,-141.871 388.546,-138.545 395.493,-136.007"/>
<polygon fill="midnightblue" stroke="midnightblue" points="279.156,-298.15 279.964,-308.714 285.92,-299.952 279.156,-298.15"/>
</g>
<!-- Node15 -->
<g id="node42" class="node"><title>Node15</title>
<a xlink:href="namespaceHandler.xhtml#a44b41bf69fdc6e615a029bea34910191" target="_top" xlink:title="Send initial greeting and request for account name.">
<polygon fill="white" stroke="black" points="401.5,-88.1236 401.5,-108.124 520.5,-108.124 520.5,-88.1236 401.5,-88.1236"/>
<text text-anchor="middle" x="461" y="-95.1236" font-family="FreeSans.ttf" font-size="10.00">Handler::LoginScreen</text>
</a>
</g>
<!-- Node2&#45;&gt;Node15 -->
<g id="edge54" class="edge"><title>Node2&#45;&gt;Node15</title>
<path fill="none" stroke="midnightblue" d="M280.794,-299.036C288.491,-256.239 313.713,-157.421 376,-108.124 383.351,-102.305 392.127,-98.191 401.207,-95.4242"/>
<polygon fill="midnightblue" stroke="midnightblue" points="277.309,-298.656 279.136,-309.092 284.216,-299.794 277.309,-298.656"/>
</g>
<!-- Node16 -->
<g id="node45" class="node"><title>Node16</title>
<a xlink:href="classSocketClient.xhtml#a8399ef20292e9f3ec83b5c4bec2e105b" target="_top" xlink:title="Build a SocketClient for a new client connection and set all attributes.">
<polygon fill="white" stroke="black" points="409.5,-50.1236 409.5,-70.1236 512.5,-70.1236 512.5,-50.1236 409.5,-50.1236"/>
<text text-anchor="middle" x="461" y="-57.1236" font-family="FreeSans.ttf" font-size="10.00">SocketClient::New</text>
</a>
</g>
<!-- Node2&#45;&gt;Node16 -->
<g id="edge58" class="edge"><title>Node2&#45;&gt;Node16</title>
<path fill="none" stroke="midnightblue" d="M280.024,-299.008C285.812,-252.613 306.763,-137.621 376,-79.1236 385.356,-71.2189 397.301,-66.4143 409.26,-63.5393"/>
<polygon fill="midnightblue" stroke="midnightblue" points="276.538,-298.683 278.883,-309.015 283.493,-299.476 276.538,-298.683"/>
</g>
<!-- Node23 -->
<g id="node60" class="node"><title>Node23</title>
<a xlink:href="classSocketClient.xhtml#ad4f63c7d906310dc56a1217136047d7f" target="_top" xlink:title="Interpret the command at the front of the queue.">
<polygon fill="white" stroke="black" points="582,-12.1236 582,-32.1236 752,-32.1236 752,-12.1236 582,-12.1236"/>
<text text-anchor="middle" x="667" y="-19.1236" font-family="FreeSans.ttf" font-size="10.00">SocketClient::ProcessCommand</text>
</a>
</g>
<!-- Node2&#45;&gt;Node23 -->
<g id="edge74" class="edge"><title>Node2&#45;&gt;Node23</title>
<path fill="none" stroke="midnightblue" d="M282.124,-298.957C294.493,-240.6 333.08,-73.6525 376,-41.1236 449.637,14.6862 566.174,0.5795 627.021,-12.1214"/>
<polygon fill="midnightblue" stroke="midnightblue" points="278.623,-298.604 280.007,-309.108 285.475,-300.034 278.623,-298.604"/>
</g>
<!-- Node3&#45;&gt;Node2 -->
<g id="edge6" class="edge"><title>Node3&#45;&gt;Node2</title>
<path fill="none" stroke="midnightblue" d="M385.989,-587.045C382.434,-585.061 379.073,-582.765 376,-580.124 295.896,-511.285 280.897,-368.788 278.439,-329.176"/>
<polygon fill="midnightblue" stroke="midnightblue" points="384.633,-590.275 395.172,-591.355 387.607,-583.938 384.633,-590.275"/>
</g>
<!-- Node4&#45;&gt;Node2 -->
<g id="edge10" class="edge"><title>Node4&#45;&gt;Node2</title>
<path fill="none" stroke="midnightblue" d="M382.323,-546.606C380.121,-545.239 378.005,-543.747 376,-542.124 305.498,-485.037 283.575,-366.029 278.996,-329.555"/>
<polygon fill="midnightblue" stroke="midnightblue" points="380.718,-549.716 391.196,-551.28 383.98,-543.523 380.718,-549.716"/>
</g>
<!-- Node5&#45;&gt;Node2 -->
<g id="edge14" class="edge"><title>Node5&#45;&gt;Node2</title>
<path fill="none" stroke="midnightblue" d="M377.937,-505.514C377.282,-505.062 376.636,-504.599 376,-504.124 314.347,-458.093 286.285,-361.197 279.611,-329.143"/>
<polygon fill="midnightblue" stroke="midnightblue" points="376.505,-508.732 386.901,-510.772 380.046,-502.694 376.505,-508.732"/>
</g>
<!-- Node6&#45;&gt;Node2 -->
<g id="edge18" class="edge"><title>Node6&#45;&gt;Node2</title>
<path fill="none" stroke="midnightblue" d="M381.759,-457.735C379.784,-456.593 377.859,-455.39 376,-454.124 326.983,-420.74 291.435,-355.122 281.09,-329.232"/>
<polygon fill="midnightblue" stroke="midnightblue" points="380.218,-460.878 390.71,-462.349 383.426,-454.656 380.218,-460.878"/>
</g>
<!-- Node7&#45;&gt;Node2 -->
<g id="edge22" class="edge"><title>Node7&#45;&gt;Node2</title>
<path fill="none" stroke="midnightblue" d="M367.515,-411.399C328.689,-388.348 294.901,-348.82 282.772,-329.42"/>
<polygon fill="midnightblue" stroke="midnightblue" points="365.962,-414.54 376.404,-416.331 369.358,-408.419 365.962,-414.54"/>
</g>
<!-- Node8&#45;&gt;Node2 -->
<g id="edge26" class="edge"><title>Node8&#45;&gt;Node2</title>
<path fill="none" stroke="midnightblue" d="M372.15,-376.516C335.076,-362.049 301.161,-342.007 286.072,-329.159"/>
<polygon fill="midnightblue" stroke="midnightblue" points="371.042,-379.838 381.634,-380.066 373.496,-373.282 371.042,-379.838"/>
</g>
<!-- Node9&#45;&gt;Node2 -->
<g id="edge30" class="edge"><title>Node9&#45;&gt;Node2</title>
<path fill="none" stroke="midnightblue" d="M381.226,-339.926C356.936,-336.814 331.524,-332.905 311.992,-329.155"/>
<polygon fill="midnightblue" stroke="midnightblue" points="380.829,-343.403 391.184,-341.165 381.693,-336.457 380.829,-343.403"/>
</g>
<!-- Node10&#45;&gt;Node2 -->
<g id="edge34" class="edge"><title>Node10&#45;&gt;Node2</title>
<path fill="none" stroke="midnightblue" d="M381.571,-311.672C367.55,-313.71 353.143,-315.586 339.7,-317.116"/>
<polygon fill="midnightblue" stroke="midnightblue" points="382.32,-315.099 391.694,-310.162 381.287,-308.176 382.32,-315.099"/>
</g>
<!-- Node11&#45;&gt;Node2 -->
<g id="edge40" class="edge"><title>Node11&#45;&gt;Node2</title>
<path fill="none" stroke="midnightblue" d="M431.648,-262.707C415.029,-266.909 394.025,-271.629 376,-278.124 352.28,-286.67 326.966,-299.697 308.009,-309.077"/>
<polygon fill="midnightblue" stroke="midnightblue" points="432.585,-266.079 441.363,-260.146 430.801,-259.31 432.585,-266.079"/>
</g>
<!-- Node12&#45;&gt;Node2 -->
<g id="edge44" class="edge"><title>Node12&#45;&gt;Node2</title>
<path fill="none" stroke="midnightblue" d="M424.679,-224.319C409.064,-227.796 390.996,-232.397 376,-240.124 341.038,-258.139 308.817,-291.671 291.437,-309.007"/>
<polygon fill="midnightblue" stroke="midnightblue" points="425.502,-227.722 434.529,-222.175 424.014,-220.882 425.502,-227.722"/>
</g>
<!-- Node13&#45;&gt;Node2 -->
<g id="edge48" class="edge"><title>Node13&#45;&gt;Node2</title>
<path fill="none" stroke="midnightblue" d="M418.211,-186.316C403.961,-189.532 388.539,-194.178 376,-202.124 331.758,-230.16 299.427,-285.476 285.533,-308.889"/>
<polygon fill="midnightblue" stroke="midnightblue" points="419.251,-189.674 428.322,-184.2 417.817,-182.823 419.251,-189.674"/>
</g>
<!-- Node14&#45;&gt;Node2 -->
<g id="edge52" class="edge"><title>Node14&#45;&gt;Node2</title>
<path fill="none" stroke="midnightblue" d="M414.062,-148.275C400.822,-151.429 387.034,-156.145 376,-164.124 322.513,-202.799 292.964,-280.445 282.457,-308.877"/>
<polygon fill="midnightblue" stroke="midnightblue" points="414.98,-151.658 424.025,-146.14 413.513,-144.813 414.98,-151.658"/>
</g>
<!-- Node15&#45;&gt;Node2 -->
<g id="edge56" class="edge"><title>Node15&#45;&gt;Node2</title>
<path fill="none" stroke="midnightblue" d="M410.778,-110.377C398.428,-113.526 385.917,-118.275 376,-126.124 313.038,-175.955 287.948,-276.389 280.549,-309.03"/>
<polygon fill="midnightblue" stroke="midnightblue" points="411.61,-113.777 420.596,-108.164 410.071,-106.948 411.61,-113.777"/>
</g>
<!-- Node17 -->
<g id="node47" class="node"><title>Node17</title>
<a xlink:href="namespaceServer.xhtml#a16ea0639731dee10e1a253375b508a02" target="_top" xlink:title="Recovers the server state and re&#45;connects client sockets after a reboot.">
<polygon fill="white" stroke="black" points="602,-88.1236 602,-108.124 732,-108.124 732,-88.1236 602,-88.1236"/>
<text text-anchor="middle" x="667" y="-95.1236" font-family="FreeSans.ttf" font-size="10.00">Server::RebootRecovery</text>
</a>
</g>
<!-- Node16&#45;&gt;Node17 -->
<g id="edge60" class="edge"><title>Node16&#45;&gt;Node17</title>
<path fill="none" stroke="midnightblue" d="M522.621,-71.4906C551.278,-76.7769 585.062,-83.0088 612.741,-88.1147"/>
<polygon fill="midnightblue" stroke="midnightblue" points="523.186,-68.0358 512.717,-69.6636 521.916,-74.9196 523.186,-68.0358"/>
</g>
<!-- Node20 -->
<g id="node53" class="node"><title>Node20</title>
<a xlink:href="classSocketServer.xhtml#afdbc60c3bc840875d2214b59c6213f63" target="_top" xlink:title="Accept a new connection on the listening port.">
<polygon fill="white" stroke="black" points="607,-50.1236 607,-70.1236 727,-70.1236 727,-50.1236 607,-50.1236"/>
<text text-anchor="middle" x="667" y="-57.1236" font-family="FreeSans.ttf" font-size="10.00">SocketServer::Accept</text>
</a>
</g>
<!-- Node16&#45;&gt;Node20 -->
<g id="edge66" class="edge"><title>Node16&#45;&gt;Node20</title>
<path fill="none" stroke="midnightblue" d="M523.044,-60.1236C549.604,-60.1236 580.506,-60.1236 606.854,-60.1236"/>
<polygon fill="midnightblue" stroke="midnightblue" points="522.717,-56.6237 512.717,-60.1236 522.717,-63.6237 522.717,-56.6237"/>
</g>
<!-- Node18 -->
<g id="node49" class="node"><title>Node18</title>
<a xlink:href="namespaceServer.xhtml#a19a1e493e1fb50a56d9c77332543d565" target="_top" xlink:title="Start the NAMS Server. Responsible for calling all critical boot&#45;time functions such as SocketServer ...">
<polygon fill="white" stroke="black" points="940,-88.1236 940,-108.124 1030,-108.124 1030,-88.1236 940,-88.1236"/>
<text text-anchor="middle" x="985" y="-95.1236" font-family="FreeSans.ttf" font-size="10.00">Server::Startup</text>
</a>
</g>
<!-- Node17&#45;&gt;Node18 -->
<g id="edge62" class="edge"><title>Node17&#45;&gt;Node18</title>
<path fill="none" stroke="midnightblue" d="M742.16,-98.1236C803.639,-98.1236 888.543,-98.1236 939.954,-98.1236"/>
<polygon fill="midnightblue" stroke="midnightblue" points="742.119,-94.6237 732.119,-98.1236 742.119,-101.624 742.119,-94.6237"/>
</g>
<!-- Node19 -->
<g id="node51" class="node"><title>Node19</title>
<a xlink:href="main_8cpp.xhtml#ad53223b8779f25caeddb70a3b9172967" target="_top" xlink:title="The default function required to execute the server.">
<polygon fill="white" stroke="black" points="1066.5,-69.1236 1066.5,-89.1236 1107.5,-89.1236 1107.5,-69.1236 1066.5,-69.1236"/>
<text text-anchor="middle" x="1087" y="-76.1236" font-family="FreeSans.ttf" font-size="10.00">main</text>
</a>
</g>
<!-- Node18&#45;&gt;Node19 -->
<g id="edge64" class="edge"><title>Node18&#45;&gt;Node19</title>
<path fill="none" stroke="midnightblue" d="M1039.9,-87.8963C1049.36,-86.1342 1058.64,-84.4056 1066.43,-82.955"/>
<polygon fill="midnightblue" stroke="midnightblue" points="1039.23,-84.4625 1030.04,-89.7346 1040.51,-91.3441 1039.23,-84.4625"/>
</g>
<!-- Node21 -->
<g id="node55" class="node"><title>Node21</title>
<a xlink:href="namespaceServer.xhtml#a39dbe16fdc8c5f6fbd678c6540fbcd6c" target="_top" xlink:title="Poll all SocketClient objects that are communicating with the associated SocketServer object...">
<polygon fill="white" stroke="black" points="791.5,-50.1236 791.5,-70.1236 900.5,-70.1236 900.5,-50.1236 791.5,-50.1236"/>
<text text-anchor="middle" x="846" y="-57.1236" font-family="FreeSans.ttf" font-size="10.00">Server::PollSockets</text>
</a>
</g>
<!-- Node20&#45;&gt;Node21 -->
<g id="edge68" class="edge"><title>Node20&#45;&gt;Node21</title>
<path fill="none" stroke="midnightblue" d="M737.268,-60.1236C755.284,-60.1236 774.391,-60.1236 791.478,-60.1236"/>
<polygon fill="midnightblue" stroke="midnightblue" points="737.102,-56.6237 727.102,-60.1236 737.102,-63.6237 737.102,-56.6237"/>
</g>
<!-- Node22 -->
<g id="node57" class="node"><title>Node22</title>
<a xlink:href="namespaceServer.xhtml#a50b81aa91d8fdaee6f52c5c5ec987990" target="_top" xlink:title="The core update loop of NAMS. This loop spawns all other subsystem update routines and then sleeps fo...">
<polygon fill="white" stroke="black" points="940.5,-50.1236 940.5,-70.1236 1029.5,-70.1236 1029.5,-50.1236 940.5,-50.1236"/>
<text text-anchor="middle" x="985" y="-57.1236" font-family="FreeSans.ttf" font-size="10.00">Server::Update</text>
</a>
</g>
<!-- Node21&#45;&gt;Node22 -->
<g id="edge70" class="edge"><title>Node21&#45;&gt;Node22</title>
<path fill="none" stroke="midnightblue" d="M910.574,-60.1236C920.688,-60.1236 930.943,-60.1236 940.474,-60.1236"/>
<polygon fill="midnightblue" stroke="midnightblue" points="910.538,-56.6237 900.538,-60.1236 910.537,-63.6237 910.538,-56.6237"/>
</g>
<!-- Node22&#45;&gt;Node19 -->
<g id="edge72" class="edge"><title>Node22&#45;&gt;Node19</title>
<path fill="none" stroke="midnightblue" d="M1039.64,-70.302C1049.14,-72.0712 1058.47,-73.8088 1066.3,-75.2678"/>
<polygon fill="midnightblue" stroke="midnightblue" points="1040.21,-66.8478 1029.74,-68.4573 1038.93,-73.7294 1040.21,-66.8478"/>
</g>
<!-- Node24 -->
<g id="node62" class="node"><title>Node24</title>
<a xlink:href="namespaceServer.xhtml#a2b4cec469bb99c2a45e49de5ba74d1ae" target="_top" xlink:title="Processes input from all active SocketClient objects.">
<polygon fill="white" stroke="black" points="788,-12.1236 788,-32.1236 904,-32.1236 904,-12.1236 788,-12.1236"/>
<text text-anchor="middle" x="846" y="-19.1236" font-family="FreeSans.ttf" font-size="10.00">Server::ProcessInput</text>
</a>
</g>
<!-- Node23&#45;&gt;Node24 -->
<g id="edge76" class="edge"><title>Node23&#45;&gt;Node24</title>
<path fill="none" stroke="midnightblue" d="M762.249,-22.1236C770.93,-22.1236 779.54,-22.1236 787.748,-22.1236"/>
<polygon fill="midnightblue" stroke="midnightblue" points="762.044,-18.6237 752.044,-22.1236 762.044,-25.6237 762.044,-18.6237"/>
</g>
<!-- Node24&#45;&gt;Node22 -->
<g id="edge78" class="edge"><title>Node24&#45;&gt;Node22</title>
<path fill="none" stroke="midnightblue" d="M892.619,-34.8683C910.633,-39.793 930.955,-45.3487 947.943,-49.993"/>
<polygon fill="midnightblue" stroke="midnightblue" points="893.454,-31.4682 882.885,-32.2071 891.608,-38.2204 893.454,-31.4682"/>
</g>
</g>
</svg>
