<?xml version="1.0" encoding="UTF-8" standalone="no"?>
<!DOCTYPE svg PUBLIC "-//W3C//DTD SVG 1.1//EN"
 "http://www.w3.org/Graphics/SVG/1.1/DTD/svg11.dtd">
<!-- Generated by graphviz version 2.26.3 (20100126.1600)
 -->
<!-- Title: G Pages: 1 -->
<svg width="272pt" height="88pt"
 viewBox="0.00 0.00 272.00 88.00" xmlns="http://www.w3.org/2000/svg" xmlns:xlink="http://www.w3.org/1999/xlink">
<g id="graph1" class="graph" transform="scale(1 1) rotate(0) translate(4 84)">
<title>G</title>
<polygon fill="white" stroke="white" points="-4,5 -4,-84 269,-84 269,5 -4,5"/>
<!-- Node1 -->
<g id="node1" class="node"><title>Node1</title>
<polygon fill="#bfbfbf" stroke="black" points="94.5,-58.5 94.5,-79.5 185.5,-79.5 185.5,-58.5 94.5,-58.5"/>
<text text-anchor="middle" x="140" y="-66.5" font-family="FreeSans.ttf" font-size="10.00">h/namespace.h</text>
</g>
<!-- Node2 -->
<g id="node3" class="node"><title>Node2</title>
<a xlink:href="handler_8h.xhtml" target="_top" xlink:title="The Handler namespace.">
<polygon fill="white" stroke="black" points="-0.5,-0.5 -0.5,-21.5 60.5,-21.5 60.5,-0.5 -0.5,-0.5"/>
<text text-anchor="middle" x="30" y="-8.5" font-family="FreeSans.ttf" font-size="10.00">handler.h</text>
</a>
</g>
<!-- Node1&#45;&gt;Node2 -->
<g id="edge2" class="edge"><title>Node1&#45;&gt;Node2</title>
<path fill="none" stroke="midnightblue" d="M120.08,-58.4966C103.054,-49.5194 78.3308,-36.4835 59.0907,-26.3387"/>
<polygon fill="midnightblue" stroke="midnightblue" points="60.6218,-23.1894 50.1437,-21.6212 57.3569,-29.3814 60.6218,-23.1894"/>
</g>
<!-- Node3 -->
<g id="node5" class="node"><title>Node3</title>
<a xlink:href="server_8h.xhtml" target="_top" xlink:title="The Server namespace.">
<polygon fill="white" stroke="black" points="77.5,-0.5 77.5,-21.5 132.5,-21.5 132.5,-0.5 77.5,-0.5"/>
<text text-anchor="middle" x="105" y="-8.5" font-family="FreeSans.ttf" font-size="10.00">server.h</text>
</a>
</g>
<!-- Node1&#45;&gt;Node3 -->
<g id="edge4" class="edge"><title>Node1&#45;&gt;Node3</title>
<path fill="none" stroke="midnightblue" d="M133.58,-58.3619C128.844,-50.5131 122.268,-39.6159 116.618,-30.2527"/>
<polygon fill="midnightblue" stroke="midnightblue" points="119.542,-28.3242 111.379,-21.5707 113.549,-31.9409 119.542,-28.3242"/>
</g>
<!-- Node4 -->
<g id="node7" class="node"><title>Node4</title>
<a xlink:href="telopt_8h.xhtml" target="_top" xlink:title="The telopt namespace.">
<polygon fill="white" stroke="black" points="149.5,-0.5 149.5,-21.5 202.5,-21.5 202.5,-0.5 149.5,-0.5"/>
<text text-anchor="middle" x="176" y="-8.5" font-family="FreeSans.ttf" font-size="10.00">telopt.h</text>
</a>
</g>
<!-- Node1&#45;&gt;Node4 -->
<g id="edge6" class="edge"><title>Node1&#45;&gt;Node4</title>
<path fill="none" stroke="midnightblue" d="M146.603,-58.3619C151.475,-50.5131 158.238,-39.6159 164.05,-30.2527"/>
<polygon fill="midnightblue" stroke="midnightblue" points="167.139,-31.9129 169.439,-21.5707 161.191,-28.2213 167.139,-31.9129"/>
</g>
<!-- Node5 -->
<g id="node9" class="node"><title>Node5</title>
<a xlink:href="utils_8h.xhtml" target="_top" xlink:title="The Utils namespace.">
<polygon fill="white" stroke="black" points="219.5,-0.5 219.5,-21.5 264.5,-21.5 264.5,-0.5 219.5,-0.5"/>
<text text-anchor="middle" x="242" y="-8.5" font-family="FreeSans.ttf" font-size="10.00">utils.h</text>
</a>
</g>
<!-- Node1&#45;&gt;Node5 -->
<g id="edge8" class="edge"><title>Node1&#45;&gt;Node5</title>
<path fill="none" stroke="midnightblue" d="M158.708,-58.3619C174.381,-49.4502 196.964,-36.6087 214.663,-26.5447"/>
<polygon fill="midnightblue" stroke="midnightblue" points="216.447,-29.5562 223.41,-21.5707 212.987,-23.4712 216.447,-29.5562"/>
</g>
</g>
</svg>
