<?xml version="1.0" encoding="UTF-8" standalone="no"?>
<!DOCTYPE svg PUBLIC "-//W3C//DTD SVG 1.1//EN"
 "http://www.w3.org/Graphics/SVG/1.1/DTD/svg11.dtd">
<!-- Generated by graphviz version 2.26.3 (20100126.1600)
 -->
<!-- Title: Utils::DirExists Pages: 1 -->
<!--zoomable 609 -->
<svg id="main" version="1.1" xmlns="http://www.w3.org/2000/svg" xmlns:xlink="http://www.w3.org/1999/xlink" xml:space="preserve" onload="init(evt)">
        <defs>
                <circle id="rim" cx="0" cy="0" r="7"/>
                <circle id="rim2" cx="0" cy="0" r="3.5"/>
                <g id="zoomPlus">
                        <use xlink:href="#rim" fill="#404040">
                                <set attributeName="fill" to="#808080" begin="zoomplus.mouseover" end="zoomplus.mouseout"/>
                        </use>
                        <path d="M-4,0h8M0,-4v8" fill="none" stroke="white" stroke-width="1.5" pointer-events="none"/>
                </g>
                <g id="zoomMin">
                        <use xlink:href="#rim" fill="#404040">
                                <set attributeName="fill" to="#808080" begin="zoomminus.mouseover" end="zoomminus.mouseout"/>
                        </use>
                        <path d="M-4,0h8" fill="none" stroke="white" stroke-width="1.5" pointer-events="none"/>
                </g>
                <g id="dirArrow">
                        <path fill="none" stroke="white" stroke-width="1.5" d="M0,-3.0v7 M-2.5,-0.5L0,-3.0L2.5,-0.5"/>
                </g>
               <g id="resetDef">
                       <use xlink:href="#rim2" fill="#404040">
                               <set attributeName="fill" to="#808080" begin="reset.mouseover" end="reset.mouseout"/>
                       </use>
               </g>
        </defs>

<script type="text/javascript">
var viewWidth = 1188;
var viewHeight = 609;
var sectionId = 'dynsection-7';
</script>
<script xlink:href="svgpan.js"/>
<svg id="graph" class="graph">
<g id="viewport">
<title>Utils::DirExists</title>
<polygon fill="white" stroke="white" points="-4,5 -4,-605.208 1185,-605.208 1185,5 -4,5"/>
<!-- Node1 -->
<g id="node1" class="node"><title>Node1</title>
<polygon fill="#bfbfbf" stroke="black" points="0.5,-310.208 0.5,-330.208 85.5,-330.208 85.5,-310.208 0.5,-310.208"/>
<text text-anchor="middle" x="43" y="-317.208" font-family="FreeSans.ttf" font-size="10.00">Utils::DirExists</text>
</g>
<!-- Node2 -->
<g id="node3" class="node"><title>Node2</title>
<a xlink:href="namespaceHandler.xhtml#a44b41bf69fdc6e615a029bea34910191" target="_top" xlink:title="Send initial greeting and request for account name.">
<polygon fill="white" stroke="black" points="122.5,-310.208 122.5,-330.208 241.5,-330.208 241.5,-310.208 122.5,-310.208"/>
<text text-anchor="middle" x="182" y="-317.208" font-family="FreeSans.ttf" font-size="10.00">Handler::LoginScreen</text>
</a>
</g>
<!-- Node1&#45;&gt;Node2 -->
<g id="edge2" class="edge"><title>Node1&#45;&gt;Node2</title>
<path fill="none" stroke="midnightblue" d="M96.1218,-320.208C104.728,-320.208 113.689,-320.208 122.436,-320.208"/>
<polygon fill="midnightblue" stroke="midnightblue" points="95.8388,-316.708 85.8388,-320.208 95.8387,-323.708 95.8388,-316.708"/>
</g>
<!-- Node3 -->
<g id="node5" class="node"><title>Node3</title>
<a xlink:href="namespaceHandler.xhtml#a139febc000c9d767a620708148e0c888" target="_top" xlink:title="Dispatches the appropriate menu based on client state.">
<polygon fill="white" stroke="black" points="278.5,-310.208 278.5,-330.208 401.5,-330.208 401.5,-310.208 278.5,-310.208"/>
<text text-anchor="middle" x="340" y="-317.208" font-family="FreeSans.ttf" font-size="10.00">Handler::LoginHandler</text>
</a>
</g>
<!-- Node2&#45;&gt;Node3 -->
<g id="edge4" class="edge"><title>Node2&#45;&gt;Node3</title>
<path fill="none" stroke="midnightblue" d="M251.957,-313.497C260.749,-313.42 269.691,-313.456 278.342,-313.604"/>
<polygon fill="midnightblue" stroke="midnightblue" points="251.683,-310 241.733,-313.639 251.781,-317 251.683,-310"/>
</g>
<!-- Node3&#45;&gt;Node2 -->
<g id="edge58" class="edge"><title>Node3&#45;&gt;Node2</title>
<path fill="none" stroke="midnightblue" d="M268.079,-326.933C259.268,-326.994 250.338,-326.941 241.733,-326.776"/>
<polygon fill="midnightblue" stroke="midnightblue" points="268.385,-330.43 278.342,-326.811 268.301,-323.431 268.385,-330.43"/>
</g>
<!-- Node4 -->
<g id="node7" class="node"><title>Node4</title>
<a xlink:href="namespaceHandler.xhtml#a33a19d69ead678af81fbe96907eceaf0" target="_top" xlink:title="Create a new account object, or load an existing one, with a name and password.">
<polygon fill="white" stroke="black" points="462.5,-581.208 462.5,-601.208 593.5,-601.208 593.5,-581.208 462.5,-581.208"/>
<text text-anchor="middle" x="528" y="-588.208" font-family="FreeSans.ttf" font-size="10.00">Handler::AttachAccount</text>
</a>
</g>
<!-- Node3&#45;&gt;Node4 -->
<g id="edge6" class="edge"><title>Node3&#45;&gt;Node4</title>
<path fill="none" stroke="midnightblue" d="M342.082,-340.58C347.71,-387.751 367.92,-503.701 438,-563.208 449.443,-572.924 464.616,-578.066 479.239,-581.13"/>
<polygon fill="midnightblue" stroke="midnightblue" points="345.533,-339.945 340.967,-330.384 338.575,-340.706 345.533,-339.945"/>
</g>
<!-- Node5 -->
<g id="node10" class="node"><title>Node5</title>
<a xlink:href="namespaceHandler.xhtml#a2e4ebf6ed049eb872aa4948d54c4932c" target="_top" xlink:title="Attempt to write a new character to disk after creation was completed.">
<polygon fill="white" stroke="black" points="458.5,-543.208 458.5,-563.208 597.5,-563.208 597.5,-543.208 458.5,-543.208"/>
<text text-anchor="middle" x="528" y="-550.208" font-family="FreeSans.ttf" font-size="10.00">Handler::AttachCharacter</text>
</a>
</g>
<!-- Node3&#45;&gt;Node5 -->
<g id="edge10" class="edge"><title>Node3&#45;&gt;Node5</title>
<path fill="none" stroke="midnightblue" d="M344.083,-340.506C352.737,-382.247 377.348,-476.69 438,-525.208 450.346,-535.083 466.602,-540.162 481.899,-543.198"/>
<polygon fill="midnightblue" stroke="midnightblue" points="347.464,-339.56 342.09,-330.43 340.597,-340.919 347.464,-339.56"/>
</g>
<!-- Node6 -->
<g id="node13" class="node"><title>Node6</title>
<a xlink:href="namespaceHandler.xhtml#a73ed6064f2698dbffb5f4c247a02b661" target="_top" xlink:title="Send initial account interface menu.">
<polygon fill="white" stroke="black" points="454,-505.208 454,-525.208 602,-525.208 602,-505.208 454,-505.208"/>
<text text-anchor="middle" x="528" y="-512.208" font-family="FreeSans.ttf" font-size="10.00">Handler::AccountMenuMain</text>
</a>
</g>
<!-- Node3&#45;&gt;Node6 -->
<g id="edge14" class="edge"><title>Node3&#45;&gt;Node6</title>
<path fill="none" stroke="midnightblue" d="M346.784,-339.965C358.526,-375.558 386.472,-449.21 438,-487.208 451.495,-497.159 469.061,-502.144 485.087,-505.183"/>
<polygon fill="midnightblue" stroke="midnightblue" points="350.045,-338.671 343.652,-330.222 343.381,-340.813 350.045,-338.671"/>
</g>
<!-- Node7 -->
<g id="node16" class="node"><title>Node7</title>
<a xlink:href="namespaceHandler.xhtml#ad04998a7a6ece2486bc441052a57c2d7" target="_top" xlink:title="Main Character creation menu.">
<polygon fill="white" stroke="black" points="458,-455.208 458,-487.208 598,-487.208 598,-455.208 458,-455.208"/>
<text text-anchor="start" x="466" y="-474.208" font-family="FreeSans.ttf" font-size="10.00">Handler::CharacterCreate</text>
<text text-anchor="middle" x="528" y="-462.208" font-family="FreeSans.ttf" font-size="10.00">MenuMain</text>
</a>
</g>
<!-- Node3&#45;&gt;Node7 -->
<g id="edge18" class="edge"><title>Node3&#45;&gt;Node7</title>
<path fill="none" stroke="midnightblue" d="M352.974,-338.841C369.087,-364.946 399.247,-411.241 438,-437.208 450.259,-445.422 465.175,-450.956 479.31,-455.08"/>
<polygon fill="midnightblue" stroke="midnightblue" points="355.894,-336.908 347.683,-330.212 349.926,-340.567 355.894,-336.908"/>
</g>
<!-- Node8 -->
<g id="node19" class="node"><title>Node8</title>
<a xlink:href="namespaceHandler.xhtml#ab5889a65de2794129b375ec39ae923ae" target="_top" xlink:title="Select a new Character name.">
<polygon fill="white" stroke="black" points="443.5,-417.208 443.5,-437.208 612.5,-437.208 612.5,-417.208 443.5,-417.208"/>
<text text-anchor="middle" x="528" y="-424.208" font-family="FreeSans.ttf" font-size="10.00">Handler::CharacterCreateName</text>
</a>
</g>
<!-- Node3&#45;&gt;Node8 -->
<g id="edge22" class="edge"><title>Node3&#45;&gt;Node8</title>
<path fill="none" stroke="midnightblue" d="M360.579,-337.615C378.839,-355.951 407.315,-383.626 438,-399.208 456.938,-408.824 480.49,-413.577 498.751,-417.186"/>
<polygon fill="midnightblue" stroke="midnightblue" points="362.933,-335.019 353.403,-330.391 357.968,-339.952 362.933,-335.019"/>
</g>
<!-- Node9 -->
<g id="node22" class="node"><title>Node9</title>
<a xlink:href="namespaceHandler.xhtml#ae5086bcf5857eb572beedd09158c3065" target="_top" xlink:title="Select a new Character sex.">
<polygon fill="white" stroke="black" points="449,-379.208 449,-399.208 607,-399.208 607,-379.208 449,-379.208"/>
<text text-anchor="middle" x="528" y="-386.208" font-family="FreeSans.ttf" font-size="10.00">Handler::CharacterCreateSex</text>
</a>
</g>
<!-- Node3&#45;&gt;Node9 -->
<g id="edge26" class="edge"><title>Node3&#45;&gt;Node9</title>
<path fill="none" stroke="midnightblue" d="M379.29,-335.001C396.79,-343.73 417.944,-354.115 438,-361.208 460.734,-369.247 487.961,-374.413 506.472,-379.145"/>
<polygon fill="midnightblue" stroke="midnightblue" points="380.484,-331.685 369.973,-330.353 377.359,-337.949 380.484,-331.685"/>
</g>
<!-- Node10 -->
<g id="node25" class="node"><title>Node10</title>
<a xlink:href="namespaceHandler.xhtml#a97a198bfc72285b2aca4f36978db715e" target="_top" xlink:title="Main Character deletion confirmation.">
<polygon fill="white" stroke="black" points="458.5,-329.208 458.5,-361.208 597.5,-361.208 597.5,-329.208 458.5,-329.208"/>
<text text-anchor="start" x="466.5" y="-348.208" font-family="FreeSans.ttf" font-size="10.00">Handler::CharacterDelete</text>
<text text-anchor="middle" x="528" y="-336.208" font-family="FreeSans.ttf" font-size="10.00">Confirm</text>
</a>
</g>
<!-- Node3&#45;&gt;Node10 -->
<g id="edge30" class="edge"><title>Node3&#45;&gt;Node10</title>
<path fill="none" stroke="midnightblue" d="M411.532,-323.144C426.926,-324.948 443.173,-327.12 458.488,-329.422"/>
<polygon fill="midnightblue" stroke="midnightblue" points="411.889,-319.662 401.558,-322.014 411.101,-326.618 411.889,-319.662"/>
</g>
<!-- Node11 -->
<g id="node28" class="node"><title>Node11</title>
<a xlink:href="namespaceHandler.xhtml#afc470ec6e82b7a9a1560588a368734f9" target="_top" xlink:title="Main Character deletion menu.">
<polygon fill="white" stroke="black" points="458.5,-279.208 458.5,-311.208 597.5,-311.208 597.5,-279.208 458.5,-279.208"/>
<text text-anchor="start" x="466.5" y="-298.208" font-family="FreeSans.ttf" font-size="10.00">Handler::CharacterDelete</text>
<text text-anchor="middle" x="528" y="-286.208" font-family="FreeSans.ttf" font-size="10.00">MenuMain</text>
</a>
</g>
<!-- Node3&#45;&gt;Node11 -->
<g id="edge34" class="edge"><title>Node3&#45;&gt;Node11</title>
<path fill="none" stroke="midnightblue" d="M384.933,-308.377C406.85,-304.582 433.711,-300.779 458.217,-297.94"/>
<polygon fill="midnightblue" stroke="midnightblue" points="384.144,-304.963 374.921,-310.176 385.382,-311.852 384.144,-304.963"/>
</g>
<!-- Node12 -->
<g id="node31" class="node"><title>Node12</title>
<a xlink:href="namespaceHandler.xhtml#a02b1b954749641ab646f6548a5360d3b" target="_top" xlink:title="Main Character load menu.">
<polygon fill="white" stroke="black" points="438.5,-241.208 438.5,-261.208 617.5,-261.208 617.5,-241.208 438.5,-241.208"/>
<text text-anchor="middle" x="528" y="-248.208" font-family="FreeSans.ttf" font-size="10.00">Handler::CharacterLoadMenuMain</text>
</a>
</g>
<!-- Node3&#45;&gt;Node12 -->
<g id="edge38" class="edge"><title>Node3&#45;&gt;Node12</title>
<path fill="none" stroke="midnightblue" d="M355.94,-303.965C374.864,-290.17 407.686,-271.928 438,-261.208 438.151,-261.154 438.301,-261.101 438.452,-261.048"/>
<polygon fill="midnightblue" stroke="midnightblue" points="353.774,-301.215 348.06,-310.137 358.091,-306.726 353.774,-301.215"/>
</g>
<!-- Node13 -->
<g id="node34" class="node"><title>Node13</title>
<a xlink:href="namespaceHandler.xhtml#a00bc24564bfd267e0329643c569da1e4" target="_top" xlink:title="Select a new account name.">
<polygon fill="white" stroke="black" points="459.5,-203.208 459.5,-223.208 596.5,-223.208 596.5,-203.208 459.5,-203.208"/>
<text text-anchor="middle" x="528" y="-210.208" font-family="FreeSans.ttf" font-size="10.00">Handler::GetNewAccount</text>
</a>
</g>
<!-- Node3&#45;&gt;Node13 -->
<g id="edge42" class="edge"><title>Node3&#45;&gt;Node13</title>
<path fill="none" stroke="midnightblue" d="M350.31,-301.661C366.713,-278.906 400.727,-242.135 438,-223.208 444.692,-219.809 451.961,-217.018 459.368,-214.782"/>
<polygon fill="midnightblue" stroke="midnightblue" points="347.253,-299.935 344.571,-310.185 353.06,-303.845 347.253,-299.935"/>
</g>
<!-- Node14 -->
<g id="node37" class="node"><title>Node14</title>
<a xlink:href="namespaceHandler.xhtml#a744adadcf407cdb3a9c33365afd5a7c2" target="_top" xlink:title="Create a new account.">
<polygon fill="white" stroke="black" points="457,-165.208 457,-185.208 599,-185.208 599,-165.208 457,-165.208"/>
<text text-anchor="middle" x="528" y="-172.208" font-family="FreeSans.ttf" font-size="10.00">Handler::GetNewPassword</text>
</a>
</g>
<!-- Node3&#45;&gt;Node14 -->
<g id="edge46" class="edge"><title>Node3&#45;&gt;Node14</title>
<path fill="none" stroke="midnightblue" d="M346.975,-300.335C360.513,-269.853 393.022,-213.338 438,-185.208 443.822,-181.566 450.227,-178.612 456.856,-176.26"/>
<polygon fill="midnightblue" stroke="midnightblue" points="343.588,-299.365 342.988,-309.943 350.053,-302.048 343.588,-299.365"/>
</g>
<!-- Node15 -->
<g id="node40" class="node"><title>Node15</title>
<a xlink:href="namespaceHandler.xhtml#adfe13cc9748392348f3941656a1323b6" target="_top" xlink:title="Compare a received password against an existing account.">
<polygon fill="white" stroke="black" points="459.5,-127.208 459.5,-147.208 596.5,-147.208 596.5,-127.208 459.5,-127.208"/>
<text text-anchor="middle" x="528" y="-134.208" font-family="FreeSans.ttf" font-size="10.00">Handler::GetOldPassword</text>
</a>
</g>
<!-- Node3&#45;&gt;Node15 -->
<g id="edge50" class="edge"><title>Node3&#45;&gt;Node15</title>
<path fill="none" stroke="midnightblue" d="M344.507,-300.072C355.019,-262.973 384.428,-185.463 438,-147.208 444.368,-142.66 451.596,-139.158 459.12,-136.529"/>
<polygon fill="midnightblue" stroke="midnightblue" points="341.002,-299.639 341.845,-310.2 347.772,-301.418 341.002,-299.639"/>
</g>
<!-- Node16 -->
<g id="node43" class="node"><title>Node16</title>
<a xlink:href="namespaceHandler.xhtml#ae70e4e50054c729c14493eafefe01b5c" target="_top" xlink:title="Load a character from the account to enter into the game with.">
<polygon fill="white" stroke="black" points="462.5,-89.2076 462.5,-109.208 593.5,-109.208 593.5,-89.2076 462.5,-89.2076"/>
<text text-anchor="middle" x="528" y="-96.2076" font-family="FreeSans.ttf" font-size="10.00">Handler::LoadCharacter</text>
</a>
</g>
<!-- Node3&#45;&gt;Node16 -->
<g id="edge54" class="edge"><title>Node3&#45;&gt;Node16</title>
<path fill="none" stroke="midnightblue" d="M342.757,-300.074C350.372,-257.172 375.422,-158.134 438,-109.208 445.171,-103.601 453.61,-99.5491 462.398,-96.7369"/>
<polygon fill="midnightblue" stroke="midnightblue" points="339.269,-299.722 341.119,-310.154 346.178,-300.845 339.269,-299.722"/>
</g>
<!-- Node17 -->
<g id="node47" class="node"><title>Node17</title>
<a xlink:href="classSocketClient.xhtml#a8399ef20292e9f3ec83b5c4bec2e105b" target="_top" xlink:title="Build a SocketClient for a new client connection and set all attributes.">
<polygon fill="white" stroke="black" points="476.5,-51.2076 476.5,-71.2076 579.5,-71.2076 579.5,-51.2076 476.5,-51.2076"/>
<text text-anchor="middle" x="528" y="-58.2076" font-family="FreeSans.ttf" font-size="10.00">SocketClient::New</text>
</a>
</g>
<!-- Node3&#45;&gt;Node17 -->
<g id="edge60" class="edge"><title>Node3&#45;&gt;Node17</title>
<path fill="none" stroke="midnightblue" d="M341.977,-300.036C347.664,-253.522 368.417,-138.294 438,-80.2076 448.666,-71.3042 462.476,-66.2579 476.063,-63.4754"/>
<polygon fill="midnightblue" stroke="midnightblue" points="338.488,-299.743 340.858,-310.069 345.445,-300.519 338.488,-299.743"/>
</g>
<!-- Node24 -->
<g id="node62" class="node"><title>Node24</title>
<a xlink:href="classSocketClient.xhtml#ad4f63c7d906310dc56a1217136047d7f" target="_top" xlink:title="Interpret the command at the front of the queue.">
<polygon fill="white" stroke="black" points="654,-13.2076 654,-33.2076 824,-33.2076 824,-13.2076 654,-13.2076"/>
<text text-anchor="middle" x="739" y="-20.2076" font-family="FreeSans.ttf" font-size="10.00">SocketClient::ProcessCommand</text>
</a>
</g>
<!-- Node3&#45;&gt;Node24 -->
<g id="edge76" class="edge"><title>Node3&#45;&gt;Node24</title>
<path fill="none" stroke="midnightblue" d="M344.044,-300.4C356.32,-242.364 394.956,-74.7577 438,-42.2076 515.055,16.0615 637.386,0.209996 699.708,-13.1899"/>
<polygon fill="midnightblue" stroke="midnightblue" points="340.618,-299.686 342.005,-310.19 347.471,-301.114 340.618,-299.686"/>
</g>
<!-- Node4&#45;&gt;Node3 -->
<g id="edge8" class="edge"><title>Node4&#45;&gt;Node3</title>
<path fill="none" stroke="midnightblue" d="M453.054,-590.685C447.629,-588.174 442.523,-585.048 438,-581.208 357.49,-512.845 342.799,-369.987 340.421,-330.281"/>
<polygon fill="midnightblue" stroke="midnightblue" points="451.848,-593.971 462.437,-594.346 454.393,-587.45 451.848,-593.971"/>
</g>
<!-- Node5&#45;&gt;Node3 -->
<g id="edge12" class="edge"><title>Node5&#45;&gt;Node3</title>
<path fill="none" stroke="midnightblue" d="M448.875,-550.252C445.025,-548.238 441.367,-545.901 438,-543.208 367.16,-486.54 345.486,-367.224 340.978,-330.661"/>
<polygon fill="midnightblue" stroke="midnightblue" points="447.601,-553.516 458.16,-554.385 450.447,-547.121 447.601,-553.516"/>
</g>
<!-- Node6&#45;&gt;Node3 -->
<g id="edge16" class="edge"><title>Node6&#45;&gt;Node3</title>
<path fill="none" stroke="midnightblue" d="M444.694,-509.568C442.376,-508.234 440.137,-506.783 438,-505.208 376.075,-459.544 348.208,-362.384 341.595,-330.249"/>
<polygon fill="midnightblue" stroke="midnightblue" points="443.468,-512.866 453.986,-514.145 446.561,-506.586 443.468,-512.866"/>
</g>
<!-- Node7&#45;&gt;Node3 -->
<g id="edge20" class="edge"><title>Node7&#45;&gt;Node3</title>
<path fill="none" stroke="midnightblue" d="M448.461,-461.293C444.825,-459.454 441.315,-457.429 438,-455.208 388.733,-422.195 353.353,-356.328 343.07,-330.346"/>
<polygon fill="midnightblue" stroke="midnightblue" points="447.167,-464.549 457.72,-465.483 450.053,-458.172 447.167,-464.549"/>
</g>
<!-- Node8&#45;&gt;Node3 -->
<g id="edge24" class="edge"><title>Node8&#45;&gt;Node3</title>
<path fill="none" stroke="midnightblue" d="M434.414,-414.958C390.917,-390.186 356.6,-349.738 344.571,-330.23"/>
<polygon fill="midnightblue" stroke="midnightblue" points="432.765,-418.046 443.231,-419.693 436.077,-411.878 432.765,-418.046"/>
</g>
<!-- Node9&#45;&gt;Node3 -->
<g id="edge28" class="edge"><title>Node9&#45;&gt;Node3</title>
<path fill="none" stroke="midnightblue" d="M438.977,-379.55C438.65,-379.437 438.325,-379.322 438,-379.208 402.885,-366.79 364.405,-344.279 348.06,-330.278"/>
<polygon fill="midnightblue" stroke="midnightblue" points="438.063,-382.933 448.654,-382.677 440.215,-376.272 438.063,-382.933"/>
</g>
<!-- Node10&#45;&gt;Node3 -->
<g id="edge32" class="edge"><title>Node10&#45;&gt;Node3</title>
<path fill="none" stroke="midnightblue" d="M448.125,-341.268C422.549,-338.115 395.544,-334.093 374.921,-330.239"/>
<polygon fill="midnightblue" stroke="midnightblue" points="447.872,-344.762 458.217,-342.475 448.703,-337.812 447.872,-344.762"/>
</g>
<!-- Node11&#45;&gt;Node3 -->
<g id="edge36" class="edge"><title>Node11&#45;&gt;Node3</title>
<path fill="none" stroke="midnightblue" d="M448.309,-312.485C432.671,-314.718 416.492,-316.77 401.558,-318.401"/>
<polygon fill="midnightblue" stroke="midnightblue" points="449.101,-315.906 458.488,-310.993 448.086,-308.98 449.101,-315.906"/>
</g>
<!-- Node12&#45;&gt;Node3 -->
<g id="edge40" class="edge"><title>Node12&#45;&gt;Node3</title>
<path fill="none" stroke="midnightblue" d="M496.716,-263.645C479.148,-267.774 457.004,-272.487 438,-279.208 414.23,-287.614 388.918,-300.644 369.973,-310.062"/>
<polygon fill="midnightblue" stroke="midnightblue" points="497.583,-267.036 506.472,-261.27 495.928,-260.235 497.583,-267.036"/>
</g>
<!-- Node13&#45;&gt;Node3 -->
<g id="edge44" class="edge"><title>Node13&#45;&gt;Node3</title>
<path fill="none" stroke="midnightblue" d="M488.916,-225.21C472.53,-228.616 453.683,-233.244 438,-241.208 402.932,-259.015 370.748,-292.619 353.403,-310.024"/>
<polygon fill="midnightblue" stroke="midnightblue" points="489.639,-228.635 498.751,-223.229 488.256,-221.773 489.639,-228.635"/>
</g>
<!-- Node14&#45;&gt;Node3 -->
<g id="edge48" class="edge"><title>Node14&#45;&gt;Node3</title>
<path fill="none" stroke="midnightblue" d="M481.651,-187.207C466.862,-190.386 450.981,-195.089 438,-203.208 393.593,-230.981 361.34,-286.423 347.499,-309.919"/>
<polygon fill="midnightblue" stroke="midnightblue" points="482.534,-190.6 491.665,-185.226 481.176,-183.733 482.534,-190.6"/>
</g>
<!-- Node15&#45;&gt;Node3 -->
<g id="edge52" class="edge"><title>Node15&#45;&gt;Node3</title>
<path fill="none" stroke="midnightblue" d="M476.088,-149.397C462.765,-152.545 449.081,-157.295 438,-165.208 384.284,-203.565 354.862,-281.388 344.423,-309.914"/>
<polygon fill="midnightblue" stroke="midnightblue" points="477.094,-152.762 486.157,-147.276 475.651,-145.912 477.094,-152.762"/>
</g>
<!-- Node16&#45;&gt;Node3 -->
<g id="edge56" class="edge"><title>Node16&#45;&gt;Node3</title>
<path fill="none" stroke="midnightblue" d="M472.632,-111.499C460.285,-114.664 447.927,-119.446 438,-127.208 374.743,-176.665 349.833,-277.326 342.516,-310.071"/>
<polygon fill="midnightblue" stroke="midnightblue" points="473.498,-114.892 482.485,-109.281 471.96,-108.063 473.498,-114.892"/>
</g>
<!-- Node18 -->
<g id="node49" class="node"><title>Node18</title>
<a xlink:href="namespaceServer.xhtml#a16ea0639731dee10e1a253375b508a02" target="_top" xlink:title="Recovers the server state and re&#45;connects client sockets after a reboot.">
<polygon fill="white" stroke="black" points="674,-89.2076 674,-109.208 804,-109.208 804,-89.2076 674,-89.2076"/>
<text text-anchor="middle" x="739" y="-96.2076" font-family="FreeSans.ttf" font-size="10.00">Server::RebootRecovery</text>
</a>
</g>
<!-- Node17&#45;&gt;Node18 -->
<g id="edge62" class="edge"><title>Node17&#45;&gt;Node18</title>
<path fill="none" stroke="midnightblue" d="M589.808,-72.3388C619.328,-77.6553 654.393,-83.9702 683.108,-89.1417"/>
<polygon fill="midnightblue" stroke="midnightblue" points="590.078,-68.8314 579.616,-70.5034 588.838,-75.7205 590.078,-68.8314"/>
</g>
<!-- Node21 -->
<g id="node55" class="node"><title>Node21</title>
<a xlink:href="classSocketServer.xhtml#afdbc60c3bc840875d2214b59c6213f63" target="_top" xlink:title="Accept a new connection on the listening port.">
<polygon fill="white" stroke="black" points="679,-51.2076 679,-71.2076 799,-71.2076 799,-51.2076 679,-51.2076"/>
<text text-anchor="middle" x="739" y="-58.2076" font-family="FreeSans.ttf" font-size="10.00">SocketServer::Accept</text>
</a>
</g>
<!-- Node17&#45;&gt;Node21 -->
<g id="edge68" class="edge"><title>Node17&#45;&gt;Node21</title>
<path fill="none" stroke="midnightblue" d="M589.731,-61.2076C617.855,-61.2076 651.024,-61.2076 678.944,-61.2076"/>
<polygon fill="midnightblue" stroke="midnightblue" points="589.616,-57.7077 579.616,-61.2076 589.616,-64.7077 589.616,-57.7077"/>
</g>
<!-- Node19 -->
<g id="node51" class="node"><title>Node19</title>
<a xlink:href="namespaceServer.xhtml#a19a1e493e1fb50a56d9c77332543d565" target="_top" xlink:title="Start the NAMS Server. Responsible for calling all critical boot&#45;time functions such as SocketServer ...">
<polygon fill="white" stroke="black" points="1012,-89.2076 1012,-109.208 1102,-109.208 1102,-89.2076 1012,-89.2076"/>
<text text-anchor="middle" x="1057" y="-96.2076" font-family="FreeSans.ttf" font-size="10.00">Server::Startup</text>
</a>
</g>
<!-- Node18&#45;&gt;Node19 -->
<g id="edge64" class="edge"><title>Node18&#45;&gt;Node19</title>
<path fill="none" stroke="midnightblue" d="M814.16,-99.2076C875.639,-99.2076 960.543,-99.2076 1011.95,-99.2076"/>
<polygon fill="midnightblue" stroke="midnightblue" points="814.119,-95.7077 804.119,-99.2076 814.119,-102.708 814.119,-95.7077"/>
</g>
<!-- Node20 -->
<g id="node53" class="node"><title>Node20</title>
<a xlink:href="main_8cpp.xhtml#ad53223b8779f25caeddb70a3b9172967" target="_top" xlink:title="The default function required to execute the server.">
<polygon fill="white" stroke="black" points="1138.5,-70.2076 1138.5,-90.2076 1179.5,-90.2076 1179.5,-70.2076 1138.5,-70.2076"/>
<text text-anchor="middle" x="1159" y="-77.2076" font-family="FreeSans.ttf" font-size="10.00">main</text>
</a>
</g>
<!-- Node19&#45;&gt;Node20 -->
<g id="edge66" class="edge"><title>Node19&#45;&gt;Node20</title>
<path fill="none" stroke="midnightblue" d="M1111.9,-88.9803C1121.36,-87.2181 1130.64,-85.4895 1138.43,-84.0389"/>
<polygon fill="midnightblue" stroke="midnightblue" points="1111.23,-85.5465 1102.04,-90.8186 1112.51,-92.4281 1111.23,-85.5465"/>
</g>
<!-- Node22 -->
<g id="node57" class="node"><title>Node22</title>
<a xlink:href="namespaceServer.xhtml#a39dbe16fdc8c5f6fbd678c6540fbcd6c" target="_top" xlink:title="Poll all SocketClient objects that are communicating with the associated SocketServer object...">
<polygon fill="white" stroke="black" points="863.5,-51.2076 863.5,-71.2076 972.5,-71.2076 972.5,-51.2076 863.5,-51.2076"/>
<text text-anchor="middle" x="918" y="-58.2076" font-family="FreeSans.ttf" font-size="10.00">Server::PollSockets</text>
</a>
</g>
<!-- Node21&#45;&gt;Node22 -->
<g id="edge70" class="edge"><title>Node21&#45;&gt;Node22</title>
<path fill="none" stroke="midnightblue" d="M809.268,-61.2076C827.284,-61.2076 846.391,-61.2076 863.478,-61.2076"/>
<polygon fill="midnightblue" stroke="midnightblue" points="809.102,-57.7077 799.102,-61.2076 809.102,-64.7077 809.102,-57.7077"/>
</g>
<!-- Node23 -->
<g id="node59" class="node"><title>Node23</title>
<a xlink:href="namespaceServer.xhtml#a50b81aa91d8fdaee6f52c5c5ec987990" target="_top" xlink:title="The core update loop of NAMS. This loop spawns all other subsystem update routines and then sleeps fo...">
<polygon fill="white" stroke="black" points="1012.5,-51.2076 1012.5,-71.2076 1101.5,-71.2076 1101.5,-51.2076 1012.5,-51.2076"/>
<text text-anchor="middle" x="1057" y="-58.2076" font-family="FreeSans.ttf" font-size="10.00">Server::Update</text>
</a>
</g>
<!-- Node22&#45;&gt;Node23 -->
<g id="edge72" class="edge"><title>Node22&#45;&gt;Node23</title>
<path fill="none" stroke="midnightblue" d="M982.574,-61.2076C992.688,-61.2076 1002.94,-61.2076 1012.47,-61.2076"/>
<polygon fill="midnightblue" stroke="midnightblue" points="982.538,-57.7077 972.538,-61.2076 982.537,-64.7077 982.538,-57.7077"/>
</g>
<!-- Node23&#45;&gt;Node20 -->
<g id="edge74" class="edge"><title>Node23&#45;&gt;Node20</title>
<path fill="none" stroke="midnightblue" d="M1111.64,-71.386C1121.14,-73.1551 1130.47,-74.8928 1138.3,-76.3517"/>
<polygon fill="midnightblue" stroke="midnightblue" points="1112.21,-67.9318 1101.74,-69.5413 1110.93,-74.8134 1112.21,-67.9318"/>
</g>
<!-- Node25 -->
<g id="node64" class="node"><title>Node25</title>
<a xlink:href="namespaceServer.xhtml#a2b4cec469bb99c2a45e49de5ba74d1ae" target="_top" xlink:title="Processes input from all active SocketClient objects.">
<polygon fill="white" stroke="black" points="860,-13.2076 860,-33.2076 976,-33.2076 976,-13.2076 860,-13.2076"/>
<text text-anchor="middle" x="918" y="-20.2076" font-family="FreeSans.ttf" font-size="10.00">Server::ProcessInput</text>
</a>
</g>
<!-- Node24&#45;&gt;Node25 -->
<g id="edge78" class="edge"><title>Node24&#45;&gt;Node25</title>
<path fill="none" stroke="midnightblue" d="M834.249,-23.2076C842.93,-23.2076 851.54,-23.2076 859.748,-23.2076"/>
<polygon fill="midnightblue" stroke="midnightblue" points="834.044,-19.7077 824.044,-23.2076 834.044,-26.7077 834.044,-19.7077"/>
</g>
<!-- Node25&#45;&gt;Node23 -->
<g id="edge80" class="edge"><title>Node25&#45;&gt;Node23</title>
<path fill="none" stroke="midnightblue" d="M964.619,-35.9523C982.633,-40.877 1002.96,-46.4327 1019.94,-51.0769"/>
<polygon fill="midnightblue" stroke="midnightblue" points="965.454,-32.5521 954.885,-33.2911 963.608,-39.3043 965.454,-32.5521"/>
</g>
</g>
</svg>
        <g id="navigator" transform="translate(0 0)" fill="#404254">
                <rect fill="#f2f5e9" fill-opacity="0.5" stroke="#606060" stroke-width=".5" x="0" y="0" width="60" height="60"/>
                <use id="zoomplus" xlink:href="#zoomPlus" x="17" y="9" onmousedown="handleZoom(evt,'in')"/>
                <use id="zoomminus" xlink:href="#zoomMin" x="42" y="9" onmousedown="handleZoom(evt,'out')"/>
                <use id="reset" xlink:href="#resetDef" x="30" y="36" onmousedown="handleReset()"/>
                <g id="arrowUp" xlink:href="#dirArrow" transform="translate(30 24)" onmousedown="handlePan(0,-1)">
                  <use xlink:href="#rim" fill="#404040">
                        <set attributeName="fill" to="#808080" begin="arrowUp.mouseover" end="arrowUp.mouseout"/>
                  </use>
                  <path fill="none" stroke="white" stroke-width="1.5" d="M0,-3.0v7 M-2.5,-0.5L0,-3.0L2.5,-0.5"/>
                </g>
                <g id="arrowRight" xlink:href="#dirArrow" transform="rotate(90) translate(36 -43)" onmousedown="handlePan(1,0)">
                  <use xlink:href="#rim" fill="#404040">
                        <set attributeName="fill" to="#808080" begin="arrowRight.mouseover" end="arrowRight.mouseout"/>
                  </use>
                  <path fill="none" stroke="white" stroke-width="1.5" d="M0,-3.0v7 M-2.5,-0.5L0,-3.0L2.5,-0.5"/>
                </g>
                <g id="arrowDown" xlink:href="#dirArrow" transform="rotate(180) translate(-30 -48)" onmousedown="handlePan(0,1)">
                  <use xlink:href="#rim" fill="#404040">
                        <set attributeName="fill" to="#808080" begin="arrowDown.mouseover" end="arrowDown.mouseout"/>
                  </use>
                  <path fill="none" stroke="white" stroke-width="1.5" d="M0,-3.0v7 M-2.5,-0.5L0,-3.0L2.5,-0.5"/>
                </g>
                <g id="arrowLeft" xlink:href="#dirArrow" transform="rotate(270) translate(-36 17)" onmousedown="handlePan(-1,0)">
                  <use xlink:href="#rim" fill="#404040">
                        <set attributeName="fill" to="#808080" begin="arrowLeft.mouseover" end="arrowLeft.mouseout"/>
                  </use>
                  <path fill="none" stroke="white" stroke-width="1.5" d="M0,-3.0v7 M-2.5,-0.5L0,-3.0L2.5,-0.5"/>
                </g>
        </g>
        <svg viewBox="0 0 15 15" width="100%" height="30px" preserveAspectRatio="xMaxYMin meet">
         <g id="arrow_out" transform="scale(0.3 0.3)">
          <a xlink:href="namespaceUtils_ac41c505e3efccab8549238e6843b0d2e_icgraph_org.svg" target="_base">
           <rect id="button" ry="5" rx="5" y="6" x="6" height="38" width="38"
                fill="#f2f5e9" fill-opacity="0.5" stroke="#606060" stroke-width="1.0"/>
           <path id="arrow"
             d="M 11.500037,31.436501 C 11.940474,20.09759 22.043105,11.32322 32.158766,21.979434 L 37.068811,17.246167 C 37.068811,17.246167 37.088388,32 37.088388,32 L 22.160133,31.978069 C 22.160133,31.978069 26.997745,27.140456 26.997745,27.140456 C 18.528582,18.264221 13.291696,25.230495 11.500037,31.436501 z"
             style="fill:#404040;"/>
          </a>
         </g>
        </svg>
</svg>
