<?xml version="1.0" encoding="UTF-8" standalone="no"?>
<!DOCTYPE svg PUBLIC "-//W3C//DTD SVG 1.1//EN"
 "http://www.w3.org/Graphics/SVG/1.1/DTD/svg11.dtd">
<!-- Generated by graphviz version 2.26.3 (20100126.1600)
 -->
<!-- Title: Utils::iDirectory Pages: 1 -->
<svg width="612pt" height="180pt"
 viewBox="0.00 0.00 612.00 180.00" xmlns="http://www.w3.org/2000/svg" xmlns:xlink="http://www.w3.org/1999/xlink">
<g id="graph1" class="graph" transform="scale(1 1) rotate(0) translate(4 176)">
<title>Utils::iDirectory</title>
<polygon fill="white" stroke="white" points="-4,5 -4,-176 609,-176 609,5 -4,5"/>
<!-- Node1 -->
<g id="node1" class="node"><title>Node1</title>
<polygon fill="#bfbfbf" stroke="black" points="0.5,-76 0.5,-96 89.5,-96 89.5,-76 0.5,-76"/>
<text text-anchor="middle" x="45" y="-83" font-family="FreeSans.ttf" font-size="10.00">Utils::iDirectory</text>
</g>
<!-- Node2 -->
<g id="node3" class="node"><title>Node2</title>
<a xlink:href="namespaceUtils.xhtml#a995fed3bf7ff41788f5b3dbdc6a70ecb" target="_top" xlink:title="Return a multimap of a specified directory tree on disk.">
<polygon fill="white" stroke="black" points="126,-76 126,-96 230,-96 230,-76 126,-76"/>
<text text-anchor="middle" x="178" y="-83" font-family="FreeSans.ttf" font-size="10.00">Utils::ListDirectory</text>
</a>
</g>
<!-- Node1&#45;&gt;Node2 -->
<g id="edge2" class="edge"><title>Node1&#45;&gt;Node2</title>
<path fill="none" stroke="midnightblue" d="M99.6636,-86C108.327,-86 117.268,-86 125.872,-86"/>
<polygon fill="midnightblue" stroke="midnightblue" points="99.6571,-82.5001 89.6571,-86 99.657,-89.5001 99.6571,-82.5001"/>
</g>
<!-- Node3 -->
<g id="node5" class="node"><title>Node3</title>
<a xlink:href="namespaceServer.xhtml#ac2e1d14caee54a38a89c2394abe6e5a5" target="_top" xlink:title="Search all subfolders of CFG_DAT_DIR_COMMAND and call Command::New() to load each file found to memor...">
<polygon fill="white" stroke="black" points="266.5,-152 266.5,-172 399.5,-172 399.5,-152 266.5,-152"/>
<text text-anchor="middle" x="333" y="-159" font-family="FreeSans.ttf" font-size="10.00">Server::LoadCommands</text>
</a>
</g>
<!-- Node2&#45;&gt;Node3 -->
<g id="edge4" class="edge"><title>Node2&#45;&gt;Node3</title>
<path fill="none" stroke="midnightblue" d="M199.207,-102.33C216.414,-114.923 241.717,-131.994 266,-143 273.598,-146.444 281.968,-149.412 290.142,-151.91"/>
<polygon fill="midnightblue" stroke="midnightblue" points="201.105,-99.3792 190.995,-96.2088 196.921,-104.991 201.105,-99.3792"/>
</g>
<!-- Node6 -->
<g id="node11" class="node"><title>Node6</title>
<a xlink:href="namespaceServer.xhtml#a9b8efad79a32f2356d431788449e1f82" target="_top" xlink:title="Search all subfolders of CFG_DAT_DIR_WORLD and call Location::New() to load each file found to memory...">
<polygon fill="white" stroke="black" points="271.5,-114 271.5,-134 394.5,-134 394.5,-114 271.5,-114"/>
<text text-anchor="middle" x="333" y="-121" font-family="FreeSans.ttf" font-size="10.00">Server::LoadLocations</text>
</a>
</g>
<!-- Node2&#45;&gt;Node6 -->
<g id="edge10" class="edge"><title>Node2&#45;&gt;Node6</title>
<path fill="none" stroke="midnightblue" d="M228.912,-98.4816C249.357,-103.494 272.611,-109.195 291.947,-113.935"/>
<polygon fill="midnightblue" stroke="midnightblue" points="229.676,-95.0654 219.13,-96.0835 228.009,-101.864 229.676,-95.0654"/>
</g>
<!-- Node7 -->
<g id="node14" class="node"><title>Node7</title>
<a xlink:href="namespaceServer.xhtml#a04744ab6fef0eabc2a6c30d111b9074f" target="_top" xlink:title="Search all subfolders of CFG_DAT_DIR_WORLD and call Character::New() to load each file found to memor...">
<polygon fill="white" stroke="black" points="281.5,-76 281.5,-96 384.5,-96 384.5,-76 281.5,-76"/>
<text text-anchor="middle" x="333" y="-83" font-family="FreeSans.ttf" font-size="10.00">Server::LoadNPCs</text>
</a>
</g>
<!-- Node2&#45;&gt;Node7 -->
<g id="edge14" class="edge"><title>Node2&#45;&gt;Node7</title>
<path fill="none" stroke="midnightblue" d="M240.305,-86C253.929,-86 268.204,-86 281.357,-86"/>
<polygon fill="midnightblue" stroke="midnightblue" points="240.044,-82.5001 230.044,-86 240.044,-89.5001 240.044,-82.5001"/>
</g>
<!-- Node8 -->
<g id="node17" class="node"><title>Node8</title>
<a xlink:href="namespaceServer.xhtml#a0a8c7c124f8cc8e5e6a9c7b067be5ff5" target="_top" xlink:title="Search all subfolders of CFG_DAT_DIR_WORLD and call Object::New() to load each file found to memory...">
<polygon fill="white" stroke="black" points="276.5,-38 276.5,-58 389.5,-58 389.5,-38 276.5,-38"/>
<text text-anchor="middle" x="333" y="-45" font-family="FreeSans.ttf" font-size="10.00">Server::LoadObjects</text>
</a>
</g>
<!-- Node2&#45;&gt;Node8 -->
<g id="edge18" class="edge"><title>Node2&#45;&gt;Node8</title>
<path fill="none" stroke="midnightblue" d="M228.912,-73.5184C249.357,-68.506 272.611,-62.8049 291.947,-58.0647"/>
<polygon fill="midnightblue" stroke="midnightblue" points="228.009,-70.136 219.13,-75.9165 229.676,-76.9346 228.009,-70.136"/>
</g>
<!-- Node9 -->
<g id="node20" class="node"><title>Node9</title>
<a xlink:href="namespaceUtils.xhtml#a57b7c6b0c6ea6f1498129d9c9a16d8a8" target="_top" xlink:title="Unlinks any temp files leftover from a failed write.">
<polygon fill="white" stroke="black" points="279,-0 279,-20 387,-20 387,-0 279,-0"/>
<text text-anchor="middle" x="333" y="-7" font-family="FreeSans.ttf" font-size="10.00">Utils::CleanupTemp</text>
</a>
</g>
<!-- Node2&#45;&gt;Node9 -->
<g id="edge22" class="edge"><title>Node2&#45;&gt;Node9</title>
<path fill="none" stroke="midnightblue" d="M199.207,-69.67C216.414,-57.0772 241.717,-40.0064 266,-29 273.598,-25.556 281.968,-22.5883 290.142,-20.0902"/>
<polygon fill="midnightblue" stroke="midnightblue" points="196.921,-67.0085 190.995,-75.7912 201.105,-72.6208 196.921,-67.0085"/>
</g>
<!-- Node4 -->
<g id="node7" class="node"><title>Node4</title>
<a xlink:href="namespaceServer.xhtml#a19a1e493e1fb50a56d9c77332543d565" target="_top" xlink:title="Start the NAMS Server. Responsible for calling all critical boot&#45;time functions such as SocketServer ...">
<polygon fill="white" stroke="black" points="436,-76 436,-96 526,-96 526,-76 436,-76"/>
<text text-anchor="middle" x="481" y="-83" font-family="FreeSans.ttf" font-size="10.00">Server::Startup</text>
</a>
</g>
<!-- Node3&#45;&gt;Node4 -->
<g id="edge6" class="edge"><title>Node3&#45;&gt;Node4</title>
<path fill="none" stroke="midnightblue" d="M386.357,-148.663C391.048,-146.954 395.658,-145.069 400,-143 426.854,-130.201 454.404,-108.67 469.446,-96.0537"/>
<polygon fill="midnightblue" stroke="midnightblue" points="385.037,-145.414 376.677,-151.922 387.271,-152.048 385.037,-145.414"/>
</g>
<!-- Node5 -->
<g id="node9" class="node"><title>Node5</title>
<a xlink:href="main_8cpp.xhtml#ad53223b8779f25caeddb70a3b9172967" target="_top" xlink:title="The default function required to execute the server.">
<polygon fill="white" stroke="black" points="562.5,-76 562.5,-96 603.5,-96 603.5,-76 562.5,-76"/>
<text text-anchor="middle" x="583" y="-83" font-family="FreeSans.ttf" font-size="10.00">main</text>
</a>
</g>
<!-- Node4&#45;&gt;Node5 -->
<g id="edge8" class="edge"><title>Node4&#45;&gt;Node5</title>
<path fill="none" stroke="midnightblue" d="M536.203,-86C545.56,-86 554.726,-86 562.432,-86"/>
<polygon fill="midnightblue" stroke="midnightblue" points="536.036,-82.5001 526.036,-86 536.036,-89.5001 536.036,-82.5001"/>
</g>
<!-- Node6&#45;&gt;Node4 -->
<g id="edge12" class="edge"><title>Node6&#45;&gt;Node4</title>
<path fill="none" stroke="midnightblue" d="M382.146,-111.382C401.538,-106.402 423.507,-100.762 441.801,-96.0647"/>
<polygon fill="midnightblue" stroke="midnightblue" points="381.088,-108.039 372.273,-113.916 382.829,-114.82 381.088,-108.039"/>
</g>
<!-- Node7&#45;&gt;Node4 -->
<g id="edge16" class="edge"><title>Node7&#45;&gt;Node4</title>
<path fill="none" stroke="midnightblue" d="M395.096,-86C408.792,-86 423.047,-86 435.917,-86"/>
<polygon fill="midnightblue" stroke="midnightblue" points="394.763,-82.5001 384.763,-86 394.763,-89.5001 394.763,-82.5001"/>
</g>
<!-- Node8&#45;&gt;Node4 -->
<g id="edge20" class="edge"><title>Node8&#45;&gt;Node4</title>
<path fill="none" stroke="midnightblue" d="M382.146,-60.6185C401.538,-65.5976 423.507,-71.2382 441.801,-75.9353"/>
<polygon fill="midnightblue" stroke="midnightblue" points="382.829,-57.1805 372.273,-58.0835 381.088,-63.9606 382.829,-57.1805"/>
</g>
<!-- Node9&#45;&gt;Node4 -->
<g id="edge24" class="edge"><title>Node9&#45;&gt;Node4</title>
<path fill="none" stroke="midnightblue" d="M386.357,-23.3375C391.048,-25.0455 395.658,-26.9306 400,-29 426.854,-41.799 454.404,-63.3301 469.446,-75.9463"/>
<polygon fill="midnightblue" stroke="midnightblue" points="387.271,-19.9522 376.677,-20.0778 385.037,-26.5861 387.271,-19.9522"/>
</g>
</g>
</svg>
