<?xml version="1.0" encoding="UTF-8" standalone="no"?>
<!DOCTYPE svg PUBLIC "-//W3C//DTD SVG 1.1//EN"
 "http://www.w3.org/Graphics/SVG/1.1/DTD/svg11.dtd">
<!-- Generated by graphviz version 2.26.3 (20100126.1600)
 -->
<!-- Title: Utils::KeyValue Pages: 1 -->
<!--zoomable 787 -->
<svg id="main" version="1.1" xmlns="http://www.w3.org/2000/svg" xmlns:xlink="http://www.w3.org/1999/xlink" xml:space="preserve" onload="init(evt)">
        <defs>
                <circle id="rim" cx="0" cy="0" r="7"/>
                <circle id="rim2" cx="0" cy="0" r="3.5"/>
                <g id="zoomPlus">
                        <use xlink:href="#rim" fill="#404040">
                                <set attributeName="fill" to="#808080" begin="zoomplus.mouseover" end="zoomplus.mouseout"/>
                        </use>
                        <path d="M-4,0h8M0,-4v8" fill="none" stroke="white" stroke-width="1.5" pointer-events="none"/>
                </g>
                <g id="zoomMin">
                        <use xlink:href="#rim" fill="#404040">
                                <set attributeName="fill" to="#808080" begin="zoomminus.mouseover" end="zoomminus.mouseout"/>
                        </use>
                        <path d="M-4,0h8" fill="none" stroke="white" stroke-width="1.5" pointer-events="none"/>
                </g>
                <g id="dirArrow">
                        <path fill="none" stroke="white" stroke-width="1.5" d="M0,-3.0v7 M-2.5,-0.5L0,-3.0L2.5,-0.5"/>
                </g>
               <g id="resetDef">
                       <use xlink:href="#rim2" fill="#404040">
                               <set attributeName="fill" to="#808080" begin="reset.mouseover" end="reset.mouseout"/>
                       </use>
               </g>
        </defs>

<script type="text/javascript">
var viewWidth = 1538;
var viewHeight = 787;
var sectionId = 'dynsection-20';
</script>
<script xlink:href="svgpan.js"/>
<svg id="graph" class="graph">
<g id="viewport">
<title>Utils::KeyValue</title>
<polygon fill="white" stroke="white" points="-4,5 -4,-783.049 1535,-783.049 1535,5 -4,5"/>
<!-- Node1 -->
<g id="node1" class="node"><title>Node1</title>
<polygon fill="#bfbfbf" stroke="black" points="0,-76 0,-96 86,-96 86,-76 0,-76"/>
<text text-anchor="middle" x="43" y="-83" font-family="FreeSans.ttf" font-size="10.00">Utils::KeyValue</text>
</g>
<!-- Node2 -->
<g id="node3" class="node"><title>Node2</title>
<a xlink:href="classAccount.xhtml#ae236325fef7b2269f54e9567577e0b92" target="_top" xlink:title="Unserialize the account data.">
<polygon fill="white" stroke="black" points="126,-114 126,-134 240,-134 240,-114 126,-114"/>
<text text-anchor="middle" x="183" y="-121" font-family="FreeSans.ttf" font-size="10.00">Account::Unserialize</text>
</a>
</g>
<!-- Node1&#45;&gt;Node2 -->
<g id="edge2" class="edge"><title>Node1&#45;&gt;Node2</title>
<path fill="none" stroke="midnightblue" d="M89.9543,-98.7447C108.098,-103.669 128.566,-109.225 145.677,-113.869"/>
<polygon fill="midnightblue" stroke="midnightblue" points="90.7175,-95.3253 80.1499,-96.0835 88.8838,-102.081 90.7175,-95.3253"/>
</g>
<!-- Node20 -->
<g id="node53" class="node"><title>Node20</title>
<a xlink:href="namespaceServer.xhtml#a16ea0639731dee10e1a253375b508a02" target="_top" xlink:title="Recovers the server state and re&#45;connects client sockets after a reboot.">
<polygon fill="white" stroke="black" points="1024,-114 1024,-134 1154,-134 1154,-114 1024,-114"/>
<text text-anchor="middle" x="1089" y="-121" font-family="FreeSans.ttf" font-size="10.00">Server::RebootRecovery</text>
</a>
</g>
<!-- Node1&#45;&gt;Node20 -->
<g id="edge106" class="edge"><title>Node1&#45;&gt;Node20</title>
<path fill="none" stroke="midnightblue" d="M96.4965,-86C158.107,-86 262.366,-86 352,-86 352,-86 352,-86 690,-86 808.119,-86 945.026,-102.708 1023.87,-113.966"/>
<polygon fill="midnightblue" stroke="midnightblue" points="96.243,-82.5001 86.2429,-86 96.2429,-89.5001 96.243,-82.5001"/>
</g>
<!-- Node28 -->
<g id="node72" class="node"><title>Node28</title>
<a xlink:href="classCharacter.xhtml#a91193d9bb29423c2ec95fb56c27d6bb3" target="_top" xlink:title="Unserialize the character data.">
<polygon fill="white" stroke="black" points="122,-319 122,-339 244,-339 244,-319 122,-319"/>
<text text-anchor="middle" x="183" y="-326" font-family="FreeSans.ttf" font-size="10.00">Character::Unserialize</text>
</a>
</g>
<!-- Node1&#45;&gt;Node28 -->
<g id="edge88" class="edge"><title>Node1&#45;&gt;Node28</title>
<path fill="none" stroke="midnightblue" d="M53.9552,-105.015C82.0213,-153.73 155.794,-281.779 177.138,-318.825"/>
<polygon fill="midnightblue" stroke="midnightblue" points="56.8622,-103.05 48.8374,-96.132 50.7968,-106.544 56.8622,-103.05"/>
</g>
<!-- Node30 -->
<g id="node79" class="node"><title>Node30</title>
<a xlink:href="classLocation.xhtml#af65d15c0c107b1fdea7711d632ac909d" target="_top" xlink:title="Unserialize the location data.">
<polygon fill="white" stroke="black" points="125,-38 125,-58 241,-58 241,-38 125,-38"/>
<text text-anchor="middle" x="183" y="-45" font-family="FreeSans.ttf" font-size="10.00">Location::Unserialize</text>
</a>
</g>
<!-- Node1&#45;&gt;Node30 -->
<g id="edge98" class="edge"><title>Node1&#45;&gt;Node30</title>
<path fill="none" stroke="midnightblue" d="M89.9543,-73.2553C108.098,-68.3306 128.566,-62.7749 145.677,-58.1307"/>
<polygon fill="midnightblue" stroke="midnightblue" points="88.8838,-69.9191 80.1499,-75.9165 90.7175,-76.6747 88.8838,-69.9191"/>
</g>
<!-- Node33 -->
<g id="node87" class="node"><title>Node33</title>
<a xlink:href="classServer_1_1Config.xhtml#a54dba418bfd3365ccfb30bda37ccd461" target="_top" xlink:title="Unserialize runtime configuration settings from CFG_DAT_FILE_SETTINGS.">
<polygon fill="white" stroke="black" points="280.5,-0 280.5,-20 423.5,-20 423.5,-0 280.5,-0"/>
<text text-anchor="middle" x="352" y="-7" font-family="FreeSans.ttf" font-size="10.00">Server::Config::Unserialize</text>
</a>
</g>
<!-- Node1&#45;&gt;Node33 -->
<g id="edge108" class="edge"><title>Node1&#45;&gt;Node33</title>
<path fill="none" stroke="midnightblue" d="M60.6284,-68.8903C75.6302,-55.4864 98.4397,-37.6997 122,-29 172.741,-10.2637 233.927,-6.00461 280.432,-6.1642"/>
<polygon fill="midnightblue" stroke="midnightblue" points="58.1163,-66.4459 53.1421,-75.8005 62.8642,-71.5897 58.1163,-66.4459"/>
</g>
<!-- Node3 -->
<g id="node5" class="node"><title>Node3</title>
<a xlink:href="classAccount.xhtml#adc4545f17264112e532b5a48abe94baf" target="_top" xlink:title="Create a new account.">
<polygon fill="white" stroke="black" points="311,-114 311,-134 393,-134 393,-114 311,-114"/>
<text text-anchor="middle" x="352" y="-121" font-family="FreeSans.ttf" font-size="10.00">Account::New</text>
</a>
</g>
<!-- Node2&#45;&gt;Node3 -->
<g id="edge4" class="edge"><title>Node2&#45;&gt;Node3</title>
<path fill="none" stroke="midnightblue" d="M250.431,-124C270.87,-124 292.698,-124 310.861,-124"/>
<polygon fill="midnightblue" stroke="midnightblue" points="250.216,-120.5 240.216,-124 250.216,-127.5 250.216,-120.5"/>
</g>
<!-- Node4 -->
<g id="node7" class="node"><title>Node4</title>
<a xlink:href="namespaceHandler.xhtml#a33a19d69ead678af81fbe96907eceaf0" target="_top" xlink:title="Create a new account object, or load an existing one, with a name and password.">
<polygon fill="white" stroke="black" points="460.5,-448 460.5,-468 591.5,-468 591.5,-448 460.5,-448"/>
<text text-anchor="middle" x="526" y="-455" font-family="FreeSans.ttf" font-size="10.00">Handler::AttachAccount</text>
</a>
</g>
<!-- Node3&#45;&gt;Node4 -->
<g id="edge6" class="edge"><title>Node3&#45;&gt;Node4</title>
<path fill="none" stroke="midnightblue" d="M362.189,-143.559C394.852,-206.257 496.236,-400.867 520.665,-447.759"/>
<polygon fill="midnightblue" stroke="midnightblue" points="365.123,-141.614 357.398,-134.362 358.914,-144.848 365.123,-141.614"/>
</g>
<!-- Node3&#45;&gt;Node20 -->
<g id="edge86" class="edge"><title>Node3&#45;&gt;Node20</title>
<path fill="none" stroke="midnightblue" d="M403.344,-124C534.064,-124 879.314,-124 1023.88,-124"/>
<polygon fill="midnightblue" stroke="midnightblue" points="403.204,-120.5 393.204,-124 403.204,-127.5 403.204,-120.5"/>
</g>
<!-- Node5 -->
<g id="node9" class="node"><title>Node5</title>
<a xlink:href="namespaceHandler.xhtml#a139febc000c9d767a620708148e0c888" target="_top" xlink:title="Dispatches the appropriate menu based on client state.">
<polygon fill="white" stroke="black" points="628.5,-448 628.5,-468 751.5,-468 751.5,-448 628.5,-448"/>
<text text-anchor="middle" x="690" y="-455" font-family="FreeSans.ttf" font-size="10.00">Handler::LoginHandler</text>
</a>
</g>
<!-- Node4&#45;&gt;Node5 -->
<g id="edge8" class="edge"><title>Node4&#45;&gt;Node5</title>
<path fill="none" stroke="midnightblue" d="M601.79,-451.267C610.73,-451.218 619.77,-451.275 628.48,-451.441"/>
<polygon fill="midnightblue" stroke="midnightblue" points="601.724,-447.768 591.76,-451.369 601.795,-454.767 601.724,-447.768"/>
</g>
<!-- Node5&#45;&gt;Node4 -->
<g id="edge10" class="edge"><title>Node5&#45;&gt;Node4</title>
<path fill="none" stroke="midnightblue" d="M618.242,-464.703C609.436,-464.784 600.471,-464.76 591.76,-464.631"/>
<polygon fill="midnightblue" stroke="midnightblue" points="618.531,-468.199 628.48,-464.559 618.432,-461.2 618.531,-468.199"/>
</g>
<!-- Node6 -->
<g id="node12" class="node"><title>Node6</title>
<a xlink:href="namespaceHandler.xhtml#a2e4ebf6ed049eb872aa4948d54c4932c" target="_top" xlink:title="Attempt to write a new character to disk after creation was completed.">
<polygon fill="white" stroke="black" points="808.5,-530 808.5,-550 947.5,-550 947.5,-530 808.5,-530"/>
<text text-anchor="middle" x="878" y="-537" font-family="FreeSans.ttf" font-size="10.00">Handler::AttachCharacter</text>
</a>
</g>
<!-- Node5&#45;&gt;Node6 -->
<g id="edge12" class="edge"><title>Node5&#45;&gt;Node6</title>
<path fill="none" stroke="midnightblue" d="M720.276,-473.747C738.875,-485.979 763.721,-502.029 788,-512 809.42,-520.797 835.448,-525.724 853.993,-529.978"/>
<polygon fill="midnightblue" stroke="midnightblue" points="721.955,-470.662 711.677,-468.092 718.109,-476.511 721.955,-470.662"/>
</g>
<!-- Node7 -->
<g id="node15" class="node"><title>Node7</title>
<a xlink:href="namespaceHandler.xhtml#a73ed6064f2698dbffb5f4c247a02b661" target="_top" xlink:title="Send initial account interface menu.">
<polygon fill="white" stroke="black" points="804,-492 804,-512 952,-512 952,-492 804,-492"/>
<text text-anchor="middle" x="878" y="-499" font-family="FreeSans.ttf" font-size="10.00">Handler::AccountMenuMain</text>
</a>
</g>
<!-- Node5&#45;&gt;Node7 -->
<g id="edge16" class="edge"><title>Node5&#45;&gt;Node7</title>
<path fill="none" stroke="midnightblue" d="M761.565,-467.692C770.453,-469.829 779.427,-472.002 788,-474 813.351,-479.907 842.906,-485.994 861.034,-491.961"/>
<polygon fill="midnightblue" stroke="midnightblue" points="762.131,-464.228 751.591,-465.306 760.503,-471.036 762.131,-464.228"/>
</g>
<!-- Node8 -->
<g id="node18" class="node"><title>Node8</title>
<a xlink:href="namespaceHandler.xhtml#ad04998a7a6ece2486bc441052a57c2d7" target="_top" xlink:title="Main Character creation menu.">
<polygon fill="white" stroke="black" points="808,-442 808,-474 948,-474 948,-442 808,-442"/>
<text text-anchor="start" x="816" y="-461" font-family="FreeSans.ttf" font-size="10.00">Handler::CharacterCreate</text>
<text text-anchor="middle" x="878" y="-449" font-family="FreeSans.ttf" font-size="10.00">MenuMain</text>
</a>
</g>
<!-- Node5&#45;&gt;Node8 -->
<g id="edge20" class="edge"><title>Node5&#45;&gt;Node8</title>
<path fill="none" stroke="midnightblue" d="M761.848,-451.419C776.927,-451.185 792.812,-451.194 807.829,-451.447"/>
<polygon fill="midnightblue" stroke="midnightblue" points="761.488,-447.926 751.558,-451.621 761.625,-454.924 761.488,-447.926"/>
</g>
<!-- Node9 -->
<g id="node21" class="node"><title>Node9</title>
<a xlink:href="namespaceHandler.xhtml#ab5889a65de2794129b375ec39ae923ae" target="_top" xlink:title="Select a new Character name.">
<polygon fill="white" stroke="black" points="793.5,-720 793.5,-740 962.5,-740 962.5,-720 793.5,-720"/>
<text text-anchor="middle" x="878" y="-727" font-family="FreeSans.ttf" font-size="10.00">Handler::CharacterCreateName</text>
</a>
</g>
<!-- Node5&#45;&gt;Node9 -->
<g id="edge24" class="edge"><title>Node5&#45;&gt;Node9</title>
<path fill="none" stroke="midnightblue" d="M692.048,-478.47C697.615,-525.839 717.718,-642.241 788,-702 799.436,-711.724 814.608,-716.868 829.231,-719.931"/>
<polygon fill="midnightblue" stroke="midnightblue" points="695.496,-477.8 690.948,-468.231 688.536,-478.548 695.496,-477.8"/>
</g>
<!-- Node10 -->
<g id="node24" class="node"><title>Node10</title>
<a xlink:href="namespaceHandler.xhtml#ae5086bcf5857eb572beedd09158c3065" target="_top" xlink:title="Select a new Character sex.">
<polygon fill="white" stroke="black" points="799,-404 799,-424 957,-424 957,-404 799,-404"/>
<text text-anchor="middle" x="878" y="-411" font-family="FreeSans.ttf" font-size="10.00">Handler::CharacterCreateSex</text>
</a>
</g>
<!-- Node5&#45;&gt;Node10 -->
<g id="edge28" class="edge"><title>Node5&#45;&gt;Node10</title>
<path fill="none" stroke="midnightblue" d="M714.027,-444.318C733.824,-437.349 762.662,-429.904 788,-424 791.577,-423.167 795.238,-422.329 798.939,-421.503"/>
<polygon fill="midnightblue" stroke="midnightblue" points="712.672,-441.088 704.564,-447.908 715.156,-447.633 712.672,-441.088"/>
</g>
<!-- Node11 -->
<g id="node27" class="node"><title>Node11</title>
<a xlink:href="namespaceHandler.xhtml#a97a198bfc72285b2aca4f36978db715e" target="_top" xlink:title="Main Character deletion confirmation.">
<polygon fill="white" stroke="black" points="808.5,-278 808.5,-310 947.5,-310 947.5,-278 808.5,-278"/>
<text text-anchor="start" x="816.5" y="-297" font-family="FreeSans.ttf" font-size="10.00">Handler::CharacterDelete</text>
<text text-anchor="middle" x="878" y="-285" font-family="FreeSans.ttf" font-size="10.00">Confirm</text>
</a>
</g>
<!-- Node5&#45;&gt;Node11 -->
<g id="edge32" class="edge"><title>Node5&#45;&gt;Node11</title>
<path fill="none" stroke="midnightblue" d="M696.208,-438.244C709.019,-405.847 741.16,-343.005 788,-310 794.23,-305.61 801.207,-301.989 808.445,-299.059"/>
<polygon fill="midnightblue" stroke="midnightblue" points="692.795,-437.383 692.612,-447.977 699.361,-439.81 692.795,-437.383"/>
</g>
<!-- Node12 -->
<g id="node30" class="node"><title>Node12</title>
<a xlink:href="namespaceHandler.xhtml#afc470ec6e82b7a9a1560588a368734f9" target="_top" xlink:title="Main Character deletion menu.">
<polygon fill="white" stroke="black" points="808.5,-228 808.5,-260 947.5,-260 947.5,-228 808.5,-228"/>
<text text-anchor="start" x="816.5" y="-247" font-family="FreeSans.ttf" font-size="10.00">Handler::CharacterDelete</text>
<text text-anchor="middle" x="878" y="-235" font-family="FreeSans.ttf" font-size="10.00">MenuMain</text>
</a>
</g>
<!-- Node5&#45;&gt;Node12 -->
<g id="edge36" class="edge"><title>Node5&#45;&gt;Node12</title>
<path fill="none" stroke="midnightblue" d="M693.567,-437.733C702.655,-397.096 730.162,-306.934 788,-260 794.044,-255.095 800.986,-251.151 808.276,-248.038"/>
<polygon fill="midnightblue" stroke="midnightblue" points="690.127,-437.088 691.523,-447.59 696.981,-438.509 690.127,-437.088"/>
</g>
<!-- Node13 -->
<g id="node33" class="node"><title>Node13</title>
<a xlink:href="namespaceHandler.xhtml#a02b1b954749641ab646f6548a5360d3b" target="_top" xlink:title="Main Character load menu.">
<polygon fill="white" stroke="black" points="788.5,-190 788.5,-210 967.5,-210 967.5,-190 788.5,-190"/>
<text text-anchor="middle" x="878" y="-197" font-family="FreeSans.ttf" font-size="10.00">Handler::CharacterLoadMenuMain</text>
</a>
</g>
<!-- Node5&#45;&gt;Node13 -->
<g id="edge40" class="edge"><title>Node5&#45;&gt;Node13</title>
<path fill="none" stroke="midnightblue" d="M691.532,-437.637C696.555,-389.451 716.563,-269.545 788,-210 788.123,-209.898 788.246,-209.796 788.369,-209.695"/>
<polygon fill="midnightblue" stroke="midnightblue" points="688.03,-437.495 690.594,-447.775 695,-438.14 688.03,-437.495"/>
</g>
<!-- Node14 -->
<g id="node36" class="node"><title>Node14</title>
<a xlink:href="namespaceHandler.xhtml#a00bc24564bfd267e0329643c569da1e4" target="_top" xlink:title="Select a new account name.">
<polygon fill="white" stroke="black" points="809.5,-152 809.5,-172 946.5,-172 946.5,-152 809.5,-152"/>
<text text-anchor="middle" x="878" y="-159" font-family="FreeSans.ttf" font-size="10.00">Handler::GetNewAccount</text>
</a>
</g>
<!-- Node5&#45;&gt;Node14 -->
<g id="edge44" class="edge"><title>Node5&#45;&gt;Node14</title>
<path fill="none" stroke="midnightblue" d="M693.619,-437.795C705.793,-378.421 746.816,-208.078 788,-172 794.126,-166.633 801.383,-162.651 809.078,-159.785"/>
<polygon fill="midnightblue" stroke="midnightblue" points="690.141,-437.337 691.632,-447.827 697.008,-438.697 690.141,-437.337"/>
</g>
<!-- Node15 -->
<g id="node39" class="node"><title>Node15</title>
<a xlink:href="namespaceHandler.xhtml#a744adadcf407cdb3a9c33365afd5a7c2" target="_top" xlink:title="Create a new account.">
<polygon fill="white" stroke="black" points="807,-644 807,-664 949,-664 949,-644 807,-644"/>
<text text-anchor="middle" x="878" y="-651" font-family="FreeSans.ttf" font-size="10.00">Handler::GetNewPassword</text>
</a>
</g>
<!-- Node5&#45;&gt;Node15 -->
<g id="edge48" class="edge"><title>Node5&#45;&gt;Node15</title>
<path fill="none" stroke="midnightblue" d="M696.741,-477.899C708.425,-513.71 736.295,-587.776 788,-626 801.483,-635.968 819.047,-640.955 835.075,-643.992"/>
<polygon fill="midnightblue" stroke="midnightblue" points="699.99,-476.566 693.626,-468.096 693.318,-478.686 699.99,-476.566"/>
</g>
<!-- Node16 -->
<g id="node42" class="node"><title>Node16</title>
<a xlink:href="namespaceHandler.xhtml#adfe13cc9748392348f3941656a1323b6" target="_top" xlink:title="Compare a received password against an existing account.">
<polygon fill="white" stroke="black" points="809.5,-606 809.5,-626 946.5,-626 946.5,-606 809.5,-606"/>
<text text-anchor="middle" x="878" y="-613" font-family="FreeSans.ttf" font-size="10.00">Handler::GetOldPassword</text>
</a>
</g>
<!-- Node5&#45;&gt;Node16 -->
<g id="edge52" class="edge"><title>Node5&#45;&gt;Node16</title>
<path fill="none" stroke="midnightblue" d="M700.863,-477.456C715.705,-506.524 745.427,-559.963 788,-588 803.204,-598.013 822.714,-602.876 839.681,-605.985"/>
<polygon fill="midnightblue" stroke="midnightblue" points="703.862,-475.629 696.237,-468.273 697.61,-478.779 703.862,-475.629"/>
</g>
<!-- Node17 -->
<g id="node45" class="node"><title>Node17</title>
<a xlink:href="namespaceHandler.xhtml#ae70e4e50054c729c14493eafefe01b5c" target="_top" xlink:title="Load a character from the account to enter into the game with.">
<polygon fill="white" stroke="black" points="812.5,-682 812.5,-702 943.5,-702 943.5,-682 812.5,-682"/>
<text text-anchor="middle" x="878" y="-689" font-family="FreeSans.ttf" font-size="10.00">Handler::LoadCharacter</text>
</a>
</g>
<!-- Node5&#45;&gt;Node17 -->
<g id="edge56" class="edge"><title>Node5&#45;&gt;Node17</title>
<path fill="none" stroke="midnightblue" d="M693.983,-478.113C702.52,-519.907 727.01,-615.123 788,-664 800.212,-673.787 816.264,-678.865 831.425,-681.91"/>
<polygon fill="midnightblue" stroke="midnightblue" points="697.369,-477.187 692.022,-468.041 690.498,-478.526 697.369,-477.187"/>
</g>
<!-- Node18 -->
<g id="node48" class="node"><title>Node18</title>
<a xlink:href="namespaceHandler.xhtml#a44b41bf69fdc6e615a029bea34910191" target="_top" xlink:title="Send initial greeting and request for account name.">
<polygon fill="white" stroke="black" points="818.5,-568 818.5,-588 937.5,-588 937.5,-568 818.5,-568"/>
<text text-anchor="middle" x="878" y="-575" font-family="FreeSans.ttf" font-size="10.00">Handler::LoginScreen</text>
</a>
</g>
<!-- Node5&#45;&gt;Node18 -->
<g id="edge60" class="edge"><title>Node5&#45;&gt;Node18</title>
<path fill="none" stroke="midnightblue" d="M707.456,-476.261C725.045,-497.538 754.346,-531.428 788,-550 805.757,-559.799 828.045,-564.552 845.999,-567.952"/>
<polygon fill="midnightblue" stroke="midnightblue" points="709.928,-473.756 700.872,-468.257 704.522,-478.203 709.928,-473.756"/>
</g>
<!-- Node19 -->
<g id="node51" class="node"><title>Node19</title>
<a xlink:href="classSocketClient.xhtml#a8399ef20292e9f3ec83b5c4bec2e105b" target="_top" xlink:title="Build a SocketClient for a new client connection and set all attributes.">
<polygon fill="white" stroke="black" points="826.5,-328 826.5,-348 929.5,-348 929.5,-328 826.5,-328"/>
<text text-anchor="middle" x="878" y="-335" font-family="FreeSans.ttf" font-size="10.00">SocketClient::New</text>
</a>
</g>
<!-- Node5&#45;&gt;Node19 -->
<g id="edge64" class="edge"><title>Node5&#45;&gt;Node19</title>
<path fill="none" stroke="midnightblue" d="M703.683,-439.757C720.958,-418.014 752.715,-382.102 788,-362 799.662,-355.356 813.223,-350.497 826.225,-346.965"/>
<polygon fill="midnightblue" stroke="midnightblue" points="700.761,-437.813 697.396,-447.86 706.292,-442.105 700.761,-437.813"/>
</g>
<!-- Node26 -->
<g id="node66" class="node"><title>Node26</title>
<a xlink:href="classSocketClient.xhtml#ad4f63c7d906310dc56a1217136047d7f" target="_top" xlink:title="Interpret the command at the front of the queue.">
<polygon fill="white" stroke="black" points="1004,-366 1004,-386 1174,-386 1174,-366 1004,-366"/>
<text text-anchor="middle" x="1089" y="-373" font-family="FreeSans.ttf" font-size="10.00">SocketClient::ProcessCommand</text>
</a>
</g>
<!-- Node5&#45;&gt;Node26 -->
<g id="edge80" class="edge"><title>Node5&#45;&gt;Node26</title>
<path fill="none" stroke="midnightblue" d="M709.11,-441.454C727.82,-426.345 757.836,-404.902 788,-395 858.146,-371.973 942.333,-368.548 1003.81,-370.117"/>
<polygon fill="midnightblue" stroke="midnightblue" points="706.815,-438.81 701.349,-447.887 711.282,-444.2 706.815,-438.81"/>
</g>
<!-- Node6&#45;&gt;Node5 -->
<g id="edge14" class="edge"><title>Node6&#45;&gt;Node5</title>
<path fill="none" stroke="midnightblue" d="M798.668,-533.952C795.026,-532.736 791.453,-531.418 788,-530 750.58,-514.632 711.814,-484.824 696.645,-468.227"/>
<polygon fill="midnightblue" stroke="midnightblue" points="797.848,-537.362 808.434,-536.937 799.894,-530.667 797.848,-537.362"/>
</g>
<!-- Node7&#45;&gt;Node5 -->
<g id="edge18" class="edge"><title>Node7&#45;&gt;Node5</title>
<path fill="none" stroke="midnightblue" d="M793.84,-493.346C791.874,-492.898 789.925,-492.448 788,-492 758.245,-485.067 723.664,-476.009 704.564,-468.092"/>
<polygon fill="midnightblue" stroke="midnightblue" points="793.262,-496.803 803.784,-495.569 794.789,-489.972 793.262,-496.803"/>
</g>
<!-- Node8&#45;&gt;Node5 -->
<g id="edge22" class="edge"><title>Node8&#45;&gt;Node5</title>
<path fill="none" stroke="midnightblue" d="M797.756,-464.685C782.29,-464.832 766.316,-464.73 751.558,-464.379"/>
<polygon fill="midnightblue" stroke="midnightblue" points="797.875,-468.184 807.829,-464.553 797.784,-461.185 797.875,-468.184"/>
</g>
<!-- Node9&#45;&gt;Node5 -->
<g id="edge26" class="edge"><title>Node9&#45;&gt;Node5</title>
<path fill="none" stroke="midnightblue" d="M785.481,-717.028C706.362,-642.486 692.67,-506.692 690.411,-468.101"/>
<polygon fill="midnightblue" stroke="midnightblue" points="783.553,-719.998 793.344,-724.045 788.214,-714.775 783.553,-719.998"/>
</g>
<!-- Node10&#45;&gt;Node5 -->
<g id="edge30" class="edge"><title>Node10&#45;&gt;Node5</title>
<path fill="none" stroke="midnightblue" d="M851.258,-426.984C833.322,-431.998 809.192,-437.062 788,-442 776.201,-444.749 763.642,-447.833 751.591,-450.694"/>
<polygon fill="midnightblue" stroke="midnightblue" points="852.469,-430.275 861.034,-424.039 850.449,-423.572 852.469,-430.275"/>
</g>
<!-- Node11&#45;&gt;Node5 -->
<g id="edge34" class="edge"><title>Node11&#45;&gt;Node5</title>
<path fill="none" stroke="midnightblue" d="M818.327,-313.177C807.634,-316.887 797.033,-321.635 788,-328 741.416,-360.824 709.371,-423.16 696.42,-447.996"/>
<polygon fill="midnightblue" stroke="midnightblue" points="819.672,-316.422 828.132,-310.045 817.541,-309.754 819.672,-316.422"/>
</g>
<!-- Node12&#45;&gt;Node5 -->
<g id="edge38" class="edge"><title>Node12&#45;&gt;Node5</title>
<path fill="none" stroke="midnightblue" d="M814.498,-263.357C804.962,-267.008 795.744,-271.716 788,-278 729.738,-325.278 702.253,-416.419 693.37,-447.643"/>
<polygon fill="midnightblue" stroke="midnightblue" points="815.789,-266.614 824.097,-260.04 813.502,-259.998 815.789,-266.614"/>
</g>
<!-- Node13&#45;&gt;Node5 -->
<g id="edge42" class="edge"><title>Node13&#45;&gt;Node5</title>
<path fill="none" stroke="midnightblue" d="M820.445,-212.336C808.734,-215.525 797.2,-220.331 788,-228 715.487,-288.442 695.964,-411.078 691.315,-447.759"/>
<polygon fill="midnightblue" stroke="midnightblue" points="821.351,-215.719 830.277,-210.011 819.74,-208.907 821.351,-215.719"/>
</g>
<!-- Node14&#45;&gt;Node5 -->
<g id="edge46" class="edge"><title>Node14&#45;&gt;Node5</title>
<path fill="none" stroke="midnightblue" d="M818.363,-174.508C807.297,-177.719 796.547,-182.512 788,-190 745.984,-226.806 704.136,-403.355 692.917,-447.986"/>
<polygon fill="midnightblue" stroke="midnightblue" points="819.272,-177.889 828.122,-172.065 817.572,-171.098 819.272,-177.889"/>
</g>
<!-- Node15&#45;&gt;Node5 -->
<g id="edge50" class="edge"><title>Node15&#45;&gt;Node5</title>
<path fill="none" stroke="midnightblue" d="M797.55,-649.936C794.206,-648.191 791.002,-646.219 788,-644 725.862,-598.063 698.148,-500.361 691.582,-468.079"/>
<polygon fill="midnightblue" stroke="midnightblue" points="796.13,-653.136 806.687,-654.039 798.998,-646.75 796.13,-653.136"/>
</g>
<!-- Node16&#45;&gt;Node5 -->
<g id="edge54" class="edge"><title>Node16&#45;&gt;Node5</title>
<path fill="none" stroke="midnightblue" d="M800.027,-612.538C795.822,-610.658 791.778,-608.488 788,-606 734.736,-570.922 701.587,-496.082 692.529,-468.145"/>
<polygon fill="midnightblue" stroke="midnightblue" points="798.859,-615.839 809.448,-616.201 801.396,-609.315 798.859,-615.839"/>
</g>
<!-- Node17&#45;&gt;Node5 -->
<g id="edge58" class="edge"><title>Node17&#45;&gt;Node5</title>
<path fill="none" stroke="midnightblue" d="M802.613,-690.886C797.386,-688.493 792.439,-685.558 788,-682 716.937,-625.051 695.426,-505.19 690.966,-468.487"/>
<polygon fill="midnightblue" stroke="midnightblue" points="801.686,-694.28 812.275,-694.626 804.212,-687.752 801.686,-694.28"/>
</g>
<!-- Node18&#45;&gt;Node5 -->
<g id="edge62" class="edge"><title>Node18&#45;&gt;Node5</title>
<path fill="none" stroke="midnightblue" d="M808.364,-576.639C801.267,-574.358 794.344,-571.501 788,-568 743.078,-543.21 705.911,-491.127 694.004,-468.242"/>
<polygon fill="midnightblue" stroke="midnightblue" points="807.536,-580.042 818.111,-579.399 809.443,-573.307 807.536,-580.042"/>
</g>
<!-- Node19&#45;&gt;Node20 -->
<g id="edge66" class="edge"><title>Node19&#45;&gt;Node20</title>
<path fill="none" stroke="midnightblue" d="M939.936,-331.84C949.901,-328.96 959.666,-324.847 968,-319 1037.8,-270.034 1075.46,-166.669 1085.93,-134.07"/>
<polygon fill="midnightblue" stroke="midnightblue" points="938.806,-328.514 929.948,-334.328 940.498,-335.307 938.806,-328.514"/>
</g>
<!-- Node23 -->
<g id="node59" class="node"><title>Node23</title>
<a xlink:href="classSocketServer.xhtml#afdbc60c3bc840875d2214b59c6213f63" target="_top" xlink:title="Accept a new connection on the listening port.">
<polygon fill="white" stroke="black" points="1029,-328 1029,-348 1149,-348 1149,-328 1029,-328"/>
<text text-anchor="middle" x="1089" y="-335" font-family="FreeSans.ttf" font-size="10.00">SocketServer::Accept</text>
</a>
</g>
<!-- Node19&#45;&gt;Node23 -->
<g id="edge72" class="edge"><title>Node19&#45;&gt;Node23</title>
<path fill="none" stroke="midnightblue" d="M939.731,-338C967.855,-338 1001.02,-338 1028.94,-338"/>
<polygon fill="midnightblue" stroke="midnightblue" points="939.616,-334.5 929.616,-338 939.616,-341.5 939.616,-334.5"/>
</g>
<!-- Node21 -->
<g id="node55" class="node"><title>Node21</title>
<a xlink:href="namespaceServer.xhtml#a19a1e493e1fb50a56d9c77332543d565" target="_top" xlink:title="Start the NAMS Server. Responsible for calling all critical boot&#45;time functions such as SocketServer ...">
<polygon fill="white" stroke="black" points="1223,-76 1223,-96 1313,-96 1313,-76 1223,-76"/>
<text text-anchor="middle" x="1268" y="-83" font-family="FreeSans.ttf" font-size="10.00">Server::Startup</text>
</a>
</g>
<!-- Node20&#45;&gt;Node21 -->
<g id="edge68" class="edge"><title>Node20&#45;&gt;Node21</title>
<path fill="none" stroke="midnightblue" d="M1146.47,-111.8C1171.16,-106.559 1199.59,-100.522 1222.75,-95.6063"/>
<polygon fill="midnightblue" stroke="midnightblue" points="1145.55,-108.416 1136.5,-113.916 1147.01,-115.263 1145.55,-108.416"/>
</g>
<!-- Node22 -->
<g id="node57" class="node"><title>Node22</title>
<a xlink:href="main_8cpp.xhtml#ad53223b8779f25caeddb70a3b9172967" target="_top" xlink:title="The default function required to execute the server.">
<polygon fill="white" stroke="black" points="1488.5,-284 1488.5,-304 1529.5,-304 1529.5,-284 1488.5,-284"/>
<text text-anchor="middle" x="1509" y="-291" font-family="FreeSans.ttf" font-size="10.00">main</text>
</a>
</g>
<!-- Node21&#45;&gt;Node22 -->
<g id="edge70" class="edge"><title>Node21&#45;&gt;Node22</title>
<path fill="none" stroke="midnightblue" d="M1287.42,-102.764C1335.43,-144.195 1458.56,-250.468 1497.21,-283.825"/>
<polygon fill="midnightblue" stroke="midnightblue" points="1289.48,-99.9164 1279.62,-96.0323 1284.91,-105.216 1289.48,-99.9164"/>
</g>
<!-- Node24 -->
<g id="node61" class="node"><title>Node24</title>
<a xlink:href="namespaceServer.xhtml#a39dbe16fdc8c5f6fbd678c6540fbcd6c" target="_top" xlink:title="Poll all SocketClient objects that are communicating with the associated SocketServer object...">
<polygon fill="white" stroke="black" points="1213.5,-328 1213.5,-348 1322.5,-348 1322.5,-328 1213.5,-328"/>
<text text-anchor="middle" x="1268" y="-335" font-family="FreeSans.ttf" font-size="10.00">Server::PollSockets</text>
</a>
</g>
<!-- Node23&#45;&gt;Node24 -->
<g id="edge74" class="edge"><title>Node23&#45;&gt;Node24</title>
<path fill="none" stroke="midnightblue" d="M1159.27,-338C1177.28,-338 1196.39,-338 1213.48,-338"/>
<polygon fill="midnightblue" stroke="midnightblue" points="1159.1,-334.5 1149.1,-338 1159.1,-341.5 1159.1,-334.5"/>
</g>
<!-- Node25 -->
<g id="node63" class="node"><title>Node25</title>
<a xlink:href="namespaceServer.xhtml#a50b81aa91d8fdaee6f52c5c5ec987990" target="_top" xlink:title="The core update loop of NAMS. This loop spawns all other subsystem update routines and then sleeps fo...">
<polygon fill="white" stroke="black" points="1362.5,-328 1362.5,-348 1451.5,-348 1451.5,-328 1362.5,-328"/>
<text text-anchor="middle" x="1407" y="-335" font-family="FreeSans.ttf" font-size="10.00">Server::Update</text>
</a>
</g>
<!-- Node24&#45;&gt;Node25 -->
<g id="edge76" class="edge"><title>Node24&#45;&gt;Node25</title>
<path fill="none" stroke="midnightblue" d="M1332.57,-338C1342.69,-338 1352.94,-338 1362.47,-338"/>
<polygon fill="midnightblue" stroke="midnightblue" points="1332.54,-334.5 1322.54,-338 1332.54,-341.5 1332.54,-334.5"/>
</g>
<!-- Node25&#45;&gt;Node22 -->
<g id="edge78" class="edge"><title>Node25&#45;&gt;Node22</title>
<path fill="none" stroke="midnightblue" d="M1439.92,-323.798C1455.89,-316.912 1474.56,-308.854 1488.47,-302.856"/>
<polygon fill="midnightblue" stroke="midnightblue" points="1438.2,-320.731 1430.4,-327.906 1440.97,-327.158 1438.2,-320.731"/>
</g>
<!-- Node27 -->
<g id="node68" class="node"><title>Node27</title>
<a xlink:href="namespaceServer.xhtml#a2b4cec469bb99c2a45e49de5ba74d1ae" target="_top" xlink:title="Processes input from all active SocketClient objects.">
<polygon fill="white" stroke="black" points="1210,-366 1210,-386 1326,-386 1326,-366 1210,-366"/>
<text text-anchor="middle" x="1268" y="-373" font-family="FreeSans.ttf" font-size="10.00">Server::ProcessInput</text>
</a>
</g>
<!-- Node26&#45;&gt;Node27 -->
<g id="edge82" class="edge"><title>Node26&#45;&gt;Node27</title>
<path fill="none" stroke="midnightblue" d="M1184.25,-376C1192.93,-376 1201.54,-376 1209.75,-376"/>
<polygon fill="midnightblue" stroke="midnightblue" points="1184.04,-372.5 1174.04,-376 1184.04,-379.5 1184.04,-372.5"/>
</g>
<!-- Node27&#45;&gt;Node25 -->
<g id="edge84" class="edge"><title>Node27&#45;&gt;Node25</title>
<path fill="none" stroke="midnightblue" d="M1314.62,-363.255C1332.63,-358.331 1352.96,-352.775 1369.94,-348.131"/>
<polygon fill="midnightblue" stroke="midnightblue" points="1313.61,-359.903 1304.88,-365.916 1315.45,-366.655 1313.61,-359.903"/>
</g>
<!-- Node29 -->
<g id="node74" class="node"><title>Node29</title>
<a xlink:href="classCharacter.xhtml#a829a28ec5f8573f3f53684ac4dcb75bb" target="_top" xlink:title="Create a new character.">
<polygon fill="white" stroke="black" points="645,-701 645,-721 735,-721 735,-701 645,-701"/>
<text text-anchor="middle" x="690" y="-708" font-family="FreeSans.ttf" font-size="10.00">Character::New</text>
</a>
</g>
<!-- Node28&#45;&gt;Node29 -->
<g id="edge90" class="edge"><title>Node28&#45;&gt;Node29</title>
<path fill="none" stroke="midnightblue" d="M204.532,-345.224C290.446,-409.956 607.417,-648.778 676.605,-700.907"/>
<polygon fill="midnightblue" stroke="midnightblue" points="206.393,-342.244 196.3,-339.021 202.181,-347.834 206.393,-342.244"/>
</g>
<!-- Node29&#45;&gt;Node9 -->
<g id="edge92" class="edge"><title>Node29&#45;&gt;Node9</title>
<path fill="none" stroke="midnightblue" d="M745.175,-716.576C760.235,-718.098 776.909,-719.783 793.209,-721.431"/>
<polygon fill="midnightblue" stroke="midnightblue" points="745.332,-713.074 735.031,-715.551 744.628,-720.039 745.332,-713.074"/>
</g>
<!-- Node29&#45;&gt;Node17 -->
<g id="edge94" class="edge"><title>Node29&#45;&gt;Node17</title>
<path fill="none" stroke="midnightblue" d="M745.094,-705.432C766.16,-703.303 790.391,-700.854 812.347,-698.635"/>
<polygon fill="midnightblue" stroke="midnightblue" points="744.628,-701.961 735.031,-706.449 745.332,-708.926 744.628,-701.961"/>
</g>
<!-- Node29&#45;&gt;Node20 -->
<g id="edge96" class="edge"><title>Node29&#45;&gt;Node20</title>
<path fill="none" stroke="midnightblue" d="M715.713,-726.188C770.003,-756.07 897.142,-814.174 968,-749 1003.29,-716.543 992.264,-365.486 1004,-319 1022.8,-244.521 1067.16,-162.34 1083.14,-134.14"/>
<polygon fill="midnightblue" stroke="midnightblue" points="717.181,-722.998 706.75,-721.144 713.748,-729.099 717.181,-722.998"/>
</g>
<!-- Node31 -->
<g id="node81" class="node"><title>Node31</title>
<a xlink:href="classLocation.xhtml#a6396aba5eab9bcbabb000c3f6478e1a2" target="_top" xlink:title="Create a new location.">
<polygon fill="white" stroke="black" points="310.5,-38 310.5,-58 393.5,-58 393.5,-38 310.5,-38"/>
<text text-anchor="middle" x="352" y="-45" font-family="FreeSans.ttf" font-size="10.00">Location::New</text>
</a>
</g>
<!-- Node30&#45;&gt;Node31 -->
<g id="edge100" class="edge"><title>Node30&#45;&gt;Node31</title>
<path fill="none" stroke="midnightblue" d="M251.167,-48C271.171,-48 292.444,-48 310.269,-48"/>
<polygon fill="midnightblue" stroke="midnightblue" points="251.16,-44.5001 241.16,-48 251.16,-51.5001 251.16,-44.5001"/>
</g>
<!-- Node32 -->
<g id="node83" class="node"><title>Node32</title>
<a xlink:href="namespaceServer.xhtml#a9b8efad79a32f2356d431788449e1f82" target="_top" xlink:title="Search all subfolders of CFG_DAT_DIR_WORLD and call Location::New() to load each file found to memory...">
<polygon fill="white" stroke="black" points="628.5,-38 628.5,-58 751.5,-58 751.5,-38 628.5,-38"/>
<text text-anchor="middle" x="690" y="-45" font-family="FreeSans.ttf" font-size="10.00">Server::LoadLocations</text>
</a>
</g>
<!-- Node31&#45;&gt;Node32 -->
<g id="edge102" class="edge"><title>Node31&#45;&gt;Node32</title>
<path fill="none" stroke="midnightblue" d="M403.857,-48C464.252,-48 563.933,-48 628.266,-48"/>
<polygon fill="midnightblue" stroke="midnightblue" points="403.784,-44.5001 393.784,-48 403.784,-51.5001 403.784,-44.5001"/>
</g>
<!-- Node32&#45;&gt;Node21 -->
<g id="edge104" class="edge"><title>Node32&#45;&gt;Node21</title>
<path fill="none" stroke="midnightblue" d="M761.835,-52.7227C882.652,-60.6657 1123.09,-76.4733 1222.92,-83.0366"/>
<polygon fill="midnightblue" stroke="midnightblue" points="761.79,-49.2123 751.582,-52.0487 761.331,-56.1972 761.79,-49.2123"/>
</g>
<!-- Node33&#45;&gt;Node21 -->
<g id="edge110" class="edge"><title>Node33&#45;&gt;Node21</title>
<path fill="none" stroke="midnightblue" d="M433.827,-10C502.28,-10 602.51,-10 690,-10 690,-10 690,-10 878,-10 1014.24,-10 1172.39,-55.2343 1237.55,-75.9078"/>
<polygon fill="midnightblue" stroke="midnightblue" points="433.542,-6.5001 423.542,-10 433.542,-13.5001 433.542,-6.5001"/>
</g>
</g>
</svg>
        <g id="navigator" transform="translate(0 0)" fill="#404254">
                <rect fill="#f2f5e9" fill-opacity="0.5" stroke="#606060" stroke-width=".5" x="0" y="0" width="60" height="60"/>
                <use id="zoomplus" xlink:href="#zoomPlus" x="17" y="9" onmousedown="handleZoom(evt,'in')"/>
                <use id="zoomminus" xlink:href="#zoomMin" x="42" y="9" onmousedown="handleZoom(evt,'out')"/>
                <use id="reset" xlink:href="#resetDef" x="30" y="36" onmousedown="handleReset()"/>
                <g id="arrowUp" xlink:href="#dirArrow" transform="translate(30 24)" onmousedown="handlePan(0,-1)">
                  <use xlink:href="#rim" fill="#404040">
                        <set attributeName="fill" to="#808080" begin="arrowUp.mouseover" end="arrowUp.mouseout"/>
                  </use>
                  <path fill="none" stroke="white" stroke-width="1.5" d="M0,-3.0v7 M-2.5,-0.5L0,-3.0L2.5,-0.5"/>
                </g>
                <g id="arrowRight" xlink:href="#dirArrow" transform="rotate(90) translate(36 -43)" onmousedown="handlePan(1,0)">
                  <use xlink:href="#rim" fill="#404040">
                        <set attributeName="fill" to="#808080" begin="arrowRight.mouseover" end="arrowRight.mouseout"/>
                  </use>
                  <path fill="none" stroke="white" stroke-width="1.5" d="M0,-3.0v7 M-2.5,-0.5L0,-3.0L2.5,-0.5"/>
                </g>
                <g id="arrowDown" xlink:href="#dirArrow" transform="rotate(180) translate(-30 -48)" onmousedown="handlePan(0,1)">
                  <use xlink:href="#rim" fill="#404040">
                        <set attributeName="fill" to="#808080" begin="arrowDown.mouseover" end="arrowDown.mouseout"/>
                  </use>
                  <path fill="none" stroke="white" stroke-width="1.5" d="M0,-3.0v7 M-2.5,-0.5L0,-3.0L2.5,-0.5"/>
                </g>
                <g id="arrowLeft" xlink:href="#dirArrow" transform="rotate(270) translate(-36 17)" onmousedown="handlePan(-1,0)">
                  <use xlink:href="#rim" fill="#404040">
                        <set attributeName="fill" to="#808080" begin="arrowLeft.mouseover" end="arrowLeft.mouseout"/>
                  </use>
                  <path fill="none" stroke="white" stroke-width="1.5" d="M0,-3.0v7 M-2.5,-0.5L0,-3.0L2.5,-0.5"/>
                </g>
        </g>
        <svg viewBox="0 0 15 15" width="100%" height="30px" preserveAspectRatio="xMaxYMin meet">
         <g id="arrow_out" transform="scale(0.3 0.3)">
          <a xlink:href="namespaceUtils_a4a4d3dfd2ddb691bc5bcff82252c058b_icgraph_org.svg" target="_base">
           <rect id="button" ry="5" rx="5" y="6" x="6" height="38" width="38"
                fill="#f2f5e9" fill-opacity="0.5" stroke="#606060" stroke-width="1.0"/>
           <path id="arrow"
             d="M 11.500037,31.436501 C 11.940474,20.09759 22.043105,11.32322 32.158766,21.979434 L 37.068811,17.246167 C 37.068811,17.246167 37.088388,32 37.088388,32 L 22.160133,31.978069 C 22.160133,31.978069 26.997745,27.140456 26.997745,27.140456 C 18.528582,18.264221 13.291696,25.230495 11.500037,31.436501 z"
             style="fill:#404040;"/>
          </a>
         </g>
        </svg>
</svg>
