<?xml version="1.0" encoding="UTF-8" standalone="no"?>
<!DOCTYPE svg PUBLIC "-//W3C//DTD SVG 1.1//EN"
 "http://www.w3.org/Graphics/SVG/1.1/DTD/svg11.dtd">
<!-- Generated by graphviz version 2.26.3 (20100126.1600)
 -->
<!-- Title: Server::ReloadCommand Pages: 1 -->
<svg width="606pt" height="306pt"
 viewBox="0.00 0.00 606.00 306.00" xmlns="http://www.w3.org/2000/svg" xmlns:xlink="http://www.w3.org/1999/xlink">
<g id="graph1" class="graph" transform="scale(1 1) rotate(0) translate(4 302)">
<title>Server::ReloadCommand</title>
<polygon fill="white" stroke="white" points="-4,5 -4,-302 603,-302 603,5 -4,5"/>
<!-- Node1 -->
<g id="node1" class="node"><title>Node1</title>
<polygon fill="#bfbfbf" stroke="black" points="0,-177 0,-197 136,-197 136,-177 0,-177"/>
<text text-anchor="middle" x="68" y="-184" font-family="FreeSans.ttf" font-size="10.00">Server::ReloadCommand</text>
</g>
<!-- Node2 -->
<g id="node3" class="node"><title>Node2</title>
<a xlink:href="namespaceHandler.xhtml#a02ba68c0c416219816c97189ea8bae4d" target="_top" xlink:title="Locates a Command associated with the game.">
<polygon fill="white" stroke="black" points="172.5,-240 172.5,-260 301.5,-260 301.5,-240 172.5,-240"/>
<text text-anchor="middle" x="237" y="-247" font-family="FreeSans.ttf" font-size="10.00">Handler::FindCommand</text>
</a>
</g>
<!-- Node1&#45;&gt;Node2 -->
<g id="edge2" class="edge"><title>Node1&#45;&gt;Node2</title>
<path fill="none" stroke="midnightblue" d="M95.1528,-197.122C123.61,-207.73 168.498,-224.464 200.143,-236.26"/>
<polygon fill="midnightblue" stroke="midnightblue" points="199.322,-239.69 209.915,-239.903 201.767,-233.13 199.322,-239.69"/>
</g>
<!-- Node6 -->
<g id="node11" class="node"><title>Node6</title>
<a xlink:href="classCommand.xhtml#a63b8f3fc40a0cc9e02fcaa2ea2329c40" target="_top" xlink:title="Return the filename of the associated Plugin object.">
<polygon fill="white" stroke="black" points="190,-196 190,-216 284,-216 284,-196 190,-196"/>
<text text-anchor="middle" x="237" y="-203" font-family="FreeSans.ttf" font-size="10.00">Command::gFile</text>
</a>
</g>
<!-- Node1&#45;&gt;Node6 -->
<g id="edge10" class="edge"><title>Node1&#45;&gt;Node6</title>
<path fill="none" stroke="midnightblue" d="M136.252,-194.673C150.7,-196.298 165.807,-197.996 179.796,-199.569"/>
<polygon fill="midnightblue" stroke="midnightblue" points="179.431,-203.05 189.759,-200.689 180.213,-196.093 179.431,-203.05"/>
</g>
<!-- Node7 -->
<g id="node13" class="node"><title>Node7</title>
<a xlink:href="classCommand.xhtml#afc0d482427309deb78e094fa787d1477" target="_top" xlink:title="Unload a command from memory that was previously loaded via Command::New().">
<polygon fill="white" stroke="black" points="185,-158 185,-178 289,-178 289,-158 185,-158"/>
<text text-anchor="middle" x="237" y="-165" font-family="FreeSans.ttf" font-size="10.00">Command::Delete</text>
</a>
</g>
<!-- Node1&#45;&gt;Node7 -->
<g id="edge12" class="edge"><title>Node1&#45;&gt;Node7</title>
<path fill="none" stroke="midnightblue" d="M136.252,-179.327C148.919,-177.903 162.093,-176.421 174.576,-175.018"/>
<polygon fill="midnightblue" stroke="midnightblue" points="175.327,-178.456 184.873,-173.86 174.545,-171.5 175.327,-178.456"/>
</g>
<!-- Node8 -->
<g id="node15" class="node"><title>Node8</title>
<a xlink:href="classCommand.xhtml#a6b8eed27f76619d07effd72372a4be48" target="_top" xlink:title="Load a plugin command from CFG_DAT_DIR_OBJ.">
<polygon fill="white" stroke="black" points="190.5,-117 190.5,-137 283.5,-137 283.5,-117 190.5,-117"/>
<text text-anchor="middle" x="237" y="-124" font-family="FreeSans.ttf" font-size="10.00">Command::New</text>
</a>
</g>
<!-- Node1&#45;&gt;Node8 -->
<g id="edge14" class="edge"><title>Node1&#45;&gt;Node8</title>
<path fill="none" stroke="midnightblue" d="M94.8719,-176.981C115.834,-169.214 145.707,-158.252 172,-149 180.158,-146.129 188.916,-143.118 197.278,-140.276"/>
<polygon fill="midnightblue" stroke="midnightblue" points="198.502,-143.557 206.852,-137.036 196.258,-136.926 198.502,-143.557"/>
</g>
<!-- Node3 -->
<g id="node5" class="node"><title>Node3</title>
<a xlink:href="namespaceUtils.xhtml#a9b70f9dd0af906c806695b35488e778f" target="_top" xlink:title="Returns a string converted to all lowercase letters.">
<polygon fill="white" stroke="black" points="371.5,-278 371.5,-298 442.5,-298 442.5,-278 371.5,-278"/>
<text text-anchor="middle" x="407" y="-285" font-family="FreeSans.ttf" font-size="10.00">Utils::Lower</text>
</a>
</g>
<!-- Node2&#45;&gt;Node3 -->
<g id="edge4" class="edge"><title>Node2&#45;&gt;Node3</title>
<path fill="none" stroke="midnightblue" d="M282.111,-260.084C306.664,-265.572 336.96,-272.344 361.563,-277.844"/>
<polygon fill="midnightblue" stroke="midnightblue" points="360.856,-281.272 371.379,-280.038 362.383,-274.44 360.856,-281.272"/>
</g>
<!-- Node4 -->
<g id="node7" class="node"><title>Node4</title>
<a xlink:href="classCommand.xhtml#a7e591e2b82f59fd73d9b25daaa192021" target="_top" xlink:title="Return the name of the associated Plugin object.">
<polygon fill="white" stroke="black" points="353,-240 353,-260 461,-260 461,-240 353,-240"/>
<text text-anchor="middle" x="407" y="-247" font-family="FreeSans.ttf" font-size="10.00">Command::gName</text>
</a>
</g>
<!-- Node2&#45;&gt;Node4 -->
<g id="edge6" class="edge"><title>Node2&#45;&gt;Node4</title>
<path fill="none" stroke="midnightblue" d="M301.755,-250C315.214,-250 329.392,-250 342.83,-250"/>
<polygon fill="midnightblue" stroke="midnightblue" points="342.937,-253.5 352.937,-250 342.937,-246.5 342.937,-253.5"/>
</g>
<!-- Node5 -->
<g id="node9" class="node"><title>Node5</title>
<a xlink:href="classPlugin.xhtml#af031147ea2e2d7e7f73f7edb9a5921ae" target="_top" xlink:title="Return the name of the object.">
<polygon fill="white" stroke="black" points="512,-240 512,-260 598,-260 598,-240 512,-240"/>
<text text-anchor="middle" x="555" y="-247" font-family="FreeSans.ttf" font-size="10.00">Plugin::gName</text>
</a>
</g>
<!-- Node4&#45;&gt;Node5 -->
<g id="edge8" class="edge"><title>Node4&#45;&gt;Node5</title>
<path fill="none" stroke="midnightblue" d="M461.269,-250C474.419,-250 488.465,-250 501.575,-250"/>
<polygon fill="midnightblue" stroke="midnightblue" points="501.854,-253.5 511.854,-250 501.853,-246.5 501.854,-253.5"/>
</g>
<!-- Node8&#45;&gt;Node4 -->
<g id="edge28" class="edge"><title>Node8&#45;&gt;Node4</title>
<path fill="none" stroke="midnightblue" d="M282.692,-137.013C289.719,-140.022 296.466,-143.93 302,-149 331.346,-175.889 307.891,-204.968 338,-231 339.795,-232.552 341.705,-233.978 343.705,-235.288"/>
<polygon fill="midnightblue" stroke="midnightblue" points="342.5,-238.617 352.956,-240.323 345.846,-232.468 342.5,-238.617"/>
</g>
<!-- Node9 -->
<g id="node17" class="node"><title>Node9</title>
<a xlink:href="namespaceUtils.xhtml#ad21617b756ef242fbc66e63dec3e4e4d" target="_top" xlink:title="Returns a string consisting of directory/file.ext.">
<polygon fill="white" stroke="black" points="368,-202 368,-222 446,-222 446,-202 368,-202"/>
<text text-anchor="middle" x="407" y="-209" font-family="FreeSans.ttf" font-size="10.00">Utils::DirPath</text>
</a>
</g>
<!-- Node8&#45;&gt;Node9 -->
<g id="edge16" class="edge"><title>Node8&#45;&gt;Node9</title>
<path fill="none" stroke="midnightblue" d="M278.198,-137.063C286.493,-140.132 294.85,-144.048 302,-149 322.772,-163.386 316.822,-179.219 338,-193 344.157,-197.007 351.151,-200.176 358.267,-202.681"/>
<polygon fill="midnightblue" stroke="midnightblue" points="357.389,-206.074 367.977,-205.702 359.468,-199.39 357.389,-206.074"/>
</g>
<!-- Node10 -->
<g id="node19" class="node"><title>Node10</title>
<a xlink:href="classServer_1_1Config.xhtml#a19e57fb735f4ff3787e9e418e5789365" target="_top" xlink:title="Returns a copy of the disabled commands list.">
<polygon fill="white" stroke="black" points="338.5,-152 338.5,-184 475.5,-184 475.5,-152 338.5,-152"/>
<text text-anchor="start" x="346.5" y="-171" font-family="FreeSans.ttf" font-size="10.00">Server::Config::gDisabled</text>
<text text-anchor="middle" x="407" y="-159" font-family="FreeSans.ttf" font-size="10.00">Commands</text>
</a>
</g>
<!-- Node8&#45;&gt;Node10 -->
<g id="edge18" class="edge"><title>Node8&#45;&gt;Node10</title>
<path fill="none" stroke="midnightblue" d="M278.587,-137.03C294.262,-140.81 312.63,-145.24 330.493,-149.548"/>
<polygon fill="midnightblue" stroke="midnightblue" points="329.802,-152.982 340.344,-151.924 331.444,-146.177 329.802,-152.982"/>
</g>
<!-- Node11 -->
<g id="node21" class="node"><title>Node11</title>
<a xlink:href="namespaceUtils.xhtml#a7d40818a602fb21db4b4f0917705f85b" target="_top" xlink:title="Determines if a file path is a file or directory on disk.">
<polygon fill="white" stroke="black" points="376.5,-114 376.5,-134 437.5,-134 437.5,-114 376.5,-114"/>
<text text-anchor="middle" x="407" y="-121" font-family="FreeSans.ttf" font-size="10.00">Utils::iFile</text>
</a>
</g>
<!-- Node8&#45;&gt;Node11 -->
<g id="edge20" class="edge"><title>Node8&#45;&gt;Node11</title>
<path fill="none" stroke="midnightblue" d="M283.903,-126.172C309.702,-125.717 341.403,-125.158 366.174,-124.72"/>
<polygon fill="midnightblue" stroke="midnightblue" points="366.391,-128.217 376.328,-124.541 366.268,-121.218 366.391,-128.217"/>
</g>
<!-- Node12 -->
<g id="node23" class="node"><title>Node12</title>
<a xlink:href="classPlugin.xhtml#af51cf34cdaa8ce00ec838b26b465f859" target="_top" xlink:title="Sets a pointer to the object that initialized this Plugin.">
<polygon fill="white" stroke="black" points="365.5,-76 365.5,-96 448.5,-96 448.5,-76 365.5,-76"/>
<text text-anchor="middle" x="407" y="-83" font-family="FreeSans.ttf" font-size="10.00">Plugin::sCaller</text>
</a>
</g>
<!-- Node8&#45;&gt;Node12 -->
<g id="edge22" class="edge"><title>Node8&#45;&gt;Node12</title>
<path fill="none" stroke="midnightblue" d="M278.587,-116.97C301.74,-111.386 330.769,-104.385 355.366,-98.4529"/>
<polygon fill="midnightblue" stroke="midnightblue" points="356.353,-101.815 365.253,-96.0683 354.712,-95.0105 356.353,-101.815"/>
</g>
<!-- Node13 -->
<g id="node25" class="node"><title>Node13</title>
<a xlink:href="classPlugin.xhtml#a669870333a99490518fdd59054deaade" target="_top" xlink:title="Return a bool value to tie into other object types.">
<polygon fill="white" stroke="black" points="368,-38 368,-58 446,-58 446,-38 368,-38"/>
<text text-anchor="middle" x="407" y="-45" font-family="FreeSans.ttf" font-size="10.00">Plugin::gBool</text>
</a>
</g>
<!-- Node8&#45;&gt;Node13 -->
<g id="edge24" class="edge"><title>Node8&#45;&gt;Node13</title>
<path fill="none" stroke="midnightblue" d="M251.072,-116.979C270.02,-103.883 305.159,-80.977 338,-67 344.299,-64.3193 351.082,-61.9125 357.85,-59.7857"/>
<polygon fill="midnightblue" stroke="midnightblue" points="359.101,-63.0657 367.696,-56.871 357.114,-56.3536 359.101,-63.0657"/>
</g>
<!-- Node14 -->
<g id="node27" class="node"><title>Node14</title>
<a xlink:href="classPlugin.xhtml#aaabc3015bb64b744ac26c14318b9cb43" target="_top" xlink:title="Return a uint_t value to tie into other object types.">
<polygon fill="white" stroke="black" points="368.5,-0 368.5,-20 445.5,-20 445.5,-0 368.5,-0"/>
<text text-anchor="middle" x="407" y="-7" font-family="FreeSans.ttf" font-size="10.00">Plugin::gUint</text>
</a>
</g>
<!-- Node8&#45;&gt;Node14 -->
<g id="edge26" class="edge"><title>Node8&#45;&gt;Node14</title>
<path fill="none" stroke="midnightblue" d="M244.426,-116.988C259.689,-97.1331 296.643,-52.6528 338,-29 344.377,-25.3529 351.489,-22.3769 358.656,-19.9567"/>
<polygon fill="midnightblue" stroke="midnightblue" points="359.853,-23.2509 368.4,-16.9899 357.814,-16.5544 359.853,-23.2509"/>
</g>
</g>
</svg>
