<?xml version="1.0" encoding="UTF-8" standalone="no"?>
<!DOCTYPE svg PUBLIC "-//W3C//DTD SVG 1.1//EN"
 "http://www.w3.org/Graphics/SVG/1.1/DTD/svg11.dtd">
<!-- Generated by graphviz version 2.26.3 (20100126.1600)
 -->
<!-- Title: G Pages: 1 -->
<svg width="290pt" height="110pt"
 viewBox="0.00 0.00 290.00 110.00" xmlns="http://www.w3.org/2000/svg" xmlns:xlink="http://www.w3.org/1999/xlink">
<g id="graph1" class="graph" transform="scale(1 1) rotate(0) translate(4 106)">
<title>G</title>
<polygon fill="white" stroke="white" points="-4,5 -4,-106 287,-106 287,5 -4,5"/>
<!-- Node1 -->
<g id="node1" class="node"><title>Node1</title>
<polygon fill="#bfbfbf" stroke="black" points="0,-40.5 0,-61.5 130,-61.5 130,-40.5 0,-40.5"/>
<text text-anchor="middle" x="65" y="-48.5" font-family="FreeSans.ttf" font-size="10.00">Handler::CheckCreating</text>
</g>
<!-- Node2 -->
<g id="node3" class="node"><title>Node2</title>
<a xlink:href="classSocketClient.xhtml#aa0badca8f614127e98281995c02cb385" target="_top" xlink:title="Returns the connection state of the client from SOC_STATE.">
<polygon fill="white" stroke="black" points="166.5,-80.5 166.5,-101.5 281.5,-101.5 281.5,-80.5 166.5,-80.5"/>
<text text-anchor="middle" x="224" y="-88.5" font-family="FreeSans.ttf" font-size="10.00">SocketClient::gState</text>
</a>
</g>
<!-- Node1&#45;&gt;Node2 -->
<g id="edge2" class="edge"><title>Node1&#45;&gt;Node2</title>
<path fill="none" stroke="midnightblue" d="M106.775,-61.5095C126.871,-66.5651 151.154,-72.6739 172.394,-78.0173"/>
<polygon fill="midnightblue" stroke="midnightblue" points="171.676,-81.4457 182.228,-80.4913 173.384,-74.6573 171.676,-81.4457"/>
</g>
<!-- Node3 -->
<g id="node5" class="node"><title>Node3</title>
<a xlink:href="classSocketClient.xhtml#acdff38db903da34b2a9fcc3e12d6a796" target="_top" xlink:title="Returns the value of a SOC_LOGIN key.">
<polygon fill="white" stroke="black" points="167,-40.5 167,-61.5 281,-61.5 281,-40.5 167,-40.5"/>
<text text-anchor="middle" x="224" y="-48.5" font-family="FreeSans.ttf" font-size="10.00">SocketClient::gLogin</text>
</a>
</g>
<!-- Node1&#45;&gt;Node3 -->
<g id="edge4" class="edge"><title>Node1&#45;&gt;Node3</title>
<path fill="none" stroke="midnightblue" d="M130.13,-51C138.883,-51 147.877,-51 156.667,-51"/>
<polygon fill="midnightblue" stroke="midnightblue" points="156.866,-54.5001 166.866,-51 156.866,-47.5001 156.866,-54.5001"/>
</g>
<!-- Node4 -->
<g id="node7" class="node"><title>Node4</title>
<a xlink:href="classSocket.xhtml#adc72a37934a4f2d10f6ae8fc94bb4ca7" target="_top" xlink:title="Returns the hostname associated to the Socket.">
<polygon fill="white" stroke="black" points="168,-0.5 168,-21.5 280,-21.5 280,-0.5 168,-0.5"/>
<text text-anchor="middle" x="224" y="-8.5" font-family="FreeSans.ttf" font-size="10.00">Socket::gHostname</text>
</a>
</g>
<!-- Node1&#45;&gt;Node4 -->
<g id="edge6" class="edge"><title>Node1&#45;&gt;Node4</title>
<path fill="none" stroke="midnightblue" d="M106.775,-40.4905C126.871,-35.4349 151.154,-29.3261 172.394,-23.9827"/>
<polygon fill="midnightblue" stroke="midnightblue" points="173.384,-27.3427 182.228,-21.5087 171.676,-20.5543 173.384,-27.3427"/>
</g>
</g>
</svg>
