<?xml version="1.0" encoding="UTF-8" standalone="no"?>
<!DOCTYPE svg PUBLIC "-//W3C//DTD SVG 1.1//EN"
 "http://www.w3.org/Graphics/SVG/1.1/DTD/svg11.dtd">
<!-- Generated by graphviz version 2.26.3 (20100126.1600)
 -->
<!-- Title: G Pages: 1 -->
<!--zoomable 510 -->
<svg id="main" version="1.1" xmlns="http://www.w3.org/2000/svg" xmlns:xlink="http://www.w3.org/1999/xlink" xml:space="preserve" onload="init(evt)">
        <defs>
                <circle id="rim" cx="0" cy="0" r="7"/>
                <circle id="rim2" cx="0" cy="0" r="3.5"/>
                <g id="zoomPlus">
                        <use xlink:href="#rim" fill="#404040">
                                <set attributeName="fill" to="#808080" begin="zoomplus.mouseover" end="zoomplus.mouseout"/>
                        </use>
                        <path d="M-4,0h8M0,-4v8" fill="none" stroke="white" stroke-width="1.5" pointer-events="none"/>
                </g>
                <g id="zoomMin">
                        <use xlink:href="#rim" fill="#404040">
                                <set attributeName="fill" to="#808080" begin="zoomminus.mouseover" end="zoomminus.mouseout"/>
                        </use>
                        <path d="M-4,0h8" fill="none" stroke="white" stroke-width="1.5" pointer-events="none"/>
                </g>
                <g id="dirArrow">
                        <path fill="none" stroke="white" stroke-width="1.5" d="M0,-3.0v7 M-2.5,-0.5L0,-3.0L2.5,-0.5"/>
                </g>
               <g id="resetDef">
                       <use xlink:href="#rim2" fill="#404040">
                               <set attributeName="fill" to="#808080" begin="reset.mouseover" end="reset.mouseout"/>
                       </use>
               </g>
        </defs>

<script type="text/javascript">
var viewWidth = 444;
var viewHeight = 510;
var sectionId = 'dynsection-24';
</script>
<script xlink:href="svgpan.js"/>
<svg id="graph" class="graph">
<g id="viewport">
<title>G</title>
<polygon fill="white" stroke="white" points="-4,5 -4,-506 441,-506 441,5 -4,5"/>
<!-- Node1 -->
<g id="node1" class="node"><title>Node1</title>
<polygon fill="#bfbfbf" stroke="black" points="0.5,-300.5 0.5,-321.5 115.5,-321.5 115.5,-300.5 0.5,-300.5"/>
<text text-anchor="middle" x="58" y="-308.5" font-family="FreeSans.ttf" font-size="10.00">Handler::EnterGame</text>
</g>
<!-- Node2 -->
<g id="node3" class="node"><title>Node2</title>
<a xlink:href="classSocketClient.xhtml#a56e10cbe469179d7d7bc18eae6ca351c" target="_top" xlink:title="Returns the Account object associated to this SocketClient.">
<polygon fill="white" stroke="black" points="308,-280.5 308,-301.5 436,-301.5 436,-280.5 308,-280.5"/>
<text text-anchor="middle" x="372" y="-288.5" font-family="FreeSans.ttf" font-size="10.00">SocketClient::gAccount</text>
</a>
</g>
<!-- Node1&#45;&gt;Node2 -->
<g id="edge2" class="edge"><title>Node1&#45;&gt;Node2</title>
<path fill="none" stroke="midnightblue" d="M115.592,-307.332C166.762,-304.073 241.863,-299.289 297.575,-295.74"/>
<polygon fill="midnightblue" stroke="midnightblue" points="297.984,-299.222 307.741,-295.093 297.539,-292.236 297.984,-299.222"/>
</g>
<!-- Node3 -->
<g id="node5" class="node"><title>Node3</title>
<a xlink:href="classAccount.xhtml#a1d2b9eb6c351b9d43d16e649fa599466" target="_top" xlink:title="Returns the associated Character, if any.">
<polygon fill="white" stroke="black" points="154.5,-360.5 154.5,-381.5 269.5,-381.5 269.5,-360.5 154.5,-360.5"/>
<text text-anchor="middle" x="212" y="-368.5" font-family="FreeSans.ttf" font-size="10.00">Account::gCharacter</text>
</a>
</g>
<!-- Node1&#45;&gt;Node3 -->
<g id="edge4" class="edge"><title>Node1&#45;&gt;Node3</title>
<path fill="none" stroke="midnightblue" d="M81.3518,-321.558C100.243,-329.948 127.619,-341.766 152,-351 157.526,-353.093 163.379,-355.189 169.179,-357.196"/>
<polygon fill="midnightblue" stroke="midnightblue" points="168.227,-360.569 178.822,-360.471 170.478,-353.941 168.227,-360.569"/>
</g>
<!-- Node4 -->
<g id="node7" class="node"><title>Node4</title>
<a xlink:href="namespaceHandler.xhtml#a57dc60ce5522b41f1ab98b83de76779f" target="_top" xlink:title="Locates a Location associated with the game.">
<polygon fill="white" stroke="black" points="152.5,-420.5 152.5,-441.5 271.5,-441.5 271.5,-420.5 152.5,-420.5"/>
<text text-anchor="middle" x="212" y="-428.5" font-family="FreeSans.ttf" font-size="10.00">Handler::FindLocation</text>
</a>
</g>
<!-- Node1&#45;&gt;Node4 -->
<g id="edge6" class="edge"><title>Node1&#45;&gt;Node4</title>
<path fill="none" stroke="midnightblue" d="M69.5052,-321.559C86.8702,-337.317 121.041,-367.633 152,-391 163.007,-399.308 175.651,-407.873 186.485,-414.934"/>
<polygon fill="midnightblue" stroke="midnightblue" points="184.782,-418.001 195.084,-420.474 188.573,-412.116 184.782,-418.001"/>
</g>
<!-- Node8 -->
<g id="node15" class="node"><title>Node8</title>
<a xlink:href="classThing.xhtml#a46dfe09e636299cd0bf1bc9c37aaebf4" target="_top" xlink:title="Moves a Thing from within one Location to another Location.">
<polygon fill="white" stroke="black" points="175,-320.5 175,-341.5 249,-341.5 249,-320.5 175,-320.5"/>
<text text-anchor="middle" x="212" y="-328.5" font-family="FreeSans.ttf" font-size="10.00">Thing::Move</text>
</a>
</g>
<!-- Node1&#45;&gt;Node8 -->
<g id="edge14" class="edge"><title>Node1&#45;&gt;Node8</title>
<path fill="none" stroke="midnightblue" d="M115.782,-318.504C131.87,-320.594 149.154,-322.838 164.572,-324.841"/>
<polygon fill="midnightblue" stroke="midnightblue" points="164.544,-328.366 174.911,-326.183 165.445,-321.424 164.544,-328.366"/>
</g>
<!-- Node11 -->
<g id="node21" class="node"><title>Node11</title>
<a xlink:href="classSocketClient.xhtml#ab5e6737c8acd4aaa21268e10c1a050b4" target="_top" xlink:title="Set the connection state value of the socket.">
<polygon fill="white" stroke="black" points="155,-242.5 155,-263.5 269,-263.5 269,-242.5 155,-242.5"/>
<text text-anchor="middle" x="212" y="-250.5" font-family="FreeSans.ttf" font-size="10.00">SocketClient::sState</text>
</a>
</g>
<!-- Node1&#45;&gt;Node11 -->
<g id="edge20" class="edge"><title>Node1&#45;&gt;Node11</title>
<path fill="none" stroke="midnightblue" d="M85.8882,-300.497C110.668,-291.164 147.095,-277.445 174.436,-267.147"/>
<polygon fill="midnightblue" stroke="midnightblue" points="175.935,-270.323 184.059,-263.523 173.468,-263.772 175.935,-270.323"/>
</g>
<!-- Node12 -->
<g id="node23" class="node"><title>Node12</title>
<a xlink:href="classSocketClient.xhtml#a6268f3d184970ec0076da657c39d2e80" target="_top" xlink:title="Process data from the client&#39;s send buffer and transmit it via the socket.">
<polygon fill="white" stroke="black" points="158.5,-160.5 158.5,-181.5 265.5,-181.5 265.5,-160.5 158.5,-160.5"/>
<text text-anchor="middle" x="212" y="-168.5" font-family="FreeSans.ttf" font-size="10.00">SocketClient::Send</text>
</a>
</g>
<!-- Node1&#45;&gt;Node12 -->
<g id="edge22" class="edge"><title>Node1&#45;&gt;Node12</title>
<path fill="none" stroke="midnightblue" d="M69.575,-300.477C95.885,-276.559 160.401,-217.908 192.791,-188.463"/>
<polygon fill="midnightblue" stroke="midnightblue" points="195.246,-190.961 200.291,-181.645 190.537,-185.782 195.246,-190.961"/>
</g>
<!-- Node5 -->
<g id="node9" class="node"><title>Node5</title>
<a xlink:href="namespaceUtils.xhtml#a9b70f9dd0af906c806695b35488e778f" target="_top" xlink:title="Returns a string converted to all lowercase letters.">
<polygon fill="white" stroke="black" points="336.5,-440.5 336.5,-461.5 407.5,-461.5 407.5,-440.5 336.5,-440.5"/>
<text text-anchor="middle" x="372" y="-448.5" font-family="FreeSans.ttf" font-size="10.00">Utils::Lower</text>
</a>
</g>
<!-- Node4&#45;&gt;Node5 -->
<g id="edge8" class="edge"><title>Node4&#45;&gt;Node5</title>
<path fill="none" stroke="midnightblue" d="M271.578,-438.447C289.531,-440.691 308.954,-443.119 325.891,-445.236"/>
<polygon fill="midnightblue" stroke="midnightblue" points="325.723,-448.743 336.08,-446.51 326.592,-441.797 325.723,-448.743"/>
</g>
<!-- Node6 -->
<g id="node11" class="node"><title>Node6</title>
<a xlink:href="classThing.xhtml#aea5dad4f4241b325cdf64b232e84e602" target="_top" xlink:title="Returns the id associated with this Thing.">
<polygon fill="white" stroke="black" points="341,-400.5 341,-421.5 403,-421.5 403,-400.5 341,-400.5"/>
<text text-anchor="middle" x="372" y="-408.5" font-family="FreeSans.ttf" font-size="10.00">Thing::gId</text>
</a>
</g>
<!-- Node4&#45;&gt;Node6 -->
<g id="edge10" class="edge"><title>Node4&#45;&gt;Node6</title>
<path fill="none" stroke="midnightblue" d="M271.578,-423.553C291.186,-421.102 312.548,-418.432 330.508,-416.186"/>
<polygon fill="midnightblue" stroke="midnightblue" points="331.163,-419.632 340.652,-414.919 330.295,-412.686 331.163,-419.632"/>
</g>
<!-- Node7 -->
<g id="node13" class="node"><title>Node7</title>
<a xlink:href="classThing.xhtml#a3c3c40c996ff562baa335f2ded022578" target="_top" xlink:title="Returns the name associated with this Thing.">
<polygon fill="white" stroke="black" points="330.5,-480.5 330.5,-501.5 413.5,-501.5 413.5,-480.5 330.5,-480.5"/>
<text text-anchor="middle" x="372" y="-488.5" font-family="FreeSans.ttf" font-size="10.00">Thing::gName</text>
</a>
</g>
<!-- Node4&#45;&gt;Node7 -->
<g id="edge12" class="edge"><title>Node4&#45;&gt;Node7</title>
<path fill="none" stroke="midnightblue" d="M235.825,-441.646C255.106,-450.085 283.057,-461.928 308,-471 313.959,-473.167 320.279,-475.318 326.538,-477.36"/>
<polygon fill="midnightblue" stroke="midnightblue" points="325.669,-480.757 336.26,-480.468 327.801,-474.09 325.669,-480.757"/>
</g>
<!-- Node9 -->
<g id="node17" class="node"><title>Node9</title>
<a xlink:href="classThing.xhtml#afcc77dab7148c2f108aa384d83a6430e" target="_top" xlink:title="Removes a Thing to the contents of this Thing.">
<polygon fill="white" stroke="black" points="316,-320.5 316,-341.5 428,-341.5 428,-320.5 316,-320.5"/>
<text text-anchor="middle" x="372" y="-328.5" font-family="FreeSans.ttf" font-size="10.00">Thing::RemoveThing</text>
</a>
</g>
<!-- Node8&#45;&gt;Node9 -->
<g id="edge16" class="edge"><title>Node8&#45;&gt;Node9</title>
<path fill="none" stroke="midnightblue" d="M249.109,-331C266.011,-331 286.539,-331 305.939,-331"/>
<polygon fill="midnightblue" stroke="midnightblue" points="305.956,-334.5 315.955,-331 305.955,-327.5 305.956,-334.5"/>
</g>
<!-- Node10 -->
<g id="node19" class="node"><title>Node10</title>
<a xlink:href="classThing.xhtml#a1672d1e62ee2f1ef36d312d3e0d6ed2c" target="_top" xlink:title="Adds a Thing to the contents of this Thing.">
<polygon fill="white" stroke="black" points="326,-360.5 326,-381.5 418,-381.5 418,-360.5 326,-360.5"/>
<text text-anchor="middle" x="372" y="-368.5" font-family="FreeSans.ttf" font-size="10.00">Thing::AddThing</text>
</a>
</g>
<!-- Node8&#45;&gt;Node10 -->
<g id="edge18" class="edge"><title>Node8&#45;&gt;Node10</title>
<path fill="none" stroke="midnightblue" d="M249.109,-340.277C270.098,-345.524 296.678,-352.17 319.746,-357.936"/>
<polygon fill="midnightblue" stroke="midnightblue" points="319.176,-361.402 329.726,-360.432 320.874,-354.611 319.176,-361.402"/>
</g>
<!-- Node12&#45;&gt;Node2 -->
<g id="edge30" class="edge"><title>Node12&#45;&gt;Node2</title>
<path fill="none" stroke="midnightblue" d="M222.657,-181.942C234.68,-194.303 254.804,-215.04 272,-233 288.09,-249.804 288.26,-258.689 308,-271 311.201,-272.996 314.617,-274.808 318.142,-276.449"/>
<polygon fill="midnightblue" stroke="midnightblue" points="317.08,-279.798 327.657,-280.407 319.768,-273.335 317.08,-279.798"/>
</g>
<!-- Node13 -->
<g id="node25" class="node"><title>Node13</title>
<a xlink:href="classSocket.xhtml#a508457b48e6296d1e86c7cc72af65948" target="_top" xlink:title="Return if the Socket is valid for use.">
<polygon fill="white" stroke="black" points="333,-0.5 333,-21.5 411,-21.5 411,-0.5 333,-0.5"/>
<text text-anchor="middle" x="372" y="-8.5" font-family="FreeSans.ttf" font-size="10.00">Socket::Valid</text>
</a>
</g>
<!-- Node12&#45;&gt;Node13 -->
<g id="edge24" class="edge"><title>Node12&#45;&gt;Node13</title>
<path fill="none" stroke="midnightblue" d="M216.288,-160.44C227.395,-134.415 259.645,-66.7254 308,-31 312.564,-27.6278 317.711,-24.8146 323.053,-22.4699"/>
<polygon fill="midnightblue" stroke="midnightblue" points="324.711,-25.5829 332.796,-18.7357 322.206,-19.0466 324.711,-25.5829"/>
</g>
<!-- Node14 -->
<g id="node27" class="node"><title>Node14</title>
<a xlink:href="classSocket.xhtml#a45d3aa99d71b868921543a4708471f82" target="_top" xlink:title="Returns the file descriptor associated to the Socket.">
<polygon fill="white" stroke="black" points="316.5,-240.5 316.5,-261.5 427.5,-261.5 427.5,-240.5 316.5,-240.5"/>
<text text-anchor="middle" x="372" y="-248.5" font-family="FreeSans.ttf" font-size="10.00">Socket::gDescriptor</text>
</a>
</g>
<!-- Node12&#45;&gt;Node14 -->
<g id="edge26" class="edge"><title>Node12&#45;&gt;Node14</title>
<path fill="none" stroke="midnightblue" d="M226.303,-181.581C244.506,-194.652 277.283,-216.885 308,-231 312.705,-233.162 317.708,-235.177 322.762,-237.03"/>
<polygon fill="midnightblue" stroke="midnightblue" points="321.887,-240.431 332.482,-240.391 324.175,-233.815 321.887,-240.431"/>
</g>
<!-- Node15 -->
<g id="node29" class="node"><title>Node15</title>
<a xlink:href="classSocketClient.xhtml#aa0badca8f614127e98281995c02cb385" target="_top" xlink:title="Returns the connection state of the client from SOC_STATE.">
<polygon fill="white" stroke="black" points="314.5,-200.5 314.5,-221.5 429.5,-221.5 429.5,-200.5 314.5,-200.5"/>
<text text-anchor="middle" x="372" y="-208.5" font-family="FreeSans.ttf" font-size="10.00">SocketClient::gState</text>
</a>
</g>
<!-- Node12&#45;&gt;Node15 -->
<g id="edge28" class="edge"><title>Node12&#45;&gt;Node15</title>
<path fill="none" stroke="midnightblue" d="M254.038,-181.51C274.26,-186.565 298.696,-192.674 320.069,-198.017"/>
<polygon fill="midnightblue" stroke="midnightblue" points="319.415,-201.461 329.965,-200.491 321.113,-194.67 319.415,-201.461"/>
</g>
<!-- Node16 -->
<g id="node32" class="node"><title>Node16</title>
<a xlink:href="classSocket.xhtml#adc72a37934a4f2d10f6ae8fc94bb4ca7" target="_top" xlink:title="Returns the hostname associated to the Socket.">
<polygon fill="white" stroke="black" points="316,-160.5 316,-181.5 428,-181.5 428,-160.5 316,-160.5"/>
<text text-anchor="middle" x="372" y="-168.5" font-family="FreeSans.ttf" font-size="10.00">Socket::gHostname</text>
</a>
</g>
<!-- Node12&#45;&gt;Node16 -->
<g id="edge32" class="edge"><title>Node12&#45;&gt;Node16</title>
<path fill="none" stroke="midnightblue" d="M265.723,-171C278.6,-171 292.499,-171 305.865,-171"/>
<polygon fill="midnightblue" stroke="midnightblue" points="305.957,-174.5 315.957,-171 305.957,-167.5 305.957,-174.5"/>
</g>
<!-- Node17 -->
<g id="node34" class="node"><title>Node17</title>
<a xlink:href="classSocket.xhtml#a7d51c27fcddb7bddf1a3beb0be3c5abe" target="_top" xlink:title="Returns the Server object associated to this SocketServer.">
<polygon fill="white" stroke="black" points="325.5,-120.5 325.5,-141.5 418.5,-141.5 418.5,-120.5 325.5,-120.5"/>
<text text-anchor="middle" x="372" y="-128.5" font-family="FreeSans.ttf" font-size="10.00">Socket::gServer</text>
</a>
</g>
<!-- Node12&#45;&gt;Node17 -->
<g id="edge34" class="edge"><title>Node12&#45;&gt;Node17</title>
<path fill="none" stroke="midnightblue" d="M254.038,-160.49C274.26,-155.435 298.696,-149.326 320.069,-143.983"/>
<polygon fill="midnightblue" stroke="midnightblue" points="321.113,-147.33 329.965,-141.509 319.415,-140.539 321.113,-147.33"/>
</g>
<!-- Node18 -->
<g id="node36" class="node"><title>Node18</title>
<a xlink:href="classSocket.xhtml#a688f0d2182f7ca098de3f76156efad0a" target="_top" xlink:title="Increment the total count of bytes sent by the socket.">
<polygon fill="white" stroke="black" points="316.5,-80.5 316.5,-101.5 427.5,-101.5 427.5,-80.5 316.5,-80.5"/>
<text text-anchor="middle" x="372" y="-88.5" font-family="FreeSans.ttf" font-size="10.00">Socket::aBytesSent</text>
</a>
</g>
<!-- Node12&#45;&gt;Node18 -->
<g id="edge36" class="edge"><title>Node12&#45;&gt;Node18</title>
<path fill="none" stroke="midnightblue" d="M226.303,-160.419C244.506,-147.348 277.283,-125.115 308,-111 312.705,-108.838 317.708,-106.823 322.762,-104.97"/>
<polygon fill="midnightblue" stroke="midnightblue" points="324.175,-108.185 332.482,-101.609 321.887,-101.569 324.175,-108.185"/>
</g>
<!-- Node19 -->
<g id="node38" class="node"><title>Node19</title>
<a xlink:href="classSocket.xhtml#a3bb9f40d6e5f32cfa960a86323322c0c" target="_top" xlink:title="Returns the number of bytes sent by the Socket.">
<polygon fill="white" stroke="black" points="316.5,-40.5 316.5,-61.5 427.5,-61.5 427.5,-40.5 316.5,-40.5"/>
<text text-anchor="middle" x="372" y="-48.5" font-family="FreeSans.ttf" font-size="10.00">Socket::gBytesSent</text>
</a>
</g>
<!-- Node12&#45;&gt;Node19 -->
<g id="edge38" class="edge"><title>Node12&#45;&gt;Node19</title>
<path fill="none" stroke="midnightblue" d="M219.405,-160.254C233.998,-139.871 268.508,-95.4495 308,-71 311.356,-68.9223 314.946,-67.0442 318.648,-65.3492"/>
<polygon fill="midnightblue" stroke="midnightblue" points="320.094,-68.5391 328.016,-61.5036 317.436,-62.0635 320.094,-68.5391"/>
</g>
</g>
</svg>
        <g id="navigator" transform="translate(0 0)" fill="#404254">
                <rect fill="#f2f5e9" fill-opacity="0.5" stroke="#606060" stroke-width=".5" x="0" y="0" width="60" height="60"/>
                <use id="zoomplus" xlink:href="#zoomPlus" x="17" y="9" onmousedown="handleZoom(evt,'in')"/>
                <use id="zoomminus" xlink:href="#zoomMin" x="42" y="9" onmousedown="handleZoom(evt,'out')"/>
                <use id="reset" xlink:href="#resetDef" x="30" y="36" onmousedown="handleReset()"/>
                <g id="arrowUp" xlink:href="#dirArrow" transform="translate(30 24)" onmousedown="handlePan(0,-1)">
                  <use xlink:href="#rim" fill="#404040">
                        <set attributeName="fill" to="#808080" begin="arrowUp.mouseover" end="arrowUp.mouseout"/>
                  </use>
                  <path fill="none" stroke="white" stroke-width="1.5" d="M0,-3.0v7 M-2.5,-0.5L0,-3.0L2.5,-0.5"/>
                </g>
                <g id="arrowRight" xlink:href="#dirArrow" transform="rotate(90) translate(36 -43)" onmousedown="handlePan(1,0)">
                  <use xlink:href="#rim" fill="#404040">
                        <set attributeName="fill" to="#808080" begin="arrowRight.mouseover" end="arrowRight.mouseout"/>
                  </use>
                  <path fill="none" stroke="white" stroke-width="1.5" d="M0,-3.0v7 M-2.5,-0.5L0,-3.0L2.5,-0.5"/>
                </g>
                <g id="arrowDown" xlink:href="#dirArrow" transform="rotate(180) translate(-30 -48)" onmousedown="handlePan(0,1)">
                  <use xlink:href="#rim" fill="#404040">
                        <set attributeName="fill" to="#808080" begin="arrowDown.mouseover" end="arrowDown.mouseout"/>
                  </use>
                  <path fill="none" stroke="white" stroke-width="1.5" d="M0,-3.0v7 M-2.5,-0.5L0,-3.0L2.5,-0.5"/>
                </g>
                <g id="arrowLeft" xlink:href="#dirArrow" transform="rotate(270) translate(-36 17)" onmousedown="handlePan(-1,0)">
                  <use xlink:href="#rim" fill="#404040">
                        <set attributeName="fill" to="#808080" begin="arrowLeft.mouseover" end="arrowLeft.mouseout"/>
                  </use>
                  <path fill="none" stroke="white" stroke-width="1.5" d="M0,-3.0v7 M-2.5,-0.5L0,-3.0L2.5,-0.5"/>
                </g>
        </g>
</svg>
