<?xml version="1.0" encoding="UTF-8" standalone="no"?>
<!DOCTYPE svg PUBLIC "-//W3C//DTD SVG 1.1//EN"
 "http://www.w3.org/Graphics/SVG/1.1/DTD/svg11.dtd">
<!-- Generated by graphviz version 2.26.3 (20100126.1600)
 -->
<!-- Title: G Pages: 1 -->
<!--zoomable 264 -->
<svg id="main" version="1.1" xmlns="http://www.w3.org/2000/svg" xmlns:xlink="http://www.w3.org/1999/xlink" xml:space="preserve" onload="init(evt)">
        <defs>
                <circle id="rim" cx="0" cy="0" r="7"/>
                <circle id="rim2" cx="0" cy="0" r="3.5"/>
                <g id="zoomPlus">
                        <use xlink:href="#rim" fill="#404040">
                                <set attributeName="fill" to="#808080" begin="zoomplus.mouseover" end="zoomplus.mouseout"/>
                        </use>
                        <path d="M-4,0h8M0,-4v8" fill="none" stroke="white" stroke-width="1.5" pointer-events="none"/>
                </g>
                <g id="zoomMin">
                        <use xlink:href="#rim" fill="#404040">
                                <set attributeName="fill" to="#808080" begin="zoomminus.mouseover" end="zoomminus.mouseout"/>
                        </use>
                        <path d="M-4,0h8" fill="none" stroke="white" stroke-width="1.5" pointer-events="none"/>
                </g>
                <g id="dirArrow">
                        <path fill="none" stroke="white" stroke-width="1.5" d="M0,-3.0v7 M-2.5,-0.5L0,-3.0L2.5,-0.5"/>
                </g>
               <g id="resetDef">
                       <use xlink:href="#rim2" fill="#404040">
                               <set attributeName="fill" to="#808080" begin="reset.mouseover" end="reset.mouseout"/>
                       </use>
               </g>
        </defs>

<script type="text/javascript">
var viewWidth = 1530;
var viewHeight = 264;
var sectionId = 'dynsection-4';
</script>
<script xlink:href="svgpan.js"/>
<svg id="graph" class="graph">
<g id="viewport">
<title>G</title>
<polygon fill="white" stroke="white" points="-4,5 -4,-260.452 1527,-260.452 1527,5 -4,5"/>
<!-- Node1 -->
<g id="node1" class="node"><title>Node1</title>
<polygon fill="#bfbfbf" stroke="black" points="0,-34.9524 0,-55.9524 92,-55.9524 92,-34.9524 0,-34.9524"/>
<text text-anchor="middle" x="46" y="-42.9524" font-family="FreeSans.ttf" font-size="10.00">Utils::Argument</text>
</g>
<!-- Node2 -->
<g id="node3" class="node"><title>Node2</title>
<a xlink:href="classAccount.xhtml#ae236325fef7b2269f54e9567577e0b92" target="_top" xlink:title="Unserialize the account data from CFG_DAT_FILE_SETTINGS.">
<polygon fill="white" stroke="black" points="128,-54.9524 128,-75.9524 242,-75.9524 242,-54.9524 128,-54.9524"/>
<text text-anchor="middle" x="185" y="-62.9524" font-family="FreeSans.ttf" font-size="10.00">Account::Unserialize</text>
</a>
</g>
<!-- Node1&#45;&gt;Node2 -->
<g id="edge2" class="edge"><title>Node1&#45;&gt;Node2</title>
<path fill="none" stroke="midnightblue" d="M102.347,-53.5599C110.733,-54.7665 119.383,-56.0111 127.786,-57.2202"/>
<polygon fill="midnightblue" stroke="midnightblue" points="102.682,-50.072 92.285,-52.1121 101.685,-57.0007 102.682,-50.072"/>
</g>
<!-- Node18 -->
<g id="node41" class="node"><title>Node18</title>
<a xlink:href="classSocketClient.xhtml#aa3c0d7886b8fede981c73031cfaf17c6" target="_top" xlink:title="Append a command to the back of the queue.">
<polygon fill="white" stroke="black" points="278,-15.9524 278,-36.9524 442,-36.9524 442,-15.9524 278,-15.9524"/>
<text text-anchor="middle" x="360" y="-23.9524" font-family="FreeSans.ttf" font-size="10.00">SocketClient::QueueCommand</text>
</a>
</g>
<!-- Node1&#45;&gt;Node18 -->
<g id="edge46" class="edge"><title>Node1&#45;&gt;Node18</title>
<path fill="none" stroke="midnightblue" d="M102.403,-42.0394C151.263,-39.0829 222.579,-34.7676 277.792,-31.4268"/>
<polygon fill="midnightblue" stroke="midnightblue" points="102.102,-38.5512 92.3318,-42.6489 102.525,-45.5384 102.102,-38.5512"/>
</g>
<!-- Node3 -->
<g id="node5" class="node"><title>Node3</title>
<a xlink:href="classAccount.xhtml#adc4545f17264112e532b5a48abe94baf" target="_top" xlink:title="Create a new account.">
<polygon fill="white" stroke="black" points="319,-94.9524 319,-115.952 401,-115.952 401,-94.9524 319,-94.9524"/>
<text text-anchor="middle" x="360" y="-102.952" font-family="FreeSans.ttf" font-size="10.00">Account::New</text>
</a>
</g>
<!-- Node2&#45;&gt;Node3 -->
<g id="edge4" class="edge"><title>Node2&#45;&gt;Node3</title>
<path fill="none" stroke="midnightblue" d="M240.82,-78.2113C266.135,-83.9976 295.54,-90.7187 318.808,-96.037"/>
<polygon fill="midnightblue" stroke="midnightblue" points="241.508,-74.7782 230.979,-75.9619 239.948,-81.6022 241.508,-74.7782"/>
</g>
<!-- Node4 -->
<g id="node7" class="node"><title>Node4</title>
<a xlink:href="namespaceHandler.xhtml#a33a19d69ead678af81fbe96907eceaf0" target="_top" xlink:title="Create a new account object, or load an existing one, with a name and password.">
<polygon fill="white" stroke="black" points="484.5,-114.952 484.5,-135.952 615.5,-135.952 615.5,-114.952 484.5,-114.952"/>
<text text-anchor="middle" x="550" y="-122.952" font-family="FreeSans.ttf" font-size="10.00">Handler::AttachAccount</text>
</a>
</g>
<!-- Node3&#45;&gt;Node4 -->
<g id="edge6" class="edge"><title>Node3&#45;&gt;Node4</title>
<path fill="none" stroke="midnightblue" d="M411.225,-110.844C433.677,-113.208 460.304,-116.011 484.201,-118.526"/>
<polygon fill="midnightblue" stroke="midnightblue" points="411.539,-107.358 401.227,-109.792 410.806,-114.32 411.539,-107.358"/>
</g>
<!-- Node5 -->
<g id="node9" class="node"><title>Node5</title>
<a xlink:href="namespaceHandler.xhtml#af650e47f3d4baf393b54376d1eaa1fa9" target="_top" xlink:title="Handle SocketClient objects who have not fully logged into the game yet.">
<polygon fill="white" stroke="black" points="658.5,-114.952 658.5,-135.952 781.5,-135.952 781.5,-114.952 658.5,-114.952"/>
<text text-anchor="middle" x="720" y="-122.952" font-family="FreeSans.ttf" font-size="10.00">Handler::ProcessLogin</text>
</a>
</g>
<!-- Node4&#45;&gt;Node5 -->
<g id="edge8" class="edge"><title>Node4&#45;&gt;Node5</title>
<path fill="none" stroke="midnightblue" d="M626.016,-118.736C636.835,-118.655 647.85,-118.721 658.35,-118.934"/>
<polygon fill="midnightblue" stroke="midnightblue" points="625.684,-115.24 615.726,-118.859 625.768,-122.239 625.684,-115.24"/>
</g>
<!-- Node5&#45;&gt;Node4 -->
<g id="edge20" class="edge"><title>Node5&#45;&gt;Node4</title>
<path fill="none" stroke="midnightblue" d="M648.148,-132.13C637.392,-132.249 626.347,-132.221 615.726,-132.046"/>
<polygon fill="midnightblue" stroke="midnightblue" points="648.406,-135.627 658.35,-131.971 648.297,-128.627 648.406,-135.627"/>
</g>
<!-- Node6 -->
<g id="node11" class="node"><title>Node6</title>
<a xlink:href="namespaceHandler.xhtml#a142c6f0b9e36e54eba3d72f9db2dfe40" target="_top" xlink:title="Redirect to the appropriate subsystem based on socket state.">
<polygon fill="white" stroke="black" points="838.5,-194.952 838.5,-215.952 939.5,-215.952 939.5,-194.952 838.5,-194.952"/>
<text text-anchor="middle" x="889" y="-202.952" font-family="FreeSans.ttf" font-size="10.00">Handler::Interpret</text>
</a>
</g>
<!-- Node5&#45;&gt;Node6 -->
<g id="edge10" class="edge"><title>Node5&#45;&gt;Node6</title>
<path fill="none" stroke="midnightblue" d="M742.975,-142.036C762.231,-155.304 790.857,-173.591 818,-185.452 826.332,-189.093 835.503,-192.253 844.408,-194.918"/>
<polygon fill="midnightblue" stroke="midnightblue" points="744.773,-139.023 734.574,-136.155 740.759,-144.757 744.773,-139.023"/>
</g>
<!-- Node11 -->
<g id="node22" class="node"><title>Node11</title>
<a xlink:href="namespaceHandler.xhtml#a00bc24564bfd267e0329643c569da1e4" target="_top" xlink:title="Select a new account name.">
<polygon fill="white" stroke="black" points="820.5,-154.952 820.5,-175.952 957.5,-175.952 957.5,-154.952 820.5,-154.952"/>
<text text-anchor="middle" x="889" y="-162.952" font-family="FreeSans.ttf" font-size="10.00">Handler::GetNewAccount</text>
</a>
</g>
<!-- Node5&#45;&gt;Node11 -->
<g id="edge22" class="edge"><title>Node5&#45;&gt;Node11</title>
<path fill="none" stroke="midnightblue" d="M791.89,-135.785C818.041,-141.694 845.84,-148.872 864.963,-154.876"/>
<polygon fill="midnightblue" stroke="midnightblue" points="792.49,-132.333 781.97,-133.588 790.976,-139.168 792.49,-132.333"/>
</g>
<!-- Node12 -->
<g id="node25" class="node"><title>Node12</title>
<a xlink:href="namespaceHandler.xhtml#a744adadcf407cdb3a9c33365afd5a7c2" target="_top" xlink:title="Create a new account.">
<polygon fill="white" stroke="black" points="818,-114.952 818,-135.952 960,-135.952 960,-114.952 818,-114.952"/>
<text text-anchor="middle" x="889" y="-122.952" font-family="FreeSans.ttf" font-size="10.00">Handler::GetNewPassword</text>
</a>
</g>
<!-- Node5&#45;&gt;Node12 -->
<g id="edge26" class="edge"><title>Node5&#45;&gt;Node12</title>
<path fill="none" stroke="midnightblue" d="M792.231,-118.766C800.732,-118.677 809.402,-118.681 817.887,-118.778"/>
<polygon fill="midnightblue" stroke="midnightblue" points="791.916,-115.27 781.97,-118.92 792.021,-122.269 791.916,-115.27"/>
</g>
<!-- Node13 -->
<g id="node28" class="node"><title>Node13</title>
<a xlink:href="namespaceHandler.xhtml#adfe13cc9748392348f3941656a1323b6" target="_top" xlink:title="Compare a received password against an existing account.">
<polygon fill="white" stroke="black" points="820.5,-74.9524 820.5,-95.9524 957.5,-95.9524 957.5,-74.9524 820.5,-74.9524"/>
<text text-anchor="middle" x="889" y="-82.9524" font-family="FreeSans.ttf" font-size="10.00">Handler::GetOldPassword</text>
</a>
</g>
<!-- Node5&#45;&gt;Node13 -->
<g id="edge30" class="edge"><title>Node5&#45;&gt;Node13</title>
<path fill="none" stroke="midnightblue" d="M753.582,-111.989C772.697,-106.399 797.355,-100.187 820.38,-95.0508"/>
<polygon fill="midnightblue" stroke="midnightblue" points="752.412,-108.687 743.855,-114.933 754.44,-115.386 752.412,-108.687"/>
</g>
<!-- Node14 -->
<g id="node31" class="node"><title>Node14</title>
<a xlink:href="namespaceHandler.xhtml#a44b41bf69fdc6e615a029bea34910191" target="_top" xlink:title="Send initial greeting and request for account name.">
<polygon fill="white" stroke="black" points="829.5,-34.9524 829.5,-55.9524 948.5,-55.9524 948.5,-34.9524 829.5,-34.9524"/>
<text text-anchor="middle" x="889" y="-42.9524" font-family="FreeSans.ttf" font-size="10.00">Handler::LoginScreen</text>
</a>
</g>
<!-- Node5&#45;&gt;Node14 -->
<g id="edge34" class="edge"><title>Node5&#45;&gt;Node14</title>
<path fill="none" stroke="midnightblue" d="M735.237,-107.912C753.917,-92.027 786.929,-70.0297 818,-56.4524 821.638,-54.8628 825.436,-53.3648 829.301,-51.9757"/>
<polygon fill="midnightblue" stroke="midnightblue" points="732.778,-105.418 727.722,-114.729 737.48,-110.603 732.778,-105.418"/>
</g>
<!-- Node15 -->
<g id="node34" class="node"><title>Node15</title>
<a xlink:href="classSocketClient.xhtml#a553658a2c076ea71ddcd1758fc64a925" target="_top" xlink:title="Build a SocketClient for a new client connection and set all attributes.">
<polygon fill="white" stroke="black" points="837.5,-234.952 837.5,-255.952 940.5,-255.952 940.5,-234.952 837.5,-234.952"/>
<text text-anchor="middle" x="889" y="-242.952" font-family="FreeSans.ttf" font-size="10.00">SocketClient::New</text>
</a>
</g>
<!-- Node5&#45;&gt;Node15 -->
<g id="edge38" class="edge"><title>Node5&#45;&gt;Node15</title>
<path fill="none" stroke="midnightblue" d="M733.331,-144.09C750.43,-166.644 782.187,-204.226 818,-225.452 824.39,-229.239 831.528,-232.337 838.749,-234.863"/>
<polygon fill="midnightblue" stroke="midnightblue" points="736.086,-141.929 727.322,-135.977 730.461,-146.096 736.086,-141.929"/>
</g>
<!-- Node7 -->
<g id="node13" class="node"><title>Node7</title>
<a xlink:href="classSocketClient.xhtml#ad4f63c7d906310dc56a1217136047d7f" target="_top" xlink:title="Interpret the command at the front of the queue.">
<polygon fill="white" stroke="black" points="996,-194.952 996,-215.952 1166,-215.952 1166,-194.952 996,-194.952"/>
<text text-anchor="middle" x="1081" y="-202.952" font-family="FreeSans.ttf" font-size="10.00">SocketClient::ProcessCommand</text>
</a>
</g>
<!-- Node6&#45;&gt;Node7 -->
<g id="edge12" class="edge"><title>Node6&#45;&gt;Node7</title>
<path fill="none" stroke="midnightblue" d="M950.053,-205.452C964.608,-205.452 980.404,-205.452 995.824,-205.452"/>
<polygon fill="midnightblue" stroke="midnightblue" points="949.697,-201.952 939.697,-205.452 949.697,-208.952 949.697,-201.952"/>
</g>
<!-- Node8 -->
<g id="node15" class="node"><title>Node8</title>
<a xlink:href="classServer.xhtml#a2b4cec469bb99c2a45e49de5ba74d1ae" target="_top" xlink:title="Processes input from all active SocketClient objects.">
<polygon fill="white" stroke="black" points="1202,-194.952 1202,-215.952 1318,-215.952 1318,-194.952 1202,-194.952"/>
<text text-anchor="middle" x="1260" y="-202.952" font-family="FreeSans.ttf" font-size="10.00">Server::ProcessInput</text>
</a>
</g>
<!-- Node7&#45;&gt;Node8 -->
<g id="edge14" class="edge"><title>Node7&#45;&gt;Node8</title>
<path fill="none" stroke="midnightblue" d="M1176.25,-205.452C1184.93,-205.452 1193.54,-205.452 1201.75,-205.452"/>
<polygon fill="midnightblue" stroke="midnightblue" points="1176.04,-201.952 1166.04,-205.452 1176.04,-208.952 1176.04,-201.952"/>
</g>
<!-- Node9 -->
<g id="node17" class="node"><title>Node9</title>
<a xlink:href="classServer.xhtml#a50b81aa91d8fdaee6f52c5c5ec987990" target="_top" xlink:title="The core update loop of NAMS. This loop spawns all other subsystem update routines and then sleeps fo...">
<polygon fill="white" stroke="black" points="1354.5,-214.952 1354.5,-235.952 1443.5,-235.952 1443.5,-214.952 1354.5,-214.952"/>
<text text-anchor="middle" x="1399" y="-222.952" font-family="FreeSans.ttf" font-size="10.00">Server::Update</text>
</a>
</g>
<!-- Node8&#45;&gt;Node9 -->
<g id="edge16" class="edge"><title>Node8&#45;&gt;Node9</title>
<path fill="none" stroke="midnightblue" d="M1328.1,-215.251C1336.96,-216.526 1345.86,-217.806 1354.2,-219.006"/>
<polygon fill="midnightblue" stroke="midnightblue" points="1328.54,-211.778 1318.14,-213.818 1327.54,-218.707 1328.54,-211.778"/>
</g>
<!-- Node10 -->
<g id="node19" class="node"><title>Node10</title>
<a xlink:href="main_8cpp.xhtml#ad53223b8779f25caeddb70a3b9172967" target="_top" xlink:title="The default function required to execute the server.">
<polygon fill="white" stroke="black" points="1480.5,-214.952 1480.5,-235.952 1521.5,-235.952 1521.5,-214.952 1480.5,-214.952"/>
<text text-anchor="middle" x="1501" y="-222.952" font-family="FreeSans.ttf" font-size="10.00">main</text>
</a>
</g>
<!-- Node9&#45;&gt;Node10 -->
<g id="edge18" class="edge"><title>Node9&#45;&gt;Node10</title>
<path fill="none" stroke="midnightblue" d="M1453.94,-225.452C1463.34,-225.452 1472.55,-225.452 1480.3,-225.452"/>
<polygon fill="midnightblue" stroke="midnightblue" points="1453.74,-221.952 1443.74,-225.452 1453.74,-228.952 1453.74,-221.952"/>
</g>
<!-- Node11&#45;&gt;Node5 -->
<g id="edge24" class="edge"><title>Node11&#45;&gt;Node5</title>
<path fill="none" stroke="midnightblue" d="M810.433,-153.592C786.227,-147.984 761.368,-141.479 743.855,-135.971"/>
<polygon fill="midnightblue" stroke="midnightblue" points="809.853,-157.049 820.38,-155.854 811.405,-150.223 809.853,-157.049"/>
</g>
<!-- Node12&#45;&gt;Node5 -->
<g id="edge28" class="edge"><title>Node12&#45;&gt;Node5</title>
<path fill="none" stroke="midnightblue" d="M807.752,-132.198C799.082,-132.222 790.366,-132.15 781.97,-131.984"/>
<polygon fill="midnightblue" stroke="midnightblue" points="807.912,-135.697 817.887,-132.127 807.863,-128.697 807.912,-135.697"/>
</g>
<!-- Node13&#45;&gt;Node5 -->
<g id="edge32" class="edge"><title>Node13&#45;&gt;Node5</title>
<path fill="none" stroke="midnightblue" d="M855.251,-98.9641C834.302,-105.084 806.742,-111.944 781.97,-117.317"/>
<polygon fill="midnightblue" stroke="midnightblue" points="856.403,-102.272 864.963,-96.0286 854.378,-95.5716 856.403,-102.272"/>
</g>
<!-- Node14&#45;&gt;Node5 -->
<g id="edge36" class="edge"><title>Node14&#45;&gt;Node5</title>
<path fill="none" stroke="midnightblue" d="M862.21,-59.2167C848.652,-63.4938 832.12,-68.2822 818,-74.4524 791.859,-85.8754 764.344,-103.258 745.146,-114.81"/>
<polygon fill="midnightblue" stroke="midnightblue" points="863.5,-62.4771 871.908,-56.0314 861.315,-55.8267 863.5,-62.4771"/>
</g>
<!-- Node16 -->
<g id="node36" class="node"><title>Node16</title>
<a xlink:href="classSocketServer.xhtml#afdbc60c3bc840875d2214b59c6213f63" target="_top" xlink:title="Accept a new connection on the listening port.">
<polygon fill="white" stroke="black" points="1021,-234.952 1021,-255.952 1141,-255.952 1141,-234.952 1021,-234.952"/>
<text text-anchor="middle" x="1081" y="-242.952" font-family="FreeSans.ttf" font-size="10.00">SocketServer::Accept</text>
</a>
</g>
<!-- Node15&#45;&gt;Node16 -->
<g id="edge40" class="edge"><title>Node15&#45;&gt;Node16</title>
<path fill="none" stroke="midnightblue" d="M950.773,-245.452C973.168,-245.452 998.424,-245.452 1020.69,-245.452"/>
<polygon fill="midnightblue" stroke="midnightblue" points="950.705,-241.952 940.705,-245.452 950.705,-248.952 950.705,-241.952"/>
</g>
<!-- Node17 -->
<g id="node38" class="node"><title>Node17</title>
<a xlink:href="classServer.xhtml#a39dbe16fdc8c5f6fbd678c6540fbcd6c" target="_top" xlink:title="Poll all SocketClient objects that are communicating with the associated SocketServer object...">
<polygon fill="white" stroke="black" points="1205.5,-234.952 1205.5,-255.952 1314.5,-255.952 1314.5,-234.952 1205.5,-234.952"/>
<text text-anchor="middle" x="1260" y="-242.952" font-family="FreeSans.ttf" font-size="10.00">Server::PollSockets</text>
</a>
</g>
<!-- Node16&#45;&gt;Node17 -->
<g id="edge42" class="edge"><title>Node16&#45;&gt;Node17</title>
<path fill="none" stroke="midnightblue" d="M1151.27,-245.452C1169.28,-245.452 1188.39,-245.452 1205.48,-245.452"/>
<polygon fill="midnightblue" stroke="midnightblue" points="1151.1,-241.952 1141.1,-245.452 1151.1,-248.952 1151.1,-241.952"/>
</g>
<!-- Node17&#45;&gt;Node9 -->
<g id="edge44" class="edge"><title>Node17&#45;&gt;Node9</title>
<path fill="none" stroke="midnightblue" d="M1324.57,-236.161C1334.69,-234.706 1344.94,-233.23 1354.47,-231.859"/>
<polygon fill="midnightblue" stroke="midnightblue" points="1323.94,-232.717 1314.54,-237.605 1324.93,-239.645 1323.94,-232.717"/>
</g>
<!-- Node19 -->
<g id="node43" class="node"><title>Node19</title>
<a xlink:href="classSocketClient.xhtml#a92fea2bf7e0f20578404ce1abb835a0b" target="_top" xlink:title="Process data from the client&#39;s receive buffer and split it into commands to queue as necessary...">
<polygon fill="white" stroke="black" points="478,-5.95238 478,-26.9524 622,-26.9524 622,-5.95238 478,-5.95238"/>
<text text-anchor="middle" x="550" y="-13.9524" font-family="FreeSans.ttf" font-size="10.00">SocketClient::ProcessInput</text>
</a>
</g>
<!-- Node18&#45;&gt;Node19 -->
<g id="edge48" class="edge"><title>Node18&#45;&gt;Node19</title>
<path fill="none" stroke="midnightblue" d="M452.264,-21.5964C460.836,-21.1452 469.438,-20.6925 477.79,-20.2529"/>
<polygon fill="midnightblue" stroke="midnightblue" points="452.034,-18.1036 442.232,-22.1244 452.402,-25.0939 452.034,-18.1036"/>
</g>
<!-- Node19&#45;&gt;Node8 -->
<g id="edge50" class="edge"><title>Node19&#45;&gt;Node8</title>
<path fill="none" stroke="midnightblue" d="M632.05,-6.10332C716.172,1.71771 849.903,6.34768 960,-25.4524 1084,-61.2685 1208.85,-161.65 1247.7,-194.729"/>
<polygon fill="midnightblue" stroke="midnightblue" points="631.659,-2.62472 622.042,-7.07069 632.332,-9.59225 631.659,-2.62472"/>
</g>
</g>
</svg>
        <g id="navigator" transform="translate(0 0)" fill="#404254">
                <rect fill="#f2f5e9" fill-opacity="0.5" stroke="#606060" stroke-width=".5" x="0" y="0" width="60" height="60"/>
                <use id="zoomplus" xlink:href="#zoomPlus" x="17" y="9" onmousedown="handleZoom(evt,'in')"/>
                <use id="zoomminus" xlink:href="#zoomMin" x="42" y="9" onmousedown="handleZoom(evt,'out')"/>
                <use id="reset" xlink:href="#resetDef" x="30" y="36" onmousedown="handleReset()"/>
                <g id="arrowUp" xlink:href="#dirArrow" transform="translate(30 24)" onmousedown="handlePan(0,-1)">
                  <use xlink:href="#rim" fill="#404040">
                        <set attributeName="fill" to="#808080" begin="arrowUp.mouseover" end="arrowUp.mouseout"/>
                  </use>
                  <path fill="none" stroke="white" stroke-width="1.5" d="M0,-3.0v7 M-2.5,-0.5L0,-3.0L2.5,-0.5"/>
                </g>
                <g id="arrowRight" xlink:href="#dirArrow" transform="rotate(90) translate(36 -43)" onmousedown="handlePan(1,0)">
                  <use xlink:href="#rim" fill="#404040">
                        <set attributeName="fill" to="#808080" begin="arrowRight.mouseover" end="arrowRight.mouseout"/>
                  </use>
                  <path fill="none" stroke="white" stroke-width="1.5" d="M0,-3.0v7 M-2.5,-0.5L0,-3.0L2.5,-0.5"/>
                </g>
                <g id="arrowDown" xlink:href="#dirArrow" transform="rotate(180) translate(-30 -48)" onmousedown="handlePan(0,1)">
                  <use xlink:href="#rim" fill="#404040">
                        <set attributeName="fill" to="#808080" begin="arrowDown.mouseover" end="arrowDown.mouseout"/>
                  </use>
                  <path fill="none" stroke="white" stroke-width="1.5" d="M0,-3.0v7 M-2.5,-0.5L0,-3.0L2.5,-0.5"/>
                </g>
                <g id="arrowLeft" xlink:href="#dirArrow" transform="rotate(270) translate(-36 17)" onmousedown="handlePan(-1,0)">
                  <use xlink:href="#rim" fill="#404040">
                        <set attributeName="fill" to="#808080" begin="arrowLeft.mouseover" end="arrowLeft.mouseout"/>
                  </use>
                  <path fill="none" stroke="white" stroke-width="1.5" d="M0,-3.0v7 M-2.5,-0.5L0,-3.0L2.5,-0.5"/>
                </g>
        </g>
</svg>
