<?xml version="1.0" encoding="UTF-8" standalone="no"?>
<!DOCTYPE svg PUBLIC "-//W3C//DTD SVG 1.1//EN"
 "http://www.w3.org/Graphics/SVG/1.1/DTD/svg11.dtd">
<!-- Generated by graphviz version 2.26.3 (20100126.1600)
 -->
<!-- Title: G Pages: 1 -->
<!--zoomable 779 -->
<svg id="main" version="1.1" xmlns="http://www.w3.org/2000/svg" xmlns:xlink="http://www.w3.org/1999/xlink" xml:space="preserve" onload="init(evt)">
        <defs>
                <circle id="rim" cx="0" cy="0" r="7"/>
                <circle id="rim2" cx="0" cy="0" r="3.5"/>
                <g id="zoomPlus">
                        <use xlink:href="#rim" fill="#404040">
                                <set attributeName="fill" to="#808080" begin="zoomplus.mouseover" end="zoomplus.mouseout"/>
                        </use>
                        <path d="M-4,0h8M0,-4v8" fill="none" stroke="white" stroke-width="1.5" pointer-events="none"/>
                </g>
                <g id="zoomMin">
                        <use xlink:href="#rim" fill="#404040">
                                <set attributeName="fill" to="#808080" begin="zoomminus.mouseover" end="zoomminus.mouseout"/>
                        </use>
                        <path d="M-4,0h8" fill="none" stroke="white" stroke-width="1.5" pointer-events="none"/>
                </g>
                <g id="dirArrow">
                        <path fill="none" stroke="white" stroke-width="1.5" d="M0,-3.0v7 M-2.5,-0.5L0,-3.0L2.5,-0.5"/>
                </g>
               <g id="resetDef">
                       <use xlink:href="#rim2" fill="#404040">
                               <set attributeName="fill" to="#808080" begin="reset.mouseover" end="reset.mouseout"/>
                       </use>
               </g>
        </defs>

<script type="text/javascript">
var viewWidth = 1678;
var viewHeight = 779;
var sectionId = 'dynsection-9';
</script>
<script xlink:href="svgpan.js"/>
<svg id="graph" class="graph">
<g id="viewport">
<title>G</title>
<polygon fill="white" stroke="white" points="-4,5 -4,-774.562 1675,-774.562 1675,5 -4,5"/>
<!-- Node1 -->
<g id="node1" class="node"><title>Node1</title>
<polygon fill="#bfbfbf" stroke="black" points="0.5,-537.5 0.5,-558.5 85.5,-558.5 85.5,-537.5 0.5,-537.5"/>
<text text-anchor="middle" x="43" y="-545.5" font-family="FreeSans.ttf" font-size="10.00">Utils::FileClose</text>
</g>
<!-- Node2 -->
<g id="node3" class="node"><title>Node2</title>
<a xlink:href="classAccount.xhtml#a87dfcb1fd6c275ea89ec6f279e7ee8ff" target="_top" xlink:title="Serialize the account data.">
<polygon fill="white" stroke="black" points="123,-478.5 123,-499.5 225,-499.5 225,-478.5 123,-478.5"/>
<text text-anchor="middle" x="174" y="-486.5" font-family="FreeSans.ttf" font-size="10.00">Account::Serialize</text>
</a>
</g>
<!-- Node1&#45;&gt;Node2 -->
<g id="edge2" class="edge"><title>Node1&#45;&gt;Node2</title>
<path fill="none" stroke="midnightblue" d="M75.5445,-533.343C98.7574,-522.888 129.438,-509.07 150.341,-499.656"/>
<polygon fill="midnightblue" stroke="midnightblue" points="74.1008,-530.154 66.4202,-537.452 76.9754,-536.537 74.1008,-530.154"/>
</g>
<!-- Node28 -->
<g id="node71" class="node"><title>Node28</title>
<a xlink:href="classAccount.xhtml#ae236325fef7b2269f54e9567577e0b92" target="_top" xlink:title="Unserialize the account data.">
<polygon fill="white" stroke="black" points="263,-517.5 263,-538.5 377,-538.5 377,-517.5 263,-517.5"/>
<text text-anchor="middle" x="320" y="-525.5" font-family="FreeSans.ttf" font-size="10.00">Account::Unserialize</text>
</a>
</g>
<!-- Node1&#45;&gt;Node28 -->
<g id="edge94" class="edge"><title>Node1&#45;&gt;Node28</title>
<path fill="none" stroke="midnightblue" d="M95.8118,-544.187C143.588,-540.737 213.772,-535.67 262.848,-532.126"/>
<polygon fill="midnightblue" stroke="midnightblue" points="95.3961,-540.708 85.6742,-544.919 95.9003,-547.69 95.3961,-540.708"/>
</g>
<!-- Node29 -->
<g id="node77" class="node"><title>Node29</title>
<a xlink:href="classCharacter.xhtml#acbf271cc1d8bf64bd5bd4c286f508f67" target="_top" xlink:title="Serialize the character data.">
<polygon fill="white" stroke="black" points="265,-557.5 265,-578.5 375,-578.5 375,-557.5 265,-557.5"/>
<text text-anchor="middle" x="320" y="-565.5" font-family="FreeSans.ttf" font-size="10.00">Character::Serialize</text>
</a>
</g>
<!-- Node1&#45;&gt;Node29 -->
<g id="edge96" class="edge"><title>Node1&#45;&gt;Node29</title>
<path fill="none" stroke="midnightblue" d="M95.9463,-551.823C144.376,-555.32 215.747,-560.473 264.856,-564.018"/>
<polygon fill="midnightblue" stroke="midnightblue" points="95.9003,-548.31 85.6742,-551.081 95.3961,-555.292 95.9003,-548.31"/>
</g>
<!-- Node30 -->
<g id="node80" class="node"><title>Node30</title>
<a xlink:href="classCharacter.xhtml#a91193d9bb29423c2ec95fb56c27d6bb3" target="_top" xlink:title="Unserialize the character data.">
<polygon fill="white" stroke="black" points="414,-171.5 414,-192.5 536,-192.5 536,-171.5 414,-171.5"/>
<text text-anchor="middle" x="475" y="-179.5" font-family="FreeSans.ttf" font-size="10.00">Character::Unserialize</text>
</a>
</g>
<!-- Node1&#45;&gt;Node30 -->
<g id="edge100" class="edge"><title>Node1&#45;&gt;Node30</title>
<path fill="none" stroke="midnightblue" d="M52.6773,-528.031C78.9548,-475.834 156.787,-334.052 262,-257 308.654,-222.834 372.257,-203.141 417.79,-192.585"/>
<polygon fill="midnightblue" stroke="midnightblue" points="49.4227,-526.717 48.1164,-537.231 55.6942,-529.826 49.4227,-526.717"/>
</g>
<!-- Node32 -->
<g id="node86" class="node"><title>Node32</title>
<a xlink:href="classLocation.xhtml#a4f364ffc1f0910ac60bcb2e7cf9e7e20" target="_top" xlink:title="Serialize the location data.">
<polygon fill="white" stroke="black" points="122,-183.5 122,-204.5 226,-204.5 226,-183.5 122,-183.5"/>
<text text-anchor="middle" x="174" y="-191.5" font-family="FreeSans.ttf" font-size="10.00">Location::Serialize</text>
</a>
</g>
<!-- Node1&#45;&gt;Node32 -->
<g id="edge108" class="edge"><title>Node1&#45;&gt;Node32</title>
<path fill="none" stroke="midnightblue" d="M45.6445,-527.144C54.1823,-462.612 82.7542,-267.616 122,-219 126.908,-212.921 133.652,-208.225 140.659,-204.634"/>
<polygon fill="midnightblue" stroke="midnightblue" points="42.1431,-526.93 44.3253,-537.297 49.0847,-527.832 42.1431,-526.93"/>
</g>
<!-- Node33 -->
<g id="node88" class="node"><title>Node33</title>
<a xlink:href="classLocation.xhtml#af65d15c0c107b1fdea7711d632ac909d" target="_top" xlink:title="Unserialize the location data.">
<polygon fill="white" stroke="black" points="262,-635.5 262,-656.5 378,-656.5 378,-635.5 262,-635.5"/>
<text text-anchor="middle" x="320" y="-643.5" font-family="FreeSans.ttf" font-size="10.00">Location::Unserialize</text>
</a>
</g>
<!-- Node1&#45;&gt;Node33 -->
<g id="edge110" class="edge"><title>Node1&#45;&gt;Node33</title>
<path fill="none" stroke="midnightblue" d="M57.467,-566.858C71.8244,-584.07 95.4742,-608.649 122,-621 165.974,-641.475 221.068,-647.033 261.968,-647.865"/>
<polygon fill="midnightblue" stroke="midnightblue" points="59.8395,-564.224 50.8401,-558.633 54.3886,-568.616 59.8395,-564.224"/>
</g>
<!-- Node36 -->
<g id="node95" class="node"><title>Node36</title>
<a xlink:href="classServer_1_1Config.xhtml#a2b99a2a519c260a79d53c489781321fc" target="_top" xlink:title="Serialize runtime configuration settings and write them to CFG_DAT_FILE_SETTINGS.">
<polygon fill="white" stroke="black" points="572.5,-693.5 572.5,-714.5 703.5,-714.5 703.5,-693.5 572.5,-693.5"/>
<text text-anchor="middle" x="638" y="-701.5" font-family="FreeSans.ttf" font-size="10.00">Server::Config::Serialize</text>
</a>
</g>
<!-- Node1&#45;&gt;Node36 -->
<g id="edge118" class="edge"><title>Node1&#45;&gt;Node36</title>
<path fill="none" stroke="midnightblue" d="M52.5367,-567.743C64.9928,-591.175 89.1462,-629.406 122,-648 266.097,-729.556 469.179,-722.886 572.331,-712.624"/>
<polygon fill="midnightblue" stroke="midnightblue" points="55.5879,-566.022 47.9232,-558.708 49.3535,-569.206 55.5879,-566.022"/>
</g>
<!-- Node39 -->
<g id="node105" class="node"><title>Node39</title>
<a xlink:href="classServer_1_1Config.xhtml#a54dba418bfd3365ccfb30bda37ccd461" target="_top" xlink:title="Unserialize runtime configuration settings from CFG_DAT_FILE_SETTINGS.">
<polygon fill="white" stroke="black" points="740.5,-596.5 740.5,-617.5 883.5,-617.5 883.5,-596.5 740.5,-596.5"/>
<text text-anchor="middle" x="812" y="-604.5" font-family="FreeSans.ttf" font-size="10.00">Server::Config::Unserialize</text>
</a>
</g>
<!-- Node1&#45;&gt;Node39 -->
<g id="edge132" class="edge"><title>Node1&#45;&gt;Node39</title>
<path fill="none" stroke="midnightblue" d="M82.1849,-561.78C135.349,-579.215 233.621,-607 320,-607 320,-607 320,-607 475,-607 566.563,-607 672.121,-607 740.343,-607"/>
<polygon fill="midnightblue" stroke="midnightblue" points="83.0768,-558.388 72.4832,-558.548 80.8644,-565.029 83.0768,-558.388"/>
</g>
<!-- Node3 -->
<g id="node5" class="node"><title>Node3</title>
<a xlink:href="classAccount.xhtml#adc4545f17264112e532b5a48abe94baf" target="_top" xlink:title="Create a new account.">
<polygon fill="white" stroke="black" points="434,-439.5 434,-460.5 516,-460.5 516,-439.5 434,-439.5"/>
<text text-anchor="middle" x="475" y="-447.5" font-family="FreeSans.ttf" font-size="10.00">Account::New</text>
</a>
</g>
<!-- Node2&#45;&gt;Node3 -->
<g id="edge4" class="edge"><title>Node2&#45;&gt;Node3</title>
<path fill="none" stroke="midnightblue" d="M235.176,-478.937C244.163,-477.555 253.315,-476.2 262,-475 321.565,-466.77 390.747,-458.974 433.705,-454.34"/>
<polygon fill="midnightblue" stroke="midnightblue" points="234.475,-475.504 225.134,-480.502 235.553,-482.42 234.475,-475.504"/>
</g>
<!-- Node6 -->
<g id="node12" class="node"><title>Node6</title>
<a xlink:href="namespaceHandler.xhtml#a2e4ebf6ed049eb872aa4948d54c4932c" target="_top" xlink:title="Attempt to write a new character to disk after creation was completed.">
<polygon fill="white" stroke="black" points="944.5,-558.5 944.5,-579.5 1083.5,-579.5 1083.5,-558.5 944.5,-558.5"/>
<text text-anchor="middle" x="1014" y="-566.5" font-family="FreeSans.ttf" font-size="10.00">Handler::AttachCharacter</text>
</a>
</g>
<!-- Node2&#45;&gt;Node6 -->
<g id="edge90" class="edge"><title>Node2&#45;&gt;Node6</title>
<path fill="none" stroke="midnightblue" d="M235.323,-489C296.148,-489 392.009,-489 475,-489 475,-489 475,-489 638,-489 638,-489 862.358,-536.736 964.458,-558.459"/>
<polygon fill="midnightblue" stroke="midnightblue" points="235.128,-485.5 225.128,-489 235.128,-492.5 235.128,-485.5"/>
</g>
<!-- Node11 -->
<g id="node27" class="node"><title>Node11</title>
<a xlink:href="namespaceHandler.xhtml#a97a198bfc72285b2aca4f36978db715e" target="_top" xlink:title="Main Character deletion confirmation.">
<polygon fill="white" stroke="black" points="926,-80.5 926,-101.5 1102,-101.5 1102,-80.5 926,-80.5"/>
<text text-anchor="middle" x="1014" y="-88.5" font-family="FreeSans.ttf" font-size="10.00">Handler::CharacterDeleteConfirm</text>
</a>
</g>
<!-- Node2&#45;&gt;Node11 -->
<g id="edge92" class="edge"><title>Node2&#45;&gt;Node11</title>
<path fill="none" stroke="midnightblue" d="M186.845,-469.979C224.392,-416.894 339.872,-271 475,-271 475,-271 475,-271 638,-271 782.101,-271 785.282,-162.149 920,-111 929.905,-107.239 940.68,-104.114 951.283,-101.54"/>
<polygon fill="midnightblue" stroke="midnightblue" points="183.767,-468.275 180.938,-478.485 189.517,-472.268 183.767,-468.275"/>
</g>
<!-- Node2&#45;&gt;Node28 -->
<g id="edge86" class="edge"><title>Node2&#45;&gt;Node28</title>
<path fill="none" stroke="midnightblue" d="M223.293,-502.167C241.915,-507.142 262.845,-512.733 280.459,-517.438"/>
<polygon fill="midnightblue" stroke="midnightblue" points="224.074,-498.753 213.51,-499.554 222.268,-505.516 224.074,-498.753"/>
</g>
<!-- Node4 -->
<g id="node7" class="node"><title>Node4</title>
<a xlink:href="namespaceHandler.xhtml#a33a19d69ead678af81fbe96907eceaf0" target="_top" xlink:title="Create a new account object, or load an existing one, with a name and password.">
<polygon fill="white" stroke="black" points="572.5,-299.5 572.5,-320.5 703.5,-320.5 703.5,-299.5 572.5,-299.5"/>
<text text-anchor="middle" x="638" y="-307.5" font-family="FreeSans.ttf" font-size="10.00">Handler::AttachAccount</text>
</a>
</g>
<!-- Node3&#45;&gt;Node4 -->
<g id="edge6" class="edge"><title>Node3&#45;&gt;Node4</title>
<path fill="none" stroke="midnightblue" d="M495.157,-432.687C529.324,-403.341 597.622,-344.681 625.606,-320.645"/>
<polygon fill="midnightblue" stroke="midnightblue" points="492.557,-430.307 487.251,-439.477 497.118,-435.617 492.557,-430.307"/>
</g>
<!-- Node5 -->
<g id="node9" class="node"><title>Node5</title>
<a xlink:href="namespaceHandler.xhtml#a139febc000c9d767a620708148e0c888" target="_top" xlink:title="Dispatches the appropriate menu based on client state.">
<polygon fill="white" stroke="black" points="750.5,-299.5 750.5,-320.5 873.5,-320.5 873.5,-299.5 750.5,-299.5"/>
<text text-anchor="middle" x="812" y="-307.5" font-family="FreeSans.ttf" font-size="10.00">Handler::LoginHandler</text>
</a>
</g>
<!-- Node4&#45;&gt;Node5 -->
<g id="edge8" class="edge"><title>Node4&#45;&gt;Node5</title>
<path fill="none" stroke="midnightblue" d="M713.936,-303.299C726.133,-303.191 738.624,-303.262 750.43,-303.513"/>
<polygon fill="midnightblue" stroke="midnightblue" points="713.735,-299.801 703.782,-303.432 713.827,-306.8 713.735,-299.801"/>
</g>
<!-- Node5&#45;&gt;Node4 -->
<g id="edge10" class="edge"><title>Node5&#45;&gt;Node4</title>
<path fill="none" stroke="midnightblue" d="M740.373,-316.655C728.26,-316.806 715.736,-316.777 703.782,-316.568"/>
<polygon fill="midnightblue" stroke="midnightblue" points="740.49,-320.154 750.43,-316.487 740.373,-313.155 740.49,-320.154"/>
</g>
<!-- Node5&#45;&gt;Node6 -->
<g id="edge12" class="edge"><title>Node5&#45;&gt;Node6</title>
<path fill="none" stroke="midnightblue" d="M822.523,-329.679C848.787,-384.949 915.451,-536.337 920,-540 932.345,-549.942 948.472,-555.26 963.875,-558.475"/>
<polygon fill="midnightblue" stroke="midnightblue" points="825.61,-328.022 818.113,-320.535 819.304,-331.063 825.61,-328.022"/>
</g>
<!-- Node7 -->
<g id="node15" class="node"><title>Node7</title>
<a xlink:href="namespaceHandler.xhtml#a73ed6064f2698dbffb5f4c247a02b661" target="_top" xlink:title="Send initial account interface menu.">
<polygon fill="white" stroke="black" points="940,-438.5 940,-459.5 1088,-459.5 1088,-438.5 940,-438.5"/>
<text text-anchor="middle" x="1014" y="-446.5" font-family="FreeSans.ttf" font-size="10.00">Handler::AccountMenuMain</text>
</a>
</g>
<!-- Node5&#45;&gt;Node7 -->
<g id="edge16" class="edge"><title>Node5&#45;&gt;Node7</title>
<path fill="none" stroke="midnightblue" d="M827.944,-328.91C846.564,-354.001 879.972,-396.99 920,-420 937.358,-429.978 959.097,-434.997 977.296,-438.439"/>
<polygon fill="midnightblue" stroke="midnightblue" points="830.744,-326.809 821.988,-320.844 825.112,-330.967 830.744,-326.809"/>
</g>
<!-- Node8 -->
<g id="node18" class="node"><title>Node8</title>
<a xlink:href="namespaceHandler.xhtml#ad04998a7a6ece2486bc441052a57c2d7" target="_top" xlink:title="Main Character creation menu.">
<polygon fill="white" stroke="black" points="920,-398.5 920,-419.5 1108,-419.5 1108,-398.5 920,-398.5"/>
<text text-anchor="middle" x="1014" y="-406.5" font-family="FreeSans.ttf" font-size="10.00">Handler::CharacterCreateMenuMain</text>
</a>
</g>
<!-- Node5&#45;&gt;Node8 -->
<g id="edge20" class="edge"><title>Node5&#45;&gt;Node8</title>
<path fill="none" stroke="midnightblue" d="M838.332,-326.844C859.049,-343.007 889.433,-366.328 920,-380 940.866,-389.333 966.32,-394.405 985.475,-398.482"/>
<polygon fill="midnightblue" stroke="midnightblue" points="840.383,-324.004 830.345,-320.614 836.078,-329.524 840.383,-324.004"/>
</g>
<!-- Node9 -->
<g id="node21" class="node"><title>Node9</title>
<a xlink:href="namespaceHandler.xhtml#ab5889a65de2794129b375ec39ae923ae" target="_top" xlink:title="Select a new Character name.">
<polygon fill="white" stroke="black" points="929.5,-0.5 929.5,-21.5 1098.5,-21.5 1098.5,-0.5 929.5,-0.5"/>
<text text-anchor="middle" x="1014" y="-8.5" font-family="FreeSans.ttf" font-size="10.00">Handler::CharacterCreateName</text>
</a>
</g>
<!-- Node5&#45;&gt;Node9 -->
<g id="edge24" class="edge"><title>Node5&#45;&gt;Node9</title>
<path fill="none" stroke="midnightblue" d="M816.223,-289.641C830.367,-229.811 877.566,-58.1461 920,-22 922.921,-19.5116 926.076,-17.3088 929.4,-15.3671"/>
<polygon fill="midnightblue" stroke="midnightblue" points="812.797,-288.924 813.976,-299.453 819.62,-290.487 812.797,-288.924"/>
</g>
<!-- Node10 -->
<g id="node24" class="node"><title>Node10</title>
<a xlink:href="namespaceHandler.xhtml#ae5086bcf5857eb572beedd09158c3065" target="_top" xlink:title="Select a new Character sex.">
<polygon fill="white" stroke="black" points="935,-358.5 935,-379.5 1093,-379.5 1093,-358.5 935,-358.5"/>
<text text-anchor="middle" x="1014" y="-366.5" font-family="FreeSans.ttf" font-size="10.00">Handler::CharacterCreateSex</text>
</a>
</g>
<!-- Node5&#45;&gt;Node10 -->
<g id="edge28" class="edge"><title>Node5&#45;&gt;Node10</title>
<path fill="none" stroke="midnightblue" d="M869.745,-323.844C885.866,-329.331 903.491,-335.287 920,-340 944.868,-347.099 974.082,-352.934 993.263,-358.43"/>
<polygon fill="midnightblue" stroke="midnightblue" points="870.519,-320.411 859.925,-320.504 868.265,-327.038 870.519,-320.411"/>
</g>
<!-- Node5&#45;&gt;Node11 -->
<g id="edge32" class="edge"><title>Node5&#45;&gt;Node11</title>
<path fill="none" stroke="midnightblue" d="M848.26,-296.615C861.236,-292.454 874.889,-286.382 884,-276 936.091,-216.645 864.316,-157.998 920,-102 921.765,-100.225 923.645,-98.59 925.622,-97.0855"/>
<polygon fill="midnightblue" stroke="midnightblue" points="847.165,-293.288 838.557,-299.464 849.138,-300.005 847.165,-293.288"/>
</g>
<!-- Node12 -->
<g id="node30" class="node"><title>Node12</title>
<a xlink:href="namespaceHandler.xhtml#afc470ec6e82b7a9a1560588a368734f9" target="_top" xlink:title="Main Character deletion menu.">
<polygon fill="white" stroke="black" points="920,-318.5 920,-339.5 1108,-339.5 1108,-318.5 920,-318.5"/>
<text text-anchor="middle" x="1014" y="-326.5" font-family="FreeSans.ttf" font-size="10.00">Handler::CharacterDeleteMenuMain</text>
</a>
</g>
<!-- Node5&#45;&gt;Node12 -->
<g id="edge36" class="edge"><title>Node5&#45;&gt;Node12</title>
<path fill="none" stroke="midnightblue" d="M883.823,-310.262C910.656,-312.302 940.494,-315.31 964.827,-318.487"/>
<polygon fill="midnightblue" stroke="midnightblue" points="883.931,-306.761 873.704,-309.53 883.425,-313.743 883.931,-306.761"/>
</g>
<!-- Node13 -->
<g id="node33" class="node"><title>Node13</title>
<a xlink:href="namespaceHandler.xhtml#a02b1b954749641ab646f6548a5360d3b" target="_top" xlink:title="Main Character load menu.">
<polygon fill="white" stroke="black" points="924.5,-240.5 924.5,-261.5 1103.5,-261.5 1103.5,-240.5 924.5,-240.5"/>
<text text-anchor="middle" x="1014" y="-248.5" font-family="FreeSans.ttf" font-size="10.00">Handler::CharacterLoadMenuMain</text>
</a>
</g>
<!-- Node5&#45;&gt;Node13 -->
<g id="edge40" class="edge"><title>Node5&#45;&gt;Node13</title>
<path fill="none" stroke="midnightblue" d="M835.408,-295.302C857.221,-286.196 890.696,-275.505 920,-267 926.325,-265.164 932.904,-263.308 939.514,-261.511"/>
<polygon fill="midnightblue" stroke="midnightblue" points="833.983,-292.105 826.263,-299.361 836.823,-298.503 833.983,-292.105"/>
</g>
<!-- Node14 -->
<g id="node36" class="node"><title>Node14</title>
<a xlink:href="namespaceHandler.xhtml#a00bc24564bfd267e0329643c569da1e4" target="_top" xlink:title="Select a new account name.">
<polygon fill="white" stroke="black" points="945.5,-200.5 945.5,-221.5 1082.5,-221.5 1082.5,-200.5 945.5,-200.5"/>
<text text-anchor="middle" x="1014" y="-208.5" font-family="FreeSans.ttf" font-size="10.00">Handler::GetNewAccount</text>
</a>
</g>
<!-- Node5&#45;&gt;Node14 -->
<g id="edge44" class="edge"><title>Node5&#45;&gt;Node14</title>
<path fill="none" stroke="midnightblue" d="M841.342,-296.283C855.309,-291.642 871.621,-285.578 884,-276 906.813,-258.349 896.132,-238.197 920,-222 927.593,-216.847 936.263,-212.985 945.195,-210.187"/>
<polygon fill="midnightblue" stroke="midnightblue" points="840.095,-293.008 831.676,-299.44 842.269,-299.662 840.095,-293.008"/>
</g>
<!-- Node15 -->
<g id="node39" class="node"><title>Node15</title>
<a xlink:href="namespaceHandler.xhtml#a744adadcf407cdb3a9c33365afd5a7c2" target="_top" xlink:title="Create a new account.">
<polygon fill="white" stroke="black" points="943,-160.5 943,-181.5 1085,-181.5 1085,-160.5 943,-160.5"/>
<text text-anchor="middle" x="1014" y="-168.5" font-family="FreeSans.ttf" font-size="10.00">Handler::GetNewPassword</text>
</a>
</g>
<!-- Node5&#45;&gt;Node15 -->
<g id="edge48" class="edge"><title>Node5&#45;&gt;Node15</title>
<path fill="none" stroke="midnightblue" d="M845.355,-296.474C858.792,-292.165 873.55,-286.126 884,-276 916.129,-244.869 885.996,-211.071 920,-182 926.595,-176.362 934.389,-172.189 942.623,-169.195"/>
<polygon fill="midnightblue" stroke="midnightblue" points="843.992,-293.229 835.431,-299.471 846.016,-299.931 843.992,-293.229"/>
</g>
<!-- Node16 -->
<g id="node42" class="node"><title>Node16</title>
<a xlink:href="namespaceHandler.xhtml#adfe13cc9748392348f3941656a1323b6" target="_top" xlink:title="Compare a received password against an existing account.">
<polygon fill="white" stroke="black" points="945.5,-120.5 945.5,-141.5 1082.5,-141.5 1082.5,-120.5 945.5,-120.5"/>
<text text-anchor="middle" x="1014" y="-128.5" font-family="FreeSans.ttf" font-size="10.00">Handler::GetOldPassword</text>
</a>
</g>
<!-- Node5&#45;&gt;Node16 -->
<g id="edge52" class="edge"><title>Node5&#45;&gt;Node16</title>
<path fill="none" stroke="midnightblue" d="M847.353,-296.521C860.462,-292.316 874.446,-286.266 884,-276 926.014,-230.859 875.258,-184.439 920,-142 927.142,-135.225 935.985,-130.511 945.366,-127.378"/>
<polygon fill="midnightblue" stroke="midnightblue" points="846.181,-293.218 837.588,-299.416 848.17,-299.929 846.181,-293.218"/>
</g>
<!-- Node17 -->
<g id="node45" class="node"><title>Node17</title>
<a xlink:href="namespaceHandler.xhtml#ae70e4e50054c729c14493eafefe01b5c" target="_top" xlink:title="Load a character from the account to enter into the game with.">
<polygon fill="white" stroke="black" points="948.5,-40.5 948.5,-61.5 1079.5,-61.5 1079.5,-40.5 948.5,-40.5"/>
<text text-anchor="middle" x="1014" y="-48.5" font-family="FreeSans.ttf" font-size="10.00">Handler::LoadCharacter</text>
</a>
</g>
<!-- Node5&#45;&gt;Node17 -->
<g id="edge56" class="edge"><title>Node5&#45;&gt;Node17</title>
<path fill="none" stroke="midnightblue" d="M814.296,-289.278C821.308,-240.794 846.625,-121.094 920,-62 928.187,-55.4068 938.037,-50.8474 948.236,-47.8543"/>
<polygon fill="midnightblue" stroke="midnightblue" points="810.786,-289.125 812.948,-299.497 817.726,-290.041 810.786,-289.125"/>
</g>
<!-- Node18 -->
<g id="node48" class="node"><title>Node18</title>
<a xlink:href="namespaceHandler.xhtml#a44b41bf69fdc6e615a029bea34910191" target="_top" xlink:title="Send initial greeting and request for account name.">
<polygon fill="white" stroke="black" points="954.5,-518.5 954.5,-539.5 1073.5,-539.5 1073.5,-518.5 954.5,-518.5"/>
<text text-anchor="middle" x="1014" y="-526.5" font-family="FreeSans.ttf" font-size="10.00">Handler::LoginScreen</text>
</a>
</g>
<!-- Node5&#45;&gt;Node18 -->
<g id="edge60" class="edge"><title>Node5&#45;&gt;Node18</title>
<path fill="none" stroke="midnightblue" d="M818.5,-330.582C830.671,-370.224 861.152,-456.039 920,-500 933.367,-509.985 950.634,-515.222 966.715,-518.431"/>
<polygon fill="midnightblue" stroke="midnightblue" points="821.826,-329.487 815.606,-320.91 815.119,-331.494 821.826,-329.487"/>
</g>
<!-- Node19 -->
<g id="node51" class="node"><title>Node19</title>
<a xlink:href="classSocketClient.xhtml#a48c79d01b91f2c1553c3b33b26714215" target="_top" xlink:title="Build a SocketClient for a new client connection and set all attributes.">
<polygon fill="white" stroke="black" points="962.5,-478.5 962.5,-499.5 1065.5,-499.5 1065.5,-478.5 962.5,-478.5"/>
<text text-anchor="middle" x="1014" y="-486.5" font-family="FreeSans.ttf" font-size="10.00">SocketClient::New</text>
</a>
</g>
<!-- Node5&#45;&gt;Node19 -->
<g id="edge64" class="edge"><title>Node5&#45;&gt;Node19</title>
<path fill="none" stroke="midnightblue" d="M819.678,-330.013C833.916,-364.286 867.798,-433.905 920,-469 932.462,-477.378 947.779,-482.337 962.405,-485.246"/>
<polygon fill="midnightblue" stroke="midnightblue" points="822.868,-328.563 815.892,-320.589 816.372,-331.173 822.868,-328.563"/>
</g>
<!-- Node26 -->
<g id="node66" class="node"><title>Node26</title>
<a xlink:href="classSocketClient.xhtml#ad4f63c7d906310dc56a1217136047d7f" target="_top" xlink:title="Interpret the command at the front of the queue.">
<polygon fill="white" stroke="black" points="1144,-369.5 1144,-390.5 1314,-390.5 1314,-369.5 1144,-369.5"/>
<text text-anchor="middle" x="1229" y="-377.5" font-family="FreeSans.ttf" font-size="10.00">SocketClient::ProcessCommand</text>
</a>
</g>
<!-- Node5&#45;&gt;Node26 -->
<g id="edge80" class="edge"><title>Node5&#45;&gt;Node26</title>
<path fill="none" stroke="midnightblue" d="M883.876,-299.24C944.694,-292.608 1033.58,-288.778 1108,-309 1151.48,-320.815 1195.31,-352.632 1216.27,-369.372"/>
<polygon fill="midnightblue" stroke="midnightblue" points="883.148,-295.801 873.611,-300.415 883.944,-302.755 883.148,-295.801"/>
</g>
<!-- Node6&#45;&gt;Node5 -->
<g id="edge14" class="edge"><title>Node6&#45;&gt;Node5</title>
<path fill="none" stroke="midnightblue" d="M935.067,-567.236C929.677,-564.739 924.579,-561.687 920,-558 914.958,-553.939 833.586,-368.349 815.53,-320.76"/>
<polygon fill="midnightblue" stroke="midnightblue" points="933.784,-570.492 944.37,-570.929 936.367,-563.986 933.784,-570.492"/>
</g>
<!-- Node7&#45;&gt;Node5 -->
<g id="edge18" class="edge"><title>Node7&#45;&gt;Node5</title>
<path fill="none" stroke="midnightblue" d="M930.335,-443.17C926.767,-441.619 923.304,-439.9 920,-438 868.722,-408.522 828.308,-346.258 815.93,-320.614"/>
<polygon fill="midnightblue" stroke="midnightblue" points="929.393,-446.558 939.983,-446.886 931.91,-440.026 929.393,-446.558"/>
</g>
<!-- Node8&#45;&gt;Node5 -->
<g id="edge22" class="edge"><title>Node8&#45;&gt;Node5</title>
<path fill="none" stroke="midnightblue" d="M911.883,-394.101C871.002,-373.452 832.775,-338.643 818.203,-320.505"/>
<polygon fill="midnightblue" stroke="midnightblue" points="910.384,-397.264 920.917,-398.406 913.395,-390.945 910.384,-397.264"/>
</g>
<!-- Node9&#45;&gt;Node5 -->
<g id="edge26" class="edge"><title>Node9&#45;&gt;Node5</title>
<path fill="none" stroke="midnightblue" d="M951.855,-23.998C940.294,-27.3461 929.03,-32.3082 920,-40 876.902,-76.7119 828.888,-253.218 815.584,-299.252"/>
<polygon fill="midnightblue" stroke="midnightblue" points="952.753,-27.3811 961.593,-21.5408 951.041,-20.5938 952.753,-27.3811"/>
</g>
<!-- Node10&#45;&gt;Node5 -->
<g id="edge30" class="edge"><title>Node10&#45;&gt;Node5</title>
<path fill="none" stroke="midnightblue" d="M925.017,-359.399C923.328,-358.939 921.655,-358.472 920,-358 884.537,-347.876 843.928,-332.017 824.131,-320.603"/>
<polygon fill="midnightblue" stroke="midnightblue" points="924.264,-362.82 934.824,-361.958 926.031,-356.047 924.264,-362.82"/>
</g>
<!-- Node11&#45;&gt;Node5 -->
<g id="edge34" class="edge"><title>Node11&#45;&gt;Node5</title>
<path fill="none" stroke="midnightblue" d="M945.84,-104.493C936.196,-107.91 927.147,-112.813 920,-120 864.316,-175.998 936.091,-234.645 884,-294 880.945,-297.481 877.38,-300.477 873.501,-303.033"/>
<polygon fill="midnightblue" stroke="midnightblue" points="947.071,-107.777 955.636,-101.541 945.051,-101.075 947.071,-107.777"/>
</g>
<!-- Node12&#45;&gt;Node5 -->
<g id="edge38" class="edge"><title>Node12&#45;&gt;Node5</title>
<path fill="none" stroke="midnightblue" d="M909.887,-325.954C892.882,-324.324 875.995,-322.449 861.156,-320.511"/>
<polygon fill="midnightblue" stroke="midnightblue" points="909.617,-329.444 919.898,-326.885 910.265,-322.474 909.617,-329.444"/>
</g>
<!-- Node13&#45;&gt;Node5 -->
<g id="edge42" class="edge"><title>Node13&#45;&gt;Node5</title>
<path fill="none" stroke="midnightblue" d="M988.203,-265.005C969.268,-271.399 942.957,-278.337 920,-285 904.142,-289.602 887.063,-294.845 871.272,-299.494"/>
<polygon fill="midnightblue" stroke="midnightblue" points="989.409,-268.291 997.636,-261.615 987.042,-261.704 989.409,-268.291"/>
</g>
<!-- Node14&#45;&gt;Node5 -->
<g id="edge46" class="edge"><title>Node14&#45;&gt;Node5</title>
<path fill="none" stroke="midnightblue" d="M960.848,-223.641C946.683,-226.939 931.998,-231.858 920,-240 896.132,-256.197 906.813,-276.349 884,-294 880.756,-296.51 877.241,-298.779 873.57,-300.812"/>
<polygon fill="midnightblue" stroke="midnightblue" points="961.958,-226.985 971.025,-221.503 960.519,-220.134 961.958,-226.985"/>
</g>
<!-- Node15&#45;&gt;Node5 -->
<g id="edge50" class="edge"><title>Node15&#45;&gt;Node5</title>
<path fill="none" stroke="midnightblue" d="M951.833,-183.973C940.274,-187.323 929.016,-192.292 920,-200 885.996,-229.071 916.129,-262.869 884,-294 880.864,-297.039 877.34,-299.709 873.58,-302.037"/>
<polygon fill="midnightblue" stroke="midnightblue" points="952.732,-187.356 961.571,-181.515 951.019,-180.569 952.732,-187.356"/>
</g>
<!-- Node16&#45;&gt;Node5 -->
<g id="edge54" class="edge"><title>Node16&#45;&gt;Node5</title>
<path fill="none" stroke="midnightblue" d="M947.596,-144.388C937.391,-147.78 927.706,-152.691 920,-160 875.258,-202.439 926.014,-248.859 884,-294 880.935,-297.293 877.414,-300.153 873.612,-302.614"/>
<polygon fill="midnightblue" stroke="midnightblue" points="948.83,-147.676 957.491,-141.573 946.915,-140.943 948.83,-147.676"/>
</g>
<!-- Node17&#45;&gt;Node5 -->
<g id="edge58" class="edge"><title>Node17&#45;&gt;Node5</title>
<path fill="none" stroke="midnightblue" d="M954.073,-63.8638C941.837,-67.1895 929.741,-72.155 920,-80 845.53,-139.976 820.563,-262.38 813.995,-299.464"/>
<polygon fill="midnightblue" stroke="midnightblue" points="954.961,-67.2505 963.875,-61.5246 953.335,-60.4417 954.961,-67.2505"/>
</g>
<!-- Node18&#45;&gt;Node5 -->
<g id="edge62" class="edge"><title>Node18&#45;&gt;Node5</title>
<path fill="none" stroke="midnightblue" d="M944.152,-530.244C935.501,-527.365 927.187,-523.369 920,-518 850.718,-466.244 820.754,-356.477 813.696,-320.917"/>
<polygon fill="midnightblue" stroke="midnightblue" points="943.446,-533.681 954.021,-533.034 945.35,-526.945 943.446,-533.681"/>
</g>
<!-- Node20 -->
<g id="node53" class="node"><title>Node20</title>
<a xlink:href="classServer.xhtml#a16ea0639731dee10e1a253375b508a02" target="_top" xlink:title="Recovers the server state and re&#45;connects client sockets after a reboot.">
<polygon fill="white" stroke="black" points="1164,-538.5 1164,-559.5 1294,-559.5 1294,-538.5 1164,-538.5"/>
<text text-anchor="middle" x="1229" y="-546.5" font-family="FreeSans.ttf" font-size="10.00">Server::RebootRecovery</text>
</a>
</g>
<!-- Node19&#45;&gt;Node20 -->
<g id="edge66" class="edge"><title>Node19&#45;&gt;Node20</title>
<path fill="none" stroke="midnightblue" d="M1075.76,-501.13C1086.56,-503.538 1097.64,-506.195 1108,-509 1139.82,-517.617 1175.59,-529.754 1199.93,-538.394"/>
<polygon fill="midnightblue" stroke="midnightblue" points="1076.48,-497.703 1065.96,-498.992 1074.98,-504.543 1076.48,-497.703"/>
</g>
<!-- Node23 -->
<g id="node59" class="node"><title>Node23</title>
<a xlink:href="classSocketServer.xhtml#afdbc60c3bc840875d2214b59c6213f63" target="_top" xlink:title="Accept a new connection on the listening port.">
<polygon fill="white" stroke="black" points="1169,-488.5 1169,-509.5 1289,-509.5 1289,-488.5 1169,-488.5"/>
<text text-anchor="middle" x="1229" y="-496.5" font-family="FreeSans.ttf" font-size="10.00">SocketServer::Accept</text>
</a>
</g>
<!-- Node19&#45;&gt;Node23 -->
<g id="edge72" class="edge"><title>Node19&#45;&gt;Node23</title>
<path fill="none" stroke="midnightblue" d="M1075.87,-491.878C1105.12,-493.238 1139.9,-494.856 1168.92,-496.206"/>
<polygon fill="midnightblue" stroke="midnightblue" points="1075.92,-488.376 1065.77,-491.408 1075.6,-495.369 1075.92,-488.376"/>
</g>
<!-- Node21 -->
<g id="node55" class="node"><title>Node21</title>
<a xlink:href="classServer.xhtml#a19a1e493e1fb50a56d9c77332543d565" target="_top" xlink:title="Start the NAMS Server. Responsible for calling all critical boot&#45;time functions such as SocketServer ...">
<polygon fill="white" stroke="black" points="1363,-635.5 1363,-656.5 1453,-656.5 1453,-635.5 1363,-635.5"/>
<text text-anchor="middle" x="1408" y="-643.5" font-family="FreeSans.ttf" font-size="10.00">Server::Startup</text>
</a>
</g>
<!-- Node20&#45;&gt;Node21 -->
<g id="edge68" class="edge"><title>Node20&#45;&gt;Node21</title>
<path fill="none" stroke="midnightblue" d="M1258.42,-564.406C1274.82,-573.035 1295.59,-584.034 1314,-594 1340.08,-608.115 1370.02,-624.756 1388.97,-635.34"/>
<polygon fill="midnightblue" stroke="midnightblue" points="1259.8,-561.178 1249.32,-559.624 1256.55,-567.374 1259.8,-561.178"/>
</g>
<!-- Node22 -->
<g id="node57" class="node"><title>Node22</title>
<a xlink:href="main_8cpp.xhtml#ad53223b8779f25caeddb70a3b9172967" target="_top" xlink:title="The default function required to execute the server.">
<polygon fill="white" stroke="black" points="1628.5,-635.5 1628.5,-656.5 1669.5,-656.5 1669.5,-635.5 1628.5,-635.5"/>
<text text-anchor="middle" x="1649" y="-643.5" font-family="FreeSans.ttf" font-size="10.00">main</text>
</a>
</g>
<!-- Node21&#45;&gt;Node22 -->
<g id="edge70" class="edge"><title>Node21&#45;&gt;Node22</title>
<path fill="none" stroke="midnightblue" d="M1463.24,-646C1515.87,-646 1592.28,-646 1628.49,-646"/>
<polygon fill="midnightblue" stroke="midnightblue" points="1463.05,-642.5 1453.05,-646 1463.05,-649.5 1463.05,-642.5"/>
</g>
<!-- Node24 -->
<g id="node61" class="node"><title>Node24</title>
<a xlink:href="classServer.xhtml#a39dbe16fdc8c5f6fbd678c6540fbcd6c" target="_top" xlink:title="Poll all SocketClient objects that are communicating with the associated SocketServer object...">
<polygon fill="white" stroke="black" points="1353.5,-537.5 1353.5,-558.5 1462.5,-558.5 1462.5,-537.5 1353.5,-537.5"/>
<text text-anchor="middle" x="1408" y="-545.5" font-family="FreeSans.ttf" font-size="10.00">Server::PollSockets</text>
</a>
</g>
<!-- Node23&#45;&gt;Node24 -->
<g id="edge74" class="edge"><title>Node23&#45;&gt;Node24</title>
<path fill="none" stroke="midnightblue" d="M1277.28,-512.217C1306.17,-520.124 1342.37,-530.036 1369.36,-537.421"/>
<polygon fill="midnightblue" stroke="midnightblue" points="1277.97,-508.776 1267.4,-509.512 1276.12,-515.528 1277.97,-508.776"/>
</g>
<!-- Node25 -->
<g id="node63" class="node"><title>Node25</title>
<a xlink:href="classServer.xhtml#a50b81aa91d8fdaee6f52c5c5ec987990" target="_top" xlink:title="The core update loop of NAMS. This loop spawns all other subsystem update routines and then sleeps fo...">
<polygon fill="white" stroke="black" points="1502.5,-567.5 1502.5,-588.5 1591.5,-588.5 1591.5,-567.5 1502.5,-567.5"/>
<text text-anchor="middle" x="1547" y="-575.5" font-family="FreeSans.ttf" font-size="10.00">Server::Update</text>
</a>
</g>
<!-- Node24&#45;&gt;Node25 -->
<g id="edge76" class="edge"><title>Node24&#45;&gt;Node25</title>
<path fill="none" stroke="midnightblue" d="M1466.81,-560.693C1478.64,-563.246 1490.89,-565.89 1502.15,-568.32"/>
<polygon fill="midnightblue" stroke="midnightblue" points="1467.52,-557.265 1457.01,-558.577 1466.04,-564.108 1467.52,-557.265"/>
</g>
<!-- Node25&#45;&gt;Node22 -->
<g id="edge78" class="edge"><title>Node25&#45;&gt;Node22</title>
<path fill="none" stroke="midnightblue" d="M1571.45,-594.3C1590.6,-607.066 1616.68,-624.45 1633.17,-635.45"/>
<polygon fill="midnightblue" stroke="midnightblue" points="1573.2,-591.26 1562.94,-588.625 1569.32,-597.084 1573.2,-591.26"/>
</g>
<!-- Node27 -->
<g id="node68" class="node"><title>Node27</title>
<a xlink:href="classServer.xhtml#a2b4cec469bb99c2a45e49de5ba74d1ae" target="_top" xlink:title="Processes input from all active SocketClient objects.">
<polygon fill="white" stroke="black" points="1350,-428.5 1350,-449.5 1466,-449.5 1466,-428.5 1350,-428.5"/>
<text text-anchor="middle" x="1408" y="-436.5" font-family="FreeSans.ttf" font-size="10.00">Server::ProcessInput</text>
</a>
</g>
<!-- Node26&#45;&gt;Node27 -->
<g id="edge82" class="edge"><title>Node26&#45;&gt;Node27</title>
<path fill="none" stroke="midnightblue" d="M1270.57,-393.702C1302.7,-404.293 1346.53,-418.739 1375.97,-428.444"/>
<polygon fill="midnightblue" stroke="midnightblue" points="1271.59,-390.354 1261,-390.548 1269.4,-397.003 1271.59,-390.354"/>
</g>
<!-- Node27&#45;&gt;Node25 -->
<g id="edge84" class="edge"><title>Node27&#45;&gt;Node25</title>
<path fill="none" stroke="midnightblue" d="M1426.05,-457.052C1455.34,-486.343 1512.34,-543.338 1536.14,-567.144"/>
<polygon fill="midnightblue" stroke="midnightblue" points="1428.45,-454.503 1418.91,-449.907 1423.5,-459.453 1428.45,-454.503"/>
</g>
<!-- Node28&#45;&gt;Node3 -->
<g id="edge88" class="edge"><title>Node28&#45;&gt;Node3</title>
<path fill="none" stroke="midnightblue" d="M350.218,-512.794C380.76,-497.424 427.158,-474.075 453.932,-460.602"/>
<polygon fill="midnightblue" stroke="midnightblue" points="348.263,-509.859 340.904,-517.481 351.41,-516.112 348.263,-509.859"/>
</g>
<!-- Node29&#45;&gt;Node6 -->
<g id="edge98" class="edge"><title>Node29&#45;&gt;Node6</title>
<path fill="none" stroke="midnightblue" d="M385.311,-568.094C516.246,-568.283 809.785,-568.706 944.281,-568.9"/>
<polygon fill="midnightblue" stroke="midnightblue" points="385.042,-564.594 375.037,-568.079 385.032,-571.594 385.042,-564.594"/>
</g>
<!-- Node31 -->
<g id="node82" class="node"><title>Node31</title>
<a xlink:href="classCharacter.xhtml#af7147ddb783cc1ebf56c21a27dfbed4a" target="_top" xlink:title="Create a new character.">
<polygon fill="white" stroke="black" points="767,-40.5 767,-61.5 857,-61.5 857,-40.5 767,-40.5"/>
<text text-anchor="middle" x="812" y="-48.5" font-family="FreeSans.ttf" font-size="10.00">Character::New</text>
</a>
</g>
<!-- Node30&#45;&gt;Node31 -->
<g id="edge102" class="edge"><title>Node30&#45;&gt;Node31</title>
<path fill="none" stroke="midnightblue" d="M511.788,-167.699C580.04,-141.169 724.787,-84.9019 784.923,-61.5255"/>
<polygon fill="midnightblue" stroke="midnightblue" points="510.345,-164.505 502.293,-171.391 512.881,-171.03 510.345,-164.505"/>
</g>
<!-- Node31&#45;&gt;Node9 -->
<g id="edge104" class="edge"><title>Node31&#45;&gt;Node9</title>
<path fill="none" stroke="midnightblue" d="M867.108,-40.0875C896.282,-34.3105 931.944,-27.2487 960.824,-21.53"/>
<polygon fill="midnightblue" stroke="midnightblue" points="866.211,-36.6971 857.081,-42.073 867.571,-43.5638 866.211,-36.6971"/>
</g>
<!-- Node31&#45;&gt;Node17 -->
<g id="edge106" class="edge"><title>Node31&#45;&gt;Node17</title>
<path fill="none" stroke="midnightblue" d="M867.156,-51C892.243,-51 922.121,-51 948.356,-51"/>
<polygon fill="midnightblue" stroke="midnightblue" points="867.081,-47.5001 857.081,-51 867.081,-54.5001 867.081,-47.5001"/>
</g>
<!-- Node34 -->
<g id="node90" class="node"><title>Node34</title>
<a xlink:href="classLocation.xhtml#a4d81afe82b87938d4a4a33aa1d8e0120" target="_top" xlink:title="Create a new location.">
<polygon fill="white" stroke="black" points="433.5,-635.5 433.5,-656.5 516.5,-656.5 516.5,-635.5 433.5,-635.5"/>
<text text-anchor="middle" x="475" y="-643.5" font-family="FreeSans.ttf" font-size="10.00">Location::New</text>
</a>
</g>
<!-- Node33&#45;&gt;Node34 -->
<g id="edge112" class="edge"><title>Node33&#45;&gt;Node34</title>
<path fill="none" stroke="midnightblue" d="M388.191,-646C403.609,-646 419.525,-646 433.452,-646"/>
<polygon fill="midnightblue" stroke="midnightblue" points="388.157,-642.5 378.157,-646 388.157,-649.5 388.157,-642.5"/>
</g>
<!-- Node35 -->
<g id="node92" class="node"><title>Node35</title>
<a xlink:href="classServer.xhtml#a9b8efad79a32f2356d431788449e1f82" target="_top" xlink:title="Search all subfolders of CFG_DAT_DIR_WORLD and call Location::New() to load each file found to memory...">
<polygon fill="white" stroke="black" points="576.5,-635.5 576.5,-656.5 699.5,-656.5 699.5,-635.5 576.5,-635.5"/>
<text text-anchor="middle" x="638" y="-643.5" font-family="FreeSans.ttf" font-size="10.00">Server::LoadLocations</text>
</a>
</g>
<!-- Node34&#45;&gt;Node35 -->
<g id="edge114" class="edge"><title>Node34&#45;&gt;Node35</title>
<path fill="none" stroke="midnightblue" d="M526.625,-646C542.374,-646 559.851,-646 576.202,-646"/>
<polygon fill="midnightblue" stroke="midnightblue" points="526.554,-642.5 516.554,-646 526.553,-649.5 526.554,-642.5"/>
</g>
<!-- Node35&#45;&gt;Node21 -->
<g id="edge116" class="edge"><title>Node35&#45;&gt;Node21</title>
<path fill="none" stroke="midnightblue" d="M710.167,-646C866.779,-646 1234.05,-646 1362.6,-646"/>
<polygon fill="midnightblue" stroke="midnightblue" points="709.711,-642.5 699.711,-646 709.711,-649.5 709.711,-642.5"/>
</g>
<!-- Node37 -->
<g id="node97" class="node"><title>Node37</title>
<a xlink:href="classServer.xhtml#a9b7082bbc9faca6eb84180f856116762" target="_top" xlink:title="Perform a clean shutdown of the NAMS Server providing a chance to complete disk writes and free all m...">
<polygon fill="white" stroke="black" points="963.5,-712.5 963.5,-733.5 1064.5,-733.5 1064.5,-712.5 963.5,-712.5"/>
<text text-anchor="middle" x="1014" y="-720.5" font-family="FreeSans.ttf" font-size="10.00">Server::Shutdown</text>
</a>
</g>
<!-- Node36&#45;&gt;Node37 -->
<g id="edge120" class="edge"><title>Node36&#45;&gt;Node37</title>
<path fill="none" stroke="midnightblue" d="M714.147,-707.848C788.375,-711.599 899.158,-717.197 963.231,-720.435"/>
<polygon fill="midnightblue" stroke="midnightblue" points="714.088,-704.341 703.924,-707.331 713.735,-711.332 714.088,-704.341"/>
</g>
<!-- Node37&#45;&gt;Node21 -->
<g id="edge124" class="edge"><title>Node37&#45;&gt;Node21</title>
<path fill="none" stroke="midnightblue" d="M1074.58,-711.161C1154.14,-695.612 1292.03,-668.664 1362.97,-654.8"/>
<polygon fill="midnightblue" stroke="midnightblue" points="1073.85,-707.738 1064.7,-713.091 1075.19,-714.608 1073.85,-707.738"/>
</g>
<!-- Node37&#45;&gt;Node22 -->
<g id="edge122" class="edge"><title>Node37&#45;&gt;Node22</title>
<path fill="none" stroke="midnightblue" d="M1050.56,-737.091C1076.26,-746.218 1111.69,-757.257 1144,-762 1218.75,-772.972 1239.36,-773.733 1314,-762 1384.12,-750.977 1398.88,-736.095 1466,-713 1525.19,-692.634 1594.4,-666.714 1628.24,-653.903"/>
<polygon fill="midnightblue" stroke="midnightblue" points="1051.46,-733.696 1040.87,-733.576 1049.07,-740.276 1051.46,-733.696"/>
</g>
<!-- Node37&#45;&gt;Node25 -->
<g id="edge126" class="edge"><title>Node37&#45;&gt;Node25</title>
<path fill="none" stroke="midnightblue" d="M1065.96,-735.734C1126.41,-748.429 1228.81,-763.347 1314,-743 1387.66,-725.408 1405.61,-711.7 1466,-666 1496.96,-642.567 1525.91,-606.413 1539.27,-588.626"/>
<polygon fill="midnightblue" stroke="midnightblue" points="1066.42,-732.251 1055.9,-733.56 1064.94,-739.093 1066.42,-732.251"/>
</g>
<!-- Node38 -->
<g id="node102" class="node"><title>Node38</title>
<a xlink:href="classSocketServer.xhtml#ae3c98203b60af2d7d75f6b751624ab56" target="_top" xlink:title="Build a socket for a server and set all attributes.">
<polygon fill="white" stroke="black" points="1175.5,-712.5 1175.5,-733.5 1282.5,-733.5 1282.5,-712.5 1175.5,-712.5"/>
<text text-anchor="middle" x="1229" y="-720.5" font-family="FreeSans.ttf" font-size="10.00">SocketServer::New</text>
</a>
</g>
<!-- Node37&#45;&gt;Node38 -->
<g id="edge128" class="edge"><title>Node37&#45;&gt;Node38</title>
<path fill="none" stroke="midnightblue" d="M1074.7,-723C1106.35,-723 1144.72,-723 1175.28,-723"/>
<polygon fill="midnightblue" stroke="midnightblue" points="1074.68,-719.5 1064.68,-723 1074.68,-726.5 1074.68,-719.5"/>
</g>
<!-- Node38&#45;&gt;Node21 -->
<g id="edge130" class="edge"><title>Node38&#45;&gt;Node21</title>
<path fill="none" stroke="midnightblue" d="M1281.44,-709.537C1292.36,-706.192 1303.68,-702.312 1314,-698 1342.4,-686.139 1373.24,-667.966 1391.58,-656.545"/>
<polygon fill="midnightblue" stroke="midnightblue" points="1280.17,-706.264 1271.57,-712.456 1282.15,-712.977 1280.17,-706.264"/>
</g>
<!-- Node39&#45;&gt;Node21 -->
<g id="edge134" class="edge"><title>Node39&#45;&gt;Node21</title>
<path fill="none" stroke="midnightblue" d="M893.944,-608.615C993.478,-611.145 1166.39,-617.368 1314,-632 1329.93,-633.579 1347.28,-635.971 1362.69,-638.334"/>
<polygon fill="midnightblue" stroke="midnightblue" points="893.74,-605.109 883.656,-608.36 893.566,-612.107 893.74,-605.109"/>
</g>
</g>
</svg>
        <g id="navigator" transform="translate(0 0)" fill="#404254">
                <rect fill="#f2f5e9" fill-opacity="0.5" stroke="#606060" stroke-width=".5" x="0" y="0" width="60" height="60"/>
                <use id="zoomplus" xlink:href="#zoomPlus" x="17" y="9" onmousedown="handleZoom(evt,'in')"/>
                <use id="zoomminus" xlink:href="#zoomMin" x="42" y="9" onmousedown="handleZoom(evt,'out')"/>
                <use id="reset" xlink:href="#resetDef" x="30" y="36" onmousedown="handleReset()"/>
                <g id="arrowUp" xlink:href="#dirArrow" transform="translate(30 24)" onmousedown="handlePan(0,-1)">
                  <use xlink:href="#rim" fill="#404040">
                        <set attributeName="fill" to="#808080" begin="arrowUp.mouseover" end="arrowUp.mouseout"/>
                  </use>
                  <path fill="none" stroke="white" stroke-width="1.5" d="M0,-3.0v7 M-2.5,-0.5L0,-3.0L2.5,-0.5"/>
                </g>
                <g id="arrowRight" xlink:href="#dirArrow" transform="rotate(90) translate(36 -43)" onmousedown="handlePan(1,0)">
                  <use xlink:href="#rim" fill="#404040">
                        <set attributeName="fill" to="#808080" begin="arrowRight.mouseover" end="arrowRight.mouseout"/>
                  </use>
                  <path fill="none" stroke="white" stroke-width="1.5" d="M0,-3.0v7 M-2.5,-0.5L0,-3.0L2.5,-0.5"/>
                </g>
                <g id="arrowDown" xlink:href="#dirArrow" transform="rotate(180) translate(-30 -48)" onmousedown="handlePan(0,1)">
                  <use xlink:href="#rim" fill="#404040">
                        <set attributeName="fill" to="#808080" begin="arrowDown.mouseover" end="arrowDown.mouseout"/>
                  </use>
                  <path fill="none" stroke="white" stroke-width="1.5" d="M0,-3.0v7 M-2.5,-0.5L0,-3.0L2.5,-0.5"/>
                </g>
                <g id="arrowLeft" xlink:href="#dirArrow" transform="rotate(270) translate(-36 17)" onmousedown="handlePan(-1,0)">
                  <use xlink:href="#rim" fill="#404040">
                        <set attributeName="fill" to="#808080" begin="arrowLeft.mouseover" end="arrowLeft.mouseout"/>
                  </use>
                  <path fill="none" stroke="white" stroke-width="1.5" d="M0,-3.0v7 M-2.5,-0.5L0,-3.0L2.5,-0.5"/>
                </g>
        </g>
</svg>
