<?xml version="1.0" encoding="UTF-8" standalone="no"?>
<!DOCTYPE svg PUBLIC "-//W3C//DTD SVG 1.1//EN"
 "http://www.w3.org/Graphics/SVG/1.1/DTD/svg11.dtd">
<!-- Generated by graphviz version 2.26.3 (20100126.1600)
 -->
<!-- Title: Telopt::Send Pages: 1 -->
<svg width="1296pt" height="634pt"
 viewBox="0.00 0.00 1296.00 634.00" xmlns="http://www.w3.org/2000/svg" xmlns:xlink="http://www.w3.org/1999/xlink">
<g id="graph1" class="graph" transform="scale(1 1) rotate(0) translate(4 630)">
<title>Telopt::Send</title>
<polygon fill="white" stroke="white" points="-4,5 -4,-630 1293,-630 1293,5 -4,5"/>
<!-- Node1 -->
<g id="node1" class="node"><title>Node1</title>
<polygon fill="#bfbfbf" stroke="black" points="0.5,-567 0.5,-587 75.5,-587 75.5,-567 0.5,-567"/>
<text text-anchor="middle" x="38" y="-574" font-family="FreeSans.ttf" font-size="10.00">Telopt::Send</text>
</g>
<!-- Node2 -->
<g id="node3" class="node"><title>Node2</title>
<a xlink:href="namespaceTelopt.xhtml#acb81c2e75d328c24352dd8ef356b84d8" target="_top" xlink:title="Begins a telnet negotiation handshake for requested options.">
<polygon fill="white" stroke="black" points="260,-606 260,-626 364,-626 364,-606 260,-606"/>
<text text-anchor="middle" x="312" y="-613" font-family="FreeSans.ttf" font-size="10.00">Telopt::Handshake</text>
</a>
</g>
<!-- Node1&#45;&gt;Node2 -->
<g id="edge2" class="edge"><title>Node1&#45;&gt;Node2</title>
<path fill="none" stroke="midnightblue" d="M85.4874,-583.759C134.174,-590.689 209.686,-601.437 259.967,-608.594"/>
<polygon fill="midnightblue" stroke="midnightblue" points="85.9175,-580.285 75.524,-582.341 84.931,-587.215 85.9175,-580.285"/>
</g>
<!-- Node8 -->
<g id="node15" class="node"><title>Node8</title>
<a xlink:href="namespaceTelopt.xhtml#a71c731d78947d4c909f93df74950b64c" target="_top" xlink:title="Negotiate requested options.">
<polygon fill="white" stroke="black" points="112,-539 112,-559 210,-559 210,-539 112,-539"/>
<text text-anchor="middle" x="161" y="-546" font-family="FreeSans.ttf" font-size="10.00">Telopt::Negotiate</text>
</a>
</g>
<!-- Node1&#45;&gt;Node8 -->
<g id="edge14" class="edge"><title>Node1&#45;&gt;Node8</title>
<path fill="none" stroke="midnightblue" d="M85.5935,-566.166C95.841,-563.833 106.632,-561.376 116.746,-559.074"/>
<polygon fill="midnightblue" stroke="midnightblue" points="84.5461,-562.815 75.5724,-568.447 86.0998,-569.64 84.5461,-562.815"/>
</g>
<!-- Node3 -->
<g id="node5" class="node"><title>Node3</title>
<a xlink:href="namespaceTelopt.xhtml#abdb8913fd8eb65e47c6035240d9a291f" target="_top" xlink:title="Processes data received from a SocketClient for telnet sequences.">
<polygon fill="white" stroke="black" points="424,-606 424,-626 536,-626 536,-606 424,-606"/>
<text text-anchor="middle" x="480" y="-613" font-family="FreeSans.ttf" font-size="10.00">Telopt::ProcessInput</text>
</a>
</g>
<!-- Node2&#45;&gt;Node3 -->
<g id="edge4" class="edge"><title>Node2&#45;&gt;Node3</title>
<path fill="none" stroke="midnightblue" d="M374.628,-616C390.731,-616 407.956,-616 423.715,-616"/>
<polygon fill="midnightblue" stroke="midnightblue" points="374.235,-612.5 364.235,-616 374.235,-619.5 374.235,-612.5"/>
</g>
<!-- Node4 -->
<g id="node7" class="node"><title>Node4</title>
<a xlink:href="classSocketClient.xhtml#a9ee09f452d900e288b2aa187561ef05d" target="_top" xlink:title="Receive data from the client and append it to a receive buffer.">
<polygon fill="white" stroke="black" points="806,-606 806,-626 910,-626 910,-606 806,-606"/>
<text text-anchor="middle" x="858" y="-613" font-family="FreeSans.ttf" font-size="10.00">SocketClient::Recv</text>
</a>
</g>
<!-- Node3&#45;&gt;Node4 -->
<g id="edge6" class="edge"><title>Node3&#45;&gt;Node4</title>
<path fill="none" stroke="midnightblue" d="M546.306,-616C620.193,-616 738.14,-616 805.774,-616"/>
<polygon fill="midnightblue" stroke="midnightblue" points="546.182,-612.5 536.182,-616 546.182,-619.5 546.182,-612.5"/>
</g>
<!-- Node5 -->
<g id="node9" class="node"><title>Node5</title>
<a xlink:href="namespaceServer.xhtml#a39dbe16fdc8c5f6fbd678c6540fbcd6c" target="_top" xlink:title="Poll all SocketClient objects that are communicating with the associated SocketServer object...">
<polygon fill="white" stroke="black" points="964.5,-568 964.5,-588 1073.5,-588 1073.5,-568 964.5,-568"/>
<text text-anchor="middle" x="1019" y="-575" font-family="FreeSans.ttf" font-size="10.00">Server::PollSockets</text>
</a>
</g>
<!-- Node4&#45;&gt;Node5 -->
<g id="edge8" class="edge"><title>Node4&#45;&gt;Node5</title>
<path fill="none" stroke="midnightblue" d="M910.593,-603.587C931.9,-598.558 956.183,-592.826 976.358,-588.065"/>
<polygon fill="midnightblue" stroke="midnightblue" points="909.651,-600.213 900.722,-605.916 911.259,-607.026 909.651,-600.213"/>
</g>
<!-- Node6 -->
<g id="node11" class="node"><title>Node6</title>
<a xlink:href="namespaceServer.xhtml#a50b81aa91d8fdaee6f52c5c5ec987990" target="_top" xlink:title="The core update loop of NAMS. This loop spawns all other subsystem update routines and then sleeps fo...">
<polygon fill="white" stroke="black" points="1120.5,-492 1120.5,-512 1209.5,-512 1209.5,-492 1120.5,-492"/>
<text text-anchor="middle" x="1165" y="-499" font-family="FreeSans.ttf" font-size="10.00">Server::Update</text>
</a>
</g>
<!-- Node5&#45;&gt;Node6 -->
<g id="edge10" class="edge"><title>Node5&#45;&gt;Node6</title>
<path fill="none" stroke="midnightblue" d="M1074.05,-564.223C1077.51,-562.657 1080.86,-560.921 1084,-559 1103.85,-546.872 1100.88,-534.25 1120,-521 1124.88,-517.619 1130.45,-514.666 1135.98,-512.161"/>
<polygon fill="midnightblue" stroke="midnightblue" points="1072.68,-561.001 1064.72,-567.987 1075.3,-567.493 1072.68,-561.001"/>
</g>
<!-- Node7 -->
<g id="node13" class="node"><title>Node7</title>
<a xlink:href="main_8cpp.xhtml#ad53223b8779f25caeddb70a3b9172967" target="_top" xlink:title="The default function required to execute the server.">
<polygon fill="white" stroke="black" points="1246.5,-511 1246.5,-531 1287.5,-531 1287.5,-511 1246.5,-511"/>
<text text-anchor="middle" x="1267" y="-518" font-family="FreeSans.ttf" font-size="10.00">main</text>
</a>
</g>
<!-- Node6&#45;&gt;Node7 -->
<g id="edge12" class="edge"><title>Node6&#45;&gt;Node7</title>
<path fill="none" stroke="midnightblue" d="M1219.64,-512.178C1229.14,-513.948 1238.47,-515.685 1246.3,-517.144"/>
<polygon fill="midnightblue" stroke="midnightblue" points="1220.21,-508.724 1209.74,-510.334 1218.93,-515.606 1220.21,-508.724"/>
</g>
<!-- Node8&#45;&gt;Node2 -->
<g id="edge100" class="edge"><title>Node8&#45;&gt;Node2</title>
<path fill="none" stroke="midnightblue" d="M188.329,-563.875C204.802,-572.576 226.336,-583.487 246,-592 257.636,-597.038 270.711,-601.943 282.134,-605.992"/>
<polygon fill="midnightblue" stroke="midnightblue" points="189.738,-560.66 179.267,-559.043 186.444,-566.837 189.738,-560.66"/>
</g>
<!-- Node9 -->
<g id="node17" class="node"><title>Node9</title>
<a xlink:href="namespaceHandler.xhtml#a33a19d69ead678af81fbe96907eceaf0" target="_top" xlink:title="Create a new account object, or load an existing one, with a name and password.">
<polygon fill="white" stroke="black" points="246.5,-302 246.5,-322 377.5,-322 377.5,-302 246.5,-302"/>
<text text-anchor="middle" x="312" y="-309" font-family="FreeSans.ttf" font-size="10.00">Handler::AttachAccount</text>
</a>
</g>
<!-- Node8&#45;&gt;Node9 -->
<g id="edge16" class="edge"><title>Node8&#45;&gt;Node9</title>
<path fill="none" stroke="midnightblue" d="M173.04,-530.102C203.416,-482.426 282.39,-358.473 305.536,-322.146"/>
<polygon fill="midnightblue" stroke="midnightblue" points="169.91,-528.502 167.488,-538.816 175.813,-532.263 169.91,-528.502"/>
</g>
<!-- Node20 -->
<g id="node49" class="node"><title>Node20</title>
<a xlink:href="namespaceHandler.xhtml#a744adadcf407cdb3a9c33365afd5a7c2" target="_top" xlink:title="Create a new account.">
<polygon fill="white" stroke="black" points="601,-0 601,-20 743,-20 743,-0 601,-0"/>
<text text-anchor="middle" x="672" y="-7" font-family="FreeSans.ttf" font-size="10.00">Handler::GetNewPassword</text>
</a>
</g>
<!-- Node8&#45;&gt;Node20 -->
<g id="edge92" class="edge"><title>Node8&#45;&gt;Node20</title>
<path fill="none" stroke="midnightblue" d="M163.686,-528.641C170.545,-482.826 192.125,-369.641 246,-293 355.216,-137.631 409.934,-109.378 582,-29 589.813,-25.3502 598.334,-22.3948 606.918,-20.0032"/>
<polygon fill="midnightblue" stroke="midnightblue" points="160.187,-528.382 162.248,-538.774 167.118,-529.365 160.187,-528.382"/>
</g>
<!-- Node21 -->
<g id="node52" class="node"><title>Node21</title>
<a xlink:href="namespaceHandler.xhtml#adfe13cc9748392348f3941656a1323b6" target="_top" xlink:title="Compare a received password against an existing account.">
<polygon fill="white" stroke="black" points="603.5,-530 603.5,-550 740.5,-550 740.5,-530 603.5,-530"/>
<text text-anchor="middle" x="672" y="-537" font-family="FreeSans.ttf" font-size="10.00">Handler::GetOldPassword</text>
</a>
</g>
<!-- Node8&#45;&gt;Node21 -->
<g id="edge94" class="edge"><title>Node8&#45;&gt;Node21</title>
<path fill="none" stroke="midnightblue" d="M220.51,-547.952C315.834,-546.273 502.267,-542.989 603.178,-541.212"/>
<polygon fill="midnightblue" stroke="midnightblue" points="220.398,-544.453 210.461,-548.129 220.521,-551.452 220.398,-544.453"/>
</g>
<!-- Node30 -->
<g id="node78" class="node"><title>Node30</title>
<a xlink:href="namespaceTelopt.xhtml#aae5468ac9f53474dea225a4485905ac3" target="_top" xlink:title="Send initial options to negotiate for, then the login string.">
<polygon fill="white" stroke="black" points="414.5,-568 414.5,-588 545.5,-588 545.5,-568 414.5,-568"/>
<text text-anchor="middle" x="480" y="-575" font-family="FreeSans.ttf" font-size="10.00">Telopt::InitialNegotiation</text>
</a>
</g>
<!-- Node8&#45;&gt;Node30 -->
<g id="edge96" class="edge"><title>Node8&#45;&gt;Node30</title>
<path fill="none" stroke="midnightblue" d="M220.114,-554.374C275.252,-559.387 357.357,-566.851 414.473,-572.043"/>
<polygon fill="midnightblue" stroke="midnightblue" points="220.42,-550.888 210.145,-553.468 219.787,-557.859 220.42,-550.888"/>
</g>
<!-- Node10 -->
<g id="node19" class="node"><title>Node10</title>
<a xlink:href="namespaceHandler.xhtml#a139febc000c9d767a620708148e0c888" target="_top" xlink:title="Dispatches the appropriate menu based on client state.">
<polygon fill="white" stroke="black" points="418.5,-302 418.5,-322 541.5,-322 541.5,-302 418.5,-302"/>
<text text-anchor="middle" x="480" y="-309" font-family="FreeSans.ttf" font-size="10.00">Handler::LoginHandler</text>
</a>
</g>
<!-- Node9&#45;&gt;Node10 -->
<g id="edge18" class="edge"><title>Node9&#45;&gt;Node10</title>
<path fill="none" stroke="midnightblue" d="M388.01,-305.277C398.179,-305.208 408.506,-305.271 418.387,-305.468"/>
<polygon fill="midnightblue" stroke="midnightblue" points="387.876,-301.778 377.916,-305.391 387.955,-308.778 387.876,-301.778"/>
</g>
<!-- Node10&#45;&gt;Node9 -->
<g id="edge20" class="edge"><title>Node10&#45;&gt;Node9</title>
<path fill="none" stroke="midnightblue" d="M408.38,-318.684C398.269,-318.792 387.913,-318.767 377.916,-318.609"/>
<polygon fill="midnightblue" stroke="midnightblue" points="408.441,-322.184 418.387,-318.532 408.335,-315.185 408.441,-322.184"/>
</g>
<!-- Node11 -->
<g id="node22" class="node"><title>Node11</title>
<a xlink:href="namespaceHandler.xhtml#a2e4ebf6ed049eb872aa4948d54c4932c" target="_top" xlink:title="Attempt to write a new character to disk after creation was completed.">
<polygon fill="white" stroke="black" points="602.5,-340 602.5,-360 741.5,-360 741.5,-340 602.5,-340"/>
<text text-anchor="middle" x="672" y="-347" font-family="FreeSans.ttf" font-size="10.00">Handler::AttachCharacter</text>
</a>
</g>
<!-- Node10&#45;&gt;Node11 -->
<g id="edge22" class="edge"><title>Node10&#45;&gt;Node11</title>
<path fill="none" stroke="midnightblue" d="M551.582,-319.615C584.415,-325.57 621.33,-333.451 645.53,-339.932"/>
<polygon fill="midnightblue" stroke="midnightblue" points="552,-316.135 541.542,-317.833 550.776,-323.027 552,-316.135"/>
</g>
<!-- Node12 -->
<g id="node25" class="node"><title>Node12</title>
<a xlink:href="namespaceHandler.xhtml#a73ed6064f2698dbffb5f4c247a02b661" target="_top" xlink:title="Send initial account interface menu.">
<polygon fill="white" stroke="black" points="598,-302 598,-322 746,-322 746,-302 598,-302"/>
<text text-anchor="middle" x="672" y="-309" font-family="FreeSans.ttf" font-size="10.00">Handler::AccountMenuMain</text>
</a>
</g>
<!-- Node10&#45;&gt;Node12 -->
<g id="edge26" class="edge"><title>Node10&#45;&gt;Node12</title>
<path fill="none" stroke="midnightblue" d="M551.773,-305.445C566.775,-305.199 582.621,-305.186 597.711,-305.406"/>
<polygon fill="midnightblue" stroke="midnightblue" points="551.469,-301.95 541.542,-305.652 551.611,-308.949 551.469,-301.95"/>
</g>
<!-- Node13 -->
<g id="node28" class="node"><title>Node13</title>
<a xlink:href="namespaceHandler.xhtml#ad04998a7a6ece2486bc441052a57c2d7" target="_top" xlink:title="Main Character creation menu.">
<polygon fill="white" stroke="black" points="602,-252 602,-284 742,-284 742,-252 602,-252"/>
<text text-anchor="start" x="610" y="-271" font-family="FreeSans.ttf" font-size="10.00">Handler::CharacterCreate</text>
<text text-anchor="middle" x="672" y="-259" font-family="FreeSans.ttf" font-size="10.00">MenuMain</text>
</a>
</g>
<!-- Node10&#45;&gt;Node13 -->
<g id="edge30" class="edge"><title>Node10&#45;&gt;Node13</title>
<path fill="none" stroke="midnightblue" d="M513.368,-299.09C537.751,-292.126 571.7,-283.925 601.937,-277.53"/>
<polygon fill="midnightblue" stroke="midnightblue" points="512.143,-295.803 503.543,-301.99 514.125,-302.516 512.143,-295.803"/>
</g>
<!-- Node14 -->
<g id="node31" class="node"><title>Node14</title>
<a xlink:href="namespaceHandler.xhtml#ab5889a65de2794129b375ec39ae923ae" target="_top" xlink:title="Select a new Character name.">
<polygon fill="white" stroke="black" points="587.5,-214 587.5,-234 756.5,-234 756.5,-214 587.5,-214"/>
<text text-anchor="middle" x="672" y="-221" font-family="FreeSans.ttf" font-size="10.00">Handler::CharacterCreateName</text>
</a>
</g>
<!-- Node10&#45;&gt;Node14 -->
<g id="edge34" class="edge"><title>Node10&#45;&gt;Node14</title>
<path fill="none" stroke="midnightblue" d="M493.272,-294.463C511.841,-276.033 547.215,-248.764 582,-234 583.764,-233.251 585.56,-232.531 587.382,-231.839"/>
<polygon fill="midnightblue" stroke="midnightblue" points="490.708,-292.082 486.394,-301.759 495.801,-296.884 490.708,-292.082"/>
</g>
<!-- Node15 -->
<g id="node34" class="node"><title>Node15</title>
<a xlink:href="namespaceHandler.xhtml#ae5086bcf5857eb572beedd09158c3065" target="_top" xlink:title="Select a new Character sex.">
<polygon fill="white" stroke="black" points="593,-176 593,-196 751,-196 751,-176 593,-176"/>
<text text-anchor="middle" x="672" y="-183" font-family="FreeSans.ttf" font-size="10.00">Handler::CharacterCreateSex</text>
</a>
</g>
<!-- Node10&#45;&gt;Node15 -->
<g id="edge38" class="edge"><title>Node10&#45;&gt;Node15</title>
<path fill="none" stroke="midnightblue" d="M488.867,-292.867C504.633,-266.151 539.877,-219.489 582,-196 585.487,-194.056 589.151,-192.31 592.925,-190.751"/>
<polygon fill="midnightblue" stroke="midnightblue" points="485.743,-291.284 483.963,-301.728 491.868,-294.673 485.743,-291.284"/>
</g>
<!-- Node16 -->
<g id="node37" class="node"><title>Node16</title>
<a xlink:href="namespaceHandler.xhtml#a97a198bfc72285b2aca4f36978db715e" target="_top" xlink:title="Main Character deletion confirmation.">
<polygon fill="white" stroke="black" points="602.5,-126 602.5,-158 741.5,-158 741.5,-126 602.5,-126"/>
<text text-anchor="start" x="610.5" y="-145" font-family="FreeSans.ttf" font-size="10.00">Handler::CharacterDelete</text>
<text text-anchor="middle" x="672" y="-133" font-family="FreeSans.ttf" font-size="10.00">Confirm</text>
</a>
</g>
<!-- Node10&#45;&gt;Node16 -->
<g id="edge42" class="edge"><title>Node10&#45;&gt;Node16</title>
<path fill="none" stroke="midnightblue" d="M486.279,-292.047C499.478,-258.555 532.981,-192.579 582,-158 588.228,-153.607 595.203,-149.984 602.44,-147.052"/>
<polygon fill="midnightblue" stroke="midnightblue" points="482.896,-291.106 482.714,-301.699 489.462,-293.532 482.896,-291.106"/>
</g>
<!-- Node17 -->
<g id="node40" class="node"><title>Node17</title>
<a xlink:href="namespaceHandler.xhtml#afc470ec6e82b7a9a1560588a368734f9" target="_top" xlink:title="Main Character deletion menu.">
<polygon fill="white" stroke="black" points="602.5,-76 602.5,-108 741.5,-108 741.5,-76 602.5,-76"/>
<text text-anchor="start" x="610.5" y="-95" font-family="FreeSans.ttf" font-size="10.00">Handler::CharacterDelete</text>
<text text-anchor="middle" x="672" y="-83" font-family="FreeSans.ttf" font-size="10.00">MenuMain</text>
</a>
</g>
<!-- Node10&#45;&gt;Node17 -->
<g id="edge46" class="edge"><title>Node10&#45;&gt;Node17</title>
<path fill="none" stroke="midnightblue" d="M486.2,-292.341C503.164,-245.895 551.129,-132.959 582,-108 588.053,-103.106 595,-99.1685 602.294,-96.0599"/>
<polygon fill="midnightblue" stroke="midnightblue" points="482.85,-291.317 482.823,-301.911 489.451,-293.646 482.85,-291.317"/>
</g>
<!-- Node18 -->
<g id="node43" class="node"><title>Node18</title>
<a xlink:href="namespaceHandler.xhtml#a02b1b954749641ab646f6548a5360d3b" target="_top" xlink:title="Main Character load menu.">
<polygon fill="white" stroke="black" points="582.5,-38 582.5,-58 761.5,-58 761.5,-38 582.5,-38"/>
<text text-anchor="middle" x="672" y="-45" font-family="FreeSans.ttf" font-size="10.00">Handler::CharacterLoadMenuMain</text>
</a>
</g>
<!-- Node10&#45;&gt;Node18 -->
<g id="edge50" class="edge"><title>Node10&#45;&gt;Node18</title>
<path fill="none" stroke="midnightblue" d="M486.371,-291.924C498.238,-260.47 524.477,-199.018 546,-147 562.313,-107.573 549.289,-85.3979 582,-58 582.122,-57.8975 582.245,-57.7954 582.369,-57.6939"/>
<polygon fill="midnightblue" stroke="midnightblue" points="482.932,-291.14 482.804,-301.734 489.51,-293.532 482.932,-291.14"/>
</g>
<!-- Node19 -->
<g id="node46" class="node"><title>Node19</title>
<a xlink:href="namespaceHandler.xhtml#a00bc24564bfd267e0329643c569da1e4" target="_top" xlink:title="Select a new account name.">
<polygon fill="white" stroke="black" points="603.5,-454 603.5,-474 740.5,-474 740.5,-454 603.5,-454"/>
<text text-anchor="middle" x="672" y="-461" font-family="FreeSans.ttf" font-size="10.00">Handler::GetNewAccount</text>
</a>
</g>
<!-- Node10&#45;&gt;Node19 -->
<g id="edge54" class="edge"><title>Node10&#45;&gt;Node19</title>
<path fill="none" stroke="midnightblue" d="M492.385,-331.23C508.587,-359.126 539.938,-409.494 582,-436 597.807,-445.961 617.965,-450.786 635.194,-453.948"/>
<polygon fill="midnightblue" stroke="midnightblue" points="495.313,-329.3 487.294,-322.376 489.245,-332.789 495.313,-329.3"/>
</g>
<!-- Node10&#45;&gt;Node20 -->
<g id="edge58" class="edge"><title>Node10&#45;&gt;Node20</title>
<path fill="none" stroke="midnightblue" d="M486.913,-292.131C499.672,-261.019 527.32,-200.105 546,-147 565.467,-91.6556 539.126,-60.0471 582,-20 587.485,-14.8767 593.99,-10.9941 600.955,-8.12515"/>
<polygon fill="midnightblue" stroke="midnightblue" points="483.499,-291.246 483.06,-301.832 490.005,-293.83 483.499,-291.246"/>
</g>
<!-- Node10&#45;&gt;Node21 -->
<g id="edge62" class="edge"><title>Node10&#45;&gt;Node21</title>
<path fill="none" stroke="midnightblue" d="M484.842,-332.032C494.733,-372.92 521.633,-464.916 582,-512 594.592,-521.821 611.079,-526.869 626.498,-529.91"/>
<polygon fill="midnightblue" stroke="midnightblue" points="488.216,-331.092 482.537,-322.148 481.399,-332.682 488.216,-331.092"/>
</g>
<!-- Node22 -->
<g id="node55" class="node"><title>Node22</title>
<a xlink:href="namespaceHandler.xhtml#ae70e4e50054c729c14493eafefe01b5c" target="_top" xlink:title="Load a character from the account to enter into the game with.">
<polygon fill="white" stroke="black" points="606.5,-416 606.5,-436 737.5,-436 737.5,-416 606.5,-416"/>
<text text-anchor="middle" x="672" y="-423" font-family="FreeSans.ttf" font-size="10.00">Handler::LoadCharacter</text>
</a>
</g>
<!-- Node10&#45;&gt;Node22 -->
<g id="edge66" class="edge"><title>Node10&#45;&gt;Node22</title>
<path fill="none" stroke="midnightblue" d="M499.672,-329.74C518.464,-349.659 548.779,-380.748 582,-398 600.566,-407.641 623.698,-412.391 641.861,-415.936"/>
<polygon fill="midnightblue" stroke="midnightblue" points="501.986,-327.091 492.584,-322.208 496.888,-331.889 501.986,-327.091"/>
</g>
<!-- Node23 -->
<g id="node58" class="node"><title>Node23</title>
<a xlink:href="namespaceHandler.xhtml#a44b41bf69fdc6e615a029bea34910191" target="_top" xlink:title="Send initial greeting and request for account name.">
<polygon fill="white" stroke="black" points="612.5,-378 612.5,-398 731.5,-398 731.5,-378 612.5,-378"/>
<text text-anchor="middle" x="672" y="-385" font-family="FreeSans.ttf" font-size="10.00">Handler::LoginScreen</text>
</a>
</g>
<!-- Node10&#45;&gt;Node23 -->
<g id="edge70" class="edge"><title>Node10&#45;&gt;Node23</title>
<path fill="none" stroke="midnightblue" d="M515.12,-327.101C534.222,-337.761 558.658,-351.245 582,-360 604.279,-368.356 631.112,-373.422 649.651,-377.971"/>
<polygon fill="midnightblue" stroke="midnightblue" points="516.639,-323.94 506.2,-322.127 513.23,-330.054 516.639,-323.94"/>
</g>
<!-- Node24 -->
<g id="node61" class="node"><title>Node24</title>
<a xlink:href="classSocketClient.xhtml#a8399ef20292e9f3ec83b5c4bec2e105b" target="_top" xlink:title="Build a SocketClient for a new client connection and set all attributes.">
<polygon fill="white" stroke="black" points="620.5,-568 620.5,-588 723.5,-588 723.5,-568 620.5,-568"/>
<text text-anchor="middle" x="672" y="-575" font-family="FreeSans.ttf" font-size="10.00">SocketClient::New</text>
</a>
</g>
<!-- Node10&#45;&gt;Node24 -->
<g id="edge74" class="edge"><title>Node10&#45;&gt;Node24</title>
<path fill="none" stroke="midnightblue" d="M482.056,-332.137C488.03,-379.602 509.836,-499.001 582,-559 592.683,-567.882 606.5,-572.922 620.086,-575.705"/>
<polygon fill="midnightblue" stroke="midnightblue" points="485.53,-331.708 480.907,-322.175 478.576,-332.511 485.53,-331.708"/>
</g>
<!-- Node28 -->
<g id="node71" class="node"><title>Node28</title>
<a xlink:href="classSocketClient.xhtml#ad4f63c7d906310dc56a1217136047d7f" target="_top" xlink:title="Interpret the command at the front of the queue.">
<polygon fill="white" stroke="black" points="587,-492 587,-512 757,-512 757,-492 587,-492"/>
<text text-anchor="middle" x="672" y="-499" font-family="FreeSans.ttf" font-size="10.00">SocketClient::ProcessCommand</text>
</a>
</g>
<!-- Node10&#45;&gt;Node28 -->
<g id="edge86" class="edge"><title>Node10&#45;&gt;Node28</title>
<path fill="none" stroke="midnightblue" d="M485.958,-331.925C497.874,-368.142 528.222,-444.566 582,-483 587.067,-486.621 592.679,-489.58 598.552,-491.994"/>
<polygon fill="midnightblue" stroke="midnightblue" points="489.193,-330.546 482.846,-322.062 482.518,-332.652 489.193,-330.546"/>
</g>
<!-- Node11&#45;&gt;Node10 -->
<g id="edge24" class="edge"><title>Node11&#45;&gt;Node10</title>
<path fill="none" stroke="midnightblue" d="M592.37,-340.902C561.608,-335.147 528.536,-327.987 506.294,-322.021"/>
<polygon fill="midnightblue" stroke="midnightblue" points="591.792,-344.354 602.259,-342.718 593.056,-337.469 591.792,-344.354"/>
</g>
<!-- Node12&#45;&gt;Node10 -->
<g id="edge28" class="edge"><title>Node12&#45;&gt;Node10</title>
<path fill="none" stroke="midnightblue" d="M587.606,-318.706C572.112,-318.824 556.208,-318.705 541.542,-318.348"/>
<polygon fill="midnightblue" stroke="midnightblue" points="587.751,-322.205 597.711,-318.594 587.673,-315.205 587.751,-322.205"/>
</g>
<!-- Node13&#45;&gt;Node10 -->
<g id="edge32" class="edge"><title>Node13&#45;&gt;Node10</title>
<path fill="none" stroke="midnightblue" d="M617.368,-286.679C593.716,-292.818 565.92,-299.251 541.542,-304.244"/>
<polygon fill="midnightblue" stroke="midnightblue" points="618.457,-290.011 627.23,-284.07 616.667,-283.244 618.457,-290.011"/>
</g>
<!-- Node14&#45;&gt;Node10 -->
<g id="edge36" class="edge"><title>Node14&#45;&gt;Node10</title>
<path fill="none" stroke="midnightblue" d="M637.042,-236.271C619.969,-239.992 599.408,-244.611 582,-252 551.102,-265.115 519.739,-288.095 500.102,-301.832"/>
<polygon fill="midnightblue" stroke="midnightblue" points="638.142,-239.613 647.161,-234.054 636.644,-232.776 638.142,-239.613"/>
</g>
<!-- Node15&#45;&gt;Node10 -->
<g id="edge40" class="edge"><title>Node15&#45;&gt;Node10</title>
<path fill="none" stroke="midnightblue" d="M629.542,-198.043C613.862,-201.316 596.416,-205.961 582,-214 541.205,-236.749 506.861,-281.233 490.415,-301.815"/>
<polygon fill="midnightblue" stroke="midnightblue" points="630.409,-201.44 639.541,-196.068 629.052,-194.572 630.409,-201.44"/>
</g>
<!-- Node16&#45;&gt;Node10 -->
<g id="edge44" class="edge"><title>Node16&#45;&gt;Node10</title>
<path fill="none" stroke="midnightblue" d="M612.322,-161.169C601.629,-164.88 591.03,-169.63 582,-176 533.208,-210.418 499.79,-275.942 486.465,-301.744"/>
<polygon fill="midnightblue" stroke="midnightblue" points="613.666,-164.414 622.127,-158.037 611.536,-157.746 613.666,-164.414"/>
</g>
<!-- Node17&#45;&gt;Node10 -->
<g id="edge48" class="edge"><title>Node17&#45;&gt;Node10</title>
<path fill="none" stroke="midnightblue" d="M608.517,-111.381C598.979,-115.029 589.756,-119.73 582,-126 550.804,-151.222 502.152,-266.282 485.675,-301.849"/>
<polygon fill="midnightblue" stroke="midnightblue" points="609.808,-114.638 618.118,-108.065 607.523,-108.022 609.808,-114.638"/>
</g>
<!-- Node18&#45;&gt;Node10 -->
<g id="edge52" class="edge"><title>Node18&#45;&gt;Node10</title>
<path fill="none" stroke="midnightblue" d="M614.052,-60.4038C602.469,-63.595 591.086,-68.3896 582,-76 549.289,-103.398 562.313,-125.573 546,-165 524.638,-216.629 498.63,-277.553 486.639,-301.855"/>
<polygon fill="midnightblue" stroke="midnightblue" points="614.873,-63.8062 623.783,-58.0738 613.243,-56.9986 614.873,-63.8062"/>
</g>
<!-- Node19&#45;&gt;Node10 -->
<g id="edge56" class="edge"><title>Node19&#45;&gt;Node10</title>
<path fill="none" stroke="midnightblue" d="M593.549,-460.097C589.527,-458.324 585.648,-456.299 582,-454 529.07,-420.645 493.102,-349.506 482.938,-322.244"/>
<polygon fill="midnightblue" stroke="midnightblue" points="592.559,-463.466 603.149,-463.788 595.071,-456.932 592.559,-463.466"/>
</g>
<!-- Node20&#45;&gt;Node10 -->
<g id="edge60" class="edge"><title>Node20&#45;&gt;Node10</title>
<path fill="none" stroke="midnightblue" d="M609.908,-22.7185C599.618,-25.9592 589.783,-30.7306 582,-38 539.126,-78.0471 565.467,-109.656 546,-165 527.558,-217.431 500.373,-277.474 487.406,-301.689"/>
<polygon fill="midnightblue" stroke="midnightblue" points="611.11,-26.0201 619.861,-20.049 609.296,-19.259 611.11,-26.0201"/>
</g>
<!-- Node21&#45;&gt;Node10 -->
<g id="edge64" class="edge"><title>Node21&#45;&gt;Node10</title>
<path fill="none" stroke="midnightblue" d="M593.776,-537.361C589.605,-535.279 585.64,-532.839 582,-530 511.323,-474.874 486.521,-358.186 481.18,-322.294"/>
<polygon fill="midnightblue" stroke="midnightblue" points="592.617,-540.672 603.189,-541.364 595.356,-534.23 592.617,-540.672"/>
</g>
<!-- Node22&#45;&gt;Node10 -->
<g id="edge68" class="edge"><title>Node22&#45;&gt;Node10</title>
<path fill="none" stroke="midnightblue" d="M596.421,-422.258C591.432,-420.457 586.577,-418.377 582,-416 537.115,-392.691 497.534,-344.122 484.513,-322.176"/>
<polygon fill="midnightblue" stroke="midnightblue" points="595.553,-425.655 606.145,-425.384 597.696,-418.991 595.553,-425.655"/>
</g>
<!-- Node23&#45;&gt;Node10 -->
<g id="edge72" class="edge"><title>Node23&#45;&gt;Node10</title>
<path fill="none" stroke="midnightblue" d="M602.118,-384.394C595.238,-382.549 588.429,-380.411 582,-378 544.392,-363.895 503.942,-337.511 487.543,-322.116"/>
<polygon fill="midnightblue" stroke="midnightblue" points="601.664,-387.887 612.211,-386.885 603.341,-381.09 601.664,-387.887"/>
</g>
<!-- Node25 -->
<g id="node63" class="node"><title>Node25</title>
<a xlink:href="namespaceServer.xhtml#a16ea0639731dee10e1a253375b508a02" target="_top" xlink:title="Recovers the server state and re&#45;connects client sockets after a reboot.">
<polygon fill="white" stroke="black" points="954,-530 954,-550 1084,-550 1084,-530 954,-530"/>
<text text-anchor="middle" x="1019" y="-537" font-family="FreeSans.ttf" font-size="10.00">Server::RebootRecovery</text>
</a>
</g>
<!-- Node24&#45;&gt;Node25 -->
<g id="edge76" class="edge"><title>Node24&#45;&gt;Node25</title>
<path fill="none" stroke="midnightblue" d="M733.812,-567.874C754.213,-564.747 777.045,-561.478 798,-559 850.202,-552.827 909.567,-547.835 953.615,-544.52"/>
<polygon fill="midnightblue" stroke="midnightblue" points="733.046,-564.451 723.701,-569.442 734.119,-571.368 733.046,-564.451"/>
</g>
<!-- Node27 -->
<g id="node68" class="node"><title>Node27</title>
<a xlink:href="classSocketServer.xhtml#afdbc60c3bc840875d2214b59c6213f63" target="_top" xlink:title="Accept a new connection on the listening port.">
<polygon fill="white" stroke="black" points="798,-568 798,-588 918,-588 918,-568 798,-568"/>
<text text-anchor="middle" x="858" y="-575" font-family="FreeSans.ttf" font-size="10.00">SocketServer::Accept</text>
</a>
</g>
<!-- Node24&#45;&gt;Node27 -->
<g id="edge82" class="edge"><title>Node24&#45;&gt;Node27</title>
<path fill="none" stroke="midnightblue" d="M734.027,-578C754.612,-578 777.484,-578 797.92,-578"/>
<polygon fill="midnightblue" stroke="midnightblue" points="733.811,-574.5 723.811,-578 733.811,-581.5 733.811,-574.5"/>
</g>
<!-- Node26 -->
<g id="node65" class="node"><title>Node26</title>
<a xlink:href="namespaceServer.xhtml#a19a1e493e1fb50a56d9c77332543d565" target="_top" xlink:title="Start the NAMS Server. Responsible for calling all critical boot&#45;time functions such as SocketServer ...">
<polygon fill="white" stroke="black" points="1120,-530 1120,-550 1210,-550 1210,-530 1120,-530"/>
<text text-anchor="middle" x="1165" y="-537" font-family="FreeSans.ttf" font-size="10.00">Server::Startup</text>
</a>
</g>
<!-- Node25&#45;&gt;Node26 -->
<g id="edge78" class="edge"><title>Node25&#45;&gt;Node26</title>
<path fill="none" stroke="midnightblue" d="M1094.47,-540C1103.13,-540 1111.75,-540 1119.83,-540"/>
<polygon fill="midnightblue" stroke="midnightblue" points="1094.31,-536.5 1084.31,-540 1094.31,-543.5 1094.31,-536.5"/>
</g>
<!-- Node26&#45;&gt;Node7 -->
<g id="edge80" class="edge"><title>Node26&#45;&gt;Node7</title>
<path fill="none" stroke="midnightblue" d="M1219.9,-529.773C1229.36,-528.011 1238.64,-526.282 1246.43,-524.831"/>
<polygon fill="midnightblue" stroke="midnightblue" points="1219.23,-526.339 1210.04,-531.611 1220.51,-533.221 1219.23,-526.339"/>
</g>
<!-- Node27&#45;&gt;Node5 -->
<g id="edge84" class="edge"><title>Node27&#45;&gt;Node5</title>
<path fill="none" stroke="midnightblue" d="M928.424,-578C940.463,-578 952.806,-578 964.355,-578"/>
<polygon fill="midnightblue" stroke="midnightblue" points="928.409,-574.5 918.409,-578 928.408,-581.5 928.409,-574.5"/>
</g>
<!-- Node29 -->
<g id="node73" class="node"><title>Node29</title>
<a xlink:href="namespaceServer.xhtml#a2b4cec469bb99c2a45e49de5ba74d1ae" target="_top" xlink:title="Processes input from all active SocketClient objects.">
<polygon fill="white" stroke="black" points="961,-492 961,-512 1077,-512 1077,-492 961,-492"/>
<text text-anchor="middle" x="1019" y="-499" font-family="FreeSans.ttf" font-size="10.00">Server::ProcessInput</text>
</a>
</g>
<!-- Node28&#45;&gt;Node29 -->
<g id="edge88" class="edge"><title>Node28&#45;&gt;Node29</title>
<path fill="none" stroke="midnightblue" d="M767.517,-502C829.489,-502 908.221,-502 960.933,-502"/>
<polygon fill="midnightblue" stroke="midnightblue" points="767.33,-498.5 757.33,-502 767.33,-505.5 767.33,-498.5"/>
</g>
<!-- Node29&#45;&gt;Node6 -->
<g id="edge90" class="edge"><title>Node29&#45;&gt;Node6</title>
<path fill="none" stroke="midnightblue" d="M1087.29,-502C1098.44,-502 1109.73,-502 1120.13,-502"/>
<polygon fill="midnightblue" stroke="midnightblue" points="1087.12,-498.5 1077.12,-502 1087.12,-505.5 1087.12,-498.5"/>
</g>
<!-- Node30&#45;&gt;Node24 -->
<g id="edge98" class="edge"><title>Node30&#45;&gt;Node24</title>
<path fill="none" stroke="midnightblue" d="M555.71,-578C577.387,-578 600.51,-578 620.381,-578"/>
<polygon fill="midnightblue" stroke="midnightblue" points="555.539,-574.5 545.539,-578 555.538,-581.5 555.539,-574.5"/>
</g>
</g>
</svg>
