<?xml version="1.0" encoding="UTF-8" standalone="no"?>
<!DOCTYPE svg PUBLIC "-//W3C//DTD SVG 1.1//EN"
 "http://www.w3.org/Graphics/SVG/1.1/DTD/svg11.dtd">
<!-- Generated by graphviz version 2.26.3 (20100126.1600)
 -->
<!-- Title: G Pages: 1 -->
<svg width="370pt" height="130pt"
 viewBox="0.00 0.00 370.00 130.00" xmlns="http://www.w3.org/2000/svg" xmlns:xlink="http://www.w3.org/1999/xlink">
<g id="graph1" class="graph" transform="scale(1 1) rotate(0) translate(4 126)">
<title>G</title>
<polygon fill="white" stroke="white" points="-4,5 -4,-126 367,-126 367,5 -4,5"/>
<!-- Node1 -->
<g id="node1" class="node"><title>Node1</title>
<polygon fill="#bfbfbf" stroke="black" points="0,-40.5 0,-61.5 82,-61.5 82,-40.5 0,-40.5"/>
<text text-anchor="middle" x="41" y="-48.5" font-family="FreeSans.ttf" font-size="10.00">Utils::_Logger</text>
</g>
<!-- Node2 -->
<g id="node3" class="node"><title>Node2</title>
<a xlink:href="namespaceUtils.xhtml#a070c642e01b4b1d2ded94e234d32f65e" target="_top" xlink:title="Utils::__FormatString">
<polygon fill="white" stroke="black" points="118.5,-80.5 118.5,-101.5 235.5,-101.5 235.5,-80.5 118.5,-80.5"/>
<text text-anchor="middle" x="177" y="-88.5" font-family="FreeSans.ttf" font-size="10.00">Utils::__FormatString</text>
</a>
</g>
<!-- Node1&#45;&gt;Node2 -->
<g id="edge2" class="edge"><title>Node1&#45;&gt;Node2</title>
<path fill="none" stroke="midnightblue" d="M76.7324,-61.5095C93.466,-66.4312 113.593,-72.351 131.41,-77.5912"/>
<polygon fill="midnightblue" stroke="midnightblue" points="130.453,-80.9578 141.034,-80.4218 132.428,-74.2423 130.453,-80.9578"/>
</g>
<!-- Node5 -->
<g id="node9" class="node"><title>Node5</title>
<a xlink:href="namespaceUtils.xhtml#aa3855eafe3e4898c743bc47cdc962a4a" target="_top" xlink:title="Utils::StrTime">
<polygon fill="white" stroke="black" points="136.5,-40.5 136.5,-61.5 217.5,-61.5 217.5,-40.5 136.5,-40.5"/>
<text text-anchor="middle" x="177" y="-48.5" font-family="FreeSans.ttf" font-size="10.00">Utils::StrTime</text>
</a>
</g>
<!-- Node1&#45;&gt;Node5 -->
<g id="edge8" class="edge"><title>Node1&#45;&gt;Node5</title>
<path fill="none" stroke="midnightblue" d="M82.1736,-51C96.0139,-51 111.62,-51 126.116,-51"/>
<polygon fill="midnightblue" stroke="midnightblue" points="126.434,-54.5001 136.434,-51 126.434,-47.5001 126.434,-54.5001"/>
</g>
<!-- Node6 -->
<g id="node11" class="node"><title>Node6</title>
<a xlink:href="namespaceUtils.xhtml#adbb91eecf7e80e6e97b3ebe38123cc12" target="_top" xlink:title="Utils::CurrentTime">
<polygon fill="white" stroke="black" points="125.5,-0.5 125.5,-21.5 228.5,-21.5 228.5,-0.5 125.5,-0.5"/>
<text text-anchor="middle" x="177" y="-8.5" font-family="FreeSans.ttf" font-size="10.00">Utils::CurrentTime</text>
</a>
</g>
<!-- Node1&#45;&gt;Node6 -->
<g id="edge10" class="edge"><title>Node1&#45;&gt;Node6</title>
<path fill="none" stroke="midnightblue" d="M76.7324,-40.4905C93.466,-35.5688 113.593,-29.649 131.41,-24.4088"/>
<polygon fill="midnightblue" stroke="midnightblue" points="132.428,-27.7577 141.034,-21.5782 130.453,-21.0422 132.428,-27.7577"/>
</g>
<!-- Node3 -->
<g id="node5" class="node"><title>Node3</title>
<a xlink:href="namespaceUtils.xhtml#a498e31ec51c129ae9b68a20aa4e05c57" target="_top" xlink:title="Utils::StrTokens">
<polygon fill="white" stroke="black" points="272,-100.5 272,-121.5 362,-121.5 362,-100.5 272,-100.5"/>
<text text-anchor="middle" x="317" y="-108.5" font-family="FreeSans.ttf" font-size="10.00">Utils::StrTokens</text>
</a>
</g>
<!-- Node2&#45;&gt;Node3 -->
<g id="edge4" class="edge"><title>Node2&#45;&gt;Node3</title>
<path fill="none" stroke="midnightblue" d="M235.561,-99.3659C244.286,-100.612 253.254,-101.893 261.904,-103.129"/>
<polygon fill="midnightblue" stroke="midnightblue" points="261.484,-106.605 271.878,-104.554 262.474,-99.6749 261.484,-106.605"/>
</g>
<!-- Node4 -->
<g id="node7" class="node"><title>Node4</title>
<a xlink:href="namespaceUtils.xhtml#afaf029667f299587a52ba9c8de11edfa" target="_top" xlink:title="Utils::NumChar">
<polygon fill="white" stroke="black" points="272.5,-60.5 272.5,-81.5 361.5,-81.5 361.5,-60.5 272.5,-60.5"/>
<text text-anchor="middle" x="317" y="-68.5" font-family="FreeSans.ttf" font-size="10.00">Utils::NumChar</text>
</a>
</g>
<!-- Node2&#45;&gt;Node4 -->
<g id="edge6" class="edge"><title>Node2&#45;&gt;Node4</title>
<path fill="none" stroke="midnightblue" d="M235.561,-82.6341C244.394,-81.3723 253.476,-80.0749 262.224,-78.8251"/>
<polygon fill="midnightblue" stroke="midnightblue" points="262.902,-82.264 272.306,-77.3848 261.912,-75.3343 262.902,-82.264"/>
</g>
</g>
</svg>
