<?xml version="1.0" encoding="UTF-8" standalone="no"?>
<!DOCTYPE svg PUBLIC "-//W3C//DTD SVG 1.1//EN"
 "http://www.w3.org/Graphics/SVG/1.1/DTD/svg11.dtd">
<!-- Generated by graphviz version 2.26.3 (20100126.1600)
 -->
<!-- Title: G Pages: 1 -->
<!--zoomable 110 -->
<svg id="main" version="1.1" xmlns="http://www.w3.org/2000/svg" xmlns:xlink="http://www.w3.org/1999/xlink" xml:space="preserve" onload="init(evt)">
        <defs>
                <circle id="rim" cx="0" cy="0" r="7"/>
                <circle id="rim2" cx="0" cy="0" r="3.5"/>
                <g id="zoomPlus">
                        <use xlink:href="#rim" fill="#404040">
                                <set attributeName="fill" to="#808080" begin="zoomplus.mouseover" end="zoomplus.mouseout"/>
                        </use>
                        <path d="M-4,0h8M0,-4v8" fill="none" stroke="white" stroke-width="1.5" pointer-events="none"/>
                </g>
                <g id="zoomMin">
                        <use xlink:href="#rim" fill="#404040">
                                <set attributeName="fill" to="#808080" begin="zoomminus.mouseover" end="zoomminus.mouseout"/>
                        </use>
                        <path d="M-4,0h8" fill="none" stroke="white" stroke-width="1.5" pointer-events="none"/>
                </g>
                <g id="dirArrow">
                        <path fill="none" stroke="white" stroke-width="1.5" d="M0,-3.0v7 M-2.5,-0.5L0,-3.0L2.5,-0.5"/>
                </g>
               <g id="resetDef">
                       <use xlink:href="#rim2" fill="#404040">
                               <set attributeName="fill" to="#808080" begin="reset.mouseover" end="reset.mouseout"/>
                       </use>
               </g>
        </defs>

<script type="text/javascript">
var viewWidth = 504;
var viewHeight = 110;
var sectionId = 'dynsection-24';
</script>
<script xlink:href="svgpan.js"/>
<svg id="graph" class="graph">
<g id="viewport">
<title>G</title>
<polygon fill="white" stroke="white" points="-4,5 -4,-106 501,-106 501,5 -4,5"/>
<!-- Node1 -->
<g id="node1" class="node"><title>Node1</title>
<polygon fill="#bfbfbf" stroke="black" points="0,-60.5 0,-81.5 90,-81.5 90,-60.5 0,-60.5"/>
<text text-anchor="middle" x="45" y="-68.5" font-family="FreeSans.ttf" font-size="10.00">Utils::StrTokens</text>
</g>
<!-- Node2 -->
<g id="node3" class="node"><title>Node2</title>
<a xlink:href="classServer_1_1Config.xhtml#a54dba418bfd3365ccfb30bda37ccd461" target="_top" xlink:title="Unserialize runtime configuration settings from CFG_DAT_FILE_SETTINGS.">
<polygon fill="white" stroke="black" points="126.5,-80.5 126.5,-101.5 269.5,-101.5 269.5,-80.5 126.5,-80.5"/>
<text text-anchor="middle" x="198" y="-88.5" font-family="FreeSans.ttf" font-size="10.00">Server::Config::Unserialize</text>
</a>
</g>
<!-- Node1&#45;&gt;Node2 -->
<g id="edge2" class="edge"><title>Node1&#45;&gt;Node2</title>
<path fill="none" stroke="midnightblue" d="M100.188,-78.2141C108.657,-79.3211 117.504,-80.4776 126.267,-81.6231"/>
<polygon fill="midnightblue" stroke="midnightblue" points="100.447,-74.7183 90.0775,-76.8925 99.5395,-81.6592 100.447,-74.7183"/>
</g>
<!-- Node5 -->
<g id="node9" class="node"><title>Node5</title>
<a xlink:href="namespaceUtils.xhtml#a070c642e01b4b1d2ded94e234d32f65e" target="_top" xlink:title="This is the printf&#45;style string formatter. It should not be invoked directly, but rather by using Uti...">
<polygon fill="white" stroke="black" points="139.5,-40.5 139.5,-61.5 256.5,-61.5 256.5,-40.5 139.5,-40.5"/>
<text text-anchor="middle" x="198" y="-48.5" font-family="FreeSans.ttf" font-size="10.00">Utils::__FormatString</text>
</a>
</g>
<!-- Node1&#45;&gt;Node5 -->
<g id="edge8" class="edge"><title>Node1&#45;&gt;Node5</title>
<path fill="none" stroke="midnightblue" d="M100.084,-63.7994C112.83,-62.1333 126.439,-60.3544 139.332,-58.6691"/>
<polygon fill="midnightblue" stroke="midnightblue" points="99.5395,-60.3408 90.0775,-65.1075 100.447,-67.2817 99.5395,-60.3408"/>
</g>
<!-- Node3 -->
<g id="node5" class="node"><title>Node3</title>
<a xlink:href="classServer.xhtml#a19a1e493e1fb50a56d9c77332543d565" target="_top" xlink:title="Start the NAMS Server. Responsible for calling all critical boot&#45;time functions such as SocketServer ...">
<polygon fill="white" stroke="black" points="317,-80.5 317,-101.5 407,-101.5 407,-80.5 317,-80.5"/>
<text text-anchor="middle" x="362" y="-88.5" font-family="FreeSans.ttf" font-size="10.00">Server::Startup</text>
</a>
</g>
<!-- Node2&#45;&gt;Node3 -->
<g id="edge4" class="edge"><title>Node2&#45;&gt;Node3</title>
<path fill="none" stroke="midnightblue" d="M279.999,-91C292.579,-91 305.159,-91 316.555,-91"/>
<polygon fill="midnightblue" stroke="midnightblue" points="279.933,-87.5001 269.933,-91 279.933,-94.5001 279.933,-87.5001"/>
</g>
<!-- Node4 -->
<g id="node7" class="node"><title>Node4</title>
<a xlink:href="main_8cpp.xhtml#ad53223b8779f25caeddb70a3b9172967" target="_top" xlink:title="The default function required to execute the server.">
<polygon fill="white" stroke="black" points="454.5,-80.5 454.5,-101.5 495.5,-101.5 495.5,-80.5 454.5,-80.5"/>
<text text-anchor="middle" x="475" y="-88.5" font-family="FreeSans.ttf" font-size="10.00">main</text>
</a>
</g>
<!-- Node3&#45;&gt;Node4 -->
<g id="edge6" class="edge"><title>Node3&#45;&gt;Node4</title>
<path fill="none" stroke="midnightblue" d="M417.376,-91C430.622,-91 443.951,-91 454.449,-91"/>
<polygon fill="midnightblue" stroke="midnightblue" points="417.31,-87.5001 407.31,-91 417.31,-94.5001 417.31,-87.5001"/>
</g>
<!-- Node6 -->
<g id="node11" class="node"><title>Node6</title>
<a xlink:href="namespaceUtils.xhtml#a33e08ea185b71aab494d83322ad3cd53" target="_top" xlink:title="This is a nested wrapper for Utils::__FormatString and should not be called directly.">
<polygon fill="white" stroke="black" points="306,-40.5 306,-61.5 418,-61.5 418,-40.5 306,-40.5"/>
<text text-anchor="middle" x="362" y="-48.5" font-family="FreeSans.ttf" font-size="10.00">Utils::_FormatString</text>
</a>
</g>
<!-- Node5&#45;&gt;Node6 -->
<g id="edge10" class="edge"><title>Node5&#45;&gt;Node6</title>
<path fill="none" stroke="midnightblue" d="M267.011,-51C279.963,-51 293.358,-51 305.86,-51"/>
<polygon fill="midnightblue" stroke="midnightblue" points="266.745,-47.5001 256.745,-51 266.745,-54.5001 266.745,-47.5001"/>
</g>
<!-- Node7 -->
<g id="node13" class="node"><title>Node7</title>
<a xlink:href="namespaceUtils.xhtml#aa2ac8bf1bb304bab8f29829ec30af243" target="_top" xlink:title="This is the logging output engine. It should not be invoked directly, but rather by calling Utils::Lo...">
<polygon fill="white" stroke="black" points="321,-0.5 321,-21.5 403,-21.5 403,-0.5 321,-0.5"/>
<text text-anchor="middle" x="362" y="-8.5" font-family="FreeSans.ttf" font-size="10.00">Utils::_Logger</text>
</a>
</g>
<!-- Node5&#45;&gt;Node7 -->
<g id="edge12" class="edge"><title>Node5&#45;&gt;Node7</title>
<path fill="none" stroke="midnightblue" d="M250.909,-38.0953C273.596,-32.562 299.695,-26.1963 320.894,-21.0259"/>
<polygon fill="midnightblue" stroke="midnightblue" points="249.975,-34.7205 241.089,-40.4905 251.634,-41.5212 249.975,-34.7205"/>
</g>
</g>
</svg>
        <g id="navigator" transform="translate(0 0)" fill="#404254">
                <rect fill="#f2f5e9" fill-opacity="0.5" stroke="#606060" stroke-width=".5" x="0" y="0" width="60" height="60"/>
                <use id="zoomplus" xlink:href="#zoomPlus" x="17" y="9" onmousedown="handleZoom(evt,'in')"/>
                <use id="zoomminus" xlink:href="#zoomMin" x="42" y="9" onmousedown="handleZoom(evt,'out')"/>
                <use id="reset" xlink:href="#resetDef" x="30" y="36" onmousedown="handleReset()"/>
                <g id="arrowUp" xlink:href="#dirArrow" transform="translate(30 24)" onmousedown="handlePan(0,-1)">
                  <use xlink:href="#rim" fill="#404040">
                        <set attributeName="fill" to="#808080" begin="arrowUp.mouseover" end="arrowUp.mouseout"/>
                  </use>
                  <path fill="none" stroke="white" stroke-width="1.5" d="M0,-3.0v7 M-2.5,-0.5L0,-3.0L2.5,-0.5"/>
                </g>
                <g id="arrowRight" xlink:href="#dirArrow" transform="rotate(90) translate(36 -43)" onmousedown="handlePan(1,0)">
                  <use xlink:href="#rim" fill="#404040">
                        <set attributeName="fill" to="#808080" begin="arrowRight.mouseover" end="arrowRight.mouseout"/>
                  </use>
                  <path fill="none" stroke="white" stroke-width="1.5" d="M0,-3.0v7 M-2.5,-0.5L0,-3.0L2.5,-0.5"/>
                </g>
                <g id="arrowDown" xlink:href="#dirArrow" transform="rotate(180) translate(-30 -48)" onmousedown="handlePan(0,1)">
                  <use xlink:href="#rim" fill="#404040">
                        <set attributeName="fill" to="#808080" begin="arrowDown.mouseover" end="arrowDown.mouseout"/>
                  </use>
                  <path fill="none" stroke="white" stroke-width="1.5" d="M0,-3.0v7 M-2.5,-0.5L0,-3.0L2.5,-0.5"/>
                </g>
                <g id="arrowLeft" xlink:href="#dirArrow" transform="rotate(270) translate(-36 17)" onmousedown="handlePan(-1,0)">
                  <use xlink:href="#rim" fill="#404040">
                        <set attributeName="fill" to="#808080" begin="arrowLeft.mouseover" end="arrowLeft.mouseout"/>
                  </use>
                  <path fill="none" stroke="white" stroke-width="1.5" d="M0,-3.0v7 M-2.5,-0.5L0,-3.0L2.5,-0.5"/>
                </g>
        </g>
</svg>
