<?xml version="1.0" encoding="UTF-8" standalone="no"?>
<!DOCTYPE svg PUBLIC "-//W3C//DTD SVG 1.1//EN"
 "http://www.w3.org/Graphics/SVG/1.1/DTD/svg11.dtd">
<!-- Generated by graphviz version 2.26.3 (20100126.1600)
 -->
<!-- Title: Utils::ReadIndex Pages: 1 -->
<!--zoomable 749 -->
<svg id="main" version="1.1" xmlns="http://www.w3.org/2000/svg" xmlns:xlink="http://www.w3.org/1999/xlink" xml:space="preserve" onload="init(evt)">
        <defs>
                <circle id="rim" cx="0" cy="0" r="7"/>
                <circle id="rim2" cx="0" cy="0" r="3.5"/>
                <g id="zoomPlus">
                        <use xlink:href="#rim" fill="#404040">
                                <set attributeName="fill" to="#808080" begin="zoomplus.mouseover" end="zoomplus.mouseout"/>
                        </use>
                        <path d="M-4,0h8M0,-4v8" fill="none" stroke="white" stroke-width="1.5" pointer-events="none"/>
                </g>
                <g id="zoomMin">
                        <use xlink:href="#rim" fill="#404040">
                                <set attributeName="fill" to="#808080" begin="zoomminus.mouseover" end="zoomminus.mouseout"/>
                        </use>
                        <path d="M-4,0h8" fill="none" stroke="white" stroke-width="1.5" pointer-events="none"/>
                </g>
                <g id="dirArrow">
                        <path fill="none" stroke="white" stroke-width="1.5" d="M0,-3.0v7 M-2.5,-0.5L0,-3.0L2.5,-0.5"/>
                </g>
               <g id="resetDef">
                       <use xlink:href="#rim2" fill="#404040">
                               <set attributeName="fill" to="#808080" begin="reset.mouseover" end="reset.mouseout"/>
                       </use>
               </g>
        </defs>

<script type="text/javascript">
var viewWidth = 1554;
var viewHeight = 749;
var sectionId = 'dynsection-28';
</script>
<script xlink:href="svgpan.js"/>
<svg id="graph" class="graph">
<g id="viewport">
<title>Utils::ReadIndex</title>
<polygon fill="white" stroke="white" points="-4,5 -4,-744.595 1551,-744.595 1551,5 -4,5"/>
<!-- Node1 -->
<g id="node1" class="node"><title>Node1</title>
<polygon fill="#bfbfbf" stroke="black" points="0,-682 0,-702 92,-702 92,-682 0,-682"/>
<text text-anchor="middle" x="46" y="-689" font-family="FreeSans.ttf" font-size="10.00">Utils::ReadIndex</text>
</g>
<!-- Node2 -->
<g id="node3" class="node"><title>Node2</title>
<a xlink:href="classCharacter.xhtml#a91193d9bb29423c2ec95fb56c27d6bb3" target="_top" xlink:title="Unserialize the character data.">
<polygon fill="white" stroke="black" points="128,-625 128,-645 250,-645 250,-625 128,-625"/>
<text text-anchor="middle" x="189" y="-632" font-family="FreeSans.ttf" font-size="10.00">Character::Unserialize</text>
</a>
</g>
<!-- Node1&#45;&gt;Node2 -->
<g id="edge2" class="edge"><title>Node1&#45;&gt;Node2</title>
<path fill="none" stroke="midnightblue" d="M80.5733,-678.219C106.154,-668.023 140.425,-654.362 163.535,-645.15"/>
<polygon fill="midnightblue" stroke="midnightblue" points="79.2296,-674.987 71.2364,-681.941 81.8216,-681.489 79.2296,-674.987"/>
</g>
<!-- Node29 -->
<g id="node76" class="node"><title>Node29</title>
<a xlink:href="classLocation.xhtml#af65d15c0c107b1fdea7711d632ac909d" target="_top" xlink:title="Unserialize the location data.">
<polygon fill="white" stroke="black" points="286,-720 286,-740 402,-740 402,-720 286,-720"/>
<text text-anchor="middle" x="344" y="-727" font-family="FreeSans.ttf" font-size="10.00">Location::Unserialize</text>
</a>
</g>
<!-- Node1&#45;&gt;Node29 -->
<g id="edge94" class="edge"><title>Node1&#45;&gt;Node29</title>
<path fill="none" stroke="midnightblue" d="M94.098,-704.328C105.176,-706.837 116.951,-709.243 128,-711 181.164,-719.455 242.332,-724.393 285.973,-727.104"/>
<polygon fill="midnightblue" stroke="midnightblue" points="94.6948,-700.874 84.1612,-702.011 93.1048,-707.691 94.6948,-700.874"/>
</g>
<!-- Node32 -->
<g id="node83" class="node"><title>Node32</title>
<a xlink:href="classObject.xhtml#a194a597210a8466f7a1668d6383c5b70" target="_top" xlink:title="Unserialize the object data.">
<polygon fill="white" stroke="black" points="136,-682 136,-702 242,-702 242,-682 136,-682"/>
<text text-anchor="middle" x="189" y="-689" font-family="FreeSans.ttf" font-size="10.00">Object::Unserialize</text>
</a>
</g>
<!-- Node1&#45;&gt;Node32 -->
<g id="edge102" class="edge"><title>Node1&#45;&gt;Node32</title>
<path fill="none" stroke="midnightblue" d="M102.063,-692C113.18,-692 124.819,-692 135.836,-692"/>
<polygon fill="midnightblue" stroke="midnightblue" points="102.033,-688.5 92.0332,-692 102.033,-695.5 102.033,-688.5"/>
</g>
<!-- Node3 -->
<g id="node5" class="node"><title>Node3</title>
<a xlink:href="classCharacter.xhtml#a59fd38e0e8347e4e242603cc82ae551b" target="_top" xlink:title="Create a new character.">
<polygon fill="white" stroke="black" points="299,-606 299,-626 389,-626 389,-606 299,-606"/>
<text text-anchor="middle" x="344" y="-613" font-family="FreeSans.ttf" font-size="10.00">Character::New</text>
</a>
</g>
<!-- Node2&#45;&gt;Node3 -->
<g id="edge4" class="edge"><title>Node2&#45;&gt;Node3</title>
<path fill="none" stroke="midnightblue" d="M260.259,-626.265C273.428,-624.651 286.84,-623.007 298.959,-621.521"/>
<polygon fill="midnightblue" stroke="midnightblue" points="259.76,-622.8 250.26,-627.491 260.612,-629.748 259.76,-622.8"/>
</g>
<!-- Node4 -->
<g id="node7" class="node"><title>Node4</title>
<a xlink:href="namespaceHandler.xhtml#ab5889a65de2794129b375ec39ae923ae" target="_top" xlink:title="Select a new Character name.">
<polygon fill="white" stroke="black" points="438.5,-322 438.5,-342 607.5,-342 607.5,-322 438.5,-322"/>
<text text-anchor="middle" x="523" y="-329" font-family="FreeSans.ttf" font-size="10.00">Handler::CharacterCreateName</text>
</a>
</g>
<!-- Node3&#45;&gt;Node4 -->
<g id="edge6" class="edge"><title>Node3&#45;&gt;Node4</title>
<path fill="none" stroke="midnightblue" d="M355.856,-597.19C390.387,-542.404 490.109,-384.184 516.519,-342.283"/>
<polygon fill="midnightblue" stroke="midnightblue" points="352.742,-595.566 350.371,-605.892 358.664,-599.299 352.742,-595.566"/>
</g>
<!-- Node17 -->
<g id="node45" class="node"><title>Node17</title>
<a xlink:href="namespaceHandler.xhtml#ae70e4e50054c729c14493eafefe01b5c" target="_top" xlink:title="Load a character from the account to enter into the game with.">
<polygon fill="white" stroke="black" points="828.5,-0 828.5,-20 959.5,-20 959.5,-0 828.5,-0"/>
<text text-anchor="middle" x="894" y="-7" font-family="FreeSans.ttf" font-size="10.00">Handler::LoadCharacter</text>
</a>
</g>
<!-- Node3&#45;&gt;Node17 -->
<g id="edge86" class="edge"><title>Node3&#45;&gt;Node17</title>
<path fill="none" stroke="midnightblue" d="M345.955,-595.696C351.786,-544.051 372.904,-405.252 438,-313 555.154,-146.972 623.498,-132.323 804,-39 819.312,-31.0836 837.203,-24.7825 852.983,-20.1034"/>
<polygon fill="midnightblue" stroke="midnightblue" points="342.451,-595.548 344.882,-605.861 349.413,-596.283 342.451,-595.548"/>
</g>
<!-- Node20 -->
<g id="node53" class="node"><title>Node20</title>
<a xlink:href="namespaceServer.xhtml#a16ea0639731dee10e1a253375b508a02" target="_top" xlink:title="Recovers the server state and re&#45;connects client sockets after a reboot.">
<polygon fill="white" stroke="black" points="1040,-606 1040,-626 1170,-626 1170,-606 1040,-606"/>
<text text-anchor="middle" x="1105" y="-613" font-family="FreeSans.ttf" font-size="10.00">Server::RebootRecovery</text>
</a>
</g>
<!-- Node3&#45;&gt;Node20 -->
<g id="edge92" class="edge"><title>Node3&#45;&gt;Node20</title>
<path fill="none" stroke="midnightblue" d="M399.324,-616C536.647,-616 892.607,-616 1039.81,-616"/>
<polygon fill="midnightblue" stroke="midnightblue" points="399.044,-612.5 389.044,-616 399.044,-619.5 399.044,-612.5"/>
</g>
<!-- Node28 -->
<g id="node72" class="node"><title>Node28</title>
<a xlink:href="namespaceServer.xhtml#a04744ab6fef0eabc2a6c30d111b9074f" target="_top" xlink:title="Search all subfolders of CFG_DAT_DIR_WORLD and call Character::New() to load each file found to memor...">
<polygon fill="white" stroke="black" points="654.5,-644 654.5,-664 757.5,-664 757.5,-644 654.5,-644"/>
<text text-anchor="middle" x="706" y="-651" font-family="FreeSans.ttf" font-size="10.00">Server::LoadNPCs</text>
</a>
</g>
<!-- Node3&#45;&gt;Node28 -->
<g id="edge88" class="edge"><title>Node3&#45;&gt;Node28</title>
<path fill="none" stroke="midnightblue" d="M399.329,-624.791C412.016,-626.654 425.46,-628.506 438,-630 513.029,-638.939 600.236,-646.163 654.279,-650.271"/>
<polygon fill="midnightblue" stroke="midnightblue" points="399.756,-621.316 389.349,-623.302 398.723,-628.24 399.756,-621.316"/>
</g>
<!-- Node5 -->
<g id="node9" class="node"><title>Node5</title>
<a xlink:href="namespaceHandler.xhtml#a139febc000c9d767a620708148e0c888" target="_top" xlink:title="Dispatches the appropriate menu based on client state.">
<polygon fill="white" stroke="black" points="644.5,-322 644.5,-342 767.5,-342 767.5,-322 644.5,-322"/>
<text text-anchor="middle" x="706" y="-329" font-family="FreeSans.ttf" font-size="10.00">Handler::LoginHandler</text>
</a>
</g>
<!-- Node4&#45;&gt;Node5 -->
<g id="edge8" class="edge"><title>Node4&#45;&gt;Node5</title>
<path fill="none" stroke="midnightblue" d="M617.774,-325.254C626.842,-325.275 635.867,-325.385 644.492,-325.583"/>
<polygon fill="midnightblue" stroke="midnightblue" points="617.532,-321.754 607.536,-325.267 617.541,-328.754 617.532,-321.754"/>
</g>
<!-- Node5&#45;&gt;Node4 -->
<g id="edge26" class="edge"><title>Node5&#45;&gt;Node4</title>
<path fill="none" stroke="midnightblue" d="M634.316,-338.607C625.531,-338.736 616.489,-338.777 607.536,-338.733"/>
<polygon fill="midnightblue" stroke="midnightblue" points="634.559,-342.103 644.492,-338.417 634.428,-335.105 634.559,-342.103"/>
</g>
<!-- Node6 -->
<g id="node11" class="node"><title>Node6</title>
<a xlink:href="namespaceHandler.xhtml#a33a19d69ead678af81fbe96907eceaf0" target="_top" xlink:title="Create a new account object, or load an existing one, with a name and password.">
<polygon fill="white" stroke="black" points="828.5,-530 828.5,-550 959.5,-550 959.5,-530 828.5,-530"/>
<text text-anchor="middle" x="894" y="-537" font-family="FreeSans.ttf" font-size="10.00">Handler::AttachAccount</text>
</a>
</g>
<!-- Node5&#45;&gt;Node6 -->
<g id="edge10" class="edge"><title>Node5&#45;&gt;Node6</title>
<path fill="none" stroke="midnightblue" d="M711.758,-351.982C722.437,-389.753 749.378,-470.454 804,-512 816.965,-521.861 833.886,-526.88 849.553,-529.92"/>
<polygon fill="midnightblue" stroke="midnightblue" points="715.077,-350.851 709.059,-342.13 708.325,-352.7 715.077,-350.851"/>
</g>
<!-- Node7 -->
<g id="node14" class="node"><title>Node7</title>
<a xlink:href="namespaceHandler.xhtml#a2e4ebf6ed049eb872aa4948d54c4932c" target="_top" xlink:title="Attempt to write a new character to disk after creation was completed.">
<polygon fill="white" stroke="black" points="824.5,-492 824.5,-512 963.5,-512 963.5,-492 824.5,-492"/>
<text text-anchor="middle" x="894" y="-499" font-family="FreeSans.ttf" font-size="10.00">Handler::AttachCharacter</text>
</a>
</g>
<!-- Node5&#45;&gt;Node7 -->
<g id="edge14" class="edge"><title>Node5&#45;&gt;Node7</title>
<path fill="none" stroke="midnightblue" d="M715.422,-351.776C729.306,-383.109 758.628,-442.854 804,-474 818.482,-483.942 837.136,-488.848 853.702,-491.924"/>
<polygon fill="midnightblue" stroke="midnightblue" points="718.506,-350.093 711.304,-342.322 712.088,-352.888 718.506,-350.093"/>
</g>
<!-- Node8 -->
<g id="node17" class="node"><title>Node8</title>
<a xlink:href="namespaceHandler.xhtml#a73ed6064f2698dbffb5f4c247a02b661" target="_top" xlink:title="Send initial account interface menu.">
<polygon fill="white" stroke="black" points="820,-454 820,-474 968,-474 968,-454 820,-454"/>
<text text-anchor="middle" x="894" y="-461" font-family="FreeSans.ttf" font-size="10.00">Handler::AccountMenuMain</text>
</a>
</g>
<!-- Node5&#45;&gt;Node8 -->
<g id="edge18" class="edge"><title>Node5&#45;&gt;Node8</title>
<path fill="none" stroke="midnightblue" d="M720.642,-350.267C737.389,-374.071 767.293,-414.384 804,-436 820.788,-445.886 842.015,-450.665 859.637,-453.933"/>
<polygon fill="midnightblue" stroke="midnightblue" points="723.479,-348.216 714.881,-342.026 717.741,-352.227 723.479,-348.216"/>
</g>
<!-- Node9 -->
<g id="node20" class="node"><title>Node9</title>
<a xlink:href="namespaceHandler.xhtml#ad04998a7a6ece2486bc441052a57c2d7" target="_top" xlink:title="Main Character creation menu.">
<polygon fill="white" stroke="black" points="824,-404 824,-436 964,-436 964,-404 824,-404"/>
<text text-anchor="start" x="832" y="-423" font-family="FreeSans.ttf" font-size="10.00">Handler::CharacterCreate</text>
<text text-anchor="middle" x="894" y="-411" font-family="FreeSans.ttf" font-size="10.00">MenuMain</text>
</a>
</g>
<!-- Node5&#45;&gt;Node9 -->
<g id="edge22" class="edge"><title>Node5&#45;&gt;Node9</title>
<path fill="none" stroke="midnightblue" d="M737.259,-347.674C755.855,-359.655 780.364,-375.412 804,-386 820.576,-393.425 839.874,-399.138 856.34,-403.97"/>
<polygon fill="midnightblue" stroke="midnightblue" points="738.941,-344.594 728.635,-342.135 735.158,-350.484 738.941,-344.594"/>
</g>
<!-- Node10 -->
<g id="node24" class="node"><title>Node10</title>
<a xlink:href="namespaceHandler.xhtml#ae5086bcf5857eb572beedd09158c3065" target="_top" xlink:title="Select a new Character sex.">
<polygon fill="white" stroke="black" points="815,-366 815,-386 973,-386 973,-366 815,-366"/>
<text text-anchor="middle" x="894" y="-373" font-family="FreeSans.ttf" font-size="10.00">Handler::CharacterCreateSex</text>
</a>
</g>
<!-- Node5&#45;&gt;Node10 -->
<g id="edge28" class="edge"><title>Node5&#45;&gt;Node10</title>
<path fill="none" stroke="midnightblue" d="M777.565,-341.692C786.453,-343.829 795.427,-346.002 804,-348 829.351,-353.907 858.906,-359.994 877.034,-365.961"/>
<polygon fill="midnightblue" stroke="midnightblue" points="778.131,-338.228 767.591,-339.306 776.503,-345.036 778.131,-338.228"/>
</g>
<!-- Node11 -->
<g id="node27" class="node"><title>Node11</title>
<a xlink:href="namespaceHandler.xhtml#a97a198bfc72285b2aca4f36978db715e" target="_top" xlink:title="Main Character deletion confirmation.">
<polygon fill="white" stroke="black" points="824.5,-316 824.5,-348 963.5,-348 963.5,-316 824.5,-316"/>
<text text-anchor="start" x="832.5" y="-335" font-family="FreeSans.ttf" font-size="10.00">Handler::CharacterDelete</text>
<text text-anchor="middle" x="894" y="-323" font-family="FreeSans.ttf" font-size="10.00">Confirm</text>
</a>
</g>
<!-- Node5&#45;&gt;Node11 -->
<g id="edge32" class="edge"><title>Node5&#45;&gt;Node11</title>
<path fill="none" stroke="midnightblue" d="M777.972,-325.418C793.235,-325.181 809.319,-325.195 824.488,-325.458"/>
<polygon fill="midnightblue" stroke="midnightblue" points="777.488,-321.926 767.558,-325.621 777.625,-328.925 777.488,-321.926"/>
</g>
<!-- Node12 -->
<g id="node30" class="node"><title>Node12</title>
<a xlink:href="namespaceHandler.xhtml#afc470ec6e82b7a9a1560588a368734f9" target="_top" xlink:title="Main Character deletion menu.">
<polygon fill="white" stroke="black" points="824.5,-266 824.5,-298 963.5,-298 963.5,-266 824.5,-266"/>
<text text-anchor="start" x="832.5" y="-285" font-family="FreeSans.ttf" font-size="10.00">Handler::CharacterDelete</text>
<text text-anchor="middle" x="894" y="-273" font-family="FreeSans.ttf" font-size="10.00">MenuMain</text>
</a>
</g>
<!-- Node5&#45;&gt;Node12 -->
<g id="edge36" class="edge"><title>Node5&#45;&gt;Node12</title>
<path fill="none" stroke="midnightblue" d="M736.718,-318.684C760.455,-310.918 794.243,-301.466 824.422,-293.961"/>
<polygon fill="midnightblue" stroke="midnightblue" points="735.555,-315.382 727.201,-321.898 737.795,-322.014 735.555,-315.382"/>
</g>
<!-- Node13 -->
<g id="node33" class="node"><title>Node13</title>
<a xlink:href="namespaceHandler.xhtml#a02b1b954749641ab646f6548a5360d3b" target="_top" xlink:title="Main Character load menu.">
<polygon fill="white" stroke="black" points="804.5,-228 804.5,-248 983.5,-248 983.5,-228 804.5,-228"/>
<text text-anchor="middle" x="894" y="-235" font-family="FreeSans.ttf" font-size="10.00">Handler::CharacterLoadMenuMain</text>
</a>
</g>
<!-- Node5&#45;&gt;Node13 -->
<g id="edge40" class="edge"><title>Node5&#45;&gt;Node13</title>
<path fill="none" stroke="midnightblue" d="M717.952,-313.981C735.314,-294.13 769.249,-263.965 804,-248 804.145,-247.933 804.29,-247.867 804.436,-247.801"/>
<polygon fill="midnightblue" stroke="midnightblue" points="715.191,-311.829 711.572,-321.786 720.611,-316.259 715.191,-311.829"/>
</g>
<!-- Node14 -->
<g id="node36" class="node"><title>Node14</title>
<a xlink:href="namespaceHandler.xhtml#a00bc24564bfd267e0329643c569da1e4" target="_top" xlink:title="Select a new account name.">
<polygon fill="white" stroke="black" points="825.5,-190 825.5,-210 962.5,-210 962.5,-190 825.5,-190"/>
<text text-anchor="middle" x="894" y="-197" font-family="FreeSans.ttf" font-size="10.00">Handler::GetNewAccount</text>
</a>
</g>
<!-- Node5&#45;&gt;Node14 -->
<g id="edge44" class="edge"><title>Node5&#45;&gt;Node14</title>
<path fill="none" stroke="midnightblue" d="M713.977,-312.487C728.513,-284.529 761.751,-234.88 804,-210 810.605,-206.11 817.897,-203.011 825.387,-200.602"/>
<polygon fill="midnightblue" stroke="midnightblue" points="710.713,-311.197 709.486,-321.72 717.008,-314.259 710.713,-311.197"/>
</g>
<!-- Node15 -->
<g id="node39" class="node"><title>Node15</title>
<a xlink:href="namespaceHandler.xhtml#a744adadcf407cdb3a9c33365afd5a7c2" target="_top" xlink:title="Create a new account.">
<polygon fill="white" stroke="black" points="823,-152 823,-172 965,-172 965,-152 823,-152"/>
<text text-anchor="middle" x="894" y="-159" font-family="FreeSans.ttf" font-size="10.00">Handler::GetNewPassword</text>
</a>
</g>
<!-- Node5&#45;&gt;Node15 -->
<g id="edge48" class="edge"><title>Node5&#45;&gt;Node15</title>
<path fill="none" stroke="midnightblue" d="M711.189,-312.107C722.677,-277.233 753.33,-206.783 804,-172 809.793,-168.023 816.253,-164.852 822.98,-162.373"/>
<polygon fill="midnightblue" stroke="midnightblue" points="707.83,-311.121 708.237,-321.708 714.521,-313.178 707.83,-311.121"/>
</g>
<!-- Node16 -->
<g id="node42" class="node"><title>Node16</title>
<a xlink:href="namespaceHandler.xhtml#adfe13cc9748392348f3941656a1323b6" target="_top" xlink:title="Compare a received password against an existing account.">
<polygon fill="white" stroke="black" points="825.5,-114 825.5,-134 962.5,-134 962.5,-114 825.5,-114"/>
<text text-anchor="middle" x="894" y="-121" font-family="FreeSans.ttf" font-size="10.00">Handler::GetOldPassword</text>
</a>
</g>
<!-- Node5&#45;&gt;Node16 -->
<g id="edge52" class="edge"><title>Node5&#45;&gt;Node16</title>
<path fill="none" stroke="midnightblue" d="M709.254,-312.041C717.797,-271.142 744.445,-179.297 804,-134 810.355,-129.166 817.661,-125.496 825.304,-122.786"/>
<polygon fill="midnightblue" stroke="midnightblue" points="705.803,-311.449 707.349,-321.931 712.677,-312.773 705.803,-311.449"/>
</g>
<!-- Node5&#45;&gt;Node17 -->
<g id="edge56" class="edge"><title>Node5&#45;&gt;Node17</title>
<path fill="none" stroke="midnightblue" d="M712.077,-311.995C723.75,-279.276 749.767,-213.559 768,-157 786.658,-99.1236 760.88,-67.8771 804,-25 810.765,-18.2727 819.193,-13.3714 828.157,-9.92205"/>
<polygon fill="midnightblue" stroke="midnightblue" points="708.659,-311.171 708.7,-321.766 715.275,-313.458 708.659,-311.171"/>
</g>
<!-- Node18 -->
<g id="node48" class="node"><title>Node18</title>
<a xlink:href="namespaceHandler.xhtml#a44b41bf69fdc6e615a029bea34910191" target="_top" xlink:title="Send initial greeting and request for account name.">
<polygon fill="white" stroke="black" points="834.5,-568 834.5,-588 953.5,-588 953.5,-568 834.5,-568"/>
<text text-anchor="middle" x="894" y="-575" font-family="FreeSans.ttf" font-size="10.00">Handler::LoginScreen</text>
</a>
</g>
<!-- Node5&#45;&gt;Node18 -->
<g id="edge60" class="edge"><title>Node5&#45;&gt;Node18</title>
<path fill="none" stroke="midnightblue" d="M709.266,-351.989C716.805,-395.454 739.968,-497.619 804,-550 815.99,-559.808 831.815,-564.911 846.847,-567.957"/>
<polygon fill="midnightblue" stroke="midnightblue" points="712.708,-351.346 707.636,-342.044 705.8,-352.479 712.708,-351.346"/>
</g>
<!-- Node19 -->
<g id="node51" class="node"><title>Node19</title>
<a xlink:href="classSocketClient.xhtml#a8399ef20292e9f3ec83b5c4bec2e105b" target="_top" xlink:title="Build a SocketClient for a new client connection and set all attributes.">
<polygon fill="white" stroke="black" points="842.5,-76 842.5,-96 945.5,-96 945.5,-76 842.5,-76"/>
<text text-anchor="middle" x="894" y="-83" font-family="FreeSans.ttf" font-size="10.00">SocketClient::New</text>
</a>
</g>
<!-- Node5&#45;&gt;Node19 -->
<g id="edge64" class="edge"><title>Node5&#45;&gt;Node19</title>
<path fill="none" stroke="midnightblue" d="M713.309,-312.308C732.986,-259.737 786.749,-119.112 804,-105 814.754,-96.203 828.592,-91.1909 842.178,-88.407"/>
<polygon fill="midnightblue" stroke="midnightblue" points="709.966,-311.257 709.751,-321.85 716.525,-313.703 709.966,-311.257"/>
</g>
<!-- Node26 -->
<g id="node66" class="node"><title>Node26</title>
<a xlink:href="classSocketClient.xhtml#ad4f63c7d906310dc56a1217136047d7f" target="_top" xlink:title="Interpret the command at the front of the queue.">
<polygon fill="white" stroke="black" points="1020,-38 1020,-58 1190,-58 1190,-38 1020,-38"/>
<text text-anchor="middle" x="1105" y="-45" font-family="FreeSans.ttf" font-size="10.00">SocketClient::ProcessCommand</text>
</a>
</g>
<!-- Node5&#45;&gt;Node26 -->
<g id="edge80" class="edge"><title>Node5&#45;&gt;Node26</title>
<path fill="none" stroke="midnightblue" d="M713.427,-312.283C725.118,-281.21 748.491,-218.934 768,-166 784.191,-122.07 766.518,-95.055 804,-67 836.959,-42.3306 942.998,-40.799 1019.9,-43.2882"/>
<polygon fill="midnightblue" stroke="midnightblue" points="710.052,-311.314 709.805,-321.906 716.604,-313.78 710.052,-311.314"/>
</g>
<!-- Node6&#45;&gt;Node5 -->
<g id="edge12" class="edge"><title>Node6&#45;&gt;Node5</title>
<path fill="none" stroke="midnightblue" d="M818.533,-538.51C813.363,-536.197 808.449,-533.384 804,-530 738.985,-480.55 713.187,-375.625 707.349,-342.069"/>
<polygon fill="midnightblue" stroke="midnightblue" points="817.478,-541.854 828.069,-542.149 819.974,-535.314 817.478,-541.854"/>
</g>
<!-- Node7&#45;&gt;Node5 -->
<g id="edge16" class="edge"><title>Node7&#45;&gt;Node5</title>
<path fill="none" stroke="midnightblue" d="M815.078,-498.32C811.202,-496.488 807.481,-494.389 804,-492 748.088,-453.618 716.549,-371.809 708.237,-342.292"/>
<polygon fill="midnightblue" stroke="midnightblue" points="813.78,-501.571 824.36,-502.124 816.434,-495.093 813.78,-501.571"/>
</g>
<!-- Node8&#45;&gt;Node5 -->
<g id="edge20" class="edge"><title>Node8&#45;&gt;Node5</title>
<path fill="none" stroke="midnightblue" d="M810.215,-457.338C808.089,-456.297 806.012,-455.185 804,-454 756.562,-426.064 720.486,-366.903 709.486,-342.28"/>
<polygon fill="midnightblue" stroke="midnightblue" points="809.245,-460.73 819.814,-461.46 812.007,-454.298 809.245,-460.73"/>
</g>
<!-- Node9&#45;&gt;Node5 -->
<g id="edge24" class="edge"><title>Node9&#45;&gt;Node5</title>
<path fill="none" stroke="midnightblue" d="M814.435,-408.324C810.875,-406.958 807.381,-405.514 804,-404 767.082,-387.463 728.034,-358.313 712.717,-342.06"/>
<polygon fill="midnightblue" stroke="midnightblue" points="813.387,-411.666 823.981,-411.757 815.756,-405.079 813.387,-411.666"/>
</g>
<!-- Node10&#45;&gt;Node5 -->
<g id="edge30" class="edge"><title>Node10&#45;&gt;Node5</title>
<path fill="none" stroke="midnightblue" d="M805.008,-366.234C804.671,-366.156 804.335,-366.078 804,-366 774.245,-359.067 739.664,-350.009 720.564,-342.092"/>
<polygon fill="midnightblue" stroke="midnightblue" points="804.411,-369.688 814.939,-368.497 805.966,-362.863 804.411,-369.688"/>
</g>
<!-- Node11&#45;&gt;Node5 -->
<g id="edge34" class="edge"><title>Node11&#45;&gt;Node5</title>
<path fill="none" stroke="midnightblue" d="M814.309,-338.68C798.671,-338.834 782.492,-338.734 767.558,-338.379"/>
<polygon fill="midnightblue" stroke="midnightblue" points="814.537,-342.177 824.488,-338.542 814.442,-335.178 814.537,-342.177"/>
</g>
<!-- Node12&#45;&gt;Node5 -->
<g id="edge38" class="edge"><title>Node12&#45;&gt;Node5</title>
<path fill="none" stroke="midnightblue" d="M844.964,-301.052C821.303,-308.187 792.67,-315.925 767.558,-322.007"/>
<polygon fill="midnightblue" stroke="midnightblue" points="846.244,-304.32 854.775,-298.038 844.188,-297.629 846.244,-304.32"/>
</g>
<!-- Node13&#45;&gt;Node5 -->
<g id="edge42" class="edge"><title>Node13&#45;&gt;Node5</title>
<path fill="none" stroke="midnightblue" d="M857.404,-250.139C840.582,-253.712 820.704,-258.326 804,-266 772.266,-280.578 741.213,-306.998 722.839,-321.946"/>
<polygon fill="midnightblue" stroke="midnightblue" points="858.361,-253.515 867.426,-248.031 856.92,-246.664 858.361,-253.515"/>
</g>
<!-- Node14&#45;&gt;Node5 -->
<g id="edge46" class="edge"><title>Node14&#45;&gt;Node5</title>
<path fill="none" stroke="midnightblue" d="M849.398,-212.088C834.211,-215.307 817.64,-219.967 804,-228 762.604,-252.378 729.859,-300.534 714.881,-321.974"/>
<polygon fill="midnightblue" stroke="midnightblue" points="850.504,-215.438 859.637,-210.067 849.149,-208.57 850.504,-215.438"/>
</g>
<!-- Node15&#45;&gt;Node5 -->
<g id="edge50" class="edge"><title>Node15&#45;&gt;Node5</title>
<path fill="none" stroke="midnightblue" d="M843.803,-174.112C830.008,-177.261 815.654,-182 804,-190 753.499,-224.667 722.882,-294.764 711.304,-321.678"/>
<polygon fill="midnightblue" stroke="midnightblue" points="844.612,-177.519 853.702,-172.076 843.202,-170.662 844.612,-177.519"/>
</g>
<!-- Node16&#45;&gt;Node5 -->
<g id="edge54" class="edge"><title>Node16&#45;&gt;Node5</title>
<path fill="none" stroke="midnightblue" d="M839.52,-136.295C826.923,-139.453 814.23,-144.219 804,-152 743.986,-197.647 717.388,-290.561 709.059,-321.87"/>
<polygon fill="midnightblue" stroke="midnightblue" points="840.542,-139.653 849.553,-134.08 839.033,-132.818 840.542,-139.653"/>
</g>
<!-- Node17&#45;&gt;Node5 -->
<g id="edge58" class="edge"><title>Node17&#45;&gt;Node5</title>
<path fill="none" stroke="midnightblue" d="M844.178,-22.4163C829.597,-26.272 814.714,-32.346 804,-43 760.88,-85.8771 786.658,-117.124 768,-175 749.877,-231.218 724.064,-296.484 712.289,-321.806"/>
<polygon fill="midnightblue" stroke="midnightblue" points="845.233,-25.7639 854.169,-20.0724 843.634,-18.9489 845.233,-25.7639"/>
</g>
<!-- Node18&#45;&gt;Node5 -->
<g id="edge62" class="edge"><title>Node18&#45;&gt;Node5</title>
<path fill="none" stroke="midnightblue" d="M824.609,-579.514C817.155,-576.742 810.084,-572.977 804,-568 729.743,-507.254 710.449,-379.554 706.747,-342.121"/>
<polygon fill="midnightblue" stroke="midnightblue" points="823.621,-582.872 834.21,-582.51 825.707,-576.19 823.621,-582.872"/>
</g>
<!-- Node19&#45;&gt;Node20 -->
<g id="edge66" class="edge"><title>Node19&#45;&gt;Node20</title>
<path fill="none" stroke="midnightblue" d="M955.684,-89.4007C966.194,-92.5 976.212,-97.4002 984,-105 1059.85,-179.02 1097.73,-540.079 1104.05,-605.744"/>
<polygon fill="midnightblue" stroke="midnightblue" points="956.487,-85.9942 945.944,-87.0349 954.835,-92.7964 956.487,-85.9942"/>
</g>
<!-- Node23 -->
<g id="node59" class="node"><title>Node23</title>
<a xlink:href="classSocketServer.xhtml#afdbc60c3bc840875d2214b59c6213f63" target="_top" xlink:title="Accept a new connection on the listening port.">
<polygon fill="white" stroke="black" points="1045,-76 1045,-96 1165,-96 1165,-76 1045,-76"/>
<text text-anchor="middle" x="1105" y="-83" font-family="FreeSans.ttf" font-size="10.00">SocketServer::Accept</text>
</a>
</g>
<!-- Node19&#45;&gt;Node23 -->
<g id="edge72" class="edge"><title>Node19&#45;&gt;Node23</title>
<path fill="none" stroke="midnightblue" d="M955.731,-86C983.855,-86 1017.02,-86 1044.94,-86"/>
<polygon fill="midnightblue" stroke="midnightblue" points="955.616,-82.5001 945.616,-86 955.616,-89.5001 955.616,-82.5001"/>
</g>
<!-- Node21 -->
<g id="node55" class="node"><title>Node21</title>
<a xlink:href="namespaceServer.xhtml#a19a1e493e1fb50a56d9c77332543d565" target="_top" xlink:title="Start the NAMS Server. Responsible for calling all critical boot&#45;time functions such as SocketServer ...">
<polygon fill="white" stroke="black" points="1239,-644 1239,-664 1329,-664 1329,-644 1239,-644"/>
<text text-anchor="middle" x="1284" y="-651" font-family="FreeSans.ttf" font-size="10.00">Server::Startup</text>
</a>
</g>
<!-- Node20&#45;&gt;Node21 -->
<g id="edge68" class="edge"><title>Node20&#45;&gt;Node21</title>
<path fill="none" stroke="midnightblue" d="M1162.47,-628.2C1187.16,-633.441 1215.59,-639.478 1238.75,-644.394"/>
<polygon fill="midnightblue" stroke="midnightblue" points="1163.01,-624.737 1152.5,-626.084 1161.55,-631.584 1163.01,-624.737"/>
</g>
<!-- Node22 -->
<g id="node57" class="node"><title>Node22</title>
<a xlink:href="main_8cpp.xhtml#ad53223b8779f25caeddb70a3b9172967" target="_top" xlink:title="The default function required to execute the server.">
<polygon fill="white" stroke="black" points="1504.5,-227 1504.5,-247 1545.5,-247 1545.5,-227 1504.5,-227"/>
<text text-anchor="middle" x="1525" y="-234" font-family="FreeSans.ttf" font-size="10.00">main</text>
</a>
</g>
<!-- Node21&#45;&gt;Node22 -->
<g id="edge70" class="edge"><title>Node21&#45;&gt;Node22</title>
<path fill="none" stroke="midnightblue" d="M1295.2,-634.621C1337.57,-561.312 1487.24,-302.334 1519.04,-247.321"/>
<polygon fill="midnightblue" stroke="midnightblue" points="1291.93,-633.283 1289.96,-643.692 1297.99,-636.785 1291.93,-633.283"/>
</g>
<!-- Node24 -->
<g id="node61" class="node"><title>Node24</title>
<a xlink:href="namespaceServer.xhtml#a39dbe16fdc8c5f6fbd678c6540fbcd6c" target="_top" xlink:title="Poll all SocketClient objects that are communicating with the associated SocketServer object...">
<polygon fill="white" stroke="black" points="1229.5,-76 1229.5,-96 1338.5,-96 1338.5,-76 1229.5,-76"/>
<text text-anchor="middle" x="1284" y="-83" font-family="FreeSans.ttf" font-size="10.00">Server::PollSockets</text>
</a>
</g>
<!-- Node23&#45;&gt;Node24 -->
<g id="edge74" class="edge"><title>Node23&#45;&gt;Node24</title>
<path fill="none" stroke="midnightblue" d="M1175.27,-86C1193.28,-86 1212.39,-86 1229.48,-86"/>
<polygon fill="midnightblue" stroke="midnightblue" points="1175.1,-82.5001 1165.1,-86 1175.1,-89.5001 1175.1,-82.5001"/>
</g>
<!-- Node25 -->
<g id="node63" class="node"><title>Node25</title>
<a xlink:href="namespaceServer.xhtml#a50b81aa91d8fdaee6f52c5c5ec987990" target="_top" xlink:title="The core update loop of NAMS. This loop spawns all other subsystem update routines and then sleeps fo...">
<polygon fill="white" stroke="black" points="1378.5,-76 1378.5,-96 1467.5,-96 1467.5,-76 1378.5,-76"/>
<text text-anchor="middle" x="1423" y="-83" font-family="FreeSans.ttf" font-size="10.00">Server::Update</text>
</a>
</g>
<!-- Node24&#45;&gt;Node25 -->
<g id="edge76" class="edge"><title>Node24&#45;&gt;Node25</title>
<path fill="none" stroke="midnightblue" d="M1348.57,-86C1358.69,-86 1368.94,-86 1378.47,-86"/>
<polygon fill="midnightblue" stroke="midnightblue" points="1348.54,-82.5001 1338.54,-86 1348.54,-89.5001 1348.54,-82.5001"/>
</g>
<!-- Node25&#45;&gt;Node22 -->
<g id="edge78" class="edge"><title>Node25&#45;&gt;Node22</title>
<path fill="none" stroke="midnightblue" d="M1435.79,-104.938C1457.64,-137.276 1501.4,-202.062 1518.21,-226.946"/>
<polygon fill="midnightblue" stroke="midnightblue" points="1438.51,-102.706 1430.01,-96.3788 1432.71,-106.625 1438.51,-102.706"/>
</g>
<!-- Node27 -->
<g id="node68" class="node"><title>Node27</title>
<a xlink:href="namespaceServer.xhtml#a2b4cec469bb99c2a45e49de5ba74d1ae" target="_top" xlink:title="Processes input from all active SocketClient objects.">
<polygon fill="white" stroke="black" points="1226,-38 1226,-58 1342,-58 1342,-38 1226,-38"/>
<text text-anchor="middle" x="1284" y="-45" font-family="FreeSans.ttf" font-size="10.00">Server::ProcessInput</text>
</a>
</g>
<!-- Node26&#45;&gt;Node27 -->
<g id="edge82" class="edge"><title>Node26&#45;&gt;Node27</title>
<path fill="none" stroke="midnightblue" d="M1200.25,-48C1208.93,-48 1217.54,-48 1225.75,-48"/>
<polygon fill="midnightblue" stroke="midnightblue" points="1200.04,-44.5001 1190.04,-48 1200.04,-51.5001 1200.04,-44.5001"/>
</g>
<!-- Node27&#45;&gt;Node25 -->
<g id="edge84" class="edge"><title>Node27&#45;&gt;Node25</title>
<path fill="none" stroke="midnightblue" d="M1330.62,-60.7447C1348.63,-65.6694 1368.96,-71.2251 1385.94,-75.8693"/>
<polygon fill="midnightblue" stroke="midnightblue" points="1331.45,-57.3445 1320.88,-58.0835 1329.61,-64.0968 1331.45,-57.3445"/>
</g>
<!-- Node28&#45;&gt;Node21 -->
<g id="edge90" class="edge"><title>Node28&#45;&gt;Node21</title>
<path fill="none" stroke="midnightblue" d="M767.767,-654C884.782,-654 1136.24,-654 1238.92,-654"/>
<polygon fill="midnightblue" stroke="midnightblue" points="767.548,-650.5 757.548,-654 767.548,-657.5 767.548,-650.5"/>
</g>
<!-- Node30 -->
<g id="node78" class="node"><title>Node30</title>
<a xlink:href="classLocation.xhtml#a6396aba5eab9bcbabb000c3f6478e1a2" target="_top" xlink:title="Create a new location.">
<polygon fill="white" stroke="black" points="481.5,-720 481.5,-740 564.5,-740 564.5,-720 481.5,-720"/>
<text text-anchor="middle" x="523" y="-727" font-family="FreeSans.ttf" font-size="10.00">Location::New</text>
</a>
</g>
<!-- Node29&#45;&gt;Node30 -->
<g id="edge96" class="edge"><title>Node29&#45;&gt;Node30</title>
<path fill="none" stroke="midnightblue" d="M412.281,-730C435.527,-730 460.8,-730 481.323,-730"/>
<polygon fill="midnightblue" stroke="midnightblue" points="412.116,-726.5 402.116,-730 412.116,-733.5 412.116,-726.5"/>
</g>
<!-- Node31 -->
<g id="node80" class="node"><title>Node31</title>
<a xlink:href="namespaceServer.xhtml#a9b8efad79a32f2356d431788449e1f82" target="_top" xlink:title="Search all subfolders of CFG_DAT_DIR_WORLD and call Location::New() to load each file found to memory...">
<polygon fill="white" stroke="black" points="644.5,-720 644.5,-740 767.5,-740 767.5,-720 644.5,-720"/>
<text text-anchor="middle" x="706" y="-727" font-family="FreeSans.ttf" font-size="10.00">Server::LoadLocations</text>
</a>
</g>
<!-- Node30&#45;&gt;Node31 -->
<g id="edge98" class="edge"><title>Node30&#45;&gt;Node31</title>
<path fill="none" stroke="midnightblue" d="M574.548,-730C596.29,-730 621.776,-730 644.491,-730"/>
<polygon fill="midnightblue" stroke="midnightblue" points="574.526,-726.5 564.526,-730 574.525,-733.5 574.526,-726.5"/>
</g>
<!-- Node31&#45;&gt;Node21 -->
<g id="edge100" class="edge"><title>Node31&#45;&gt;Node21</title>
<path fill="none" stroke="midnightblue" d="M777.977,-736.41C873.983,-742.727 1048.3,-746.35 1190,-706 1221.03,-697.164 1253.05,-676.523 1270.55,-664.067"/>
<polygon fill="midnightblue" stroke="midnightblue" points="778.016,-732.904 767.8,-735.711 777.536,-739.888 778.016,-732.904"/>
</g>
<!-- Node33 -->
<g id="node85" class="node"><title>Node33</title>
<a xlink:href="classObject.xhtml#abbf694ca0643b6bd1e0b5fbc8d6ade24" target="_top" xlink:title="Create a new object.">
<polygon fill="white" stroke="black" points="307,-682 307,-702 381,-702 381,-682 307,-682"/>
<text text-anchor="middle" x="344" y="-689" font-family="FreeSans.ttf" font-size="10.00">Object::New</text>
</a>
</g>
<!-- Node32&#45;&gt;Node33 -->
<g id="edge104" class="edge"><title>Node32&#45;&gt;Node33</title>
<path fill="none" stroke="midnightblue" d="M252.444,-692C270.881,-692 290.417,-692 306.686,-692"/>
<polygon fill="midnightblue" stroke="midnightblue" points="252.342,-688.5 242.342,-692 252.342,-695.5 252.342,-688.5"/>
</g>
<!-- Node34 -->
<g id="node87" class="node"><title>Node34</title>
<a xlink:href="namespaceServer.xhtml#a0a8c7c124f8cc8e5e6a9c7b067be5ff5" target="_top" xlink:title="Search all subfolders of CFG_DAT_DIR_WORLD and call Object::New() to load each file found to memory...">
<polygon fill="white" stroke="black" points="466.5,-682 466.5,-702 579.5,-702 579.5,-682 466.5,-682"/>
<text text-anchor="middle" x="523" y="-689" font-family="FreeSans.ttf" font-size="10.00">Server::LoadObjects</text>
</a>
</g>
<!-- Node33&#45;&gt;Node34 -->
<g id="edge106" class="edge"><title>Node33&#45;&gt;Node34</title>
<path fill="none" stroke="midnightblue" d="M391.281,-692C414.27,-692 442.079,-692 466.21,-692"/>
<polygon fill="midnightblue" stroke="midnightblue" points="391.089,-688.5 381.089,-692 391.089,-695.5 391.089,-688.5"/>
</g>
<!-- Node34&#45;&gt;Node21 -->
<g id="edge108" class="edge"><title>Node34&#45;&gt;Node21</title>
<path fill="none" stroke="midnightblue" d="M589.958,-692.064C710.316,-691.629 971.092,-688.176 1190,-668 1205.94,-666.531 1223.29,-664.165 1238.7,-661.793"/>
<polygon fill="midnightblue" stroke="midnightblue" points="589.786,-688.564 579.796,-692.095 589.807,-695.564 589.786,-688.564"/>
</g>
</g>
</svg>
        <g id="navigator" transform="translate(0 0)" fill="#404254">
                <rect fill="#f2f5e9" fill-opacity="0.5" stroke="#606060" stroke-width=".5" x="0" y="0" width="60" height="60"/>
                <use id="zoomplus" xlink:href="#zoomPlus" x="17" y="9" onmousedown="handleZoom(evt,'in')"/>
                <use id="zoomminus" xlink:href="#zoomMin" x="42" y="9" onmousedown="handleZoom(evt,'out')"/>
                <use id="reset" xlink:href="#resetDef" x="30" y="36" onmousedown="handleReset()"/>
                <g id="arrowUp" xlink:href="#dirArrow" transform="translate(30 24)" onmousedown="handlePan(0,-1)">
                  <use xlink:href="#rim" fill="#404040">
                        <set attributeName="fill" to="#808080" begin="arrowUp.mouseover" end="arrowUp.mouseout"/>
                  </use>
                  <path fill="none" stroke="white" stroke-width="1.5" d="M0,-3.0v7 M-2.5,-0.5L0,-3.0L2.5,-0.5"/>
                </g>
                <g id="arrowRight" xlink:href="#dirArrow" transform="rotate(90) translate(36 -43)" onmousedown="handlePan(1,0)">
                  <use xlink:href="#rim" fill="#404040">
                        <set attributeName="fill" to="#808080" begin="arrowRight.mouseover" end="arrowRight.mouseout"/>
                  </use>
                  <path fill="none" stroke="white" stroke-width="1.5" d="M0,-3.0v7 M-2.5,-0.5L0,-3.0L2.5,-0.5"/>
                </g>
                <g id="arrowDown" xlink:href="#dirArrow" transform="rotate(180) translate(-30 -48)" onmousedown="handlePan(0,1)">
                  <use xlink:href="#rim" fill="#404040">
                        <set attributeName="fill" to="#808080" begin="arrowDown.mouseover" end="arrowDown.mouseout"/>
                  </use>
                  <path fill="none" stroke="white" stroke-width="1.5" d="M0,-3.0v7 M-2.5,-0.5L0,-3.0L2.5,-0.5"/>
                </g>
                <g id="arrowLeft" xlink:href="#dirArrow" transform="rotate(270) translate(-36 17)" onmousedown="handlePan(-1,0)">
                  <use xlink:href="#rim" fill="#404040">
                        <set attributeName="fill" to="#808080" begin="arrowLeft.mouseover" end="arrowLeft.mouseout"/>
                  </use>
                  <path fill="none" stroke="white" stroke-width="1.5" d="M0,-3.0v7 M-2.5,-0.5L0,-3.0L2.5,-0.5"/>
                </g>
        </g>
        <svg viewBox="0 0 15 15" width="100%" height="30px" preserveAspectRatio="xMaxYMin meet">
         <g id="arrow_out" transform="scale(0.3 0.3)">
          <a xlink:href="namespaceUtils_aae00a79736ae72b75138cc6576462a2a_icgraph_org.svg" target="_base">
           <rect id="button" ry="5" rx="5" y="6" x="6" height="38" width="38"
                fill="#f2f5e9" fill-opacity="0.5" stroke="#606060" stroke-width="1.0"/>
           <path id="arrow"
             d="M 11.500037,31.436501 C 11.940474,20.09759 22.043105,11.32322 32.158766,21.979434 L 37.068811,17.246167 C 37.068811,17.246167 37.088388,32 37.088388,32 L 22.160133,31.978069 C 22.160133,31.978069 26.997745,27.140456 26.997745,27.140456 C 18.528582,18.264221 13.291696,25.230495 11.500037,31.436501 z"
             style="fill:#404040;"/>
          </a>
         </g>
        </svg>
</svg>
