<?xml version="1.0" encoding="UTF-8" standalone="no"?>
<!DOCTYPE svg PUBLIC "-//W3C//DTD SVG 1.1//EN"
 "http://www.w3.org/Graphics/SVG/1.1/DTD/svg11.dtd">
<!-- Generated by graphviz version 2.26.3 (20100126.1600)
 -->
<!-- Title: G Pages: 1 -->
<!--zoomable 268 -->
<svg id="main" version="1.1" xmlns="http://www.w3.org/2000/svg" xmlns:xlink="http://www.w3.org/1999/xlink" xml:space="preserve" onload="init(evt)">
        <defs>
                <circle id="rim" cx="0" cy="0" r="7"/>
                <circle id="rim2" cx="0" cy="0" r="3.5"/>
                <g id="zoomPlus">
                        <use xlink:href="#rim" fill="#404040">
                                <set attributeName="fill" to="#808080" begin="zoomplus.mouseover" end="zoomplus.mouseout"/>
                        </use>
                        <path d="M-4,0h8M0,-4v8" fill="none" stroke="white" stroke-width="1.5" pointer-events="none"/>
                </g>
                <g id="zoomMin">
                        <use xlink:href="#rim" fill="#404040">
                                <set attributeName="fill" to="#808080" begin="zoomminus.mouseover" end="zoomminus.mouseout"/>
                        </use>
                        <path d="M-4,0h8" fill="none" stroke="white" stroke-width="1.5" pointer-events="none"/>
                </g>
                <g id="dirArrow">
                        <path fill="none" stroke="white" stroke-width="1.5" d="M0,-3.0v7 M-2.5,-0.5L0,-3.0L2.5,-0.5"/>
                </g>
               <g id="resetDef">
                       <use xlink:href="#rim2" fill="#404040">
                               <set attributeName="fill" to="#808080" begin="reset.mouseover" end="reset.mouseout"/>
                       </use>
               </g>
        </defs>

<script type="text/javascript">
var viewWidth = 1782;
var viewHeight = 268;
var sectionId = 'dynsection-13';
</script>
<script xlink:href="svgpan.js"/>
<svg id="graph" class="graph">
<g id="viewport">
<title>G</title>
<polygon fill="white" stroke="white" points="-4,5 -4,-264 1779,-264 1779,5 -4,5"/>
<!-- Node1 -->
<g id="node1" class="node"><title>Node1</title>
<polygon fill="#bfbfbf" stroke="black" points="0,-58.5 0,-79.5 84,-79.5 84,-58.5 0,-58.5"/>
<text text-anchor="middle" x="42" y="-66.5" font-family="FreeSans.ttf" font-size="10.00">Utils::FileOpen</text>
</g>
<!-- Node2 -->
<g id="node3" class="node"><title>Node2</title>
<a xlink:href="classAccount.xhtml#a87dfcb1fd6c275ea89ec6f279e7ee8ff" target="_top" xlink:title="Serialize the account data and write them to CFG_DAT_FILE_SETTINGS.">
<polygon fill="white" stroke="black" points="135,-117.5 135,-138.5 237,-138.5 237,-117.5 135,-117.5"/>
<text text-anchor="middle" x="186" y="-125.5" font-family="FreeSans.ttf" font-size="10.00">Account::Serialize</text>
</a>
</g>
<!-- Node1&#45;&gt;Node2 -->
<g id="edge2" class="edge"><title>Node1&#45;&gt;Node2</title>
<path fill="none" stroke="midnightblue" d="M74.6056,-83.6368C88.5258,-89.7752 104.992,-96.891 120,-103 132.143,-107.943 145.665,-113.121 157.292,-117.475"/>
<polygon fill="midnightblue" stroke="midnightblue" points="75.9851,-80.4199 65.4246,-79.5677 73.1487,-86.8195 75.9851,-80.4199"/>
</g>
<!-- Node18 -->
<g id="node41" class="node"><title>Node18</title>
<a xlink:href="classAccount.xhtml#ae236325fef7b2269f54e9567577e0b92" target="_top" xlink:title="Unserialize the account data from CFG_DAT_FILE_SETTINGS.">
<polygon fill="white" stroke="black" points="303,-78.5 303,-99.5 417,-99.5 417,-78.5 303,-78.5"/>
<text text-anchor="middle" x="360" y="-86.5" font-family="FreeSans.ttf" font-size="10.00">Account::Unserialize</text>
</a>
</g>
<!-- Node1&#45;&gt;Node18 -->
<g id="edge50" class="edge"><title>Node1&#45;&gt;Node18</title>
<path fill="none" stroke="midnightblue" d="M94.5329,-72.304C151.94,-75.9145 243.605,-81.6795 302.794,-85.4022"/>
<polygon fill="midnightblue" stroke="midnightblue" points="94.4279,-68.7905 84.2279,-71.6558 93.9885,-75.7767 94.4279,-68.7905"/>
</g>
<!-- Node19 -->
<g id="node45" class="node"><title>Node19</title>
<a xlink:href="classServer_1_1Config.xhtml#a2b99a2a519c260a79d53c489781321fc" target="_top" xlink:title="Serialize runtime configuration settings and write them to CFG_DAT_FILE_SETTINGS.">
<polygon fill="white" stroke="black" points="120.5,-39.5 120.5,-60.5 251.5,-60.5 251.5,-39.5 120.5,-39.5"/>
<text text-anchor="middle" x="186" y="-47.5" font-family="FreeSans.ttf" font-size="10.00">Server::Config::Serialize</text>
</a>
</g>
<!-- Node1&#45;&gt;Node19 -->
<g id="edge52" class="edge"><title>Node1&#45;&gt;Node19</title>
<path fill="none" stroke="midnightblue" d="M94.1694,-62.1165C102.667,-60.9953 111.564,-59.8214 120.335,-58.6642"/>
<polygon fill="midnightblue" stroke="midnightblue" points="93.4941,-58.6752 84.0379,-63.4533 94.4098,-65.6151 93.4941,-58.6752"/>
</g>
<!-- Node23 -->
<g id="node57" class="node"><title>Node23</title>
<a xlink:href="classServer_1_1Config.xhtml#a54dba418bfd3365ccfb30bda37ccd461" target="_top" xlink:title="Unserialize runtime configuration settings from CFG_DAT_FILE_SETTINGS.">
<polygon fill="white" stroke="black" points="288.5,-0.5 288.5,-21.5 431.5,-21.5 431.5,-0.5 288.5,-0.5"/>
<text text-anchor="middle" x="360" y="-8.5" font-family="FreeSans.ttf" font-size="10.00">Server::Config::Unserialize</text>
</a>
</g>
<!-- Node1&#45;&gt;Node23 -->
<g id="edge68" class="edge"><title>Node1&#45;&gt;Node23</title>
<path fill="none" stroke="midnightblue" d="M67.5809,-53.0635C82.339,-44.6899 101.574,-35.126 120,-30 175.167,-14.6533 240.022,-10.291 288.397,-9.5514"/>
<polygon fill="midnightblue" stroke="midnightblue" points="65.4413,-50.2605 58.5826,-58.3357 68.9801,-56.3002 65.4413,-50.2605"/>
</g>
<!-- Node3 -->
<g id="node5" class="node"><title>Node3</title>
<a xlink:href="classAccount.xhtml#adc4545f17264112e532b5a48abe94baf" target="_top" xlink:title="Create a new account.">
<polygon fill="white" stroke="black" points="468,-117.5 468,-138.5 550,-138.5 550,-117.5 468,-117.5"/>
<text text-anchor="middle" x="509" y="-125.5" font-family="FreeSans.ttf" font-size="10.00">Account::New</text>
</a>
</g>
<!-- Node2&#45;&gt;Node3 -->
<g id="edge4" class="edge"><title>Node2&#45;&gt;Node3</title>
<path fill="none" stroke="midnightblue" d="M247.238,-128C311.877,-128 411.972,-128 467.796,-128"/>
<polygon fill="midnightblue" stroke="midnightblue" points="247.18,-124.5 237.18,-128 247.18,-131.5 247.18,-124.5"/>
</g>
<!-- Node2&#45;&gt;Node18 -->
<g id="edge46" class="edge"><title>Node2&#45;&gt;Node18</title>
<path fill="none" stroke="midnightblue" d="M242.913,-115.244C265.557,-110.168 291.303,-104.398 312.875,-99.5624"/>
<polygon fill="midnightblue" stroke="midnightblue" points="242.079,-111.844 233.087,-117.446 243.61,-118.674 242.079,-111.844"/>
</g>
<!-- Node4 -->
<g id="node7" class="node"><title>Node4</title>
<a xlink:href="namespaceHandler.xhtml#a33a19d69ead678af81fbe96907eceaf0" target="_top" xlink:title="Create a new account object, or load an existing one, with a name and password.">
<polygon fill="white" stroke="black" points="586.5,-138.5 586.5,-159.5 717.5,-159.5 717.5,-138.5 586.5,-138.5"/>
<text text-anchor="middle" x="652" y="-146.5" font-family="FreeSans.ttf" font-size="10.00">Handler::AttachAccount</text>
</a>
</g>
<!-- Node3&#45;&gt;Node4 -->
<g id="edge6" class="edge"><title>Node3&#45;&gt;Node4</title>
<path fill="none" stroke="midnightblue" d="M560.434,-135.553C568.886,-136.795 577.746,-138.096 586.485,-139.379"/>
<polygon fill="midnightblue" stroke="midnightblue" points="560.764,-132.064 550.362,-134.074 559.747,-138.99 560.764,-132.064"/>
</g>
<!-- Node5 -->
<g id="node9" class="node"><title>Node5</title>
<a xlink:href="namespaceHandler.xhtml#af650e47f3d4baf393b54376d1eaa1fa9" target="_top" xlink:title="Handle SocketClient objects who have not fully logged into the game yet.">
<polygon fill="white" stroke="black" points="754.5,-138.5 754.5,-159.5 877.5,-159.5 877.5,-138.5 754.5,-138.5"/>
<text text-anchor="middle" x="816" y="-146.5" font-family="FreeSans.ttf" font-size="10.00">Handler::ProcessLogin</text>
</a>
</g>
<!-- Node4&#45;&gt;Node5 -->
<g id="edge8" class="edge"><title>Node4&#45;&gt;Node5</title>
<path fill="none" stroke="midnightblue" d="M727.79,-142.267C736.73,-142.218 745.77,-142.275 754.48,-142.441"/>
<polygon fill="midnightblue" stroke="midnightblue" points="727.724,-138.768 717.76,-142.369 727.795,-145.767 727.724,-138.768"/>
</g>
<!-- Node5&#45;&gt;Node4 -->
<g id="edge28" class="edge"><title>Node5&#45;&gt;Node4</title>
<path fill="none" stroke="midnightblue" d="M744.242,-155.703C735.436,-155.784 726.471,-155.76 717.76,-155.631"/>
<polygon fill="midnightblue" stroke="midnightblue" points="744.531,-159.199 754.48,-155.559 744.432,-152.2 744.531,-159.199"/>
</g>
<!-- Node6 -->
<g id="node11" class="node"><title>Node6</title>
<a xlink:href="namespaceHandler.xhtml#a142c6f0b9e36e54eba3d72f9db2dfe40" target="_top" xlink:title="Redirect to the appropriate subsystem based on socket state.">
<polygon fill="white" stroke="black" points="934.5,-238.5 934.5,-259.5 1035.5,-259.5 1035.5,-238.5 934.5,-238.5"/>
<text text-anchor="middle" x="985" y="-246.5" font-family="FreeSans.ttf" font-size="10.00">Handler::Interpret</text>
</a>
</g>
<!-- Node5&#45;&gt;Node6 -->
<g id="edge10" class="edge"><title>Node5&#45;&gt;Node6</title>
<path fill="none" stroke="midnightblue" d="M833.211,-166.839C851.622,-184.95 882.458,-212.595 914,-229 921.158,-232.723 929.092,-235.824 936.988,-238.385"/>
<polygon fill="midnightblue" stroke="midnightblue" points="835.654,-164.332 826.115,-159.721 830.696,-169.274 835.654,-164.332"/>
</g>
<!-- Node14 -->
<g id="node29" class="node"><title>Node14</title>
<a xlink:href="namespaceHandler.xhtml#a00bc24564bfd267e0329643c569da1e4" target="_top" xlink:title="Select a new account name.">
<polygon fill="white" stroke="black" points="916.5,-198.5 916.5,-219.5 1053.5,-219.5 1053.5,-198.5 916.5,-198.5"/>
<text text-anchor="middle" x="985" y="-206.5" font-family="FreeSans.ttf" font-size="10.00">Handler::GetNewAccount</text>
</a>
</g>
<!-- Node5&#45;&gt;Node14 -->
<g id="edge30" class="edge"><title>Node5&#45;&gt;Node14</title>
<path fill="none" stroke="midnightblue" d="M869.245,-163.331C883.647,-168.879 899.315,-174.953 914,-180 933.135,-186.577 955.696,-192.654 970.164,-198.458"/>
<polygon fill="midnightblue" stroke="midnightblue" points="870.095,-159.908 859.504,-159.593 867.586,-166.443 870.095,-159.908"/>
</g>
<!-- Node15 -->
<g id="node32" class="node"><title>Node15</title>
<a xlink:href="namespaceHandler.xhtml#a744adadcf407cdb3a9c33365afd5a7c2" target="_top" xlink:title="Create a new account.">
<polygon fill="white" stroke="black" points="914,-158.5 914,-179.5 1056,-179.5 1056,-158.5 914,-158.5"/>
<text text-anchor="middle" x="985" y="-166.5" font-family="FreeSans.ttf" font-size="10.00">Handler::GetNewPassword</text>
</a>
</g>
<!-- Node5&#45;&gt;Node15 -->
<g id="edge34" class="edge"><title>Node5&#45;&gt;Node15</title>
<path fill="none" stroke="midnightblue" d="M888.125,-150.85C907.747,-152.966 928.28,-155.684 945.365,-158.489"/>
<polygon fill="midnightblue" stroke="midnightblue" points="888.276,-147.347 877.97,-149.802 887.557,-154.31 888.276,-147.347"/>
</g>
<!-- Node16 -->
<g id="node35" class="node"><title>Node16</title>
<a xlink:href="namespaceHandler.xhtml#adfe13cc9748392348f3941656a1323b6" target="_top" xlink:title="Compare a received password against an existing account.">
<polygon fill="white" stroke="black" points="916.5,-118.5 916.5,-139.5 1053.5,-139.5 1053.5,-118.5 916.5,-118.5"/>
<text text-anchor="middle" x="985" y="-126.5" font-family="FreeSans.ttf" font-size="10.00">Handler::GetOldPassword</text>
</a>
</g>
<!-- Node5&#45;&gt;Node16 -->
<g id="edge38" class="edge"><title>Node5&#45;&gt;Node16</title>
<path fill="none" stroke="midnightblue" d="M865.695,-136.906C881.499,-134.52 899.272,-132.272 916.177,-130.499"/>
<polygon fill="midnightblue" stroke="midnightblue" points="864.958,-133.479 855.623,-138.49 866.045,-140.394 864.958,-133.479"/>
</g>
<!-- Node17 -->
<g id="node38" class="node"><title>Node17</title>
<a xlink:href="namespaceHandler.xhtml#a44b41bf69fdc6e615a029bea34910191" target="_top" xlink:title="Send initial greeting and request for account name.">
<polygon fill="white" stroke="black" points="925.5,-78.5 925.5,-99.5 1044.5,-99.5 1044.5,-78.5 925.5,-78.5"/>
<text text-anchor="middle" x="985" y="-86.5" font-family="FreeSans.ttf" font-size="10.00">Handler::LoginScreen</text>
</a>
</g>
<!-- Node5&#45;&gt;Node17 -->
<g id="edge42" class="edge"><title>Node5&#45;&gt;Node17</title>
<path fill="none" stroke="midnightblue" d="M835.652,-133.367C855.262,-122.625 886.371,-109.496 914,-100 917.633,-98.7513 921.39,-97.5205 925.191,-96.3353"/>
<polygon fill="midnightblue" stroke="midnightblue" points="833.876,-130.351 827.014,-138.423 837.412,-136.392 833.876,-130.351"/>
</g>
<!-- Node7 -->
<g id="node13" class="node"><title>Node7</title>
<a xlink:href="classSocketClient.xhtml#a553658a2c076ea71ddcd1758fc64a925" target="_top" xlink:title="Build a SocketClient for a new client connection and set all attributes.">
<polygon fill="white" stroke="black" points="1125.5,-237.5 1125.5,-258.5 1228.5,-258.5 1228.5,-237.5 1125.5,-237.5"/>
<text text-anchor="middle" x="1177" y="-245.5" font-family="FreeSans.ttf" font-size="10.00">SocketClient::New</text>
</a>
</g>
<!-- Node6&#45;&gt;Node7 -->
<g id="edge12" class="edge"><title>Node6&#45;&gt;Node7</title>
<path fill="none" stroke="midnightblue" d="M1046.01,-248.682C1071.55,-248.549 1100.91,-248.396 1125.35,-248.269"/>
<polygon fill="midnightblue" stroke="midnightblue" points="1045.68,-245.184 1035.7,-248.736 1045.72,-252.184 1045.68,-245.184"/>
</g>
<!-- Node12 -->
<g id="node23" class="node"><title>Node12</title>
<a xlink:href="classSocketClient.xhtml#ad4f63c7d906310dc56a1217136047d7f" target="_top" xlink:title="Interpret the command at the front of the queue.">
<polygon fill="white" stroke="black" points="1092,-196.5 1092,-217.5 1262,-217.5 1262,-196.5 1092,-196.5"/>
<text text-anchor="middle" x="1177" y="-204.5" font-family="FreeSans.ttf" font-size="10.00">SocketClient::ProcessCommand</text>
</a>
</g>
<!-- Node6&#45;&gt;Node12 -->
<g id="edge22" class="edge"><title>Node6&#45;&gt;Node12</title>
<path fill="none" stroke="midnightblue" d="M1043.3,-236.247C1070.68,-230.257 1102.93,-223.202 1128.9,-217.522"/>
<polygon fill="midnightblue" stroke="midnightblue" points="1042.47,-232.845 1033.45,-238.402 1043.97,-239.684 1042.47,-232.845"/>
</g>
<!-- Node8 -->
<g id="node15" class="node"><title>Node8</title>
<a xlink:href="classSocketServer.xhtml#afdbc60c3bc840875d2214b59c6213f63" target="_top" xlink:title="Accept a new connection on the listening port.">
<polygon fill="white" stroke="black" points="1298,-235.5 1298,-256.5 1418,-256.5 1418,-235.5 1298,-235.5"/>
<text text-anchor="middle" x="1358" y="-243.5" font-family="FreeSans.ttf" font-size="10.00">SocketServer::Accept</text>
</a>
</g>
<!-- Node7&#45;&gt;Node8 -->
<g id="edge14" class="edge"><title>Node7&#45;&gt;Node8</title>
<path fill="none" stroke="midnightblue" d="M1238.93,-247.316C1257.97,-247.105 1278.89,-246.874 1297.82,-246.665"/>
<polygon fill="midnightblue" stroke="midnightblue" points="1238.83,-243.817 1228.87,-247.427 1238.91,-250.816 1238.83,-243.817"/>
</g>
<!-- Node9 -->
<g id="node17" class="node"><title>Node9</title>
<a xlink:href="classServer.xhtml#a39dbe16fdc8c5f6fbd678c6540fbcd6c" target="_top" xlink:title="Poll all SocketClient objects that are communicating with the associated SocketServer object...">
<polygon fill="white" stroke="black" points="1457.5,-235.5 1457.5,-256.5 1566.5,-256.5 1566.5,-235.5 1457.5,-235.5"/>
<text text-anchor="middle" x="1512" y="-243.5" font-family="FreeSans.ttf" font-size="10.00">Server::PollSockets</text>
</a>
</g>
<!-- Node8&#45;&gt;Node9 -->
<g id="edge16" class="edge"><title>Node8&#45;&gt;Node9</title>
<path fill="none" stroke="midnightblue" d="M1428.43,-246C1438.11,-246 1447.93,-246 1457.26,-246"/>
<polygon fill="midnightblue" stroke="midnightblue" points="1428.42,-242.5 1418.42,-246 1428.42,-249.5 1428.42,-242.5"/>
</g>
<!-- Node10 -->
<g id="node19" class="node"><title>Node10</title>
<a xlink:href="classServer.xhtml#a50b81aa91d8fdaee6f52c5c5ec987990" target="_top" xlink:title="The core update loop of NAMS. This loop spawns all other subsystem update routines and then sleeps fo...">
<polygon fill="white" stroke="black" points="1606.5,-156.5 1606.5,-177.5 1695.5,-177.5 1695.5,-156.5 1606.5,-156.5"/>
<text text-anchor="middle" x="1651" y="-164.5" font-family="FreeSans.ttf" font-size="10.00">Server::Update</text>
</a>
</g>
<!-- Node9&#45;&gt;Node10 -->
<g id="edge18" class="edge"><title>Node9&#45;&gt;Node10</title>
<path fill="none" stroke="midnightblue" d="M1557.45,-231.801C1561.77,-230.016 1566.01,-228.079 1570,-226 1596.38,-212.241 1623.66,-190.539 1638.86,-177.643"/>
<polygon fill="midnightblue" stroke="midnightblue" points="1556.04,-228.595 1547.97,-235.464 1558.56,-235.124 1556.04,-228.595"/>
</g>
<!-- Node11 -->
<g id="node21" class="node"><title>Node11</title>
<a xlink:href="main_8cpp.xhtml#ad53223b8779f25caeddb70a3b9172967" target="_top" xlink:title="The default function required to execute the server.">
<polygon fill="white" stroke="black" points="1732.5,-117.5 1732.5,-138.5 1773.5,-138.5 1773.5,-117.5 1732.5,-117.5"/>
<text text-anchor="middle" x="1753" y="-125.5" font-family="FreeSans.ttf" font-size="10.00">main</text>
</a>
</g>
<!-- Node10&#45;&gt;Node11 -->
<g id="edge20" class="edge"><title>Node10&#45;&gt;Node11</title>
<path fill="none" stroke="midnightblue" d="M1688.13,-152.803C1703.1,-147.08 1719.79,-140.697 1732.5,-135.839"/>
<polygon fill="midnightblue" stroke="midnightblue" points="1686.69,-149.605 1678.6,-156.446 1689.19,-156.144 1686.69,-149.605"/>
</g>
<!-- Node13 -->
<g id="node25" class="node"><title>Node13</title>
<a xlink:href="classServer.xhtml#a2b4cec469bb99c2a45e49de5ba74d1ae" target="_top" xlink:title="Processes input from all active SocketClient objects.">
<polygon fill="white" stroke="black" points="1454,-195.5 1454,-216.5 1570,-216.5 1570,-195.5 1454,-195.5"/>
<text text-anchor="middle" x="1512" y="-203.5" font-family="FreeSans.ttf" font-size="10.00">Server::ProcessInput</text>
</a>
</g>
<!-- Node12&#45;&gt;Node13 -->
<g id="edge24" class="edge"><title>Node12&#45;&gt;Node13</title>
<path fill="none" stroke="midnightblue" d="M1272.4,-206.715C1330.93,-206.541 1403.96,-206.323 1453.91,-206.173"/>
<polygon fill="midnightblue" stroke="midnightblue" points="1272.39,-203.215 1262.4,-206.745 1272.41,-210.215 1272.39,-203.215"/>
</g>
<!-- Node13&#45;&gt;Node10 -->
<g id="edge26" class="edge"><title>Node13&#45;&gt;Node10</title>
<path fill="none" stroke="midnightblue" d="M1559.67,-192.626C1577.21,-187.704 1596.82,-182.202 1613.35,-177.562"/>
<polygon fill="midnightblue" stroke="midnightblue" points="1558.3,-189.375 1549.62,-195.446 1560.19,-196.114 1558.3,-189.375"/>
</g>
<!-- Node14&#45;&gt;Node5 -->
<g id="edge32" class="edge"><title>Node14&#45;&gt;Node5</title>
<path fill="none" stroke="midnightblue" d="M906.486,-195.326C875.104,-183.996 843.303,-169.912 827.014,-159.577"/>
<polygon fill="midnightblue" stroke="midnightblue" points="905.599,-198.725 916.194,-198.747 907.926,-192.122 905.599,-198.725"/>
</g>
<!-- Node15&#45;&gt;Node5 -->
<g id="edge36" class="edge"><title>Node15&#45;&gt;Node5</title>
<path fill="none" stroke="midnightblue" d="M903.497,-166.101C886.828,-164.17 870.004,-161.871 855.623,-159.51"/>
<polygon fill="midnightblue" stroke="midnightblue" points="903.506,-169.623 913.832,-167.253 904.281,-162.667 903.506,-169.623"/>
</g>
<!-- Node16&#45;&gt;Node5 -->
<g id="edge40" class="edge"><title>Node16&#45;&gt;Node5</title>
<path fill="none" stroke="midnightblue" d="M935.389,-141.081C917.411,-143.797 896.879,-146.335 877.97,-148.198"/>
<polygon fill="midnightblue" stroke="midnightblue" points="936.031,-144.523 945.365,-139.511 934.943,-137.609 936.031,-144.523"/>
</g>
<!-- Node17&#45;&gt;Node5 -->
<g id="edge44" class="edge"><title>Node17&#45;&gt;Node5</title>
<path fill="none" stroke="midnightblue" d="M960.442,-103.114C946.672,-107.836 929.248,-112.759 914,-118 895.926,-124.212 876.363,-131.978 859.504,-138.407"/>
<polygon fill="midnightblue" stroke="midnightblue" points="961.986,-106.276 970.164,-99.5415 959.571,-99.7059 961.986,-106.276"/>
</g>
<!-- Node18&#45;&gt;Node3 -->
<g id="edge48" class="edge"><title>Node18&#45;&gt;Node3</title>
<path fill="none" stroke="midnightblue" d="M410.044,-102.099C429.113,-107.09 450.588,-112.711 468.646,-117.438"/>
<polygon fill="midnightblue" stroke="midnightblue" points="410.882,-98.7002 400.322,-99.554 409.109,-105.472 410.882,-98.7002"/>
</g>
<!-- Node20 -->
<g id="node47" class="node"><title>Node20</title>
<a xlink:href="classServer.xhtml#a9b7082bbc9faca6eb84180f856116762" target="_top" xlink:title="Perform a clean shutdown of the NAMS Server providing a chance to complete disk writes and free all m...">
<polygon fill="white" stroke="black" points="1307.5,-79.5 1307.5,-100.5 1408.5,-100.5 1408.5,-79.5 1307.5,-79.5"/>
<text text-anchor="middle" x="1358" y="-87.5" font-family="FreeSans.ttf" font-size="10.00">Server::Shutdown</text>
</a>
</g>
<!-- Node19&#45;&gt;Node20 -->
<g id="edge54" class="edge"><title>Node19&#45;&gt;Node20</title>
<path fill="none" stroke="midnightblue" d="M261.801,-50C327.259,-50 424.366,-50 509,-50 509,-50 509,-50 985,-50 1100.77,-50 1235.59,-69.2841 1307.2,-81.073"/>
<polygon fill="midnightblue" stroke="midnightblue" points="261.574,-46.5001 251.574,-50 261.574,-53.5001 261.574,-46.5001"/>
</g>
<!-- Node20&#45;&gt;Node10 -->
<g id="edge62" class="edge"><title>Node20&#45;&gt;Node10</title>
<path fill="none" stroke="midnightblue" d="M1381.65,-106.045C1400.43,-117.966 1427.79,-133.567 1454,-142 1504.54,-158.263 1565.56,-164.007 1606.17,-166.002"/>
<polygon fill="midnightblue" stroke="midnightblue" points="1383.45,-103.045 1373.16,-100.535 1379.64,-108.916 1383.45,-103.045"/>
</g>
<!-- Node20&#45;&gt;Node11 -->
<g id="edge56" class="edge"><title>Node20&#45;&gt;Node11</title>
<path fill="none" stroke="midnightblue" d="M1418.93,-95.8613C1509.21,-104.547 1674.11,-120.411 1732.13,-125.993"/>
<polygon fill="midnightblue" stroke="midnightblue" points="1419.12,-92.3638 1408.83,-94.89 1418.45,-99.3317 1419.12,-92.3638"/>
</g>
<!-- Node21 -->
<g id="node50" class="node"><title>Node21</title>
<a xlink:href="classServer.xhtml#a19a1e493e1fb50a56d9c77332543d565" target="_top" xlink:title="Start the NAMS Server. Responsible for calling all critical boot&#45;time functions such as SocketServer ...">
<polygon fill="white" stroke="black" points="1606,-59.5 1606,-80.5 1696,-80.5 1696,-59.5 1606,-59.5"/>
<text text-anchor="middle" x="1651" y="-67.5" font-family="FreeSans.ttf" font-size="10.00">Server::Startup</text>
</a>
</g>
<!-- Node20&#45;&gt;Node21 -->
<g id="edge58" class="edge"><title>Node20&#45;&gt;Node21</title>
<path fill="none" stroke="midnightblue" d="M1418.79,-85.8508C1474.45,-82.0515 1555.57,-76.5142 1605.72,-73.0906"/>
<polygon fill="midnightblue" stroke="midnightblue" points="1418.44,-82.3661 1408.7,-86.5391 1418.92,-89.3499 1418.44,-82.3661"/>
</g>
<!-- Node22 -->
<g id="node54" class="node"><title>Node22</title>
<a xlink:href="classSocketServer.xhtml#a72918e73dd56b8986a15678c2cfb5a48" target="_top" xlink:title="Build a socket for a server and set all attributes.">
<polygon fill="white" stroke="black" points="1458.5,-40.5 1458.5,-61.5 1565.5,-61.5 1565.5,-40.5 1458.5,-40.5"/>
<text text-anchor="middle" x="1512" y="-48.5" font-family="FreeSans.ttf" font-size="10.00">SocketServer::New</text>
</a>
</g>
<!-- Node20&#45;&gt;Node22 -->
<g id="edge64" class="edge"><title>Node20&#45;&gt;Node22</title>
<path fill="none" stroke="midnightblue" d="M1409.45,-76.97C1429.23,-71.9615 1451.54,-66.3108 1470.29,-61.5624"/>
<polygon fill="midnightblue" stroke="midnightblue" points="1408.51,-73.5981 1399.67,-79.446 1410.23,-80.3839 1408.51,-73.5981"/>
</g>
<!-- Node21&#45;&gt;Node11 -->
<g id="edge60" class="edge"><title>Node21&#45;&gt;Node11</title>
<path fill="none" stroke="midnightblue" d="M1678.47,-85.621C1696.19,-95.6989 1718.77,-108.538 1734.41,-117.429"/>
<polygon fill="midnightblue" stroke="midnightblue" points="1680.13,-82.5386 1669.71,-80.6381 1676.67,-88.6237 1680.13,-82.5386"/>
</g>
<!-- Node22&#45;&gt;Node21 -->
<g id="edge66" class="edge"><title>Node22&#45;&gt;Node21</title>
<path fill="none" stroke="midnightblue" d="M1575.83,-59.725C1586.01,-61.116 1596.35,-62.5293 1605.97,-63.8446"/>
<polygon fill="midnightblue" stroke="midnightblue" points="1576.12,-56.2325 1565.74,-58.3459 1575.17,-63.168 1576.12,-56.2325"/>
</g>
<!-- Node23&#45;&gt;Node21 -->
<g id="edge70" class="edge"><title>Node23&#45;&gt;Node21</title>
<path fill="none" stroke="midnightblue" d="M441.997,-11C500.522,-11 581.102,-11 652,-11 652,-11 652,-11 1358,-11 1452.64,-11 1478.82,-5.62941 1570,-31 1593.16,-37.4433 1617.76,-50.2478 1633.7,-59.4284"/>
<polygon fill="midnightblue" stroke="midnightblue" points="441.7,-7.5001 431.7,-11 441.7,-14.5001 441.7,-7.5001"/>
</g>
</g>
</svg>
        <g id="navigator" transform="translate(0 0)" fill="#404254">
                <rect fill="#f2f5e9" fill-opacity="0.5" stroke="#606060" stroke-width=".5" x="0" y="0" width="60" height="60"/>
                <use id="zoomplus" xlink:href="#zoomPlus" x="17" y="9" onmousedown="handleZoom(evt,'in')"/>
                <use id="zoomminus" xlink:href="#zoomMin" x="42" y="9" onmousedown="handleZoom(evt,'out')"/>
                <use id="reset" xlink:href="#resetDef" x="30" y="36" onmousedown="handleReset()"/>
                <g id="arrowUp" xlink:href="#dirArrow" transform="translate(30 24)" onmousedown="handlePan(0,-1)">
                  <use xlink:href="#rim" fill="#404040">
                        <set attributeName="fill" to="#808080" begin="arrowUp.mouseover" end="arrowUp.mouseout"/>
                  </use>
                  <path fill="none" stroke="white" stroke-width="1.5" d="M0,-3.0v7 M-2.5,-0.5L0,-3.0L2.5,-0.5"/>
                </g>
                <g id="arrowRight" xlink:href="#dirArrow" transform="rotate(90) translate(36 -43)" onmousedown="handlePan(1,0)">
                  <use xlink:href="#rim" fill="#404040">
                        <set attributeName="fill" to="#808080" begin="arrowRight.mouseover" end="arrowRight.mouseout"/>
                  </use>
                  <path fill="none" stroke="white" stroke-width="1.5" d="M0,-3.0v7 M-2.5,-0.5L0,-3.0L2.5,-0.5"/>
                </g>
                <g id="arrowDown" xlink:href="#dirArrow" transform="rotate(180) translate(-30 -48)" onmousedown="handlePan(0,1)">
                  <use xlink:href="#rim" fill="#404040">
                        <set attributeName="fill" to="#808080" begin="arrowDown.mouseover" end="arrowDown.mouseout"/>
                  </use>
                  <path fill="none" stroke="white" stroke-width="1.5" d="M0,-3.0v7 M-2.5,-0.5L0,-3.0L2.5,-0.5"/>
                </g>
                <g id="arrowLeft" xlink:href="#dirArrow" transform="rotate(270) translate(-36 17)" onmousedown="handlePan(-1,0)">
                  <use xlink:href="#rim" fill="#404040">
                        <set attributeName="fill" to="#808080" begin="arrowLeft.mouseover" end="arrowLeft.mouseout"/>
                  </use>
                  <path fill="none" stroke="white" stroke-width="1.5" d="M0,-3.0v7 M-2.5,-0.5L0,-3.0L2.5,-0.5"/>
                </g>
        </g>
</svg>
