<?xml version="1.0" encoding="UTF-8" standalone="no"?>
<!DOCTYPE svg PUBLIC "-//W3C//DTD SVG 1.1//EN"
 "http://www.w3.org/Graphics/SVG/1.1/DTD/svg11.dtd">
<!-- Generated by graphviz version 2.26.3 (20100126.1600)
 -->
<!-- Title: G Pages: 1 -->
<!--zoomable 290 -->
<svg id="main" version="1.1" xmlns="http://www.w3.org/2000/svg" xmlns:xlink="http://www.w3.org/1999/xlink" xml:space="preserve" onload="init(evt)">
        <defs>
                <circle id="rim" cx="0" cy="0" r="7"/>
                <circle id="rim2" cx="0" cy="0" r="3.5"/>
                <g id="zoomPlus">
                        <use xlink:href="#rim" fill="#404040">
                                <set attributeName="fill" to="#808080" begin="zoomplus.mouseover" end="zoomplus.mouseout"/>
                        </use>
                        <path d="M-4,0h8M0,-4v8" fill="none" stroke="white" stroke-width="1.5" pointer-events="none"/>
                </g>
                <g id="zoomMin">
                        <use xlink:href="#rim" fill="#404040">
                                <set attributeName="fill" to="#808080" begin="zoomminus.mouseover" end="zoomminus.mouseout"/>
                        </use>
                        <path d="M-4,0h8" fill="none" stroke="white" stroke-width="1.5" pointer-events="none"/>
                </g>
                <g id="dirArrow">
                        <path fill="none" stroke="white" stroke-width="1.5" d="M0,-3.0v7 M-2.5,-0.5L0,-3.0L2.5,-0.5"/>
                </g>
               <g id="resetDef">
                       <use xlink:href="#rim2" fill="#404040">
                               <set attributeName="fill" to="#808080" begin="reset.mouseover" end="reset.mouseout"/>
                       </use>
               </g>
        </defs>

<script type="text/javascript">
var viewWidth = 806;
var viewHeight = 290;
var sectionId = 'dynsection-2';
</script>
<script xlink:href="svgpan.js"/>
<svg id="graph" class="graph">
<g id="viewport">
<title>G</title>
<polygon fill="white" stroke="white" points="-4,5 -4,-286 803,-286 803,5 -4,5"/>
<!-- Node1 -->
<g id="node1" class="node"><title>Node1</title>
<polygon fill="#bfbfbf" stroke="black" points="0.5,-140.5 0.5,-161.5 131.5,-161.5 131.5,-140.5 0.5,-140.5"/>
<text text-anchor="middle" x="66" y="-148.5" font-family="FreeSans.ttf" font-size="10.00">Telopt::InitialNegotiation</text>
</g>
<!-- Node2 -->
<g id="node3" class="node"><title>Node2</title>
<a xlink:href="namespaceTelopt.xhtml#a71c731d78947d4c909f93df74950b64c" target="_top" xlink:title="Negotiate requested options.">
<polygon fill="white" stroke="black" points="168,-180.5 168,-201.5 266,-201.5 266,-180.5 168,-180.5"/>
<text text-anchor="middle" x="217" y="-188.5" font-family="FreeSans.ttf" font-size="10.00">Telopt::Negotiate</text>
</a>
</g>
<!-- Node1&#45;&gt;Node2 -->
<g id="edge2" class="edge"><title>Node1&#45;&gt;Node2</title>
<path fill="none" stroke="midnightblue" d="M105.673,-161.51C124.585,-166.519 147.402,-172.563 167.442,-177.872"/>
<polygon fill="midnightblue" stroke="midnightblue" points="166.767,-181.314 177.33,-180.491 168.559,-174.547 166.767,-181.314"/>
</g>
<!-- Node7 -->
<g id="node13" class="node"><title>Node7</title>
<a xlink:href="classSocketClient.xhtml#a6268f3d184970ec0076da657c39d2e80" target="_top" xlink:title="Process data from the client&#39;s send buffer and transmit it via the socket.">
<polygon fill="white" stroke="black" points="526.5,-120.5 526.5,-141.5 633.5,-141.5 633.5,-120.5 526.5,-120.5"/>
<text text-anchor="middle" x="580" y="-128.5" font-family="FreeSans.ttf" font-size="10.00">SocketClient::Send</text>
</a>
</g>
<!-- Node1&#45;&gt;Node7 -->
<g id="edge28" class="edge"><title>Node1&#45;&gt;Node7</title>
<path fill="none" stroke="midnightblue" d="M131.522,-143.951C178.83,-139.227 244.279,-133.441 302,-131 375.427,-127.894 459.861,-128.483 516.228,-129.47"/>
<polygon fill="midnightblue" stroke="midnightblue" points="516.355,-132.973 526.418,-129.658 516.484,-125.974 516.355,-132.973"/>
</g>
<!-- Node3 -->
<g id="node5" class="node"><title>Node3</title>
<a xlink:href="classSocketClient.xhtml#aaad671b55573cb36a5d0bcc1e4a518fb" target="_top" xlink:title="Returns a pointer to the terminal information of the SocketClient.">
<polygon fill="white" stroke="black" points="331.5,-260.5 331.5,-281.5 460.5,-281.5 460.5,-260.5 331.5,-260.5"/>
<text text-anchor="middle" x="396" y="-268.5" font-family="FreeSans.ttf" font-size="10.00">SocketClient::gTermInfo</text>
</a>
</g>
<!-- Node2&#45;&gt;Node3 -->
<g id="edge4" class="edge"><title>Node2&#45;&gt;Node3</title>
<path fill="none" stroke="midnightblue" d="M228.712,-201.649C244.283,-215.216 273.202,-238.41 302,-251 308.163,-253.694 314.716,-256.036 321.383,-258.069"/>
<polygon fill="midnightblue" stroke="midnightblue" points="320.626,-261.492 331.201,-260.833 322.523,-254.754 320.626,-261.492"/>
</g>
<!-- Node4 -->
<g id="node7" class="node"><title>Node4</title>
<a xlink:href="classSocketClient_1_1TermInfo.xhtml#a58debeabe9fe825bc7abbac06df5b216" target="_top" xlink:title="Returns if a telopt has been previously negotiated.">
<polygon fill="white" stroke="black" points="302,-220.5 302,-241.5 490,-241.5 490,-220.5 302,-220.5"/>
<text text-anchor="middle" x="396" y="-228.5" font-family="FreeSans.ttf" font-size="10.00">SocketClient::TermInfo::gNegotiated</text>
</a>
</g>
<!-- Node2&#45;&gt;Node4 -->
<g id="edge6" class="edge"><title>Node2&#45;&gt;Node4</title>
<path fill="none" stroke="midnightblue" d="M261.075,-201.56C274.228,-204.66 288.686,-208.018 302,-211 312.72,-213.401 324.144,-215.891 335.201,-218.263"/>
<polygon fill="midnightblue" stroke="midnightblue" points="334.71,-221.738 345.221,-220.404 336.173,-214.892 334.71,-221.738"/>
</g>
<!-- Node5 -->
<g id="node9" class="node"><title>Node5</title>
<a xlink:href="classSocketClient_1_1TermInfo.xhtml#aa576f2ec6f9de8d4160ccee6cbd1dc34" target="_top" xlink:title="Sets if a telopt has been previously negotiated.">
<polygon fill="white" stroke="black" points="302,-180.5 302,-201.5 490,-201.5 490,-180.5 302,-180.5"/>
<text text-anchor="middle" x="396" y="-188.5" font-family="FreeSans.ttf" font-size="10.00">SocketClient::TermInfo::sNegotiated</text>
</a>
</g>
<!-- Node2&#45;&gt;Node5 -->
<g id="edge8" class="edge"><title>Node2&#45;&gt;Node5</title>
<path fill="none" stroke="midnightblue" d="M266.386,-191C274.345,-191 282.837,-191 291.522,-191"/>
<polygon fill="midnightblue" stroke="midnightblue" points="291.787,-194.5 301.787,-191 291.787,-187.5 291.787,-194.5"/>
</g>
<!-- Node6 -->
<g id="node11" class="node"><title>Node6</title>
<a xlink:href="namespaceTelopt.xhtml#a4f56b29258351832660a550c61bda34f" target="_top" xlink:title="Sends a formatted telnet negotiation command to the client.">
<polygon fill="white" stroke="black" points="358.5,-140.5 358.5,-161.5 433.5,-161.5 433.5,-140.5 358.5,-140.5"/>
<text text-anchor="middle" x="396" y="-148.5" font-family="FreeSans.ttf" font-size="10.00">Telopt::Send</text>
</a>
</g>
<!-- Node2&#45;&gt;Node6 -->
<g id="edge10" class="edge"><title>Node2&#45;&gt;Node6</title>
<path fill="none" stroke="midnightblue" d="M261.075,-180.44C274.228,-177.34 288.686,-173.982 302,-171 317.081,-167.622 333.554,-164.07 348.438,-160.913"/>
<polygon fill="midnightblue" stroke="midnightblue" points="349.392,-164.288 358.452,-158.796 347.944,-157.44 349.392,-164.288"/>
</g>
<!-- Node6&#45;&gt;Node7 -->
<g id="edge12" class="edge"><title>Node6&#45;&gt;Node7</title>
<path fill="none" stroke="midnightblue" d="M433.679,-146.904C457.464,-144.319 488.795,-140.914 516.361,-137.917"/>
<polygon fill="midnightblue" stroke="midnightblue" points="516.762,-141.394 526.326,-136.834 516.006,-134.435 516.762,-141.394"/>
</g>
<!-- Node8 -->
<g id="node15" class="node"><title>Node8</title>
<a xlink:href="classSocket.xhtml#a508457b48e6296d1e86c7cc72af65948" target="_top" xlink:title="Return if the Socket is valid for use.">
<polygon fill="white" stroke="black" points="695,-240.5 695,-261.5 773,-261.5 773,-240.5 695,-240.5"/>
<text text-anchor="middle" x="734" y="-248.5" font-family="FreeSans.ttf" font-size="10.00">Socket::Valid</text>
</a>
</g>
<!-- Node7&#45;&gt;Node8 -->
<g id="edge14" class="edge"><title>Node7&#45;&gt;Node8</title>
<path fill="none" stroke="midnightblue" d="M586.776,-141.765C600.172,-162.181 632.058,-206.658 670,-231 674.715,-234.025 679.919,-236.62 685.262,-238.839"/>
<polygon fill="midnightblue" stroke="midnightblue" points="684.36,-242.237 694.952,-242.439 686.798,-235.675 684.36,-242.237"/>
</g>
<!-- Node9 -->
<g id="node17" class="node"><title>Node9</title>
<a xlink:href="classSocket.xhtml#a45d3aa99d71b868921543a4708471f82" target="_top" xlink:title="Returns the file descriptor associated to the Socket.">
<polygon fill="white" stroke="black" points="678.5,-200.5 678.5,-221.5 789.5,-221.5 789.5,-200.5 678.5,-200.5"/>
<text text-anchor="middle" x="734" y="-208.5" font-family="FreeSans.ttf" font-size="10.00">Socket::gDescriptor</text>
</a>
</g>
<!-- Node7&#45;&gt;Node9 -->
<g id="edge16" class="edge"><title>Node7&#45;&gt;Node9</title>
<path fill="none" stroke="midnightblue" d="M593.296,-141.645C610.244,-154.782 640.852,-177.083 670,-191 674.609,-193.201 679.518,-195.234 684.489,-197.094"/>
<polygon fill="midnightblue" stroke="midnightblue" points="683.467,-200.444 694.062,-200.453 685.785,-193.839 683.467,-200.444"/>
</g>
<!-- Node10 -->
<g id="node19" class="node"><title>Node10</title>
<a xlink:href="classSocketClient.xhtml#aa0badca8f614127e98281995c02cb385" target="_top" xlink:title="Returns the connection state of the client from SOC_STATE.">
<polygon fill="white" stroke="black" points="676.5,-160.5 676.5,-181.5 791.5,-181.5 791.5,-160.5 676.5,-160.5"/>
<text text-anchor="middle" x="734" y="-168.5" font-family="FreeSans.ttf" font-size="10.00">SocketClient::gState</text>
</a>
</g>
<!-- Node7&#45;&gt;Node10 -->
<g id="edge18" class="edge"><title>Node7&#45;&gt;Node10</title>
<path fill="none" stroke="midnightblue" d="M620.462,-141.51C639.838,-146.542 663.232,-152.619 683.737,-157.945"/>
<polygon fill="midnightblue" stroke="midnightblue" points="682.983,-161.365 693.541,-160.491 684.743,-154.59 682.983,-161.365"/>
</g>
<!-- Node11 -->
<g id="node21" class="node"><title>Node11</title>
<a xlink:href="classSocketClient.xhtml#a56e10cbe469179d7d7bc18eae6ca351c" target="_top" xlink:title="Returns the Account object associated to this SocketClient.">
<polygon fill="white" stroke="black" points="670,-120.5 670,-141.5 798,-141.5 798,-120.5 670,-120.5"/>
<text text-anchor="middle" x="734" y="-128.5" font-family="FreeSans.ttf" font-size="10.00">SocketClient::gAccount</text>
</a>
</g>
<!-- Node7&#45;&gt;Node11 -->
<g id="edge20" class="edge"><title>Node7&#45;&gt;Node11</title>
<path fill="none" stroke="midnightblue" d="M633.862,-131C642.216,-131 650.97,-131 659.679,-131"/>
<polygon fill="midnightblue" stroke="midnightblue" points="659.854,-134.5 669.854,-131 659.854,-127.5 659.854,-134.5"/>
</g>
<!-- Node12 -->
<g id="node23" class="node"><title>Node12</title>
<a xlink:href="classSocket.xhtml#adc72a37934a4f2d10f6ae8fc94bb4ca7" target="_top" xlink:title="Returns the hostname associated to the Socket.">
<polygon fill="white" stroke="black" points="678,-80.5 678,-101.5 790,-101.5 790,-80.5 678,-80.5"/>
<text text-anchor="middle" x="734" y="-88.5" font-family="FreeSans.ttf" font-size="10.00">Socket::gHostname</text>
</a>
</g>
<!-- Node7&#45;&gt;Node12 -->
<g id="edge22" class="edge"><title>Node7&#45;&gt;Node12</title>
<path fill="none" stroke="midnightblue" d="M620.462,-120.49C639.838,-115.458 663.232,-109.381 683.737,-104.055"/>
<polygon fill="midnightblue" stroke="midnightblue" points="684.743,-107.41 693.541,-101.509 682.983,-100.635 684.743,-107.41"/>
</g>
<!-- Node13 -->
<g id="node25" class="node"><title>Node13</title>
<a xlink:href="classSocket.xhtml#a688f0d2182f7ca098de3f76156efad0a" target="_top" xlink:title="Increment the total count of bytes sent by the socket.">
<polygon fill="white" stroke="black" points="678.5,-40.5 678.5,-61.5 789.5,-61.5 789.5,-40.5 678.5,-40.5"/>
<text text-anchor="middle" x="734" y="-48.5" font-family="FreeSans.ttf" font-size="10.00">Socket::aBytesSent</text>
</a>
</g>
<!-- Node7&#45;&gt;Node13 -->
<g id="edge24" class="edge"><title>Node7&#45;&gt;Node13</title>
<path fill="none" stroke="midnightblue" d="M593.296,-120.355C610.244,-107.218 640.852,-84.9166 670,-71 674.609,-68.7994 679.518,-66.7656 684.489,-64.9062"/>
<polygon fill="midnightblue" stroke="midnightblue" points="685.785,-68.1608 694.062,-61.5471 683.467,-61.5556 685.785,-68.1608"/>
</g>
<!-- Node14 -->
<g id="node27" class="node"><title>Node14</title>
<a xlink:href="classSocket.xhtml#a3bb9f40d6e5f32cfa960a86323322c0c" target="_top" xlink:title="Returns the number of bytes sent by the Socket.">
<polygon fill="white" stroke="black" points="678.5,-0.5 678.5,-21.5 789.5,-21.5 789.5,-0.5 678.5,-0.5"/>
<text text-anchor="middle" x="734" y="-8.5" font-family="FreeSans.ttf" font-size="10.00">Socket::gBytesSent</text>
</a>
</g>
<!-- Node7&#45;&gt;Node14 -->
<g id="edge26" class="edge"><title>Node7&#45;&gt;Node14</title>
<path fill="none" stroke="midnightblue" d="M586.776,-120.235C600.172,-99.8185 632.058,-55.3425 670,-31 673.123,-28.9963 676.461,-27.1815 679.911,-25.5396"/>
<polygon fill="midnightblue" stroke="midnightblue" points="681.396,-28.7117 689.237,-21.5864 678.664,-22.2668 681.396,-28.7117"/>
</g>
</g>
</svg>
        <g id="navigator" transform="translate(0 0)" fill="#404254">
                <rect fill="#f2f5e9" fill-opacity="0.5" stroke="#606060" stroke-width=".5" x="0" y="0" width="60" height="60"/>
                <use id="zoomplus" xlink:href="#zoomPlus" x="17" y="9" onmousedown="handleZoom(evt,'in')"/>
                <use id="zoomminus" xlink:href="#zoomMin" x="42" y="9" onmousedown="handleZoom(evt,'out')"/>
                <use id="reset" xlink:href="#resetDef" x="30" y="36" onmousedown="handleReset()"/>
                <g id="arrowUp" xlink:href="#dirArrow" transform="translate(30 24)" onmousedown="handlePan(0,-1)">
                  <use xlink:href="#rim" fill="#404040">
                        <set attributeName="fill" to="#808080" begin="arrowUp.mouseover" end="arrowUp.mouseout"/>
                  </use>
                  <path fill="none" stroke="white" stroke-width="1.5" d="M0,-3.0v7 M-2.5,-0.5L0,-3.0L2.5,-0.5"/>
                </g>
                <g id="arrowRight" xlink:href="#dirArrow" transform="rotate(90) translate(36 -43)" onmousedown="handlePan(1,0)">
                  <use xlink:href="#rim" fill="#404040">
                        <set attributeName="fill" to="#808080" begin="arrowRight.mouseover" end="arrowRight.mouseout"/>
                  </use>
                  <path fill="none" stroke="white" stroke-width="1.5" d="M0,-3.0v7 M-2.5,-0.5L0,-3.0L2.5,-0.5"/>
                </g>
                <g id="arrowDown" xlink:href="#dirArrow" transform="rotate(180) translate(-30 -48)" onmousedown="handlePan(0,1)">
                  <use xlink:href="#rim" fill="#404040">
                        <set attributeName="fill" to="#808080" begin="arrowDown.mouseover" end="arrowDown.mouseout"/>
                  </use>
                  <path fill="none" stroke="white" stroke-width="1.5" d="M0,-3.0v7 M-2.5,-0.5L0,-3.0L2.5,-0.5"/>
                </g>
                <g id="arrowLeft" xlink:href="#dirArrow" transform="rotate(270) translate(-36 17)" onmousedown="handlePan(-1,0)">
                  <use xlink:href="#rim" fill="#404040">
                        <set attributeName="fill" to="#808080" begin="arrowLeft.mouseover" end="arrowLeft.mouseout"/>
                  </use>
                  <path fill="none" stroke="white" stroke-width="1.5" d="M0,-3.0v7 M-2.5,-0.5L0,-3.0L2.5,-0.5"/>
                </g>
        </g>
</svg>
