<?xml version="1.0" encoding="UTF-8" standalone="no"?>
<!DOCTYPE svg PUBLIC "-//W3C//DTD SVG 1.1//EN"
 "http://www.w3.org/Graphics/SVG/1.1/DTD/svg11.dtd">
<!-- Generated by graphviz version 2.26.3 (20100126.1600)
 -->
<!-- Title: Utils::StrPrefix Pages: 1 -->
<!--zoomable 812 -->
<svg id="main" version="1.1" xmlns="http://www.w3.org/2000/svg" xmlns:xlink="http://www.w3.org/1999/xlink" xml:space="preserve" onload="init(evt)">
        <defs>
                <circle id="rim" cx="0" cy="0" r="7"/>
                <circle id="rim2" cx="0" cy="0" r="3.5"/>
                <g id="zoomPlus">
                        <use xlink:href="#rim" fill="#404040">
                                <set attributeName="fill" to="#808080" begin="zoomplus.mouseover" end="zoomplus.mouseout"/>
                        </use>
                        <path d="M-4,0h8M0,-4v8" fill="none" stroke="white" stroke-width="1.5" pointer-events="none"/>
                </g>
                <g id="zoomMin">
                        <use xlink:href="#rim" fill="#404040">
                                <set attributeName="fill" to="#808080" begin="zoomminus.mouseover" end="zoomminus.mouseout"/>
                        </use>
                        <path d="M-4,0h8" fill="none" stroke="white" stroke-width="1.5" pointer-events="none"/>
                </g>
                <g id="dirArrow">
                        <path fill="none" stroke="white" stroke-width="1.5" d="M0,-3.0v7 M-2.5,-0.5L0,-3.0L2.5,-0.5"/>
                </g>
               <g id="resetDef">
                       <use xlink:href="#rim2" fill="#404040">
                               <set attributeName="fill" to="#808080" begin="reset.mouseover" end="reset.mouseout"/>
                       </use>
               </g>
        </defs>

<script type="text/javascript">
var viewWidth = 1536;
var viewHeight = 812;
var sectionId = 'dynsection-34';
</script>
<script xlink:href="svgpan.js"/>
<svg id="graph" class="graph">
<g id="viewport">
<title>Utils::StrPrefix</title>
<polygon fill="white" stroke="white" points="-4,5 -4,-807.861 1533,-807.861 1533,5 -4,5"/>
<!-- Node1 -->
<g id="node1" class="node"><title>Node1</title>
<polygon fill="#bfbfbf" stroke="black" points="0,-182.962 0,-202.962 84,-202.962 84,-182.962 0,-182.962"/>
<text text-anchor="middle" x="42" y="-189.962" font-family="FreeSans.ttf" font-size="10.00">Utils::StrPrefix</text>
</g>
<!-- Node2 -->
<g id="node3" class="node"><title>Node2</title>
<a xlink:href="classAccount.xhtml#ae236325fef7b2269f54e9567577e0b92" target="_top" xlink:title="Unserialize the account data.">
<polygon fill="white" stroke="black" points="124,-201.962 124,-221.962 238,-221.962 238,-201.962 124,-201.962"/>
<text text-anchor="middle" x="181" y="-208.962" font-family="FreeSans.ttf" font-size="10.00">Account::Unserialize</text>
</a>
</g>
<!-- Node1&#45;&gt;Node2 -->
<g id="edge2" class="edge"><title>Node1&#45;&gt;Node2</title>
<path fill="none" stroke="midnightblue" d="M94.0325,-200.074C103.785,-201.407 114.029,-202.808 123.925,-204.16"/>
<polygon fill="midnightblue" stroke="midnightblue" points="94.4637,-196.601 84.0818,-198.714 93.5156,-203.536 94.4637,-196.601"/>
</g>
<!-- Node14 -->
<g id="node36" class="node"><title>Node14</title>
<a xlink:href="namespaceHandler.xhtml#a00bc24564bfd267e0329643c569da1e4" target="_top" xlink:title="Select a new account name.">
<polygon fill="white" stroke="black" points="807.5,-731.962 807.5,-751.962 944.5,-751.962 944.5,-731.962 807.5,-731.962"/>
<text text-anchor="middle" x="876" y="-738.962" font-family="FreeSans.ttf" font-size="10.00">Handler::GetNewAccount</text>
</a>
</g>
<!-- Node1&#45;&gt;Node14 -->
<g id="edge98" class="edge"><title>Node1&#45;&gt;Node14</title>
<path fill="none" stroke="midnightblue" d="M48.7616,-212.917C74.832,-285.743 176.137,-532.962 350,-532.962 350,-532.962 350,-532.962 524,-532.962 666.548,-532.962 656.891,-657.541 786,-717.962 798.45,-723.788 812.554,-728.391 825.842,-731.941"/>
<polygon fill="midnightblue" stroke="midnightblue" points="51.9466,-211.422 45.3418,-203.137 45.3389,-213.732 51.9466,-211.422"/>
</g>
<!-- Node28 -->
<g id="node72" class="node"><title>Node28</title>
<a xlink:href="classCharacter.xhtml#a91193d9bb29423c2ec95fb56c27d6bb3" target="_top" xlink:title="Unserialize the character data.">
<polygon fill="white" stroke="black" points="120,-163.962 120,-183.962 242,-183.962 242,-163.962 120,-163.962"/>
<text text-anchor="middle" x="181" y="-170.962" font-family="FreeSans.ttf" font-size="10.00">Character::Unserialize</text>
</a>
</g>
<!-- Node1&#45;&gt;Node28 -->
<g id="edge88" class="edge"><title>Node1&#45;&gt;Node28</title>
<path fill="none" stroke="midnightblue" d="M94.1032,-185.84C102.495,-184.693 111.249,-183.496 119.831,-182.323"/>
<polygon fill="midnightblue" stroke="midnightblue" points="93.5156,-182.388 84.0818,-187.21 94.4637,-189.323 93.5156,-182.388"/>
</g>
<!-- Node30 -->
<g id="node80" class="node"><title>Node30</title>
<a xlink:href="classLocation.xhtml#af65d15c0c107b1fdea7711d632ac909d" target="_top" xlink:title="Unserialize the location data.">
<polygon fill="white" stroke="black" points="123,-45.9619 123,-65.9619 239,-65.9619 239,-45.9619 123,-45.9619"/>
<text text-anchor="middle" x="181" y="-52.9619" font-family="FreeSans.ttf" font-size="10.00">Location::Unserialize</text>
</a>
</g>
<!-- Node1&#45;&gt;Node30 -->
<g id="edge100" class="edge"><title>Node1&#45;&gt;Node30</title>
<path fill="none" stroke="midnightblue" d="M57.2391,-175.114C72.5422,-157.496 97.0763,-130.062 120,-107.962 135.829,-92.7013 155.355,-76.4702 167.985,-66.2796"/>
<polygon fill="midnightblue" stroke="midnightblue" points="54.3972,-173.05 50.5157,-182.908 59.6977,-177.622 54.3972,-173.05"/>
</g>
<!-- Node33 -->
<g id="node87" class="node"><title>Node33</title>
<a xlink:href="classObject.xhtml#a194a597210a8466f7a1668d6383c5b70" target="_top" xlink:title="Unserialize the object data.">
<polygon fill="white" stroke="black" points="128,-578.962 128,-598.962 234,-598.962 234,-578.962 128,-578.962"/>
<text text-anchor="middle" x="181" y="-585.962" font-family="FreeSans.ttf" font-size="10.00">Object::Unserialize</text>
</a>
</g>
<!-- Node1&#45;&gt;Node33 -->
<g id="edge108" class="edge"><title>Node1&#45;&gt;Node33</title>
<path fill="none" stroke="midnightblue" d="M44.5037,-213.36C52.9983,-280.109 82.3019,-490.943 120,-546.962 129.476,-561.043 145.398,-571.769 158.599,-578.857"/>
<polygon fill="midnightblue" stroke="midnightblue" points="47.9569,-212.767 43.2408,-203.28 41.0112,-213.637 47.9569,-212.767"/>
</g>
<!-- Node36 -->
<g id="node94" class="node"><title>Node36</title>
<a xlink:href="classServer_1_1Config.xhtml#a54dba418bfd3365ccfb30bda37ccd461" target="_top" xlink:title="Unserialize runtime configuration settings from CFG_DAT_FILE_SETTINGS.">
<polygon fill="white" stroke="black" points="278.5,-87.9619 278.5,-107.962 421.5,-107.962 421.5,-87.9619 278.5,-87.9619"/>
<text text-anchor="middle" x="350" y="-94.9619" font-family="FreeSans.ttf" font-size="10.00">Server::Config::Unserialize</text>
</a>
</g>
<!-- Node1&#45;&gt;Node36 -->
<g id="edge116" class="edge"><title>Node1&#45;&gt;Node36</title>
<path fill="none" stroke="midnightblue" d="M68.8707,-178.129C83.6335,-170.429 102.461,-161.327 120,-154.962 178.779,-133.63 248.842,-117.535 296.067,-107.978"/>
<polygon fill="midnightblue" stroke="midnightblue" points="66.9988,-175.16 59.8108,-182.944 70.2838,-181.342 66.9988,-175.16"/>
</g>
<!-- Node3 -->
<g id="node5" class="node"><title>Node3</title>
<a xlink:href="classAccount.xhtml#adc4545f17264112e532b5a48abe94baf" target="_top" xlink:title="Create a new account.">
<polygon fill="white" stroke="black" points="309,-201.962 309,-221.962 391,-221.962 391,-201.962 309,-201.962"/>
<text text-anchor="middle" x="350" y="-208.962" font-family="FreeSans.ttf" font-size="10.00">Account::New</text>
</a>
</g>
<!-- Node2&#45;&gt;Node3 -->
<g id="edge4" class="edge"><title>Node2&#45;&gt;Node3</title>
<path fill="none" stroke="midnightblue" d="M248.431,-211.962C268.87,-211.962 290.698,-211.962 308.861,-211.962"/>
<polygon fill="midnightblue" stroke="midnightblue" points="248.216,-208.462 238.216,-211.962 248.216,-215.462 248.216,-208.462"/>
</g>
<!-- Node4 -->
<g id="node7" class="node"><title>Node4</title>
<a xlink:href="namespaceHandler.xhtml#a33a19d69ead678af81fbe96907eceaf0" target="_top" xlink:title="Create a new account object, or load an existing one, with a name and password.">
<polygon fill="white" stroke="black" points="458.5,-415.962 458.5,-435.962 589.5,-435.962 589.5,-415.962 458.5,-415.962"/>
<text text-anchor="middle" x="524" y="-422.962" font-family="FreeSans.ttf" font-size="10.00">Handler::AttachAccount</text>
</a>
</g>
<!-- Node3&#45;&gt;Node4 -->
<g id="edge6" class="edge"><title>Node3&#45;&gt;Node4</title>
<path fill="none" stroke="midnightblue" d="M364.629,-229.954C399.777,-273.182 488.102,-381.812 515.656,-415.7"/>
<polygon fill="midnightblue" stroke="midnightblue" points="367.183,-227.547 358.159,-221.997 361.752,-231.964 367.183,-227.547"/>
</g>
<!-- Node20 -->
<g id="node53" class="node"><title>Node20</title>
<a xlink:href="namespaceServer.xhtml#a16ea0639731dee10e1a253375b508a02" target="_top" xlink:title="Recovers the server state and re&#45;connects client sockets after a reboot.">
<polygon fill="white" stroke="black" points="1022,-125.962 1022,-145.962 1152,-145.962 1152,-125.962 1022,-125.962"/>
<text text-anchor="middle" x="1087" y="-132.962" font-family="FreeSans.ttf" font-size="10.00">Server::RebootRecovery</text>
</a>
</g>
<!-- Node3&#45;&gt;Node20 -->
<g id="edge86" class="edge"><title>Node3&#45;&gt;Node20</title>
<path fill="none" stroke="midnightblue" d="M401.287,-199.901C456.512,-187.259 547.078,-167.524 626,-154.962 696.67,-143.713 714.559,-141.087 786,-136.962 867.125,-132.278 960.753,-132.915 1021.76,-134.138"/>
<polygon fill="midnightblue" stroke="midnightblue" points="400.358,-196.523 391.397,-202.176 401.927,-203.345 400.358,-196.523"/>
</g>
<!-- Node5 -->
<g id="node9" class="node"><title>Node5</title>
<a xlink:href="namespaceHandler.xhtml#a139febc000c9d767a620708148e0c888" target="_top" xlink:title="Dispatches the appropriate menu based on client state.">
<polygon fill="white" stroke="black" points="626.5,-415.962 626.5,-435.962 749.5,-435.962 749.5,-415.962 626.5,-415.962"/>
<text text-anchor="middle" x="688" y="-422.962" font-family="FreeSans.ttf" font-size="10.00">Handler::LoginHandler</text>
</a>
</g>
<!-- Node4&#45;&gt;Node5 -->
<g id="edge8" class="edge"><title>Node4&#45;&gt;Node5</title>
<path fill="none" stroke="midnightblue" d="M599.79,-419.229C608.73,-419.179 617.77,-419.237 626.48,-419.403"/>
<polygon fill="midnightblue" stroke="midnightblue" points="599.724,-415.73 589.76,-419.331 599.795,-422.729 599.724,-415.73"/>
</g>
<!-- Node5&#45;&gt;Node4 -->
<g id="edge10" class="edge"><title>Node5&#45;&gt;Node4</title>
<path fill="none" stroke="midnightblue" d="M616.242,-432.665C607.436,-432.746 598.471,-432.722 589.76,-432.593"/>
<polygon fill="midnightblue" stroke="midnightblue" points="616.531,-436.161 626.48,-432.521 616.432,-429.162 616.531,-436.161"/>
</g>
<!-- Node6 -->
<g id="node12" class="node"><title>Node6</title>
<a xlink:href="namespaceHandler.xhtml#a2e4ebf6ed049eb872aa4948d54c4932c" target="_top" xlink:title="Attempt to write a new character to disk after creation was completed.">
<polygon fill="white" stroke="black" points="806.5,-415.962 806.5,-435.962 945.5,-435.962 945.5,-415.962 806.5,-415.962"/>
<text text-anchor="middle" x="876" y="-422.962" font-family="FreeSans.ttf" font-size="10.00">Handler::AttachCharacter</text>
</a>
</g>
<!-- Node5&#45;&gt;Node6 -->
<g id="edge12" class="edge"><title>Node5&#45;&gt;Node6</title>
<path fill="none" stroke="midnightblue" d="M759.972,-419.379C775.235,-419.143 791.319,-419.157 806.488,-419.42"/>
<polygon fill="midnightblue" stroke="midnightblue" points="759.488,-415.888 749.558,-419.583 759.625,-422.887 759.488,-415.888"/>
</g>
<!-- Node7 -->
<g id="node15" class="node"><title>Node7</title>
<a xlink:href="namespaceHandler.xhtml#a73ed6064f2698dbffb5f4c247a02b661" target="_top" xlink:title="Send initial account interface menu.">
<polygon fill="white" stroke="black" points="802,-377.962 802,-397.962 950,-397.962 950,-377.962 802,-377.962"/>
<text text-anchor="middle" x="876" y="-384.962" font-family="FreeSans.ttf" font-size="10.00">Handler::AccountMenuMain</text>
</a>
</g>
<!-- Node5&#45;&gt;Node7 -->
<g id="edge16" class="edge"><title>Node5&#45;&gt;Node7</title>
<path fill="none" stroke="midnightblue" d="M723.678,-413.322C745.789,-407.688 775.016,-401.385 801.953,-396.316"/>
<polygon fill="midnightblue" stroke="midnightblue" points="722.523,-410.007 713.746,-415.941 724.308,-416.776 722.523,-410.007"/>
</g>
<!-- Node8 -->
<g id="node18" class="node"><title>Node8</title>
<a xlink:href="namespaceHandler.xhtml#ad04998a7a6ece2486bc441052a57c2d7" target="_top" xlink:title="Main Character creation menu.">
<polygon fill="white" stroke="black" points="806,-327.962 806,-359.962 946,-359.962 946,-327.962 806,-327.962"/>
<text text-anchor="start" x="814" y="-346.962" font-family="FreeSans.ttf" font-size="10.00">Handler::CharacterCreate</text>
<text text-anchor="middle" x="876" y="-334.962" font-family="FreeSans.ttf" font-size="10.00">MenuMain</text>
</a>
</g>
<!-- Node5&#45;&gt;Node8 -->
<g id="edge20" class="edge"><title>Node5&#45;&gt;Node8</title>
<path fill="none" stroke="midnightblue" d="M703.574,-408.807C722.378,-393.633 755.311,-372.896 786,-359.962 792.276,-357.317 798.916,-354.866 805.63,-352.658"/>
<polygon fill="midnightblue" stroke="midnightblue" points="701.051,-406.361 695.768,-415.545 705.625,-411.66 701.051,-406.361"/>
</g>
<!-- Node9 -->
<g id="node21" class="node"><title>Node9</title>
<a xlink:href="namespaceHandler.xhtml#ab5889a65de2794129b375ec39ae923ae" target="_top" xlink:title="Select a new Character name.">
<polygon fill="white" stroke="black" points="791.5,-163.962 791.5,-183.962 960.5,-183.962 960.5,-163.962 791.5,-163.962"/>
<text text-anchor="middle" x="876" y="-170.962" font-family="FreeSans.ttf" font-size="10.00">Handler::CharacterCreateName</text>
</a>
</g>
<!-- Node5&#45;&gt;Node9 -->
<g id="edge24" class="edge"><title>Node5&#45;&gt;Node9</title>
<path fill="none" stroke="midnightblue" d="M689.704,-405.694C695.126,-358.377 715.982,-241.792 786,-183.962 787.724,-182.538 789.528,-181.213 791.399,-179.982"/>
<polygon fill="midnightblue" stroke="midnightblue" points="686.194,-405.609 688.658,-415.914 693.158,-406.322 686.194,-405.609"/>
</g>
<!-- Node10 -->
<g id="node24" class="node"><title>Node10</title>
<a xlink:href="namespaceHandler.xhtml#ae5086bcf5857eb572beedd09158c3065" target="_top" xlink:title="Select a new Character sex.">
<polygon fill="white" stroke="black" points="797,-289.962 797,-309.962 955,-309.962 955,-289.962 797,-289.962"/>
<text text-anchor="middle" x="876" y="-296.962" font-family="FreeSans.ttf" font-size="10.00">Handler::CharacterCreateSex</text>
</a>
</g>
<!-- Node5&#45;&gt;Node10 -->
<g id="edge28" class="edge"><title>Node5&#45;&gt;Node10</title>
<path fill="none" stroke="midnightblue" d="M696.383,-406.824C711.326,-380.101 744.888,-333.428 786,-309.962 789.467,-307.983 793.116,-306.209 796.877,-304.628"/>
<polygon fill="midnightblue" stroke="midnightblue" points="693.28,-405.205 691.741,-415.687 699.481,-408.453 693.28,-405.205"/>
</g>
<!-- Node11 -->
<g id="node27" class="node"><title>Node11</title>
<a xlink:href="namespaceHandler.xhtml#a97a198bfc72285b2aca4f36978db715e" target="_top" xlink:title="Main Character deletion confirmation.">
<polygon fill="white" stroke="black" points="806.5,-239.962 806.5,-271.962 945.5,-271.962 945.5,-239.962 806.5,-239.962"/>
<text text-anchor="start" x="814.5" y="-258.962" font-family="FreeSans.ttf" font-size="10.00">Handler::CharacterDelete</text>
<text text-anchor="middle" x="876" y="-246.962" font-family="FreeSans.ttf" font-size="10.00">Confirm</text>
</a>
</g>
<!-- Node5&#45;&gt;Node11 -->
<g id="edge32" class="edge"><title>Node5&#45;&gt;Node11</title>
<path fill="none" stroke="midnightblue" d="M693.867,-406.01C706.25,-372.521 737.93,-306.549 786,-271.962 792.187,-267.51 799.135,-263.851 806.358,-260.898"/>
<polygon fill="midnightblue" stroke="midnightblue" points="690.49,-405.067 690.528,-415.662 697.105,-407.355 690.49,-405.067"/>
</g>
<!-- Node12 -->
<g id="node30" class="node"><title>Node12</title>
<a xlink:href="namespaceHandler.xhtml#afc470ec6e82b7a9a1560588a368734f9" target="_top" xlink:title="Main Character deletion menu.">
<polygon fill="white" stroke="black" points="806.5,-643.962 806.5,-675.962 945.5,-675.962 945.5,-643.962 806.5,-643.962"/>
<text text-anchor="start" x="814.5" y="-662.962" font-family="FreeSans.ttf" font-size="10.00">Handler::CharacterDelete</text>
<text text-anchor="middle" x="876" y="-650.962" font-family="FreeSans.ttf" font-size="10.00">MenuMain</text>
</a>
</g>
<!-- Node5&#45;&gt;Node12 -->
<g id="edge36" class="edge"><title>Node5&#45;&gt;Node12</title>
<path fill="none" stroke="midnightblue" d="M708.049,-444.04C721.381,-460.666 738.49,-485.793 750,-509.962 773.21,-558.698 747.262,-588.368 786,-625.962 794.612,-634.319 805.765,-639.934 817.271,-643.911"/>
<polygon fill="midnightblue" stroke="midnightblue" points="710.57,-441.599 701.472,-436.171 705.2,-446.089 710.57,-441.599"/>
</g>
<!-- Node13 -->
<g id="node33" class="node"><title>Node13</title>
<a xlink:href="namespaceHandler.xhtml#a02b1b954749641ab646f6548a5360d3b" target="_top" xlink:title="Main Character load menu.">
<polygon fill="white" stroke="black" points="786.5,-605.962 786.5,-625.962 965.5,-625.962 965.5,-605.962 786.5,-605.962"/>
<text text-anchor="middle" x="876" y="-612.962" font-family="FreeSans.ttf" font-size="10.00">Handler::CharacterLoadMenuMain</text>
</a>
</g>
<!-- Node5&#45;&gt;Node13 -->
<g id="edge40" class="edge"><title>Node5&#45;&gt;Node13</title>
<path fill="none" stroke="midnightblue" d="M706.577,-443.936C719.519,-460.789 736.765,-486.313 750,-509.962 768.646,-543.28 756.15,-564.156 786,-587.962 798.36,-597.819 814.62,-602.894 829.915,-605.932"/>
<polygon fill="midnightblue" stroke="midnightblue" points="709.207,-441.62 700.245,-435.968 703.727,-445.975 709.207,-441.62"/>
</g>
<!-- Node5&#45;&gt;Node14 -->
<g id="edge44" class="edge"><title>Node5&#45;&gt;Node14</title>
<path fill="none" stroke="midnightblue" d="M709.257,-443.927C722.971,-460.37 740.046,-485.29 750,-509.962 783.629,-593.314 725.092,-642.867 786,-708.962 798.054,-722.043 816.366,-728.313 833.333,-731.925"/>
<polygon fill="midnightblue" stroke="midnightblue" points="711.668,-441.367 702.448,-436.147 706.401,-445.977 711.668,-441.367"/>
</g>
<!-- Node15 -->
<g id="node39" class="node"><title>Node15</title>
<a xlink:href="namespaceHandler.xhtml#a744adadcf407cdb3a9c33365afd5a7c2" target="_top" xlink:title="Create a new account.">
<polygon fill="white" stroke="black" points="805,-567.962 805,-587.962 947,-587.962 947,-567.962 805,-567.962"/>
<text text-anchor="middle" x="876" y="-574.962" font-family="FreeSans.ttf" font-size="10.00">Handler::GetNewPassword</text>
</a>
</g>
<!-- Node5&#45;&gt;Node15 -->
<g id="edge48" class="edge"><title>Node5&#45;&gt;Node15</title>
<path fill="none" stroke="midnightblue" d="M704.056,-443.978C728.878,-476.872 774.875,-542.801 786,-549.962 801.442,-559.902 821.172,-564.745 838.222,-567.881"/>
<polygon fill="midnightblue" stroke="midnightblue" points="706.812,-441.821 697.949,-436.017 701.258,-446.082 706.812,-441.821"/>
</g>
<!-- Node16 -->
<g id="node42" class="node"><title>Node16</title>
<a xlink:href="namespaceHandler.xhtml#adfe13cc9748392348f3941656a1323b6" target="_top" xlink:title="Compare a received password against an existing account.">
<polygon fill="white" stroke="black" points="807.5,-529.962 807.5,-549.962 944.5,-549.962 944.5,-529.962 807.5,-529.962"/>
<text text-anchor="middle" x="876" y="-536.962" font-family="FreeSans.ttf" font-size="10.00">Handler::GetOldPassword</text>
</a>
</g>
<!-- Node5&#45;&gt;Node16 -->
<g id="edge52" class="edge"><title>Node5&#45;&gt;Node16</title>
<path fill="none" stroke="midnightblue" d="M706.693,-443.718C724.606,-463.649 753.641,-494.745 786,-511.962 804.328,-521.713 827.25,-526.46 845.374,-529.95"/>
<polygon fill="midnightblue" stroke="midnightblue" points="709.222,-441.295 699.943,-436.181 704.008,-445.965 709.222,-441.295"/>
</g>
<!-- Node17 -->
<g id="node45" class="node"><title>Node17</title>
<a xlink:href="namespaceHandler.xhtml#ae70e4e50054c729c14493eafefe01b5c" target="_top" xlink:title="Load a character from the account to enter into the game with.">
<polygon fill="white" stroke="black" points="810.5,-201.962 810.5,-221.962 941.5,-221.962 941.5,-201.962 810.5,-201.962"/>
<text text-anchor="middle" x="876" y="-208.962" font-family="FreeSans.ttf" font-size="10.00">Handler::LoadCharacter</text>
</a>
</g>
<!-- Node5&#45;&gt;Node17 -->
<g id="edge56" class="edge"><title>Node5&#45;&gt;Node17</title>
<path fill="none" stroke="midnightblue" d="M691.044,-405.793C699.185,-363.897 725.116,-268.882 786,-221.962 793.21,-216.406 801.671,-212.382 810.469,-209.583"/>
<polygon fill="midnightblue" stroke="midnightblue" points="687.591,-405.22 689.275,-415.68 694.481,-406.453 687.591,-405.22"/>
</g>
<!-- Node18 -->
<g id="node48" class="node"><title>Node18</title>
<a xlink:href="namespaceHandler.xhtml#a44b41bf69fdc6e615a029bea34910191" target="_top" xlink:title="Send initial greeting and request for account name.">
<polygon fill="white" stroke="black" points="816.5,-491.962 816.5,-511.962 935.5,-511.962 935.5,-491.962 816.5,-491.962"/>
<text text-anchor="middle" x="876" y="-498.962" font-family="FreeSans.ttf" font-size="10.00">Handler::LoginScreen</text>
</a>
</g>
<!-- Node5&#45;&gt;Node18 -->
<g id="edge60" class="edge"><title>Node5&#45;&gt;Node18</title>
<path fill="none" stroke="midnightblue" d="M721.874,-441.262C740.156,-451.914 763.529,-465.313 786,-473.962 808.057,-482.452 834.691,-487.476 853.238,-491.943"/>
<polygon fill="midnightblue" stroke="midnightblue" points="723.475,-438.144 713.072,-436.134 719.951,-444.192 723.475,-438.144"/>
</g>
<!-- Node19 -->
<g id="node51" class="node"><title>Node19</title>
<a xlink:href="classSocketClient.xhtml#a8399ef20292e9f3ec83b5c4bec2e105b" target="_top" xlink:title="Build a SocketClient for a new client connection and set all attributes.">
<polygon fill="white" stroke="black" points="824.5,-453.962 824.5,-473.962 927.5,-473.962 927.5,-453.962 824.5,-453.962"/>
<text text-anchor="middle" x="876" y="-460.962" font-family="FreeSans.ttf" font-size="10.00">SocketClient::New</text>
</a>
</g>
<!-- Node5&#45;&gt;Node19 -->
<g id="edge64" class="edge"><title>Node5&#45;&gt;Node19</title>
<path fill="none" stroke="midnightblue" d="M747.73,-438.035C773.007,-443.144 802.115,-449.028 826.206,-453.897"/>
<polygon fill="midnightblue" stroke="midnightblue" points="748.382,-434.596 737.887,-436.045 746.995,-441.457 748.382,-434.596"/>
</g>
<!-- Node26 -->
<g id="node66" class="node"><title>Node26</title>
<a xlink:href="classSocketClient.xhtml#ad4f63c7d906310dc56a1217136047d7f" target="_top" xlink:title="Interpret the command at the front of the queue.">
<polygon fill="white" stroke="black" points="1002,-769.962 1002,-789.962 1172,-789.962 1172,-769.962 1002,-769.962"/>
<text text-anchor="middle" x="1087" y="-776.962" font-family="FreeSans.ttf" font-size="10.00">SocketClient::ProcessCommand</text>
</a>
</g>
<!-- Node5&#45;&gt;Node26 -->
<g id="edge80" class="edge"><title>Node5&#45;&gt;Node26</title>
<path fill="none" stroke="midnightblue" d="M703.009,-443.96C717.192,-461.877 738.029,-490.709 750,-518.962 779.453,-588.472 732.472,-631.728 786,-684.962 843.974,-742.618 894.651,-683.03 966,-722.962 986.301,-734.324 981.766,-749.48 1002,-760.962 1008.44,-764.619 1015.54,-767.572 1022.79,-769.957"/>
<polygon fill="midnightblue" stroke="midnightblue" points="705.657,-441.669 696.649,-436.092 700.213,-446.069 705.657,-441.669"/>
</g>
<!-- Node6&#45;&gt;Node5 -->
<g id="edge14" class="edge"><title>Node6&#45;&gt;Node5</title>
<path fill="none" stroke="midnightblue" d="M796.309,-432.642C780.671,-432.796 764.492,-432.696 749.558,-432.341"/>
<polygon fill="midnightblue" stroke="midnightblue" points="796.537,-436.139 806.488,-432.504 796.442,-429.14 796.537,-436.139"/>
</g>
<!-- Node7&#45;&gt;Node5 -->
<g id="edge18" class="edge"><title>Node7&#45;&gt;Node5</title>
<path fill="none" stroke="midnightblue" d="M839.974,-400.69C814.42,-407.188 779.488,-414.559 749.558,-419.898"/>
<polygon fill="midnightblue" stroke="midnightblue" points="841.184,-403.991 849.964,-398.062 839.403,-397.221 841.184,-403.991"/>
</g>
<!-- Node8&#45;&gt;Node5 -->
<g id="edge22" class="edge"><title>Node8&#45;&gt;Node5</title>
<path fill="none" stroke="midnightblue" d="M829.732,-362.958C815.449,-367.243 799.841,-372.128 786,-377.962 760.426,-388.74 733.294,-404.937 714.079,-415.81"/>
<polygon fill="midnightblue" stroke="midnightblue" points="830.789,-366.295 839.371,-360.082 828.788,-359.587 830.789,-366.295"/>
</g>
<!-- Node9&#45;&gt;Node5 -->
<g id="edge26" class="edge"><title>Node9&#45;&gt;Node5</title>
<path fill="none" stroke="midnightblue" d="M818.497,-186.361C806.783,-189.546 795.235,-194.335 786,-201.962 714.946,-260.648 694.52,-379.841 689.473,-415.813"/>
<polygon fill="midnightblue" stroke="midnightblue" points="819.403,-189.743 828.328,-184.035 817.791,-182.931 819.403,-189.743"/>
</g>
<!-- Node10&#45;&gt;Node5 -->
<g id="edge30" class="edge"><title>Node10&#45;&gt;Node5</title>
<path fill="none" stroke="midnightblue" d="M833.082,-311.93C817.489,-315.182 800.221,-319.845 786,-327.962 746.183,-350.689 713.449,-395.182 697.851,-415.772"/>
<polygon fill="midnightblue" stroke="midnightblue" points="833.899,-315.336 843.037,-309.975 832.55,-308.467 833.899,-315.336"/>
</g>
<!-- Node11&#45;&gt;Node5 -->
<g id="edge34" class="edge"><title>Node11&#45;&gt;Node5</title>
<path fill="none" stroke="midnightblue" d="M815.865,-275.121C805.303,-278.827 794.869,-283.581 786,-289.962 738.153,-324.388 706.545,-389.908 694.041,-415.708"/>
<polygon fill="midnightblue" stroke="midnightblue" points="817.115,-278.396 825.559,-271.997 814.967,-271.733 817.115,-278.396"/>
</g>
<!-- Node12&#45;&gt;Node5 -->
<g id="edge38" class="edge"><title>Node12&#45;&gt;Node5</title>
<path fill="none" stroke="midnightblue" d="M797.125,-652.54C793.116,-650.073 789.364,-647.226 786,-643.962 747.262,-606.368 773.21,-576.698 750,-527.962 733.063,-492.397 704.001,-454.758 692.694,-436.209"/>
<polygon fill="midnightblue" stroke="midnightblue" points="795.783,-655.789 806.262,-657.353 799.045,-649.596 795.783,-655.789"/>
</g>
<!-- Node13&#45;&gt;Node5 -->
<g id="edge42" class="edge"><title>Node13&#45;&gt;Node5</title>
<path fill="none" stroke="midnightblue" d="M778.94,-599.552C758.219,-578.132 766.898,-558.157 750,-527.962 730.668,-493.417 702.776,-454.872 692.242,-436.084"/>
<polygon fill="midnightblue" stroke="midnightblue" points="776.606,-602.16 786.376,-606.259 781.294,-596.962 776.606,-602.16"/>
</g>
<!-- Node14&#45;&gt;Node5 -->
<g id="edge46" class="edge"><title>Node14&#45;&gt;Node5</title>
<path fill="none" stroke="midnightblue" d="M798.295,-736.946C793.772,-734.179 789.606,-730.875 786,-726.962 725.092,-660.867 783.629,-611.314 750,-527.962 735.261,-491.431 704.912,-454.358 692.977,-436.085"/>
<polygon fill="midnightblue" stroke="midnightblue" points="796.885,-740.157 807.377,-741.625 800.091,-733.934 796.885,-740.157"/>
</g>
<!-- Node15&#45;&gt;Node5 -->
<g id="edge50" class="edge"><title>Node15&#45;&gt;Node5</title>
<path fill="none" stroke="midnightblue" d="M795.36,-573.155C792.114,-571.605 788.977,-569.878 786,-567.962 772.796,-559.463 710.464,-468.172 692.722,-436.327"/>
<polygon fill="midnightblue" stroke="midnightblue" points="794.179,-576.455 804.756,-577.066 796.869,-569.992 794.179,-576.455"/>
</g>
<!-- Node16&#45;&gt;Node5 -->
<g id="edge54" class="edge"><title>Node16&#45;&gt;Node5</title>
<path fill="none" stroke="midnightblue" d="M797.673,-535.302C793.644,-533.721 789.727,-531.945 786,-529.962 742.279,-506.7 704.627,-458.101 692.276,-436.143"/>
<polygon fill="midnightblue" stroke="midnightblue" points="796.641,-538.649 807.236,-538.642 798.949,-532.04 796.641,-538.649"/>
</g>
<!-- Node17&#45;&gt;Node5 -->
<g id="edge58" class="edge"><title>Node17&#45;&gt;Node5</title>
<path fill="none" stroke="midnightblue" d="M821.08,-224.259C808.607,-227.42 796.081,-232.193 786,-239.962 724.477,-287.374 698.644,-383.897 690.793,-415.852"/>
<polygon fill="midnightblue" stroke="midnightblue" points="822.024,-227.634 831.023,-222.043 820.501,-220.802 822.024,-227.634"/>
</g>
<!-- Node18&#45;&gt;Node5 -->
<g id="edge62" class="edge"><title>Node18&#45;&gt;Node5</title>
<path fill="none" stroke="midnightblue" d="M806.074,-498.47C799.203,-496.603 792.409,-494.429 786,-491.962 749.63,-477.963 710.896,-451.521 695.211,-436.094"/>
<polygon fill="midnightblue" stroke="midnightblue" points="805.608,-501.961 816.158,-500.985 807.303,-495.169 805.608,-501.961"/>
</g>
<!-- Node19&#45;&gt;Node20 -->
<g id="edge66" class="edge"><title>Node19&#45;&gt;Node20</title>
<path fill="none" stroke="midnightblue" d="M937.529,-459.451C947.874,-456.432 957.874,-451.845 966,-444.962 1063.81,-362.106 1083,-189.857 1086.35,-146.195"/>
<polygon fill="midnightblue" stroke="midnightblue" points="936.436,-456.115 927.553,-461.889 938.098,-462.915 936.436,-456.115"/>
</g>
<!-- Node23 -->
<g id="node59" class="node"><title>Node23</title>
<a xlink:href="classSocketServer.xhtml#afdbc60c3bc840875d2214b59c6213f63" target="_top" xlink:title="Accept a new connection on the listening port.">
<polygon fill="white" stroke="black" points="1027,-731.962 1027,-751.962 1147,-751.962 1147,-731.962 1027,-731.962"/>
<text text-anchor="middle" x="1087" y="-738.962" font-family="FreeSans.ttf" font-size="10.00">SocketServer::Accept</text>
</a>
</g>
<!-- Node19&#45;&gt;Node23 -->
<g id="edge72" class="edge"><title>Node19&#45;&gt;Node23</title>
<path fill="none" stroke="midnightblue" d="M937.529,-469.006C947.785,-471.982 957.753,-476.416 966,-482.962 1051.33,-550.688 1079.29,-692.684 1085.53,-731.798"/>
<polygon fill="midnightblue" stroke="midnightblue" points="938.201,-465.567 927.654,-466.578 936.529,-472.364 938.201,-465.567"/>
</g>
<!-- Node21 -->
<g id="node55" class="node"><title>Node21</title>
<a xlink:href="namespaceServer.xhtml#a19a1e493e1fb50a56d9c77332543d565" target="_top" xlink:title="Start the NAMS Server. Responsible for calling all critical boot&#45;time functions such as SocketServer ...">
<polygon fill="white" stroke="black" points="1221,-125.962 1221,-145.962 1311,-145.962 1311,-125.962 1221,-125.962"/>
<text text-anchor="middle" x="1266" y="-132.962" font-family="FreeSans.ttf" font-size="10.00">Server::Startup</text>
</a>
</g>
<!-- Node20&#45;&gt;Node21 -->
<g id="edge68" class="edge"><title>Node20&#45;&gt;Node21</title>
<path fill="none" stroke="midnightblue" d="M1162.13,-135.962C1182.08,-135.962 1203,-135.962 1220.8,-135.962"/>
<polygon fill="midnightblue" stroke="midnightblue" points="1162.13,-132.462 1152.13,-135.962 1162.13,-139.462 1162.13,-132.462"/>
</g>
<!-- Node22 -->
<g id="node57" class="node"><title>Node22</title>
<a xlink:href="main_8cpp.xhtml#ad53223b8779f25caeddb70a3b9172967" target="_top" xlink:title="The default function required to execute the server.">
<polygon fill="white" stroke="black" points="1486.5,-570.962 1486.5,-590.962 1527.5,-590.962 1527.5,-570.962 1486.5,-570.962"/>
<text text-anchor="middle" x="1507" y="-577.962" font-family="FreeSans.ttf" font-size="10.00">main</text>
</a>
</g>
<!-- Node21&#45;&gt;Node22 -->
<g id="edge70" class="edge"><title>Node21&#45;&gt;Node22</title>
<path fill="none" stroke="midnightblue" d="M1276.36,-155.099C1317.73,-231.474 1470.25,-513.108 1501.42,-570.652"/>
<polygon fill="midnightblue" stroke="midnightblue" points="1279.33,-153.219 1271.49,-146.092 1273.17,-156.553 1279.33,-153.219"/>
</g>
<!-- Node24 -->
<g id="node61" class="node"><title>Node24</title>
<a xlink:href="namespaceServer.xhtml#a39dbe16fdc8c5f6fbd678c6540fbcd6c" target="_top" xlink:title="Poll all SocketClient objects that are communicating with the associated SocketServer object...">
<polygon fill="white" stroke="black" points="1211.5,-731.962 1211.5,-751.962 1320.5,-751.962 1320.5,-731.962 1211.5,-731.962"/>
<text text-anchor="middle" x="1266" y="-738.962" font-family="FreeSans.ttf" font-size="10.00">Server::PollSockets</text>
</a>
</g>
<!-- Node23&#45;&gt;Node24 -->
<g id="edge74" class="edge"><title>Node23&#45;&gt;Node24</title>
<path fill="none" stroke="midnightblue" d="M1157.27,-741.962C1175.28,-741.962 1194.39,-741.962 1211.48,-741.962"/>
<polygon fill="midnightblue" stroke="midnightblue" points="1157.1,-738.462 1147.1,-741.962 1157.1,-745.462 1157.1,-738.462"/>
</g>
<!-- Node25 -->
<g id="node63" class="node"><title>Node25</title>
<a xlink:href="namespaceServer.xhtml#a50b81aa91d8fdaee6f52c5c5ec987990" target="_top" xlink:title="The core update loop of NAMS. This loop spawns all other subsystem update routines and then sleeps fo...">
<polygon fill="white" stroke="black" points="1360.5,-731.962 1360.5,-751.962 1449.5,-751.962 1449.5,-731.962 1360.5,-731.962"/>
<text text-anchor="middle" x="1405" y="-738.962" font-family="FreeSans.ttf" font-size="10.00">Server::Update</text>
</a>
</g>
<!-- Node24&#45;&gt;Node25 -->
<g id="edge76" class="edge"><title>Node24&#45;&gt;Node25</title>
<path fill="none" stroke="midnightblue" d="M1330.57,-741.962C1340.69,-741.962 1350.94,-741.962 1360.47,-741.962"/>
<polygon fill="midnightblue" stroke="midnightblue" points="1330.54,-738.462 1320.54,-741.962 1330.54,-745.462 1330.54,-738.462"/>
</g>
<!-- Node25&#45;&gt;Node22 -->
<g id="edge78" class="edge"><title>Node25&#45;&gt;Node22</title>
<path fill="none" stroke="midnightblue" d="M1416.82,-723.306C1438.49,-689.105 1483.88,-617.454 1500.62,-591.029"/>
<polygon fill="midnightblue" stroke="midnightblue" points="1413.78,-721.57 1411.38,-731.891 1419.69,-725.316 1413.78,-721.57"/>
</g>
<!-- Node27 -->
<g id="node68" class="node"><title>Node27</title>
<a xlink:href="namespaceServer.xhtml#a2b4cec469bb99c2a45e49de5ba74d1ae" target="_top" xlink:title="Processes input from all active SocketClient objects.">
<polygon fill="white" stroke="black" points="1208,-769.962 1208,-789.962 1324,-789.962 1324,-769.962 1208,-769.962"/>
<text text-anchor="middle" x="1266" y="-776.962" font-family="FreeSans.ttf" font-size="10.00">Server::ProcessInput</text>
</a>
</g>
<!-- Node26&#45;&gt;Node27 -->
<g id="edge82" class="edge"><title>Node26&#45;&gt;Node27</title>
<path fill="none" stroke="midnightblue" d="M1182.25,-779.962C1190.93,-779.962 1199.54,-779.962 1207.75,-779.962"/>
<polygon fill="midnightblue" stroke="midnightblue" points="1182.04,-776.462 1172.04,-779.962 1182.04,-783.462 1182.04,-776.462"/>
</g>
<!-- Node27&#45;&gt;Node25 -->
<g id="edge84" class="edge"><title>Node27&#45;&gt;Node25</title>
<path fill="none" stroke="midnightblue" d="M1312.62,-767.217C1330.63,-762.293 1350.96,-756.737 1367.94,-752.093"/>
<polygon fill="midnightblue" stroke="midnightblue" points="1311.61,-763.865 1302.88,-769.878 1313.45,-770.617 1311.61,-763.865"/>
</g>
<!-- Node29 -->
<g id="node74" class="node"><title>Node29</title>
<a xlink:href="classCharacter.xhtml#a829a28ec5f8573f3f53684ac4dcb75bb" target="_top" xlink:title="Create a new character.">
<polygon fill="white" stroke="black" points="643,-163.962 643,-183.962 733,-183.962 733,-163.962 643,-163.962"/>
<text text-anchor="middle" x="688" y="-170.962" font-family="FreeSans.ttf" font-size="10.00">Character::New</text>
</a>
</g>
<!-- Node28&#45;&gt;Node29 -->
<g id="edge90" class="edge"><title>Node28&#45;&gt;Node29</title>
<path fill="none" stroke="midnightblue" d="M252.438,-173.962C358.431,-173.962 554.312,-173.962 642.672,-173.962"/>
<polygon fill="midnightblue" stroke="midnightblue" points="252.156,-170.462 242.156,-173.962 252.156,-177.462 252.156,-170.462"/>
</g>
<!-- Node29&#45;&gt;Node9 -->
<g id="edge92" class="edge"><title>Node29&#45;&gt;Node9</title>
<path fill="none" stroke="midnightblue" d="M743.175,-173.962C758.235,-173.962 774.909,-173.962 791.209,-173.962"/>
<polygon fill="midnightblue" stroke="midnightblue" points="743.031,-170.462 733.031,-173.962 743.031,-177.462 743.031,-170.462"/>
</g>
<!-- Node29&#45;&gt;Node17 -->
<g id="edge94" class="edge"><title>Node29&#45;&gt;Node17</title>
<path fill="none" stroke="midnightblue" d="M742.882,-185.055C769.286,-190.392 800.702,-196.742 826.381,-201.933"/>
<polygon fill="midnightblue" stroke="midnightblue" points="743.526,-181.615 733.031,-183.064 742.139,-188.476 743.526,-181.615"/>
</g>
<!-- Node29&#45;&gt;Node20 -->
<g id="edge96" class="edge"><title>Node29&#45;&gt;Node20</title>
<path fill="none" stroke="midnightblue" d="M743.114,-161.989C757.051,-159.317 772.029,-156.75 786,-154.962 866.893,-144.611 960.77,-139.822 1021.89,-137.659"/>
<polygon fill="midnightblue" stroke="midnightblue" points="742.315,-158.579 733.179,-163.944 743.667,-165.448 742.315,-158.579"/>
</g>
<!-- Node31 -->
<g id="node82" class="node"><title>Node31</title>
<a xlink:href="classLocation.xhtml#a6396aba5eab9bcbabb000c3f6478e1a2" target="_top" xlink:title="Create a new location.">
<polygon fill="white" stroke="black" points="308.5,-30.9619 308.5,-50.9619 391.5,-50.9619 391.5,-30.9619 308.5,-30.9619"/>
<text text-anchor="middle" x="350" y="-37.9619" font-family="FreeSans.ttf" font-size="10.00">Location::New</text>
</a>
</g>
<!-- Node30&#45;&gt;Node31 -->
<g id="edge102" class="edge"><title>Node30&#45;&gt;Node31</title>
<path fill="none" stroke="midnightblue" d="M249.167,-49.9115C269.171,-48.1361 290.444,-46.2479 308.269,-44.6659"/>
<polygon fill="midnightblue" stroke="midnightblue" points="248.812,-46.4293 239.16,-50.7998 249.431,-53.4019 248.812,-46.4293"/>
</g>
<!-- Node32 -->
<g id="node84" class="node"><title>Node32</title>
<a xlink:href="namespaceServer.xhtml#a9b8efad79a32f2356d431788449e1f82" target="_top" xlink:title="Search all subfolders of CFG_DAT_DIR_WORLD and call Location::New() to load each file found to memory...">
<polygon fill="white" stroke="black" points="626.5,-11.9619 626.5,-31.9619 749.5,-31.9619 749.5,-11.9619 626.5,-11.9619"/>
<text text-anchor="middle" x="688" y="-18.9619" font-family="FreeSans.ttf" font-size="10.00">Server::LoadLocations</text>
</a>
</g>
<!-- Node31&#45;&gt;Node32 -->
<g id="edge104" class="edge"><title>Node31&#45;&gt;Node32</title>
<path fill="none" stroke="midnightblue" d="M401.857,-38.0468C462.252,-34.6519 561.933,-29.0485 626.266,-25.4322"/>
<polygon fill="midnightblue" stroke="midnightblue" points="401.572,-34.5573 391.784,-38.6131 401.965,-41.5462 401.572,-34.5573"/>
</g>
<!-- Node32&#45;&gt;Node21 -->
<g id="edge106" class="edge"><title>Node32&#45;&gt;Node21</title>
<path fill="none" stroke="midnightblue" d="M758.377,-10.6306C855.753,1.83086 1035.05,13.0076 1172,-45.9619 1212.26,-63.2969 1245.48,-106.044 1259.21,-125.732"/>
<polygon fill="midnightblue" stroke="midnightblue" points="757.807,-7.1754 748.352,-11.9554 758.724,-14.1151 757.807,-7.1754"/>
</g>
<!-- Node34 -->
<g id="node89" class="node"><title>Node34</title>
<a xlink:href="classObject.xhtml#abbf694ca0643b6bd1e0b5fbc8d6ade24" target="_top" xlink:title="Create a new object.">
<polygon fill="white" stroke="black" points="313,-717.962 313,-737.962 387,-737.962 387,-717.962 313,-717.962"/>
<text text-anchor="middle" x="350" y="-724.962" font-family="FreeSans.ttf" font-size="10.00">Object::New</text>
</a>
</g>
<!-- Node33&#45;&gt;Node34 -->
<g id="edge110" class="edge"><title>Node33&#45;&gt;Node34</title>
<path fill="none" stroke="midnightblue" d="M201.177,-605.557C236.516,-634.623 308.603,-693.914 337.555,-717.726"/>
<polygon fill="midnightblue" stroke="midnightblue" points="203.374,-602.832 193.427,-599.183 198.927,-608.238 203.374,-602.832"/>
</g>
<!-- Node35 -->
<g id="node91" class="node"><title>Node35</title>
<a xlink:href="namespaceServer.xhtml#a0a8c7c124f8cc8e5e6a9c7b067be5ff5" target="_top" xlink:title="Search all subfolders of CFG_DAT_DIR_WORLD and call Object::New() to load each file found to memory...">
<polygon fill="white" stroke="black" points="467.5,-734.962 467.5,-754.962 580.5,-754.962 580.5,-734.962 467.5,-734.962"/>
<text text-anchor="middle" x="524" y="-741.962" font-family="FreeSans.ttf" font-size="10.00">Server::LoadObjects</text>
</a>
</g>
<!-- Node34&#45;&gt;Node35 -->
<g id="edge112" class="edge"><title>Node34&#45;&gt;Node35</title>
<path fill="none" stroke="midnightblue" d="M397.534,-732.606C419.06,-734.709 444.676,-737.212 467.206,-739.413"/>
<polygon fill="midnightblue" stroke="midnightblue" points="397.62,-729.098 387.327,-731.609 396.94,-736.065 397.62,-729.098"/>
</g>
<!-- Node35&#45;&gt;Node21 -->
<g id="edge114" class="edge"><title>Node35&#45;&gt;Node21</title>
<path fill="none" stroke="midnightblue" d="M559.028,-758.484C638.516,-786.74 835.741,-842.926 966,-760.962 1026.1,-723.143 1230.35,-223.894 1261.89,-146.117"/>
<polygon fill="midnightblue" stroke="midnightblue" points="560.084,-755.144 549.489,-755.024 557.697,-761.724 560.084,-755.144"/>
</g>
<!-- Node36&#45;&gt;Node21 -->
<g id="edge118" class="edge"><title>Node36&#45;&gt;Node21</title>
<path fill="none" stroke="midnightblue" d="M415.233,-86.2426C483.127,-75.0781 592.657,-59.9619 688,-59.9619 688,-59.9619 688,-59.9619 876,-59.9619 1012.24,-59.9619 1170.39,-105.196 1235.55,-125.87"/>
<polygon fill="midnightblue" stroke="midnightblue" points="414.402,-82.8326 405.113,-87.9281 415.553,-89.7374 414.402,-82.8326"/>
</g>
</g>
</svg>
        <g id="navigator" transform="translate(0 0)" fill="#404254">
                <rect fill="#f2f5e9" fill-opacity="0.5" stroke="#606060" stroke-width=".5" x="0" y="0" width="60" height="60"/>
                <use id="zoomplus" xlink:href="#zoomPlus" x="17" y="9" onmousedown="handleZoom(evt,'in')"/>
                <use id="zoomminus" xlink:href="#zoomMin" x="42" y="9" onmousedown="handleZoom(evt,'out')"/>
                <use id="reset" xlink:href="#resetDef" x="30" y="36" onmousedown="handleReset()"/>
                <g id="arrowUp" xlink:href="#dirArrow" transform="translate(30 24)" onmousedown="handlePan(0,-1)">
                  <use xlink:href="#rim" fill="#404040">
                        <set attributeName="fill" to="#808080" begin="arrowUp.mouseover" end="arrowUp.mouseout"/>
                  </use>
                  <path fill="none" stroke="white" stroke-width="1.5" d="M0,-3.0v7 M-2.5,-0.5L0,-3.0L2.5,-0.5"/>
                </g>
                <g id="arrowRight" xlink:href="#dirArrow" transform="rotate(90) translate(36 -43)" onmousedown="handlePan(1,0)">
                  <use xlink:href="#rim" fill="#404040">
                        <set attributeName="fill" to="#808080" begin="arrowRight.mouseover" end="arrowRight.mouseout"/>
                  </use>
                  <path fill="none" stroke="white" stroke-width="1.5" d="M0,-3.0v7 M-2.5,-0.5L0,-3.0L2.5,-0.5"/>
                </g>
                <g id="arrowDown" xlink:href="#dirArrow" transform="rotate(180) translate(-30 -48)" onmousedown="handlePan(0,1)">
                  <use xlink:href="#rim" fill="#404040">
                        <set attributeName="fill" to="#808080" begin="arrowDown.mouseover" end="arrowDown.mouseout"/>
                  </use>
                  <path fill="none" stroke="white" stroke-width="1.5" d="M0,-3.0v7 M-2.5,-0.5L0,-3.0L2.5,-0.5"/>
                </g>
                <g id="arrowLeft" xlink:href="#dirArrow" transform="rotate(270) translate(-36 17)" onmousedown="handlePan(-1,0)">
                  <use xlink:href="#rim" fill="#404040">
                        <set attributeName="fill" to="#808080" begin="arrowLeft.mouseover" end="arrowLeft.mouseout"/>
                  </use>
                  <path fill="none" stroke="white" stroke-width="1.5" d="M0,-3.0v7 M-2.5,-0.5L0,-3.0L2.5,-0.5"/>
                </g>
        </g>
        <svg viewBox="0 0 15 15" width="100%" height="30px" preserveAspectRatio="xMaxYMin meet">
         <g id="arrow_out" transform="scale(0.3 0.3)">
          <a xlink:href="namespaceUtils_acf9ee675ffc2d73b7b2a2a71aa68e36a_icgraph_org.svg" target="_base">
           <rect id="button" ry="5" rx="5" y="6" x="6" height="38" width="38"
                fill="#f2f5e9" fill-opacity="0.5" stroke="#606060" stroke-width="1.0"/>
           <path id="arrow"
             d="M 11.500037,31.436501 C 11.940474,20.09759 22.043105,11.32322 32.158766,21.979434 L 37.068811,17.246167 C 37.068811,17.246167 37.088388,32 37.088388,32 L 22.160133,31.978069 C 22.160133,31.978069 26.997745,27.140456 26.997745,27.140456 C 18.528582,18.264221 13.291696,25.230495 11.500037,31.436501 z"
             style="fill:#404040;"/>
          </a>
         </g>
        </svg>
</svg>
