<?xml version="1.0" encoding="UTF-8" standalone="no"?>
<!DOCTYPE svg PUBLIC "-//W3C//DTD SVG 1.1//EN"
 "http://www.w3.org/Graphics/SVG/1.1/DTD/svg11.dtd">
<!-- Generated by graphviz version 2.26.3 (20100126.1600)
 -->
<!-- Title: G Pages: 1 -->
<!--zoomable 319 -->
<svg id="main" version="1.1" xmlns="http://www.w3.org/2000/svg" xmlns:xlink="http://www.w3.org/1999/xlink" xml:space="preserve" onload="init(evt)">
        <defs>
                <circle id="rim" cx="0" cy="0" r="7"/>
                <circle id="rim2" cx="0" cy="0" r="3.5"/>
                <g id="zoomPlus">
                        <use xlink:href="#rim" fill="#404040">
                                <set attributeName="fill" to="#808080" begin="zoomplus.mouseover" end="zoomplus.mouseout"/>
                        </use>
                        <path d="M-4,0h8M0,-4v8" fill="none" stroke="white" stroke-width="1.5" pointer-events="none"/>
                </g>
                <g id="zoomMin">
                        <use xlink:href="#rim" fill="#404040">
                                <set attributeName="fill" to="#808080" begin="zoomminus.mouseover" end="zoomminus.mouseout"/>
                        </use>
                        <path d="M-4,0h8" fill="none" stroke="white" stroke-width="1.5" pointer-events="none"/>
                </g>
                <g id="dirArrow">
                        <path fill="none" stroke="white" stroke-width="1.5" d="M0,-3.0v7 M-2.5,-0.5L0,-3.0L2.5,-0.5"/>
                </g>
               <g id="resetDef">
                       <use xlink:href="#rim2" fill="#404040">
                               <set attributeName="fill" to="#808080" begin="reset.mouseover" end="reset.mouseout"/>
                       </use>
               </g>
        </defs>

<script type="text/javascript">
var viewWidth = 992;
var viewHeight = 319;
var sectionId = 'dynsection-6';
</script>
<script xlink:href="svgpan.js"/>
<svg id="graph" class="graph">
<g id="viewport">
<title>G</title>
<polygon fill="white" stroke="white" points="-4,5 -4,-314.926 989,-314.926 989,5 -4,5"/>
<!-- Node1 -->
<g id="node1" class="node"><title>Node1</title>
<polygon fill="#bfbfbf" stroke="black" points="0,-181.5 0,-202.5 112,-202.5 112,-181.5 0,-181.5"/>
<text text-anchor="middle" x="56" y="-189.5" font-family="FreeSans.ttf" font-size="10.00">Telopt::ProcessInput</text>
</g>
<!-- Node2 -->
<g id="node3" class="node"><title>Node2</title>
<a xlink:href="namespaceTelopt.xhtml#acb81c2e75d328c24352dd8ef356b84d8" target="_top" xlink:title="Begins a telnet negotiation handshake for requested options.">
<polygon fill="white" stroke="black" points="148,-181.5 148,-202.5 252,-202.5 252,-181.5 148,-181.5"/>
<text text-anchor="middle" x="200" y="-189.5" font-family="FreeSans.ttf" font-size="10.00">Telopt::Handshake</text>
</a>
</g>
<!-- Node1&#45;&gt;Node2 -->
<g id="edge2" class="edge"><title>Node1&#45;&gt;Node2</title>
<path fill="none" stroke="midnightblue" d="M112.086,-192C120.396,-192 129.002,-192 137.434,-192"/>
<polygon fill="midnightblue" stroke="midnightblue" points="137.599,-195.5 147.599,-192 137.599,-188.5 137.599,-195.5"/>
</g>
<!-- Node3 -->
<g id="node5" class="node"><title>Node3</title>
<a xlink:href="classSocketClient.xhtml#aa0badca8f614127e98281995c02cb385" target="_top" xlink:title="Returns the connection state of the client from SOC_STATE.">
<polygon fill="white" stroke="black" points="862.5,-280.5 862.5,-301.5 977.5,-301.5 977.5,-280.5 862.5,-280.5"/>
<text text-anchor="middle" x="920" y="-288.5" font-family="FreeSans.ttf" font-size="10.00">SocketClient::gState</text>
</a>
</g>
<!-- Node2&#45;&gt;Node3 -->
<g id="edge4" class="edge"><title>Node2&#45;&gt;Node3</title>
<path fill="none" stroke="midnightblue" d="M210.487,-202.703C225.898,-217.652 256.286,-244.268 288,-256 482.533,-327.962 733.77,-312.835 852.345,-299.922"/>
<polygon fill="midnightblue" stroke="midnightblue" points="852.821,-303.39 862.37,-298.8 852.043,-296.434 852.821,-303.39"/>
</g>
<!-- Node4 -->
<g id="node7" class="node"><title>Node4</title>
<a xlink:href="namespaceTelopt.xhtml#a71c731d78947d4c909f93df74950b64c" target="_top" xlink:title="Negotiate requested options.">
<polygon fill="white" stroke="black" points="321,-201.5 321,-222.5 419,-222.5 419,-201.5 321,-201.5"/>
<text text-anchor="middle" x="370" y="-209.5" font-family="FreeSans.ttf" font-size="10.00">Telopt::Negotiate</text>
</a>
</g>
<!-- Node2&#45;&gt;Node4 -->
<g id="edge6" class="edge"><title>Node2&#45;&gt;Node4</title>
<path fill="none" stroke="midnightblue" d="M252.393,-198.164C270.917,-200.343 291.876,-202.809 310.917,-205.049"/>
<polygon fill="midnightblue" stroke="midnightblue" points="310.631,-208.539 320.972,-206.232 311.449,-201.587 310.631,-208.539"/>
</g>
<!-- Node5 -->
<g id="node9" class="node"><title>Node5</title>
<a xlink:href="classSocketClient.xhtml#aaad671b55573cb36a5d0bcc1e4a518fb" target="_top" xlink:title="Returns a pointer to the terminal information of the SocketClient.">
<polygon fill="white" stroke="black" points="517.5,-241.5 517.5,-262.5 646.5,-262.5 646.5,-241.5 517.5,-241.5"/>
<text text-anchor="middle" x="582" y="-249.5" font-family="FreeSans.ttf" font-size="10.00">SocketClient::gTermInfo</text>
</a>
</g>
<!-- Node2&#45;&gt;Node5 -->
<g id="edge34" class="edge"><title>Node2&#45;&gt;Node5</title>
<path fill="none" stroke="midnightblue" d="M218.173,-202.609C235.491,-212.14 262.616,-225.592 288,-232 360.915,-250.407 447.029,-254.269 507.143,-254.221"/>
<polygon fill="midnightblue" stroke="midnightblue" points="507.323,-257.721 517.307,-254.176 507.291,-250.721 507.323,-257.721"/>
</g>
<!-- Node8 -->
<g id="node15" class="node"><title>Node8</title>
<a xlink:href="namespaceTelopt.xhtml#a4f56b29258351832660a550c61bda34f" target="_top" xlink:title="Sends a formatted telnet negotiation command to the client.">
<polygon fill="white" stroke="black" points="544.5,-121.5 544.5,-142.5 619.5,-142.5 619.5,-121.5 544.5,-121.5"/>
<text text-anchor="middle" x="582" y="-129.5" font-family="FreeSans.ttf" font-size="10.00">Telopt::Send</text>
</a>
</g>
<!-- Node2&#45;&gt;Node8 -->
<g id="edge40" class="edge"><title>Node2&#45;&gt;Node8</title>
<path fill="none" stroke="midnightblue" d="M252.167,-184.413C303.158,-176.931 382.971,-165.044 452,-154 479.293,-149.633 509.761,-144.491 534.338,-140.277"/>
<polygon fill="midnightblue" stroke="midnightblue" points="535.221,-143.677 544.483,-138.533 534.035,-136.778 535.221,-143.677"/>
</g>
<!-- Node17 -->
<g id="node35" class="node"><title>Node17</title>
<a xlink:href="classSocketClient_1_1TermInfo.xhtml#a05765d3e9e5c8f4d8c94bcea42b74dbe" target="_top" xlink:title="Sets the value of a telnet option.">
<polygon fill="white" stroke="black" points="289,-123.5 289,-144.5 451,-144.5 451,-123.5 289,-123.5"/>
<text text-anchor="middle" x="370" y="-131.5" font-family="FreeSans.ttf" font-size="10.00">SocketClient::TermInfo::sTelopt</text>
</a>
</g>
<!-- Node2&#45;&gt;Node17 -->
<g id="edge36" class="edge"><title>Node2&#45;&gt;Node17</title>
<path fill="none" stroke="midnightblue" d="M226.803,-181.449C244.156,-174.742 267.297,-166.03 288,-159 299.56,-155.074 312.132,-151.098 323.879,-147.506"/>
<polygon fill="midnightblue" stroke="midnightblue" points="324.956,-150.836 333.513,-144.588 322.928,-144.137 324.956,-150.836"/>
</g>
<!-- Node18 -->
<g id="node37" class="node"><title>Node18</title>
<a xlink:href="classSocketClient_1_1TermInfo.xhtml#a53781b89d3e22a7ceaa68c96b2b14463" target="_top" xlink:title="Returns the value of a telnet option.">
<polygon fill="white" stroke="black" points="288.5,-83.5 288.5,-104.5 451.5,-104.5 451.5,-83.5 288.5,-83.5"/>
<text text-anchor="middle" x="370" y="-91.5" font-family="FreeSans.ttf" font-size="10.00">SocketClient::TermInfo::gTelopt</text>
</a>
</g>
<!-- Node2&#45;&gt;Node18 -->
<g id="edge38" class="edge"><title>Node2&#45;&gt;Node18</title>
<path fill="none" stroke="midnightblue" d="M208.831,-181.371C223.483,-164.45 254.539,-131.515 288,-114 292.317,-111.74 296.895,-109.73 301.595,-107.943"/>
<polygon fill="midnightblue" stroke="midnightblue" points="303.051,-111.144 311.367,-104.579 300.772,-104.525 303.051,-111.144"/>
</g>
<!-- Node4&#45;&gt;Node5 -->
<g id="edge8" class="edge"><title>Node4&#45;&gt;Node5</title>
<path fill="none" stroke="midnightblue" d="M419.17,-221.277C447.977,-226.713 484.735,-233.648 516.034,-239.554"/>
<polygon fill="midnightblue" stroke="midnightblue" points="515.512,-243.017 525.987,-241.432 516.81,-236.138 515.512,-243.017"/>
</g>
<!-- Node6 -->
<g id="node11" class="node"><title>Node6</title>
<a xlink:href="classSocketClient_1_1TermInfo.xhtml#a58debeabe9fe825bc7abbac06df5b216" target="_top" xlink:title="Returns if a telopt has been previously negotiated.">
<polygon fill="white" stroke="black" points="488,-201.5 488,-222.5 676,-222.5 676,-201.5 488,-201.5"/>
<text text-anchor="middle" x="582" y="-209.5" font-family="FreeSans.ttf" font-size="10.00">SocketClient::TermInfo::gNegotiated</text>
</a>
</g>
<!-- Node4&#45;&gt;Node6 -->
<g id="edge10" class="edge"><title>Node4&#45;&gt;Node6</title>
<path fill="none" stroke="midnightblue" d="M419.17,-212C436.725,-212 457.231,-212 477.656,-212"/>
<polygon fill="midnightblue" stroke="midnightblue" points="477.663,-215.5 487.663,-212 477.663,-208.5 477.663,-215.5"/>
</g>
<!-- Node7 -->
<g id="node13" class="node"><title>Node7</title>
<a xlink:href="classSocketClient_1_1TermInfo.xhtml#aa576f2ec6f9de8d4160ccee6cbd1dc34" target="_top" xlink:title="Sets if a telopt has been previously negotiated.">
<polygon fill="white" stroke="black" points="488,-161.5 488,-182.5 676,-182.5 676,-161.5 488,-161.5"/>
<text text-anchor="middle" x="582" y="-169.5" font-family="FreeSans.ttf" font-size="10.00">SocketClient::TermInfo::sNegotiated</text>
</a>
</g>
<!-- Node4&#45;&gt;Node7 -->
<g id="edge12" class="edge"><title>Node4&#45;&gt;Node7</title>
<path fill="none" stroke="midnightblue" d="M419.17,-202.723C447.977,-197.287 484.735,-190.352 516.034,-184.446"/>
<polygon fill="midnightblue" stroke="midnightblue" points="516.81,-187.862 525.987,-182.568 515.512,-180.983 516.81,-187.862"/>
</g>
<!-- Node4&#45;&gt;Node8 -->
<g id="edge14" class="edge"><title>Node4&#45;&gt;Node8</title>
<path fill="none" stroke="midnightblue" d="M418.446,-201.386C429.897,-197.769 441.749,-193.056 452,-187 471.213,-175.649 468.315,-162.512 488,-152 502.126,-144.457 518.872,-139.759 534.288,-136.832"/>
<polygon fill="midnightblue" stroke="midnightblue" points="534.913,-140.277 544.186,-135.153 533.742,-133.375 534.913,-140.277"/>
</g>
<!-- Node9 -->
<g id="node17" class="node"><title>Node9</title>
<a xlink:href="classSocketClient.xhtml#a6268f3d184970ec0076da657c39d2e80" target="_top" xlink:title="Process data from the client&#39;s send buffer and transmit it via the socket.">
<polygon fill="white" stroke="black" points="712.5,-121.5 712.5,-142.5 819.5,-142.5 819.5,-121.5 712.5,-121.5"/>
<text text-anchor="middle" x="766" y="-129.5" font-family="FreeSans.ttf" font-size="10.00">SocketClient::Send</text>
</a>
</g>
<!-- Node8&#45;&gt;Node9 -->
<g id="edge16" class="edge"><title>Node8&#45;&gt;Node9</title>
<path fill="none" stroke="midnightblue" d="M619.679,-132C643.359,-132 674.52,-132 701.998,-132"/>
<polygon fill="midnightblue" stroke="midnightblue" points="702.326,-135.5 712.326,-132 702.326,-128.5 702.326,-135.5"/>
</g>
<!-- Node9&#45;&gt;Node3 -->
<g id="edge22" class="edge"><title>Node9&#45;&gt;Node3</title>
<path fill="none" stroke="midnightblue" d="M769.999,-142.868C780.164,-168.982 809.524,-235.703 856,-271 858.347,-272.782 860.855,-274.407 863.47,-275.889"/>
<polygon fill="midnightblue" stroke="midnightblue" points="862.171,-279.15 872.692,-280.396 865.244,-272.861 862.171,-279.15"/>
</g>
<!-- Node10 -->
<g id="node19" class="node"><title>Node10</title>
<a xlink:href="classSocket.xhtml#a508457b48e6296d1e86c7cc72af65948" target="_top" xlink:title="Return if the Socket is valid for use.">
<polygon fill="white" stroke="black" points="881,-240.5 881,-261.5 959,-261.5 959,-240.5 881,-240.5"/>
<text text-anchor="middle" x="920" y="-248.5" font-family="FreeSans.ttf" font-size="10.00">Socket::Valid</text>
</a>
</g>
<!-- Node9&#45;&gt;Node10 -->
<g id="edge18" class="edge"><title>Node9&#45;&gt;Node10</title>
<path fill="none" stroke="midnightblue" d="M772.803,-142.655C786.245,-162.862 818.207,-206.886 856,-231 860.723,-234.013 865.932,-236.601 871.277,-238.815"/>
<polygon fill="midnightblue" stroke="midnightblue" points="870.377,-242.215 880.97,-242.411 872.812,-235.652 870.377,-242.215"/>
</g>
<!-- Node11 -->
<g id="node21" class="node"><title>Node11</title>
<a xlink:href="classSocket.xhtml#a45d3aa99d71b868921543a4708471f82" target="_top" xlink:title="Returns the file descriptor associated to the Socket.">
<polygon fill="white" stroke="black" points="864.5,-200.5 864.5,-221.5 975.5,-221.5 975.5,-200.5 864.5,-200.5"/>
<text text-anchor="middle" x="920" y="-208.5" font-family="FreeSans.ttf" font-size="10.00">Socket::gDescriptor</text>
</a>
</g>
<!-- Node9&#45;&gt;Node11 -->
<g id="edge20" class="edge"><title>Node9&#45;&gt;Node11</title>
<path fill="none" stroke="midnightblue" d="M779.624,-142.678C796.663,-155.608 827.116,-177.346 856,-191 860.618,-193.183 865.532,-195.205 870.507,-197.057"/>
<polygon fill="midnightblue" stroke="midnightblue" points="869.489,-200.409 880.084,-200.408 871.8,-193.802 869.489,-200.409"/>
</g>
<!-- Node12 -->
<g id="node24" class="node"><title>Node12</title>
<a xlink:href="classSocketClient.xhtml#a56e10cbe469179d7d7bc18eae6ca351c" target="_top" xlink:title="Returns the Account object associated to this SocketClient.">
<polygon fill="white" stroke="black" points="856,-160.5 856,-181.5 984,-181.5 984,-160.5 856,-160.5"/>
<text text-anchor="middle" x="920" y="-168.5" font-family="FreeSans.ttf" font-size="10.00">SocketClient::gAccount</text>
</a>
</g>
<!-- Node9&#45;&gt;Node12 -->
<g id="edge24" class="edge"><title>Node9&#45;&gt;Node12</title>
<path fill="none" stroke="midnightblue" d="M807.675,-142.554C826.421,-147.301 848.733,-152.952 868.513,-157.961"/>
<polygon fill="midnightblue" stroke="midnightblue" points="867.739,-161.375 878.292,-160.438 869.457,-154.59 867.739,-161.375"/>
</g>
<!-- Node13 -->
<g id="node26" class="node"><title>Node13</title>
<a xlink:href="classSocket.xhtml#adc72a37934a4f2d10f6ae8fc94bb4ca7" target="_top" xlink:title="Returns the hostname associated to the Socket.">
<polygon fill="white" stroke="black" points="864,-120.5 864,-141.5 976,-141.5 976,-120.5 864,-120.5"/>
<text text-anchor="middle" x="920" y="-128.5" font-family="FreeSans.ttf" font-size="10.00">Socket::gHostname</text>
</a>
</g>
<!-- Node9&#45;&gt;Node13 -->
<g id="edge26" class="edge"><title>Node9&#45;&gt;Node13</title>
<path fill="none" stroke="midnightblue" d="M819.862,-131.65C830.753,-131.58 842.324,-131.504 853.588,-131.431"/>
<polygon fill="midnightblue" stroke="midnightblue" points="853.84,-134.93 863.817,-131.365 853.794,-127.93 853.84,-134.93"/>
</g>
<!-- Node14 -->
<g id="node28" class="node"><title>Node14</title>
<a xlink:href="classSocket.xhtml#a7d51c27fcddb7bddf1a3beb0be3c5abe" target="_top" xlink:title="Returns the Server object associated to this SocketServer.">
<polygon fill="white" stroke="black" points="873.5,-80.5 873.5,-101.5 966.5,-101.5 966.5,-80.5 873.5,-80.5"/>
<text text-anchor="middle" x="920" y="-88.5" font-family="FreeSans.ttf" font-size="10.00">Socket::gServer</text>
</a>
</g>
<!-- Node9&#45;&gt;Node14 -->
<g id="edge28" class="edge"><title>Node9&#45;&gt;Node14</title>
<path fill="none" stroke="midnightblue" d="M805.659,-121.441C825.508,-116.157 849.725,-109.709 870.754,-104.111"/>
<polygon fill="midnightblue" stroke="midnightblue" points="871.713,-107.478 880.476,-101.523 869.912,-100.713 871.713,-107.478"/>
</g>
<!-- Node15 -->
<g id="node30" class="node"><title>Node15</title>
<a xlink:href="classSocket.xhtml#a688f0d2182f7ca098de3f76156efad0a" target="_top" xlink:title="Increment the total count of bytes sent by the socket.">
<polygon fill="white" stroke="black" points="864.5,-40.5 864.5,-61.5 975.5,-61.5 975.5,-40.5 864.5,-40.5"/>
<text text-anchor="middle" x="920" y="-48.5" font-family="FreeSans.ttf" font-size="10.00">Socket::aBytesSent</text>
</a>
</g>
<!-- Node9&#45;&gt;Node15 -->
<g id="edge30" class="edge"><title>Node9&#45;&gt;Node15</title>
<path fill="none" stroke="midnightblue" d="M778.971,-121.394C795.825,-108.054 826.585,-85.1824 856,-71 860.601,-68.7818 865.504,-66.7364 870.472,-64.8699"/>
<polygon fill="midnightblue" stroke="midnightblue" points="871.77,-68.1236 880.041,-61.5023 869.446,-61.5206 871.77,-68.1236"/>
</g>
<!-- Node16 -->
<g id="node32" class="node"><title>Node16</title>
<a xlink:href="classSocket.xhtml#a3bb9f40d6e5f32cfa960a86323322c0c" target="_top" xlink:title="Returns the number of bytes sent by the Socket.">
<polygon fill="white" stroke="black" points="864.5,-0.5 864.5,-21.5 975.5,-21.5 975.5,-0.5 864.5,-0.5"/>
<text text-anchor="middle" x="920" y="-8.5" font-family="FreeSans.ttf" font-size="10.00">Socket::gBytesSent</text>
</a>
</g>
<!-- Node9&#45;&gt;Node16 -->
<g id="edge32" class="edge"><title>Node9&#45;&gt;Node16</title>
<path fill="none" stroke="midnightblue" d="M772.542,-121.443C785.769,-100.966 817.712,-55.6989 856,-31 859.118,-28.9886 862.452,-27.168 865.899,-25.5219"/>
<polygon fill="midnightblue" stroke="midnightblue" points="867.386,-28.6932 875.22,-21.5609 864.648,-22.2508 867.386,-28.6932"/>
</g>
</g>
</svg>
        <g id="navigator" transform="translate(0 0)" fill="#404254">
                <rect fill="#f2f5e9" fill-opacity="0.5" stroke="#606060" stroke-width=".5" x="0" y="0" width="60" height="60"/>
                <use id="zoomplus" xlink:href="#zoomPlus" x="17" y="9" onmousedown="handleZoom(evt,'in')"/>
                <use id="zoomminus" xlink:href="#zoomMin" x="42" y="9" onmousedown="handleZoom(evt,'out')"/>
                <use id="reset" xlink:href="#resetDef" x="30" y="36" onmousedown="handleReset()"/>
                <g id="arrowUp" xlink:href="#dirArrow" transform="translate(30 24)" onmousedown="handlePan(0,-1)">
                  <use xlink:href="#rim" fill="#404040">
                        <set attributeName="fill" to="#808080" begin="arrowUp.mouseover" end="arrowUp.mouseout"/>
                  </use>
                  <path fill="none" stroke="white" stroke-width="1.5" d="M0,-3.0v7 M-2.5,-0.5L0,-3.0L2.5,-0.5"/>
                </g>
                <g id="arrowRight" xlink:href="#dirArrow" transform="rotate(90) translate(36 -43)" onmousedown="handlePan(1,0)">
                  <use xlink:href="#rim" fill="#404040">
                        <set attributeName="fill" to="#808080" begin="arrowRight.mouseover" end="arrowRight.mouseout"/>
                  </use>
                  <path fill="none" stroke="white" stroke-width="1.5" d="M0,-3.0v7 M-2.5,-0.5L0,-3.0L2.5,-0.5"/>
                </g>
                <g id="arrowDown" xlink:href="#dirArrow" transform="rotate(180) translate(-30 -48)" onmousedown="handlePan(0,1)">
                  <use xlink:href="#rim" fill="#404040">
                        <set attributeName="fill" to="#808080" begin="arrowDown.mouseover" end="arrowDown.mouseout"/>
                  </use>
                  <path fill="none" stroke="white" stroke-width="1.5" d="M0,-3.0v7 M-2.5,-0.5L0,-3.0L2.5,-0.5"/>
                </g>
                <g id="arrowLeft" xlink:href="#dirArrow" transform="rotate(270) translate(-36 17)" onmousedown="handlePan(-1,0)">
                  <use xlink:href="#rim" fill="#404040">
                        <set attributeName="fill" to="#808080" begin="arrowLeft.mouseover" end="arrowLeft.mouseout"/>
                  </use>
                  <path fill="none" stroke="white" stroke-width="1.5" d="M0,-3.0v7 M-2.5,-0.5L0,-3.0L2.5,-0.5"/>
                </g>
        </g>
</svg>
