<?xml version="1.0" encoding="UTF-8" standalone="no"?>
<!DOCTYPE svg PUBLIC "-//W3C//DTD SVG 1.1//EN"
 "http://www.w3.org/Graphics/SVG/1.1/DTD/svg11.dtd">
<!-- Generated by graphviz version 2.26.3 (20100126.1600)
 -->
<!-- Title: G Pages: 1 -->
<!--zoomable 283 -->
<svg id="main" version="1.1" xmlns="http://www.w3.org/2000/svg" xmlns:xlink="http://www.w3.org/1999/xlink" xml:space="preserve" onload="init(evt)">
        <defs>
                <circle id="rim" cx="0" cy="0" r="7"/>
                <circle id="rim2" cx="0" cy="0" r="3.5"/>
                <g id="zoomPlus">
                        <use xlink:href="#rim" fill="#404040">
                                <set attributeName="fill" to="#808080" begin="zoomplus.mouseover" end="zoomplus.mouseout"/>
                        </use>
                        <path d="M-4,0h8M0,-4v8" fill="none" stroke="white" stroke-width="1.5" pointer-events="none"/>
                </g>
                <g id="zoomMin">
                        <use xlink:href="#rim" fill="#404040">
                                <set attributeName="fill" to="#808080" begin="zoomminus.mouseover" end="zoomminus.mouseout"/>
                        </use>
                        <path d="M-4,0h8" fill="none" stroke="white" stroke-width="1.5" pointer-events="none"/>
                </g>
                <g id="dirArrow">
                        <path fill="none" stroke="white" stroke-width="1.5" d="M0,-3.0v7 M-2.5,-0.5L0,-3.0L2.5,-0.5"/>
                </g>
               <g id="resetDef">
                       <use xlink:href="#rim2" fill="#404040">
                               <set attributeName="fill" to="#808080" begin="reset.mouseover" end="reset.mouseout"/>
                       </use>
               </g>
        </defs>

<script type="text/javascript">
var viewWidth = 1634;
var viewHeight = 283;
var sectionId = 'dynsection-33';
</script>
<script xlink:href="svgpan.js"/>
<svg id="graph" class="graph">
<g id="viewport">
<title>G</title>
<polygon fill="white" stroke="white" points="-4,5 -4,-279 1631,-279 1631,5 -4,5"/>
<!-- Node1 -->
<g id="node1" class="node"><title>Node1</title>
<polygon fill="#bfbfbf" stroke="black" points="0,-79.5 0,-100.5 90,-100.5 90,-79.5 0,-79.5"/>
<text text-anchor="middle" x="45" y="-87.5" font-family="FreeSans.ttf" font-size="10.00">Utils::StrTokens</text>
</g>
<!-- Node2 -->
<g id="node3" class="node"><title>Node2</title>
<a xlink:href="classAccount.xhtml#ae236325fef7b2269f54e9567577e0b92" target="_top" xlink:title="Unserialize the account data from CFG_DAT_FILE_SETTINGS.">
<polygon fill="white" stroke="black" points="141,-129.5 141,-150.5 255,-150.5 255,-129.5 141,-129.5"/>
<text text-anchor="middle" x="198" y="-137.5" font-family="FreeSans.ttf" font-size="10.00">Account::Unserialize</text>
</a>
</g>
<!-- Node1&#45;&gt;Node2 -->
<g id="edge2" class="edge"><title>Node1&#45;&gt;Node2</title>
<path fill="none" stroke="midnightblue" d="M86.999,-103.725C111.886,-111.858 142.935,-122.005 165.862,-129.497"/>
<polygon fill="midnightblue" stroke="midnightblue" points="88.0399,-100.383 77.4474,-100.604 85.8654,-107.037 88.0399,-100.383"/>
</g>
<!-- Node18 -->
<g id="node41" class="node"><title>Node18</title>
<a xlink:href="classServer_1_1Config.xhtml#a54dba418bfd3365ccfb30bda37ccd461" target="_top" xlink:title="Unserialize runtime configuration settings from CFG_DAT_FILE_SETTINGS.">
<polygon fill="white" stroke="black" points="126.5,-79.5 126.5,-100.5 269.5,-100.5 269.5,-79.5 126.5,-79.5"/>
<text text-anchor="middle" x="198" y="-87.5" font-family="FreeSans.ttf" font-size="10.00">Server::Config::Unserialize</text>
</a>
</g>
<!-- Node1&#45;&gt;Node18 -->
<g id="edge46" class="edge"><title>Node1&#45;&gt;Node18</title>
<path fill="none" stroke="midnightblue" d="M100.188,-90C108.657,-90 117.504,-90 126.267,-90"/>
<polygon fill="midnightblue" stroke="midnightblue" points="100.078,-86.5001 90.0775,-90 100.077,-93.5001 100.078,-86.5001"/>
</g>
<!-- Node20 -->
<g id="node46" class="node"><title>Node20</title>
<a xlink:href="namespaceUtils.xhtml#a070c642e01b4b1d2ded94e234d32f65e" target="_top" xlink:title="This is the printf&#45;style string formatter. It should not be invoked directly, but rather by using Uti...">
<polygon fill="white" stroke="black" points="139.5,-39.5 139.5,-60.5 256.5,-60.5 256.5,-39.5 139.5,-39.5"/>
<text text-anchor="middle" x="198" y="-47.5" font-family="FreeSans.ttf" font-size="10.00">Utils::__FormatString</text>
</a>
</g>
<!-- Node1&#45;&gt;Node20 -->
<g id="edge52" class="edge"><title>Node1&#45;&gt;Node20</title>
<path fill="none" stroke="midnightblue" d="M94.9396,-76.9439C115.312,-71.6177 138.555,-65.5413 157.804,-60.5087"/>
<polygon fill="midnightblue" stroke="midnightblue" points="93.9885,-73.5748 85.1989,-79.4905 95.7591,-80.3472 93.9885,-73.5748"/>
</g>
<!-- Node3 -->
<g id="node5" class="node"><title>Node3</title>
<a xlink:href="classAccount.xhtml#adc4545f17264112e532b5a48abe94baf" target="_top" xlink:title="Create a new account.">
<polygon fill="white" stroke="black" points="321,-148.5 321,-169.5 403,-169.5 403,-148.5 321,-148.5"/>
<text text-anchor="middle" x="362" y="-156.5" font-family="FreeSans.ttf" font-size="10.00">Account::New</text>
</a>
</g>
<!-- Node2&#45;&gt;Node3 -->
<g id="edge4" class="edge"><title>Node2&#45;&gt;Node3</title>
<path fill="none" stroke="midnightblue" d="M265.389,-147.807C284.227,-149.99 304.127,-152.295 320.94,-154.243"/>
<polygon fill="midnightblue" stroke="midnightblue" points="265.696,-144.319 255.359,-146.645 264.89,-151.273 265.696,-144.319"/>
</g>
<!-- Node4 -->
<g id="node7" class="node"><title>Node4</title>
<a xlink:href="namespaceHandler.xhtml#a33a19d69ead678af81fbe96907eceaf0" target="_top" xlink:title="Create a new account object, or load an existing one, with a name and password.">
<polygon fill="white" stroke="black" points="454.5,-153.5 454.5,-174.5 585.5,-174.5 585.5,-153.5 454.5,-153.5"/>
<text text-anchor="middle" x="520" y="-161.5" font-family="FreeSans.ttf" font-size="10.00">Handler::AttachAccount</text>
</a>
</g>
<!-- Node3&#45;&gt;Node4 -->
<g id="edge6" class="edge"><title>Node3&#45;&gt;Node4</title>
<path fill="none" stroke="midnightblue" d="M413.308,-160.624C426.388,-161.038 440.626,-161.488 454.316,-161.921"/>
<polygon fill="midnightblue" stroke="midnightblue" points="413.206,-157.119 403.1,-160.301 412.984,-164.115 413.206,-157.119"/>
</g>
<!-- Node5 -->
<g id="node9" class="node"><title>Node5</title>
<a xlink:href="namespaceHandler.xhtml#af650e47f3d4baf393b54376d1eaa1fa9" target="_top" xlink:title="Handle SocketClient objects who have not fully logged into the game yet.">
<polygon fill="white" stroke="black" points="622.5,-153.5 622.5,-174.5 745.5,-174.5 745.5,-153.5 622.5,-153.5"/>
<text text-anchor="middle" x="684" y="-161.5" font-family="FreeSans.ttf" font-size="10.00">Handler::ProcessLogin</text>
</a>
</g>
<!-- Node4&#45;&gt;Node5 -->
<g id="edge8" class="edge"><title>Node4&#45;&gt;Node5</title>
<path fill="none" stroke="midnightblue" d="M595.79,-157.267C604.73,-157.218 613.77,-157.275 622.48,-157.441"/>
<polygon fill="midnightblue" stroke="midnightblue" points="595.724,-153.768 585.76,-157.369 595.795,-160.767 595.724,-153.768"/>
</g>
<!-- Node5&#45;&gt;Node4 -->
<g id="edge28" class="edge"><title>Node5&#45;&gt;Node4</title>
<path fill="none" stroke="midnightblue" d="M612.242,-170.703C603.436,-170.784 594.471,-170.76 585.76,-170.631"/>
<polygon fill="midnightblue" stroke="midnightblue" points="612.531,-174.199 622.48,-170.559 612.432,-167.2 612.531,-174.199"/>
</g>
<!-- Node6 -->
<g id="node11" class="node"><title>Node6</title>
<a xlink:href="namespaceHandler.xhtml#a142c6f0b9e36e54eba3d72f9db2dfe40" target="_top" xlink:title="Redirect to the appropriate subsystem based on socket state.">
<polygon fill="white" stroke="black" points="802.5,-253.5 802.5,-274.5 903.5,-274.5 903.5,-253.5 802.5,-253.5"/>
<text text-anchor="middle" x="853" y="-261.5" font-family="FreeSans.ttf" font-size="10.00">Handler::Interpret</text>
</a>
</g>
<!-- Node5&#45;&gt;Node6 -->
<g id="edge10" class="edge"><title>Node5&#45;&gt;Node6</title>
<path fill="none" stroke="midnightblue" d="M701.211,-181.839C719.622,-199.95 750.458,-227.595 782,-244 789.158,-247.723 797.092,-250.824 804.988,-253.385"/>
<polygon fill="midnightblue" stroke="midnightblue" points="703.654,-179.332 694.115,-174.721 698.696,-184.274 703.654,-179.332"/>
</g>
<!-- Node14 -->
<g id="node29" class="node"><title>Node14</title>
<a xlink:href="namespaceHandler.xhtml#a00bc24564bfd267e0329643c569da1e4" target="_top" xlink:title="Select a new account name.">
<polygon fill="white" stroke="black" points="784.5,-213.5 784.5,-234.5 921.5,-234.5 921.5,-213.5 784.5,-213.5"/>
<text text-anchor="middle" x="853" y="-221.5" font-family="FreeSans.ttf" font-size="10.00">Handler::GetNewAccount</text>
</a>
</g>
<!-- Node5&#45;&gt;Node14 -->
<g id="edge30" class="edge"><title>Node5&#45;&gt;Node14</title>
<path fill="none" stroke="midnightblue" d="M737.245,-178.331C751.647,-183.879 767.315,-189.953 782,-195 801.135,-201.577 823.696,-207.654 838.164,-213.458"/>
<polygon fill="midnightblue" stroke="midnightblue" points="738.095,-174.908 727.504,-174.593 735.586,-181.443 738.095,-174.908"/>
</g>
<!-- Node15 -->
<g id="node32" class="node"><title>Node15</title>
<a xlink:href="namespaceHandler.xhtml#a744adadcf407cdb3a9c33365afd5a7c2" target="_top" xlink:title="Create a new account.">
<polygon fill="white" stroke="black" points="782,-173.5 782,-194.5 924,-194.5 924,-173.5 782,-173.5"/>
<text text-anchor="middle" x="853" y="-181.5" font-family="FreeSans.ttf" font-size="10.00">Handler::GetNewPassword</text>
</a>
</g>
<!-- Node5&#45;&gt;Node15 -->
<g id="edge34" class="edge"><title>Node5&#45;&gt;Node15</title>
<path fill="none" stroke="midnightblue" d="M756.125,-165.85C775.747,-167.966 796.28,-170.684 813.365,-173.489"/>
<polygon fill="midnightblue" stroke="midnightblue" points="756.276,-162.347 745.97,-164.802 755.557,-169.31 756.276,-162.347"/>
</g>
<!-- Node16 -->
<g id="node35" class="node"><title>Node16</title>
<a xlink:href="namespaceHandler.xhtml#adfe13cc9748392348f3941656a1323b6" target="_top" xlink:title="Compare a received password against an existing account.">
<polygon fill="white" stroke="black" points="784.5,-133.5 784.5,-154.5 921.5,-154.5 921.5,-133.5 784.5,-133.5"/>
<text text-anchor="middle" x="853" y="-141.5" font-family="FreeSans.ttf" font-size="10.00">Handler::GetOldPassword</text>
</a>
</g>
<!-- Node5&#45;&gt;Node16 -->
<g id="edge38" class="edge"><title>Node5&#45;&gt;Node16</title>
<path fill="none" stroke="midnightblue" d="M733.695,-151.906C749.499,-149.52 767.272,-147.272 784.177,-145.499"/>
<polygon fill="midnightblue" stroke="midnightblue" points="732.958,-148.479 723.623,-153.49 734.045,-155.394 732.958,-148.479"/>
</g>
<!-- Node17 -->
<g id="node38" class="node"><title>Node17</title>
<a xlink:href="namespaceHandler.xhtml#a44b41bf69fdc6e615a029bea34910191" target="_top" xlink:title="Send initial greeting and request for account name.">
<polygon fill="white" stroke="black" points="793.5,-93.5 793.5,-114.5 912.5,-114.5 912.5,-93.5 793.5,-93.5"/>
<text text-anchor="middle" x="853" y="-101.5" font-family="FreeSans.ttf" font-size="10.00">Handler::LoginScreen</text>
</a>
</g>
<!-- Node5&#45;&gt;Node17 -->
<g id="edge42" class="edge"><title>Node5&#45;&gt;Node17</title>
<path fill="none" stroke="midnightblue" d="M703.652,-148.367C723.262,-137.625 754.371,-124.496 782,-115 785.633,-113.751 789.39,-112.521 793.191,-111.335"/>
<polygon fill="midnightblue" stroke="midnightblue" points="701.876,-145.351 695.014,-153.423 705.412,-151.392 701.876,-145.351"/>
</g>
<!-- Node7 -->
<g id="node13" class="node"><title>Node7</title>
<a xlink:href="classSocketClient.xhtml#a553658a2c076ea71ddcd1758fc64a925" target="_top" xlink:title="Build a SocketClient for a new client connection and set all attributes.">
<polygon fill="white" stroke="black" points="960.5,-253.5 960.5,-274.5 1063.5,-274.5 1063.5,-253.5 960.5,-253.5"/>
<text text-anchor="middle" x="1012" y="-261.5" font-family="FreeSans.ttf" font-size="10.00">SocketClient::New</text>
</a>
</g>
<!-- Node6&#45;&gt;Node7 -->
<g id="edge12" class="edge"><title>Node6&#45;&gt;Node7</title>
<path fill="none" stroke="midnightblue" d="M914.131,-264C929.396,-264 945.617,-264 960.371,-264"/>
<polygon fill="midnightblue" stroke="midnightblue" points="913.746,-260.5 903.746,-264 913.746,-267.5 913.746,-260.5"/>
</g>
<!-- Node12 -->
<g id="node23" class="node"><title>Node12</title>
<a xlink:href="classSocketClient.xhtml#ad4f63c7d906310dc56a1217136047d7f" target="_top" xlink:title="Interpret the command at the front of the queue.">
<polygon fill="white" stroke="black" points="1100,-213.5 1100,-234.5 1270,-234.5 1270,-213.5 1100,-213.5"/>
<text text-anchor="middle" x="1185" y="-221.5" font-family="FreeSans.ttf" font-size="10.00">SocketClient::ProcessCommand</text>
</a>
</g>
<!-- Node6&#45;&gt;Node12 -->
<g id="edge22" class="edge"><title>Node6&#45;&gt;Node12</title>
<path fill="none" stroke="midnightblue" d="M913.928,-251.564C928.944,-248.789 945.017,-246.061 960,-244 1006.04,-237.666 1057.67,-232.911 1099.84,-229.63"/>
<polygon fill="midnightblue" stroke="midnightblue" points="912.907,-248.195 903.727,-253.485 914.202,-255.074 912.907,-248.195"/>
</g>
<!-- Node8 -->
<g id="node15" class="node"><title>Node8</title>
<a xlink:href="classSocketServer.xhtml#afdbc60c3bc840875d2214b59c6213f63" target="_top" xlink:title="Accept a new connection on the listening port.">
<polygon fill="white" stroke="black" points="1125,-253.5 1125,-274.5 1245,-274.5 1245,-253.5 1125,-253.5"/>
<text text-anchor="middle" x="1185" y="-261.5" font-family="FreeSans.ttf" font-size="10.00">SocketServer::Accept</text>
</a>
</g>
<!-- Node7&#45;&gt;Node8 -->
<g id="edge14" class="edge"><title>Node7&#45;&gt;Node8</title>
<path fill="none" stroke="midnightblue" d="M1074.03,-264C1090.59,-264 1108.46,-264 1124.92,-264"/>
<polygon fill="midnightblue" stroke="midnightblue" points="1073.91,-260.5 1063.91,-264 1073.91,-267.5 1073.91,-260.5"/>
</g>
<!-- Node9 -->
<g id="node17" class="node"><title>Node9</title>
<a xlink:href="classServer.xhtml#a39dbe16fdc8c5f6fbd678c6540fbcd6c" target="_top" xlink:title="Poll all SocketClient objects that are communicating with the associated SocketServer object...">
<polygon fill="white" stroke="black" points="1309.5,-253.5 1309.5,-274.5 1418.5,-274.5 1418.5,-253.5 1309.5,-253.5"/>
<text text-anchor="middle" x="1364" y="-261.5" font-family="FreeSans.ttf" font-size="10.00">Server::PollSockets</text>
</a>
</g>
<!-- Node8&#45;&gt;Node9 -->
<g id="edge16" class="edge"><title>Node8&#45;&gt;Node9</title>
<path fill="none" stroke="midnightblue" d="M1255.27,-264C1273.28,-264 1292.39,-264 1309.48,-264"/>
<polygon fill="midnightblue" stroke="midnightblue" points="1255.1,-260.5 1245.1,-264 1255.1,-267.5 1255.1,-260.5"/>
</g>
<!-- Node10 -->
<g id="node19" class="node"><title>Node10</title>
<a xlink:href="classServer.xhtml#a50b81aa91d8fdaee6f52c5c5ec987990" target="_top" xlink:title="The core update loop of NAMS. This loop spawns all other subsystem update routines and then sleeps fo...">
<polygon fill="white" stroke="black" points="1458.5,-213.5 1458.5,-234.5 1547.5,-234.5 1547.5,-213.5 1458.5,-213.5"/>
<text text-anchor="middle" x="1503" y="-221.5" font-family="FreeSans.ttf" font-size="10.00">Server::Update</text>
</a>
</g>
<!-- Node9&#45;&gt;Node10 -->
<g id="edge18" class="edge"><title>Node9&#45;&gt;Node10</title>
<path fill="none" stroke="midnightblue" d="M1410.34,-250.664C1428.53,-245.43 1449.11,-239.509 1466.24,-234.578"/>
<polygon fill="midnightblue" stroke="midnightblue" points="1409.16,-247.361 1400.52,-253.49 1411.1,-254.088 1409.16,-247.361"/>
</g>
<!-- Node11 -->
<g id="node21" class="node"><title>Node11</title>
<a xlink:href="main_8cpp.xhtml#ad53223b8779f25caeddb70a3b9172967" target="_top" xlink:title="The default function required to execute the server.">
<polygon fill="white" stroke="black" points="1584.5,-133.5 1584.5,-154.5 1625.5,-154.5 1625.5,-133.5 1584.5,-133.5"/>
<text text-anchor="middle" x="1605" y="-141.5" font-family="FreeSans.ttf" font-size="10.00">main</text>
</a>
</g>
<!-- Node10&#45;&gt;Node11 -->
<g id="edge20" class="edge"><title>Node10&#45;&gt;Node11</title>
<path fill="none" stroke="midnightblue" d="M1524.79,-206.911C1545,-191.061 1574.44,-167.97 1591.46,-154.618"/>
<polygon fill="midnightblue" stroke="midnightblue" points="1522.46,-204.285 1516.76,-213.211 1526.78,-209.793 1522.46,-204.285"/>
</g>
<!-- Node13 -->
<g id="node25" class="node"><title>Node13</title>
<a xlink:href="classServer.xhtml#a2b4cec469bb99c2a45e49de5ba74d1ae" target="_top" xlink:title="Processes input from all active SocketClient objects.">
<polygon fill="white" stroke="black" points="1306,-213.5 1306,-234.5 1422,-234.5 1422,-213.5 1306,-213.5"/>
<text text-anchor="middle" x="1364" y="-221.5" font-family="FreeSans.ttf" font-size="10.00">Server::ProcessInput</text>
</a>
</g>
<!-- Node12&#45;&gt;Node13 -->
<g id="edge24" class="edge"><title>Node12&#45;&gt;Node13</title>
<path fill="none" stroke="midnightblue" d="M1280.25,-224C1288.93,-224 1297.54,-224 1305.75,-224"/>
<polygon fill="midnightblue" stroke="midnightblue" points="1280.04,-220.5 1270.04,-224 1280.04,-227.5 1280.04,-220.5"/>
</g>
<!-- Node13&#45;&gt;Node10 -->
<g id="edge26" class="edge"><title>Node13&#45;&gt;Node10</title>
<path fill="none" stroke="midnightblue" d="M1432.39,-224C1441.16,-224 1449.95,-224 1458.2,-224"/>
<polygon fill="midnightblue" stroke="midnightblue" points="1432.14,-220.5 1422.14,-224 1432.14,-227.5 1432.14,-220.5"/>
</g>
<!-- Node14&#45;&gt;Node5 -->
<g id="edge32" class="edge"><title>Node14&#45;&gt;Node5</title>
<path fill="none" stroke="midnightblue" d="M774.486,-210.326C743.104,-198.996 711.303,-184.912 695.014,-174.577"/>
<polygon fill="midnightblue" stroke="midnightblue" points="773.599,-213.725 784.194,-213.747 775.926,-207.122 773.599,-213.725"/>
</g>
<!-- Node15&#45;&gt;Node5 -->
<g id="edge36" class="edge"><title>Node15&#45;&gt;Node5</title>
<path fill="none" stroke="midnightblue" d="M771.497,-181.101C754.828,-179.17 738.004,-176.871 723.623,-174.51"/>
<polygon fill="midnightblue" stroke="midnightblue" points="771.506,-184.623 781.832,-182.253 772.281,-177.667 771.506,-184.623"/>
</g>
<!-- Node16&#45;&gt;Node5 -->
<g id="edge40" class="edge"><title>Node16&#45;&gt;Node5</title>
<path fill="none" stroke="midnightblue" d="M803.389,-156.081C785.411,-158.797 764.879,-161.335 745.97,-163.198"/>
<polygon fill="midnightblue" stroke="midnightblue" points="804.031,-159.523 813.365,-154.511 802.943,-152.609 804.031,-159.523"/>
</g>
<!-- Node17&#45;&gt;Node5 -->
<g id="edge44" class="edge"><title>Node17&#45;&gt;Node5</title>
<path fill="none" stroke="midnightblue" d="M828.442,-118.114C814.672,-122.836 797.248,-127.759 782,-133 763.926,-139.212 744.363,-146.978 727.504,-153.407"/>
<polygon fill="midnightblue" stroke="midnightblue" points="829.986,-121.276 838.164,-114.542 827.571,-114.706 829.986,-121.276"/>
</g>
<!-- Node19 -->
<g id="node43" class="node"><title>Node19</title>
<a xlink:href="classServer.xhtml#a19a1e493e1fb50a56d9c77332543d565" target="_top" xlink:title="Start the NAMS Server. Responsible for calling all critical boot&#45;time functions such as SocketServer ...">
<polygon fill="white" stroke="black" points="475,-56.5 475,-77.5 565,-77.5 565,-56.5 475,-56.5"/>
<text text-anchor="middle" x="520" y="-64.5" font-family="FreeSans.ttf" font-size="10.00">Server::Startup</text>
</a>
</g>
<!-- Node18&#45;&gt;Node19 -->
<g id="edge48" class="edge"><title>Node18&#45;&gt;Node19</title>
<path fill="none" stroke="midnightblue" d="M279.984,-84.144C341.793,-79.7291 424.262,-73.8384 474.675,-70.2375"/>
<polygon fill="midnightblue" stroke="midnightblue" points="279.587,-80.6633 269.862,-84.867 280.086,-87.6455 279.587,-80.6633"/>
</g>
<!-- Node19&#45;&gt;Node11 -->
<g id="edge50" class="edge"><title>Node19&#45;&gt;Node11</title>
<path fill="none" stroke="midnightblue" d="M575.431,-66.4636C641.52,-65.8712 755.318,-65 853,-65 853,-65 853,-65 1364,-65 1450.74,-65 1546.7,-111.782 1586.32,-133.346"/>
<polygon fill="midnightblue" stroke="midnightblue" points="575.211,-62.9654 565.243,-66.5561 575.275,-69.9651 575.211,-62.9654"/>
</g>
<!-- Node21 -->
<g id="node48" class="node"><title>Node21</title>
<a xlink:href="namespaceUtils.xhtml#a33e08ea185b71aab494d83322ad3cd53" target="_top" xlink:title="This is a nested wrapper for Utils::__FormatString and should not be called directly.">
<polygon fill="white" stroke="black" points="306,-40.5 306,-61.5 418,-61.5 418,-40.5 306,-40.5"/>
<text text-anchor="middle" x="362" y="-48.5" font-family="FreeSans.ttf" font-size="10.00">Utils::_FormatString</text>
</a>
</g>
<!-- Node20&#45;&gt;Node21 -->
<g id="edge54" class="edge"><title>Node20&#45;&gt;Node21</title>
<path fill="none" stroke="midnightblue" d="M267.011,-50.4208C279.963,-50.4998 293.358,-50.5815 305.86,-50.6577"/>
<polygon fill="midnightblue" stroke="midnightblue" points="266.766,-46.9193 256.745,-50.3582 266.723,-53.9192 266.766,-46.9193"/>
</g>
<!-- Node22 -->
<g id="node50" class="node"><title>Node22</title>
<a xlink:href="namespaceUtils.xhtml#aa2ac8bf1bb304bab8f29829ec30af243" target="_top" xlink:title="This is the logging output engine. It should not be invoked directly, but rather by calling Utils::Lo...">
<polygon fill="white" stroke="black" points="321,-0.5 321,-21.5 403,-21.5 403,-0.5 321,-0.5"/>
<text text-anchor="middle" x="362" y="-8.5" font-family="FreeSans.ttf" font-size="10.00">Utils::_Logger</text>
</a>
</g>
<!-- Node20&#45;&gt;Node22 -->
<g id="edge56" class="edge"><title>Node20&#45;&gt;Node22</title>
<path fill="none" stroke="midnightblue" d="M252.406,-37.0619C274.762,-31.7456 300.215,-25.6927 320.961,-20.7592"/>
<polygon fill="midnightblue" stroke="midnightblue" points="251.3,-33.7274 242.381,-39.446 252.919,-40.5375 251.3,-33.7274"/>
</g>
</g>
</svg>
        <g id="navigator" transform="translate(0 0)" fill="#404254">
                <rect fill="#f2f5e9" fill-opacity="0.5" stroke="#606060" stroke-width=".5" x="0" y="0" width="60" height="60"/>
                <use id="zoomplus" xlink:href="#zoomPlus" x="17" y="9" onmousedown="handleZoom(evt,'in')"/>
                <use id="zoomminus" xlink:href="#zoomMin" x="42" y="9" onmousedown="handleZoom(evt,'out')"/>
                <use id="reset" xlink:href="#resetDef" x="30" y="36" onmousedown="handleReset()"/>
                <g id="arrowUp" xlink:href="#dirArrow" transform="translate(30 24)" onmousedown="handlePan(0,-1)">
                  <use xlink:href="#rim" fill="#404040">
                        <set attributeName="fill" to="#808080" begin="arrowUp.mouseover" end="arrowUp.mouseout"/>
                  </use>
                  <path fill="none" stroke="white" stroke-width="1.5" d="M0,-3.0v7 M-2.5,-0.5L0,-3.0L2.5,-0.5"/>
                </g>
                <g id="arrowRight" xlink:href="#dirArrow" transform="rotate(90) translate(36 -43)" onmousedown="handlePan(1,0)">
                  <use xlink:href="#rim" fill="#404040">
                        <set attributeName="fill" to="#808080" begin="arrowRight.mouseover" end="arrowRight.mouseout"/>
                  </use>
                  <path fill="none" stroke="white" stroke-width="1.5" d="M0,-3.0v7 M-2.5,-0.5L0,-3.0L2.5,-0.5"/>
                </g>
                <g id="arrowDown" xlink:href="#dirArrow" transform="rotate(180) translate(-30 -48)" onmousedown="handlePan(0,1)">
                  <use xlink:href="#rim" fill="#404040">
                        <set attributeName="fill" to="#808080" begin="arrowDown.mouseover" end="arrowDown.mouseout"/>
                  </use>
                  <path fill="none" stroke="white" stroke-width="1.5" d="M0,-3.0v7 M-2.5,-0.5L0,-3.0L2.5,-0.5"/>
                </g>
                <g id="arrowLeft" xlink:href="#dirArrow" transform="rotate(270) translate(-36 17)" onmousedown="handlePan(-1,0)">
                  <use xlink:href="#rim" fill="#404040">
                        <set attributeName="fill" to="#808080" begin="arrowLeft.mouseover" end="arrowLeft.mouseout"/>
                  </use>
                  <path fill="none" stroke="white" stroke-width="1.5" d="M0,-3.0v7 M-2.5,-0.5L0,-3.0L2.5,-0.5"/>
                </g>
        </g>
</svg>
