<?xml version="1.0" encoding="UTF-8" standalone="no"?>
<!DOCTYPE svg PUBLIC "-//W3C//DTD SVG 1.1//EN"
 "http://www.w3.org/Graphics/SVG/1.1/DTD/svg11.dtd">
<!-- Generated by graphviz version 2.26.3 (20100126.1600)
 -->
<!-- Title: G Pages: 1 -->
<!--zoomable 643 -->
<svg id="main" version="1.1" xmlns="http://www.w3.org/2000/svg" xmlns:xlink="http://www.w3.org/1999/xlink" xml:space="preserve" onload="init(evt)">
        <defs>
                <circle id="rim" cx="0" cy="0" r="7"/>
                <circle id="rim2" cx="0" cy="0" r="3.5"/>
                <g id="zoomPlus">
                        <use xlink:href="#rim" fill="#404040">
                                <set attributeName="fill" to="#808080" begin="zoomplus.mouseover" end="zoomplus.mouseout"/>
                        </use>
                        <path d="M-4,0h8M0,-4v8" fill="none" stroke="white" stroke-width="1.5" pointer-events="none"/>
                </g>
                <g id="zoomMin">
                        <use xlink:href="#rim" fill="#404040">
                                <set attributeName="fill" to="#808080" begin="zoomminus.mouseover" end="zoomminus.mouseout"/>
                        </use>
                        <path d="M-4,0h8" fill="none" stroke="white" stroke-width="1.5" pointer-events="none"/>
                </g>
                <g id="dirArrow">
                        <path fill="none" stroke="white" stroke-width="1.5" d="M0,-3.0v7 M-2.5,-0.5L0,-3.0L2.5,-0.5"/>
                </g>
               <g id="resetDef">
                       <use xlink:href="#rim2" fill="#404040">
                               <set attributeName="fill" to="#808080" begin="reset.mouseover" end="reset.mouseout"/>
                       </use>
               </g>
        </defs>

<script type="text/javascript">
var viewWidth = 1070;
var viewHeight = 643;
var sectionId = 'dynsection-25';
</script>
<script xlink:href="svgpan.js"/>
<svg id="graph" class="graph">
<g id="viewport">
<title>G</title>
<polygon fill="white" stroke="white" points="-4,5 -4,-639.115 1067,-639.115 1067,5 -4,5"/>
<!-- Node1 -->
<g id="node1" class="node"><title>Node1</title>
<polygon fill="#bfbfbf" stroke="black" points="0.5,-333.615 0.5,-354.615 115.5,-354.615 115.5,-333.615 0.5,-333.615"/>
<text text-anchor="middle" x="58" y="-341.615" font-family="FreeSans.ttf" font-size="10.00">Handler::EnterGame</text>
</g>
<!-- Node2 -->
<g id="node3" class="node"><title>Node2</title>
<a xlink:href="namespaceHandler.xhtml#a139febc000c9d767a620708148e0c888" target="_top" xlink:title="Dispatches the appropriate menu based on client state.">
<polygon fill="white" stroke="black" points="152.5,-333.615 152.5,-354.615 275.5,-354.615 275.5,-333.615 152.5,-333.615"/>
<text text-anchor="middle" x="214" y="-341.615" font-family="FreeSans.ttf" font-size="10.00">Handler::LoginHandler</text>
</a>
</g>
<!-- Node1&#45;&gt;Node2 -->
<g id="edge2" class="edge"><title>Node1&#45;&gt;Node2</title>
<path fill="none" stroke="midnightblue" d="M125.887,-344.115C134.704,-344.115 143.696,-344.115 152.402,-344.115"/>
<polygon fill="midnightblue" stroke="midnightblue" points="125.645,-340.615 115.645,-344.115 125.645,-347.615 125.645,-340.615"/>
</g>
<!-- Node3 -->
<g id="node5" class="node"><title>Node3</title>
<a xlink:href="namespaceHandler.xhtml#a33a19d69ead678af81fbe96907eceaf0" target="_top" xlink:title="Create a new account object, or load an existing one, with a name and password.">
<polygon fill="white" stroke="black" points="340.5,-613.615 340.5,-634.615 471.5,-634.615 471.5,-613.615 340.5,-613.615"/>
<text text-anchor="middle" x="406" y="-621.615" font-family="FreeSans.ttf" font-size="10.00">Handler::AttachAccount</text>
</a>
</g>
<!-- Node2&#45;&gt;Node3 -->
<g id="edge4" class="edge"><title>Node2&#45;&gt;Node3</title>
<path fill="none" stroke="midnightblue" d="M215.789,-364.953C220.891,-413.495 240.2,-533.403 312,-595.115 323.388,-604.903 338.387,-610.281 353.05,-613.531"/>
<polygon fill="midnightblue" stroke="midnightblue" points="219.248,-364.344 214.817,-354.721 212.279,-365.007 219.248,-364.344"/>
</g>
<!-- Node4 -->
<g id="node8" class="node"><title>Node4</title>
<a xlink:href="namespaceHandler.xhtml#a2e4ebf6ed049eb872aa4948d54c4932c" target="_top" xlink:title="Attempt to write a new character to disk after creation was completed.">
<polygon fill="white" stroke="black" points="336.5,-573.615 336.5,-594.615 475.5,-594.615 475.5,-573.615 336.5,-573.615"/>
<text text-anchor="middle" x="406" y="-581.615" font-family="FreeSans.ttf" font-size="10.00">Handler::AttachCharacter</text>
</a>
</g>
<!-- Node2&#45;&gt;Node4 -->
<g id="edge8" class="edge"><title>Node2&#45;&gt;Node4</title>
<path fill="none" stroke="midnightblue" d="M217.809,-364.83C226.062,-407.662 250.105,-504.993 312,-555.115 324.188,-564.985 340.1,-570.304 355.356,-573.528"/>
<polygon fill="midnightblue" stroke="midnightblue" points="221.203,-363.932 215.959,-354.726 214.318,-365.192 221.203,-363.932"/>
</g>
<!-- Node5 -->
<g id="node11" class="node"><title>Node5</title>
<a xlink:href="namespaceHandler.xhtml#a73ed6064f2698dbffb5f4c247a02b661" target="_top" xlink:title="Send initial account interface menu.">
<polygon fill="white" stroke="black" points="332,-533.615 332,-554.615 480,-554.615 480,-533.615 332,-533.615"/>
<text text-anchor="middle" x="406" y="-541.615" font-family="FreeSans.ttf" font-size="10.00">Handler::AccountMenuMain</text>
</a>
</g>
<!-- Node2&#45;&gt;Node5 -->
<g id="edge12" class="edge"><title>Node2&#45;&gt;Node5</title>
<path fill="none" stroke="midnightblue" d="M220.641,-364.502C232.174,-400.978 259.825,-476.193 312,-515.115 325.373,-525.092 342.642,-530.326 358.722,-533.537"/>
<polygon fill="midnightblue" stroke="midnightblue" points="223.974,-363.434 217.689,-354.905 217.284,-365.492 223.974,-363.434"/>
</g>
<!-- Node6 -->
<g id="node14" class="node"><title>Node6</title>
<a xlink:href="namespaceHandler.xhtml#ad04998a7a6ece2486bc441052a57c2d7" target="_top" xlink:title="Main Character creation menu.">
<polygon fill="white" stroke="black" points="312,-493.615 312,-514.615 500,-514.615 500,-493.615 312,-493.615"/>
<text text-anchor="middle" x="406" y="-501.615" font-family="FreeSans.ttf" font-size="10.00">Handler::CharacterCreateMenuMain</text>
</a>
</g>
<!-- Node2&#45;&gt;Node6 -->
<g id="edge16" class="edge"><title>Node2&#45;&gt;Node6</title>
<path fill="none" stroke="midnightblue" d="M225.051,-364.201C239.925,-393.584 269.513,-446.983 312,-475.115 327.164,-485.155 346.456,-490.272 363.612,-493.531"/>
<polygon fill="midnightblue" stroke="midnightblue" points="228.003,-362.277 220.407,-354.89 221.739,-365.401 228.003,-362.277"/>
</g>
<!-- Node7 -->
<g id="node17" class="node"><title>Node7</title>
<a xlink:href="namespaceHandler.xhtml#ab5889a65de2794129b375ec39ae923ae" target="_top" xlink:title="Select a new Character name.">
<polygon fill="white" stroke="black" points="321.5,-453.615 321.5,-474.615 490.5,-474.615 490.5,-453.615 321.5,-453.615"/>
<text text-anchor="middle" x="406" y="-461.615" font-family="FreeSans.ttf" font-size="10.00">Handler::CharacterCreateName</text>
</a>
</g>
<!-- Node2&#45;&gt;Node7 -->
<g id="edge20" class="edge"><title>Node2&#45;&gt;Node7</title>
<path fill="none" stroke="midnightblue" d="M231.879,-362.541C249.55,-383.602 278.713,-416.819 312,-435.115 329.985,-445 352.387,-450.003 370.81,-453.532"/>
<polygon fill="midnightblue" stroke="midnightblue" points="234.561,-360.294 225.466,-354.861 229.188,-364.78 234.561,-360.294"/>
</g>
<!-- Node8 -->
<g id="node20" class="node"><title>Node8</title>
<a xlink:href="namespaceHandler.xhtml#ae5086bcf5857eb572beedd09158c3065" target="_top" xlink:title="Select a new Character sex.">
<polygon fill="white" stroke="black" points="327,-413.615 327,-434.615 485,-434.615 485,-413.615 327,-413.615"/>
<text text-anchor="middle" x="406" y="-421.615" font-family="FreeSans.ttf" font-size="10.00">Handler::CharacterCreateSex</text>
</a>
</g>
<!-- Node2&#45;&gt;Node8 -->
<g id="edge24" class="edge"><title>Node2&#45;&gt;Node8</title>
<path fill="none" stroke="midnightblue" d="M246.699,-360.067C265.079,-371.446 288.91,-385.906 312,-395.115 334.162,-403.954 360.895,-409.159 380.178,-413.6"/>
<polygon fill="midnightblue" stroke="midnightblue" points="248.486,-357.057 238.142,-354.765 244.799,-363.007 248.486,-357.057"/>
</g>
<!-- Node9 -->
<g id="node23" class="node"><title>Node9</title>
<a xlink:href="namespaceHandler.xhtml#a97a198bfc72285b2aca4f36978db715e" target="_top" xlink:title="Main Character deletion confirmation.">
<polygon fill="white" stroke="black" points="318,-373.615 318,-394.615 494,-394.615 494,-373.615 318,-373.615"/>
<text text-anchor="middle" x="406" y="-381.615" font-family="FreeSans.ttf" font-size="10.00">Handler::CharacterDeleteConfirm</text>
</a>
</g>
<!-- Node2&#45;&gt;Node9 -->
<g id="edge28" class="edge"><title>Node2&#45;&gt;Node9</title>
<path fill="none" stroke="midnightblue" d="M285.487,-352.458C318.004,-358.692 354.543,-366.861 378.775,-373.562"/>
<polygon fill="midnightblue" stroke="midnightblue" points="286.017,-348.996 275.542,-350.589 284.724,-355.876 286.017,-348.996"/>
</g>
<!-- Node10 -->
<g id="node26" class="node"><title>Node10</title>
<a xlink:href="namespaceHandler.xhtml#afc470ec6e82b7a9a1560588a368734f9" target="_top" xlink:title="Main Character deletion menu.">
<polygon fill="white" stroke="black" points="312,-333.615 312,-354.615 500,-354.615 500,-333.615 312,-333.615"/>
<text text-anchor="middle" x="406" y="-341.615" font-family="FreeSans.ttf" font-size="10.00">Handler::CharacterDeleteMenuMain</text>
</a>
</g>
<!-- Node2&#45;&gt;Node10 -->
<g id="edge32" class="edge"><title>Node2&#45;&gt;Node10</title>
<path fill="none" stroke="midnightblue" d="M285.8,-337.559C294.337,-337.42 303.146,-337.355 311.935,-337.366"/>
<polygon fill="midnightblue" stroke="midnightblue" points="285.469,-334.065 275.542,-337.767 285.611,-341.064 285.469,-334.065"/>
</g>
<!-- Node11 -->
<g id="node29" class="node"><title>Node11</title>
<a xlink:href="namespaceHandler.xhtml#a02b1b954749641ab646f6548a5360d3b" target="_top" xlink:title="Main Character load menu.">
<polygon fill="white" stroke="black" points="316.5,-293.615 316.5,-314.615 495.5,-314.615 495.5,-293.615 316.5,-293.615"/>
<text text-anchor="middle" x="406" y="-301.615" font-family="FreeSans.ttf" font-size="10.00">Handler::CharacterLoadMenuMain</text>
</a>
</g>
<!-- Node2&#45;&gt;Node11 -->
<g id="edge36" class="edge"><title>Node2&#45;&gt;Node11</title>
<path fill="none" stroke="midnightblue" d="M251,-330.95C271.599,-325.613 298.116,-319.677 323.373,-314.638"/>
<polygon fill="midnightblue" stroke="midnightblue" points="249.858,-327.632 241.102,-333.596 251.666,-334.394 249.858,-327.632"/>
</g>
<!-- Node12 -->
<g id="node32" class="node"><title>Node12</title>
<a xlink:href="namespaceHandler.xhtml#a00bc24564bfd267e0329643c569da1e4" target="_top" xlink:title="Select a new account name.">
<polygon fill="white" stroke="black" points="337.5,-253.615 337.5,-274.615 474.5,-274.615 474.5,-253.615 337.5,-253.615"/>
<text text-anchor="middle" x="406" y="-261.615" font-family="FreeSans.ttf" font-size="10.00">Handler::GetNewAccount</text>
</a>
</g>
<!-- Node2&#45;&gt;Node12 -->
<g id="edge40" class="edge"><title>Node2&#45;&gt;Node12</title>
<path fill="none" stroke="midnightblue" d="M229.094,-326.231C247.631,-310.007 280.505,-287.677 312,-275.115 320.059,-271.901 328.722,-269.167 337.412,-266.927"/>
<polygon fill="midnightblue" stroke="midnightblue" points="226.556,-323.812 221.641,-333.199 231.336,-328.926 226.556,-323.812"/>
</g>
<!-- Node13 -->
<g id="node35" class="node"><title>Node13</title>
<a xlink:href="namespaceHandler.xhtml#a744adadcf407cdb3a9c33365afd5a7c2" target="_top" xlink:title="Create a new account.">
<polygon fill="white" stroke="black" points="335,-213.615 335,-234.615 477,-234.615 477,-213.615 335,-213.615"/>
<text text-anchor="middle" x="406" y="-221.615" font-family="FreeSans.ttf" font-size="10.00">Handler::GetNewPassword</text>
</a>
</g>
<!-- Node2&#45;&gt;Node13 -->
<g id="edge44" class="edge"><title>Node2&#45;&gt;Node13</title>
<path fill="none" stroke="midnightblue" d="M223.257,-324.834C238.844,-299.503 272.522,-256.814 312,-235.115 319.018,-231.257 326.71,-228.143 334.574,-225.689"/>
<polygon fill="midnightblue" stroke="midnightblue" points="220.158,-323.201 218.195,-333.613 226.222,-326.698 220.158,-323.201"/>
</g>
<!-- Node14 -->
<g id="node38" class="node"><title>Node14</title>
<a xlink:href="namespaceHandler.xhtml#adfe13cc9748392348f3941656a1323b6" target="_top" xlink:title="Compare a received password against an existing account.">
<polygon fill="white" stroke="black" points="337.5,-173.615 337.5,-194.615 474.5,-194.615 474.5,-173.615 337.5,-173.615"/>
<text text-anchor="middle" x="406" y="-181.615" font-family="FreeSans.ttf" font-size="10.00">Handler::GetOldPassword</text>
</a>
</g>
<!-- Node2&#45;&gt;Node14 -->
<g id="edge48" class="edge"><title>Node2&#45;&gt;Node14</title>
<path fill="none" stroke="midnightblue" d="M220.015,-323.968C232.474,-290.908 264.008,-226.892 312,-195.115 319.651,-190.049 328.354,-186.236 337.303,-183.462"/>
<polygon fill="midnightblue" stroke="midnightblue" points="216.667,-322.939 216.643,-333.534 223.268,-325.266 216.667,-322.939"/>
</g>
<!-- Node15 -->
<g id="node41" class="node"><title>Node15</title>
<a xlink:href="namespaceHandler.xhtml#ae70e4e50054c729c14493eafefe01b5c" target="_top" xlink:title="Load a character from the account to enter into the game with.">
<polygon fill="white" stroke="black" points="340.5,-133.615 340.5,-154.615 471.5,-154.615 471.5,-133.615 340.5,-133.615"/>
<text text-anchor="middle" x="406" y="-141.615" font-family="FreeSans.ttf" font-size="10.00">Handler::LoadCharacter</text>
</a>
</g>
<!-- Node2&#45;&gt;Node15 -->
<g id="edge52" class="edge"><title>Node2&#45;&gt;Node15</title>
<path fill="none" stroke="midnightblue" d="M217.803,-323.551C227.181,-283.749 254.909,-197.705 312,-155.115 320.292,-148.93 330.08,-144.567 340.155,-141.635"/>
<polygon fill="midnightblue" stroke="midnightblue" points="214.35,-322.96 215.636,-333.476 221.189,-324.453 214.35,-322.96"/>
</g>
<!-- Node16 -->
<g id="node44" class="node"><title>Node16</title>
<a xlink:href="namespaceHandler.xhtml#a44b41bf69fdc6e615a029bea34910191" target="_top" xlink:title="Send initial greeting and request for account name.">
<polygon fill="white" stroke="black" points="346.5,-93.6151 346.5,-114.615 465.5,-114.615 465.5,-93.6151 346.5,-93.6151"/>
<text text-anchor="middle" x="406" y="-101.615" font-family="FreeSans.ttf" font-size="10.00">Handler::LoginScreen</text>
</a>
</g>
<!-- Node2&#45;&gt;Node16 -->
<g id="edge56" class="edge"><title>Node2&#45;&gt;Node16</title>
<path fill="none" stroke="midnightblue" d="M216.179,-323.504C222.596,-277.778 245.358,-169.082 312,-115.115 321.725,-107.24 333.82,-102.263 346.061,-99.3873"/>
<polygon fill="midnightblue" stroke="midnightblue" points="212.702,-323.102 214.909,-333.465 219.646,-323.987 212.702,-323.102"/>
</g>
<!-- Node17 -->
<g id="node47" class="node"><title>Node17</title>
<a xlink:href="classSocketClient.xhtml#a48c79d01b91f2c1553c3b33b26714215" target="_top" xlink:title="Build a SocketClient for a new client connection and set all attributes.">
<polygon fill="white" stroke="black" points="354.5,-53.6151 354.5,-74.6151 457.5,-74.6151 457.5,-53.6151 354.5,-53.6151"/>
<text text-anchor="middle" x="406" y="-61.6151" font-family="FreeSans.ttf" font-size="10.00">SocketClient::New</text>
</a>
</g>
<!-- Node2&#45;&gt;Node17 -->
<g id="edge60" class="edge"><title>Node2&#45;&gt;Node17</title>
<path fill="none" stroke="midnightblue" d="M215.332,-323.292C219.68,-273.672 237.843,-147.854 312,-84.1151 323.641,-74.1096 339.055,-68.7125 354.027,-65.9038"/>
<polygon fill="midnightblue" stroke="midnightblue" points="211.829,-323.195 214.547,-333.435 218.808,-323.735 211.829,-323.195"/>
</g>
<!-- Node24 -->
<g id="node62" class="node"><title>Node24</title>
<a xlink:href="classSocketClient.xhtml#ad4f63c7d906310dc56a1217136047d7f" target="_top" xlink:title="Interpret the command at the front of the queue.">
<polygon fill="white" stroke="black" points="536,-13.6151 536,-34.6151 706,-34.6151 706,-13.6151 536,-13.6151"/>
<text text-anchor="middle" x="621" y="-21.6151" font-family="FreeSans.ttf" font-size="10.00">SocketClient::ProcessCommand</text>
</a>
</g>
<!-- Node2&#45;&gt;Node24 -->
<g id="edge76" class="edge"><title>Node2&#45;&gt;Node24</title>
<path fill="none" stroke="midnightblue" d="M217.729,-323.156C229.248,-260.966 266.254,-79.6076 312,-44.1151 390.151,16.5193 515.59,0.323755 579.967,-13.5825"/>
<polygon fill="midnightblue" stroke="midnightblue" points="214.227,-322.854 215.879,-333.319 221.114,-324.108 214.227,-322.854"/>
</g>
<!-- Node3&#45;&gt;Node2 -->
<g id="edge6" class="edge"><title>Node3&#45;&gt;Node2</title>
<path fill="none" stroke="midnightblue" d="M330.83,-624.484C323.998,-621.631 317.567,-617.9 312,-613.115 229.872,-542.525 216.422,-395.791 214.356,-354.68"/>
<polygon fill="midnightblue" stroke="midnightblue" points="329.758,-627.817 340.353,-627.845 332.088,-621.216 329.758,-627.817"/>
</g>
<!-- Node4&#45;&gt;Node2 -->
<g id="edge10" class="edge"><title>Node4&#45;&gt;Node2</title>
<path fill="none" stroke="midnightblue" d="M327.045,-582.378C321.66,-579.875 316.569,-576.815 312,-573.115 239.863,-514.699 219.141,-392.155 214.909,-354.766"/>
<polygon fill="midnightblue" stroke="midnightblue" points="325.756,-585.632 336.341,-586.079 328.345,-579.128 325.756,-585.632"/>
</g>
<!-- Node5&#45;&gt;Node2 -->
<g id="edge14" class="edge"><title>Node5&#45;&gt;Node2</title>
<path fill="none" stroke="midnightblue" d="M322.505,-539.644C318.818,-537.738 315.291,-535.57 312,-533.115 249.542,-486.521 222.227,-387.918 215.636,-354.754"/>
<polygon fill="midnightblue" stroke="midnightblue" points="321.398,-542.982 331.957,-543.852 324.246,-536.587 321.398,-542.982"/>
</g>
<!-- Node6&#45;&gt;Node2 -->
<g id="edge18" class="edge"><title>Node6&#45;&gt;Node2</title>
<path fill="none" stroke="midnightblue" d="M304.111,-487.46C255.403,-450.138 225.356,-381.591 216.643,-354.697"/>
<polygon fill="midnightblue" stroke="midnightblue" points="302.246,-490.429 312.418,-493.39 306.313,-484.732 302.246,-490.429"/>
</g>
<!-- Node7&#45;&gt;Node2 -->
<g id="edge22" class="edge"><title>Node7&#45;&gt;Node2</title>
<path fill="none" stroke="midnightblue" d="M312.274,-453.265C312.183,-453.215 312.091,-453.165 312,-453.115 267.478,-428.644 230.333,-377.478 218.195,-354.618"/>
<polygon fill="midnightblue" stroke="midnightblue" points="310.564,-456.325 321.087,-457.556 313.628,-450.032 310.564,-456.325"/>
</g>
<!-- Node8&#45;&gt;Node2 -->
<g id="edge26" class="edge"><title>Node8&#45;&gt;Node2</title>
<path fill="none" stroke="midnightblue" d="M317.026,-415.03C315.328,-414.412 313.651,-413.774 312,-413.115 275.681,-398.63 237.53,-371.154 221.641,-355.032"/>
<polygon fill="midnightblue" stroke="midnightblue" points="316.341,-418.492 326.935,-418.348 318.564,-411.854 316.341,-418.492"/>
</g>
<!-- Node9&#45;&gt;Node2 -->
<g id="edge30" class="edge"><title>Node9&#45;&gt;Node2</title>
<path fill="none" stroke="midnightblue" d="M313.29,-371.547C286.894,-366.104 260.167,-359.912 241.102,-354.634"/>
<polygon fill="midnightblue" stroke="midnightblue" points="312.877,-375.034 323.373,-373.593 314.269,-368.174 312.877,-375.034"/>
</g>
<!-- Node10&#45;&gt;Node2 -->
<g id="edge34" class="edge"><title>Node10&#45;&gt;Node2</title>
<path fill="none" stroke="midnightblue" d="M301.802,-350.843C292.848,-350.795 283.99,-350.668 275.542,-350.463"/>
<polygon fill="midnightblue" stroke="midnightblue" points="301.927,-354.343 311.935,-350.864 301.942,-347.343 301.927,-354.343"/>
</g>
<!-- Node11&#45;&gt;Node2 -->
<g id="edge38" class="edge"><title>Node11&#45;&gt;Node2</title>
<path fill="none" stroke="midnightblue" d="M368.793,-317.334C342.353,-324.176 306.238,-331.994 275.542,-337.641"/>
<polygon fill="midnightblue" stroke="midnightblue" points="370.017,-320.63 378.775,-314.668 368.21,-313.867 370.017,-320.63"/>
</g>
<!-- Node12&#45;&gt;Node2 -->
<g id="edge42" class="edge"><title>Node12&#45;&gt;Node2</title>
<path fill="none" stroke="midnightblue" d="M370.389,-276.835C352.449,-280.832 330.612,-285.692 312,-293.115 285.132,-303.831 257.26,-321.657 238.142,-333.465"/>
<polygon fill="midnightblue" stroke="midnightblue" points="371.191,-280.242 380.178,-274.63 369.653,-273.413 371.191,-280.242"/>
</g>
<!-- Node13&#45;&gt;Node2 -->
<g id="edge46" class="edge"><title>Node13&#45;&gt;Node2</title>
<path fill="none" stroke="midnightblue" d="M361.001,-236.666C344.817,-240.091 326.894,-244.929 312,-253.115 274.295,-273.839 241.881,-313.71 225.466,-333.37"/>
<polygon fill="midnightblue" stroke="midnightblue" points="361.694,-240.096 370.81,-234.698 360.317,-233.233 361.694,-240.096"/>
</g>
<!-- Node14&#45;&gt;Node2 -->
<g id="edge50" class="edge"><title>Node14&#45;&gt;Node2</title>
<path fill="none" stroke="midnightblue" d="M353.777,-196.749C339.366,-200.05 324.32,-204.957 312,-213.115 264.504,-244.564 233.127,-307.589 220.407,-333.34"/>
<polygon fill="midnightblue" stroke="midnightblue" points="354.536,-200.166 363.612,-194.699 353.108,-193.313 354.536,-200.166"/>
</g>
<!-- Node15&#45;&gt;Node2 -->
<g id="edge54" class="edge"><title>Node15&#45;&gt;Node2</title>
<path fill="none" stroke="midnightblue" d="M348.819,-156.923C335.787,-160.226 322.657,-165.165 312,-173.115 254.675,-215.879 226.954,-302.455 217.689,-333.325"/>
<polygon fill="midnightblue" stroke="midnightblue" points="349.735,-160.305 358.722,-154.694 348.198,-153.476 349.735,-160.305"/>
</g>
<!-- Node16&#45;&gt;Node2 -->
<g id="edge58" class="edge"><title>Node16&#45;&gt;Node2</title>
<path fill="none" stroke="midnightblue" d="M345.296,-117.145C333.317,-120.471 321.522,-125.404 312,-133.115 244.574,-187.716 222.067,-298.341 215.959,-333.505"/>
<polygon fill="midnightblue" stroke="midnightblue" points="346.464,-120.463 355.356,-114.703 344.813,-113.66 346.464,-120.463"/>
</g>
<!-- Node18 -->
<g id="node49" class="node"><title>Node18</title>
<a xlink:href="classServer.xhtml#a16ea0639731dee10e1a253375b508a02" target="_top" xlink:title="Recovers the server state and re&#45;connects client sockets after a reboot.">
<polygon fill="white" stroke="black" points="556,-93.6151 556,-114.615 686,-114.615 686,-93.6151 556,-93.6151"/>
<text text-anchor="middle" x="621" y="-101.615" font-family="FreeSans.ttf" font-size="10.00">Server::RebootRecovery</text>
</a>
</g>
<!-- Node17&#45;&gt;Node18 -->
<g id="edge62" class="edge"><title>Node17&#45;&gt;Node18</title>
<path fill="none" stroke="midnightblue" d="M467.843,-75.6209C498.275,-81.2826 534.702,-88.0596 564.394,-93.5838"/>
<polygon fill="midnightblue" stroke="midnightblue" points="468.243,-72.1352 457.771,-73.747 466.963,-79.0171 468.243,-72.1352"/>
</g>
<!-- Node21 -->
<g id="node55" class="node"><title>Node21</title>
<a xlink:href="classSocketServer.xhtml#afdbc60c3bc840875d2214b59c6213f63" target="_top" xlink:title="Accept a new connection on the listening port.">
<polygon fill="white" stroke="black" points="561,-53.6151 561,-74.6151 681,-74.6151 681,-53.6151 561,-53.6151"/>
<text text-anchor="middle" x="621" y="-61.6151" font-family="FreeSans.ttf" font-size="10.00">SocketServer::Accept</text>
</a>
</g>
<!-- Node17&#45;&gt;Node21 -->
<g id="edge68" class="edge"><title>Node17&#45;&gt;Node21</title>
<path fill="none" stroke="midnightblue" d="M467.868,-64.1151C497.117,-64.1151 531.901,-64.1151 560.92,-64.1151"/>
<polygon fill="midnightblue" stroke="midnightblue" points="467.771,-60.6152 457.771,-64.1151 467.771,-67.6152 467.771,-60.6152"/>
</g>
<!-- Node19 -->
<g id="node51" class="node"><title>Node19</title>
<a xlink:href="classServer.xhtml#a19a1e493e1fb50a56d9c77332543d565" target="_top" xlink:title="Start the NAMS Server. Responsible for calling all critical boot&#45;time functions such as SocketServer ...">
<polygon fill="white" stroke="black" points="894,-93.6151 894,-114.615 984,-114.615 984,-93.6151 894,-93.6151"/>
<text text-anchor="middle" x="939" y="-101.615" font-family="FreeSans.ttf" font-size="10.00">Server::Startup</text>
</a>
</g>
<!-- Node18&#45;&gt;Node19 -->
<g id="edge64" class="edge"><title>Node18&#45;&gt;Node19</title>
<path fill="none" stroke="midnightblue" d="M696.16,-104.115C757.639,-104.115 842.543,-104.115 893.954,-104.115"/>
<polygon fill="midnightblue" stroke="midnightblue" points="696.119,-100.615 686.119,-104.115 696.119,-107.615 696.119,-100.615"/>
</g>
<!-- Node20 -->
<g id="node53" class="node"><title>Node20</title>
<a xlink:href="main_8cpp.xhtml#ad53223b8779f25caeddb70a3b9172967" target="_top" xlink:title="The default function required to execute the server.">
<polygon fill="white" stroke="black" points="1020.5,-73.6151 1020.5,-94.6151 1061.5,-94.6151 1061.5,-73.6151 1020.5,-73.6151"/>
<text text-anchor="middle" x="1041" y="-81.6151" font-family="FreeSans.ttf" font-size="10.00">main</text>
</a>
</g>
<!-- Node19&#45;&gt;Node20 -->
<g id="edge66" class="edge"><title>Node19&#45;&gt;Node20</title>
<path fill="none" stroke="midnightblue" d="M993.904,-93.3496C1003.36,-91.4946 1012.64,-89.6751 1020.43,-88.1481"/>
<polygon fill="midnightblue" stroke="midnightblue" points="993.175,-89.9258 984.036,-95.2846 994.522,-96.795 993.175,-89.9258"/>
</g>
<!-- Node22 -->
<g id="node57" class="node"><title>Node22</title>
<a xlink:href="classServer.xhtml#a39dbe16fdc8c5f6fbd678c6540fbcd6c" target="_top" xlink:title="Poll all SocketClient objects that are communicating with the associated SocketServer object...">
<polygon fill="white" stroke="black" points="745.5,-53.6151 745.5,-74.6151 854.5,-74.6151 854.5,-53.6151 745.5,-53.6151"/>
<text text-anchor="middle" x="800" y="-61.6151" font-family="FreeSans.ttf" font-size="10.00">Server::PollSockets</text>
</a>
</g>
<!-- Node21&#45;&gt;Node22 -->
<g id="edge70" class="edge"><title>Node21&#45;&gt;Node22</title>
<path fill="none" stroke="midnightblue" d="M691.268,-64.1151C709.284,-64.1151 728.391,-64.1151 745.478,-64.1151"/>
<polygon fill="midnightblue" stroke="midnightblue" points="691.102,-60.6152 681.102,-64.1151 691.102,-67.6152 691.102,-60.6152"/>
</g>
<!-- Node23 -->
<g id="node59" class="node"><title>Node23</title>
<a xlink:href="classServer.xhtml#a50b81aa91d8fdaee6f52c5c5ec987990" target="_top" xlink:title="The core update loop of NAMS. This loop spawns all other subsystem update routines and then sleeps fo...">
<polygon fill="white" stroke="black" points="894.5,-53.6151 894.5,-74.6151 983.5,-74.6151 983.5,-53.6151 894.5,-53.6151"/>
<text text-anchor="middle" x="939" y="-61.6151" font-family="FreeSans.ttf" font-size="10.00">Server::Update</text>
</a>
</g>
<!-- Node22&#45;&gt;Node23 -->
<g id="edge72" class="edge"><title>Node22&#45;&gt;Node23</title>
<path fill="none" stroke="midnightblue" d="M864.574,-64.1151C874.688,-64.1151 884.943,-64.1151 894.474,-64.1151"/>
<polygon fill="midnightblue" stroke="midnightblue" points="864.538,-60.6152 854.538,-64.1151 864.537,-67.6152 864.538,-60.6152"/>
</g>
<!-- Node23&#45;&gt;Node20 -->
<g id="edge74" class="edge"><title>Node23&#45;&gt;Node20</title>
<path fill="none" stroke="midnightblue" d="M993.642,-74.8292C1003.14,-76.6915 1012.47,-78.5205 1020.3,-80.0563"/>
<polygon fill="midnightblue" stroke="midnightblue" points="994.225,-71.377 983.739,-72.8874 992.878,-78.2462 994.225,-71.377"/>
</g>
<!-- Node25 -->
<g id="node64" class="node"><title>Node25</title>
<a xlink:href="classServer.xhtml#a2b4cec469bb99c2a45e49de5ba74d1ae" target="_top" xlink:title="Processes input from all active SocketClient objects.">
<polygon fill="white" stroke="black" points="742,-13.6151 742,-34.6151 858,-34.6151 858,-13.6151 742,-13.6151"/>
<text text-anchor="middle" x="800" y="-21.6151" font-family="FreeSans.ttf" font-size="10.00">Server::ProcessInput</text>
</a>
</g>
<!-- Node24&#45;&gt;Node25 -->
<g id="edge78" class="edge"><title>Node24&#45;&gt;Node25</title>
<path fill="none" stroke="midnightblue" d="M716.249,-24.1151C724.93,-24.1151 733.54,-24.1151 741.748,-24.1151"/>
<polygon fill="midnightblue" stroke="midnightblue" points="716.044,-20.6152 706.044,-24.1151 716.044,-27.6152 716.044,-20.6152"/>
</g>
<!-- Node25&#45;&gt;Node23 -->
<g id="edge80" class="edge"><title>Node25&#45;&gt;Node23</title>
<path fill="none" stroke="midnightblue" d="M846.342,-37.4509C864.529,-42.6847 885.106,-48.606 902.241,-53.5369"/>
<polygon fill="midnightblue" stroke="midnightblue" points="847.099,-34.0267 836.521,-34.6246 845.163,-40.7537 847.099,-34.0267"/>
</g>
</g>
</svg>
        <g id="navigator" transform="translate(0 0)" fill="#404254">
                <rect fill="#f2f5e9" fill-opacity="0.5" stroke="#606060" stroke-width=".5" x="0" y="0" width="60" height="60"/>
                <use id="zoomplus" xlink:href="#zoomPlus" x="17" y="9" onmousedown="handleZoom(evt,'in')"/>
                <use id="zoomminus" xlink:href="#zoomMin" x="42" y="9" onmousedown="handleZoom(evt,'out')"/>
                <use id="reset" xlink:href="#resetDef" x="30" y="36" onmousedown="handleReset()"/>
                <g id="arrowUp" xlink:href="#dirArrow" transform="translate(30 24)" onmousedown="handlePan(0,-1)">
                  <use xlink:href="#rim" fill="#404040">
                        <set attributeName="fill" to="#808080" begin="arrowUp.mouseover" end="arrowUp.mouseout"/>
                  </use>
                  <path fill="none" stroke="white" stroke-width="1.5" d="M0,-3.0v7 M-2.5,-0.5L0,-3.0L2.5,-0.5"/>
                </g>
                <g id="arrowRight" xlink:href="#dirArrow" transform="rotate(90) translate(36 -43)" onmousedown="handlePan(1,0)">
                  <use xlink:href="#rim" fill="#404040">
                        <set attributeName="fill" to="#808080" begin="arrowRight.mouseover" end="arrowRight.mouseout"/>
                  </use>
                  <path fill="none" stroke="white" stroke-width="1.5" d="M0,-3.0v7 M-2.5,-0.5L0,-3.0L2.5,-0.5"/>
                </g>
                <g id="arrowDown" xlink:href="#dirArrow" transform="rotate(180) translate(-30 -48)" onmousedown="handlePan(0,1)">
                  <use xlink:href="#rim" fill="#404040">
                        <set attributeName="fill" to="#808080" begin="arrowDown.mouseover" end="arrowDown.mouseout"/>
                  </use>
                  <path fill="none" stroke="white" stroke-width="1.5" d="M0,-3.0v7 M-2.5,-0.5L0,-3.0L2.5,-0.5"/>
                </g>
                <g id="arrowLeft" xlink:href="#dirArrow" transform="rotate(270) translate(-36 17)" onmousedown="handlePan(-1,0)">
                  <use xlink:href="#rim" fill="#404040">
                        <set attributeName="fill" to="#808080" begin="arrowLeft.mouseover" end="arrowLeft.mouseout"/>
                  </use>
                  <path fill="none" stroke="white" stroke-width="1.5" d="M0,-3.0v7 M-2.5,-0.5L0,-3.0L2.5,-0.5"/>
                </g>
        </g>
</svg>
