<?xml version="1.0" encoding="UTF-8" standalone="no"?>
<!DOCTYPE svg PUBLIC "-//W3C//DTD SVG 1.1//EN"
 "http://www.w3.org/Graphics/SVG/1.1/DTD/svg11.dtd">
<!-- Generated by graphviz version 2.26.3 (20100126.1600)
 -->
<!-- Title: G Pages: 1 -->
<!--zoomable 603 -->
<svg id="main" version="1.1" xmlns="http://www.w3.org/2000/svg" xmlns:xlink="http://www.w3.org/1999/xlink" xml:space="preserve" onload="init(evt)">
        <defs>
                <circle id="rim" cx="0" cy="0" r="7"/>
                <circle id="rim2" cx="0" cy="0" r="3.5"/>
                <g id="zoomPlus">
                        <use xlink:href="#rim" fill="#404040">
                                <set attributeName="fill" to="#808080" begin="zoomplus.mouseover" end="zoomplus.mouseout"/>
                        </use>
                        <path d="M-4,0h8M0,-4v8" fill="none" stroke="white" stroke-width="1.5" pointer-events="none"/>
                </g>
                <g id="zoomMin">
                        <use xlink:href="#rim" fill="#404040">
                                <set attributeName="fill" to="#808080" begin="zoomminus.mouseover" end="zoomminus.mouseout"/>
                        </use>
                        <path d="M-4,0h8" fill="none" stroke="white" stroke-width="1.5" pointer-events="none"/>
                </g>
                <g id="dirArrow">
                        <path fill="none" stroke="white" stroke-width="1.5" d="M0,-3.0v7 M-2.5,-0.5L0,-3.0L2.5,-0.5"/>
                </g>
               <g id="resetDef">
                       <use xlink:href="#rim2" fill="#404040">
                               <set attributeName="fill" to="#808080" begin="reset.mouseover" end="reset.mouseout"/>
                       </use>
               </g>
        </defs>

<script type="text/javascript">
var viewWidth = 1142;
var viewHeight = 603;
var sectionId = 'dynsection-15';
</script>
<script xlink:href="svgpan.js"/>
<svg id="graph" class="graph">
<g id="viewport">
<title>G</title>
<polygon fill="white" stroke="white" points="-4,5 -4,-598.631 1139,-598.631 1139,5 -4,5"/>
<!-- Node1 -->
<g id="node1" class="node"><title>Node1</title>
<polygon fill="#bfbfbf" stroke="black" points="0,-313.131 0,-334.131 188,-334.131 188,-313.131 0,-313.131"/>
<text text-anchor="middle" x="94" y="-321.131" font-family="FreeSans.ttf" font-size="10.00">Handler::CharacterDeleteMenuMain</text>
</g>
<!-- Node2 -->
<g id="node3" class="node"><title>Node2</title>
<a xlink:href="namespaceHandler.xhtml#a139febc000c9d767a620708148e0c888" target="_top" xlink:title="Dispatches the appropriate menu based on client state.">
<polygon fill="white" stroke="black" points="224.5,-313.131 224.5,-334.131 347.5,-334.131 347.5,-313.131 224.5,-313.131"/>
<text text-anchor="middle" x="286" y="-321.131" font-family="FreeSans.ttf" font-size="10.00">Handler::LoginHandler</text>
</a>
</g>
<!-- Node1&#45;&gt;Node2 -->
<g id="edge2" class="edge"><title>Node1&#45;&gt;Node2</title>
<path fill="none" stroke="midnightblue" d="M198.157,-316.902C207.104,-316.95 215.956,-317.077 224.399,-317.282"/>
<polygon fill="midnightblue" stroke="midnightblue" points="198.038,-313.402 188.031,-316.882 198.024,-320.402 198.038,-313.402"/>
</g>
<!-- Node2&#45;&gt;Node1 -->
<g id="edge32" class="edge"><title>Node2&#45;&gt;Node1</title>
<path fill="none" stroke="midnightblue" d="M214.147,-330.187C205.616,-330.327 196.813,-330.391 188.031,-330.379"/>
<polygon fill="midnightblue" stroke="midnightblue" points="214.472,-333.682 224.399,-329.98 214.33,-326.683 214.472,-333.682"/>
</g>
<!-- Node3 -->
<g id="node5" class="node"><title>Node3</title>
<a xlink:href="namespaceHandler.xhtml#a33a19d69ead678af81fbe96907eceaf0" target="_top" xlink:title="Create a new account object, or load an existing one, with a name and password.">
<polygon fill="white" stroke="black" points="412.5,-573.131 412.5,-594.131 543.5,-594.131 543.5,-573.131 412.5,-573.131"/>
<text text-anchor="middle" x="478" y="-581.131" font-family="FreeSans.ttf" font-size="10.00">Handler::AttachAccount</text>
</a>
</g>
<!-- Node2&#45;&gt;Node3 -->
<g id="edge4" class="edge"><title>Node2&#45;&gt;Node3</title>
<path fill="none" stroke="midnightblue" d="M288.673,-344.102C295.275,-389.671 317.015,-498.623 384,-554.631 395.776,-564.477 411.228,-569.829 426.193,-573.064"/>
<polygon fill="midnightblue" stroke="midnightblue" points="292.141,-343.629 287.332,-334.189 285.204,-344.568 292.141,-343.629"/>
</g>
<!-- Node4 -->
<g id="node8" class="node"><title>Node4</title>
<a xlink:href="namespaceHandler.xhtml#a2e4ebf6ed049eb872aa4948d54c4932c" target="_top" xlink:title="Attempt to write a new character to disk after creation was completed.">
<polygon fill="white" stroke="black" points="408.5,-533.131 408.5,-554.131 547.5,-554.131 547.5,-533.131 408.5,-533.131"/>
<text text-anchor="middle" x="478" y="-541.131" font-family="FreeSans.ttf" font-size="10.00">Handler::AttachCharacter</text>
</a>
</g>
<!-- Node2&#45;&gt;Node4 -->
<g id="edge8" class="edge"><title>Node2&#45;&gt;Node4</title>
<path fill="none" stroke="midnightblue" d="M291.179,-344.543C301.122,-384.431 327.147,-470.287 384,-514.631 396.761,-524.584 413.348,-529.866 429.028,-533.078"/>
<polygon fill="midnightblue" stroke="midnightblue" points="294.526,-343.491 288.789,-334.584 287.719,-345.124 294.526,-343.491"/>
</g>
<!-- Node5 -->
<g id="node11" class="node"><title>Node5</title>
<a xlink:href="namespaceHandler.xhtml#a73ed6064f2698dbffb5f4c247a02b661" target="_top" xlink:title="Send initial account interface menu.">
<polygon fill="white" stroke="black" points="404,-493.131 404,-514.131 552,-514.131 552,-493.131 404,-493.131"/>
<text text-anchor="middle" x="478" y="-501.131" font-family="FreeSans.ttf" font-size="10.00">Handler::AccountMenuMain</text>
</a>
</g>
<!-- Node2&#45;&gt;Node5 -->
<g id="edge12" class="edge"><title>Node2&#45;&gt;Node5</title>
<path fill="none" stroke="midnightblue" d="M294.617,-343.976C307.848,-377.051 336.72,-441.202 384,-474.631 398.168,-484.648 416.339,-489.828 432.921,-493.05"/>
<polygon fill="midnightblue" stroke="midnightblue" points="297.775,-342.441 290.867,-334.407 291.257,-344.995 297.775,-342.441"/>
</g>
<!-- Node6 -->
<g id="node14" class="node"><title>Node6</title>
<a xlink:href="namespaceHandler.xhtml#ad04998a7a6ece2486bc441052a57c2d7" target="_top" xlink:title="Main Character creation menu.">
<polygon fill="white" stroke="black" points="384,-453.131 384,-474.131 572,-474.131 572,-453.131 384,-453.131"/>
<text text-anchor="middle" x="478" y="-461.131" font-family="FreeSans.ttf" font-size="10.00">Handler::CharacterCreateMenuMain</text>
</a>
</g>
<!-- Node2&#45;&gt;Node6 -->
<g id="edge16" class="edge"><title>Node2&#45;&gt;Node6</title>
<path fill="none" stroke="midnightblue" d="M299.789,-342.686C316.117,-368.003 345.962,-411.424 384,-434.631 400.522,-444.711 421.371,-449.762 439.234,-453.11"/>
<polygon fill="midnightblue" stroke="midnightblue" points="302.73,-340.788 294.395,-334.248 296.832,-344.559 302.73,-340.788"/>
</g>
<!-- Node7 -->
<g id="node17" class="node"><title>Node7</title>
<a xlink:href="namespaceHandler.xhtml#ab5889a65de2794129b375ec39ae923ae" target="_top" xlink:title="Select a new Character name.">
<polygon fill="white" stroke="black" points="393.5,-413.131 393.5,-434.131 562.5,-434.131 562.5,-413.131 393.5,-413.131"/>
<text text-anchor="middle" x="478" y="-421.131" font-family="FreeSans.ttf" font-size="10.00">Handler::CharacterCreateName</text>
</a>
</g>
<!-- Node2&#45;&gt;Node7 -->
<g id="edge20" class="edge"><title>Node2&#45;&gt;Node7</title>
<path fill="none" stroke="midnightblue" d="M309.589,-341.012C328.142,-357.441 355.536,-380.982 384,-394.631 404.009,-404.226 428.599,-409.249 447.61,-413.123"/>
<polygon fill="midnightblue" stroke="midnightblue" points="311.762,-338.26 301.959,-334.24 307.115,-343.496 311.762,-338.26"/>
</g>
<!-- Node8 -->
<g id="node20" class="node"><title>Node8</title>
<a xlink:href="namespaceHandler.xhtml#ae5086bcf5857eb572beedd09158c3065" target="_top" xlink:title="Select a new Character sex.">
<polygon fill="white" stroke="black" points="399,-373.131 399,-394.131 557,-394.131 557,-373.131 399,-373.131"/>
<text text-anchor="middle" x="478" y="-381.131" font-family="FreeSans.ttf" font-size="10.00">Handler::CharacterCreateSex</text>
</a>
</g>
<!-- Node2&#45;&gt;Node8 -->
<g id="edge24" class="edge"><title>Node2&#45;&gt;Node8</title>
<path fill="none" stroke="midnightblue" d="M337.367,-337.964C352.219,-343.693 368.584,-349.886 384,-354.631 408.398,-362.14 437.209,-367.817 456.443,-373.091"/>
<polygon fill="midnightblue" stroke="midnightblue" points="338.441,-334.627 327.852,-334.287 335.918,-341.157 338.441,-334.627"/>
</g>
<!-- Node9 -->
<g id="node23" class="node"><title>Node9</title>
<a xlink:href="namespaceHandler.xhtml#a97a198bfc72285b2aca4f36978db715e" target="_top" xlink:title="Main Character deletion confirmation.">
<polygon fill="white" stroke="black" points="390,-333.131 390,-354.131 566,-354.131 566,-333.131 390,-333.131"/>
<text text-anchor="middle" x="478" y="-341.131" font-family="FreeSans.ttf" font-size="10.00">Handler::CharacterDeleteConfirm</text>
</a>
</g>
<!-- Node2&#45;&gt;Node9 -->
<g id="edge28" class="edge"><title>Node2&#45;&gt;Node9</title>
<path fill="none" stroke="midnightblue" d="M357.799,-324.554C382.988,-326.765 410.555,-329.881 432.928,-333.113"/>
<polygon fill="midnightblue" stroke="midnightblue" points="357.8,-321.042 347.542,-323.694 357.215,-328.018 357.8,-321.042"/>
</g>
<!-- Node10 -->
<g id="node27" class="node"><title>Node10</title>
<a xlink:href="namespaceHandler.xhtml#a02b1b954749641ab646f6548a5360d3b" target="_top" xlink:title="Main Character load menu.">
<polygon fill="white" stroke="black" points="388.5,-293.131 388.5,-314.131 567.5,-314.131 567.5,-293.131 388.5,-293.131"/>
<text text-anchor="middle" x="478" y="-301.131" font-family="FreeSans.ttf" font-size="10.00">Handler::CharacterLoadMenuMain</text>
</a>
</g>
<!-- Node2&#45;&gt;Node10 -->
<g id="edge34" class="edge"><title>Node2&#45;&gt;Node10</title>
<path fill="none" stroke="midnightblue" d="M340.98,-311.734C355.776,-309.748 372.173,-307.851 388.33,-306.234"/>
<polygon fill="midnightblue" stroke="midnightblue" points="340.437,-308.276 331.015,-313.121 341.403,-315.209 340.437,-308.276"/>
</g>
<!-- Node11 -->
<g id="node30" class="node"><title>Node11</title>
<a xlink:href="namespaceHandler.xhtml#a00bc24564bfd267e0329643c569da1e4" target="_top" xlink:title="Select a new account name.">
<polygon fill="white" stroke="black" points="409.5,-253.131 409.5,-274.131 546.5,-274.131 546.5,-253.131 409.5,-253.131"/>
<text text-anchor="middle" x="478" y="-261.131" font-family="FreeSans.ttf" font-size="10.00">Handler::GetNewAccount</text>
</a>
</g>
<!-- Node2&#45;&gt;Node11 -->
<g id="edge38" class="edge"><title>Node2&#45;&gt;Node11</title>
<path fill="none" stroke="midnightblue" d="M305.21,-307.788C324.704,-296.716 355.926,-283.271 384,-274.631 392.133,-272.128 400.756,-269.828 409.351,-267.822"/>
<polygon fill="midnightblue" stroke="midnightblue" points="303.368,-304.811 296.647,-313.001 307.009,-310.79 303.368,-304.811"/>
</g>
<!-- Node12 -->
<g id="node33" class="node"><title>Node12</title>
<a xlink:href="namespaceHandler.xhtml#a744adadcf407cdb3a9c33365afd5a7c2" target="_top" xlink:title="Create a new account.">
<polygon fill="white" stroke="black" points="407,-213.131 407,-234.131 549,-234.131 549,-213.131 407,-213.131"/>
<text text-anchor="middle" x="478" y="-221.131" font-family="FreeSans.ttf" font-size="10.00">Handler::GetNewPassword</text>
</a>
</g>
<!-- Node2&#45;&gt;Node12 -->
<g id="edge42" class="edge"><title>Node2&#45;&gt;Node12</title>
<path fill="none" stroke="midnightblue" d="M297.558,-305.066C314.65,-284.076 348.492,-251.657 384,-234.631 391.221,-231.168 399.039,-228.301 406.976,-225.986"/>
<polygon fill="midnightblue" stroke="midnightblue" points="294.772,-302.949 291.487,-313.021 300.336,-307.196 294.772,-302.949"/>
</g>
<!-- Node13 -->
<g id="node36" class="node"><title>Node13</title>
<a xlink:href="namespaceHandler.xhtml#adfe13cc9748392348f3941656a1323b6" target="_top" xlink:title="Compare a received password against an existing account.">
<polygon fill="white" stroke="black" points="409.5,-173.131 409.5,-194.131 546.5,-194.131 546.5,-173.131 409.5,-173.131"/>
<text text-anchor="middle" x="478" y="-181.131" font-family="FreeSans.ttf" font-size="10.00">Handler::GetOldPassword</text>
</a>
</g>
<!-- Node2&#45;&gt;Node13 -->
<g id="edge46" class="edge"><title>Node2&#45;&gt;Node13</title>
<path fill="none" stroke="midnightblue" d="M293.563,-303.635C307.646,-274.255 340.455,-221.197 384,-194.631 391.691,-189.938 400.32,-186.336 409.149,-183.656"/>
<polygon fill="midnightblue" stroke="midnightblue" points="290.28,-302.402 289.376,-312.958 296.666,-305.27 290.28,-302.402"/>
</g>
<!-- Node14 -->
<g id="node39" class="node"><title>Node14</title>
<a xlink:href="namespaceHandler.xhtml#ae70e4e50054c729c14493eafefe01b5c" target="_top" xlink:title="Load a character from the account to enter into the game with.">
<polygon fill="white" stroke="black" points="412.5,-133.131 412.5,-154.131 543.5,-154.131 543.5,-133.131 412.5,-133.131"/>
<text text-anchor="middle" x="478" y="-141.131" font-family="FreeSans.ttf" font-size="10.00">Handler::LoadCharacter</text>
</a>
</g>
<!-- Node2&#45;&gt;Node14 -->
<g id="edge50" class="edge"><title>Node2&#45;&gt;Node14</title>
<path fill="none" stroke="midnightblue" d="M290.925,-302.865C301.919,-266.195 331.694,-191.613 384,-154.631 392.447,-148.659 402.315,-144.406 412.422,-141.519"/>
<polygon fill="midnightblue" stroke="midnightblue" points="287.429,-302.372 288.112,-312.945 294.171,-304.254 287.429,-302.372"/>
</g>
<!-- Node15 -->
<g id="node42" class="node"><title>Node15</title>
<a xlink:href="namespaceHandler.xhtml#a44b41bf69fdc6e615a029bea34910191" target="_top" xlink:title="Send initial greeting and request for account name.">
<polygon fill="white" stroke="black" points="418.5,-93.1308 418.5,-114.131 537.5,-114.131 537.5,-93.1308 418.5,-93.1308"/>
<text text-anchor="middle" x="478" y="-101.131" font-family="FreeSans.ttf" font-size="10.00">Handler::LoginScreen</text>
</a>
</g>
<!-- Node2&#45;&gt;Node15 -->
<g id="edge54" class="edge"><title>Node2&#45;&gt;Node15</title>
<path fill="none" stroke="midnightblue" d="M288.976,-302.766C296.905,-259.787 322.295,-162.759 384,-114.631 393.867,-106.935 406.021,-102.031 418.274,-99.1714"/>
<polygon fill="midnightblue" stroke="midnightblue" points="285.514,-302.249 287.29,-312.694 292.415,-303.421 285.514,-302.249"/>
</g>
<!-- Node16 -->
<g id="node45" class="node"><title>Node16</title>
<a xlink:href="classSocketClient.xhtml#a48c79d01b91f2c1553c3b33b26714215" target="_top" xlink:title="Build a SocketClient for a new client connection and set all attributes.">
<polygon fill="white" stroke="black" points="426.5,-53.1308 426.5,-74.1308 529.5,-74.1308 529.5,-53.1308 426.5,-53.1308"/>
<text text-anchor="middle" x="478" y="-61.1308" font-family="FreeSans.ttf" font-size="10.00">SocketClient::New</text>
</a>
</g>
<!-- Node2&#45;&gt;Node16 -->
<g id="edge58" class="edge"><title>Node2&#45;&gt;Node16</title>
<path fill="none" stroke="midnightblue" d="M288.062,-302.822C293.876,-255.913 314.782,-141.505 384,-83.6308 395.776,-73.7846 411.228,-68.4323 426.193,-65.6156"/>
<polygon fill="midnightblue" stroke="midnightblue" points="284.56,-302.649 286.914,-312.979 291.515,-303.436 284.56,-302.649"/>
</g>
<!-- Node23 -->
<g id="node60" class="node"><title>Node23</title>
<a xlink:href="classSocketClient.xhtml#ad4f63c7d906310dc56a1217136047d7f" target="_top" xlink:title="Interpret the command at the front of the queue.">
<polygon fill="white" stroke="black" points="608,-13.1308 608,-34.1308 778,-34.1308 778,-13.1308 608,-13.1308"/>
<text text-anchor="middle" x="693" y="-21.1308" font-family="FreeSans.ttf" font-size="10.00">SocketClient::ProcessCommand</text>
</a>
</g>
<!-- Node2&#45;&gt;Node23 -->
<g id="edge74" class="edge"><title>Node2&#45;&gt;Node23</title>
<path fill="none" stroke="midnightblue" d="M290.189,-302.898C302.588,-243.747 340.936,-76.326 384,-43.6308 462.461,15.9384 586.925,0.473902 651.329,-13.1262"/>
<polygon fill="midnightblue" stroke="midnightblue" points="286.714,-302.42 288.121,-312.921 293.57,-303.835 286.714,-302.42"/>
</g>
<!-- Node3&#45;&gt;Node2 -->
<g id="edge6" class="edge"><title>Node3&#45;&gt;Node2</title>
<path fill="none" stroke="midnightblue" d="M402.183,-583.517C395.614,-580.74 389.418,-577.161 384,-572.631 306.831,-508.108 289.71,-373.317 286.606,-334.144"/>
<polygon fill="midnightblue" stroke="midnightblue" points="401.432,-586.965 412.027,-587.031 403.785,-580.373 401.432,-586.965"/>
</g>
<!-- Node4&#45;&gt;Node2 -->
<g id="edge10" class="edge"><title>Node4&#45;&gt;Node2</title>
<path fill="none" stroke="midnightblue" d="M398.51,-541.392C393.343,-538.992 388.44,-536.094 384,-532.631 316.924,-480.313 292.759,-370.211 287.29,-334.568"/>
<polygon fill="midnightblue" stroke="midnightblue" points="397.467,-544.744 408.053,-545.191 400.056,-538.24 397.467,-544.744"/>
</g>
<!-- Node5&#45;&gt;Node2 -->
<g id="edge14" class="edge"><title>Node5&#45;&gt;Node2</title>
<path fill="none" stroke="midnightblue" d="M394.408,-498.828C390.771,-497.007 387.278,-494.949 384,-492.631 326.283,-451.823 295.999,-365.234 288.112,-334.317"/>
<polygon fill="midnightblue" stroke="midnightblue" points="393.142,-502.094 403.709,-502.874 395.935,-495.675 393.142,-502.094"/>
</g>
<!-- Node6&#45;&gt;Node2 -->
<g id="edge18" class="edge"><title>Node6&#45;&gt;Node2</title>
<path fill="none" stroke="midnightblue" d="M375.941,-447.3C331.273,-415.699 299.433,-358.614 289.376,-334.304"/>
<polygon fill="midnightblue" stroke="midnightblue" points="374.152,-450.313 384.428,-452.89 378.002,-444.467 374.152,-450.313"/>
</g>
<!-- Node7&#45;&gt;Node2 -->
<g id="edge22" class="edge"><title>Node7&#45;&gt;Node2</title>
<path fill="none" stroke="midnightblue" d="M384.282,-412.766C384.188,-412.721 384.094,-412.676 384,-412.631 343.6,-393.258 305.357,-353.96 291.487,-334.24"/>
<polygon fill="midnightblue" stroke="midnightblue" points="382.734,-415.91 393.303,-416.652 385.504,-409.481 382.734,-415.91"/>
</g>
<!-- Node8&#45;&gt;Node2 -->
<g id="edge26" class="edge"><title>Node8&#45;&gt;Node2</title>
<path fill="none" stroke="midnightblue" d="M388.989,-374.123C387.309,-373.635 385.644,-373.137 384,-372.631 351.332,-362.576 314.401,-346.016 296.647,-334.26"/>
<polygon fill="midnightblue" stroke="midnightblue" points="388.185,-377.532 398.755,-376.819 390.047,-370.784 388.185,-377.532"/>
</g>
<!-- Node9&#45;&gt;Node2 -->
<g id="edge30" class="edge"><title>Node9&#45;&gt;Node2</title>
<path fill="none" stroke="midnightblue" d="M379.817,-340.152C362.736,-338.348 345.747,-336.269 331.015,-334.14"/>
<polygon fill="midnightblue" stroke="midnightblue" points="379.564,-343.644 389.868,-341.18 380.276,-336.68 379.564,-343.644"/>
</g>
<!-- Node10&#45;&gt;Node2 -->
<g id="edge36" class="edge"><title>Node10&#45;&gt;Node2</title>
<path fill="none" stroke="midnightblue" d="M422.773,-315.56C399.25,-318.713 371.716,-321.638 347.542,-323.568"/>
<polygon fill="midnightblue" stroke="midnightblue" points="423.505,-318.992 432.928,-314.148 422.541,-312.059 423.505,-318.992"/>
</g>
<!-- Node11&#45;&gt;Node2 -->
<g id="edge40" class="edge"><title>Node11&#45;&gt;Node2</title>
<path fill="none" stroke="midnightblue" d="M446.522,-276.741C428.094,-281.31 404.491,-286.324 384,-292.631 365.207,-298.415 345.003,-306.352 327.852,-312.974"/>
<polygon fill="midnightblue" stroke="midnightblue" points="447.641,-280.067 456.443,-274.17 445.885,-273.291 447.641,-280.067"/>
</g>
<!-- Node12&#45;&gt;Node2 -->
<g id="edge44" class="edge"><title>Node12&#45;&gt;Node2</title>
<path fill="none" stroke="midnightblue" d="M437.365,-236.255C420.282,-239.874 400.57,-244.685 384,-252.631 351.324,-268.3 320.058,-297.004 301.959,-313.021"/>
<polygon fill="midnightblue" stroke="midnightblue" points="438.525,-239.589 447.61,-234.138 437.108,-232.734 438.525,-239.589"/>
</g>
<!-- Node13&#45;&gt;Node2 -->
<g id="edge48" class="edge"><title>Node13&#45;&gt;Node2</title>
<path fill="none" stroke="midnightblue" d="M429.358,-196.141C414.018,-199.477 397.553,-204.362 384,-212.631 341.291,-238.687 308.91,-290.228 294.395,-313.014"/>
<polygon fill="midnightblue" stroke="midnightblue" points="430.122,-199.557 439.234,-194.152 428.74,-192.695 430.122,-199.557"/>
</g>
<!-- Node14&#45;&gt;Node2 -->
<g id="edge52" class="edge"><title>Node14&#45;&gt;Node2</title>
<path fill="none" stroke="midnightblue" d="M423.065,-156.345C409.394,-159.642 395.401,-164.57 384,-172.631 331.603,-209.678 301.815,-284.456 290.867,-312.855"/>
<polygon fill="midnightblue" stroke="midnightblue" points="423.888,-159.748 432.921,-154.212 422.407,-152.907 423.888,-159.748"/>
</g>
<!-- Node15&#45;&gt;Node2 -->
<g id="edge56" class="edge"><title>Node15&#45;&gt;Node2</title>
<path fill="none" stroke="midnightblue" d="M419.029,-116.517C406.521,-119.831 394.07,-124.777 384,-132.631 321.802,-181.143 296.501,-279.341 288.789,-312.678"/>
<polygon fill="midnightblue" stroke="midnightblue" points="420.085,-119.865 429.028,-114.184 418.494,-113.048 420.085,-119.865"/>
</g>
<!-- Node17 -->
<g id="node47" class="node"><title>Node17</title>
<a xlink:href="classServer.xhtml#a16ea0639731dee10e1a253375b508a02" target="_top" xlink:title="Recovers the server state and re&#45;connects client sockets after a reboot.">
<polygon fill="white" stroke="black" points="628,-93.1308 628,-114.131 758,-114.131 758,-93.1308 628,-93.1308"/>
<text text-anchor="middle" x="693" y="-101.131" font-family="FreeSans.ttf" font-size="10.00">Server::RebootRecovery</text>
</a>
</g>
<!-- Node16&#45;&gt;Node17 -->
<g id="edge60" class="edge"><title>Node16&#45;&gt;Node17</title>
<path fill="none" stroke="midnightblue" d="M539.843,-75.1365C570.275,-80.7982 606.702,-87.5753 636.394,-93.0995"/>
<polygon fill="midnightblue" stroke="midnightblue" points="540.243,-71.6509 529.771,-73.2627 538.963,-78.5328 540.243,-71.6509"/>
</g>
<!-- Node20 -->
<g id="node53" class="node"><title>Node20</title>
<a xlink:href="classSocketServer.xhtml#afdbc60c3bc840875d2214b59c6213f63" target="_top" xlink:title="Accept a new connection on the listening port.">
<polygon fill="white" stroke="black" points="633,-53.1308 633,-74.1308 753,-74.1308 753,-53.1308 633,-53.1308"/>
<text text-anchor="middle" x="693" y="-61.1308" font-family="FreeSans.ttf" font-size="10.00">SocketServer::Accept</text>
</a>
</g>
<!-- Node16&#45;&gt;Node20 -->
<g id="edge66" class="edge"><title>Node16&#45;&gt;Node20</title>
<path fill="none" stroke="midnightblue" d="M539.868,-63.6308C569.117,-63.6308 603.901,-63.6308 632.92,-63.6308"/>
<polygon fill="midnightblue" stroke="midnightblue" points="539.771,-60.1309 529.771,-63.6308 539.771,-67.1309 539.771,-60.1309"/>
</g>
<!-- Node18 -->
<g id="node49" class="node"><title>Node18</title>
<a xlink:href="classServer.xhtml#a19a1e493e1fb50a56d9c77332543d565" target="_top" xlink:title="Start the NAMS Server. Responsible for calling all critical boot&#45;time functions such as SocketServer ...">
<polygon fill="white" stroke="black" points="966,-93.1308 966,-114.131 1056,-114.131 1056,-93.1308 966,-93.1308"/>
<text text-anchor="middle" x="1011" y="-101.131" font-family="FreeSans.ttf" font-size="10.00">Server::Startup</text>
</a>
</g>
<!-- Node17&#45;&gt;Node18 -->
<g id="edge62" class="edge"><title>Node17&#45;&gt;Node18</title>
<path fill="none" stroke="midnightblue" d="M768.16,-103.631C829.639,-103.631 914.543,-103.631 965.954,-103.631"/>
<polygon fill="midnightblue" stroke="midnightblue" points="768.119,-100.131 758.119,-103.631 768.119,-107.131 768.119,-100.131"/>
</g>
<!-- Node19 -->
<g id="node51" class="node"><title>Node19</title>
<a xlink:href="main_8cpp.xhtml#ad53223b8779f25caeddb70a3b9172967" target="_top" xlink:title="The default function required to execute the server.">
<polygon fill="white" stroke="black" points="1092.5,-73.1308 1092.5,-94.1308 1133.5,-94.1308 1133.5,-73.1308 1092.5,-73.1308"/>
<text text-anchor="middle" x="1113" y="-81.1308" font-family="FreeSans.ttf" font-size="10.00">main</text>
</a>
</g>
<!-- Node18&#45;&gt;Node19 -->
<g id="edge64" class="edge"><title>Node18&#45;&gt;Node19</title>
<path fill="none" stroke="midnightblue" d="M1065.9,-92.8652C1075.36,-91.0103 1084.64,-89.1907 1092.43,-87.6638"/>
<polygon fill="midnightblue" stroke="midnightblue" points="1065.18,-89.4414 1056.04,-94.8003 1066.52,-96.3106 1065.18,-89.4414"/>
</g>
<!-- Node21 -->
<g id="node55" class="node"><title>Node21</title>
<a xlink:href="classServer.xhtml#a39dbe16fdc8c5f6fbd678c6540fbcd6c" target="_top" xlink:title="Poll all SocketClient objects that are communicating with the associated SocketServer object...">
<polygon fill="white" stroke="black" points="817.5,-53.1308 817.5,-74.1308 926.5,-74.1308 926.5,-53.1308 817.5,-53.1308"/>
<text text-anchor="middle" x="872" y="-61.1308" font-family="FreeSans.ttf" font-size="10.00">Server::PollSockets</text>
</a>
</g>
<!-- Node20&#45;&gt;Node21 -->
<g id="edge68" class="edge"><title>Node20&#45;&gt;Node21</title>
<path fill="none" stroke="midnightblue" d="M763.268,-63.6308C781.284,-63.6308 800.391,-63.6308 817.478,-63.6308"/>
<polygon fill="midnightblue" stroke="midnightblue" points="763.102,-60.1309 753.102,-63.6308 763.102,-67.1309 763.102,-60.1309"/>
</g>
<!-- Node22 -->
<g id="node57" class="node"><title>Node22</title>
<a xlink:href="classServer.xhtml#a50b81aa91d8fdaee6f52c5c5ec987990" target="_top" xlink:title="The core update loop of NAMS. This loop spawns all other subsystem update routines and then sleeps fo...">
<polygon fill="white" stroke="black" points="966.5,-53.1308 966.5,-74.1308 1055.5,-74.1308 1055.5,-53.1308 966.5,-53.1308"/>
<text text-anchor="middle" x="1011" y="-61.1308" font-family="FreeSans.ttf" font-size="10.00">Server::Update</text>
</a>
</g>
<!-- Node21&#45;&gt;Node22 -->
<g id="edge70" class="edge"><title>Node21&#45;&gt;Node22</title>
<path fill="none" stroke="midnightblue" d="M936.574,-63.6308C946.688,-63.6308 956.943,-63.6308 966.474,-63.6308"/>
<polygon fill="midnightblue" stroke="midnightblue" points="936.538,-60.1309 926.538,-63.6308 936.537,-67.1309 936.538,-60.1309"/>
</g>
<!-- Node22&#45;&gt;Node19 -->
<g id="edge72" class="edge"><title>Node22&#45;&gt;Node19</title>
<path fill="none" stroke="midnightblue" d="M1065.64,-74.3449C1075.14,-76.2071 1084.47,-78.0362 1092.3,-79.572"/>
<polygon fill="midnightblue" stroke="midnightblue" points="1066.23,-70.8927 1055.74,-72.4031 1064.88,-77.7619 1066.23,-70.8927"/>
</g>
<!-- Node24 -->
<g id="node62" class="node"><title>Node24</title>
<a xlink:href="classServer.xhtml#a2b4cec469bb99c2a45e49de5ba74d1ae" target="_top" xlink:title="Processes input from all active SocketClient objects.">
<polygon fill="white" stroke="black" points="814,-13.1308 814,-34.1308 930,-34.1308 930,-13.1308 814,-13.1308"/>
<text text-anchor="middle" x="872" y="-21.1308" font-family="FreeSans.ttf" font-size="10.00">Server::ProcessInput</text>
</a>
</g>
<!-- Node23&#45;&gt;Node24 -->
<g id="edge76" class="edge"><title>Node23&#45;&gt;Node24</title>
<path fill="none" stroke="midnightblue" d="M788.249,-23.6308C796.93,-23.6308 805.54,-23.6308 813.748,-23.6308"/>
<polygon fill="midnightblue" stroke="midnightblue" points="788.044,-20.1309 778.044,-23.6308 788.044,-27.1309 788.044,-20.1309"/>
</g>
<!-- Node24&#45;&gt;Node22 -->
<g id="edge78" class="edge"><title>Node24&#45;&gt;Node22</title>
<path fill="none" stroke="midnightblue" d="M918.342,-36.9666C936.529,-42.2004 957.106,-48.1216 974.241,-53.0525"/>
<polygon fill="midnightblue" stroke="midnightblue" points="919.099,-33.5423 908.521,-34.1403 917.163,-40.2693 919.099,-33.5423"/>
</g>
</g>
</svg>
        <g id="navigator" transform="translate(0 0)" fill="#404254">
                <rect fill="#f2f5e9" fill-opacity="0.5" stroke="#606060" stroke-width=".5" x="0" y="0" width="60" height="60"/>
                <use id="zoomplus" xlink:href="#zoomPlus" x="17" y="9" onmousedown="handleZoom(evt,'in')"/>
                <use id="zoomminus" xlink:href="#zoomMin" x="42" y="9" onmousedown="handleZoom(evt,'out')"/>
                <use id="reset" xlink:href="#resetDef" x="30" y="36" onmousedown="handleReset()"/>
                <g id="arrowUp" xlink:href="#dirArrow" transform="translate(30 24)" onmousedown="handlePan(0,-1)">
                  <use xlink:href="#rim" fill="#404040">
                        <set attributeName="fill" to="#808080" begin="arrowUp.mouseover" end="arrowUp.mouseout"/>
                  </use>
                  <path fill="none" stroke="white" stroke-width="1.5" d="M0,-3.0v7 M-2.5,-0.5L0,-3.0L2.5,-0.5"/>
                </g>
                <g id="arrowRight" xlink:href="#dirArrow" transform="rotate(90) translate(36 -43)" onmousedown="handlePan(1,0)">
                  <use xlink:href="#rim" fill="#404040">
                        <set attributeName="fill" to="#808080" begin="arrowRight.mouseover" end="arrowRight.mouseout"/>
                  </use>
                  <path fill="none" stroke="white" stroke-width="1.5" d="M0,-3.0v7 M-2.5,-0.5L0,-3.0L2.5,-0.5"/>
                </g>
                <g id="arrowDown" xlink:href="#dirArrow" transform="rotate(180) translate(-30 -48)" onmousedown="handlePan(0,1)">
                  <use xlink:href="#rim" fill="#404040">
                        <set attributeName="fill" to="#808080" begin="arrowDown.mouseover" end="arrowDown.mouseout"/>
                  </use>
                  <path fill="none" stroke="white" stroke-width="1.5" d="M0,-3.0v7 M-2.5,-0.5L0,-3.0L2.5,-0.5"/>
                </g>
                <g id="arrowLeft" xlink:href="#dirArrow" transform="rotate(270) translate(-36 17)" onmousedown="handlePan(-1,0)">
                  <use xlink:href="#rim" fill="#404040">
                        <set attributeName="fill" to="#808080" begin="arrowLeft.mouseover" end="arrowLeft.mouseout"/>
                  </use>
                  <path fill="none" stroke="white" stroke-width="1.5" d="M0,-3.0v7 M-2.5,-0.5L0,-3.0L2.5,-0.5"/>
                </g>
        </g>
</svg>
