<?xml version="1.0" encoding="UTF-8" standalone="no"?>
<!DOCTYPE svg PUBLIC "-//W3C//DTD SVG 1.1//EN"
 "http://www.w3.org/Graphics/SVG/1.1/DTD/svg11.dtd">
<!-- Generated by graphviz version 2.26.3 (20100126.1600)
 -->
<!-- Title: G Pages: 1 -->
<!--zoomable 319 -->
<svg id="main" version="1.1" xmlns="http://www.w3.org/2000/svg" xmlns:xlink="http://www.w3.org/1999/xlink" xml:space="preserve" onload="init(evt)">
        <defs>
                <circle id="rim" cx="0" cy="0" r="7"/>
                <circle id="rim2" cx="0" cy="0" r="3.5"/>
                <g id="zoomPlus">
                        <use xlink:href="#rim" fill="#404040">
                                <set attributeName="fill" to="#808080" begin="zoomplus.mouseover" end="zoomplus.mouseout"/>
                        </use>
                        <path d="M-4,0h8M0,-4v8" fill="none" stroke="white" stroke-width="1.5" pointer-events="none"/>
                </g>
                <g id="zoomMin">
                        <use xlink:href="#rim" fill="#404040">
                                <set attributeName="fill" to="#808080" begin="zoomminus.mouseover" end="zoomminus.mouseout"/>
                        </use>
                        <path d="M-4,0h8" fill="none" stroke="white" stroke-width="1.5" pointer-events="none"/>
                </g>
                <g id="dirArrow">
                        <path fill="none" stroke="white" stroke-width="1.5" d="M0,-3.0v7 M-2.5,-0.5L0,-3.0L2.5,-0.5"/>
                </g>
               <g id="resetDef">
                       <use xlink:href="#rim2" fill="#404040">
                               <set attributeName="fill" to="#808080" begin="reset.mouseover" end="reset.mouseout"/>
                       </use>
               </g>
        </defs>

<script type="text/javascript">
var viewWidth = 844;
var viewHeight = 319;
var sectionId = 'dynsection-0';
</script>
<script xlink:href="svgpan.js"/>
<svg id="graph" class="graph">
<g id="viewport">
<title>G</title>
<polygon fill="white" stroke="white" points="-4,5 -4,-314.926 841,-314.926 841,5 -4,5"/>
<!-- Node1 -->
<g id="node1" class="node"><title>Node1</title>
<polygon fill="#bfbfbf" stroke="black" points="0,-181.5 0,-202.5 104,-202.5 104,-181.5 0,-181.5"/>
<text text-anchor="middle" x="52" y="-189.5" font-family="FreeSans.ttf" font-size="10.00">Telopt::Handshake</text>
</g>
<!-- Node2 -->
<g id="node3" class="node"><title>Node2</title>
<a xlink:href="classSocketClient.xhtml#aa0badca8f614127e98281995c02cb385" target="_top" xlink:title="Returns the connection state of the client from SOC_STATE.">
<polygon fill="white" stroke="black" points="714.5,-280.5 714.5,-301.5 829.5,-301.5 829.5,-280.5 714.5,-280.5"/>
<text text-anchor="middle" x="772" y="-288.5" font-family="FreeSans.ttf" font-size="10.00">SocketClient::gState</text>
</a>
</g>
<!-- Node1&#45;&gt;Node2 -->
<g id="edge2" class="edge"><title>Node1&#45;&gt;Node2</title>
<path fill="none" stroke="midnightblue" d="M62.4872,-202.703C77.898,-217.652 108.286,-244.268 140,-256 334.533,-327.962 585.77,-312.835 704.345,-299.922"/>
<polygon fill="midnightblue" stroke="midnightblue" points="704.821,-303.39 714.37,-298.8 704.043,-296.434 704.821,-303.39"/>
</g>
<!-- Node3 -->
<g id="node5" class="node"><title>Node3</title>
<a xlink:href="namespaceTelopt.xhtml#a71c731d78947d4c909f93df74950b64c" target="_top" xlink:title="Negotiate requested options.">
<polygon fill="white" stroke="black" points="173,-201.5 173,-222.5 271,-222.5 271,-201.5 173,-201.5"/>
<text text-anchor="middle" x="222" y="-209.5" font-family="FreeSans.ttf" font-size="10.00">Telopt::Negotiate</text>
</a>
</g>
<!-- Node1&#45;&gt;Node3 -->
<g id="edge4" class="edge"><title>Node1&#45;&gt;Node3</title>
<path fill="none" stroke="midnightblue" d="M104.393,-198.164C122.917,-200.343 143.876,-202.809 162.917,-205.049"/>
<polygon fill="midnightblue" stroke="midnightblue" points="162.631,-208.539 172.972,-206.232 163.449,-201.587 162.631,-208.539"/>
</g>
<!-- Node4 -->
<g id="node7" class="node"><title>Node4</title>
<a xlink:href="classSocketClient.xhtml#aaad671b55573cb36a5d0bcc1e4a518fb" target="_top" xlink:title="Returns a pointer to the terminal information of the SocketClient.">
<polygon fill="white" stroke="black" points="369.5,-241.5 369.5,-262.5 498.5,-262.5 498.5,-241.5 369.5,-241.5"/>
<text text-anchor="middle" x="434" y="-249.5" font-family="FreeSans.ttf" font-size="10.00">SocketClient::gTermInfo</text>
</a>
</g>
<!-- Node1&#45;&gt;Node4 -->
<g id="edge32" class="edge"><title>Node1&#45;&gt;Node4</title>
<path fill="none" stroke="midnightblue" d="M70.1731,-202.609C87.4913,-212.14 114.616,-225.592 140,-232 212.915,-250.407 299.029,-254.269 359.143,-254.221"/>
<polygon fill="midnightblue" stroke="midnightblue" points="359.323,-257.721 369.307,-254.176 359.291,-250.721 359.323,-257.721"/>
</g>
<!-- Node7 -->
<g id="node13" class="node"><title>Node7</title>
<a xlink:href="namespaceTelopt.xhtml#a4f56b29258351832660a550c61bda34f" target="_top" xlink:title="Sends a formatted telnet negotiation command to the client.">
<polygon fill="white" stroke="black" points="396.5,-121.5 396.5,-142.5 471.5,-142.5 471.5,-121.5 396.5,-121.5"/>
<text text-anchor="middle" x="434" y="-129.5" font-family="FreeSans.ttf" font-size="10.00">Telopt::Send</text>
</a>
</g>
<!-- Node1&#45;&gt;Node7 -->
<g id="edge38" class="edge"><title>Node1&#45;&gt;Node7</title>
<path fill="none" stroke="midnightblue" d="M104.167,-184.413C155.158,-176.931 234.971,-165.044 304,-154 331.293,-149.633 361.761,-144.491 386.338,-140.277"/>
<polygon fill="midnightblue" stroke="midnightblue" points="387.221,-143.677 396.483,-138.533 386.035,-136.778 387.221,-143.677"/>
</g>
<!-- Node16 -->
<g id="node33" class="node"><title>Node16</title>
<a xlink:href="classSocketClient_1_1TermInfo.xhtml#a05765d3e9e5c8f4d8c94bcea42b74dbe" target="_top" xlink:title="Sets the value of a telnet option.">
<polygon fill="white" stroke="black" points="141,-123.5 141,-144.5 303,-144.5 303,-123.5 141,-123.5"/>
<text text-anchor="middle" x="222" y="-131.5" font-family="FreeSans.ttf" font-size="10.00">SocketClient::TermInfo::sTelopt</text>
</a>
</g>
<!-- Node1&#45;&gt;Node16 -->
<g id="edge34" class="edge"><title>Node1&#45;&gt;Node16</title>
<path fill="none" stroke="midnightblue" d="M78.8026,-181.449C96.1563,-174.742 119.297,-166.03 140,-159 151.56,-155.074 164.132,-151.098 175.879,-147.506"/>
<polygon fill="midnightblue" stroke="midnightblue" points="176.956,-150.836 185.513,-144.588 174.928,-144.137 176.956,-150.836"/>
</g>
<!-- Node17 -->
<g id="node35" class="node"><title>Node17</title>
<a xlink:href="classSocketClient_1_1TermInfo.xhtml#a53781b89d3e22a7ceaa68c96b2b14463" target="_top" xlink:title="Returns the value of a telnet option.">
<polygon fill="white" stroke="black" points="140.5,-83.5 140.5,-104.5 303.5,-104.5 303.5,-83.5 140.5,-83.5"/>
<text text-anchor="middle" x="222" y="-91.5" font-family="FreeSans.ttf" font-size="10.00">SocketClient::TermInfo::gTelopt</text>
</a>
</g>
<!-- Node1&#45;&gt;Node17 -->
<g id="edge36" class="edge"><title>Node1&#45;&gt;Node17</title>
<path fill="none" stroke="midnightblue" d="M60.8306,-181.371C75.4829,-164.45 106.539,-131.515 140,-114 144.317,-111.74 148.895,-109.73 153.595,-107.943"/>
<polygon fill="midnightblue" stroke="midnightblue" points="155.051,-111.144 163.367,-104.579 152.772,-104.525 155.051,-111.144"/>
</g>
<!-- Node3&#45;&gt;Node4 -->
<g id="edge6" class="edge"><title>Node3&#45;&gt;Node4</title>
<path fill="none" stroke="midnightblue" d="M271.17,-221.277C299.977,-226.713 336.735,-233.648 368.034,-239.554"/>
<polygon fill="midnightblue" stroke="midnightblue" points="367.512,-243.017 377.987,-241.432 368.81,-236.138 367.512,-243.017"/>
</g>
<!-- Node5 -->
<g id="node9" class="node"><title>Node5</title>
<a xlink:href="classSocketClient_1_1TermInfo.xhtml#a58debeabe9fe825bc7abbac06df5b216" target="_top" xlink:title="Returns if a telopt has been previously negotiated.">
<polygon fill="white" stroke="black" points="340,-201.5 340,-222.5 528,-222.5 528,-201.5 340,-201.5"/>
<text text-anchor="middle" x="434" y="-209.5" font-family="FreeSans.ttf" font-size="10.00">SocketClient::TermInfo::gNegotiated</text>
</a>
</g>
<!-- Node3&#45;&gt;Node5 -->
<g id="edge8" class="edge"><title>Node3&#45;&gt;Node5</title>
<path fill="none" stroke="midnightblue" d="M271.17,-212C288.725,-212 309.231,-212 329.656,-212"/>
<polygon fill="midnightblue" stroke="midnightblue" points="329.663,-215.5 339.663,-212 329.663,-208.5 329.663,-215.5"/>
</g>
<!-- Node6 -->
<g id="node11" class="node"><title>Node6</title>
<a xlink:href="classSocketClient_1_1TermInfo.xhtml#aa576f2ec6f9de8d4160ccee6cbd1dc34" target="_top" xlink:title="Sets if a telopt has been previously negotiated.">
<polygon fill="white" stroke="black" points="340,-161.5 340,-182.5 528,-182.5 528,-161.5 340,-161.5"/>
<text text-anchor="middle" x="434" y="-169.5" font-family="FreeSans.ttf" font-size="10.00">SocketClient::TermInfo::sNegotiated</text>
</a>
</g>
<!-- Node3&#45;&gt;Node6 -->
<g id="edge10" class="edge"><title>Node3&#45;&gt;Node6</title>
<path fill="none" stroke="midnightblue" d="M271.17,-202.723C299.977,-197.287 336.735,-190.352 368.034,-184.446"/>
<polygon fill="midnightblue" stroke="midnightblue" points="368.81,-187.862 377.987,-182.568 367.512,-180.983 368.81,-187.862"/>
</g>
<!-- Node3&#45;&gt;Node7 -->
<g id="edge12" class="edge"><title>Node3&#45;&gt;Node7</title>
<path fill="none" stroke="midnightblue" d="M270.446,-201.386C281.897,-197.769 293.749,-193.056 304,-187 323.213,-175.649 320.315,-162.512 340,-152 354.126,-144.457 370.872,-139.759 386.288,-136.832"/>
<polygon fill="midnightblue" stroke="midnightblue" points="386.913,-140.277 396.186,-135.153 385.742,-133.375 386.913,-140.277"/>
</g>
<!-- Node8 -->
<g id="node15" class="node"><title>Node8</title>
<a xlink:href="classSocketClient.xhtml#a6268f3d184970ec0076da657c39d2e80" target="_top" xlink:title="Process data from the client&#39;s send buffer and transmit it via the socket.">
<polygon fill="white" stroke="black" points="564.5,-121.5 564.5,-142.5 671.5,-142.5 671.5,-121.5 564.5,-121.5"/>
<text text-anchor="middle" x="618" y="-129.5" font-family="FreeSans.ttf" font-size="10.00">SocketClient::Send</text>
</a>
</g>
<!-- Node7&#45;&gt;Node8 -->
<g id="edge14" class="edge"><title>Node7&#45;&gt;Node8</title>
<path fill="none" stroke="midnightblue" d="M471.679,-132C495.359,-132 526.52,-132 553.998,-132"/>
<polygon fill="midnightblue" stroke="midnightblue" points="554.326,-135.5 564.326,-132 554.326,-128.5 554.326,-135.5"/>
</g>
<!-- Node8&#45;&gt;Node2 -->
<g id="edge20" class="edge"><title>Node8&#45;&gt;Node2</title>
<path fill="none" stroke="midnightblue" d="M621.999,-142.868C632.164,-168.982 661.524,-235.703 708,-271 710.347,-272.782 712.855,-274.407 715.47,-275.889"/>
<polygon fill="midnightblue" stroke="midnightblue" points="714.171,-279.15 724.692,-280.396 717.244,-272.861 714.171,-279.15"/>
</g>
<!-- Node9 -->
<g id="node17" class="node"><title>Node9</title>
<a xlink:href="classSocket.xhtml#a508457b48e6296d1e86c7cc72af65948" target="_top" xlink:title="Return if the Socket is valid for use.">
<polygon fill="white" stroke="black" points="733,-240.5 733,-261.5 811,-261.5 811,-240.5 733,-240.5"/>
<text text-anchor="middle" x="772" y="-248.5" font-family="FreeSans.ttf" font-size="10.00">Socket::Valid</text>
</a>
</g>
<!-- Node8&#45;&gt;Node9 -->
<g id="edge16" class="edge"><title>Node8&#45;&gt;Node9</title>
<path fill="none" stroke="midnightblue" d="M624.803,-142.655C638.245,-162.862 670.207,-206.886 708,-231 712.723,-234.013 717.932,-236.601 723.277,-238.815"/>
<polygon fill="midnightblue" stroke="midnightblue" points="722.377,-242.215 732.97,-242.411 724.812,-235.652 722.377,-242.215"/>
</g>
<!-- Node10 -->
<g id="node19" class="node"><title>Node10</title>
<a xlink:href="classSocket.xhtml#a45d3aa99d71b868921543a4708471f82" target="_top" xlink:title="Returns the file descriptor associated to the Socket.">
<polygon fill="white" stroke="black" points="716.5,-200.5 716.5,-221.5 827.5,-221.5 827.5,-200.5 716.5,-200.5"/>
<text text-anchor="middle" x="772" y="-208.5" font-family="FreeSans.ttf" font-size="10.00">Socket::gDescriptor</text>
</a>
</g>
<!-- Node8&#45;&gt;Node10 -->
<g id="edge18" class="edge"><title>Node8&#45;&gt;Node10</title>
<path fill="none" stroke="midnightblue" d="M631.624,-142.678C648.663,-155.608 679.116,-177.346 708,-191 712.618,-193.183 717.532,-195.205 722.507,-197.057"/>
<polygon fill="midnightblue" stroke="midnightblue" points="721.489,-200.409 732.084,-200.408 723.8,-193.802 721.489,-200.409"/>
</g>
<!-- Node11 -->
<g id="node22" class="node"><title>Node11</title>
<a xlink:href="classSocketClient.xhtml#a56e10cbe469179d7d7bc18eae6ca351c" target="_top" xlink:title="Returns the Account object associated to this SocketClient.">
<polygon fill="white" stroke="black" points="708,-160.5 708,-181.5 836,-181.5 836,-160.5 708,-160.5"/>
<text text-anchor="middle" x="772" y="-168.5" font-family="FreeSans.ttf" font-size="10.00">SocketClient::gAccount</text>
</a>
</g>
<!-- Node8&#45;&gt;Node11 -->
<g id="edge22" class="edge"><title>Node8&#45;&gt;Node11</title>
<path fill="none" stroke="midnightblue" d="M659.675,-142.554C678.421,-147.301 700.733,-152.952 720.513,-157.961"/>
<polygon fill="midnightblue" stroke="midnightblue" points="719.739,-161.375 730.292,-160.438 721.457,-154.59 719.739,-161.375"/>
</g>
<!-- Node12 -->
<g id="node24" class="node"><title>Node12</title>
<a xlink:href="classSocket.xhtml#adc72a37934a4f2d10f6ae8fc94bb4ca7" target="_top" xlink:title="Returns the hostname associated to the Socket.">
<polygon fill="white" stroke="black" points="716,-120.5 716,-141.5 828,-141.5 828,-120.5 716,-120.5"/>
<text text-anchor="middle" x="772" y="-128.5" font-family="FreeSans.ttf" font-size="10.00">Socket::gHostname</text>
</a>
</g>
<!-- Node8&#45;&gt;Node12 -->
<g id="edge24" class="edge"><title>Node8&#45;&gt;Node12</title>
<path fill="none" stroke="midnightblue" d="M671.862,-131.65C682.753,-131.58 694.324,-131.504 705.588,-131.431"/>
<polygon fill="midnightblue" stroke="midnightblue" points="705.84,-134.93 715.817,-131.365 705.794,-127.93 705.84,-134.93"/>
</g>
<!-- Node13 -->
<g id="node26" class="node"><title>Node13</title>
<a xlink:href="classSocket.xhtml#a7d51c27fcddb7bddf1a3beb0be3c5abe" target="_top" xlink:title="Returns the Server object associated to this SocketServer.">
<polygon fill="white" stroke="black" points="725.5,-80.5 725.5,-101.5 818.5,-101.5 818.5,-80.5 725.5,-80.5"/>
<text text-anchor="middle" x="772" y="-88.5" font-family="FreeSans.ttf" font-size="10.00">Socket::gServer</text>
</a>
</g>
<!-- Node8&#45;&gt;Node13 -->
<g id="edge26" class="edge"><title>Node8&#45;&gt;Node13</title>
<path fill="none" stroke="midnightblue" d="M657.659,-121.441C677.508,-116.157 701.725,-109.709 722.754,-104.111"/>
<polygon fill="midnightblue" stroke="midnightblue" points="723.713,-107.478 732.476,-101.523 721.912,-100.713 723.713,-107.478"/>
</g>
<!-- Node14 -->
<g id="node28" class="node"><title>Node14</title>
<a xlink:href="classSocket.xhtml#a688f0d2182f7ca098de3f76156efad0a" target="_top" xlink:title="Increment the total count of bytes sent by the socket.">
<polygon fill="white" stroke="black" points="716.5,-40.5 716.5,-61.5 827.5,-61.5 827.5,-40.5 716.5,-40.5"/>
<text text-anchor="middle" x="772" y="-48.5" font-family="FreeSans.ttf" font-size="10.00">Socket::aBytesSent</text>
</a>
</g>
<!-- Node8&#45;&gt;Node14 -->
<g id="edge28" class="edge"><title>Node8&#45;&gt;Node14</title>
<path fill="none" stroke="midnightblue" d="M630.971,-121.394C647.825,-108.054 678.585,-85.1824 708,-71 712.601,-68.7818 717.504,-66.7364 722.472,-64.8699"/>
<polygon fill="midnightblue" stroke="midnightblue" points="723.77,-68.1236 732.041,-61.5023 721.446,-61.5206 723.77,-68.1236"/>
</g>
<!-- Node15 -->
<g id="node30" class="node"><title>Node15</title>
<a xlink:href="classSocket.xhtml#a3bb9f40d6e5f32cfa960a86323322c0c" target="_top" xlink:title="Returns the number of bytes sent by the Socket.">
<polygon fill="white" stroke="black" points="716.5,-0.5 716.5,-21.5 827.5,-21.5 827.5,-0.5 716.5,-0.5"/>
<text text-anchor="middle" x="772" y="-8.5" font-family="FreeSans.ttf" font-size="10.00">Socket::gBytesSent</text>
</a>
</g>
<!-- Node8&#45;&gt;Node15 -->
<g id="edge30" class="edge"><title>Node8&#45;&gt;Node15</title>
<path fill="none" stroke="midnightblue" d="M624.542,-121.443C637.769,-100.966 669.712,-55.6989 708,-31 711.118,-28.9886 714.452,-27.168 717.899,-25.5219"/>
<polygon fill="midnightblue" stroke="midnightblue" points="719.386,-28.6932 727.22,-21.5609 716.648,-22.2508 719.386,-28.6932"/>
</g>
</g>
</svg>
        <g id="navigator" transform="translate(0 0)" fill="#404254">
                <rect fill="#f2f5e9" fill-opacity="0.5" stroke="#606060" stroke-width=".5" x="0" y="0" width="60" height="60"/>
                <use id="zoomplus" xlink:href="#zoomPlus" x="17" y="9" onmousedown="handleZoom(evt,'in')"/>
                <use id="zoomminus" xlink:href="#zoomMin" x="42" y="9" onmousedown="handleZoom(evt,'out')"/>
                <use id="reset" xlink:href="#resetDef" x="30" y="36" onmousedown="handleReset()"/>
                <g id="arrowUp" xlink:href="#dirArrow" transform="translate(30 24)" onmousedown="handlePan(0,-1)">
                  <use xlink:href="#rim" fill="#404040">
                        <set attributeName="fill" to="#808080" begin="arrowUp.mouseover" end="arrowUp.mouseout"/>
                  </use>
                  <path fill="none" stroke="white" stroke-width="1.5" d="M0,-3.0v7 M-2.5,-0.5L0,-3.0L2.5,-0.5"/>
                </g>
                <g id="arrowRight" xlink:href="#dirArrow" transform="rotate(90) translate(36 -43)" onmousedown="handlePan(1,0)">
                  <use xlink:href="#rim" fill="#404040">
                        <set attributeName="fill" to="#808080" begin="arrowRight.mouseover" end="arrowRight.mouseout"/>
                  </use>
                  <path fill="none" stroke="white" stroke-width="1.5" d="M0,-3.0v7 M-2.5,-0.5L0,-3.0L2.5,-0.5"/>
                </g>
                <g id="arrowDown" xlink:href="#dirArrow" transform="rotate(180) translate(-30 -48)" onmousedown="handlePan(0,1)">
                  <use xlink:href="#rim" fill="#404040">
                        <set attributeName="fill" to="#808080" begin="arrowDown.mouseover" end="arrowDown.mouseout"/>
                  </use>
                  <path fill="none" stroke="white" stroke-width="1.5" d="M0,-3.0v7 M-2.5,-0.5L0,-3.0L2.5,-0.5"/>
                </g>
                <g id="arrowLeft" xlink:href="#dirArrow" transform="rotate(270) translate(-36 17)" onmousedown="handlePan(-1,0)">
                  <use xlink:href="#rim" fill="#404040">
                        <set attributeName="fill" to="#808080" begin="arrowLeft.mouseover" end="arrowLeft.mouseout"/>
                  </use>
                  <path fill="none" stroke="white" stroke-width="1.5" d="M0,-3.0v7 M-2.5,-0.5L0,-3.0L2.5,-0.5"/>
                </g>
        </g>
</svg>
