<?xml version="1.0" encoding="UTF-8" standalone="no"?>
<!DOCTYPE svg PUBLIC "-//W3C//DTD SVG 1.1//EN"
 "http://www.w3.org/Graphics/SVG/1.1/DTD/svg11.dtd">
<!-- Generated by graphviz version 2.26.3 (20100126.1600)
 -->
<!-- Title: Utils::iFile Pages: 1 -->
<svg width="840pt" height="66pt"
 viewBox="0.00 0.00 840.00 66.00" xmlns="http://www.w3.org/2000/svg" xmlns:xlink="http://www.w3.org/1999/xlink">
<g id="graph1" class="graph" transform="scale(1 1) rotate(0) translate(4 62)">
<title>Utils::iFile</title>
<polygon fill="white" stroke="white" points="-4,5 -4,-62 837,-62 837,5 -4,5"/>
<!-- Node1 -->
<g id="node1" class="node"><title>Node1</title>
<polygon fill="#bfbfbf" stroke="black" points="0.5,-19 0.5,-39 61.5,-39 61.5,-19 0.5,-19"/>
<text text-anchor="middle" x="31" y="-26" font-family="FreeSans.ttf" font-size="10.00">Utils::iFile</text>
</g>
<!-- Node2 -->
<g id="node3" class="node"><title>Node2</title>
<a xlink:href="classCommand.xhtml#a6b8eed27f76619d07effd72372a4be48" target="_top" xlink:title="Load a plugin command from CFG_DAT_DIR_OBJ.">
<polygon fill="white" stroke="black" points="98.5,-19 98.5,-39 191.5,-39 191.5,-19 98.5,-19"/>
<text text-anchor="middle" x="145" y="-26" font-family="FreeSans.ttf" font-size="10.00">Command::New</text>
</a>
</g>
<!-- Node1&#45;&gt;Node2 -->
<g id="edge2" class="edge"><title>Node1&#45;&gt;Node2</title>
<path fill="none" stroke="midnightblue" d="M71.7774,-29C80.4327,-29 89.6324,-29 98.4828,-29"/>
<polygon fill="midnightblue" stroke="midnightblue" points="71.5499,-25.5001 61.5499,-29 71.5499,-32.5001 71.5499,-25.5001"/>
</g>
<!-- Node3 -->
<g id="node5" class="node"><title>Node3</title>
<a xlink:href="namespaceServer.xhtml#ac2e1d14caee54a38a89c2394abe6e5a5" target="_top" xlink:title="Search all subfolders of CFG_DAT_DIR_COMMAND and call Command::New() to load each file found to memor...">
<polygon fill="white" stroke="black" points="229.5,-38 229.5,-58 362.5,-58 362.5,-38 229.5,-38"/>
<text text-anchor="middle" x="296" y="-45" font-family="FreeSans.ttf" font-size="10.00">Server::LoadCommands</text>
</a>
</g>
<!-- Node2&#45;&gt;Node3 -->
<g id="edge4" class="edge"><title>Node2&#45;&gt;Node3</title>
<path fill="none" stroke="midnightblue" d="M201.573,-36.1184C210.635,-37.2586 220.085,-38.4478 229.355,-39.6143"/>
<polygon fill="midnightblue" stroke="midnightblue" points="201.896,-32.6316 191.537,-34.8557 201.022,-39.5768 201.896,-32.6316"/>
</g>
<!-- Node6 -->
<g id="node11" class="node"><title>Node6</title>
<a xlink:href="namespaceServer.xhtml#a4073e768d93ce18c25cb5996f4cd3729" target="_top" xlink:title="Reloads a Command Plugin.">
<polygon fill="white" stroke="black" points="228,-0 228,-20 364,-20 364,-0 228,-0"/>
<text text-anchor="middle" x="296" y="-7" font-family="FreeSans.ttf" font-size="10.00">Server::ReloadCommand</text>
</a>
</g>
<!-- Node2&#45;&gt;Node6 -->
<g id="edge10" class="edge"><title>Node2&#45;&gt;Node6</title>
<path fill="none" stroke="midnightblue" d="M201.484,-21.8928C210.121,-20.806 219.113,-19.6745 227.967,-18.5604"/>
<polygon fill="midnightblue" stroke="midnightblue" points="201.022,-18.4232 191.537,-23.1443 201.896,-25.3684 201.022,-18.4232"/>
</g>
<!-- Node4 -->
<g id="node7" class="node"><title>Node4</title>
<a xlink:href="namespaceServer.xhtml#a19a1e493e1fb50a56d9c77332543d565" target="_top" xlink:title="Start the NAMS Server. Responsible for calling all critical boot&#45;time functions such as SocketServer ...">
<polygon fill="white" stroke="black" points="521,-38 521,-58 611,-58 611,-38 521,-38"/>
<text text-anchor="middle" x="566" y="-45" font-family="FreeSans.ttf" font-size="10.00">Server::Startup</text>
</a>
</g>
<!-- Node3&#45;&gt;Node4 -->
<g id="edge6" class="edge"><title>Node3&#45;&gt;Node4</title>
<path fill="none" stroke="midnightblue" d="M372.747,-48C420.546,-48 480.4,-48 520.73,-48"/>
<polygon fill="midnightblue" stroke="midnightblue" points="372.742,-44.5001 362.742,-48 372.742,-51.5001 372.742,-44.5001"/>
</g>
<!-- Node5 -->
<g id="node9" class="node"><title>Node5</title>
<a xlink:href="main_8cpp.xhtml#ad53223b8779f25caeddb70a3b9172967" target="_top" xlink:title="The default function required to execute the server.">
<polygon fill="white" stroke="black" points="790.5,-19 790.5,-39 831.5,-39 831.5,-19 790.5,-19"/>
<text text-anchor="middle" x="811" y="-26" font-family="FreeSans.ttf" font-size="10.00">main</text>
</a>
</g>
<!-- Node4&#45;&gt;Node5 -->
<g id="edge8" class="edge"><title>Node4&#45;&gt;Node5</title>
<path fill="none" stroke="midnightblue" d="M621.262,-43.7143C674.888,-39.5556 753.419,-33.4654 790.355,-30.6011"/>
<polygon fill="midnightblue" stroke="midnightblue" points="620.922,-40.2302 611.222,-44.493 621.463,-47.2092 620.922,-40.2302"/>
</g>
<!-- Node7 -->
<g id="node13" class="node"><title>Node7</title>
<a xlink:href="classEvent.xhtml#ae00620af2a424d3d0041676e76b9303c" target="_top" xlink:title="Execute the function stored within the Event object.">
<polygon fill="white" stroke="black" points="400.5,-0 400.5,-20 467.5,-20 467.5,-0 400.5,-0"/>
<text text-anchor="middle" x="434" y="-7" font-family="FreeSans.ttf" font-size="10.00">Event::Run</text>
</a>
</g>
<!-- Node6&#45;&gt;Node7 -->
<g id="edge12" class="edge"><title>Node6&#45;&gt;Node7</title>
<path fill="none" stroke="midnightblue" d="M374.232,-10C383.434,-10 392.413,-10 400.498,-10"/>
<polygon fill="midnightblue" stroke="midnightblue" points="374.191,-6.5001 364.191,-10 374.191,-13.5001 374.191,-6.5001"/>
</g>
<!-- Node8 -->
<g id="node15" class="node"><title>Node8</title>
<a xlink:href="namespaceServer.xhtml#a266931bde9b1955346955140986d2b00" target="_top" xlink:title="Process any scheduled events tied to the Server.">
<polygon fill="white" stroke="black" points="504,-0 504,-20 628,-20 628,-0 504,-0"/>
<text text-anchor="middle" x="566" y="-7" font-family="FreeSans.ttf" font-size="10.00">Server::ProcessEvents</text>
</a>
</g>
<!-- Node7&#45;&gt;Node8 -->
<g id="edge14" class="edge"><title>Node7&#45;&gt;Node8</title>
<path fill="none" stroke="midnightblue" d="M477.895,-10C486.245,-10 495.128,-10 503.919,-10"/>
<polygon fill="midnightblue" stroke="midnightblue" points="477.651,-6.5001 467.651,-10 477.651,-13.5001 477.651,-6.5001"/>
</g>
<!-- Node9 -->
<g id="node17" class="node"><title>Node9</title>
<a xlink:href="namespaceServer.xhtml#a50b81aa91d8fdaee6f52c5c5ec987990" target="_top" xlink:title="The core update loop of NAMS. This loop spawns all other subsystem update routines and then sleeps fo...">
<polygon fill="white" stroke="black" points="664.5,-0 664.5,-20 753.5,-20 753.5,-0 664.5,-0"/>
<text text-anchor="middle" x="709" y="-7" font-family="FreeSans.ttf" font-size="10.00">Server::Update</text>
</a>
</g>
<!-- Node8&#45;&gt;Node9 -->
<g id="edge16" class="edge"><title>Node8&#45;&gt;Node9</title>
<path fill="none" stroke="midnightblue" d="M638.52,-10C647.239,-10 655.937,-10 664.097,-10"/>
<polygon fill="midnightblue" stroke="midnightblue" points="638.306,-6.5001 628.306,-10 638.306,-13.5001 638.306,-6.5001"/>
</g>
<!-- Node9&#45;&gt;Node5 -->
<g id="edge18" class="edge"><title>Node9&#45;&gt;Node5</title>
<path fill="none" stroke="midnightblue" d="M763.642,-20.1784C773.139,-21.9475 782.468,-23.6852 790.3,-25.1442"/>
<polygon fill="midnightblue" stroke="midnightblue" points="764.211,-16.7242 753.739,-18.3337 762.929,-23.6058 764.211,-16.7242"/>
</g>
</g>
</svg>
