<?xml version="1.0" encoding="UTF-8" standalone="no"?>
<!DOCTYPE svg PUBLIC "-//W3C//DTD SVG 1.1//EN"
 "http://www.w3.org/Graphics/SVG/1.1/DTD/svg11.dtd">
<!-- Generated by graphviz version 2.26.3 (20100126.1600)
 -->
<!-- Title: G Pages: 1 -->
<!--zoomable 668 -->
<svg id="main" version="1.1" xmlns="http://www.w3.org/2000/svg" xmlns:xlink="http://www.w3.org/1999/xlink" xml:space="preserve" onload="init(evt)">
        <defs>
                <circle id="rim" cx="0" cy="0" r="7"/>
                <circle id="rim2" cx="0" cy="0" r="3.5"/>
                <g id="zoomPlus">
                        <use xlink:href="#rim" fill="#404040">
                                <set attributeName="fill" to="#808080" begin="zoomplus.mouseover" end="zoomplus.mouseout"/>
                        </use>
                        <path d="M-4,0h8M0,-4v8" fill="none" stroke="white" stroke-width="1.5" pointer-events="none"/>
                </g>
                <g id="zoomMin">
                        <use xlink:href="#rim" fill="#404040">
                                <set attributeName="fill" to="#808080" begin="zoomminus.mouseover" end="zoomminus.mouseout"/>
                        </use>
                        <path d="M-4,0h8" fill="none" stroke="white" stroke-width="1.5" pointer-events="none"/>
                </g>
                <g id="dirArrow">
                        <path fill="none" stroke="white" stroke-width="1.5" d="M0,-3.0v7 M-2.5,-0.5L0,-3.0L2.5,-0.5"/>
                </g>
               <g id="resetDef">
                       <use xlink:href="#rim2" fill="#404040">
                               <set attributeName="fill" to="#808080" begin="reset.mouseover" end="reset.mouseout"/>
                       </use>
               </g>
        </defs>

<script type="text/javascript">
var viewWidth = 1272;
var viewHeight = 668;
var sectionId = 'dynsection-29';
</script>
<script xlink:href="svgpan.js"/>
<svg id="graph" class="graph">
<g id="viewport">
<title>G</title>
<polygon fill="white" stroke="white" points="-4,5 -4,-664 1269,-664 1269,5 -4,5"/>
<!-- Node1 -->
<g id="node1" class="node"><title>Node1</title>
<polygon fill="#bfbfbf" stroke="black" points="0.5,-59.5 0.5,-80.5 129.5,-80.5 129.5,-59.5 0.5,-59.5"/>
<text text-anchor="middle" x="65" y="-67.5" font-family="FreeSans.ttf" font-size="10.00">Handler::FindCommand</text>
</g>
<!-- Node2 -->
<g id="node3" class="node"><title>Node2</title>
<a xlink:href="namespaceHandler.xhtml#a33a19d69ead678af81fbe96907eceaf0" target="_top" xlink:title="Create a new account object, or load an existing one, with a name and password.">
<polygon fill="white" stroke="black" points="182.5,-358.5 182.5,-379.5 313.5,-379.5 313.5,-358.5 182.5,-358.5"/>
<text text-anchor="middle" x="248" y="-366.5" font-family="FreeSans.ttf" font-size="10.00">Handler::AttachAccount</text>
</a>
</g>
<!-- Node1&#45;&gt;Node2 -->
<g id="edge2" class="edge"><title>Node1&#45;&gt;Node2</title>
<path fill="none" stroke="midnightblue" d="M76.9157,-89.4689C112.11,-146.973 214.808,-314.768 241.565,-358.486"/>
<polygon fill="midnightblue" stroke="midnightblue" points="79.7186,-87.3438 71.5131,-80.6416 73.7481,-90.998 79.7186,-87.3438"/>
</g>
<!-- Node24 -->
<g id="node62" class="node"><title>Node24</title>
<a xlink:href="classSocketClient.xhtml#ad4f63c7d906310dc56a1217136047d7f" target="_top" xlink:title="Interpret the command at the front of the queue.">
<polygon fill="white" stroke="black" points="555,-78.5 555,-99.5 725,-99.5 725,-78.5 555,-78.5"/>
<text text-anchor="middle" x="640" y="-86.5" font-family="FreeSans.ttf" font-size="10.00">SocketClient::ProcessCommand</text>
</a>
</g>
<!-- Node1&#45;&gt;Node24 -->
<g id="edge90" class="edge"><title>Node1&#45;&gt;Node24</title>
<path fill="none" stroke="midnightblue" d="M139.618,-72.4656C246.447,-75.9956 442.453,-82.4724 554.827,-86.1856"/>
<polygon fill="midnightblue" stroke="midnightblue" points="139.674,-68.9657 129.564,-72.1334 139.443,-75.9619 139.674,-68.9657"/>
</g>
<!-- Node26 -->
<g id="node67" class="node"><title>Node26</title>
<a xlink:href="classServer.xhtml#a4073e768d93ce18c25cb5996f4cd3729" target="_top" xlink:title="Reloads a Command Plugin.">
<polygon fill="white" stroke="black" points="180,-0.5 180,-21.5 316,-21.5 316,-0.5 180,-0.5"/>
<text text-anchor="middle" x="248" y="-8.5" font-family="FreeSans.ttf" font-size="10.00">Server::ReloadCommand</text>
</a>
</g>
<!-- Node1&#45;&gt;Node26 -->
<g id="edge82" class="edge"><title>Node1&#45;&gt;Node26</title>
<path fill="none" stroke="midnightblue" d="M98.9199,-55.6394C118.341,-47.7373 143.292,-38.1207 166,-31 176.906,-27.5801 188.779,-24.3875 200.016,-21.6012"/>
<polygon fill="midnightblue" stroke="midnightblue" points="97.5046,-52.437 89.5874,-59.4775 100.167,-58.9109 97.5046,-52.437"/>
</g>
<!-- Node29 -->
<g id="node75" class="node"><title>Node29</title>
<a xlink:href="classSocketClient.xhtml#aa3c0d7886b8fede981c73031cfaf17c6" target="_top" xlink:title="Append a command to the back of the queue.">
<polygon fill="white" stroke="black" points="166,-40.5 166,-61.5 330,-61.5 330,-40.5 166,-40.5"/>
<text text-anchor="middle" x="248" y="-48.5" font-family="FreeSans.ttf" font-size="10.00">SocketClient::QueueCommand</text>
</a>
</g>
<!-- Node1&#45;&gt;Node29 -->
<g id="edge92" class="edge"><title>Node1&#45;&gt;Node29</title>
<path fill="none" stroke="midnightblue" d="M139.552,-62.2596C148.197,-61.3621 157.051,-60.4428 165.791,-59.5354"/>
<polygon fill="midnightblue" stroke="midnightblue" points="139.104,-58.7872 129.519,-63.3013 139.827,-65.7498 139.104,-58.7872"/>
</g>
<!-- Node3 -->
<g id="node5" class="node"><title>Node3</title>
<a xlink:href="namespaceHandler.xhtml#a139febc000c9d767a620708148e0c888" target="_top" xlink:title="Dispatches the appropriate menu based on client state.">
<polygon fill="white" stroke="black" points="376.5,-358.5 376.5,-379.5 499.5,-379.5 499.5,-358.5 376.5,-358.5"/>
<text text-anchor="middle" x="438" y="-366.5" font-family="FreeSans.ttf" font-size="10.00">Handler::LoginHandler</text>
</a>
</g>
<!-- Node2&#45;&gt;Node3 -->
<g id="edge4" class="edge"><title>Node2&#45;&gt;Node3</title>
<path fill="none" stroke="midnightblue" d="M323.826,-362.374C341.314,-362.145 359.707,-362.233 376.498,-362.638"/>
<polygon fill="midnightblue" stroke="midnightblue" points="323.593,-358.877 313.653,-362.545 323.711,-365.876 323.593,-358.877"/>
</g>
<!-- Node3&#45;&gt;Node2 -->
<g id="edge6" class="edge"><title>Node3&#45;&gt;Node2</title>
<path fill="none" stroke="midnightblue" d="M366.445,-375.564C349.122,-375.844 330.69,-375.808 313.653,-375.455"/>
<polygon fill="midnightblue" stroke="midnightblue" points="366.57,-379.062 376.498,-375.362 366.43,-372.064 366.57,-379.062"/>
</g>
<!-- Node4 -->
<g id="node8" class="node"><title>Node4</title>
<a xlink:href="namespaceHandler.xhtml#a2e4ebf6ed049eb872aa4948d54c4932c" target="_top" xlink:title="Attempt to write a new character to disk after creation was completed.">
<polygon fill="white" stroke="black" points="570.5,-638.5 570.5,-659.5 709.5,-659.5 709.5,-638.5 570.5,-638.5"/>
<text text-anchor="middle" x="640" y="-646.5" font-family="FreeSans.ttf" font-size="10.00">Handler::AttachCharacter</text>
</a>
</g>
<!-- Node3&#45;&gt;Node4 -->
<g id="edge8" class="edge"><title>Node3&#45;&gt;Node4</title>
<path fill="none" stroke="midnightblue" d="M440.8,-389.596C447.988,-438.059 472.064,-558.558 546,-620 557.934,-629.917 573.603,-635.269 588.718,-638.494"/>
<polygon fill="midnightblue" stroke="midnightblue" points="444.26,-389.064 439.412,-379.644 437.327,-390.031 444.26,-389.064"/>
</g>
<!-- Node5 -->
<g id="node11" class="node"><title>Node5</title>
<a xlink:href="namespaceHandler.xhtml#a73ed6064f2698dbffb5f4c247a02b661" target="_top" xlink:title="Send initial account interface menu.">
<polygon fill="white" stroke="black" points="566,-598.5 566,-619.5 714,-619.5 714,-598.5 566,-598.5"/>
<text text-anchor="middle" x="640" y="-606.5" font-family="FreeSans.ttf" font-size="10.00">Handler::AccountMenuMain</text>
</a>
</g>
<!-- Node3&#45;&gt;Node5 -->
<g id="edge12" class="edge"><title>Node3&#45;&gt;Node5</title>
<path fill="none" stroke="midnightblue" d="M442.974,-389.501C453.366,-432.286 481.94,-530.073 546,-580 558.765,-589.949 575.352,-595.23 591.032,-598.441"/>
<polygon fill="midnightblue" stroke="midnightblue" points="446.354,-388.582 440.662,-379.646 439.539,-390.181 446.354,-388.582"/>
</g>
<!-- Node6 -->
<g id="node14" class="node"><title>Node6</title>
<a xlink:href="namespaceHandler.xhtml#ad04998a7a6ece2486bc441052a57c2d7" target="_top" xlink:title="Main Character creation menu.">
<polygon fill="white" stroke="black" points="546,-558.5 546,-579.5 734,-579.5 734,-558.5 546,-558.5"/>
<text text-anchor="middle" x="640" y="-566.5" font-family="FreeSans.ttf" font-size="10.00">Handler::CharacterCreateMenuMain</text>
</a>
</g>
<!-- Node3&#45;&gt;Node6 -->
<g id="edge16" class="edge"><title>Node3&#45;&gt;Node6</title>
<path fill="none" stroke="midnightblue" d="M446.11,-389.432C459.877,-425.968 491.739,-501.262 546,-540 560.122,-550.082 578.284,-555.274 594.872,-558.487"/>
<polygon fill="midnightblue" stroke="midnightblue" points="449.306,-387.985 442.558,-379.818 442.74,-390.411 449.306,-387.985"/>
</g>
<!-- Node7 -->
<g id="node17" class="node"><title>Node7</title>
<a xlink:href="namespaceHandler.xhtml#ab5889a65de2794129b375ec39ae923ae" target="_top" xlink:title="Select a new Character name.">
<polygon fill="white" stroke="black" points="555.5,-518.5 555.5,-539.5 724.5,-539.5 724.5,-518.5 555.5,-518.5"/>
<text text-anchor="middle" x="640" y="-526.5" font-family="FreeSans.ttf" font-size="10.00">Handler::CharacterCreateName</text>
</a>
</g>
<!-- Node3&#45;&gt;Node7 -->
<g id="edge20" class="edge"><title>Node3&#45;&gt;Node7</title>
<path fill="none" stroke="midnightblue" d="M450.67,-388.719C467.727,-418.036 501.183,-471.797 546,-500 561.957,-510.042 582.142,-515.115 599.713,-518.424"/>
<polygon fill="midnightblue" stroke="midnightblue" points="453.548,-386.702 445.522,-379.786 447.483,-390.198 453.548,-386.702"/>
</g>
<!-- Node8 -->
<g id="node20" class="node"><title>Node8</title>
<a xlink:href="namespaceHandler.xhtml#ae5086bcf5857eb572beedd09158c3065" target="_top" xlink:title="Select a new Character sex.">
<polygon fill="white" stroke="black" points="561,-478.5 561,-499.5 719,-499.5 719,-478.5 561,-478.5"/>
<text text-anchor="middle" x="640" y="-486.5" font-family="FreeSans.ttf" font-size="10.00">Handler::CharacterCreateSex</text>
</a>
</g>
<!-- Node3&#45;&gt;Node8 -->
<g id="edge24" class="edge"><title>Node3&#45;&gt;Node8</title>
<path fill="none" stroke="midnightblue" d="M458.002,-387.11C477.854,-408.128 510.395,-441.541 546,-460 564.96,-469.83 588.46,-474.83 607.22,-478.497"/>
<polygon fill="midnightblue" stroke="midnightblue" points="460.441,-384.595 451.035,-379.719 455.347,-389.397 460.441,-384.595"/>
</g>
<!-- Node9 -->
<g id="node23" class="node"><title>Node9</title>
<a xlink:href="namespaceHandler.xhtml#a97a198bfc72285b2aca4f36978db715e" target="_top" xlink:title="Main Character deletion confirmation.">
<polygon fill="white" stroke="black" points="552,-438.5 552,-459.5 728,-459.5 728,-438.5 552,-438.5"/>
<text text-anchor="middle" x="640" y="-446.5" font-family="FreeSans.ttf" font-size="10.00">Handler::CharacterDeleteConfirm</text>
</a>
</g>
<!-- Node3&#45;&gt;Node9 -->
<g id="edge28" class="edge"><title>Node3&#45;&gt;Node9</title>
<path fill="none" stroke="midnightblue" d="M473.811,-384.513C494.241,-395.898 520.743,-410.54 546,-420 568.812,-428.544 596.178,-433.848 615.484,-438.497"/>
<polygon fill="midnightblue" stroke="midnightblue" points="475.318,-381.346 464.878,-379.541 471.914,-387.463 475.318,-381.346"/>
</g>
<!-- Node10 -->
<g id="node26" class="node"><title>Node10</title>
<a xlink:href="namespaceHandler.xhtml#afc470ec6e82b7a9a1560588a368734f9" target="_top" xlink:title="Main Character deletion menu.">
<polygon fill="white" stroke="black" points="546,-398.5 546,-419.5 734,-419.5 734,-398.5 546,-398.5"/>
<text text-anchor="middle" x="640" y="-406.5" font-family="FreeSans.ttf" font-size="10.00">Handler::CharacterDeleteMenuMain</text>
</a>
</g>
<!-- Node3&#45;&gt;Node10 -->
<g id="edge32" class="edge"><title>Node3&#45;&gt;Node10</title>
<path fill="none" stroke="midnightblue" d="M509.929,-376.748C545.022,-383.066 585.235,-391.571 611.543,-398.496"/>
<polygon fill="midnightblue" stroke="midnightblue" points="510.16,-373.235 499.704,-374.945 508.944,-380.129 510.16,-373.235"/>
</g>
<!-- Node11 -->
<g id="node29" class="node"><title>Node11</title>
<a xlink:href="namespaceHandler.xhtml#a02b1b954749641ab646f6548a5360d3b" target="_top" xlink:title="Main Character load menu.">
<polygon fill="white" stroke="black" points="550.5,-358.5 550.5,-379.5 729.5,-379.5 729.5,-358.5 550.5,-358.5"/>
<text text-anchor="middle" x="640" y="-366.5" font-family="FreeSans.ttf" font-size="10.00">Handler::CharacterLoadMenuMain</text>
</a>
</g>
<!-- Node3&#45;&gt;Node11 -->
<g id="edge36" class="edge"><title>Node3&#45;&gt;Node11</title>
<path fill="none" stroke="midnightblue" d="M510.026,-362.503C523.109,-362.269 536.901,-362.197 550.417,-362.288"/>
<polygon fill="midnightblue" stroke="midnightblue" points="509.626,-359.011 499.704,-362.726 509.778,-366.009 509.626,-359.011"/>
</g>
<!-- Node12 -->
<g id="node32" class="node"><title>Node12</title>
<a xlink:href="namespaceHandler.xhtml#a00bc24564bfd267e0329643c569da1e4" target="_top" xlink:title="Select a new account name.">
<polygon fill="white" stroke="black" points="571.5,-318.5 571.5,-339.5 708.5,-339.5 708.5,-318.5 571.5,-318.5"/>
<text text-anchor="middle" x="640" y="-326.5" font-family="FreeSans.ttf" font-size="10.00">Handler::GetNewAccount</text>
</a>
</g>
<!-- Node3&#45;&gt;Node12 -->
<g id="edge40" class="edge"><title>Node3&#45;&gt;Node12</title>
<path fill="none" stroke="midnightblue" d="M476.252,-356.001C502.98,-349.395 539.417,-341.842 571.135,-336.2"/>
<polygon fill="midnightblue" stroke="midnightblue" points="475.34,-352.622 466.513,-358.481 477.068,-359.405 475.34,-352.622"/>
</g>
<!-- Node13 -->
<g id="node35" class="node"><title>Node13</title>
<a xlink:href="namespaceHandler.xhtml#a744adadcf407cdb3a9c33365afd5a7c2" target="_top" xlink:title="Create a new account.">
<polygon fill="white" stroke="black" points="569,-278.5 569,-299.5 711,-299.5 711,-278.5 569,-278.5"/>
<text text-anchor="middle" x="640" y="-286.5" font-family="FreeSans.ttf" font-size="10.00">Handler::GetNewPassword</text>
</a>
</g>
<!-- Node3&#45;&gt;Node13 -->
<g id="edge44" class="edge"><title>Node3&#45;&gt;Node13</title>
<path fill="none" stroke="midnightblue" d="M453.96,-351.875C474.414,-335.676 511.376,-312.968 546,-300 553.266,-297.279 560.993,-294.886 568.775,-292.847"/>
<polygon fill="midnightblue" stroke="midnightblue" points="451.646,-349.247 446.26,-358.371 456.16,-354.598 451.646,-349.247"/>
</g>
<!-- Node14 -->
<g id="node38" class="node"><title>Node14</title>
<a xlink:href="namespaceHandler.xhtml#adfe13cc9748392348f3941656a1323b6" target="_top" xlink:title="Compare a received password against an existing account.">
<polygon fill="white" stroke="black" points="571.5,-238.5 571.5,-259.5 708.5,-259.5 708.5,-238.5 571.5,-238.5"/>
<text text-anchor="middle" x="640" y="-246.5" font-family="FreeSans.ttf" font-size="10.00">Handler::GetOldPassword</text>
</a>
</g>
<!-- Node3&#45;&gt;Node14 -->
<g id="edge48" class="edge"><title>Node3&#45;&gt;Node14</title>
<path fill="none" stroke="midnightblue" d="M448.558,-349.711C466.218,-324.407 503.975,-281.788 546,-260 553.851,-255.93 562.48,-252.688 571.228,-250.185"/>
<polygon fill="midnightblue" stroke="midnightblue" points="445.559,-347.9 442.99,-358.179 451.408,-351.746 445.559,-347.9"/>
</g>
<!-- Node15 -->
<g id="node41" class="node"><title>Node15</title>
<a xlink:href="namespaceHandler.xhtml#ae70e4e50054c729c14493eafefe01b5c" target="_top" xlink:title="Load a character from the account to enter into the game with.">
<polygon fill="white" stroke="black" points="574.5,-198.5 574.5,-219.5 705.5,-219.5 705.5,-198.5 574.5,-198.5"/>
<text text-anchor="middle" x="640" y="-206.5" font-family="FreeSans.ttf" font-size="10.00">Handler::LoadCharacter</text>
</a>
</g>
<!-- Node3&#45;&gt;Node15 -->
<g id="edge52" class="edge"><title>Node3&#45;&gt;Node15</title>
<path fill="none" stroke="midnightblue" d="M445.066,-348.843C459.562,-315.765 495.596,-251.719 546,-220 554.614,-214.579 564.46,-210.606 574.462,-207.821"/>
<polygon fill="midnightblue" stroke="midnightblue" points="441.696,-347.834 441.125,-358.414 448.169,-350.499 441.696,-347.834"/>
</g>
<!-- Node16 -->
<g id="node44" class="node"><title>Node16</title>
<a xlink:href="namespaceHandler.xhtml#a44b41bf69fdc6e615a029bea34910191" target="_top" xlink:title="Send initial greeting and request for account name.">
<polygon fill="white" stroke="black" points="580.5,-158.5 580.5,-179.5 699.5,-179.5 699.5,-158.5 580.5,-158.5"/>
<text text-anchor="middle" x="640" y="-166.5" font-family="FreeSans.ttf" font-size="10.00">Handler::LoginScreen</text>
</a>
</g>
<!-- Node3&#45;&gt;Node16 -->
<g id="edge56" class="edge"><title>Node3&#45;&gt;Node16</title>
<path fill="none" stroke="midnightblue" d="M442.624,-348.662C453.932,-308.915 486.499,-222.479 546,-180 556.049,-172.826 568.142,-168.128 580.259,-165.292"/>
<polygon fill="midnightblue" stroke="midnightblue" points="439.236,-347.783 440.045,-358.347 446,-349.584 439.236,-347.783"/>
</g>
<!-- Node17 -->
<g id="node47" class="node"><title>Node17</title>
<a xlink:href="classSocketClient.xhtml#a48c79d01b91f2c1553c3b33b26714215" target="_top" xlink:title="Build a SocketClient for a new client connection and set all attributes.">
<polygon fill="white" stroke="black" points="588.5,-118.5 588.5,-139.5 691.5,-139.5 691.5,-118.5 588.5,-118.5"/>
<text text-anchor="middle" x="640" y="-126.5" font-family="FreeSans.ttf" font-size="10.00">SocketClient::New</text>
</a>
</g>
<!-- Node3&#45;&gt;Node17 -->
<g id="edge60" class="edge"><title>Node3&#45;&gt;Node17</title>
<path fill="none" stroke="midnightblue" d="M441.852,-348.376C451.215,-304.326 479.47,-200.852 546,-149 557.975,-139.666 573.315,-134.441 588.113,-131.583"/>
<polygon fill="midnightblue" stroke="midnightblue" points="438.365,-347.962 439.824,-358.456 445.228,-349.343 438.365,-347.962"/>
</g>
<!-- Node3&#45;&gt;Node24 -->
<g id="edge76" class="edge"><title>Node3&#45;&gt;Node24</title>
<path fill="none" stroke="midnightblue" d="M440.185,-348.123C446.558,-298.385 469.797,-172.326 546,-109 550.491,-105.268 555.512,-102.182 560.832,-99.6361"/>
<polygon fill="midnightblue" stroke="midnightblue" points="436.681,-347.95 438.986,-358.291 443.633,-348.77 436.681,-347.95"/>
</g>
<!-- Node4&#45;&gt;Node3 -->
<g id="edge10" class="edge"><title>Node4&#45;&gt;Node3</title>
<path fill="none" stroke="midnightblue" d="M560.547,-647.205C555.332,-644.708 550.411,-641.666 546,-638 461.606,-567.867 442.174,-420.789 438.67,-379.586"/>
<polygon fill="midnightblue" stroke="midnightblue" points="559.623,-650.607 570.205,-651.13 562.259,-644.123 559.623,-650.607"/>
</g>
<!-- Node5&#45;&gt;Node3 -->
<g id="edge14" class="edge"><title>Node5&#45;&gt;Node3</title>
<path fill="none" stroke="midnightblue" d="M556.376,-604.697C552.723,-602.748 549.239,-600.524 546,-598 471.498,-539.934 444.993,-417.133 439.267,-379.669"/>
<polygon fill="midnightblue" stroke="midnightblue" points="555.212,-608.014 565.761,-608.994 558.126,-601.649 555.212,-608.014"/>
</g>
<!-- Node6&#45;&gt;Node3 -->
<g id="edge18" class="edge"><title>Node6&#45;&gt;Node3</title>
<path fill="none" stroke="midnightblue" d="M538.162,-551.995C478.266,-503.26 447.837,-411.439 440.045,-379.653"/>
<polygon fill="midnightblue" stroke="midnightblue" points="536.336,-555.004 546.408,-558.289 540.583,-549.44 536.336,-555.004"/>
</g>
<!-- Node7&#45;&gt;Node3 -->
<g id="edge22" class="edge"><title>Node7&#45;&gt;Node3</title>
<path fill="none" stroke="midnightblue" d="M546.278,-518.174C546.185,-518.116 546.093,-518.058 546,-518 490.141,-482.848 451.931,-407.993 441.125,-379.586"/>
<polygon fill="midnightblue" stroke="midnightblue" points="544.836,-521.375 555.291,-523.094 548.19,-515.231 544.836,-521.375"/>
</g>
<!-- Node8&#45;&gt;Node3 -->
<g id="edge26" class="edge"><title>Node8&#45;&gt;Node3</title>
<path fill="none" stroke="midnightblue" d="M551.445,-480.638C549.595,-479.801 547.777,-478.922 546,-478 498.814,-453.536 457.008,-402.811 442.99,-379.821"/>
<polygon fill="midnightblue" stroke="midnightblue" points="550.344,-483.969 560.926,-484.486 552.976,-477.483 550.344,-483.969"/>
</g>
<!-- Node9&#45;&gt;Node3 -->
<g id="edge30" class="edge"><title>Node9&#45;&gt;Node3</title>
<path fill="none" stroke="midnightblue" d="M542.206,-436.333C500.559,-419.363 462.572,-394.512 446.26,-379.629"/>
<polygon fill="midnightblue" stroke="midnightblue" points="541.122,-439.667 551.71,-440.041 543.666,-433.146 541.122,-439.667"/>
</g>
<!-- Node10&#45;&gt;Node3 -->
<g id="edge34" class="edge"><title>Node10&#45;&gt;Node3</title>
<path fill="none" stroke="midnightblue" d="M543.195,-396.576C515.187,-391.099 486.748,-384.843 466.513,-379.519"/>
<polygon fill="midnightblue" stroke="midnightblue" points="542.588,-400.023 553.07,-398.478 543.912,-393.149 542.588,-400.023"/>
</g>
<!-- Node11&#45;&gt;Node3 -->
<g id="edge38" class="edge"><title>Node11&#45;&gt;Node3</title>
<path fill="none" stroke="midnightblue" d="M540.344,-375.749C526.483,-375.76 512.588,-375.602 499.704,-375.274"/>
<polygon fill="midnightblue" stroke="midnightblue" points="540.43,-379.249 550.417,-375.712 540.403,-372.249 540.43,-379.249"/>
</g>
<!-- Node12&#45;&gt;Node3 -->
<g id="edge42" class="edge"><title>Node12&#45;&gt;Node3</title>
<path fill="none" stroke="midnightblue" d="M601.489,-342.063C572.744,-349.157 532.875,-357.331 499.704,-363.055"/>
<polygon fill="midnightblue" stroke="midnightblue" points="602.716,-345.362 611.543,-339.504 600.989,-338.578 602.716,-345.362"/>
</g>
<!-- Node13&#45;&gt;Node3 -->
<g id="edge46" class="edge"><title>Node13&#45;&gt;Node3</title>
<path fill="none" stroke="midnightblue" d="M605.64,-301.798C587.529,-305.934 565.159,-310.824 546,-318 516.874,-328.909 486.095,-346.709 464.878,-358.459"/>
<polygon fill="midnightblue" stroke="midnightblue" points="606.54,-305.182 615.484,-299.503 604.951,-298.364 606.54,-305.182"/>
</g>
<!-- Node14&#45;&gt;Node3 -->
<g id="edge50" class="edge"><title>Node14&#45;&gt;Node3</title>
<path fill="none" stroke="midnightblue" d="M597.174,-261.53C580.516,-265.032 561.701,-269.86 546,-278 505.846,-298.818 469.589,-338.653 451.035,-358.281"/>
<polygon fill="midnightblue" stroke="midnightblue" points="598.11,-264.911 607.22,-259.503 596.725,-258.05 598.11,-264.911"/>
</g>
<!-- Node15&#45;&gt;Node3 -->
<g id="edge54" class="edge"><title>Node15&#45;&gt;Node3</title>
<path fill="none" stroke="midnightblue" d="M589.599,-221.644C574.721,-224.962 558.965,-229.841 546,-238 496.117,-269.391 460.308,-332.446 445.522,-358.214"/>
<polygon fill="midnightblue" stroke="midnightblue" points="590.617,-225.009 599.713,-219.576 589.215,-218.151 590.617,-225.009"/>
</g>
<!-- Node16&#45;&gt;Node3 -->
<g id="edge58" class="edge"><title>Node16&#45;&gt;Node3</title>
<path fill="none" stroke="midnightblue" d="M585.014,-181.644C571.344,-184.941 557.364,-189.887 546,-198 486.383,-240.562 453.804,-327.253 442.558,-358.182"/>
<polygon fill="midnightblue" stroke="midnightblue" points="585.838,-185.047 594.872,-179.513 584.359,-178.205 585.838,-185.047"/>
</g>
<!-- Node18 -->
<g id="node49" class="node"><title>Node18</title>
<a xlink:href="classServer.xhtml#a16ea0639731dee10e1a253375b508a02" target="_top" xlink:title="Recovers the server state and re&#45;connects client sockets after a reboot.">
<polygon fill="white" stroke="black" points="770,-119.5 770,-140.5 900,-140.5 900,-119.5 770,-119.5"/>
<text text-anchor="middle" x="835" y="-127.5" font-family="FreeSans.ttf" font-size="10.00">Server::RebootRecovery</text>
</a>
</g>
<!-- Node17&#45;&gt;Node18 -->
<g id="edge62" class="edge"><title>Node17&#45;&gt;Node18</title>
<path fill="none" stroke="midnightblue" d="M701.801,-129.317C723.443,-129.428 747.808,-129.553 769.725,-129.665"/>
<polygon fill="midnightblue" stroke="midnightblue" points="701.762,-125.817 691.744,-129.265 701.726,-132.817 701.762,-125.817"/>
</g>
<!-- Node21 -->
<g id="node55" class="node"><title>Node21</title>
<a xlink:href="classSocketServer.xhtml#afdbc60c3bc840875d2214b59c6213f63" target="_top" xlink:title="Accept a new connection on the listening port.">
<polygon fill="white" stroke="black" points="775,-79.5 775,-100.5 895,-100.5 895,-79.5 775,-79.5"/>
<text text-anchor="middle" x="835" y="-87.5" font-family="FreeSans.ttf" font-size="10.00">SocketServer::Accept</text>
</a>
</g>
<!-- Node17&#45;&gt;Node21 -->
<g id="edge68" class="edge"><title>Node17&#45;&gt;Node21</title>
<path fill="none" stroke="midnightblue" d="M701.829,-116.634C727.722,-111.456 757.507,-105.499 782.335,-100.533"/>
<polygon fill="midnightblue" stroke="midnightblue" points="700.864,-113.258 691.744,-118.651 702.237,-120.122 700.864,-113.258"/>
</g>
<!-- Node19 -->
<g id="node51" class="node"><title>Node19</title>
<a xlink:href="classServer.xhtml#a19a1e493e1fb50a56d9c77332543d565" target="_top" xlink:title="Start the NAMS Server. Responsible for calling all critical boot&#45;time functions such as SocketServer ...">
<polygon fill="white" stroke="black" points="1096,-108.5 1096,-129.5 1186,-129.5 1186,-108.5 1096,-108.5"/>
<text text-anchor="middle" x="1141" y="-116.5" font-family="FreeSans.ttf" font-size="10.00">Server::Startup</text>
</a>
</g>
<!-- Node18&#45;&gt;Node19 -->
<g id="edge64" class="edge"><title>Node18&#45;&gt;Node19</title>
<path fill="none" stroke="midnightblue" d="M910.501,-127.286C968.583,-125.198 1046.91,-122.382 1095.66,-120.63"/>
<polygon fill="midnightblue" stroke="midnightblue" points="910.137,-123.797 900.269,-127.654 910.389,-130.792 910.137,-123.797"/>
</g>
<!-- Node20 -->
<g id="node53" class="node"><title>Node20</title>
<a xlink:href="main_8cpp.xhtml#ad53223b8779f25caeddb70a3b9172967" target="_top" xlink:title="The default function required to execute the server.">
<polygon fill="white" stroke="black" points="1222.5,-78.5 1222.5,-99.5 1263.5,-99.5 1263.5,-78.5 1222.5,-78.5"/>
<text text-anchor="middle" x="1243" y="-86.5" font-family="FreeSans.ttf" font-size="10.00">main</text>
</a>
</g>
<!-- Node19&#45;&gt;Node20 -->
<g id="edge66" class="edge"><title>Node19&#45;&gt;Node20</title>
<path fill="none" stroke="midnightblue" d="M1186.82,-105.523C1199.3,-101.853 1212.2,-98.06 1222.48,-95.0351"/>
<polygon fill="midnightblue" stroke="midnightblue" points="1185.57,-102.244 1176.96,-108.423 1187.54,-108.959 1185.57,-102.244"/>
</g>
<!-- Node22 -->
<g id="node57" class="node"><title>Node22</title>
<a xlink:href="classServer.xhtml#a39dbe16fdc8c5f6fbd678c6540fbcd6c" target="_top" xlink:title="Poll all SocketClient objects that are communicating with the associated SocketServer object...">
<polygon fill="white" stroke="black" points="943.5,-78.5 943.5,-99.5 1052.5,-99.5 1052.5,-78.5 943.5,-78.5"/>
<text text-anchor="middle" x="998" y="-86.5" font-family="FreeSans.ttf" font-size="10.00">Server::PollSockets</text>
</a>
</g>
<!-- Node21&#45;&gt;Node22 -->
<g id="edge70" class="edge"><title>Node21&#45;&gt;Node22</title>
<path fill="none" stroke="midnightblue" d="M905.346,-89.5684C918.087,-89.4903 931.198,-89.4098 943.403,-89.335"/>
<polygon fill="midnightblue" stroke="midnightblue" points="905.21,-86.0691 895.232,-89.6305 905.253,-93.069 905.21,-86.0691"/>
</g>
<!-- Node23 -->
<g id="node59" class="node"><title>Node23</title>
<a xlink:href="classServer.xhtml#a50b81aa91d8fdaee6f52c5c5ec987990" target="_top" xlink:title="The core update loop of NAMS. This loop spawns all other subsystem update routines and then sleeps fo...">
<polygon fill="white" stroke="black" points="1096.5,-49.5 1096.5,-70.5 1185.5,-70.5 1185.5,-49.5 1096.5,-49.5"/>
<text text-anchor="middle" x="1141" y="-57.5" font-family="FreeSans.ttf" font-size="10.00">Server::Update</text>
</a>
</g>
<!-- Node22&#45;&gt;Node23 -->
<g id="edge72" class="edge"><title>Node22&#45;&gt;Node23</title>
<path fill="none" stroke="midnightblue" d="M1060.14,-76.3986C1072.31,-73.9298 1084.85,-71.3864 1096.32,-69.0611"/>
<polygon fill="midnightblue" stroke="midnightblue" points="1059.14,-73.0305 1050.03,-78.4483 1060.53,-79.8909 1059.14,-73.0305"/>
</g>
<!-- Node23&#45;&gt;Node20 -->
<g id="edge74" class="edge"><title>Node23&#45;&gt;Node20</title>
<path fill="none" stroke="midnightblue" d="M1187.73,-73.2868C1199.88,-76.7409 1212.36,-80.2874 1222.37,-83.135"/>
<polygon fill="midnightblue" stroke="midnightblue" points="1188.69,-69.92 1178.11,-70.5517 1186.77,-76.6531 1188.69,-69.92"/>
</g>
<!-- Node25 -->
<g id="node64" class="node"><title>Node25</title>
<a xlink:href="classServer.xhtml#a2b4cec469bb99c2a45e49de5ba74d1ae" target="_top" xlink:title="Processes input from all active SocketClient objects.">
<polygon fill="white" stroke="black" points="777,-39.5 777,-60.5 893,-60.5 893,-39.5 777,-39.5"/>
<text text-anchor="middle" x="835" y="-47.5" font-family="FreeSans.ttf" font-size="10.00">Server::ProcessInput</text>
</a>
</g>
<!-- Node24&#45;&gt;Node25 -->
<g id="edge78" class="edge"><title>Node24&#45;&gt;Node25</title>
<path fill="none" stroke="midnightblue" d="M702.547,-76.4906C728.291,-71.3417 757.783,-65.4434 782.393,-60.5213"/>
<polygon fill="midnightblue" stroke="midnightblue" points="701.632,-73.1041 692.513,-78.4974 703.005,-79.9682 701.632,-73.1041"/>
</g>
<!-- Node25&#45;&gt;Node23 -->
<g id="edge80" class="edge"><title>Node25&#45;&gt;Node23</title>
<path fill="none" stroke="midnightblue" d="M903.611,-52.2422C962.514,-54.1671 1045.7,-56.8856 1096.35,-58.5408"/>
<polygon fill="midnightblue" stroke="midnightblue" points="903.386,-48.733 893.277,-51.9045 903.157,-55.7293 903.386,-48.733"/>
</g>
<!-- Node27 -->
<g id="node69" class="node"><title>Node27</title>
<a xlink:href="classEvent.xhtml#ae00620af2a424d3d0041676e76b9303c" target="_top" xlink:title="Execute the function stored within the Event object.">
<polygon fill="white" stroke="black" points="404.5,-0.5 404.5,-21.5 471.5,-21.5 471.5,-0.5 404.5,-0.5"/>
<text text-anchor="middle" x="438" y="-8.5" font-family="FreeSans.ttf" font-size="10.00">Event::Run</text>
</a>
</g>
<!-- Node26&#45;&gt;Node27 -->
<g id="edge84" class="edge"><title>Node26&#45;&gt;Node27</title>
<path fill="none" stroke="midnightblue" d="M326.394,-11C353.654,-11 382.796,-11 404.464,-11"/>
<polygon fill="midnightblue" stroke="midnightblue" points="326.058,-7.5001 316.058,-11 326.058,-14.5001 326.058,-7.5001"/>
</g>
<!-- Node28 -->
<g id="node71" class="node"><title>Node28</title>
<a xlink:href="classServer.xhtml#a266931bde9b1955346955140986d2b00" target="_top" xlink:title="Process any scheduled events tied to the Server.">
<polygon fill="white" stroke="black" points="936,-0.5 936,-21.5 1060,-21.5 1060,-0.5 936,-0.5"/>
<text text-anchor="middle" x="998" y="-8.5" font-family="FreeSans.ttf" font-size="10.00">Server::ProcessEvents</text>
</a>
</g>
<!-- Node27&#45;&gt;Node28 -->
<g id="edge86" class="edge"><title>Node27&#45;&gt;Node28</title>
<path fill="none" stroke="midnightblue" d="M482.01,-11C580.963,-11 821.267,-11 935.582,-11"/>
<polygon fill="midnightblue" stroke="midnightblue" points="481.769,-7.5001 471.769,-11 481.769,-14.5001 481.769,-7.5001"/>
</g>
<!-- Node28&#45;&gt;Node23 -->
<g id="edge88" class="edge"><title>Node28&#45;&gt;Node23</title>
<path fill="none" stroke="midnightblue" d="M1038.36,-24.8309C1061.04,-32.601 1088.91,-42.1503 1109.88,-49.3366"/>
<polygon fill="midnightblue" stroke="midnightblue" points="1039.27,-21.4423 1028.68,-21.5117 1037,-28.0644 1039.27,-21.4423"/>
</g>
<!-- Node30 -->
<g id="node77" class="node"><title>Node30</title>
<a xlink:href="classSocketClient.xhtml#a92fea2bf7e0f20578404ce1abb835a0b" target="_top" xlink:title="Process data from the client&#39;s receive buffer and split it into commands to queue as necessary...">
<polygon fill="white" stroke="black" points="366,-40.5 366,-61.5 510,-61.5 510,-40.5 366,-40.5"/>
<text text-anchor="middle" x="438" y="-48.5" font-family="FreeSans.ttf" font-size="10.00">SocketClient::ProcessInput</text>
</a>
</g>
<!-- Node29&#45;&gt;Node30 -->
<g id="edge94" class="edge"><title>Node29&#45;&gt;Node30</title>
<path fill="none" stroke="midnightblue" d="M340.264,-51C348.836,-51 357.438,-51 365.79,-51"/>
<polygon fill="midnightblue" stroke="midnightblue" points="340.232,-47.5001 330.232,-51 340.232,-54.5001 340.232,-47.5001"/>
</g>
<!-- Node30&#45;&gt;Node25 -->
<g id="edge96" class="edge"><title>Node30&#45;&gt;Node25</title>
<path fill="none" stroke="midnightblue" d="M520.443,-50.7923C596.993,-50.5995 709.036,-50.3173 776.693,-50.1469"/>
<polygon fill="midnightblue" stroke="midnightblue" points="520.345,-47.2925 510.354,-50.8177 520.363,-54.2924 520.345,-47.2925"/>
</g>
</g>
</svg>
        <g id="navigator" transform="translate(0 0)" fill="#404254">
                <rect fill="#f2f5e9" fill-opacity="0.5" stroke="#606060" stroke-width=".5" x="0" y="0" width="60" height="60"/>
                <use id="zoomplus" xlink:href="#zoomPlus" x="17" y="9" onmousedown="handleZoom(evt,'in')"/>
                <use id="zoomminus" xlink:href="#zoomMin" x="42" y="9" onmousedown="handleZoom(evt,'out')"/>
                <use id="reset" xlink:href="#resetDef" x="30" y="36" onmousedown="handleReset()"/>
                <g id="arrowUp" xlink:href="#dirArrow" transform="translate(30 24)" onmousedown="handlePan(0,-1)">
                  <use xlink:href="#rim" fill="#404040">
                        <set attributeName="fill" to="#808080" begin="arrowUp.mouseover" end="arrowUp.mouseout"/>
                  </use>
                  <path fill="none" stroke="white" stroke-width="1.5" d="M0,-3.0v7 M-2.5,-0.5L0,-3.0L2.5,-0.5"/>
                </g>
                <g id="arrowRight" xlink:href="#dirArrow" transform="rotate(90) translate(36 -43)" onmousedown="handlePan(1,0)">
                  <use xlink:href="#rim" fill="#404040">
                        <set attributeName="fill" to="#808080" begin="arrowRight.mouseover" end="arrowRight.mouseout"/>
                  </use>
                  <path fill="none" stroke="white" stroke-width="1.5" d="M0,-3.0v7 M-2.5,-0.5L0,-3.0L2.5,-0.5"/>
                </g>
                <g id="arrowDown" xlink:href="#dirArrow" transform="rotate(180) translate(-30 -48)" onmousedown="handlePan(0,1)">
                  <use xlink:href="#rim" fill="#404040">
                        <set attributeName="fill" to="#808080" begin="arrowDown.mouseover" end="arrowDown.mouseout"/>
                  </use>
                  <path fill="none" stroke="white" stroke-width="1.5" d="M0,-3.0v7 M-2.5,-0.5L0,-3.0L2.5,-0.5"/>
                </g>
                <g id="arrowLeft" xlink:href="#dirArrow" transform="rotate(270) translate(-36 17)" onmousedown="handlePan(-1,0)">
                  <use xlink:href="#rim" fill="#404040">
                        <set attributeName="fill" to="#808080" begin="arrowLeft.mouseover" end="arrowLeft.mouseout"/>
                  </use>
                  <path fill="none" stroke="white" stroke-width="1.5" d="M0,-3.0v7 M-2.5,-0.5L0,-3.0L2.5,-0.5"/>
                </g>
        </g>
</svg>
