<?xml version="1.0" encoding="UTF-8" standalone="no"?>
<!DOCTYPE svg PUBLIC "-//W3C//DTD SVG 1.1//EN"
 "http://www.w3.org/Graphics/SVG/1.1/DTD/svg11.dtd">
<!-- Generated by graphviz version 2.26.3 (20100126.1600)
 -->
<!-- Title: G Pages: 1 -->
<!--zoomable 613 -->
<svg id="main" version="1.1" xmlns="http://www.w3.org/2000/svg" xmlns:xlink="http://www.w3.org/1999/xlink" xml:space="preserve" onload="init(evt)">
        <defs>
                <circle id="rim" cx="0" cy="0" r="7"/>
                <circle id="rim2" cx="0" cy="0" r="3.5"/>
                <g id="zoomPlus">
                        <use xlink:href="#rim" fill="#404040">
                                <set attributeName="fill" to="#808080" begin="zoomplus.mouseover" end="zoomplus.mouseout"/>
                        </use>
                        <path d="M-4,0h8M0,-4v8" fill="none" stroke="white" stroke-width="1.5" pointer-events="none"/>
                </g>
                <g id="zoomMin">
                        <use xlink:href="#rim" fill="#404040">
                                <set attributeName="fill" to="#808080" begin="zoomminus.mouseover" end="zoomminus.mouseout"/>
                        </use>
                        <path d="M-4,0h8" fill="none" stroke="white" stroke-width="1.5" pointer-events="none"/>
                </g>
                <g id="dirArrow">
                        <path fill="none" stroke="white" stroke-width="1.5" d="M0,-3.0v7 M-2.5,-0.5L0,-3.0L2.5,-0.5"/>
                </g>
               <g id="resetDef">
                       <use xlink:href="#rim2" fill="#404040">
                               <set attributeName="fill" to="#808080" begin="reset.mouseover" end="reset.mouseout"/>
                       </use>
               </g>
        </defs>

<script type="text/javascript">
var viewWidth = 1478;
var viewHeight = 613;
var sectionId = 'dynsection-19';
</script>
<script xlink:href="svgpan.js"/>
<svg id="graph" class="graph">
<g id="viewport">
<title>G</title>
<polygon fill="white" stroke="white" points="-4,5 -4,-609.488 1475,-609.488 1475,5 -4,5"/>
<!-- Node1 -->
<g id="node1" class="node"><title>Node1</title>
<polygon fill="#bfbfbf" stroke="black" points="0.5,-259.5 0.5,-280.5 77.5,-280.5 77.5,-259.5 0.5,-259.5"/>
<text text-anchor="middle" x="39" y="-267.5" font-family="FreeSans.ttf" font-size="10.00">Utils::KeySet</text>
</g>
<!-- Node2 -->
<g id="node3" class="node"><title>Node2</title>
<a xlink:href="classAccount.xhtml#ae236325fef7b2269f54e9567577e0b92" target="_top" xlink:title="Unserialize the account data.">
<polygon fill="white" stroke="black" points="118,-259.5 118,-280.5 232,-280.5 232,-259.5 118,-259.5"/>
<text text-anchor="middle" x="175" y="-267.5" font-family="FreeSans.ttf" font-size="10.00">Account::Unserialize</text>
</a>
</g>
<!-- Node1&#45;&gt;Node2 -->
<g id="edge2" class="edge"><title>Node1&#45;&gt;Node2</title>
<path fill="none" stroke="midnightblue" d="M87.8633,-270C97.5566,-270 107.815,-270 117.758,-270"/>
<polygon fill="midnightblue" stroke="midnightblue" points="87.6084,-266.5 77.6084,-270 87.6083,-273.5 87.6084,-266.5"/>
</g>
<!-- Node28 -->
<g id="node71" class="node"><title>Node28</title>
<a xlink:href="classCharacter.xhtml#a91193d9bb29423c2ec95fb56c27d6bb3" target="_top" xlink:title="Unserialize the character data.">
<polygon fill="white" stroke="black" points="114,-174.5 114,-195.5 236,-195.5 236,-174.5 114,-174.5"/>
<text text-anchor="middle" x="175" y="-182.5" font-family="FreeSans.ttf" font-size="10.00">Character::Unserialize</text>
</a>
</g>
<!-- Node1&#45;&gt;Node28 -->
<g id="edge86" class="edge"><title>Node1&#45;&gt;Node28</title>
<path fill="none" stroke="midnightblue" d="M64.5703,-254.019C91.8513,-236.968 134.307,-210.433 157.837,-195.727"/>
<polygon fill="midnightblue" stroke="midnightblue" points="62.5745,-251.139 55.9495,-259.407 66.2845,-257.075 62.5745,-251.139"/>
</g>
<!-- Node30 -->
<g id="node77" class="node"><title>Node30</title>
<a xlink:href="classLocation.xhtml#af65d15c0c107b1fdea7711d632ac909d" target="_top" xlink:title="Unserialize the location data.">
<polygon fill="white" stroke="black" points="117,-334.5 117,-355.5 233,-355.5 233,-334.5 117,-334.5"/>
<text text-anchor="middle" x="175" y="-342.5" font-family="FreeSans.ttf" font-size="10.00">Location::Unserialize</text>
</a>
</g>
<!-- Node1&#45;&gt;Node30 -->
<g id="edge94" class="edge"><title>Node1&#45;&gt;Node30</title>
<path fill="none" stroke="midnightblue" d="M67.0185,-285.451C93.5789,-300.099 132.76,-321.706 155.901,-334.467"/>
<polygon fill="midnightblue" stroke="midnightblue" points="68.644,-282.351 58.197,-280.587 65.2636,-288.481 68.644,-282.351"/>
</g>
<!-- Node3 -->
<g id="node5" class="node"><title>Node3</title>
<a xlink:href="classAccount.xhtml#adc4545f17264112e532b5a48abe94baf" target="_top" xlink:title="Create a new account.">
<polygon fill="white" stroke="black" points="273,-259.5 273,-280.5 355,-280.5 355,-259.5 273,-259.5"/>
<text text-anchor="middle" x="314" y="-267.5" font-family="FreeSans.ttf" font-size="10.00">Account::New</text>
</a>
</g>
<!-- Node2&#45;&gt;Node3 -->
<g id="edge4" class="edge"><title>Node2&#45;&gt;Node3</title>
<path fill="none" stroke="midnightblue" d="M242.633,-270C252.98,-270 263.382,-270 272.921,-270"/>
<polygon fill="midnightblue" stroke="midnightblue" points="242.339,-266.5 232.339,-270 242.339,-273.5 242.339,-266.5"/>
</g>
<!-- Node4 -->
<g id="node7" class="node"><title>Node4</title>
<a xlink:href="namespaceHandler.xhtml#a33a19d69ead678af81fbe96907eceaf0" target="_top" xlink:title="Create a new account object, or load an existing one, with a name and password.">
<polygon fill="white" stroke="black" points="392.5,-259.5 392.5,-280.5 523.5,-280.5 523.5,-259.5 392.5,-259.5"/>
<text text-anchor="middle" x="458" y="-267.5" font-family="FreeSans.ttf" font-size="10.00">Handler::AttachAccount</text>
</a>
</g>
<!-- Node3&#45;&gt;Node4 -->
<g id="edge6" class="edge"><title>Node3&#45;&gt;Node4</title>
<path fill="none" stroke="midnightblue" d="M365.285,-270C374.025,-270 383.211,-270 392.263,-270"/>
<polygon fill="midnightblue" stroke="midnightblue" points="365.265,-266.5 355.265,-270 365.265,-273.5 365.265,-266.5"/>
</g>
<!-- Node5 -->
<g id="node9" class="node"><title>Node5</title>
<a xlink:href="namespaceHandler.xhtml#a139febc000c9d767a620708148e0c888" target="_top" xlink:title="Dispatches the appropriate menu based on client state.">
<polygon fill="white" stroke="black" points="560.5,-259.5 560.5,-280.5 683.5,-280.5 683.5,-259.5 560.5,-259.5"/>
<text text-anchor="middle" x="622" y="-267.5" font-family="FreeSans.ttf" font-size="10.00">Handler::LoginHandler</text>
</a>
</g>
<!-- Node4&#45;&gt;Node5 -->
<g id="edge8" class="edge"><title>Node4&#45;&gt;Node5</title>
<path fill="none" stroke="midnightblue" d="M533.79,-263.267C542.73,-263.218 551.77,-263.275 560.48,-263.441"/>
<polygon fill="midnightblue" stroke="midnightblue" points="533.724,-259.768 523.76,-263.369 533.795,-266.767 533.724,-259.768"/>
</g>
<!-- Node5&#45;&gt;Node4 -->
<g id="edge10" class="edge"><title>Node5&#45;&gt;Node4</title>
<path fill="none" stroke="midnightblue" d="M550.242,-276.703C541.436,-276.784 532.471,-276.76 523.76,-276.631"/>
<polygon fill="midnightblue" stroke="midnightblue" points="550.531,-280.199 560.48,-276.559 550.432,-273.2 550.531,-280.199"/>
</g>
<!-- Node6 -->
<g id="node12" class="node"><title>Node6</title>
<a xlink:href="namespaceHandler.xhtml#a2e4ebf6ed049eb872aa4948d54c4932c" target="_top" xlink:title="Attempt to write a new character to disk after creation was completed.">
<polygon fill="white" stroke="black" points="744.5,-240.5 744.5,-261.5 883.5,-261.5 883.5,-240.5 744.5,-240.5"/>
<text text-anchor="middle" x="814" y="-248.5" font-family="FreeSans.ttf" font-size="10.00">Handler::AttachCharacter</text>
</a>
</g>
<!-- Node5&#45;&gt;Node6 -->
<g id="edge12" class="edge"><title>Node5&#45;&gt;Node6</title>
<path fill="none" stroke="midnightblue" d="M679.077,-258.121C699.547,-255.519 722.86,-253.115 744.281,-251.379"/>
<polygon fill="midnightblue" stroke="midnightblue" points="678.425,-254.677 668.968,-259.455 679.34,-261.617 678.425,-254.677"/>
</g>
<!-- Node7 -->
<g id="node15" class="node"><title>Node7</title>
<a xlink:href="namespaceHandler.xhtml#a73ed6064f2698dbffb5f4c247a02b661" target="_top" xlink:title="Send initial account interface menu.">
<polygon fill="white" stroke="black" points="740,-200.5 740,-221.5 888,-221.5 888,-200.5 740,-200.5"/>
<text text-anchor="middle" x="814" y="-208.5" font-family="FreeSans.ttf" font-size="10.00">Handler::AccountMenuMain</text>
</a>
</g>
<!-- Node5&#45;&gt;Node7 -->
<g id="edge16" class="edge"><title>Node5&#45;&gt;Node7</title>
<path fill="none" stroke="midnightblue" d="M641.819,-254.088C661.368,-243.322 692.265,-230.403 720,-222 726.387,-220.065 733.073,-218.246 739.809,-216.589"/>
<polygon fill="midnightblue" stroke="midnightblue" points="639.78,-251.227 632.952,-259.328 643.341,-257.253 639.78,-251.227"/>
</g>
<!-- Node8 -->
<g id="node18" class="node"><title>Node8</title>
<a xlink:href="namespaceHandler.xhtml#ad04998a7a6ece2486bc441052a57c2d7" target="_top" xlink:title="Main Character creation menu.">
<polygon fill="white" stroke="black" points="720,-160.5 720,-181.5 908,-181.5 908,-160.5 720,-160.5"/>
<text text-anchor="middle" x="814" y="-168.5" font-family="FreeSans.ttf" font-size="10.00">Handler::CharacterCreateMenuMain</text>
</a>
</g>
<!-- Node5&#45;&gt;Node8 -->
<g id="edge20" class="edge"><title>Node5&#45;&gt;Node8</title>
<path fill="none" stroke="midnightblue" d="M633.821,-251.322C651.026,-230.555 684.774,-198.758 720,-182 720.301,-181.857 720.604,-181.714 720.907,-181.573"/>
<polygon fill="midnightblue" stroke="midnightblue" points="630.865,-249.423 627.505,-259.47 636.397,-253.711 630.865,-249.423"/>
</g>
<!-- Node9 -->
<g id="node21" class="node"><title>Node9</title>
<a xlink:href="namespaceHandler.xhtml#ab5889a65de2794129b375ec39ae923ae" target="_top" xlink:title="Select a new Character name.">
<polygon fill="white" stroke="black" points="729.5,-0.5 729.5,-21.5 898.5,-21.5 898.5,-0.5 729.5,-0.5"/>
<text text-anchor="middle" x="814" y="-8.5" font-family="FreeSans.ttf" font-size="10.00">Handler::CharacterCreateName</text>
</a>
</g>
<!-- Node5&#45;&gt;Node9 -->
<g id="edge24" class="edge"><title>Node5&#45;&gt;Node9</title>
<path fill="none" stroke="midnightblue" d="M623.605,-248.993C628.753,-200.403 648.929,-81.3356 720,-22 722.946,-19.5406 726.121,-17.3617 729.461,-15.4393"/>
<polygon fill="midnightblue" stroke="midnightblue" points="620.092,-248.969 622.639,-259.254 627.061,-249.626 620.092,-248.969"/>
</g>
<!-- Node10 -->
<g id="node24" class="node"><title>Node10</title>
<a xlink:href="namespaceHandler.xhtml#ae5086bcf5857eb572beedd09158c3065" target="_top" xlink:title="Select a new Character sex.">
<polygon fill="white" stroke="black" points="735,-120.5 735,-141.5 893,-141.5 893,-120.5 735,-120.5"/>
<text text-anchor="middle" x="814" y="-128.5" font-family="FreeSans.ttf" font-size="10.00">Handler::CharacterCreateSex</text>
</a>
</g>
<!-- Node5&#45;&gt;Node10 -->
<g id="edge28" class="edge"><title>Node5&#45;&gt;Node10</title>
<path fill="none" stroke="midnightblue" d="M629.596,-250.127C643.731,-220.961 676.618,-168.345 720,-142 724.706,-139.142 729.761,-136.689 734.996,-134.602"/>
<polygon fill="midnightblue" stroke="midnightblue" points="626.34,-248.831 625.392,-259.384 632.714,-251.726 626.34,-248.831"/>
</g>
<!-- Node11 -->
<g id="node27" class="node"><title>Node11</title>
<a xlink:href="namespaceHandler.xhtml#a97a198bfc72285b2aca4f36978db715e" target="_top" xlink:title="Main Character deletion confirmation.">
<polygon fill="white" stroke="black" points="726,-80.5 726,-101.5 902,-101.5 902,-80.5 726,-80.5"/>
<text text-anchor="middle" x="814" y="-88.5" font-family="FreeSans.ttf" font-size="10.00">Handler::CharacterDeleteConfirm</text>
</a>
</g>
<!-- Node5&#45;&gt;Node11 -->
<g id="edge32" class="edge"><title>Node5&#45;&gt;Node11</title>
<path fill="none" stroke="midnightblue" d="M626.955,-249.332C638.005,-212.862 667.88,-138.742 720,-102 721.909,-100.654 723.891,-99.3957 725.931,-98.2205"/>
<polygon fill="midnightblue" stroke="midnightblue" points="623.473,-248.783 624.126,-259.358 630.21,-250.684 623.473,-248.783"/>
</g>
<!-- Node12 -->
<g id="node30" class="node"><title>Node12</title>
<a xlink:href="namespaceHandler.xhtml#afc470ec6e82b7a9a1560588a368734f9" target="_top" xlink:title="Main Character deletion menu.">
<polygon fill="white" stroke="black" points="720,-558.5 720,-579.5 908,-579.5 908,-558.5 720,-558.5"/>
<text text-anchor="middle" x="814" y="-566.5" font-family="FreeSans.ttf" font-size="10.00">Handler::CharacterDeleteMenuMain</text>
</a>
</g>
<!-- Node5&#45;&gt;Node12 -->
<g id="edge36" class="edge"><title>Node5&#45;&gt;Node12</title>
<path fill="none" stroke="midnightblue" d="M627.455,-290.457C641.489,-347.552 680.523,-505.283 720,-540 731.151,-549.806 745.91,-555.211 760.42,-558.468"/>
<polygon fill="midnightblue" stroke="midnightblue" points="630.849,-289.605 625.059,-280.732 624.052,-291.279 630.849,-289.605"/>
</g>
<!-- Node13 -->
<g id="node33" class="node"><title>Node13</title>
<a xlink:href="namespaceHandler.xhtml#a02b1b954749641ab646f6548a5360d3b" target="_top" xlink:title="Main Character load menu.">
<polygon fill="white" stroke="black" points="724.5,-518.5 724.5,-539.5 903.5,-539.5 903.5,-518.5 724.5,-518.5"/>
<text text-anchor="middle" x="814" y="-526.5" font-family="FreeSans.ttf" font-size="10.00">Handler::CharacterLoadMenuMain</text>
</a>
</g>
<!-- Node5&#45;&gt;Node13 -->
<g id="edge40" class="edge"><title>Node5&#45;&gt;Node13</title>
<path fill="none" stroke="midnightblue" d="M624.756,-290.693C631.475,-336.252 653.373,-444.374 720,-500 731.783,-509.838 747.237,-515.187 762.202,-518.422"/>
<polygon fill="midnightblue" stroke="midnightblue" points="628.22,-290.193 623.387,-280.764 621.286,-291.149 628.22,-290.193"/>
</g>
<!-- Node14 -->
<g id="node36" class="node"><title>Node14</title>
<a xlink:href="namespaceHandler.xhtml#a00bc24564bfd267e0329643c569da1e4" target="_top" xlink:title="Select a new account name.">
<polygon fill="white" stroke="black" points="745.5,-478.5 745.5,-499.5 882.5,-499.5 882.5,-478.5 745.5,-478.5"/>
<text text-anchor="middle" x="814" y="-486.5" font-family="FreeSans.ttf" font-size="10.00">Handler::GetNewAccount</text>
</a>
</g>
<!-- Node5&#45;&gt;Node14 -->
<g id="edge44" class="edge"><title>Node5&#45;&gt;Node14</title>
<path fill="none" stroke="midnightblue" d="M627.22,-290.783C637.223,-330.459 663.333,-415.891 720,-460 732.771,-469.941 749.36,-475.22 765.039,-478.432"/>
<polygon fill="midnightblue" stroke="midnightblue" points="630.576,-289.769 624.814,-280.878 623.774,-291.421 630.576,-289.769"/>
</g>
<!-- Node15 -->
<g id="node39" class="node"><title>Node15</title>
<a xlink:href="namespaceHandler.xhtml#a744adadcf407cdb3a9c33365afd5a7c2" target="_top" xlink:title="Create a new account.">
<polygon fill="white" stroke="black" points="743,-438.5 743,-459.5 885,-459.5 885,-438.5 743,-438.5"/>
<text text-anchor="middle" x="814" y="-446.5" font-family="FreeSans.ttf" font-size="10.00">Handler::GetNewPassword</text>
</a>
</g>
<!-- Node5&#45;&gt;Node15 -->
<g id="edge48" class="edge"><title>Node5&#45;&gt;Node15</title>
<path fill="none" stroke="midnightblue" d="M630.664,-290.183C643.951,-323.036 672.888,-386.788 720,-420 734.319,-430.094 752.705,-435.272 769.414,-438.49"/>
<polygon fill="midnightblue" stroke="midnightblue" points="633.836,-288.686 626.897,-280.68 627.329,-291.266 633.836,-288.686"/>
</g>
<!-- Node16 -->
<g id="node42" class="node"><title>Node16</title>
<a xlink:href="namespaceHandler.xhtml#adfe13cc9748392348f3941656a1323b6" target="_top" xlink:title="Compare a received password against an existing account.">
<polygon fill="white" stroke="black" points="745.5,-398.5 745.5,-419.5 882.5,-419.5 882.5,-398.5 745.5,-398.5"/>
<text text-anchor="middle" x="814" y="-406.5" font-family="FreeSans.ttf" font-size="10.00">Handler::GetOldPassword</text>
</a>
</g>
<!-- Node5&#45;&gt;Node16 -->
<g id="edge52" class="edge"><title>Node5&#45;&gt;Node16</title>
<path fill="none" stroke="midnightblue" d="M636.107,-289.248C652.539,-314.39 682.308,-357.111 720,-380 736.543,-390.046 757.394,-395.094 775.252,-398.449"/>
<polygon fill="midnightblue" stroke="midnightblue" points="639.041,-287.339 630.667,-280.849 633.166,-291.145 639.041,-287.339"/>
</g>
<!-- Node17 -->
<g id="node45" class="node"><title>Node17</title>
<a xlink:href="namespaceHandler.xhtml#ae70e4e50054c729c14493eafefe01b5c" target="_top" xlink:title="Load a character from the account to enter into the game with.">
<polygon fill="white" stroke="black" points="748.5,-40.5 748.5,-61.5 879.5,-61.5 879.5,-40.5 748.5,-40.5"/>
<text text-anchor="middle" x="814" y="-48.5" font-family="FreeSans.ttf" font-size="10.00">Handler::LoadCharacter</text>
</a>
</g>
<!-- Node5&#45;&gt;Node17 -->
<g id="edge56" class="edge"><title>Node5&#45;&gt;Node17</title>
<path fill="none" stroke="midnightblue" d="M625.002,-249.215C632.989,-206.425 658.497,-109.873 720,-62 728.295,-55.5435 738.2,-51.0536 748.42,-48.0875"/>
<polygon fill="midnightblue" stroke="midnightblue" points="621.548,-248.652 623.303,-259.1 628.447,-249.838 621.548,-248.652"/>
</g>
<!-- Node18 -->
<g id="node48" class="node"><title>Node18</title>
<a xlink:href="namespaceHandler.xhtml#a44b41bf69fdc6e615a029bea34910191" target="_top" xlink:title="Send initial greeting and request for account name.">
<polygon fill="white" stroke="black" points="754.5,-318.5 754.5,-339.5 873.5,-339.5 873.5,-318.5 754.5,-318.5"/>
<text text-anchor="middle" x="814" y="-326.5" font-family="FreeSans.ttf" font-size="10.00">Handler::LoginScreen</text>
</a>
</g>
<!-- Node5&#45;&gt;Node18 -->
<g id="edge60" class="edge"><title>Node5&#45;&gt;Node18</title>
<path fill="none" stroke="midnightblue" d="M684.822,-283.723C696.467,-287.529 708.564,-291.501 720,-295 746.805,-303.202 778.372,-311.279 797.254,-318.398"/>
<polygon fill="midnightblue" stroke="midnightblue" points="685.762,-280.348 675.17,-280.578 683.593,-287.004 685.762,-280.348"/>
</g>
<!-- Node19 -->
<g id="node51" class="node"><title>Node19</title>
<a xlink:href="classSocketClient.xhtml#a8399ef20292e9f3ec83b5c4bec2e105b" target="_top" xlink:title="Build a SocketClient for a new client connection and set all attributes.">
<polygon fill="white" stroke="black" points="762.5,-358.5 762.5,-379.5 865.5,-379.5 865.5,-358.5 762.5,-358.5"/>
<text text-anchor="middle" x="814" y="-366.5" font-family="FreeSans.ttf" font-size="10.00">SocketClient::New</text>
</a>
</g>
<!-- Node5&#45;&gt;Node19 -->
<g id="edge64" class="edge"><title>Node5&#45;&gt;Node19</title>
<path fill="none" stroke="midnightblue" d="M638.752,-287.728C656.993,-305.939 687.883,-333.72 720,-349 733.108,-355.236 748.163,-359.543 762.328,-362.513"/>
<polygon fill="midnightblue" stroke="midnightblue" points="641.24,-285.266 631.741,-280.573 636.24,-290.165 641.24,-285.266"/>
</g>
<!-- Node26 -->
<g id="node66" class="node"><title>Node26</title>
<a xlink:href="classSocketClient.xhtml#ad4f63c7d906310dc56a1217136047d7f" target="_top" xlink:title="Interpret the command at the front of the queue.">
<polygon fill="white" stroke="black" points="944,-289.5 944,-310.5 1114,-310.5 1114,-289.5 944,-289.5"/>
<text text-anchor="middle" x="1029" y="-297.5" font-family="FreeSans.ttf" font-size="10.00">SocketClient::ProcessCommand</text>
</a>
</g>
<!-- Node5&#45;&gt;Node26 -->
<g id="edge80" class="edge"><title>Node5&#45;&gt;Node26</title>
<path fill="none" stroke="midnightblue" d="M693.851,-275.296C763.713,-280.446 869.841,-288.268 943.896,-293.727"/>
<polygon fill="midnightblue" stroke="midnightblue" points="694.045,-271.801 683.815,-274.556 693.53,-278.782 694.045,-271.801"/>
</g>
<!-- Node6&#45;&gt;Node5 -->
<g id="edge14" class="edge"><title>Node6&#45;&gt;Node5</title>
<path fill="none" stroke="midnightblue" d="M757.092,-262.857C733.946,-265.803 707.142,-268.497 683.542,-270.258"/>
<polygon fill="midnightblue" stroke="midnightblue" points="757.65,-266.314 767.106,-261.535 756.734,-259.374 757.65,-266.314"/>
</g>
<!-- Node7&#45;&gt;Node5 -->
<g id="edge18" class="edge"><title>Node7&#45;&gt;Node5</title>
<path fill="none" stroke="midnightblue" d="M782.543,-224.177C764.121,-228.769 740.518,-233.783 720,-240 701.599,-245.575 681.806,-253.138 664.859,-259.499"/>
<polygon fill="midnightblue" stroke="midnightblue" points="783.666,-227.502 792.459,-221.591 781.9,-220.728 783.666,-227.502"/>
</g>
<!-- Node8&#45;&gt;Node5 -->
<g id="edge22" class="edge"><title>Node8&#45;&gt;Node5</title>
<path fill="none" stroke="midnightblue" d="M773.388,-183.674C756.31,-187.302 736.594,-192.105 720,-200 687.636,-215.397 656.519,-243.488 638.334,-259.324"/>
<polygon fill="midnightblue" stroke="midnightblue" points="774.549,-187.008 783.63,-181.55 773.128,-180.154 774.549,-187.008"/>
</g>
<!-- Node9&#45;&gt;Node5 -->
<g id="edge26" class="edge"><title>Node9&#45;&gt;Node5</title>
<path fill="none" stroke="midnightblue" d="M752.355,-24.0291C740.652,-27.3679 729.206,-32.3144 720,-40 647.879,-100.212 628.168,-221.935 623.387,-259.236"/>
<polygon fill="midnightblue" stroke="midnightblue" points="753.344,-27.3898 762.202,-21.5778 751.653,-20.5971 753.344,-27.3898"/>
</g>
<!-- Node10&#45;&gt;Node5 -->
<g id="edge30" class="edge"><title>Node10&#45;&gt;Node5</title>
<path fill="none" stroke="midnightblue" d="M765.378,-143.543C750.04,-146.881 733.57,-151.759 720,-160 677.68,-185.7 645.347,-236.401 630.667,-259.151"/>
<polygon fill="midnightblue" stroke="midnightblue" points="766.142,-146.959 775.252,-141.551 764.758,-140.097 766.142,-146.959"/>
</g>
<!-- Node11&#45;&gt;Node5 -->
<g id="edge34" class="edge"><title>Node11&#45;&gt;Node5</title>
<path fill="none" stroke="midnightblue" d="M759.474,-103.642C745.678,-106.938 731.522,-111.878 720,-120 667.789,-156.806 637.901,-231.122 626.897,-259.32"/>
<polygon fill="midnightblue" stroke="midnightblue" points="760.37,-107.029 769.414,-101.51 758.902,-100.185 760.37,-107.029"/>
</g>
<!-- Node12&#45;&gt;Node5 -->
<g id="edge38" class="edge"><title>Node12&#45;&gt;Node5</title>
<path fill="none" stroke="midnightblue" d="M713.377,-550.937C671.569,-499.593 632.178,-325.724 623.683,-280.538"/>
<polygon fill="midnightblue" stroke="midnightblue" points="710.96,-553.474 720.377,-558.329 716.043,-548.661 710.96,-553.474"/>
</g>
<!-- Node13&#45;&gt;Node5 -->
<g id="edge42" class="edge"><title>Node13&#45;&gt;Node5</title>
<path fill="none" stroke="midnightblue" d="M716.503,-514.408C642.093,-445.127 625.739,-318.815 622.639,-280.746"/>
<polygon fill="midnightblue" stroke="midnightblue" points="714.558,-517.359 724.377,-521.339 719.183,-512.104 714.558,-517.359"/>
</g>
<!-- Node14&#45;&gt;Node5 -->
<g id="edge46" class="edge"><title>Node14&#45;&gt;Node5</title>
<path fill="none" stroke="midnightblue" d="M735.498,-487.199C729.969,-484.716 724.723,-481.677 720,-478 653.143,-425.96 628.821,-316.397 623.303,-280.9"/>
<polygon fill="midnightblue" stroke="midnightblue" points="734.437,-490.541 745.027,-490.867 736.952,-484.008 734.437,-490.541"/>
</g>
<!-- Node15&#45;&gt;Node5 -->
<g id="edge50" class="edge"><title>Node15&#45;&gt;Node5</title>
<path fill="none" stroke="midnightblue" d="M732.991,-445.422C728.422,-443.315 724.048,-440.854 720,-438 662.489,-397.458 632.062,-311.402 624.126,-280.642"/>
<polygon fill="midnightblue" stroke="midnightblue" points="732.017,-448.802 742.602,-449.261 734.614,-442.301 732.017,-448.802"/>
</g>
<!-- Node16&#45;&gt;Node5 -->
<g id="edge54" class="edge"><title>Node16&#45;&gt;Node5</title>
<path fill="none" stroke="midnightblue" d="M735.354,-405.54C729.991,-403.423 724.813,-400.923 720,-398 671.503,-368.549 636.122,-306.267 625.392,-280.616"/>
<polygon fill="midnightblue" stroke="midnightblue" points="734.572,-408.973 745.167,-408.945 736.867,-402.36 734.572,-408.973"/>
</g>
<!-- Node17&#45;&gt;Node5 -->
<g id="edge58" class="edge"><title>Node17&#45;&gt;Node5</title>
<path fill="none" stroke="midnightblue" d="M755.04,-63.9008C742.531,-67.2146 730.077,-72.156 720,-80 658.005,-128.256 632.584,-225.971 624.814,-259.122"/>
<polygon fill="midnightblue" stroke="midnightblue" points="756.096,-67.2485 765.039,-61.5678 754.506,-60.4316 756.096,-67.2485"/>
</g>
<!-- Node18&#45;&gt;Node5 -->
<g id="edge62" class="edge"><title>Node18&#45;&gt;Node5</title>
<path fill="none" stroke="midnightblue" d="M744.652,-320.115C736.319,-317.854 727.95,-315.433 720,-313 689.003,-303.515 653.146,-290.559 634.588,-280.574"/>
<polygon fill="midnightblue" stroke="midnightblue" points="743.828,-323.517 754.39,-322.686 745.615,-316.749 743.828,-323.517"/>
</g>
<!-- Node20 -->
<g id="node53" class="node"><title>Node20</title>
<a xlink:href="namespaceServer.xhtml#a16ea0639731dee10e1a253375b508a02" target="_top" xlink:title="Recovers the server state and re&#45;connects client sockets after a reboot.">
<polygon fill="white" stroke="black" points="964,-388.5 964,-409.5 1094,-409.5 1094,-388.5 964,-388.5"/>
<text text-anchor="middle" x="1029" y="-396.5" font-family="FreeSans.ttf" font-size="10.00">Server::RebootRecovery</text>
</a>
</g>
<!-- Node19&#45;&gt;Node20 -->
<g id="edge66" class="edge"><title>Node19&#45;&gt;Node20</title>
<path fill="none" stroke="midnightblue" d="M875.693,-377.608C903.28,-381.458 935.817,-385.998 963.803,-389.903"/>
<polygon fill="midnightblue" stroke="midnightblue" points="876.159,-374.14 865.771,-376.224 875.192,-381.072 876.159,-374.14"/>
</g>
<!-- Node23 -->
<g id="node59" class="node"><title>Node23</title>
<a xlink:href="classSocketServer.xhtml#afdbc60c3bc840875d2214b59c6213f63" target="_top" xlink:title="Accept a new connection on the listening port.">
<polygon fill="white" stroke="black" points="969,-348.5 969,-369.5 1089,-369.5 1089,-348.5 969,-348.5"/>
<text text-anchor="middle" x="1029" y="-356.5" font-family="FreeSans.ttf" font-size="10.00">SocketServer::Accept</text>
</a>
</g>
<!-- Node19&#45;&gt;Node23 -->
<g id="edge72" class="edge"><title>Node19&#45;&gt;Node23</title>
<path fill="none" stroke="midnightblue" d="M875.868,-366.122C905.117,-364.762 939.901,-363.144 968.92,-361.794"/>
<polygon fill="midnightblue" stroke="midnightblue" points="875.598,-362.631 865.771,-366.592 875.923,-369.624 875.598,-362.631"/>
</g>
<!-- Node21 -->
<g id="node55" class="node"><title>Node21</title>
<a xlink:href="namespaceServer.xhtml#a19a1e493e1fb50a56d9c77332543d565" target="_top" xlink:title="Start the NAMS Server. Responsible for calling all critical boot&#45;time functions such as SocketServer ...">
<polygon fill="white" stroke="black" points="1163,-388.5 1163,-409.5 1253,-409.5 1253,-388.5 1163,-388.5"/>
<text text-anchor="middle" x="1208" y="-396.5" font-family="FreeSans.ttf" font-size="10.00">Server::Startup</text>
</a>
</g>
<!-- Node20&#45;&gt;Node21 -->
<g id="edge68" class="edge"><title>Node20&#45;&gt;Node21</title>
<path fill="none" stroke="midnightblue" d="M1104.13,-399C1124.08,-399 1145,-399 1162.8,-399"/>
<polygon fill="midnightblue" stroke="midnightblue" points="1104.13,-395.5 1094.13,-399 1104.13,-402.5 1104.13,-395.5"/>
</g>
<!-- Node22 -->
<g id="node57" class="node"><title>Node22</title>
<a xlink:href="main_8cpp.xhtml#ad53223b8779f25caeddb70a3b9172967" target="_top" xlink:title="The default function required to execute the server.">
<polygon fill="white" stroke="black" points="1428.5,-367.5 1428.5,-388.5 1469.5,-388.5 1469.5,-367.5 1428.5,-367.5"/>
<text text-anchor="middle" x="1449" y="-375.5" font-family="FreeSans.ttf" font-size="10.00">main</text>
</a>
</g>
<!-- Node21&#45;&gt;Node22 -->
<g id="edge70" class="edge"><title>Node21&#45;&gt;Node22</title>
<path fill="none" stroke="midnightblue" d="M1263.24,-394.187C1315.87,-389.601 1392.28,-382.942 1428.49,-379.787"/>
<polygon fill="midnightblue" stroke="midnightblue" points="1262.71,-390.72 1253.05,-395.075 1263.31,-397.693 1262.71,-390.72"/>
</g>
<!-- Node24 -->
<g id="node61" class="node"><title>Node24</title>
<a xlink:href="namespaceServer.xhtml#a39dbe16fdc8c5f6fbd678c6540fbcd6c" target="_top" xlink:title="Poll all SocketClient objects that are communicating with the associated SocketServer object...">
<polygon fill="white" stroke="black" points="1153.5,-348.5 1153.5,-369.5 1262.5,-369.5 1262.5,-348.5 1153.5,-348.5"/>
<text text-anchor="middle" x="1208" y="-356.5" font-family="FreeSans.ttf" font-size="10.00">Server::PollSockets</text>
</a>
</g>
<!-- Node23&#45;&gt;Node24 -->
<g id="edge74" class="edge"><title>Node23&#45;&gt;Node24</title>
<path fill="none" stroke="midnightblue" d="M1099.27,-359C1117.28,-359 1136.39,-359 1153.48,-359"/>
<polygon fill="midnightblue" stroke="midnightblue" points="1099.1,-355.5 1089.1,-359 1099.1,-362.5 1099.1,-355.5"/>
</g>
<!-- Node25 -->
<g id="node63" class="node"><title>Node25</title>
<a xlink:href="namespaceServer.xhtml#a50b81aa91d8fdaee6f52c5c5ec987990" target="_top" xlink:title="The core update loop of NAMS. This loop spawns all other subsystem update routines and then sleeps fo...">
<polygon fill="white" stroke="black" points="1302.5,-348.5 1302.5,-369.5 1391.5,-369.5 1391.5,-348.5 1302.5,-348.5"/>
<text text-anchor="middle" x="1347" y="-356.5" font-family="FreeSans.ttf" font-size="10.00">Server::Update</text>
</a>
</g>
<!-- Node24&#45;&gt;Node25 -->
<g id="edge76" class="edge"><title>Node24&#45;&gt;Node25</title>
<path fill="none" stroke="midnightblue" d="M1272.57,-359C1282.69,-359 1292.94,-359 1302.47,-359"/>
<polygon fill="midnightblue" stroke="midnightblue" points="1272.54,-355.5 1262.54,-359 1272.54,-362.5 1272.54,-355.5"/>
</g>
<!-- Node25&#45;&gt;Node22 -->
<g id="edge78" class="edge"><title>Node25&#45;&gt;Node22</title>
<path fill="none" stroke="midnightblue" d="M1401.64,-369.178C1411.14,-370.948 1420.47,-372.685 1428.3,-374.144"/>
<polygon fill="midnightblue" stroke="midnightblue" points="1402.21,-365.724 1391.74,-367.334 1400.93,-372.606 1402.21,-365.724"/>
</g>
<!-- Node27 -->
<g id="node68" class="node"><title>Node27</title>
<a xlink:href="namespaceServer.xhtml#a2b4cec469bb99c2a45e49de5ba74d1ae" target="_top" xlink:title="Processes input from all active SocketClient objects.">
<polygon fill="white" stroke="black" points="1150,-299.5 1150,-320.5 1266,-320.5 1266,-299.5 1150,-299.5"/>
<text text-anchor="middle" x="1208" y="-307.5" font-family="FreeSans.ttf" font-size="10.00">Server::ProcessInput</text>
</a>
</g>
<!-- Node26&#45;&gt;Node27 -->
<g id="edge82" class="edge"><title>Node26&#45;&gt;Node27</title>
<path fill="none" stroke="midnightblue" d="M1124.25,-305.321C1132.93,-305.806 1141.54,-306.287 1149.75,-306.746"/>
<polygon fill="midnightblue" stroke="midnightblue" points="1124.22,-301.814 1114.04,-304.751 1123.83,-308.804 1124.22,-301.814"/>
</g>
<!-- Node27&#45;&gt;Node25 -->
<g id="edge84" class="edge"><title>Node27&#45;&gt;Node25</title>
<path fill="none" stroke="midnightblue" d="M1247.53,-323.936C1269.52,-331.687 1296.46,-341.182 1316.75,-348.337"/>
<polygon fill="midnightblue" stroke="midnightblue" points="1248.41,-320.536 1237.82,-320.512 1246.09,-327.137 1248.41,-320.536"/>
</g>
<!-- Node29 -->
<g id="node73" class="node"><title>Node29</title>
<a xlink:href="classCharacter.xhtml#a829a28ec5f8573f3f53684ac4dcb75bb" target="_top" xlink:title="Create a new character.">
<polygon fill="white" stroke="black" points="577,-40.5 577,-61.5 667,-61.5 667,-40.5 577,-40.5"/>
<text text-anchor="middle" x="622" y="-48.5" font-family="FreeSans.ttf" font-size="10.00">Character::New</text>
</a>
</g>
<!-- Node28&#45;&gt;Node29 -->
<g id="edge88" class="edge"><title>Node28&#45;&gt;Node29</title>
<path fill="none" stroke="midnightblue" d="M219.875,-171.548C308.918,-144.854 506.278,-85.6908 586.779,-61.5584"/>
<polygon fill="midnightblue" stroke="midnightblue" points="218.649,-168.261 210.075,-174.485 220.659,-174.966 218.649,-168.261"/>
</g>
<!-- Node29&#45;&gt;Node9 -->
<g id="edge90" class="edge"><title>Node29&#45;&gt;Node9</title>
<path fill="none" stroke="midnightblue" d="M677.158,-39.5088C704.371,-33.8393 736.967,-27.0486 763.518,-21.5171"/>
<polygon fill="midnightblue" stroke="midnightblue" points="676.091,-36.1557 667.015,-41.6218 677.519,-43.0086 676.091,-36.1557"/>
</g>
<!-- Node29&#45;&gt;Node17 -->
<g id="edge92" class="edge"><title>Node29&#45;&gt;Node17</title>
<path fill="none" stroke="midnightblue" d="M677.242,-51C699.38,-51 725.07,-51 748.166,-51"/>
<polygon fill="midnightblue" stroke="midnightblue" points="677.016,-47.5001 667.015,-51 677.015,-54.5001 677.016,-47.5001"/>
</g>
<!-- Node31 -->
<g id="node79" class="node"><title>Node31</title>
<a xlink:href="classLocation.xhtml#a6396aba5eab9bcbabb000c3f6478e1a2" target="_top" xlink:title="Create a new location.">
<polygon fill="white" stroke="black" points="272.5,-369.5 272.5,-390.5 355.5,-390.5 355.5,-369.5 272.5,-369.5"/>
<text text-anchor="middle" x="314" y="-377.5" font-family="FreeSans.ttf" font-size="10.00">Location::New</text>
</a>
</g>
<!-- Node30&#45;&gt;Node31 -->
<g id="edge96" class="edge"><title>Node30&#45;&gt;Node31</title>
<path fill="none" stroke="midnightblue" d="M226.431,-357.95C241.55,-361.757 257.896,-365.873 272.325,-369.506"/>
<polygon fill="midnightblue" stroke="midnightblue" points="227.257,-354.549 216.705,-355.501 225.547,-361.337 227.257,-354.549"/>
</g>
<!-- Node32 -->
<g id="node81" class="node"><title>Node32</title>
<a xlink:href="namespaceServer.xhtml#a9b8efad79a32f2356d431788449e1f82" target="_top" xlink:title="Search all subfolders of CFG_DAT_DIR_WORLD and call Location::New() to load each file found to memory...">
<polygon fill="white" stroke="black" points="396.5,-439.5 396.5,-460.5 519.5,-460.5 519.5,-439.5 396.5,-439.5"/>
<text text-anchor="middle" x="458" y="-447.5" font-family="FreeSans.ttf" font-size="10.00">Server::LoadLocations</text>
</a>
</g>
<!-- Node31&#45;&gt;Node32 -->
<g id="edge98" class="edge"><title>Node31&#45;&gt;Node32</title>
<path fill="none" stroke="midnightblue" d="M345.073,-395.105C372.627,-408.499 412.155,-427.714 436.396,-439.498"/>
<polygon fill="midnightblue" stroke="midnightblue" points="346.394,-391.856 335.871,-390.631 343.334,-398.151 346.394,-391.856"/>
</g>
<!-- Node32&#45;&gt;Node21 -->
<g id="edge100" class="edge"><title>Node32&#45;&gt;Node21</title>
<path fill="none" stroke="midnightblue" d="M480.143,-466.658C523.424,-498.053 623.468,-564.979 720,-589 801.083,-609.177 827.751,-612.274 908,-589 1034.71,-552.25 1159.21,-444.171 1196.66,-409.697"/>
<polygon fill="midnightblue" stroke="midnightblue" points="482.158,-463.796 472.025,-460.701 478.017,-469.439 482.158,-463.796"/>
</g>
</g>
</svg>
        <g id="navigator" transform="translate(0 0)" fill="#404254">
                <rect fill="#f2f5e9" fill-opacity="0.5" stroke="#606060" stroke-width=".5" x="0" y="0" width="60" height="60"/>
                <use id="zoomplus" xlink:href="#zoomPlus" x="17" y="9" onmousedown="handleZoom(evt,'in')"/>
                <use id="zoomminus" xlink:href="#zoomMin" x="42" y="9" onmousedown="handleZoom(evt,'out')"/>
                <use id="reset" xlink:href="#resetDef" x="30" y="36" onmousedown="handleReset()"/>
                <g id="arrowUp" xlink:href="#dirArrow" transform="translate(30 24)" onmousedown="handlePan(0,-1)">
                  <use xlink:href="#rim" fill="#404040">
                        <set attributeName="fill" to="#808080" begin="arrowUp.mouseover" end="arrowUp.mouseout"/>
                  </use>
                  <path fill="none" stroke="white" stroke-width="1.5" d="M0,-3.0v7 M-2.5,-0.5L0,-3.0L2.5,-0.5"/>
                </g>
                <g id="arrowRight" xlink:href="#dirArrow" transform="rotate(90) translate(36 -43)" onmousedown="handlePan(1,0)">
                  <use xlink:href="#rim" fill="#404040">
                        <set attributeName="fill" to="#808080" begin="arrowRight.mouseover" end="arrowRight.mouseout"/>
                  </use>
                  <path fill="none" stroke="white" stroke-width="1.5" d="M0,-3.0v7 M-2.5,-0.5L0,-3.0L2.5,-0.5"/>
                </g>
                <g id="arrowDown" xlink:href="#dirArrow" transform="rotate(180) translate(-30 -48)" onmousedown="handlePan(0,1)">
                  <use xlink:href="#rim" fill="#404040">
                        <set attributeName="fill" to="#808080" begin="arrowDown.mouseover" end="arrowDown.mouseout"/>
                  </use>
                  <path fill="none" stroke="white" stroke-width="1.5" d="M0,-3.0v7 M-2.5,-0.5L0,-3.0L2.5,-0.5"/>
                </g>
                <g id="arrowLeft" xlink:href="#dirArrow" transform="rotate(270) translate(-36 17)" onmousedown="handlePan(-1,0)">
                  <use xlink:href="#rim" fill="#404040">
                        <set attributeName="fill" to="#808080" begin="arrowLeft.mouseover" end="arrowLeft.mouseout"/>
                  </use>
                  <path fill="none" stroke="white" stroke-width="1.5" d="M0,-3.0v7 M-2.5,-0.5L0,-3.0L2.5,-0.5"/>
                </g>
        </g>
</svg>
