<?xml version="1.0" encoding="UTF-8" standalone="no"?>
<!DOCTYPE svg PUBLIC "-//W3C//DTD SVG 1.1//EN"
 "http://www.w3.org/Graphics/SVG/1.1/DTD/svg11.dtd">
<!-- Generated by graphviz version 2.26.3 (20100126.1600)
 -->
<!-- Title: G Pages: 1 -->
<!--zoomable 328 -->
<svg id="main" version="1.1" xmlns="http://www.w3.org/2000/svg" xmlns:xlink="http://www.w3.org/1999/xlink" xml:space="preserve" onload="init(evt)">
        <defs>
                <circle id="rim" cx="0" cy="0" r="7"/>
                <circle id="rim2" cx="0" cy="0" r="3.5"/>
                <g id="zoomPlus">
                        <use xlink:href="#rim" fill="#404040">
                                <set attributeName="fill" to="#808080" begin="zoomplus.mouseover" end="zoomplus.mouseout"/>
                        </use>
                        <path d="M-4,0h8M0,-4v8" fill="none" stroke="white" stroke-width="1.5" pointer-events="none"/>
                </g>
                <g id="zoomMin">
                        <use xlink:href="#rim" fill="#404040">
                                <set attributeName="fill" to="#808080" begin="zoomminus.mouseover" end="zoomminus.mouseout"/>
                        </use>
                        <path d="M-4,0h8" fill="none" stroke="white" stroke-width="1.5" pointer-events="none"/>
                </g>
                <g id="dirArrow">
                        <path fill="none" stroke="white" stroke-width="1.5" d="M0,-3.0v7 M-2.5,-0.5L0,-3.0L2.5,-0.5"/>
                </g>
               <g id="resetDef">
                       <use xlink:href="#rim2" fill="#404040">
                               <set attributeName="fill" to="#808080" begin="reset.mouseover" end="reset.mouseout"/>
                       </use>
               </g>
        </defs>

<script type="text/javascript">
var viewWidth = 1626;
var viewHeight = 328;
var sectionId = 'dynsection-13';
</script>
<script xlink:href="svgpan.js"/>
<svg id="graph" class="graph">
<g id="viewport">
<title>G</title>
<polygon fill="white" stroke="white" points="-4,5 -4,-324.153 1623,-324.153 1623,5 -4,5"/>
<!-- Node1 -->
<g id="node1" class="node"><title>Node1</title>
<polygon fill="#bfbfbf" stroke="black" points="0,-78.6528 0,-99.6528 84,-99.6528 84,-78.6528 0,-78.6528"/>
<text text-anchor="middle" x="42" y="-86.6528" font-family="FreeSans.ttf" font-size="10.00">Utils::FileOpen</text>
</g>
<!-- Node2 -->
<g id="node3" class="node"><title>Node2</title>
<a xlink:href="classAccount.xhtml#a87dfcb1fd6c275ea89ec6f279e7ee8ff" target="_top" xlink:title="Serialize the account data and write them to CFG_DAT_FILE_SETTINGS.">
<polygon fill="white" stroke="black" points="135,-137.653 135,-158.653 237,-158.653 237,-137.653 135,-137.653"/>
<text text-anchor="middle" x="186" y="-145.653" font-family="FreeSans.ttf" font-size="10.00">Account::Serialize</text>
</a>
</g>
<!-- Node1&#45;&gt;Node2 -->
<g id="edge2" class="edge"><title>Node1&#45;&gt;Node2</title>
<path fill="none" stroke="midnightblue" d="M74.6056,-103.79C88.5258,-109.928 104.992,-117.044 120,-123.153 132.143,-128.096 145.665,-133.274 157.292,-137.628"/>
<polygon fill="midnightblue" stroke="midnightblue" points="75.9851,-100.573 65.4246,-99.7205 73.1487,-106.972 75.9851,-100.573"/>
</g>
<!-- Node18 -->
<g id="node41" class="node"><title>Node18</title>
<a xlink:href="classAccount.xhtml#ae236325fef7b2269f54e9567577e0b92" target="_top" xlink:title="Unserialize the account data from CFG_DAT_FILE_SETTINGS.">
<polygon fill="white" stroke="black" points="303,-117.653 303,-138.653 417,-138.653 417,-117.653 303,-117.653"/>
<text text-anchor="middle" x="360" y="-125.653" font-family="FreeSans.ttf" font-size="10.00">Account::Unserialize</text>
</a>
</g>
<!-- Node1&#45;&gt;Node18 -->
<g id="edge50" class="edge"><title>Node1&#45;&gt;Node18</title>
<path fill="none" stroke="midnightblue" d="M94.176,-95.5517C151.56,-102.589 243.482,-113.863 302.794,-121.137"/>
<polygon fill="midnightblue" stroke="midnightblue" points="94.5797,-92.0751 84.2279,-94.3317 93.7275,-99.023 94.5797,-92.0751"/>
</g>
<!-- Node19 -->
<g id="node45" class="node"><title>Node19</title>
<a xlink:href="classServer_1_1Config.xhtml#a2b99a2a519c260a79d53c489781321fc" target="_top" xlink:title="Serialize runtime configuration settings and write them to CFG_DAT_FILE_SETTINGS.">
<polygon fill="white" stroke="black" points="120.5,-59.6528 120.5,-80.6528 251.5,-80.6528 251.5,-59.6528 120.5,-59.6528"/>
<text text-anchor="middle" x="186" y="-67.6528" font-family="FreeSans.ttf" font-size="10.00">Server::Config::Serialize</text>
</a>
</g>
<!-- Node1&#45;&gt;Node19 -->
<g id="edge52" class="edge"><title>Node1&#45;&gt;Node19</title>
<path fill="none" stroke="midnightblue" d="M94.1694,-82.2693C102.667,-81.1481 111.564,-79.9742 120.335,-78.8169"/>
<polygon fill="midnightblue" stroke="midnightblue" points="93.4941,-78.828 84.0379,-83.6061 94.4098,-85.7678 93.4941,-78.828"/>
</g>
<!-- Node23 -->
<g id="node57" class="node"><title>Node23</title>
<a xlink:href="classServer_1_1Config.xhtml#a54dba418bfd3365ccfb30bda37ccd461" target="_top" xlink:title="Unserialize runtime configuration settings from CFG_DAT_FILE_SETTINGS.">
<polygon fill="white" stroke="black" points="288.5,-1.65277 288.5,-22.6528 431.5,-22.6528 431.5,-1.65277 288.5,-1.65277"/>
<text text-anchor="middle" x="360" y="-9.65277" font-family="FreeSans.ttf" font-size="10.00">Server::Config::Unserialize</text>
</a>
</g>
<!-- Node1&#45;&gt;Node23 -->
<g id="edge68" class="edge"><title>Node1&#45;&gt;Node23</title>
<path fill="none" stroke="midnightblue" d="M68.3248,-73.4463C83.0551,-65.3188 102.024,-55.9177 120,-50.1528 175.034,-32.5034 239.898,-22.8615 288.31,-17.7112"/>
<polygon fill="midnightblue" stroke="midnightblue" points="66.2862,-70.5785 59.31,-78.5524 69.7362,-76.6693 66.2862,-70.5785"/>
</g>
<!-- Node3 -->
<g id="node5" class="node"><title>Node3</title>
<a xlink:href="classAccount.xhtml#adc4545f17264112e532b5a48abe94baf" target="_top" xlink:title="Create a new account.">
<polygon fill="white" stroke="black" points="468,-156.653 468,-177.653 550,-177.653 550,-156.653 468,-156.653"/>
<text text-anchor="middle" x="509" y="-164.653" font-family="FreeSans.ttf" font-size="10.00">Account::New</text>
</a>
</g>
<!-- Node2&#45;&gt;Node3 -->
<g id="edge4" class="edge"><title>Node2&#45;&gt;Node3</title>
<path fill="none" stroke="midnightblue" d="M247.238,-151.755C311.877,-155.557 411.972,-161.445 467.796,-164.729"/>
<polygon fill="midnightblue" stroke="midnightblue" points="247.369,-148.257 237.18,-151.163 246.957,-155.245 247.369,-148.257"/>
</g>
<!-- Node2&#45;&gt;Node18 -->
<g id="edge46" class="edge"><title>Node2&#45;&gt;Node18</title>
<path fill="none" stroke="midnightblue" d="M247.362,-141.1C265.361,-139.031 284.967,-136.777 302.702,-134.739"/>
<polygon fill="midnightblue" stroke="midnightblue" points="246.8,-137.641 237.265,-142.26 247.599,-144.595 246.8,-137.641"/>
</g>
<!-- Node4 -->
<g id="node7" class="node"><title>Node4</title>
<a xlink:href="namespaceHandler.xhtml#a33a19d69ead678af81fbe96907eceaf0" target="_top" xlink:title="Create a new account object, or load an existing one, with a name and password.">
<polygon fill="white" stroke="black" points="586.5,-178.653 586.5,-199.653 717.5,-199.653 717.5,-178.653 586.5,-178.653"/>
<text text-anchor="middle" x="652" y="-186.653" font-family="FreeSans.ttf" font-size="10.00">Handler::AttachAccount</text>
</a>
</g>
<!-- Node3&#45;&gt;Node4 -->
<g id="edge6" class="edge"><title>Node3&#45;&gt;Node4</title>
<path fill="none" stroke="midnightblue" d="M560.434,-175.066C568.886,-176.366 577.746,-177.729 586.485,-179.074"/>
<polygon fill="midnightblue" stroke="midnightblue" points="560.777,-171.577 550.362,-173.516 559.713,-178.496 560.777,-171.577"/>
</g>
<!-- Node5 -->
<g id="node9" class="node"><title>Node5</title>
<a xlink:href="namespaceHandler.xhtml#af650e47f3d4baf393b54376d1eaa1fa9" target="_top" xlink:title="Handle SocketClient objects who have not fully logged into the game yet.">
<polygon fill="white" stroke="black" points="754.5,-178.653 754.5,-199.653 877.5,-199.653 877.5,-178.653 754.5,-178.653"/>
<text text-anchor="middle" x="816" y="-186.653" font-family="FreeSans.ttf" font-size="10.00">Handler::ProcessLogin</text>
</a>
</g>
<!-- Node4&#45;&gt;Node5 -->
<g id="edge8" class="edge"><title>Node4&#45;&gt;Node5</title>
<path fill="none" stroke="midnightblue" d="M727.79,-182.42C736.73,-182.37 745.77,-182.428 754.48,-182.593"/>
<polygon fill="midnightblue" stroke="midnightblue" points="727.724,-178.92 717.76,-182.522 727.795,-185.92 727.724,-178.92"/>
</g>
<!-- Node5&#45;&gt;Node4 -->
<g id="edge20" class="edge"><title>Node5&#45;&gt;Node4</title>
<path fill="none" stroke="midnightblue" d="M744.242,-195.856C735.436,-195.937 726.471,-195.913 717.76,-195.784"/>
<polygon fill="midnightblue" stroke="midnightblue" points="744.531,-199.352 754.48,-195.712 744.432,-192.353 744.531,-199.352"/>
</g>
<!-- Node6 -->
<g id="node11" class="node"><title>Node6</title>
<a xlink:href="namespaceHandler.xhtml#a142c6f0b9e36e54eba3d72f9db2dfe40" target="_top" xlink:title="Redirect to the appropriate subsystem based on socket state.">
<polygon fill="white" stroke="black" points="934.5,-298.653 934.5,-319.653 1035.5,-319.653 1035.5,-298.653 934.5,-298.653"/>
<text text-anchor="middle" x="985" y="-306.653" font-family="FreeSans.ttf" font-size="10.00">Handler::Interpret</text>
</a>
</g>
<!-- Node5&#45;&gt;Node6 -->
<g id="edge10" class="edge"><title>Node5&#45;&gt;Node6</title>
<path fill="none" stroke="midnightblue" d="M829.331,-207.791C846.43,-230.344 878.187,-267.926 914,-289.153 920.39,-292.94 927.528,-296.038 934.749,-298.564"/>
<polygon fill="midnightblue" stroke="midnightblue" points="832.086,-205.63 823.322,-199.677 826.461,-209.796 832.086,-205.63"/>
</g>
<!-- Node11 -->
<g id="node22" class="node"><title>Node11</title>
<a xlink:href="namespaceHandler.xhtml#a00bc24564bfd267e0329643c569da1e4" target="_top" xlink:title="Select a new account name.">
<polygon fill="white" stroke="black" points="916.5,-258.653 916.5,-279.653 1053.5,-279.653 1053.5,-258.653 916.5,-258.653"/>
<text text-anchor="middle" x="985" y="-266.653" font-family="FreeSans.ttf" font-size="10.00">Handler::GetNewAccount</text>
</a>
</g>
<!-- Node5&#45;&gt;Node11 -->
<g id="edge22" class="edge"><title>Node5&#45;&gt;Node11</title>
<path fill="none" stroke="midnightblue" d="M849.712,-204.982C868.055,-216.118 891.535,-230.336 914,-240.153 931.719,-247.896 953.237,-253.463 967.908,-258.574"/>
<polygon fill="midnightblue" stroke="midnightblue" points="851.513,-201.981 841.146,-199.795 847.888,-207.969 851.513,-201.981"/>
</g>
<!-- Node12 -->
<g id="node25" class="node"><title>Node12</title>
<a xlink:href="namespaceHandler.xhtml#a744adadcf407cdb3a9c33365afd5a7c2" target="_top" xlink:title="Create a new account.">
<polygon fill="white" stroke="black" points="914,-218.653 914,-239.653 1056,-239.653 1056,-218.653 914,-218.653"/>
<text text-anchor="middle" x="985" y="-226.653" font-family="FreeSans.ttf" font-size="10.00">Handler::GetNewPassword</text>
</a>
</g>
<!-- Node5&#45;&gt;Node12 -->
<g id="edge26" class="edge"><title>Node5&#45;&gt;Node12</title>
<path fill="none" stroke="midnightblue" d="M887.89,-199.485C914.041,-205.394 941.84,-212.572 960.963,-218.577"/>
<polygon fill="midnightblue" stroke="midnightblue" points="888.49,-196.034 877.97,-197.288 886.976,-202.868 888.49,-196.034"/>
</g>
<!-- Node13 -->
<g id="node28" class="node"><title>Node13</title>
<a xlink:href="namespaceHandler.xhtml#adfe13cc9748392348f3941656a1323b6" target="_top" xlink:title="Compare a received password against an existing account.">
<polygon fill="white" stroke="black" points="916.5,-178.653 916.5,-199.653 1053.5,-199.653 1053.5,-178.653 916.5,-178.653"/>
<text text-anchor="middle" x="985" y="-186.653" font-family="FreeSans.ttf" font-size="10.00">Handler::GetOldPassword</text>
</a>
</g>
<!-- Node5&#45;&gt;Node13 -->
<g id="edge30" class="edge"><title>Node5&#45;&gt;Node13</title>
<path fill="none" stroke="midnightblue" d="M888.082,-182.468C897.498,-182.368 907.125,-182.383 916.48,-182.511"/>
<polygon fill="midnightblue" stroke="midnightblue" points="887.916,-178.97 877.97,-182.621 888.021,-185.969 887.916,-178.97"/>
</g>
<!-- Node14 -->
<g id="node31" class="node"><title>Node14</title>
<a xlink:href="namespaceHandler.xhtml#a44b41bf69fdc6e615a029bea34910191" target="_top" xlink:title="Send initial greeting and request for account name.">
<polygon fill="white" stroke="black" points="925.5,-138.653 925.5,-159.653 1044.5,-159.653 1044.5,-138.653 925.5,-138.653"/>
<text text-anchor="middle" x="985" y="-146.653" font-family="FreeSans.ttf" font-size="10.00">Handler::LoginScreen</text>
</a>
</g>
<!-- Node5&#45;&gt;Node14 -->
<g id="edge34" class="edge"><title>Node5&#45;&gt;Node14</title>
<path fill="none" stroke="midnightblue" d="M849.539,-175.702C871.13,-169.386 899.806,-162.274 925.213,-156.817"/>
<polygon fill="midnightblue" stroke="midnightblue" points="848.412,-172.387 839.855,-178.634 850.44,-179.086 848.412,-172.387"/>
</g>
<!-- Node15 -->
<g id="node34" class="node"><title>Node15</title>
<a xlink:href="classSocketClient.xhtml#a553658a2c076ea71ddcd1758fc64a925" target="_top" xlink:title="Build a SocketClient for a new client connection and set all attributes.">
<polygon fill="white" stroke="black" points="933.5,-98.6528 933.5,-119.653 1036.5,-119.653 1036.5,-98.6528 933.5,-98.6528"/>
<text text-anchor="middle" x="985" y="-106.653" font-family="FreeSans.ttf" font-size="10.00">SocketClient::New</text>
</a>
</g>
<!-- Node5&#45;&gt;Node15 -->
<g id="edge38" class="edge"><title>Node5&#45;&gt;Node15</title>
<path fill="none" stroke="midnightblue" d="M838.975,-172.569C858.231,-159.301 886.857,-141.014 914,-129.153 922.332,-125.512 931.503,-122.352 940.408,-119.687"/>
<polygon fill="midnightblue" stroke="midnightblue" points="836.759,-169.848 830.574,-178.45 840.773,-175.583 836.759,-169.848"/>
</g>
<!-- Node7 -->
<g id="node13" class="node"><title>Node7</title>
<a xlink:href="classSocketClient.xhtml#ad4f63c7d906310dc56a1217136047d7f" target="_top" xlink:title="Interpret the command at the front of the queue.">
<polygon fill="white" stroke="black" points="1092,-251.653 1092,-272.653 1262,-272.653 1262,-251.653 1092,-251.653"/>
<text text-anchor="middle" x="1177" y="-259.653" font-family="FreeSans.ttf" font-size="10.00">SocketClient::ProcessCommand</text>
</a>
</g>
<!-- Node6&#45;&gt;Node7 -->
<g id="edge12" class="edge"><title>Node6&#45;&gt;Node7</title>
<path fill="none" stroke="midnightblue" d="M1038.04,-296.168C1068.28,-288.767 1105.68,-279.612 1134.06,-272.665"/>
<polygon fill="midnightblue" stroke="midnightblue" points="1036.97,-292.828 1028.09,-298.605 1038.63,-299.627 1036.97,-292.828"/>
</g>
<!-- Node8 -->
<g id="node15" class="node"><title>Node8</title>
<a xlink:href="classServer.xhtml#a2b4cec469bb99c2a45e49de5ba74d1ae" target="_top" xlink:title="Processes input from all active SocketClient objects.">
<polygon fill="white" stroke="black" points="1298,-233.653 1298,-254.653 1414,-254.653 1414,-233.653 1298,-233.653"/>
<text text-anchor="middle" x="1356" y="-241.653" font-family="FreeSans.ttf" font-size="10.00">Server::ProcessInput</text>
</a>
</g>
<!-- Node7&#45;&gt;Node8 -->
<g id="edge14" class="edge"><title>Node7&#45;&gt;Node8</title>
<path fill="none" stroke="midnightblue" d="M1272.25,-252.575C1280.93,-251.702 1289.54,-250.836 1297.75,-250.011"/>
<polygon fill="midnightblue" stroke="midnightblue" points="1271.64,-249.118 1262.04,-253.601 1272.34,-256.083 1271.64,-249.118"/>
</g>
<!-- Node9 -->
<g id="node17" class="node"><title>Node9</title>
<a xlink:href="classServer.xhtml#a50b81aa91d8fdaee6f52c5c5ec987990" target="_top" xlink:title="The core update loop of NAMS. This loop spawns all other subsystem update routines and then sleeps fo...">
<polygon fill="white" stroke="black" points="1450.5,-165.653 1450.5,-186.653 1539.5,-186.653 1539.5,-165.653 1450.5,-165.653"/>
<text text-anchor="middle" x="1495" y="-173.653" font-family="FreeSans.ttf" font-size="10.00">Server::Update</text>
</a>
</g>
<!-- Node8&#45;&gt;Node9 -->
<g id="edge16" class="edge"><title>Node8&#45;&gt;Node9</title>
<path fill="none" stroke="midnightblue" d="M1386.87,-229.052C1413.15,-216.194 1450.24,-198.051 1473.43,-186.703"/>
<polygon fill="midnightblue" stroke="midnightblue" points="1385.16,-225.989 1377.72,-233.528 1388.24,-232.277 1385.16,-225.989"/>
</g>
<!-- Node10 -->
<g id="node19" class="node"><title>Node10</title>
<a xlink:href="main_8cpp.xhtml#ad53223b8779f25caeddb70a3b9172967" target="_top" xlink:title="The default function required to execute the server.">
<polygon fill="white" stroke="black" points="1576.5,-107.653 1576.5,-128.653 1617.5,-128.653 1617.5,-107.653 1576.5,-107.653"/>
<text text-anchor="middle" x="1597" y="-115.653" font-family="FreeSans.ttf" font-size="10.00">main</text>
</a>
</g>
<!-- Node9&#45;&gt;Node10 -->
<g id="edge18" class="edge"><title>Node9&#45;&gt;Node10</title>
<path fill="none" stroke="midnightblue" d="M1522.47,-160.532C1540.19,-150.454 1562.77,-137.615 1578.41,-128.723"/>
<polygon fill="midnightblue" stroke="midnightblue" points="1520.67,-157.529 1513.71,-165.515 1524.13,-163.614 1520.67,-157.529"/>
</g>
<!-- Node11&#45;&gt;Node5 -->
<g id="edge24" class="edge"><title>Node11&#45;&gt;Node5</title>
<path fill="none" stroke="midnightblue" d="M907.069,-254.908C872.019,-238.165 838.444,-214.349 823.722,-199.876"/>
<polygon fill="midnightblue" stroke="midnightblue" points="905.938,-258.239 916.488,-259.215 908.849,-251.874 905.938,-258.239"/>
</g>
<!-- Node12&#45;&gt;Node5 -->
<g id="edge28" class="edge"><title>Node12&#45;&gt;Node5</title>
<path fill="none" stroke="midnightblue" d="M903.797,-216.679C880.434,-211.214 856.733,-204.98 839.855,-199.672"/>
<polygon fill="midnightblue" stroke="midnightblue" points="903.239,-220.141 913.769,-218.969 904.806,-213.319 903.239,-220.141"/>
</g>
<!-- Node13&#45;&gt;Node5 -->
<g id="edge32" class="edge"><title>Node13&#45;&gt;Node5</title>
<path fill="none" stroke="midnightblue" d="M906.245,-195.889C896.756,-195.935 887.171,-195.867 877.97,-195.685"/>
<polygon fill="midnightblue" stroke="midnightblue" points="906.513,-199.387 916.48,-195.794 906.448,-192.387 906.513,-199.387"/>
</g>
<!-- Node14&#45;&gt;Node5 -->
<g id="edge36" class="edge"><title>Node14&#45;&gt;Node5</title>
<path fill="none" stroke="midnightblue" d="M951.251,-162.664C930.302,-168.785 902.742,-175.644 877.97,-181.017"/>
<polygon fill="midnightblue" stroke="midnightblue" points="952.403,-165.973 960.963,-159.729 950.378,-159.272 952.403,-165.973"/>
</g>
<!-- Node16 -->
<g id="node36" class="node"><title>Node16</title>
<a xlink:href="classSocketServer.xhtml#afdbc60c3bc840875d2214b59c6213f63" target="_top" xlink:title="Accept a new connection on the listening port.">
<polygon fill="white" stroke="black" points="1117,-174.653 1117,-195.653 1237,-195.653 1237,-174.653 1117,-174.653"/>
<text text-anchor="middle" x="1177" y="-182.653" font-family="FreeSans.ttf" font-size="10.00">SocketServer::Accept</text>
</a>
</g>
<!-- Node15&#45;&gt;Node16 -->
<g id="edge40" class="edge"><title>Node15&#45;&gt;Node16</title>
<path fill="none" stroke="midnightblue" d="M1036.35,-122.567C1043.01,-124.614 1049.7,-126.826 1056,-129.153 1092.48,-142.634 1133.19,-162.538 1156.87,-174.629"/>
<polygon fill="midnightblue" stroke="midnightblue" points="1037.24,-119.18 1026.65,-119.692 1035.25,-125.891 1037.24,-119.18"/>
</g>
<!-- Node17 -->
<g id="node38" class="node"><title>Node17</title>
<a xlink:href="classServer.xhtml#a39dbe16fdc8c5f6fbd678c6540fbcd6c" target="_top" xlink:title="Poll all SocketClient objects that are communicating with the associated SocketServer object...">
<polygon fill="white" stroke="black" points="1301.5,-184.653 1301.5,-205.653 1410.5,-205.653 1410.5,-184.653 1301.5,-184.653"/>
<text text-anchor="middle" x="1356" y="-192.653" font-family="FreeSans.ttf" font-size="10.00">Server::PollSockets</text>
</a>
</g>
<!-- Node16&#45;&gt;Node17 -->
<g id="edge42" class="edge"><title>Node16&#45;&gt;Node17</title>
<path fill="none" stroke="midnightblue" d="M1247.27,-189.078C1265.28,-190.085 1284.39,-191.152 1301.48,-192.107"/>
<polygon fill="midnightblue" stroke="midnightblue" points="1247.28,-185.574 1237.1,-188.51 1246.89,-192.563 1247.28,-185.574"/>
</g>
<!-- Node17&#45;&gt;Node9 -->
<g id="edge44" class="edge"><title>Node17&#45;&gt;Node9</title>
<path fill="none" stroke="midnightblue" d="M1420.57,-186.326C1430.69,-184.944 1440.94,-183.542 1450.47,-182.239"/>
<polygon fill="midnightblue" stroke="midnightblue" points="1419.97,-182.876 1410.54,-187.698 1420.92,-189.811 1419.97,-182.876"/>
</g>
<!-- Node18&#45;&gt;Node3 -->
<g id="edge48" class="edge"><title>Node18&#45;&gt;Node3</title>
<path fill="none" stroke="midnightblue" d="M410.044,-141.251C429.113,-146.243 450.588,-151.864 468.646,-156.59"/>
<polygon fill="midnightblue" stroke="midnightblue" points="410.882,-137.853 400.322,-138.707 409.109,-144.625 410.882,-137.853"/>
</g>
<!-- Node20 -->
<g id="node47" class="node"><title>Node20</title>
<a xlink:href="classServer.xhtml#a9b7082bbc9faca6eb84180f856116762" target="_top" xlink:title="Perform a clean shutdown of the NAMS Server providing a chance to complete disk writes and free all m...">
<polygon fill="white" stroke="black" points="1126.5,-69.6528 1126.5,-90.6528 1227.5,-90.6528 1227.5,-69.6528 1126.5,-69.6528"/>
<text text-anchor="middle" x="1177" y="-77.6528" font-family="FreeSans.ttf" font-size="10.00">Server::Shutdown</text>
</a>
</g>
<!-- Node19&#45;&gt;Node20 -->
<g id="edge54" class="edge"><title>Node19&#45;&gt;Node20</title>
<path fill="none" stroke="midnightblue" d="M261.801,-70.1528C327.259,-70.1528 424.366,-70.1528 509,-70.1528 509,-70.1528 509,-70.1528 816,-70.1528 926.818,-70.1528 1056.7,-74.9197 1126.49,-77.8711"/>
<polygon fill="midnightblue" stroke="midnightblue" points="261.574,-66.6529 251.574,-70.1528 261.574,-73.6529 261.574,-66.6529"/>
</g>
<!-- Node20&#45;&gt;Node9 -->
<g id="edge62" class="edge"><title>Node20&#45;&gt;Node9</title>
<path fill="none" stroke="midnightblue" d="M1207.72,-95.2445C1231.82,-106.619 1266.45,-121.949 1298,-132.153 1349.18,-148.707 1409.81,-161.228 1450.16,-168.602"/>
<polygon fill="midnightblue" stroke="midnightblue" points="1208.92,-91.9421 1198.39,-90.7923 1205.91,-98.2592 1208.92,-91.9421"/>
</g>
<!-- Node20&#45;&gt;Node10 -->
<g id="edge56" class="edge"><title>Node20&#45;&gt;Node10</title>
<path fill="none" stroke="midnightblue" d="M1237.78,-85.6519C1333.55,-94.3169 1514.98,-110.732 1576.22,-116.272"/>
<polygon fill="midnightblue" stroke="midnightblue" points="1237.94,-82.1519 1227.66,-84.7365 1237.31,-89.1234 1237.94,-82.1519"/>
</g>
<!-- Node21 -->
<g id="node50" class="node"><title>Node21</title>
<a xlink:href="classServer.xhtml#a19a1e493e1fb50a56d9c77332543d565" target="_top" xlink:title="Start the NAMS Server. Responsible for calling all critical boot&#45;time functions such as SocketServer ...">
<polygon fill="white" stroke="black" points="1450,-49.6528 1450,-70.6528 1540,-70.6528 1540,-49.6528 1450,-49.6528"/>
<text text-anchor="middle" x="1495" y="-57.6528" font-family="FreeSans.ttf" font-size="10.00">Server::Startup</text>
</a>
</g>
<!-- Node20&#45;&gt;Node21 -->
<g id="edge58" class="edge"><title>Node20&#45;&gt;Node21</title>
<path fill="none" stroke="midnightblue" d="M1237.76,-76.3311C1299.68,-72.4372 1394.27,-66.488 1449.84,-62.9928"/>
<polygon fill="midnightblue" stroke="midnightblue" points="1237.5,-72.8407 1227.74,-76.9616 1237.94,-79.8269 1237.5,-72.8407"/>
</g>
<!-- Node22 -->
<g id="node54" class="node"><title>Node22</title>
<a xlink:href="classSocketServer.xhtml#a72918e73dd56b8986a15678c2cfb5a48" target="_top" xlink:title="Build a socket for a server and set all attributes.">
<polygon fill="white" stroke="black" points="1302.5,-30.6528 1302.5,-51.6528 1409.5,-51.6528 1409.5,-30.6528 1302.5,-30.6528"/>
<text text-anchor="middle" x="1356" y="-38.6528" font-family="FreeSans.ttf" font-size="10.00">SocketServer::New</text>
</a>
</g>
<!-- Node20&#45;&gt;Node22 -->
<g id="edge64" class="edge"><title>Node20&#45;&gt;Node22</title>
<path fill="none" stroke="midnightblue" d="M1235.23,-67.4647C1258.61,-62.3728 1285.23,-56.572 1307.52,-51.7152"/>
<polygon fill="midnightblue" stroke="midnightblue" points="1234.47,-64.0501 1225.44,-69.5988 1235.96,-70.8897 1234.47,-64.0501"/>
</g>
<!-- Node21&#45;&gt;Node10 -->
<g id="edge60" class="edge"><title>Node21&#45;&gt;Node10</title>
<path fill="none" stroke="midnightblue" d="M1522.47,-75.7738C1540.19,-85.8517 1562.77,-98.6903 1578.41,-107.582"/>
<polygon fill="midnightblue" stroke="midnightblue" points="1524.13,-72.6914 1513.71,-70.7909 1520.67,-78.7765 1524.13,-72.6914"/>
</g>
<!-- Node22&#45;&gt;Node21 -->
<g id="edge66" class="edge"><title>Node22&#45;&gt;Node21</title>
<path fill="none" stroke="midnightblue" d="M1419.83,-49.8778C1430.01,-51.2688 1440.35,-52.6821 1449.97,-53.9973"/>
<polygon fill="midnightblue" stroke="midnightblue" points="1420.12,-46.3853 1409.74,-48.4987 1419.17,-53.3208 1420.12,-46.3853"/>
</g>
<!-- Node23&#45;&gt;Node21 -->
<g id="edge70" class="edge"><title>Node23&#45;&gt;Node21</title>
<path fill="none" stroke="midnightblue" d="M441.971,-7.84529C500.484,-5.13721 581.061,-2.15277 652,-2.15277 652,-2.15277 652,-2.15277 1177,-2.15277 1282.67,-2.15277 1312,6.4583 1414,-21.1528 1437.2,-27.4331 1461.8,-40.2706 1477.72,-49.5035"/>
<polygon fill="midnightblue" stroke="midnightblue" points="441.502,-4.36342 431.677,-8.32939 441.83,-11.3557 441.502,-4.36342"/>
</g>
</g>
</svg>
        <g id="navigator" transform="translate(0 0)" fill="#404254">
                <rect fill="#f2f5e9" fill-opacity="0.5" stroke="#606060" stroke-width=".5" x="0" y="0" width="60" height="60"/>
                <use id="zoomplus" xlink:href="#zoomPlus" x="17" y="9" onmousedown="handleZoom(evt,'in')"/>
                <use id="zoomminus" xlink:href="#zoomMin" x="42" y="9" onmousedown="handleZoom(evt,'out')"/>
                <use id="reset" xlink:href="#resetDef" x="30" y="36" onmousedown="handleReset()"/>
                <g id="arrowUp" xlink:href="#dirArrow" transform="translate(30 24)" onmousedown="handlePan(0,-1)">
                  <use xlink:href="#rim" fill="#404040">
                        <set attributeName="fill" to="#808080" begin="arrowUp.mouseover" end="arrowUp.mouseout"/>
                  </use>
                  <path fill="none" stroke="white" stroke-width="1.5" d="M0,-3.0v7 M-2.5,-0.5L0,-3.0L2.5,-0.5"/>
                </g>
                <g id="arrowRight" xlink:href="#dirArrow" transform="rotate(90) translate(36 -43)" onmousedown="handlePan(1,0)">
                  <use xlink:href="#rim" fill="#404040">
                        <set attributeName="fill" to="#808080" begin="arrowRight.mouseover" end="arrowRight.mouseout"/>
                  </use>
                  <path fill="none" stroke="white" stroke-width="1.5" d="M0,-3.0v7 M-2.5,-0.5L0,-3.0L2.5,-0.5"/>
                </g>
                <g id="arrowDown" xlink:href="#dirArrow" transform="rotate(180) translate(-30 -48)" onmousedown="handlePan(0,1)">
                  <use xlink:href="#rim" fill="#404040">
                        <set attributeName="fill" to="#808080" begin="arrowDown.mouseover" end="arrowDown.mouseout"/>
                  </use>
                  <path fill="none" stroke="white" stroke-width="1.5" d="M0,-3.0v7 M-2.5,-0.5L0,-3.0L2.5,-0.5"/>
                </g>
                <g id="arrowLeft" xlink:href="#dirArrow" transform="rotate(270) translate(-36 17)" onmousedown="handlePan(-1,0)">
                  <use xlink:href="#rim" fill="#404040">
                        <set attributeName="fill" to="#808080" begin="arrowLeft.mouseover" end="arrowLeft.mouseout"/>
                  </use>
                  <path fill="none" stroke="white" stroke-width="1.5" d="M0,-3.0v7 M-2.5,-0.5L0,-3.0L2.5,-0.5"/>
                </g>
        </g>
</svg>
