<?xml version="1.0" encoding="UTF-8" standalone="no"?>
<!DOCTYPE svg PUBLIC "-//W3C//DTD SVG 1.1//EN"
 "http://www.w3.org/Graphics/SVG/1.1/DTD/svg11.dtd">
<!-- Generated by graphviz version 2.26.3 (20100126.1600)
 -->
<!-- Title: Server::BuildPlugin Pages: 1 -->
<svg width="240pt" height="66pt"
 viewBox="0.00 0.00 240.00 66.00" xmlns="http://www.w3.org/2000/svg" xmlns:xlink="http://www.w3.org/1999/xlink">
<g id="graph1" class="graph" transform="scale(1 1) rotate(0) translate(4 62)">
<title>Server::BuildPlugin</title>
<polygon fill="white" stroke="white" points="-4,5 -4,-62 237,-62 237,5 -4,5"/>
<!-- Node1 -->
<g id="node1" class="node"><title>Node1</title>
<polygon fill="#bfbfbf" stroke="black" points="0,-19 0,-39 106,-39 106,-19 0,-19"/>
<text text-anchor="middle" x="53" y="-26" font-family="FreeSans.ttf" font-size="10.00">Server::BuildPlugin</text>
</g>
<!-- Node2 -->
<g id="node3" class="node"><title>Node2</title>
<a xlink:href="namespaceUtils.xhtml#a158e1deb611937a6313e8683fe7db3fc" target="_top" xlink:title="Determines if a file is readable.">
<polygon fill="white" stroke="black" points="142.5,-38 142.5,-58 231.5,-58 231.5,-38 142.5,-38"/>
<text text-anchor="middle" x="187" y="-45" font-family="FreeSans.ttf" font-size="10.00">Utils::iReadable</text>
</a>
</g>
<!-- Node1&#45;&gt;Node2 -->
<g id="edge2" class="edge"><title>Node1&#45;&gt;Node2</title>
<path fill="none" stroke="midnightblue" d="M106.345,-36.5639C114.948,-37.7837 123.865,-39.0481 132.495,-40.2717"/>
<polygon fill="midnightblue" stroke="midnightblue" points="132.066,-43.7458 142.458,-41.6844 133.049,-36.8151 132.066,-43.7458"/>
</g>
<!-- Node3 -->
<g id="node5" class="node"><title>Node3</title>
<a xlink:href="namespaceUtils.xhtml#ad21617b756ef242fbc66e63dec3e4e4d" target="_top" xlink:title="Returns a string consisting of directory/file.ext.">
<polygon fill="white" stroke="black" points="148,-0 148,-20 226,-20 226,-0 148,-0"/>
<text text-anchor="middle" x="187" y="-7" font-family="FreeSans.ttf" font-size="10.00">Utils::DirPath</text>
</a>
</g>
<!-- Node1&#45;&gt;Node3 -->
<g id="edge4" class="edge"><title>Node1&#45;&gt;Node3</title>
<path fill="none" stroke="midnightblue" d="M106.345,-21.4361C116.746,-19.9614 127.605,-18.4217 137.861,-16.9675"/>
<polygon fill="midnightblue" stroke="midnightblue" points="138.468,-20.4166 147.877,-15.5473 137.485,-13.4859 138.468,-20.4166"/>
</g>
</g>
</svg>
