<?xml version="1.0" encoding="UTF-8" standalone="no"?>
<!DOCTYPE svg PUBLIC "-//W3C//DTD SVG 1.1//EN"
 "http://www.w3.org/Graphics/SVG/1.1/DTD/svg11.dtd">
<!-- Generated by graphviz version 2.26.3 (20100126.1600)
 -->
<!-- Title: G Pages: 1 -->
<!--zoomable 370 -->
<svg id="main" version="1.1" xmlns="http://www.w3.org/2000/svg" xmlns:xlink="http://www.w3.org/1999/xlink" xml:space="preserve" onload="init(evt)">
        <defs>
                <circle id="rim" cx="0" cy="0" r="7"/>
                <circle id="rim2" cx="0" cy="0" r="3.5"/>
                <g id="zoomPlus">
                        <use xlink:href="#rim" fill="#404040">
                                <set attributeName="fill" to="#808080" begin="zoomplus.mouseover" end="zoomplus.mouseout"/>
                        </use>
                        <path d="M-4,0h8M0,-4v8" fill="none" stroke="white" stroke-width="1.5" pointer-events="none"/>
                </g>
                <g id="zoomMin">
                        <use xlink:href="#rim" fill="#404040">
                                <set attributeName="fill" to="#808080" begin="zoomminus.mouseover" end="zoomminus.mouseout"/>
                        </use>
                        <path d="M-4,0h8" fill="none" stroke="white" stroke-width="1.5" pointer-events="none"/>
                </g>
                <g id="dirArrow">
                        <path fill="none" stroke="white" stroke-width="1.5" d="M0,-3.0v7 M-2.5,-0.5L0,-3.0L2.5,-0.5"/>
                </g>
               <g id="resetDef">
                       <use xlink:href="#rim2" fill="#404040">
                               <set attributeName="fill" to="#808080" begin="reset.mouseover" end="reset.mouseout"/>
                       </use>
               </g>
        </defs>

<script type="text/javascript">
var viewWidth = 586;
var viewHeight = 370;
var sectionId = 'dynsection-19';
</script>
<script xlink:href="svgpan.js"/>
<svg id="graph" class="graph">
<g id="viewport">
<title>G</title>
<polygon fill="white" stroke="white" points="-4,5 -4,-366 583,-366 583,5 -4,5"/>
<!-- Node1 -->
<g id="node1" class="node"><title>Node1</title>
<polygon fill="#bfbfbf" stroke="black" points="0.5,-80.5 0.5,-101.5 101.5,-101.5 101.5,-80.5 0.5,-80.5"/>
<text text-anchor="middle" x="51" y="-88.5" font-family="FreeSans.ttf" font-size="10.00">Server::Shutdown</text>
</g>
<!-- Node2 -->
<g id="node3" class="node"><title>Node2</title>
<a xlink:href="namespaceServer.xhtml#ae1bb8d3c7c71119bae6dd4205fd6c0cc" target="_top" xlink:title="Sends a message to all clients connected to the Server.">
<polygon fill="white" stroke="black" points="152.5,-180.5 152.5,-201.5 255.5,-201.5 255.5,-180.5 152.5,-180.5"/>
<text text-anchor="middle" x="204" y="-188.5" font-family="FreeSans.ttf" font-size="10.00">Server::Broadcast</text>
</a>
</g>
<!-- Node1&#45;&gt;Node2 -->
<g id="edge2" class="edge"><title>Node1&#45;&gt;Node2</title>
<path fill="none" stroke="midnightblue" d="M65.9066,-101.678C83.0899,-113.893 112.275,-134.354 138,-151 150.729,-159.236 165.1,-168.007 177.175,-175.23"/>
<polygon fill="midnightblue" stroke="midnightblue" points="175.511,-178.313 185.895,-180.417 179.09,-172.297 175.511,-178.313"/>
</g>
<!-- Node11 -->
<g id="node21" class="node"><title>Node11</title>
<a xlink:href="classServer_1_1Config.xhtml#a39f409e995ec914244e9eff416d4477e" target="_top" xlink:title="Serialize runtime configuration settings and write them to CFG_DAT_FILE_SETTINGS.">
<polygon fill="white" stroke="black" points="138.5,-120.5 138.5,-141.5 269.5,-141.5 269.5,-120.5 138.5,-120.5"/>
<text text-anchor="middle" x="204" y="-128.5" font-family="FreeSans.ttf" font-size="10.00">Server::Config::Serialize</text>
</a>
</g>
<!-- Node1&#45;&gt;Node11 -->
<g id="edge20" class="edge"><title>Node1&#45;&gt;Node11</title>
<path fill="none" stroke="midnightblue" d="M91.1989,-101.51C110.449,-106.542 133.691,-112.619 154.064,-117.945"/>
<polygon fill="midnightblue" stroke="midnightblue" points="153.244,-121.348 163.804,-120.491 155.015,-114.576 153.244,-121.348"/>
</g>
<!-- Node15 -->
<g id="node29" class="node"><title>Node15</title>
<a xlink:href="classServer_1_1Config.xhtml#ac8f796a3da103223e7f176800f4ef929" target="_top" xlink:title="Unload runtime configuration from memory.">
<polygon fill="white" stroke="black" points="143,-80.5 143,-101.5 265,-101.5 265,-80.5 143,-80.5"/>
<text text-anchor="middle" x="204" y="-88.5" font-family="FreeSans.ttf" font-size="10.00">Server::Config::Delete</text>
</a>
</g>
<!-- Node1&#45;&gt;Node15 -->
<g id="edge28" class="edge"><title>Node1&#45;&gt;Node15</title>
<path fill="none" stroke="midnightblue" d="M101.522,-91C111.548,-91 122.25,-91 132.816,-91"/>
<polygon fill="midnightblue" stroke="midnightblue" points="132.878,-94.5001 142.878,-91 132.878,-87.5001 132.878,-94.5001"/>
</g>
<!-- Node16 -->
<g id="node31" class="node"><title>Node16</title>
<a xlink:href="classServer_1_1Stats.xhtml#a04c80b5a0190d979dce3b5b53c7fe122" target="_top" xlink:title="Unload runtime statistics from memory.">
<polygon fill="white" stroke="black" points="145.5,-40.5 145.5,-61.5 262.5,-61.5 262.5,-40.5 145.5,-40.5"/>
<text text-anchor="middle" x="204" y="-48.5" font-family="FreeSans.ttf" font-size="10.00">Server::Stats::Delete</text>
</a>
</g>
<!-- Node1&#45;&gt;Node16 -->
<g id="edge30" class="edge"><title>Node1&#45;&gt;Node16</title>
<path fill="none" stroke="midnightblue" d="M91.1989,-80.4905C110.449,-75.4578 133.691,-69.3814 154.064,-64.0552"/>
<polygon fill="midnightblue" stroke="midnightblue" points="155.015,-67.4243 163.804,-61.5087 153.244,-60.652 155.015,-67.4243"/>
</g>
<!-- Node17 -->
<g id="node33" class="node"><title>Node17</title>
<a xlink:href="classServer_1_1Global.xhtml#a14a06f48b3f3d845f54e09c1cbdd8960" target="_top" xlink:title="Unload global variables from memory.">
<polygon fill="white" stroke="black" points="143,-0.5 143,-21.5 265,-21.5 265,-0.5 143,-0.5"/>
<text text-anchor="middle" x="204" y="-8.5" font-family="FreeSans.ttf" font-size="10.00">Server::Global::Delete</text>
</a>
</g>
<!-- Node1&#45;&gt;Node17 -->
<g id="edge32" class="edge"><title>Node1&#45;&gt;Node17</title>
<path fill="none" stroke="midnightblue" d="M63.7708,-80.2839C80.0694,-67.0743 109.57,-44.6981 138,-31 142.601,-28.7832 147.501,-26.7499 152.473,-24.9004"/>
<polygon fill="midnightblue" stroke="midnightblue" points="153.764,-28.1571 162.063,-21.5705 151.468,-21.5444 153.764,-28.1571"/>
</g>
<!-- Node3 -->
<g id="node5" class="node"><title>Node3</title>
<a xlink:href="classSocketClient.xhtml#a6268f3d184970ec0076da657c39d2e80" target="_top" xlink:title="Process data from the client&#39;s send buffer and transmit it via the socket.">
<polygon fill="white" stroke="black" points="306.5,-200.5 306.5,-221.5 413.5,-221.5 413.5,-200.5 306.5,-200.5"/>
<text text-anchor="middle" x="360" y="-208.5" font-family="FreeSans.ttf" font-size="10.00">SocketClient::Send</text>
</a>
</g>
<!-- Node2&#45;&gt;Node3 -->
<g id="edge4" class="edge"><title>Node2&#45;&gt;Node3</title>
<path fill="none" stroke="midnightblue" d="M255.513,-197.604C268.525,-199.272 282.654,-201.084 296.193,-202.82"/>
<polygon fill="midnightblue" stroke="midnightblue" points="296.038,-206.328 306.402,-204.129 296.929,-199.385 296.038,-206.328"/>
</g>
<!-- Node4 -->
<g id="node7" class="node"><title>Node4</title>
<a xlink:href="classSocket.xhtml#a508457b48e6296d1e86c7cc72af65948" target="_top" xlink:title="Return if the Socket is valid for use.">
<polygon fill="white" stroke="black" points="475,-340.5 475,-361.5 553,-361.5 553,-340.5 475,-340.5"/>
<text text-anchor="middle" x="514" y="-348.5" font-family="FreeSans.ttf" font-size="10.00">Socket::Valid</text>
</a>
</g>
<!-- Node3&#45;&gt;Node4 -->
<g id="edge6" class="edge"><title>Node3&#45;&gt;Node4</title>
<path fill="none" stroke="midnightblue" d="M365.104,-221.751C376.768,-245.172 407.675,-301.097 450,-331 454.751,-334.357 460.085,-337.165 465.595,-339.511"/>
<polygon fill="midnightblue" stroke="midnightblue" points="464.368,-342.789 474.959,-343.038 466.835,-336.238 464.368,-342.789"/>
</g>
<!-- Node5 -->
<g id="node9" class="node"><title>Node5</title>
<a xlink:href="classSocket.xhtml#a45d3aa99d71b868921543a4708471f82" target="_top" xlink:title="Returns the file descriptor associated to the Socket.">
<polygon fill="white" stroke="black" points="458.5,-300.5 458.5,-321.5 569.5,-321.5 569.5,-300.5 458.5,-300.5"/>
<text text-anchor="middle" x="514" y="-308.5" font-family="FreeSans.ttf" font-size="10.00">Socket::gDescriptor</text>
</a>
</g>
<!-- Node3&#45;&gt;Node5 -->
<g id="edge8" class="edge"><title>Node3&#45;&gt;Node5</title>
<path fill="none" stroke="midnightblue" d="M369.16,-221.654C384.327,-238.66 416.337,-271.959 450,-291 453.705,-293.095 457.657,-295 461.71,-296.726"/>
<polygon fill="midnightblue" stroke="midnightblue" points="460.692,-300.086 471.281,-300.434 463.221,-293.558 460.692,-300.086"/>
</g>
<!-- Node6 -->
<g id="node11" class="node"><title>Node6</title>
<a xlink:href="classSocketClient.xhtml#aa0badca8f614127e98281995c02cb385" target="_top" xlink:title="Returns the connection state of the client from SOC_STATE.">
<polygon fill="white" stroke="black" points="456.5,-260.5 456.5,-281.5 571.5,-281.5 571.5,-260.5 456.5,-260.5"/>
<text text-anchor="middle" x="514" y="-268.5" font-family="FreeSans.ttf" font-size="10.00">SocketClient::gState</text>
</a>
</g>
<!-- Node3&#45;&gt;Node6 -->
<g id="edge10" class="edge"><title>Node3&#45;&gt;Node6</title>
<path fill="none" stroke="midnightblue" d="M381.896,-221.584C399.94,-230.098 426.321,-242.072 450,-251 455.652,-253.131 461.643,-255.22 467.602,-257.196"/>
<polygon fill="midnightblue" stroke="midnightblue" points="466.944,-260.662 477.536,-260.403 469.095,-254 466.944,-260.662"/>
</g>
<!-- Node7 -->
<g id="node13" class="node"><title>Node7</title>
<a xlink:href="classSocketClient.xhtml#a56e10cbe469179d7d7bc18eae6ca351c" target="_top" xlink:title="Returns the Account object associated to this SocketClient.">
<polygon fill="white" stroke="black" points="450,-220.5 450,-241.5 578,-241.5 578,-220.5 450,-220.5"/>
<text text-anchor="middle" x="514" y="-228.5" font-family="FreeSans.ttf" font-size="10.00">SocketClient::gAccount</text>
</a>
</g>
<!-- Node3&#45;&gt;Node7 -->
<g id="edge12" class="edge"><title>Node3&#45;&gt;Node7</title>
<path fill="none" stroke="midnightblue" d="M413.862,-217.995C422.216,-219.08 430.97,-220.217 439.679,-221.348"/>
<polygon fill="midnightblue" stroke="midnightblue" points="439.486,-224.852 449.854,-222.669 440.388,-217.911 439.486,-224.852"/>
</g>
<!-- Node8 -->
<g id="node15" class="node"><title>Node8</title>
<a xlink:href="classSocket.xhtml#adc72a37934a4f2d10f6ae8fc94bb4ca7" target="_top" xlink:title="Returns the hostname associated to the Socket.">
<polygon fill="white" stroke="black" points="458,-180.5 458,-201.5 570,-201.5 570,-180.5 458,-180.5"/>
<text text-anchor="middle" x="514" y="-188.5" font-family="FreeSans.ttf" font-size="10.00">Socket::gHostname</text>
</a>
</g>
<!-- Node3&#45;&gt;Node8 -->
<g id="edge14" class="edge"><title>Node3&#45;&gt;Node8</title>
<path fill="none" stroke="midnightblue" d="M413.862,-204.005C424.753,-202.591 436.324,-201.088 447.588,-199.625"/>
<polygon fill="midnightblue" stroke="midnightblue" points="448.351,-203.055 457.817,-198.297 447.449,-196.114 448.351,-203.055"/>
</g>
<!-- Node9 -->
<g id="node17" class="node"><title>Node9</title>
<a xlink:href="classSocket.xhtml#a688f0d2182f7ca098de3f76156efad0a" target="_top" xlink:title="Increment the total count of bytes sent by the socket.">
<polygon fill="white" stroke="black" points="458.5,-140.5 458.5,-161.5 569.5,-161.5 569.5,-140.5 458.5,-140.5"/>
<text text-anchor="middle" x="514" y="-148.5" font-family="FreeSans.ttf" font-size="10.00">Socket::aBytesSent</text>
</a>
</g>
<!-- Node3&#45;&gt;Node9 -->
<g id="edge16" class="edge"><title>Node3&#45;&gt;Node9</title>
<path fill="none" stroke="midnightblue" d="M381.896,-200.416C399.94,-191.902 426.321,-179.928 450,-171 455.652,-168.869 461.643,-166.78 467.602,-164.804"/>
<polygon fill="midnightblue" stroke="midnightblue" points="469.095,-168 477.536,-161.597 466.944,-161.338 469.095,-168"/>
</g>
<!-- Node10 -->
<g id="node19" class="node"><title>Node10</title>
<a xlink:href="classSocket.xhtml#a3bb9f40d6e5f32cfa960a86323322c0c" target="_top" xlink:title="Returns the number of bytes sent by the Socket.">
<polygon fill="white" stroke="black" points="458.5,-100.5 458.5,-121.5 569.5,-121.5 569.5,-100.5 458.5,-100.5"/>
<text text-anchor="middle" x="514" y="-108.5" font-family="FreeSans.ttf" font-size="10.00">Socket::gBytesSent</text>
</a>
</g>
<!-- Node3&#45;&gt;Node10 -->
<g id="edge18" class="edge"><title>Node3&#45;&gt;Node10</title>
<path fill="none" stroke="midnightblue" d="M369.16,-200.346C384.327,-183.34 416.337,-150.041 450,-131 453.705,-128.905 457.657,-127 461.71,-125.274"/>
<polygon fill="midnightblue" stroke="midnightblue" points="463.221,-128.442 471.281,-121.566 460.692,-121.914 463.221,-128.442"/>
</g>
<!-- Node12 -->
<g id="node23" class="node"><title>Node12</title>
<a xlink:href="namespaceUtils.xhtml#a67fd451200ee8a3cc646aeba5cb9513b" target="_top" xlink:title="Begins a write to a temporary file that is intended to replace a live file.">
<polygon fill="white" stroke="black" points="318,-120.5 318,-141.5 402,-141.5 402,-120.5 318,-120.5"/>
<text text-anchor="middle" x="360" y="-128.5" font-family="FreeSans.ttf" font-size="10.00">Utils::FileOpen</text>
</a>
</g>
<!-- Node11&#45;&gt;Node12 -->
<g id="edge22" class="edge"><title>Node11&#45;&gt;Node12</title>
<path fill="none" stroke="midnightblue" d="M269.706,-131C282.456,-131 295.657,-131 307.897,-131"/>
<polygon fill="midnightblue" stroke="midnightblue" points="307.922,-134.5 317.922,-131 307.922,-127.5 307.922,-134.5"/>
</g>
<!-- Node14 -->
<g id="node27" class="node"><title>Node14</title>
<a xlink:href="namespaceUtils.xhtml#a7008f8effca71806721305d1834bde1e" target="_top" xlink:title="Completes a read from a file.">
<polygon fill="white" stroke="black" points="317.5,-80.5 317.5,-101.5 402.5,-101.5 402.5,-80.5 317.5,-80.5"/>
<text text-anchor="middle" x="360" y="-88.5" font-family="FreeSans.ttf" font-size="10.00">Utils::FileClose</text>
</a>
</g>
<!-- Node11&#45;&gt;Node14 -->
<g id="edge26" class="edge"><title>Node11&#45;&gt;Node14</title>
<path fill="none" stroke="midnightblue" d="M244.987,-120.49C264.615,-115.458 288.313,-109.381 309.085,-104.055"/>
<polygon fill="midnightblue" stroke="midnightblue" points="310.199,-107.383 319.016,-101.509 308.46,-100.602 310.199,-107.383"/>
</g>
<!-- Node13 -->
<g id="node25" class="node"><title>Node13</title>
<a xlink:href="namespaceUtils.xhtml#ad21617b756ef242fbc66e63dec3e4e4d" target="_top" xlink:title="Returns a string consisting of directory/file.ext.">
<polygon fill="white" stroke="black" points="475,-60.5 475,-81.5 553,-81.5 553,-60.5 475,-60.5"/>
<text text-anchor="middle" x="514" y="-68.5" font-family="FreeSans.ttf" font-size="10.00">Utils::DirPath</text>
</a>
</g>
<!-- Node12&#45;&gt;Node13 -->
<g id="edge24" class="edge"><title>Node12&#45;&gt;Node13</title>
<path fill="none" stroke="midnightblue" d="M390.888,-120.482C398.535,-117.627 406.642,-114.382 414,-111 430.63,-103.355 433.177,-98.2117 450,-91 455.082,-88.8213 460.482,-86.7626 465.906,-84.8543"/>
<polygon fill="midnightblue" stroke="midnightblue" points="467.267,-88.0894 475.633,-81.5884 465.039,-81.4534 467.267,-88.0894"/>
</g>
</g>
</svg>
        <g id="navigator" transform="translate(0 0)" fill="#404254">
                <rect fill="#f2f5e9" fill-opacity="0.5" stroke="#606060" stroke-width=".5" x="0" y="0" width="60" height="60"/>
                <use id="zoomplus" xlink:href="#zoomPlus" x="17" y="9" onmousedown="handleZoom(evt,'in')"/>
                <use id="zoomminus" xlink:href="#zoomMin" x="42" y="9" onmousedown="handleZoom(evt,'out')"/>
                <use id="reset" xlink:href="#resetDef" x="30" y="36" onmousedown="handleReset()"/>
                <g id="arrowUp" xlink:href="#dirArrow" transform="translate(30 24)" onmousedown="handlePan(0,-1)">
                  <use xlink:href="#rim" fill="#404040">
                        <set attributeName="fill" to="#808080" begin="arrowUp.mouseover" end="arrowUp.mouseout"/>
                  </use>
                  <path fill="none" stroke="white" stroke-width="1.5" d="M0,-3.0v7 M-2.5,-0.5L0,-3.0L2.5,-0.5"/>
                </g>
                <g id="arrowRight" xlink:href="#dirArrow" transform="rotate(90) translate(36 -43)" onmousedown="handlePan(1,0)">
                  <use xlink:href="#rim" fill="#404040">
                        <set attributeName="fill" to="#808080" begin="arrowRight.mouseover" end="arrowRight.mouseout"/>
                  </use>
                  <path fill="none" stroke="white" stroke-width="1.5" d="M0,-3.0v7 M-2.5,-0.5L0,-3.0L2.5,-0.5"/>
                </g>
                <g id="arrowDown" xlink:href="#dirArrow" transform="rotate(180) translate(-30 -48)" onmousedown="handlePan(0,1)">
                  <use xlink:href="#rim" fill="#404040">
                        <set attributeName="fill" to="#808080" begin="arrowDown.mouseover" end="arrowDown.mouseout"/>
                  </use>
                  <path fill="none" stroke="white" stroke-width="1.5" d="M0,-3.0v7 M-2.5,-0.5L0,-3.0L2.5,-0.5"/>
                </g>
                <g id="arrowLeft" xlink:href="#dirArrow" transform="rotate(270) translate(-36 17)" onmousedown="handlePan(-1,0)">
                  <use xlink:href="#rim" fill="#404040">
                        <set attributeName="fill" to="#808080" begin="arrowLeft.mouseover" end="arrowLeft.mouseout"/>
                  </use>
                  <path fill="none" stroke="white" stroke-width="1.5" d="M0,-3.0v7 M-2.5,-0.5L0,-3.0L2.5,-0.5"/>
                </g>
        </g>
</svg>
