<?xml version="1.0" encoding="UTF-8" standalone="no"?>
<!DOCTYPE svg PUBLIC "-//W3C//DTD SVG 1.1//EN"
 "http://www.w3.org/Graphics/SVG/1.1/DTD/svg11.dtd">
<!-- Generated by graphviz version 2.26.3 (20100126.1600)
 -->
<!-- Title: Utils::MakePair Pages: 1 -->
<!--zoomable 710 -->
<svg id="main" version="1.1" xmlns="http://www.w3.org/2000/svg" xmlns:xlink="http://www.w3.org/1999/xlink" xml:space="preserve" onload="init(evt)">
        <defs>
                <circle id="rim" cx="0" cy="0" r="7"/>
                <circle id="rim2" cx="0" cy="0" r="3.5"/>
                <g id="zoomPlus">
                        <use xlink:href="#rim" fill="#404040">
                                <set attributeName="fill" to="#808080" begin="zoomplus.mouseover" end="zoomplus.mouseout"/>
                        </use>
                        <path d="M-4,0h8M0,-4v8" fill="none" stroke="white" stroke-width="1.5" pointer-events="none"/>
                </g>
                <g id="zoomMin">
                        <use xlink:href="#rim" fill="#404040">
                                <set attributeName="fill" to="#808080" begin="zoomminus.mouseover" end="zoomminus.mouseout"/>
                        </use>
                        <path d="M-4,0h8" fill="none" stroke="white" stroke-width="1.5" pointer-events="none"/>
                </g>
                <g id="dirArrow">
                        <path fill="none" stroke="white" stroke-width="1.5" d="M0,-3.0v7 M-2.5,-0.5L0,-3.0L2.5,-0.5"/>
                </g>
               <g id="resetDef">
                       <use xlink:href="#rim2" fill="#404040">
                               <set attributeName="fill" to="#808080" begin="reset.mouseover" end="reset.mouseout"/>
                       </use>
               </g>
        </defs>

<script type="text/javascript">
var viewWidth = 1606;
var viewHeight = 710;
var sectionId = 'dynsection-24';
</script>
<script xlink:href="svgpan.js"/>
<svg id="graph" class="graph">
<g id="viewport">
<title>Utils::MakePair</title>
<polygon fill="white" stroke="white" points="-4,5 -4,-706 1603,-706 1603,5 -4,5"/>
<!-- Node1 -->
<g id="node1" class="node"><title>Node1</title>
<polygon fill="#bfbfbf" stroke="black" points="0,-47 0,-67 86,-67 86,-47 0,-47"/>
<text text-anchor="middle" x="43" y="-54" font-family="FreeSans.ttf" font-size="10.00">Utils::MakePair</text>
</g>
<!-- Node2 -->
<g id="node3" class="node"><title>Node2</title>
<a xlink:href="classAccount.xhtml#a87dfcb1fd6c275ea89ec6f279e7ee8ff" target="_top" xlink:title="Serialize the account data.">
<polygon fill="white" stroke="black" points="122,-76 122,-96 224,-96 224,-76 122,-76"/>
<text text-anchor="middle" x="173" y="-83" font-family="FreeSans.ttf" font-size="10.00">Account::Serialize</text>
</a>
</g>
<!-- Node1&#45;&gt;Node2 -->
<g id="edge2" class="edge"><title>Node1&#45;&gt;Node2</title>
<path fill="none" stroke="midnightblue" d="M96.2632,-68.8818C106.844,-71.2422 117.855,-73.6984 128.122,-75.9888"/>
<polygon fill="midnightblue" stroke="midnightblue" points="96.8103,-65.4179 86.2881,-66.6566 95.2862,-72.2499 96.8103,-65.4179"/>
</g>
<!-- Node29 -->
<g id="node77" class="node"><title>Node29</title>
<a xlink:href="classExit.xhtml#a097962625968fc2ea0e39c867f9e1f31" target="_top" xlink:title="Serialize the exit data.">
<polygon fill="white" stroke="black" points="133,-19 133,-39 213,-39 213,-19 133,-19"/>
<text text-anchor="middle" x="173" y="-26" font-family="FreeSans.ttf" font-size="10.00">Exit::Serialize</text>
</a>
</g>
<!-- Node1&#45;&gt;Node29 -->
<g id="edge96" class="edge"><title>Node1&#45;&gt;Node29</title>
<path fill="none" stroke="midnightblue" d="M96.3891,-45.5008C108.62,-42.8665 121.418,-40.11 132.974,-37.621"/>
<polygon fill="midnightblue" stroke="midnightblue" points="95.327,-42.1492 86.2881,-47.6764 96.8009,-48.9923 95.327,-42.1492"/>
</g>
<!-- Node3 -->
<g id="node5" class="node"><title>Node3</title>
<a xlink:href="classAccount.xhtml#adc4545f17264112e532b5a48abe94baf" target="_top" xlink:title="Create a new account.">
<polygon fill="white" stroke="black" points="410,-95 410,-115 492,-115 492,-95 410,-95"/>
<text text-anchor="middle" x="451" y="-102" font-family="FreeSans.ttf" font-size="10.00">Account::New</text>
</a>
</g>
<!-- Node2&#45;&gt;Node3 -->
<g id="edge4" class="edge"><title>Node2&#45;&gt;Node3</title>
<path fill="none" stroke="midnightblue" d="M220.366,-98.276C233.142,-101.056 247.022,-103.599 260,-105 311.431,-110.551 371.106,-109.336 409.879,-107.541"/>
<polygon fill="midnightblue" stroke="midnightblue" points="220.921,-94.8131 210.394,-96.013 219.372,-101.64 220.921,-94.8131"/>
</g>
<!-- Node6 -->
<g id="node12" class="node"><title>Node6</title>
<a xlink:href="namespaceHandler.xhtml#a2e4ebf6ed049eb872aa4948d54c4932c" target="_top" xlink:title="Attempt to write a new character to disk after creation was completed.">
<polygon fill="white" stroke="black" points="876.5,-114 876.5,-134 1015.5,-134 1015.5,-114 876.5,-114"/>
<text text-anchor="middle" x="946" y="-121" font-family="FreeSans.ttf" font-size="10.00">Handler::AttachCharacter</text>
</a>
</g>
<!-- Node2&#45;&gt;Node6 -->
<g id="edge92" class="edge"><title>Node2&#45;&gt;Node6</title>
<path fill="none" stroke="midnightblue" d="M224.431,-73.7356C236.079,-71.2464 248.426,-68.8332 260,-67 344.258,-53.6547 365.692,-48 451,-48 451,-48 451,-48 594,-48 717.476,-48 859.938,-93.2343 918.601,-113.908"/>
<polygon fill="midnightblue" stroke="midnightblue" points="223.432,-70.3714 214.412,-75.9299 224.929,-77.2093 223.432,-70.3714"/>
</g>
<!-- Node11 -->
<g id="node27" class="node"><title>Node11</title>
<a xlink:href="namespaceHandler.xhtml#a97a198bfc72285b2aca4f36978db715e" target="_top" xlink:title="Main Character deletion confirmation.">
<polygon fill="white" stroke="black" points="876.5,-670 876.5,-702 1015.5,-702 1015.5,-670 876.5,-670"/>
<text text-anchor="start" x="884.5" y="-689" font-family="FreeSans.ttf" font-size="10.00">Handler::CharacterDelete</text>
<text text-anchor="middle" x="946" y="-677" font-family="FreeSans.ttf" font-size="10.00">Confirm</text>
</a>
</g>
<!-- Node2&#45;&gt;Node11 -->
<g id="edge94" class="edge"><title>Node2&#45;&gt;Node11</title>
<path fill="none" stroke="midnightblue" d="M174.986,-106.332C185.02,-196.639 238.381,-557 451,-557 451,-557 451,-557 594,-557 719.283,-557 737.252,-621.066 856,-661 865.222,-664.101 875.066,-667.122 884.732,-669.93"/>
<polygon fill="midnightblue" stroke="midnightblue" points="178.455,-105.854 173.927,-96.2755 171.493,-106.587 178.455,-105.854"/>
</g>
<!-- Node28 -->
<g id="node72" class="node"><title>Node28</title>
<a xlink:href="classAccount.xhtml#ae236325fef7b2269f54e9567577e0b92" target="_top" xlink:title="Unserialize the account data.">
<polygon fill="white" stroke="black" points="260,-76 260,-96 374,-96 374,-76 260,-76"/>
<text text-anchor="middle" x="317" y="-83" font-family="FreeSans.ttf" font-size="10.00">Account::Unserialize</text>
</a>
</g>
<!-- Node2&#45;&gt;Node28 -->
<g id="edge88" class="edge"><title>Node2&#45;&gt;Node28</title>
<path fill="none" stroke="midnightblue" d="M234.291,-86C242.692,-86 251.291,-86 259.619,-86"/>
<polygon fill="midnightblue" stroke="midnightblue" points="234.175,-82.5001 224.174,-86 234.174,-89.5001 234.175,-82.5001"/>
</g>
<!-- Node4 -->
<g id="node7" class="node"><title>Node4</title>
<a xlink:href="namespaceHandler.xhtml#a33a19d69ead678af81fbe96907eceaf0" target="_top" xlink:title="Create a new account object, or load an existing one, with a name and password.">
<polygon fill="white" stroke="black" points="528.5,-380 528.5,-400 659.5,-400 659.5,-380 528.5,-380"/>
<text text-anchor="middle" x="594" y="-387" font-family="FreeSans.ttf" font-size="10.00">Handler::AttachAccount</text>
</a>
</g>
<!-- Node3&#45;&gt;Node4 -->
<g id="edge6" class="edge"><title>Node3&#45;&gt;Node4</title>
<path fill="none" stroke="midnightblue" d="M460.655,-124.242C488.475,-179.688 568.149,-338.479 588.972,-379.978"/>
<polygon fill="midnightblue" stroke="midnightblue" points="463.702,-122.512 456.089,-115.143 457.446,-125.651 463.702,-122.512"/>
</g>
<!-- Node20 -->
<g id="node53" class="node"><title>Node20</title>
<a xlink:href="namespaceServer.xhtml#a16ea0639731dee10e1a253375b508a02" target="_top" xlink:title="Recovers the server state and re&#45;connects client sockets after a reboot.">
<polygon fill="white" stroke="black" points="1092,-152 1092,-172 1222,-172 1222,-152 1092,-152"/>
<text text-anchor="middle" x="1157" y="-159" font-family="FreeSans.ttf" font-size="10.00">Server::RebootRecovery</text>
</a>
</g>
<!-- Node3&#45;&gt;Node20 -->
<g id="edge86" class="edge"><title>Node3&#45;&gt;Node20</title>
<path fill="none" stroke="midnightblue" d="M502.197,-97.5954C604.935,-84.3479 842.92,-61.7993 1036,-105 1076.34,-114.025 1119.08,-138.057 1141.38,-151.863"/>
<polygon fill="midnightblue" stroke="midnightblue" points="501.556,-94.1496 492.098,-98.9244 502.469,-101.09 501.556,-94.1496"/>
</g>
<!-- Node5 -->
<g id="node9" class="node"><title>Node5</title>
<a xlink:href="namespaceHandler.xhtml#a139febc000c9d767a620708148e0c888" target="_top" xlink:title="Dispatches the appropriate menu based on client state.">
<polygon fill="white" stroke="black" points="696.5,-380 696.5,-400 819.5,-400 819.5,-380 696.5,-380"/>
<text text-anchor="middle" x="758" y="-387" font-family="FreeSans.ttf" font-size="10.00">Handler::LoginHandler</text>
</a>
</g>
<!-- Node4&#45;&gt;Node5 -->
<g id="edge8" class="edge"><title>Node4&#45;&gt;Node5</title>
<path fill="none" stroke="midnightblue" d="M669.79,-383.267C678.73,-383.218 687.77,-383.275 696.48,-383.441"/>
<polygon fill="midnightblue" stroke="midnightblue" points="669.724,-379.768 659.76,-383.369 669.795,-386.767 669.724,-379.768"/>
</g>
<!-- Node5&#45;&gt;Node4 -->
<g id="edge10" class="edge"><title>Node5&#45;&gt;Node4</title>
<path fill="none" stroke="midnightblue" d="M686.242,-396.703C677.436,-396.784 668.471,-396.76 659.76,-396.631"/>
<polygon fill="midnightblue" stroke="midnightblue" points="686.531,-400.199 696.48,-396.559 686.432,-393.2 686.531,-400.199"/>
</g>
<!-- Node5&#45;&gt;Node6 -->
<g id="edge12" class="edge"><title>Node5&#45;&gt;Node6</title>
<path fill="none" stroke="midnightblue" d="M759.289,-369.753C763.746,-320.587 782.545,-195.942 856,-134 861.982,-128.956 868.971,-125.146 876.363,-122.347"/>
<polygon fill="midnightblue" stroke="midnightblue" points="755.794,-369.558 758.49,-379.804 762.772,-370.113 755.794,-369.558"/>
</g>
<!-- Node7 -->
<g id="node15" class="node"><title>Node7</title>
<a xlink:href="namespaceHandler.xhtml#a73ed6064f2698dbffb5f4c247a02b661" target="_top" xlink:title="Send initial account interface menu.">
<polygon fill="white" stroke="black" points="872,-152 872,-172 1020,-172 1020,-152 872,-152"/>
<text text-anchor="middle" x="946" y="-159" font-family="FreeSans.ttf" font-size="10.00">Handler::AccountMenuMain</text>
</a>
</g>
<!-- Node5&#45;&gt;Node7 -->
<g id="edge16" class="edge"><title>Node5&#45;&gt;Node7</title>
<path fill="none" stroke="midnightblue" d="M760.534,-369.617C767.688,-325.571 791.859,-222.836 856,-172 860.756,-168.231 866.083,-165.162 871.706,-162.698"/>
<polygon fill="midnightblue" stroke="midnightblue" points="757.041,-369.308 759.037,-379.713 763.966,-370.334 757.041,-369.308"/>
</g>
<!-- Node8 -->
<g id="node18" class="node"><title>Node8</title>
<a xlink:href="namespaceHandler.xhtml#ad04998a7a6ece2486bc441052a57c2d7" target="_top" xlink:title="Main Character creation menu.">
<polygon fill="white" stroke="black" points="876,-620 876,-652 1016,-652 1016,-620 876,-620"/>
<text text-anchor="start" x="884" y="-639" font-family="FreeSans.ttf" font-size="10.00">Handler::CharacterCreate</text>
<text text-anchor="middle" x="946" y="-627" font-family="FreeSans.ttf" font-size="10.00">MenuMain</text>
</a>
</g>
<!-- Node5&#45;&gt;Node8 -->
<g id="edge20" class="edge"><title>Node5&#45;&gt;Node8</title>
<path fill="none" stroke="midnightblue" d="M767.356,-409.526C788.63,-459.596 840.021,-588.205 856,-602 865.697,-610.372 877.98,-615.957 890.329,-619.944"/>
<polygon fill="midnightblue" stroke="midnightblue" points="770.468,-407.902 763.297,-400.103 764.039,-410.672 770.468,-407.902"/>
</g>
<!-- Node9 -->
<g id="node21" class="node"><title>Node9</title>
<a xlink:href="namespaceHandler.xhtml#ab5889a65de2794129b375ec39ae923ae" target="_top" xlink:title="Select a new Character name.">
<polygon fill="white" stroke="black" points="861.5,-582 861.5,-602 1030.5,-602 1030.5,-582 861.5,-582"/>
<text text-anchor="middle" x="946" y="-589" font-family="FreeSans.ttf" font-size="10.00">Handler::CharacterCreateName</text>
</a>
</g>
<!-- Node5&#45;&gt;Node9 -->
<g id="edge24" class="edge"><title>Node5&#45;&gt;Node9</title>
<path fill="none" stroke="midnightblue" d="M764.169,-409.727C775.308,-446.439 802.734,-524.042 856,-564 869.158,-573.87 886.297,-578.874 902.084,-581.915"/>
<polygon fill="midnightblue" stroke="midnightblue" points="767.523,-408.727 761.337,-400.126 760.809,-410.707 767.523,-408.727"/>
</g>
<!-- Node10 -->
<g id="node24" class="node"><title>Node10</title>
<a xlink:href="namespaceHandler.xhtml#ae5086bcf5857eb572beedd09158c3065" target="_top" xlink:title="Select a new Character sex.">
<polygon fill="white" stroke="black" points="867,-544 867,-564 1025,-564 1025,-544 867,-544"/>
<text text-anchor="middle" x="946" y="-551" font-family="FreeSans.ttf" font-size="10.00">Handler::CharacterCreateSex</text>
</a>
</g>
<!-- Node5&#45;&gt;Node10 -->
<g id="edge28" class="edge"><title>Node5&#45;&gt;Node10</title>
<path fill="none" stroke="midnightblue" d="M767.927,-409.222C782.221,-439.331 811.835,-496.285 856,-526 870.839,-535.984 889.921,-540.869 906.692,-543.959"/>
<polygon fill="midnightblue" stroke="midnightblue" points="771.076,-407.693 763.668,-400.119 764.735,-410.66 771.076,-407.693"/>
</g>
<!-- Node5&#45;&gt;Node11 -->
<g id="edge32" class="edge"><title>Node5&#45;&gt;Node11</title>
<path fill="none" stroke="midnightblue" d="M769.164,-409.101C782.157,-436.705 803.886,-488.527 820,-534 838.314,-585.682 816.744,-613.72 856,-652 864.592,-660.378 875.736,-666.001 887.24,-669.98"/>
<polygon fill="midnightblue" stroke="midnightblue" points="772.307,-407.56 764.8,-400.084 766.006,-410.61 772.307,-407.56"/>
</g>
<!-- Node12 -->
<g id="node30" class="node"><title>Node12</title>
<a xlink:href="namespaceHandler.xhtml#afc470ec6e82b7a9a1560588a368734f9" target="_top" xlink:title="Main Character deletion menu.">
<polygon fill="white" stroke="black" points="876.5,-494 876.5,-526 1015.5,-526 1015.5,-494 876.5,-494"/>
<text text-anchor="start" x="884.5" y="-513" font-family="FreeSans.ttf" font-size="10.00">Handler::CharacterDelete</text>
<text text-anchor="middle" x="946" y="-501" font-family="FreeSans.ttf" font-size="10.00">MenuMain</text>
</a>
</g>
<!-- Node5&#45;&gt;Node12 -->
<g id="edge36" class="edge"><title>Node5&#45;&gt;Node12</title>
<path fill="none" stroke="midnightblue" d="M777.265,-407.617C795.378,-427.239 824.379,-457.878 856,-476 870.07,-484.063 886.881,-489.642 902.144,-493.983"/>
<polygon fill="midnightblue" stroke="midnightblue" points="779.772,-405.173 770.419,-400.196 774.627,-409.92 779.772,-405.173"/>
</g>
<!-- Node13 -->
<g id="node33" class="node"><title>Node13</title>
<a xlink:href="namespaceHandler.xhtml#a02b1b954749641ab646f6548a5360d3b" target="_top" xlink:title="Main Character load menu.">
<polygon fill="white" stroke="black" points="856.5,-456 856.5,-476 1035.5,-476 1035.5,-456 856.5,-456"/>
<text text-anchor="middle" x="946" y="-463" font-family="FreeSans.ttf" font-size="10.00">Handler::CharacterLoadMenuMain</text>
</a>
</g>
<!-- Node5&#45;&gt;Node13 -->
<g id="edge40" class="edge"><title>Node5&#45;&gt;Node13</title>
<path fill="none" stroke="midnightblue" d="M791.874,-405.3C810.156,-415.952 833.529,-429.351 856,-438 878.057,-446.49 904.691,-451.514 923.238,-455.981"/>
<polygon fill="midnightblue" stroke="midnightblue" points="793.475,-402.182 783.072,-400.172 789.951,-408.23 793.475,-402.182"/>
</g>
<!-- Node14 -->
<g id="node36" class="node"><title>Node14</title>
<a xlink:href="namespaceHandler.xhtml#a00bc24564bfd267e0329643c569da1e4" target="_top" xlink:title="Select a new account name.">
<polygon fill="white" stroke="black" points="877.5,-418 877.5,-438 1014.5,-438 1014.5,-418 877.5,-418"/>
<text text-anchor="middle" x="946" y="-425" font-family="FreeSans.ttf" font-size="10.00">Handler::GetNewAccount</text>
</a>
</g>
<!-- Node5&#45;&gt;Node14 -->
<g id="edge44" class="edge"><title>Node5&#45;&gt;Node14</title>
<path fill="none" stroke="midnightblue" d="M829.7,-397.914C861.387,-403.823 896.662,-411.533 919.964,-417.9"/>
<polygon fill="midnightblue" stroke="midnightblue" points="830.024,-394.416 819.558,-396.063 828.767,-401.302 830.024,-394.416"/>
</g>
<!-- Node15 -->
<g id="node39" class="node"><title>Node15</title>
<a xlink:href="namespaceHandler.xhtml#a744adadcf407cdb3a9c33365afd5a7c2" target="_top" xlink:title="Create a new account.">
<polygon fill="white" stroke="black" points="875,-380 875,-400 1017,-400 1017,-380 875,-380"/>
<text text-anchor="middle" x="946" y="-387" font-family="FreeSans.ttf" font-size="10.00">Handler::GetNewPassword</text>
</a>
</g>
<!-- Node5&#45;&gt;Node15 -->
<g id="edge48" class="edge"><title>Node5&#45;&gt;Node15</title>
<path fill="none" stroke="midnightblue" d="M829.662,-383.422C844.465,-383.19 860.052,-383.193 874.837,-383.43"/>
<polygon fill="midnightblue" stroke="midnightblue" points="829.488,-379.925 819.558,-383.621 829.625,-386.924 829.488,-379.925"/>
</g>
<!-- Node16 -->
<g id="node42" class="node"><title>Node16</title>
<a xlink:href="namespaceHandler.xhtml#adfe13cc9748392348f3941656a1323b6" target="_top" xlink:title="Compare a received password against an existing account.">
<polygon fill="white" stroke="black" points="877.5,-342 877.5,-362 1014.5,-362 1014.5,-342 877.5,-342"/>
<text text-anchor="middle" x="946" y="-349" font-family="FreeSans.ttf" font-size="10.00">Handler::GetOldPassword</text>
</a>
</g>
<!-- Node5&#45;&gt;Node16 -->
<g id="edge52" class="edge"><title>Node5&#45;&gt;Node16</title>
<path fill="none" stroke="midnightblue" d="M793.648,-377.368C817.235,-371.357 848.931,-364.583 877.304,-359.358"/>
<polygon fill="midnightblue" stroke="midnightblue" points="792.523,-374.045 783.746,-379.979 794.308,-380.813 792.523,-374.045"/>
</g>
<!-- Node17 -->
<g id="node45" class="node"><title>Node17</title>
<a xlink:href="namespaceHandler.xhtml#ae70e4e50054c729c14493eafefe01b5c" target="_top" xlink:title="Load a character from the account to enter into the game with.">
<polygon fill="white" stroke="black" points="880.5,-304 880.5,-324 1011.5,-324 1011.5,-304 880.5,-304"/>
<text text-anchor="middle" x="946" y="-311" font-family="FreeSans.ttf" font-size="10.00">Handler::LoadCharacter</text>
</a>
</g>
<!-- Node5&#45;&gt;Node17 -->
<g id="edge56" class="edge"><title>Node5&#45;&gt;Node17</title>
<path fill="none" stroke="midnightblue" d="M772.872,-372.983C791.443,-357.443 824.602,-336.085 856,-324 863.75,-321.017 872.065,-318.462 880.395,-316.359"/>
<polygon fill="midnightblue" stroke="midnightblue" points="770.309,-370.58 765.211,-379.868 774.988,-375.787 770.309,-370.58"/>
</g>
<!-- Node18 -->
<g id="node48" class="node"><title>Node18</title>
<a xlink:href="namespaceHandler.xhtml#a44b41bf69fdc6e615a029bea34910191" target="_top" xlink:title="Send initial greeting and request for account name.">
<polygon fill="white" stroke="black" points="886.5,-266 886.5,-286 1005.5,-286 1005.5,-266 886.5,-266"/>
<text text-anchor="middle" x="946" y="-273" font-family="FreeSans.ttf" font-size="10.00">Handler::LoginScreen</text>
</a>
</g>
<!-- Node5&#45;&gt;Node18 -->
<g id="edge60" class="edge"><title>Node5&#45;&gt;Node18</title>
<path fill="none" stroke="midnightblue" d="M767.629,-371.085C783.535,-346.818 817.402,-306.536 856,-286 865.305,-281.049 875.794,-277.389 886.238,-274.836"/>
<polygon fill="midnightblue" stroke="midnightblue" points="764.518,-369.464 762.276,-379.819 770.486,-373.123 764.518,-369.464"/>
</g>
<!-- Node19 -->
<g id="node51" class="node"><title>Node19</title>
<a xlink:href="classSocketClient.xhtml#a8399ef20292e9f3ec83b5c4bec2e105b" target="_top" xlink:title="Build a SocketClient for a new client connection and set all attributes.">
<polygon fill="white" stroke="black" points="894.5,-190 894.5,-210 997.5,-210 997.5,-190 894.5,-190"/>
<text text-anchor="middle" x="946" y="-197" font-family="FreeSans.ttf" font-size="10.00">SocketClient::New</text>
</a>
</g>
<!-- Node5&#45;&gt;Node19 -->
<g id="edge64" class="edge"><title>Node5&#45;&gt;Node19</title>
<path fill="none" stroke="midnightblue" d="M764.023,-370.425C775.801,-335.497 805.259,-262.497 856,-224 867.079,-215.594 880.871,-210.128 894.304,-206.574"/>
<polygon fill="midnightblue" stroke="midnightblue" points="760.686,-369.37 760.932,-379.962 767.345,-371.528 760.686,-369.37"/>
</g>
<!-- Node26 -->
<g id="node66" class="node"><title>Node26</title>
<a xlink:href="classSocketClient.xhtml#ad4f63c7d906310dc56a1217136047d7f" target="_top" xlink:title="Interpret the command at the front of the queue.">
<polygon fill="white" stroke="black" points="1072,-228 1072,-248 1242,-248 1242,-228 1072,-228"/>
<text text-anchor="middle" x="1157" y="-235" font-family="FreeSans.ttf" font-size="10.00">SocketClient::ProcessCommand</text>
</a>
</g>
<!-- Node5&#45;&gt;Node26 -->
<g id="edge80" class="edge"><title>Node5&#45;&gt;Node26</title>
<path fill="none" stroke="midnightblue" d="M765.842,-370.489C779.223,-340.096 809.602,-282.311 856,-257 932.418,-215.311 1036.53,-219.756 1100.13,-227.997"/>
<polygon fill="midnightblue" stroke="midnightblue" points="762.491,-369.426 761.819,-379.999 768.938,-372.153 762.491,-369.426"/>
</g>
<!-- Node6&#45;&gt;Node5 -->
<g id="edge14" class="edge"><title>Node6&#45;&gt;Node5</title>
<path fill="none" stroke="midnightblue" d="M888.014,-136.358C876.432,-139.552 865.061,-144.359 856,-152 781.408,-214.901 763.177,-342.46 759.092,-379.831"/>
<polygon fill="midnightblue" stroke="midnightblue" points="888.835,-139.76 897.745,-134.028 887.205,-132.953 888.835,-139.76"/>
</g>
<!-- Node7&#45;&gt;Node5 -->
<g id="edge18" class="edge"><title>Node7&#45;&gt;Node5</title>
<path fill="none" stroke="midnightblue" d="M890.187,-174.293C877.967,-177.463 865.777,-182.251 856,-190 790.987,-241.528 767.037,-346.375 760.251,-379.865"/>
<polygon fill="midnightblue" stroke="midnightblue" points="890.974,-177.703 899.949,-172.072 889.422,-170.878 890.974,-177.703"/>
</g>
<!-- Node8&#45;&gt;Node5 -->
<g id="edge22" class="edge"><title>Node8&#45;&gt;Node5</title>
<path fill="none" stroke="midnightblue" d="M866.748,-627.634C862.931,-625.397 859.314,-622.861 856,-620 838.01,-604.469 775.139,-443.42 760.887,-400.275"/>
<polygon fill="midnightblue" stroke="midnightblue" points="865.474,-630.912 875.975,-632.322 868.645,-624.672 865.474,-630.912"/>
</g>
<!-- Node9&#45;&gt;Node5 -->
<g id="edge26" class="edge"><title>Node9&#45;&gt;Node5</title>
<path fill="none" stroke="midnightblue" d="M853.314,-579.3C790.513,-526.638 765.541,-432.173 759.506,-400.304"/>
<polygon fill="midnightblue" stroke="midnightblue" points="851.147,-582.049 861.162,-585.508 855.49,-576.559 851.147,-582.049"/>
</g>
<!-- Node10&#45;&gt;Node5 -->
<g id="edge30" class="edge"><title>Node10&#45;&gt;Node5</title>
<path fill="none" stroke="midnightblue" d="M857.961,-545.275C857.3,-544.86 856.646,-544.435 856,-544 801.296,-507.194 768.917,-428.6 760.322,-400.026"/>
<polygon fill="midnightblue" stroke="midnightblue" points="856.481,-548.454 866.938,-550.151 859.822,-542.303 856.481,-548.454"/>
</g>
<!-- Node11&#45;&gt;Node5 -->
<g id="edge34" class="edge"><title>Node11&#45;&gt;Node5</title>
<path fill="none" stroke="midnightblue" d="M867.106,-678.597C863.102,-676.125 859.356,-673.273 856,-670 816.744,-631.72 838.314,-603.682 820,-552 799.514,-494.189 769.953,-426.116 760.805,-400.078"/>
<polygon fill="midnightblue" stroke="midnightblue" points="865.758,-681.843 876.235,-683.418 869.027,-675.653 865.758,-681.843"/>
</g>
<!-- Node12&#45;&gt;Node5 -->
<g id="edge38" class="edge"><title>Node12&#45;&gt;Node5</title>
<path fill="none" stroke="midnightblue" d="M866.822,-499.504C863.091,-497.818 859.463,-495.984 856,-494 813.032,-469.375 774.904,-421.639 762.352,-400.043"/>
<polygon fill="midnightblue" stroke="midnightblue" points="865.689,-502.823 876.269,-503.392 868.353,-496.35 865.689,-502.823"/>
</g>
<!-- Node13&#45;&gt;Node5 -->
<g id="edge42" class="edge"><title>Node13&#45;&gt;Node5</title>
<path fill="none" stroke="midnightblue" d="M846.929,-452.261C813.143,-437.537 779.548,-414.233 765.211,-400.132"/>
<polygon fill="midnightblue" stroke="midnightblue" points="845.868,-455.609 856.448,-456.172 848.528,-449.134 845.868,-455.609"/>
</g>
<!-- Node14&#45;&gt;Node5 -->
<g id="edge46" class="edge"><title>Node14&#45;&gt;Node5</title>
<path fill="none" stroke="midnightblue" d="M867.262,-418.755C837.36,-413.026 805.34,-405.936 783.746,-400.021"/>
<polygon fill="midnightblue" stroke="midnightblue" points="866.829,-422.235 877.304,-420.642 868.122,-415.355 866.829,-422.235"/>
</g>
<!-- Node15&#45;&gt;Node5 -->
<g id="edge50" class="edge"><title>Node15&#45;&gt;Node5</title>
<path fill="none" stroke="midnightblue" d="M864.493,-396.697C849.422,-396.826 833.915,-396.72 819.558,-396.379"/>
<polygon fill="midnightblue" stroke="midnightblue" points="864.881,-400.192 874.837,-396.57 864.795,-393.193 864.881,-400.192"/>
</g>
<!-- Node16&#45;&gt;Node5 -->
<g id="edge54" class="edge"><title>Node16&#45;&gt;Node5</title>
<path fill="none" stroke="midnightblue" d="M909.974,-364.728C884.42,-371.226 849.488,-378.598 819.558,-383.937"/>
<polygon fill="midnightblue" stroke="midnightblue" points="911.184,-368.029 919.964,-362.1 909.403,-361.26 911.184,-368.029"/>
</g>
<!-- Node17&#45;&gt;Node5 -->
<g id="edge58" class="edge"><title>Node17&#45;&gt;Node5</title>
<path fill="none" stroke="midnightblue" d="M913.023,-326.387C895.671,-330.316 874.266,-334.969 856,-342 829.733,-352.111 802.232,-368.711 783.072,-379.828"/>
<polygon fill="midnightblue" stroke="midnightblue" points="914.286,-329.687 923.238,-324.019 912.706,-322.867 914.286,-329.687"/>
</g>
<!-- Node18&#45;&gt;Node5 -->
<g id="edge62" class="edge"><title>Node18&#45;&gt;Node5</title>
<path fill="none" stroke="midnightblue" d="M905.194,-288.037C889.161,-291.369 871.034,-296.001 856,-304 819.182,-323.589 786.669,-361.145 769.943,-379.781"/>
<polygon fill="midnightblue" stroke="midnightblue" points="906.249,-291.396 915.374,-286.012 904.883,-284.53 906.249,-291.396"/>
</g>
<!-- Node19&#45;&gt;Node20 -->
<g id="edge66" class="edge"><title>Node19&#45;&gt;Node20</title>
<path fill="none" stroke="midnightblue" d="M1007.81,-188.869C1037.33,-183.552 1072.39,-177.237 1101.11,-172.066"/>
<polygon fill="midnightblue" stroke="midnightblue" points="1006.84,-185.487 997.616,-190.704 1008.08,-192.376 1006.84,-185.487"/>
</g>
<!-- Node23 -->
<g id="node59" class="node"><title>Node23</title>
<a xlink:href="classSocketServer.xhtml#afdbc60c3bc840875d2214b59c6213f63" target="_top" xlink:title="Accept a new connection on the listening port.">
<polygon fill="white" stroke="black" points="1097,-190 1097,-210 1217,-210 1217,-190 1097,-190"/>
<text text-anchor="middle" x="1157" y="-197" font-family="FreeSans.ttf" font-size="10.00">SocketServer::Accept</text>
</a>
</g>
<!-- Node19&#45;&gt;Node23 -->
<g id="edge72" class="edge"><title>Node19&#45;&gt;Node23</title>
<path fill="none" stroke="midnightblue" d="M1007.73,-200C1035.86,-200 1069.02,-200 1096.94,-200"/>
<polygon fill="midnightblue" stroke="midnightblue" points="1007.62,-196.5 997.616,-200 1007.62,-203.5 1007.62,-196.5"/>
</g>
<!-- Node21 -->
<g id="node55" class="node"><title>Node21</title>
<a xlink:href="namespaceServer.xhtml#a19a1e493e1fb50a56d9c77332543d565" target="_top" xlink:title="Start the NAMS Server. Responsible for calling all critical boot&#45;time functions such as SocketServer ...">
<polygon fill="white" stroke="black" points="1430,-152 1430,-172 1520,-172 1520,-152 1430,-152"/>
<text text-anchor="middle" x="1475" y="-159" font-family="FreeSans.ttf" font-size="10.00">Server::Startup</text>
</a>
</g>
<!-- Node20&#45;&gt;Node21 -->
<g id="edge68" class="edge"><title>Node20&#45;&gt;Node21</title>
<path fill="none" stroke="midnightblue" d="M1232.16,-162C1293.64,-162 1378.54,-162 1429.95,-162"/>
<polygon fill="midnightblue" stroke="midnightblue" points="1232.12,-158.5 1222.12,-162 1232.12,-165.5 1232.12,-158.5"/>
</g>
<!-- Node22 -->
<g id="node57" class="node"><title>Node22</title>
<a xlink:href="main_8cpp.xhtml#ad53223b8779f25caeddb70a3b9172967" target="_top" xlink:title="The default function required to execute the server.">
<polygon fill="white" stroke="black" points="1556.5,-171 1556.5,-191 1597.5,-191 1597.5,-171 1556.5,-171"/>
<text text-anchor="middle" x="1577" y="-178" font-family="FreeSans.ttf" font-size="10.00">main</text>
</a>
</g>
<!-- Node21&#45;&gt;Node22 -->
<g id="edge70" class="edge"><title>Node21&#45;&gt;Node22</title>
<path fill="none" stroke="midnightblue" d="M1529.9,-172.227C1539.36,-173.989 1548.64,-175.718 1556.43,-177.169"/>
<polygon fill="midnightblue" stroke="midnightblue" points="1530.51,-168.779 1520.04,-170.389 1529.23,-175.661 1530.51,-168.779"/>
</g>
<!-- Node24 -->
<g id="node61" class="node"><title>Node24</title>
<a xlink:href="namespaceServer.xhtml#a39dbe16fdc8c5f6fbd678c6540fbcd6c" target="_top" xlink:title="Poll all SocketClient objects that are communicating with the associated SocketServer object...">
<polygon fill="white" stroke="black" points="1281.5,-190 1281.5,-210 1390.5,-210 1390.5,-190 1281.5,-190"/>
<text text-anchor="middle" x="1336" y="-197" font-family="FreeSans.ttf" font-size="10.00">Server::PollSockets</text>
</a>
</g>
<!-- Node23&#45;&gt;Node24 -->
<g id="edge74" class="edge"><title>Node23&#45;&gt;Node24</title>
<path fill="none" stroke="midnightblue" d="M1227.27,-200C1245.28,-200 1264.39,-200 1281.48,-200"/>
<polygon fill="midnightblue" stroke="midnightblue" points="1227.1,-196.5 1217.1,-200 1227.1,-203.5 1227.1,-196.5"/>
</g>
<!-- Node25 -->
<g id="node63" class="node"><title>Node25</title>
<a xlink:href="namespaceServer.xhtml#a50b81aa91d8fdaee6f52c5c5ec987990" target="_top" xlink:title="The core update loop of NAMS. This loop spawns all other subsystem update routines and then sleeps fo...">
<polygon fill="white" stroke="black" points="1430.5,-190 1430.5,-210 1519.5,-210 1519.5,-190 1430.5,-190"/>
<text text-anchor="middle" x="1475" y="-197" font-family="FreeSans.ttf" font-size="10.00">Server::Update</text>
</a>
</g>
<!-- Node24&#45;&gt;Node25 -->
<g id="edge76" class="edge"><title>Node24&#45;&gt;Node25</title>
<path fill="none" stroke="midnightblue" d="M1400.57,-200C1410.69,-200 1420.94,-200 1430.47,-200"/>
<polygon fill="midnightblue" stroke="midnightblue" points="1400.54,-196.5 1390.54,-200 1400.54,-203.5 1400.54,-196.5"/>
</g>
<!-- Node25&#45;&gt;Node22 -->
<g id="edge78" class="edge"><title>Node25&#45;&gt;Node22</title>
<path fill="none" stroke="midnightblue" d="M1529.64,-189.822C1539.14,-188.052 1548.47,-186.315 1556.3,-184.856"/>
<polygon fill="midnightblue" stroke="midnightblue" points="1528.93,-186.394 1519.74,-191.666 1530.21,-193.276 1528.93,-186.394"/>
</g>
<!-- Node27 -->
<g id="node68" class="node"><title>Node27</title>
<a xlink:href="namespaceServer.xhtml#a2b4cec469bb99c2a45e49de5ba74d1ae" target="_top" xlink:title="Processes input from all active SocketClient objects.">
<polygon fill="white" stroke="black" points="1278,-228 1278,-248 1394,-248 1394,-228 1278,-228"/>
<text text-anchor="middle" x="1336" y="-235" font-family="FreeSans.ttf" font-size="10.00">Server::ProcessInput</text>
</a>
</g>
<!-- Node26&#45;&gt;Node27 -->
<g id="edge82" class="edge"><title>Node26&#45;&gt;Node27</title>
<path fill="none" stroke="midnightblue" d="M1252.25,-238C1260.93,-238 1269.54,-238 1277.75,-238"/>
<polygon fill="midnightblue" stroke="midnightblue" points="1252.04,-234.5 1242.04,-238 1252.04,-241.5 1252.04,-234.5"/>
</g>
<!-- Node27&#45;&gt;Node25 -->
<g id="edge84" class="edge"><title>Node27&#45;&gt;Node25</title>
<path fill="none" stroke="midnightblue" d="M1382.62,-225.255C1400.63,-220.331 1420.96,-214.775 1437.94,-210.131"/>
<polygon fill="midnightblue" stroke="midnightblue" points="1381.61,-221.903 1372.88,-227.916 1383.45,-228.655 1381.61,-221.903"/>
</g>
<!-- Node28&#45;&gt;Node3 -->
<g id="edge90" class="edge"><title>Node28&#45;&gt;Node3</title>
<path fill="none" stroke="midnightblue" d="M384.366,-95.5519C393.038,-96.7815 401.702,-98.01 409.776,-99.1549"/>
<polygon fill="midnightblue" stroke="midnightblue" points="384.609,-92.0514 374.217,-94.1128 383.626,-98.9821 384.609,-92.0514"/>
</g>
<!-- Node30 -->
<g id="node79" class="node"><title>Node30</title>
<a xlink:href="classLocation.xhtml#a4f364ffc1f0910ac60bcb2e7cf9e7e20" target="_top" xlink:title="Serialize the location data.">
<polygon fill="white" stroke="black" points="265,-0 265,-20 369,-20 369,-0 265,-0"/>
<text text-anchor="middle" x="317" y="-7" font-family="FreeSans.ttf" font-size="10.00">Location::Serialize</text>
</a>
</g>
<!-- Node29&#45;&gt;Node30 -->
<g id="edge98" class="edge"><title>Node29&#45;&gt;Node30</title>
<path fill="none" stroke="midnightblue" d="M223.192,-22.3775C236.709,-20.594 251.358,-18.6611 264.973,-16.8647"/>
<polygon fill="midnightblue" stroke="midnightblue" points="222.568,-18.9293 213.112,-23.7074 223.484,-25.8692 222.568,-18.9293"/>
</g>
</g>
</svg>
        <g id="navigator" transform="translate(0 0)" fill="#404254">
                <rect fill="#f2f5e9" fill-opacity="0.5" stroke="#606060" stroke-width=".5" x="0" y="0" width="60" height="60"/>
                <use id="zoomplus" xlink:href="#zoomPlus" x="17" y="9" onmousedown="handleZoom(evt,'in')"/>
                <use id="zoomminus" xlink:href="#zoomMin" x="42" y="9" onmousedown="handleZoom(evt,'out')"/>
                <use id="reset" xlink:href="#resetDef" x="30" y="36" onmousedown="handleReset()"/>
                <g id="arrowUp" xlink:href="#dirArrow" transform="translate(30 24)" onmousedown="handlePan(0,-1)">
                  <use xlink:href="#rim" fill="#404040">
                        <set attributeName="fill" to="#808080" begin="arrowUp.mouseover" end="arrowUp.mouseout"/>
                  </use>
                  <path fill="none" stroke="white" stroke-width="1.5" d="M0,-3.0v7 M-2.5,-0.5L0,-3.0L2.5,-0.5"/>
                </g>
                <g id="arrowRight" xlink:href="#dirArrow" transform="rotate(90) translate(36 -43)" onmousedown="handlePan(1,0)">
                  <use xlink:href="#rim" fill="#404040">
                        <set attributeName="fill" to="#808080" begin="arrowRight.mouseover" end="arrowRight.mouseout"/>
                  </use>
                  <path fill="none" stroke="white" stroke-width="1.5" d="M0,-3.0v7 M-2.5,-0.5L0,-3.0L2.5,-0.5"/>
                </g>
                <g id="arrowDown" xlink:href="#dirArrow" transform="rotate(180) translate(-30 -48)" onmousedown="handlePan(0,1)">
                  <use xlink:href="#rim" fill="#404040">
                        <set attributeName="fill" to="#808080" begin="arrowDown.mouseover" end="arrowDown.mouseout"/>
                  </use>
                  <path fill="none" stroke="white" stroke-width="1.5" d="M0,-3.0v7 M-2.5,-0.5L0,-3.0L2.5,-0.5"/>
                </g>
                <g id="arrowLeft" xlink:href="#dirArrow" transform="rotate(270) translate(-36 17)" onmousedown="handlePan(-1,0)">
                  <use xlink:href="#rim" fill="#404040">
                        <set attributeName="fill" to="#808080" begin="arrowLeft.mouseover" end="arrowLeft.mouseout"/>
                  </use>
                  <path fill="none" stroke="white" stroke-width="1.5" d="M0,-3.0v7 M-2.5,-0.5L0,-3.0L2.5,-0.5"/>
                </g>
        </g>
        <svg viewBox="0 0 15 15" width="100%" height="30px" preserveAspectRatio="xMaxYMin meet">
         <g id="arrow_out" transform="scale(0.3 0.3)">
          <a xlink:href="namespaceUtils_a1cd33b86e538bb0c765d5c0bcde259e1_icgraph_org.svg" target="_base">
           <rect id="button" ry="5" rx="5" y="6" x="6" height="38" width="38"
                fill="#f2f5e9" fill-opacity="0.5" stroke="#606060" stroke-width="1.0"/>
           <path id="arrow"
             d="M 11.500037,31.436501 C 11.940474,20.09759 22.043105,11.32322 32.158766,21.979434 L 37.068811,17.246167 C 37.068811,17.246167 37.088388,32 37.088388,32 L 22.160133,31.978069 C 22.160133,31.978069 26.997745,27.140456 26.997745,27.140456 C 18.528582,18.264221 13.291696,25.230495 11.500037,31.436501 z"
             style="fill:#404040;"/>
          </a>
         </g>
        </svg>
</svg>
