<?xml version="1.0" encoding="UTF-8" standalone="no"?>
<!DOCTYPE svg PUBLIC "-//W3C//DTD SVG 1.1//EN"
 "http://www.w3.org/Graphics/SVG/1.1/DTD/svg11.dtd">
<!-- Generated by graphviz version 2.26.3 (20100126.1600)
 -->
<!-- Title: G Pages: 1 -->
<!--zoomable 330 -->
<svg id="main" version="1.1" xmlns="http://www.w3.org/2000/svg" xmlns:xlink="http://www.w3.org/1999/xlink" xml:space="preserve" onload="init(evt)">
        <defs>
                <circle id="rim" cx="0" cy="0" r="7"/>
                <circle id="rim2" cx="0" cy="0" r="3.5"/>
                <g id="zoomPlus">
                        <use xlink:href="#rim" fill="#404040">
                                <set attributeName="fill" to="#808080" begin="zoomplus.mouseover" end="zoomplus.mouseout"/>
                        </use>
                        <path d="M-4,0h8M0,-4v8" fill="none" stroke="white" stroke-width="1.5" pointer-events="none"/>
                </g>
                <g id="zoomMin">
                        <use xlink:href="#rim" fill="#404040">
                                <set attributeName="fill" to="#808080" begin="zoomminus.mouseover" end="zoomminus.mouseout"/>
                        </use>
                        <path d="M-4,0h8" fill="none" stroke="white" stroke-width="1.5" pointer-events="none"/>
                </g>
                <g id="dirArrow">
                        <path fill="none" stroke="white" stroke-width="1.5" d="M0,-3.0v7 M-2.5,-0.5L0,-3.0L2.5,-0.5"/>
                </g>
               <g id="resetDef">
                       <use xlink:href="#rim2" fill="#404040">
                               <set attributeName="fill" to="#808080" begin="reset.mouseover" end="reset.mouseout"/>
                       </use>
               </g>
        </defs>

<script type="text/javascript">
var viewWidth = 858;
var viewHeight = 330;
var sectionId = 'dynsection-11';
</script>
<script xlink:href="svgpan.js"/>
<svg id="graph" class="graph">
<g id="viewport">
<title>G</title>
<polygon fill="white" stroke="white" points="-4,5 -4,-326 855,-326 855,5 -4,5"/>
<!-- Node1 -->
<g id="node1" class="node"><title>Node1</title>
<polygon fill="#bfbfbf" stroke="black" points="0,-60.5 0,-81.5 124,-81.5 124,-60.5 0,-60.5"/>
<text text-anchor="middle" x="62" y="-68.5" font-family="FreeSans.ttf" font-size="10.00">Server::ProcessEvents</text>
</g>
<!-- Node2 -->
<g id="node3" class="node"><title>Node2</title>
<a xlink:href="classEvent.xhtml#a65983b240559175bfabe83c640ed7147" target="_top" xlink:title="Updates the Event by decrementing the remaining time.">
<polygon fill="white" stroke="black" points="160.5,-80.5 160.5,-101.5 245.5,-101.5 245.5,-80.5 160.5,-80.5"/>
<text text-anchor="middle" x="203" y="-88.5" font-family="FreeSans.ttf" font-size="10.00">Event::Update</text>
</a>
</g>
<!-- Node1&#45;&gt;Node2 -->
<g id="edge2" class="edge"><title>Node1&#45;&gt;Node2</title>
<path fill="none" stroke="midnightblue" d="M124.255,-79.8305C132.961,-81.0655 141.838,-82.3245 150.344,-83.531"/>
<polygon fill="midnightblue" stroke="midnightblue" points="150.106,-87.0322 160.498,-84.9714 151.089,-80.1016 150.106,-87.0322"/>
</g>
<!-- Node3 -->
<g id="node5" class="node"><title>Node3</title>
<a xlink:href="classEvent.xhtml#ae00620af2a424d3d0041676e76b9303c" target="_top" xlink:title="Execute the function stored within the Event object.">
<polygon fill="white" stroke="black" points="169.5,-40.5 169.5,-61.5 236.5,-61.5 236.5,-40.5 169.5,-40.5"/>
<text text-anchor="middle" x="203" y="-48.5" font-family="FreeSans.ttf" font-size="10.00">Event::Run</text>
</a>
</g>
<!-- Node1&#45;&gt;Node3 -->
<g id="edge4" class="edge"><title>Node1&#45;&gt;Node3</title>
<path fill="none" stroke="midnightblue" d="M124.255,-62.1695C135.995,-60.5042 148.045,-58.795 159.077,-57.2302"/>
<polygon fill="midnightblue" stroke="midnightblue" points="159.89,-60.6499 169.3,-55.7802 158.907,-53.7193 159.89,-60.6499"/>
</g>
<!-- Node4 -->
<g id="node7" class="node"><title>Node4</title>
<a xlink:href="namespaceServer.xhtml#a4073e768d93ce18c25cb5996f4cd3729" target="_top" xlink:title="Reloads a Command Plugin.">
<polygon fill="white" stroke="black" points="282,-100.5 282,-121.5 418,-121.5 418,-100.5 282,-100.5"/>
<text text-anchor="middle" x="350" y="-108.5" font-family="FreeSans.ttf" font-size="10.00">Server::ReloadCommand</text>
</a>
</g>
<!-- Node3&#45;&gt;Node4 -->
<g id="edge6" class="edge"><title>Node3&#45;&gt;Node4</title>
<path fill="none" stroke="midnightblue" d="M228.942,-61.5887C252.727,-71.2966 288.154,-85.7569 314.546,-96.5291"/>
<polygon fill="midnightblue" stroke="midnightblue" points="313.241,-99.7768 323.823,-100.315 315.887,-93.2959 313.241,-99.7768"/>
</g>
<!-- Node17 -->
<g id="node35" class="node"><title>Node17</title>
<a xlink:href="classCommand.xhtml#a6cef42c7b0a50d8aa3b4424aef29b0bd" target="_top" xlink:title="Execute a Plugin object&#39;s primary function.">
<polygon fill="white" stroke="black" points="305,-40.5 305,-61.5 395,-61.5 395,-40.5 305,-40.5"/>
<text text-anchor="middle" x="350" y="-48.5" font-family="FreeSans.ttf" font-size="10.00">Command::Run</text>
</a>
</g>
<!-- Node3&#45;&gt;Node17 -->
<g id="edge36" class="edge"><title>Node3&#45;&gt;Node17</title>
<path fill="none" stroke="midnightblue" d="M236.725,-51C253.825,-51 275.037,-51 294.464,-51"/>
<polygon fill="midnightblue" stroke="midnightblue" points="294.732,-54.5001 304.732,-51 294.732,-47.5001 294.732,-54.5001"/>
</g>
<!-- Node19 -->
<g id="node39" class="node"><title>Node19</title>
<a xlink:href="classEvent.xhtml#a95bfba52e3b7c70b33fd7784b396b5c4" target="_top" xlink:title="Unload an event from memory that was previously loaded via Event::New().">
<polygon fill="white" stroke="black" points="309.5,-0.5 309.5,-21.5 390.5,-21.5 390.5,-0.5 309.5,-0.5"/>
<text text-anchor="middle" x="350" y="-8.5" font-family="FreeSans.ttf" font-size="10.00">Event::Delete</text>
</a>
</g>
<!-- Node3&#45;&gt;Node19 -->
<g id="edge40" class="edge"><title>Node3&#45;&gt;Node19</title>
<path fill="none" stroke="midnightblue" d="M236.725,-41.8232C255.897,-36.6063 280.236,-29.9835 301.435,-24.215"/>
<polygon fill="midnightblue" stroke="midnightblue" points="302.508,-27.5504 311.238,-21.5475 300.67,-20.796 302.508,-27.5504"/>
</g>
<!-- Node5 -->
<g id="node9" class="node"><title>Node5</title>
<a xlink:href="namespaceHandler.xhtml#a02ba68c0c416219816c97189ea8bae4d" target="_top" xlink:title="Locates a Command associated with the game.">
<polygon fill="white" stroke="black" points="454.5,-60.5 454.5,-81.5 583.5,-81.5 583.5,-60.5 454.5,-60.5"/>
<text text-anchor="middle" x="519" y="-68.5" font-family="FreeSans.ttf" font-size="10.00">Handler::FindCommand</text>
</a>
</g>
<!-- Node4&#45;&gt;Node5 -->
<g id="edge8" class="edge"><title>Node4&#45;&gt;Node5</title>
<path fill="none" stroke="midnightblue" d="M394.403,-100.49C415.956,-95.3892 442.04,-89.2155 464.76,-83.8378"/>
<polygon fill="midnightblue" stroke="midnightblue" points="465.676,-87.2179 474.601,-81.5087 464.063,-80.4061 465.676,-87.2179"/>
</g>
<!-- Node9 -->
<g id="node17" class="node"><title>Node9</title>
<a xlink:href="classCommand.xhtml#a63b8f3fc40a0cc9e02fcaa2ea2329c40" target="_top" xlink:title="Return the filename of the associated Plugin object.">
<polygon fill="white" stroke="black" points="472,-140.5 472,-161.5 566,-161.5 566,-140.5 472,-140.5"/>
<text text-anchor="middle" x="519" y="-148.5" font-family="FreeSans.ttf" font-size="10.00">Command::gFile</text>
</a>
</g>
<!-- Node4&#45;&gt;Node9 -->
<g id="edge16" class="edge"><title>Node4&#45;&gt;Node9</title>
<path fill="none" stroke="midnightblue" d="M394.403,-121.51C415.956,-126.611 442.04,-132.785 464.76,-138.162"/>
<polygon fill="midnightblue" stroke="midnightblue" points="464.063,-141.594 474.601,-140.491 465.676,-134.782 464.063,-141.594"/>
</g>
<!-- Node10 -->
<g id="node19" class="node"><title>Node10</title>
<a xlink:href="classCommand.xhtml#afc0d482427309deb78e094fa787d1477" target="_top" xlink:title="Unload a command from memory that was previously loaded via Command::New().">
<polygon fill="white" stroke="black" points="467,-100.5 467,-121.5 571,-121.5 571,-100.5 467,-100.5"/>
<text text-anchor="middle" x="519" y="-108.5" font-family="FreeSans.ttf" font-size="10.00">Command::Delete</text>
</a>
</g>
<!-- Node4&#45;&gt;Node10 -->
<g id="edge18" class="edge"><title>Node4&#45;&gt;Node10</title>
<path fill="none" stroke="midnightblue" d="M418.252,-111C430.919,-111 444.093,-111 456.576,-111"/>
<polygon fill="midnightblue" stroke="midnightblue" points="456.873,-114.5 466.873,-111 456.873,-107.5 456.873,-114.5"/>
</g>
<!-- Node11 -->
<g id="node21" class="node"><title>Node11</title>
<a xlink:href="classCommand.xhtml#a6b8eed27f76619d07effd72372a4be48" target="_top" xlink:title="Load a plugin command from CFG_DAT_DIR_OBJ.">
<polygon fill="white" stroke="black" points="472.5,-180.5 472.5,-201.5 565.5,-201.5 565.5,-180.5 472.5,-180.5"/>
<text text-anchor="middle" x="519" y="-188.5" font-family="FreeSans.ttf" font-size="10.00">Command::New</text>
</a>
</g>
<!-- Node4&#45;&gt;Node11 -->
<g id="edge20" class="edge"><title>Node4&#45;&gt;Node11</title>
<path fill="none" stroke="midnightblue" d="M365.627,-121.515C385.482,-134.517 421.131,-156.679 454,-171 459.074,-173.211 464.469,-175.282 469.897,-177.192"/>
<polygon fill="midnightblue" stroke="midnightblue" points="469.049,-180.598 479.643,-180.448 471.268,-173.959 469.049,-180.598"/>
</g>
<!-- Node6 -->
<g id="node11" class="node"><title>Node6</title>
<a xlink:href="namespaceUtils.xhtml#a9b70f9dd0af906c806695b35488e778f" target="_top" xlink:title="Returns a string converted to all lowercase letters.">
<polygon fill="white" stroke="black" points="638.5,-100.5 638.5,-121.5 709.5,-121.5 709.5,-100.5 638.5,-100.5"/>
<text text-anchor="middle" x="674" y="-108.5" font-family="FreeSans.ttf" font-size="10.00">Utils::Lower</text>
</a>
</g>
<!-- Node5&#45;&gt;Node6 -->
<g id="edge10" class="edge"><title>Node5&#45;&gt;Node6</title>
<path fill="none" stroke="midnightblue" d="M559.724,-81.5095C580.881,-86.9693 606.798,-93.6576 628.599,-99.2836"/>
<polygon fill="midnightblue" stroke="midnightblue" points="627.737,-102.676 638.294,-101.786 629.486,-95.8977 627.737,-102.676"/>
</g>
<!-- Node7 -->
<g id="node13" class="node"><title>Node7</title>
<a xlink:href="classCommand.xhtml#a7e591e2b82f59fd73d9b25daaa192021" target="_top" xlink:title="Return the name of the associated Plugin object.">
<polygon fill="white" stroke="black" points="620,-60.5 620,-81.5 728,-81.5 728,-60.5 620,-60.5"/>
<text text-anchor="middle" x="674" y="-68.5" font-family="FreeSans.ttf" font-size="10.00">Command::gName</text>
</a>
</g>
<!-- Node5&#45;&gt;Node7 -->
<g id="edge12" class="edge"><title>Node5&#45;&gt;Node7</title>
<path fill="none" stroke="midnightblue" d="M583.836,-71C592.329,-71 601.03,-71 609.517,-71"/>
<polygon fill="midnightblue" stroke="midnightblue" points="609.734,-74.5001 619.734,-71 609.734,-67.5001 609.734,-74.5001"/>
</g>
<!-- Node8 -->
<g id="node15" class="node"><title>Node8</title>
<a xlink:href="classPlugin.xhtml#af031147ea2e2d7e7f73f7edb9a5921ae" target="_top" xlink:title="Return the name of the object.">
<polygon fill="white" stroke="black" points="764,-60.5 764,-81.5 850,-81.5 850,-60.5 764,-60.5"/>
<text text-anchor="middle" x="807" y="-68.5" font-family="FreeSans.ttf" font-size="10.00">Plugin::gName</text>
</a>
</g>
<!-- Node7&#45;&gt;Node8 -->
<g id="edge14" class="edge"><title>Node7&#45;&gt;Node8</title>
<path fill="none" stroke="midnightblue" d="M728.096,-71C736.584,-71 745.35,-71 753.817,-71"/>
<polygon fill="midnightblue" stroke="midnightblue" points="753.957,-74.5001 763.956,-71 753.956,-67.5001 753.957,-74.5001"/>
</g>
<!-- Node11&#45;&gt;Node6 -->
<g id="edge32" class="edge"><title>Node11&#45;&gt;Node6</title>
<path fill="none" stroke="midnightblue" d="M564.462,-180.485C571.287,-177.936 578.029,-174.812 584,-171 604.159,-158.129 600.211,-144.433 620,-131 622.858,-129.06 625.927,-127.28 629.1,-125.651"/>
<polygon fill="midnightblue" stroke="midnightblue" points="630.6,-128.814 638.223,-121.456 627.675,-122.454 630.6,-128.814"/>
</g>
<!-- Node11&#45;&gt;Node7 -->
<g id="edge34" class="edge"><title>Node11&#45;&gt;Node7</title>
<path fill="none" stroke="midnightblue" d="M565.623,-182.025C572.297,-179.278 578.689,-175.688 584,-171 613.23,-145.197 591.507,-117.615 620,-91 621.662,-89.4475 623.455,-88.013 625.343,-86.6877"/>
<polygon fill="midnightblue" stroke="midnightblue" points="627.254,-89.6248 634.113,-81.5501 623.715,-83.5849 627.254,-89.6248"/>
</g>
<!-- Node12 -->
<g id="node23" class="node"><title>Node12</title>
<a xlink:href="namespaceUtils.xhtml#ad21617b756ef242fbc66e63dec3e4e4d" target="_top" xlink:title="Returns a string consisting of directory/file.ext.">
<polygon fill="white" stroke="black" points="635,-260.5 635,-281.5 713,-281.5 713,-260.5 635,-260.5"/>
<text text-anchor="middle" x="674" y="-268.5" font-family="FreeSans.ttf" font-size="10.00">Utils::DirPath</text>
</a>
</g>
<!-- Node11&#45;&gt;Node12 -->
<g id="edge22" class="edge"><title>Node11&#45;&gt;Node12</title>
<path fill="none" stroke="midnightblue" d="M534.943,-201.707C554.438,-214.506 588.71,-236.063 620,-251 624.121,-252.967 628.49,-254.869 632.887,-256.666"/>
<polygon fill="midnightblue" stroke="midnightblue" points="631.887,-260.033 642.475,-260.418 634.438,-253.514 631.887,-260.033"/>
</g>
<!-- Node13 -->
<g id="node25" class="node"><title>Node13</title>
<a xlink:href="namespaceUtils.xhtml#a7d40818a602fb21db4b4f0917705f85b" target="_top" xlink:title="Determines if a file path is a file or directory on disk.">
<polygon fill="white" stroke="black" points="643.5,-220.5 643.5,-241.5 704.5,-241.5 704.5,-220.5 643.5,-220.5"/>
<text text-anchor="middle" x="674" y="-228.5" font-family="FreeSans.ttf" font-size="10.00">Utils::iFile</text>
</a>
</g>
<!-- Node11&#45;&gt;Node13 -->
<g id="edge24" class="edge"><title>Node11&#45;&gt;Node13</title>
<path fill="none" stroke="midnightblue" d="M559.724,-201.51C582.539,-207.397 610.889,-214.713 633.644,-220.586"/>
<polygon fill="midnightblue" stroke="midnightblue" points="632.785,-223.978 643.342,-223.088 634.534,-217.201 632.785,-223.978"/>
</g>
<!-- Node14 -->
<g id="node27" class="node"><title>Node14</title>
<a xlink:href="classPlugin.xhtml#af51cf34cdaa8ce00ec838b26b465f859" target="_top" xlink:title="Sets a pointer to the object that initialized this Plugin.">
<polygon fill="white" stroke="black" points="632.5,-180.5 632.5,-201.5 715.5,-201.5 715.5,-180.5 632.5,-180.5"/>
<text text-anchor="middle" x="674" y="-188.5" font-family="FreeSans.ttf" font-size="10.00">Plugin::sCaller</text>
</a>
</g>
<!-- Node11&#45;&gt;Node14 -->
<g id="edge26" class="edge"><title>Node11&#45;&gt;Node14</title>
<path fill="none" stroke="midnightblue" d="M565.505,-191C583.329,-191 603.772,-191 622.072,-191"/>
<polygon fill="midnightblue" stroke="midnightblue" points="622.275,-194.5 632.275,-191 622.275,-187.5 622.275,-194.5"/>
</g>
<!-- Node15 -->
<g id="node29" class="node"><title>Node15</title>
<a xlink:href="classPlugin.xhtml#a669870333a99490518fdd59054deaade" target="_top" xlink:title="Return a bool value to tie into other object types.">
<polygon fill="white" stroke="black" points="635,-140.5 635,-161.5 713,-161.5 713,-140.5 635,-140.5"/>
<text text-anchor="middle" x="674" y="-148.5" font-family="FreeSans.ttf" font-size="10.00">Plugin::gBool</text>
</a>
</g>
<!-- Node11&#45;&gt;Node15 -->
<g id="edge28" class="edge"><title>Node11&#45;&gt;Node15</title>
<path fill="none" stroke="midnightblue" d="M559.724,-180.49C579.779,-175.315 604.111,-169.036 625.16,-163.604"/>
<polygon fill="midnightblue" stroke="midnightblue" points="626.076,-166.982 634.884,-161.094 624.326,-160.204 626.076,-166.982"/>
</g>
<!-- Node16 -->
<g id="node31" class="node"><title>Node16</title>
<a xlink:href="classPlugin.xhtml#aaabc3015bb64b744ac26c14318b9cb43" target="_top" xlink:title="Return a uint_t value to tie into other object types.">
<polygon fill="white" stroke="black" points="635.5,-300.5 635.5,-321.5 712.5,-321.5 712.5,-300.5 635.5,-300.5"/>
<text text-anchor="middle" x="674" y="-308.5" font-family="FreeSans.ttf" font-size="10.00">Plugin::gUint</text>
</a>
</g>
<!-- Node11&#45;&gt;Node16 -->
<g id="edge30" class="edge"><title>Node11&#45;&gt;Node16</title>
<path fill="none" stroke="midnightblue" d="M527.044,-201.536C542.83,-221.562 579.843,-265.399 620,-291 622.956,-292.884 626.115,-294.628 629.366,-296.233"/>
<polygon fill="midnightblue" stroke="midnightblue" points="628.123,-299.511 638.681,-300.397 630.979,-293.121 628.123,-299.511"/>
</g>
<!-- Node18 -->
<g id="node37" class="node"><title>Node18</title>
<a xlink:href="classPlugin.xhtml#a40f8facb58b11e24951052ad0080a51e" target="_top" xlink:title="Execute the primary function of the implemented class.">
<polygon fill="white" stroke="black" points="485,-20.5 485,-41.5 553,-41.5 553,-20.5 485,-20.5"/>
<text text-anchor="middle" x="519" y="-28.5" font-family="FreeSans.ttf" font-size="10.00">Plugin::Run</text>
</a>
</g>
<!-- Node17&#45;&gt;Node18 -->
<g id="edge38" class="edge"><title>Node17&#45;&gt;Node18</title>
<path fill="none" stroke="midnightblue" d="M395.289,-45.6404C419.928,-42.7245 450.282,-39.1324 474.756,-36.236"/>
<polygon fill="midnightblue" stroke="midnightblue" points="475.332,-39.6923 484.851,-35.0413 474.509,-32.7409 475.332,-39.6923"/>
</g>
</g>
</svg>
        <g id="navigator" transform="translate(0 0)" fill="#404254">
                <rect fill="#f2f5e9" fill-opacity="0.5" stroke="#606060" stroke-width=".5" x="0" y="0" width="60" height="60"/>
                <use id="zoomplus" xlink:href="#zoomPlus" x="17" y="9" onmousedown="handleZoom(evt,'in')"/>
                <use id="zoomminus" xlink:href="#zoomMin" x="42" y="9" onmousedown="handleZoom(evt,'out')"/>
                <use id="reset" xlink:href="#resetDef" x="30" y="36" onmousedown="handleReset()"/>
                <g id="arrowUp" xlink:href="#dirArrow" transform="translate(30 24)" onmousedown="handlePan(0,-1)">
                  <use xlink:href="#rim" fill="#404040">
                        <set attributeName="fill" to="#808080" begin="arrowUp.mouseover" end="arrowUp.mouseout"/>
                  </use>
                  <path fill="none" stroke="white" stroke-width="1.5" d="M0,-3.0v7 M-2.5,-0.5L0,-3.0L2.5,-0.5"/>
                </g>
                <g id="arrowRight" xlink:href="#dirArrow" transform="rotate(90) translate(36 -43)" onmousedown="handlePan(1,0)">
                  <use xlink:href="#rim" fill="#404040">
                        <set attributeName="fill" to="#808080" begin="arrowRight.mouseover" end="arrowRight.mouseout"/>
                  </use>
                  <path fill="none" stroke="white" stroke-width="1.5" d="M0,-3.0v7 M-2.5,-0.5L0,-3.0L2.5,-0.5"/>
                </g>
                <g id="arrowDown" xlink:href="#dirArrow" transform="rotate(180) translate(-30 -48)" onmousedown="handlePan(0,1)">
                  <use xlink:href="#rim" fill="#404040">
                        <set attributeName="fill" to="#808080" begin="arrowDown.mouseover" end="arrowDown.mouseout"/>
                  </use>
                  <path fill="none" stroke="white" stroke-width="1.5" d="M0,-3.0v7 M-2.5,-0.5L0,-3.0L2.5,-0.5"/>
                </g>
                <g id="arrowLeft" xlink:href="#dirArrow" transform="rotate(270) translate(-36 17)" onmousedown="handlePan(-1,0)">
                  <use xlink:href="#rim" fill="#404040">
                        <set attributeName="fill" to="#808080" begin="arrowLeft.mouseover" end="arrowLeft.mouseout"/>
                  </use>
                  <path fill="none" stroke="white" stroke-width="1.5" d="M0,-3.0v7 M-2.5,-0.5L0,-3.0L2.5,-0.5"/>
                </g>
        </g>
</svg>
