<?xml version="1.0" encoding="UTF-8" standalone="no"?>
<!DOCTYPE svg PUBLIC "-//W3C//DTD SVG 1.1//EN"
 "http://www.w3.org/Graphics/SVG/1.1/DTD/svg11.dtd">
<!-- Generated by graphviz version 2.26.3 (20100126.1600)
 -->
<!-- Title: G Pages: 1 -->
<svg width="486pt" height="70pt"
 viewBox="0.00 0.00 486.00 70.00" xmlns="http://www.w3.org/2000/svg" xmlns:xlink="http://www.w3.org/1999/xlink">
<g id="graph1" class="graph" transform="scale(1 1) rotate(0) translate(4 66)">
<title>G</title>
<polygon fill="white" stroke="white" points="-4,5 -4,-66 483,-66 483,5 -4,5"/>
<!-- Node1 -->
<g id="node1" class="node"><title>Node1</title>
<polygon fill="#bfbfbf" stroke="black" points="0,-20.5 0,-41.5 104,-41.5 104,-20.5 0,-20.5"/>
<text text-anchor="middle" x="52" y="-28.5" font-family="FreeSans.ttf" font-size="10.00">Utils::ListDirectory</text>
</g>
<!-- Node2 -->
<g id="node3" class="node"><title>Node2</title>
<a xlink:href="classServer.xhtml#ac2e1d14caee54a38a89c2394abe6e5a5" target="_top" xlink:title="Search all subfolders of CFG_DAT_DIR_COMMAND and call Command::New() to load each file found to memor...">
<polygon fill="white" stroke="black" points="140.5,-40.5 140.5,-61.5 273.5,-61.5 273.5,-40.5 140.5,-40.5"/>
<text text-anchor="middle" x="207" y="-48.5" font-family="FreeSans.ttf" font-size="10.00">Server::LoadCommands</text>
</a>
</g>
<!-- Node1&#45;&gt;Node2 -->
<g id="edge2" class="edge"><title>Node1&#45;&gt;Node2</title>
<path fill="none" stroke="midnightblue" d="M114.016,-39.002C122.637,-40.1145 131.525,-41.2613 140.229,-42.3844"/>
<polygon fill="midnightblue" stroke="midnightblue" points="114.41,-35.5239 104.044,-37.7153 113.514,-42.4664 114.41,-35.5239"/>
</g>
<!-- Node5 -->
<g id="node9" class="node"><title>Node5</title>
<a xlink:href="namespaceUtils.xhtml#a57b7c6b0c6ea6f1498129d9c9a16d8a8" target="_top" xlink:title="Unlinks any temp files leftover from a failed write.">
<polygon fill="white" stroke="black" points="153,-0.5 153,-21.5 261,-21.5 261,-0.5 153,-0.5"/>
<text text-anchor="middle" x="207" y="-8.5" font-family="FreeSans.ttf" font-size="10.00">Utils::CleanupTemp</text>
</a>
</g>
<!-- Node1&#45;&gt;Node5 -->
<g id="edge8" class="edge"><title>Node1&#45;&gt;Node5</title>
<path fill="none" stroke="midnightblue" d="M114.188,-22.9757C127.029,-21.3189 140.453,-19.5867 152.975,-17.971"/>
<polygon fill="midnightblue" stroke="midnightblue" points="113.514,-19.5336 104.044,-24.2847 114.41,-26.4761 113.514,-19.5336"/>
</g>
<!-- Node3 -->
<g id="node5" class="node"><title>Node3</title>
<a xlink:href="classServer.xhtml#a19a1e493e1fb50a56d9c77332543d565" target="_top" xlink:title="Start the NAMS Server. Responsible for calling all critical boot&#45;time functions such as SocketServer ...">
<polygon fill="white" stroke="black" points="310,-20.5 310,-41.5 400,-41.5 400,-20.5 310,-20.5"/>
<text text-anchor="middle" x="355" y="-28.5" font-family="FreeSans.ttf" font-size="10.00">Server::Startup</text>
</a>
</g>
<!-- Node2&#45;&gt;Node3 -->
<g id="edge4" class="edge"><title>Node2&#45;&gt;Node3</title>
<path fill="none" stroke="midnightblue" d="M283.743,-40.6293C292.696,-39.4194 301.596,-38.2168 309.917,-37.0923"/>
<polygon fill="midnightblue" stroke="midnightblue" points="283.081,-37.1869 273.64,-41.9946 284.018,-44.1238 283.081,-37.1869"/>
</g>
<!-- Node4 -->
<g id="node7" class="node"><title>Node4</title>
<a xlink:href="main_8cpp.xhtml#ad53223b8779f25caeddb70a3b9172967" target="_top" xlink:title="The default function required to execute the server.">
<polygon fill="white" stroke="black" points="436.5,-20.5 436.5,-41.5 477.5,-41.5 477.5,-20.5 436.5,-20.5"/>
<text text-anchor="middle" x="457" y="-28.5" font-family="FreeSans.ttf" font-size="10.00">main</text>
</a>
</g>
<!-- Node3&#45;&gt;Node4 -->
<g id="edge6" class="edge"><title>Node3&#45;&gt;Node4</title>
<path fill="none" stroke="midnightblue" d="M410.203,-31C419.56,-31 428.726,-31 436.432,-31"/>
<polygon fill="midnightblue" stroke="midnightblue" points="410.036,-27.5001 400.036,-31 410.036,-34.5001 410.036,-27.5001"/>
</g>
<!-- Node5&#45;&gt;Node3 -->
<g id="edge10" class="edge"><title>Node5&#45;&gt;Node3</title>
<path fill="none" stroke="midnightblue" d="M271.544,-19.7221C284.498,-21.4728 297.846,-23.2765 309.964,-24.9141"/>
<polygon fill="midnightblue" stroke="midnightblue" points="271.648,-16.2045 261.269,-18.3337 270.711,-23.1414 271.648,-16.2045"/>
</g>
</g>
</svg>
