<?xml version="1.0" encoding="UTF-8" standalone="no"?>
<!DOCTYPE svg PUBLIC "-//W3C//DTD SVG 1.1//EN"
 "http://www.w3.org/Graphics/SVG/1.1/DTD/svg11.dtd">
<!-- Generated by graphviz version 2.26.3 (20100126.1600)
 -->
<!-- Title: G Pages: 1 -->
<svg width="486pt" height="107pt"
 viewBox="0.00 0.00 486.00 107.00" xmlns="http://www.w3.org/2000/svg" xmlns:xlink="http://www.w3.org/1999/xlink">
<g id="graph1" class="graph" transform="scale(1 1) rotate(0) translate(4 103)">
<title>G</title>
<polygon fill="white" stroke="white" points="-4,5 -4,-103 483,-103 483,5 -4,5"/>
<!-- Node1 -->
<g id="node1" class="node"><title>Node1</title>
<polygon fill="#bfbfbf" stroke="black" points="0.5,-38.5 0.5,-59.5 103.5,-59.5 103.5,-38.5 0.5,-38.5"/>
<text text-anchor="middle" x="52" y="-46.5" font-family="FreeSans.ttf" font-size="10.00">Utils::CurrentTime</text>
</g>
<!-- Node2 -->
<g id="node3" class="node"><title>Node2</title>
<a xlink:href="classServer.xhtml#ac2e1d14caee54a38a89c2394abe6e5a5" target="_top" xlink:title="Server::LoadCommands">
<polygon fill="white" stroke="black" points="140.5,-77.5 140.5,-98.5 273.5,-98.5 273.5,-77.5 140.5,-77.5"/>
<text text-anchor="middle" x="207" y="-85.5" font-family="FreeSans.ttf" font-size="10.00">Server::LoadCommands</text>
</a>
</g>
<!-- Node1&#45;&gt;Node2 -->
<g id="edge2" class="edge"><title>Node1&#45;&gt;Node2</title>
<path fill="none" stroke="midnightblue" d="M103.786,-62.03C123.691,-67.0385 146.149,-72.6892 165.021,-77.4376"/>
<polygon fill="midnightblue" stroke="midnightblue" points="104.497,-58.5999 93.9452,-59.554 102.789,-65.3883 104.497,-58.5999"/>
</g>
<!-- Node3 -->
<g id="node5" class="node"><title>Node3</title>
<a xlink:href="classServer.xhtml#a84ed4b0103f83fe0ece0a89983d0787a" target="_top" xlink:title="Server::Startup">
<polygon fill="white" stroke="black" points="310,-40.5 310,-61.5 400,-61.5 400,-40.5 310,-40.5"/>
<text text-anchor="middle" x="355" y="-48.5" font-family="FreeSans.ttf" font-size="10.00">Server::Startup</text>
</a>
</g>
<!-- Node1&#45;&gt;Node3 -->
<g id="edge8" class="edge"><title>Node1&#45;&gt;Node3</title>
<path fill="none" stroke="midnightblue" d="M113.919,-49.4087C172.139,-49.793 257.901,-50.3591 309.897,-50.7023"/>
<polygon fill="midnightblue" stroke="midnightblue" points="113.766,-45.9077 103.743,-49.3415 113.72,-52.9076 113.766,-45.9077"/>
</g>
<!-- Node5 -->
<g id="node10" class="node"><title>Node5</title>
<a xlink:href="classServer.xhtml#a50b81aa91d8fdaee6f52c5c5ec987990" target="_top" xlink:title="Server::Update">
<polygon fill="white" stroke="black" points="310.5,-0.5 310.5,-21.5 399.5,-21.5 399.5,-0.5 310.5,-0.5"/>
<text text-anchor="middle" x="355" y="-8.5" font-family="FreeSans.ttf" font-size="10.00">Server::Update</text>
</a>
</g>
<!-- Node1&#45;&gt;Node5 -->
<g id="edge10" class="edge"><title>Node1&#45;&gt;Node5</title>
<path fill="none" stroke="midnightblue" d="M113.95,-41.2308C172.349,-33.9067 258.44,-23.1098 310.378,-16.5962"/>
<polygon fill="midnightblue" stroke="midnightblue" points="113.23,-37.7935 103.743,-42.5107 114.101,-44.7391 113.23,-37.7935"/>
</g>
<!-- Node2&#45;&gt;Node3 -->
<g id="edge4" class="edge"><title>Node2&#45;&gt;Node3</title>
<path fill="none" stroke="midnightblue" d="M259.135,-74.9662C276.737,-70.5658 296.152,-65.712 312.88,-61.53"/>
<polygon fill="midnightblue" stroke="midnightblue" points="257.868,-71.6753 249.015,-77.4963 259.565,-78.4663 257.868,-71.6753"/>
</g>
<!-- Node4 -->
<g id="node7" class="node"><title>Node4</title>
<a xlink:href="main_8cpp.xhtml#ad53223b8779f25caeddb70a3b9172967" target="_top" xlink:title="The default function required to execute the server.">
<polygon fill="white" stroke="black" points="436.5,-20.5 436.5,-41.5 477.5,-41.5 477.5,-20.5 436.5,-20.5"/>
<text text-anchor="middle" x="457" y="-28.5" font-family="FreeSans.ttf" font-size="10.00">main</text>
</a>
</g>
<!-- Node3&#45;&gt;Node4 -->
<g id="edge6" class="edge"><title>Node3&#45;&gt;Node4</title>
<path fill="none" stroke="midnightblue" d="M409.904,-40.2345C419.364,-38.3795 428.644,-36.56 436.432,-35.033"/>
<polygon fill="midnightblue" stroke="midnightblue" points="409.175,-36.8107 400.036,-42.1695 410.522,-43.6799 409.175,-36.8107"/>
</g>
<!-- Node5&#45;&gt;Node4 -->
<g id="edge12" class="edge"><title>Node5&#45;&gt;Node4</title>
<path fill="none" stroke="midnightblue" d="M409.642,-21.7141C419.139,-23.5764 428.468,-25.4054 436.3,-26.9412"/>
<polygon fill="midnightblue" stroke="midnightblue" points="410.225,-18.2619 399.739,-19.7723 408.878,-25.1311 410.225,-18.2619"/>
</g>
</g>
</svg>
