<?xml version="1.0" encoding="UTF-8" standalone="no"?>
<!DOCTYPE svg PUBLIC "-//W3C//DTD SVG 1.1//EN"
 "http://www.w3.org/Graphics/SVG/1.1/DTD/svg11.dtd">
<!-- Generated by graphviz version 2.26.3 (20100126.1600)
 -->
<!-- Title: G Pages: 1 -->
<svg width="392pt" height="270pt"
 viewBox="0.00 0.00 392.00 270.00" xmlns="http://www.w3.org/2000/svg" xmlns:xlink="http://www.w3.org/1999/xlink">
<g id="graph1" class="graph" transform="scale(1 1) rotate(0) translate(4 266)">
<title>G</title>
<polygon fill="white" stroke="white" points="-4,5 -4,-266 389,-266 389,5 -4,5"/>
<!-- Node1 -->
<g id="node1" class="node"><title>Node1</title>
<polygon fill="#bfbfbf" stroke="black" points="0.5,-120.5 0.5,-141.5 75.5,-141.5 75.5,-120.5 0.5,-120.5"/>
<text text-anchor="middle" x="38" y="-128.5" font-family="FreeSans.ttf" font-size="10.00">Telopt::Send</text>
</g>
<!-- Node2 -->
<g id="node3" class="node"><title>Node2</title>
<a xlink:href="classSocketClient.xhtml#a6268f3d184970ec0076da657c39d2e80" target="_top" xlink:title="Process data from the client&#39;s send buffer and transmit it via the socket.">
<polygon fill="white" stroke="black" points="112.5,-120.5 112.5,-141.5 219.5,-141.5 219.5,-120.5 112.5,-120.5"/>
<text text-anchor="middle" x="166" y="-128.5" font-family="FreeSans.ttf" font-size="10.00">SocketClient::Send</text>
</a>
</g>
<!-- Node1&#45;&gt;Node2 -->
<g id="edge2" class="edge"><title>Node1&#45;&gt;Node2</title>
<path fill="none" stroke="midnightblue" d="M75.7119,-131C84.0703,-131 93.1528,-131 102.229,-131"/>
<polygon fill="midnightblue" stroke="midnightblue" points="102.435,-134.5 112.435,-131 102.435,-127.5 102.435,-134.5"/>
</g>
<!-- Node3 -->
<g id="node5" class="node"><title>Node3</title>
<a xlink:href="classSocket.xhtml#a508457b48e6296d1e86c7cc72af65948" target="_top" xlink:title="Return if the Socket is valid for use.">
<polygon fill="white" stroke="black" points="281,-240.5 281,-261.5 359,-261.5 359,-240.5 281,-240.5"/>
<text text-anchor="middle" x="320" y="-248.5" font-family="FreeSans.ttf" font-size="10.00">Socket::Valid</text>
</a>
</g>
<!-- Node2&#45;&gt;Node3 -->
<g id="edge4" class="edge"><title>Node2&#45;&gt;Node3</title>
<path fill="none" stroke="midnightblue" d="M172.776,-141.765C186.172,-162.181 218.058,-206.658 256,-231 260.715,-234.025 265.919,-236.62 271.262,-238.839"/>
<polygon fill="midnightblue" stroke="midnightblue" points="270.36,-242.237 280.952,-242.439 272.798,-235.675 270.36,-242.237"/>
</g>
<!-- Node4 -->
<g id="node7" class="node"><title>Node4</title>
<a xlink:href="classSocket.xhtml#a45d3aa99d71b868921543a4708471f82" target="_top" xlink:title="Returns the file descriptor associated to the Socket.">
<polygon fill="white" stroke="black" points="264.5,-200.5 264.5,-221.5 375.5,-221.5 375.5,-200.5 264.5,-200.5"/>
<text text-anchor="middle" x="320" y="-208.5" font-family="FreeSans.ttf" font-size="10.00">Socket::gDescriptor</text>
</a>
</g>
<!-- Node2&#45;&gt;Node4 -->
<g id="edge6" class="edge"><title>Node2&#45;&gt;Node4</title>
<path fill="none" stroke="midnightblue" d="M179.296,-141.645C196.244,-154.782 226.852,-177.083 256,-191 260.609,-193.201 265.518,-195.234 270.489,-197.094"/>
<polygon fill="midnightblue" stroke="midnightblue" points="269.467,-200.444 280.062,-200.453 271.785,-193.839 269.467,-200.444"/>
</g>
<!-- Node5 -->
<g id="node9" class="node"><title>Node5</title>
<a xlink:href="classSocketClient.xhtml#aa0badca8f614127e98281995c02cb385" target="_top" xlink:title="Returns the connection state of the client from SOC_STATE.">
<polygon fill="white" stroke="black" points="262.5,-160.5 262.5,-181.5 377.5,-181.5 377.5,-160.5 262.5,-160.5"/>
<text text-anchor="middle" x="320" y="-168.5" font-family="FreeSans.ttf" font-size="10.00">SocketClient::gState</text>
</a>
</g>
<!-- Node2&#45;&gt;Node5 -->
<g id="edge8" class="edge"><title>Node2&#45;&gt;Node5</title>
<path fill="none" stroke="midnightblue" d="M206.462,-141.51C225.838,-146.542 249.232,-152.619 269.737,-157.945"/>
<polygon fill="midnightblue" stroke="midnightblue" points="268.983,-161.365 279.541,-160.491 270.743,-154.59 268.983,-161.365"/>
</g>
<!-- Node6 -->
<g id="node11" class="node"><title>Node6</title>
<a xlink:href="classSocketClient.xhtml#a56e10cbe469179d7d7bc18eae6ca351c" target="_top" xlink:title="Returns the Account object associated to this SocketClient.">
<polygon fill="white" stroke="black" points="256,-120.5 256,-141.5 384,-141.5 384,-120.5 256,-120.5"/>
<text text-anchor="middle" x="320" y="-128.5" font-family="FreeSans.ttf" font-size="10.00">SocketClient::gAccount</text>
</a>
</g>
<!-- Node2&#45;&gt;Node6 -->
<g id="edge10" class="edge"><title>Node2&#45;&gt;Node6</title>
<path fill="none" stroke="midnightblue" d="M219.862,-131C228.216,-131 236.97,-131 245.679,-131"/>
<polygon fill="midnightblue" stroke="midnightblue" points="245.854,-134.5 255.854,-131 245.854,-127.5 245.854,-134.5"/>
</g>
<!-- Node7 -->
<g id="node13" class="node"><title>Node7</title>
<a xlink:href="classSocket.xhtml#adc72a37934a4f2d10f6ae8fc94bb4ca7" target="_top" xlink:title="Returns the hostname associated to the Socket.">
<polygon fill="white" stroke="black" points="264,-80.5 264,-101.5 376,-101.5 376,-80.5 264,-80.5"/>
<text text-anchor="middle" x="320" y="-88.5" font-family="FreeSans.ttf" font-size="10.00">Socket::gHostname</text>
</a>
</g>
<!-- Node2&#45;&gt;Node7 -->
<g id="edge12" class="edge"><title>Node2&#45;&gt;Node7</title>
<path fill="none" stroke="midnightblue" d="M206.462,-120.49C225.838,-115.458 249.232,-109.381 269.737,-104.055"/>
<polygon fill="midnightblue" stroke="midnightblue" points="270.743,-107.41 279.541,-101.509 268.983,-100.635 270.743,-107.41"/>
</g>
<!-- Node8 -->
<g id="node15" class="node"><title>Node8</title>
<a xlink:href="classSocket.xhtml#a688f0d2182f7ca098de3f76156efad0a" target="_top" xlink:title="Increment the total count of bytes sent by the socket.">
<polygon fill="white" stroke="black" points="264.5,-40.5 264.5,-61.5 375.5,-61.5 375.5,-40.5 264.5,-40.5"/>
<text text-anchor="middle" x="320" y="-48.5" font-family="FreeSans.ttf" font-size="10.00">Socket::aBytesSent</text>
</a>
</g>
<!-- Node2&#45;&gt;Node8 -->
<g id="edge14" class="edge"><title>Node2&#45;&gt;Node8</title>
<path fill="none" stroke="midnightblue" d="M179.296,-120.355C196.244,-107.218 226.852,-84.9166 256,-71 260.609,-68.7994 265.518,-66.7656 270.489,-64.9062"/>
<polygon fill="midnightblue" stroke="midnightblue" points="271.785,-68.1608 280.062,-61.5471 269.467,-61.5556 271.785,-68.1608"/>
</g>
<!-- Node9 -->
<g id="node17" class="node"><title>Node9</title>
<a xlink:href="classSocket.xhtml#a3bb9f40d6e5f32cfa960a86323322c0c" target="_top" xlink:title="Returns the number of bytes sent by the Socket.">
<polygon fill="white" stroke="black" points="264.5,-0.5 264.5,-21.5 375.5,-21.5 375.5,-0.5 264.5,-0.5"/>
<text text-anchor="middle" x="320" y="-8.5" font-family="FreeSans.ttf" font-size="10.00">Socket::gBytesSent</text>
</a>
</g>
<!-- Node2&#45;&gt;Node9 -->
<g id="edge16" class="edge"><title>Node2&#45;&gt;Node9</title>
<path fill="none" stroke="midnightblue" d="M172.776,-120.235C186.172,-99.8185 218.058,-55.3425 256,-31 259.123,-28.9963 262.461,-27.1815 265.911,-25.5396"/>
<polygon fill="midnightblue" stroke="midnightblue" points="267.396,-28.7117 275.237,-21.5864 264.664,-22.2668 267.396,-28.7117"/>
</g>
</g>
</svg>
