<?xml version="1.0" encoding="UTF-8" standalone="no"?>
<!DOCTYPE svg PUBLIC "-//W3C//DTD SVG 1.1//EN"
 "http://www.w3.org/Graphics/SVG/1.1/DTD/svg11.dtd">
<!-- Generated by graphviz version 2.26.3 (20100126.1600)
 -->
<!-- Title: h/pincludes.h Pages: 1 -->
<svg width="2028pt" height="204pt"
 viewBox="0.00 0.00 2028.00 204.00" xmlns="http://www.w3.org/2000/svg" xmlns:xlink="http://www.w3.org/1999/xlink">
<g id="graph1" class="graph" transform="scale(1 1) rotate(0) translate(4 200)">
<title>h/pincludes.h</title>
<polygon fill="white" stroke="white" points="-4,5 -4,-200 2025,-200 2025,5 -4,5"/>
<!-- Node1 -->
<g id="node1" class="node"><title>Node1</title>
<polygon fill="#bfbfbf" stroke="black" points="1805,-175 1805,-195 1885,-195 1885,-175 1805,-175"/>
<text text-anchor="middle" x="1845" y="-182" font-family="FreeSans.ttf" font-size="10.00">h/pincludes.h</text>
</g>
<!-- Node2 -->
<g id="node3" class="node"><title>Node2</title>
<a xlink:href="includes_8h.xhtml" target="_top" xlink:title="All non&#45;system includes that need to be within each .cpp file.">
<polygon fill="white" stroke="black" points="1550.5,-117 1550.5,-137 1615.5,-137 1615.5,-117 1550.5,-117"/>
<text text-anchor="middle" x="1583" y="-124" font-family="FreeSans.ttf" font-size="10.00">includes.h</text>
</a>
</g>
<!-- Node1&#45;&gt;Node2 -->
<g id="edge2" class="edge"><title>Node1&#45;&gt;Node2</title>
<path fill="none" stroke="midnightblue" d="M1804.92,-176.128C1756.38,-165.381 1674.95,-147.356 1625.39,-136.384"/>
<polygon fill="midnightblue" stroke="midnightblue" points="1626.14,-132.966 1615.62,-134.221 1624.63,-139.8 1626.14,-132.966"/>
</g>
<!-- Node38 -->
<g id="node75" class="node"><title>Node38</title>
<a xlink:href="plugin_8h.xhtml" target="_top" xlink:title="The Plugin class.">
<polygon fill="white" stroke="black" points="1778,-117 1778,-137 1832,-137 1832,-117 1778,-117"/>
<text text-anchor="middle" x="1805" y="-124" font-family="FreeSans.ttf" font-size="10.00">plugin.h</text>
</a>
</g>
<!-- Node1&#45;&gt;Node38 -->
<g id="edge74" class="edge"><title>Node1&#45;&gt;Node38</title>
<path fill="none" stroke="midnightblue" d="M1838.03,-174.897C1832.48,-166.846 1824.55,-155.353 1817.86,-145.643"/>
<polygon fill="midnightblue" stroke="midnightblue" points="1820.72,-143.623 1812.16,-137.378 1814.95,-147.597 1820.72,-143.623"/>
</g>
<!-- Node39 -->
<g id="node77" class="node"><title>Node39</title>
<a xlink:href="character_8h.xhtml" target="_top" xlink:title="The Character class.">
<polygon fill="white" stroke="black" points="1849.5,-117 1849.5,-137 1920.5,-137 1920.5,-117 1849.5,-117"/>
<text text-anchor="middle" x="1885" y="-124" font-family="FreeSans.ttf" font-size="10.00">character.h</text>
</a>
</g>
<!-- Node1&#45;&gt;Node39 -->
<g id="edge76" class="edge"><title>Node1&#45;&gt;Node39</title>
<path fill="none" stroke="midnightblue" d="M1851.97,-174.897C1857.52,-166.846 1865.45,-155.353 1872.14,-145.643"/>
<polygon fill="midnightblue" stroke="midnightblue" points="1875.05,-147.597 1877.84,-137.378 1869.28,-143.623 1875.05,-147.597"/>
</g>
<!-- Node41 -->
<g id="node81" class="node"><title>Node41</title>
<a xlink:href="socketclient_8h.xhtml" target="_top" xlink:title="The SocketClient class.">
<polygon fill="white" stroke="black" points="1937.5,-117 1937.5,-137 2020.5,-137 2020.5,-117 1937.5,-117"/>
<text text-anchor="middle" x="1979" y="-124" font-family="FreeSans.ttf" font-size="10.00">socketclient.h</text>
</a>
</g>
<!-- Node1&#45;&gt;Node41 -->
<g id="edge80" class="edge"><title>Node1&#45;&gt;Node41</title>
<path fill="none" stroke="midnightblue" d="M1868.34,-174.897C1889.83,-165.598 1921.92,-151.707 1946.02,-141.275"/>
<polygon fill="midnightblue" stroke="midnightblue" points="1947.69,-144.366 1955.48,-137.182 1944.91,-137.942 1947.69,-144.366"/>
</g>
<!-- Node3 -->
<g id="node5" class="node"><title>Node3</title>
<a xlink:href="sysincludes_8h.xhtml" target="_top" xlink:title="All system standard includes that are used within NAMS.">
<polygon fill="white" stroke="black" points="762,-59 762,-79 842,-79 842,-59 762,-59"/>
<text text-anchor="middle" x="802" y="-66" font-family="FreeSans.ttf" font-size="10.00">sysincludes.h</text>
</a>
</g>
<!-- Node2&#45;&gt;Node3 -->
<g id="edge4" class="edge"><title>Node2&#45;&gt;Node3</title>
<path fill="none" stroke="midnightblue" d="M1550.44,-124.582C1428.78,-115.547 1000.41,-83.7349 852.598,-72.7576"/>
<polygon fill="midnightblue" stroke="midnightblue" points="852.68,-69.2541 842.448,-72.0038 852.162,-76.2349 852.68,-69.2541"/>
</g>
<!-- Node27 -->
<g id="node53" class="node"><title>Node27</title>
<a xlink:href="limits_8h.xhtml" target="_top" xlink:title="Custom defined numeric types and system limits.">
<polygon fill="white" stroke="black" points="1337.5,-59 1337.5,-79 1388.5,-79 1388.5,-59 1337.5,-59"/>
<text text-anchor="middle" x="1363" y="-66" font-family="FreeSans.ttf" font-size="10.00">limits.h</text>
</a>
</g>
<!-- Node2&#45;&gt;Node27 -->
<g id="edge52" class="edge"><title>Node2&#45;&gt;Node27</title>
<path fill="none" stroke="midnightblue" d="M1550.24,-119.406C1514.91,-111.069 1456.83,-96.9287 1398.33,-80.2733"/>
<polygon fill="midnightblue" stroke="midnightblue" points="1399.14,-76.864 1388.56,-77.4689 1397.21,-83.5923 1399.14,-76.864"/>
</g>
<!-- Node28 -->
<g id="node55" class="node"><title>Node28</title>
<a xlink:href="macros_8h.xhtml" target="_top" xlink:title="All pre&#45;processor macros within NAMS and select reference values.">
<polygon fill="white" stroke="black" points="1406,-59 1406,-79 1468,-79 1468,-59 1406,-59"/>
<text text-anchor="middle" x="1437" y="-66" font-family="FreeSans.ttf" font-size="10.00">macros.h</text>
</a>
</g>
<!-- Node2&#45;&gt;Node28 -->
<g id="edge54" class="edge"><title>Node2&#45;&gt;Node28</title>
<path fill="none" stroke="midnightblue" d="M1557.57,-116.897C1533.95,-107.515 1498.57,-93.4593 1472.24,-82.9979"/>
<polygon fill="midnightblue" stroke="midnightblue" points="1473.22,-79.6209 1462.63,-79.1817 1470.63,-86.1264 1473.22,-79.6209"/>
</g>
<!-- Node29 -->
<g id="node57" class="node"><title>Node29</title>
<a xlink:href="enum_8h.xhtml" target="_top" xlink:title="All numerical and boolean defines for every class and namespace.">
<polygon fill="white" stroke="black" points="1485.5,-59 1485.5,-79 1538.5,-79 1538.5,-59 1485.5,-59"/>
<text text-anchor="middle" x="1512" y="-66" font-family="FreeSans.ttf" font-size="10.00">enum.h</text>
</a>
</g>
<!-- Node2&#45;&gt;Node29 -->
<g id="edge56" class="edge"><title>Node2&#45;&gt;Node29</title>
<path fill="none" stroke="midnightblue" d="M1570.63,-116.897C1560.17,-108.353 1544.97,-95.933 1532.67,-85.8813"/>
<polygon fill="midnightblue" stroke="midnightblue" points="1534.66,-82.9935 1524.7,-79.3776 1530.23,-88.4146 1534.66,-82.9935"/>
</g>
<!-- Node30 -->
<g id="node59" class="node"><title>Node30</title>
<a xlink:href="config_8h.xhtml" target="_top" xlink:title="NAMS configuration options.">
<polygon fill="white" stroke="black" points="1556,-59 1556,-79 1610,-79 1610,-59 1556,-59"/>
<text text-anchor="middle" x="1583" y="-66" font-family="FreeSans.ttf" font-size="10.00">config.h</text>
</a>
</g>
<!-- Node2&#45;&gt;Node30 -->
<g id="edge58" class="edge"><title>Node2&#45;&gt;Node30</title>
<path fill="none" stroke="midnightblue" d="M1583,-116.897C1583,-109.339 1583,-98.7476 1583,-89.4458"/>
<polygon fill="midnightblue" stroke="midnightblue" points="1586.5,-89.3776 1583,-79.3776 1579.5,-89.3776 1586.5,-89.3776"/>
</g>
<!-- Node31 -->
<g id="node61" class="node"><title>Node31</title>
<a xlink:href="class_8h.xhtml" target="_top" xlink:title="All class declarations.">
<polygon fill="white" stroke="black" points="1628,-59 1628,-79 1678,-79 1678,-59 1628,-59"/>
<text text-anchor="middle" x="1653" y="-66" font-family="FreeSans.ttf" font-size="10.00">class.h</text>
</a>
</g>
<!-- Node2&#45;&gt;Node31 -->
<g id="edge60" class="edge"><title>Node2&#45;&gt;Node31</title>
<path fill="none" stroke="midnightblue" d="M1595.19,-116.897C1605.5,-108.353 1620.49,-95.933 1632.63,-85.8813"/>
<polygon fill="midnightblue" stroke="midnightblue" points="1635.01,-88.4529 1640.48,-79.3776 1630.54,-83.0627 1635.01,-88.4529"/>
</g>
<!-- Node32 -->
<g id="node63" class="node"><title>Node32</title>
<a xlink:href="namespace_8h.xhtml" target="_top" xlink:title="All namespace includes.">
<polygon fill="white" stroke="black" points="1696,-59 1696,-79 1778,-79 1778,-59 1696,-59"/>
<text text-anchor="middle" x="1737" y="-66" font-family="FreeSans.ttf" font-size="10.00">namespace.h</text>
</a>
</g>
<!-- Node2&#45;&gt;Node32 -->
<g id="edge62" class="edge"><title>Node2&#45;&gt;Node32</title>
<path fill="none" stroke="midnightblue" d="M1609.82,-116.897C1635.03,-107.403 1672.95,-93.124 1700.82,-82.6258"/>
<polygon fill="midnightblue" stroke="midnightblue" points="1702.1,-85.8842 1710.22,-79.0842 1699.63,-79.3334 1702.1,-85.8842"/>
</g>
<!-- Node37 -->
<g id="node73" class="node"><title>Node37</title>
<a xlink:href="globals_8h.xhtml" target="_top" xlink:title="Externs to reference global scope variables.">
<polygon fill="white" stroke="black" points="1795.5,-59 1795.5,-79 1854.5,-79 1854.5,-59 1795.5,-59"/>
<text text-anchor="middle" x="1825" y="-66" font-family="FreeSans.ttf" font-size="10.00">globals.h</text>
</a>
</g>
<!-- Node2&#45;&gt;Node37 -->
<g id="edge72" class="edge"><title>Node2&#45;&gt;Node37</title>
<path fill="none" stroke="midnightblue" d="M1615.64,-120.063C1654.06,-111.771 1720,-97.1417 1785.15,-80.3981"/>
<polygon fill="midnightblue" stroke="midnightblue" points="1786.37,-83.6979 1795.17,-77.8033 1784.61,-76.9214 1786.37,-83.6979"/>
</g>
<!-- Node4 -->
<g id="node7" class="node"><title>Node4</title>
<polygon fill="white" stroke="#bfbfbf" points="0,-1 0,-21 62,-21 62,-1 0,-1"/>
<text text-anchor="middle" x="31" y="-8" font-family="FreeSans.ttf" font-size="10.00">algorithm</text>
</g>
<!-- Node3&#45;&gt;Node4 -->
<g id="edge6" class="edge"><title>Node3&#45;&gt;Node4</title>
<path fill="none" stroke="midnightblue" d="M761.667,-67.4929C631.786,-62.473 224.529,-45.3933 72.3845,-21.89"/>
<polygon fill="midnightblue" stroke="midnightblue" points="72.7381,-18.4018 62.3075,-20.2598 71.6202,-25.312 72.7381,-18.4018"/>
</g>
<!-- Node5 -->
<g id="node9" class="node"><title>Node5</title>
<polygon fill="white" stroke="#bfbfbf" points="80,-1 80,-21 124,-21 124,-1 80,-1"/>
<text text-anchor="middle" x="102" y="-8" font-family="FreeSans.ttf" font-size="10.00">bitset</text>
</g>
<!-- Node3&#45;&gt;Node5 -->
<g id="edge8" class="edge"><title>Node3&#45;&gt;Node5</title>
<path fill="none" stroke="midnightblue" d="M761.991,-67.6096C639.966,-63.1512 272.914,-48.0716 134.128,-21.6714"/>
<polygon fill="midnightblue" stroke="midnightblue" points="134.638,-18.204 124.144,-19.6681 133.26,-25.0672 134.638,-18.204"/>
</g>
<!-- Node6 -->
<g id="node11" class="node"><title>Node6</title>
<polygon fill="white" stroke="#bfbfbf" points="142,-1 142,-21 192,-21 192,-1 142,-1"/>
<text text-anchor="middle" x="167" y="-8" font-family="FreeSans.ttf" font-size="10.00">chrono</text>
</g>
<!-- Node3&#45;&gt;Node6 -->
<g id="edge10" class="edge"><title>Node3&#45;&gt;Node6</title>
<path fill="none" stroke="midnightblue" d="M761.618,-67.0808C648.149,-61.4972 327.14,-44.3433 202.145,-21.757"/>
<polygon fill="midnightblue" stroke="midnightblue" points="202.555,-18.2723 192.077,-19.8394 201.245,-25.1486 202.555,-18.2723"/>
</g>
<!-- Node7 -->
<g id="node13" class="node"><title>Node7</title>
<polygon fill="white" stroke="#bfbfbf" points="209.5,-1 209.5,-21 262.5,-21 262.5,-1 209.5,-1"/>
<text text-anchor="middle" x="236" y="-8" font-family="FreeSans.ttf" font-size="10.00">cstdarg</text>
</g>
<!-- Node3&#45;&gt;Node7 -->
<g id="edge12" class="edge"><title>Node3&#45;&gt;Node7</title>
<path fill="none" stroke="midnightblue" d="M761.949,-68.3999C674.421,-66.4601 459.586,-58.2783 272.608,-21.9869"/>
<polygon fill="midnightblue" stroke="midnightblue" points="273.087,-18.5141 262.599,-20.0117 271.732,-25.3816 273.087,-18.5141"/>
</g>
<!-- Node8 -->
<g id="node15" class="node"><title>Node8</title>
<polygon fill="white" stroke="#bfbfbf" points="279.5,-1 279.5,-21 324.5,-21 324.5,-1 279.5,-1"/>
<text text-anchor="middle" x="302" y="-8" font-family="FreeSans.ttf" font-size="10.00">cstdio</text>
</g>
<!-- Node3&#45;&gt;Node8 -->
<g id="edge14" class="edge"><title>Node3&#45;&gt;Node8</title>
<path fill="none" stroke="midnightblue" d="M761.955,-68.2267C681.979,-65.9903 496.905,-57.3444 334.661,-21.9508"/>
<polygon fill="midnightblue" stroke="midnightblue" points="335.023,-18.4458 324.502,-19.6923 333.504,-25.279 335.023,-18.4458"/>
</g>
<!-- Node9 -->
<g id="node17" class="node"><title>Node9</title>
<polygon fill="white" stroke="#bfbfbf" points="341.5,-1 341.5,-21 388.5,-21 388.5,-1 341.5,-1"/>
<text text-anchor="middle" x="365" y="-8" font-family="FreeSans.ttf" font-size="10.00">deque</text>
</g>
<!-- Node3&#45;&gt;Node9 -->
<g id="edge16" class="edge"><title>Node3&#45;&gt;Node9</title>
<path fill="none" stroke="midnightblue" d="M761.853,-67.2089C690.274,-63.3989 535.951,-52.3953 398.469,-21.9723"/>
<polygon fill="midnightblue" stroke="midnightblue" points="399.126,-18.5325 388.601,-19.7481 397.587,-25.3612 399.126,-18.5325"/>
</g>
<!-- Node10 -->
<g id="node19" class="node"><title>Node10</title>
<polygon fill="white" stroke="#bfbfbf" points="406,-1 406,-21 460,-21 460,-1 406,-1"/>
<text text-anchor="middle" x="433" y="-8" font-family="FreeSans.ttf" font-size="10.00">fstream</text>
</g>
<!-- Node3&#45;&gt;Node10 -->
<g id="edge18" class="edge"><title>Node3&#45;&gt;Node10</title>
<path fill="none" stroke="midnightblue" d="M761.913,-65.3862C700.837,-59.4366 580.753,-45.9976 470.006,-21.9535"/>
<polygon fill="midnightblue" stroke="midnightblue" points="470.525,-18.4839 460.006,-19.7474 469.017,-25.3196 470.525,-18.4839"/>
</g>
<!-- Node11 -->
<g id="node21" class="node"><title>Node11</title>
<polygon fill="white" stroke="#bfbfbf" points="477.5,-1 477.5,-21 536.5,-21 536.5,-1 477.5,-1"/>
<text text-anchor="middle" x="507" y="-8" font-family="FreeSans.ttf" font-size="10.00">iostream</text>
</g>
<!-- Node3&#45;&gt;Node11 -->
<g id="edge20" class="edge"><title>Node3&#45;&gt;Node11</title>
<path fill="none" stroke="midnightblue" d="M761.676,-62.9172C712.834,-55.2657 627.902,-41.0529 546.68,-22.2489"/>
<polygon fill="midnightblue" stroke="midnightblue" points="547.33,-18.8066 536.796,-19.9331 545.734,-25.622 547.33,-18.8066"/>
</g>
<!-- Node12 -->
<g id="node23" class="node"><title>Node12</title>
<polygon fill="white" stroke="#bfbfbf" points="554,-1 554,-21 606,-21 606,-1 554,-1"/>
<text text-anchor="middle" x="580" y="-8" font-family="FreeSans.ttf" font-size="10.00">iterator</text>
</g>
<!-- Node3&#45;&gt;Node12 -->
<g id="edge22" class="edge"><title>Node3&#45;&gt;Node12</title>
<path fill="none" stroke="midnightblue" d="M761.695,-59.5878C725.779,-51.0405 671.585,-37.7525 615.985,-22.1792"/>
<polygon fill="midnightblue" stroke="midnightblue" points="616.899,-18.8005 606.324,-19.4539 614.998,-25.5376 616.899,-18.8005"/>
</g>
<!-- Node13 -->
<g id="node25" class="node"><title>Node13</title>
<polygon fill="white" stroke="#bfbfbf" points="624,-1 624,-21 666,-21 666,-1 624,-1"/>
<text text-anchor="middle" x="645" y="-8" font-family="FreeSans.ttf" font-size="10.00">limits</text>
</g>
<!-- Node3&#45;&gt;Node13 -->
<g id="edge24" class="edge"><title>Node3&#45;&gt;Node13</title>
<path fill="none" stroke="midnightblue" d="M774.653,-58.8972C746.989,-48.6776 704.315,-32.9126 675.556,-22.2881"/>
<polygon fill="midnightblue" stroke="midnightblue" points="676.604,-18.9442 666.011,-18.762 674.178,-25.5105 676.604,-18.9442"/>
</g>
<!-- Node14 -->
<g id="node27" class="node"><title>Node14</title>
<polygon fill="white" stroke="#bfbfbf" points="684,-1 684,-21 722,-21 722,-1 684,-1"/>
<text text-anchor="middle" x="703" y="-8" font-family="FreeSans.ttf" font-size="10.00">map</text>
</g>
<!-- Node3&#45;&gt;Node14 -->
<g id="edge26" class="edge"><title>Node3&#45;&gt;Node14</title>
<path fill="none" stroke="midnightblue" d="M784.756,-58.8972C769.376,-49.8871 746.639,-36.5665 729.045,-26.2586"/>
<polygon fill="midnightblue" stroke="midnightblue" points="730.777,-23.2168 720.379,-21.1817 727.238,-29.2566 730.777,-23.2168"/>
</g>
<!-- Node15 -->
<g id="node29" class="node"><title>Node15</title>
<polygon fill="white" stroke="#bfbfbf" points="740,-1 740,-21 796,-21 796,-1 740,-1"/>
<text text-anchor="middle" x="768" y="-8" font-family="FreeSans.ttf" font-size="10.00">sstream</text>
</g>
<!-- Node3&#45;&gt;Node15 -->
<g id="edge28" class="edge"><title>Node3&#45;&gt;Node15</title>
<path fill="none" stroke="midnightblue" d="M796.078,-58.8972C791.454,-51.0104 784.895,-39.8209 779.279,-30.2401"/>
<polygon fill="midnightblue" stroke="midnightblue" points="782.16,-28.2346 774.083,-21.3776 776.121,-31.7746 782.16,-28.2346"/>
</g>
<!-- Node16 -->
<g id="node31" class="node"><title>Node16</title>
<polygon fill="white" stroke="#bfbfbf" points="813.5,-1 813.5,-21 860.5,-21 860.5,-1 813.5,-1"/>
<text text-anchor="middle" x="837" y="-8" font-family="FreeSans.ttf" font-size="10.00">vector</text>
</g>
<!-- Node3&#45;&gt;Node16 -->
<g id="edge30" class="edge"><title>Node3&#45;&gt;Node16</title>
<path fill="none" stroke="midnightblue" d="M808.097,-58.8972C812.905,-50.9283 819.749,-39.5874 825.57,-29.9413"/>
<polygon fill="midnightblue" stroke="midnightblue" points="828.568,-31.7478 830.738,-21.3776 822.574,-28.1311 828.568,-31.7478"/>
</g>
<!-- Node17 -->
<g id="node33" class="node"><title>Node17</title>
<polygon fill="white" stroke="#bfbfbf" points="878,-1 878,-21 946,-21 946,-1 878,-1"/>
<text text-anchor="middle" x="912" y="-8" font-family="FreeSans.ttf" font-size="10.00">arpa/inet.h</text>
</g>
<!-- Node3&#45;&gt;Node17 -->
<g id="edge32" class="edge"><title>Node3&#45;&gt;Node17</title>
<path fill="none" stroke="midnightblue" d="M821.161,-58.8972C838.405,-49.8045 863.976,-36.3218 883.598,-25.9757"/>
<polygon fill="midnightblue" stroke="midnightblue" points="885.477,-28.9418 892.69,-21.1817 882.212,-22.7498 885.477,-28.9418"/>
</g>
<!-- Node18 -->
<g id="node35" class="node"><title>Node18</title>
<polygon fill="white" stroke="#bfbfbf" points="964,-1 964,-21 1042,-21 1042,-1 964,-1"/>
<text text-anchor="middle" x="1003" y="-8" font-family="FreeSans.ttf" font-size="10.00">arpa/telnet.h</text>
</g>
<!-- Node3&#45;&gt;Node18 -->
<g id="edge34" class="edge"><title>Node3&#45;&gt;Node18</title>
<path fill="none" stroke="midnightblue" d="M837.012,-58.8972C870.631,-49.1962 921.567,-34.4981 958.144,-23.9436"/>
<polygon fill="midnightblue" stroke="midnightblue" points="959.415,-27.2195 968.053,-21.0842 957.475,-20.4939 959.415,-27.2195"/>
</g>
<!-- Node19 -->
<g id="node37" class="node"><title>Node19</title>
<polygon fill="white" stroke="#bfbfbf" points="1059.5,-1 1059.5,-21 1112.5,-21 1112.5,-1 1059.5,-1"/>
<text text-anchor="middle" x="1086" y="-8" font-family="FreeSans.ttf" font-size="10.00">dirent.h</text>
</g>
<!-- Node3&#45;&gt;Node19 -->
<g id="edge36" class="edge"><title>Node3&#45;&gt;Node19</title>
<path fill="none" stroke="midnightblue" d="M842.424,-62.8752C889.918,-55.3487 971.226,-41.4344 1049.34,-22.2285"/>
<polygon fill="midnightblue" stroke="midnightblue" points="1050.48,-25.5502 1059.34,-19.7353 1048.79,-18.758 1050.48,-25.5502"/>
</g>
<!-- Node20 -->
<g id="node39" class="node"><title>Node20</title>
<polygon fill="white" stroke="#bfbfbf" points="1130,-1 1130,-21 1178,-21 1178,-1 1130,-1"/>
<text text-anchor="middle" x="1154" y="-8" font-family="FreeSans.ttf" font-size="10.00">dlfcn.h</text>
</g>
<!-- Node3&#45;&gt;Node20 -->
<g id="edge38" class="edge"><title>Node3&#45;&gt;Node20</title>
<path fill="none" stroke="midnightblue" d="M842.213,-65.3614C901.283,-59.5202 1015.01,-46.3875 1120.17,-21.8741"/>
<polygon fill="midnightblue" stroke="midnightblue" points="1121.07,-25.258 1129.99,-19.5449 1119.45,-18.447 1121.07,-25.258"/>
</g>
<!-- Node21 -->
<g id="node41" class="node"><title>Node21</title>
<polygon fill="white" stroke="#bfbfbf" points="1195.5,-1 1195.5,-21 1246.5,-21 1246.5,-1 1195.5,-1"/>
<text text-anchor="middle" x="1221" y="-8" font-family="FreeSans.ttf" font-size="10.00">errno.h</text>
</g>
<!-- Node3&#45;&gt;Node21 -->
<g id="edge40" class="edge"><title>Node3&#45;&gt;Node21</title>
<path fill="none" stroke="midnightblue" d="M842.052,-66.6438C910.711,-62.0587 1055.3,-50.02 1185.04,-22.1382"/>
<polygon fill="midnightblue" stroke="midnightblue" points="1186.13,-25.4832 1195.15,-19.9266 1184.64,-18.6449 1186.13,-25.4832"/>
</g>
<!-- Node22 -->
<g id="node43" class="node"><title>Node22</title>
<polygon fill="white" stroke="#bfbfbf" points="1264,-1 1264,-21 1310,-21 1310,-1 1264,-1"/>
<text text-anchor="middle" x="1287" y="-8" font-family="FreeSans.ttf" font-size="10.00">fcntl.h</text>
</g>
<!-- Node3&#45;&gt;Node22 -->
<g id="edge42" class="edge"><title>Node3&#45;&gt;Node22</title>
<path fill="none" stroke="midnightblue" d="M842.177,-67.8937C920.193,-65.0895 1097.55,-55.5081 1253.96,-21.8229"/>
<polygon fill="midnightblue" stroke="midnightblue" points="1254.74,-25.2357 1263.76,-19.6752 1253.24,-18.3981 1254.74,-25.2357"/>
</g>
<!-- Node23 -->
<g id="node45" class="node"><title>Node23</title>
<polygon fill="white" stroke="#bfbfbf" points="1327.5,-1 1327.5,-21 1392.5,-21 1392.5,-1 1327.5,-1"/>
<text text-anchor="middle" x="1360" y="-8" font-family="FreeSans.ttf" font-size="10.00">memory.h</text>
</g>
<!-- Node3&#45;&gt;Node23 -->
<g id="edge44" class="edge"><title>Node3&#45;&gt;Node23</title>
<path fill="none" stroke="midnightblue" d="M842.204,-67.6904C928.004,-64.3932 1135.42,-53.7478 1317.42,-22.047"/>
<polygon fill="midnightblue" stroke="midnightblue" points="1318.2,-25.4633 1327.44,-20.2758 1316.98,-18.5702 1318.2,-25.4633"/>
</g>
<!-- Node24 -->
<g id="node47" class="node"><title>Node24</title>
<polygon fill="white" stroke="#bfbfbf" points="1409.5,-1 1409.5,-21 1462.5,-21 1462.5,-1 1409.5,-1"/>
<text text-anchor="middle" x="1436" y="-8" font-family="FreeSans.ttf" font-size="10.00">netdb.h</text>
</g>
<!-- Node3&#45;&gt;Node24 -->
<g id="edge46" class="edge"><title>Node3&#45;&gt;Node24</title>
<path fill="none" stroke="midnightblue" d="M842.239,-67.0321C955.308,-61.3192 1275.19,-43.8529 1399.4,-21.9017"/>
<polygon fill="midnightblue" stroke="midnightblue" points="1400.22,-25.3108 1409.41,-20.0399 1398.94,-18.429 1400.22,-25.3108"/>
</g>
<!-- Node25 -->
<g id="node49" class="node"><title>Node25</title>
<polygon fill="white" stroke="#bfbfbf" points="1479.5,-1 1479.5,-21 1542.5,-21 1542.5,-1 1479.5,-1"/>
<text text-anchor="middle" x="1511" y="-8" font-family="FreeSans.ttf" font-size="10.00">sys/stat.h</text>
</g>
<!-- Node3&#45;&gt;Node25 -->
<g id="edge48" class="edge"><title>Node3&#45;&gt;Node25</title>
<path fill="none" stroke="midnightblue" d="M842.379,-67.2152C964.643,-61.6493 1330.45,-43.7656 1469.26,-21.9843"/>
<polygon fill="midnightblue" stroke="midnightblue" points="1469.95,-25.4183 1479.25,-20.3419 1468.82,-18.5111 1469.95,-25.4183"/>
</g>
<!-- Node26 -->
<g id="node51" class="node"><title>Node26</title>
<polygon fill="white" stroke="#bfbfbf" points="1559.5,-1 1559.5,-21 1614.5,-21 1614.5,-1 1559.5,-1"/>
<text text-anchor="middle" x="1587" y="-8" font-family="FreeSans.ttf" font-size="10.00">unistd.h</text>
</g>
<!-- Node3&#45;&gt;Node26 -->
<g id="edge50" class="edge"><title>Node3&#45;&gt;Node26</title>
<path fill="none" stroke="midnightblue" d="M842.405,-67.7106C974.514,-63.3042 1393.62,-47.77 1548.97,-21.9753"/>
<polygon fill="midnightblue" stroke="midnightblue" points="1550,-25.3478 1559.25,-20.181 1548.8,-18.4519 1550,-25.3478"/>
</g>
<!-- Node33 -->
<g id="node65" class="node"><title>Node33</title>
<a xlink:href="handler_8h.xhtml" target="_top" xlink:title="The Handler namespace.">
<polygon fill="white" stroke="black" points="1631.5,-1 1631.5,-21 1692.5,-21 1692.5,-1 1631.5,-1"/>
<text text-anchor="middle" x="1662" y="-8" font-family="FreeSans.ttf" font-size="10.00">handler.h</text>
</a>
</g>
<!-- Node32&#45;&gt;Node33 -->
<g id="edge64" class="edge"><title>Node32&#45;&gt;Node33</title>
<path fill="none" stroke="midnightblue" d="M1723.94,-58.8972C1712.71,-50.2178 1696.32,-37.5384 1683.21,-27.4053"/>
<polygon fill="midnightblue" stroke="midnightblue" points="1685.22,-24.5305 1675.17,-21.1817 1680.94,-30.0679 1685.22,-24.5305"/>
</g>
<!-- Node34 -->
<g id="node67" class="node"><title>Node34</title>
<a xlink:href="server_8h.xhtml" target="_top" xlink:title="The Server namespace.">
<polygon fill="white" stroke="black" points="1709.5,-1 1709.5,-21 1764.5,-21 1764.5,-1 1709.5,-1"/>
<text text-anchor="middle" x="1737" y="-8" font-family="FreeSans.ttf" font-size="10.00">server.h</text>
</a>
</g>
<!-- Node32&#45;&gt;Node34 -->
<g id="edge66" class="edge"><title>Node32&#45;&gt;Node34</title>
<path fill="none" stroke="midnightblue" d="M1737,-58.8972C1737,-51.339 1737,-40.7476 1737,-31.4458"/>
<polygon fill="midnightblue" stroke="midnightblue" points="1740.5,-31.3776 1737,-21.3776 1733.5,-31.3776 1740.5,-31.3776"/>
</g>
<!-- Node35 -->
<g id="node69" class="node"><title>Node35</title>
<a xlink:href="telopt_8h.xhtml" target="_top" xlink:title="The telopt namespace.">
<polygon fill="white" stroke="black" points="1781.5,-1 1781.5,-21 1834.5,-21 1834.5,-1 1781.5,-1"/>
<text text-anchor="middle" x="1808" y="-8" font-family="FreeSans.ttf" font-size="10.00">telopt.h</text>
</a>
</g>
<!-- Node32&#45;&gt;Node35 -->
<g id="edge68" class="edge"><title>Node32&#45;&gt;Node35</title>
<path fill="none" stroke="midnightblue" d="M1749.37,-58.8972C1759.83,-50.3532 1775.03,-37.933 1787.33,-27.8813"/>
<polygon fill="midnightblue" stroke="midnightblue" points="1789.77,-30.4146 1795.3,-21.3776 1785.34,-24.9935 1789.77,-30.4146"/>
</g>
<!-- Node36 -->
<g id="node71" class="node"><title>Node36</title>
<a xlink:href="utils_8h.xhtml" target="_top" xlink:title="The Utils namespace.">
<polygon fill="white" stroke="black" points="1851.5,-1 1851.5,-21 1896.5,-21 1896.5,-1 1851.5,-1"/>
<text text-anchor="middle" x="1874" y="-8" font-family="FreeSans.ttf" font-size="10.00">utils.h</text>
</a>
</g>
<!-- Node32&#45;&gt;Node36 -->
<g id="edge70" class="edge"><title>Node32&#45;&gt;Node36</title>
<path fill="none" stroke="midnightblue" d="M1760.86,-58.8972C1783.33,-49.3846 1817.15,-35.0671 1841.96,-24.5632"/>
<polygon fill="midnightblue" stroke="midnightblue" points="1843.48,-27.7236 1851.32,-20.6019 1840.75,-21.2775 1843.48,-27.7236"/>
</g>
<!-- Node40 -->
<g id="node79" class="node"><title>Node40</title>
<a xlink:href="thing_8h.xhtml" target="_top" xlink:title="The Thing class.">
<polygon fill="white" stroke="black" points="1872,-59 1872,-79 1922,-79 1922,-59 1872,-59"/>
<text text-anchor="middle" x="1897" y="-66" font-family="FreeSans.ttf" font-size="10.00">thing.h</text>
</a>
</g>
<!-- Node39&#45;&gt;Node40 -->
<g id="edge78" class="edge"><title>Node39&#45;&gt;Node40</title>
<path fill="none" stroke="midnightblue" d="M1887.09,-116.897C1888.65,-109.339 1890.85,-98.7476 1892.77,-89.4458"/>
<polygon fill="midnightblue" stroke="midnightblue" points="1896.25,-89.8794 1894.85,-79.3776 1889.4,-88.4611 1896.25,-89.8794"/>
</g>
<!-- Node42 -->
<g id="node83" class="node"><title>Node42</title>
<a xlink:href="socket_8h.xhtml" target="_top" xlink:title="The Socket class.">
<polygon fill="white" stroke="black" points="1950.5,-59 1950.5,-79 2007.5,-79 2007.5,-59 1950.5,-59"/>
<text text-anchor="middle" x="1979" y="-66" font-family="FreeSans.ttf" font-size="10.00">socket.h</text>
</a>
</g>
<!-- Node41&#45;&gt;Node42 -->
<g id="edge82" class="edge"><title>Node41&#45;&gt;Node42</title>
<path fill="none" stroke="midnightblue" d="M1979,-116.897C1979,-109.339 1979,-98.7476 1979,-89.4458"/>
<polygon fill="midnightblue" stroke="midnightblue" points="1982.5,-89.3776 1979,-79.3776 1975.5,-89.3776 1982.5,-89.3776"/>
</g>
</g>
</svg>
