<?xml version="1.0" encoding="UTF-8" standalone="no"?>
<!DOCTYPE svg PUBLIC "-//W3C//DTD SVG 1.1//EN"
 "http://www.w3.org/Graphics/SVG/1.1/DTD/svg11.dtd">
<!-- Generated by graphviz version 2.26.3 (20100126.1600)
 -->
<!-- Title: G Pages: 1 -->
<!--zoomable 436 -->
<svg id="main" version="1.1" xmlns="http://www.w3.org/2000/svg" xmlns:xlink="http://www.w3.org/1999/xlink" xml:space="preserve" onload="init(evt)">
        <defs>
                <circle id="rim" cx="0" cy="0" r="7"/>
                <circle id="rim2" cx="0" cy="0" r="3.5"/>
                <g id="zoomPlus">
                        <use xlink:href="#rim" fill="#404040">
                                <set attributeName="fill" to="#808080" begin="zoomplus.mouseover" end="zoomplus.mouseout"/>
                        </use>
                        <path d="M-4,0h8M0,-4v8" fill="none" stroke="white" stroke-width="1.5" pointer-events="none"/>
                </g>
                <g id="zoomMin">
                        <use xlink:href="#rim" fill="#404040">
                                <set attributeName="fill" to="#808080" begin="zoomminus.mouseover" end="zoomminus.mouseout"/>
                        </use>
                        <path d="M-4,0h8" fill="none" stroke="white" stroke-width="1.5" pointer-events="none"/>
                </g>
                <g id="dirArrow">
                        <path fill="none" stroke="white" stroke-width="1.5" d="M0,-3.0v7 M-2.5,-0.5L0,-3.0L2.5,-0.5"/>
                </g>
               <g id="resetDef">
                       <use xlink:href="#rim2" fill="#404040">
                               <set attributeName="fill" to="#808080" begin="reset.mouseover" end="reset.mouseout"/>
                       </use>
               </g>
        </defs>

<script type="text/javascript">
var viewWidth = 1344;
var viewHeight = 436;
var sectionId = 'dynsection-0';
</script>
<script xlink:href="svgpan.js"/>
<svg id="graph" class="graph">
<g id="viewport">
<title>G</title>
<polygon fill="white" stroke="white" points="-4,5 -4,-432 1341.19,-432 1341.19,5 -4,5"/>
<!-- Node1 -->
<g id="node1" class="node"><title>Node1</title>
<polygon fill="#bfbfbf" stroke="black" points="624.687,-406.5 624.687,-427.5 689.687,-427.5 689.687,-406.5 624.687,-406.5"/>
<text text-anchor="middle" x="657.187" y="-414.5" font-family="FreeSans.ttf" font-size="10.00">plugin.cpp</text>
</g>
<!-- Node2 -->
<g id="node3" class="node"><title>Node2</title>
<a xlink:href="includes_8h.xhtml" target="_top" xlink:title="All non&#45;system includes that need to be within each .cpp file.">
<polygon fill="white" stroke="black" points="620.187,-348.5 620.187,-369.5 694.187,-369.5 694.187,-348.5 620.187,-348.5"/>
<text text-anchor="middle" x="657.187" y="-356.5" font-family="FreeSans.ttf" font-size="10.00">h/includes.h</text>
</a>
</g>
<!-- Node1&#45;&gt;Node2 -->
<g id="edge2" class="edge"><title>Node1&#45;&gt;Node2</title>
<path fill="none" stroke="midnightblue" d="M657.187,-406.362C657.187,-398.922 657.187,-388.743 657.187,-379.728"/>
<polygon fill="midnightblue" stroke="midnightblue" points="660.687,-379.571 657.187,-369.571 653.687,-379.571 660.687,-379.571"/>
</g>
<!-- Node19 -->
<g id="node37" class="node"><title>Node19</title>
<a xlink:href="class_8h.xhtml" target="_top" xlink:title="All class declarations.">
<polygon fill="white" stroke="black" points="65.187,-174.5 65.187,-195.5 115.187,-195.5 115.187,-174.5 65.187,-174.5"/>
<text text-anchor="middle" x="90.187" y="-182.5" font-family="FreeSans.ttf" font-size="10.00">class.h</text>
</a>
</g>
<!-- Node1&#45;&gt;Node19 -->
<g id="edge86" class="edge"><title>Node1&#45;&gt;Node19</title>
<path fill="none" stroke="midnightblue" d="M624.364,-414C503.144,-402.179 83.6342,-354.473 5.18703,-254 -13.576,-229.969 24.5463,-208.963 55.6332,-196.626"/>
<polygon fill="midnightblue" stroke="midnightblue" points="56.8738,-199.898 64.9843,-193.081 54.3929,-193.353 56.8738,-199.898"/>
</g>
<!-- Node41 -->
<g id="node85" class="node"><title>Node41</title>
<a xlink:href="plugin_8h.xhtml" target="_top" xlink:title="The Plugin class.">
<polygon fill="white" stroke="black" points="859.687,-348.5 859.687,-369.5 922.687,-369.5 922.687,-348.5 859.687,-348.5"/>
<text text-anchor="middle" x="891.187" y="-356.5" font-family="FreeSans.ttf" font-size="10.00">h/plugin.h</text>
</a>
</g>
<!-- Node1&#45;&gt;Node41 -->
<g id="edge88" class="edge"><title>Node1&#45;&gt;Node41</title>
<path fill="none" stroke="midnightblue" d="M689.724,-408.935C731.52,-398.576 804.109,-380.583 849.795,-369.26"/>
<polygon fill="midnightblue" stroke="midnightblue" points="850.81,-372.614 859.674,-366.811 849.126,-365.82 850.81,-372.614"/>
</g>
<!-- Node3 -->
<g id="node5" class="node"><title>Node3</title>
<a xlink:href="sysincludes_8h.xhtml" target="_top" xlink:title="All system standard includes that are used within NAMS.">
<polygon fill="white" stroke="black" points="342.187,-290.5 342.187,-311.5 422.187,-311.5 422.187,-290.5 342.187,-290.5"/>
<text text-anchor="middle" x="382.187" y="-298.5" font-family="FreeSans.ttf" font-size="10.00">sysincludes.h</text>
</a>
</g>
<!-- Node2&#45;&gt;Node3 -->
<g id="edge4" class="edge"><title>Node2&#45;&gt;Node3</title>
<path fill="none" stroke="midnightblue" d="M620.099,-351.178C571.618,-340.953 486.516,-323.004 432.323,-311.574"/>
<polygon fill="midnightblue" stroke="midnightblue" points="432.755,-308.088 422.248,-309.449 431.31,-314.938 432.755,-308.088"/>
</g>
<!-- Node12 -->
<g id="node23" class="node"><title>Node12</title>
<a xlink:href="limits_8h.xhtml" target="_top" xlink:title="Custom defined numeric types and system limits.">
<polygon fill="white" stroke="black" points="883.687,-290.5 883.687,-311.5 934.687,-311.5 934.687,-290.5 883.687,-290.5"/>
<text text-anchor="middle" x="909.187" y="-298.5" font-family="FreeSans.ttf" font-size="10.00">limits.h</text>
</a>
</g>
<!-- Node2&#45;&gt;Node12 -->
<g id="edge22" class="edge"><title>Node2&#45;&gt;Node12</title>
<path fill="none" stroke="midnightblue" d="M694.37,-350.442C742.585,-339.345 826.101,-320.123 873.547,-309.203"/>
<polygon fill="midnightblue" stroke="midnightblue" points="874.421,-312.593 883.381,-306.94 872.851,-305.772 874.421,-312.593"/>
</g>
<!-- Node14 -->
<g id="node27" class="node"><title>Node14</title>
<a xlink:href="macros_8h.xhtml" target="_top" xlink:title="All pre&#45;processor macros within NAMS and select reference values.">
<polygon fill="white" stroke="black" points="671.187,-290.5 671.187,-311.5 733.187,-311.5 733.187,-290.5 671.187,-290.5"/>
<text text-anchor="middle" x="702.187" y="-298.5" font-family="FreeSans.ttf" font-size="10.00">macros.h</text>
</a>
</g>
<!-- Node2&#45;&gt;Node14 -->
<g id="edge26" class="edge"><title>Node2&#45;&gt;Node14</title>
<path fill="none" stroke="midnightblue" d="M665.441,-348.362C671.657,-340.35 680.338,-329.161 687.702,-319.67"/>
<polygon fill="midnightblue" stroke="midnightblue" points="690.621,-321.617 693.986,-311.571 685.09,-317.326 690.621,-321.617"/>
</g>
<!-- Node15 -->
<g id="node29" class="node"><title>Node15</title>
<a xlink:href="enum_8h.xhtml" target="_top" xlink:title="All numerical and boolean defines for every class and namespace.">
<polygon fill="white" stroke="black" points="750.687,-290.5 750.687,-311.5 803.687,-311.5 803.687,-290.5 750.687,-290.5"/>
<text text-anchor="middle" x="777.187" y="-298.5" font-family="FreeSans.ttf" font-size="10.00">enum.h</text>
</a>
</g>
<!-- Node2&#45;&gt;Node15 -->
<g id="edge28" class="edge"><title>Node2&#45;&gt;Node15</title>
<path fill="none" stroke="midnightblue" d="M678.918,-348.497C697.661,-339.438 724.954,-326.246 746.023,-316.063"/>
<polygon fill="midnightblue" stroke="midnightblue" points="747.732,-319.124 755.212,-311.621 744.685,-312.822 747.732,-319.124"/>
</g>
<!-- Node16 -->
<g id="node31" class="node"><title>Node16</title>
<a xlink:href="config_8h.xhtml" target="_top" xlink:title="NAMS configuration options.">
<polygon fill="white" stroke="black" points="270.187,-290.5 270.187,-311.5 324.187,-311.5 324.187,-290.5 270.187,-290.5"/>
<text text-anchor="middle" x="297.187" y="-298.5" font-family="FreeSans.ttf" font-size="10.00">config.h</text>
</a>
</g>
<!-- Node2&#45;&gt;Node16 -->
<g id="edge30" class="edge"><title>Node2&#45;&gt;Node16</title>
<path fill="none" stroke="midnightblue" d="M619.923,-355.462C561.083,-349.471 442.98,-335.81 334.033,-311.926"/>
<polygon fill="midnightblue" stroke="midnightblue" points="334.717,-308.493 324.196,-309.736 333.196,-315.326 334.717,-308.493"/>
</g>
<!-- Node17 -->
<g id="node33" class="node"><title>Node17</title>
<a xlink:href="namespace_8h.xhtml" target="_top" xlink:title="All namespace includes.">
<polygon fill="white" stroke="black" points="571.187,-290.5 571.187,-311.5 653.187,-311.5 653.187,-290.5 571.187,-290.5"/>
<text text-anchor="middle" x="612.187" y="-298.5" font-family="FreeSans.ttf" font-size="10.00">namespace.h</text>
</a>
</g>
<!-- Node2&#45;&gt;Node17 -->
<g id="edge32" class="edge"><title>Node2&#45;&gt;Node17</title>
<path fill="none" stroke="midnightblue" d="M648.933,-348.362C642.717,-340.35 634.036,-329.161 626.672,-319.67"/>
<polygon fill="midnightblue" stroke="midnightblue" points="629.284,-317.326 620.388,-311.571 623.753,-321.617 629.284,-317.326"/>
</g>
<!-- Node4 -->
<g id="node7" class="node"><title>Node4</title>
<polygon fill="white" stroke="#bfbfbf" points="314.187,-232.5 314.187,-253.5 376.187,-253.5 376.187,-232.5 314.187,-232.5"/>
<text text-anchor="middle" x="345.187" y="-240.5" font-family="FreeSans.ttf" font-size="10.00">algorithm</text>
</g>
<!-- Node3&#45;&gt;Node4 -->
<g id="edge6" class="edge"><title>Node3&#45;&gt;Node4</title>
<path fill="none" stroke="midnightblue" d="M375.401,-290.362C370.394,-282.513 363.442,-271.616 357.469,-262.253"/>
<polygon fill="midnightblue" stroke="midnightblue" points="360.259,-260.119 351.93,-253.571 354.358,-263.884 360.259,-260.119"/>
</g>
<!-- Node5 -->
<g id="node9" class="node"><title>Node5</title>
<polygon fill="white" stroke="#bfbfbf" points="394.187,-232.5 394.187,-253.5 444.187,-253.5 444.187,-232.5 394.187,-232.5"/>
<text text-anchor="middle" x="419.187" y="-240.5" font-family="FreeSans.ttf" font-size="10.00">chrono</text>
</g>
<!-- Node3&#45;&gt;Node5 -->
<g id="edge8" class="edge"><title>Node3&#45;&gt;Node5</title>
<path fill="none" stroke="midnightblue" d="M388.973,-290.362C393.98,-282.513 400.932,-271.616 406.905,-262.253"/>
<polygon fill="midnightblue" stroke="midnightblue" points="410.016,-263.884 412.444,-253.571 404.115,-260.119 410.016,-263.884"/>
</g>
<!-- Node6 -->
<g id="node11" class="node"><title>Node6</title>
<polygon fill="white" stroke="#bfbfbf" points="462.187,-232.5 462.187,-253.5 492.187,-253.5 492.187,-232.5 462.187,-232.5"/>
<text text-anchor="middle" x="477.187" y="-240.5" font-family="FreeSans.ttf" font-size="10.00">list</text>
</g>
<!-- Node3&#45;&gt;Node6 -->
<g id="edge10" class="edge"><title>Node3&#45;&gt;Node6</title>
<path fill="none" stroke="midnightblue" d="M399.611,-290.362C414.707,-281.146 436.687,-267.726 453.399,-257.523"/>
<polygon fill="midnightblue" stroke="midnightblue" points="455.354,-260.431 462.065,-252.232 451.706,-254.456 455.354,-260.431"/>
</g>
<!-- Node7 -->
<g id="node13" class="node"><title>Node7</title>
<polygon fill="white" stroke="#bfbfbf" points="510.187,-232.5 510.187,-253.5 548.187,-253.5 548.187,-232.5 510.187,-232.5"/>
<text text-anchor="middle" x="529.187" y="-240.5" font-family="FreeSans.ttf" font-size="10.00">map</text>
</g>
<!-- Node3&#45;&gt;Node7 -->
<g id="edge12" class="edge"><title>Node3&#45;&gt;Node7</title>
<path fill="none" stroke="midnightblue" d="M408.808,-290.497C434.632,-280.307 473.708,-264.89 500.281,-254.405"/>
<polygon fill="midnightblue" stroke="midnightblue" points="501.782,-257.576 509.799,-250.65 499.213,-251.064 501.782,-257.576"/>
</g>
<!-- Node8 -->
<g id="node15" class="node"><title>Node8</title>
<polygon fill="white" stroke="#bfbfbf" points="13.687,-232.5 13.687,-253.5 60.687,-253.5 60.687,-232.5 13.687,-232.5"/>
<text text-anchor="middle" x="37.187" y="-240.5" font-family="FreeSans.ttf" font-size="10.00">vector</text>
</g>
<!-- Node3&#45;&gt;Node8 -->
<g id="edge14" class="edge"><title>Node3&#45;&gt;Node8</title>
<path fill="none" stroke="midnightblue" d="M342.132,-291.716C339.111,-291.105 336.104,-290.525 333.187,-290 219.829,-269.586 186.224,-280.727 70.7382,-254.036"/>
<polygon fill="midnightblue" stroke="midnightblue" points="71.3369,-250.581 60.8006,-251.694 69.7309,-257.395 71.3369,-250.581"/>
</g>
<!-- Node9 -->
<g id="node17" class="node"><title>Node9</title>
<polygon fill="white" stroke="#bfbfbf" points="78.187,-232.5 78.187,-253.5 146.187,-253.5 146.187,-232.5 78.187,-232.5"/>
<text text-anchor="middle" x="112.187" y="-240.5" font-family="FreeSans.ttf" font-size="10.00">arpa/inet.h</text>
</g>
<!-- Node3&#45;&gt;Node9 -->
<g id="edge16" class="edge"><title>Node3&#45;&gt;Node9</title>
<path fill="none" stroke="midnightblue" d="M342.091,-291.926C339.079,-291.267 336.086,-290.619 333.187,-290 257.334,-273.817 235.547,-272.121 156.365,-254.193"/>
<polygon fill="midnightblue" stroke="midnightblue" points="156.944,-250.735 146.416,-251.924 155.388,-257.56 156.944,-250.735"/>
</g>
<!-- Node10 -->
<g id="node19" class="node"><title>Node10</title>
<polygon fill="white" stroke="#bfbfbf" points="163.687,-232.5 163.687,-253.5 214.687,-253.5 214.687,-232.5 163.687,-232.5"/>
<text text-anchor="middle" x="189.187" y="-240.5" font-family="FreeSans.ttf" font-size="10.00">errno.h</text>
</g>
<!-- Node3&#45;&gt;Node10 -->
<g id="edge18" class="edge"><title>Node3&#45;&gt;Node10</title>
<path fill="none" stroke="midnightblue" d="M345.479,-290.437C315.281,-281.683 271.133,-268.74 224.463,-254.352"/>
<polygon fill="midnightblue" stroke="midnightblue" points="225.372,-250.97 214.785,-251.359 223.304,-257.657 225.372,-250.97"/>
</g>
<!-- Node11 -->
<g id="node21" class="node"><title>Node11</title>
<polygon fill="white" stroke="#bfbfbf" points="231.687,-232.5 231.687,-253.5 296.687,-253.5 296.687,-232.5 231.687,-232.5"/>
<text text-anchor="middle" x="264.187" y="-240.5" font-family="FreeSans.ttf" font-size="10.00">memory.h</text>
</g>
<!-- Node3&#45;&gt;Node11 -->
<g id="edge20" class="edge"><title>Node3&#45;&gt;Node11</title>
<path fill="none" stroke="midnightblue" d="M360.818,-290.497C342.388,-281.438 315.55,-268.246 294.832,-258.063"/>
<polygon fill="midnightblue" stroke="midnightblue" points="296.314,-254.891 285.796,-253.621 293.226,-261.174 296.314,-254.891"/>
</g>
<!-- Node13 -->
<g id="node25" class="node"><title>Node13</title>
<polygon fill="white" stroke="#bfbfbf" points="922.187,-232.5 922.187,-253.5 964.187,-253.5 964.187,-232.5 922.187,-232.5"/>
<text text-anchor="middle" x="943.187" y="-240.5" font-family="FreeSans.ttf" font-size="10.00">limits</text>
</g>
<!-- Node12&#45;&gt;Node13 -->
<g id="edge24" class="edge"><title>Node12&#45;&gt;Node13</title>
<path fill="none" stroke="midnightblue" d="M915.423,-290.362C920.024,-282.513 926.412,-271.616 931.901,-262.253"/>
<polygon fill="midnightblue" stroke="midnightblue" points="934.953,-263.968 936.99,-253.571 928.914,-260.428 934.953,-263.968"/>
</g>
<!-- Node18 -->
<g id="node35" class="node"><title>Node18</title>
<a xlink:href="handler_8h.xhtml" target="_top" xlink:title="The Handler namespace.">
<polygon fill="white" stroke="black" points="565.687,-232.5 565.687,-253.5 626.687,-253.5 626.687,-232.5 565.687,-232.5"/>
<text text-anchor="middle" x="596.187" y="-240.5" font-family="FreeSans.ttf" font-size="10.00">handler.h</text>
</a>
</g>
<!-- Node17&#45;&gt;Node18 -->
<g id="edge34" class="edge"><title>Node17&#45;&gt;Node18</title>
<path fill="none" stroke="midnightblue" d="M609.252,-290.362C607.177,-282.84 604.33,-272.519 601.823,-263.431"/>
<polygon fill="midnightblue" stroke="midnightblue" points="605.136,-262.28 599.103,-253.571 598.388,-264.141 605.136,-262.28"/>
</g>
<!-- Node20 -->
<g id="node39" class="node"><title>Node20</title>
<a xlink:href="telopt_8h.xhtml" target="_top" xlink:title="The telopt namespace.">
<polygon fill="white" stroke="black" points="851.687,-232.5 851.687,-253.5 904.687,-253.5 904.687,-232.5 851.687,-232.5"/>
<text text-anchor="middle" x="878.187" y="-240.5" font-family="FreeSans.ttf" font-size="10.00">telopt.h</text>
</a>
</g>
<!-- Node17&#45;&gt;Node20 -->
<g id="edge38" class="edge"><title>Node17&#45;&gt;Node20</title>
<path fill="none" stroke="midnightblue" d="M653.386,-291.928C656.364,-291.275 659.322,-290.627 662.187,-290 725.222,-276.208 798.631,-260.259 841.596,-250.935"/>
<polygon fill="midnightblue" stroke="midnightblue" points="842.55,-254.31 851.58,-248.769 841.065,-247.469 842.55,-254.31"/>
</g>
<!-- Node31 -->
<g id="node64" class="node"><title>Node31</title>
<a xlink:href="utils_8h.xhtml" target="_top" xlink:title="The Utils namespace.">
<polygon fill="white" stroke="black" points="643.687,-232.5 643.687,-253.5 688.687,-253.5 688.687,-232.5 643.687,-232.5"/>
<text text-anchor="middle" x="666.187" y="-240.5" font-family="FreeSans.ttf" font-size="10.00">utils.h</text>
</a>
</g>
<!-- Node17&#45;&gt;Node31 -->
<g id="edge66" class="edge"><title>Node17&#45;&gt;Node31</title>
<path fill="none" stroke="midnightblue" d="M622.091,-290.362C629.703,-282.186 640.395,-270.702 649.344,-261.091"/>
<polygon fill="midnightblue" stroke="midnightblue" points="652.093,-263.275 656.345,-253.571 646.97,-258.505 652.093,-263.275"/>
</g>
<!-- Node18&#45;&gt;Node19 -->
<g id="edge36" class="edge"><title>Node18&#45;&gt;Node19</title>
<path fill="none" stroke="midnightblue" d="M565.65,-233.843C562.804,-233.154 559.952,-232.525 557.187,-232 474.224,-216.25 219.488,-195.195 125.501,-187.749"/>
<polygon fill="midnightblue" stroke="midnightblue" points="125.614,-184.248 115.369,-186.95 125.063,-191.226 125.614,-184.248"/>
</g>
<!-- Node21 -->
<g id="node41" class="node"><title>Node21</title>
<polygon fill="white" stroke="#bfbfbf" points="873.187,-174.5 873.187,-195.5 951.187,-195.5 951.187,-174.5 873.187,-174.5"/>
<text text-anchor="middle" x="912.187" y="-182.5" font-family="FreeSans.ttf" font-size="10.00">arpa/telnet.h</text>
</g>
<!-- Node20&#45;&gt;Node21 -->
<g id="edge40" class="edge"><title>Node20&#45;&gt;Node21</title>
<path fill="none" stroke="midnightblue" d="M884.423,-232.362C889.024,-224.513 895.412,-213.616 900.901,-204.253"/>
<polygon fill="midnightblue" stroke="midnightblue" points="903.953,-205.968 905.99,-195.571 897.914,-202.428 903.953,-205.968"/>
</g>
<!-- Node22 -->
<g id="node43" class="node"><title>Node22</title>
<a xlink:href="socketclient_8h.xhtml" target="_top" xlink:title="The SocketClient class.">
<polygon fill="white" stroke="black" points="968.687,-174.5 968.687,-195.5 1051.69,-195.5 1051.69,-174.5 968.687,-174.5"/>
<text text-anchor="middle" x="1010.19" y="-182.5" font-family="FreeSans.ttf" font-size="10.00">socketclient.h</text>
</a>
</g>
<!-- Node20&#45;&gt;Node22 -->
<g id="edge42" class="edge"><title>Node20&#45;&gt;Node22</title>
<path fill="none" stroke="midnightblue" d="M902.091,-232.497C922.987,-223.315 953.543,-209.889 976.842,-199.652"/>
<polygon fill="midnightblue" stroke="midnightblue" points="978.267,-202.848 986.015,-195.621 975.451,-196.44 978.267,-202.848"/>
</g>
<!-- Node23 -->
<g id="node45" class="node"><title>Node23</title>
<polygon fill="white" stroke="#bfbfbf" points="843.687,-116.5 843.687,-137.5 890.687,-137.5 890.687,-116.5 843.687,-116.5"/>
<text text-anchor="middle" x="867.187" y="-124.5" font-family="FreeSans.ttf" font-size="10.00">deque</text>
</g>
<!-- Node22&#45;&gt;Node23 -->
<g id="edge44" class="edge"><title>Node22&#45;&gt;Node23</title>
<path fill="none" stroke="midnightblue" d="M984.291,-174.497C960.739,-164.944 925.858,-150.797 900.29,-140.426"/>
<polygon fill="midnightblue" stroke="midnightblue" points="901.572,-137.17 890.99,-136.654 898.941,-143.656 901.572,-137.17"/>
</g>
<!-- Node24 -->
<g id="node47" class="node"><title>Node24</title>
<polygon fill="white" stroke="#bfbfbf" points="907.687,-116.5 907.687,-137.5 960.687,-137.5 960.687,-116.5 907.687,-116.5"/>
<text text-anchor="middle" x="934.187" y="-124.5" font-family="FreeSans.ttf" font-size="10.00">netdb.h</text>
</g>
<!-- Node22&#45;&gt;Node24 -->
<g id="edge46" class="edge"><title>Node22&#45;&gt;Node24</title>
<path fill="none" stroke="midnightblue" d="M996.247,-174.362C984.999,-165.777 968.971,-153.546 956.022,-143.664"/>
<polygon fill="midnightblue" stroke="midnightblue" points="958.111,-140.855 948.038,-137.571 953.864,-146.42 958.111,-140.855"/>
</g>
<!-- Node25 -->
<g id="node49" class="node"><title>Node25</title>
<a xlink:href="account_8h.xhtml" target="_top" xlink:title="The Account class.">
<polygon fill="white" stroke="black" points="978.187,-116.5 978.187,-137.5 1042.19,-137.5 1042.19,-116.5 978.187,-116.5"/>
<text text-anchor="middle" x="1010.19" y="-124.5" font-family="FreeSans.ttf" font-size="10.00">account.h</text>
</a>
</g>
<!-- Node22&#45;&gt;Node25 -->
<g id="edge48" class="edge"><title>Node22&#45;&gt;Node25</title>
<path fill="none" stroke="midnightblue" d="M1004.82,-174.362C1003.51,-166.922 1003.13,-156.743 1003.69,-147.728"/>
<polygon fill="midnightblue" stroke="midnightblue" points="1007.19,-147.9 1004.83,-137.571 1000.23,-147.114 1007.19,-147.9"/>
</g>
<!-- Node26 -->
<g id="node52" class="node"><title>Node26</title>
<a xlink:href="socket_8h.xhtml" target="_top" xlink:title="The Socket class.">
<polygon fill="white" stroke="black" points="1120.69,-0.5 1120.69,-21.5 1177.69,-21.5 1177.69,-0.5 1120.69,-0.5"/>
<text text-anchor="middle" x="1149.19" y="-8.5" font-family="FreeSans.ttf" font-size="10.00">socket.h</text>
</a>
</g>
<!-- Node22&#45;&gt;Node26 -->
<g id="edge52" class="edge"><title>Node22&#45;&gt;Node26</title>
<path fill="none" stroke="midnightblue" d="M1020.87,-174.485C1029.74,-165.384 1042.28,-151.583 1051.19,-138 1072.77,-105.083 1064.59,-88.7339 1089.19,-58 1098.67,-46.1447 1111.71,-35.4742 1123.21,-27.3083"/>
<polygon fill="midnightblue" stroke="midnightblue" points="1125.33,-30.0997 1131.62,-21.5739 1121.39,-24.3164 1125.33,-30.0997"/>
</g>
<!-- Node27 -->
<g id="node54" class="node"><title>Node27</title>
<a xlink:href="server_8h.xhtml" target="_top" xlink:title="The Server class.">
<polygon fill="white" stroke="black" points="1105.69,-116.5 1105.69,-137.5 1160.69,-137.5 1160.69,-116.5 1105.69,-116.5"/>
<text text-anchor="middle" x="1133.19" y="-124.5" font-family="FreeSans.ttf" font-size="10.00">server.h</text>
</a>
</g>
<!-- Node22&#45;&gt;Node27 -->
<g id="edge54" class="edge"><title>Node22&#45;&gt;Node27</title>
<path fill="none" stroke="midnightblue" d="M1027.12,-174.497C1044.87,-165.356 1072.96,-152.008 1095.86,-141.788"/>
<polygon fill="midnightblue" stroke="midnightblue" points="1097.56,-144.859 1105.3,-137.621 1094.74,-138.455 1097.56,-144.859"/>
</g>
<!-- Node25&#45;&gt;Node22 -->
<g id="edge50" class="edge"><title>Node25&#45;&gt;Node22</title>
<path fill="none" stroke="midnightblue" d="M1015.54,-137.571C1016.86,-144.994 1017.25,-155.168 1016.69,-164.191"/>
<polygon fill="midnightblue" stroke="midnightblue" points="1013.19,-164.034 1015.55,-174.362 1020.14,-164.814 1013.19,-164.034"/>
</g>
<!-- Node27&#45;&gt;Node22 -->
<g id="edge60" class="edge"><title>Node27&#45;&gt;Node22</title>
<path fill="none" stroke="midnightblue" d="M1116.02,-137.621C1098.19,-146.798 1070.07,-160.15 1047.22,-170.343"/>
<polygon fill="midnightblue" stroke="midnightblue" points="1045.54,-167.261 1037.8,-174.497 1048.36,-173.666 1045.54,-167.261"/>
</g>
<!-- Node28 -->
<g id="node56" class="node"><title>Node28</title>
<polygon fill="white" stroke="#bfbfbf" points="1290.19,-58.5 1290.19,-79.5 1336.19,-79.5 1336.19,-58.5 1290.19,-58.5"/>
<text text-anchor="middle" x="1313.19" y="-66.5" font-family="FreeSans.ttf" font-size="10.00">fcntl.h</text>
</g>
<!-- Node27&#45;&gt;Node28 -->
<g id="edge56" class="edge"><title>Node27&#45;&gt;Node28</title>
<path fill="none" stroke="midnightblue" d="M1160.8,-118.445C1188.71,-109.75 1233.32,-95.729 1280.64,-80.1348"/>
<polygon fill="midnightblue" stroke="midnightblue" points="1281.74,-83.4574 1290.14,-76.9961 1279.54,-76.811 1281.74,-83.4574"/>
</g>
<!-- Node29 -->
<g id="node58" class="node"><title>Node29</title>
<polygon fill="white" stroke="#bfbfbf" points="1097.69,-58.5 1097.69,-79.5 1168.69,-79.5 1168.69,-58.5 1097.69,-58.5"/>
<text text-anchor="middle" x="1133.19" y="-66.5" font-family="FreeSans.ttf" font-size="10.00">forward_list</text>
</g>
<!-- Node27&#45;&gt;Node29 -->
<g id="edge58" class="edge"><title>Node27&#45;&gt;Node29</title>
<path fill="none" stroke="midnightblue" d="M1133.19,-116.362C1133.19,-108.922 1133.19,-98.7427 1133.19,-89.7276"/>
<polygon fill="midnightblue" stroke="midnightblue" points="1136.69,-89.5706 1133.19,-79.5707 1129.69,-89.5707 1136.69,-89.5706"/>
</g>
<!-- Node30 -->
<g id="node61" class="node"><title>Node30</title>
<a xlink:href="socketserver_8h.xhtml" target="_top" xlink:title="The SocketServer class.">
<polygon fill="white" stroke="black" points="1186.19,-58.5 1186.19,-79.5 1272.19,-79.5 1272.19,-58.5 1186.19,-58.5"/>
<text text-anchor="middle" x="1229.19" y="-66.5" font-family="FreeSans.ttf" font-size="10.00">socketserver.h</text>
</a>
</g>
<!-- Node27&#45;&gt;Node30 -->
<g id="edge62" class="edge"><title>Node27&#45;&gt;Node30</title>
<path fill="none" stroke="midnightblue" d="M1150.79,-116.362C1165.41,-107.532 1186.41,-94.844 1203,-84.8224"/>
<polygon fill="midnightblue" stroke="midnightblue" points="1204.94,-87.7376 1211.69,-79.5707 1201.32,-81.7461 1204.94,-87.7376"/>
</g>
<!-- Node30&#45;&gt;Node26 -->
<g id="edge64" class="edge"><title>Node30&#45;&gt;Node26</title>
<path fill="none" stroke="midnightblue" d="M1214.51,-58.3619C1202.67,-49.7773 1185.8,-37.5459 1172.17,-27.6636"/>
<polygon fill="midnightblue" stroke="midnightblue" points="1173.92,-24.6067 1163.77,-21.5707 1169.81,-30.274 1173.92,-24.6067"/>
</g>
<!-- Node32 -->
<g id="node66" class="node"><title>Node32</title>
<polygon fill="white" stroke="#bfbfbf" points="679.187,-174.5 679.187,-195.5 723.187,-195.5 723.187,-174.5 679.187,-174.5"/>
<text text-anchor="middle" x="701.187" y="-182.5" font-family="FreeSans.ttf" font-size="10.00">bitset</text>
</g>
<!-- Node31&#45;&gt;Node32 -->
<g id="edge68" class="edge"><title>Node31&#45;&gt;Node32</title>
<path fill="none" stroke="midnightblue" d="M672.607,-232.362C677.343,-224.513 683.919,-213.616 689.569,-204.253"/>
<polygon fill="midnightblue" stroke="midnightblue" points="692.638,-205.941 694.808,-195.571 686.645,-202.324 692.638,-205.941"/>
</g>
<!-- Node33 -->
<g id="node68" class="node"><title>Node33</title>
<polygon fill="white" stroke="#bfbfbf" points="740.687,-174.5 740.687,-195.5 793.687,-195.5 793.687,-174.5 740.687,-174.5"/>
<text text-anchor="middle" x="767.187" y="-182.5" font-family="FreeSans.ttf" font-size="10.00">cstdarg</text>
</g>
<!-- Node31&#45;&gt;Node33 -->
<g id="edge70" class="edge"><title>Node31&#45;&gt;Node33</title>
<path fill="none" stroke="midnightblue" d="M684.712,-232.362C700.088,-223.532 722.183,-210.844 739.634,-200.822"/>
<polygon fill="midnightblue" stroke="midnightblue" points="741.851,-203.586 748.78,-195.571 738.365,-197.515 741.851,-203.586"/>
</g>
<!-- Node34 -->
<g id="node70" class="node"><title>Node34</title>
<polygon fill="white" stroke="#bfbfbf" points="810.687,-174.5 810.687,-195.5 855.687,-195.5 855.687,-174.5 810.687,-174.5"/>
<text text-anchor="middle" x="833.187" y="-182.5" font-family="FreeSans.ttf" font-size="10.00">cstdio</text>
</g>
<!-- Node31&#45;&gt;Node34 -->
<g id="edge72" class="edge"><title>Node31&#45;&gt;Node34</title>
<path fill="none" stroke="midnightblue" d="M688.827,-235.24C714.041,-226.583 756.251,-212.051 800.939,-196.422"/>
<polygon fill="midnightblue" stroke="midnightblue" points="802.226,-199.68 810.508,-193.072 799.913,-193.073 802.226,-199.68"/>
</g>
<!-- Node35 -->
<g id="node72" class="node"><title>Node35</title>
<polygon fill="white" stroke="#bfbfbf" points="237.187,-174.5 237.187,-195.5 291.187,-195.5 291.187,-174.5 237.187,-174.5"/>
<text text-anchor="middle" x="264.187" y="-182.5" font-family="FreeSans.ttf" font-size="10.00">fstream</text>
</g>
<!-- Node31&#45;&gt;Node35 -->
<g id="edge74" class="edge"><title>Node31&#45;&gt;Node35</title>
<path fill="none" stroke="midnightblue" d="M643.681,-234.327C640.85,-233.44 637.971,-232.634 635.187,-232 492.319,-199.449 448.759,-224.87 301.423,-195.937"/>
<polygon fill="midnightblue" stroke="midnightblue" points="302.06,-192.495 291.566,-193.951 300.678,-199.357 302.06,-192.495"/>
</g>
<!-- Node36 -->
<g id="node74" class="node"><title>Node36</title>
<polygon fill="white" stroke="#bfbfbf" points="308.687,-174.5 308.687,-195.5 367.687,-195.5 367.687,-174.5 308.687,-174.5"/>
<text text-anchor="middle" x="338.187" y="-182.5" font-family="FreeSans.ttf" font-size="10.00">iostream</text>
</g>
<!-- Node31&#45;&gt;Node36 -->
<g id="edge76" class="edge"><title>Node31&#45;&gt;Node36</title>
<path fill="none" stroke="midnightblue" d="M643.661,-234.411C640.834,-233.51 637.961,-232.677 635.187,-232 525.375,-205.18 491.687,-219.389 377.757,-196.109"/>
<polygon fill="midnightblue" stroke="midnightblue" points="378.46,-192.681 367.955,-194.055 377.025,-199.532 378.46,-192.681"/>
</g>
<!-- Node37 -->
<g id="node76" class="node"><title>Node37</title>
<polygon fill="white" stroke="#bfbfbf" points="385.187,-174.5 385.187,-195.5 437.187,-195.5 437.187,-174.5 385.187,-174.5"/>
<text text-anchor="middle" x="411.187" y="-182.5" font-family="FreeSans.ttf" font-size="10.00">iterator</text>
</g>
<!-- Node31&#45;&gt;Node37 -->
<g id="edge78" class="edge"><title>Node31&#45;&gt;Node37</title>
<path fill="none" stroke="midnightblue" d="M643.626,-234.546C640.805,-233.621 637.943,-232.747 635.187,-232 555.716,-210.467 530.943,-216.359 447.395,-196.084"/>
<polygon fill="midnightblue" stroke="midnightblue" points="448.015,-192.631 437.467,-193.62 446.329,-199.425 448.015,-192.631"/>
</g>
<!-- Node38 -->
<g id="node78" class="node"><title>Node38</title>
<polygon fill="white" stroke="#bfbfbf" points="455.187,-174.5 455.187,-195.5 511.187,-195.5 511.187,-174.5 455.187,-174.5"/>
<text text-anchor="middle" x="483.187" y="-182.5" font-family="FreeSans.ttf" font-size="10.00">sstream</text>
</g>
<!-- Node31&#45;&gt;Node38 -->
<g id="edge80" class="edge"><title>Node31&#45;&gt;Node38</title>
<path fill="none" stroke="midnightblue" d="M643.537,-234.842C640.731,-233.867 637.897,-232.899 635.187,-232 613.95,-224.952 558.709,-207.999 521.014,-196.502"/>
<polygon fill="midnightblue" stroke="midnightblue" points="521.951,-193.129 511.365,-193.561 519.911,-199.825 521.951,-193.129"/>
</g>
<!-- Node39 -->
<g id="node80" class="node"><title>Node39</title>
<polygon fill="white" stroke="#bfbfbf" points="528.687,-174.5 528.687,-195.5 581.687,-195.5 581.687,-174.5 528.687,-174.5"/>
<text text-anchor="middle" x="555.187" y="-182.5" font-family="FreeSans.ttf" font-size="10.00">dirent.h</text>
</g>
<!-- Node31&#45;&gt;Node39 -->
<g id="edge82" class="edge"><title>Node31&#45;&gt;Node39</title>
<path fill="none" stroke="midnightblue" d="M646.086,-232.497C628.905,-223.519 603.957,-210.484 584.542,-200.339"/>
<polygon fill="midnightblue" stroke="midnightblue" points="585.998,-197.15 575.514,-195.621 582.756,-203.354 585.998,-197.15"/>
</g>
<!-- Node40 -->
<g id="node82" class="node"><title>Node40</title>
<polygon fill="white" stroke="#bfbfbf" points="598.687,-174.5 598.687,-195.5 661.687,-195.5 661.687,-174.5 598.687,-174.5"/>
<text text-anchor="middle" x="630.187" y="-182.5" font-family="FreeSans.ttf" font-size="10.00">sys/stat.h</text>
</g>
<!-- Node31&#45;&gt;Node40 -->
<g id="edge84" class="edge"><title>Node31&#45;&gt;Node40</title>
<path fill="none" stroke="midnightblue" d="M659.584,-232.362C654.712,-224.513 647.949,-213.616 642.137,-204.253"/>
<polygon fill="midnightblue" stroke="midnightblue" points="644.996,-202.221 636.748,-195.571 639.048,-205.913 644.996,-202.221"/>
</g>
<!-- Node41&#45;&gt;Node22 -->
<g id="edge90" class="edge"><title>Node41&#45;&gt;Node22</title>
<path fill="none" stroke="midnightblue" d="M905.7,-348.195C916.905,-339.343 932.285,-326.028 943.187,-312 969.808,-277.746 991.197,-231.376 1002.17,-205.191"/>
<polygon fill="midnightblue" stroke="midnightblue" points="1005.54,-206.182 1006.09,-195.601 999.064,-203.529 1005.54,-206.182"/>
</g>
</g>
</svg>
        <g id="navigator" transform="translate(0 0)" fill="#404254">
                <rect fill="#f2f5e9" fill-opacity="0.5" stroke="#606060" stroke-width=".5" x="0" y="0" width="60" height="60"/>
                <use id="zoomplus" xlink:href="#zoomPlus" x="17" y="9" onmousedown="handleZoom(evt,'in')"/>
                <use id="zoomminus" xlink:href="#zoomMin" x="42" y="9" onmousedown="handleZoom(evt,'out')"/>
                <use id="reset" xlink:href="#resetDef" x="30" y="36" onmousedown="handleReset()"/>
                <g id="arrowUp" xlink:href="#dirArrow" transform="translate(30 24)" onmousedown="handlePan(0,-1)">
                  <use xlink:href="#rim" fill="#404040">
                        <set attributeName="fill" to="#808080" begin="arrowUp.mouseover" end="arrowUp.mouseout"/>
                  </use>
                  <path fill="none" stroke="white" stroke-width="1.5" d="M0,-3.0v7 M-2.5,-0.5L0,-3.0L2.5,-0.5"/>
                </g>
                <g id="arrowRight" xlink:href="#dirArrow" transform="rotate(90) translate(36 -43)" onmousedown="handlePan(1,0)">
                  <use xlink:href="#rim" fill="#404040">
                        <set attributeName="fill" to="#808080" begin="arrowRight.mouseover" end="arrowRight.mouseout"/>
                  </use>
                  <path fill="none" stroke="white" stroke-width="1.5" d="M0,-3.0v7 M-2.5,-0.5L0,-3.0L2.5,-0.5"/>
                </g>
                <g id="arrowDown" xlink:href="#dirArrow" transform="rotate(180) translate(-30 -48)" onmousedown="handlePan(0,1)">
                  <use xlink:href="#rim" fill="#404040">
                        <set attributeName="fill" to="#808080" begin="arrowDown.mouseover" end="arrowDown.mouseout"/>
                  </use>
                  <path fill="none" stroke="white" stroke-width="1.5" d="M0,-3.0v7 M-2.5,-0.5L0,-3.0L2.5,-0.5"/>
                </g>
                <g id="arrowLeft" xlink:href="#dirArrow" transform="rotate(270) translate(-36 17)" onmousedown="handlePan(-1,0)">
                  <use xlink:href="#rim" fill="#404040">
                        <set attributeName="fill" to="#808080" begin="arrowLeft.mouseover" end="arrowLeft.mouseout"/>
                  </use>
                  <path fill="none" stroke="white" stroke-width="1.5" d="M0,-3.0v7 M-2.5,-0.5L0,-3.0L2.5,-0.5"/>
                </g>
        </g>
</svg>
