<?xml version="1.0" encoding="UTF-8" standalone="no"?>
<!DOCTYPE svg PUBLIC "-//W3C//DTD SVG 1.1//EN"
 "http://www.w3.org/Graphics/SVG/1.1/DTD/svg11.dtd">
<!-- Generated by graphviz version 2.26.3 (20100126.1600)
 -->
<!-- Title: G Pages: 1 -->
<!--zoomable 204 -->
<svg id="main" version="1.1" xmlns="http://www.w3.org/2000/svg" xmlns:xlink="http://www.w3.org/1999/xlink" xml:space="preserve" onload="init(evt)">
        <defs>
                <circle id="rim" cx="0" cy="0" r="7"/>
                <circle id="rim2" cx="0" cy="0" r="3.5"/>
                <g id="zoomPlus">
                        <use xlink:href="#rim" fill="#404040">
                                <set attributeName="fill" to="#808080" begin="zoomplus.mouseover" end="zoomplus.mouseout"/>
                        </use>
                        <path d="M-4,0h8M0,-4v8" fill="none" stroke="white" stroke-width="1.5" pointer-events="none"/>
                </g>
                <g id="zoomMin">
                        <use xlink:href="#rim" fill="#404040">
                                <set attributeName="fill" to="#808080" begin="zoomminus.mouseover" end="zoomminus.mouseout"/>
                        </use>
                        <path d="M-4,0h8" fill="none" stroke="white" stroke-width="1.5" pointer-events="none"/>
                </g>
                <g id="dirArrow">
                        <path fill="none" stroke="white" stroke-width="1.5" d="M0,-3.0v7 M-2.5,-0.5L0,-3.0L2.5,-0.5"/>
                </g>
               <g id="resetDef">
                       <use xlink:href="#rim2" fill="#404040">
                               <set attributeName="fill" to="#808080" begin="reset.mouseover" end="reset.mouseout"/>
                       </use>
               </g>
        </defs>

<script type="text/javascript">
var viewWidth = 1508;
var viewHeight = 204;
var sectionId = 'dynsection-0';
</script>
<script xlink:href="svgpan.js"/>
<svg id="graph" class="graph">
<g id="viewport">
<title>G</title>
<polygon fill="white" stroke="white" points="-4,5 -4,-200 1505,-200 1505,5 -4,5"/>
<!-- Node1 -->
<g id="node1" class="node"><title>Node1</title>
<polygon fill="#bfbfbf" stroke="black" points="1194,-174.5 1194,-195.5 1258,-195.5 1258,-174.5 1194,-174.5"/>
<text text-anchor="middle" x="1226" y="-182.5" font-family="FreeSans.ttf" font-size="10.00">h/server.h</text>
</g>
<!-- Node2 -->
<g id="node3" class="node"><title>Node2</title>
<a xlink:href="namespace_8h.xhtml" target="_top" xlink:title="All namespace includes.">
<polygon fill="white" stroke="black" points="1062.5,-116.5 1062.5,-137.5 1153.5,-137.5 1153.5,-116.5 1062.5,-116.5"/>
<text text-anchor="middle" x="1108" y="-124.5" font-family="FreeSans.ttf" font-size="10.00">h/namespace.h</text>
</a>
</g>
<!-- Node1&#45;&gt;Node2 -->
<g id="edge2" class="edge"><title>Node1&#45;&gt;Node2</title>
<path fill="none" stroke="midnightblue" d="M1195.62,-170.069C1174.96,-159.912 1148.11,-146.716 1129.61,-137.621"/>
<polygon fill="midnightblue" stroke="midnightblue" points="1194.11,-173.226 1204.63,-174.497 1197.2,-166.944 1194.11,-173.226"/>
</g>
<!-- Node13 -->
<g id="node25" class="node"><title>Node13</title>
<a xlink:href="server_8cpp.xhtml" target="_top" xlink:title="All non&#45;template member functions of the Server namespace.">
<polygon fill="white" stroke="black" points="1434,-0.5 1434,-21.5 1500,-21.5 1500,-0.5 1434,-0.5"/>
<text text-anchor="middle" x="1467" y="-8.5" font-family="FreeSans.ttf" font-size="10.00">server.cpp</text>
</a>
</g>
<!-- Node1&#45;&gt;Node13 -->
<g id="edge40" class="edge"><title>Node1&#45;&gt;Node13</title>
<path fill="none" stroke="midnightblue" d="M1249.09,-168.329C1298.14,-132.919 1411.53,-51.0462 1452.17,-21.7046"/>
<polygon fill="midnightblue" stroke="midnightblue" points="1246.77,-165.686 1240.71,-174.377 1250.87,-171.361 1246.77,-165.686"/>
</g>
<!-- Node3 -->
<g id="node5" class="node"><title>Node3</title>
<a xlink:href="includes_8h.xhtml" target="_top" xlink:title="All non&#45;system includes that need to be within each .cpp file.">
<polygon fill="white" stroke="black" points="743,-58.5 743,-79.5 817,-79.5 817,-58.5 743,-58.5"/>
<text text-anchor="middle" x="780" y="-66.5" font-family="FreeSans.ttf" font-size="10.00">h/includes.h</text>
</a>
</g>
<!-- Node2&#45;&gt;Node3 -->
<g id="edge4" class="edge"><title>Node2&#45;&gt;Node3</title>
<path fill="none" stroke="midnightblue" d="M1052.43,-117.173C985.392,-105.319 874.56,-85.721 817.107,-75.5617"/>
<polygon fill="midnightblue" stroke="midnightblue" points="1051.94,-120.641 1062.39,-118.935 1053.16,-113.747 1051.94,-120.641"/>
</g>
<!-- Node4 -->
<g id="node7" class="node"><title>Node4</title>
<a xlink:href="account_8cpp.xhtml" target="_top" xlink:title="All non&#45;template member functions of the Account class.">
<polygon fill="white" stroke="black" points="-0.5,-0.5 -0.5,-21.5 74.5,-21.5 74.5,-0.5 -0.5,-0.5"/>
<text text-anchor="middle" x="37" y="-8.5" font-family="FreeSans.ttf" font-size="10.00">account.cpp</text>
</a>
</g>
<!-- Node3&#45;&gt;Node4 -->
<g id="edge6" class="edge"><title>Node3&#45;&gt;Node4</title>
<path fill="none" stroke="midnightblue" d="M732.691,-68.5334C619.691,-66.8279 325.426,-58.8936 83,-22 80.2399,-21.58 77.4016,-21.0775 74.5545,-20.5218"/>
<polygon fill="midnightblue" stroke="midnightblue" points="732.688,-72.0336 742.737,-68.6756 732.787,-65.0343 732.688,-72.0336"/>
</g>
<!-- Node5 -->
<g id="node9" class="node"><title>Node5</title>
<a xlink:href="character_8cpp.xhtml" target="_top" xlink:title="All non&#45;template member functions of the Character class.">
<polygon fill="white" stroke="black" points="92,-0.5 92,-21.5 174,-21.5 174,-0.5 92,-0.5"/>
<text text-anchor="middle" x="133" y="-8.5" font-family="FreeSans.ttf" font-size="10.00">character.cpp</text>
</a>
</g>
<!-- Node3&#45;&gt;Node5 -->
<g id="edge8" class="edge"><title>Node3&#45;&gt;Node5</title>
<path fill="none" stroke="midnightblue" d="M732.556,-67.4887C631.177,-63.7722 386.113,-52.1903 183,-22 180.099,-21.5688 177.115,-21.0659 174.117,-20.5171"/>
<polygon fill="midnightblue" stroke="midnightblue" points="732.653,-70.9943 742.772,-67.8541 732.903,-63.9987 732.653,-70.9943"/>
</g>
<!-- Node6 -->
<g id="node11" class="node"><title>Node6</title>
<a xlink:href="command_8cpp.xhtml" target="_top" xlink:title="All non&#45;template member functions of the Command class.">
<polygon fill="white" stroke="black" points="192,-0.5 192,-21.5 278,-21.5 278,-0.5 192,-0.5"/>
<text text-anchor="middle" x="235" y="-8.5" font-family="FreeSans.ttf" font-size="10.00">command.cpp</text>
</a>
</g>
<!-- Node3&#45;&gt;Node6 -->
<g id="edge10" class="edge"><title>Node3&#45;&gt;Node6</title>
<path fill="none" stroke="midnightblue" d="M732.501,-66.2695C644.327,-60.8027 449.524,-46.8551 287,-22 284.081,-21.5536 281.079,-21.0469 278.061,-20.502"/>
<polygon fill="midnightblue" stroke="midnightblue" points="732.52,-69.7772 742.716,-66.8943 732.948,-62.7902 732.52,-69.7772"/>
</g>
<!-- Node7 -->
<g id="node13" class="node"><title>Node7</title>
<a xlink:href="event_8cpp.xhtml" target="_top" xlink:title="All non&#45;template member functions of the Event class.">
<polygon fill="white" stroke="black" points="296,-0.5 296,-21.5 360,-21.5 360,-0.5 296,-0.5"/>
<text text-anchor="middle" x="328" y="-8.5" font-family="FreeSans.ttf" font-size="10.00">event.cpp</text>
</a>
</g>
<!-- Node3&#45;&gt;Node7 -->
<g id="edge12" class="edge"><title>Node3&#45;&gt;Node7</title>
<path fill="none" stroke="midnightblue" d="M732.574,-65.8721C655.712,-60.29 499.389,-46.8047 369,-22 366.104,-21.4491 363.112,-20.8018 360.125,-20.1016"/>
<polygon fill="midnightblue" stroke="midnightblue" points="732.657,-69.3869 742.881,-66.6077 733.156,-62.4046 732.657,-69.3869"/>
</g>
<!-- Node8 -->
<g id="node15" class="node"><title>Node8</title>
<a xlink:href="handler_8cpp.xhtml" target="_top" xlink:title="All non&#45;template member functions of the Handler namespace.">
<polygon fill="white" stroke="black" points="378,-0.5 378,-21.5 450,-21.5 450,-0.5 378,-0.5"/>
<text text-anchor="middle" x="414" y="-8.5" font-family="FreeSans.ttf" font-size="10.00">handler.cpp</text>
</a>
</g>
<!-- Node3&#45;&gt;Node8 -->
<g id="edge14" class="edge"><title>Node3&#45;&gt;Node8</title>
<path fill="none" stroke="midnightblue" d="M732.736,-63.4969C669.924,-55.8605 555.617,-40.8384 459,-22 456.158,-21.4459 453.226,-20.8301 450.284,-20.181"/>
<polygon fill="midnightblue" stroke="midnightblue" points="732.389,-66.9803 742.736,-64.703 733.227,-60.0307 732.389,-66.9803"/>
</g>
<!-- Node9 -->
<g id="node17" class="node"><title>Node9</title>
<a xlink:href="list_8cpp.xhtml" target="_top" xlink:title="All globally referenced list / map / vector types.">
<polygon fill="white" stroke="black" points="468,-0.5 468,-21.5 518,-21.5 518,-0.5 468,-0.5"/>
<text text-anchor="middle" x="493" y="-8.5" font-family="FreeSans.ttf" font-size="10.00">list.cpp</text>
</a>
</g>
<!-- Node3&#45;&gt;Node9 -->
<g id="edge16" class="edge"><title>Node3&#45;&gt;Node9</title>
<path fill="none" stroke="midnightblue" d="M732.716,-62.0883C681.592,-54.1815 597.899,-39.9744 527,-22 524.113,-21.2682 521.114,-20.4241 518.145,-19.5355"/>
<polygon fill="midnightblue" stroke="midnightblue" points="732.389,-65.579 742.803,-63.632 733.448,-58.6596 732.389,-65.579"/>
</g>
<!-- Node10 -->
<g id="node19" class="node"><title>Node10</title>
<a xlink:href="location_8cpp.xhtml" target="_top" xlink:title="All non&#45;template member functions of the Location class.">
<polygon fill="white" stroke="black" points="536,-0.5 536,-21.5 610,-21.5 610,-0.5 536,-0.5"/>
<text text-anchor="middle" x="573" y="-8.5" font-family="FreeSans.ttf" font-size="10.00">location.cpp</text>
</a>
</g>
<!-- Node3&#45;&gt;Node10 -->
<g id="edge18" class="edge"><title>Node3&#45;&gt;Node10</title>
<path fill="none" stroke="midnightblue" d="M733.362,-55.9324C696.08,-45.4863 644.525,-31.0409 610.035,-21.3771"/>
<polygon fill="midnightblue" stroke="midnightblue" points="732.419,-59.3029 742.993,-58.6308 734.308,-52.5625 732.419,-59.3029"/>
</g>
<!-- Node11 -->
<g id="node21" class="node"><title>Node11</title>
<a xlink:href="main_8cpp.xhtml" target="_top" xlink:title="Initial server entry point.">
<polygon fill="white" stroke="black" points="627.5,-0.5 627.5,-21.5 688.5,-21.5 688.5,-0.5 627.5,-0.5"/>
<text text-anchor="middle" x="658" y="-8.5" font-family="FreeSans.ttf" font-size="10.00">main.cpp</text>
</a>
</g>
<!-- Node3&#45;&gt;Node11 -->
<g id="edge20" class="edge"><title>Node3&#45;&gt;Node11</title>
<path fill="none" stroke="midnightblue" d="M748.594,-54.0693C727.229,-43.9121 699.471,-30.7157 680.341,-21.6212"/>
<polygon fill="midnightblue" stroke="midnightblue" points="747.373,-57.364 757.907,-58.4966 750.378,-51.042 747.373,-57.364"/>
</g>
<!-- Node12 -->
<g id="node23" class="node"><title>Node12</title>
<a xlink:href="plugin_8cpp.xhtml" target="_top" xlink:title="All non&#45;template member functions of the Plugin class.">
<polygon fill="white" stroke="black" points="705.5,-0.5 705.5,-21.5 770.5,-21.5 770.5,-0.5 705.5,-0.5"/>
<text text-anchor="middle" x="738" y="-8.5" font-family="FreeSans.ttf" font-size="10.00">plugin.cpp</text>
</a>
</g>
<!-- Node3&#45;&gt;Node12 -->
<g id="edge22" class="edge"><title>Node3&#45;&gt;Node12</title>
<path fill="none" stroke="midnightblue" d="M766.423,-50.2504C759.543,-40.75 751.444,-29.5651 745.655,-21.5707"/>
<polygon fill="midnightblue" stroke="midnightblue" points="763.597,-52.3153 772.297,-58.3619 769.266,-48.2097 763.597,-52.3153"/>
</g>
<!-- Node3&#45;&gt;Node13 -->
<g id="edge24" class="edge"><title>Node3&#45;&gt;Node13</title>
<path fill="none" stroke="midnightblue" d="M827.551,-66.6698C956.324,-60.1782 1309.86,-41.1067 1425,-22 1427.83,-21.5311 1430.74,-20.959 1433.65,-20.3248"/>
<polygon fill="midnightblue" stroke="midnightblue" points="827.046,-63.1906 817.233,-67.1872 827.396,-70.1819 827.046,-63.1906"/>
</g>
<!-- Node14 -->
<g id="node27" class="node"><title>Node14</title>
<a xlink:href="socket_8cpp.xhtml" target="_top" xlink:title="All non&#45;template member functions of the Socket class.">
<polygon fill="white" stroke="black" points="788,-0.5 788,-21.5 856,-21.5 856,-0.5 788,-0.5"/>
<text text-anchor="middle" x="822" y="-8.5" font-family="FreeSans.ttf" font-size="10.00">socket.cpp</text>
</a>
</g>
<!-- Node3&#45;&gt;Node14 -->
<g id="edge26" class="edge"><title>Node3&#45;&gt;Node14</title>
<path fill="none" stroke="midnightblue" d="M793.577,-50.2504C800.457,-40.75 808.556,-29.5651 814.345,-21.5707"/>
<polygon fill="midnightblue" stroke="midnightblue" points="790.734,-48.2097 787.703,-58.3619 796.403,-52.3153 790.734,-48.2097"/>
</g>
<!-- Node15 -->
<g id="node29" class="node"><title>Node15</title>
<a xlink:href="socketclient_8cpp.xhtml" target="_top" xlink:title="All non&#45;template member functions of the SocketClient class.">
<polygon fill="white" stroke="black" points="874,-0.5 874,-21.5 968,-21.5 968,-0.5 874,-0.5"/>
<text text-anchor="middle" x="921" y="-8.5" font-family="FreeSans.ttf" font-size="10.00">socketclient.cpp</text>
</a>
</g>
<!-- Node3&#45;&gt;Node15 -->
<g id="edge28" class="edge"><title>Node3&#45;&gt;Node15</title>
<path fill="none" stroke="midnightblue" d="M814.97,-54.6153C839.83,-44.3889 872.672,-30.8796 895.179,-21.6212"/>
<polygon fill="midnightblue" stroke="midnightblue" points="813.451,-51.4555 805.534,-58.4966 816.114,-57.9292 813.451,-51.4555"/>
</g>
<!-- Node16 -->
<g id="node31" class="node"><title>Node16</title>
<a xlink:href="socketserver_8cpp.xhtml" target="_top" xlink:title="All non&#45;template member functions of the SocketServer class.">
<polygon fill="white" stroke="black" points="986,-0.5 986,-21.5 1084,-21.5 1084,-0.5 986,-0.5"/>
<text text-anchor="middle" x="1035" y="-8.5" font-family="FreeSans.ttf" font-size="10.00">socketserver.cpp</text>
</a>
</g>
<!-- Node3&#45;&gt;Node16 -->
<g id="edge30" class="edge"><title>Node3&#45;&gt;Node16</title>
<path fill="none" stroke="midnightblue" d="M827.113,-58.2841C873.219,-47.7973 943.01,-31.9233 988.799,-21.5084"/>
<polygon fill="midnightblue" stroke="midnightblue" points="826.054,-54.9355 817.079,-60.5663 827.606,-61.7612 826.054,-54.9355"/>
</g>
<!-- Node17 -->
<g id="node33" class="node"><title>Node17</title>
<a xlink:href="telopt_8cpp.xhtml" target="_top" xlink:title="All non&#45;template member functions of the Telopt namespace.">
<polygon fill="white" stroke="black" points="1101.5,-0.5 1101.5,-21.5 1166.5,-21.5 1166.5,-0.5 1101.5,-0.5"/>
<text text-anchor="middle" x="1134" y="-8.5" font-family="FreeSans.ttf" font-size="10.00">telopt.cpp</text>
</a>
</g>
<!-- Node3&#45;&gt;Node17 -->
<g id="edge32" class="edge"><title>Node3&#45;&gt;Node17</title>
<path fill="none" stroke="midnightblue" d="M827.528,-63.5617C889.122,-56.1261 999.689,-41.458 1093,-22 1095.74,-21.4283 1098.57,-20.784 1101.41,-20.1011"/>
<polygon fill="midnightblue" stroke="midnightblue" points="826.856,-60.1169 817.342,-64.779 827.687,-67.0675 826.856,-60.1169"/>
</g>
<!-- Node18 -->
<g id="node35" class="node"><title>Node18</title>
<a xlink:href="thing_8cpp.xhtml" target="_top" xlink:title="All non&#45;template member functions of the Thing class.">
<polygon fill="white" stroke="black" points="1183.5,-0.5 1183.5,-21.5 1244.5,-21.5 1244.5,-0.5 1183.5,-0.5"/>
<text text-anchor="middle" x="1214" y="-8.5" font-family="FreeSans.ttf" font-size="10.00">thing.cpp</text>
</a>
</g>
<!-- Node3&#45;&gt;Node18 -->
<g id="edge34" class="edge"><title>Node3&#45;&gt;Node18</title>
<path fill="none" stroke="midnightblue" d="M827.055,-65.795C901.471,-60.1909 1050.64,-46.7781 1175,-22 1177.76,-21.4501 1180.61,-20.8035 1183.45,-20.1039"/>
<polygon fill="midnightblue" stroke="midnightblue" points="826.776,-62.306 817.062,-66.5343 827.293,-69.2869 826.776,-62.306"/>
</g>
<!-- Node19 -->
<g id="node37" class="node"><title>Node19</title>
<a xlink:href="utils_8cpp.xhtml" target="_top" xlink:title="All non&#45;template member functions of the Utils namespace.">
<polygon fill="white" stroke="black" points="1262,-0.5 1262,-21.5 1318,-21.5 1318,-0.5 1262,-0.5"/>
<text text-anchor="middle" x="1290" y="-8.5" font-family="FreeSans.ttf" font-size="10.00">utils.cpp</text>
</a>
</g>
<!-- Node3&#45;&gt;Node19 -->
<g id="edge36" class="edge"><title>Node3&#45;&gt;Node19</title>
<path fill="none" stroke="midnightblue" d="M827.33,-67.2709C912.981,-63.4847 1099.09,-52.2401 1253,-22 1255.89,-21.4315 1258.89,-20.7335 1261.86,-19.9673"/>
<polygon fill="midnightblue" stroke="midnightblue" points="826.988,-63.7822 817.147,-67.7065 827.288,-70.7758 826.988,-63.7822"/>
</g>
<!-- Node20 -->
<g id="node39" class="node"><title>Node20</title>
<a xlink:href="pincludes_8h.xhtml" target="_top" xlink:title="All non&#45;system includes that need to be within each .cpp plugin.">
<polygon fill="white" stroke="black" points="1336,-0.5 1336,-21.5 1416,-21.5 1416,-0.5 1336,-0.5"/>
<text text-anchor="middle" x="1376" y="-8.5" font-family="FreeSans.ttf" font-size="10.00">h/pincludes.h</text>
</a>
</g>
<!-- Node3&#45;&gt;Node20 -->
<g id="edge38" class="edge"><title>Node3&#45;&gt;Node20</title>
<path fill="none" stroke="midnightblue" d="M827.168,-67.0956C922.216,-62.7858 1143.37,-50.3678 1327,-22 1329.93,-21.5474 1332.95,-21.021 1335.97,-20.4484"/>
<polygon fill="midnightblue" stroke="midnightblue" points="826.854,-63.606 817.02,-67.5466 827.165,-70.5991 826.854,-63.606"/>
</g>
</g>
</svg>
        <g id="navigator" transform="translate(0 0)" fill="#404254">
                <rect fill="#f2f5e9" fill-opacity="0.5" stroke="#606060" stroke-width=".5" x="0" y="0" width="60" height="60"/>
                <use id="zoomplus" xlink:href="#zoomPlus" x="17" y="9" onmousedown="handleZoom(evt,'in')"/>
                <use id="zoomminus" xlink:href="#zoomMin" x="42" y="9" onmousedown="handleZoom(evt,'out')"/>
                <use id="reset" xlink:href="#resetDef" x="30" y="36" onmousedown="handleReset()"/>
                <g id="arrowUp" xlink:href="#dirArrow" transform="translate(30 24)" onmousedown="handlePan(0,-1)">
                  <use xlink:href="#rim" fill="#404040">
                        <set attributeName="fill" to="#808080" begin="arrowUp.mouseover" end="arrowUp.mouseout"/>
                  </use>
                  <path fill="none" stroke="white" stroke-width="1.5" d="M0,-3.0v7 M-2.5,-0.5L0,-3.0L2.5,-0.5"/>
                </g>
                <g id="arrowRight" xlink:href="#dirArrow" transform="rotate(90) translate(36 -43)" onmousedown="handlePan(1,0)">
                  <use xlink:href="#rim" fill="#404040">
                        <set attributeName="fill" to="#808080" begin="arrowRight.mouseover" end="arrowRight.mouseout"/>
                  </use>
                  <path fill="none" stroke="white" stroke-width="1.5" d="M0,-3.0v7 M-2.5,-0.5L0,-3.0L2.5,-0.5"/>
                </g>
                <g id="arrowDown" xlink:href="#dirArrow" transform="rotate(180) translate(-30 -48)" onmousedown="handlePan(0,1)">
                  <use xlink:href="#rim" fill="#404040">
                        <set attributeName="fill" to="#808080" begin="arrowDown.mouseover" end="arrowDown.mouseout"/>
                  </use>
                  <path fill="none" stroke="white" stroke-width="1.5" d="M0,-3.0v7 M-2.5,-0.5L0,-3.0L2.5,-0.5"/>
                </g>
                <g id="arrowLeft" xlink:href="#dirArrow" transform="rotate(270) translate(-36 17)" onmousedown="handlePan(-1,0)">
                  <use xlink:href="#rim" fill="#404040">
                        <set attributeName="fill" to="#808080" begin="arrowLeft.mouseover" end="arrowLeft.mouseout"/>
                  </use>
                  <path fill="none" stroke="white" stroke-width="1.5" d="M0,-3.0v7 M-2.5,-0.5L0,-3.0L2.5,-0.5"/>
                </g>
        </g>
</svg>
