<?xml version="1.0" encoding="UTF-8" standalone="no"?>
<!DOCTYPE svg PUBLIC "-//W3C//DTD SVG 1.1//EN"
 "http://www.w3.org/Graphics/SVG/1.1/DTD/svg11.dtd">
<!-- Generated by graphviz version 2.26.3 (20100126.1600)
 -->
<!-- Title: G Pages: 1 -->
<!--zoomable 610 -->
<svg id="main" version="1.1" xmlns="http://www.w3.org/2000/svg" xmlns:xlink="http://www.w3.org/1999/xlink" xml:space="preserve" onload="init(evt)">
        <defs>
                <circle id="rim" cx="0" cy="0" r="7"/>
                <circle id="rim2" cx="0" cy="0" r="3.5"/>
                <g id="zoomPlus">
                        <use xlink:href="#rim" fill="#404040">
                                <set attributeName="fill" to="#808080" begin="zoomplus.mouseover" end="zoomplus.mouseout"/>
                        </use>
                        <path d="M-4,0h8M0,-4v8" fill="none" stroke="white" stroke-width="1.5" pointer-events="none"/>
                </g>
                <g id="zoomMin">
                        <use xlink:href="#rim" fill="#404040">
                                <set attributeName="fill" to="#808080" begin="zoomminus.mouseover" end="zoomminus.mouseout"/>
                        </use>
                        <path d="M-4,0h8" fill="none" stroke="white" stroke-width="1.5" pointer-events="none"/>
                </g>
                <g id="dirArrow">
                        <path fill="none" stroke="white" stroke-width="1.5" d="M0,-3.0v7 M-2.5,-0.5L0,-3.0L2.5,-0.5"/>
                </g>
               <g id="resetDef">
                       <use xlink:href="#rim2" fill="#404040">
                               <set attributeName="fill" to="#808080" begin="reset.mouseover" end="reset.mouseout"/>
                       </use>
               </g>
        </defs>

<script type="text/javascript">
var viewWidth = 1567;
var viewHeight = 610;
var sectionId = 'dynsection-0';
</script>
<script xlink:href="svgpan.js"/>
<svg id="graph" class="graph">
<g id="viewport">
<title>G</title>
<polygon fill="white" stroke="white" points="-4,5 -4,-606 1564,-606 1564,5 -4,5"/>
<!-- Node1 -->
<g id="node1" class="node"><title>Node1</title>
<polygon fill="#bfbfbf" stroke="black" points="1254,-580.5 1254,-601.5 1320,-601.5 1320,-580.5 1254,-580.5"/>
<text text-anchor="middle" x="1287" y="-588.5" font-family="FreeSans.ttf" font-size="10.00">server.cpp</text>
</g>
<!-- Node2 -->
<g id="node3" class="node"><title>Node2</title>
<a xlink:href="includes_8h.xhtml" target="_top" xlink:title="All non&#45;system includes that need to be within each .cpp file.">
<polygon fill="white" stroke="black" points="576,-522.5 576,-543.5 650,-543.5 650,-522.5 576,-522.5"/>
<text text-anchor="middle" x="613" y="-530.5" font-family="FreeSans.ttf" font-size="10.00">h/includes.h</text>
</a>
</g>
<!-- Node1&#45;&gt;Node2 -->
<g id="edge2" class="edge"><title>Node1&#45;&gt;Node2</title>
<path fill="none" stroke="midnightblue" d="M1253.73,-588.387C1166.78,-581.52 925.622,-562.24 725,-544 703.708,-542.064 680.155,-539.774 660.164,-537.785"/>
<polygon fill="midnightblue" stroke="midnightblue" points="660.364,-534.288 650.066,-536.776 659.668,-541.253 660.364,-534.288"/>
</g>
<!-- Node20 -->
<g id="node39" class="node"><title>Node20</title>
<a xlink:href="class_8h.xhtml" target="_top" xlink:title="All class declarations.">
<polygon fill="white" stroke="black" points="445,-348.5 445,-369.5 495,-369.5 495,-348.5 445,-348.5"/>
<text text-anchor="middle" x="470" y="-356.5" font-family="FreeSans.ttf" font-size="10.00">class.h</text>
</a>
</g>
<!-- Node1&#45;&gt;Node20 -->
<g id="edge96" class="edge"><title>Node1&#45;&gt;Node20</title>
<path fill="none" stroke="midnightblue" d="M1253.95,-589.54C1171.21,-584.756 950.064,-564.943 787,-486 737.01,-461.799 741.191,-429.78 691,-406 617.352,-371.106 588.158,-389.564 505.01,-369.959"/>
<polygon fill="midnightblue" stroke="midnightblue" points="505.698,-366.523 495.15,-367.517 504.016,-373.318 505.698,-366.523"/>
</g>
<!-- Node26 -->
<g id="node51" class="node"><title>Node26</title>
<a xlink:href="account_8h.xhtml" target="_top" xlink:title="The Account class.">
<polygon fill="white" stroke="black" points="1160,-290.5 1160,-311.5 1224,-311.5 1224,-290.5 1160,-290.5"/>
<text text-anchor="middle" x="1192" y="-298.5" font-family="FreeSans.ttf" font-size="10.00">account.h</text>
</a>
</g>
<!-- Node1&#45;&gt;Node26 -->
<g id="edge100" class="edge"><title>Node1&#45;&gt;Node26</title>
<path fill="none" stroke="midnightblue" d="M1266.95,-580.444C1236.73,-562.92 1183,-524.768 1183,-475 1183,-475 1183,-475 1183,-417 1183,-383.497 1186.78,-344.715 1189.44,-321.557"/>
<polygon fill="midnightblue" stroke="midnightblue" points="1192.92,-321.879 1190.63,-311.535 1185.97,-321.05 1192.92,-321.879"/>
</g>
<!-- Node29 -->
<g id="node58" class="node"><title>Node29</title>
<a xlink:href="server_8h.xhtml" target="_top" xlink:title="The Server class.">
<polygon fill="white" stroke="black" points="1236.5,-116.5 1236.5,-137.5 1291.5,-137.5 1291.5,-116.5 1236.5,-116.5"/>
<text text-anchor="middle" x="1264" y="-124.5" font-family="FreeSans.ttf" font-size="10.00">server.h</text>
</a>
</g>
<!-- Node1&#45;&gt;Node29 -->
<g id="edge98" class="edge"><title>Node1&#45;&gt;Node29</title>
<path fill="none" stroke="midnightblue" d="M1320.25,-586.679C1376.17,-577.344 1483,-549.732 1483,-475 1483,-475 1483,-475 1483,-243 1483,-162.062 1364.74,-137.438 1302.03,-130.07"/>
<polygon fill="midnightblue" stroke="midnightblue" points="1302.05,-126.553 1291.74,-128.957 1301.3,-133.512 1302.05,-126.553"/>
</g>
<!-- Node43 -->
<g id="node94" class="node"><title>Node43</title>
<a xlink:href="command_8h.xhtml" target="_top" xlink:title="The Command class.">
<polygon fill="white" stroke="black" points="1245.5,-464.5 1245.5,-485.5 1328.5,-485.5 1328.5,-464.5 1245.5,-464.5"/>
<text text-anchor="middle" x="1287" y="-472.5" font-family="FreeSans.ttf" font-size="10.00">h/command.h</text>
</a>
</g>
<!-- Node1&#45;&gt;Node43 -->
<g id="edge102" class="edge"><title>Node1&#45;&gt;Node43</title>
<path fill="none" stroke="midnightblue" d="M1287,-580.295C1287,-561.131 1287,-520.654 1287,-495.843"/>
<polygon fill="midnightblue" stroke="midnightblue" points="1290.5,-495.679 1287,-485.679 1283.5,-495.679 1290.5,-495.679"/>
</g>
<!-- Node46 -->
<g id="node103" class="node"><title>Node46</title>
<a xlink:href="event_8h.xhtml" target="_top" xlink:title="The Event class.">
<polygon fill="white" stroke="black" points="1340,-522.5 1340,-543.5 1402,-543.5 1402,-522.5 1340,-522.5"/>
<text text-anchor="middle" x="1371" y="-530.5" font-family="FreeSans.ttf" font-size="10.00">h/event.h</text>
</a>
</g>
<!-- Node1&#45;&gt;Node46 -->
<g id="edge114" class="edge"><title>Node1&#45;&gt;Node46</title>
<path fill="none" stroke="midnightblue" d="M1302.41,-580.362C1314.96,-571.696 1332.89,-559.313 1347.27,-549.382"/>
<polygon fill="midnightblue" stroke="midnightblue" points="1349.45,-552.133 1355.69,-543.571 1345.47,-546.372 1349.45,-552.133"/>
</g>
<!-- Node47 -->
<g id="node108" class="node"><title>Node47</title>
<a xlink:href="list_8h.xhtml" target="_top" xlink:title="All globally referenced list / map / vector types.">
<polygon fill="white" stroke="black" points="1511,-522.5 1511,-543.5 1559,-543.5 1559,-522.5 1511,-522.5"/>
<text text-anchor="middle" x="1535" y="-530.5" font-family="FreeSans.ttf" font-size="10.00">h/list.h</text>
</a>
</g>
<!-- Node1&#45;&gt;Node47 -->
<g id="edge122" class="edge"><title>Node1&#45;&gt;Node47</title>
<path fill="none" stroke="midnightblue" d="M1320.25,-584.219C1361.78,-575.598 1434.93,-559.912 1497,-544 1498.27,-543.674 1499.57,-543.335 1500.87,-542.987"/>
<polygon fill="midnightblue" stroke="midnightblue" points="1502.23,-546.243 1510.94,-540.207 1500.37,-539.496 1502.23,-546.243"/>
</g>
<!-- Node3 -->
<g id="node5" class="node"><title>Node3</title>
<a xlink:href="sysincludes_8h.xhtml" target="_top" xlink:title="All system standard includes that are used within NAMS.">
<polygon fill="white" stroke="black" points="318,-464.5 318,-485.5 398,-485.5 398,-464.5 318,-464.5"/>
<text text-anchor="middle" x="358" y="-472.5" font-family="FreeSans.ttf" font-size="10.00">sysincludes.h</text>
</a>
</g>
<!-- Node2&#45;&gt;Node3 -->
<g id="edge4" class="edge"><title>Node2&#45;&gt;Node3</title>
<path fill="none" stroke="midnightblue" d="M575.921,-524.566C531.595,-514.484 457.23,-497.57 407.891,-486.348"/>
<polygon fill="midnightblue" stroke="midnightblue" points="408.596,-482.919 398.068,-484.114 407.043,-489.744 408.596,-482.919"/>
</g>
<!-- Node13 -->
<g id="node25" class="node"><title>Node13</title>
<a xlink:href="limits_8h.xhtml" target="_top" xlink:title="Custom defined numeric types and system limits.">
<polygon fill="white" stroke="black" points="438.5,-464.5 438.5,-485.5 489.5,-485.5 489.5,-464.5 438.5,-464.5"/>
<text text-anchor="middle" x="464" y="-472.5" font-family="FreeSans.ttf" font-size="10.00">limits.h</text>
</a>
</g>
<!-- Node2&#45;&gt;Node13 -->
<g id="edge24" class="edge"><title>Node2&#45;&gt;Node13</title>
<path fill="none" stroke="midnightblue" d="M586.017,-522.497C561.668,-513.018 525.697,-499.016 499.115,-488.669"/>
<polygon fill="midnightblue" stroke="midnightblue" points="500.374,-485.403 489.785,-485.037 497.834,-491.926 500.374,-485.403"/>
</g>
<!-- Node15 -->
<g id="node29" class="node"><title>Node15</title>
<a xlink:href="macros_8h.xhtml" target="_top" xlink:title="All pre&#45;processor macros within NAMS and select reference values.">
<polygon fill="white" stroke="black" points="507,-464.5 507,-485.5 569,-485.5 569,-464.5 507,-464.5"/>
<text text-anchor="middle" x="538" y="-472.5" font-family="FreeSans.ttf" font-size="10.00">macros.h</text>
</a>
</g>
<!-- Node2&#45;&gt;Node15 -->
<g id="edge28" class="edge"><title>Node2&#45;&gt;Node15</title>
<path fill="none" stroke="midnightblue" d="M599.244,-522.362C588.249,-513.859 572.627,-501.779 559.914,-491.947"/>
<polygon fill="midnightblue" stroke="midnightblue" points="561.721,-488.919 551.669,-485.571 557.438,-494.457 561.721,-488.919"/>
</g>
<!-- Node16 -->
<g id="node31" class="node"><title>Node16</title>
<a xlink:href="enum_8h.xhtml" target="_top" xlink:title="All numerical and boolean defines for every class and namespace.">
<polygon fill="white" stroke="black" points="586.5,-464.5 586.5,-485.5 639.5,-485.5 639.5,-464.5 586.5,-464.5"/>
<text text-anchor="middle" x="613" y="-472.5" font-family="FreeSans.ttf" font-size="10.00">enum.h</text>
</a>
</g>
<!-- Node2&#45;&gt;Node16 -->
<g id="edge30" class="edge"><title>Node2&#45;&gt;Node16</title>
<path fill="none" stroke="midnightblue" d="M613,-522.362C613,-514.922 613,-504.743 613,-495.728"/>
<polygon fill="midnightblue" stroke="midnightblue" points="616.5,-495.571 613,-485.571 609.5,-495.571 616.5,-495.571"/>
</g>
<!-- Node17 -->
<g id="node33" class="node"><title>Node17</title>
<a xlink:href="config_8h.xhtml" target="_top" xlink:title="NAMS configuration options.">
<polygon fill="white" stroke="black" points="657,-464.5 657,-485.5 711,-485.5 711,-464.5 657,-464.5"/>
<text text-anchor="middle" x="684" y="-472.5" font-family="FreeSans.ttf" font-size="10.00">config.h</text>
</a>
</g>
<!-- Node2&#45;&gt;Node17 -->
<g id="edge32" class="edge"><title>Node2&#45;&gt;Node17</title>
<path fill="none" stroke="midnightblue" d="M626.022,-522.362C636.431,-513.859 651.219,-501.779 663.255,-491.947"/>
<polygon fill="midnightblue" stroke="midnightblue" points="665.53,-494.608 671.06,-485.571 661.101,-489.187 665.53,-494.608"/>
</g>
<!-- Node18 -->
<g id="node35" class="node"><title>Node18</title>
<a xlink:href="namespace_8h.xhtml" target="_top" xlink:title="All namespace includes.">
<polygon fill="white" stroke="black" points="796,-464.5 796,-485.5 878,-485.5 878,-464.5 796,-464.5"/>
<text text-anchor="middle" x="837" y="-472.5" font-family="FreeSans.ttf" font-size="10.00">namespace.h</text>
</a>
</g>
<!-- Node2&#45;&gt;Node18 -->
<g id="edge34" class="edge"><title>Node2&#45;&gt;Node18</title>
<path fill="none" stroke="midnightblue" d="M650.24,-523.357C687.477,-513.716 745.005,-498.82 786.372,-488.109"/>
<polygon fill="midnightblue" stroke="midnightblue" points="787.451,-491.445 796.255,-485.55 785.697,-484.669 787.451,-491.445"/>
</g>
<!-- Node4 -->
<g id="node7" class="node"><title>Node4</title>
<polygon fill="white" stroke="#bfbfbf" points="356,-406.5 356,-427.5 418,-427.5 418,-406.5 356,-406.5"/>
<text text-anchor="middle" x="387" y="-414.5" font-family="FreeSans.ttf" font-size="10.00">algorithm</text>
</g>
<!-- Node3&#45;&gt;Node4 -->
<g id="edge6" class="edge"><title>Node3&#45;&gt;Node4</title>
<path fill="none" stroke="midnightblue" d="M363.319,-464.362C367.203,-456.595 372.579,-445.843 377.227,-436.546"/>
<polygon fill="midnightblue" stroke="midnightblue" points="380.373,-438.08 381.715,-427.571 374.112,-434.95 380.373,-438.08"/>
</g>
<!-- Node5 -->
<g id="node9" class="node"><title>Node5</title>
<polygon fill="white" stroke="#bfbfbf" points="436,-406.5 436,-427.5 486,-427.5 486,-406.5 436,-406.5"/>
<text text-anchor="middle" x="461" y="-414.5" font-family="FreeSans.ttf" font-size="10.00">chrono</text>
</g>
<!-- Node3&#45;&gt;Node5 -->
<g id="edge8" class="edge"><title>Node3&#45;&gt;Node5</title>
<path fill="none" stroke="midnightblue" d="M376.892,-464.362C392.718,-455.45 415.523,-442.609 433.395,-432.545"/>
<polygon fill="midnightblue" stroke="midnightblue" points="435.232,-435.527 442.228,-427.571 431.797,-429.428 435.232,-435.527"/>
</g>
<!-- Node6 -->
<g id="node11" class="node"><title>Node6</title>
<polygon fill="white" stroke="#bfbfbf" points="503.5,-406.5 503.5,-427.5 574.5,-427.5 574.5,-406.5 503.5,-406.5"/>
<text text-anchor="middle" x="539" y="-414.5" font-family="FreeSans.ttf" font-size="10.00">forward_list</text>
</g>
<!-- Node3&#45;&gt;Node6 -->
<g id="edge10" class="edge"><title>Node3&#45;&gt;Node6</title>
<path fill="none" stroke="midnightblue" d="M390.778,-464.497C420.413,-455 464.222,-440.962 496.531,-430.609"/>
<polygon fill="midnightblue" stroke="midnightblue" points="497.706,-433.908 506.161,-427.523 495.57,-427.242 497.706,-433.908"/>
</g>
<!-- Node7 -->
<g id="node13" class="node"><title>Node7</title>
<polygon fill="white" stroke="#bfbfbf" points="592,-406.5 592,-427.5 622,-427.5 622,-406.5 592,-406.5"/>
<text text-anchor="middle" x="607" y="-414.5" font-family="FreeSans.ttf" font-size="10.00">list</text>
</g>
<!-- Node3&#45;&gt;Node7 -->
<g id="edge12" class="edge"><title>Node3&#45;&gt;Node7</title>
<path fill="none" stroke="midnightblue" d="M398.075,-467.746C449.255,-458.304 535.865,-441.685 582.185,-427.645"/>
<polygon fill="midnightblue" stroke="midnightblue" points="583.516,-430.894 591.971,-424.508 581.379,-424.228 583.516,-430.894"/>
</g>
<!-- Node8 -->
<g id="node15" class="node"><title>Node8</title>
<polygon fill="white" stroke="#bfbfbf" points="0,-406.5 0,-427.5 38,-427.5 38,-406.5 0,-406.5"/>
<text text-anchor="middle" x="19" y="-414.5" font-family="FreeSans.ttf" font-size="10.00">map</text>
</g>
<!-- Node3&#45;&gt;Node8 -->
<g id="edge14" class="edge"><title>Node3&#45;&gt;Node8</title>
<path fill="none" stroke="midnightblue" d="M317.644,-471.813C259.631,-466.601 149.365,-454.343 47.8805,-427.77"/>
<polygon fill="midnightblue" stroke="midnightblue" points="48.6536,-424.353 38.089,-425.153 46.8464,-431.116 48.6536,-424.353"/>
</g>
<!-- Node9 -->
<g id="node17" class="node"><title>Node9</title>
<polygon fill="white" stroke="#bfbfbf" points="55.5,-406.5 55.5,-427.5 102.5,-427.5 102.5,-406.5 55.5,-406.5"/>
<text text-anchor="middle" x="79" y="-414.5" font-family="FreeSans.ttf" font-size="10.00">vector</text>
</g>
<!-- Node3&#45;&gt;Node9 -->
<g id="edge16" class="edge"><title>Node3&#45;&gt;Node9</title>
<path fill="none" stroke="midnightblue" d="M317.82,-469.166C270.63,-461.918 189.899,-448.28 112.552,-428.168"/>
<polygon fill="midnightblue" stroke="midnightblue" points="113.212,-424.722 102.649,-425.552 111.424,-431.49 113.212,-424.722"/>
</g>
<!-- Node10 -->
<g id="node19" class="node"><title>Node10</title>
<polygon fill="white" stroke="#bfbfbf" points="120,-406.5 120,-427.5 188,-427.5 188,-406.5 120,-406.5"/>
<text text-anchor="middle" x="154" y="-414.5" font-family="FreeSans.ttf" font-size="10.00">arpa/inet.h</text>
</g>
<!-- Node3&#45;&gt;Node10 -->
<g id="edge18" class="edge"><title>Node3&#45;&gt;Node10</title>
<path fill="none" stroke="midnightblue" d="M321.057,-464.497C286.528,-454.68 234.928,-440.009 198.223,-429.573"/>
<polygon fill="midnightblue" stroke="midnightblue" points="198.867,-426.118 188.291,-426.75 196.953,-432.851 198.867,-426.118"/>
</g>
<!-- Node11 -->
<g id="node21" class="node"><title>Node11</title>
<polygon fill="white" stroke="#bfbfbf" points="205.5,-406.5 205.5,-427.5 256.5,-427.5 256.5,-406.5 205.5,-406.5"/>
<text text-anchor="middle" x="231" y="-414.5" font-family="FreeSans.ttf" font-size="10.00">errno.h</text>
</g>
<!-- Node3&#45;&gt;Node11 -->
<g id="edge20" class="edge"><title>Node3&#45;&gt;Node11</title>
<path fill="none" stroke="midnightblue" d="M335.001,-464.497C314.987,-455.356 285.759,-442.008 263.381,-431.788"/>
<polygon fill="midnightblue" stroke="midnightblue" points="264.807,-428.592 254.257,-427.621 261.899,-434.959 264.807,-428.592"/>
</g>
<!-- Node12 -->
<g id="node23" class="node"><title>Node12</title>
<polygon fill="white" stroke="#bfbfbf" points="273.5,-406.5 273.5,-427.5 338.5,-427.5 338.5,-406.5 273.5,-406.5"/>
<text text-anchor="middle" x="306" y="-414.5" font-family="FreeSans.ttf" font-size="10.00">memory.h</text>
</g>
<!-- Node3&#45;&gt;Node12 -->
<g id="edge22" class="edge"><title>Node3&#45;&gt;Node12</title>
<path fill="none" stroke="midnightblue" d="M348.462,-464.362C341.132,-456.186 330.837,-444.702 322.219,-435.091"/>
<polygon fill="midnightblue" stroke="midnightblue" points="324.759,-432.68 315.477,-427.571 319.547,-437.353 324.759,-432.68"/>
</g>
<!-- Node14 -->
<g id="node27" class="node"><title>Node14</title>
<polygon fill="white" stroke="#bfbfbf" points="640,-406.5 640,-427.5 682,-427.5 682,-406.5 640,-406.5"/>
<text text-anchor="middle" x="661" y="-414.5" font-family="FreeSans.ttf" font-size="10.00">limits</text>
</g>
<!-- Node13&#45;&gt;Node14 -->
<g id="edge26" class="edge"><title>Node13&#45;&gt;Node14</title>
<path fill="none" stroke="midnightblue" d="M489.578,-466.578C492.414,-465.688 495.264,-464.812 498,-464 553.724,-447.455 570.913,-446.604 629.93,-428.159"/>
<polygon fill="midnightblue" stroke="midnightblue" points="631.297,-431.398 639.774,-425.042 629.184,-424.724 631.297,-431.398"/>
</g>
<!-- Node19 -->
<g id="node37" class="node"><title>Node19</title>
<a xlink:href="handler_8h.xhtml" target="_top" xlink:title="The Handler namespace.">
<polygon fill="white" stroke="black" points="766.5,-406.5 766.5,-427.5 827.5,-427.5 827.5,-406.5 766.5,-406.5"/>
<text text-anchor="middle" x="797" y="-414.5" font-family="FreeSans.ttf" font-size="10.00">handler.h</text>
</a>
</g>
<!-- Node18&#45;&gt;Node19 -->
<g id="edge36" class="edge"><title>Node18&#45;&gt;Node19</title>
<path fill="none" stroke="midnightblue" d="M829.663,-464.362C824.194,-456.431 816.578,-445.389 810.076,-435.961"/>
<polygon fill="midnightblue" stroke="midnightblue" points="812.849,-433.816 804.29,-427.571 807.086,-437.79 812.849,-433.816"/>
</g>
<!-- Node21 -->
<g id="node41" class="node"><title>Node21</title>
<a xlink:href="telopt_8h.xhtml" target="_top" xlink:title="The telopt namespace.">
<polygon fill="white" stroke="black" points="1089.5,-406.5 1089.5,-427.5 1142.5,-427.5 1142.5,-406.5 1089.5,-406.5"/>
<text text-anchor="middle" x="1116" y="-414.5" font-family="FreeSans.ttf" font-size="10.00">telopt.h</text>
</a>
</g>
<!-- Node18&#45;&gt;Node21 -->
<g id="edge40" class="edge"><title>Node18&#45;&gt;Node21</title>
<path fill="none" stroke="midnightblue" d="M878.167,-466.442C932.48,-455.151 1027.26,-435.449 1079.26,-424.638"/>
<polygon fill="midnightblue" stroke="midnightblue" points="1080.29,-427.998 1089.37,-422.536 1078.87,-421.145 1080.29,-427.998"/>
</g>
<!-- Node33 -->
<g id="node71" class="node"><title>Node33</title>
<a xlink:href="utils_8h.xhtml" target="_top" xlink:title="The Utils namespace.">
<polygon fill="white" stroke="black" points="844.5,-406.5 844.5,-427.5 889.5,-427.5 889.5,-406.5 844.5,-406.5"/>
<text text-anchor="middle" x="867" y="-414.5" font-family="FreeSans.ttf" font-size="10.00">utils.h</text>
</a>
</g>
<!-- Node18&#45;&gt;Node33 -->
<g id="edge76" class="edge"><title>Node18&#45;&gt;Node33</title>
<path fill="none" stroke="midnightblue" d="M842.502,-464.362C846.52,-456.595 852.081,-445.843 856.89,-436.546"/>
<polygon fill="midnightblue" stroke="midnightblue" points="860.047,-438.061 861.532,-427.571 853.829,-434.845 860.047,-438.061"/>
</g>
<!-- Node19&#45;&gt;Node20 -->
<g id="edge38" class="edge"><title>Node19&#45;&gt;Node20</title>
<path fill="none" stroke="midnightblue" d="M766.317,-408.908C761.866,-407.857 757.326,-406.851 753,-406 646.393,-385.024 614.701,-394.71 504.919,-369.908"/>
<polygon fill="midnightblue" stroke="midnightblue" points="505.648,-366.485 495.118,-367.65 504.077,-373.306 505.648,-366.485"/>
</g>
<!-- Node22 -->
<g id="node43" class="node"><title>Node22</title>
<polygon fill="white" stroke="#bfbfbf" points="1077,-348.5 1077,-369.5 1155,-369.5 1155,-348.5 1077,-348.5"/>
<text text-anchor="middle" x="1116" y="-356.5" font-family="FreeSans.ttf" font-size="10.00">arpa/telnet.h</text>
</g>
<!-- Node21&#45;&gt;Node22 -->
<g id="edge42" class="edge"><title>Node21&#45;&gt;Node22</title>
<path fill="none" stroke="midnightblue" d="M1116,-406.362C1116,-398.922 1116,-388.743 1116,-379.728"/>
<polygon fill="midnightblue" stroke="midnightblue" points="1119.5,-379.571 1116,-369.571 1112.5,-379.571 1119.5,-379.571"/>
</g>
<!-- Node23 -->
<g id="node45" class="node"><title>Node23</title>
<a xlink:href="socketclient_8h.xhtml" target="_top" xlink:title="The SocketClient class.">
<polygon fill="white" stroke="black" points="1282.5,-348.5 1282.5,-369.5 1365.5,-369.5 1365.5,-348.5 1282.5,-348.5"/>
<text text-anchor="middle" x="1324" y="-356.5" font-family="FreeSans.ttf" font-size="10.00">socketclient.h</text>
</a>
</g>
<!-- Node21&#45;&gt;Node23 -->
<g id="edge44" class="edge"><title>Node21&#45;&gt;Node23</title>
<path fill="none" stroke="midnightblue" d="M1142.77,-409.536C1176.42,-400.152 1234.79,-383.876 1276.19,-372.332"/>
<polygon fill="midnightblue" stroke="midnightblue" points="1277.37,-375.638 1286.06,-369.58 1275.48,-368.895 1277.37,-375.638"/>
</g>
<!-- Node24 -->
<g id="node47" class="node"><title>Node24</title>
<polygon fill="white" stroke="#bfbfbf" points="1300.5,-290.5 1300.5,-311.5 1347.5,-311.5 1347.5,-290.5 1300.5,-290.5"/>
<text text-anchor="middle" x="1324" y="-298.5" font-family="FreeSans.ttf" font-size="10.00">deque</text>
</g>
<!-- Node23&#45;&gt;Node24 -->
<g id="edge46" class="edge"><title>Node23&#45;&gt;Node24</title>
<path fill="none" stroke="midnightblue" d="M1324,-348.362C1324,-340.922 1324,-330.743 1324,-321.728"/>
<polygon fill="midnightblue" stroke="midnightblue" points="1327.5,-321.571 1324,-311.571 1320.5,-321.571 1327.5,-321.571"/>
</g>
<!-- Node25 -->
<g id="node49" class="node"><title>Node25</title>
<polygon fill="white" stroke="#bfbfbf" points="1364.5,-290.5 1364.5,-311.5 1417.5,-311.5 1417.5,-290.5 1364.5,-290.5"/>
<text text-anchor="middle" x="1391" y="-298.5" font-family="FreeSans.ttf" font-size="10.00">netdb.h</text>
</g>
<!-- Node23&#45;&gt;Node25 -->
<g id="edge48" class="edge"><title>Node23&#45;&gt;Node25</title>
<path fill="none" stroke="midnightblue" d="M1336.29,-348.362C1346.02,-339.941 1359.8,-328.011 1371.1,-318.231"/>
<polygon fill="midnightblue" stroke="midnightblue" points="1373.52,-320.762 1378.79,-311.571 1368.94,-315.469 1373.52,-320.762"/>
</g>
<!-- Node23&#45;&gt;Node26 -->
<g id="edge50" class="edge"><title>Node23&#45;&gt;Node26</title>
<path fill="none" stroke="midnightblue" d="M1294.76,-348.497C1272.41,-339.397 1242,-326.127 1219.98,-315.925"/>
<polygon fill="midnightblue" stroke="midnightblue" points="1221.35,-312.702 1210.81,-311.621 1218.38,-319.039 1221.35,-312.702"/>
</g>
<!-- Node23&#45;&gt;Node29 -->
<g id="edge74" class="edge"><title>Node23&#45;&gt;Node29</title>
<path fill="none" stroke="midnightblue" d="M1307.31,-348.224C1298.2,-339.184 1288.34,-325.6 1283,-312 1260.83,-255.519 1256.11,-182.972 1258.67,-147.872"/>
<polygon fill="midnightblue" stroke="midnightblue" points="1262.16,-148.175 1259.74,-137.859 1255.2,-147.428 1262.16,-148.175"/>
</g>
<!-- Node32 -->
<g id="node66" class="node"><title>Node32</title>
<a xlink:href="socket_8h.xhtml" target="_top" xlink:title="The Socket class.">
<polygon fill="white" stroke="black" points="1158.5,-0.5 1158.5,-21.5 1215.5,-21.5 1215.5,-0.5 1158.5,-0.5"/>
<text text-anchor="middle" x="1187" y="-8.5" font-family="FreeSans.ttf" font-size="10.00">socket.h</text>
</a>
</g>
<!-- Node23&#45;&gt;Node32 -->
<g id="edge72" class="edge"><title>Node23&#45;&gt;Node32</title>
<path fill="none" stroke="midnightblue" d="M1282.1,-349.381C1234.34,-338.142 1161.49,-320.061 1151,-312 1122.9,-290.397 1111,-278.447 1111,-243 1111,-243 1111,-243 1111,-127 1111,-86.5104 1143.8,-49.1585 1166.3,-28.2949"/>
<polygon fill="midnightblue" stroke="midnightblue" points="1168.64,-30.8993 1173.76,-21.6247 1163.97,-25.681 1168.64,-30.8993"/>
</g>
<!-- Node26&#45;&gt;Node23 -->
<g id="edge70" class="edge"><title>Node26&#45;&gt;Node23</title>
<path fill="none" stroke="midnightblue" d="M1221.53,-311.621C1243.94,-320.757 1274.36,-334.031 1296.3,-344.206"/>
<polygon fill="midnightblue" stroke="midnightblue" points="1294.9,-347.413 1305.44,-348.497 1297.87,-341.077 1294.9,-347.413"/>
</g>
<!-- Node27 -->
<g id="node53" class="node"><title>Node27</title>
<a xlink:href="character_8h.xhtml" target="_top" xlink:title="The Character class.">
<polygon fill="white" stroke="black" points="1156.5,-232.5 1156.5,-253.5 1227.5,-253.5 1227.5,-232.5 1156.5,-232.5"/>
<text text-anchor="middle" x="1192" y="-240.5" font-family="FreeSans.ttf" font-size="10.00">character.h</text>
</a>
</g>
<!-- Node26&#45;&gt;Node27 -->
<g id="edge52" class="edge"><title>Node26&#45;&gt;Node27</title>
<path fill="none" stroke="midnightblue" d="M1186.64,-290.362C1185.32,-282.922 1184.94,-272.743 1185.5,-263.728"/>
<polygon fill="midnightblue" stroke="midnightblue" points="1189,-263.9 1186.65,-253.571 1182.05,-263.114 1189,-263.9"/>
</g>
<!-- Node27&#45;&gt;Node26 -->
<g id="edge54" class="edge"><title>Node27&#45;&gt;Node26</title>
<path fill="none" stroke="midnightblue" d="M1197.35,-253.571C1198.67,-260.994 1199.06,-271.168 1198.5,-280.191"/>
<polygon fill="midnightblue" stroke="midnightblue" points="1195,-280.034 1197.36,-290.362 1201.96,-280.814 1195,-280.034"/>
</g>
<!-- Node28 -->
<g id="node56" class="node"><title>Node28</title>
<a xlink:href="thing_8h.xhtml" target="_top" xlink:title="The Thing class.">
<polygon fill="white" stroke="black" points="1139,-174.5 1139,-195.5 1189,-195.5 1189,-174.5 1139,-174.5"/>
<text text-anchor="middle" x="1164" y="-182.5" font-family="FreeSans.ttf" font-size="10.00">thing.h</text>
</a>
</g>
<!-- Node27&#45;&gt;Node28 -->
<g id="edge56" class="edge"><title>Node27&#45;&gt;Node28</title>
<path fill="none" stroke="midnightblue" d="M1186.86,-232.362C1183.15,-224.677 1178.03,-214.069 1173.58,-204.84"/>
<polygon fill="midnightblue" stroke="midnightblue" points="1176.6,-203.055 1169.1,-195.571 1170.3,-206.098 1176.6,-203.055"/>
</g>
<!-- Node28&#45;&gt;Node29 -->
<g id="edge58" class="edge"><title>Node28&#45;&gt;Node29</title>
<path fill="none" stroke="midnightblue" d="M1182.34,-174.362C1197.57,-165.532 1219.44,-152.844 1236.72,-142.822"/>
<polygon fill="midnightblue" stroke="midnightblue" points="1238.88,-145.615 1245.77,-137.571 1235.37,-139.56 1238.88,-145.615"/>
</g>
<!-- Node29&#45;&gt;Node23 -->
<g id="edge64" class="edge"><title>Node29&#45;&gt;Node23</title>
<path fill="none" stroke="midnightblue" d="M1268.23,-137.859C1273.29,-167.081 1276.43,-249.406 1301,-312 1304.84,-321.775 1311.01,-331.542 1316.27,-339.619"/>
<polygon fill="midnightblue" stroke="midnightblue" points="1313.46,-341.725 1321.83,-348.224 1319.34,-337.926 1313.46,-341.725"/>
</g>
<!-- Node29&#45;&gt;Node27 -->
<g id="edge62" class="edge"><title>Node29&#45;&gt;Node27</title>
<path fill="none" stroke="midnightblue" d="M1257.37,-137.679C1245.22,-157.255 1219.23,-199.132 1203.93,-223.776"/>
<polygon fill="midnightblue" stroke="midnightblue" points="1200.94,-221.953 1198.64,-232.295 1206.89,-225.644 1200.94,-221.953"/>
</g>
<!-- Node30 -->
<g id="node60" class="node"><title>Node30</title>
<polygon fill="white" stroke="#bfbfbf" points="1157,-58.5 1157,-79.5 1203,-79.5 1203,-58.5 1157,-58.5"/>
<text text-anchor="middle" x="1180" y="-66.5" font-family="FreeSans.ttf" font-size="10.00">fcntl.h</text>
</g>
<!-- Node29&#45;&gt;Node30 -->
<g id="edge60" class="edge"><title>Node29&#45;&gt;Node30</title>
<path fill="none" stroke="midnightblue" d="M1248.59,-116.362C1236.04,-107.696 1218.11,-95.3126 1203.73,-85.3819"/>
<polygon fill="midnightblue" stroke="midnightblue" points="1205.53,-82.3725 1195.31,-79.5707 1201.55,-88.1327 1205.53,-82.3725"/>
</g>
<!-- Node31 -->
<g id="node64" class="node"><title>Node31</title>
<a xlink:href="socketserver_8h.xhtml" target="_top" xlink:title="The SocketServer class.">
<polygon fill="white" stroke="black" points="1221,-58.5 1221,-79.5 1307,-79.5 1307,-58.5 1221,-58.5"/>
<text text-anchor="middle" x="1264" y="-66.5" font-family="FreeSans.ttf" font-size="10.00">socketserver.h</text>
</a>
</g>
<!-- Node29&#45;&gt;Node31 -->
<g id="edge66" class="edge"><title>Node29&#45;&gt;Node31</title>
<path fill="none" stroke="midnightblue" d="M1264,-116.362C1264,-108.922 1264,-98.7427 1264,-89.7276"/>
<polygon fill="midnightblue" stroke="midnightblue" points="1267.5,-89.5706 1264,-79.5707 1260.5,-89.5707 1267.5,-89.5706"/>
</g>
<!-- Node31&#45;&gt;Node32 -->
<g id="edge68" class="edge"><title>Node31&#45;&gt;Node32</title>
<path fill="none" stroke="midnightblue" d="M1249.88,-58.3619C1238.48,-49.7773 1222.24,-37.5459 1209.12,-27.6636"/>
<polygon fill="midnightblue" stroke="midnightblue" points="1211.13,-24.7916 1201.03,-21.5707 1206.92,-30.3829 1211.13,-24.7916"/>
</g>
<!-- Node34 -->
<g id="node73" class="node"><title>Node34</title>
<polygon fill="white" stroke="#bfbfbf" points="953,-348.5 953,-369.5 997,-369.5 997,-348.5 953,-348.5"/>
<text text-anchor="middle" x="975" y="-356.5" font-family="FreeSans.ttf" font-size="10.00">bitset</text>
</g>
<!-- Node33&#45;&gt;Node34 -->
<g id="edge78" class="edge"><title>Node33&#45;&gt;Node34</title>
<path fill="none" stroke="midnightblue" d="M886.558,-406.497C903.198,-397.56 927.327,-384.602 946.18,-374.477"/>
<polygon fill="midnightblue" stroke="midnightblue" points="948.069,-377.436 955.223,-369.621 944.757,-371.269 948.069,-377.436"/>
</g>
<!-- Node35 -->
<g id="node75" class="node"><title>Node35</title>
<polygon fill="white" stroke="#bfbfbf" points="512.5,-348.5 512.5,-369.5 565.5,-369.5 565.5,-348.5 512.5,-348.5"/>
<text text-anchor="middle" x="539" y="-356.5" font-family="FreeSans.ttf" font-size="10.00">cstdarg</text>
</g>
<!-- Node33&#45;&gt;Node35 -->
<g id="edge80" class="edge"><title>Node33&#45;&gt;Node35</title>
<path fill="none" stroke="midnightblue" d="M844.475,-408.407C841.648,-407.506 838.774,-406.675 836,-406 724.919,-378.962 690.563,-394.788 575.524,-370.059"/>
<polygon fill="midnightblue" stroke="midnightblue" points="576.147,-366.612 565.627,-367.876 574.638,-373.448 576.147,-366.612"/>
</g>
<!-- Node36 -->
<g id="node77" class="node"><title>Node36</title>
<polygon fill="white" stroke="#bfbfbf" points="1014.5,-348.5 1014.5,-369.5 1059.5,-369.5 1059.5,-348.5 1014.5,-348.5"/>
<text text-anchor="middle" x="1037" y="-356.5" font-family="FreeSans.ttf" font-size="10.00">cstdio</text>
</g>
<!-- Node33&#45;&gt;Node36 -->
<g id="edge82" class="edge"><title>Node33&#45;&gt;Node36</title>
<path fill="none" stroke="midnightblue" d="M889.667,-409.451C915.436,-400.844 958.994,-386.221 1004.83,-370.379"/>
<polygon fill="midnightblue" stroke="midnightblue" points="1006.02,-373.669 1014.33,-367.089 1003.73,-367.054 1006.02,-373.669"/>
</g>
<!-- Node37 -->
<g id="node79" class="node"><title>Node37</title>
<polygon fill="white" stroke="#bfbfbf" points="1211,-348.5 1211,-369.5 1265,-369.5 1265,-348.5 1211,-348.5"/>
<text text-anchor="middle" x="1238" y="-356.5" font-family="FreeSans.ttf" font-size="10.00">fstream</text>
</g>
<!-- Node33&#45;&gt;Node37 -->
<g id="edge84" class="edge"><title>Node33&#45;&gt;Node37</title>
<path fill="none" stroke="midnightblue" d="M889.649,-413.459C951.63,-403.769 1124.48,-376.747 1200.88,-364.803"/>
<polygon fill="midnightblue" stroke="midnightblue" points="1201.66,-368.224 1211,-363.221 1200.58,-361.308 1201.66,-368.224"/>
</g>
<!-- Node38 -->
<g id="node81" class="node"><title>Node38</title>
<polygon fill="white" stroke="#bfbfbf" points="582.5,-348.5 582.5,-369.5 641.5,-369.5 641.5,-348.5 582.5,-348.5"/>
<text text-anchor="middle" x="612" y="-356.5" font-family="FreeSans.ttf" font-size="10.00">iostream</text>
</g>
<!-- Node33&#45;&gt;Node38 -->
<g id="edge86" class="edge"><title>Node33&#45;&gt;Node38</title>
<path fill="none" stroke="midnightblue" d="M844.437,-408.553C841.616,-407.628 838.755,-406.751 836,-406 757.777,-384.681 733.638,-389.33 651.557,-370.222"/>
<polygon fill="midnightblue" stroke="midnightblue" points="652.341,-366.81 641.803,-367.904 650.723,-373.621 652.341,-366.81"/>
</g>
<!-- Node39 -->
<g id="node83" class="node"><title>Node39</title>
<polygon fill="white" stroke="#bfbfbf" points="659,-348.5 659,-369.5 711,-369.5 711,-348.5 659,-348.5"/>
<text text-anchor="middle" x="685" y="-356.5" font-family="FreeSans.ttf" font-size="10.00">iterator</text>
</g>
<!-- Node33&#45;&gt;Node39 -->
<g id="edge88" class="edge"><title>Node33&#45;&gt;Node39</title>
<path fill="none" stroke="midnightblue" d="M844.349,-408.845C841.543,-407.869 838.71,-406.901 836,-406 787.677,-389.935 773.149,-386.464 721.156,-370.345"/>
<polygon fill="midnightblue" stroke="midnightblue" points="721.958,-366.929 711.37,-367.299 719.878,-373.613 721.958,-366.929"/>
</g>
<!-- Node40 -->
<g id="node85" class="node"><title>Node40</title>
<polygon fill="white" stroke="#bfbfbf" points="729,-348.5 729,-369.5 785,-369.5 785,-348.5 729,-348.5"/>
<text text-anchor="middle" x="757" y="-356.5" font-family="FreeSans.ttf" font-size="10.00">sstream</text>
</g>
<!-- Node33&#45;&gt;Node40 -->
<g id="edge90" class="edge"><title>Node33&#45;&gt;Node40</title>
<path fill="none" stroke="midnightblue" d="M847.08,-406.497C830.054,-397.519 805.331,-384.484 786.091,-374.339"/>
<polygon fill="midnightblue" stroke="midnightblue" points="787.622,-371.189 777.144,-369.621 784.357,-377.381 787.622,-371.189"/>
</g>
<!-- Node41 -->
<g id="node87" class="node"><title>Node41</title>
<polygon fill="white" stroke="#bfbfbf" points="802.5,-348.5 802.5,-369.5 855.5,-369.5 855.5,-348.5 802.5,-348.5"/>
<text text-anchor="middle" x="829" y="-356.5" font-family="FreeSans.ttf" font-size="10.00">dirent.h</text>
</g>
<!-- Node33&#45;&gt;Node41 -->
<g id="edge92" class="edge"><title>Node33&#45;&gt;Node41</title>
<path fill="none" stroke="midnightblue" d="M860.03,-406.362C854.834,-398.431 847.599,-387.389 841.422,-377.961"/>
<polygon fill="midnightblue" stroke="midnightblue" points="844.334,-376.017 835.926,-369.571 838.478,-379.853 844.334,-376.017"/>
</g>
<!-- Node42 -->
<g id="node89" class="node"><title>Node42</title>
<polygon fill="white" stroke="#bfbfbf" points="872.5,-348.5 872.5,-369.5 935.5,-369.5 935.5,-348.5 872.5,-348.5"/>
<text text-anchor="middle" x="904" y="-356.5" font-family="FreeSans.ttf" font-size="10.00">sys/stat.h</text>
</g>
<!-- Node33&#45;&gt;Node42 -->
<g id="edge94" class="edge"><title>Node33&#45;&gt;Node42</title>
<path fill="none" stroke="midnightblue" d="M873.786,-406.362C878.793,-398.513 885.745,-387.616 891.718,-378.253"/>
<polygon fill="midnightblue" stroke="midnightblue" points="894.829,-379.884 897.257,-369.571 888.928,-376.119 894.829,-379.884"/>
</g>
<!-- Node43&#45;&gt;Node36 -->
<g id="edge104" class="edge"><title>Node43&#45;&gt;Node36</title>
<path fill="none" stroke="midnightblue" d="M1245.16,-469.28C1192.88,-461.487 1107.09,-446.38 1081,-428 1063.85,-415.918 1051.85,-394.819 1044.76,-379.124"/>
<polygon fill="midnightblue" stroke="midnightblue" points="1047.91,-377.596 1040.8,-369.739 1041.46,-380.313 1047.91,-377.596"/>
</g>
<!-- Node43&#45;&gt;Node37 -->
<g id="edge108" class="edge"><title>Node43&#45;&gt;Node37</title>
<path fill="none" stroke="midnightblue" d="M1285.1,-464.378C1282.4,-450.532 1276.78,-425.755 1268,-406 1263.67,-396.256 1257.51,-386.196 1251.9,-377.895"/>
<polygon fill="midnightblue" stroke="midnightblue" points="1254.74,-375.856 1246.14,-369.677 1249.01,-379.874 1254.74,-375.856"/>
</g>
<!-- Node44 -->
<g id="node97" class="node"><title>Node44</title>
<polygon fill="white" stroke="#bfbfbf" points="1211,-406.5 1211,-427.5 1259,-427.5 1259,-406.5 1211,-406.5"/>
<text text-anchor="middle" x="1235" y="-414.5" font-family="FreeSans.ttf" font-size="10.00">dlfcn.h</text>
</g>
<!-- Node43&#45;&gt;Node44 -->
<g id="edge106" class="edge"><title>Node43&#45;&gt;Node44</title>
<path fill="none" stroke="midnightblue" d="M1277.46,-464.362C1270.13,-456.186 1259.84,-444.702 1251.22,-435.091"/>
<polygon fill="midnightblue" stroke="midnightblue" points="1253.76,-432.68 1244.48,-427.571 1248.55,-437.353 1253.76,-432.68"/>
</g>
<!-- Node45 -->
<g id="node100" class="node"><title>Node45</title>
<a xlink:href="plugin_8h.xhtml" target="_top" xlink:title="The Plugin class.">
<polygon fill="white" stroke="black" points="1315,-406.5 1315,-427.5 1369,-427.5 1369,-406.5 1315,-406.5"/>
<text text-anchor="middle" x="1342" y="-414.5" font-family="FreeSans.ttf" font-size="10.00">plugin.h</text>
</a>
</g>
<!-- Node43&#45;&gt;Node45 -->
<g id="edge110" class="edge"><title>Node43&#45;&gt;Node45</title>
<path fill="none" stroke="midnightblue" d="M1297.09,-464.362C1304.84,-456.186 1315.73,-444.702 1324.85,-435.091"/>
<polygon fill="midnightblue" stroke="midnightblue" points="1327.63,-437.235 1331.98,-427.571 1322.56,-432.419 1327.63,-437.235"/>
</g>
<!-- Node45&#45;&gt;Node23 -->
<g id="edge112" class="edge"><title>Node45&#45;&gt;Node23</title>
<path fill="none" stroke="midnightblue" d="M1338.7,-406.362C1336.34,-398.758 1333.09,-388.294 1330.25,-379.135"/>
<polygon fill="midnightblue" stroke="midnightblue" points="1333.59,-378.084 1327.28,-369.571 1326.9,-380.159 1333.59,-378.084"/>
</g>
<!-- Node46&#45;&gt;Node23 -->
<g id="edge120" class="edge"><title>Node46&#45;&gt;Node23</title>
<path fill="none" stroke="midnightblue" d="M1374.82,-522.181C1382.16,-499.455 1396.03,-445.59 1378,-406 1372.41,-393.717 1361.84,-383.397 1351.53,-375.586"/>
<polygon fill="midnightblue" stroke="midnightblue" points="1353.24,-372.508 1343.04,-369.626 1349.21,-378.237 1353.24,-372.508"/>
</g>
<!-- Node46&#45;&gt;Node29 -->
<g id="edge118" class="edge"><title>Node46&#45;&gt;Node29</title>
<path fill="none" stroke="midnightblue" d="M1383.89,-522.3C1405.09,-503.417 1445,-461.909 1445,-417 1445,-417 1445,-417 1445,-243 1445,-175.643 1355.05,-145.606 1301.97,-133.745"/>
<polygon fill="midnightblue" stroke="midnightblue" points="1302.39,-130.256 1291.88,-131.609 1300.94,-137.105 1302.39,-130.256"/>
</g>
<!-- Node46&#45;&gt;Node43 -->
<g id="edge116" class="edge"><title>Node46&#45;&gt;Node43</title>
<path fill="none" stroke="midnightblue" d="M1355.59,-522.362C1343.04,-513.696 1325.11,-501.313 1310.73,-491.382"/>
<polygon fill="midnightblue" stroke="midnightblue" points="1312.53,-488.372 1302.31,-485.571 1308.55,-494.133 1312.53,-488.372"/>
</g>
</g>
</svg>
        <g id="navigator" transform="translate(0 0)" fill="#404254">
                <rect fill="#f2f5e9" fill-opacity="0.5" stroke="#606060" stroke-width=".5" x="0" y="0" width="60" height="60"/>
                <use id="zoomplus" xlink:href="#zoomPlus" x="17" y="9" onmousedown="handleZoom(evt,'in')"/>
                <use id="zoomminus" xlink:href="#zoomMin" x="42" y="9" onmousedown="handleZoom(evt,'out')"/>
                <use id="reset" xlink:href="#resetDef" x="30" y="36" onmousedown="handleReset()"/>
                <g id="arrowUp" xlink:href="#dirArrow" transform="translate(30 24)" onmousedown="handlePan(0,-1)">
                  <use xlink:href="#rim" fill="#404040">
                        <set attributeName="fill" to="#808080" begin="arrowUp.mouseover" end="arrowUp.mouseout"/>
                  </use>
                  <path fill="none" stroke="white" stroke-width="1.5" d="M0,-3.0v7 M-2.5,-0.5L0,-3.0L2.5,-0.5"/>
                </g>
                <g id="arrowRight" xlink:href="#dirArrow" transform="rotate(90) translate(36 -43)" onmousedown="handlePan(1,0)">
                  <use xlink:href="#rim" fill="#404040">
                        <set attributeName="fill" to="#808080" begin="arrowRight.mouseover" end="arrowRight.mouseout"/>
                  </use>
                  <path fill="none" stroke="white" stroke-width="1.5" d="M0,-3.0v7 M-2.5,-0.5L0,-3.0L2.5,-0.5"/>
                </g>
                <g id="arrowDown" xlink:href="#dirArrow" transform="rotate(180) translate(-30 -48)" onmousedown="handlePan(0,1)">
                  <use xlink:href="#rim" fill="#404040">
                        <set attributeName="fill" to="#808080" begin="arrowDown.mouseover" end="arrowDown.mouseout"/>
                  </use>
                  <path fill="none" stroke="white" stroke-width="1.5" d="M0,-3.0v7 M-2.5,-0.5L0,-3.0L2.5,-0.5"/>
                </g>
                <g id="arrowLeft" xlink:href="#dirArrow" transform="rotate(270) translate(-36 17)" onmousedown="handlePan(-1,0)">
                  <use xlink:href="#rim" fill="#404040">
                        <set attributeName="fill" to="#808080" begin="arrowLeft.mouseover" end="arrowLeft.mouseout"/>
                  </use>
                  <path fill="none" stroke="white" stroke-width="1.5" d="M0,-3.0v7 M-2.5,-0.5L0,-3.0L2.5,-0.5"/>
                </g>
        </g>
</svg>
