<?xml version="1.0" encoding="UTF-8" standalone="no"?>
<!DOCTYPE svg PUBLIC "-//W3C//DTD SVG 1.1//EN"
 "http://www.w3.org/Graphics/SVG/1.1/DTD/svg11.dtd">
<!-- Generated by graphviz version 2.26.3 (20100126.1600)
 -->
<!-- Title: G Pages: 1 -->
<svg width="500pt" height="204pt"
 viewBox="0.00 0.00 500.00 204.00" xmlns="http://www.w3.org/2000/svg" xmlns:xlink="http://www.w3.org/1999/xlink">
<g id="graph1" class="graph" transform="scale(1 1) rotate(0) translate(4 200)">
<title>G</title>
<polygon fill="white" stroke="white" points="-4,5 -4,-200 497,-200 497,5 -4,5"/>
<!-- Node1 -->
<g id="node1" class="node"><title>Node1</title>
<polygon fill="#bfbfbf" stroke="black" points="120,-174.5 120,-195.5 212,-195.5 212,-174.5 120,-174.5"/>
<text text-anchor="middle" x="166" y="-182.5" font-family="FreeSans.ttf" font-size="10.00">h/socketclient.h</text>
</g>
<!-- Node2 -->
<g id="node3" class="node"><title>Node2</title>
<polygon fill="white" stroke="#bfbfbf" points="-0.5,-116.5 -0.5,-137.5 46.5,-137.5 46.5,-116.5 -0.5,-116.5"/>
<text text-anchor="middle" x="23" y="-124.5" font-family="FreeSans.ttf" font-size="10.00">deque</text>
</g>
<!-- Node1&#45;&gt;Node2 -->
<g id="edge2" class="edge"><title>Node1&#45;&gt;Node2</title>
<path fill="none" stroke="midnightblue" d="M140.104,-174.497C116.552,-164.944 81.6711,-150.797 56.1031,-140.426"/>
<polygon fill="midnightblue" stroke="midnightblue" points="57.3853,-137.17 46.803,-136.654 54.7542,-143.656 57.3853,-137.17"/>
</g>
<!-- Node3 -->
<g id="node5" class="node"><title>Node3</title>
<polygon fill="white" stroke="#bfbfbf" points="63.5,-116.5 63.5,-137.5 116.5,-137.5 116.5,-116.5 63.5,-116.5"/>
<text text-anchor="middle" x="90" y="-124.5" font-family="FreeSans.ttf" font-size="10.00">netdb.h</text>
</g>
<!-- Node1&#45;&gt;Node3 -->
<g id="edge4" class="edge"><title>Node1&#45;&gt;Node3</title>
<path fill="none" stroke="midnightblue" d="M152.06,-174.362C140.812,-165.777 124.784,-153.546 111.835,-143.664"/>
<polygon fill="midnightblue" stroke="midnightblue" points="113.924,-140.855 103.851,-137.571 109.677,-146.42 113.924,-140.855"/>
</g>
<!-- Node4 -->
<g id="node7" class="node"><title>Node4</title>
<a xlink:href="account_8h.xhtml" target="_top" xlink:title="The Account class.">
<polygon fill="white" stroke="black" points="134,-116.5 134,-137.5 198,-137.5 198,-116.5 134,-116.5"/>
<text text-anchor="middle" x="166" y="-124.5" font-family="FreeSans.ttf" font-size="10.00">account.h</text>
</a>
</g>
<!-- Node1&#45;&gt;Node4 -->
<g id="edge6" class="edge"><title>Node1&#45;&gt;Node4</title>
<path fill="none" stroke="midnightblue" d="M160.636,-174.362C159.319,-166.922 158.941,-156.743 159.5,-147.728"/>
<polygon fill="midnightblue" stroke="midnightblue" points="163.003,-147.9 160.648,-137.571 156.047,-147.114 163.003,-147.9"/>
</g>
<!-- Node5 -->
<g id="node10" class="node"><title>Node5</title>
<a xlink:href="socket_8h.xhtml" target="_top" xlink:title="The Socket class.">
<polygon fill="white" stroke="black" points="308.5,-0.5 308.5,-21.5 365.5,-21.5 365.5,-0.5 308.5,-0.5"/>
<text text-anchor="middle" x="337" y="-8.5" font-family="FreeSans.ttf" font-size="10.00">socket.h</text>
</a>
</g>
<!-- Node1&#45;&gt;Node5 -->
<g id="edge10" class="edge"><title>Node1&#45;&gt;Node5</title>
<path fill="none" stroke="midnightblue" d="M176.686,-174.485C185.548,-165.384 198.094,-151.583 207,-138 228.584,-105.083 217.571,-86.2324 245,-58 259.764,-42.8042 280.491,-31.6249 298.534,-23.9909"/>
<polygon fill="midnightblue" stroke="midnightblue" points="300.244,-27.0766 308.228,-20.1115 297.643,-20.5777 300.244,-27.0766"/>
</g>
<!-- Node6 -->
<g id="node12" class="node"><title>Node6</title>
<a xlink:href="server_8h.xhtml" target="_top" xlink:title="The Server class.">
<polygon fill="white" stroke="black" points="253.5,-116.5 253.5,-137.5 308.5,-137.5 308.5,-116.5 253.5,-116.5"/>
<text text-anchor="middle" x="281" y="-124.5" font-family="FreeSans.ttf" font-size="10.00">server.h</text>
</a>
</g>
<!-- Node1&#45;&gt;Node6 -->
<g id="edge12" class="edge"><title>Node1&#45;&gt;Node6</title>
<path fill="none" stroke="midnightblue" d="M181.729,-174.362C198.19,-165.246 224.214,-152.018 245.564,-141.857"/>
<polygon fill="midnightblue" stroke="midnightblue" points="247.126,-144.99 254.689,-137.571 244.15,-138.654 247.126,-144.99"/>
</g>
<!-- Node4&#45;&gt;Node1 -->
<g id="edge8" class="edge"><title>Node4&#45;&gt;Node1</title>
<path fill="none" stroke="midnightblue" d="M171.352,-137.571C172.674,-144.994 173.059,-155.168 172.505,-164.191"/>
<polygon fill="midnightblue" stroke="midnightblue" points="169,-164.034 171.364,-174.362 175.957,-164.814 169,-164.034"/>
</g>
<!-- Node6&#45;&gt;Node1 -->
<g id="edge18" class="edge"><title>Node6&#45;&gt;Node1</title>
<path fill="none" stroke="midnightblue" d="M265.302,-137.621C248.808,-146.757 222.691,-160.031 201.304,-170.206"/>
<polygon fill="midnightblue" stroke="midnightblue" points="199.73,-167.078 192.166,-174.497 202.705,-173.415 199.73,-167.078"/>
</g>
<!-- Node7 -->
<g id="node14" class="node"><title>Node7</title>
<polygon fill="white" stroke="#bfbfbf" points="254,-58.5 254,-79.5 300,-79.5 300,-58.5 254,-58.5"/>
<text text-anchor="middle" x="277" y="-66.5" font-family="FreeSans.ttf" font-size="10.00">fcntl.h</text>
</g>
<!-- Node6&#45;&gt;Node7 -->
<g id="edge14" class="edge"><title>Node6&#45;&gt;Node7</title>
<path fill="none" stroke="midnightblue" d="M280.266,-116.362C279.753,-108.922 279.051,-98.7427 278.429,-89.7276"/>
<polygon fill="midnightblue" stroke="midnightblue" points="281.909,-89.3061 277.729,-79.5707 274.925,-89.7878 281.909,-89.3061"/>
</g>
<!-- Node8 -->
<g id="node16" class="node"><title>Node8</title>
<polygon fill="white" stroke="#bfbfbf" points="317.5,-58.5 317.5,-79.5 388.5,-79.5 388.5,-58.5 317.5,-58.5"/>
<text text-anchor="middle" x="353" y="-66.5" font-family="FreeSans.ttf" font-size="10.00">forward_list</text>
</g>
<!-- Node6&#45;&gt;Node8 -->
<g id="edge16" class="edge"><title>Node6&#45;&gt;Node8</title>
<path fill="none" stroke="midnightblue" d="M294.206,-116.362C304.761,-107.859 319.758,-95.7785 331.963,-85.9466"/>
<polygon fill="midnightblue" stroke="midnightblue" points="334.286,-88.5696 339.878,-79.5707 329.895,-83.1183 334.286,-88.5696"/>
</g>
<!-- Node9 -->
<g id="node19" class="node"><title>Node9</title>
<a xlink:href="socketserver_8h.xhtml" target="_top" xlink:title="The SocketServer class.">
<polygon fill="white" stroke="black" points="406,-58.5 406,-79.5 492,-79.5 492,-58.5 406,-58.5"/>
<text text-anchor="middle" x="449" y="-66.5" font-family="FreeSans.ttf" font-size="10.00">socketserver.h</text>
</a>
</g>
<!-- Node6&#45;&gt;Node9 -->
<g id="edge20" class="edge"><title>Node6&#45;&gt;Node9</title>
<path fill="none" stroke="midnightblue" d="M308.742,-117.422C335.989,-108.016 377.851,-93.5633 408.754,-82.8946"/>
<polygon fill="midnightblue" stroke="midnightblue" points="410.059,-86.1467 418.369,-79.5749 407.775,-79.5299 410.059,-86.1467"/>
</g>
<!-- Node9&#45;&gt;Node5 -->
<g id="edge22" class="edge"><title>Node9&#45;&gt;Node5</title>
<path fill="none" stroke="midnightblue" d="M428.718,-58.4966C411.382,-49.5194 386.21,-36.4835 366.62,-26.3387"/>
<polygon fill="midnightblue" stroke="midnightblue" points="367.999,-23.1118 357.51,-21.6212 364.78,-29.3278 367.999,-23.1118"/>
</g>
</g>
</svg>
