<?xml version="1.0" encoding="UTF-8" standalone="no"?>
<!DOCTYPE svg PUBLIC "-//W3C//DTD SVG 1.1//EN"
 "http://www.w3.org/Graphics/SVG/1.1/DTD/svg11.dtd">
<!-- Generated by graphviz version 2.26.3 (20100126.1600)
 -->
<!-- Title: G Pages: 1 -->
<!--zoomable 436 -->
<svg id="main" version="1.1" xmlns="http://www.w3.org/2000/svg" xmlns:xlink="http://www.w3.org/1999/xlink" xml:space="preserve" onload="init(evt)">
        <defs>
                <circle id="rim" cx="0" cy="0" r="7"/>
                <circle id="rim2" cx="0" cy="0" r="3.5"/>
                <g id="zoomPlus">
                        <use xlink:href="#rim" fill="#404040">
                                <set attributeName="fill" to="#808080" begin="zoomplus.mouseover" end="zoomplus.mouseout"/>
                        </use>
                        <path d="M-4,0h8M0,-4v8" fill="none" stroke="white" stroke-width="1.5" pointer-events="none"/>
                </g>
                <g id="zoomMin">
                        <use xlink:href="#rim" fill="#404040">
                                <set attributeName="fill" to="#808080" begin="zoomminus.mouseover" end="zoomminus.mouseout"/>
                        </use>
                        <path d="M-4,0h8" fill="none" stroke="white" stroke-width="1.5" pointer-events="none"/>
                </g>
                <g id="dirArrow">
                        <path fill="none" stroke="white" stroke-width="1.5" d="M0,-3.0v7 M-2.5,-0.5L0,-3.0L2.5,-0.5"/>
                </g>
               <g id="resetDef">
                       <use xlink:href="#rim2" fill="#404040">
                               <set attributeName="fill" to="#808080" begin="reset.mouseover" end="reset.mouseout"/>
                       </use>
               </g>
        </defs>

<script type="text/javascript">
var viewWidth = 1331;
var viewHeight = 436;
var sectionId = 'dynsection-0';
</script>
<script xlink:href="svgpan.js"/>
<svg id="graph" class="graph">
<g id="viewport">
<title>G</title>
<polygon fill="white" stroke="white" points="-4,5 -4,-432 1328,-432 1328,5 -4,5"/>
<!-- Node1 -->
<g id="node1" class="node"><title>Node1</title>
<polygon fill="#bfbfbf" stroke="black" points="1160,-406.5 1160,-427.5 1258,-427.5 1258,-406.5 1160,-406.5"/>
<text text-anchor="middle" x="1209" y="-414.5" font-family="FreeSans.ttf" font-size="10.00">socketserver.cpp</text>
</g>
<!-- Node2 -->
<g id="node3" class="node"><title>Node2</title>
<a xlink:href="includes_8h.xhtml" target="_top" xlink:title="All non&#45;system includes that need to be within each .cpp file.">
<polygon fill="white" stroke="black" points="682,-348.5 682,-369.5 756,-369.5 756,-348.5 682,-348.5"/>
<text text-anchor="middle" x="719" y="-356.5" font-family="FreeSans.ttf" font-size="10.00">h/includes.h</text>
</a>
</g>
<!-- Node1&#45;&gt;Node2 -->
<g id="edge2" class="edge"><title>Node1&#45;&gt;Node2</title>
<path fill="none" stroke="midnightblue" d="M1159.77,-411.173C1065.15,-399.973 859.046,-375.577 766.113,-364.577"/>
<polygon fill="midnightblue" stroke="midnightblue" points="766.492,-361.097 756.15,-363.397 765.67,-368.049 766.492,-361.097"/>
</g>
<!-- Node19 -->
<g id="node37" class="node"><title>Node19</title>
<a xlink:href="class_8h.xhtml" target="_top" xlink:title="All class declarations.">
<polygon fill="white" stroke="black" points="1012,-174.5 1012,-195.5 1062,-195.5 1062,-174.5 1012,-174.5"/>
<text text-anchor="middle" x="1037" y="-182.5" font-family="FreeSans.ttf" font-size="10.00">class.h</text>
</a>
</g>
<!-- Node1&#45;&gt;Node19 -->
<g id="edge86" class="edge"><title>Node1&#45;&gt;Node19</title>
<path fill="none" stroke="midnightblue" d="M1205.79,-406.363C1193.98,-367.267 1153.55,-233.693 1152,-232 1131.15,-209.2 1097.62,-197.199 1072.13,-191.051"/>
<polygon fill="midnightblue" stroke="midnightblue" points="1072.63,-187.577 1062.11,-188.831 1071.12,-194.411 1072.63,-187.577"/>
</g>
<!-- Node27 -->
<g id="node54" class="node"><title>Node27</title>
<a xlink:href="server_8h.xhtml" target="_top" xlink:title="The Server class.">
<polygon fill="white" stroke="black" points="452.5,-116.5 452.5,-137.5 507.5,-137.5 507.5,-116.5 452.5,-116.5"/>
<text text-anchor="middle" x="480" y="-124.5" font-family="FreeSans.ttf" font-size="10.00">server.h</text>
</a>
</g>
<!-- Node1&#45;&gt;Node27 -->
<g id="edge94" class="edge"><title>Node1&#45;&gt;Node27</title>
<path fill="none" stroke="midnightblue" d="M1209,-406.444C1209,-386.062 1209,-339.868 1209,-301 1209,-301 1209,-301 1209,-243 1209,-174.427 1137.06,-192.39 1071,-174 966.176,-144.819 631.375,-131.78 517.973,-128.124"/>
<polygon fill="midnightblue" stroke="midnightblue" points="517.81,-124.618 507.705,-127.8 517.589,-131.614 517.81,-124.618"/>
</g>
<!-- Node30 -->
<g id="node61" class="node"><title>Node30</title>
<a xlink:href="socketserver_8h.xhtml" target="_top" xlink:title="The SocketServer class.">
<polygon fill="white" stroke="black" points="479,-58.5 479,-79.5 565,-79.5 565,-58.5 479,-58.5"/>
<text text-anchor="middle" x="522" y="-66.5" font-family="FreeSans.ttf" font-size="10.00">socketserver.h</text>
</a>
</g>
<!-- Node1&#45;&gt;Node30 -->
<g id="edge88" class="edge"><title>Node1&#45;&gt;Node30</title>
<path fill="none" stroke="midnightblue" d="M1215.11,-406.191C1225.85,-386.127 1247,-341.477 1247,-301 1247,-301 1247,-301 1247,-185 1247,-116.954 742.602,-81.7186 575.242,-71.9002"/>
<polygon fill="midnightblue" stroke="midnightblue" points="575.367,-68.4016 565.181,-71.3169 574.961,-75.3899 575.367,-68.4016"/>
</g>
<!-- Node41 -->
<g id="node86" class="node"><title>Node41</title>
<a xlink:href="list_8h.xhtml" target="_top" xlink:title="All globally referenced list / map / vector types.">
<polygon fill="white" stroke="black" points="1275,-348.5 1275,-369.5 1323,-369.5 1323,-348.5 1275,-348.5"/>
<text text-anchor="middle" x="1299" y="-356.5" font-family="FreeSans.ttf" font-size="10.00">h/list.h</text>
</a>
</g>
<!-- Node1&#45;&gt;Node41 -->
<g id="edge90" class="edge"><title>Node1&#45;&gt;Node41</title>
<path fill="none" stroke="midnightblue" d="M1225.51,-406.362C1239.08,-397.614 1258.53,-385.079 1274.01,-375.101"/>
<polygon fill="midnightblue" stroke="midnightblue" points="1276.09,-377.93 1282.6,-369.571 1272.3,-372.046 1276.09,-377.93"/>
</g>
<!-- Node3 -->
<g id="node5" class="node"><title>Node3</title>
<a xlink:href="sysincludes_8h.xhtml" target="_top" xlink:title="All system standard includes that are used within NAMS.">
<polygon fill="white" stroke="black" points="835,-290.5 835,-311.5 915,-311.5 915,-290.5 835,-290.5"/>
<text text-anchor="middle" x="875" y="-298.5" font-family="FreeSans.ttf" font-size="10.00">sysincludes.h</text>
</a>
</g>
<!-- Node2&#45;&gt;Node3 -->
<g id="edge4" class="edge"><title>Node2&#45;&gt;Node3</title>
<path fill="none" stroke="midnightblue" d="M747.25,-348.497C772.462,-339.123 809.576,-325.324 837.312,-315.012"/>
<polygon fill="midnightblue" stroke="midnightblue" points="838.543,-318.289 846.697,-311.523 836.104,-311.727 838.543,-318.289"/>
</g>
<!-- Node12 -->
<g id="node23" class="node"><title>Node12</title>
<a xlink:href="limits_8h.xhtml" target="_top" xlink:title="Custom defined numeric types and system limits.">
<polygon fill="white" stroke="black" points="544.5,-290.5 544.5,-311.5 595.5,-311.5 595.5,-290.5 544.5,-290.5"/>
<text text-anchor="middle" x="570" y="-298.5" font-family="FreeSans.ttf" font-size="10.00">limits.h</text>
</a>
</g>
<!-- Node2&#45;&gt;Node12 -->
<g id="edge22" class="edge"><title>Node2&#45;&gt;Node12</title>
<path fill="none" stroke="midnightblue" d="M692.017,-348.497C667.668,-339.018 631.697,-325.016 605.115,-314.669"/>
<polygon fill="midnightblue" stroke="midnightblue" points="606.374,-311.403 595.785,-311.037 603.834,-317.926 606.374,-311.403"/>
</g>
<!-- Node14 -->
<g id="node27" class="node"><title>Node14</title>
<a xlink:href="macros_8h.xhtml" target="_top" xlink:title="All pre&#45;processor macros within NAMS and select reference values.">
<polygon fill="white" stroke="black" points="613,-290.5 613,-311.5 675,-311.5 675,-290.5 613,-290.5"/>
<text text-anchor="middle" x="644" y="-298.5" font-family="FreeSans.ttf" font-size="10.00">macros.h</text>
</a>
</g>
<!-- Node2&#45;&gt;Node14 -->
<g id="edge26" class="edge"><title>Node2&#45;&gt;Node14</title>
<path fill="none" stroke="midnightblue" d="M705.244,-348.362C694.249,-339.859 678.627,-327.779 665.914,-317.947"/>
<polygon fill="midnightblue" stroke="midnightblue" points="667.721,-314.919 657.669,-311.571 663.438,-320.457 667.721,-314.919"/>
</g>
<!-- Node15 -->
<g id="node29" class="node"><title>Node15</title>
<a xlink:href="enum_8h.xhtml" target="_top" xlink:title="All numerical and boolean defines for every class and namespace.">
<polygon fill="white" stroke="black" points="692.5,-290.5 692.5,-311.5 745.5,-311.5 745.5,-290.5 692.5,-290.5"/>
<text text-anchor="middle" x="719" y="-298.5" font-family="FreeSans.ttf" font-size="10.00">enum.h</text>
</a>
</g>
<!-- Node2&#45;&gt;Node15 -->
<g id="edge28" class="edge"><title>Node2&#45;&gt;Node15</title>
<path fill="none" stroke="midnightblue" d="M719,-348.362C719,-340.922 719,-330.743 719,-321.728"/>
<polygon fill="midnightblue" stroke="midnightblue" points="722.5,-321.571 719,-311.571 715.5,-321.571 722.5,-321.571"/>
</g>
<!-- Node16 -->
<g id="node31" class="node"><title>Node16</title>
<a xlink:href="config_8h.xhtml" target="_top" xlink:title="NAMS configuration options.">
<polygon fill="white" stroke="black" points="763,-290.5 763,-311.5 817,-311.5 817,-290.5 763,-290.5"/>
<text text-anchor="middle" x="790" y="-298.5" font-family="FreeSans.ttf" font-size="10.00">config.h</text>
</a>
</g>
<!-- Node2&#45;&gt;Node16 -->
<g id="edge30" class="edge"><title>Node2&#45;&gt;Node16</title>
<path fill="none" stroke="midnightblue" d="M732.022,-348.362C742.431,-339.859 757.219,-327.779 769.255,-317.947"/>
<polygon fill="midnightblue" stroke="midnightblue" points="771.53,-320.608 777.06,-311.571 767.101,-315.187 771.53,-320.608"/>
</g>
<!-- Node17 -->
<g id="node33" class="node"><title>Node17</title>
<a xlink:href="namespace_8h.xhtml" target="_top" xlink:title="All namespace includes.">
<polygon fill="white" stroke="black" points="418,-290.5 418,-311.5 500,-311.5 500,-290.5 418,-290.5"/>
<text text-anchor="middle" x="459" y="-298.5" font-family="FreeSans.ttf" font-size="10.00">namespace.h</text>
</a>
</g>
<!-- Node2&#45;&gt;Node17 -->
<g id="edge32" class="edge"><title>Node2&#45;&gt;Node17</title>
<path fill="none" stroke="midnightblue" d="M681.748,-350.69C636.69,-340.639 560.615,-323.668 510.101,-312.399"/>
<polygon fill="midnightblue" stroke="midnightblue" points="510.565,-308.917 500.043,-310.156 509.041,-315.749 510.565,-308.917"/>
</g>
<!-- Node4 -->
<g id="node7" class="node"><title>Node4</title>
<polygon fill="white" stroke="#bfbfbf" points="609,-232.5 609,-253.5 671,-253.5 671,-232.5 609,-232.5"/>
<text text-anchor="middle" x="640" y="-240.5" font-family="FreeSans.ttf" font-size="10.00">algorithm</text>
</g>
<!-- Node3&#45;&gt;Node4 -->
<g id="edge6" class="edge"><title>Node3&#45;&gt;Node4</title>
<path fill="none" stroke="midnightblue" d="M834.947,-291.74C797.543,-283.004 739.924,-269.324 681.227,-254.268"/>
<polygon fill="midnightblue" stroke="midnightblue" points="681.975,-250.847 671.418,-251.741 680.229,-257.625 681.975,-250.847"/>
</g>
<!-- Node5 -->
<g id="node9" class="node"><title>Node5</title>
<polygon fill="white" stroke="#bfbfbf" points="689,-232.5 689,-253.5 739,-253.5 739,-232.5 689,-232.5"/>
<text text-anchor="middle" x="714" y="-240.5" font-family="FreeSans.ttf" font-size="10.00">chrono</text>
</g>
<!-- Node3&#45;&gt;Node5 -->
<g id="edge8" class="edge"><title>Node3&#45;&gt;Node5</title>
<path fill="none" stroke="midnightblue" d="M845.844,-290.497C818.608,-280.685 777.914,-266.025 748.949,-255.59"/>
<polygon fill="midnightblue" stroke="midnightblue" points="749.828,-252.187 739.234,-252.09 747.456,-258.773 749.828,-252.187"/>
</g>
<!-- Node6 -->
<g id="node11" class="node"><title>Node6</title>
<polygon fill="white" stroke="#bfbfbf" points="757,-232.5 757,-253.5 787,-253.5 787,-232.5 757,-232.5"/>
<text text-anchor="middle" x="772" y="-240.5" font-family="FreeSans.ttf" font-size="10.00">list</text>
</g>
<!-- Node3&#45;&gt;Node6 -->
<g id="edge10" class="edge"><title>Node3&#45;&gt;Node6</title>
<path fill="none" stroke="midnightblue" d="M856.108,-290.362C839.194,-280.838 814.309,-266.824 795.993,-256.511"/>
<polygon fill="midnightblue" stroke="midnightblue" points="797.522,-253.355 787.091,-251.498 794.087,-259.454 797.522,-253.355"/>
</g>
<!-- Node7 -->
<g id="node13" class="node"><title>Node7</title>
<polygon fill="white" stroke="#bfbfbf" points="805,-232.5 805,-253.5 843,-253.5 843,-232.5 805,-232.5"/>
<text text-anchor="middle" x="824" y="-240.5" font-family="FreeSans.ttf" font-size="10.00">map</text>
</g>
<!-- Node3&#45;&gt;Node7 -->
<g id="edge12" class="edge"><title>Node3&#45;&gt;Node7</title>
<path fill="none" stroke="midnightblue" d="M865.646,-290.362C858.457,-282.186 848.359,-270.702 839.907,-261.091"/>
<polygon fill="midnightblue" stroke="midnightblue" points="842.527,-258.769 833.295,-253.571 837.27,-263.392 842.527,-258.769"/>
</g>
<!-- Node8 -->
<g id="node15" class="node"><title>Node8</title>
<polygon fill="white" stroke="#bfbfbf" points="860.5,-232.5 860.5,-253.5 907.5,-253.5 907.5,-232.5 860.5,-232.5"/>
<text text-anchor="middle" x="884" y="-240.5" font-family="FreeSans.ttf" font-size="10.00">vector</text>
</g>
<!-- Node3&#45;&gt;Node8 -->
<g id="edge14" class="edge"><title>Node3&#45;&gt;Node8</title>
<path fill="none" stroke="midnightblue" d="M876.651,-290.362C877.805,-282.922 879.385,-272.743 880.784,-263.728"/>
<polygon fill="midnightblue" stroke="midnightblue" points="884.285,-263.989 882.36,-253.571 877.368,-262.916 884.285,-263.989"/>
</g>
<!-- Node9 -->
<g id="node17" class="node"><title>Node9</title>
<polygon fill="white" stroke="#bfbfbf" points="925,-232.5 925,-253.5 993,-253.5 993,-232.5 925,-232.5"/>
<text text-anchor="middle" x="959" y="-240.5" font-family="FreeSans.ttf" font-size="10.00">arpa/inet.h</text>
</g>
<!-- Node3&#45;&gt;Node9 -->
<g id="edge16" class="edge"><title>Node3&#45;&gt;Node9</title>
<path fill="none" stroke="midnightblue" d="M890.407,-290.362C902.958,-281.696 920.892,-269.313 935.275,-259.382"/>
<polygon fill="midnightblue" stroke="midnightblue" points="937.45,-262.133 943.691,-253.571 933.473,-256.372 937.45,-262.133"/>
</g>
<!-- Node10 -->
<g id="node19" class="node"><title>Node10</title>
<polygon fill="white" stroke="#bfbfbf" points="1010.5,-232.5 1010.5,-253.5 1061.5,-253.5 1061.5,-232.5 1010.5,-232.5"/>
<text text-anchor="middle" x="1036" y="-240.5" font-family="FreeSans.ttf" font-size="10.00">errno.h</text>
</g>
<!-- Node3&#45;&gt;Node10 -->
<g id="edge18" class="edge"><title>Node3&#45;&gt;Node10</title>
<path fill="none" stroke="midnightblue" d="M904.156,-290.497C931.23,-280.743 971.602,-266.199 1000.53,-255.777"/>
<polygon fill="midnightblue" stroke="midnightblue" points="1002.03,-258.959 1010.25,-252.277 999.654,-252.373 1002.03,-258.959"/>
</g>
<!-- Node11 -->
<g id="node21" class="node"><title>Node11</title>
<polygon fill="white" stroke="#bfbfbf" points="1078.5,-232.5 1078.5,-253.5 1143.5,-253.5 1143.5,-232.5 1078.5,-232.5"/>
<text text-anchor="middle" x="1111" y="-240.5" font-family="FreeSans.ttf" font-size="10.00">memory.h</text>
</g>
<!-- Node3&#45;&gt;Node11 -->
<g id="edge20" class="edge"><title>Node3&#45;&gt;Node11</title>
<path fill="none" stroke="midnightblue" d="M915.035,-291.667C952.425,-282.88 1010.03,-269.162 1068.57,-254.329"/>
<polygon fill="midnightblue" stroke="midnightblue" points="1069.52,-257.698 1078.35,-251.842 1067.79,-250.914 1069.52,-257.698"/>
</g>
<!-- Node13 -->
<g id="node25" class="node"><title>Node13</title>
<polygon fill="white" stroke="#bfbfbf" points="549,-232.5 549,-253.5 591,-253.5 591,-232.5 549,-232.5"/>
<text text-anchor="middle" x="570" y="-240.5" font-family="FreeSans.ttf" font-size="10.00">limits</text>
</g>
<!-- Node12&#45;&gt;Node13 -->
<g id="edge24" class="edge"><title>Node12&#45;&gt;Node13</title>
<path fill="none" stroke="midnightblue" d="M570,-290.362C570,-282.922 570,-272.743 570,-263.728"/>
<polygon fill="midnightblue" stroke="midnightblue" points="573.5,-263.571 570,-253.571 566.5,-263.571 573.5,-263.571"/>
</g>
<!-- Node18 -->
<g id="node35" class="node"><title>Node18</title>
<a xlink:href="handler_8h.xhtml" target="_top" xlink:title="The Handler namespace.">
<polygon fill="white" stroke="black" points="470.5,-232.5 470.5,-253.5 531.5,-253.5 531.5,-232.5 470.5,-232.5"/>
<text text-anchor="middle" x="501" y="-240.5" font-family="FreeSans.ttf" font-size="10.00">handler.h</text>
</a>
</g>
<!-- Node17&#45;&gt;Node18 -->
<g id="edge34" class="edge"><title>Node17&#45;&gt;Node18</title>
<path fill="none" stroke="midnightblue" d="M466.703,-290.362C472.446,-282.431 480.443,-271.389 487.27,-261.961"/>
<polygon fill="midnightblue" stroke="midnightblue" points="490.315,-263.723 493.345,-253.571 484.645,-259.617 490.315,-263.723"/>
</g>
<!-- Node20 -->
<g id="node39" class="node"><title>Node20</title>
<a xlink:href="telopt_8h.xhtml" target="_top" xlink:title="The telopt namespace.">
<polygon fill="white" stroke="black" points="173.5,-232.5 173.5,-253.5 226.5,-253.5 226.5,-232.5 173.5,-232.5"/>
<text text-anchor="middle" x="200" y="-240.5" font-family="FreeSans.ttf" font-size="10.00">telopt.h</text>
</a>
</g>
<!-- Node17&#45;&gt;Node20 -->
<g id="edge38" class="edge"><title>Node17&#45;&gt;Node20</title>
<path fill="none" stroke="midnightblue" d="M417.961,-291.81C367.995,-280.62 284.374,-261.894 236.538,-251.182"/>
<polygon fill="midnightblue" stroke="midnightblue" points="237.137,-247.73 226.614,-248.96 235.607,-254.561 237.137,-247.73"/>
</g>
<!-- Node31 -->
<g id="node64" class="node"><title>Node31</title>
<a xlink:href="utils_8h.xhtml" target="_top" xlink:title="The Utils namespace.">
<polygon fill="white" stroke="black" points="408.5,-232.5 408.5,-253.5 453.5,-253.5 453.5,-232.5 408.5,-232.5"/>
<text text-anchor="middle" x="431" y="-240.5" font-family="FreeSans.ttf" font-size="10.00">utils.h</text>
</a>
</g>
<!-- Node17&#45;&gt;Node31 -->
<g id="edge66" class="edge"><title>Node17&#45;&gt;Node31</title>
<path fill="none" stroke="midnightblue" d="M453.864,-290.362C450.154,-282.677 445.033,-272.069 440.578,-262.84"/>
<polygon fill="midnightblue" stroke="midnightblue" points="443.603,-261.055 436.103,-253.571 437.299,-264.098 443.603,-261.055"/>
</g>
<!-- Node18&#45;&gt;Node19 -->
<g id="edge36" class="edge"><title>Node18&#45;&gt;Node19</title>
<path fill="none" stroke="midnightblue" d="M531.533,-233.825C534.38,-233.14 537.234,-232.517 540,-232 628.984,-215.385 903.658,-194.592 1001.74,-187.501"/>
<polygon fill="midnightblue" stroke="midnightblue" points="1002.02,-190.99 1011.74,-186.782 1001.52,-184.008 1002.02,-190.99"/>
</g>
<!-- Node21 -->
<g id="node41" class="node"><title>Node21</title>
<polygon fill="white" stroke="#bfbfbf" points="161,-174.5 161,-195.5 239,-195.5 239,-174.5 161,-174.5"/>
<text text-anchor="middle" x="200" y="-182.5" font-family="FreeSans.ttf" font-size="10.00">arpa/telnet.h</text>
</g>
<!-- Node20&#45;&gt;Node21 -->
<g id="edge40" class="edge"><title>Node20&#45;&gt;Node21</title>
<path fill="none" stroke="midnightblue" d="M200,-232.362C200,-224.922 200,-214.743 200,-205.728"/>
<polygon fill="midnightblue" stroke="midnightblue" points="203.5,-205.571 200,-195.571 196.5,-205.571 203.5,-205.571"/>
</g>
<!-- Node22 -->
<g id="node43" class="node"><title>Node22</title>
<a xlink:href="socketclient_8h.xhtml" target="_top" xlink:title="The SocketClient class.">
<polygon fill="white" stroke="black" points="60.5,-174.5 60.5,-195.5 143.5,-195.5 143.5,-174.5 60.5,-174.5"/>
<text text-anchor="middle" x="102" y="-182.5" font-family="FreeSans.ttf" font-size="10.00">socketclient.h</text>
</a>
</g>
<!-- Node20&#45;&gt;Node22 -->
<g id="edge42" class="edge"><title>Node20&#45;&gt;Node22</title>
<path fill="none" stroke="midnightblue" d="M182.025,-232.362C167.106,-223.532 145.667,-210.844 128.734,-200.822"/>
<polygon fill="midnightblue" stroke="midnightblue" points="130.249,-197.652 119.861,-195.571 126.684,-203.676 130.249,-197.652"/>
</g>
<!-- Node23 -->
<g id="node45" class="node"><title>Node23</title>
<polygon fill="white" stroke="#bfbfbf" points="189.5,-116.5 189.5,-137.5 236.5,-137.5 236.5,-116.5 189.5,-116.5"/>
<text text-anchor="middle" x="213" y="-124.5" font-family="FreeSans.ttf" font-size="10.00">deque</text>
</g>
<!-- Node22&#45;&gt;Node23 -->
<g id="edge44" class="edge"><title>Node22&#45;&gt;Node23</title>
<path fill="none" stroke="midnightblue" d="M122.101,-174.497C139.282,-165.519 164.23,-152.484 183.645,-142.339"/>
<polygon fill="midnightblue" stroke="midnightblue" points="185.431,-145.354 192.673,-137.621 182.189,-139.15 185.431,-145.354"/>
</g>
<!-- Node24 -->
<g id="node47" class="node"><title>Node24</title>
<polygon fill="white" stroke="#bfbfbf" points="-0.5,-116.5 -0.5,-137.5 52.5,-137.5 52.5,-116.5 -0.5,-116.5"/>
<text text-anchor="middle" x="26" y="-124.5" font-family="FreeSans.ttf" font-size="10.00">netdb.h</text>
</g>
<!-- Node22&#45;&gt;Node24 -->
<g id="edge46" class="edge"><title>Node22&#45;&gt;Node24</title>
<path fill="none" stroke="midnightblue" d="M88.0604,-174.362C76.8116,-165.777 60.7842,-153.546 47.835,-143.664"/>
<polygon fill="midnightblue" stroke="midnightblue" points="49.9241,-140.855 39.8512,-137.571 45.6774,-146.42 49.9241,-140.855"/>
</g>
<!-- Node25 -->
<g id="node49" class="node"><title>Node25</title>
<a xlink:href="account_8h.xhtml" target="_top" xlink:title="The Account class.">
<polygon fill="white" stroke="black" points="70,-116.5 70,-137.5 134,-137.5 134,-116.5 70,-116.5"/>
<text text-anchor="middle" x="102" y="-124.5" font-family="FreeSans.ttf" font-size="10.00">account.h</text>
</a>
</g>
<!-- Node22&#45;&gt;Node25 -->
<g id="edge48" class="edge"><title>Node22&#45;&gt;Node25</title>
<path fill="none" stroke="midnightblue" d="M96.6359,-174.362C95.3194,-166.922 94.9408,-156.743 95.5003,-147.728"/>
<polygon fill="midnightblue" stroke="midnightblue" points="99.0029,-147.9 96.6479,-137.571 92.0472,-147.114 99.0029,-147.9"/>
</g>
<!-- Node26 -->
<g id="node52" class="node"><title>Node26</title>
<a xlink:href="socket_8h.xhtml" target="_top" xlink:title="The Socket class.">
<polygon fill="white" stroke="black" points="313.5,-0.5 313.5,-21.5 370.5,-21.5 370.5,-0.5 313.5,-0.5"/>
<text text-anchor="middle" x="342" y="-8.5" font-family="FreeSans.ttf" font-size="10.00">socket.h</text>
</a>
</g>
<!-- Node22&#45;&gt;Node26 -->
<g id="edge52" class="edge"><title>Node22&#45;&gt;Node26</title>
<path fill="none" stroke="midnightblue" d="M113.09,-174.424C128.004,-160.415 155.59,-135.233 181,-116 226.286,-81.722 282.52,-46.6114 315.128,-26.9267"/>
<polygon fill="midnightblue" stroke="midnightblue" points="317.288,-29.712 324.06,-21.5639 313.685,-23.7105 317.288,-29.712"/>
</g>
<!-- Node22&#45;&gt;Node27 -->
<g id="edge54" class="edge"><title>Node22&#45;&gt;Node27</title>
<path fill="none" stroke="midnightblue" d="M140.355,-174.488C141.243,-174.322 142.125,-174.159 143,-174 250.549,-154.492 379.14,-138.051 441.969,-130.87"/>
<polygon fill="midnightblue" stroke="midnightblue" points="442.651,-134.316 452.197,-129.718 441.868,-127.36 442.651,-134.316"/>
</g>
<!-- Node25&#45;&gt;Node22 -->
<g id="edge50" class="edge"><title>Node25&#45;&gt;Node22</title>
<path fill="none" stroke="midnightblue" d="M107.352,-137.571C108.674,-144.994 109.059,-155.168 108.505,-164.191"/>
<polygon fill="midnightblue" stroke="midnightblue" points="105,-164.034 107.364,-174.362 111.957,-164.814 105,-164.034"/>
</g>
<!-- Node27&#45;&gt;Node22 -->
<g id="edge60" class="edge"><title>Node27&#45;&gt;Node22</title>
<path fill="none" stroke="midnightblue" d="M452.163,-130.928C396.452,-138.139 268.262,-154.544 161,-174 158.551,-174.444 156.04,-174.923 153.498,-175.423"/>
<polygon fill="midnightblue" stroke="midnightblue" points="152.705,-172.012 143.602,-177.432 154.098,-178.872 152.705,-172.012"/>
</g>
<!-- Node28 -->
<g id="node56" class="node"><title>Node28</title>
<polygon fill="white" stroke="#bfbfbf" points="415,-58.5 415,-79.5 461,-79.5 461,-58.5 415,-58.5"/>
<text text-anchor="middle" x="438" y="-66.5" font-family="FreeSans.ttf" font-size="10.00">fcntl.h</text>
</g>
<!-- Node27&#45;&gt;Node28 -->
<g id="edge56" class="edge"><title>Node27&#45;&gt;Node28</title>
<path fill="none" stroke="midnightblue" d="M472.297,-116.362C466.554,-108.431 458.557,-97.3885 451.73,-87.9606"/>
<polygon fill="midnightblue" stroke="midnightblue" points="454.355,-85.6173 445.655,-79.5707 448.685,-89.7229 454.355,-85.6173"/>
</g>
<!-- Node29 -->
<g id="node58" class="node"><title>Node29</title>
<polygon fill="white" stroke="#bfbfbf" points="1031.5,-58.5 1031.5,-79.5 1102.5,-79.5 1102.5,-58.5 1031.5,-58.5"/>
<text text-anchor="middle" x="1067" y="-66.5" font-family="FreeSans.ttf" font-size="10.00">forward_list</text>
</g>
<!-- Node27&#45;&gt;Node29 -->
<g id="edge58" class="edge"><title>Node27&#45;&gt;Node29</title>
<path fill="none" stroke="midnightblue" d="M507.525,-124.28C600.705,-115.073 904.932,-85.0135 1021.23,-73.5224"/>
<polygon fill="midnightblue" stroke="midnightblue" points="1021.63,-77.0002 1031.24,-72.5338 1020.94,-70.0342 1021.63,-77.0002"/>
</g>
<!-- Node27&#45;&gt;Node30 -->
<g id="edge62" class="edge"><title>Node27&#45;&gt;Node30</title>
<path fill="none" stroke="midnightblue" d="M487.703,-116.362C493.446,-108.431 501.443,-97.3885 508.27,-87.9606"/>
<polygon fill="midnightblue" stroke="midnightblue" points="511.315,-89.7229 514.345,-79.5707 505.645,-85.6173 511.315,-89.7229"/>
</g>
<!-- Node30&#45;&gt;Node26 -->
<g id="edge64" class="edge"><title>Node30&#45;&gt;Node26</title>
<path fill="none" stroke="midnightblue" d="M489.403,-58.4966C458.646,-48.586 412.538,-33.7288 380.097,-23.2758"/>
<polygon fill="midnightblue" stroke="midnightblue" points="381.092,-19.9192 370.501,-20.1835 378.945,-26.5819 381.092,-19.9192"/>
</g>
<!-- Node32 -->
<g id="node66" class="node"><title>Node32</title>
<polygon fill="white" stroke="#bfbfbf" points="699,-174.5 699,-195.5 743,-195.5 743,-174.5 699,-174.5"/>
<text text-anchor="middle" x="721" y="-182.5" font-family="FreeSans.ttf" font-size="10.00">bitset</text>
</g>
<!-- Node31&#45;&gt;Node32 -->
<g id="edge68" class="edge"><title>Node31&#45;&gt;Node32</title>
<path fill="none" stroke="midnightblue" d="M453.538,-234.461C456.364,-233.551 459.233,-232.703 462,-232 558.323,-207.529 588.68,-220.392 688.881,-195.917"/>
<polygon fill="midnightblue" stroke="midnightblue" points="689.952,-199.257 698.8,-193.43 688.249,-192.467 689.952,-199.257"/>
</g>
<!-- Node33 -->
<g id="node68" class="node"><title>Node33</title>
<polygon fill="white" stroke="#bfbfbf" points="760.5,-174.5 760.5,-195.5 813.5,-195.5 813.5,-174.5 760.5,-174.5"/>
<text text-anchor="middle" x="787" y="-182.5" font-family="FreeSans.ttf" font-size="10.00">cstdarg</text>
</g>
<!-- Node31&#45;&gt;Node33 -->
<g id="edge70" class="edge"><title>Node31&#45;&gt;Node33</title>
<path fill="none" stroke="midnightblue" d="M453.516,-234.372C456.345,-233.477 459.221,-232.657 462,-232 585.182,-202.866 623.163,-222.526 750.263,-196.075"/>
<polygon fill="midnightblue" stroke="midnightblue" points="751.333,-199.425 760.381,-193.912 749.87,-192.58 751.333,-199.425"/>
</g>
<!-- Node34 -->
<g id="node70" class="node"><title>Node34</title>
<polygon fill="white" stroke="#bfbfbf" points="830.5,-174.5 830.5,-195.5 875.5,-195.5 875.5,-174.5 830.5,-174.5"/>
<text text-anchor="middle" x="853" y="-182.5" font-family="FreeSans.ttf" font-size="10.00">cstdio</text>
</g>
<!-- Node31&#45;&gt;Node34 -->
<g id="edge72" class="edge"><title>Node31&#45;&gt;Node34</title>
<path fill="none" stroke="midnightblue" d="M453.502,-234.307C456.333,-233.424 459.214,-232.624 462,-232 615.693,-197.579 663.148,-229.765 820.47,-195.908"/>
<polygon fill="midnightblue" stroke="midnightblue" points="821.488,-199.267 830.498,-193.693 819.979,-192.432 821.488,-199.267"/>
</g>
<!-- Node35 -->
<g id="node72" class="node"><title>Node35</title>
<polygon fill="white" stroke="#bfbfbf" points="257,-174.5 257,-195.5 311,-195.5 311,-174.5 257,-174.5"/>
<text text-anchor="middle" x="284" y="-182.5" font-family="FreeSans.ttf" font-size="10.00">fstream</text>
</g>
<!-- Node31&#45;&gt;Node35 -->
<g id="edge74" class="edge"><title>Node31&#45;&gt;Node35</title>
<path fill="none" stroke="midnightblue" d="M408.353,-234.065C384.796,-224.77 347.567,-210.081 319.977,-199.195"/>
<polygon fill="midnightblue" stroke="midnightblue" points="321.245,-195.933 310.659,-195.518 318.676,-202.444 321.245,-195.933"/>
</g>
<!-- Node36 -->
<g id="node74" class="node"><title>Node36</title>
<polygon fill="white" stroke="#bfbfbf" points="328.5,-174.5 328.5,-195.5 387.5,-195.5 387.5,-174.5 328.5,-174.5"/>
<text text-anchor="middle" x="358" y="-182.5" font-family="FreeSans.ttf" font-size="10.00">iostream</text>
</g>
<!-- Node31&#45;&gt;Node36 -->
<g id="edge76" class="edge"><title>Node31&#45;&gt;Node36</title>
<path fill="none" stroke="midnightblue" d="M417.611,-232.362C406.909,-223.859 391.704,-211.779 379.329,-201.947"/>
<polygon fill="midnightblue" stroke="midnightblue" points="381.311,-199.051 371.304,-195.571 376.957,-204.532 381.311,-199.051"/>
</g>
<!-- Node37 -->
<g id="node76" class="node"><title>Node37</title>
<polygon fill="white" stroke="#bfbfbf" points="405,-174.5 405,-195.5 457,-195.5 457,-174.5 405,-174.5"/>
<text text-anchor="middle" x="431" y="-182.5" font-family="FreeSans.ttf" font-size="10.00">iterator</text>
</g>
<!-- Node31&#45;&gt;Node37 -->
<g id="edge78" class="edge"><title>Node31&#45;&gt;Node37</title>
<path fill="none" stroke="midnightblue" d="M431,-232.362C431,-224.922 431,-214.743 431,-205.728"/>
<polygon fill="midnightblue" stroke="midnightblue" points="434.5,-205.571 431,-195.571 427.5,-205.571 434.5,-205.571"/>
</g>
<!-- Node38 -->
<g id="node78" class="node"><title>Node38</title>
<polygon fill="white" stroke="#bfbfbf" points="475,-174.5 475,-195.5 531,-195.5 531,-174.5 475,-174.5"/>
<text text-anchor="middle" x="503" y="-182.5" font-family="FreeSans.ttf" font-size="10.00">sstream</text>
</g>
<!-- Node31&#45;&gt;Node38 -->
<g id="edge80" class="edge"><title>Node31&#45;&gt;Node38</title>
<path fill="none" stroke="midnightblue" d="M444.206,-232.362C454.761,-223.859 469.758,-211.779 481.963,-201.947"/>
<polygon fill="midnightblue" stroke="midnightblue" points="484.286,-204.57 489.878,-195.571 479.895,-199.118 484.286,-204.57"/>
</g>
<!-- Node39 -->
<g id="node80" class="node"><title>Node39</title>
<polygon fill="white" stroke="#bfbfbf" points="548.5,-174.5 548.5,-195.5 601.5,-195.5 601.5,-174.5 548.5,-174.5"/>
<text text-anchor="middle" x="575" y="-182.5" font-family="FreeSans.ttf" font-size="10.00">dirent.h</text>
</g>
<!-- Node31&#45;&gt;Node39 -->
<g id="edge82" class="edge"><title>Node31&#45;&gt;Node39</title>
<path fill="none" stroke="midnightblue" d="M453.817,-233.81C476.843,-224.535 512.723,-210.084 539.475,-199.309"/>
<polygon fill="midnightblue" stroke="midnightblue" points="540.909,-202.504 548.877,-195.522 538.294,-196.011 540.909,-202.504"/>
</g>
<!-- Node40 -->
<g id="node82" class="node"><title>Node40</title>
<polygon fill="white" stroke="#bfbfbf" points="618.5,-174.5 618.5,-195.5 681.5,-195.5 681.5,-174.5 618.5,-174.5"/>
<text text-anchor="middle" x="650" y="-182.5" font-family="FreeSans.ttf" font-size="10.00">sys/stat.h</text>
</g>
<!-- Node31&#45;&gt;Node40 -->
<g id="edge84" class="edge"><title>Node31&#45;&gt;Node40</title>
<path fill="none" stroke="midnightblue" d="M453.599,-234.68C456.414,-233.733 459.264,-232.816 462,-232 523.832,-213.562 542.714,-212.99 608.144,-196.417"/>
<polygon fill="midnightblue" stroke="midnightblue" points="609.329,-199.726 618.146,-193.852 607.59,-192.946 609.329,-199.726"/>
</g>
<!-- Node41&#45;&gt;Node29 -->
<g id="edge92" class="edge"><title>Node41&#45;&gt;Node29</title>
<path fill="none" stroke="midnightblue" d="M1297.94,-348.457C1295.98,-328.097 1292,-281.939 1292,-243 1292,-243 1292,-243 1292,-185 1292,-151.38 1286.86,-137.481 1261,-116 1238.68,-97.4599 1162.54,-83.0639 1112.55,-75.3238"/>
<polygon fill="midnightblue" stroke="midnightblue" points="1113.03,-71.8563 1102.62,-73.8197 1111.98,-78.7774 1113.03,-71.8563"/>
</g>
</g>
</svg>
        <g id="navigator" transform="translate(0 0)" fill="#404254">
                <rect fill="#f2f5e9" fill-opacity="0.5" stroke="#606060" stroke-width=".5" x="0" y="0" width="60" height="60"/>
                <use id="zoomplus" xlink:href="#zoomPlus" x="17" y="9" onmousedown="handleZoom(evt,'in')"/>
                <use id="zoomminus" xlink:href="#zoomMin" x="42" y="9" onmousedown="handleZoom(evt,'out')"/>
                <use id="reset" xlink:href="#resetDef" x="30" y="36" onmousedown="handleReset()"/>
                <g id="arrowUp" xlink:href="#dirArrow" transform="translate(30 24)" onmousedown="handlePan(0,-1)">
                  <use xlink:href="#rim" fill="#404040">
                        <set attributeName="fill" to="#808080" begin="arrowUp.mouseover" end="arrowUp.mouseout"/>
                  </use>
                  <path fill="none" stroke="white" stroke-width="1.5" d="M0,-3.0v7 M-2.5,-0.5L0,-3.0L2.5,-0.5"/>
                </g>
                <g id="arrowRight" xlink:href="#dirArrow" transform="rotate(90) translate(36 -43)" onmousedown="handlePan(1,0)">
                  <use xlink:href="#rim" fill="#404040">
                        <set attributeName="fill" to="#808080" begin="arrowRight.mouseover" end="arrowRight.mouseout"/>
                  </use>
                  <path fill="none" stroke="white" stroke-width="1.5" d="M0,-3.0v7 M-2.5,-0.5L0,-3.0L2.5,-0.5"/>
                </g>
                <g id="arrowDown" xlink:href="#dirArrow" transform="rotate(180) translate(-30 -48)" onmousedown="handlePan(0,1)">
                  <use xlink:href="#rim" fill="#404040">
                        <set attributeName="fill" to="#808080" begin="arrowDown.mouseover" end="arrowDown.mouseout"/>
                  </use>
                  <path fill="none" stroke="white" stroke-width="1.5" d="M0,-3.0v7 M-2.5,-0.5L0,-3.0L2.5,-0.5"/>
                </g>
                <g id="arrowLeft" xlink:href="#dirArrow" transform="rotate(270) translate(-36 17)" onmousedown="handlePan(-1,0)">
                  <use xlink:href="#rim" fill="#404040">
                        <set attributeName="fill" to="#808080" begin="arrowLeft.mouseover" end="arrowLeft.mouseout"/>
                  </use>
                  <path fill="none" stroke="white" stroke-width="1.5" d="M0,-3.0v7 M-2.5,-0.5L0,-3.0L2.5,-0.5"/>
                </g>
        </g>
</svg>
