<?xml version="1.0" encoding="UTF-8" standalone="no"?>
<!DOCTYPE svg PUBLIC "-//W3C//DTD SVG 1.1//EN"
 "http://www.w3.org/Graphics/SVG/1.1/DTD/svg11.dtd">
<!-- Generated by graphviz version 2.26.3 (20100126.1600)
 -->
<!-- Title: G Pages: 1 -->
<!--zoomable 378 -->
<svg id="main" version="1.1" xmlns="http://www.w3.org/2000/svg" xmlns:xlink="http://www.w3.org/1999/xlink" xml:space="preserve" onload="init(evt)">
        <defs>
                <circle id="rim" cx="0" cy="0" r="7"/>
                <circle id="rim2" cx="0" cy="0" r="3.5"/>
                <g id="zoomPlus">
                        <use xlink:href="#rim" fill="#404040">
                                <set attributeName="fill" to="#808080" begin="zoomplus.mouseover" end="zoomplus.mouseout"/>
                        </use>
                        <path d="M-4,0h8M0,-4v8" fill="none" stroke="white" stroke-width="1.5" pointer-events="none"/>
                </g>
                <g id="zoomMin">
                        <use xlink:href="#rim" fill="#404040">
                                <set attributeName="fill" to="#808080" begin="zoomminus.mouseover" end="zoomminus.mouseout"/>
                        </use>
                        <path d="M-4,0h8" fill="none" stroke="white" stroke-width="1.5" pointer-events="none"/>
                </g>
                <g id="dirArrow">
                        <path fill="none" stroke="white" stroke-width="1.5" d="M0,-3.0v7 M-2.5,-0.5L0,-3.0L2.5,-0.5"/>
                </g>
               <g id="resetDef">
                       <use xlink:href="#rim2" fill="#404040">
                               <set attributeName="fill" to="#808080" begin="reset.mouseover" end="reset.mouseout"/>
                       </use>
               </g>
        </defs>

<script type="text/javascript">
var viewWidth = 697;
var viewHeight = 378;
var sectionId = 'dynsection-1';
</script>
<script xlink:href="svgpan.js"/>
<svg id="graph" class="graph">
<g id="viewport">
<title>G</title>
<polygon fill="white" stroke="white" points="-4,5 -4,-374 694,-374 694,5 -4,5"/>
<!-- Node1 -->
<g id="node1" class="node"><title>Node1</title>
<polygon fill="#bfbfbf" stroke="black" points="481.5,-348.5 481.5,-369.5 576.5,-369.5 576.5,-348.5 481.5,-348.5"/>
<text text-anchor="middle" x="529" y="-356.5" font-family="FreeSans.ttf" font-size="10.00">h/socketserver.h</text>
</g>
<!-- Node2 -->
<g id="node3" class="node"><title>Node2</title>
<a xlink:href="server_8h.xhtml" target="_top" xlink:title="The Server class.">
<polygon fill="white" stroke="black" points="434,-290.5 434,-311.5 498,-311.5 498,-290.5 434,-290.5"/>
<text text-anchor="middle" x="466" y="-298.5" font-family="FreeSans.ttf" font-size="10.00">h/server.h</text>
</a>
</g>
<!-- Node1&#45;&gt;Node2 -->
<g id="edge2" class="edge"><title>Node1&#45;&gt;Node2</title>
<path fill="none" stroke="midnightblue" d="M509.888,-341.405C499.312,-331.668 486.52,-319.891 477.482,-311.571"/>
<polygon fill="midnightblue" stroke="midnightblue" points="507.717,-344.164 517.445,-348.362 512.458,-339.014 507.717,-344.164"/>
</g>
<!-- Node16 -->
<g id="node42" class="node"><title>Node16</title>
<a xlink:href="socketserver_8cpp.xhtml" target="_top" xlink:title="All non&#45;template member functions of the SocketServer class.">
<polygon fill="white" stroke="black" points="591,-232.5 591,-253.5 689,-253.5 689,-232.5 591,-232.5"/>
<text text-anchor="middle" x="640" y="-240.5" font-family="FreeSans.ttf" font-size="10.00">socketserver.cpp</text>
</a>
</g>
<!-- Node1&#45;&gt;Node16 -->
<g id="edge54" class="edge"><title>Node1&#45;&gt;Node16</title>
<path fill="none" stroke="midnightblue" d="M546.164,-341.063C569.558,-316.615 610.719,-273.6 629.781,-253.679"/>
<polygon fill="midnightblue" stroke="midnightblue" points="543.629,-338.65 539.244,-348.295 548.686,-343.49 543.629,-338.65"/>
</g>
<!-- Node3 -->
<g id="node5" class="node"><title>Node3</title>
<a xlink:href="socketclient_8h.xhtml" target="_top" xlink:title="The SocketClient class.">
<polygon fill="white" stroke="black" points="143,-232.5 143,-253.5 235,-253.5 235,-232.5 143,-232.5"/>
<text text-anchor="middle" x="189" y="-240.5" font-family="FreeSans.ttf" font-size="10.00">h/socketclient.h</text>
</a>
</g>
<!-- Node2&#45;&gt;Node3 -->
<g id="edge4" class="edge"><title>Node2&#45;&gt;Node3</title>
<path fill="none" stroke="midnightblue" d="M423.817,-293.171C372.47,-282.925 286.361,-264.933 233.848,-253.509"/>
<polygon fill="midnightblue" stroke="midnightblue" points="423.422,-296.66 433.912,-295.173 424.785,-289.794 423.422,-296.66"/>
</g>
<!-- Node6 -->
<g id="node12" class="node"><title>Node6</title>
<a xlink:href="handler_8cpp.xhtml" target="_top" xlink:title="All non&#45;template member functions of the Handler namespace.">
<polygon fill="white" stroke="black" points="385,-58.5 385,-79.5 457,-79.5 457,-58.5 385,-58.5"/>
<text text-anchor="middle" x="421" y="-66.5" font-family="FreeSans.ttf" font-size="10.00">handler.cpp</text>
</a>
</g>
<!-- Node2&#45;&gt;Node6 -->
<g id="edge46" class="edge"><title>Node2&#45;&gt;Node6</title>
<path fill="none" stroke="midnightblue" d="M461.992,-280.335C452.713,-232.5 430.021,-115.508 423.063,-79.6335"/>
<polygon fill="midnightblue" stroke="midnightblue" points="458.609,-281.278 463.95,-290.429 465.481,-279.945 458.609,-281.278"/>
</g>
<!-- Node7 -->
<g id="node14" class="node"><title>Node7</title>
<a xlink:href="server_8cpp.xhtml" target="_top" xlink:title="All non&#45;template member functions of the Server class.">
<polygon fill="white" stroke="black" points="208,-0.5 208,-21.5 274,-21.5 274,-0.5 208,-0.5"/>
<text text-anchor="middle" x="241" y="-8.5" font-family="FreeSans.ttf" font-size="10.00">server.cpp</text>
</a>
</g>
<!-- Node2&#45;&gt;Node7 -->
<g id="edge50" class="edge"><title>Node2&#45;&gt;Node7</title>
<path fill="none" stroke="midnightblue" d="M471.419,-280.526C477.035,-257.477 485,-218.825 485,-185 485,-185 485,-185 485,-127 485,-95.1919 489.186,-79.7748 466,-58 438.656,-32.321 330.13,-19.0106 274.404,-13.7513"/>
<polygon fill="midnightblue" stroke="midnightblue" points="468.026,-279.669 468.969,-290.222 474.812,-281.384 468.026,-279.669"/>
</g>
<!-- Node11 -->
<g id="node24" class="node"><title>Node11</title>
<a xlink:href="event_8h.xhtml" target="_top" xlink:title="The Event class.">
<polygon fill="white" stroke="black" points="1,-58.5 1,-79.5 63,-79.5 63,-58.5 1,-58.5"/>
<text text-anchor="middle" x="32" y="-66.5" font-family="FreeSans.ttf" font-size="10.00">h/event.h</text>
</a>
</g>
<!-- Node2&#45;&gt;Node11 -->
<g id="edge44" class="edge"><title>Node2&#45;&gt;Node11</title>
<path fill="none" stroke="midnightblue" d="M423.465,-298.334C345.701,-292.914 183.993,-278.957 134,-254 75.8603,-224.976 66.5809,-199.293 45,-138 37.9558,-117.993 34.4817,-93.307 32.9787,-79.5449"/>
<polygon fill="midnightblue" stroke="midnightblue" points="423.645,-301.854 433.86,-299.042 424.121,-294.87 423.645,-301.854"/>
</g>
<!-- Node15 -->
<g id="node39" class="node"><title>Node15</title>
<a xlink:href="main_8cpp.xhtml" target="_top" xlink:title="Initial server entry point.">
<polygon fill="white" stroke="black" points="512.5,-232.5 512.5,-253.5 573.5,-253.5 573.5,-232.5 512.5,-232.5"/>
<text text-anchor="middle" x="543" y="-240.5" font-family="FreeSans.ttf" font-size="10.00">main.cpp</text>
</a>
</g>
<!-- Node2&#45;&gt;Node15 -->
<g id="edge48" class="edge"><title>Node2&#45;&gt;Node15</title>
<path fill="none" stroke="midnightblue" d="M488.226,-284.259C501.361,-274.364 517.595,-262.136 528.967,-253.571"/>
<polygon fill="midnightblue" stroke="midnightblue" points="486.005,-281.55 480.123,-290.362 490.216,-287.141 486.005,-281.55"/>
</g>
<!-- Node2&#45;&gt;Node16 -->
<g id="edge52" class="edge"><title>Node2&#45;&gt;Node16</title>
<path fill="none" stroke="midnightblue" d="M507.164,-287.279C538.169,-276.944 580.045,-262.985 608.431,-253.523"/>
<polygon fill="midnightblue" stroke="midnightblue" points="505.89,-284.014 497.51,-290.497 508.104,-290.655 505.89,-284.014"/>
</g>
<!-- Node3&#45;&gt;Node2 -->
<g id="edge16" class="edge"><title>Node3&#45;&gt;Node2</title>
<path fill="none" stroke="midnightblue" d="M245.354,-253.675C302.202,-265.155 387.817,-283.124 433.977,-293.298"/>
<polygon fill="midnightblue" stroke="midnightblue" points="245.934,-250.222 235.44,-251.681 244.553,-257.084 245.934,-250.222"/>
</g>
<!-- Node4 -->
<g id="node7" class="node"><title>Node4</title>
<a xlink:href="account_8h.xhtml" target="_top" xlink:title="The Account class.">
<polygon fill="white" stroke="black" points="152.5,-174.5 152.5,-195.5 225.5,-195.5 225.5,-174.5 152.5,-174.5"/>
<text text-anchor="middle" x="189" y="-182.5" font-family="FreeSans.ttf" font-size="10.00">h/account.h</text>
</a>
</g>
<!-- Node3&#45;&gt;Node4 -->
<g id="edge6" class="edge"><title>Node3&#45;&gt;Node4</title>
<path fill="none" stroke="midnightblue" d="M182.495,-222.191C181.941,-213.168 182.326,-202.994 183.648,-195.571"/>
<polygon fill="midnightblue" stroke="midnightblue" points="179.043,-222.814 183.636,-232.362 186,-222.034 179.043,-222.814"/>
</g>
<!-- Node5 -->
<g id="node9" class="node"><title>Node5</title>
<a xlink:href="account_8cpp.xhtml" target="_top" xlink:title="All non&#45;template member functions of the Account class.">
<polygon fill="white" stroke="black" points="86.5,-116.5 86.5,-137.5 161.5,-137.5 161.5,-116.5 86.5,-116.5"/>
<text text-anchor="middle" x="124" y="-124.5" font-family="FreeSans.ttf" font-size="10.00">account.cpp</text>
</a>
</g>
<!-- Node3&#45;&gt;Node5 -->
<g id="edge18" class="edge"><title>Node3&#45;&gt;Node5</title>
<path fill="none" stroke="midnightblue" d="M168.251,-225.474C159.685,-217.288 150.306,-206.94 144,-196 133.162,-177.198 127.818,-152.079 125.506,-137.916"/>
<polygon fill="midnightblue" stroke="midnightblue" points="166.03,-228.186 175.777,-232.339 170.748,-223.014 166.03,-228.186"/>
</g>
<!-- Node8 -->
<g id="node18" class="node"><title>Node8</title>
<a xlink:href="plugin_8h.xhtml" target="_top" xlink:title="The Plugin class.">
<polygon fill="white" stroke="black" points="242.5,-174.5 242.5,-195.5 305.5,-195.5 305.5,-174.5 242.5,-174.5"/>
<text text-anchor="middle" x="274" y="-182.5" font-family="FreeSans.ttf" font-size="10.00">h/plugin.h</text>
</a>
</g>
<!-- Node3&#45;&gt;Node8 -->
<g id="edge20" class="edge"><title>Node3&#45;&gt;Node8</title>
<path fill="none" stroke="midnightblue" d="M213.121,-226.541C227.694,-216.597 245.836,-204.218 258.509,-195.571"/>
<polygon fill="midnightblue" stroke="midnightblue" points="210.878,-223.834 204.59,-232.362 214.823,-229.617 210.878,-223.834"/>
</g>
<!-- Node3&#45;&gt;Node11 -->
<g id="edge40" class="edge"><title>Node3&#45;&gt;Node11</title>
<path fill="none" stroke="midnightblue" d="M147.618,-228.467C130.379,-220.85 111.13,-210.12 97,-196 61.9588,-160.985 41.9966,-103.166 34.9399,-79.5461"/>
<polygon fill="midnightblue" stroke="midnightblue" points="146.368,-231.738 156.943,-232.38 149.077,-225.283 146.368,-231.738"/>
</g>
<!-- Node13 -->
<g id="node31" class="node"><title>Node13</title>
<a xlink:href="socketclient_8cpp.xhtml" target="_top" xlink:title="All non&#45;template member functions of the SocketClient class.">
<polygon fill="white" stroke="black" points="131,-58.5 131,-79.5 225,-79.5 225,-58.5 131,-58.5"/>
<text text-anchor="middle" x="178" y="-66.5" font-family="FreeSans.ttf" font-size="10.00">socketclient.cpp</text>
</a>
</g>
<!-- Node3&#45;&gt;Node13 -->
<g id="edge42" class="edge"><title>Node3&#45;&gt;Node13</title>
<path fill="none" stroke="midnightblue" d="M160.779,-226.742C133.282,-209.01 93.4343,-177.77 78,-138 74.4625,-128.885 72.7589,-124.254 78,-116 89.7735,-97.4574 111.02,-86.0996 130.91,-79.2088"/>
<polygon fill="midnightblue" stroke="midnightblue" points="159.24,-229.908 169.577,-232.231 162.945,-223.968 159.24,-229.908"/>
</g>
<!-- Node4&#45;&gt;Node3 -->
<g id="edge10" class="edge"><title>Node4&#45;&gt;Node3</title>
<path fill="none" stroke="midnightblue" d="M195.5,-205.728C196.059,-214.743 195.681,-224.922 194.364,-232.362"/>
<polygon fill="midnightblue" stroke="midnightblue" points="198.953,-205.114 194.352,-195.571 191.997,-205.9 198.953,-205.114"/>
</g>
<!-- Node4&#45;&gt;Node5 -->
<g id="edge8" class="edge"><title>Node4&#45;&gt;Node5</title>
<path fill="none" stroke="midnightblue" d="M169.602,-167.691C158.629,-157.9 145.263,-145.973 135.846,-137.571"/>
<polygon fill="midnightblue" stroke="midnightblue" points="167.286,-170.315 177.078,-174.362 171.947,-165.092 167.286,-170.315"/>
</g>
<!-- Node4&#45;&gt;Node6 -->
<g id="edge12" class="edge"><title>Node4&#45;&gt;Node6</title>
<path fill="none" stroke="midnightblue" d="M229.55,-170.958C252.917,-162.382 282.6,-150.653 308,-138 317.722,-133.157 374.68,-97.856 403.829,-79.7098"/>
<polygon fill="midnightblue" stroke="midnightblue" points="228.164,-167.738 219.953,-174.434 230.548,-174.319 228.164,-167.738"/>
</g>
<!-- Node4&#45;&gt;Node7 -->
<g id="edge14" class="edge"><title>Node4&#45;&gt;Node7</title>
<path fill="none" stroke="midnightblue" d="M186.877,-164.27C184.574,-149.733 179.811,-130.402 170,-116 154.987,-93.961 133.926,-103.851 122,-80 117.627,-71.2545 116.501,-66.0847 122,-58 132.026,-43.2609 176.255,-28.529 207.86,-19.5887"/>
<polygon fill="midnightblue" stroke="midnightblue" points="183.421,-164.836 188.2,-174.291 190.361,-163.919 183.421,-164.836"/>
</g>
<!-- Node9 -->
<g id="node20" class="node"><title>Node9</title>
<a xlink:href="command_8h.xhtml" target="_top" xlink:title="The Command class.">
<polygon fill="white" stroke="black" points="216.5,-116.5 216.5,-137.5 299.5,-137.5 299.5,-116.5 216.5,-116.5"/>
<text text-anchor="middle" x="258" y="-124.5" font-family="FreeSans.ttf" font-size="10.00">h/command.h</text>
</a>
</g>
<!-- Node8&#45;&gt;Node9 -->
<g id="edge22" class="edge"><title>Node8&#45;&gt;Node9</title>
<path fill="none" stroke="midnightblue" d="M268.341,-164.488C265.832,-155.392 262.986,-145.076 260.916,-137.571"/>
<polygon fill="midnightblue" stroke="midnightblue" points="265.032,-165.653 271.065,-174.362 271.78,-163.791 265.032,-165.653"/>
</g>
<!-- Node14 -->
<g id="node33" class="node"><title>Node14</title>
<a xlink:href="plugin_8cpp.xhtml" target="_top" xlink:title="All non&#45;template member functions of the Plugin class.">
<polygon fill="white" stroke="black" points="354.5,-116.5 354.5,-137.5 419.5,-137.5 419.5,-116.5 354.5,-116.5"/>
<text text-anchor="middle" x="387" y="-124.5" font-family="FreeSans.ttf" font-size="10.00">plugin.cpp</text>
</a>
</g>
<!-- Node8&#45;&gt;Node14 -->
<g id="edge38" class="edge"><title>Node8&#45;&gt;Node14</title>
<path fill="none" stroke="midnightblue" d="M303.625,-169.794C323.341,-159.675 348.748,-146.634 366.307,-137.621"/>
<polygon fill="midnightblue" stroke="midnightblue" points="301.762,-166.816 294.463,-174.497 304.958,-173.044 301.762,-166.816"/>
</g>
<!-- Node9&#45;&gt;Node6 -->
<g id="edge32" class="edge"><title>Node9&#45;&gt;Node6</title>
<path fill="none" stroke="midnightblue" d="M297.318,-113.009C326.285,-102.702 365.066,-88.903 391.427,-79.5231"/>
<polygon fill="midnightblue" stroke="midnightblue" points="295.766,-109.847 287.518,-116.497 298.113,-116.442 295.766,-109.847"/>
</g>
<!-- Node9&#45;&gt;Node7 -->
<g id="edge34" class="edge"><title>Node9&#45;&gt;Node7</title>
<path fill="none" stroke="midnightblue" d="M297.354,-112.363C324.101,-100.01 352.245,-80.7306 338,-58 324.088,-35.8006 296.383,-23.8254 274.131,-17.5309"/>
<polygon fill="midnightblue" stroke="midnightblue" points="295.787,-109.228 288.023,-116.437 298.588,-115.643 295.787,-109.228"/>
</g>
<!-- Node10 -->
<g id="node22" class="node"><title>Node10</title>
<a xlink:href="command_8cpp.xhtml" target="_top" xlink:title="All non&#45;template member functions of the Command class.">
<polygon fill="white" stroke="black" points="243,-58.5 243,-79.5 329,-79.5 329,-58.5 243,-58.5"/>
<text text-anchor="middle" x="286" y="-66.5" font-family="FreeSans.ttf" font-size="10.00">command.cpp</text>
</a>
</g>
<!-- Node9&#45;&gt;Node10 -->
<g id="edge24" class="edge"><title>Node9&#45;&gt;Node10</title>
<path fill="none" stroke="midnightblue" d="M267.617,-107.079C272.076,-97.8422 277.195,-87.2388 280.897,-79.5707"/>
<polygon fill="midnightblue" stroke="midnightblue" points="264.331,-105.835 263.136,-116.362 270.635,-108.878 264.331,-105.835"/>
</g>
<!-- Node9&#45;&gt;Node11 -->
<g id="edge26" class="edge"><title>Node9&#45;&gt;Node11</title>
<path fill="none" stroke="midnightblue" d="M207.379,-114.009C163.167,-102.662 100.401,-86.5542 63.1759,-77.0009"/>
<polygon fill="midnightblue" stroke="midnightblue" points="206.517,-117.401 217.073,-116.497 208.257,-110.621 206.517,-117.401"/>
</g>
<!-- Node9&#45;&gt;Node13 -->
<g id="edge36" class="edge"><title>Node9&#45;&gt;Node13</title>
<path fill="none" stroke="midnightblue" d="M234.908,-110.259C221.261,-100.364 204.395,-88.1361 192.58,-79.5707"/>
<polygon fill="midnightblue" stroke="midnightblue" points="233.176,-113.326 243.327,-116.362 237.285,-107.659 233.176,-113.326"/>
</g>
<!-- Node11&#45;&gt;Node7 -->
<g id="edge30" class="edge"><title>Node11&#45;&gt;Node7</title>
<path fill="none" stroke="midnightblue" d="M73.1121,-57.5909C112.513,-46.6568 171.236,-30.3604 207.767,-20.2226"/>
<polygon fill="midnightblue" stroke="midnightblue" points="71.9893,-54.2701 63.2894,-60.3168 73.8612,-61.0152 71.9893,-54.2701"/>
</g>
<!-- Node12 -->
<g id="node26" class="node"><title>Node12</title>
<a xlink:href="event_8cpp.xhtml" target="_top" xlink:title="All non&#45;template member functions of the Event class.">
<polygon fill="white" stroke="black" points="0,-0.5 0,-21.5 64,-21.5 64,-0.5 0,-0.5"/>
<text text-anchor="middle" x="32" y="-8.5" font-family="FreeSans.ttf" font-size="10.00">event.cpp</text>
</a>
</g>
<!-- Node11&#45;&gt;Node12 -->
<g id="edge28" class="edge"><title>Node11&#45;&gt;Node12</title>
<path fill="none" stroke="midnightblue" d="M32,-48.1906C32,-39.1684 32,-28.9941 32,-21.5707"/>
<polygon fill="midnightblue" stroke="midnightblue" points="28.5001,-48.3619 32,-58.3619 35.5001,-48.3619 28.5001,-48.3619"/>
</g>
</g>
</svg>
        <g id="navigator" transform="translate(0 0)" fill="#404254">
                <rect fill="#f2f5e9" fill-opacity="0.5" stroke="#606060" stroke-width=".5" x="0" y="0" width="60" height="60"/>
                <use id="zoomplus" xlink:href="#zoomPlus" x="17" y="9" onmousedown="handleZoom(evt,'in')"/>
                <use id="zoomminus" xlink:href="#zoomMin" x="42" y="9" onmousedown="handleZoom(evt,'out')"/>
                <use id="reset" xlink:href="#resetDef" x="30" y="36" onmousedown="handleReset()"/>
                <g id="arrowUp" xlink:href="#dirArrow" transform="translate(30 24)" onmousedown="handlePan(0,-1)">
                  <use xlink:href="#rim" fill="#404040">
                        <set attributeName="fill" to="#808080" begin="arrowUp.mouseover" end="arrowUp.mouseout"/>
                  </use>
                  <path fill="none" stroke="white" stroke-width="1.5" d="M0,-3.0v7 M-2.5,-0.5L0,-3.0L2.5,-0.5"/>
                </g>
                <g id="arrowRight" xlink:href="#dirArrow" transform="rotate(90) translate(36 -43)" onmousedown="handlePan(1,0)">
                  <use xlink:href="#rim" fill="#404040">
                        <set attributeName="fill" to="#808080" begin="arrowRight.mouseover" end="arrowRight.mouseout"/>
                  </use>
                  <path fill="none" stroke="white" stroke-width="1.5" d="M0,-3.0v7 M-2.5,-0.5L0,-3.0L2.5,-0.5"/>
                </g>
                <g id="arrowDown" xlink:href="#dirArrow" transform="rotate(180) translate(-30 -48)" onmousedown="handlePan(0,1)">
                  <use xlink:href="#rim" fill="#404040">
                        <set attributeName="fill" to="#808080" begin="arrowDown.mouseover" end="arrowDown.mouseout"/>
                  </use>
                  <path fill="none" stroke="white" stroke-width="1.5" d="M0,-3.0v7 M-2.5,-0.5L0,-3.0L2.5,-0.5"/>
                </g>
                <g id="arrowLeft" xlink:href="#dirArrow" transform="rotate(270) translate(-36 17)" onmousedown="handlePan(-1,0)">
                  <use xlink:href="#rim" fill="#404040">
                        <set attributeName="fill" to="#808080" begin="arrowLeft.mouseover" end="arrowLeft.mouseout"/>
                  </use>
                  <path fill="none" stroke="white" stroke-width="1.5" d="M0,-3.0v7 M-2.5,-0.5L0,-3.0L2.5,-0.5"/>
                </g>
        </g>
</svg>
