<?xml version="1.0" encoding="UTF-8" standalone="no"?>
<!DOCTYPE svg PUBLIC "-//W3C//DTD SVG 1.1//EN"
 "http://www.w3.org/Graphics/SVG/1.1/DTD/svg11.dtd">
<!-- Generated by graphviz version 2.26.3 (20100126.1600)
 -->
<!-- Title: G Pages: 1 -->
<!--zoomable 378 -->
<svg id="main" version="1.1" xmlns="http://www.w3.org/2000/svg" xmlns:xlink="http://www.w3.org/1999/xlink" xml:space="preserve" onload="init(evt)">
        <defs>
                <circle id="rim" cx="0" cy="0" r="7"/>
                <circle id="rim2" cx="0" cy="0" r="3.5"/>
                <g id="zoomPlus">
                        <use xlink:href="#rim" fill="#404040">
                                <set attributeName="fill" to="#808080" begin="zoomplus.mouseover" end="zoomplus.mouseout"/>
                        </use>
                        <path d="M-4,0h8M0,-4v8" fill="none" stroke="white" stroke-width="1.5" pointer-events="none"/>
                </g>
                <g id="zoomMin">
                        <use xlink:href="#rim" fill="#404040">
                                <set attributeName="fill" to="#808080" begin="zoomminus.mouseover" end="zoomminus.mouseout"/>
                        </use>
                        <path d="M-4,0h8" fill="none" stroke="white" stroke-width="1.5" pointer-events="none"/>
                </g>
                <g id="dirArrow">
                        <path fill="none" stroke="white" stroke-width="1.5" d="M0,-3.0v7 M-2.5,-0.5L0,-3.0L2.5,-0.5"/>
                </g>
               <g id="resetDef">
                       <use xlink:href="#rim2" fill="#404040">
                               <set attributeName="fill" to="#808080" begin="reset.mouseover" end="reset.mouseout"/>
                       </use>
               </g>
        </defs>

<script type="text/javascript">
var viewWidth = 1439;
var viewHeight = 378;
var sectionId = 'dynsection-0';
</script>
<script xlink:href="svgpan.js"/>
<svg id="graph" class="graph">
<g id="viewport">
<title>G</title>
<polygon fill="white" stroke="white" points="-4,5 -4,-374 1436,-374 1436,5 -4,5"/>
<!-- Node1 -->
<g id="node1" class="node"><title>Node1</title>
<polygon fill="#bfbfbf" stroke="black" points="1131,-348.5 1131,-369.5 1225,-369.5 1225,-348.5 1131,-348.5"/>
<text text-anchor="middle" x="1178" y="-356.5" font-family="FreeSans.ttf" font-size="10.00">socketclient.cpp</text>
</g>
<!-- Node2 -->
<g id="node3" class="node"><title>Node2</title>
<a xlink:href="includes_8h.xhtml" target="_top" xlink:title="All non&#45;system includes that need to be within each .cpp file.">
<polygon fill="white" stroke="black" points="654,-290.5 654,-311.5 728,-311.5 728,-290.5 654,-290.5"/>
<text text-anchor="middle" x="691" y="-298.5" font-family="FreeSans.ttf" font-size="10.00">h/includes.h</text>
</a>
</g>
<!-- Node1&#45;&gt;Node2 -->
<g id="edge2" class="edge"><title>Node1&#45;&gt;Node2</title>
<path fill="none" stroke="midnightblue" d="M1130.86,-353.386C1037.79,-342.302 831.404,-317.722 738.247,-306.627"/>
<polygon fill="midnightblue" stroke="midnightblue" points="738.604,-303.145 728.26,-305.438 737.776,-310.096 738.604,-303.145"/>
</g>
<!-- Node26 -->
<g id="node51" class="node"><title>Node26</title>
<a xlink:href="class_8h.xhtml" target="_top" xlink:title="All class declarations.">
<polygon fill="white" stroke="black" points="1060.5,-290.5 1060.5,-311.5 1119.5,-311.5 1119.5,-290.5 1060.5,-290.5"/>
<text text-anchor="middle" x="1090" y="-298.5" font-family="FreeSans.ttf" font-size="10.00">h/class.h</text>
</a>
</g>
<!-- Node1&#45;&gt;Node26 -->
<g id="edge50" class="edge"><title>Node1&#45;&gt;Node26</title>
<path fill="none" stroke="midnightblue" d="M1161.86,-348.362C1148.59,-339.614 1129.57,-327.079 1114.43,-317.101"/>
<polygon fill="midnightblue" stroke="midnightblue" points="1116.31,-314.151 1106.04,-311.571 1112.46,-319.996 1116.31,-314.151"/>
</g>
<!-- Node27 -->
<g id="node53" class="node"><title>Node27</title>
<a xlink:href="socketclient_8h.xhtml" target="_top" xlink:title="The SocketClient class.">
<polygon fill="white" stroke="black" points="1201,-174.5 1201,-195.5 1293,-195.5 1293,-174.5 1201,-174.5"/>
<text text-anchor="middle" x="1247" y="-182.5" font-family="FreeSans.ttf" font-size="10.00">h/socketclient.h</text>
</a>
</g>
<!-- Node1&#45;&gt;Node27 -->
<g id="edge52" class="edge"><title>Node1&#45;&gt;Node27</title>
<path fill="none" stroke="midnightblue" d="M1195.31,-348.404C1220.38,-331.885 1265.72,-297.343 1283,-254 1290.11,-236.164 1278.23,-216.868 1266.26,-203.229"/>
<polygon fill="midnightblue" stroke="midnightblue" points="1268.75,-200.77 1259.34,-195.905 1263.66,-205.578 1268.75,-200.77"/>
</g>
<!-- Node36 -->
<g id="node73" class="node"><title>Node36</title>
<a xlink:href="command_8h.xhtml" target="_top" xlink:title="The Command class.">
<polygon fill="white" stroke="black" points="1136.5,-290.5 1136.5,-311.5 1219.5,-311.5 1219.5,-290.5 1136.5,-290.5"/>
<text text-anchor="middle" x="1178" y="-298.5" font-family="FreeSans.ttf" font-size="10.00">h/command.h</text>
</a>
</g>
<!-- Node1&#45;&gt;Node36 -->
<g id="edge74" class="edge"><title>Node1&#45;&gt;Node36</title>
<path fill="none" stroke="midnightblue" d="M1178,-348.362C1178,-340.922 1178,-330.743 1178,-321.728"/>
<polygon fill="midnightblue" stroke="midnightblue" points="1181.5,-321.571 1178,-311.571 1174.5,-321.571 1181.5,-321.571"/>
</g>
<!-- Node39 -->
<g id="node82" class="node"><title>Node39</title>
<a xlink:href="list_8h.xhtml" target="_top" xlink:title="All globally referenced list / map / vector types.">
<polygon fill="white" stroke="black" points="1351,-116.5 1351,-137.5 1399,-137.5 1399,-116.5 1351,-116.5"/>
<text text-anchor="middle" x="1375" y="-124.5" font-family="FreeSans.ttf" font-size="10.00">h/list.h</text>
</a>
</g>
<!-- Node1&#45;&gt;Node39 -->
<g id="edge86" class="edge"><title>Node1&#45;&gt;Node39</title>
<path fill="none" stroke="midnightblue" d="M1206.67,-348.447C1225.23,-340.549 1249,-328.304 1266,-312 1317.43,-262.684 1352.82,-183.883 1367.46,-147.115"/>
<polygon fill="midnightblue" stroke="midnightblue" points="1370.82,-148.113 1371.18,-137.525 1364.3,-145.58 1370.82,-148.113"/>
</g>
<!-- Node3 -->
<g id="node5" class="node"><title>Node3</title>
<a xlink:href="sysincludes_8h.xhtml" target="_top" xlink:title="All system standard includes that are used within NAMS.">
<polygon fill="white" stroke="black" points="220,-232.5 220,-253.5 300,-253.5 300,-232.5 220,-232.5"/>
<text text-anchor="middle" x="260" y="-240.5" font-family="FreeSans.ttf" font-size="10.00">sysincludes.h</text>
</a>
</g>
<!-- Node2&#45;&gt;Node3 -->
<g id="edge4" class="edge"><title>Node2&#45;&gt;Node3</title>
<path fill="none" stroke="midnightblue" d="M653.88,-296.005C576.494,-285.591 397.855,-261.551 310.265,-249.764"/>
<polygon fill="midnightblue" stroke="midnightblue" points="310.678,-246.288 300.301,-248.423 309.745,-253.226 310.678,-246.288"/>
</g>
<!-- Node11 -->
<g id="node21" class="node"><title>Node11</title>
<a xlink:href="limits_8h.xhtml" target="_top" xlink:title="Custom defined numeric types and system limits.">
<polygon fill="white" stroke="black" points="507.5,-232.5 507.5,-253.5 558.5,-253.5 558.5,-232.5 507.5,-232.5"/>
<text text-anchor="middle" x="533" y="-240.5" font-family="FreeSans.ttf" font-size="10.00">limits.h</text>
</a>
</g>
<!-- Node2&#45;&gt;Node11 -->
<g id="edge20" class="edge"><title>Node2&#45;&gt;Node11</title>
<path fill="none" stroke="midnightblue" d="M662.387,-290.497C635.898,-280.773 596.435,-266.286 568.062,-255.871"/>
<polygon fill="midnightblue" stroke="midnightblue" points="569.121,-252.531 558.527,-252.371 566.709,-259.103 569.121,-252.531"/>
</g>
<!-- Node13 -->
<g id="node25" class="node"><title>Node13</title>
<a xlink:href="macros_8h.xhtml" target="_top" xlink:title="All pre&#45;processor macros within NAMS and select reference values.">
<polygon fill="white" stroke="black" points="585,-232.5 585,-253.5 647,-253.5 647,-232.5 585,-232.5"/>
<text text-anchor="middle" x="616" y="-240.5" font-family="FreeSans.ttf" font-size="10.00">macros.h</text>
</a>
</g>
<!-- Node2&#45;&gt;Node13 -->
<g id="edge24" class="edge"><title>Node2&#45;&gt;Node13</title>
<path fill="none" stroke="midnightblue" d="M677.244,-290.362C666.249,-281.859 650.627,-269.779 637.914,-259.947"/>
<polygon fill="midnightblue" stroke="midnightblue" points="639.721,-256.919 629.669,-253.571 635.438,-262.457 639.721,-256.919"/>
</g>
<!-- Node14 -->
<g id="node27" class="node"><title>Node14</title>
<a xlink:href="enum_8h.xhtml" target="_top" xlink:title="All numerical and boolean defines for every class and namespace.">
<polygon fill="white" stroke="black" points="664.5,-232.5 664.5,-253.5 717.5,-253.5 717.5,-232.5 664.5,-232.5"/>
<text text-anchor="middle" x="691" y="-240.5" font-family="FreeSans.ttf" font-size="10.00">enum.h</text>
</a>
</g>
<!-- Node2&#45;&gt;Node14 -->
<g id="edge26" class="edge"><title>Node2&#45;&gt;Node14</title>
<path fill="none" stroke="midnightblue" d="M691,-290.362C691,-282.922 691,-272.743 691,-263.728"/>
<polygon fill="midnightblue" stroke="midnightblue" points="694.5,-263.571 691,-253.571 687.5,-263.571 694.5,-263.571"/>
</g>
<!-- Node15 -->
<g id="node29" class="node"><title>Node15</title>
<a xlink:href="config_8h.xhtml" target="_top" xlink:title="NAMS configuration options.">
<polygon fill="white" stroke="black" points="735,-232.5 735,-253.5 789,-253.5 789,-232.5 735,-232.5"/>
<text text-anchor="middle" x="762" y="-240.5" font-family="FreeSans.ttf" font-size="10.00">config.h</text>
</a>
</g>
<!-- Node2&#45;&gt;Node15 -->
<g id="edge28" class="edge"><title>Node2&#45;&gt;Node15</title>
<path fill="none" stroke="midnightblue" d="M704.022,-290.362C714.431,-281.859 729.219,-269.779 741.255,-259.947"/>
<polygon fill="midnightblue" stroke="midnightblue" points="743.53,-262.608 749.06,-253.571 739.101,-257.187 743.53,-262.608"/>
</g>
<!-- Node16 -->
<g id="node31" class="node"><title>Node16</title>
<a xlink:href="utils_8h.xhtml" target="_top" xlink:title="The Utils namespace.">
<polygon fill="white" stroke="black" points="823.5,-232.5 823.5,-253.5 868.5,-253.5 868.5,-232.5 823.5,-232.5"/>
<text text-anchor="middle" x="846" y="-240.5" font-family="FreeSans.ttf" font-size="10.00">utils.h</text>
</a>
</g>
<!-- Node2&#45;&gt;Node16 -->
<g id="edge30" class="edge"><title>Node2&#45;&gt;Node16</title>
<path fill="none" stroke="midnightblue" d="M719.069,-290.497C745.642,-280.553 785.521,-265.631 813.47,-255.173"/>
<polygon fill="midnightblue" stroke="midnightblue" points="815.041,-258.322 823.18,-251.539 812.588,-251.766 815.041,-258.322"/>
</g>
<!-- Node4 -->
<g id="node7" class="node"><title>Node4</title>
<polygon fill="white" stroke="#bfbfbf" points="424,-174.5 424,-195.5 486,-195.5 486,-174.5 424,-174.5"/>
<text text-anchor="middle" x="455" y="-182.5" font-family="FreeSans.ttf" font-size="10.00">algorithm</text>
</g>
<!-- Node3&#45;&gt;Node4 -->
<g id="edge6" class="edge"><title>Node3&#45;&gt;Node4</title>
<path fill="none" stroke="midnightblue" d="M295.313,-232.497C328.677,-222.573 378.715,-207.69 413.866,-197.235"/>
<polygon fill="midnightblue" stroke="midnightblue" points="415.223,-200.483 423.81,-194.277 413.227,-193.773 415.223,-200.483"/>
</g>
<!-- Node5 -->
<g id="node9" class="node"><title>Node5</title>
<polygon fill="white" stroke="#bfbfbf" points="0,-174.5 0,-195.5 50,-195.5 50,-174.5 0,-174.5"/>
<text text-anchor="middle" x="25" y="-182.5" font-family="FreeSans.ttf" font-size="10.00">chrono</text>
</g>
<!-- Node3&#45;&gt;Node5 -->
<g id="edge8" class="edge"><title>Node3&#45;&gt;Node5</title>
<path fill="none" stroke="midnightblue" d="M219.708,-234.612C181.017,-226.327 120.752,-212.826 59.9415,-196.114"/>
<polygon fill="midnightblue" stroke="midnightblue" points="60.7522,-192.707 50.1803,-193.404 58.8799,-199.452 60.7522,-192.707"/>
</g>
<!-- Node6 -->
<g id="node11" class="node"><title>Node6</title>
<polygon fill="white" stroke="#bfbfbf" points="68,-174.5 68,-195.5 106,-195.5 106,-174.5 68,-174.5"/>
<text text-anchor="middle" x="87" y="-182.5" font-family="FreeSans.ttf" font-size="10.00">map</text>
</g>
<!-- Node3&#45;&gt;Node6 -->
<g id="edge10" class="edge"><title>Node3&#45;&gt;Node6</title>
<path fill="none" stroke="midnightblue" d="M225.523,-232.474C198.035,-223.938 158.38,-211.304 115.669,-196.114"/>
<polygon fill="midnightblue" stroke="midnightblue" points="116.816,-192.807 106.222,-192.729 114.455,-199.397 116.816,-192.807"/>
</g>
<!-- Node7 -->
<g id="node13" class="node"><title>Node7</title>
<polygon fill="white" stroke="#bfbfbf" points="123.5,-174.5 123.5,-195.5 170.5,-195.5 170.5,-174.5 123.5,-174.5"/>
<text text-anchor="middle" x="147" y="-182.5" font-family="FreeSans.ttf" font-size="10.00">vector</text>
</g>
<!-- Node3&#45;&gt;Node7 -->
<g id="edge12" class="edge"><title>Node3&#45;&gt;Node7</title>
<path fill="none" stroke="midnightblue" d="M239.537,-232.497C221.967,-223.479 196.418,-210.365 176.615,-200.201"/>
<polygon fill="midnightblue" stroke="midnightblue" points="178.188,-197.074 167.693,-195.621 174.991,-203.301 178.188,-197.074"/>
</g>
<!-- Node8 -->
<g id="node15" class="node"><title>Node8</title>
<polygon fill="white" stroke="#bfbfbf" points="188,-174.5 188,-195.5 256,-195.5 256,-174.5 188,-174.5"/>
<text text-anchor="middle" x="222" y="-182.5" font-family="FreeSans.ttf" font-size="10.00">arpa/inet.h</text>
</g>
<!-- Node3&#45;&gt;Node8 -->
<g id="edge14" class="edge"><title>Node3&#45;&gt;Node8</title>
<path fill="none" stroke="midnightblue" d="M253.03,-232.362C247.834,-224.431 240.599,-213.389 234.422,-203.961"/>
<polygon fill="midnightblue" stroke="midnightblue" points="237.334,-202.017 228.926,-195.571 231.478,-205.853 237.334,-202.017"/>
</g>
<!-- Node9 -->
<g id="node17" class="node"><title>Node9</title>
<polygon fill="white" stroke="#bfbfbf" points="273.5,-174.5 273.5,-195.5 324.5,-195.5 324.5,-174.5 273.5,-174.5"/>
<text text-anchor="middle" x="299" y="-182.5" font-family="FreeSans.ttf" font-size="10.00">errno.h</text>
</g>
<!-- Node3&#45;&gt;Node9 -->
<g id="edge16" class="edge"><title>Node3&#45;&gt;Node9</title>
<path fill="none" stroke="midnightblue" d="M267.153,-232.362C272.486,-224.431 279.911,-213.389 286.251,-203.961"/>
<polygon fill="midnightblue" stroke="midnightblue" points="289.217,-205.822 291.892,-195.571 283.408,-201.916 289.217,-205.822"/>
</g>
<!-- Node10 -->
<g id="node19" class="node"><title>Node10</title>
<polygon fill="white" stroke="#bfbfbf" points="341.5,-174.5 341.5,-195.5 406.5,-195.5 406.5,-174.5 341.5,-174.5"/>
<text text-anchor="middle" x="374" y="-182.5" font-family="FreeSans.ttf" font-size="10.00">memory.h</text>
</g>
<!-- Node3&#45;&gt;Node10 -->
<g id="edge18" class="edge"><title>Node3&#45;&gt;Node10</title>
<path fill="none" stroke="midnightblue" d="M280.645,-232.497C298.37,-223.479 324.145,-210.365 344.123,-200.201"/>
<polygon fill="midnightblue" stroke="midnightblue" points="345.798,-203.275 353.124,-195.621 342.624,-197.036 345.798,-203.275"/>
</g>
<!-- Node12 -->
<g id="node23" class="node"><title>Node12</title>
<polygon fill="white" stroke="#bfbfbf" points="504,-174.5 504,-195.5 546,-195.5 546,-174.5 504,-174.5"/>
<text text-anchor="middle" x="525" y="-182.5" font-family="FreeSans.ttf" font-size="10.00">limits</text>
</g>
<!-- Node11&#45;&gt;Node12 -->
<g id="edge22" class="edge"><title>Node11&#45;&gt;Node12</title>
<path fill="none" stroke="midnightblue" d="M531.533,-232.362C530.506,-224.922 529.102,-214.743 527.859,-205.728"/>
<polygon fill="midnightblue" stroke="midnightblue" points="531.292,-204.999 526.458,-195.571 524.357,-205.955 531.292,-204.999"/>
</g>
<!-- Node17 -->
<g id="node33" class="node"><title>Node17</title>
<polygon fill="white" stroke="#bfbfbf" points="1004,-174.5 1004,-195.5 1048,-195.5 1048,-174.5 1004,-174.5"/>
<text text-anchor="middle" x="1026" y="-182.5" font-family="FreeSans.ttf" font-size="10.00">bitset</text>
</g>
<!-- Node16&#45;&gt;Node17 -->
<g id="edge32" class="edge"><title>Node16&#45;&gt;Node17</title>
<path fill="none" stroke="midnightblue" d="M868.546,-236.16C896.028,-227.765 944.095,-212.894 994.012,-196.262"/>
<polygon fill="midnightblue" stroke="midnightblue" points="995.31,-199.519 1003.68,-193.026 993.088,-192.881 995.31,-199.519"/>
</g>
<!-- Node18 -->
<g id="node35" class="node"><title>Node18</title>
<polygon fill="white" stroke="#bfbfbf" points="563.5,-174.5 563.5,-195.5 616.5,-195.5 616.5,-174.5 563.5,-174.5"/>
<text text-anchor="middle" x="590" y="-182.5" font-family="FreeSans.ttf" font-size="10.00">cstdarg</text>
</g>
<!-- Node16&#45;&gt;Node18 -->
<g id="edge34" class="edge"><title>Node16&#45;&gt;Node18</title>
<path fill="none" stroke="midnightblue" d="M823.071,-237.647C815.138,-235.821 806.185,-233.789 798,-232 724.423,-215.916 702.758,-215.78 626.735,-196.293"/>
<polygon fill="midnightblue" stroke="midnightblue" points="627.232,-192.806 616.674,-193.683 625.475,-199.582 627.232,-192.806"/>
</g>
<!-- Node19 -->
<g id="node37" class="node"><title>Node19</title>
<polygon fill="white" stroke="#bfbfbf" points="1065.5,-174.5 1065.5,-195.5 1110.5,-195.5 1110.5,-174.5 1065.5,-174.5"/>
<text text-anchor="middle" x="1088" y="-182.5" font-family="FreeSans.ttf" font-size="10.00">cstdio</text>
</g>
<!-- Node16&#45;&gt;Node19 -->
<g id="edge36" class="edge"><title>Node16&#45;&gt;Node19</title>
<path fill="none" stroke="midnightblue" d="M868.711,-238.884C905.948,-231.934 982.427,-216.825 1055.59,-196.185"/>
<polygon fill="midnightblue" stroke="midnightblue" points="1056.77,-199.488 1065.42,-193.372 1054.84,-192.758 1056.77,-199.488"/>
</g>
<!-- Node20 -->
<g id="node39" class="node"><title>Node20</title>
<polygon fill="white" stroke="#bfbfbf" points="1128,-174.5 1128,-195.5 1182,-195.5 1182,-174.5 1128,-174.5"/>
<text text-anchor="middle" x="1155" y="-182.5" font-family="FreeSans.ttf" font-size="10.00">fstream</text>
</g>
<!-- Node16&#45;&gt;Node20 -->
<g id="edge38" class="edge"><title>Node16&#45;&gt;Node20</title>
<path fill="none" stroke="midnightblue" d="M868.847,-240.059C914.467,-233.978 1020.19,-218.831 1118.21,-195.968"/>
<polygon fill="midnightblue" stroke="midnightblue" points="1119.05,-199.366 1127.97,-193.658 1117.44,-192.554 1119.05,-199.366"/>
</g>
<!-- Node21 -->
<g id="node41" class="node"><title>Node21</title>
<polygon fill="white" stroke="#bfbfbf" points="633.5,-174.5 633.5,-195.5 692.5,-195.5 692.5,-174.5 633.5,-174.5"/>
<text text-anchor="middle" x="663" y="-182.5" font-family="FreeSans.ttf" font-size="10.00">iostream</text>
</g>
<!-- Node16&#45;&gt;Node21 -->
<g id="edge40" class="edge"><title>Node16&#45;&gt;Node21</title>
<path fill="none" stroke="midnightblue" d="M823.193,-235.772C793.066,-226.223 739.524,-209.254 702.69,-197.579"/>
<polygon fill="midnightblue" stroke="midnightblue" points="703.368,-194.123 692.778,-194.438 701.253,-200.795 703.368,-194.123"/>
</g>
<!-- Node22 -->
<g id="node43" class="node"><title>Node22</title>
<polygon fill="white" stroke="#bfbfbf" points="710,-174.5 710,-195.5 762,-195.5 762,-174.5 710,-174.5"/>
<text text-anchor="middle" x="736" y="-182.5" font-family="FreeSans.ttf" font-size="10.00">iterator</text>
</g>
<!-- Node16&#45;&gt;Node22 -->
<g id="edge42" class="edge"><title>Node16&#45;&gt;Node22</title>
<path fill="none" stroke="midnightblue" d="M826.08,-232.497C809.054,-223.519 784.331,-210.484 765.091,-200.339"/>
<polygon fill="midnightblue" stroke="midnightblue" points="766.622,-197.189 756.144,-195.621 763.357,-203.381 766.622,-197.189"/>
</g>
<!-- Node23 -->
<g id="node45" class="node"><title>Node23</title>
<polygon fill="white" stroke="#bfbfbf" points="780,-174.5 780,-195.5 836,-195.5 836,-174.5 780,-174.5"/>
<text text-anchor="middle" x="808" y="-182.5" font-family="FreeSans.ttf" font-size="10.00">sstream</text>
</g>
<!-- Node16&#45;&gt;Node23 -->
<g id="edge44" class="edge"><title>Node16&#45;&gt;Node23</title>
<path fill="none" stroke="midnightblue" d="M839.03,-232.362C833.834,-224.431 826.599,-213.389 820.422,-203.961"/>
<polygon fill="midnightblue" stroke="midnightblue" points="823.334,-202.017 814.926,-195.571 817.478,-205.853 823.334,-202.017"/>
</g>
<!-- Node24 -->
<g id="node47" class="node"><title>Node24</title>
<polygon fill="white" stroke="#bfbfbf" points="853.5,-174.5 853.5,-195.5 906.5,-195.5 906.5,-174.5 853.5,-174.5"/>
<text text-anchor="middle" x="880" y="-182.5" font-family="FreeSans.ttf" font-size="10.00">dirent.h</text>
</g>
<!-- Node16&#45;&gt;Node24 -->
<g id="edge46" class="edge"><title>Node16&#45;&gt;Node24</title>
<path fill="none" stroke="midnightblue" d="M852.236,-232.362C856.837,-224.513 863.225,-213.616 868.714,-204.253"/>
<polygon fill="midnightblue" stroke="midnightblue" points="871.766,-205.968 873.803,-195.571 865.727,-202.428 871.766,-205.968"/>
</g>
<!-- Node25 -->
<g id="node49" class="node"><title>Node25</title>
<polygon fill="white" stroke="#bfbfbf" points="923.5,-174.5 923.5,-195.5 986.5,-195.5 986.5,-174.5 923.5,-174.5"/>
<text text-anchor="middle" x="955" y="-182.5" font-family="FreeSans.ttf" font-size="10.00">sys/stat.h</text>
</g>
<!-- Node16&#45;&gt;Node25 -->
<g id="edge48" class="edge"><title>Node16&#45;&gt;Node25</title>
<path fill="none" stroke="midnightblue" d="M865.739,-232.497C882.61,-223.519 907.109,-210.484 926.174,-200.339"/>
<polygon fill="midnightblue" stroke="midnightblue" points="927.856,-203.409 935.039,-195.621 924.567,-197.229 927.856,-203.409"/>
</g>
<!-- Node28 -->
<g id="node55" class="node"><title>Node28</title>
<polygon fill="white" stroke="#bfbfbf" points="1144.5,-116.5 1144.5,-137.5 1191.5,-137.5 1191.5,-116.5 1144.5,-116.5"/>
<text text-anchor="middle" x="1168" y="-124.5" font-family="FreeSans.ttf" font-size="10.00">deque</text>
</g>
<!-- Node27&#45;&gt;Node28 -->
<g id="edge54" class="edge"><title>Node27&#45;&gt;Node28</title>
<path fill="none" stroke="midnightblue" d="M1232.51,-174.362C1220.82,-165.777 1204.16,-153.546 1190.7,-143.664"/>
<polygon fill="midnightblue" stroke="midnightblue" points="1192.53,-140.667 1182.4,-137.571 1188.39,-146.31 1192.53,-140.667"/>
</g>
<!-- Node29 -->
<g id="node57" class="node"><title>Node29</title>
<polygon fill="white" stroke="#bfbfbf" points="1208.5,-116.5 1208.5,-137.5 1261.5,-137.5 1261.5,-116.5 1208.5,-116.5"/>
<text text-anchor="middle" x="1235" y="-124.5" font-family="FreeSans.ttf" font-size="10.00">netdb.h</text>
</g>
<!-- Node27&#45;&gt;Node29 -->
<g id="edge56" class="edge"><title>Node27&#45;&gt;Node29</title>
<path fill="none" stroke="midnightblue" d="M1244.8,-174.362C1243.24,-166.84 1241.11,-156.519 1239.23,-147.431"/>
<polygon fill="midnightblue" stroke="midnightblue" points="1242.64,-146.654 1237.19,-137.571 1235.79,-148.072 1242.64,-146.654"/>
</g>
<!-- Node30 -->
<g id="node59" class="node"><title>Node30</title>
<a xlink:href="socket_8h.xhtml" target="_top" xlink:title="The Socket class.">
<polygon fill="white" stroke="black" points="1155.5,-0.5 1155.5,-21.5 1212.5,-21.5 1212.5,-0.5 1155.5,-0.5"/>
<text text-anchor="middle" x="1184" y="-8.5" font-family="FreeSans.ttf" font-size="10.00">socket.h</text>
</a>
</g>
<!-- Node27&#45;&gt;Node30 -->
<g id="edge58" class="edge"><title>Node27&#45;&gt;Node30</title>
<path fill="none" stroke="midnightblue" d="M1210.7,-174.413C1181.78,-165.157 1144.73,-151.172 1136,-138 1116.36,-108.359 1122.22,-90.777 1136,-58 1140.96,-46.1918 1150.5,-35.8648 1159.78,-27.9215"/>
<polygon fill="midnightblue" stroke="midnightblue" points="1162.1,-30.5466 1167.74,-21.5773 1157.74,-25.0721 1162.1,-30.5466"/>
</g>
<!-- Node31 -->
<g id="node61" class="node"><title>Node31</title>
<a xlink:href="server_8h.xhtml" target="_top" xlink:title="The Server class.">
<polygon fill="white" stroke="black" points="1278.5,-116.5 1278.5,-137.5 1333.5,-137.5 1333.5,-116.5 1278.5,-116.5"/>
<text text-anchor="middle" x="1306" y="-124.5" font-family="FreeSans.ttf" font-size="10.00">server.h</text>
</a>
</g>
<!-- Node27&#45;&gt;Node31 -->
<g id="edge60" class="edge"><title>Node27&#45;&gt;Node31</title>
<path fill="none" stroke="midnightblue" d="M1252.46,-174.362C1259.53,-165.941 1271.38,-154.011 1282.24,-144.231"/>
<polygon fill="midnightblue" stroke="midnightblue" points="1284.65,-146.776 1289.89,-137.571 1280.05,-141.496 1284.65,-146.776"/>
</g>
<!-- Node31&#45;&gt;Node27 -->
<g id="edge68" class="edge"><title>Node31&#45;&gt;Node27</title>
<path fill="none" stroke="midnightblue" d="M1300.6,-137.571C1293.55,-145.973 1281.71,-157.9 1270.84,-167.691"/>
<polygon fill="midnightblue" stroke="midnightblue" points="1268.43,-165.155 1263.19,-174.362 1273.03,-170.433 1268.43,-165.155"/>
</g>
<!-- Node32 -->
<g id="node63" class="node"><title>Node32</title>
<polygon fill="white" stroke="#bfbfbf" points="1145,-58.5 1145,-79.5 1191,-79.5 1191,-58.5 1145,-58.5"/>
<text text-anchor="middle" x="1168" y="-66.5" font-family="FreeSans.ttf" font-size="10.00">fcntl.h</text>
</g>
<!-- Node31&#45;&gt;Node32 -->
<g id="edge62" class="edge"><title>Node31&#45;&gt;Node32</title>
<path fill="none" stroke="midnightblue" d="M1281.01,-116.497C1258.52,-107.044 1225.32,-93.0915 1200.72,-82.7524"/>
<polygon fill="midnightblue" stroke="midnightblue" points="1202,-79.4931 1191.42,-78.8451 1199.29,-85.9463 1202,-79.4931"/>
</g>
<!-- Node33 -->
<g id="node65" class="node"><title>Node33</title>
<polygon fill="white" stroke="#bfbfbf" points="1312.5,-58.5 1312.5,-79.5 1383.5,-79.5 1383.5,-58.5 1312.5,-58.5"/>
<text text-anchor="middle" x="1348" y="-66.5" font-family="FreeSans.ttf" font-size="10.00">forward_list</text>
</g>
<!-- Node31&#45;&gt;Node33 -->
<g id="edge64" class="edge"><title>Node31&#45;&gt;Node33</title>
<path fill="none" stroke="midnightblue" d="M1313.7,-116.362C1319.45,-108.431 1327.44,-97.3885 1334.27,-87.9606"/>
<polygon fill="midnightblue" stroke="midnightblue" points="1337.32,-89.7229 1340.35,-79.5707 1331.65,-85.6173 1337.32,-89.7229"/>
</g>
<!-- Node34 -->
<g id="node67" class="node"><title>Node34</title>
<polygon fill="white" stroke="#bfbfbf" points="1401,-58.5 1401,-79.5 1431,-79.5 1431,-58.5 1401,-58.5"/>
<text text-anchor="middle" x="1416" y="-66.5" font-family="FreeSans.ttf" font-size="10.00">list</text>
</g>
<!-- Node31&#45;&gt;Node34 -->
<g id="edge66" class="edge"><title>Node31&#45;&gt;Node34</title>
<path fill="none" stroke="midnightblue" d="M1325.92,-116.497C1344.44,-106.734 1372.05,-92.1712 1391.83,-81.7468"/>
<polygon fill="midnightblue" stroke="midnightblue" points="1393.61,-84.761 1400.83,-77.0009 1390.35,-78.5691 1393.61,-84.761"/>
</g>
<!-- Node35 -->
<g id="node70" class="node"><title>Node35</title>
<a xlink:href="socketserver_8h.xhtml" target="_top" xlink:title="The SocketServer class.">
<polygon fill="white" stroke="black" points="1209,-58.5 1209,-79.5 1295,-79.5 1295,-58.5 1209,-58.5"/>
<text text-anchor="middle" x="1252" y="-66.5" font-family="FreeSans.ttf" font-size="10.00">socketserver.h</text>
</a>
</g>
<!-- Node31&#45;&gt;Node35 -->
<g id="edge70" class="edge"><title>Node31&#45;&gt;Node35</title>
<path fill="none" stroke="midnightblue" d="M1296.1,-116.362C1288.48,-108.186 1277.79,-96.7025 1268.84,-87.0907"/>
<polygon fill="midnightblue" stroke="midnightblue" points="1271.22,-84.5046 1261.84,-79.5707 1266.09,-89.2746 1271.22,-84.5046"/>
</g>
<!-- Node35&#45;&gt;Node30 -->
<g id="edge72" class="edge"><title>Node35&#45;&gt;Node30</title>
<path fill="none" stroke="midnightblue" d="M1239.53,-58.3619C1229.65,-49.9408 1215.67,-38.0105 1204.2,-28.2308"/>
<polygon fill="midnightblue" stroke="midnightblue" points="1206.27,-25.3972 1196.39,-21.5707 1201.73,-30.7231 1206.27,-25.3972"/>
</g>
<!-- Node36&#45;&gt;Node19 -->
<g id="edge76" class="edge"><title>Node36&#45;&gt;Node19</title>
<path fill="none" stroke="midnightblue" d="M1168.84,-290.313C1160.82,-280.877 1148.94,-266.687 1139,-254 1126.04,-237.455 1111.87,-218.188 1101.77,-204.225"/>
<polygon fill="midnightblue" stroke="midnightblue" points="1104.45,-201.964 1095.77,-195.897 1098.77,-206.056 1104.45,-201.964"/>
</g>
<!-- Node36&#45;&gt;Node20 -->
<g id="edge80" class="edge"><title>Node36&#45;&gt;Node20</title>
<path fill="none" stroke="midnightblue" d="M1167.71,-290.475C1159.78,-281.58 1149.45,-268.07 1145,-254 1139.94,-237.997 1143.3,-219.087 1147.44,-205.114"/>
<polygon fill="midnightblue" stroke="midnightblue" points="1150.79,-206.115 1150.63,-195.522 1144.15,-203.906 1150.79,-206.115"/>
</g>
<!-- Node37 -->
<g id="node76" class="node"><title>Node37</title>
<polygon fill="white" stroke="#bfbfbf" points="1154,-232.5 1154,-253.5 1202,-253.5 1202,-232.5 1154,-232.5"/>
<text text-anchor="middle" x="1178" y="-240.5" font-family="FreeSans.ttf" font-size="10.00">dlfcn.h</text>
</g>
<!-- Node36&#45;&gt;Node37 -->
<g id="edge78" class="edge"><title>Node36&#45;&gt;Node37</title>
<path fill="none" stroke="midnightblue" d="M1178,-290.362C1178,-282.922 1178,-272.743 1178,-263.728"/>
<polygon fill="midnightblue" stroke="midnightblue" points="1181.5,-263.571 1178,-253.571 1174.5,-263.571 1181.5,-263.571"/>
</g>
<!-- Node38 -->
<g id="node79" class="node"><title>Node38</title>
<a xlink:href="plugin_8h.xhtml" target="_top" xlink:title="The Plugin class.">
<polygon fill="white" stroke="black" points="1220,-232.5 1220,-253.5 1274,-253.5 1274,-232.5 1220,-232.5"/>
<text text-anchor="middle" x="1247" y="-240.5" font-family="FreeSans.ttf" font-size="10.00">plugin.h</text>
</a>
</g>
<!-- Node36&#45;&gt;Node38 -->
<g id="edge82" class="edge"><title>Node36&#45;&gt;Node38</title>
<path fill="none" stroke="midnightblue" d="M1190.66,-290.362C1200.67,-281.941 1214.87,-270.011 1226.5,-260.231"/>
<polygon fill="midnightblue" stroke="midnightblue" points="1229.02,-262.684 1234.42,-253.571 1224.52,-257.326 1229.02,-262.684"/>
</g>
<!-- Node38&#45;&gt;Node27 -->
<g id="edge84" class="edge"><title>Node38&#45;&gt;Node27</title>
<path fill="none" stroke="midnightblue" d="M1247,-232.362C1247,-224.922 1247,-214.743 1247,-205.728"/>
<polygon fill="midnightblue" stroke="midnightblue" points="1250.5,-205.571 1247,-195.571 1243.5,-205.571 1250.5,-205.571"/>
</g>
<!-- Node39&#45;&gt;Node33 -->
<g id="edge88" class="edge"><title>Node39&#45;&gt;Node33</title>
<path fill="none" stroke="midnightblue" d="M1370.05,-116.362C1366.47,-108.677 1361.53,-98.0686 1357.24,-88.8399"/>
<polygon fill="midnightblue" stroke="midnightblue" points="1360.31,-87.1594 1352.92,-79.5707 1353.97,-90.1136 1360.31,-87.1594"/>
</g>
<!-- Node39&#45;&gt;Node34 -->
<g id="edge90" class="edge"><title>Node39&#45;&gt;Node34</title>
<path fill="none" stroke="midnightblue" d="M1382.52,-116.362C1388.13,-108.431 1395.93,-97.3885 1402.6,-87.9606"/>
<polygon fill="midnightblue" stroke="midnightblue" points="1405.61,-89.7568 1408.53,-79.5707 1399.9,-85.7161 1405.61,-89.7568"/>
</g>
</g>
</svg>
        <g id="navigator" transform="translate(0 0)" fill="#404254">
                <rect fill="#f2f5e9" fill-opacity="0.5" stroke="#606060" stroke-width=".5" x="0" y="0" width="60" height="60"/>
                <use id="zoomplus" xlink:href="#zoomPlus" x="17" y="9" onmousedown="handleZoom(evt,'in')"/>
                <use id="zoomminus" xlink:href="#zoomMin" x="42" y="9" onmousedown="handleZoom(evt,'out')"/>
                <use id="reset" xlink:href="#resetDef" x="30" y="36" onmousedown="handleReset()"/>
                <g id="arrowUp" xlink:href="#dirArrow" transform="translate(30 24)" onmousedown="handlePan(0,-1)">
                  <use xlink:href="#rim" fill="#404040">
                        <set attributeName="fill" to="#808080" begin="arrowUp.mouseover" end="arrowUp.mouseout"/>
                  </use>
                  <path fill="none" stroke="white" stroke-width="1.5" d="M0,-3.0v7 M-2.5,-0.5L0,-3.0L2.5,-0.5"/>
                </g>
                <g id="arrowRight" xlink:href="#dirArrow" transform="rotate(90) translate(36 -43)" onmousedown="handlePan(1,0)">
                  <use xlink:href="#rim" fill="#404040">
                        <set attributeName="fill" to="#808080" begin="arrowRight.mouseover" end="arrowRight.mouseout"/>
                  </use>
                  <path fill="none" stroke="white" stroke-width="1.5" d="M0,-3.0v7 M-2.5,-0.5L0,-3.0L2.5,-0.5"/>
                </g>
                <g id="arrowDown" xlink:href="#dirArrow" transform="rotate(180) translate(-30 -48)" onmousedown="handlePan(0,1)">
                  <use xlink:href="#rim" fill="#404040">
                        <set attributeName="fill" to="#808080" begin="arrowDown.mouseover" end="arrowDown.mouseout"/>
                  </use>
                  <path fill="none" stroke="white" stroke-width="1.5" d="M0,-3.0v7 M-2.5,-0.5L0,-3.0L2.5,-0.5"/>
                </g>
                <g id="arrowLeft" xlink:href="#dirArrow" transform="rotate(270) translate(-36 17)" onmousedown="handlePan(-1,0)">
                  <use xlink:href="#rim" fill="#404040">
                        <set attributeName="fill" to="#808080" begin="arrowLeft.mouseover" end="arrowLeft.mouseout"/>
                  </use>
                  <path fill="none" stroke="white" stroke-width="1.5" d="M0,-3.0v7 M-2.5,-0.5L0,-3.0L2.5,-0.5"/>
                </g>
        </g>
</svg>
