<?xml version="1.0" encoding="UTF-8" standalone="no"?>
<!DOCTYPE svg PUBLIC "-//W3C//DTD SVG 1.1//EN"
 "http://www.w3.org/Graphics/SVG/1.1/DTD/svg11.dtd">
<!-- Generated by graphviz version 2.26.3 (20100126.1600)
 -->
<!-- Title: G Pages: 1 -->
<!--zoomable 204 -->
<svg id="main" version="1.1" xmlns="http://www.w3.org/2000/svg" xmlns:xlink="http://www.w3.org/1999/xlink" xml:space="preserve" onload="init(evt)">
        <defs>
                <circle id="rim" cx="0" cy="0" r="7"/>
                <circle id="rim2" cx="0" cy="0" r="3.5"/>
                <g id="zoomPlus">
                        <use xlink:href="#rim" fill="#404040">
                                <set attributeName="fill" to="#808080" begin="zoomplus.mouseover" end="zoomplus.mouseout"/>
                        </use>
                        <path d="M-4,0h8M0,-4v8" fill="none" stroke="white" stroke-width="1.5" pointer-events="none"/>
                </g>
                <g id="zoomMin">
                        <use xlink:href="#rim" fill="#404040">
                                <set attributeName="fill" to="#808080" begin="zoomminus.mouseover" end="zoomminus.mouseout"/>
                        </use>
                        <path d="M-4,0h8" fill="none" stroke="white" stroke-width="1.5" pointer-events="none"/>
                </g>
                <g id="dirArrow">
                        <path fill="none" stroke="white" stroke-width="1.5" d="M0,-3.0v7 M-2.5,-0.5L0,-3.0L2.5,-0.5"/>
                </g>
               <g id="resetDef">
                       <use xlink:href="#rim2" fill="#404040">
                               <set attributeName="fill" to="#808080" begin="reset.mouseover" end="reset.mouseout"/>
                       </use>
               </g>
        </defs>

<script type="text/javascript">
var viewWidth = 2129;
var viewHeight = 204;
var sectionId = 'dynsection-0';
</script>
<script xlink:href="svgpan.js"/>
<svg id="graph" class="graph">
<g id="viewport">
<title>G</title>
<polygon fill="white" stroke="white" points="-4,5 -4,-200 2126,-200 2126,5 -4,5"/>
<!-- Node1 -->
<g id="node1" class="node"><title>Node1</title>
<polygon fill="#bfbfbf" stroke="black" points="1268,-174.5 1268,-195.5 1362,-195.5 1362,-174.5 1268,-174.5"/>
<text text-anchor="middle" x="1315" y="-182.5" font-family="FreeSans.ttf" font-size="10.00">socketclient.cpp</text>
</g>
<!-- Node2 -->
<g id="node3" class="node"><title>Node2</title>
<a xlink:href="includes_8h.xhtml" target="_top" xlink:title="All non&#45;system includes that need to be within each .cpp file.">
<polygon fill="white" stroke="black" points="294,-116.5 294,-137.5 368,-137.5 368,-116.5 294,-116.5"/>
<text text-anchor="middle" x="331" y="-124.5" font-family="FreeSans.ttf" font-size="10.00">h/includes.h</text>
</a>
</g>
<!-- Node1&#45;&gt;Node2 -->
<g id="edge2" class="edge"><title>Node1&#45;&gt;Node2</title>
<path fill="none" stroke="midnightblue" d="M1267.87,-182.222C1101.88,-172.438 545.404,-139.638 378.63,-129.807"/>
<polygon fill="midnightblue" stroke="midnightblue" points="378.406,-126.288 368.217,-129.194 377.994,-133.276 378.406,-126.288"/>
</g>
<!-- Node40 -->
<g id="node79" class="node"><title>Node40</title>
<a xlink:href="socketclient_8h.xhtml" target="_top" xlink:title="The SocketClient class.">
<polygon fill="white" stroke="black" points="1546,-116.5 1546,-137.5 1638,-137.5 1638,-116.5 1546,-116.5"/>
<text text-anchor="middle" x="1592" y="-124.5" font-family="FreeSans.ttf" font-size="10.00">h/socketclient.h</text>
</a>
</g>
<!-- Node1&#45;&gt;Node40 -->
<g id="edge78" class="edge"><title>Node1&#45;&gt;Node40</title>
<path fill="none" stroke="midnightblue" d="M1362.3,-175.095C1410.4,-165.025 1484.9,-149.425 1535.94,-138.739"/>
<polygon fill="midnightblue" stroke="midnightblue" points="1536.74,-142.146 1545.81,-136.671 1535.31,-135.294 1536.74,-142.146"/>
</g>
<!-- Node42 -->
<g id="node83" class="node"><title>Node42</title>
<a xlink:href="account_8h.xhtml" target="_top" xlink:title="The Account class.">
<polygon fill="white" stroke="black" points="1177.5,-116.5 1177.5,-137.5 1250.5,-137.5 1250.5,-116.5 1177.5,-116.5"/>
<text text-anchor="middle" x="1214" y="-124.5" font-family="FreeSans.ttf" font-size="10.00">h/account.h</text>
</a>
</g>
<!-- Node1&#45;&gt;Node42 -->
<g id="edge82" class="edge"><title>Node1&#45;&gt;Node42</title>
<path fill="none" stroke="midnightblue" d="M1296.48,-174.362C1281.1,-165.532 1259,-152.844 1241.55,-142.822"/>
<polygon fill="midnightblue" stroke="midnightblue" points="1242.82,-139.515 1232.41,-137.571 1239.34,-145.586 1242.82,-139.515"/>
</g>
<!-- Node43 -->
<g id="node85" class="node"><title>Node43</title>
<a xlink:href="character_8h.xhtml" target="_top" xlink:title="The Character class.">
<polygon fill="white" stroke="black" points="1080,-116.5 1080,-137.5 1160,-137.5 1160,-116.5 1080,-116.5"/>
<text text-anchor="middle" x="1120" y="-124.5" font-family="FreeSans.ttf" font-size="10.00">h/character.h</text>
</a>
</g>
<!-- Node1&#45;&gt;Node43 -->
<g id="edge84" class="edge"><title>Node1&#45;&gt;Node43</title>
<path fill="none" stroke="midnightblue" d="M1279.69,-174.497C1247.62,-164.959 1200.15,-150.841 1165.3,-140.475"/>
<polygon fill="midnightblue" stroke="midnightblue" points="1165.96,-137.019 1155.38,-137.523 1163.97,-143.729 1165.96,-137.019"/>
</g>
<!-- Node45 -->
<g id="node89" class="node"><title>Node45</title>
<a xlink:href="command_8h.xhtml" target="_top" xlink:title="The Command class.">
<polygon fill="white" stroke="black" points="1379.5,-116.5 1379.5,-137.5 1462.5,-137.5 1462.5,-116.5 1379.5,-116.5"/>
<text text-anchor="middle" x="1421" y="-124.5" font-family="FreeSans.ttf" font-size="10.00">h/command.h</text>
</a>
</g>
<!-- Node1&#45;&gt;Node45 -->
<g id="edge88" class="edge"><title>Node1&#45;&gt;Node45</title>
<path fill="none" stroke="midnightblue" d="M1334.44,-174.362C1350.8,-165.409 1374.41,-152.491 1392.84,-142.406"/>
<polygon fill="midnightblue" stroke="midnightblue" points="1394.59,-145.441 1401.68,-137.571 1391.23,-139.3 1394.59,-145.441"/>
</g>
<!-- Node46 -->
<g id="node91" class="node"><title>Node46</title>
<a xlink:href="list_8h.xhtml" target="_top" xlink:title="All globally referenced list / map / vector types.">
<polygon fill="white" stroke="black" points="1480,-116.5 1480,-137.5 1528,-137.5 1528,-116.5 1480,-116.5"/>
<text text-anchor="middle" x="1504" y="-124.5" font-family="FreeSans.ttf" font-size="10.00">h/list.h</text>
</a>
</g>
<!-- Node1&#45;&gt;Node46 -->
<g id="edge90" class="edge"><title>Node1&#45;&gt;Node46</title>
<path fill="none" stroke="midnightblue" d="M1351.03,-174.469C1380.66,-165.734 1423.98,-152.803 1470.27,-138.177"/>
<polygon fill="midnightblue" stroke="midnightblue" points="1471.4,-141.491 1479.88,-135.131 1469.29,-134.818 1471.4,-141.491"/>
</g>
<!-- Node47 -->
<g id="node93" class="node"><title>Node47</title>
<a xlink:href="socketserver_8h.xhtml" target="_top" xlink:title="The SocketServer class.">
<polygon fill="white" stroke="black" points="1267.5,-116.5 1267.5,-137.5 1362.5,-137.5 1362.5,-116.5 1267.5,-116.5"/>
<text text-anchor="middle" x="1315" y="-124.5" font-family="FreeSans.ttf" font-size="10.00">h/socketserver.h</text>
</a>
</g>
<!-- Node1&#45;&gt;Node47 -->
<g id="edge92" class="edge"><title>Node1&#45;&gt;Node47</title>
<path fill="none" stroke="midnightblue" d="M1315,-174.362C1315,-166.922 1315,-156.743 1315,-147.728"/>
<polygon fill="midnightblue" stroke="midnightblue" points="1318.5,-147.571 1315,-137.571 1311.5,-147.571 1318.5,-147.571"/>
</g>
<!-- Node3 -->
<g id="node5" class="node"><title>Node3</title>
<a xlink:href="sysincludes_8h.xhtml" target="_top" xlink:title="All system standard includes that are used within NAMS.">
<polygon fill="white" stroke="black" points="1061,-58.5 1061,-79.5 1141,-79.5 1141,-58.5 1061,-58.5"/>
<text text-anchor="middle" x="1101" y="-66.5" font-family="FreeSans.ttf" font-size="10.00">sysincludes.h</text>
</a>
</g>
<!-- Node2&#45;&gt;Node3 -->
<g id="edge4" class="edge"><title>Node2&#45;&gt;Node3</title>
<path fill="none" stroke="midnightblue" d="M368.139,-124.203C494.162,-114.71 905.656,-83.7142 1050.22,-72.8247"/>
<polygon fill="midnightblue" stroke="midnightblue" points="1050.86,-76.2869 1060.57,-72.0456 1050.33,-69.3067 1050.86,-76.2869"/>
</g>
<!-- Node29 -->
<g id="node57" class="node"><title>Node29</title>
<a xlink:href="limits_8h.xhtml" target="_top" xlink:title="Custom defined numeric types and system limits.">
<polygon fill="white" stroke="black" points="1158.5,-58.5 1158.5,-79.5 1209.5,-79.5 1209.5,-58.5 1158.5,-58.5"/>
<text text-anchor="middle" x="1184" y="-66.5" font-family="FreeSans.ttf" font-size="10.00">limits.h</text>
</a>
</g>
<!-- Node2&#45;&gt;Node29 -->
<g id="edge56" class="edge"><title>Node2&#45;&gt;Node29</title>
<path fill="none" stroke="midnightblue" d="M368.249,-126.125C504.657,-122.731 977.431,-109.227 1148.11,-79.9191"/>
<polygon fill="midnightblue" stroke="midnightblue" points="1148.97,-83.3214 1158.19,-78.1032 1147.73,-76.4323 1148.97,-83.3214"/>
</g>
<!-- Node30 -->
<g id="node59" class="node"><title>Node30</title>
<a xlink:href="macros_8h.xhtml" target="_top" xlink:title="All pre&#45;processor macros within NAMS and select reference values.">
<polygon fill="white" stroke="black" points="0,-58.5 0,-79.5 62,-79.5 62,-58.5 0,-58.5"/>
<text text-anchor="middle" x="31" y="-66.5" font-family="FreeSans.ttf" font-size="10.00">macros.h</text>
</a>
</g>
<!-- Node2&#45;&gt;Node30 -->
<g id="edge58" class="edge"><title>Node2&#45;&gt;Node30</title>
<path fill="none" stroke="midnightblue" d="M293.76,-121.344C245.022,-113.706 156.772,-99.0716 72.3793,-80.178"/>
<polygon fill="midnightblue" stroke="midnightblue" points="72.9018,-76.7078 62.3758,-77.9139 71.3565,-83.5351 72.9018,-76.7078"/>
</g>
<!-- Node31 -->
<g id="node61" class="node"><title>Node31</title>
<a xlink:href="enum_8h.xhtml" target="_top" xlink:title="All numerical and boolean defines for every class and namespace.">
<polygon fill="white" stroke="black" points="79.5,-58.5 79.5,-79.5 132.5,-79.5 132.5,-58.5 79.5,-58.5"/>
<text text-anchor="middle" x="106" y="-66.5" font-family="FreeSans.ttf" font-size="10.00">enum.h</text>
</a>
</g>
<!-- Node2&#45;&gt;Node31 -->
<g id="edge60" class="edge"><title>Node2&#45;&gt;Node31</title>
<path fill="none" stroke="midnightblue" d="M293.686,-118.491C257.271,-110.028 200.104,-96.3197 142.35,-80.2795"/>
<polygon fill="midnightblue" stroke="midnightblue" points="143.275,-76.9042 132.702,-77.5794 141.389,-83.6451 143.275,-76.9042"/>
</g>
<!-- Node32 -->
<g id="node63" class="node"><title>Node32</title>
<a xlink:href="config_8h.xhtml" target="_top" xlink:title="NAMS configuration options.">
<polygon fill="white" stroke="black" points="150,-58.5 150,-79.5 204,-79.5 204,-58.5 150,-58.5"/>
<text text-anchor="middle" x="177" y="-66.5" font-family="FreeSans.ttf" font-size="10.00">config.h</text>
</a>
</g>
<!-- Node2&#45;&gt;Node32 -->
<g id="edge62" class="edge"><title>Node2&#45;&gt;Node32</title>
<path fill="none" stroke="midnightblue" d="M303.112,-116.497C278.1,-107.077 241.223,-93.1878 213.8,-82.8597"/>
<polygon fill="midnightblue" stroke="midnightblue" points="214.756,-79.4797 204.164,-79.2305 212.288,-86.0305 214.756,-79.4797"/>
</g>
<!-- Node33 -->
<g id="node65" class="node"><title>Node33</title>
<a xlink:href="class_8h.xhtml" target="_top" xlink:title="All class declarations.">
<polygon fill="white" stroke="black" points="222,-58.5 222,-79.5 272,-79.5 272,-58.5 222,-58.5"/>
<text text-anchor="middle" x="247" y="-66.5" font-family="FreeSans.ttf" font-size="10.00">class.h</text>
</a>
</g>
<!-- Node2&#45;&gt;Node33 -->
<g id="edge64" class="edge"><title>Node2&#45;&gt;Node33</title>
<path fill="none" stroke="midnightblue" d="M315.593,-116.362C303.042,-107.696 285.108,-95.3126 270.725,-85.3819"/>
<polygon fill="midnightblue" stroke="midnightblue" points="272.527,-82.3725 262.309,-79.5707 268.55,-88.1327 272.527,-82.3725"/>
</g>
<!-- Node34 -->
<g id="node67" class="node"><title>Node34</title>
<a xlink:href="namespace_8h.xhtml" target="_top" xlink:title="All namespace includes.">
<polygon fill="white" stroke="black" points="290,-58.5 290,-79.5 372,-79.5 372,-58.5 290,-58.5"/>
<text text-anchor="middle" x="331" y="-66.5" font-family="FreeSans.ttf" font-size="10.00">namespace.h</text>
</a>
</g>
<!-- Node2&#45;&gt;Node34 -->
<g id="edge66" class="edge"><title>Node2&#45;&gt;Node34</title>
<path fill="none" stroke="midnightblue" d="M331,-116.362C331,-108.922 331,-98.7427 331,-89.7276"/>
<polygon fill="midnightblue" stroke="midnightblue" points="334.5,-89.5706 331,-79.5707 327.5,-89.5707 334.5,-89.5706"/>
</g>
<!-- Node39 -->
<g id="node77" class="node"><title>Node39</title>
<a xlink:href="globals_8h.xhtml" target="_top" xlink:title="Externs to reference global scope variables.">
<polygon fill="white" stroke="black" points="389.5,-58.5 389.5,-79.5 448.5,-79.5 448.5,-58.5 389.5,-58.5"/>
<text text-anchor="middle" x="419" y="-66.5" font-family="FreeSans.ttf" font-size="10.00">globals.h</text>
</a>
</g>
<!-- Node2&#45;&gt;Node39 -->
<g id="edge76" class="edge"><title>Node2&#45;&gt;Node39</title>
<path fill="none" stroke="midnightblue" d="M347.141,-116.362C360.414,-107.614 379.432,-95.0786 394.57,-85.1015"/>
<polygon fill="midnightblue" stroke="midnightblue" points="396.538,-87.9962 402.962,-79.5707 392.686,-82.1515 396.538,-87.9962"/>
</g>
<!-- Node4 -->
<g id="node7" class="node"><title>Node4</title>
<polygon fill="white" stroke="#bfbfbf" points="1859,-0.5 1859,-21.5 1921,-21.5 1921,-0.5 1859,-0.5"/>
<text text-anchor="middle" x="1890" y="-8.5" font-family="FreeSans.ttf" font-size="10.00">algorithm</text>
</g>
<!-- Node3&#45;&gt;Node4 -->
<g id="edge6" class="edge"><title>Node3&#45;&gt;Node4</title>
<path fill="none" stroke="midnightblue" d="M1141.01,-59.438C1144.04,-58.8916 1147.06,-58.4022 1150,-58 1455.33,-16.1848 1540.62,-70.4038 1848.59,-21.9149"/>
<polygon fill="midnightblue" stroke="midnightblue" points="1849.38,-25.3333 1858.7,-20.2988 1848.27,-18.421 1849.38,-25.3333"/>
</g>
<!-- Node5 -->
<g id="node9" class="node"><title>Node5</title>
<polygon fill="white" stroke="#bfbfbf" points="1939,-0.5 1939,-21.5 1983,-21.5 1983,-0.5 1939,-0.5"/>
<text text-anchor="middle" x="1961" y="-8.5" font-family="FreeSans.ttf" font-size="10.00">bitset</text>
</g>
<!-- Node3&#45;&gt;Node5 -->
<g id="edge8" class="edge"><title>Node3&#45;&gt;Node5</title>
<path fill="none" stroke="midnightblue" d="M1141.01,-59.4205C1144.04,-58.8782 1147.06,-58.3945 1150,-58 1490.67,-12.2566 1587.6,-87.2963 1928.96,-21.6666"/>
<polygon fill="midnightblue" stroke="midnightblue" points="1929.72,-25.0831 1938.87,-19.7347 1928.38,-18.2124 1929.72,-25.0831"/>
</g>
<!-- Node6 -->
<g id="node11" class="node"><title>Node6</title>
<polygon fill="white" stroke="#bfbfbf" points="2001,-0.5 2001,-21.5 2051,-21.5 2051,-0.5 2001,-0.5"/>
<text text-anchor="middle" x="2026" y="-8.5" font-family="FreeSans.ttf" font-size="10.00">chrono</text>
</g>
<!-- Node3&#45;&gt;Node6 -->
<g id="edge10" class="edge"><title>Node3&#45;&gt;Node6</title>
<path fill="none" stroke="midnightblue" d="M1141.01,-59.4093C1144.04,-58.8696 1147.06,-58.3895 1150,-58 1518.05,-9.21561 1621.53,-86.8658 1991.05,-21.7088"/>
<polygon fill="midnightblue" stroke="midnightblue" points="1991.71,-25.1457 2000.94,-19.9417 1990.48,-18.2547 1991.71,-25.1457"/>
</g>
<!-- Node7 -->
<g id="node13" class="node"><title>Node7</title>
<polygon fill="white" stroke="#bfbfbf" points="2068.5,-0.5 2068.5,-21.5 2121.5,-21.5 2121.5,-0.5 2068.5,-0.5"/>
<text text-anchor="middle" x="2095" y="-8.5" font-family="FreeSans.ttf" font-size="10.00">cstdarg</text>
</g>
<!-- Node3&#45;&gt;Node7 -->
<g id="edge12" class="edge"><title>Node3&#45;&gt;Node7</title>
<path fill="none" stroke="midnightblue" d="M1141.01,-59.3987C1144.04,-58.8615 1147.06,-58.3848 1150,-58 1548,-5.89138 1659.37,-89.8708 2058.35,-21.889"/>
<polygon fill="midnightblue" stroke="midnightblue" points="2059.17,-25.2993 2068.43,-20.1499 2057.98,-18.4013 2059.17,-25.2993"/>
</g>
<!-- Node8 -->
<g id="node15" class="node"><title>Node8</title>
<polygon fill="white" stroke="#bfbfbf" points="370.5,-0.5 370.5,-21.5 415.5,-21.5 415.5,-0.5 370.5,-0.5"/>
<text text-anchor="middle" x="393" y="-8.5" font-family="FreeSans.ttf" font-size="10.00">cstdio</text>
</g>
<!-- Node3&#45;&gt;Node8 -->
<g id="edge14" class="edge"><title>Node3&#45;&gt;Node8</title>
<path fill="none" stroke="midnightblue" d="M1060.96,-67.6467C937.927,-63.2698 565.771,-48.3443 425.882,-21.8869"/>
<polygon fill="midnightblue" stroke="midnightblue" points="426.316,-18.4045 415.824,-19.879 424.946,-25.269 426.316,-18.4045"/>
</g>
<!-- Node9 -->
<g id="node17" class="node"><title>Node9</title>
<polygon fill="white" stroke="#bfbfbf" points="432.5,-0.5 432.5,-21.5 479.5,-21.5 479.5,-0.5 432.5,-0.5"/>
<text text-anchor="middle" x="456" y="-8.5" font-family="FreeSans.ttf" font-size="10.00">deque</text>
</g>
<!-- Node3&#45;&gt;Node9 -->
<g id="edge16" class="edge"><title>Node3&#45;&gt;Node9</title>
<path fill="none" stroke="midnightblue" d="M1060.64,-67.2475C945.503,-62.0418 616.141,-45.6601 489.419,-21.8087"/>
<polygon fill="midnightblue" stroke="midnightblue" points="490.068,-18.3693 479.578,-19.8545 488.705,-25.2352 490.068,-18.3693"/>
</g>
<!-- Node10 -->
<g id="node19" class="node"><title>Node10</title>
<polygon fill="white" stroke="#bfbfbf" points="496.5,-0.5 496.5,-21.5 567.5,-21.5 567.5,-0.5 496.5,-0.5"/>
<text text-anchor="middle" x="532" y="-8.5" font-family="FreeSans.ttf" font-size="10.00">forward_list</text>
</g>
<!-- Node3&#45;&gt;Node10 -->
<g id="edge18" class="edge"><title>Node3&#45;&gt;Node10</title>
<path fill="none" stroke="midnightblue" d="M1060.88,-67.5392C974.206,-63.9262 762.943,-52.6617 577.833,-22.1226"/>
<polygon fill="midnightblue" stroke="midnightblue" points="578.363,-18.6627 567.922,-20.4647 577.208,-25.5667 578.363,-18.6627"/>
</g>
<!-- Node11 -->
<g id="node21" class="node"><title>Node11</title>
<polygon fill="white" stroke="#bfbfbf" points="585,-0.5 585,-21.5 639,-21.5 639,-0.5 585,-0.5"/>
<text text-anchor="middle" x="612" y="-8.5" font-family="FreeSans.ttf" font-size="10.00">fstream</text>
</g>
<!-- Node3&#45;&gt;Node11 -->
<g id="edge20" class="edge"><title>Node3&#45;&gt;Node11</title>
<path fill="none" stroke="midnightblue" d="M1060.92,-67.4406C983.068,-63.8537 805.988,-52.9672 649.197,-21.9374"/>
<polygon fill="midnightblue" stroke="midnightblue" points="649.871,-18.5028 639.377,-19.9617 648.49,-25.3653 649.871,-18.5028"/>
</g>
<!-- Node12 -->
<g id="node23" class="node"><title>Node12</title>
<polygon fill="white" stroke="#bfbfbf" points="656.5,-0.5 656.5,-21.5 715.5,-21.5 715.5,-0.5 656.5,-0.5"/>
<text text-anchor="middle" x="686" y="-8.5" font-family="FreeSans.ttf" font-size="10.00">iostream</text>
</g>
<!-- Node3&#45;&gt;Node12 -->
<g id="edge22" class="edge"><title>Node3&#45;&gt;Node12</title>
<path fill="none" stroke="midnightblue" d="M1060.76,-66.0804C993.213,-60.7253 852.668,-47.6413 725.657,-22.1163"/>
<polygon fill="midnightblue" stroke="midnightblue" points="726.258,-18.6667 715.76,-20.0959 724.858,-25.5253 726.258,-18.6667"/>
</g>
<!-- Node13 -->
<g id="node25" class="node"><title>Node13</title>
<polygon fill="white" stroke="#bfbfbf" points="733,-0.5 733,-21.5 785,-21.5 785,-0.5 733,-0.5"/>
<text text-anchor="middle" x="759" y="-8.5" font-family="FreeSans.ttf" font-size="10.00">iterator</text>
</g>
<!-- Node3&#45;&gt;Node13 -->
<g id="edge24" class="edge"><title>Node3&#45;&gt;Node13</title>
<path fill="none" stroke="midnightblue" d="M1060.89,-64.8382C1003.81,-58.4849 895.789,-44.8722 795.269,-22.0361"/>
<polygon fill="midnightblue" stroke="midnightblue" points="795.786,-18.5633 785.255,-19.724 794.211,-25.3839 795.786,-18.5633"/>
</g>
<!-- Node14 -->
<g id="node27" class="node"><title>Node14</title>
<polygon fill="white" stroke="#bfbfbf" points="803,-0.5 803,-21.5 845,-21.5 845,-0.5 803,-0.5"/>
<text text-anchor="middle" x="824" y="-8.5" font-family="FreeSans.ttf" font-size="10.00">limits</text>
</g>
<!-- Node3&#45;&gt;Node14 -->
<g id="edge26" class="edge"><title>Node3&#45;&gt;Node14</title>
<path fill="none" stroke="midnightblue" d="M1060.75,-63.4108C1013.5,-56.396 932.707,-42.9913 855.103,-21.9843"/>
<polygon fill="midnightblue" stroke="midnightblue" points="855.736,-18.5285 845.166,-19.2471 853.877,-25.2772 855.736,-18.5285"/>
</g>
<!-- Node15 -->
<g id="node29" class="node"><title>Node15</title>
<polygon fill="white" stroke="#bfbfbf" points="863,-0.5 863,-21.5 893,-21.5 893,-0.5 863,-0.5"/>
<text text-anchor="middle" x="878" y="-8.5" font-family="FreeSans.ttf" font-size="10.00">list</text>
</g>
<!-- Node3&#45;&gt;Node15 -->
<g id="edge28" class="edge"><title>Node3&#45;&gt;Node15</title>
<path fill="none" stroke="midnightblue" d="M1060.7,-61.9128C1022.09,-54.5892 962.188,-41.8313 902.607,-21.7346"/>
<polygon fill="midnightblue" stroke="midnightblue" points="903.645,-18.3905 893.05,-18.4459 901.367,-25.0095 903.645,-18.3905"/>
</g>
<!-- Node16 -->
<g id="node31" class="node"><title>Node16</title>
<polygon fill="white" stroke="#bfbfbf" points="911,-0.5 911,-21.5 949,-21.5 949,-0.5 911,-0.5"/>
<text text-anchor="middle" x="930" y="-8.5" font-family="FreeSans.ttf" font-size="10.00">map</text>
</g>
<!-- Node3&#45;&gt;Node16 -->
<g id="edge30" class="edge"><title>Node3&#45;&gt;Node16</title>
<path fill="none" stroke="midnightblue" d="M1067.01,-58.4273C1039.96,-49.8821 1000.97,-37.2675 958.835,-22.1829"/>
<polygon fill="midnightblue" stroke="midnightblue" points="959.82,-18.8175 949.225,-18.7186 957.446,-25.4026 959.82,-18.8175"/>
</g>
<!-- Node17 -->
<g id="node33" class="node"><title>Node17</title>
<polygon fill="white" stroke="#bfbfbf" points="967,-0.5 967,-21.5 1023,-21.5 1023,-0.5 967,-0.5"/>
<text text-anchor="middle" x="995" y="-8.5" font-family="FreeSans.ttf" font-size="10.00">sstream</text>
</g>
<!-- Node3&#45;&gt;Node17 -->
<g id="edge32" class="edge"><title>Node3&#45;&gt;Node17</title>
<path fill="none" stroke="midnightblue" d="M1081.56,-58.3619C1065.2,-49.4094 1041.59,-36.4908 1023.16,-26.4064"/>
<polygon fill="midnightblue" stroke="midnightblue" points="1024.77,-23.3004 1014.32,-21.5707 1021.41,-29.4412 1024.77,-23.3004"/>
</g>
<!-- Node18 -->
<g id="node35" class="node"><title>Node18</title>
<polygon fill="white" stroke="#bfbfbf" points="1040.5,-0.5 1040.5,-21.5 1087.5,-21.5 1087.5,-0.5 1040.5,-0.5"/>
<text text-anchor="middle" x="1064" y="-8.5" font-family="FreeSans.ttf" font-size="10.00">vector</text>
</g>
<!-- Node3&#45;&gt;Node18 -->
<g id="edge34" class="edge"><title>Node3&#45;&gt;Node18</title>
<path fill="none" stroke="midnightblue" d="M1094.21,-58.3619C1089.21,-50.5131 1082.25,-39.6159 1076.28,-30.2527"/>
<polygon fill="midnightblue" stroke="midnightblue" points="1079.07,-28.1189 1070.74,-21.5707 1073.17,-31.8837 1079.07,-28.1189"/>
</g>
<!-- Node19 -->
<g id="node37" class="node"><title>Node19</title>
<polygon fill="white" stroke="#bfbfbf" points="1105,-0.5 1105,-21.5 1173,-21.5 1173,-0.5 1105,-0.5"/>
<text text-anchor="middle" x="1139" y="-8.5" font-family="FreeSans.ttf" font-size="10.00">arpa/inet.h</text>
</g>
<!-- Node3&#45;&gt;Node19 -->
<g id="edge36" class="edge"><title>Node3&#45;&gt;Node19</title>
<path fill="none" stroke="midnightblue" d="M1107.97,-58.3619C1113.17,-50.4313 1120.4,-39.3885 1126.58,-29.9606"/>
<polygon fill="midnightblue" stroke="midnightblue" points="1129.52,-31.8534 1132.07,-21.5707 1123.67,-28.0172 1129.52,-31.8534"/>
</g>
<!-- Node20 -->
<g id="node39" class="node"><title>Node20</title>
<polygon fill="white" stroke="#bfbfbf" points="1191,-0.5 1191,-21.5 1269,-21.5 1269,-0.5 1191,-0.5"/>
<text text-anchor="middle" x="1230" y="-8.5" font-family="FreeSans.ttf" font-size="10.00">arpa/telnet.h</text>
</g>
<!-- Node3&#45;&gt;Node20 -->
<g id="edge38" class="edge"><title>Node3&#45;&gt;Node20</title>
<path fill="none" stroke="midnightblue" d="M1124.36,-58.4966C1144.69,-49.3562 1174.38,-36.0082 1197.11,-25.7883"/>
<polygon fill="midnightblue" stroke="midnightblue" points="1198.69,-28.9142 1206.38,-21.6212 1195.82,-22.5298 1198.69,-28.9142"/>
</g>
<!-- Node21 -->
<g id="node41" class="node"><title>Node21</title>
<polygon fill="white" stroke="#bfbfbf" points="1286.5,-0.5 1286.5,-21.5 1339.5,-21.5 1339.5,-0.5 1286.5,-0.5"/>
<text text-anchor="middle" x="1313" y="-8.5" font-family="FreeSans.ttf" font-size="10.00">dirent.h</text>
</g>
<!-- Node3&#45;&gt;Node21 -->
<g id="edge40" class="edge"><title>Node3&#45;&gt;Node21</title>
<path fill="none" stroke="midnightblue" d="M1141.21,-58.8719C1175.07,-50.2205 1225,-37.1786 1276.63,-22.3259"/>
<polygon fill="midnightblue" stroke="midnightblue" points="1277.65,-25.6735 1286.28,-19.5322 1275.71,-18.9493 1277.65,-25.6735"/>
</g>
<!-- Node22 -->
<g id="node43" class="node"><title>Node22</title>
<polygon fill="white" stroke="#bfbfbf" points="1357,-0.5 1357,-21.5 1405,-21.5 1405,-0.5 1357,-0.5"/>
<text text-anchor="middle" x="1381" y="-8.5" font-family="FreeSans.ttf" font-size="10.00">dlfcn.h</text>
</g>
<!-- Node3&#45;&gt;Node22 -->
<g id="edge42" class="edge"><title>Node3&#45;&gt;Node22</title>
<path fill="none" stroke="midnightblue" d="M1141.08,-59.8614C1144.1,-59.2172 1147.09,-58.5899 1150,-58 1234.57,-40.8263 1259.61,-43.9439 1347.14,-21.9551"/>
<polygon fill="midnightblue" stroke="midnightblue" points="1348.14,-25.3125 1356.97,-19.4493 1346.41,-18.5297 1348.14,-25.3125"/>
</g>
<!-- Node23 -->
<g id="node45" class="node"><title>Node23</title>
<polygon fill="white" stroke="#bfbfbf" points="1422.5,-0.5 1422.5,-21.5 1473.5,-21.5 1473.5,-0.5 1422.5,-0.5"/>
<text text-anchor="middle" x="1448" y="-8.5" font-family="FreeSans.ttf" font-size="10.00">errno.h</text>
</g>
<!-- Node3&#45;&gt;Node23 -->
<g id="edge44" class="edge"><title>Node3&#45;&gt;Node23</title>
<path fill="none" stroke="midnightblue" d="M1141.05,-59.7159C1144.08,-59.1053 1147.08,-58.5254 1150,-58 1263.36,-37.5856 1296.73,-47.7346 1412.21,-22.1335"/>
<polygon fill="midnightblue" stroke="midnightblue" points="1413.16,-25.5062 1422.14,-19.8882 1411.62,-18.6783 1413.16,-25.5062"/>
</g>
<!-- Node24 -->
<g id="node47" class="node"><title>Node24</title>
<polygon fill="white" stroke="#bfbfbf" points="1491,-0.5 1491,-21.5 1537,-21.5 1537,-0.5 1491,-0.5"/>
<text text-anchor="middle" x="1514" y="-8.5" font-family="FreeSans.ttf" font-size="10.00">fcntl.h</text>
</g>
<!-- Node3&#45;&gt;Node24 -->
<g id="edge46" class="edge"><title>Node3&#45;&gt;Node24</title>
<path fill="none" stroke="midnightblue" d="M1141.04,-59.6252C1144.06,-59.0356 1147.08,-58.4852 1150,-58 1293.13,-34.2521 1335.26,-53.4216 1480.57,-21.9155"/>
<polygon fill="midnightblue" stroke="midnightblue" points="1481.75,-25.2403 1490.75,-19.6623 1480.23,-18.4056 1481.75,-25.2403"/>
</g>
<!-- Node25 -->
<g id="node49" class="node"><title>Node25</title>
<polygon fill="white" stroke="#bfbfbf" points="1554.5,-0.5 1554.5,-21.5 1619.5,-21.5 1619.5,-0.5 1554.5,-0.5"/>
<text text-anchor="middle" x="1587" y="-8.5" font-family="FreeSans.ttf" font-size="10.00">memory.h</text>
</g>
<!-- Node3&#45;&gt;Node25 -->
<g id="edge48" class="edge"><title>Node3&#45;&gt;Node25</title>
<path fill="none" stroke="midnightblue" d="M1141.03,-59.5679C1144.06,-58.9915 1147.07,-58.4598 1150,-58 1321.35,-31.0957 1370.21,-52.1963 1544.42,-22.0416"/>
<polygon fill="midnightblue" stroke="midnightblue" points="1545.2,-25.4589 1554.44,-20.2758 1543.98,-18.5652 1545.2,-25.4589"/>
</g>
<!-- Node26 -->
<g id="node51" class="node"><title>Node26</title>
<polygon fill="white" stroke="#bfbfbf" points="1636.5,-0.5 1636.5,-21.5 1689.5,-21.5 1689.5,-0.5 1636.5,-0.5"/>
<text text-anchor="middle" x="1663" y="-8.5" font-family="FreeSans.ttf" font-size="10.00">netdb.h</text>
</g>
<!-- Node3&#45;&gt;Node26 -->
<g id="edge50" class="edge"><title>Node3&#45;&gt;Node26</title>
<path fill="none" stroke="midnightblue" d="M1141.02,-59.5167C1144.05,-58.9522 1147.07,-58.4371 1150,-58 1357.42,-27.075 1416.93,-61.1058 1626.32,-21.9684"/>
<polygon fill="midnightblue" stroke="midnightblue" points="1627.24,-25.3569 1636.41,-20.0488 1625.93,-18.4803 1627.24,-25.3569"/>
</g>
<!-- Node27 -->
<g id="node53" class="node"><title>Node27</title>
<polygon fill="white" stroke="#bfbfbf" points="1706.5,-0.5 1706.5,-21.5 1769.5,-21.5 1769.5,-0.5 1706.5,-0.5"/>
<text text-anchor="middle" x="1738" y="-8.5" font-family="FreeSans.ttf" font-size="10.00">sys/stat.h</text>
</g>
<!-- Node3&#45;&gt;Node27 -->
<g id="edge52" class="edge"><title>Node3&#45;&gt;Node27</title>
<path fill="none" stroke="midnightblue" d="M1141.02,-59.4851C1144.05,-58.9278 1147.07,-58.4231 1150,-58 1388.28,-23.6399 1455.48,-61.5045 1696.14,-22.0413"/>
<polygon fill="midnightblue" stroke="midnightblue" points="1696.97,-25.4528 1706.25,-20.3552 1695.81,-18.5482 1696.97,-25.4528"/>
</g>
<!-- Node28 -->
<g id="node55" class="node"><title>Node28</title>
<polygon fill="white" stroke="#bfbfbf" points="1786.5,-0.5 1786.5,-21.5 1841.5,-21.5 1841.5,-0.5 1786.5,-0.5"/>
<text text-anchor="middle" x="1814" y="-8.5" font-family="FreeSans.ttf" font-size="10.00">unistd.h</text>
</g>
<!-- Node3&#45;&gt;Node28 -->
<g id="edge54" class="edge"><title>Node3&#45;&gt;Node28</title>
<path fill="none" stroke="midnightblue" d="M1141.01,-59.4575C1144.04,-58.9066 1147.06,-58.4109 1150,-58 1423.63,-19.7064 1500.99,-69.9943 1776.37,-21.9473"/>
<polygon fill="midnightblue" stroke="midnightblue" points="1777.02,-25.3876 1786.25,-20.1963 1775.8,-18.495 1777.02,-25.3876"/>
</g>
<!-- Node35 -->
<g id="node69" class="node"><title>Node35</title>
<a xlink:href="handler_8h.xhtml" target="_top" xlink:title="The Handler namespace.">
<polygon fill="white" stroke="black" points="88.5,-0.5 88.5,-21.5 149.5,-21.5 149.5,-0.5 88.5,-0.5"/>
<text text-anchor="middle" x="119" y="-8.5" font-family="FreeSans.ttf" font-size="10.00">handler.h</text>
</a>
</g>
<!-- Node34&#45;&gt;Node35 -->
<g id="edge68" class="edge"><title>Node34&#45;&gt;Node35</title>
<path fill="none" stroke="midnightblue" d="M291.807,-58.4676C258.848,-49.5846 210.225,-36.4203 159.483,-22.396"/>
<polygon fill="midnightblue" stroke="midnightblue" points="160.22,-18.9687 149.649,-19.6747 158.353,-25.7151 160.22,-18.9687"/>
</g>
<!-- Node36 -->
<g id="node71" class="node"><title>Node36</title>
<a xlink:href="server_8h.xhtml" target="_top" xlink:title="The Server namespace.">
<polygon fill="white" stroke="black" points="166.5,-0.5 166.5,-21.5 221.5,-21.5 221.5,-0.5 166.5,-0.5"/>
<text text-anchor="middle" x="194" y="-8.5" font-family="FreeSans.ttf" font-size="10.00">server.h</text>
</a>
</g>
<!-- Node34&#45;&gt;Node36 -->
<g id="edge70" class="edge"><title>Node34&#45;&gt;Node36</title>
<path fill="none" stroke="midnightblue" d="M306.19,-58.4966C284.504,-49.3154 252.789,-35.8889 228.608,-25.6516"/>
<polygon fill="midnightblue" stroke="midnightblue" points="229.661,-22.2968 219.088,-21.6212 226.932,-28.7429 229.661,-22.2968"/>
</g>
<!-- Node37 -->
<g id="node73" class="node"><title>Node37</title>
<a xlink:href="telopt_8h.xhtml" target="_top" xlink:title="The telopt namespace.">
<polygon fill="white" stroke="black" points="238.5,-0.5 238.5,-21.5 291.5,-21.5 291.5,-0.5 238.5,-0.5"/>
<text text-anchor="middle" x="265" y="-8.5" font-family="FreeSans.ttf" font-size="10.00">telopt.h</text>
</a>
</g>
<!-- Node34&#45;&gt;Node37 -->
<g id="edge72" class="edge"><title>Node34&#45;&gt;Node37</title>
<path fill="none" stroke="midnightblue" d="M318.895,-58.3619C309.312,-49.9408 295.736,-38.0105 284.607,-28.2308"/>
<polygon fill="midnightblue" stroke="midnightblue" points="286.851,-25.5427 277.029,-21.5707 282.23,-30.8009 286.851,-25.5427"/>
</g>
<!-- Node38 -->
<g id="node75" class="node"><title>Node38</title>
<a xlink:href="utils_8h.xhtml" target="_top" xlink:title="The Utils namespace.">
<polygon fill="white" stroke="black" points="308.5,-0.5 308.5,-21.5 353.5,-21.5 353.5,-0.5 308.5,-0.5"/>
<text text-anchor="middle" x="331" y="-8.5" font-family="FreeSans.ttf" font-size="10.00">utils.h</text>
</a>
</g>
<!-- Node34&#45;&gt;Node38 -->
<g id="edge74" class="edge"><title>Node34&#45;&gt;Node38</title>
<path fill="none" stroke="midnightblue" d="M331,-58.3619C331,-50.9219 331,-40.7427 331,-31.7276"/>
<polygon fill="midnightblue" stroke="midnightblue" points="334.5,-31.5706 331,-21.5707 327.5,-31.5707 334.5,-31.5706"/>
</g>
<!-- Node41 -->
<g id="node81" class="node"><title>Node41</title>
<a xlink:href="socket_8h.xhtml" target="_top" xlink:title="The Socket class.">
<polygon fill="white" stroke="black" points="1425.5,-58.5 1425.5,-79.5 1482.5,-79.5 1482.5,-58.5 1425.5,-58.5"/>
<text text-anchor="middle" x="1454" y="-66.5" font-family="FreeSans.ttf" font-size="10.00">socket.h</text>
</a>
</g>
<!-- Node40&#45;&gt;Node41 -->
<g id="edge80" class="edge"><title>Node40&#45;&gt;Node41</title>
<path fill="none" stroke="midnightblue" d="M1567.01,-116.497C1545.07,-107.275 1512.93,-93.7695 1488.54,-83.5153"/>
<polygon fill="midnightblue" stroke="midnightblue" points="1489.85,-80.2693 1479.27,-79.6212 1487.13,-86.7225 1489.85,-80.2693"/>
</g>
<!-- Node44 -->
<g id="node87" class="node"><title>Node44</title>
<a xlink:href="thing_8h.xhtml" target="_top" xlink:title="The Thing class.">
<polygon fill="white" stroke="black" points="1227,-58.5 1227,-79.5 1277,-79.5 1277,-58.5 1227,-58.5"/>
<text text-anchor="middle" x="1252" y="-66.5" font-family="FreeSans.ttf" font-size="10.00">thing.h</text>
</a>
</g>
<!-- Node43&#45;&gt;Node44 -->
<g id="edge86" class="edge"><title>Node43&#45;&gt;Node44</title>
<path fill="none" stroke="midnightblue" d="M1143.9,-116.497C1164.8,-107.315 1195.36,-93.8889 1218.66,-83.6516"/>
<polygon fill="midnightblue" stroke="midnightblue" points="1220.08,-86.8483 1227.83,-79.6212 1217.26,-80.4397 1220.08,-86.8483"/>
</g>
<!-- Node47&#45;&gt;Node41 -->
<g id="edge94" class="edge"><title>Node47&#45;&gt;Node41</title>
<path fill="none" stroke="midnightblue" d="M1340.17,-116.497C1362.27,-107.275 1394.64,-93.7695 1419.21,-83.5153"/>
<polygon fill="midnightblue" stroke="midnightblue" points="1420.66,-86.7022 1428.55,-79.6212 1417.97,-80.2421 1420.66,-86.7022"/>
</g>
</g>
</svg>
        <g id="navigator" transform="translate(0 0)" fill="#404254">
                <rect fill="#f2f5e9" fill-opacity="0.5" stroke="#606060" stroke-width=".5" x="0" y="0" width="60" height="60"/>
                <use id="zoomplus" xlink:href="#zoomPlus" x="17" y="9" onmousedown="handleZoom(evt,'in')"/>
                <use id="zoomminus" xlink:href="#zoomMin" x="42" y="9" onmousedown="handleZoom(evt,'out')"/>
                <use id="reset" xlink:href="#resetDef" x="30" y="36" onmousedown="handleReset()"/>
                <g id="arrowUp" xlink:href="#dirArrow" transform="translate(30 24)" onmousedown="handlePan(0,-1)">
                  <use xlink:href="#rim" fill="#404040">
                        <set attributeName="fill" to="#808080" begin="arrowUp.mouseover" end="arrowUp.mouseout"/>
                  </use>
                  <path fill="none" stroke="white" stroke-width="1.5" d="M0,-3.0v7 M-2.5,-0.5L0,-3.0L2.5,-0.5"/>
                </g>
                <g id="arrowRight" xlink:href="#dirArrow" transform="rotate(90) translate(36 -43)" onmousedown="handlePan(1,0)">
                  <use xlink:href="#rim" fill="#404040">
                        <set attributeName="fill" to="#808080" begin="arrowRight.mouseover" end="arrowRight.mouseout"/>
                  </use>
                  <path fill="none" stroke="white" stroke-width="1.5" d="M0,-3.0v7 M-2.5,-0.5L0,-3.0L2.5,-0.5"/>
                </g>
                <g id="arrowDown" xlink:href="#dirArrow" transform="rotate(180) translate(-30 -48)" onmousedown="handlePan(0,1)">
                  <use xlink:href="#rim" fill="#404040">
                        <set attributeName="fill" to="#808080" begin="arrowDown.mouseover" end="arrowDown.mouseout"/>
                  </use>
                  <path fill="none" stroke="white" stroke-width="1.5" d="M0,-3.0v7 M-2.5,-0.5L0,-3.0L2.5,-0.5"/>
                </g>
                <g id="arrowLeft" xlink:href="#dirArrow" transform="rotate(270) translate(-36 17)" onmousedown="handlePan(-1,0)">
                  <use xlink:href="#rim" fill="#404040">
                        <set attributeName="fill" to="#808080" begin="arrowLeft.mouseover" end="arrowLeft.mouseout"/>
                  </use>
                  <path fill="none" stroke="white" stroke-width="1.5" d="M0,-3.0v7 M-2.5,-0.5L0,-3.0L2.5,-0.5"/>
                </g>
        </g>
</svg>
