<?xml version="1.0" encoding="UTF-8" standalone="no"?>
<!DOCTYPE svg PUBLIC "-//W3C//DTD SVG 1.1//EN"
 "http://www.w3.org/Graphics/SVG/1.1/DTD/svg11.dtd">
<!-- Generated by graphviz version 2.26.3 (20100126.1600)
 -->
<!-- Title: G Pages: 1 -->
<!--zoomable 204 -->
<svg id="main" version="1.1" xmlns="http://www.w3.org/2000/svg" xmlns:xlink="http://www.w3.org/1999/xlink" xml:space="preserve" onload="init(evt)">
        <defs>
                <circle id="rim" cx="0" cy="0" r="7"/>
                <circle id="rim2" cx="0" cy="0" r="3.5"/>
                <g id="zoomPlus">
                        <use xlink:href="#rim" fill="#404040">
                                <set attributeName="fill" to="#808080" begin="zoomplus.mouseover" end="zoomplus.mouseout"/>
                        </use>
                        <path d="M-4,0h8M0,-4v8" fill="none" stroke="white" stroke-width="1.5" pointer-events="none"/>
                </g>
                <g id="zoomMin">
                        <use xlink:href="#rim" fill="#404040">
                                <set attributeName="fill" to="#808080" begin="zoomminus.mouseover" end="zoomminus.mouseout"/>
                        </use>
                        <path d="M-4,0h8" fill="none" stroke="white" stroke-width="1.5" pointer-events="none"/>
                </g>
                <g id="dirArrow">
                        <path fill="none" stroke="white" stroke-width="1.5" d="M0,-3.0v7 M-2.5,-0.5L0,-3.0L2.5,-0.5"/>
                </g>
               <g id="resetDef">
                       <use xlink:href="#rim2" fill="#404040">
                               <set attributeName="fill" to="#808080" begin="reset.mouseover" end="reset.mouseout"/>
                       </use>
               </g>
        </defs>

<script type="text/javascript">
var viewWidth = 1968;
var viewHeight = 204;
var sectionId = 'dynsection-0';
</script>
<script xlink:href="svgpan.js"/>
<svg id="graph" class="graph">
<g id="viewport">
<title>G</title>
<polygon fill="white" stroke="white" points="-4,5 -4,-200 1965,-200 1965,5 -4,5"/>
<!-- Node1 -->
<g id="node1" class="node"><title>Node1</title>
<polygon fill="#bfbfbf" stroke="black" points="999,-174.5 999,-195.5 1093,-195.5 1093,-174.5 999,-174.5"/>
<text text-anchor="middle" x="1046" y="-182.5" font-family="FreeSans.ttf" font-size="10.00">socketclient.cpp</text>
</g>
<!-- Node2 -->
<g id="node3" class="node"><title>Node2</title>
<a xlink:href="includes_8h.xhtml" target="_top" xlink:title="All non&#45;system includes that need to be within each .cpp file.">
<polygon fill="white" stroke="black" points="610,-116.5 610,-137.5 684,-137.5 684,-116.5 610,-116.5"/>
<text text-anchor="middle" x="647" y="-124.5" font-family="FreeSans.ttf" font-size="10.00">h/includes.h</text>
</a>
</g>
<!-- Node1&#45;&gt;Node2 -->
<g id="edge2" class="edge"><title>Node1&#45;&gt;Node2</title>
<path fill="none" stroke="midnightblue" d="M998.663,-178.119C921.97,-166.971 771.412,-145.085 694.57,-133.915"/>
<polygon fill="midnightblue" stroke="midnightblue" points="694.631,-130.387 684.232,-132.412 693.624,-137.314 694.631,-130.387"/>
</g>
<!-- Node38 -->
<g id="node75" class="node"><title>Node38</title>
<a xlink:href="socketclient_8h.xhtml" target="_top" xlink:title="The SocketClient class.">
<polygon fill="white" stroke="black" points="948,-116.5 948,-137.5 1040,-137.5 1040,-116.5 948,-116.5"/>
<text text-anchor="middle" x="994" y="-124.5" font-family="FreeSans.ttf" font-size="10.00">h/socketclient.h</text>
</a>
</g>
<!-- Node1&#45;&gt;Node38 -->
<g id="edge74" class="edge"><title>Node1&#45;&gt;Node38</title>
<path fill="none" stroke="midnightblue" d="M1036.46,-174.362C1029.13,-166.186 1018.84,-154.702 1010.22,-145.091"/>
<polygon fill="midnightblue" stroke="midnightblue" points="1012.76,-142.68 1003.48,-137.571 1007.55,-147.353 1012.76,-142.68"/>
</g>
<!-- Node40 -->
<g id="node79" class="node"><title>Node40</title>
<a xlink:href="account_8h.xhtml" target="_top" xlink:title="The Account class.">
<polygon fill="white" stroke="black" points="857.5,-116.5 857.5,-137.5 930.5,-137.5 930.5,-116.5 857.5,-116.5"/>
<text text-anchor="middle" x="894" y="-124.5" font-family="FreeSans.ttf" font-size="10.00">h/account.h</text>
</a>
</g>
<!-- Node1&#45;&gt;Node40 -->
<g id="edge78" class="edge"><title>Node1&#45;&gt;Node40</title>
<path fill="none" stroke="midnightblue" d="M1018.47,-174.497C994.016,-165.164 958.062,-151.445 931.076,-141.147"/>
<polygon fill="midnightblue" stroke="midnightblue" points="932.168,-137.818 921.578,-137.523 929.673,-144.358 932.168,-137.818"/>
</g>
<!-- Node41 -->
<g id="node81" class="node"><title>Node41</title>
<a xlink:href="character_8h.xhtml" target="_top" xlink:title="The Character class.">
<polygon fill="white" stroke="black" points="760,-116.5 760,-137.5 840,-137.5 840,-116.5 760,-116.5"/>
<text text-anchor="middle" x="800" y="-124.5" font-family="FreeSans.ttf" font-size="10.00">h/character.h</text>
</a>
</g>
<!-- Node1&#45;&gt;Node41 -->
<g id="edge80" class="edge"><title>Node1&#45;&gt;Node41</title>
<path fill="none" stroke="midnightblue" d="M1001.45,-174.497C958.805,-164.442 894.565,-149.296 850.144,-138.823"/>
<polygon fill="midnightblue" stroke="midnightblue" points="850.681,-135.353 840.145,-136.465 849.075,-142.166 850.681,-135.353"/>
</g>
<!-- Node43 -->
<g id="node85" class="node"><title>Node43</title>
<a xlink:href="command_8h.xhtml" target="_top" xlink:title="The Command class.">
<polygon fill="white" stroke="black" points="1057.5,-116.5 1057.5,-137.5 1140.5,-137.5 1140.5,-116.5 1057.5,-116.5"/>
<text text-anchor="middle" x="1099" y="-124.5" font-family="FreeSans.ttf" font-size="10.00">h/command.h</text>
</a>
</g>
<!-- Node1&#45;&gt;Node43 -->
<g id="edge84" class="edge"><title>Node1&#45;&gt;Node43</title>
<path fill="none" stroke="midnightblue" d="M1055.72,-174.362C1063.19,-166.186 1073.69,-154.702 1082.47,-145.091"/>
<polygon fill="midnightblue" stroke="midnightblue" points="1085.18,-147.314 1089.34,-137.571 1080.01,-142.592 1085.18,-147.314"/>
</g>
<!-- Node44 -->
<g id="node87" class="node"><title>Node44</title>
<a xlink:href="list_8h.xhtml" target="_top" xlink:title="All globally referenced list / map / vector types.">
<polygon fill="white" stroke="black" points="1158,-116.5 1158,-137.5 1206,-137.5 1206,-116.5 1158,-116.5"/>
<text text-anchor="middle" x="1182" y="-124.5" font-family="FreeSans.ttf" font-size="10.00">h/list.h</text>
</a>
</g>
<!-- Node1&#45;&gt;Node44 -->
<g id="edge86" class="edge"><title>Node1&#45;&gt;Node44</title>
<path fill="none" stroke="midnightblue" d="M1070.63,-174.497C1092.29,-165.258 1124.03,-151.721 1148.09,-141.46"/>
<polygon fill="midnightblue" stroke="midnightblue" points="1149.73,-144.568 1157.55,-137.425 1146.98,-138.129 1149.73,-144.568"/>
</g>
<!-- Node45 -->
<g id="node89" class="node"><title>Node45</title>
<a xlink:href="server_8h.xhtml" target="_top" xlink:title="The Server class.">
<polygon fill="white" stroke="black" points="1224,-116.5 1224,-137.5 1288,-137.5 1288,-116.5 1224,-116.5"/>
<text text-anchor="middle" x="1256" y="-124.5" font-family="FreeSans.ttf" font-size="10.00">h/server.h</text>
</a>
</g>
<!-- Node1&#45;&gt;Node45 -->
<g id="edge88" class="edge"><title>Node1&#45;&gt;Node45</title>
<path fill="none" stroke="midnightblue" d="M1084.03,-174.497C1120.7,-164.368 1176.08,-149.073 1214.03,-138.592"/>
<polygon fill="midnightblue" stroke="midnightblue" points="1215.05,-141.941 1223.76,-135.905 1213.19,-135.194 1215.05,-141.941"/>
</g>
<!-- Node46 -->
<g id="node91" class="node"><title>Node46</title>
<a xlink:href="socketserver_8h.xhtml" target="_top" xlink:title="The SocketServer class.">
<polygon fill="white" stroke="black" points="1305.5,-116.5 1305.5,-137.5 1400.5,-137.5 1400.5,-116.5 1305.5,-116.5"/>
<text text-anchor="middle" x="1353" y="-124.5" font-family="FreeSans.ttf" font-size="10.00">h/socketserver.h</text>
</a>
</g>
<!-- Node1&#45;&gt;Node46 -->
<g id="edge90" class="edge"><title>Node1&#45;&gt;Node46</title>
<path fill="none" stroke="midnightblue" d="M1093.21,-176.289C1141.51,-167.348 1219.01,-152.921 1295.11,-138.353"/>
<polygon fill="midnightblue" stroke="midnightblue" points="1296.18,-141.71 1305.35,-136.39 1294.87,-134.836 1296.18,-141.71"/>
</g>
<!-- Node3 -->
<g id="node5" class="node"><title>Node3</title>
<a xlink:href="sysincludes_8h.xhtml" target="_top" xlink:title="All system standard includes that are used within NAMS.">
<polygon fill="white" stroke="black" points="898,-58.5 898,-79.5 978,-79.5 978,-58.5 898,-58.5"/>
<text text-anchor="middle" x="938" y="-66.5" font-family="FreeSans.ttf" font-size="10.00">sysincludes.h</text>
</a>
</g>
<!-- Node2&#45;&gt;Node3 -->
<g id="edge4" class="edge"><title>Node2&#45;&gt;Node3</title>
<path fill="none" stroke="midnightblue" d="M684.151,-119.595C735.898,-109.282 829.826,-90.5604 887.774,-79.0106"/>
<polygon fill="midnightblue" stroke="midnightblue" points="888.683,-82.3984 897.806,-77.0111 887.315,-75.5334 888.683,-82.3984"/>
</g>
<!-- Node29 -->
<g id="node57" class="node"><title>Node29</title>
<a xlink:href="limits_8h.xhtml" target="_top" xlink:title="Custom defined numeric types and system limits.">
<polygon fill="white" stroke="black" points="995.5,-58.5 995.5,-79.5 1046.5,-79.5 1046.5,-58.5 995.5,-58.5"/>
<text text-anchor="middle" x="1021" y="-66.5" font-family="FreeSans.ttf" font-size="10.00">limits.h</text>
</a>
</g>
<!-- Node2&#45;&gt;Node29 -->
<g id="edge56" class="edge"><title>Node2&#45;&gt;Node29</title>
<path fill="none" stroke="midnightblue" d="M684.025,-122.715C756.172,-114.236 914.116,-95.004 985.291,-80.0557"/>
<polygon fill="midnightblue" stroke="midnightblue" points="986.131,-83.4547 995.142,-77.8831 984.623,-76.619 986.131,-83.4547"/>
</g>
<!-- Node30 -->
<g id="node59" class="node"><title>Node30</title>
<a xlink:href="macros_8h.xhtml" target="_top" xlink:title="All pre&#45;processor macros within NAMS and select reference values.">
<polygon fill="white" stroke="black" points="358,-58.5 358,-79.5 420,-79.5 420,-58.5 358,-58.5"/>
<text text-anchor="middle" x="389" y="-66.5" font-family="FreeSans.ttf" font-size="10.00">macros.h</text>
</a>
</g>
<!-- Node2&#45;&gt;Node30 -->
<g id="edge58" class="edge"><title>Node2&#45;&gt;Node30</title>
<path fill="none" stroke="midnightblue" d="M609.825,-119.646C568.357,-111.297 499.058,-96.9131 430.505,-80.283"/>
<polygon fill="midnightblue" stroke="midnightblue" points="430.945,-76.7875 420.4,-77.8136 429.283,-83.5874 430.945,-76.7875"/>
</g>
<!-- Node31 -->
<g id="node61" class="node"><title>Node31</title>
<a xlink:href="enum_8h.xhtml" target="_top" xlink:title="All numerical and boolean defines for every class and namespace.">
<polygon fill="white" stroke="black" points="437.5,-58.5 437.5,-79.5 490.5,-79.5 490.5,-58.5 437.5,-58.5"/>
<text text-anchor="middle" x="464" y="-66.5" font-family="FreeSans.ttf" font-size="10.00">enum.h</text>
</a>
</g>
<!-- Node2&#45;&gt;Node31 -->
<g id="edge60" class="edge"><title>Node2&#45;&gt;Node31</title>
<path fill="none" stroke="midnightblue" d="M613.86,-116.497C581.843,-106.349 533.465,-91.0164 500.394,-80.5346"/>
<polygon fill="midnightblue" stroke="midnightblue" points="501.247,-77.1334 490.656,-77.4485 499.132,-83.8063 501.247,-77.1334"/>
</g>
<!-- Node32 -->
<g id="node63" class="node"><title>Node32</title>
<a xlink:href="config_8h.xhtml" target="_top" xlink:title="NAMS configuration options.">
<polygon fill="white" stroke="black" points="508,-58.5 508,-79.5 562,-79.5 562,-58.5 508,-58.5"/>
<text text-anchor="middle" x="535" y="-66.5" font-family="FreeSans.ttf" font-size="10.00">config.h</text>
</a>
</g>
<!-- Node2&#45;&gt;Node32 -->
<g id="edge62" class="edge"><title>Node2&#45;&gt;Node32</title>
<path fill="none" stroke="midnightblue" d="M626.718,-116.497C609.382,-107.519 584.21,-94.4835 564.62,-84.3387"/>
<polygon fill="midnightblue" stroke="midnightblue" points="565.999,-81.1118 555.51,-79.6212 562.78,-87.3278 565.999,-81.1118"/>
</g>
<!-- Node33 -->
<g id="node65" class="node"><title>Node33</title>
<a xlink:href="class_8h.xhtml" target="_top" xlink:title="All class declarations.">
<polygon fill="white" stroke="black" points="580,-58.5 580,-79.5 630,-79.5 630,-58.5 580,-58.5"/>
<text text-anchor="middle" x="605" y="-66.5" font-family="FreeSans.ttf" font-size="10.00">class.h</text>
</a>
</g>
<!-- Node2&#45;&gt;Node33 -->
<g id="edge64" class="edge"><title>Node2&#45;&gt;Node33</title>
<path fill="none" stroke="midnightblue" d="M639.297,-116.362C633.554,-108.431 625.557,-97.3885 618.73,-87.9606"/>
<polygon fill="midnightblue" stroke="midnightblue" points="621.355,-85.6173 612.655,-79.5707 615.685,-89.7229 621.355,-85.6173"/>
</g>
<!-- Node34 -->
<g id="node67" class="node"><title>Node34</title>
<a xlink:href="namespace_8h.xhtml" target="_top" xlink:title="All namespace includes.">
<polygon fill="white" stroke="black" points="648,-58.5 648,-79.5 730,-79.5 730,-58.5 648,-58.5"/>
<text text-anchor="middle" x="689" y="-66.5" font-family="FreeSans.ttf" font-size="10.00">namespace.h</text>
</a>
</g>
<!-- Node2&#45;&gt;Node34 -->
<g id="edge66" class="edge"><title>Node2&#45;&gt;Node34</title>
<path fill="none" stroke="midnightblue" d="M654.703,-116.362C660.446,-108.431 668.443,-97.3885 675.27,-87.9606"/>
<polygon fill="midnightblue" stroke="midnightblue" points="678.315,-89.7229 681.345,-79.5707 672.645,-85.6173 678.315,-89.7229"/>
</g>
<!-- Node4 -->
<g id="node7" class="node"><title>Node4</title>
<polygon fill="white" stroke="#bfbfbf" points="1768,-0.5 1768,-21.5 1830,-21.5 1830,-0.5 1768,-0.5"/>
<text text-anchor="middle" x="1799" y="-8.5" font-family="FreeSans.ttf" font-size="10.00">algorithm</text>
</g>
<!-- Node3&#45;&gt;Node4 -->
<g id="edge6" class="edge"><title>Node3&#45;&gt;Node4</title>
<path fill="none" stroke="midnightblue" d="M978.009,-59.4221C981.04,-58.8794 984.062,-58.3952 987,-58 1324.09,-12.6555 1417.94,-74.6364 1757.58,-21.907"/>
<polygon fill="midnightblue" stroke="midnightblue" points="1758.37,-25.3263 1767.7,-20.3133 1757.28,-18.4115 1758.37,-25.3263"/>
</g>
<!-- Node5 -->
<g id="node9" class="node"><title>Node5</title>
<polygon fill="white" stroke="#bfbfbf" points="1848,-0.5 1848,-21.5 1892,-21.5 1892,-0.5 1848,-0.5"/>
<text text-anchor="middle" x="1870" y="-8.5" font-family="FreeSans.ttf" font-size="10.00">bitset</text>
</g>
<!-- Node3&#45;&gt;Node5 -->
<g id="edge8" class="edge"><title>Node3&#45;&gt;Node5</title>
<path fill="none" stroke="midnightblue" d="M978.007,-59.4076C981.039,-58.8683 984.061,-58.3888 987,-58 1359.43,-8.73055 1465.08,-92.676 1837.89,-21.6711"/>
<polygon fill="midnightblue" stroke="midnightblue" points="1838.72,-25.0766 1847.87,-19.7455 1837.39,-18.2033 1838.72,-25.0766"/>
</g>
<!-- Node6 -->
<g id="node11" class="node"><title>Node6</title>
<polygon fill="white" stroke="#bfbfbf" points="1910,-0.5 1910,-21.5 1960,-21.5 1960,-0.5 1910,-0.5"/>
<text text-anchor="middle" x="1935" y="-8.5" font-family="FreeSans.ttf" font-size="10.00">chrono</text>
</g>
<!-- Node3&#45;&gt;Node6 -->
<g id="edge10" class="edge"><title>Node3&#45;&gt;Node6</title>
<path fill="none" stroke="midnightblue" d="M978.005,-59.3982C981.038,-58.861 984.061,-58.3846 987,-58 1386.76,-5.69724 1498.9,-91.7846 1899.82,-21.7432"/>
<polygon fill="midnightblue" stroke="midnightblue" points="1900.71,-25.14 1909.94,-19.9514 1899.49,-18.247 1900.71,-25.14"/>
</g>
<!-- Node7 -->
<g id="node13" class="node"><title>Node7</title>
<polygon fill="white" stroke="#bfbfbf" points="209.5,-0.5 209.5,-21.5 262.5,-21.5 262.5,-0.5 209.5,-0.5"/>
<text text-anchor="middle" x="236" y="-8.5" font-family="FreeSans.ttf" font-size="10.00">cstdarg</text>
</g>
<!-- Node3&#45;&gt;Node7 -->
<g id="edge12" class="edge"><title>Node3&#45;&gt;Node7</title>
<path fill="none" stroke="midnightblue" d="M897.814,-66.7182C768.487,-59.3018 366.457,-35.6544 272.673,-21.7496"/>
<polygon fill="midnightblue" stroke="midnightblue" points="273.029,-18.2607 262.589,-20.0625 271.874,-25.1647 273.029,-18.2607"/>
</g>
<!-- Node8 -->
<g id="node15" class="node"><title>Node8</title>
<polygon fill="white" stroke="#bfbfbf" points="279.5,-0.5 279.5,-21.5 324.5,-21.5 324.5,-0.5 279.5,-0.5"/>
<text text-anchor="middle" x="302" y="-8.5" font-family="FreeSans.ttf" font-size="10.00">cstdio</text>
</g>
<!-- Node3&#45;&gt;Node8 -->
<g id="edge14" class="edge"><title>Node3&#45;&gt;Node8</title>
<path fill="none" stroke="midnightblue" d="M897.617,-66.4818C776.594,-58.8526 420.399,-35.7711 334.692,-21.6963"/>
<polygon fill="midnightblue" stroke="midnightblue" points="335.301,-18.2496 324.829,-19.8571 334.018,-25.131 335.301,-18.2496"/>
</g>
<!-- Node9 -->
<g id="node17" class="node"><title>Node9</title>
<polygon fill="white" stroke="#bfbfbf" points="341.5,-0.5 341.5,-21.5 388.5,-21.5 388.5,-0.5 341.5,-0.5"/>
<text text-anchor="middle" x="365" y="-8.5" font-family="FreeSans.ttf" font-size="10.00">deque</text>
</g>
<!-- Node3&#45;&gt;Node9 -->
<g id="edge16" class="edge"><title>Node3&#45;&gt;Node9</title>
<path fill="none" stroke="midnightblue" d="M897.799,-66.7847C792.681,-60.7946 510.588,-43.404 398.567,-21.8568"/>
<polygon fill="midnightblue" stroke="midnightblue" points="399.081,-18.3896 388.584,-19.8268 397.686,-25.2493 399.081,-18.3896"/>
</g>
<!-- Node10 -->
<g id="node19" class="node"><title>Node10</title>
<polygon fill="white" stroke="#bfbfbf" points="405.5,-0.5 405.5,-21.5 476.5,-21.5 476.5,-0.5 405.5,-0.5"/>
<text text-anchor="middle" x="441" y="-8.5" font-family="FreeSans.ttf" font-size="10.00">forward_list</text>
</g>
<!-- Node3&#45;&gt;Node10 -->
<g id="edge18" class="edge"><title>Node3&#45;&gt;Node10</title>
<path fill="none" stroke="midnightblue" d="M897.741,-66.7427C820.03,-61.972 643.855,-49.15 487.217,-22.2172"/>
<polygon fill="midnightblue" stroke="midnightblue" points="487.382,-18.6932 476.929,-20.4227 486.179,-25.5891 487.382,-18.6932"/>
</g>
<!-- Node11 -->
<g id="node21" class="node"><title>Node11</title>
<polygon fill="white" stroke="#bfbfbf" points="494,-0.5 494,-21.5 548,-21.5 548,-0.5 494,-0.5"/>
<text text-anchor="middle" x="521" y="-8.5" font-family="FreeSans.ttf" font-size="10.00">fstream</text>
</g>
<!-- Node3&#45;&gt;Node11 -->
<g id="edge20" class="edge"><title>Node3&#45;&gt;Node11</title>
<path fill="none" stroke="midnightblue" d="M897.855,-66.3531C829.75,-61.3649 687.195,-48.7716 558.423,-22.025"/>
<polygon fill="midnightblue" stroke="midnightblue" points="558.896,-18.5477 548.389,-19.9057 557.45,-25.3966 558.896,-18.5477"/>
</g>
<!-- Node12 -->
<g id="node23" class="node"><title>Node12</title>
<polygon fill="white" stroke="#bfbfbf" points="565.5,-0.5 565.5,-21.5 624.5,-21.5 624.5,-0.5 565.5,-0.5"/>
<text text-anchor="middle" x="595" y="-8.5" font-family="FreeSans.ttf" font-size="10.00">iostream</text>
</g>
<!-- Node3&#45;&gt;Node12 -->
<g id="edge22" class="edge"><title>Node3&#45;&gt;Node12</title>
<path fill="none" stroke="midnightblue" d="M897.727,-64.4726C840.965,-57.7253 734.081,-43.6802 634.68,-22.1852"/>
<polygon fill="midnightblue" stroke="midnightblue" points="635.295,-18.7369 624.777,-20.0131 633.795,-25.5744 635.295,-18.7369"/>
</g>
<!-- Node13 -->
<g id="node25" class="node"><title>Node13</title>
<polygon fill="white" stroke="#bfbfbf" points="642,-0.5 642,-21.5 694,-21.5 694,-0.5 642,-0.5"/>
<text text-anchor="middle" x="668" y="-8.5" font-family="FreeSans.ttf" font-size="10.00">iterator</text>
</g>
<!-- Node3&#45;&gt;Node13 -->
<g id="edge24" class="edge"><title>Node3&#45;&gt;Node13</title>
<path fill="none" stroke="midnightblue" d="M897.788,-62.3103C852.777,-54.5243 777.528,-40.6188 704.155,-22.1136"/>
<polygon fill="midnightblue" stroke="midnightblue" points="704.842,-18.6766 694.286,-19.5933 703.109,-25.459 704.842,-18.6766"/>
</g>
<!-- Node14 -->
<g id="node27" class="node"><title>Node14</title>
<polygon fill="white" stroke="#bfbfbf" points="712,-0.5 712,-21.5 754,-21.5 754,-0.5 712,-0.5"/>
<text text-anchor="middle" x="733" y="-8.5" font-family="FreeSans.ttf" font-size="10.00">limits</text>
</g>
<!-- Node3&#45;&gt;Node14 -->
<g id="edge26" class="edge"><title>Node3&#45;&gt;Node14</title>
<path fill="none" stroke="midnightblue" d="M897.741,-59.272C864.169,-50.9181 814.923,-38.106 763.791,-22.0776"/>
<polygon fill="midnightblue" stroke="midnightblue" points="764.815,-18.7306 754.225,-19.0477 762.701,-25.4039 764.815,-18.7306"/>
</g>
<!-- Node15 -->
<g id="node29" class="node"><title>Node15</title>
<polygon fill="white" stroke="#bfbfbf" points="772,-0.5 772,-21.5 802,-21.5 802,-0.5 772,-0.5"/>
<text text-anchor="middle" x="787" y="-8.5" font-family="FreeSans.ttf" font-size="10.00">list</text>
</g>
<!-- Node3&#45;&gt;Node15 -->
<g id="edge28" class="edge"><title>Node3&#45;&gt;Node15</title>
<path fill="none" stroke="midnightblue" d="M907.472,-58.4302C883.612,-50.0096 849.452,-37.6068 811.803,-22.1515"/>
<polygon fill="midnightblue" stroke="midnightblue" points="812.738,-18.7505 802.16,-18.157 810.059,-25.2176 812.738,-18.7505"/>
</g>
<!-- Node16 -->
<g id="node31" class="node"><title>Node16</title>
<polygon fill="white" stroke="#bfbfbf" points="820,-0.5 820,-21.5 858,-21.5 858,-0.5 820,-0.5"/>
<text text-anchor="middle" x="839" y="-8.5" font-family="FreeSans.ttf" font-size="10.00">map</text>
</g>
<!-- Node3&#45;&gt;Node16 -->
<g id="edge30" class="edge"><title>Node3&#45;&gt;Node16</title>
<path fill="none" stroke="midnightblue" d="M919.842,-58.3619C904.77,-49.532 883.113,-36.844 866.007,-26.8224"/>
<polygon fill="midnightblue" stroke="midnightblue" points="867.441,-23.6058 857.043,-21.5707 863.902,-29.6456 867.441,-23.6058"/>
</g>
<!-- Node17 -->
<g id="node33" class="node"><title>Node17</title>
<polygon fill="white" stroke="#bfbfbf" points="876,-0.5 876,-21.5 932,-21.5 932,-0.5 876,-0.5"/>
<text text-anchor="middle" x="904" y="-8.5" font-family="FreeSans.ttf" font-size="10.00">sstream</text>
</g>
<!-- Node3&#45;&gt;Node17 -->
<g id="edge32" class="edge"><title>Node3&#45;&gt;Node17</title>
<path fill="none" stroke="midnightblue" d="M931.764,-58.3619C927.163,-50.5131 920.775,-39.6159 915.286,-30.2527"/>
<polygon fill="midnightblue" stroke="midnightblue" points="918.273,-28.4276 910.197,-21.5707 912.234,-31.9677 918.273,-28.4276"/>
</g>
<!-- Node18 -->
<g id="node35" class="node"><title>Node18</title>
<polygon fill="white" stroke="#bfbfbf" points="949.5,-0.5 949.5,-21.5 996.5,-21.5 996.5,-0.5 949.5,-0.5"/>
<text text-anchor="middle" x="973" y="-8.5" font-family="FreeSans.ttf" font-size="10.00">vector</text>
</g>
<!-- Node3&#45;&gt;Node18 -->
<g id="edge34" class="edge"><title>Node3&#45;&gt;Node18</title>
<path fill="none" stroke="midnightblue" d="M944.42,-58.3619C949.156,-50.5131 955.732,-39.6159 961.382,-30.2527"/>
<polygon fill="midnightblue" stroke="midnightblue" points="964.451,-31.9409 966.621,-21.5707 958.458,-28.3242 964.451,-31.9409"/>
</g>
<!-- Node19 -->
<g id="node37" class="node"><title>Node19</title>
<polygon fill="white" stroke="#bfbfbf" points="1014,-0.5 1014,-21.5 1082,-21.5 1082,-0.5 1014,-0.5"/>
<text text-anchor="middle" x="1048" y="-8.5" font-family="FreeSans.ttf" font-size="10.00">arpa/inet.h</text>
</g>
<!-- Node3&#45;&gt;Node19 -->
<g id="edge36" class="edge"><title>Node3&#45;&gt;Node19</title>
<path fill="none" stroke="midnightblue" d="M957.92,-58.4966C974.946,-49.5194 999.669,-36.4835 1018.91,-26.3387"/>
<polygon fill="midnightblue" stroke="midnightblue" points="1020.64,-29.3814 1027.86,-21.6212 1017.38,-23.1894 1020.64,-29.3814"/>
</g>
<!-- Node20 -->
<g id="node39" class="node"><title>Node20</title>
<polygon fill="white" stroke="#bfbfbf" points="1100,-0.5 1100,-21.5 1178,-21.5 1178,-0.5 1100,-0.5"/>
<text text-anchor="middle" x="1139" y="-8.5" font-family="FreeSans.ttf" font-size="10.00">arpa/telnet.h</text>
</g>
<!-- Node3&#45;&gt;Node20 -->
<g id="edge38" class="edge"><title>Node3&#45;&gt;Node20</title>
<path fill="none" stroke="midnightblue" d="M974.4,-58.4966C1007.59,-48.9183 1056.8,-34.7196 1092.76,-24.3418"/>
<polygon fill="midnightblue" stroke="midnightblue" points="1093.89,-27.6584 1102.53,-21.5231 1091.95,-20.9328 1093.89,-27.6584"/>
</g>
<!-- Node21 -->
<g id="node41" class="node"><title>Node21</title>
<polygon fill="white" stroke="#bfbfbf" points="1195.5,-0.5 1195.5,-21.5 1248.5,-21.5 1248.5,-0.5 1195.5,-0.5"/>
<text text-anchor="middle" x="1222" y="-8.5" font-family="FreeSans.ttf" font-size="10.00">dirent.h</text>
</g>
<!-- Node3&#45;&gt;Node21 -->
<g id="edge40" class="edge"><title>Node3&#45;&gt;Node21</title>
<path fill="none" stroke="midnightblue" d="M978.082,-59.8557C981.096,-59.2127 984.094,-58.5874 987,-58 1072.41,-40.7336 1097.55,-43.3647 1185.48,-22.1725"/>
<polygon fill="midnightblue" stroke="midnightblue" points="1186.46,-25.5347 1195.35,-19.759 1184.8,-18.7351 1186.46,-25.5347"/>
</g>
<!-- Node22 -->
<g id="node43" class="node"><title>Node22</title>
<polygon fill="white" stroke="#bfbfbf" points="1266,-0.5 1266,-21.5 1314,-21.5 1314,-0.5 1266,-0.5"/>
<text text-anchor="middle" x="1290" y="-8.5" font-family="FreeSans.ttf" font-size="10.00">dlfcn.h</text>
</g>
<!-- Node3&#45;&gt;Node22 -->
<g id="edge42" class="edge"><title>Node3&#45;&gt;Node22</title>
<path fill="none" stroke="midnightblue" d="M978.053,-59.7061C981.074,-59.0977 984.082,-58.521 987,-58 1103.03,-37.2817 1137.25,-48.6256 1256.15,-21.8451"/>
<polygon fill="midnightblue" stroke="midnightblue" points="1257.04,-25.2329 1266,-19.5841 1255.47,-18.4104 1257.04,-25.2329"/>
</g>
<!-- Node23 -->
<g id="node45" class="node"><title>Node23</title>
<polygon fill="white" stroke="#bfbfbf" points="1331.5,-0.5 1331.5,-21.5 1382.5,-21.5 1382.5,-0.5 1331.5,-0.5"/>
<text text-anchor="middle" x="1357" y="-8.5" font-family="FreeSans.ttf" font-size="10.00">errno.h</text>
</g>
<!-- Node3&#45;&gt;Node23 -->
<g id="edge44" class="edge"><title>Node3&#45;&gt;Node23</title>
<path fill="none" stroke="midnightblue" d="M978.038,-59.621C981.063,-59.0323 984.075,-58.4833 987,-58 1131.99,-34.0378 1174.3,-52.4525 1321.32,-22.0418"/>
<polygon fill="midnightblue" stroke="midnightblue" points="1322.1,-25.4553 1331.16,-19.9671 1320.65,-18.606 1322.1,-25.4553"/>
</g>
<!-- Node24 -->
<g id="node47" class="node"><title>Node24</title>
<polygon fill="white" stroke="#bfbfbf" points="1400,-0.5 1400,-21.5 1446,-21.5 1446,-0.5 1400,-0.5"/>
<text text-anchor="middle" x="1423" y="-8.5" font-family="FreeSans.ttf" font-size="10.00">fcntl.h</text>
</g>
<!-- Node3&#45;&gt;Node24 -->
<g id="edge46" class="edge"><title>Node3&#45;&gt;Node24</title>
<path fill="none" stroke="midnightblue" d="M978.029,-59.562C981.056,-58.987 984.071,-58.4572 987,-58 1161.89,-30.6991 1212.86,-58.5329 1389.87,-21.809"/>
<polygon fill="midnightblue" stroke="midnightblue" points="1390.71,-25.2088 1399.77,-19.7157 1389.26,-18.3603 1390.71,-25.2088"/>
</g>
<!-- Node25 -->
<g id="node49" class="node"><title>Node25</title>
<polygon fill="white" stroke="#bfbfbf" points="1463.5,-0.5 1463.5,-21.5 1528.5,-21.5 1528.5,-0.5 1463.5,-0.5"/>
<text text-anchor="middle" x="1496" y="-8.5" font-family="FreeSans.ttf" font-size="10.00">memory.h</text>
</g>
<!-- Node3&#45;&gt;Node25 -->
<g id="edge48" class="edge"><title>Node3&#45;&gt;Node25</title>
<path fill="none" stroke="midnightblue" d="M978.023,-59.522C981.051,-58.9562 984.068,-58.4395 987,-58 1190.09,-27.5558 1247.58,-56.254 1453.53,-21.9968"/>
<polygon fill="midnightblue" stroke="midnightblue" points="1454.17,-25.4376 1463.45,-20.3174 1453,-18.5358 1454.17,-25.4376"/>
</g>
<!-- Node26 -->
<g id="node51" class="node"><title>Node26</title>
<polygon fill="white" stroke="#bfbfbf" points="1545.5,-0.5 1545.5,-21.5 1598.5,-21.5 1598.5,-0.5 1545.5,-0.5"/>
<text text-anchor="middle" x="1572" y="-8.5" font-family="FreeSans.ttf" font-size="10.00">netdb.h</text>
</g>
<!-- Node3&#45;&gt;Node26 -->
<g id="edge50" class="edge"><title>Node3&#45;&gt;Node26</title>
<path fill="none" stroke="midnightblue" d="M978.017,-59.4843C981.047,-58.9272 984.066,-58.4227 987,-58 1226.15,-23.5435 1294.35,-65.8577 1535.29,-21.9525"/>
<polygon fill="midnightblue" stroke="midnightblue" points="1536.22,-25.3407 1545.41,-20.0766 1534.94,-18.4579 1536.22,-25.3407"/>
</g>
<!-- Node27 -->
<g id="node53" class="node"><title>Node27</title>
<polygon fill="white" stroke="#bfbfbf" points="1615.5,-0.5 1615.5,-21.5 1678.5,-21.5 1678.5,-0.5 1615.5,-0.5"/>
<text text-anchor="middle" x="1647" y="-8.5" font-family="FreeSans.ttf" font-size="10.00">sys/stat.h</text>
</g>
<!-- Node3&#45;&gt;Node27 -->
<g id="edge52" class="edge"><title>Node3&#45;&gt;Node27</title>
<path fill="none" stroke="midnightblue" d="M978.014,-59.4599C981.044,-58.9085 984.064,-58.4119 987,-58 1257,-20.1117 1332.8,-65.7025 1605.07,-22.0376"/>
<polygon fill="midnightblue" stroke="midnightblue" points="1605.95,-25.4408 1615.26,-20.3776 1604.82,-18.5319 1605.95,-25.4408"/>
</g>
<!-- Node28 -->
<g id="node55" class="node"><title>Node28</title>
<polygon fill="white" stroke="#bfbfbf" points="1695.5,-0.5 1695.5,-21.5 1750.5,-21.5 1750.5,-0.5 1695.5,-0.5"/>
<text text-anchor="middle" x="1723" y="-8.5" font-family="FreeSans.ttf" font-size="10.00">unistd.h</text>
</g>
<!-- Node3&#45;&gt;Node28 -->
<g id="edge54" class="edge"><title>Node3&#45;&gt;Node28</title>
<path fill="none" stroke="midnightblue" d="M978.011,-59.438C981.042,-58.8916 984.063,-58.4022 987,-58 1292.33,-16.1848 1378.34,-74.6396 1685.18,-21.9684"/>
<polygon fill="midnightblue" stroke="midnightblue" points="1686.01,-25.3776 1695.26,-20.2129 1684.8,-18.4815 1686.01,-25.3776"/>
</g>
<!-- Node35 -->
<g id="node69" class="node"><title>Node35</title>
<a xlink:href="handler_8h.xhtml" target="_top" xlink:title="The Handler namespace.">
<polygon fill="white" stroke="black" points="-0.5,-0.5 -0.5,-21.5 60.5,-21.5 60.5,-0.5 -0.5,-0.5"/>
<text text-anchor="middle" x="30" y="-8.5" font-family="FreeSans.ttf" font-size="10.00">handler.h</text>
</a>
</g>
<!-- Node34&#45;&gt;Node35 -->
<g id="edge68" class="edge"><title>Node34&#45;&gt;Node35</title>
<path fill="none" stroke="midnightblue" d="M647.89,-59.4317C644.891,-58.8949 641.904,-58.4087 639,-58 390.953,-23.0922 321.058,-63.597 70.6504,-21.9798"/>
<polygon fill="midnightblue" stroke="midnightblue" points="70.9601,-18.4826 60.5167,-20.2674 69.7938,-25.3847 70.9601,-18.4826"/>
</g>
<!-- Node36 -->
<g id="node71" class="node"><title>Node36</title>
<a xlink:href="telopt_8h.xhtml" target="_top" xlink:title="The telopt namespace.">
<polygon fill="white" stroke="black" points="77.5,-0.5 77.5,-21.5 130.5,-21.5 130.5,-0.5 77.5,-0.5"/>
<text text-anchor="middle" x="104" y="-8.5" font-family="FreeSans.ttf" font-size="10.00">telopt.h</text>
</a>
</g>
<!-- Node34&#45;&gt;Node36 -->
<g id="edge70" class="edge"><title>Node34&#45;&gt;Node36</title>
<path fill="none" stroke="midnightblue" d="M647.886,-59.4608C644.888,-58.9172 641.903,-58.4215 639,-58 421.745,-26.45 359.675,-62.5924 140.471,-21.9233"/>
<polygon fill="midnightblue" stroke="midnightblue" points="141.065,-18.4738 130.59,-20.0581 139.767,-25.3523 141.065,-18.4738"/>
</g>
<!-- Node37 -->
<g id="node73" class="node"><title>Node37</title>
<a xlink:href="utils_8h.xhtml" target="_top" xlink:title="The Utils namespace.">
<polygon fill="white" stroke="black" points="147.5,-0.5 147.5,-21.5 192.5,-21.5 192.5,-0.5 147.5,-0.5"/>
<text text-anchor="middle" x="170" y="-8.5" font-family="FreeSans.ttf" font-size="10.00">utils.h</text>
</a>
</g>
<!-- Node34&#45;&gt;Node37 -->
<g id="edge72" class="edge"><title>Node34&#45;&gt;Node37</title>
<path fill="none" stroke="midnightblue" d="M647.881,-59.4943C644.884,-58.9428 641.9,-58.4362 639,-58 449.056,-29.4328 393.798,-61.889 202.631,-21.9315"/>
<polygon fill="midnightblue" stroke="midnightblue" points="203.341,-18.5043 192.831,-19.8453 201.883,-25.3509 203.341,-18.5043"/>
</g>
<!-- Node39 -->
<g id="node77" class="node"><title>Node39</title>
<a xlink:href="socket_8h.xhtml" target="_top" xlink:title="The Socket class.">
<polygon fill="white" stroke="black" points="1206.5,-58.5 1206.5,-79.5 1263.5,-79.5 1263.5,-58.5 1206.5,-58.5"/>
<text text-anchor="middle" x="1235" y="-66.5" font-family="FreeSans.ttf" font-size="10.00">socket.h</text>
</a>
</g>
<!-- Node38&#45;&gt;Node39 -->
<g id="edge76" class="edge"><title>Node38&#45;&gt;Node39</title>
<path fill="none" stroke="midnightblue" d="M1037.64,-116.497C1082.98,-105.587 1153.22,-88.6822 1196.53,-78.2576"/>
<polygon fill="midnightblue" stroke="midnightblue" points="1197.5,-81.6245 1206.4,-75.8818 1195.86,-74.8189 1197.5,-81.6245"/>
</g>
<!-- Node42 -->
<g id="node83" class="node"><title>Node42</title>
<a xlink:href="thing_8h.xhtml" target="_top" xlink:title="The Thing class.">
<polygon fill="white" stroke="black" points="1064,-58.5 1064,-79.5 1114,-79.5 1114,-58.5 1064,-58.5"/>
<text text-anchor="middle" x="1089" y="-66.5" font-family="FreeSans.ttf" font-size="10.00">thing.h</text>
</a>
</g>
<!-- Node41&#45;&gt;Node42 -->
<g id="edge82" class="edge"><title>Node41&#45;&gt;Node42</title>
<path fill="none" stroke="midnightblue" d="M840.078,-117.839C843.094,-117.2 846.093,-116.58 849,-116 937.032,-98.4373 963.024,-102.075 1053.96,-80.0076"/>
<polygon fill="midnightblue" stroke="midnightblue" points="1054.99,-83.358 1063.86,-77.566 1053.32,-76.5615 1054.99,-83.358"/>
</g>
<!-- Node46&#45;&gt;Node39 -->
<g id="edge92" class="edge"><title>Node46&#45;&gt;Node39</title>
<path fill="none" stroke="midnightblue" d="M1331.63,-116.497C1313.2,-107.438 1286.36,-94.2462 1265.64,-84.0628"/>
<polygon fill="midnightblue" stroke="midnightblue" points="1267.13,-80.8914 1256.61,-79.6212 1264.04,-87.1735 1267.13,-80.8914"/>
</g>
</g>
</svg>
        <g id="navigator" transform="translate(0 0)" fill="#404254">
                <rect fill="#f2f5e9" fill-opacity="0.5" stroke="#606060" stroke-width=".5" x="0" y="0" width="60" height="60"/>
                <use id="zoomplus" xlink:href="#zoomPlus" x="17" y="9" onmousedown="handleZoom(evt,'in')"/>
                <use id="zoomminus" xlink:href="#zoomMin" x="42" y="9" onmousedown="handleZoom(evt,'out')"/>
                <use id="reset" xlink:href="#resetDef" x="30" y="36" onmousedown="handleReset()"/>
                <g id="arrowUp" xlink:href="#dirArrow" transform="translate(30 24)" onmousedown="handlePan(0,-1)">
                  <use xlink:href="#rim" fill="#404040">
                        <set attributeName="fill" to="#808080" begin="arrowUp.mouseover" end="arrowUp.mouseout"/>
                  </use>
                  <path fill="none" stroke="white" stroke-width="1.5" d="M0,-3.0v7 M-2.5,-0.5L0,-3.0L2.5,-0.5"/>
                </g>
                <g id="arrowRight" xlink:href="#dirArrow" transform="rotate(90) translate(36 -43)" onmousedown="handlePan(1,0)">
                  <use xlink:href="#rim" fill="#404040">
                        <set attributeName="fill" to="#808080" begin="arrowRight.mouseover" end="arrowRight.mouseout"/>
                  </use>
                  <path fill="none" stroke="white" stroke-width="1.5" d="M0,-3.0v7 M-2.5,-0.5L0,-3.0L2.5,-0.5"/>
                </g>
                <g id="arrowDown" xlink:href="#dirArrow" transform="rotate(180) translate(-30 -48)" onmousedown="handlePan(0,1)">
                  <use xlink:href="#rim" fill="#404040">
                        <set attributeName="fill" to="#808080" begin="arrowDown.mouseover" end="arrowDown.mouseout"/>
                  </use>
                  <path fill="none" stroke="white" stroke-width="1.5" d="M0,-3.0v7 M-2.5,-0.5L0,-3.0L2.5,-0.5"/>
                </g>
                <g id="arrowLeft" xlink:href="#dirArrow" transform="rotate(270) translate(-36 17)" onmousedown="handlePan(-1,0)">
                  <use xlink:href="#rim" fill="#404040">
                        <set attributeName="fill" to="#808080" begin="arrowLeft.mouseover" end="arrowLeft.mouseout"/>
                  </use>
                  <path fill="none" stroke="white" stroke-width="1.5" d="M0,-3.0v7 M-2.5,-0.5L0,-3.0L2.5,-0.5"/>
                </g>
        </g>
</svg>
