<?xml version="1.0" encoding="UTF-8" standalone="no"?>
<!DOCTYPE svg PUBLIC "-//W3C//DTD SVG 1.1//EN"
 "http://www.w3.org/Graphics/SVG/1.1/DTD/svg11.dtd">
<!-- Generated by graphviz version 2.26.3 (20100126.1600)
 -->
<!-- Title: G Pages: 1 -->
<!--zoomable 610 -->
<svg id="main" version="1.1" xmlns="http://www.w3.org/2000/svg" xmlns:xlink="http://www.w3.org/1999/xlink" xml:space="preserve" onload="init(evt)">
        <defs>
                <circle id="rim" cx="0" cy="0" r="7"/>
                <circle id="rim2" cx="0" cy="0" r="3.5"/>
                <g id="zoomPlus">
                        <use xlink:href="#rim" fill="#404040">
                                <set attributeName="fill" to="#808080" begin="zoomplus.mouseover" end="zoomplus.mouseout"/>
                        </use>
                        <path d="M-4,0h8M0,-4v8" fill="none" stroke="white" stroke-width="1.5" pointer-events="none"/>
                </g>
                <g id="zoomMin">
                        <use xlink:href="#rim" fill="#404040">
                                <set attributeName="fill" to="#808080" begin="zoomminus.mouseover" end="zoomminus.mouseout"/>
                        </use>
                        <path d="M-4,0h8" fill="none" stroke="white" stroke-width="1.5" pointer-events="none"/>
                </g>
                <g id="dirArrow">
                        <path fill="none" stroke="white" stroke-width="1.5" d="M0,-3.0v7 M-2.5,-0.5L0,-3.0L2.5,-0.5"/>
                </g>
               <g id="resetDef">
                       <use xlink:href="#rim2" fill="#404040">
                               <set attributeName="fill" to="#808080" begin="reset.mouseover" end="reset.mouseout"/>
                       </use>
               </g>
        </defs>

<script type="text/javascript">
var viewWidth = 1318;
var viewHeight = 610;
var sectionId = 'dynsection-0';
</script>
<script xlink:href="svgpan.js"/>
<svg id="graph" class="graph">
<g id="viewport">
<title>G</title>
<polygon fill="white" stroke="white" points="-4,5 -4,-606 1315,-606 1315,5 -4,5"/>
<!-- Node1 -->
<g id="node1" class="node"><title>Node1</title>
<polygon fill="#bfbfbf" stroke="black" points="960,-580.5 960,-601.5 1026,-601.5 1026,-580.5 960,-580.5"/>
<text text-anchor="middle" x="993" y="-588.5" font-family="FreeSans.ttf" font-size="10.00">h/socket.h</text>
</g>
<!-- Node2 -->
<g id="node3" class="node"><title>Node2</title>
<a xlink:href="socketserver_8h.xhtml" target="_top" xlink:title="The SocketServer class.">
<polygon fill="white" stroke="black" points="488.5,-522.5 488.5,-543.5 583.5,-543.5 583.5,-522.5 488.5,-522.5"/>
<text text-anchor="middle" x="536" y="-530.5" font-family="FreeSans.ttf" font-size="10.00">h/socketserver.h</text>
</a>
</g>
<!-- Node1&#45;&gt;Node2 -->
<g id="edge2" class="edge"><title>Node1&#45;&gt;Node2</title>
<path fill="none" stroke="midnightblue" d="M949.591,-585.491C863.778,-574.6 673.038,-550.392 583.786,-539.065"/>
<polygon fill="midnightblue" stroke="midnightblue" points="949.404,-588.995 959.766,-586.782 950.286,-582.051 949.404,-588.995"/>
</g>
<!-- Node7 -->
<g id="node13" class="node"><title>Node7</title>
<a xlink:href="socketclient_8h.xhtml" target="_top" xlink:title="The SocketClient class.">
<polygon fill="white" stroke="black" points="581,-232.5 581,-253.5 673,-253.5 673,-232.5 581,-232.5"/>
<text text-anchor="middle" x="627" y="-240.5" font-family="FreeSans.ttf" font-size="10.00">h/socketclient.h</text>
</a>
</g>
<!-- Node1&#45;&gt;Node7 -->
<g id="edge106" class="edge"><title>Node1&#45;&gt;Node7</title>
<path fill="none" stroke="midnightblue" d="M993,-570.406C993,-547.215 993,-508.402 993,-475 993,-475 993,-475 993,-359 993,-292.677 771.84,-259.371 673.354,-247.827"/>
<polygon fill="midnightblue" stroke="midnightblue" points="989.5,-570.444 993,-580.444 996.5,-570.444 989.5,-570.444"/>
</g>
<!-- Node20 -->
<g id="node39" class="node"><title>Node20</title>
<a xlink:href="socket_8cpp.xhtml" target="_top" xlink:title="All non&#45;template member functions of the Socket class.">
<polygon fill="white" stroke="black" points="1242,-0.5 1242,-21.5 1310,-21.5 1310,-0.5 1242,-0.5"/>
<text text-anchor="middle" x="1276" y="-8.5" font-family="FreeSans.ttf" font-size="10.00">socket.cpp</text>
</a>
</g>
<!-- Node1&#45;&gt;Node20 -->
<g id="edge108" class="edge"><title>Node1&#45;&gt;Node20</title>
<path fill="none" stroke="midnightblue" d="M1036.09,-582.812C1089.05,-569.961 1172,-539.534 1172,-475 1172,-475 1172,-475 1172,-127 1172,-77.2322 1225.73,-39.0799 1255.95,-21.5558"/>
<polygon fill="midnightblue" stroke="midnightblue" points="1035.21,-579.423 1026.25,-585.082 1036.78,-586.244 1035.21,-579.423"/>
</g>
<!-- Node3 -->
<g id="node5" class="node"><title>Node3</title>
<a xlink:href="server_8h.xhtml" target="_top" xlink:title="The Server class.">
<polygon fill="white" stroke="black" points="504,-464.5 504,-485.5 568,-485.5 568,-464.5 504,-464.5"/>
<text text-anchor="middle" x="536" y="-472.5" font-family="FreeSans.ttf" font-size="10.00">h/server.h</text>
</a>
</g>
<!-- Node2&#45;&gt;Node3 -->
<g id="edge4" class="edge"><title>Node2&#45;&gt;Node3</title>
<path fill="none" stroke="midnightblue" d="M536,-512.191C536,-503.168 536,-492.994 536,-485.571"/>
<polygon fill="midnightblue" stroke="midnightblue" points="532.5,-512.362 536,-522.362 539.5,-512.362 532.5,-512.362"/>
</g>
<!-- Node22 -->
<g id="node43" class="node"><title>Node22</title>
<a xlink:href="socketserver_8cpp.xhtml" target="_top" xlink:title="All non&#45;template member functions of the SocketServer class.">
<polygon fill="white" stroke="black" points="0,-0.5 0,-21.5 98,-21.5 98,-0.5 0,-0.5"/>
<text text-anchor="middle" x="49" y="-8.5" font-family="FreeSans.ttf" font-size="10.00">socketserver.cpp</text>
</a>
</g>
<!-- Node2&#45;&gt;Node22 -->
<g id="edge104" class="edge"><title>Node2&#45;&gt;Node22</title>
<path fill="none" stroke="midnightblue" d="M478.021,-530.854C352.133,-524.617 65,-501.164 65,-417 65,-417 65,-417 65,-127 65,-87.9673 56,-42.2336 51.5,-21.8064"/>
<polygon fill="midnightblue" stroke="midnightblue" points="478.091,-534.362 488.246,-531.341 478.424,-527.369 478.091,-534.362"/>
</g>
<!-- Node4 -->
<g id="node7" class="node"><title>Node4</title>
<a xlink:href="thing_8h.xhtml" target="_top" xlink:title="The Thing class.">
<polygon fill="white" stroke="black" points="610.5,-406.5 610.5,-427.5 669.5,-427.5 669.5,-406.5 610.5,-406.5"/>
<text text-anchor="middle" x="640" y="-414.5" font-family="FreeSans.ttf" font-size="10.00">h/thing.h</text>
</a>
</g>
<!-- Node3&#45;&gt;Node4 -->
<g id="edge6" class="edge"><title>Node3&#45;&gt;Node4</title>
<path fill="none" stroke="midnightblue" d="M564.01,-459.379C582.081,-449.301 605.102,-436.462 621.046,-427.571"/>
<polygon fill="midnightblue" stroke="midnightblue" points="562.104,-456.434 555.075,-464.362 565.514,-462.548 562.104,-456.434"/>
</g>
<!-- Node3&#45;&gt;Node7 -->
<g id="edge92" class="edge"><title>Node3&#45;&gt;Node7</title>
<path fill="none" stroke="midnightblue" d="M532.221,-454.132C532.274,-418.475 543.019,-344.403 573,-290 580.961,-275.555 594.478,-262.299 606.294,-253.575"/>
<polygon fill="midnightblue" stroke="midnightblue" points="528.728,-454.412 532.568,-464.286 535.724,-454.172 528.728,-454.412"/>
</g>
<!-- Node15 -->
<g id="node29" class="node"><title>Node15</title>
<a xlink:href="handler_8cpp.xhtml" target="_top" xlink:title="All non&#45;template member functions of the Handler namespace.">
<polygon fill="white" stroke="black" points="1152,-0.5 1152,-21.5 1224,-21.5 1224,-0.5 1152,-0.5"/>
<text text-anchor="middle" x="1188" y="-8.5" font-family="FreeSans.ttf" font-size="10.00">handler.cpp</text>
</a>
</g>
<!-- Node3&#45;&gt;Node15 -->
<g id="edge96" class="edge"><title>Node3&#45;&gt;Node15</title>
<path fill="none" stroke="midnightblue" d="M578.35,-469.409C698.179,-452.414 1031,-396.608 1031,-301 1031,-301 1031,-301 1031,-127 1031,-67.1846 1105.63,-34.7089 1151.98,-20.3071"/>
<polygon fill="midnightblue" stroke="midnightblue" points="577.516,-465.991 568.097,-470.841 578.485,-472.924 577.516,-465.991"/>
</g>
<!-- Node17 -->
<g id="node33" class="node"><title>Node17</title>
<a xlink:href="main_8cpp.xhtml" target="_top" xlink:title="Initial server entry point.">
<polygon fill="white" stroke="black" points="115.5,-0.5 115.5,-21.5 176.5,-21.5 176.5,-0.5 115.5,-0.5"/>
<text text-anchor="middle" x="146" y="-8.5" font-family="FreeSans.ttf" font-size="10.00">main.cpp</text>
</a>
</g>
<!-- Node3&#45;&gt;Node17 -->
<g id="edge98" class="edge"><title>Node3&#45;&gt;Node17</title>
<path fill="none" stroke="midnightblue" d="M493.991,-468.091C410.355,-453.144 231,-414.607 231,-359 231,-359 231,-359 231,-127 231,-80.312 185.645,-39.9365 161.196,-21.5632"/>
<polygon fill="midnightblue" stroke="midnightblue" points="493.481,-471.555 503.936,-469.838 494.692,-464.661 493.481,-471.555"/>
</g>
<!-- Node19 -->
<g id="node37" class="node"><title>Node19</title>
<a xlink:href="server_8cpp.xhtml" target="_top" xlink:title="All non&#45;template member functions of the Server class.">
<polygon fill="white" stroke="black" points="194,-0.5 194,-21.5 260,-21.5 260,-0.5 194,-0.5"/>
<text text-anchor="middle" x="227" y="-8.5" font-family="FreeSans.ttf" font-size="10.00">server.cpp</text>
</a>
</g>
<!-- Node3&#45;&gt;Node19 -->
<g id="edge100" class="edge"><title>Node3&#45;&gt;Node19</title>
<path fill="none" stroke="midnightblue" d="M493.745,-464.803C421.986,-446.241 284,-404.618 284,-359 284,-359 284,-359 284,-127 284,-84.3662 252.602,-41.1192 236.412,-21.6538"/>
<polygon fill="midnightblue" stroke="midnightblue" points="493.273,-468.294 503.828,-467.372 495.002,-461.511 493.273,-468.294"/>
</g>
<!-- Node3&#45;&gt;Node22 -->
<g id="edge102" class="edge"><title>Node3&#45;&gt;Node22</title>
<path fill="none" stroke="midnightblue" d="M493.6,-471.841C390.108,-462.968 133,-433.436 133,-359 133,-359 133,-359 133,-127 133,-80.5032 88.1789,-40.0395 64.0175,-21.6049"/>
<polygon fill="midnightblue" stroke="midnightblue" points="493.446,-475.34 503.702,-472.683 494.027,-468.364 493.446,-475.34"/>
</g>
<!-- Node28 -->
<g id="node58" class="node"><title>Node28</title>
<a xlink:href="event_8h.xhtml" target="_top" xlink:title="The Event class.">
<polygon fill="white" stroke="black" points="483,-58.5 483,-79.5 545,-79.5 545,-58.5 483,-58.5"/>
<text text-anchor="middle" x="514" y="-66.5" font-family="FreeSans.ttf" font-size="10.00">h/event.h</text>
</a>
</g>
<!-- Node3&#45;&gt;Node28 -->
<g id="edge94" class="edge"><title>Node3&#45;&gt;Node28</title>
<path fill="none" stroke="midnightblue" d="M494.296,-463.879C447.784,-448.652 379,-416.425 379,-359 379,-359 379,-359 379,-185 379,-130.15 443.901,-95.5949 483.703,-79.5603"/>
<polygon fill="midnightblue" stroke="midnightblue" points="493.261,-467.223 503.85,-466.874 495.354,-460.543 493.261,-467.223"/>
</g>
<!-- Node5 -->
<g id="node9" class="node"><title>Node5</title>
<a xlink:href="character_8h.xhtml" target="_top" xlink:title="The Character class.">
<polygon fill="white" stroke="black" points="587,-348.5 587,-369.5 667,-369.5 667,-348.5 587,-348.5"/>
<text text-anchor="middle" x="627" y="-356.5" font-family="FreeSans.ttf" font-size="10.00">h/character.h</text>
</a>
</g>
<!-- Node4&#45;&gt;Node5 -->
<g id="edge8" class="edge"><title>Node4&#45;&gt;Node5</title>
<path fill="none" stroke="midnightblue" d="M635.402,-396.488C633.364,-387.392 631.051,-377.076 629.369,-369.571"/>
<polygon fill="midnightblue" stroke="midnightblue" points="632.013,-397.37 637.616,-406.362 638.844,-395.838 632.013,-397.37"/>
</g>
<!-- Node24 -->
<g id="node47" class="node"><title>Node24</title>
<a xlink:href="thing_8cpp.xhtml" target="_top" xlink:title="All non&#45;template member functions of the Thing class.">
<polygon fill="white" stroke="black" points="1073.5,-0.5 1073.5,-21.5 1134.5,-21.5 1134.5,-0.5 1073.5,-0.5"/>
<text text-anchor="middle" x="1104" y="-8.5" font-family="FreeSans.ttf" font-size="10.00">thing.cpp</text>
</a>
</g>
<!-- Node4&#45;&gt;Node24 -->
<g id="edge90" class="edge"><title>Node4&#45;&gt;Node24</title>
<path fill="none" stroke="midnightblue" d="M679.65,-410.973C764.29,-396.99 955,-359.042 955,-301 955,-301 955,-301 955,-127 955,-67.4987 1029.9,-34.06 1073.49,-19.6367"/>
<polygon fill="midnightblue" stroke="midnightblue" points="678.945,-407.542 669.634,-412.598 680.066,-414.451 678.945,-407.542"/>
</g>
<!-- Node5&#45;&gt;Node3 -->
<g id="edge86" class="edge"><title>Node5&#45;&gt;Node3</title>
<path fill="none" stroke="midnightblue" d="M612.199,-377.867C592.914,-402.45 559.838,-444.613 544.398,-464.295"/>
<polygon fill="midnightblue" stroke="midnightblue" points="615.204,-379.707 618.622,-369.679 609.696,-375.387 615.204,-379.707"/>
</g>
<!-- Node6 -->
<g id="node11" class="node"><title>Node6</title>
<a xlink:href="account_8h.xhtml" target="_top" xlink:title="The Account class.">
<polygon fill="white" stroke="black" points="590.5,-290.5 590.5,-311.5 663.5,-311.5 663.5,-290.5 590.5,-290.5"/>
<text text-anchor="middle" x="627" y="-298.5" font-family="FreeSans.ttf" font-size="10.00">h/account.h</text>
</a>
</g>
<!-- Node5&#45;&gt;Node6 -->
<g id="edge10" class="edge"><title>Node5&#45;&gt;Node6</title>
<path fill="none" stroke="midnightblue" d="M620.495,-338.191C619.941,-329.168 620.326,-318.994 621.648,-311.571"/>
<polygon fill="midnightblue" stroke="midnightblue" points="617.043,-338.814 621.636,-348.362 624,-338.034 617.043,-338.814"/>
</g>
<!-- Node12 -->
<g id="node23" class="node"><title>Node12</title>
<a xlink:href="character_8cpp.xhtml" target="_top" xlink:title="All non&#45;template member functions of the Character class.">
<polygon fill="white" stroke="black" points="278,-0.5 278,-21.5 360,-21.5 360,-0.5 278,-0.5"/>
<text text-anchor="middle" x="319" y="-8.5" font-family="FreeSans.ttf" font-size="10.00">character.cpp</text>
</a>
</g>
<!-- Node5&#45;&gt;Node12 -->
<g id="edge88" class="edge"><title>Node5&#45;&gt;Node12</title>
<path fill="none" stroke="midnightblue" d="M576.817,-347.852C526.047,-333.263 455,-302.26 455,-243 455,-243 455,-243 455,-127 455,-72.0712 389.986,-37.6457 349.861,-21.6296"/>
<polygon fill="midnightblue" stroke="midnightblue" points="576.104,-351.285 586.674,-350.554 577.955,-344.534 576.104,-351.285"/>
</g>
<!-- Node6&#45;&gt;Node5 -->
<g id="edge78" class="edge"><title>Node6&#45;&gt;Node5</title>
<path fill="none" stroke="midnightblue" d="M633.5,-321.728C634.059,-330.743 633.681,-340.922 632.364,-348.362"/>
<polygon fill="midnightblue" stroke="midnightblue" points="636.953,-321.114 632.352,-311.571 629.997,-321.9 636.953,-321.114"/>
</g>
<!-- Node6&#45;&gt;Node7 -->
<g id="edge12" class="edge"><title>Node6&#45;&gt;Node7</title>
<path fill="none" stroke="midnightblue" d="M620.495,-280.191C619.941,-271.168 620.326,-260.994 621.648,-253.571"/>
<polygon fill="midnightblue" stroke="midnightblue" points="617.043,-280.814 621.636,-290.362 624,-280.034 617.043,-280.814"/>
</g>
<!-- Node11 -->
<g id="node21" class="node"><title>Node11</title>
<a xlink:href="account_8cpp.xhtml" target="_top" xlink:title="All non&#45;template member functions of the Account class.">
<polygon fill="white" stroke="black" points="981.5,-0.5 981.5,-21.5 1056.5,-21.5 1056.5,-0.5 981.5,-0.5"/>
<text text-anchor="middle" x="1019" y="-8.5" font-family="FreeSans.ttf" font-size="10.00">account.cpp</text>
</a>
</g>
<!-- Node6&#45;&gt;Node11 -->
<g id="edge80" class="edge"><title>Node6&#45;&gt;Node11</title>
<path fill="none" stroke="midnightblue" d="M673.499,-289.698C746.31,-270.626 879,-229.734 879,-185 879,-185 879,-185 879,-127 879,-71.446 945.172,-37.4506 986.529,-21.6287"/>
<polygon fill="midnightblue" stroke="midnightblue" points="672.451,-286.354 663.643,-292.242 674.2,-293.131 672.451,-286.354"/>
</g>
<!-- Node6&#45;&gt;Node15 -->
<g id="edge82" class="edge"><title>Node6&#45;&gt;Node15</title>
<path fill="none" stroke="midnightblue" d="M673.694,-296.137C715.016,-290.406 776.032,-278.378 824,-254 932.987,-198.611 912.872,-122.058 1017,-58 1022.83,-54.4106 1103.23,-33.0901 1151.67,-20.4312"/>
<polygon fill="midnightblue" stroke="midnightblue" points="673.089,-292.687 663.632,-297.463 674.003,-299.627 673.089,-292.687"/>
</g>
<!-- Node6&#45;&gt;Node19 -->
<g id="edge84" class="edge"><title>Node6&#45;&gt;Node19</title>
<path fill="none" stroke="midnightblue" d="M604.811,-283.996C552.187,-243.804 415.429,-140.153 298,-58 279.589,-45.1197 258.011,-30.9654 243.517,-21.5908"/>
<polygon fill="midnightblue" stroke="midnightblue" points="603.009,-287.024 613.079,-290.317 607.261,-281.463 603.009,-287.024"/>
</g>
<!-- Node7&#45;&gt;Node3 -->
<g id="edge50" class="edge"><title>Node7&#45;&gt;Node3</title>
<path fill="none" stroke="midnightblue" d="M613.817,-260.916C606.066,-269.002 596.97,-279.166 591,-290 557.774,-350.291 548.173,-434.738 540.913,-464.286"/>
<polygon fill="midnightblue" stroke="midnightblue" points="616.493,-263.184 620.955,-253.575 611.474,-258.305 616.493,-263.184"/>
</g>
<!-- Node7&#45;&gt;Node6 -->
<g id="edge52" class="edge"><title>Node7&#45;&gt;Node6</title>
<path fill="none" stroke="midnightblue" d="M633.5,-263.728C634.059,-272.743 633.681,-282.922 632.364,-290.362"/>
<polygon fill="midnightblue" stroke="midnightblue" points="636.953,-263.114 632.352,-253.571 629.997,-263.9 636.953,-263.114"/>
</g>
<!-- Node8 -->
<g id="node15" class="node"><title>Node8</title>
<a xlink:href="telopt_8h.xhtml" target="_top" xlink:title="The telopt namespace.">
<polygon fill="white" stroke="black" points="596,-174.5 596,-195.5 658,-195.5 658,-174.5 596,-174.5"/>
<text text-anchor="middle" x="627" y="-182.5" font-family="FreeSans.ttf" font-size="10.00">h/telopt.h</text>
</a>
</g>
<!-- Node7&#45;&gt;Node8 -->
<g id="edge14" class="edge"><title>Node7&#45;&gt;Node8</title>
<path fill="none" stroke="midnightblue" d="M627,-222.191C627,-213.168 627,-202.994 627,-195.571"/>
<polygon fill="midnightblue" stroke="midnightblue" points="623.5,-222.362 627,-232.362 630.5,-222.362 623.5,-222.362"/>
</g>
<!-- Node21 -->
<g id="node41" class="node"><title>Node21</title>
<a xlink:href="socketclient_8cpp.xhtml" target="_top" xlink:title="All non&#45;template member functions of the SocketClient class.">
<polygon fill="white" stroke="black" points="870,-0.5 870,-21.5 964,-21.5 964,-0.5 870,-0.5"/>
<text text-anchor="middle" x="917" y="-8.5" font-family="FreeSans.ttf" font-size="10.00">socketclient.cpp</text>
</a>
</g>
<!-- Node7&#45;&gt;Node21 -->
<g id="edge76" class="edge"><title>Node7&#45;&gt;Node21</title>
<path fill="none" stroke="midnightblue" d="M682.9,-233.703C711.382,-226.864 745.324,-215.283 771,-196 830.339,-151.435 816.239,-113.942 865,-58 876.834,-44.4234 892.365,-30.836 903.363,-21.788"/>
<polygon fill="midnightblue" stroke="midnightblue" points="682.055,-230.306 673.075,-235.929 683.602,-237.132 682.055,-230.306"/>
</g>
<!-- Node26 -->
<g id="node53" class="node"><title>Node26</title>
<a xlink:href="plugin_8h.xhtml" target="_top" xlink:title="The Plugin class.">
<polygon fill="white" stroke="black" points="699.5,-174.5 699.5,-195.5 762.5,-195.5 762.5,-174.5 699.5,-174.5"/>
<text text-anchor="middle" x="731" y="-182.5" font-family="FreeSans.ttf" font-size="10.00">h/plugin.h</text>
</a>
</g>
<!-- Node7&#45;&gt;Node26 -->
<g id="edge54" class="edge"><title>Node7&#45;&gt;Node26</title>
<path fill="none" stroke="midnightblue" d="M655.01,-227.379C673.081,-217.301 696.102,-204.462 712.046,-195.571"/>
<polygon fill="midnightblue" stroke="midnightblue" points="653.104,-224.434 646.075,-232.362 656.514,-230.548 653.104,-224.434"/>
</g>
<!-- Node7&#45;&gt;Node28 -->
<g id="edge74" class="edge"><title>Node7&#45;&gt;Node28</title>
<path fill="none" stroke="midnightblue" d="M610.157,-224.806C602.683,-216.341 594.011,-205.959 587,-196 558.16,-155.033 530.477,-101.91 519.25,-79.5999"/>
<polygon fill="midnightblue" stroke="midnightblue" points="607.573,-227.167 616.864,-232.259 612.776,-222.484 607.573,-227.167"/>
</g>
<!-- Node9 -->
<g id="node17" class="node"><title>Node9</title>
<a xlink:href="namespace_8h.xhtml" target="_top" xlink:title="All namespace includes.">
<polygon fill="white" stroke="black" points="581.5,-116.5 581.5,-137.5 672.5,-137.5 672.5,-116.5 581.5,-116.5"/>
<text text-anchor="middle" x="627" y="-124.5" font-family="FreeSans.ttf" font-size="10.00">h/namespace.h</text>
</a>
</g>
<!-- Node8&#45;&gt;Node9 -->
<g id="edge16" class="edge"><title>Node8&#45;&gt;Node9</title>
<path fill="none" stroke="midnightblue" d="M627,-164.191C627,-155.168 627,-144.994 627,-137.571"/>
<polygon fill="midnightblue" stroke="midnightblue" points="623.5,-164.362 627,-174.362 630.5,-164.362 623.5,-164.362"/>
</g>
<!-- Node10 -->
<g id="node19" class="node"><title>Node10</title>
<a xlink:href="includes_8h.xhtml" target="_top" xlink:title="All non&#45;system includes that need to be within each .cpp file.">
<polygon fill="white" stroke="black" points="601,-58.5 601,-79.5 675,-79.5 675,-58.5 601,-58.5"/>
<text text-anchor="middle" x="638" y="-66.5" font-family="FreeSans.ttf" font-size="10.00">h/includes.h</text>
</a>
</g>
<!-- Node9&#45;&gt;Node10 -->
<g id="edge18" class="edge"><title>Node9&#45;&gt;Node10</title>
<path fill="none" stroke="midnightblue" d="M630.89,-106.488C632.615,-97.3924 634.572,-87.0756 635.995,-79.5707"/>
<polygon fill="midnightblue" stroke="midnightblue" points="627.442,-105.885 629.018,-116.362 634.32,-107.189 627.442,-105.885"/>
</g>
<!-- Node10&#45;&gt;Node11 -->
<g id="edge20" class="edge"><title>Node10&#45;&gt;Node11</title>
<path fill="none" stroke="midnightblue" d="M685.328,-63.8013C750.427,-56.3233 871.119,-41.2828 973,-22 975.743,-21.4808 978.569,-20.9055 981.407,-20.2981"/>
<polygon fill="midnightblue" stroke="midnightblue" points="684.909,-60.3264 675.369,-64.9361 685.701,-67.2814 684.909,-60.3264"/>
</g>
<!-- Node10&#45;&gt;Node12 -->
<g id="edge22" class="edge"><title>Node10&#45;&gt;Node12</title>
<path fill="none" stroke="midnightblue" d="M590.874,-58.749C589.57,-58.4931 588.276,-58.2429 587,-58 490.53,-39.6423 465.432,-40.5563 369,-22 366.12,-21.4458 363.151,-20.8516 360.165,-20.2371"/>
<polygon fill="midnightblue" stroke="midnightblue" points="590.5,-62.2442 600.996,-60.797 591.889,-55.3832 590.5,-62.2442"/>
</g>
<!-- Node13 -->
<g id="node25" class="node"><title>Node13</title>
<a xlink:href="command_8cpp.xhtml" target="_top" xlink:title="All non&#45;template member functions of the Command class.">
<polygon fill="white" stroke="black" points="684,-0.5 684,-21.5 770,-21.5 770,-0.5 684,-0.5"/>
<text text-anchor="middle" x="727" y="-8.5" font-family="FreeSans.ttf" font-size="10.00">command.cpp</text>
</a>
</g>
<!-- Node10&#45;&gt;Node13 -->
<g id="edge24" class="edge"><title>Node10&#45;&gt;Node13</title>
<path fill="none" stroke="midnightblue" d="M662.826,-52.8215C678.156,-42.8312 697.386,-30.2993 710.78,-21.5707"/>
<polygon fill="midnightblue" stroke="midnightblue" points="660.791,-49.9698 654.324,-58.3619 664.613,-55.8344 660.791,-49.9698"/>
</g>
<!-- Node14 -->
<g id="node27" class="node"><title>Node14</title>
<a xlink:href="event_8cpp.xhtml" target="_top" xlink:title="All non&#45;template member functions of the Event class.">
<polygon fill="white" stroke="black" points="378,-0.5 378,-21.5 442,-21.5 442,-0.5 378,-0.5"/>
<text text-anchor="middle" x="410" y="-8.5" font-family="FreeSans.ttf" font-size="10.00">event.cpp</text>
</a>
</g>
<!-- Node10&#45;&gt;Node14 -->
<g id="edge26" class="edge"><title>Node10&#45;&gt;Node14</title>
<path fill="none" stroke="midnightblue" d="M590.972,-57.3995C553.124,-48.0107 498.587,-34.3629 451,-22 448.147,-21.2587 445.184,-20.4806 442.216,-19.6951"/>
<polygon fill="midnightblue" stroke="midnightblue" points="590.153,-60.8025 600.702,-59.8106 591.837,-54.008 590.153,-60.8025"/>
</g>
<!-- Node10&#45;&gt;Node15 -->
<g id="edge28" class="edge"><title>Node10&#45;&gt;Node15</title>
<path fill="none" stroke="midnightblue" d="M685.445,-66.9126C775.275,-62.4464 976.147,-50.0016 1143,-22 1145.86,-21.5208 1148.8,-20.9589 1151.75,-20.3469"/>
<polygon fill="midnightblue" stroke="midnightblue" points="685.124,-63.424 675.306,-67.406 685.464,-70.4157 685.124,-63.424"/>
</g>
<!-- Node16 -->
<g id="node31" class="node"><title>Node16</title>
<a xlink:href="list_8cpp.xhtml" target="_top" xlink:title="All globally referenced list / map / vector types.">
<polygon fill="white" stroke="black" points="460,-0.5 460,-21.5 510,-21.5 510,-0.5 460,-0.5"/>
<text text-anchor="middle" x="485" y="-8.5" font-family="FreeSans.ttf" font-size="10.00">list.cpp</text>
</a>
</g>
<!-- Node10&#45;&gt;Node16 -->
<g id="edge30" class="edge"><title>Node10&#45;&gt;Node16</title>
<path fill="none" stroke="midnightblue" d="M600.824,-54.9071C572.81,-44.2873 535.132,-30.0044 510.467,-20.6543"/>
<polygon fill="midnightblue" stroke="midnightblue" points="599.702,-58.2246 610.293,-58.4966 602.183,-51.6791 599.702,-58.2246"/>
</g>
<!-- Node10&#45;&gt;Node17 -->
<g id="edge32" class="edge"><title>Node10&#45;&gt;Node17</title>
<path fill="none" stroke="midnightblue" d="M590.593,-62.5144C578.658,-60.958 565.867,-59.3555 554,-58 390.286,-39.2997 346.934,-52.4856 185,-22 182.235,-21.4794 179.381,-20.8529 176.535,-20.1664"/>
<polygon fill="midnightblue" stroke="midnightblue" points="590.444,-66.025 600.816,-63.8628 591.36,-59.0851 590.444,-66.025"/>
</g>
<!-- Node18 -->
<g id="node35" class="node"><title>Node18</title>
<a xlink:href="plugin_8cpp.xhtml" target="_top" xlink:title="All non&#45;template member functions of the Plugin class.">
<polygon fill="white" stroke="black" points="787.5,-0.5 787.5,-21.5 852.5,-21.5 852.5,-0.5 787.5,-0.5"/>
<text text-anchor="middle" x="820" y="-8.5" font-family="FreeSans.ttf" font-size="10.00">plugin.cpp</text>
</a>
</g>
<!-- Node10&#45;&gt;Node18 -->
<g id="edge34" class="edge"><title>Node10&#45;&gt;Node18</title>
<path fill="none" stroke="midnightblue" d="M680.667,-55.4027C713.248,-45.02 757.473,-30.9262 787.286,-21.4252"/>
<polygon fill="midnightblue" stroke="midnightblue" points="679.424,-52.1255 670.959,-58.4966 681.549,-58.795 679.424,-52.1255"/>
</g>
<!-- Node10&#45;&gt;Node19 -->
<g id="edge36" class="edge"><title>Node10&#45;&gt;Node19</title>
<path fill="none" stroke="midnightblue" d="M590.813,-58.6484C589.53,-58.4229 588.257,-58.2062 587,-58 446.64,-34.977 408.824,-48.0855 269,-22 266.184,-21.4747 263.279,-20.863 260.373,-20.2021"/>
<polygon fill="midnightblue" stroke="midnightblue" points="590.284,-62.1101 600.758,-60.519 591.577,-55.2308 590.284,-62.1101"/>
</g>
<!-- Node10&#45;&gt;Node20 -->
<g id="edge38" class="edge"><title>Node10&#45;&gt;Node20</title>
<path fill="none" stroke="midnightblue" d="M685.369,-68.0136C786.571,-65.304 1031.11,-55.5424 1233,-22 1235.89,-21.5201 1238.87,-20.9403 1241.85,-20.3008"/>
<polygon fill="midnightblue" stroke="midnightblue" points="685.078,-64.5198 675.171,-68.2755 685.258,-71.5175 685.078,-64.5198"/>
</g>
<!-- Node10&#45;&gt;Node21 -->
<g id="edge40" class="edge"><title>Node10&#45;&gt;Node21</title>
<path fill="none" stroke="midnightblue" d="M684.886,-59.2532C736.191,-48.5876 817.982,-31.5844 869.521,-20.8702"/>
<polygon fill="midnightblue" stroke="midnightblue" points="684.127,-55.8359 675.049,-61.298 685.552,-62.6894 684.127,-55.8359"/>
</g>
<!-- Node10&#45;&gt;Node22 -->
<g id="edge42" class="edge"><title>Node10&#45;&gt;Node22</title>
<path fill="none" stroke="midnightblue" d="M590.609,-62.3741C578.674,-60.8211 565.878,-59.2553 554,-58 355.794,-37.0539 304.526,-48.6072 107,-22 104.156,-21.6169 101.24,-21.186 98.3025,-20.7224"/>
<polygon fill="midnightblue" stroke="midnightblue" points="590.458,-65.8847 600.831,-63.7275 591.377,-58.9452 590.458,-65.8847"/>
</g>
<!-- Node23 -->
<g id="node45" class="node"><title>Node23</title>
<a xlink:href="telopt_8cpp.xhtml" target="_top" xlink:title="All non&#45;template member functions of the Telopt namespace.">
<polygon fill="white" stroke="black" points="527.5,-0.5 527.5,-21.5 592.5,-21.5 592.5,-0.5 527.5,-0.5"/>
<text text-anchor="middle" x="560" y="-8.5" font-family="FreeSans.ttf" font-size="10.00">telopt.cpp</text>
</a>
</g>
<!-- Node10&#45;&gt;Node23 -->
<g id="edge44" class="edge"><title>Node10&#45;&gt;Node23</title>
<path fill="none" stroke="midnightblue" d="M615.486,-52.2587C602.179,-42.3641 585.735,-30.1361 574.216,-21.5707"/>
<polygon fill="midnightblue" stroke="midnightblue" points="613.58,-55.2035 623.694,-58.3619 617.757,-49.5862 613.58,-55.2035"/>
</g>
<!-- Node10&#45;&gt;Node24 -->
<g id="edge46" class="edge"><title>Node10&#45;&gt;Node24</title>
<path fill="none" stroke="midnightblue" d="M685.289,-66.356C764.454,-61.3596 928.558,-48.5617 1065,-22 1067.76,-21.4623 1070.61,-20.824 1073.46,-20.1298"/>
<polygon fill="midnightblue" stroke="midnightblue" points="684.915,-62.8723 675.15,-66.9823 685.347,-69.859 684.915,-62.8723"/>
</g>
<!-- Node25 -->
<g id="node49" class="node"><title>Node25</title>
<a xlink:href="utils_8cpp.xhtml" target="_top" xlink:title="All non&#45;template member functions of the Utils namespace.">
<polygon fill="white" stroke="black" points="610,-0.5 610,-21.5 666,-21.5 666,-0.5 610,-0.5"/>
<text text-anchor="middle" x="638" y="-8.5" font-family="FreeSans.ttf" font-size="10.00">utils.cpp</text>
</a>
</g>
<!-- Node10&#45;&gt;Node25 -->
<g id="edge48" class="edge"><title>Node10&#45;&gt;Node25</title>
<path fill="none" stroke="midnightblue" d="M638,-48.1906C638,-39.1684 638,-28.9941 638,-21.5707"/>
<polygon fill="midnightblue" stroke="midnightblue" points="634.5,-48.3619 638,-58.3619 641.5,-48.3619 634.5,-48.3619"/>
</g>
<!-- Node26&#45;&gt;Node18 -->
<g id="edge72" class="edge"><title>Node26&#45;&gt;Node18</title>
<path fill="none" stroke="midnightblue" d="M754.126,-167.731C763.609,-159.621 773.984,-149.262 781,-138 805.147,-99.2378 815.272,-44.4638 818.62,-21.634"/>
<polygon fill="midnightblue" stroke="midnightblue" points="751.671,-165.216 746.128,-174.245 756.092,-170.643 751.671,-165.216"/>
</g>
<!-- Node27 -->
<g id="node55" class="node"><title>Node27</title>
<a xlink:href="command_8h.xhtml" target="_top" xlink:title="The Command class.">
<polygon fill="white" stroke="black" points="689.5,-116.5 689.5,-137.5 772.5,-137.5 772.5,-116.5 689.5,-116.5"/>
<text text-anchor="middle" x="731" y="-124.5" font-family="FreeSans.ttf" font-size="10.00">h/command.h</text>
</a>
</g>
<!-- Node26&#45;&gt;Node27 -->
<g id="edge56" class="edge"><title>Node26&#45;&gt;Node27</title>
<path fill="none" stroke="midnightblue" d="M731,-164.191C731,-155.168 731,-144.994 731,-137.571"/>
<polygon fill="midnightblue" stroke="midnightblue" points="727.5,-164.362 731,-174.362 734.5,-164.362 727.5,-164.362"/>
</g>
<!-- Node27&#45;&gt;Node13 -->
<g id="edge58" class="edge"><title>Node27&#45;&gt;Node13</title>
<path fill="none" stroke="midnightblue" d="M730.28,-106.123C729.424,-81.2984 728.028,-40.8235 727.368,-21.6792"/>
<polygon fill="midnightblue" stroke="midnightblue" points="726.788,-106.422 730.631,-116.295 733.784,-106.18 726.788,-106.422"/>
</g>
<!-- Node27&#45;&gt;Node15 -->
<g id="edge66" class="edge"><title>Node27&#45;&gt;Node15</title>
<path fill="none" stroke="midnightblue" d="M776.338,-113.574C825.91,-99.0838 907.791,-75.7073 979,-58 1051.42,-39.9918 1070.31,-38.8611 1143,-22 1145.82,-21.3458 1148.74,-20.6581 1151.67,-19.9592"/>
<polygon fill="midnightblue" stroke="midnightblue" points="775.178,-110.266 766.566,-116.437 777.147,-116.984 775.178,-110.266"/>
</g>
<!-- Node27&#45;&gt;Node19 -->
<g id="edge68" class="edge"><title>Node27&#45;&gt;Node19</title>
<path fill="none" stroke="midnightblue" d="M683.65,-113.555C656.344,-105.171 621.655,-93.4367 592,-80 574.224,-71.9459 572.492,-64.2355 554,-58 433.02,-17.2058 394.354,-46.2252 269,-22 266.188,-21.4565 263.285,-20.832 260.38,-20.1625"/>
<polygon fill="midnightblue" stroke="midnightblue" points="682.768,-116.944 693.353,-116.488 684.794,-110.244 682.768,-116.944"/>
</g>
<!-- Node27&#45;&gt;Node21 -->
<g id="edge70" class="edge"><title>Node27&#45;&gt;Node21</title>
<path fill="none" stroke="midnightblue" d="M752.599,-110.123C771.668,-95.555 800.482,-74.3401 827,-58 849.361,-44.2218 876.18,-30.5606 894.694,-21.5476"/>
<polygon fill="midnightblue" stroke="midnightblue" points="750.355,-107.433 744.566,-116.307 754.625,-112.98 750.355,-107.433"/>
</g>
<!-- Node27&#45;&gt;Node28 -->
<g id="edge60" class="edge"><title>Node27&#45;&gt;Node28</title>
<path fill="none" stroke="midnightblue" d="M681.976,-113.897C640.074,-102.697 581.045,-86.9198 545.271,-77.3582"/>
<polygon fill="midnightblue" stroke="midnightblue" points="681.138,-117.296 691.703,-116.497 682.946,-110.533 681.138,-117.296"/>
</g>
<!-- Node28&#45;&gt;Node14 -->
<g id="edge62" class="edge"><title>Node28&#45;&gt;Node14</title>
<path fill="none" stroke="midnightblue" d="M485.99,-53.379C467.919,-43.3011 444.898,-30.4624 428.954,-21.5707"/>
<polygon fill="midnightblue" stroke="midnightblue" points="484.486,-56.548 494.925,-58.3619 487.896,-50.4344 484.486,-56.548"/>
</g>
<!-- Node28&#45;&gt;Node19 -->
<g id="edge64" class="edge"><title>Node28&#45;&gt;Node19</title>
<path fill="none" stroke="midnightblue" d="M473.061,-62.0067C424.272,-53.4741 340.376,-38.1743 269,-22 266.207,-21.367 263.317,-20.6795 260.421,-19.9677"/>
<polygon fill="midnightblue" stroke="midnightblue" points="472.47,-65.4563 482.922,-63.7226 473.67,-58.56 472.47,-65.4563"/>
</g>
</g>
</svg>
        <g id="navigator" transform="translate(0 0)" fill="#404254">
                <rect fill="#f2f5e9" fill-opacity="0.5" stroke="#606060" stroke-width=".5" x="0" y="0" width="60" height="60"/>
                <use id="zoomplus" xlink:href="#zoomPlus" x="17" y="9" onmousedown="handleZoom(evt,'in')"/>
                <use id="zoomminus" xlink:href="#zoomMin" x="42" y="9" onmousedown="handleZoom(evt,'out')"/>
                <use id="reset" xlink:href="#resetDef" x="30" y="36" onmousedown="handleReset()"/>
                <g id="arrowUp" xlink:href="#dirArrow" transform="translate(30 24)" onmousedown="handlePan(0,-1)">
                  <use xlink:href="#rim" fill="#404040">
                        <set attributeName="fill" to="#808080" begin="arrowUp.mouseover" end="arrowUp.mouseout"/>
                  </use>
                  <path fill="none" stroke="white" stroke-width="1.5" d="M0,-3.0v7 M-2.5,-0.5L0,-3.0L2.5,-0.5"/>
                </g>
                <g id="arrowRight" xlink:href="#dirArrow" transform="rotate(90) translate(36 -43)" onmousedown="handlePan(1,0)">
                  <use xlink:href="#rim" fill="#404040">
                        <set attributeName="fill" to="#808080" begin="arrowRight.mouseover" end="arrowRight.mouseout"/>
                  </use>
                  <path fill="none" stroke="white" stroke-width="1.5" d="M0,-3.0v7 M-2.5,-0.5L0,-3.0L2.5,-0.5"/>
                </g>
                <g id="arrowDown" xlink:href="#dirArrow" transform="rotate(180) translate(-30 -48)" onmousedown="handlePan(0,1)">
                  <use xlink:href="#rim" fill="#404040">
                        <set attributeName="fill" to="#808080" begin="arrowDown.mouseover" end="arrowDown.mouseout"/>
                  </use>
                  <path fill="none" stroke="white" stroke-width="1.5" d="M0,-3.0v7 M-2.5,-0.5L0,-3.0L2.5,-0.5"/>
                </g>
                <g id="arrowLeft" xlink:href="#dirArrow" transform="rotate(270) translate(-36 17)" onmousedown="handlePan(-1,0)">
                  <use xlink:href="#rim" fill="#404040">
                        <set attributeName="fill" to="#808080" begin="arrowLeft.mouseover" end="arrowLeft.mouseout"/>
                  </use>
                  <path fill="none" stroke="white" stroke-width="1.5" d="M0,-3.0v7 M-2.5,-0.5L0,-3.0L2.5,-0.5"/>
                </g>
        </g>
</svg>
