<?xml version="1.0" encoding="UTF-8" standalone="no"?>
<!DOCTYPE svg PUBLIC "-//W3C//DTD SVG 1.1//EN"
 "http://www.w3.org/Graphics/SVG/1.1/DTD/svg11.dtd">
<!-- Generated by graphviz version 2.26.3 (20100126.1600)
 -->
<!-- Title: G Pages: 1 -->
<!--zoomable 146 -->
<svg id="main" version="1.1" xmlns="http://www.w3.org/2000/svg" xmlns:xlink="http://www.w3.org/1999/xlink" xml:space="preserve" onload="init(evt)">
        <defs>
                <circle id="rim" cx="0" cy="0" r="7"/>
                <circle id="rim2" cx="0" cy="0" r="3.5"/>
                <g id="zoomPlus">
                        <use xlink:href="#rim" fill="#404040">
                                <set attributeName="fill" to="#808080" begin="zoomplus.mouseover" end="zoomplus.mouseout"/>
                        </use>
                        <path d="M-4,0h8M0,-4v8" fill="none" stroke="white" stroke-width="1.5" pointer-events="none"/>
                </g>
                <g id="zoomMin">
                        <use xlink:href="#rim" fill="#404040">
                                <set attributeName="fill" to="#808080" begin="zoomminus.mouseover" end="zoomminus.mouseout"/>
                        </use>
                        <path d="M-4,0h8" fill="none" stroke="white" stroke-width="1.5" pointer-events="none"/>
                </g>
                <g id="dirArrow">
                        <path fill="none" stroke="white" stroke-width="1.5" d="M0,-3.0v7 M-2.5,-0.5L0,-3.0L2.5,-0.5"/>
                </g>
               <g id="resetDef">
                       <use xlink:href="#rim2" fill="#404040">
                               <set attributeName="fill" to="#808080" begin="reset.mouseover" end="reset.mouseout"/>
                       </use>
               </g>
        </defs>

<script type="text/javascript">
var viewWidth = 664;
var viewHeight = 146;
var sectionId = 'dynsection-0';
</script>
<script xlink:href="svgpan.js"/>
<svg id="graph" class="graph">
<g id="viewport">
<title>G</title>
<polygon fill="white" stroke="white" points="-4,5 -4,-142 661,-142 661,5 -4,5"/>
<!-- Node1 -->
<g id="node1" class="node"><title>Node1</title>
<polygon fill="#bfbfbf" stroke="black" points="441,-116.5 441,-137.5 507,-137.5 507,-116.5 441,-116.5"/>
<text text-anchor="middle" x="474" y="-124.5" font-family="FreeSans.ttf" font-size="10.00">h/socket.h</text>
</g>
<!-- Node2 -->
<g id="node3" class="node"><title>Node2</title>
<a xlink:href="socketclient_8h.xhtml" target="_top" xlink:title="The SocketClient class.">
<polygon fill="white" stroke="black" points="280,-58.5 280,-79.5 372,-79.5 372,-58.5 280,-58.5"/>
<text text-anchor="middle" x="326" y="-66.5" font-family="FreeSans.ttf" font-size="10.00">h/socketclient.h</text>
</a>
</g>
<!-- Node1&#45;&gt;Node2 -->
<g id="edge2" class="edge"><title>Node1&#45;&gt;Node2</title>
<path fill="none" stroke="midnightblue" d="M437.64,-112.751C411.505,-102.509 376.832,-88.9206 353.102,-79.6212"/>
<polygon fill="midnightblue" stroke="midnightblue" points="436.611,-116.107 447.198,-116.497 439.165,-109.589 436.611,-116.107"/>
</g>
<!-- Node10 -->
<g id="node19" class="node"><title>Node10</title>
<a xlink:href="socketserver_8h.xhtml" target="_top" xlink:title="The SocketServer class.">
<polygon fill="white" stroke="black" points="426.5,-58.5 426.5,-79.5 521.5,-79.5 521.5,-58.5 426.5,-58.5"/>
<text text-anchor="middle" x="474" y="-66.5" font-family="FreeSans.ttf" font-size="10.00">h/socketserver.h</text>
</a>
</g>
<!-- Node1&#45;&gt;Node10 -->
<g id="edge18" class="edge"><title>Node1&#45;&gt;Node10</title>
<path fill="none" stroke="midnightblue" d="M474,-106.191C474,-97.1684 474,-86.9941 474,-79.5707"/>
<polygon fill="midnightblue" stroke="midnightblue" points="470.5,-106.362 474,-116.362 477.5,-106.362 470.5,-106.362"/>
</g>
<!-- Node11 -->
<g id="node24" class="node"><title>Node11</title>
<a xlink:href="socket_8cpp.xhtml" target="_top" xlink:title="All non&#45;template member functions of the Socket class.">
<polygon fill="white" stroke="black" points="539,-58.5 539,-79.5 607,-79.5 607,-58.5 539,-58.5"/>
<text text-anchor="middle" x="573" y="-66.5" font-family="FreeSans.ttf" font-size="10.00">socket.cpp</text>
</a>
</g>
<!-- Node1&#45;&gt;Node11 -->
<g id="edge26" class="edge"><title>Node1&#45;&gt;Node11</title>
<path fill="none" stroke="midnightblue" d="M501.138,-111.101C518.267,-101.066 539.919,-88.3808 554.957,-79.5707"/>
<polygon fill="midnightblue" stroke="midnightblue" points="499.017,-108.287 492.158,-116.362 502.556,-114.327 499.017,-108.287"/>
</g>
<!-- Node3 -->
<g id="node5" class="node"><title>Node3</title>
<a xlink:href="account_8cpp.xhtml" target="_top" xlink:title="All non&#45;template member functions of the Account class.">
<polygon fill="white" stroke="black" points="269.5,-0.5 269.5,-21.5 344.5,-21.5 344.5,-0.5 269.5,-0.5"/>
<text text-anchor="middle" x="307" y="-8.5" font-family="FreeSans.ttf" font-size="10.00">account.cpp</text>
</a>
</g>
<!-- Node2&#45;&gt;Node3 -->
<g id="edge4" class="edge"><title>Node2&#45;&gt;Node3</title>
<path fill="none" stroke="midnightblue" d="M319.377,-48.7838C316.375,-39.617 312.948,-29.1572 310.463,-21.5707"/>
<polygon fill="midnightblue" stroke="midnightblue" points="316.076,-49.9484 322.515,-58.3619 322.728,-47.7692 316.076,-49.9484"/>
</g>
<!-- Node4 -->
<g id="node7" class="node"><title>Node4</title>
<a xlink:href="handler_8cpp.xhtml" target="_top" xlink:title="All non&#45;template member functions of the Handler namespace.">
<polygon fill="white" stroke="black" points="0,-0.5 0,-21.5 72,-21.5 72,-0.5 0,-0.5"/>
<text text-anchor="middle" x="36" y="-8.5" font-family="FreeSans.ttf" font-size="10.00">handler.cpp</text>
</a>
</g>
<!-- Node2&#45;&gt;Node4 -->
<g id="edge6" class="edge"><title>Node2&#45;&gt;Node4</title>
<path fill="none" stroke="midnightblue" d="M269.88,-59.0621C220.116,-50.0527 145.53,-36.0674 81,-22 78.1711,-21.3833 75.248,-20.7225 72.313,-20.0423"/>
<polygon fill="midnightblue" stroke="midnightblue" points="269.338,-62.5207 279.801,-60.8517 270.581,-55.6319 269.338,-62.5207"/>
</g>
<!-- Node5 -->
<g id="node9" class="node"><title>Node5</title>
<a xlink:href="server_8cpp.xhtml" target="_top" xlink:title="All non&#45;template member functions of the Server class.">
<polygon fill="white" stroke="black" points="362,-0.5 362,-21.5 428,-21.5 428,-0.5 362,-0.5"/>
<text text-anchor="middle" x="395" y="-8.5" font-family="FreeSans.ttf" font-size="10.00">server.cpp</text>
</a>
</g>
<!-- Node2&#45;&gt;Node5 -->
<g id="edge8" class="edge"><title>Node2&#45;&gt;Node5</title>
<path fill="none" stroke="midnightblue" d="M346.592,-51.6908C358.24,-41.8996 372.429,-29.973 382.425,-21.5707"/>
<polygon fill="midnightblue" stroke="midnightblue" points="344.058,-49.2481 338.656,-58.3619 348.563,-54.6066 344.058,-49.2481"/>
</g>
<!-- Node6 -->
<g id="node11" class="node"><title>Node6</title>
<a xlink:href="socketclient_8cpp.xhtml" target="_top" xlink:title="All non&#45;template member functions of the SocketClient class.">
<polygon fill="white" stroke="black" points="446,-0.5 446,-21.5 540,-21.5 540,-0.5 446,-0.5"/>
<text text-anchor="middle" x="493" y="-8.5" font-family="FreeSans.ttf" font-size="10.00">socketclient.cpp</text>
</a>
</g>
<!-- Node2&#45;&gt;Node6 -->
<g id="edge10" class="edge"><title>Node2&#45;&gt;Node6</title>
<path fill="none" stroke="midnightblue" d="M365.895,-55.1443C395.613,-44.8229 435.575,-30.9439 462.701,-21.5231"/>
<polygon fill="midnightblue" stroke="midnightblue" points="364.541,-51.9095 356.242,-58.4966 366.837,-58.522 364.541,-51.9095"/>
</g>
<!-- Node7 -->
<g id="node13" class="node"><title>Node7</title>
<a xlink:href="socketserver_8cpp.xhtml" target="_top" xlink:title="All non&#45;template member functions of the SocketServer class.">
<polygon fill="white" stroke="black" points="558,-0.5 558,-21.5 656,-21.5 656,-0.5 558,-0.5"/>
<text text-anchor="middle" x="607" y="-8.5" font-family="FreeSans.ttf" font-size="10.00">socketserver.cpp</text>
</a>
</g>
<!-- Node2&#45;&gt;Node7 -->
<g id="edge12" class="edge"><title>Node2&#45;&gt;Node7</title>
<path fill="none" stroke="midnightblue" d="M382.011,-57.4391C433.296,-46.8534 508.475,-31.3361 557.576,-21.2014"/>
<polygon fill="midnightblue" stroke="midnightblue" points="381.173,-54.0382 372.087,-59.4874 382.588,-60.8936 381.173,-54.0382"/>
</g>
<!-- Node8 -->
<g id="node15" class="node"><title>Node8</title>
<a xlink:href="telopt_8cpp.xhtml" target="_top" xlink:title="All non&#45;template member functions of the Telopt namespace.">
<polygon fill="white" stroke="black" points="89.5,-0.5 89.5,-21.5 154.5,-21.5 154.5,-0.5 89.5,-0.5"/>
<text text-anchor="middle" x="122" y="-8.5" font-family="FreeSans.ttf" font-size="10.00">telopt.cpp</text>
</a>
</g>
<!-- Node2&#45;&gt;Node8 -->
<g id="edge14" class="edge"><title>Node2&#45;&gt;Node8</title>
<path fill="none" stroke="midnightblue" d="M279.219,-55.6994C241.114,-44.8658 188.293,-29.8479 154.629,-20.277"/>
<polygon fill="midnightblue" stroke="midnightblue" points="278.481,-59.1284 289.057,-58.4966 280.396,-52.3952 278.481,-59.1284"/>
</g>
<!-- Node9 -->
<g id="node17" class="node"><title>Node9</title>
<a xlink:href="pincludes_8h.xhtml" target="_top" xlink:title="All non&#45;system includes that need to be within each .cpp plugin.">
<polygon fill="white" stroke="black" points="172,-0.5 172,-21.5 252,-21.5 252,-0.5 172,-0.5"/>
<text text-anchor="middle" x="212" y="-8.5" font-family="FreeSans.ttf" font-size="10.00">h/pincludes.h</text>
</a>
</g>
<!-- Node2&#45;&gt;Node9 -->
<g id="edge16" class="edge"><title>Node2&#45;&gt;Node9</title>
<path fill="none" stroke="midnightblue" d="M296.383,-53.9319C276.456,-43.7932 250.671,-30.6748 232.876,-21.6212"/>
<polygon fill="midnightblue" stroke="midnightblue" points="294.856,-57.0815 305.355,-58.4966 298.03,-50.8425 294.856,-57.0815"/>
</g>
<!-- Node10&#45;&gt;Node5 -->
<g id="edge20" class="edge"><title>Node10&#45;&gt;Node5</title>
<path fill="none" stroke="midnightblue" d="M451.197,-52.2587C437.72,-42.3641 421.065,-30.1361 409.398,-21.5707"/>
<polygon fill="midnightblue" stroke="midnightblue" points="449.378,-55.2651 459.51,-58.3619 453.521,-49.6225 449.378,-55.2651"/>
</g>
<!-- Node10&#45;&gt;Node6 -->
<g id="edge22" class="edge"><title>Node10&#45;&gt;Node6</title>
<path fill="none" stroke="midnightblue" d="M480.623,-48.7838C483.625,-39.617 487.052,-29.1572 489.537,-21.5707"/>
<polygon fill="midnightblue" stroke="midnightblue" points="477.272,-47.7692 477.485,-58.3619 483.924,-49.9484 477.272,-47.7692"/>
</g>
<!-- Node10&#45;&gt;Node7 -->
<g id="edge24" class="edge"><title>Node10&#45;&gt;Node7</title>
<path fill="none" stroke="midnightblue" d="M507.297,-54.4794C530.71,-44.2695 561.508,-30.8386 582.644,-21.6212"/>
<polygon fill="midnightblue" stroke="midnightblue" points="505.853,-51.291 498.085,-58.4966 508.651,-57.7075 505.853,-51.291"/>
</g>
</g>
</svg>
        <g id="navigator" transform="translate(0 0)" fill="#404254">
                <rect fill="#f2f5e9" fill-opacity="0.5" stroke="#606060" stroke-width=".5" x="0" y="0" width="60" height="60"/>
                <use id="zoomplus" xlink:href="#zoomPlus" x="17" y="9" onmousedown="handleZoom(evt,'in')"/>
                <use id="zoomminus" xlink:href="#zoomMin" x="42" y="9" onmousedown="handleZoom(evt,'out')"/>
                <use id="reset" xlink:href="#resetDef" x="30" y="36" onmousedown="handleReset()"/>
                <g id="arrowUp" xlink:href="#dirArrow" transform="translate(30 24)" onmousedown="handlePan(0,-1)">
                  <use xlink:href="#rim" fill="#404040">
                        <set attributeName="fill" to="#808080" begin="arrowUp.mouseover" end="arrowUp.mouseout"/>
                  </use>
                  <path fill="none" stroke="white" stroke-width="1.5" d="M0,-3.0v7 M-2.5,-0.5L0,-3.0L2.5,-0.5"/>
                </g>
                <g id="arrowRight" xlink:href="#dirArrow" transform="rotate(90) translate(36 -43)" onmousedown="handlePan(1,0)">
                  <use xlink:href="#rim" fill="#404040">
                        <set attributeName="fill" to="#808080" begin="arrowRight.mouseover" end="arrowRight.mouseout"/>
                  </use>
                  <path fill="none" stroke="white" stroke-width="1.5" d="M0,-3.0v7 M-2.5,-0.5L0,-3.0L2.5,-0.5"/>
                </g>
                <g id="arrowDown" xlink:href="#dirArrow" transform="rotate(180) translate(-30 -48)" onmousedown="handlePan(0,1)">
                  <use xlink:href="#rim" fill="#404040">
                        <set attributeName="fill" to="#808080" begin="arrowDown.mouseover" end="arrowDown.mouseout"/>
                  </use>
                  <path fill="none" stroke="white" stroke-width="1.5" d="M0,-3.0v7 M-2.5,-0.5L0,-3.0L2.5,-0.5"/>
                </g>
                <g id="arrowLeft" xlink:href="#dirArrow" transform="rotate(270) translate(-36 17)" onmousedown="handlePan(-1,0)">
                  <use xlink:href="#rim" fill="#404040">
                        <set attributeName="fill" to="#808080" begin="arrowLeft.mouseover" end="arrowLeft.mouseout"/>
                  </use>
                  <path fill="none" stroke="white" stroke-width="1.5" d="M0,-3.0v7 M-2.5,-0.5L0,-3.0L2.5,-0.5"/>
                </g>
        </g>
</svg>
