<?xml version="1.0" encoding="UTF-8" standalone="no"?>
<!DOCTYPE svg PUBLIC "-//W3C//DTD SVG 1.1//EN"
 "http://www.w3.org/Graphics/SVG/1.1/DTD/svg11.dtd">
<!-- Generated by graphviz version 2.26.3 (20100126.1600)
 -->
<!-- Title: G Pages: 1 -->
<svg width="418pt" height="204pt"
 viewBox="0.00 0.00 418.16 204.00" xmlns="http://www.w3.org/2000/svg" xmlns:xlink="http://www.w3.org/1999/xlink">
<g id="graph1" class="graph" transform="scale(1 1) rotate(0) translate(4 200)">
<title>G</title>
<polygon fill="white" stroke="white" points="-4,5 -4,-200 415.158,-200 415.158,5 -4,5"/>
<!-- Node1 -->
<g id="node1" class="node"><title>Node1</title>
<polygon fill="#bfbfbf" stroke="black" points="206,-174.5 206,-195.5 298,-195.5 298,-174.5 206,-174.5"/>
<text text-anchor="middle" x="252" y="-182.5" font-family="FreeSans.ttf" font-size="10.00">h/socketclient.h</text>
</g>
<!-- Node2 -->
<g id="node3" class="node"><title>Node2</title>
<a xlink:href="plugin_8h.xhtml" target="_top" xlink:title="The Plugin class.">
<polygon fill="white" stroke="black" points="102.5,-116.5 102.5,-137.5 165.5,-137.5 165.5,-116.5 102.5,-116.5"/>
<text text-anchor="middle" x="134" y="-124.5" font-family="FreeSans.ttf" font-size="10.00">h/plugin.h</text>
</a>
</g>
<!-- Node1&#45;&gt;Node2 -->
<g id="edge2" class="edge"><title>Node1&#45;&gt;Node2</title>
<path fill="none" stroke="midnightblue" d="M221.624,-170.069C200.959,-159.912 174.111,-146.716 155.609,-137.621"/>
<polygon fill="midnightblue" stroke="midnightblue" points="220.113,-173.226 230.631,-174.497 223.201,-166.944 220.113,-173.226"/>
</g>
<!-- Node6 -->
<g id="node11" class="node"><title>Node6</title>
<a xlink:href="socketclient_8cpp.xhtml" target="_top" xlink:title="All non&#45;template member functions of the SocketClient class.">
<polygon fill="white" stroke="black" points="297,-0.5 297,-21.5 391,-21.5 391,-0.5 297,-0.5"/>
<text text-anchor="middle" x="344" y="-8.5" font-family="FreeSans.ttf" font-size="10.00">socketclient.cpp</text>
</a>
</g>
<!-- Node1&#45;&gt;Node6 -->
<g id="edge24" class="edge"><title>Node1&#45;&gt;Node6</title>
<path fill="none" stroke="midnightblue" d="M292.251,-170.531C329.607,-154.69 382.952,-125.336 407,-80 419.694,-56.0687 389.016,-33.9971 366.152,-21.543"/>
<polygon fill="midnightblue" stroke="midnightblue" points="290.583,-167.432 282.652,-174.456 293.232,-173.911 290.583,-167.432"/>
</g>
<!-- Node8 -->
<g id="node15" class="node"><title>Node8</title>
<a xlink:href="server_8h.xhtml" target="_top" xlink:title="The Server class.">
<polygon fill="white" stroke="black" points="220,-116.5 220,-137.5 284,-137.5 284,-116.5 220,-116.5"/>
<text text-anchor="middle" x="252" y="-124.5" font-family="FreeSans.ttf" font-size="10.00">h/server.h</text>
</a>
</g>
<!-- Node1&#45;&gt;Node8 -->
<g id="edge14" class="edge"><title>Node1&#45;&gt;Node8</title>
<path fill="none" stroke="midnightblue" d="M245.495,-164.191C244.941,-155.168 245.326,-144.994 246.648,-137.571"/>
<polygon fill="midnightblue" stroke="midnightblue" points="242.043,-164.814 246.636,-174.362 249,-164.034 242.043,-164.814"/>
</g>
<!-- Node3 -->
<g id="node5" class="node"><title>Node3</title>
<a xlink:href="command_8h.xhtml" target="_top" xlink:title="The Command class.">
<polygon fill="white" stroke="black" points="1.5,-58.5 1.5,-79.5 84.5,-79.5 84.5,-58.5 1.5,-58.5"/>
<text text-anchor="middle" x="43" y="-66.5" font-family="FreeSans.ttf" font-size="10.00">h/command.h</text>
</a>
</g>
<!-- Node2&#45;&gt;Node3 -->
<g id="edge4" class="edge"><title>Node2&#45;&gt;Node3</title>
<path fill="none" stroke="midnightblue" d="M108.616,-110.821C92.9421,-100.831 73.2799,-88.2993 59.585,-79.5707"/>
<polygon fill="midnightblue" stroke="midnightblue" points="106.995,-113.939 117.309,-116.362 110.758,-108.036 106.995,-113.939"/>
</g>
<!-- Node7 -->
<g id="node13" class="node"><title>Node7</title>
<a xlink:href="plugin_8cpp.xhtml" target="_top" xlink:title="All non&#45;template member functions of the Plugin class.">
<polygon fill="white" stroke="black" points="101.5,-58.5 101.5,-79.5 166.5,-79.5 166.5,-58.5 101.5,-58.5"/>
<text text-anchor="middle" x="134" y="-66.5" font-family="FreeSans.ttf" font-size="10.00">plugin.cpp</text>
</a>
</g>
<!-- Node2&#45;&gt;Node7 -->
<g id="edge12" class="edge"><title>Node2&#45;&gt;Node7</title>
<path fill="none" stroke="midnightblue" d="M134,-106.191C134,-97.1684 134,-86.9941 134,-79.5707"/>
<polygon fill="midnightblue" stroke="midnightblue" points="130.5,-106.362 134,-116.362 137.5,-106.362 130.5,-106.362"/>
</g>
<!-- Node4 -->
<g id="node7" class="node"><title>Node4</title>
<a xlink:href="command_8cpp.xhtml" target="_top" xlink:title="All non&#45;template member functions of the Command class.">
<polygon fill="white" stroke="black" points="0,-0.5 0,-21.5 86,-21.5 86,-0.5 0,-0.5"/>
<text text-anchor="middle" x="43" y="-8.5" font-family="FreeSans.ttf" font-size="10.00">command.cpp</text>
</a>
</g>
<!-- Node3&#45;&gt;Node4 -->
<g id="edge6" class="edge"><title>Node3&#45;&gt;Node4</title>
<path fill="none" stroke="midnightblue" d="M43,-48.1906C43,-39.1684 43,-28.9941 43,-21.5707"/>
<polygon fill="midnightblue" stroke="midnightblue" points="39.5001,-48.3619 43,-58.3619 46.5001,-48.3619 39.5001,-48.3619"/>
</g>
<!-- Node5 -->
<g id="node9" class="node"><title>Node5</title>
<a xlink:href="server_8cpp.xhtml" target="_top" xlink:title="All non&#45;template member functions of the Server class.">
<polygon fill="white" stroke="black" points="132,-0.5 132,-21.5 198,-21.5 198,-0.5 132,-0.5"/>
<text text-anchor="middle" x="165" y="-8.5" font-family="FreeSans.ttf" font-size="10.00">server.cpp</text>
</a>
</g>
<!-- Node3&#45;&gt;Node5 -->
<g id="edge8" class="edge"><title>Node3&#45;&gt;Node5</title>
<path fill="none" stroke="midnightblue" d="M74.406,-54.0693C95.7712,-43.9121 123.529,-30.7157 142.659,-21.6212"/>
<polygon fill="midnightblue" stroke="midnightblue" points="72.6219,-51.042 65.0933,-58.4966 75.6274,-57.364 72.6219,-51.042"/>
</g>
<!-- Node3&#45;&gt;Node6 -->
<g id="edge10" class="edge"><title>Node3&#45;&gt;Node6</title>
<path fill="none" stroke="midnightblue" d="M94.9319,-57.6449C170.834,-42.2971 248.378,-28.082 296.727,-19.3942"/>
<polygon fill="midnightblue" stroke="midnightblue" points="93.8244,-54.2983 84.7211,-59.7186 95.2176,-61.1582 93.8244,-54.2983"/>
</g>
<!-- Node8&#45;&gt;Node1 -->
<g id="edge16" class="edge"><title>Node8&#45;&gt;Node1</title>
<path fill="none" stroke="midnightblue" d="M258.5,-147.728C259.059,-156.743 258.681,-166.922 257.364,-174.362"/>
<polygon fill="midnightblue" stroke="midnightblue" points="261.953,-147.114 257.352,-137.571 254.997,-147.9 261.953,-147.114"/>
</g>
<!-- Node8&#45;&gt;Node5 -->
<g id="edge20" class="edge"><title>Node8&#45;&gt;Node5</title>
<path fill="none" stroke="midnightblue" d="M236.068,-108.54C228.851,-99.9936 220.317,-89.621 213,-80 197.806,-60.0222 181.361,-35.7419 172.205,-21.9588"/>
<polygon fill="midnightblue" stroke="midnightblue" points="233.601,-111.042 242.751,-116.383 238.929,-106.502 233.601,-111.042"/>
</g>
<!-- Node9 -->
<g id="node18" class="node"><title>Node9</title>
<a xlink:href="main_8cpp.xhtml" target="_top" xlink:title="Initial server entry point.">
<polygon fill="white" stroke="black" points="221.5,-58.5 221.5,-79.5 282.5,-79.5 282.5,-58.5 221.5,-58.5"/>
<text text-anchor="middle" x="252" y="-66.5" font-family="FreeSans.ttf" font-size="10.00">main.cpp</text>
</a>
</g>
<!-- Node8&#45;&gt;Node9 -->
<g id="edge18" class="edge"><title>Node8&#45;&gt;Node9</title>
<path fill="none" stroke="midnightblue" d="M252,-106.191C252,-97.1684 252,-86.9941 252,-79.5707"/>
<polygon fill="midnightblue" stroke="midnightblue" points="248.5,-106.362 252,-116.362 255.5,-106.362 248.5,-106.362"/>
</g>
<!-- Node10 -->
<g id="node21" class="node"><title>Node10</title>
<a xlink:href="socketserver_8cpp.xhtml" target="_top" xlink:title="All non&#45;trivial member functions of the SocketServer class.">
<polygon fill="white" stroke="black" points="300,-58.5 300,-79.5 398,-79.5 398,-58.5 300,-58.5"/>
<text text-anchor="middle" x="349" y="-66.5" font-family="FreeSans.ttf" font-size="10.00">socketserver.cpp</text>
</a>
</g>
<!-- Node8&#45;&gt;Node10 -->
<g id="edge22" class="edge"><title>Node8&#45;&gt;Node10</title>
<path fill="none" stroke="midnightblue" d="M278.59,-111.101C295.373,-101.066 316.587,-88.3808 331.321,-79.5707"/>
<polygon fill="midnightblue" stroke="midnightblue" points="276.578,-108.226 269.791,-116.362 280.17,-114.234 276.578,-108.226"/>
</g>
</g>
</svg>
