<?xml version="1.0" encoding="UTF-8" standalone="no"?>
<!DOCTYPE svg PUBLIC "-//W3C//DTD SVG 1.1//EN"
 "http://www.w3.org/Graphics/SVG/1.1/DTD/svg11.dtd">
<!-- Generated by graphviz version 2.26.3 (20100126.1600)
 -->
<!-- Title: G Pages: 1 -->
<svg width="494pt" height="88pt"
 viewBox="0.00 0.00 494.00 88.00" xmlns="http://www.w3.org/2000/svg" xmlns:xlink="http://www.w3.org/1999/xlink">
<g id="graph1" class="graph" transform="scale(1 1) rotate(0) translate(4 84)">
<title>G</title>
<polygon fill="white" stroke="white" points="-4,5 -4,-84 491,-84 491,5 -4,5"/>
<!-- Node1 -->
<g id="node1" class="node"><title>Node1</title>
<polygon fill="#bfbfbf" stroke="black" points="182.5,-58.5 182.5,-79.5 271.5,-79.5 271.5,-58.5 182.5,-58.5"/>
<text text-anchor="middle" x="227" y="-66.5" font-family="FreeSans.ttf" font-size="10.00">h/sysincludes.h</text>
</g>
<!-- Node2 -->
<g id="node3" class="node"><title>Node2</title>
<polygon fill="white" stroke="#bfbfbf" points="0,-0.5 0,-21.5 62,-21.5 62,-0.5 0,-0.5"/>
<text text-anchor="middle" x="31" y="-8.5" font-family="FreeSans.ttf" font-size="10.00">algorithm</text>
</g>
<!-- Node1&#45;&gt;Node2 -->
<g id="edge2" class="edge"><title>Node1&#45;&gt;Node2</title>
<path fill="none" stroke="midnightblue" d="M191.506,-58.4966C157.87,-48.5432 107.374,-33.6006 72.0278,-23.1409"/>
<polygon fill="midnightblue" stroke="midnightblue" points="72.6161,-19.665 62.034,-20.1835 70.6298,-26.3773 72.6161,-19.665"/>
</g>
<!-- Node3 -->
<g id="node5" class="node"><title>Node3</title>
<polygon fill="white" stroke="#bfbfbf" points="80,-0.5 80,-21.5 130,-21.5 130,-0.5 80,-0.5"/>
<text text-anchor="middle" x="105" y="-8.5" font-family="FreeSans.ttf" font-size="10.00">chrono</text>
</g>
<!-- Node1&#45;&gt;Node3 -->
<g id="edge4" class="edge"><title>Node1&#45;&gt;Node3</title>
<path fill="none" stroke="midnightblue" d="M204.907,-58.4966C185.766,-49.397 157.854,-36.1273 136.395,-25.9253"/>
<polygon fill="midnightblue" stroke="midnightblue" points="137.875,-22.7539 127.341,-21.6212 134.87,-29.0758 137.875,-22.7539"/>
</g>
<!-- Node4 -->
<g id="node7" class="node"><title>Node4</title>
<polygon fill="white" stroke="#bfbfbf" points="148,-0.5 148,-21.5 186,-21.5 186,-0.5 148,-0.5"/>
<text text-anchor="middle" x="167" y="-8.5" font-family="FreeSans.ttf" font-size="10.00">map</text>
</g>
<!-- Node1&#45;&gt;Node4 -->
<g id="edge6" class="edge"><title>Node1&#45;&gt;Node4</title>
<path fill="none" stroke="midnightblue" d="M215.995,-58.3619C207.453,-50.1043 195.42,-38.4725 185.417,-28.8029"/>
<polygon fill="midnightblue" stroke="midnightblue" points="187.558,-26.0044 177.935,-21.5707 182.692,-31.0374 187.558,-26.0044"/>
</g>
<!-- Node5 -->
<g id="node9" class="node"><title>Node5</title>
<polygon fill="white" stroke="#bfbfbf" points="203.5,-0.5 203.5,-21.5 250.5,-21.5 250.5,-0.5 203.5,-0.5"/>
<text text-anchor="middle" x="227" y="-8.5" font-family="FreeSans.ttf" font-size="10.00">vector</text>
</g>
<!-- Node1&#45;&gt;Node5 -->
<g id="edge8" class="edge"><title>Node1&#45;&gt;Node5</title>
<path fill="none" stroke="midnightblue" d="M227,-58.3619C227,-50.9219 227,-40.7427 227,-31.7276"/>
<polygon fill="midnightblue" stroke="midnightblue" points="230.5,-31.5706 227,-21.5707 223.5,-31.5707 230.5,-31.5706"/>
</g>
<!-- Node6 -->
<g id="node11" class="node"><title>Node6</title>
<polygon fill="white" stroke="#bfbfbf" points="268,-0.5 268,-21.5 336,-21.5 336,-0.5 268,-0.5"/>
<text text-anchor="middle" x="302" y="-8.5" font-family="FreeSans.ttf" font-size="10.00">arpa/inet.h</text>
</g>
<!-- Node1&#45;&gt;Node6 -->
<g id="edge10" class="edge"><title>Node1&#45;&gt;Node6</title>
<path fill="none" stroke="midnightblue" d="M240.756,-58.3619C251.751,-49.859 267.373,-37.7785 280.086,-27.9466"/>
<polygon fill="midnightblue" stroke="midnightblue" points="282.562,-30.4569 288.331,-21.5707 278.279,-24.9195 282.562,-30.4569"/>
</g>
<!-- Node7 -->
<g id="node13" class="node"><title>Node7</title>
<polygon fill="white" stroke="#bfbfbf" points="353.5,-0.5 353.5,-21.5 404.5,-21.5 404.5,-0.5 353.5,-0.5"/>
<text text-anchor="middle" x="379" y="-8.5" font-family="FreeSans.ttf" font-size="10.00">errno.h</text>
</g>
<!-- Node1&#45;&gt;Node7 -->
<g id="edge12" class="edge"><title>Node1&#45;&gt;Node7</title>
<path fill="none" stroke="midnightblue" d="M254.526,-58.4966C279.518,-48.9604 316.512,-34.8442 343.676,-24.4788"/>
<polygon fill="midnightblue" stroke="midnightblue" points="345.104,-27.6802 353.199,-20.8451 342.608,-21.1402 345.104,-27.6802"/>
</g>
<!-- Node8 -->
<g id="node15" class="node"><title>Node8</title>
<polygon fill="white" stroke="#bfbfbf" points="421.5,-0.5 421.5,-21.5 486.5,-21.5 486.5,-0.5 421.5,-0.5"/>
<text text-anchor="middle" x="454" y="-8.5" font-family="FreeSans.ttf" font-size="10.00">memory.h</text>
</g>
<!-- Node1&#45;&gt;Node8 -->
<g id="edge14" class="edge"><title>Node1&#45;&gt;Node8</title>
<path fill="none" stroke="midnightblue" d="M269.522,-58.4429C305.114,-49.5641 357.497,-36.3994 411.581,-22.3488"/>
<polygon fill="midnightblue" stroke="midnightblue" points="412.542,-25.7154 421.338,-19.8091 410.778,-18.9411 412.542,-25.7154"/>
</g>
</g>
</svg>
