<?xml version="1.0" encoding="UTF-8" standalone="no"?>
<!DOCTYPE svg PUBLIC "-//W3C//DTD SVG 1.1//EN"
 "http://www.w3.org/Graphics/SVG/1.1/DTD/svg11.dtd">
<!-- Generated by graphviz version 2.26.3 (20100126.1600)
 -->
<!-- Title: h/sysincludes.h Pages: 1 -->
<svg width="1622pt" height="88pt"
 viewBox="0.00 0.00 1622.00 88.00" xmlns="http://www.w3.org/2000/svg" xmlns:xlink="http://www.w3.org/1999/xlink">
<g id="graph1" class="graph" transform="scale(1 1) rotate(0) translate(4 84)">
<title>h/sysincludes.h</title>
<polygon fill="white" stroke="white" points="-4,5 -4,-84 1619,-84 1619,5 -4,5"/>
<!-- Node1 -->
<g id="node1" class="node"><title>Node1</title>
<polygon fill="#bfbfbf" stroke="black" points="723.5,-59 723.5,-79 812.5,-79 812.5,-59 723.5,-59"/>
<text text-anchor="middle" x="768" y="-66" font-family="FreeSans.ttf" font-size="10.00">h/sysincludes.h</text>
</g>
<!-- Node2 -->
<g id="node3" class="node"><title>Node2</title>
<polygon fill="white" stroke="#bfbfbf" points="0,-1 0,-21 62,-21 62,-1 0,-1"/>
<text text-anchor="middle" x="31" y="-8" font-family="FreeSans.ttf" font-size="10.00">algorithm</text>
</g>
<!-- Node1&#45;&gt;Node2 -->
<g id="edge2" class="edge"><title>Node1&#45;&gt;Node2</title>
<path fill="none" stroke="midnightblue" d="M723.13,-67.1554C592.903,-61.6194 215.558,-44.2421 72.2186,-21.8697"/>
<polygon fill="midnightblue" stroke="midnightblue" points="72.7427,-18.409 62.3091,-20.2504 71.6137,-25.3174 72.7427,-18.409"/>
</g>
<!-- Node3 -->
<g id="node5" class="node"><title>Node3</title>
<polygon fill="white" stroke="#bfbfbf" points="80,-1 80,-21 124,-21 124,-1 80,-1"/>
<text text-anchor="middle" x="102" y="-8" font-family="FreeSans.ttf" font-size="10.00">bitset</text>
</g>
<!-- Node1&#45;&gt;Node3 -->
<g id="edge4" class="edge"><title>Node1&#45;&gt;Node3</title>
<path fill="none" stroke="midnightblue" d="M723.079,-67.2348C601.052,-62.1984 264.432,-46.641 134.26,-21.7043"/>
<polygon fill="midnightblue" stroke="midnightblue" points="134.642,-18.2108 124.147,-19.6577 133.254,-25.0718 134.642,-18.2108"/>
</g>
<!-- Node4 -->
<g id="node7" class="node"><title>Node4</title>
<polygon fill="white" stroke="#bfbfbf" points="142,-1 142,-21 192,-21 192,-1 142,-1"/>
<text text-anchor="middle" x="167" y="-8" font-family="FreeSans.ttf" font-size="10.00">chrono</text>
</g>
<!-- Node1&#45;&gt;Node4 -->
<g id="edge6" class="edge"><title>Node1&#45;&gt;Node4</title>
<path fill="none" stroke="midnightblue" d="M723.398,-66.6328C611.241,-60.4735 318.698,-43.0777 202.142,-21.766"/>
<polygon fill="midnightblue" stroke="midnightblue" points="202.561,-18.2824 192.08,-19.8259 201.236,-25.1558 202.561,-18.2824"/>
</g>
<!-- Node5 -->
<g id="node9" class="node"><title>Node5</title>
<polygon fill="white" stroke="#bfbfbf" points="209.5,-1 209.5,-21 262.5,-21 262.5,-1 209.5,-1"/>
<text text-anchor="middle" x="236" y="-8" font-family="FreeSans.ttf" font-size="10.00">cstdarg</text>
</g>
<!-- Node1&#45;&gt;Node5 -->
<g id="edge8" class="edge"><title>Node1&#45;&gt;Node5</title>
<path fill="none" stroke="midnightblue" d="M723.328,-67.9146C637.397,-65.1516 443.177,-55.6342 272.513,-21.982"/>
<polygon fill="midnightblue" stroke="midnightblue" points="273.095,-18.529 262.602,-19.9947 271.719,-25.3924 273.095,-18.529"/>
</g>
<!-- Node6 -->
<g id="node11" class="node"><title>Node6</title>
<polygon fill="white" stroke="#bfbfbf" points="279.5,-1 279.5,-21 324.5,-21 324.5,-1 279.5,-1"/>
<text text-anchor="middle" x="302" y="-8" font-family="FreeSans.ttf" font-size="10.00">cstdio</text>
</g>
<!-- Node1&#45;&gt;Node6 -->
<g id="edge10" class="edge"><title>Node1&#45;&gt;Node6</title>
<path fill="none" stroke="midnightblue" d="M723.286,-67.6019C645.601,-64.4329 480.774,-54.438 334.555,-21.9468"/>
<polygon fill="midnightblue" stroke="midnightblue" points="335.033,-18.4664 324.506,-19.6713 333.487,-25.2936 335.033,-18.4664"/>
</g>
<!-- Node7 -->
<g id="node13" class="node"><title>Node7</title>
<polygon fill="white" stroke="#bfbfbf" points="341.5,-1 341.5,-21 388.5,-21 388.5,-1 341.5,-1"/>
<text text-anchor="middle" x="365" y="-8" font-family="FreeSans.ttf" font-size="10.00">deque</text>
</g>
<!-- Node1&#45;&gt;Node7 -->
<g id="edge12" class="edge"><title>Node1&#45;&gt;Node7</title>
<path fill="none" stroke="midnightblue" d="M723.22,-66.3011C654.814,-61.5326 520.219,-49.6071 398.469,-21.9974"/>
<polygon fill="midnightblue" stroke="midnightblue" points="399.139,-18.56 388.608,-19.7196 397.563,-25.3804 399.139,-18.56"/>
</g>
<!-- Node8 -->
<g id="node15" class="node"><title>Node8</title>
<polygon fill="white" stroke="#bfbfbf" points="406,-1 406,-21 460,-21 460,-1 406,-1"/>
<text text-anchor="middle" x="433" y="-8" font-family="FreeSans.ttf" font-size="10.00">fstream</text>
</g>
<!-- Node1&#45;&gt;Node8 -->
<g id="edge14" class="edge"><title>Node1&#45;&gt;Node8</title>
<path fill="none" stroke="midnightblue" d="M723.299,-63.9657C666.468,-57.1273 565.236,-43.4834 469.824,-21.9477"/>
<polygon fill="midnightblue" stroke="midnightblue" points="470.546,-18.5224 460.017,-19.7009 468.982,-25.3456 470.546,-18.5224"/>
</g>
<!-- Node9 -->
<g id="node17" class="node"><title>Node9</title>
<polygon fill="white" stroke="#bfbfbf" points="477.5,-1 477.5,-21 536.5,-21 536.5,-1 477.5,-1"/>
<text text-anchor="middle" x="507" y="-8" font-family="FreeSans.ttf" font-size="10.00">iostream</text>
</g>
<!-- Node1&#45;&gt;Node9 -->
<g id="edge16" class="edge"><title>Node1&#45;&gt;Node9</title>
<path fill="none" stroke="midnightblue" d="M723.352,-60.6003C680.291,-52.2736 613.087,-38.6885 546.614,-22.2953"/>
<polygon fill="midnightblue" stroke="midnightblue" points="547.363,-18.8752 536.814,-19.8565 545.673,-25.668 547.363,-18.8752"/>
</g>
<!-- Node10 -->
<g id="node19" class="node"><title>Node10</title>
<polygon fill="white" stroke="#bfbfbf" points="554,-1 554,-21 606,-21 606,-1 554,-1"/>
<text text-anchor="middle" x="580" y="-8" font-family="FreeSans.ttf" font-size="10.00">iterator</text>
</g>
<!-- Node1&#45;&gt;Node10 -->
<g id="edge18" class="edge"><title>Node1&#45;&gt;Node10</title>
<path fill="none" stroke="midnightblue" d="M735.151,-58.9762C706.153,-50.1129 662.483,-36.7288 616.009,-22.3024"/>
<polygon fill="midnightblue" stroke="midnightblue" points="616.956,-18.9316 606.368,-19.307 614.879,-25.6164 616.956,-18.9316"/>
</g>
<!-- Node11 -->
<g id="node21" class="node"><title>Node11</title>
<polygon fill="white" stroke="#bfbfbf" points="624,-1 624,-21 666,-21 666,-1 624,-1"/>
<text text-anchor="middle" x="645" y="-8" font-family="FreeSans.ttf" font-size="10.00">limits</text>
</g>
<!-- Node1&#45;&gt;Node11 -->
<g id="edge20" class="edge"><title>Node1&#45;&gt;Node11</title>
<path fill="none" stroke="midnightblue" d="M746.575,-58.8972C726.909,-49.6239 697.56,-35.7846 675.46,-25.3632"/>
<polygon fill="midnightblue" stroke="midnightblue" points="676.717,-22.0865 666.179,-20.9871 673.732,-28.4179 676.717,-22.0865"/>
</g>
<!-- Node12 -->
<g id="node23" class="node"><title>Node12</title>
<polygon fill="white" stroke="#bfbfbf" points="684,-1 684,-21 722,-21 722,-1 684,-1"/>
<text text-anchor="middle" x="703" y="-8" font-family="FreeSans.ttf" font-size="10.00">map</text>
</g>
<!-- Node1&#45;&gt;Node12 -->
<g id="edge22" class="edge"><title>Node1&#45;&gt;Node12</title>
<path fill="none" stroke="midnightblue" d="M756.678,-58.8972C747.195,-50.4353 733.451,-38.1715 722.244,-28.1719"/>
<polygon fill="midnightblue" stroke="midnightblue" points="724.422,-25.424 714.63,-21.3776 719.761,-30.647 724.422,-25.424"/>
</g>
<!-- Node13 -->
<g id="node25" class="node"><title>Node13</title>
<polygon fill="white" stroke="#bfbfbf" points="740,-1 740,-21 796,-21 796,-1 740,-1"/>
<text text-anchor="middle" x="768" y="-8" font-family="FreeSans.ttf" font-size="10.00">sstream</text>
</g>
<!-- Node1&#45;&gt;Node13 -->
<g id="edge24" class="edge"><title>Node1&#45;&gt;Node13</title>
<path fill="none" stroke="midnightblue" d="M768,-58.8972C768,-51.339 768,-40.7476 768,-31.4458"/>
<polygon fill="midnightblue" stroke="midnightblue" points="771.5,-31.3776 768,-21.3776 764.5,-31.3776 771.5,-31.3776"/>
</g>
<!-- Node14 -->
<g id="node27" class="node"><title>Node14</title>
<polygon fill="white" stroke="#bfbfbf" points="813.5,-1 813.5,-21 860.5,-21 860.5,-1 813.5,-1"/>
<text text-anchor="middle" x="837" y="-8" font-family="FreeSans.ttf" font-size="10.00">vector</text>
</g>
<!-- Node1&#45;&gt;Node14 -->
<g id="edge26" class="edge"><title>Node1&#45;&gt;Node14</title>
<path fill="none" stroke="midnightblue" d="M780.019,-58.8972C790.183,-50.3532 804.959,-37.933 816.917,-27.8813"/>
<polygon fill="midnightblue" stroke="midnightblue" points="819.251,-30.4914 824.654,-21.3776 814.747,-25.133 819.251,-30.4914"/>
</g>
<!-- Node15 -->
<g id="node29" class="node"><title>Node15</title>
<polygon fill="white" stroke="#bfbfbf" points="878,-1 878,-21 946,-21 946,-1 878,-1"/>
<text text-anchor="middle" x="912" y="-8" font-family="FreeSans.ttf" font-size="10.00">arpa/inet.h</text>
</g>
<!-- Node1&#45;&gt;Node15 -->
<g id="edge28" class="edge"><title>Node1&#45;&gt;Node15</title>
<path fill="none" stroke="midnightblue" d="M793.083,-58.8972C816.376,-49.5152 851.273,-35.4593 877.247,-24.9979"/>
<polygon fill="midnightblue" stroke="midnightblue" points="878.753,-28.1644 886.721,-21.1817 876.138,-21.6713 878.753,-28.1644"/>
</g>
<!-- Node16 -->
<g id="node31" class="node"><title>Node16</title>
<polygon fill="white" stroke="#bfbfbf" points="964,-1 964,-21 1042,-21 1042,-1 964,-1"/>
<text text-anchor="middle" x="1003" y="-8" font-family="FreeSans.ttf" font-size="10.00">arpa/telnet.h</text>
</g>
<!-- Node1&#45;&gt;Node16 -->
<g id="edge30" class="edge"><title>Node1&#45;&gt;Node16</title>
<path fill="none" stroke="midnightblue" d="M808.666,-58.9634C848.921,-49.028 910.602,-33.8046 953.643,-23.1818"/>
<polygon fill="midnightblue" stroke="midnightblue" points="954.744,-26.5151 963.614,-20.7208 953.067,-19.719 954.744,-26.5151"/>
</g>
<!-- Node17 -->
<g id="node33" class="node"><title>Node17</title>
<polygon fill="white" stroke="#bfbfbf" points="1059.5,-1 1059.5,-21 1112.5,-21 1112.5,-1 1059.5,-1"/>
<text text-anchor="middle" x="1086" y="-8" font-family="FreeSans.ttf" font-size="10.00">dirent.h</text>
</g>
<!-- Node1&#45;&gt;Node17 -->
<g id="edge32" class="edge"><title>Node1&#45;&gt;Node17</title>
<path fill="none" stroke="midnightblue" d="M812.501,-63.5703C866.545,-56.5447 960.575,-42.9377 1049.39,-22.1634"/>
<polygon fill="midnightblue" stroke="midnightblue" points="1050.43,-25.513 1059.35,-19.7969 1048.82,-18.7025 1050.43,-25.513"/>
</g>
<!-- Node18 -->
<g id="node35" class="node"><title>Node18</title>
<polygon fill="white" stroke="#bfbfbf" points="1130,-1 1130,-21 1178,-21 1178,-1 1130,-1"/>
<text text-anchor="middle" x="1154" y="-8" font-family="FreeSans.ttf" font-size="10.00">dlfcn.h</text>
</g>
<!-- Node1&#45;&gt;Node18 -->
<g id="edge34" class="edge"><title>Node1&#45;&gt;Node18</title>
<path fill="none" stroke="midnightblue" d="M812.508,-65.7934C878.017,-60.4822 1004.26,-47.9946 1119.92,-21.901"/>
<polygon fill="midnightblue" stroke="midnightblue" points="1121.04,-25.2346 1130,-19.5846 1119.47,-18.4123 1121.04,-25.2346"/>
</g>
<!-- Node19 -->
<g id="node37" class="node"><title>Node19</title>
<polygon fill="white" stroke="#bfbfbf" points="1195.5,-1 1195.5,-21 1246.5,-21 1246.5,-1 1195.5,-1"/>
<text text-anchor="middle" x="1221" y="-8" font-family="FreeSans.ttf" font-size="10.00">errno.h</text>
</g>
<!-- Node1&#45;&gt;Node19 -->
<g id="edge36" class="edge"><title>Node1&#45;&gt;Node19</title>
<path fill="none" stroke="midnightblue" d="M812.509,-66.951C887.758,-62.8505 1044.89,-51.5439 1185.09,-22.1046"/>
<polygon fill="midnightblue" stroke="midnightblue" points="1186.11,-25.4664 1195.16,-19.9535 1184.65,-18.621 1186.11,-25.4664"/>
</g>
<!-- Node20 -->
<g id="node39" class="node"><title>Node20</title>
<polygon fill="white" stroke="#bfbfbf" points="1264,-1 1264,-21 1310,-21 1310,-1 1264,-1"/>
<text text-anchor="middle" x="1287" y="-8" font-family="FreeSans.ttf" font-size="10.00">fcntl.h</text>
</g>
<!-- Node1&#45;&gt;Node20 -->
<g id="edge38" class="edge"><title>Node1&#45;&gt;Node20</title>
<path fill="none" stroke="midnightblue" d="M812.521,-68.1862C897.156,-65.8911 1086.98,-57.1555 1253.82,-21.8377"/>
<polygon fill="midnightblue" stroke="midnightblue" points="1254.72,-25.2233 1263.76,-19.6952 1253.25,-18.3804 1254.72,-25.2233"/>
</g>
<!-- Node21 -->
<g id="node41" class="node"><title>Node21</title>
<polygon fill="white" stroke="#bfbfbf" points="1327.5,-1 1327.5,-21 1392.5,-21 1392.5,-1 1327.5,-1"/>
<text text-anchor="middle" x="1360" y="-8" font-family="FreeSans.ttf" font-size="10.00">memory.h</text>
</g>
<!-- Node1&#45;&gt;Node21 -->
<g id="edge40" class="edge"><title>Node1&#45;&gt;Node21</title>
<path fill="none" stroke="midnightblue" d="M812.625,-67.8673C905.231,-64.9422 1125.03,-55.0175 1317.43,-22.0339"/>
<polygon fill="midnightblue" stroke="midnightblue" points="1318.19,-25.4547 1327.44,-20.2925 1316.99,-18.5582 1318.19,-25.4547"/>
</g>
<!-- Node22 -->
<g id="node43" class="node"><title>Node22</title>
<polygon fill="white" stroke="#bfbfbf" points="1409.5,-1 1409.5,-21 1462.5,-21 1462.5,-1 1409.5,-1"/>
<text text-anchor="middle" x="1436" y="-8" font-family="FreeSans.ttf" font-size="10.00">netdb.h</text>
</g>
<!-- Node1&#45;&gt;Node22 -->
<g id="edge42" class="edge"><title>Node1&#45;&gt;Node22</title>
<path fill="none" stroke="midnightblue" d="M812.738,-67.0204C934.273,-61.4349 1269.58,-44.5912 1399.33,-21.9075"/>
<polygon fill="midnightblue" stroke="midnightblue" points="1400.21,-25.3045 1409.41,-20.0518 1398.94,-18.4201 1400.21,-25.3045"/>
</g>
<!-- Node23 -->
<g id="node45" class="node"><title>Node23</title>
<polygon fill="white" stroke="#bfbfbf" points="1479.5,-1 1479.5,-21 1542.5,-21 1542.5,-1 1479.5,-1"/>
<text text-anchor="middle" x="1511" y="-8" font-family="FreeSans.ttf" font-size="10.00">sys/stat.h</text>
</g>
<!-- Node1&#45;&gt;Node23 -->
<g id="edge44" class="edge"><title>Node1&#45;&gt;Node23</title>
<path fill="none" stroke="midnightblue" d="M812.78,-67.1889C943.678,-61.7119 1325.01,-44.4108 1469.28,-21.9759"/>
<polygon fill="midnightblue" stroke="midnightblue" points="1469.95,-25.414 1479.25,-20.3518 1468.82,-18.505 1469.95,-25.414"/>
</g>
<!-- Node24 -->
<g id="node47" class="node"><title>Node24</title>
<polygon fill="white" stroke="#bfbfbf" points="1559.5,-1 1559.5,-21 1614.5,-21 1614.5,-1 1559.5,-1"/>
<text text-anchor="middle" x="1587" y="-8" font-family="FreeSans.ttf" font-size="10.00">unistd.h</text>
</g>
<!-- Node1&#45;&gt;Node24 -->
<g id="edge46" class="edge"><title>Node1&#45;&gt;Node24</title>
<path fill="none" stroke="midnightblue" d="M812.731,-67.7061C953.696,-63.415 1388.37,-48.4965 1549.07,-21.9538"/>
<polygon fill="midnightblue" stroke="midnightblue" points="1550,-25.3453 1559.25,-20.1887 1548.8,-18.4481 1550,-25.3453"/>
</g>
</g>
</svg>
