<?xml version="1.0" encoding="UTF-8" standalone="no"?>
<!DOCTYPE svg PUBLIC "-//W3C//DTD SVG 1.1//EN"
 "http://www.w3.org/Graphics/SVG/1.1/DTD/svg11.dtd">
<!-- Generated by graphviz version 2.26.3 (20100126.1600)
 -->
<!-- Title: G Pages: 1 -->
<!--zoomable 204 -->
<svg id="main" version="1.1" xmlns="http://www.w3.org/2000/svg" xmlns:xlink="http://www.w3.org/1999/xlink" xml:space="preserve" onload="init(evt)">
        <defs>
                <circle id="rim" cx="0" cy="0" r="7"/>
                <circle id="rim2" cx="0" cy="0" r="3.5"/>
                <g id="zoomPlus">
                        <use xlink:href="#rim" fill="#404040">
                                <set attributeName="fill" to="#808080" begin="zoomplus.mouseover" end="zoomplus.mouseout"/>
                        </use>
                        <path d="M-4,0h8M0,-4v8" fill="none" stroke="white" stroke-width="1.5" pointer-events="none"/>
                </g>
                <g id="zoomMin">
                        <use xlink:href="#rim" fill="#404040">
                                <set attributeName="fill" to="#808080" begin="zoomminus.mouseover" end="zoomminus.mouseout"/>
                        </use>
                        <path d="M-4,0h8" fill="none" stroke="white" stroke-width="1.5" pointer-events="none"/>
                </g>
                <g id="dirArrow">
                        <path fill="none" stroke="white" stroke-width="1.5" d="M0,-3.0v7 M-2.5,-0.5L0,-3.0L2.5,-0.5"/>
                </g>
               <g id="resetDef">
                       <use xlink:href="#rim2" fill="#404040">
                               <set attributeName="fill" to="#808080" begin="reset.mouseover" end="reset.mouseout"/>
                       </use>
               </g>
        </defs>

<script type="text/javascript">
var viewWidth = 1508;
var viewHeight = 204;
var sectionId = 'dynsection-0';
</script>
<script xlink:href="svgpan.js"/>
<svg id="graph" class="graph">
<g id="viewport">
<title>G</title>
<polygon fill="white" stroke="white" points="-4,5 -4,-200 1505,-200 1505,5 -4,5"/>
<!-- Node1 -->
<g id="node1" class="node"><title>Node1</title>
<polygon fill="#bfbfbf" stroke="black" points="1194,-174.5 1194,-195.5 1256,-195.5 1256,-174.5 1194,-174.5"/>
<text text-anchor="middle" x="1225" y="-182.5" font-family="FreeSans.ttf" font-size="10.00">h/telopt.h</text>
</g>
<!-- Node2 -->
<g id="node3" class="node"><title>Node2</title>
<a xlink:href="namespace_8h.xhtml" target="_top" xlink:title="All namespace includes.">
<polygon fill="white" stroke="black" points="1061.5,-116.5 1061.5,-137.5 1152.5,-137.5 1152.5,-116.5 1061.5,-116.5"/>
<text text-anchor="middle" x="1107" y="-124.5" font-family="FreeSans.ttf" font-size="10.00">h/namespace.h</text>
</a>
</g>
<!-- Node1&#45;&gt;Node2 -->
<g id="edge2" class="edge"><title>Node1&#45;&gt;Node2</title>
<path fill="none" stroke="midnightblue" d="M1194.62,-170.069C1173.96,-159.912 1147.11,-146.716 1128.61,-137.621"/>
<polygon fill="midnightblue" stroke="midnightblue" points="1193.11,-173.226 1203.63,-174.497 1196.2,-166.944 1193.11,-173.226"/>
</g>
<!-- Node17 -->
<g id="node33" class="node"><title>Node17</title>
<a xlink:href="telopt_8cpp.xhtml" target="_top" xlink:title="All non&#45;template member functions of the Telopt namespace.">
<polygon fill="white" stroke="black" points="1435.5,-0.5 1435.5,-21.5 1500.5,-21.5 1500.5,-0.5 1435.5,-0.5"/>
<text text-anchor="middle" x="1468" y="-8.5" font-family="FreeSans.ttf" font-size="10.00">telopt.cpp</text>
</a>
</g>
<!-- Node1&#45;&gt;Node17 -->
<g id="edge40" class="edge"><title>Node1&#45;&gt;Node17</title>
<path fill="none" stroke="midnightblue" d="M1247.97,-168.549C1297.26,-133.259 1411.99,-51.1071 1453.05,-21.7046"/>
<polygon fill="midnightblue" stroke="midnightblue" points="1245.93,-165.71 1239.83,-174.377 1250,-171.401 1245.93,-165.71"/>
</g>
<!-- Node3 -->
<g id="node5" class="node"><title>Node3</title>
<a xlink:href="includes_8h.xhtml" target="_top" xlink:title="All non&#45;system includes that need to be within each .cpp file.">
<polygon fill="white" stroke="black" points="742,-58.5 742,-79.5 816,-79.5 816,-58.5 742,-58.5"/>
<text text-anchor="middle" x="779" y="-66.5" font-family="FreeSans.ttf" font-size="10.00">h/includes.h</text>
</a>
</g>
<!-- Node2&#45;&gt;Node3 -->
<g id="edge4" class="edge"><title>Node2&#45;&gt;Node3</title>
<path fill="none" stroke="midnightblue" d="M1051.43,-117.173C984.392,-105.319 873.56,-85.721 816.107,-75.5617"/>
<polygon fill="midnightblue" stroke="midnightblue" points="1050.94,-120.641 1061.39,-118.935 1052.16,-113.747 1050.94,-120.641"/>
</g>
<!-- Node4 -->
<g id="node7" class="node"><title>Node4</title>
<a xlink:href="account_8cpp.xhtml" target="_top" xlink:title="All non&#45;template member functions of the Account class.">
<polygon fill="white" stroke="black" points="-0.5,-0.5 -0.5,-21.5 74.5,-21.5 74.5,-0.5 -0.5,-0.5"/>
<text text-anchor="middle" x="37" y="-8.5" font-family="FreeSans.ttf" font-size="10.00">account.cpp</text>
</a>
</g>
<!-- Node3&#45;&gt;Node4 -->
<g id="edge6" class="edge"><title>Node3&#45;&gt;Node4</title>
<path fill="none" stroke="midnightblue" d="M731.759,-68.528C618.921,-66.8107 325.078,-58.8526 83,-22 80.24,-21.5798 77.4017,-21.0772 74.5546,-20.5215"/>
<polygon fill="midnightblue" stroke="midnightblue" points="731.741,-72.028 741.79,-68.6712 731.841,-65.0287 731.741,-72.028"/>
</g>
<!-- Node5 -->
<g id="node9" class="node"><title>Node5</title>
<a xlink:href="character_8cpp.xhtml" target="_top" xlink:title="All non&#45;template member functions of the Character class.">
<polygon fill="white" stroke="black" points="92,-0.5 92,-21.5 174,-21.5 174,-0.5 92,-0.5"/>
<text text-anchor="middle" x="133" y="-8.5" font-family="FreeSans.ttf" font-size="10.00">character.cpp</text>
</a>
</g>
<!-- Node3&#45;&gt;Node5 -->
<g id="edge8" class="edge"><title>Node3&#45;&gt;Node5</title>
<path fill="none" stroke="midnightblue" d="M731.636,-67.4829C630.426,-63.7554 385.773,-52.1534 183,-22 180.099,-21.5686 177.115,-21.0656 174.117,-20.5167"/>
<polygon fill="midnightblue" stroke="midnightblue" points="731.715,-70.9879 741.834,-67.8495 731.966,-63.9924 731.715,-70.9879"/>
</g>
<!-- Node6 -->
<g id="node11" class="node"><title>Node6</title>
<a xlink:href="command_8cpp.xhtml" target="_top" xlink:title="All non&#45;template member functions of the Command class.">
<polygon fill="white" stroke="black" points="192,-0.5 192,-21.5 278,-21.5 278,-0.5 192,-0.5"/>
<text text-anchor="middle" x="235" y="-8.5" font-family="FreeSans.ttf" font-size="10.00">command.cpp</text>
</a>
</g>
<!-- Node3&#45;&gt;Node6 -->
<g id="edge10" class="edge"><title>Node3&#45;&gt;Node6</title>
<path fill="none" stroke="midnightblue" d="M731.597,-66.2629C643.602,-60.7853 449.195,-46.8207 287,-22 284.081,-21.5533 281.08,-21.0465 278.061,-20.5014"/>
<polygon fill="midnightblue" stroke="midnightblue" points="731.595,-69.7693 741.791,-66.889 732.025,-62.7825 731.595,-69.7693"/>
</g>
<!-- Node7 -->
<g id="node13" class="node"><title>Node7</title>
<a xlink:href="event_8cpp.xhtml" target="_top" xlink:title="All non&#45;template member functions of the Event class.">
<polygon fill="white" stroke="black" points="296,-0.5 296,-21.5 360,-21.5 360,-0.5 296,-0.5"/>
<text text-anchor="middle" x="328" y="-8.5" font-family="FreeSans.ttf" font-size="10.00">event.cpp</text>
</a>
</g>
<!-- Node3&#45;&gt;Node7 -->
<g id="edge12" class="edge"><title>Node3&#45;&gt;Node7</title>
<path fill="none" stroke="midnightblue" d="M731.69,-65.8625C655.015,-60.2669 499.072,-46.7631 369,-22 366.104,-21.4487 363.112,-20.8011 360.125,-20.1008"/>
<polygon fill="midnightblue" stroke="midnightblue" points="731.747,-69.3755 741.972,-66.5999 732.248,-62.3934 731.747,-69.3755"/>
</g>
<!-- Node8 -->
<g id="node15" class="node"><title>Node8</title>
<a xlink:href="handler_8cpp.xhtml" target="_top" xlink:title="All non&#45;template member functions of the Handler namespace.">
<polygon fill="white" stroke="black" points="378,-0.5 378,-21.5 450,-21.5 450,-0.5 378,-0.5"/>
<text text-anchor="middle" x="414" y="-8.5" font-family="FreeSans.ttf" font-size="10.00">handler.cpp</text>
</a>
</g>
<!-- Node3&#45;&gt;Node8 -->
<g id="edge14" class="edge"><title>Node3&#45;&gt;Node8</title>
<path fill="none" stroke="midnightblue" d="M731.884,-63.4861C669.268,-55.8377 555.318,-40.8025 459,-22 456.158,-21.4453 453.226,-20.829 450.285,-20.1795"/>
<polygon fill="midnightblue" stroke="midnightblue" points="731.504,-66.9656 741.852,-64.6942 732.346,-60.0164 731.504,-66.9656"/>
</g>
<!-- Node9 -->
<g id="node17" class="node"><title>Node9</title>
<a xlink:href="list_8cpp.xhtml" target="_top" xlink:title="All globally referenced list / map / vector types.">
<polygon fill="white" stroke="black" points="468,-0.5 468,-21.5 518,-21.5 518,-0.5 468,-0.5"/>
<text text-anchor="middle" x="493" y="-8.5" font-family="FreeSans.ttf" font-size="10.00">list.cpp</text>
</a>
</g>
<!-- Node3&#45;&gt;Node9 -->
<g id="edge16" class="edge"><title>Node3&#45;&gt;Node9</title>
<path fill="none" stroke="midnightblue" d="M731.904,-62.0714C680.983,-54.1502 597.622,-39.9309 527,-22 524.114,-21.2672 521.114,-20.4224 518.146,-19.5335"/>
<polygon fill="midnightblue" stroke="midnightblue" points="731.535,-65.5558 741.951,-63.618 732.6,-58.6373 731.535,-65.5558"/>
</g>
<!-- Node10 -->
<g id="node19" class="node"><title>Node10</title>
<a xlink:href="location_8cpp.xhtml" target="_top" xlink:title="All non&#45;template member functions of the Location class.">
<polygon fill="white" stroke="black" points="536,-0.5 536,-21.5 610,-21.5 610,-0.5 536,-0.5"/>
<text text-anchor="middle" x="573" y="-8.5" font-family="FreeSans.ttf" font-size="10.00">location.cpp</text>
</a>
</g>
<!-- Node3&#45;&gt;Node10 -->
<g id="edge18" class="edge"><title>Node3&#45;&gt;Node10</title>
<path fill="none" stroke="midnightblue" d="M731.657,-55.6704C694.694,-45.2633 644.063,-31.0081 610.028,-21.4252"/>
<polygon fill="midnightblue" stroke="midnightblue" points="731.121,-59.1554 741.695,-58.4966 733.018,-52.4174 731.121,-59.1554"/>
</g>
<!-- Node11 -->
<g id="node21" class="node"><title>Node11</title>
<a xlink:href="main_8cpp.xhtml" target="_top" xlink:title="Initial server entry point.">
<polygon fill="white" stroke="black" points="627.5,-0.5 627.5,-21.5 688.5,-21.5 688.5,-0.5 627.5,-0.5"/>
<text text-anchor="middle" x="658" y="-8.5" font-family="FreeSans.ttf" font-size="10.00">main.cpp</text>
</a>
</g>
<!-- Node3&#45;&gt;Node11 -->
<g id="edge20" class="edge"><title>Node3&#45;&gt;Node11</title>
<path fill="none" stroke="midnightblue" d="M747.851,-54.0693C726.661,-43.9121 699.131,-30.7157 680.158,-21.6212"/>
<polygon fill="midnightblue" stroke="midnightblue" points="746.557,-57.3303 757.088,-58.4966 749.583,-51.018 746.557,-57.3303"/>
</g>
<!-- Node12 -->
<g id="node23" class="node"><title>Node12</title>
<a xlink:href="plugin_8cpp.xhtml" target="_top" xlink:title="All non&#45;template member functions of the Plugin class.">
<polygon fill="white" stroke="black" points="705.5,-0.5 705.5,-21.5 770.5,-21.5 770.5,-0.5 705.5,-0.5"/>
<text text-anchor="middle" x="738" y="-8.5" font-family="FreeSans.ttf" font-size="10.00">plugin.cpp</text>
</a>
</g>
<!-- Node3&#45;&gt;Node12 -->
<g id="edge22" class="edge"><title>Node3&#45;&gt;Node12</title>
<path fill="none" stroke="midnightblue" d="M765.54,-49.9591C758.869,-40.522 751.066,-29.4835 745.472,-21.5707"/>
<polygon fill="midnightblue" stroke="midnightblue" points="762.85,-52.2165 771.48,-58.3619 768.566,-48.1758 762.85,-52.2165"/>
</g>
<!-- Node13 -->
<g id="node25" class="node"><title>Node13</title>
<a xlink:href="server_8cpp.xhtml" target="_top" xlink:title="All non&#45;template member functions of the Server class.">
<polygon fill="white" stroke="black" points="788,-0.5 788,-21.5 854,-21.5 854,-0.5 788,-0.5"/>
<text text-anchor="middle" x="821" y="-8.5" font-family="FreeSans.ttf" font-size="10.00">server.cpp</text>
</a>
</g>
<!-- Node3&#45;&gt;Node13 -->
<g id="edge24" class="edge"><title>Node3&#45;&gt;Node13</title>
<path fill="none" stroke="midnightblue" d="M792.577,-50.2504C799.457,-40.75 807.556,-29.5651 813.345,-21.5707"/>
<polygon fill="midnightblue" stroke="midnightblue" points="789.734,-48.2097 786.703,-58.3619 795.403,-52.3153 789.734,-48.2097"/>
</g>
<!-- Node14 -->
<g id="node27" class="node"><title>Node14</title>
<a xlink:href="socket_8cpp.xhtml" target="_top" xlink:title="All non&#45;template member functions of the Socket class.">
<polygon fill="white" stroke="black" points="872,-0.5 872,-21.5 940,-21.5 940,-0.5 872,-0.5"/>
<text text-anchor="middle" x="906" y="-8.5" font-family="FreeSans.ttf" font-size="10.00">socket.cpp</text>
</a>
</g>
<!-- Node3&#45;&gt;Node14 -->
<g id="edge26" class="edge"><title>Node3&#45;&gt;Node14</title>
<path fill="none" stroke="midnightblue" d="M811.393,-54.2064C833.673,-44.031 862.74,-30.7567 882.743,-21.6212"/>
<polygon fill="midnightblue" stroke="midnightblue" points="809.641,-51.1587 801.999,-58.4966 812.549,-57.5261 809.641,-51.1587"/>
</g>
<!-- Node15 -->
<g id="node29" class="node"><title>Node15</title>
<a xlink:href="socketclient_8cpp.xhtml" target="_top" xlink:title="All non&#45;template member functions of the SocketClient class.">
<polygon fill="white" stroke="black" points="958,-0.5 958,-21.5 1052,-21.5 1052,-0.5 958,-0.5"/>
<text text-anchor="middle" x="1005" y="-8.5" font-family="FreeSans.ttf" font-size="10.00">socketclient.cpp</text>
</a>
</g>
<!-- Node3&#45;&gt;Node15 -->
<g id="edge28" class="edge"><title>Node3&#45;&gt;Node15</title>
<path fill="none" stroke="midnightblue" d="M825.998,-56.9385C866.639,-46.5087 924.816,-31.5782 963.698,-21.5996"/>
<polygon fill="midnightblue" stroke="midnightblue" points="824.882,-53.6114 816.066,-59.4874 826.622,-60.3917 824.882,-53.6114"/>
</g>
<!-- Node16 -->
<g id="node31" class="node"><title>Node16</title>
<a xlink:href="socketserver_8cpp.xhtml" target="_top" xlink:title="All non&#45;template member functions of the SocketServer class.">
<polygon fill="white" stroke="black" points="1070,-0.5 1070,-21.5 1168,-21.5 1168,-0.5 1070,-0.5"/>
<text text-anchor="middle" x="1119" y="-8.5" font-family="FreeSans.ttf" font-size="10.00">socketserver.cpp</text>
</a>
</g>
<!-- Node3&#45;&gt;Node16 -->
<g id="edge30" class="edge"><title>Node3&#45;&gt;Node16</title>
<path fill="none" stroke="midnightblue" d="M826.445,-61.4235C882.531,-52.3905 978.658,-36.6683 1061,-22 1063.93,-21.4787 1066.93,-20.9344 1069.97,-20.379"/>
<polygon fill="midnightblue" stroke="midnightblue" points="825.768,-57.9873 816.45,-63.0306 826.879,-64.8985 825.768,-57.9873"/>
</g>
<!-- Node3&#45;&gt;Node17 -->
<g id="edge32" class="edge"><title>Node3&#45;&gt;Node17</title>
<path fill="none" stroke="midnightblue" d="M826.778,-66.7137C956.166,-60.3338 1311.38,-41.5208 1427,-22 1429.76,-21.5338 1432.61,-20.9636 1435.45,-20.3305"/>
<polygon fill="midnightblue" stroke="midnightblue" points="826.228,-63.2363 816.411,-67.222 826.571,-70.2279 826.228,-63.2363"/>
</g>
<!-- Node18 -->
<g id="node35" class="node"><title>Node18</title>
<a xlink:href="thing_8cpp.xhtml" target="_top" xlink:title="All non&#45;template member functions of the Thing class.">
<polygon fill="white" stroke="black" points="1185.5,-0.5 1185.5,-21.5 1246.5,-21.5 1246.5,-0.5 1185.5,-0.5"/>
<text text-anchor="middle" x="1216" y="-8.5" font-family="FreeSans.ttf" font-size="10.00">thing.cpp</text>
</a>
</g>
<!-- Node3&#45;&gt;Node18 -->
<g id="edge34" class="edge"><title>Node3&#45;&gt;Node18</title>
<path fill="none" stroke="midnightblue" d="M826.121,-65.8479C901.004,-60.2992 1051.54,-46.9406 1177,-22 1179.76,-21.4514 1182.61,-20.8056 1185.45,-20.1065"/>
<polygon fill="midnightblue" stroke="midnightblue" points="825.787,-62.3628 816.068,-66.5794 826.295,-69.3444 825.787,-62.3628"/>
</g>
<!-- Node19 -->
<g id="node37" class="node"><title>Node19</title>
<a xlink:href="utils_8cpp.xhtml" target="_top" xlink:title="All non&#45;template member functions of the Utils namespace.">
<polygon fill="white" stroke="black" points="1264,-0.5 1264,-21.5 1320,-21.5 1320,-0.5 1264,-0.5"/>
<text text-anchor="middle" x="1292" y="-8.5" font-family="FreeSans.ttf" font-size="10.00">utils.cpp</text>
</a>
</g>
<!-- Node3&#45;&gt;Node19 -->
<g id="edge36" class="edge"><title>Node3&#45;&gt;Node19</title>
<path fill="none" stroke="midnightblue" d="M826.305,-67.3132C912.351,-63.586 1099.92,-52.4203 1255,-22 1257.89,-21.4324 1260.89,-20.735 1263.86,-19.9691"/>
<polygon fill="midnightblue" stroke="midnightblue" points="825.922,-63.8261 816.077,-67.7416 826.215,-70.82 825.922,-63.8261"/>
</g>
<!-- Node20 -->
<g id="node39" class="node"><title>Node20</title>
<a xlink:href="pincludes_8h.xhtml" target="_top" xlink:title="All non&#45;system includes that need to be within each .cpp plugin.">
<polygon fill="white" stroke="black" points="1338,-0.5 1338,-21.5 1418,-21.5 1418,-0.5 1338,-0.5"/>
<text text-anchor="middle" x="1378" y="-8.5" font-family="FreeSans.ttf" font-size="10.00">h/pincludes.h</text>
</a>
</g>
<!-- Node3&#45;&gt;Node20 -->
<g id="edge38" class="edge"><title>Node3&#45;&gt;Node20</title>
<path fill="none" stroke="midnightblue" d="M826.427,-67.1147C921.996,-62.839 1144.36,-50.4793 1329,-22 1331.93,-21.5481 1334.95,-21.0222 1337.97,-20.45"/>
<polygon fill="midnightblue" stroke="midnightblue" points="826.06,-63.6273 816.223,-67.5619 826.366,-70.6206 826.06,-63.6273"/>
</g>
</g>
</svg>
        <g id="navigator" transform="translate(0 0)" fill="#404254">
                <rect fill="#f2f5e9" fill-opacity="0.5" stroke="#606060" stroke-width=".5" x="0" y="0" width="60" height="60"/>
                <use id="zoomplus" xlink:href="#zoomPlus" x="17" y="9" onmousedown="handleZoom(evt,'in')"/>
                <use id="zoomminus" xlink:href="#zoomMin" x="42" y="9" onmousedown="handleZoom(evt,'out')"/>
                <use id="reset" xlink:href="#resetDef" x="30" y="36" onmousedown="handleReset()"/>
                <g id="arrowUp" xlink:href="#dirArrow" transform="translate(30 24)" onmousedown="handlePan(0,-1)">
                  <use xlink:href="#rim" fill="#404040">
                        <set attributeName="fill" to="#808080" begin="arrowUp.mouseover" end="arrowUp.mouseout"/>
                  </use>
                  <path fill="none" stroke="white" stroke-width="1.5" d="M0,-3.0v7 M-2.5,-0.5L0,-3.0L2.5,-0.5"/>
                </g>
                <g id="arrowRight" xlink:href="#dirArrow" transform="rotate(90) translate(36 -43)" onmousedown="handlePan(1,0)">
                  <use xlink:href="#rim" fill="#404040">
                        <set attributeName="fill" to="#808080" begin="arrowRight.mouseover" end="arrowRight.mouseout"/>
                  </use>
                  <path fill="none" stroke="white" stroke-width="1.5" d="M0,-3.0v7 M-2.5,-0.5L0,-3.0L2.5,-0.5"/>
                </g>
                <g id="arrowDown" xlink:href="#dirArrow" transform="rotate(180) translate(-30 -48)" onmousedown="handlePan(0,1)">
                  <use xlink:href="#rim" fill="#404040">
                        <set attributeName="fill" to="#808080" begin="arrowDown.mouseover" end="arrowDown.mouseout"/>
                  </use>
                  <path fill="none" stroke="white" stroke-width="1.5" d="M0,-3.0v7 M-2.5,-0.5L0,-3.0L2.5,-0.5"/>
                </g>
                <g id="arrowLeft" xlink:href="#dirArrow" transform="rotate(270) translate(-36 17)" onmousedown="handlePan(-1,0)">
                  <use xlink:href="#rim" fill="#404040">
                        <set attributeName="fill" to="#808080" begin="arrowLeft.mouseover" end="arrowLeft.mouseout"/>
                  </use>
                  <path fill="none" stroke="white" stroke-width="1.5" d="M0,-3.0v7 M-2.5,-0.5L0,-3.0L2.5,-0.5"/>
                </g>
        </g>
</svg>
