<?xml version="1.0" encoding="UTF-8" standalone="no"?>
<!DOCTYPE svg PUBLIC "-//W3C//DTD SVG 1.1//EN"
 "http://www.w3.org/Graphics/SVG/1.1/DTD/svg11.dtd">
<!-- Generated by graphviz version 2.26.3 (20100126.1600)
 -->
<!-- Title: h/thing.h Pages: 1 -->
<svg width="924pt" height="146pt"
 viewBox="0.00 0.00 924.00 146.00" xmlns="http://www.w3.org/2000/svg" xmlns:xlink="http://www.w3.org/1999/xlink">
<g id="graph1" class="graph" transform="scale(1 1) rotate(0) translate(4 142)">
<title>h/thing.h</title>
<polygon fill="white" stroke="white" points="-4,5 -4,-142 921,-142 921,5 -4,5"/>
<!-- Node1 -->
<g id="node1" class="node"><title>Node1</title>
<polygon fill="#bfbfbf" stroke="black" points="584.5,-117 584.5,-137 643.5,-137 643.5,-117 584.5,-117"/>
<text text-anchor="middle" x="614" y="-124" font-family="FreeSans.ttf" font-size="10.00">h/thing.h</text>
</g>
<!-- Node2 -->
<g id="node3" class="node"><title>Node2</title>
<a xlink:href="character_8h.xhtml" target="_top" xlink:title="The Character class.">
<polygon fill="white" stroke="black" points="356,-59 356,-79 436,-79 436,-59 356,-59"/>
<text text-anchor="middle" x="396" y="-66" font-family="FreeSans.ttf" font-size="10.00">h/character.h</text>
</a>
</g>
<!-- Node1&#45;&gt;Node2 -->
<g id="edge2" class="edge"><title>Node1&#45;&gt;Node2</title>
<path fill="none" stroke="midnightblue" d="M574.477,-116.485C534.536,-105.858 473.255,-89.5541 433.904,-79.0844"/>
<polygon fill="midnightblue" stroke="midnightblue" points="573.581,-119.868 584.145,-119.057 575.381,-113.103 573.581,-119.868"/>
</g>
<!-- Node10 -->
<g id="node19" class="node"><title>Node10</title>
<a xlink:href="location_8h.xhtml" target="_top" xlink:title="The Location class.">
<polygon fill="white" stroke="black" points="535,-59 535,-79 607,-79 607,-59 535,-59"/>
<text text-anchor="middle" x="571" y="-66" font-family="FreeSans.ttf" font-size="10.00">h/location.h</text>
</a>
</g>
<!-- Node1&#45;&gt;Node10 -->
<g id="edge18" class="edge"><title>Node1&#45;&gt;Node10</title>
<path fill="none" stroke="midnightblue" d="M600.422,-108.686C593.254,-99.0169 584.72,-87.5059 578.694,-79.3776"/>
<polygon fill="midnightblue" stroke="midnightblue" points="597.743,-110.949 606.51,-116.897 603.366,-106.78 597.743,-110.949"/>
</g>
<!-- Node12 -->
<g id="node26" class="node"><title>Node12</title>
<a xlink:href="thing_8cpp.xhtml" target="_top" xlink:title="All non&#45;template member functions of the Thing class.">
<polygon fill="white" stroke="black" points="771.5,-1 771.5,-21 832.5,-21 832.5,-1 771.5,-1"/>
<text text-anchor="middle" x="802" y="-8" font-family="FreeSans.ttf" font-size="10.00">thing.cpp</text>
</a>
</g>
<!-- Node1&#45;&gt;Node12 -->
<g id="edge38" class="edge"><title>Node1&#45;&gt;Node12</title>
<path fill="none" stroke="midnightblue" d="M642.024,-112.011C658.501,-103.028 679.637,-91.2068 698,-80 730.552,-60.1335 767.501,-34.9702 787.416,-21.1832"/>
<polygon fill="midnightblue" stroke="midnightblue" points="640.041,-109.105 632.917,-116.947 643.377,-115.259 640.041,-109.105"/>
</g>
<!-- Node13 -->
<g id="node28" class="node"><title>Node13</title>
<a xlink:href="object_8h.xhtml" target="_top" xlink:title="The Object class.">
<polygon fill="white" stroke="black" points="625,-59 625,-79 689,-79 689,-59 625,-59"/>
<text text-anchor="middle" x="657" y="-66" font-family="FreeSans.ttf" font-size="10.00">h/object.h</text>
</a>
</g>
<!-- Node1&#45;&gt;Node13 -->
<g id="edge30" class="edge"><title>Node1&#45;&gt;Node13</title>
<path fill="none" stroke="midnightblue" d="M627.578,-108.686C634.746,-99.0169 643.28,-87.5059 649.306,-79.3776"/>
<polygon fill="midnightblue" stroke="midnightblue" points="624.634,-106.78 621.49,-116.897 630.257,-110.949 624.634,-106.78"/>
</g>
<!-- Node3 -->
<g id="node5" class="node"><title>Node3</title>
<a xlink:href="account_8cpp.xhtml" target="_top" xlink:title="All non&#45;template member functions of the Account class.">
<polygon fill="white" stroke="black" points="209.5,-1 209.5,-21 284.5,-21 284.5,-1 209.5,-1"/>
<text text-anchor="middle" x="247" y="-8" font-family="FreeSans.ttf" font-size="10.00">account.cpp</text>
</a>
</g>
<!-- Node2&#45;&gt;Node3 -->
<g id="edge4" class="edge"><title>Node2&#45;&gt;Node3</title>
<path fill="none" stroke="midnightblue" d="M360.589,-55.2158C333.641,-44.7258 297.172,-30.5302 272.906,-21.0842"/>
<polygon fill="midnightblue" stroke="midnightblue" points="359.458,-58.5312 370.046,-58.8972 361.997,-52.008 359.458,-58.5312"/>
</g>
<!-- Node4 -->
<g id="node7" class="node"><title>Node4</title>
<a xlink:href="character_8cpp.xhtml" target="_top" xlink:title="All non&#45;template member functions of the Character class.">
<polygon fill="white" stroke="black" points="406,-1 406,-21 488,-21 488,-1 406,-1"/>
<text text-anchor="middle" x="447" y="-8" font-family="FreeSans.ttf" font-size="10.00">character.cpp</text>
</a>
</g>
<!-- Node2&#45;&gt;Node4 -->
<g id="edge6" class="edge"><title>Node2&#45;&gt;Node4</title>
<path fill="none" stroke="midnightblue" d="M411.586,-51.2752C420.191,-41.4882 430.582,-29.6718 437.875,-21.3776"/>
<polygon fill="midnightblue" stroke="midnightblue" points="408.859,-49.0763 404.884,-58.8972 414.115,-53.6986 408.859,-49.0763"/>
</g>
<!-- Node5 -->
<g id="node9" class="node"><title>Node5</title>
<a xlink:href="command_8cpp.xhtml" target="_top" xlink:title="All non&#45;template member functions of the Command class.">
<polygon fill="white" stroke="black" points="302,-1 302,-21 388,-21 388,-1 302,-1"/>
<text text-anchor="middle" x="345" y="-8" font-family="FreeSans.ttf" font-size="10.00">command.cpp</text>
</a>
</g>
<!-- Node2&#45;&gt;Node5 -->
<g id="edge8" class="edge"><title>Node2&#45;&gt;Node5</title>
<path fill="none" stroke="midnightblue" d="M380.414,-51.2752C371.809,-41.4882 361.418,-29.6718 354.125,-21.3776"/>
<polygon fill="midnightblue" stroke="midnightblue" points="377.885,-53.6986 387.116,-58.8972 383.141,-49.0763 377.885,-53.6986"/>
</g>
<!-- Node6 -->
<g id="node11" class="node"><title>Node6</title>
<a xlink:href="handler_8cpp.xhtml" target="_top" xlink:title="All non&#45;template member functions of the Handler namespace.">
<polygon fill="white" stroke="black" points="506,-1 506,-21 578,-21 578,-1 506,-1"/>
<text text-anchor="middle" x="542" y="-8" font-family="FreeSans.ttf" font-size="10.00">handler.cpp</text>
</a>
</g>
<!-- Node2&#45;&gt;Node6 -->
<g id="edge10" class="edge"><title>Node2&#45;&gt;Node6</title>
<path fill="none" stroke="midnightblue" d="M431.015,-55.0898C457.298,-44.6486 492.688,-30.5898 516.37,-21.1817"/>
<polygon fill="midnightblue" stroke="midnightblue" points="429.433,-51.9524 421.431,-58.8972 432.017,-58.4579 429.433,-51.9524"/>
</g>
<!-- Node7 -->
<g id="node13" class="node"><title>Node7</title>
<a xlink:href="server_8cpp.xhtml" target="_top" xlink:title="All non&#45;template member functions of the Server namespace.">
<polygon fill="white" stroke="black" points="596,-1 596,-21 662,-21 662,-1 596,-1"/>
<text text-anchor="middle" x="629" y="-8" font-family="FreeSans.ttf" font-size="10.00">server.cpp</text>
</a>
</g>
<!-- Node2&#45;&gt;Node7 -->
<g id="edge12" class="edge"><title>Node2&#45;&gt;Node7</title>
<path fill="none" stroke="midnightblue" d="M446.222,-56.8577C484.771,-47.4852 539.299,-34.1149 587,-22 589.922,-21.2578 592.957,-20.479 595.997,-19.6932"/>
<polygon fill="midnightblue" stroke="midnightblue" points="445.178,-53.5094 436.286,-59.2708 446.83,-60.3117 445.178,-53.5094"/>
</g>
<!-- Node8 -->
<g id="node15" class="node"><title>Node8</title>
<a xlink:href="socketclient_8cpp.xhtml" target="_top" xlink:title="All non&#45;template member functions of the SocketClient class.">
<polygon fill="white" stroke="black" points="0,-1 0,-21 94,-21 94,-1 0,-1"/>
<text text-anchor="middle" x="47" y="-8" font-family="FreeSans.ttf" font-size="10.00">socketclient.cpp</text>
</a>
</g>
<!-- Node2&#45;&gt;Node8 -->
<g id="edge14" class="edge"><title>Node2&#45;&gt;Node8</title>
<path fill="none" stroke="midnightblue" d="M345.563,-61.4567C287.108,-52.5875 187.925,-37.1475 103,-22 100.074,-21.4781 97.0643,-20.9274 94.0314,-20.3619"/>
<polygon fill="midnightblue" stroke="midnightblue" points="345.228,-64.9459 355.64,-62.9817 346.276,-58.0247 345.228,-64.9459"/>
</g>
<!-- Node9 -->
<g id="node17" class="node"><title>Node9</title>
<a xlink:href="pincludes_8h.xhtml" target="_top" xlink:title="All non&#45;system includes that need to be within each .cpp plugin.">
<polygon fill="white" stroke="black" points="112,-1 112,-21 192,-21 192,-1 112,-1"/>
<text text-anchor="middle" x="152" y="-8" font-family="FreeSans.ttf" font-size="10.00">h/pincludes.h</text>
</a>
</g>
<!-- Node2&#45;&gt;Node9 -->
<g id="edge16" class="edge"><title>Node2&#45;&gt;Node9</title>
<path fill="none" stroke="midnightblue" d="M346.031,-57.1222C300.514,-46.3025 234.156,-30.5289 192.04,-20.5178"/>
<polygon fill="midnightblue" stroke="midnightblue" points="345.443,-60.5799 355.982,-59.4874 347.062,-53.7696 345.443,-60.5799"/>
</g>
<!-- Node10&#45;&gt;Node4 -->
<g id="edge20" class="edge"><title>Node10&#45;&gt;Node4</title>
<path fill="none" stroke="midnightblue" d="M540.074,-54.5345C517.882,-44.1545 488.527,-30.424 468.768,-21.1817"/>
<polygon fill="midnightblue" stroke="midnightblue" points="538.86,-57.8306 549.401,-58.8972 541.826,-51.4899 538.86,-57.8306"/>
</g>
<!-- Node10&#45;&gt;Node6 -->
<g id="edge22" class="edge"><title>Node10&#45;&gt;Node6</title>
<path fill="none" stroke="midnightblue" d="M561.396,-49.7926C556.658,-40.3154 551.129,-29.2571 547.189,-21.3776"/>
<polygon fill="midnightblue" stroke="midnightblue" points="558.346,-51.5182 565.949,-58.8972 564.607,-48.3876 558.346,-51.5182"/>
</g>
<!-- Node10&#45;&gt;Node7 -->
<g id="edge26" class="edge"><title>Node10&#45;&gt;Node7</title>
<path fill="none" stroke="midnightblue" d="M588.432,-51.5682C598.275,-41.7249 610.245,-29.7548 618.622,-21.3776"/>
<polygon fill="midnightblue" stroke="midnightblue" points="585.699,-49.3512 581.103,-58.8972 590.649,-54.301 585.699,-49.3512"/>
</g>
<!-- Node11 -->
<g id="node23" class="node"><title>Node11</title>
<a xlink:href="location_8cpp.xhtml" target="_top" xlink:title="All non&#45;template member functions of the Location class.">
<polygon fill="white" stroke="black" points="680,-1 680,-21 754,-21 754,-1 680,-1"/>
<text text-anchor="middle" x="717" y="-8" font-family="FreeSans.ttf" font-size="10.00">location.cpp</text>
</a>
</g>
<!-- Node10&#45;&gt;Node11 -->
<g id="edge24" class="edge"><title>Node10&#45;&gt;Node11</title>
<path fill="none" stroke="midnightblue" d="M606.015,-55.0898C632.298,-44.6486 667.688,-30.5898 691.37,-21.1817"/>
<polygon fill="midnightblue" stroke="midnightblue" points="604.433,-51.9524 596.431,-58.8972 607.017,-58.4579 604.433,-51.9524"/>
</g>
<!-- Node10&#45;&gt;Node12 -->
<g id="edge28" class="edge"><title>Node10&#45;&gt;Node12</title>
<path fill="none" stroke="midnightblue" d="M617.118,-57.7316C672.772,-44.1302 759.407,-22.9461 763,-22 765.721,-21.2834 768.544,-20.5222 771.371,-19.7478"/>
<polygon fill="midnightblue" stroke="midnightblue" points="615.997,-54.4024 607.114,-60.1764 617.659,-61.2023 615.997,-54.4024"/>
</g>
<!-- Node13&#45;&gt;Node6 -->
<g id="edge32" class="edge"><title>Node13&#45;&gt;Node6</title>
<path fill="none" stroke="midnightblue" d="M627.763,-54.2544C607.25,-43.9086 580.349,-30.3411 562.188,-21.1817"/>
<polygon fill="midnightblue" stroke="midnightblue" points="626.464,-57.519 636.969,-58.8972 629.616,-51.2689 626.464,-57.519"/>
</g>
<!-- Node13&#45;&gt;Node7 -->
<g id="edge36" class="edge"><title>Node13&#45;&gt;Node7</title>
<path fill="none" stroke="midnightblue" d="M647.727,-49.7926C643.152,-40.3154 637.814,-29.2571 634.01,-21.3776"/>
<polygon fill="midnightblue" stroke="midnightblue" points="644.623,-51.4133 652.123,-58.8972 650.927,-48.37 644.623,-51.4133"/>
</g>
<!-- Node14 -->
<g id="node31" class="node"><title>Node14</title>
<a xlink:href="object_8cpp.xhtml" target="_top" xlink:title="All non&#45;template member functions of the Object class.">
<polygon fill="white" stroke="black" points="850,-1 850,-21 916,-21 916,-1 850,-1"/>
<text text-anchor="middle" x="883" y="-8" font-family="FreeSans.ttf" font-size="10.00">object.cpp</text>
</a>
</g>
<!-- Node13&#45;&gt;Node14 -->
<g id="edge34" class="edge"><title>Node13&#45;&gt;Node14</title>
<path fill="none" stroke="midnightblue" d="M699.265,-58.2814C736.572,-48.802 792.421,-34.5657 841,-22 843.919,-21.245 846.951,-20.4573 849.99,-19.6657"/>
<polygon fill="midnightblue" stroke="midnightblue" points="698.087,-54.9695 689.256,-60.8236 699.81,-61.7541 698.087,-54.9695"/>
</g>
</g>
</svg>
