<?xml version="1.0" encoding="UTF-8" standalone="no"?>
<!DOCTYPE svg PUBLIC "-//W3C//DTD SVG 1.1//EN"
 "http://www.w3.org/Graphics/SVG/1.1/DTD/svg11.dtd">
<!-- Generated by graphviz version 2.26.3 (20100126.1600)
 -->
<!-- Title: G Pages: 1 -->
<svg width="302pt" height="320pt"
 viewBox="0.00 0.00 302.00 320.00" xmlns="http://www.w3.org/2000/svg" xmlns:xlink="http://www.w3.org/1999/xlink">
<g id="graph1" class="graph" transform="scale(1 1) rotate(0) translate(4 316)">
<title>G</title>
<polygon fill="white" stroke="white" points="-4,5 -4,-316 299,-316 299,5 -4,5"/>
<!-- Node1 -->
<g id="node1" class="node"><title>Node1</title>
<polygon fill="#bfbfbf" stroke="black" points="78.5,-290.5 78.5,-311.5 137.5,-311.5 137.5,-290.5 78.5,-290.5"/>
<text text-anchor="middle" x="108" y="-298.5" font-family="FreeSans.ttf" font-size="10.00">h/thing.h</text>
</g>
<!-- Node2 -->
<g id="node3" class="node"><title>Node2</title>
<a xlink:href="server_8h.xhtml" target="_top" xlink:title="The Server class.">
<polygon fill="white" stroke="black" points="113.5,-232.5 113.5,-253.5 168.5,-253.5 168.5,-232.5 113.5,-232.5"/>
<text text-anchor="middle" x="141" y="-240.5" font-family="FreeSans.ttf" font-size="10.00">server.h</text>
</a>
</g>
<!-- Node1&#45;&gt;Node2 -->
<g id="edge2" class="edge"><title>Node1&#45;&gt;Node2</title>
<path fill="none" stroke="midnightblue" d="M114.053,-290.362C118.472,-282.595 124.59,-271.843 129.879,-262.546"/>
<polygon fill="midnightblue" stroke="midnightblue" points="133.082,-263.993 134.986,-253.571 126.998,-260.531 133.082,-263.993"/>
</g>
<!-- Node3 -->
<g id="node5" class="node"><title>Node3</title>
<polygon fill="white" stroke="#bfbfbf" points="88,-174.5 88,-195.5 134,-195.5 134,-174.5 88,-174.5"/>
<text text-anchor="middle" x="111" y="-182.5" font-family="FreeSans.ttf" font-size="10.00">fcntl.h</text>
</g>
<!-- Node2&#45;&gt;Node3 -->
<g id="edge4" class="edge"><title>Node2&#45;&gt;Node3</title>
<path fill="none" stroke="midnightblue" d="M135.498,-232.362C131.48,-224.595 125.919,-213.843 121.11,-204.546"/>
<polygon fill="midnightblue" stroke="midnightblue" points="124.171,-202.845 116.468,-195.571 117.953,-206.061 124.171,-202.845"/>
</g>
<!-- Node4 -->
<g id="node7" class="node"><title>Node4</title>
<a xlink:href="character_8h.xhtml" target="_top" xlink:title="The Character class.">
<polygon fill="white" stroke="black" points="-0.5,-174.5 -0.5,-195.5 70.5,-195.5 70.5,-174.5 -0.5,-174.5"/>
<text text-anchor="middle" x="35" y="-182.5" font-family="FreeSans.ttf" font-size="10.00">character.h</text>
</a>
</g>
<!-- Node2&#45;&gt;Node4 -->
<g id="edge6" class="edge"><title>Node2&#45;&gt;Node4</title>
<path fill="none" stroke="midnightblue" d="M121.558,-232.362C105.196,-223.409 81.5866,-210.491 63.1565,-200.406"/>
<polygon fill="midnightblue" stroke="midnightblue" points="64.7715,-197.3 54.3188,-195.571 61.4114,-203.441 64.7715,-197.3"/>
</g>
<!-- Node6 -->
<g id="node12" class="node"><title>Node6</title>
<a xlink:href="socketclient_8h.xhtml" target="_top" xlink:title="The SocketClient class.">
<polygon fill="white" stroke="black" points="129.5,-58.5 129.5,-79.5 212.5,-79.5 212.5,-58.5 129.5,-58.5"/>
<text text-anchor="middle" x="171" y="-66.5" font-family="FreeSans.ttf" font-size="10.00">socketclient.h</text>
</a>
</g>
<!-- Node2&#45;&gt;Node6 -->
<g id="edge26" class="edge"><title>Node2&#45;&gt;Node6</title>
<path fill="none" stroke="midnightblue" d="M139.382,-232.377C140.253,-204.172 153.186,-127.012 162.866,-89.7203"/>
<polygon fill="midnightblue" stroke="midnightblue" points="166.282,-90.502 165.623,-79.9277 159.544,-88.605 166.282,-90.502"/>
</g>
<!-- Node10 -->
<g id="node24" class="node"><title>Node10</title>
<a xlink:href="socketserver_8h.xhtml" target="_top" xlink:title="The SocketServer class.">
<polygon fill="white" stroke="black" points="208,-116.5 208,-137.5 294,-137.5 294,-116.5 208,-116.5"/>
<text text-anchor="middle" x="251" y="-124.5" font-family="FreeSans.ttf" font-size="10.00">socketserver.h</text>
</a>
</g>
<!-- Node2&#45;&gt;Node10 -->
<g id="edge28" class="edge"><title>Node2&#45;&gt;Node10</title>
<path fill="none" stroke="midnightblue" d="M154.145,-232.325C165.192,-223.126 181.186,-209.271 194,-196 209.552,-179.894 225.655,-160.058 236.762,-145.795"/>
<polygon fill="midnightblue" stroke="midnightblue" points="239.654,-147.775 242.982,-137.717 234.108,-143.504 239.654,-147.775"/>
</g>
<!-- Node4&#45;&gt;Node1 -->
<g id="edge24" class="edge"><title>Node4&#45;&gt;Node1</title>
<path fill="none" stroke="midnightblue" d="M41.7205,-195.679C54.0396,-215.255 80.3937,-257.132 95.9023,-281.776"/>
<polygon fill="midnightblue" stroke="midnightblue" points="92.9747,-283.696 101.263,-290.295 98.8992,-279.967 92.9747,-283.696"/>
</g>
<!-- Node5 -->
<g id="node9" class="node"><title>Node5</title>
<a xlink:href="account_8h.xhtml" target="_top" xlink:title="The Account class.">
<polygon fill="white" stroke="black" points="37,-116.5 37,-137.5 101,-137.5 101,-116.5 37,-116.5"/>
<text text-anchor="middle" x="69" y="-124.5" font-family="FreeSans.ttf" font-size="10.00">account.h</text>
</a>
</g>
<!-- Node4&#45;&gt;Node5 -->
<g id="edge8" class="edge"><title>Node4&#45;&gt;Node5</title>
<path fill="none" stroke="midnightblue" d="M35.872,-174.362C39.1176,-166.431 45.2534,-155.389 51.5083,-145.961"/>
<polygon fill="midnightblue" stroke="midnightblue" points="54.5271,-147.754 57.4513,-137.571 48.815,-143.708 54.5271,-147.754"/>
</g>
<!-- Node5&#45;&gt;Node4 -->
<g id="edge10" class="edge"><title>Node5&#45;&gt;Node4</title>
<path fill="none" stroke="midnightblue" d="M68.1555,-137.571C64.9264,-145.484 58.7991,-156.522 52.5449,-165.959"/>
<polygon fill="midnightblue" stroke="midnightblue" points="49.5185,-164.177 46.6002,-174.362 55.233,-168.22 49.5185,-164.177"/>
</g>
<!-- Node5&#45;&gt;Node6 -->
<g id="edge12" class="edge"><title>Node5&#45;&gt;Node6</title>
<path fill="none" stroke="midnightblue" d="M82.3443,-116.362C96.5688,-107.368 119.203,-94.3727 138.122,-84.2684"/>
<polygon fill="midnightblue" stroke="midnightblue" points="139.835,-87.3219 147.058,-79.5707 136.578,-81.1259 139.835,-87.3219"/>
</g>
<!-- Node6&#45;&gt;Node2 -->
<g id="edge22" class="edge"><title>Node6&#45;&gt;Node2</title>
<path fill="none" stroke="midnightblue" d="M172.609,-79.9277C171.651,-108.483 158.687,-185.674 149.03,-222.679"/>
<polygon fill="midnightblue" stroke="midnightblue" points="145.641,-221.802 146.281,-232.377 152.375,-223.711 145.641,-221.802"/>
</g>
<!-- Node6&#45;&gt;Node5 -->
<g id="edge18" class="edge"><title>Node6&#45;&gt;Node5</title>
<path fill="none" stroke="midnightblue" d="M157.682,-79.6212C143.43,-88.6338 120.716,-101.675 101.761,-111.794"/>
<polygon fill="midnightblue" stroke="midnightblue" points="100.036,-108.747 92.8115,-116.497 103.292,-114.943 100.036,-108.747"/>
</g>
<!-- Node7 -->
<g id="node14" class="node"><title>Node7</title>
<polygon fill="white" stroke="#bfbfbf" points="81.5,-0.5 81.5,-21.5 128.5,-21.5 128.5,-0.5 81.5,-0.5"/>
<text text-anchor="middle" x="105" y="-8.5" font-family="FreeSans.ttf" font-size="10.00">deque</text>
</g>
<!-- Node6&#45;&gt;Node7 -->
<g id="edge14" class="edge"><title>Node6&#45;&gt;Node7</title>
<path fill="none" stroke="midnightblue" d="M158.895,-58.3619C149.312,-49.9408 135.736,-38.0105 124.607,-28.2308"/>
<polygon fill="midnightblue" stroke="midnightblue" points="126.851,-25.5427 117.029,-21.5707 122.23,-30.8009 126.851,-25.5427"/>
</g>
<!-- Node8 -->
<g id="node16" class="node"><title>Node8</title>
<polygon fill="white" stroke="#bfbfbf" points="145.5,-0.5 145.5,-21.5 198.5,-21.5 198.5,-0.5 145.5,-0.5"/>
<text text-anchor="middle" x="172" y="-8.5" font-family="FreeSans.ttf" font-size="10.00">netdb.h</text>
</g>
<!-- Node6&#45;&gt;Node8 -->
<g id="edge16" class="edge"><title>Node6&#45;&gt;Node8</title>
<path fill="none" stroke="midnightblue" d="M171.183,-58.3619C171.312,-50.9219 171.487,-40.7427 171.643,-31.7276"/>
<polygon fill="midnightblue" stroke="midnightblue" points="175.145,-31.6295 171.818,-21.5707 168.146,-31.5088 175.145,-31.6295"/>
</g>
<!-- Node9 -->
<g id="node19" class="node"><title>Node9</title>
<a xlink:href="socket_8h.xhtml" target="_top" xlink:title="The Socket class.">
<polygon fill="white" stroke="black" points="216.5,-0.5 216.5,-21.5 273.5,-21.5 273.5,-0.5 216.5,-0.5"/>
<text text-anchor="middle" x="245" y="-8.5" font-family="FreeSans.ttf" font-size="10.00">socket.h</text>
</a>
</g>
<!-- Node6&#45;&gt;Node9 -->
<g id="edge20" class="edge"><title>Node6&#45;&gt;Node9</title>
<path fill="none" stroke="midnightblue" d="M184.573,-58.3619C195.421,-49.859 210.834,-37.7785 223.379,-27.9466"/>
<polygon fill="midnightblue" stroke="midnightblue" points="225.802,-30.4942 231.513,-21.5707 221.484,-24.9848 225.802,-30.4942"/>
</g>
<!-- Node10&#45;&gt;Node9 -->
<g id="edge30" class="edge"><title>Node10&#45;&gt;Node9</title>
<path fill="none" stroke="midnightblue" d="M250.446,-116.295C249.455,-97.1314 247.361,-56.654 246.078,-31.8434"/>
<polygon fill="midnightblue" stroke="midnightblue" points="249.564,-31.485 245.552,-21.6792 242.574,-31.8467 249.564,-31.485"/>
</g>
</g>
</svg>
