<?xml version="1.0" encoding="UTF-8" standalone="no"?>
<!DOCTYPE svg PUBLIC "-//W3C//DTD SVG 1.1//EN"
 "http://www.w3.org/Graphics/SVG/1.1/DTD/svg11.dtd">
<!-- Generated by graphviz version 2.26.3 (20100126.1600)
 -->
<!-- Title: G Pages: 1 -->
<!--zoomable 610 -->
<svg id="main" version="1.1" xmlns="http://www.w3.org/2000/svg" xmlns:xlink="http://www.w3.org/1999/xlink" xml:space="preserve" onload="init(evt)">
        <defs>
                <circle id="rim" cx="0" cy="0" r="7"/>
                <circle id="rim2" cx="0" cy="0" r="3.5"/>
                <g id="zoomPlus">
                        <use xlink:href="#rim" fill="#404040">
                                <set attributeName="fill" to="#808080" begin="zoomplus.mouseover" end="zoomplus.mouseout"/>
                        </use>
                        <path d="M-4,0h8M0,-4v8" fill="none" stroke="white" stroke-width="1.5" pointer-events="none"/>
                </g>
                <g id="zoomMin">
                        <use xlink:href="#rim" fill="#404040">
                                <set attributeName="fill" to="#808080" begin="zoomminus.mouseover" end="zoomminus.mouseout"/>
                        </use>
                        <path d="M-4,0h8" fill="none" stroke="white" stroke-width="1.5" pointer-events="none"/>
                </g>
                <g id="dirArrow">
                        <path fill="none" stroke="white" stroke-width="1.5" d="M0,-3.0v7 M-2.5,-0.5L0,-3.0L2.5,-0.5"/>
                </g>
               <g id="resetDef">
                       <use xlink:href="#rim2" fill="#404040">
                               <set attributeName="fill" to="#808080" begin="reset.mouseover" end="reset.mouseout"/>
                       </use>
               </g>
        </defs>

<script type="text/javascript">
var viewWidth = 1316;
var viewHeight = 610;
var sectionId = 'dynsection-0';
</script>
<script xlink:href="svgpan.js"/>
<svg id="graph" class="graph">
<g id="viewport">
<title>G</title>
<polygon fill="white" stroke="white" points="-4,5 -4,-606 1313,-606 1313,5 -4,5"/>
<!-- Node1 -->
<g id="node1" class="node"><title>Node1</title>
<polygon fill="#bfbfbf" stroke="black" points="1239.5,-580.5 1239.5,-601.5 1300.5,-601.5 1300.5,-580.5 1239.5,-580.5"/>
<text text-anchor="middle" x="1270" y="-588.5" font-family="FreeSans.ttf" font-size="10.00">thing.cpp</text>
</g>
<!-- Node2 -->
<g id="node3" class="node"><title>Node2</title>
<a xlink:href="includes_8h.xhtml" target="_top" xlink:title="All non&#45;system includes that need to be within each .cpp file.">
<polygon fill="white" stroke="black" points="583,-522.5 583,-543.5 657,-543.5 657,-522.5 583,-522.5"/>
<text text-anchor="middle" x="620" y="-530.5" font-family="FreeSans.ttf" font-size="10.00">h/includes.h</text>
</a>
</g>
<!-- Node1&#45;&gt;Node2 -->
<g id="edge2" class="edge"><title>Node1&#45;&gt;Node2</title>
<path fill="none" stroke="midnightblue" d="M1239.09,-588.242C1134.42,-578.902 792.949,-548.432 667.115,-537.204"/>
<polygon fill="midnightblue" stroke="midnightblue" points="667.296,-533.706 657.024,-536.304 666.674,-540.679 667.296,-533.706"/>
</g>
<!-- Node20 -->
<g id="node39" class="node"><title>Node20</title>
<a xlink:href="class_8h.xhtml" target="_top" xlink:title="All class declarations.">
<polygon fill="white" stroke="black" points="1031,-348.5 1031,-369.5 1081,-369.5 1081,-348.5 1031,-348.5"/>
<text text-anchor="middle" x="1056" y="-356.5" font-family="FreeSans.ttf" font-size="10.00">class.h</text>
</a>
</g>
<!-- Node1&#45;&gt;Node20 -->
<g id="edge96" class="edge"><title>Node1&#45;&gt;Node20</title>
<path fill="none" stroke="midnightblue" d="M1272.7,-580.172C1279.82,-548.835 1295.62,-457.05 1251,-406 1230.3,-382.317 1141.71,-368.654 1091.36,-362.663"/>
<polygon fill="midnightblue" stroke="midnightblue" points="1091.56,-359.164 1081.23,-361.5 1090.76,-366.118 1091.56,-359.164"/>
</g>
<!-- Node28 -->
<g id="node56" class="node"><title>Node28</title>
<a xlink:href="thing_8h.xhtml" target="_top" xlink:title="The Thing class.">
<polygon fill="white" stroke="black" points="245,-174.5 245,-195.5 295,-195.5 295,-174.5 245,-174.5"/>
<text text-anchor="middle" x="270" y="-182.5" font-family="FreeSans.ttf" font-size="10.00">thing.h</text>
</a>
</g>
<!-- Node1&#45;&gt;Node28 -->
<g id="edge98" class="edge"><title>Node1&#45;&gt;Node28</title>
<path fill="none" stroke="midnightblue" d="M1276.06,-580.49C1281.21,-571.166 1288.47,-557.043 1293,-544 1303.31,-514.357 1308,-506.383 1308,-475 1308,-475 1308,-475 1308,-301 1308,-249.386 486.71,-197.812 305.217,-187.045"/>
<polygon fill="midnightblue" stroke="midnightblue" points="305.333,-183.546 295.144,-186.451 304.921,-190.534 305.333,-183.546"/>
</g>
<!-- Node3 -->
<g id="node5" class="node"><title>Node3</title>
<a xlink:href="sysincludes_8h.xhtml" target="_top" xlink:title="All system standard includes that are used within NAMS.">
<polygon fill="white" stroke="black" points="824,-464.5 824,-485.5 904,-485.5 904,-464.5 824,-464.5"/>
<text text-anchor="middle" x="864" y="-472.5" font-family="FreeSans.ttf" font-size="10.00">sysincludes.h</text>
</a>
</g>
<!-- Node2&#45;&gt;Node3 -->
<g id="edge4" class="edge"><title>Node2&#45;&gt;Node3</title>
<path fill="none" stroke="midnightblue" d="M657.058,-524.191C698.915,-514.242 767.253,-497.997 813.856,-486.919"/>
<polygon fill="midnightblue" stroke="midnightblue" points="814.825,-490.287 823.745,-484.569 813.206,-483.476 814.825,-490.287"/>
</g>
<!-- Node13 -->
<g id="node25" class="node"><title>Node13</title>
<a xlink:href="limits_8h.xhtml" target="_top" xlink:title="Custom defined numeric types and system limits.">
<polygon fill="white" stroke="black" points="1075.5,-464.5 1075.5,-485.5 1126.5,-485.5 1126.5,-464.5 1075.5,-464.5"/>
<text text-anchor="middle" x="1101" y="-472.5" font-family="FreeSans.ttf" font-size="10.00">limits.h</text>
</a>
</g>
<!-- Node2&#45;&gt;Node13 -->
<g id="edge24" class="edge"><title>Node2&#45;&gt;Node13</title>
<path fill="none" stroke="midnightblue" d="M657.343,-528.497C747.594,-517.614 976.639,-489.996 1065.24,-479.312"/>
<polygon fill="midnightblue" stroke="midnightblue" points="1065.82,-482.767 1075.33,-478.095 1064.98,-475.818 1065.82,-482.767"/>
</g>
<!-- Node15 -->
<g id="node29" class="node"><title>Node15</title>
<a xlink:href="macros_8h.xhtml" target="_top" xlink:title="All pre&#45;processor macros within NAMS and select reference values.">
<polygon fill="white" stroke="black" points="357,-464.5 357,-485.5 419,-485.5 419,-464.5 357,-464.5"/>
<text text-anchor="middle" x="388" y="-472.5" font-family="FreeSans.ttf" font-size="10.00">macros.h</text>
</a>
</g>
<!-- Node2&#45;&gt;Node15 -->
<g id="edge28" class="edge"><title>Node2&#45;&gt;Node15</title>
<path fill="none" stroke="midnightblue" d="M582.755,-524.213C546.058,-515.482 488.154,-501.51 429.262,-486.285"/>
<polygon fill="midnightblue" stroke="midnightblue" points="429.979,-482.855 419.42,-483.731 428.221,-489.631 429.979,-482.855"/>
</g>
<!-- Node16 -->
<g id="node31" class="node"><title>Node16</title>
<a xlink:href="enum_8h.xhtml" target="_top" xlink:title="All numerical and boolean defines for every class and namespace.">
<polygon fill="white" stroke="black" points="436.5,-464.5 436.5,-485.5 489.5,-485.5 489.5,-464.5 436.5,-464.5"/>
<text text-anchor="middle" x="463" y="-472.5" font-family="FreeSans.ttf" font-size="10.00">enum.h</text>
</a>
</g>
<!-- Node2&#45;&gt;Node16 -->
<g id="edge30" class="edge"><title>Node2&#45;&gt;Node16</title>
<path fill="none" stroke="midnightblue" d="M591.568,-522.497C565.642,-512.919 527.208,-498.72 499.117,-488.343"/>
<polygon fill="midnightblue" stroke="midnightblue" points="500.243,-485.027 489.65,-484.845 497.817,-491.594 500.243,-485.027"/>
</g>
<!-- Node17 -->
<g id="node33" class="node"><title>Node17</title>
<a xlink:href="config_8h.xhtml" target="_top" xlink:title="NAMS configuration options.">
<polygon fill="white" stroke="black" points="507,-464.5 507,-485.5 561,-485.5 561,-464.5 507,-464.5"/>
<text text-anchor="middle" x="534" y="-472.5" font-family="FreeSans.ttf" font-size="10.00">config.h</text>
</a>
</g>
<!-- Node2&#45;&gt;Node17 -->
<g id="edge32" class="edge"><title>Node2&#45;&gt;Node17</title>
<path fill="none" stroke="midnightblue" d="M604.226,-522.362C591.376,-513.696 573.015,-501.313 558.29,-491.382"/>
<polygon fill="midnightblue" stroke="midnightblue" points="559.921,-488.26 549.674,-485.571 556.007,-494.064 559.921,-488.26"/>
</g>
<!-- Node18 -->
<g id="node35" class="node"><title>Node18</title>
<a xlink:href="namespace_8h.xhtml" target="_top" xlink:title="All namespace includes.">
<polygon fill="white" stroke="black" points="579,-464.5 579,-485.5 661,-485.5 661,-464.5 579,-464.5"/>
<text text-anchor="middle" x="620" y="-472.5" font-family="FreeSans.ttf" font-size="10.00">namespace.h</text>
</a>
</g>
<!-- Node2&#45;&gt;Node18 -->
<g id="edge34" class="edge"><title>Node2&#45;&gt;Node18</title>
<path fill="none" stroke="midnightblue" d="M620,-522.362C620,-514.922 620,-504.743 620,-495.728"/>
<polygon fill="midnightblue" stroke="midnightblue" points="623.5,-495.571 620,-485.571 616.5,-495.571 623.5,-495.571"/>
</g>
<!-- Node4 -->
<g id="node7" class="node"><title>Node4</title>
<polygon fill="white" stroke="#bfbfbf" points="796,-406.5 796,-427.5 858,-427.5 858,-406.5 796,-406.5"/>
<text text-anchor="middle" x="827" y="-414.5" font-family="FreeSans.ttf" font-size="10.00">algorithm</text>
</g>
<!-- Node3&#45;&gt;Node4 -->
<g id="edge6" class="edge"><title>Node3&#45;&gt;Node4</title>
<path fill="none" stroke="midnightblue" d="M857.214,-464.362C852.207,-456.513 845.255,-445.616 839.282,-436.253"/>
<polygon fill="midnightblue" stroke="midnightblue" points="842.072,-434.119 833.743,-427.571 836.171,-437.884 842.072,-434.119"/>
</g>
<!-- Node5 -->
<g id="node9" class="node"><title>Node5</title>
<polygon fill="white" stroke="#bfbfbf" points="876,-406.5 876,-427.5 926,-427.5 926,-406.5 876,-406.5"/>
<text text-anchor="middle" x="901" y="-414.5" font-family="FreeSans.ttf" font-size="10.00">chrono</text>
</g>
<!-- Node3&#45;&gt;Node5 -->
<g id="edge8" class="edge"><title>Node3&#45;&gt;Node5</title>
<path fill="none" stroke="midnightblue" d="M870.786,-464.362C875.793,-456.513 882.745,-445.616 888.718,-436.253"/>
<polygon fill="midnightblue" stroke="midnightblue" points="891.829,-437.884 894.257,-427.571 885.928,-434.119 891.829,-437.884"/>
</g>
<!-- Node6 -->
<g id="node11" class="node"><title>Node6</title>
<polygon fill="white" stroke="#bfbfbf" points="943.5,-406.5 943.5,-427.5 1014.5,-427.5 1014.5,-406.5 943.5,-406.5"/>
<text text-anchor="middle" x="979" y="-414.5" font-family="FreeSans.ttf" font-size="10.00">forward_list</text>
</g>
<!-- Node3&#45;&gt;Node6 -->
<g id="edge10" class="edge"><title>Node3&#45;&gt;Node6</title>
<path fill="none" stroke="midnightblue" d="M884.826,-464.497C902.706,-455.479 928.707,-442.365 948.861,-432.201"/>
<polygon fill="midnightblue" stroke="midnightblue" points="950.588,-435.249 957.941,-427.621 947.436,-428.999 950.588,-435.249"/>
</g>
<!-- Node7 -->
<g id="node13" class="node"><title>Node7</title>
<polygon fill="white" stroke="#bfbfbf" points="1032,-406.5 1032,-427.5 1062,-427.5 1062,-406.5 1032,-406.5"/>
<text text-anchor="middle" x="1047" y="-414.5" font-family="FreeSans.ttf" font-size="10.00">list</text>
</g>
<!-- Node3&#45;&gt;Node7 -->
<g id="edge12" class="edge"><title>Node3&#45;&gt;Node7</title>
<path fill="none" stroke="midnightblue" d="M904.049,-464.858C934.423,-456.789 977.279,-444.6 1022.52,-427.843"/>
<polygon fill="midnightblue" stroke="midnightblue" points="1023.77,-431.111 1031.9,-424.314 1021.31,-424.559 1023.77,-431.111"/>
</g>
<!-- Node8 -->
<g id="node15" class="node"><title>Node8</title>
<polygon fill="white" stroke="#bfbfbf" points="1080,-406.5 1080,-427.5 1118,-427.5 1118,-406.5 1080,-406.5"/>
<text text-anchor="middle" x="1099" y="-414.5" font-family="FreeSans.ttf" font-size="10.00">map</text>
</g>
<!-- Node3&#45;&gt;Node8 -->
<g id="edge14" class="edge"><title>Node3&#45;&gt;Node8</title>
<path fill="none" stroke="midnightblue" d="M904.154,-467.752C944.153,-460.119 1007.39,-446.942 1070.19,-427.935"/>
<polygon fill="midnightblue" stroke="midnightblue" points="1071.33,-431.247 1079.86,-424.962 1069.27,-424.557 1071.33,-431.247"/>
</g>
<!-- Node9 -->
<g id="node17" class="node"><title>Node9</title>
<polygon fill="white" stroke="#bfbfbf" points="1135.5,-406.5 1135.5,-427.5 1182.5,-427.5 1182.5,-406.5 1135.5,-406.5"/>
<text text-anchor="middle" x="1159" y="-414.5" font-family="FreeSans.ttf" font-size="10.00">vector</text>
</g>
<!-- Node3&#45;&gt;Node9 -->
<g id="edge16" class="edge"><title>Node3&#45;&gt;Node9</title>
<path fill="none" stroke="midnightblue" d="M904.068,-469.802C954.016,-462.894 1042.07,-449.305 1125.48,-428.132"/>
<polygon fill="midnightblue" stroke="midnightblue" points="1126.55,-431.47 1135.36,-425.582 1124.8,-424.692 1126.55,-431.47"/>
</g>
<!-- Node10 -->
<g id="node19" class="node"><title>Node10</title>
<polygon fill="white" stroke="#bfbfbf" points="560,-406.5 560,-427.5 628,-427.5 628,-406.5 560,-406.5"/>
<text text-anchor="middle" x="594" y="-414.5" font-family="FreeSans.ttf" font-size="10.00">arpa/inet.h</text>
</g>
<!-- Node3&#45;&gt;Node10 -->
<g id="edge18" class="edge"><title>Node3&#45;&gt;Node10</title>
<path fill="none" stroke="midnightblue" d="M823.692,-467.24C780.256,-458.747 708.867,-444.416 638.197,-428.208"/>
<polygon fill="midnightblue" stroke="midnightblue" points="638.764,-424.747 628.233,-425.909 637.19,-431.568 638.764,-424.747"/>
</g>
<!-- Node11 -->
<g id="node21" class="node"><title>Node11</title>
<polygon fill="white" stroke="#bfbfbf" points="645.5,-406.5 645.5,-427.5 696.5,-427.5 696.5,-406.5 645.5,-406.5"/>
<text text-anchor="middle" x="671" y="-414.5" font-family="FreeSans.ttf" font-size="10.00">errno.h</text>
</g>
<!-- Node3&#45;&gt;Node11 -->
<g id="edge20" class="edge"><title>Node3&#45;&gt;Node11</title>
<path fill="none" stroke="midnightblue" d="M827.292,-464.437C797.094,-455.683 752.946,-442.74 706.276,-428.352"/>
<polygon fill="midnightblue" stroke="midnightblue" points="707.185,-424.97 696.598,-425.359 705.117,-431.657 707.185,-424.97"/>
</g>
<!-- Node12 -->
<g id="node23" class="node"><title>Node12</title>
<polygon fill="white" stroke="#bfbfbf" points="713.5,-406.5 713.5,-427.5 778.5,-427.5 778.5,-406.5 713.5,-406.5"/>
<text text-anchor="middle" x="746" y="-414.5" font-family="FreeSans.ttf" font-size="10.00">memory.h</text>
</g>
<!-- Node3&#45;&gt;Node12 -->
<g id="edge22" class="edge"><title>Node3&#45;&gt;Node12</title>
<path fill="none" stroke="midnightblue" d="M842.631,-464.497C824.201,-455.438 797.363,-442.246 776.645,-432.063"/>
<polygon fill="midnightblue" stroke="midnightblue" points="778.127,-428.891 767.609,-427.621 775.039,-435.174 778.127,-428.891"/>
</g>
<!-- Node14 -->
<g id="node27" class="node"><title>Node14</title>
<polygon fill="white" stroke="#bfbfbf" points="1200,-406.5 1200,-427.5 1242,-427.5 1242,-406.5 1200,-406.5"/>
<text text-anchor="middle" x="1221" y="-414.5" font-family="FreeSans.ttf" font-size="10.00">limits</text>
</g>
<!-- Node13&#45;&gt;Node14 -->
<g id="edge26" class="edge"><title>Node13&#45;&gt;Node14</title>
<path fill="none" stroke="midnightblue" d="M1122.73,-464.497C1141.71,-455.325 1169.45,-441.916 1190.62,-431.682"/>
<polygon fill="midnightblue" stroke="midnightblue" points="1192.35,-434.733 1199.83,-427.231 1189.31,-428.431 1192.35,-434.733"/>
</g>
<!-- Node19 -->
<g id="node37" class="node"><title>Node19</title>
<a xlink:href="handler_8h.xhtml" target="_top" xlink:title="The Handler namespace.">
<polygon fill="white" stroke="black" points="481.5,-406.5 481.5,-427.5 542.5,-427.5 542.5,-406.5 481.5,-406.5"/>
<text text-anchor="middle" x="512" y="-414.5" font-family="FreeSans.ttf" font-size="10.00">handler.h</text>
</a>
</g>
<!-- Node18&#45;&gt;Node19 -->
<g id="edge36" class="edge"><title>Node18&#45;&gt;Node19</title>
<path fill="none" stroke="midnightblue" d="M600.442,-464.497C583.802,-455.56 559.673,-442.602 540.82,-432.477"/>
<polygon fill="midnightblue" stroke="midnightblue" points="542.243,-429.269 531.777,-427.621 538.931,-435.436 542.243,-429.269"/>
</g>
<!-- Node21 -->
<g id="node41" class="node"><title>Node21</title>
<a xlink:href="telopt_8h.xhtml" target="_top" xlink:title="The telopt namespace.">
<polygon fill="white" stroke="black" points="110.5,-406.5 110.5,-427.5 163.5,-427.5 163.5,-406.5 110.5,-406.5"/>
<text text-anchor="middle" x="137" y="-414.5" font-family="FreeSans.ttf" font-size="10.00">telopt.h</text>
</a>
</g>
<!-- Node18&#45;&gt;Node21 -->
<g id="edge40" class="edge"><title>Node18&#45;&gt;Node21</title>
<path fill="none" stroke="midnightblue" d="M578.867,-465.58C575.874,-465.009 572.895,-464.474 570,-464 424.553,-440.179 249.576,-425.386 174.352,-419.682"/>
<polygon fill="midnightblue" stroke="midnightblue" points="174.226,-416.163 163.993,-418.907 173.704,-423.144 174.226,-416.163"/>
</g>
<!-- Node33 -->
<g id="node71" class="node"><title>Node33</title>
<a xlink:href="utils_8h.xhtml" target="_top" xlink:title="The Utils namespace.">
<polygon fill="white" stroke="black" points="419.5,-406.5 419.5,-427.5 464.5,-427.5 464.5,-406.5 419.5,-406.5"/>
<text text-anchor="middle" x="442" y="-414.5" font-family="FreeSans.ttf" font-size="10.00">utils.h</text>
</a>
</g>
<!-- Node18&#45;&gt;Node33 -->
<g id="edge76" class="edge"><title>Node18&#45;&gt;Node33</title>
<path fill="none" stroke="midnightblue" d="M586.037,-464.475C558.22,-455.78 517.618,-442.922 474.246,-428.364"/>
<polygon fill="midnightblue" stroke="midnightblue" points="475.252,-425.01 464.658,-425.133 473.017,-431.643 475.252,-425.01"/>
</g>
<!-- Node19&#45;&gt;Node20 -->
<g id="edge38" class="edge"><title>Node19&#45;&gt;Node20</title>
<path fill="none" stroke="midnightblue" d="M542.532,-407.82C545.379,-407.137 548.233,-406.514 551,-406 725.367,-373.575 937.973,-363.079 1020.7,-360.077"/>
<polygon fill="midnightblue" stroke="midnightblue" points="1020.95,-363.57 1030.82,-359.724 1020.7,-356.575 1020.95,-363.57"/>
</g>
<!-- Node22 -->
<g id="node43" class="node"><title>Node22</title>
<polygon fill="white" stroke="#bfbfbf" points="0,-348.5 0,-369.5 78,-369.5 78,-348.5 0,-348.5"/>
<text text-anchor="middle" x="39" y="-356.5" font-family="FreeSans.ttf" font-size="10.00">arpa/telnet.h</text>
</g>
<!-- Node21&#45;&gt;Node22 -->
<g id="edge42" class="edge"><title>Node21&#45;&gt;Node22</title>
<path fill="none" stroke="midnightblue" d="M119.025,-406.362C104.106,-397.532 82.6674,-384.844 65.7344,-374.822"/>
<polygon fill="midnightblue" stroke="midnightblue" points="67.2492,-371.652 56.8608,-369.571 63.6839,-377.676 67.2492,-371.652"/>
</g>
<!-- Node23 -->
<g id="node45" class="node"><title>Node23</title>
<a xlink:href="socketclient_8h.xhtml" target="_top" xlink:title="The SocketClient class.">
<polygon fill="white" stroke="black" points="95.5,-348.5 95.5,-369.5 178.5,-369.5 178.5,-348.5 95.5,-348.5"/>
<text text-anchor="middle" x="137" y="-356.5" font-family="FreeSans.ttf" font-size="10.00">socketclient.h</text>
</a>
</g>
<!-- Node21&#45;&gt;Node23 -->
<g id="edge44" class="edge"><title>Node21&#45;&gt;Node23</title>
<path fill="none" stroke="midnightblue" d="M137,-406.362C137,-398.922 137,-388.743 137,-379.728"/>
<polygon fill="midnightblue" stroke="midnightblue" points="140.5,-379.571 137,-369.571 133.5,-379.571 140.5,-379.571"/>
</g>
<!-- Node24 -->
<g id="node47" class="node"><title>Node24</title>
<polygon fill="white" stroke="#bfbfbf" points="173.5,-290.5 173.5,-311.5 220.5,-311.5 220.5,-290.5 173.5,-290.5"/>
<text text-anchor="middle" x="197" y="-298.5" font-family="FreeSans.ttf" font-size="10.00">deque</text>
</g>
<!-- Node23&#45;&gt;Node24 -->
<g id="edge46" class="edge"><title>Node23&#45;&gt;Node24</title>
<path fill="none" stroke="midnightblue" d="M148.005,-348.362C156.547,-340.104 168.58,-328.472 178.583,-318.803"/>
<polygon fill="midnightblue" stroke="midnightblue" points="181.308,-321.037 186.065,-311.571 176.442,-316.004 181.308,-321.037"/>
</g>
<!-- Node25 -->
<g id="node49" class="node"><title>Node25</title>
<polygon fill="white" stroke="#bfbfbf" points="9.5,-290.5 9.5,-311.5 62.5,-311.5 62.5,-290.5 9.5,-290.5"/>
<text text-anchor="middle" x="36" y="-298.5" font-family="FreeSans.ttf" font-size="10.00">netdb.h</text>
</g>
<!-- Node23&#45;&gt;Node25 -->
<g id="edge48" class="edge"><title>Node23&#45;&gt;Node25</title>
<path fill="none" stroke="midnightblue" d="M118.475,-348.362C103.099,-339.532 81.0041,-326.844 63.5528,-316.822"/>
<polygon fill="midnightblue" stroke="midnightblue" points="64.8223,-313.515 54.4075,-311.571 61.3364,-319.586 64.8223,-313.515"/>
</g>
<!-- Node26 -->
<g id="node51" class="node"><title>Node26</title>
<a xlink:href="account_8h.xhtml" target="_top" xlink:title="The Account class.">
<polygon fill="white" stroke="black" points="238,-290.5 238,-311.5 302,-311.5 302,-290.5 238,-290.5"/>
<text text-anchor="middle" x="270" y="-298.5" font-family="FreeSans.ttf" font-size="10.00">account.h</text>
</a>
</g>
<!-- Node23&#45;&gt;Node26 -->
<g id="edge50" class="edge"><title>Node23&#45;&gt;Node26</title>
<path fill="none" stroke="midnightblue" d="M155.745,-348.497C175.239,-339.275 206.008,-325.769 230.777,-315.515"/>
<polygon fill="midnightblue" stroke="midnightblue" points="232.356,-318.651 240.283,-311.621 229.703,-312.173 232.356,-318.651"/>
</g>
<!-- Node29 -->
<g id="node58" class="node"><title>Node29</title>
<a xlink:href="server_8h.xhtml" target="_top" xlink:title="The Server class.">
<polygon fill="white" stroke="black" points="145.5,-116.5 145.5,-137.5 200.5,-137.5 200.5,-116.5 145.5,-116.5"/>
<text text-anchor="middle" x="173" y="-124.5" font-family="FreeSans.ttf" font-size="10.00">server.h</text>
</a>
</g>
<!-- Node23&#45;&gt;Node29 -->
<g id="edge74" class="edge"><title>Node23&#45;&gt;Node29</title>
<path fill="none" stroke="midnightblue" d="M135.609,-348.429C136.576,-312.573 154.459,-195.169 165.792,-147.446"/>
<polygon fill="midnightblue" stroke="midnightblue" points="169.215,-148.19 168.31,-137.634 162.434,-146.45 169.215,-148.19"/>
</g>
<!-- Node32 -->
<g id="node66" class="node"><title>Node32</title>
<a xlink:href="socket_8h.xhtml" target="_top" xlink:title="The Socket class.">
<polygon fill="white" stroke="black" points="128.5,-0.5 128.5,-21.5 185.5,-21.5 185.5,-0.5 128.5,-0.5"/>
<text text-anchor="middle" x="157" y="-8.5" font-family="FreeSans.ttf" font-size="10.00">socket.h</text>
</a>
</g>
<!-- Node23&#45;&gt;Node32 -->
<g id="edge72" class="edge"><title>Node23&#45;&gt;Node32</title>
<path fill="none" stroke="midnightblue" d="M129.449,-348.389C116.163,-328.648 90,-284.503 90,-243 90,-243 90,-243 90,-127 90,-95.1919 92.8565,-85.4069 109,-58 115.593,-46.8076 125.534,-36.458 134.663,-28.3362"/>
<polygon fill="midnightblue" stroke="midnightblue" points="137.003,-30.9412 142.371,-21.8072 132.478,-25.5997 137.003,-30.9412"/>
</g>
<!-- Node26&#45;&gt;Node23 -->
<g id="edge70" class="edge"><title>Node26&#45;&gt;Node23</title>
<path fill="none" stroke="midnightblue" d="M251.006,-311.621C231.416,-320.88 200.625,-334.389 175.907,-344.615"/>
<polygon fill="midnightblue" stroke="midnightblue" points="174.354,-341.469 166.425,-348.497 177.006,-347.947 174.354,-341.469"/>
</g>
<!-- Node27 -->
<g id="node53" class="node"><title>Node27</title>
<a xlink:href="character_8h.xhtml" target="_top" xlink:title="The Character class.">
<polygon fill="white" stroke="black" points="234.5,-232.5 234.5,-253.5 305.5,-253.5 305.5,-232.5 234.5,-232.5"/>
<text text-anchor="middle" x="270" y="-240.5" font-family="FreeSans.ttf" font-size="10.00">character.h</text>
</a>
</g>
<!-- Node26&#45;&gt;Node27 -->
<g id="edge52" class="edge"><title>Node26&#45;&gt;Node27</title>
<path fill="none" stroke="midnightblue" d="M264.636,-290.362C263.319,-282.922 262.941,-272.743 263.5,-263.728"/>
<polygon fill="midnightblue" stroke="midnightblue" points="267.003,-263.9 264.648,-253.571 260.047,-263.114 267.003,-263.9"/>
</g>
<!-- Node27&#45;&gt;Node26 -->
<g id="edge54" class="edge"><title>Node27&#45;&gt;Node26</title>
<path fill="none" stroke="midnightblue" d="M275.352,-253.571C276.674,-260.994 277.059,-271.168 276.505,-280.191"/>
<polygon fill="midnightblue" stroke="midnightblue" points="273,-280.034 275.364,-290.362 279.957,-280.814 273,-280.034"/>
</g>
<!-- Node27&#45;&gt;Node28 -->
<g id="edge56" class="edge"><title>Node27&#45;&gt;Node28</title>
<path fill="none" stroke="midnightblue" d="M270,-232.362C270,-224.922 270,-214.743 270,-205.728"/>
<polygon fill="midnightblue" stroke="midnightblue" points="273.5,-205.571 270,-195.571 266.5,-205.571 273.5,-205.571"/>
</g>
<!-- Node28&#45;&gt;Node29 -->
<g id="edge58" class="edge"><title>Node28&#45;&gt;Node29</title>
<path fill="none" stroke="midnightblue" d="M252.209,-174.362C237.441,-165.532 216.222,-152.844 199.462,-142.822"/>
<polygon fill="midnightblue" stroke="midnightblue" points="201.057,-139.699 190.679,-137.571 197.465,-145.707 201.057,-139.699"/>
</g>
<!-- Node29&#45;&gt;Node23 -->
<g id="edge64" class="edge"><title>Node29&#45;&gt;Node23</title>
<path fill="none" stroke="midnightblue" d="M174.39,-137.634C173.403,-173.583 155.514,-290.994 144.188,-338.637"/>
<polygon fill="midnightblue" stroke="midnightblue" points="140.771,-337.872 141.672,-348.429 147.551,-339.614 140.771,-337.872"/>
</g>
<!-- Node29&#45;&gt;Node27 -->
<g id="edge62" class="edge"><title>Node29&#45;&gt;Node27</title>
<path fill="none" stroke="midnightblue" d="M181.93,-137.679C198.443,-157.427 233.936,-199.872 254.466,-224.424"/>
<polygon fill="midnightblue" stroke="midnightblue" points="251.948,-226.869 261.048,-232.295 257.318,-222.378 251.948,-226.869"/>
</g>
<!-- Node30 -->
<g id="node60" class="node"><title>Node30</title>
<polygon fill="white" stroke="#bfbfbf" points="118,-58.5 118,-79.5 164,-79.5 164,-58.5 118,-58.5"/>
<text text-anchor="middle" x="141" y="-66.5" font-family="FreeSans.ttf" font-size="10.00">fcntl.h</text>
</g>
<!-- Node29&#45;&gt;Node30 -->
<g id="edge60" class="edge"><title>Node29&#45;&gt;Node30</title>
<path fill="none" stroke="midnightblue" d="M167.131,-116.362C162.845,-108.595 156.913,-97.8426 151.784,-88.5458"/>
<polygon fill="midnightblue" stroke="midnightblue" points="154.727,-86.6357 146.832,-79.5707 148.598,-90.0172 154.727,-86.6357"/>
</g>
<!-- Node31 -->
<g id="node64" class="node"><title>Node31</title>
<a xlink:href="socketserver_8h.xhtml" target="_top" xlink:title="The SocketServer class.">
<polygon fill="white" stroke="black" points="182,-58.5 182,-79.5 268,-79.5 268,-58.5 182,-58.5"/>
<text text-anchor="middle" x="225" y="-66.5" font-family="FreeSans.ttf" font-size="10.00">socketserver.h</text>
</a>
</g>
<!-- Node29&#45;&gt;Node31 -->
<g id="edge66" class="edge"><title>Node29&#45;&gt;Node31</title>
<path fill="none" stroke="midnightblue" d="M182.538,-116.362C189.868,-108.186 200.163,-96.7025 208.781,-87.0907"/>
<polygon fill="midnightblue" stroke="midnightblue" points="211.453,-89.3528 215.523,-79.5707 206.241,-84.68 211.453,-89.3528"/>
</g>
<!-- Node31&#45;&gt;Node32 -->
<g id="edge68" class="edge"><title>Node31&#45;&gt;Node32</title>
<path fill="none" stroke="midnightblue" d="M212.528,-58.3619C202.655,-49.9408 188.667,-38.0105 177.202,-28.2308"/>
<polygon fill="midnightblue" stroke="midnightblue" points="179.273,-25.3972 169.393,-21.5707 174.73,-30.7231 179.273,-25.3972"/>
</g>
<!-- Node34 -->
<g id="node73" class="node"><title>Node34</title>
<polygon fill="white" stroke="#bfbfbf" points="638,-348.5 638,-369.5 682,-369.5 682,-348.5 638,-348.5"/>
<text text-anchor="middle" x="660" y="-356.5" font-family="FreeSans.ttf" font-size="10.00">bitset</text>
</g>
<!-- Node33&#45;&gt;Node34 -->
<g id="edge78" class="edge"><title>Node33&#45;&gt;Node34</title>
<path fill="none" stroke="midnightblue" d="M464.59,-408.649C467.406,-407.707 470.259,-406.8 473,-406 538.372,-386.926 558.936,-389.642 628.126,-370.02"/>
<polygon fill="midnightblue" stroke="midnightblue" points="629.114,-373.378 637.748,-367.238 627.17,-366.654 629.114,-373.378"/>
</g>
<!-- Node35 -->
<g id="node75" class="node"><title>Node35</title>
<polygon fill="white" stroke="#bfbfbf" points="699.5,-348.5 699.5,-369.5 752.5,-369.5 752.5,-348.5 699.5,-348.5"/>
<text text-anchor="middle" x="726" y="-356.5" font-family="FreeSans.ttf" font-size="10.00">cstdarg</text>
</g>
<!-- Node33&#45;&gt;Node35 -->
<g id="edge80" class="edge"><title>Node33&#45;&gt;Node35</title>
<path fill="none" stroke="midnightblue" d="M464.543,-408.48C467.368,-407.567 470.235,-406.713 473,-406 565.027,-382.274 593.642,-392.087 689.546,-370.104"/>
<polygon fill="midnightblue" stroke="midnightblue" points="690.42,-373.494 699.355,-367.799 688.82,-366.679 690.42,-373.494"/>
</g>
<!-- Node36 -->
<g id="node77" class="node"><title>Node36</title>
<polygon fill="white" stroke="#bfbfbf" points="769.5,-348.5 769.5,-369.5 814.5,-369.5 814.5,-348.5 769.5,-348.5"/>
<text text-anchor="middle" x="792" y="-356.5" font-family="FreeSans.ttf" font-size="10.00">cstdio</text>
</g>
<!-- Node33&#45;&gt;Node36 -->
<g id="edge82" class="edge"><title>Node33&#45;&gt;Node36</title>
<path fill="none" stroke="midnightblue" d="M464.517,-408.374C467.346,-407.479 470.222,-406.658 473,-406 595.333,-377.012 633.546,-398.585 759.46,-369.967"/>
<polygon fill="midnightblue" stroke="midnightblue" points="760.541,-373.309 769.483,-367.626 758.949,-366.492 760.541,-373.309"/>
</g>
<!-- Node37 -->
<g id="node79" class="node"><title>Node37</title>
<polygon fill="white" stroke="#bfbfbf" points="196,-348.5 196,-369.5 250,-369.5 250,-348.5 196,-348.5"/>
<text text-anchor="middle" x="223" y="-356.5" font-family="FreeSans.ttf" font-size="10.00">fstream</text>
</g>
<!-- Node33&#45;&gt;Node37 -->
<g id="edge84" class="edge"><title>Node33&#45;&gt;Node37</title>
<path fill="none" stroke="midnightblue" d="M419.374,-411.538C386.413,-403.506 323.058,-387.786 259.822,-370.151"/>
<polygon fill="midnightblue" stroke="midnightblue" points="260.662,-366.751 250.088,-367.42 258.771,-373.491 260.662,-366.751"/>
</g>
<!-- Node38 -->
<g id="node81" class="node"><title>Node38</title>
<polygon fill="white" stroke="#bfbfbf" points="267.5,-348.5 267.5,-369.5 326.5,-369.5 326.5,-348.5 267.5,-348.5"/>
<text text-anchor="middle" x="297" y="-356.5" font-family="FreeSans.ttf" font-size="10.00">iostream</text>
</g>
<!-- Node33&#45;&gt;Node38 -->
<g id="edge86" class="edge"><title>Node33&#45;&gt;Node38</title>
<path fill="none" stroke="midnightblue" d="M419.344,-407.938C396.218,-398.687 359.977,-384.191 332.933,-373.373"/>
<polygon fill="midnightblue" stroke="midnightblue" points="334.011,-370.035 323.427,-369.571 331.412,-376.534 334.011,-370.035"/>
</g>
<!-- Node39 -->
<g id="node83" class="node"><title>Node39</title>
<polygon fill="white" stroke="#bfbfbf" points="344,-348.5 344,-369.5 396,-369.5 396,-348.5 344,-348.5"/>
<text text-anchor="middle" x="370" y="-356.5" font-family="FreeSans.ttf" font-size="10.00">iterator</text>
</g>
<!-- Node33&#45;&gt;Node39 -->
<g id="edge88" class="edge"><title>Node33&#45;&gt;Node39</title>
<path fill="none" stroke="midnightblue" d="M428.794,-406.362C418.239,-397.859 403.242,-385.779 391.037,-375.947"/>
<polygon fill="midnightblue" stroke="midnightblue" points="393.105,-373.118 383.122,-369.571 388.714,-378.57 393.105,-373.118"/>
</g>
<!-- Node40 -->
<g id="node85" class="node"><title>Node40</title>
<polygon fill="white" stroke="#bfbfbf" points="414,-348.5 414,-369.5 470,-369.5 470,-348.5 414,-348.5"/>
<text text-anchor="middle" x="442" y="-356.5" font-family="FreeSans.ttf" font-size="10.00">sstream</text>
</g>
<!-- Node33&#45;&gt;Node40 -->
<g id="edge90" class="edge"><title>Node33&#45;&gt;Node40</title>
<path fill="none" stroke="midnightblue" d="M442,-406.362C442,-398.922 442,-388.743 442,-379.728"/>
<polygon fill="midnightblue" stroke="midnightblue" points="445.5,-379.571 442,-369.571 438.5,-379.571 445.5,-379.571"/>
</g>
<!-- Node41 -->
<g id="node87" class="node"><title>Node41</title>
<polygon fill="white" stroke="#bfbfbf" points="487.5,-348.5 487.5,-369.5 540.5,-369.5 540.5,-348.5 487.5,-348.5"/>
<text text-anchor="middle" x="514" y="-356.5" font-family="FreeSans.ttf" font-size="10.00">dirent.h</text>
</g>
<!-- Node33&#45;&gt;Node41 -->
<g id="edge92" class="edge"><title>Node33&#45;&gt;Node41</title>
<path fill="none" stroke="midnightblue" d="M455.206,-406.362C465.761,-397.859 480.758,-385.779 492.963,-375.947"/>
<polygon fill="midnightblue" stroke="midnightblue" points="495.286,-378.57 500.878,-369.571 490.895,-373.118 495.286,-378.57"/>
</g>
<!-- Node42 -->
<g id="node89" class="node"><title>Node42</title>
<polygon fill="white" stroke="#bfbfbf" points="557.5,-348.5 557.5,-369.5 620.5,-369.5 620.5,-348.5 557.5,-348.5"/>
<text text-anchor="middle" x="589" y="-356.5" font-family="FreeSans.ttf" font-size="10.00">sys/stat.h</text>
</g>
<!-- Node33&#45;&gt;Node42 -->
<g id="edge94" class="edge"><title>Node33&#45;&gt;Node42</title>
<path fill="none" stroke="midnightblue" d="M464.647,-408.065C488.204,-398.77 525.433,-384.081 553.023,-373.195"/>
<polygon fill="midnightblue" stroke="midnightblue" points="554.324,-376.444 562.341,-369.518 551.755,-369.933 554.324,-376.444"/>
</g>
</g>
</svg>
        <g id="navigator" transform="translate(0 0)" fill="#404254">
                <rect fill="#f2f5e9" fill-opacity="0.5" stroke="#606060" stroke-width=".5" x="0" y="0" width="60" height="60"/>
                <use id="zoomplus" xlink:href="#zoomPlus" x="17" y="9" onmousedown="handleZoom(evt,'in')"/>
                <use id="zoomminus" xlink:href="#zoomMin" x="42" y="9" onmousedown="handleZoom(evt,'out')"/>
                <use id="reset" xlink:href="#resetDef" x="30" y="36" onmousedown="handleReset()"/>
                <g id="arrowUp" xlink:href="#dirArrow" transform="translate(30 24)" onmousedown="handlePan(0,-1)">
                  <use xlink:href="#rim" fill="#404040">
                        <set attributeName="fill" to="#808080" begin="arrowUp.mouseover" end="arrowUp.mouseout"/>
                  </use>
                  <path fill="none" stroke="white" stroke-width="1.5" d="M0,-3.0v7 M-2.5,-0.5L0,-3.0L2.5,-0.5"/>
                </g>
                <g id="arrowRight" xlink:href="#dirArrow" transform="rotate(90) translate(36 -43)" onmousedown="handlePan(1,0)">
                  <use xlink:href="#rim" fill="#404040">
                        <set attributeName="fill" to="#808080" begin="arrowRight.mouseover" end="arrowRight.mouseout"/>
                  </use>
                  <path fill="none" stroke="white" stroke-width="1.5" d="M0,-3.0v7 M-2.5,-0.5L0,-3.0L2.5,-0.5"/>
                </g>
                <g id="arrowDown" xlink:href="#dirArrow" transform="rotate(180) translate(-30 -48)" onmousedown="handlePan(0,1)">
                  <use xlink:href="#rim" fill="#404040">
                        <set attributeName="fill" to="#808080" begin="arrowDown.mouseover" end="arrowDown.mouseout"/>
                  </use>
                  <path fill="none" stroke="white" stroke-width="1.5" d="M0,-3.0v7 M-2.5,-0.5L0,-3.0L2.5,-0.5"/>
                </g>
                <g id="arrowLeft" xlink:href="#dirArrow" transform="rotate(270) translate(-36 17)" onmousedown="handlePan(-1,0)">
                  <use xlink:href="#rim" fill="#404040">
                        <set attributeName="fill" to="#808080" begin="arrowLeft.mouseover" end="arrowLeft.mouseout"/>
                  </use>
                  <path fill="none" stroke="white" stroke-width="1.5" d="M0,-3.0v7 M-2.5,-0.5L0,-3.0L2.5,-0.5"/>
                </g>
        </g>
</svg>
