<?xml version="1.0" encoding="UTF-8" standalone="no"?>
<!DOCTYPE svg PUBLIC "-//W3C//DTD SVG 1.1//EN"
 "http://www.w3.org/Graphics/SVG/1.1/DTD/svg11.dtd">
<!-- Generated by graphviz version 2.26.3 (20100126.1600)
 -->
<!-- Title: G Pages: 1 -->
<!--zoomable 146 -->
<svg id="main" version="1.1" xmlns="http://www.w3.org/2000/svg" xmlns:xlink="http://www.w3.org/1999/xlink" xml:space="preserve" onload="init(evt)">
        <defs>
                <circle id="rim" cx="0" cy="0" r="7"/>
                <circle id="rim2" cx="0" cy="0" r="3.5"/>
                <g id="zoomPlus">
                        <use xlink:href="#rim" fill="#404040">
                                <set attributeName="fill" to="#808080" begin="zoomplus.mouseover" end="zoomplus.mouseout"/>
                        </use>
                        <path d="M-4,0h8M0,-4v8" fill="none" stroke="white" stroke-width="1.5" pointer-events="none"/>
                </g>
                <g id="zoomMin">
                        <use xlink:href="#rim" fill="#404040">
                                <set attributeName="fill" to="#808080" begin="zoomminus.mouseover" end="zoomminus.mouseout"/>
                        </use>
                        <path d="M-4,0h8" fill="none" stroke="white" stroke-width="1.5" pointer-events="none"/>
                </g>
                <g id="dirArrow">
                        <path fill="none" stroke="white" stroke-width="1.5" d="M0,-3.0v7 M-2.5,-0.5L0,-3.0L2.5,-0.5"/>
                </g>
               <g id="resetDef">
                       <use xlink:href="#rim2" fill="#404040">
                               <set attributeName="fill" to="#808080" begin="reset.mouseover" end="reset.mouseout"/>
                       </use>
               </g>
        </defs>

<script type="text/javascript">
var viewWidth = 736;
var viewHeight = 146;
var sectionId = 'dynsection-0';
</script>
<script xlink:href="svgpan.js"/>
<svg id="graph" class="graph">
<g id="viewport">
<title>G</title>
<polygon fill="white" stroke="white" points="-4,5 -4,-142 733,-142 733,5 -4,5"/>
<!-- Node1 -->
<g id="node1" class="node"><title>Node1</title>
<polygon fill="#bfbfbf" stroke="black" points="522.5,-116.5 522.5,-137.5 581.5,-137.5 581.5,-116.5 522.5,-116.5"/>
<text text-anchor="middle" x="552" y="-124.5" font-family="FreeSans.ttf" font-size="10.00">h/thing.h</text>
</g>
<!-- Node2 -->
<g id="node3" class="node"><title>Node2</title>
<a xlink:href="character_8h.xhtml" target="_top" xlink:title="The Character class.">
<polygon fill="white" stroke="black" points="304,-58.5 304,-79.5 384,-79.5 384,-58.5 304,-58.5"/>
<text text-anchor="middle" x="344" y="-66.5" font-family="FreeSans.ttf" font-size="10.00">h/character.h</text>
</a>
</g>
<!-- Node1&#45;&gt;Node2 -->
<g id="edge2" class="edge"><title>Node1&#45;&gt;Node2</title>
<path fill="none" stroke="midnightblue" d="M512.124,-115.881C474.574,-105.41 418.734,-89.8392 381.858,-79.5564"/>
<polygon fill="midnightblue" stroke="midnightblue" points="511.626,-119.375 522.199,-118.69 513.506,-112.633 511.626,-119.375"/>
</g>
<!-- Node9 -->
<g id="node17" class="node"><title>Node9</title>
<a xlink:href="location_8h.xhtml" target="_top" xlink:title="The Location class.">
<polygon fill="white" stroke="black" points="516,-58.5 516,-79.5 588,-79.5 588,-58.5 516,-58.5"/>
<text text-anchor="middle" x="552" y="-66.5" font-family="FreeSans.ttf" font-size="10.00">h/location.h</text>
</a>
</g>
<!-- Node1&#45;&gt;Node9 -->
<g id="edge16" class="edge"><title>Node1&#45;&gt;Node9</title>
<path fill="none" stroke="midnightblue" d="M552,-106.191C552,-97.1684 552,-86.9941 552,-79.5707"/>
<polygon fill="midnightblue" stroke="midnightblue" points="548.5,-106.362 552,-116.362 555.5,-106.362 548.5,-106.362"/>
</g>
<!-- Node11 -->
<g id="node23" class="node"><title>Node11</title>
<a xlink:href="thing_8cpp.xhtml" target="_top" xlink:title="All non&#45;template member functions of the Thing class.">
<polygon fill="white" stroke="black" points="667.5,-0.5 667.5,-21.5 728.5,-21.5 728.5,-0.5 667.5,-0.5"/>
<text text-anchor="middle" x="698" y="-8.5" font-family="FreeSans.ttf" font-size="10.00">thing.cpp</text>
</a>
</g>
<!-- Node1&#45;&gt;Node11 -->
<g id="edge26" class="edge"><title>Node1&#45;&gt;Node11</title>
<path fill="none" stroke="midnightblue" d="M573.389,-110.006C603.935,-85.7364 659.161,-41.8584 684.559,-21.6792"/>
<polygon fill="midnightblue" stroke="midnightblue" points="571.126,-107.334 565.474,-116.295 575.481,-112.814 571.126,-107.334"/>
</g>
<!-- Node3 -->
<g id="node5" class="node"><title>Node3</title>
<a xlink:href="account_8cpp.xhtml" target="_top" xlink:title="All non&#45;template member functions of the Account class.">
<polygon fill="white" stroke="black" points="-0.5,-0.5 -0.5,-21.5 74.5,-21.5 74.5,-0.5 -0.5,-0.5"/>
<text text-anchor="middle" x="37" y="-8.5" font-family="FreeSans.ttf" font-size="10.00">account.cpp</text>
</a>
</g>
<!-- Node2&#45;&gt;Node3 -->
<g id="edge4" class="edge"><title>Node2&#45;&gt;Node3</title>
<path fill="none" stroke="midnightblue" d="M293.527,-60.7814C240.834,-51.9978 155.876,-37.2624 83,-22 80.2674,-21.4277 77.4493,-20.8134 74.6166,-20.1784"/>
<polygon fill="midnightblue" stroke="midnightblue" points="293.184,-64.2723 303.622,-62.4571 294.33,-57.3667 293.184,-64.2723"/>
</g>
<!-- Node4 -->
<g id="node7" class="node"><title>Node4</title>
<a xlink:href="character_8cpp.xhtml" target="_top" xlink:title="All non&#45;template member functions of the Character class.">
<polygon fill="white" stroke="black" points="92,-0.5 92,-21.5 174,-21.5 174,-0.5 92,-0.5"/>
<text text-anchor="middle" x="133" y="-8.5" font-family="FreeSans.ttf" font-size="10.00">character.cpp</text>
</a>
</g>
<!-- Node2&#45;&gt;Node4 -->
<g id="edge6" class="edge"><title>Node2&#45;&gt;Node4</title>
<path fill="none" stroke="midnightblue" d="M296.024,-55.8123C258.248,-45.4285 206.3,-31.1487 171.282,-21.5231"/>
<polygon fill="midnightblue" stroke="midnightblue" points="295.219,-59.2209 305.789,-58.4966 297.075,-52.4712 295.219,-59.2209"/>
</g>
<!-- Node5 -->
<g id="node9" class="node"><title>Node5</title>
<a xlink:href="handler_8cpp.xhtml" target="_top" xlink:title="All non&#45;template member functions of the Handler namespace.">
<polygon fill="white" stroke="black" points="402,-0.5 402,-21.5 474,-21.5 474,-0.5 402,-0.5"/>
<text text-anchor="middle" x="438" y="-8.5" font-family="FreeSans.ttf" font-size="10.00">handler.cpp</text>
</a>
</g>
<!-- Node2&#45;&gt;Node5 -->
<g id="edge8" class="edge"><title>Node2&#45;&gt;Node5</title>
<path fill="none" stroke="midnightblue" d="M369.767,-53.1009C386.031,-43.0658 406.59,-30.3808 420.868,-21.5707"/>
<polygon fill="midnightblue" stroke="midnightblue" points="367.914,-50.1322 361.241,-58.3619 371.589,-56.0894 367.914,-50.1322"/>
</g>
<!-- Node6 -->
<g id="node11" class="node"><title>Node6</title>
<a xlink:href="server_8cpp.xhtml" target="_top" xlink:title="All non&#45;template member functions of the Server namespace.">
<polygon fill="white" stroke="black" points="492,-0.5 492,-21.5 558,-21.5 558,-0.5 492,-0.5"/>
<text text-anchor="middle" x="525" y="-8.5" font-family="FreeSans.ttf" font-size="10.00">server.cpp</text>
</a>
</g>
<!-- Node2&#45;&gt;Node6 -->
<g id="edge10" class="edge"><title>Node2&#45;&gt;Node6</title>
<path fill="none" stroke="midnightblue" d="M386.402,-55.4127C418.695,-45.0646 462.506,-31.0258 492.161,-21.5231"/>
<polygon fill="midnightblue" stroke="midnightblue" points="385.233,-52.1119 376.778,-58.4966 387.369,-58.7781 385.233,-52.1119"/>
</g>
<!-- Node7 -->
<g id="node13" class="node"><title>Node7</title>
<a xlink:href="socketclient_8cpp.xhtml" target="_top" xlink:title="All non&#45;template member functions of the SocketClient class.">
<polygon fill="white" stroke="black" points="192,-0.5 192,-21.5 286,-21.5 286,-0.5 192,-0.5"/>
<text text-anchor="middle" x="239" y="-8.5" font-family="FreeSans.ttf" font-size="10.00">socketclient.cpp</text>
</a>
</g>
<!-- Node2&#45;&gt;Node7 -->
<g id="edge12" class="edge"><title>Node2&#45;&gt;Node7</title>
<path fill="none" stroke="midnightblue" d="M315.971,-53.5175C297.689,-43.4189 274.308,-30.5032 258.137,-21.5707"/>
<polygon fill="midnightblue" stroke="midnightblue" points="314.296,-56.5903 324.741,-58.3619 317.68,-50.463 314.296,-56.5903"/>
</g>
<!-- Node8 -->
<g id="node15" class="node"><title>Node8</title>
<a xlink:href="pincludes_8h.xhtml" target="_top" xlink:title="All non&#45;system includes that need to be within each .cpp plugin.">
<polygon fill="white" stroke="black" points="304,-0.5 304,-21.5 384,-21.5 384,-0.5 304,-0.5"/>
<text text-anchor="middle" x="344" y="-8.5" font-family="FreeSans.ttf" font-size="10.00">h/pincludes.h</text>
</a>
</g>
<!-- Node2&#45;&gt;Node8 -->
<g id="edge14" class="edge"><title>Node2&#45;&gt;Node8</title>
<path fill="none" stroke="midnightblue" d="M344,-48.1906C344,-39.1684 344,-28.9941 344,-21.5707"/>
<polygon fill="midnightblue" stroke="midnightblue" points="340.5,-48.3619 344,-58.3619 347.5,-48.3619 340.5,-48.3619"/>
</g>
<!-- Node9&#45;&gt;Node5 -->
<g id="edge18" class="edge"><title>Node9&#45;&gt;Node5</title>
<path fill="none" stroke="midnightblue" d="M522.383,-53.9319C502.456,-43.7932 476.671,-30.6748 458.876,-21.6212"/>
<polygon fill="midnightblue" stroke="midnightblue" points="520.856,-57.0815 531.355,-58.4966 524.03,-50.8425 520.856,-57.0815"/>
</g>
<!-- Node9&#45;&gt;Node6 -->
<g id="edge22" class="edge"><title>Node9&#45;&gt;Node6</title>
<path fill="none" stroke="midnightblue" d="M542.726,-49.079C538.427,-39.8422 533.49,-29.2388 529.921,-21.5707"/>
<polygon fill="midnightblue" stroke="midnightblue" points="539.654,-50.7732 547.048,-58.3619 546,-47.819 539.654,-50.7732"/>
</g>
<!-- Node10 -->
<g id="node20" class="node"><title>Node10</title>
<a xlink:href="location_8cpp.xhtml" target="_top" xlink:title="All non&#45;template member functions of the Location class.">
<polygon fill="white" stroke="black" points="576,-0.5 576,-21.5 650,-21.5 650,-0.5 576,-0.5"/>
<text text-anchor="middle" x="613" y="-8.5" font-family="FreeSans.ttf" font-size="10.00">location.cpp</text>
</a>
</g>
<!-- Node9&#45;&gt;Node10 -->
<g id="edge20" class="edge"><title>Node9&#45;&gt;Node10</title>
<path fill="none" stroke="midnightblue" d="M570.505,-51.405C580.745,-41.6683 593.131,-29.8914 601.883,-21.5707"/>
<polygon fill="midnightblue" stroke="midnightblue" points="568.024,-48.9348 563.188,-58.3619 572.847,-54.0077 568.024,-48.9348"/>
</g>
<!-- Node9&#45;&gt;Node11 -->
<g id="edge24" class="edge"><title>Node9&#45;&gt;Node11</title>
<path fill="none" stroke="midnightblue" d="M587.868,-54.7509C613.651,-44.5086 647.855,-30.9206 671.264,-21.6212"/>
<polygon fill="midnightblue" stroke="midnightblue" points="586.441,-51.5519 578.439,-58.4966 589.025,-58.0574 586.441,-51.5519"/>
</g>
</g>
</svg>
        <g id="navigator" transform="translate(0 0)" fill="#404254">
                <rect fill="#f2f5e9" fill-opacity="0.5" stroke="#606060" stroke-width=".5" x="0" y="0" width="60" height="60"/>
                <use id="zoomplus" xlink:href="#zoomPlus" x="17" y="9" onmousedown="handleZoom(evt,'in')"/>
                <use id="zoomminus" xlink:href="#zoomMin" x="42" y="9" onmousedown="handleZoom(evt,'out')"/>
                <use id="reset" xlink:href="#resetDef" x="30" y="36" onmousedown="handleReset()"/>
                <g id="arrowUp" xlink:href="#dirArrow" transform="translate(30 24)" onmousedown="handlePan(0,-1)">
                  <use xlink:href="#rim" fill="#404040">
                        <set attributeName="fill" to="#808080" begin="arrowUp.mouseover" end="arrowUp.mouseout"/>
                  </use>
                  <path fill="none" stroke="white" stroke-width="1.5" d="M0,-3.0v7 M-2.5,-0.5L0,-3.0L2.5,-0.5"/>
                </g>
                <g id="arrowRight" xlink:href="#dirArrow" transform="rotate(90) translate(36 -43)" onmousedown="handlePan(1,0)">
                  <use xlink:href="#rim" fill="#404040">
                        <set attributeName="fill" to="#808080" begin="arrowRight.mouseover" end="arrowRight.mouseout"/>
                  </use>
                  <path fill="none" stroke="white" stroke-width="1.5" d="M0,-3.0v7 M-2.5,-0.5L0,-3.0L2.5,-0.5"/>
                </g>
                <g id="arrowDown" xlink:href="#dirArrow" transform="rotate(180) translate(-30 -48)" onmousedown="handlePan(0,1)">
                  <use xlink:href="#rim" fill="#404040">
                        <set attributeName="fill" to="#808080" begin="arrowDown.mouseover" end="arrowDown.mouseout"/>
                  </use>
                  <path fill="none" stroke="white" stroke-width="1.5" d="M0,-3.0v7 M-2.5,-0.5L0,-3.0L2.5,-0.5"/>
                </g>
                <g id="arrowLeft" xlink:href="#dirArrow" transform="rotate(270) translate(-36 17)" onmousedown="handlePan(-1,0)">
                  <use xlink:href="#rim" fill="#404040">
                        <set attributeName="fill" to="#808080" begin="arrowLeft.mouseover" end="arrowLeft.mouseout"/>
                  </use>
                  <path fill="none" stroke="white" stroke-width="1.5" d="M0,-3.0v7 M-2.5,-0.5L0,-3.0L2.5,-0.5"/>
                </g>
        </g>
</svg>
