<?xml version="1.0" encoding="UTF-8" standalone="no"?>
<!DOCTYPE svg PUBLIC "-//W3C//DTD SVG 1.1//EN"
 "http://www.w3.org/Graphics/SVG/1.1/DTD/svg11.dtd">
<!-- Generated by graphviz version 2.26.3 (20100126.1600)
 -->
<!-- Title: utils.cpp Pages: 1 -->
<svg width="1954pt" height="204pt"
 viewBox="0.00 0.00 1954.00 204.00" xmlns="http://www.w3.org/2000/svg" xmlns:xlink="http://www.w3.org/1999/xlink">
<g id="graph1" class="graph" transform="scale(1 1) rotate(0) translate(4 200)">
<title>utils.cpp</title>
<polygon fill="white" stroke="white" points="-4,5 -4,-200 1951,-200 1951,5 -4,5"/>
<!-- Node1 -->
<g id="node1" class="node"><title>Node1</title>
<polygon fill="#bfbfbf" stroke="black" points="1750,-175 1750,-195 1806,-195 1806,-175 1750,-175"/>
<text text-anchor="middle" x="1778" y="-182" font-family="FreeSans.ttf" font-size="10.00">utils.cpp</text>
</g>
<!-- Node2 -->
<g id="node3" class="node"><title>Node2</title>
<a xlink:href="includes_8h.xhtml" target="_top" xlink:title="All non&#45;system includes that need to be within each .cpp file.">
<polygon fill="white" stroke="black" points="1592,-117 1592,-137 1666,-137 1666,-117 1592,-117"/>
<text text-anchor="middle" x="1629" y="-124" font-family="FreeSans.ttf" font-size="10.00">h/includes.h</text>
</a>
</g>
<!-- Node1&#45;&gt;Node2 -->
<g id="edge2" class="edge"><title>Node1&#45;&gt;Node2</title>
<path fill="none" stroke="midnightblue" d="M1752.05,-174.897C1727.76,-165.445 1691.29,-151.249 1664.36,-140.764"/>
<polygon fill="midnightblue" stroke="midnightblue" points="1665.49,-137.45 1654.91,-137.084 1662.96,-143.973 1665.49,-137.45"/>
</g>
<!-- Node37 -->
<g id="node73" class="node"><title>Node37</title>
<a xlink:href="utils_8h.xhtml" target="_top" xlink:title="The Utils namespace.">
<polygon fill="white" stroke="black" points="1901.5,-1 1901.5,-21 1946.5,-21 1946.5,-1 1901.5,-1"/>
<text text-anchor="middle" x="1924" y="-8" font-family="FreeSans.ttf" font-size="10.00">utils.h</text>
</a>
</g>
<!-- Node1&#45;&gt;Node37 -->
<g id="edge76" class="edge"><title>Node1&#45;&gt;Node37</title>
<path fill="none" stroke="midnightblue" d="M1797.99,-174.792C1827.24,-158.767 1881.22,-124.849 1909,-80 1918.07,-65.3626 1921.7,-46.0169 1923.13,-31.5353"/>
<polygon fill="midnightblue" stroke="midnightblue" points="1926.65,-31.3701 1923.87,-21.147 1919.67,-30.8735 1926.65,-31.3701"/>
</g>
<!-- Node3 -->
<g id="node5" class="node"><title>Node3</title>
<a xlink:href="sysincludes_8h.xhtml" target="_top" xlink:title="All system standard includes that are used within NAMS.">
<polygon fill="white" stroke="black" points="776,-59 776,-79 856,-79 856,-59 776,-59"/>
<text text-anchor="middle" x="816" y="-66" font-family="FreeSans.ttf" font-size="10.00">sysincludes.h</text>
</a>
</g>
<!-- Node2&#45;&gt;Node3 -->
<g id="edge4" class="edge"><title>Node2&#45;&gt;Node3</title>
<path fill="none" stroke="midnightblue" d="M1591.95,-124.357C1460.6,-114.986 1016.95,-83.3358 866.435,-72.5981"/>
<polygon fill="midnightblue" stroke="midnightblue" points="866.337,-69.0823 856.113,-71.8617 865.839,-76.0645 866.337,-69.0823"/>
</g>
<!-- Node28 -->
<g id="node55" class="node"><title>Node28</title>
<a xlink:href="limits_8h.xhtml" target="_top" xlink:title="Custom defined numeric types and system limits.">
<polygon fill="white" stroke="black" points="1383.5,-59 1383.5,-79 1434.5,-79 1434.5,-59 1383.5,-59"/>
<text text-anchor="middle" x="1409" y="-66" font-family="FreeSans.ttf" font-size="10.00">limits.h</text>
</a>
</g>
<!-- Node2&#45;&gt;Node28 -->
<g id="edge54" class="edge"><title>Node2&#45;&gt;Node28</title>
<path fill="none" stroke="midnightblue" d="M1591.75,-118.346C1556.13,-109.901 1500.69,-96.3255 1444.35,-80.2783"/>
<polygon fill="midnightblue" stroke="midnightblue" points="1445.14,-76.8647 1434.56,-77.4689 1443.21,-83.5929 1445.14,-76.8647"/>
</g>
<!-- Node29 -->
<g id="node57" class="node"><title>Node29</title>
<a xlink:href="macros_8h.xhtml" target="_top" xlink:title="All pre&#45;processor macros within NAMS and select reference values.">
<polygon fill="white" stroke="black" points="1452,-59 1452,-79 1514,-79 1514,-59 1452,-59"/>
<text text-anchor="middle" x="1483" y="-66" font-family="FreeSans.ttf" font-size="10.00">macros.h</text>
</a>
</g>
<!-- Node2&#45;&gt;Node29 -->
<g id="edge56" class="edge"><title>Node2&#45;&gt;Node29</title>
<path fill="none" stroke="midnightblue" d="M1603.57,-116.897C1579.95,-107.515 1544.57,-93.4593 1518.24,-82.9979"/>
<polygon fill="midnightblue" stroke="midnightblue" points="1519.22,-79.6209 1508.63,-79.1817 1516.63,-86.1264 1519.22,-79.6209"/>
</g>
<!-- Node30 -->
<g id="node59" class="node"><title>Node30</title>
<a xlink:href="enum_8h.xhtml" target="_top" xlink:title="All numerical and boolean defines for every class and namespace.">
<polygon fill="white" stroke="black" points="1531.5,-59 1531.5,-79 1584.5,-79 1584.5,-59 1531.5,-59"/>
<text text-anchor="middle" x="1558" y="-66" font-family="FreeSans.ttf" font-size="10.00">enum.h</text>
</a>
</g>
<!-- Node2&#45;&gt;Node30 -->
<g id="edge58" class="edge"><title>Node2&#45;&gt;Node30</title>
<path fill="none" stroke="midnightblue" d="M1616.63,-116.897C1606.17,-108.353 1590.97,-95.933 1578.67,-85.8813"/>
<polygon fill="midnightblue" stroke="midnightblue" points="1580.66,-82.9935 1570.7,-79.3776 1576.23,-88.4146 1580.66,-82.9935"/>
</g>
<!-- Node31 -->
<g id="node61" class="node"><title>Node31</title>
<a xlink:href="config_8h.xhtml" target="_top" xlink:title="NAMS configuration options.">
<polygon fill="white" stroke="black" points="1602,-59 1602,-79 1656,-79 1656,-59 1602,-59"/>
<text text-anchor="middle" x="1629" y="-66" font-family="FreeSans.ttf" font-size="10.00">config.h</text>
</a>
</g>
<!-- Node2&#45;&gt;Node31 -->
<g id="edge60" class="edge"><title>Node2&#45;&gt;Node31</title>
<path fill="none" stroke="midnightblue" d="M1629,-116.897C1629,-109.339 1629,-98.7476 1629,-89.4458"/>
<polygon fill="midnightblue" stroke="midnightblue" points="1632.5,-89.3776 1629,-79.3776 1625.5,-89.3776 1632.5,-89.3776"/>
</g>
<!-- Node32 -->
<g id="node63" class="node"><title>Node32</title>
<a xlink:href="class_8h.xhtml" target="_top" xlink:title="All class declarations.">
<polygon fill="white" stroke="black" points="1674,-59 1674,-79 1724,-79 1724,-59 1674,-59"/>
<text text-anchor="middle" x="1699" y="-66" font-family="FreeSans.ttf" font-size="10.00">class.h</text>
</a>
</g>
<!-- Node2&#45;&gt;Node32 -->
<g id="edge62" class="edge"><title>Node2&#45;&gt;Node32</title>
<path fill="none" stroke="midnightblue" d="M1641.19,-116.897C1651.5,-108.353 1666.49,-95.933 1678.63,-85.8813"/>
<polygon fill="midnightblue" stroke="midnightblue" points="1681.01,-88.4529 1686.48,-79.3776 1676.54,-83.0627 1681.01,-88.4529"/>
</g>
<!-- Node33 -->
<g id="node65" class="node"><title>Node33</title>
<a xlink:href="namespace_8h.xhtml" target="_top" xlink:title="All namespace includes.">
<polygon fill="white" stroke="black" points="1742,-59 1742,-79 1824,-79 1824,-59 1742,-59"/>
<text text-anchor="middle" x="1783" y="-66" font-family="FreeSans.ttf" font-size="10.00">namespace.h</text>
</a>
</g>
<!-- Node2&#45;&gt;Node33 -->
<g id="edge64" class="edge"><title>Node2&#45;&gt;Node33</title>
<path fill="none" stroke="midnightblue" d="M1655.82,-116.897C1681.03,-107.403 1718.95,-93.124 1746.82,-82.6258"/>
<polygon fill="midnightblue" stroke="midnightblue" points="1748.1,-85.8842 1756.22,-79.0842 1745.63,-79.3334 1748.1,-85.8842"/>
</g>
<!-- Node38 -->
<g id="node75" class="node"><title>Node38</title>
<a xlink:href="globals_8h.xhtml" target="_top" xlink:title="Externs to reference global scope variables.">
<polygon fill="white" stroke="black" points="1841.5,-59 1841.5,-79 1900.5,-79 1900.5,-59 1841.5,-59"/>
<text text-anchor="middle" x="1871" y="-66" font-family="FreeSans.ttf" font-size="10.00">globals.h</text>
</a>
</g>
<!-- Node2&#45;&gt;Node38 -->
<g id="edge74" class="edge"><title>Node2&#45;&gt;Node38</title>
<path fill="none" stroke="midnightblue" d="M1666,-119.12C1704.99,-110.676 1768.38,-96.5411 1831.46,-80.3178"/>
<polygon fill="midnightblue" stroke="midnightblue" points="1832.37,-83.6988 1841.17,-77.8033 1830.61,-76.9224 1832.37,-83.6988"/>
</g>
<!-- Node4 -->
<g id="node7" class="node"><title>Node4</title>
<polygon fill="white" stroke="#bfbfbf" points="0,-1 0,-21 62,-21 62,-1 0,-1"/>
<text text-anchor="middle" x="31" y="-8" font-family="FreeSans.ttf" font-size="10.00">algorithm</text>
</g>
<!-- Node3&#45;&gt;Node4 -->
<g id="edge6" class="edge"><title>Node3&#45;&gt;Node4</title>
<path fill="none" stroke="midnightblue" d="M775.836,-67.5551C644.513,-62.6639 227.866,-45.786 72.5897,-21.9196"/>
<polygon fill="midnightblue" stroke="midnightblue" points="72.7362,-18.3982 62.3069,-20.2635 71.6231,-25.3091 72.7362,-18.3982"/>
</g>
<!-- Node5 -->
<g id="node9" class="node"><title>Node5</title>
<polygon fill="white" stroke="#bfbfbf" points="80,-1 80,-21 124,-21 124,-1 80,-1"/>
<text text-anchor="middle" x="102" y="-8" font-family="FreeSans.ttf" font-size="10.00">bitset</text>
</g>
<!-- Node3&#45;&gt;Node5 -->
<g id="edge8" class="edge"><title>Node3&#45;&gt;Node5</title>
<path fill="none" stroke="midnightblue" d="M775.603,-67.6624C651.482,-63.3315 276.03,-48.5263 134.335,-21.708"/>
<polygon fill="midnightblue" stroke="midnightblue" points="134.636,-18.1991 124.144,-19.6721 133.264,-25.0634 134.636,-18.1991"/>
</g>
<!-- Node6 -->
<g id="node11" class="node"><title>Node6</title>
<polygon fill="white" stroke="#bfbfbf" points="142,-1 142,-21 192,-21 192,-1 142,-1"/>
<text text-anchor="middle" x="167" y="-8" font-family="FreeSans.ttf" font-size="10.00">chrono</text>
</g>
<!-- Node3&#45;&gt;Node6 -->
<g id="edge10" class="edge"><title>Node3&#45;&gt;Node6</title>
<path fill="none" stroke="midnightblue" d="M775.946,-67.1787C660.875,-61.7554 329.923,-44.7728 202.013,-21.7298"/>
<polygon fill="midnightblue" stroke="midnightblue" points="202.553,-18.2699 192.076,-19.8445 201.248,-25.1473 202.553,-18.2699"/>
</g>
<!-- Node7 -->
<g id="node13" class="node"><title>Node7</title>
<polygon fill="white" stroke="#bfbfbf" points="209.5,-1 209.5,-21 262.5,-21 262.5,-1 209.5,-1"/>
<text text-anchor="middle" x="236" y="-8" font-family="FreeSans.ttf" font-size="10.00">cstdarg</text>
</g>
<!-- Node3&#45;&gt;Node7 -->
<g id="edge12" class="edge"><title>Node3&#45;&gt;Node7</title>
<path fill="none" stroke="midnightblue" d="M775.924,-66.6838C670.413,-60.4097 385.834,-42.3058 272.683,-21.9325"/>
<polygon fill="midnightblue" stroke="midnightblue" points="273.075,-18.4445 262.597,-20.0181 271.769,-25.3217 273.075,-18.4445"/>
</g>
<!-- Node8 -->
<g id="node15" class="node"><title>Node8</title>
<polygon fill="white" stroke="#bfbfbf" points="279.5,-1 279.5,-21 324.5,-21 324.5,-1 279.5,-1"/>
<text text-anchor="middle" x="302" y="-8" font-family="FreeSans.ttf" font-size="10.00">cstdio</text>
</g>
<!-- Node3&#45;&gt;Node8 -->
<g id="edge14" class="edge"><title>Node3&#45;&gt;Node8</title>
<path fill="none" stroke="midnightblue" d="M775.723,-68.3843C693.817,-66.427 502.075,-58.2478 334.486,-21.9056"/>
<polygon fill="midnightblue" stroke="midnightblue" points="335.02,-18.4393 324.5,-19.7001 333.51,-25.2745 335.02,-18.4393"/>
</g>
<!-- Node9 -->
<g id="node17" class="node"><title>Node9</title>
<polygon fill="white" stroke="#bfbfbf" points="341.5,-1 341.5,-21 388.5,-21 388.5,-1 341.5,-1"/>
<text text-anchor="middle" x="365" y="-8" font-family="FreeSans.ttf" font-size="10.00">deque</text>
</g>
<!-- Node3&#45;&gt;Node9 -->
<g id="edge16" class="edge"><title>Node3&#45;&gt;Node9</title>
<path fill="none" stroke="midnightblue" d="M775.946,-67.429C702.496,-63.9207 541.384,-53.3136 398.423,-21.9533"/>
<polygon fill="midnightblue" stroke="midnightblue" points="399.121,-18.523 388.599,-19.7585 397.595,-25.3546 399.121,-18.523"/>
</g>
<!-- Node10 -->
<g id="node19" class="node"><title>Node10</title>
<polygon fill="white" stroke="#bfbfbf" points="406,-1 406,-21 460,-21 460,-1 406,-1"/>
<text text-anchor="middle" x="433" y="-8" font-family="FreeSans.ttf" font-size="10.00">fstream</text>
</g>
<!-- Node3&#45;&gt;Node10 -->
<g id="edge18" class="edge"><title>Node3&#45;&gt;Node10</title>
<path fill="none" stroke="midnightblue" d="M775.82,-65.6879C712.639,-60.018 586.143,-46.8033 470.119,-21.9654"/>
<polygon fill="midnightblue" stroke="midnightblue" points="470.518,-18.4704 460.002,-19.7639 469.029,-25.3103 470.518,-18.4704"/>
</g>
<!-- Node11 -->
<g id="node21" class="node"><title>Node11</title>
<polygon fill="white" stroke="#bfbfbf" points="477.5,-1 477.5,-21 536.5,-21 536.5,-1 477.5,-1"/>
<text text-anchor="middle" x="507" y="-8" font-family="FreeSans.ttf" font-size="10.00">iostream</text>
</g>
<!-- Node3&#45;&gt;Node11 -->
<g id="edge20" class="edge"><title>Node3&#45;&gt;Node11</title>
<path fill="none" stroke="midnightblue" d="M775.776,-63.4381C724.585,-56.0498 633.289,-41.8379 546.769,-22.2481"/>
<polygon fill="midnightblue" stroke="midnightblue" points="547.319,-18.7834 536.79,-19.9592 545.754,-25.6062 547.319,-18.7834"/>
</g>
<!-- Node12 -->
<g id="node23" class="node"><title>Node12</title>
<polygon fill="white" stroke="#bfbfbf" points="554,-1 554,-21 606,-21 606,-1 554,-1"/>
<text text-anchor="middle" x="580" y="-8" font-family="FreeSans.ttf" font-size="10.00">iterator</text>
</g>
<!-- Node3&#45;&gt;Node12 -->
<g id="edge22" class="edge"><title>Node3&#45;&gt;Node12</title>
<path fill="none" stroke="midnightblue" d="M775.735,-60.5137C737.064,-52.1572 676.814,-38.5998 616.062,-22.1633"/>
<polygon fill="midnightblue" stroke="midnightblue" points="616.88,-18.7584 606.311,-19.501 615.036,-25.5113 616.88,-18.7584"/>
</g>
<!-- Node13 -->
<g id="node25" class="node"><title>Node13</title>
<polygon fill="white" stroke="#bfbfbf" points="624,-1 624,-21 666,-21 666,-1 624,-1"/>
<text text-anchor="middle" x="645" y="-8" font-family="FreeSans.ttf" font-size="10.00">limits</text>
</g>
<!-- Node3&#45;&gt;Node13 -->
<g id="edge24" class="edge"><title>Node3&#45;&gt;Node13</title>
<path fill="none" stroke="midnightblue" d="M785.104,-58.9936C758.434,-50.2915 718.658,-37.1603 675.765,-22.2096"/>
<polygon fill="midnightblue" stroke="midnightblue" points="676.872,-18.8887 666.277,-18.8901 674.56,-25.4961 676.872,-18.8887"/>
</g>
<!-- Node14 -->
<g id="node27" class="node"><title>Node14</title>
<polygon fill="white" stroke="#bfbfbf" points="684,-1 684,-21 714,-21 714,-1 684,-1"/>
<text text-anchor="middle" x="699" y="-8" font-family="FreeSans.ttf" font-size="10.00">list</text>
</g>
<!-- Node3&#45;&gt;Node14 -->
<g id="edge26" class="edge"><title>Node3&#45;&gt;Node14</title>
<path fill="none" stroke="midnightblue" d="M795.62,-58.8972C775.522,-48.9337 744.79,-33.6992 723.401,-23.0963"/>
<polygon fill="midnightblue" stroke="midnightblue" points="724.817,-19.8919 714.303,-18.5862 721.708,-26.1636 724.817,-19.8919"/>
</g>
<!-- Node15 -->
<g id="node29" class="node"><title>Node15</title>
<polygon fill="white" stroke="#bfbfbf" points="732,-1 732,-21 770,-21 770,-1 732,-1"/>
<text text-anchor="middle" x="751" y="-8" font-family="FreeSans.ttf" font-size="10.00">map</text>
</g>
<!-- Node3&#45;&gt;Node15 -->
<g id="edge28" class="edge"><title>Node3&#45;&gt;Node15</title>
<path fill="none" stroke="midnightblue" d="M804.678,-58.8972C795.195,-50.4353 781.451,-38.1715 770.244,-28.1719"/>
<polygon fill="midnightblue" stroke="midnightblue" points="772.422,-25.424 762.63,-21.3776 767.761,-30.647 772.422,-25.424"/>
</g>
<!-- Node16 -->
<g id="node31" class="node"><title>Node16</title>
<polygon fill="white" stroke="#bfbfbf" points="788,-1 788,-21 844,-21 844,-1 788,-1"/>
<text text-anchor="middle" x="816" y="-8" font-family="FreeSans.ttf" font-size="10.00">sstream</text>
</g>
<!-- Node3&#45;&gt;Node16 -->
<g id="edge30" class="edge"><title>Node3&#45;&gt;Node16</title>
<path fill="none" stroke="midnightblue" d="M816,-58.8972C816,-51.339 816,-40.7476 816,-31.4458"/>
<polygon fill="midnightblue" stroke="midnightblue" points="819.5,-31.3776 816,-21.3776 812.5,-31.3776 819.5,-31.3776"/>
</g>
<!-- Node17 -->
<g id="node33" class="node"><title>Node17</title>
<polygon fill="white" stroke="#bfbfbf" points="861.5,-1 861.5,-21 908.5,-21 908.5,-1 861.5,-1"/>
<text text-anchor="middle" x="885" y="-8" font-family="FreeSans.ttf" font-size="10.00">vector</text>
</g>
<!-- Node3&#45;&gt;Node17 -->
<g id="edge32" class="edge"><title>Node3&#45;&gt;Node17</title>
<path fill="none" stroke="midnightblue" d="M828.019,-58.8972C838.183,-50.3532 852.959,-37.933 864.917,-27.8813"/>
<polygon fill="midnightblue" stroke="midnightblue" points="867.251,-30.4914 872.654,-21.3776 862.747,-25.133 867.251,-30.4914"/>
</g>
<!-- Node18 -->
<g id="node35" class="node"><title>Node18</title>
<polygon fill="white" stroke="#bfbfbf" points="926,-1 926,-21 994,-21 994,-1 926,-1"/>
<text text-anchor="middle" x="960" y="-8" font-family="FreeSans.ttf" font-size="10.00">arpa/inet.h</text>
</g>
<!-- Node3&#45;&gt;Node18 -->
<g id="edge34" class="edge"><title>Node3&#45;&gt;Node18</title>
<path fill="none" stroke="midnightblue" d="M841.083,-58.8972C864.376,-49.5152 899.273,-35.4593 925.247,-24.9979"/>
<polygon fill="midnightblue" stroke="midnightblue" points="926.753,-28.1644 934.721,-21.1817 924.138,-21.6713 926.753,-28.1644"/>
</g>
<!-- Node19 -->
<g id="node37" class="node"><title>Node19</title>
<polygon fill="white" stroke="#bfbfbf" points="1012,-1 1012,-21 1090,-21 1090,-1 1012,-1"/>
<text text-anchor="middle" x="1051" y="-8" font-family="FreeSans.ttf" font-size="10.00">arpa/telnet.h</text>
</g>
<!-- Node3&#45;&gt;Node19 -->
<g id="edge36" class="edge"><title>Node3&#45;&gt;Node19</title>
<path fill="none" stroke="midnightblue" d="M856.131,-59.0953C896.508,-49.1299 958.828,-33.7489 1002.08,-23.0746"/>
<polygon fill="midnightblue" stroke="midnightblue" points="1002.95,-26.4649 1011.82,-20.6707 1001.27,-19.6689 1002.95,-26.4649"/>
</g>
<!-- Node20 -->
<g id="node39" class="node"><title>Node20</title>
<polygon fill="white" stroke="#bfbfbf" points="1107.5,-1 1107.5,-21 1160.5,-21 1160.5,-1 1107.5,-1"/>
<text text-anchor="middle" x="1134" y="-8" font-family="FreeSans.ttf" font-size="10.00">dirent.h</text>
</g>
<!-- Node3&#45;&gt;Node20 -->
<g id="edge38" class="edge"><title>Node3&#45;&gt;Node20</title>
<path fill="none" stroke="midnightblue" d="M856.19,-64.1278C909.434,-57.2792 1006.38,-43.4465 1097.43,-22.1541"/>
<polygon fill="midnightblue" stroke="midnightblue" points="1098.43,-25.5126 1107.35,-19.7969 1096.82,-18.702 1098.43,-25.5126"/>
</g>
<!-- Node21 -->
<g id="node41" class="node"><title>Node21</title>
<polygon fill="white" stroke="#bfbfbf" points="1178,-1 1178,-21 1226,-21 1226,-1 1178,-1"/>
<text text-anchor="middle" x="1202" y="-8" font-family="FreeSans.ttf" font-size="10.00">dlfcn.h</text>
</g>
<!-- Node3&#45;&gt;Node21 -->
<g id="edge40" class="edge"><title>Node3&#45;&gt;Node21</title>
<path fill="none" stroke="midnightblue" d="M856.146,-66.1438C920.305,-61.0409 1049.92,-48.5268 1168.06,-21.8668"/>
<polygon fill="midnightblue" stroke="midnightblue" points="1169.04,-25.2346 1178,-19.5846 1167.47,-18.4122 1169.04,-25.2346"/>
</g>
<!-- Node22 -->
<g id="node43" class="node"><title>Node22</title>
<polygon fill="white" stroke="#bfbfbf" points="1243.5,-1 1243.5,-21 1294.5,-21 1294.5,-1 1243.5,-1"/>
<text text-anchor="middle" x="1269" y="-8" font-family="FreeSans.ttf" font-size="10.00">errno.h</text>
</g>
<!-- Node3&#45;&gt;Node22 -->
<g id="edge42" class="edge"><title>Node3&#45;&gt;Node22</title>
<path fill="none" stroke="midnightblue" d="M856.002,-67.1933C929.368,-63.3036 1090.35,-52.0944 1233.33,-22.0541"/>
<polygon fill="midnightblue" stroke="midnightblue" points="1234.11,-25.4668 1243.16,-19.9535 1232.65,-18.6215 1234.11,-25.4668"/>
</g>
<!-- Node23 -->
<g id="node45" class="node"><title>Node23</title>
<polygon fill="white" stroke="#bfbfbf" points="1312,-1 1312,-21 1358,-21 1358,-1 1312,-1"/>
<text text-anchor="middle" x="1335" y="-8" font-family="FreeSans.ttf" font-size="10.00">fcntl.h</text>
</g>
<!-- Node3&#45;&gt;Node23 -->
<g id="edge44" class="edge"><title>Node3&#45;&gt;Node23</title>
<path fill="none" stroke="midnightblue" d="M856.26,-68.2987C938.649,-66.1833 1132.32,-57.7212 1301.91,-21.8174"/>
<polygon fill="midnightblue" stroke="midnightblue" points="1302.72,-25.2232 1311.76,-19.6952 1301.25,-18.3803 1302.72,-25.2232"/>
</g>
<!-- Node24 -->
<g id="node47" class="node"><title>Node24</title>
<polygon fill="white" stroke="#bfbfbf" points="1375.5,-1 1375.5,-21 1440.5,-21 1440.5,-1 1375.5,-1"/>
<text text-anchor="middle" x="1408" y="-8" font-family="FreeSans.ttf" font-size="10.00">memory.h</text>
</g>
<!-- Node3&#45;&gt;Node24 -->
<g id="edge46" class="edge"><title>Node3&#45;&gt;Node24</title>
<path fill="none" stroke="midnightblue" d="M856.071,-68.0087C945.862,-65.2687 1170.03,-55.5397 1365.57,-22.011"/>
<polygon fill="midnightblue" stroke="midnightblue" points="1366.19,-25.4548 1375.44,-20.2925 1364.99,-18.5584 1366.19,-25.4548"/>
</g>
<!-- Node25 -->
<g id="node49" class="node"><title>Node25</title>
<polygon fill="white" stroke="#bfbfbf" points="1457.5,-1 1457.5,-21 1510.5,-21 1510.5,-1 1457.5,-1"/>
<text text-anchor="middle" x="1484" y="-8" font-family="FreeSans.ttf" font-size="10.00">netdb.h</text>
</g>
<!-- Node3&#45;&gt;Node25 -->
<g id="edge48" class="edge"><title>Node3&#45;&gt;Node25</title>
<path fill="none" stroke="midnightblue" d="M856.356,-67.2212C973.964,-61.8499 1315.86,-44.8587 1447.21,-21.9278"/>
<polygon fill="midnightblue" stroke="midnightblue" points="1448.21,-25.3031 1457.41,-20.0518 1446.94,-18.4186 1448.21,-25.3031"/>
</g>
<!-- Node26 -->
<g id="node51" class="node"><title>Node26</title>
<polygon fill="white" stroke="#bfbfbf" points="1527.5,-1 1527.5,-21 1590.5,-21 1590.5,-1 1527.5,-1"/>
<text text-anchor="middle" x="1559" y="-8" font-family="FreeSans.ttf" font-size="10.00">sys/stat.h</text>
</g>
<!-- Node3&#45;&gt;Node26 -->
<g id="edge50" class="edge"><title>Node3&#45;&gt;Node26</title>
<path fill="none" stroke="midnightblue" d="M856.137,-67.3825C982.375,-62.1317 1371.14,-44.6736 1517.17,-21.9937"/>
<polygon fill="midnightblue" stroke="midnightblue" points="1517.95,-25.413 1527.25,-20.3518 1516.82,-18.5039 1517.95,-25.413"/>
</g>
<!-- Node27 -->
<g id="node53" class="node"><title>Node27</title>
<polygon fill="white" stroke="#bfbfbf" points="1607.5,-1 1607.5,-21 1662.5,-21 1662.5,-1 1607.5,-1"/>
<text text-anchor="middle" x="1635" y="-8" font-family="FreeSans.ttf" font-size="10.00">unistd.h</text>
</g>
<!-- Node3&#45;&gt;Node27 -->
<g id="edge52" class="edge"><title>Node3&#45;&gt;Node27</title>
<path fill="none" stroke="midnightblue" d="M856.29,-67.8408C992.292,-63.7353 1434.52,-48.7703 1596.96,-21.971"/>
<polygon fill="midnightblue" stroke="midnightblue" points="1598,-25.3442 1607.25,-20.1887 1596.8,-18.447 1598,-25.3442"/>
</g>
<!-- Node34 -->
<g id="node67" class="node"><title>Node34</title>
<a xlink:href="handler_8h.xhtml" target="_top" xlink:title="The Handler namespace.">
<polygon fill="white" stroke="black" points="1679.5,-1 1679.5,-21 1740.5,-21 1740.5,-1 1679.5,-1"/>
<text text-anchor="middle" x="1710" y="-8" font-family="FreeSans.ttf" font-size="10.00">handler.h</text>
</a>
</g>
<!-- Node33&#45;&gt;Node34 -->
<g id="edge66" class="edge"><title>Node33&#45;&gt;Node34</title>
<path fill="none" stroke="midnightblue" d="M1770.28,-58.8972C1759.53,-50.3532 1743.9,-37.933 1731.25,-27.8813"/>
<polygon fill="midnightblue" stroke="midnightblue" points="1733.07,-24.858 1723.06,-21.3776 1728.71,-30.3388 1733.07,-24.858"/>
</g>
<!-- Node35 -->
<g id="node69" class="node"><title>Node35</title>
<a xlink:href="server_8h.xhtml" target="_top" xlink:title="The Server namespace.">
<polygon fill="white" stroke="black" points="1757.5,-1 1757.5,-21 1812.5,-21 1812.5,-1 1757.5,-1"/>
<text text-anchor="middle" x="1785" y="-8" font-family="FreeSans.ttf" font-size="10.00">server.h</text>
</a>
</g>
<!-- Node33&#45;&gt;Node35 -->
<g id="edge68" class="edge"><title>Node33&#45;&gt;Node35</title>
<path fill="none" stroke="midnightblue" d="M1783.35,-58.8972C1783.61,-51.339 1783.97,-40.7476 1784.29,-31.4458"/>
<polygon fill="midnightblue" stroke="midnightblue" points="1787.8,-31.4923 1784.64,-21.3776 1780.8,-31.251 1787.8,-31.4923"/>
</g>
<!-- Node36 -->
<g id="node71" class="node"><title>Node36</title>
<a xlink:href="telopt_8h.xhtml" target="_top" xlink:title="The telopt namespace.">
<polygon fill="white" stroke="black" points="1829.5,-1 1829.5,-21 1882.5,-21 1882.5,-1 1829.5,-1"/>
<text text-anchor="middle" x="1856" y="-8" font-family="FreeSans.ttf" font-size="10.00">telopt.h</text>
</a>
</g>
<!-- Node33&#45;&gt;Node36 -->
<g id="edge70" class="edge"><title>Node33&#45;&gt;Node36</title>
<path fill="none" stroke="midnightblue" d="M1795.72,-58.8972C1806.47,-50.3532 1822.1,-37.933 1834.75,-27.8813"/>
<polygon fill="midnightblue" stroke="midnightblue" points="1837.29,-30.3388 1842.94,-21.3776 1832.93,-24.858 1837.29,-30.3388"/>
</g>
<!-- Node33&#45;&gt;Node37 -->
<g id="edge72" class="edge"><title>Node33&#45;&gt;Node37</title>
<path fill="none" stroke="midnightblue" d="M1807.56,-58.8972C1830.93,-49.2849 1866.22,-34.7666 1891.83,-24.2343"/>
<polygon fill="midnightblue" stroke="midnightblue" points="1893.2,-27.4525 1901.12,-20.4114 1890.54,-20.9788 1893.2,-27.4525"/>
</g>
</g>
</svg>
