<?xml version="1.0" encoding="UTF-8" standalone="no"?>
<!DOCTYPE svg PUBLIC "-//W3C//DTD SVG 1.1//EN"
 "http://www.w3.org/Graphics/SVG/1.1/DTD/svg11.dtd">
<!-- Generated by graphviz version 2.26.3 (20100126.1600)
 -->
<!-- Title: G Pages: 1 -->
<!--zoomable 204 -->
<svg id="main" version="1.1" xmlns="http://www.w3.org/2000/svg" xmlns:xlink="http://www.w3.org/1999/xlink" xml:space="preserve" onload="init(evt)">
        <defs>
                <circle id="rim" cx="0" cy="0" r="7"/>
                <circle id="rim2" cx="0" cy="0" r="3.5"/>
                <g id="zoomPlus">
                        <use xlink:href="#rim" fill="#404040">
                                <set attributeName="fill" to="#808080" begin="zoomplus.mouseover" end="zoomplus.mouseout"/>
                        </use>
                        <path d="M-4,0h8M0,-4v8" fill="none" stroke="white" stroke-width="1.5" pointer-events="none"/>
                </g>
                <g id="zoomMin">
                        <use xlink:href="#rim" fill="#404040">
                                <set attributeName="fill" to="#808080" begin="zoomminus.mouseover" end="zoomminus.mouseout"/>
                        </use>
                        <path d="M-4,0h8" fill="none" stroke="white" stroke-width="1.5" pointer-events="none"/>
                </g>
                <g id="dirArrow">
                        <path fill="none" stroke="white" stroke-width="1.5" d="M0,-3.0v7 M-2.5,-0.5L0,-3.0L2.5,-0.5"/>
                </g>
               <g id="resetDef">
                       <use xlink:href="#rim2" fill="#404040">
                               <set attributeName="fill" to="#808080" begin="reset.mouseover" end="reset.mouseout"/>
                       </use>
               </g>
        </defs>

<script type="text/javascript">
var viewWidth = 1190;
var viewHeight = 204;
var sectionId = 'dynsection-0';
</script>
<script xlink:href="svgpan.js"/>
<svg id="graph" class="graph">
<g id="viewport">
<title>G</title>
<polygon fill="white" stroke="white" points="-4,5 -4,-200 1187,-200 1187,5 -4,5"/>
<!-- Node1 -->
<g id="node1" class="node"><title>Node1</title>
<polygon fill="#bfbfbf" stroke="black" points="747,-174.5 747,-195.5 803,-195.5 803,-174.5 747,-174.5"/>
<text text-anchor="middle" x="775" y="-182.5" font-family="FreeSans.ttf" font-size="10.00">utils.cpp</text>
</g>
<!-- Node2 -->
<g id="node3" class="node"><title>Node2</title>
<a xlink:href="includes_8h.xhtml" target="_top" xlink:title="All non&#45;system includes that need to be within each .cpp file.">
<polygon fill="white" stroke="black" points="637,-116.5 637,-137.5 711,-137.5 711,-116.5 637,-116.5"/>
<text text-anchor="middle" x="674" y="-124.5" font-family="FreeSans.ttf" font-size="10.00">h/includes.h</text>
</a>
</g>
<!-- Node1&#45;&gt;Node2 -->
<g id="edge2" class="edge"><title>Node1&#45;&gt;Node2</title>
<path fill="none" stroke="midnightblue" d="M756.475,-174.362C741.099,-165.532 719.004,-152.844 701.553,-142.822"/>
<polygon fill="midnightblue" stroke="midnightblue" points="702.822,-139.515 692.408,-137.571 699.336,-145.586 702.822,-139.515"/>
</g>
<!-- Node16 -->
<g id="node31" class="node"><title>Node16</title>
<a xlink:href="utils_8h.xhtml" target="_top" xlink:title="The Utils namespace.">
<polygon fill="white" stroke="black" points="789.5,-58.5 789.5,-79.5 834.5,-79.5 834.5,-58.5 789.5,-58.5"/>
<text text-anchor="middle" x="812" y="-66.5" font-family="FreeSans.ttf" font-size="10.00">utils.h</text>
</a>
</g>
<!-- Node1&#45;&gt;Node16 -->
<g id="edge52" class="edge"><title>Node1&#45;&gt;Node16</title>
<path fill="none" stroke="midnightblue" d="M777.641,-174.147C781.048,-160.473 787.334,-136.305 794,-116 796.913,-107.128 800.531,-97.4716 803.758,-89.2328"/>
<polygon fill="midnightblue" stroke="midnightblue" points="807.098,-90.3055 807.553,-79.7204 800.596,-87.7114 807.098,-90.3055"/>
</g>
<!-- Node26 -->
<g id="node51" class="node"><title>Node26</title>
<a xlink:href="class_8h.xhtml" target="_top" xlink:title="All class declarations.">
<polygon fill="white" stroke="black" points="802.5,-116.5 802.5,-137.5 861.5,-137.5 861.5,-116.5 802.5,-116.5"/>
<text text-anchor="middle" x="832" y="-124.5" font-family="FreeSans.ttf" font-size="10.00">h/class.h</text>
</a>
</g>
<!-- Node1&#45;&gt;Node26 -->
<g id="edge50" class="edge"><title>Node1&#45;&gt;Node26</title>
<path fill="none" stroke="midnightblue" d="M785.455,-174.362C793.57,-166.104 805.001,-154.472 814.504,-144.803"/>
<polygon fill="midnightblue" stroke="midnightblue" points="817.099,-147.156 821.612,-137.571 812.106,-142.25 817.099,-147.156"/>
</g>
<!-- Node3 -->
<g id="node5" class="node"><title>Node3</title>
<a xlink:href="sysincludes_8h.xhtml" target="_top" xlink:title="All system standard includes that are used within NAMS.">
<polygon fill="white" stroke="black" points="225,-58.5 225,-79.5 305,-79.5 305,-58.5 225,-58.5"/>
<text text-anchor="middle" x="265" y="-66.5" font-family="FreeSans.ttf" font-size="10.00">sysincludes.h</text>
</a>
</g>
<!-- Node2&#45;&gt;Node3 -->
<g id="edge4" class="edge"><title>Node2&#45;&gt;Node3</title>
<path fill="none" stroke="midnightblue" d="M636.983,-121.751C563.364,-111.311 398.515,-87.9337 315.218,-76.1214"/>
<polygon fill="midnightblue" stroke="midnightblue" points="315.626,-72.6443 305.233,-74.7055 314.643,-79.5749 315.626,-72.6443"/>
</g>
<!-- Node11 -->
<g id="node21" class="node"><title>Node11</title>
<a xlink:href="limits_8h.xhtml" target="_top" xlink:title="Custom defined numeric types and system limits.">
<polygon fill="white" stroke="black" points="499.5,-58.5 499.5,-79.5 550.5,-79.5 550.5,-58.5 499.5,-58.5"/>
<text text-anchor="middle" x="525" y="-66.5" font-family="FreeSans.ttf" font-size="10.00">limits.h</text>
</a>
</g>
<!-- Node2&#45;&gt;Node11 -->
<g id="edge20" class="edge"><title>Node2&#45;&gt;Node11</title>
<path fill="none" stroke="midnightblue" d="M647.017,-116.497C622.668,-107.018 586.697,-93.0162 560.115,-82.6688"/>
<polygon fill="midnightblue" stroke="midnightblue" points="561.374,-79.4031 550.785,-79.0371 558.834,-85.9263 561.374,-79.4031"/>
</g>
<!-- Node13 -->
<g id="node25" class="node"><title>Node13</title>
<a xlink:href="macros_8h.xhtml" target="_top" xlink:title="All pre&#45;processor macros within NAMS and select reference values.">
<polygon fill="white" stroke="black" points="568,-58.5 568,-79.5 630,-79.5 630,-58.5 568,-58.5"/>
<text text-anchor="middle" x="599" y="-66.5" font-family="FreeSans.ttf" font-size="10.00">macros.h</text>
</a>
</g>
<!-- Node2&#45;&gt;Node13 -->
<g id="edge24" class="edge"><title>Node2&#45;&gt;Node13</title>
<path fill="none" stroke="midnightblue" d="M660.244,-116.362C649.249,-107.859 633.627,-95.7785 620.914,-85.9466"/>
<polygon fill="midnightblue" stroke="midnightblue" points="622.721,-82.9195 612.669,-79.5707 618.438,-88.4569 622.721,-82.9195"/>
</g>
<!-- Node14 -->
<g id="node27" class="node"><title>Node14</title>
<a xlink:href="enum_8h.xhtml" target="_top" xlink:title="All numerical and boolean defines for every class and namespace.">
<polygon fill="white" stroke="black" points="647.5,-58.5 647.5,-79.5 700.5,-79.5 700.5,-58.5 647.5,-58.5"/>
<text text-anchor="middle" x="674" y="-66.5" font-family="FreeSans.ttf" font-size="10.00">enum.h</text>
</a>
</g>
<!-- Node2&#45;&gt;Node14 -->
<g id="edge26" class="edge"><title>Node2&#45;&gt;Node14</title>
<path fill="none" stroke="midnightblue" d="M674,-116.362C674,-108.922 674,-98.7427 674,-89.7276"/>
<polygon fill="midnightblue" stroke="midnightblue" points="677.5,-89.5706 674,-79.5707 670.5,-89.5707 677.5,-89.5706"/>
</g>
<!-- Node15 -->
<g id="node29" class="node"><title>Node15</title>
<a xlink:href="config_8h.xhtml" target="_top" xlink:title="NAMS configuration options.">
<polygon fill="white" stroke="black" points="718,-58.5 718,-79.5 772,-79.5 772,-58.5 718,-58.5"/>
<text text-anchor="middle" x="745" y="-66.5" font-family="FreeSans.ttf" font-size="10.00">config.h</text>
</a>
</g>
<!-- Node2&#45;&gt;Node15 -->
<g id="edge28" class="edge"><title>Node2&#45;&gt;Node15</title>
<path fill="none" stroke="midnightblue" d="M687.022,-116.362C697.431,-107.859 712.219,-95.7785 724.255,-85.9466"/>
<polygon fill="midnightblue" stroke="midnightblue" points="726.53,-88.6077 732.06,-79.5707 722.101,-83.1866 726.53,-88.6077"/>
</g>
<!-- Node2&#45;&gt;Node16 -->
<g id="edge30" class="edge"><title>Node2&#45;&gt;Node16</title>
<path fill="none" stroke="midnightblue" d="M698.991,-116.497C721.756,-106.929 755.49,-92.7506 780.175,-82.3758"/>
<polygon fill="midnightblue" stroke="midnightblue" points="781.617,-85.5662 789.48,-78.465 778.905,-79.113 781.617,-85.5662"/>
</g>
<!-- Node4 -->
<g id="node7" class="node"><title>Node4</title>
<polygon fill="white" stroke="#bfbfbf" points="0,-0.5 0,-21.5 62,-21.5 62,-0.5 0,-0.5"/>
<text text-anchor="middle" x="31" y="-8.5" font-family="FreeSans.ttf" font-size="10.00">algorithm</text>
</g>
<!-- Node3&#45;&gt;Node4 -->
<g id="edge6" class="edge"><title>Node3&#45;&gt;Node4</title>
<path fill="none" stroke="midnightblue" d="M224.783,-59.6366C187.558,-50.8849 130.433,-37.2413 72.1585,-22.2531"/>
<polygon fill="midnightblue" stroke="midnightblue" points="72.9761,-18.8494 62.4185,-19.738 71.2258,-25.6271 72.9761,-18.8494"/>
</g>
<!-- Node5 -->
<g id="node9" class="node"><title>Node5</title>
<polygon fill="white" stroke="#bfbfbf" points="80,-0.5 80,-21.5 130,-21.5 130,-0.5 80,-0.5"/>
<text text-anchor="middle" x="105" y="-8.5" font-family="FreeSans.ttf" font-size="10.00">chrono</text>
</g>
<!-- Node3&#45;&gt;Node5 -->
<g id="edge8" class="edge"><title>Node3&#45;&gt;Node5</title>
<path fill="none" stroke="midnightblue" d="M236.025,-58.4966C208.958,-48.6849 168.517,-34.025 139.732,-23.5902"/>
<polygon fill="midnightblue" stroke="midnightblue" points="140.671,-20.208 130.077,-20.0904 138.285,-26.7889 140.671,-20.208"/>
</g>
<!-- Node6 -->
<g id="node11" class="node"><title>Node6</title>
<polygon fill="white" stroke="#bfbfbf" points="148,-0.5 148,-21.5 186,-21.5 186,-0.5 148,-0.5"/>
<text text-anchor="middle" x="167" y="-8.5" font-family="FreeSans.ttf" font-size="10.00">map</text>
</g>
<!-- Node3&#45;&gt;Node6 -->
<g id="edge10" class="edge"><title>Node3&#45;&gt;Node6</title>
<path fill="none" stroke="midnightblue" d="M247.025,-58.3619C232.106,-49.532 210.667,-36.844 193.734,-26.8224"/>
<polygon fill="midnightblue" stroke="midnightblue" points="195.249,-23.6519 184.861,-21.5707 191.684,-29.6759 195.249,-23.6519"/>
</g>
<!-- Node7 -->
<g id="node13" class="node"><title>Node7</title>
<polygon fill="white" stroke="#bfbfbf" points="203.5,-0.5 203.5,-21.5 250.5,-21.5 250.5,-0.5 203.5,-0.5"/>
<text text-anchor="middle" x="227" y="-8.5" font-family="FreeSans.ttf" font-size="10.00">vector</text>
</g>
<!-- Node3&#45;&gt;Node7 -->
<g id="edge12" class="edge"><title>Node3&#45;&gt;Node7</title>
<path fill="none" stroke="midnightblue" d="M258.03,-58.3619C252.834,-50.4313 245.599,-39.3885 239.422,-29.9606"/>
<polygon fill="midnightblue" stroke="midnightblue" points="242.334,-28.0172 233.926,-21.5707 236.478,-31.8534 242.334,-28.0172"/>
</g>
<!-- Node8 -->
<g id="node15" class="node"><title>Node8</title>
<polygon fill="white" stroke="#bfbfbf" points="268,-0.5 268,-21.5 336,-21.5 336,-0.5 268,-0.5"/>
<text text-anchor="middle" x="302" y="-8.5" font-family="FreeSans.ttf" font-size="10.00">arpa/inet.h</text>
</g>
<!-- Node3&#45;&gt;Node8 -->
<g id="edge14" class="edge"><title>Node3&#45;&gt;Node8</title>
<path fill="none" stroke="midnightblue" d="M271.786,-58.3619C276.793,-50.5131 283.745,-39.6159 289.718,-30.2527"/>
<polygon fill="midnightblue" stroke="midnightblue" points="292.829,-31.8837 295.257,-21.5707 286.928,-28.1189 292.829,-31.8837"/>
</g>
<!-- Node9 -->
<g id="node17" class="node"><title>Node9</title>
<polygon fill="white" stroke="#bfbfbf" points="353.5,-0.5 353.5,-21.5 404.5,-21.5 404.5,-0.5 353.5,-0.5"/>
<text text-anchor="middle" x="379" y="-8.5" font-family="FreeSans.ttf" font-size="10.00">errno.h</text>
</g>
<!-- Node3&#45;&gt;Node9 -->
<g id="edge16" class="edge"><title>Node3&#45;&gt;Node9</title>
<path fill="none" stroke="midnightblue" d="M285.645,-58.4966C303.37,-49.4786 329.145,-36.3649 349.123,-26.2006"/>
<polygon fill="midnightblue" stroke="midnightblue" points="350.798,-29.2753 358.124,-21.6212 347.624,-23.0364 350.798,-29.2753"/>
</g>
<!-- Node10 -->
<g id="node19" class="node"><title>Node10</title>
<polygon fill="white" stroke="#bfbfbf" points="421.5,-0.5 421.5,-21.5 486.5,-21.5 486.5,-0.5 421.5,-0.5"/>
<text text-anchor="middle" x="454" y="-8.5" font-family="FreeSans.ttf" font-size="10.00">memory.h</text>
</g>
<!-- Node3&#45;&gt;Node10 -->
<g id="edge18" class="edge"><title>Node3&#45;&gt;Node10</title>
<path fill="none" stroke="midnightblue" d="M299.226,-58.4966C330.789,-48.8106 377.749,-34.3999 411.659,-23.9934"/>
<polygon fill="midnightblue" stroke="midnightblue" points="412.76,-27.3169 421.293,-21.0371 410.706,-20.625 412.76,-27.3169"/>
</g>
<!-- Node12 -->
<g id="node23" class="node"><title>Node12</title>
<polygon fill="white" stroke="#bfbfbf" points="504,-0.5 504,-21.5 546,-21.5 546,-0.5 504,-0.5"/>
<text text-anchor="middle" x="525" y="-8.5" font-family="FreeSans.ttf" font-size="10.00">limits</text>
</g>
<!-- Node11&#45;&gt;Node12 -->
<g id="edge22" class="edge"><title>Node11&#45;&gt;Node12</title>
<path fill="none" stroke="midnightblue" d="M525,-58.3619C525,-50.9219 525,-40.7427 525,-31.7276"/>
<polygon fill="midnightblue" stroke="midnightblue" points="528.5,-31.5706 525,-21.5707 521.5,-31.5707 528.5,-31.5706"/>
</g>
<!-- Node17 -->
<g id="node33" class="node"><title>Node17</title>
<polygon fill="white" stroke="#bfbfbf" points="564,-0.5 564,-21.5 608,-21.5 608,-0.5 564,-0.5"/>
<text text-anchor="middle" x="586" y="-8.5" font-family="FreeSans.ttf" font-size="10.00">bitset</text>
</g>
<!-- Node16&#45;&gt;Node17 -->
<g id="edge32" class="edge"><title>Node16&#45;&gt;Node17</title>
<path fill="none" stroke="midnightblue" d="M789.419,-60.62C786.601,-59.6831 783.745,-58.7851 781,-58 712.335,-38.3641 690.605,-42.132 618.297,-22.1121"/>
<polygon fill="midnightblue" stroke="midnightblue" points="618.819,-18.6222 608.243,-19.2674 616.913,-25.3578 618.819,-18.6222"/>
</g>
<!-- Node18 -->
<g id="node35" class="node"><title>Node18</title>
<polygon fill="white" stroke="#bfbfbf" points="625.5,-0.5 625.5,-21.5 678.5,-21.5 678.5,-0.5 625.5,-0.5"/>
<text text-anchor="middle" x="652" y="-8.5" font-family="FreeSans.ttf" font-size="10.00">cstdarg</text>
</g>
<!-- Node16&#45;&gt;Node18 -->
<g id="edge34" class="edge"><title>Node16&#45;&gt;Node18</title>
<path fill="none" stroke="midnightblue" d="M789.415,-60.813C763.143,-51.2893 719.41,-35.4361 688.341,-24.1736"/>
<polygon fill="midnightblue" stroke="midnightblue" points="689.331,-20.8097 678.737,-20.6921 686.945,-27.3906 689.331,-20.8097"/>
</g>
<!-- Node19 -->
<g id="node37" class="node"><title>Node19</title>
<polygon fill="white" stroke="#bfbfbf" points="695.5,-0.5 695.5,-21.5 740.5,-21.5 740.5,-0.5 695.5,-0.5"/>
<text text-anchor="middle" x="718" y="-8.5" font-family="FreeSans.ttf" font-size="10.00">cstdio</text>
</g>
<!-- Node16&#45;&gt;Node19 -->
<g id="edge36" class="edge"><title>Node16&#45;&gt;Node19</title>
<path fill="none" stroke="midnightblue" d="M794.759,-58.3619C780.448,-49.532 759.885,-36.844 743.643,-26.8224"/>
<polygon fill="midnightblue" stroke="midnightblue" points="745.48,-23.8431 735.132,-21.5707 741.804,-29.8004 745.48,-23.8431"/>
</g>
<!-- Node20 -->
<g id="node39" class="node"><title>Node20</title>
<polygon fill="white" stroke="#bfbfbf" points="758,-0.5 758,-21.5 812,-21.5 812,-0.5 758,-0.5"/>
<text text-anchor="middle" x="785" y="-8.5" font-family="FreeSans.ttf" font-size="10.00">fstream</text>
</g>
<!-- Node16&#45;&gt;Node20 -->
<g id="edge38" class="edge"><title>Node16&#45;&gt;Node20</title>
<path fill="none" stroke="midnightblue" d="M807.048,-58.3619C803.47,-50.6766 798.532,-40.0686 794.236,-30.8399"/>
<polygon fill="midnightblue" stroke="midnightblue" points="797.314,-29.1594 789.921,-21.5707 790.968,-32.1136 797.314,-29.1594"/>
</g>
<!-- Node21 -->
<g id="node41" class="node"><title>Node21</title>
<polygon fill="white" stroke="#bfbfbf" points="829.5,-0.5 829.5,-21.5 888.5,-21.5 888.5,-0.5 829.5,-0.5"/>
<text text-anchor="middle" x="859" y="-8.5" font-family="FreeSans.ttf" font-size="10.00">iostream</text>
</g>
<!-- Node16&#45;&gt;Node21 -->
<g id="edge40" class="edge"><title>Node16&#45;&gt;Node21</title>
<path fill="none" stroke="midnightblue" d="M820.621,-58.3619C827.18,-50.2678 836.366,-38.9318 844.106,-29.3796"/>
<polygon fill="midnightblue" stroke="midnightblue" points="846.858,-31.5436 850.434,-21.5707 841.419,-27.1364 846.858,-31.5436"/>
</g>
<!-- Node22 -->
<g id="node43" class="node"><title>Node22</title>
<polygon fill="white" stroke="#bfbfbf" points="906,-0.5 906,-21.5 958,-21.5 958,-0.5 906,-0.5"/>
<text text-anchor="middle" x="932" y="-8.5" font-family="FreeSans.ttf" font-size="10.00">iterator</text>
</g>
<!-- Node16&#45;&gt;Node22 -->
<g id="edge42" class="edge"><title>Node16&#45;&gt;Node22</title>
<path fill="none" stroke="midnightblue" d="M833.731,-58.4966C852.474,-49.4378 879.767,-36.2462 900.836,-26.0628"/>
<polygon fill="midnightblue" stroke="midnightblue" points="902.545,-29.1242 910.025,-21.6212 899.498,-22.8217 902.545,-29.1242"/>
</g>
<!-- Node23 -->
<g id="node45" class="node"><title>Node23</title>
<polygon fill="white" stroke="#bfbfbf" points="976,-0.5 976,-21.5 1032,-21.5 1032,-0.5 976,-0.5"/>
<text text-anchor="middle" x="1004" y="-8.5" font-family="FreeSans.ttf" font-size="10.00">sstream</text>
</g>
<!-- Node16&#45;&gt;Node23 -->
<g id="edge44" class="edge"><title>Node16&#45;&gt;Node23</title>
<path fill="none" stroke="midnightblue" d="M834.779,-62.1189C867.218,-52.3194 927.121,-34.2239 966.255,-22.4021"/>
<polygon fill="midnightblue" stroke="midnightblue" points="967.41,-25.7095 975.971,-19.4672 965.386,-19.0085 967.41,-25.7095"/>
</g>
<!-- Node24 -->
<g id="node47" class="node"><title>Node24</title>
<polygon fill="white" stroke="#bfbfbf" points="1049.5,-0.5 1049.5,-21.5 1102.5,-21.5 1102.5,-0.5 1049.5,-0.5"/>
<text text-anchor="middle" x="1076" y="-8.5" font-family="FreeSans.ttf" font-size="10.00">dirent.h</text>
</g>
<!-- Node16&#45;&gt;Node24 -->
<g id="edge46" class="edge"><title>Node16&#45;&gt;Node24</title>
<path fill="none" stroke="midnightblue" d="M834.603,-65.1517C874.28,-58.2287 959.178,-42.6674 1039.55,-22.2098"/>
<polygon fill="midnightblue" stroke="midnightblue" points="1040.52,-25.5754 1049.33,-19.691 1038.77,-18.7968 1040.52,-25.5754"/>
</g>
<!-- Node25 -->
<g id="node49" class="node"><title>Node25</title>
<polygon fill="white" stroke="#bfbfbf" points="1119.5,-0.5 1119.5,-21.5 1182.5,-21.5 1182.5,-0.5 1119.5,-0.5"/>
<text text-anchor="middle" x="1151" y="-8.5" font-family="FreeSans.ttf" font-size="10.00">sys/stat.h</text>
</g>
<!-- Node16&#45;&gt;Node25 -->
<g id="edge48" class="edge"><title>Node16&#45;&gt;Node25</title>
<path fill="none" stroke="midnightblue" d="M834.665,-66.322C883.286,-60.3901 1001.34,-44.9881 1109.14,-22.2428"/>
<polygon fill="midnightblue" stroke="midnightblue" points="1110.16,-25.6047 1119.2,-20.0912 1108.69,-18.7594 1110.16,-25.6047"/>
</g>
</g>
</svg>
        <g id="navigator" transform="translate(0 0)" fill="#404254">
                <rect fill="#f2f5e9" fill-opacity="0.5" stroke="#606060" stroke-width=".5" x="0" y="0" width="60" height="60"/>
                <use id="zoomplus" xlink:href="#zoomPlus" x="17" y="9" onmousedown="handleZoom(evt,'in')"/>
                <use id="zoomminus" xlink:href="#zoomMin" x="42" y="9" onmousedown="handleZoom(evt,'out')"/>
                <use id="reset" xlink:href="#resetDef" x="30" y="36" onmousedown="handleReset()"/>
                <g id="arrowUp" xlink:href="#dirArrow" transform="translate(30 24)" onmousedown="handlePan(0,-1)">
                  <use xlink:href="#rim" fill="#404040">
                        <set attributeName="fill" to="#808080" begin="arrowUp.mouseover" end="arrowUp.mouseout"/>
                  </use>
                  <path fill="none" stroke="white" stroke-width="1.5" d="M0,-3.0v7 M-2.5,-0.5L0,-3.0L2.5,-0.5"/>
                </g>
                <g id="arrowRight" xlink:href="#dirArrow" transform="rotate(90) translate(36 -43)" onmousedown="handlePan(1,0)">
                  <use xlink:href="#rim" fill="#404040">
                        <set attributeName="fill" to="#808080" begin="arrowRight.mouseover" end="arrowRight.mouseout"/>
                  </use>
                  <path fill="none" stroke="white" stroke-width="1.5" d="M0,-3.0v7 M-2.5,-0.5L0,-3.0L2.5,-0.5"/>
                </g>
                <g id="arrowDown" xlink:href="#dirArrow" transform="rotate(180) translate(-30 -48)" onmousedown="handlePan(0,1)">
                  <use xlink:href="#rim" fill="#404040">
                        <set attributeName="fill" to="#808080" begin="arrowDown.mouseover" end="arrowDown.mouseout"/>
                  </use>
                  <path fill="none" stroke="white" stroke-width="1.5" d="M0,-3.0v7 M-2.5,-0.5L0,-3.0L2.5,-0.5"/>
                </g>
                <g id="arrowLeft" xlink:href="#dirArrow" transform="rotate(270) translate(-36 17)" onmousedown="handlePan(-1,0)">
                  <use xlink:href="#rim" fill="#404040">
                        <set attributeName="fill" to="#808080" begin="arrowLeft.mouseover" end="arrowLeft.mouseout"/>
                  </use>
                  <path fill="none" stroke="white" stroke-width="1.5" d="M0,-3.0v7 M-2.5,-0.5L0,-3.0L2.5,-0.5"/>
                </g>
        </g>
</svg>
