<?xml version="1.0" encoding="UTF-8" standalone="no"?>
<!DOCTYPE svg PUBLIC "-//W3C//DTD SVG 1.1//EN"
 "http://www.w3.org/Graphics/SVG/1.1/DTD/svg11.dtd">
<!-- Generated by graphviz version 2.26.3 (20100126.1600)
 -->
<!-- Title: G Pages: 1 -->
<!--zoomable 262 -->
<svg id="main" version="1.1" xmlns="http://www.w3.org/2000/svg" xmlns:xlink="http://www.w3.org/1999/xlink" xml:space="preserve" onload="init(evt)">
        <defs>
                <circle id="rim" cx="0" cy="0" r="7"/>
                <circle id="rim2" cx="0" cy="0" r="3.5"/>
                <g id="zoomPlus">
                        <use xlink:href="#rim" fill="#404040">
                                <set attributeName="fill" to="#808080" begin="zoomplus.mouseover" end="zoomplus.mouseout"/>
                        </use>
                        <path d="M-4,0h8M0,-4v8" fill="none" stroke="white" stroke-width="1.5" pointer-events="none"/>
                </g>
                <g id="zoomMin">
                        <use xlink:href="#rim" fill="#404040">
                                <set attributeName="fill" to="#808080" begin="zoomminus.mouseover" end="zoomminus.mouseout"/>
                        </use>
                        <path d="M-4,0h8" fill="none" stroke="white" stroke-width="1.5" pointer-events="none"/>
                </g>
                <g id="dirArrow">
                        <path fill="none" stroke="white" stroke-width="1.5" d="M0,-3.0v7 M-2.5,-0.5L0,-3.0L2.5,-0.5"/>
                </g>
               <g id="resetDef">
                       <use xlink:href="#rim2" fill="#404040">
                               <set attributeName="fill" to="#808080" begin="reset.mouseover" end="reset.mouseout"/>
                       </use>
               </g>
        </defs>

<script type="text/javascript">
var viewWidth = 1149;
var viewHeight = 262;
var sectionId = 'dynsection-0';
</script>
<script xlink:href="svgpan.js"/>
<svg id="graph" class="graph">
<g id="viewport">
<title>G</title>
<polygon fill="white" stroke="white" points="-4,5 -4,-258 1146.29,-258 1146.29,5 -4,5"/>
<!-- Node1 -->
<g id="node1" class="node"><title>Node1</title>
<polygon fill="#bfbfbf" stroke="black" points="312.288,-232.5 312.288,-253.5 368.288,-253.5 368.288,-232.5 312.288,-232.5"/>
<text text-anchor="middle" x="340.288" y="-240.5" font-family="FreeSans.ttf" font-size="10.00">utils.cpp</text>
</g>
<!-- Node2 -->
<g id="node3" class="node"><title>Node2</title>
<a xlink:href="includes_8h.xhtml" target="_top" xlink:title="All non&#45;system includes that need to be within each .cpp file.">
<polygon fill="white" stroke="black" points="303.288,-174.5 303.288,-195.5 377.288,-195.5 377.288,-174.5 303.288,-174.5"/>
<text text-anchor="middle" x="340.288" y="-182.5" font-family="FreeSans.ttf" font-size="10.00">h/includes.h</text>
</a>
</g>
<!-- Node1&#45;&gt;Node2 -->
<g id="edge2" class="edge"><title>Node1&#45;&gt;Node2</title>
<path fill="none" stroke="midnightblue" d="M340.288,-232.362C340.288,-224.922 340.288,-214.743 340.288,-205.728"/>
<polygon fill="midnightblue" stroke="midnightblue" points="343.788,-205.571 340.288,-195.571 336.788,-205.571 343.788,-205.571"/>
</g>
<!-- Node19 -->
<g id="node37" class="node"><title>Node19</title>
<a xlink:href="class_8h.xhtml" target="_top" xlink:title="All class declarations.">
<polygon fill="white" stroke="black" points="178.288,-0.5 178.288,-21.5 228.288,-21.5 228.288,-0.5 178.288,-0.5"/>
<text text-anchor="middle" x="203.288" y="-8.5" font-family="FreeSans.ttf" font-size="10.00">class.h</text>
</a>
</g>
<!-- Node1&#45;&gt;Node19 -->
<g id="edge62" class="edge"><title>Node1&#45;&gt;Node19</title>
<path fill="none" stroke="midnightblue" d="M312.235,-239.533C244.383,-229.444 72.0077,-193.235 4.28839,-80 -0.730155,-71.6084 -1.77912,-65.6675 4.28839,-58 24.3305,-32.6729 116.422,-19.6048 168.012,-14.1644"/>
<polygon fill="midnightblue" stroke="midnightblue" points="168.465,-17.6365 178.061,-13.147 167.759,-10.6721 168.465,-17.6365"/>
</g>
<!-- Node22 -->
<g id="node43" class="node"><title>Node22</title>
<a xlink:href="utils_8h.xhtml" target="_top" xlink:title="The Utils namespace.">
<polygon fill="white" stroke="black" points="772.788,-58.5 772.788,-79.5 817.788,-79.5 817.788,-58.5 772.788,-58.5"/>
<text text-anchor="middle" x="795.288" y="-66.5" font-family="FreeSans.ttf" font-size="10.00">utils.h</text>
</a>
</g>
<!-- Node1&#45;&gt;Node22 -->
<g id="edge64" class="edge"><title>Node1&#45;&gt;Node22</title>
<path fill="none" stroke="midnightblue" d="M368.541,-240.067C434.549,-232.23 602.439,-206.529 723.288,-138 746.161,-125.03 767.236,-103.164 780.596,-87.522"/>
<polygon fill="midnightblue" stroke="midnightblue" points="783.501,-89.5017 787.187,-79.5686 778.111,-85.0352 783.501,-89.5017"/>
</g>
<!-- Node3 -->
<g id="node5" class="node"><title>Node3</title>
<a xlink:href="sysincludes_8h.xhtml" target="_top" xlink:title="All system standard includes that are used within NAMS.">
<polygon fill="white" stroke="black" points="343.288,-116.5 343.288,-137.5 423.288,-137.5 423.288,-116.5 343.288,-116.5"/>
<text text-anchor="middle" x="383.288" y="-124.5" font-family="FreeSans.ttf" font-size="10.00">sysincludes.h</text>
</a>
</g>
<!-- Node2&#45;&gt;Node3 -->
<g id="edge4" class="edge"><title>Node2&#45;&gt;Node3</title>
<path fill="none" stroke="midnightblue" d="M348.175,-174.362C354.115,-166.35 362.411,-155.161 369.447,-145.67"/>
<polygon fill="midnightblue" stroke="midnightblue" points="372.308,-147.688 375.452,-137.571 366.684,-143.519 372.308,-147.688"/>
</g>
<!-- Node12 -->
<g id="node23" class="node"><title>Node12</title>
<a xlink:href="limits_8h.xhtml" target="_top" xlink:title="Custom defined numeric types and system limits.">
<polygon fill="white" stroke="black" points="496.788,-116.5 496.788,-137.5 547.788,-137.5 547.788,-116.5 496.788,-116.5"/>
<text text-anchor="middle" x="522.288" y="-124.5" font-family="FreeSans.ttf" font-size="10.00">limits.h</text>
</a>
</g>
<!-- Node2&#45;&gt;Node12 -->
<g id="edge22" class="edge"><title>Node2&#45;&gt;Node12</title>
<path fill="none" stroke="midnightblue" d="M373.247,-174.497C405.367,-164.261 454.045,-148.748 486.953,-138.261"/>
<polygon fill="midnightblue" stroke="midnightblue" points="488.159,-141.55 496.624,-135.179 486.033,-134.88 488.159,-141.55"/>
</g>
<!-- Node14 -->
<g id="node27" class="node"><title>Node14</title>
<a xlink:href="macros_8h.xhtml" target="_top" xlink:title="All pre&#45;processor macros within NAMS and select reference values.">
<polygon fill="white" stroke="black" points="121.288,-116.5 121.288,-137.5 183.288,-137.5 183.288,-116.5 121.288,-116.5"/>
<text text-anchor="middle" x="152.288" y="-124.5" font-family="FreeSans.ttf" font-size="10.00">macros.h</text>
</a>
</g>
<!-- Node2&#45;&gt;Node14 -->
<g id="edge26" class="edge"><title>Node2&#45;&gt;Node14</title>
<path fill="none" stroke="midnightblue" d="M306.243,-174.497C274.462,-164.692 226.988,-150.046 193.169,-139.612"/>
<polygon fill="midnightblue" stroke="midnightblue" points="194.169,-136.258 183.582,-136.654 192.106,-142.947 194.169,-136.258"/>
</g>
<!-- Node15 -->
<g id="node29" class="node"><title>Node15</title>
<a xlink:href="enum_8h.xhtml" target="_top" xlink:title="All numerical and boolean defines for every class and namespace.">
<polygon fill="white" stroke="black" points="200.788,-116.5 200.788,-137.5 253.788,-137.5 253.788,-116.5 200.788,-116.5"/>
<text text-anchor="middle" x="227.288" y="-124.5" font-family="FreeSans.ttf" font-size="10.00">enum.h</text>
</a>
</g>
<!-- Node2&#45;&gt;Node15 -->
<g id="edge28" class="edge"><title>Node2&#45;&gt;Node15</title>
<path fill="none" stroke="midnightblue" d="M319.825,-174.497C302.255,-165.479 276.706,-152.365 256.903,-142.201"/>
<polygon fill="midnightblue" stroke="midnightblue" points="258.476,-139.074 247.981,-137.621 255.28,-145.301 258.476,-139.074"/>
</g>
<!-- Node16 -->
<g id="node31" class="node"><title>Node16</title>
<a xlink:href="config_8h.xhtml" target="_top" xlink:title="NAMS configuration options.">
<polygon fill="white" stroke="black" points="271.288,-116.5 271.288,-137.5 325.288,-137.5 325.288,-116.5 271.288,-116.5"/>
<text text-anchor="middle" x="298.288" y="-124.5" font-family="FreeSans.ttf" font-size="10.00">config.h</text>
</a>
</g>
<!-- Node2&#45;&gt;Node16 -->
<g id="edge30" class="edge"><title>Node2&#45;&gt;Node16</title>
<path fill="none" stroke="midnightblue" d="M332.585,-174.362C326.842,-166.431 318.846,-155.389 312.019,-145.961"/>
<polygon fill="midnightblue" stroke="midnightblue" points="314.643,-143.617 305.943,-137.571 308.973,-147.723 314.643,-143.617"/>
</g>
<!-- Node17 -->
<g id="node33" class="node"><title>Node17</title>
<a xlink:href="namespace_8h.xhtml" target="_top" xlink:title="All namespace includes.">
<polygon fill="white" stroke="black" points="632.288,-116.5 632.288,-137.5 714.288,-137.5 714.288,-116.5 632.288,-116.5"/>
<text text-anchor="middle" x="673.288" y="-124.5" font-family="FreeSans.ttf" font-size="10.00">namespace.h</text>
</a>
</g>
<!-- Node2&#45;&gt;Node17 -->
<g id="edge32" class="edge"><title>Node2&#45;&gt;Node17</title>
<path fill="none" stroke="midnightblue" d="M377.518,-178.515C437.248,-168.112 554.609,-147.671 622.153,-135.906"/>
<polygon fill="midnightblue" stroke="midnightblue" points="622.896,-139.33 632.147,-134.166 621.695,-132.434 622.896,-139.33"/>
</g>
<!-- Node4 -->
<g id="node7" class="node"><title>Node4</title>
<polygon fill="white" stroke="#bfbfbf" points="249.288,-58.5 249.288,-79.5 311.288,-79.5 311.288,-58.5 249.288,-58.5"/>
<text text-anchor="middle" x="280.288" y="-66.5" font-family="FreeSans.ttf" font-size="10.00">algorithm</text>
</g>
<!-- Node3&#45;&gt;Node4 -->
<g id="edge6" class="edge"><title>Node3&#45;&gt;Node4</title>
<path fill="none" stroke="midnightblue" d="M364.397,-116.362C348.571,-107.45 325.766,-94.6087 307.894,-84.5447"/>
<polygon fill="midnightblue" stroke="midnightblue" points="309.491,-81.4276 299.06,-79.5707 306.057,-87.5271 309.491,-81.4276"/>
</g>
<!-- Node5 -->
<g id="node9" class="node"><title>Node5</title>
<polygon fill="white" stroke="#bfbfbf" points="329.288,-58.5 329.288,-79.5 379.288,-79.5 379.288,-58.5 329.288,-58.5"/>
<text text-anchor="middle" x="354.288" y="-66.5" font-family="FreeSans.ttf" font-size="10.00">chrono</text>
</g>
<!-- Node3&#45;&gt;Node5 -->
<g id="edge8" class="edge"><title>Node3&#45;&gt;Node5</title>
<path fill="none" stroke="midnightblue" d="M377.969,-116.362C374.086,-108.595 368.71,-97.8426 364.061,-88.5458"/>
<polygon fill="midnightblue" stroke="midnightblue" points="367.176,-86.9497 359.574,-79.5707 360.915,-90.0802 367.176,-86.9497"/>
</g>
<!-- Node6 -->
<g id="node11" class="node"><title>Node6</title>
<polygon fill="white" stroke="#bfbfbf" points="397.288,-58.5 397.288,-79.5 427.288,-79.5 427.288,-58.5 397.288,-58.5"/>
<text text-anchor="middle" x="412.288" y="-66.5" font-family="FreeSans.ttf" font-size="10.00">list</text>
</g>
<!-- Node3&#45;&gt;Node6 -->
<g id="edge10" class="edge"><title>Node3&#45;&gt;Node6</title>
<path fill="none" stroke="midnightblue" d="M388.607,-116.362C392.491,-108.595 397.867,-97.8426 402.515,-88.5458"/>
<polygon fill="midnightblue" stroke="midnightblue" points="405.661,-90.0802 407.003,-79.5707 399.4,-86.9497 405.661,-90.0802"/>
</g>
<!-- Node7 -->
<g id="node13" class="node"><title>Node7</title>
<polygon fill="white" stroke="#bfbfbf" points="445.288,-58.5 445.288,-79.5 483.288,-79.5 483.288,-58.5 445.288,-58.5"/>
<text text-anchor="middle" x="464.288" y="-66.5" font-family="FreeSans.ttf" font-size="10.00">map</text>
</g>
<!-- Node3&#45;&gt;Node7 -->
<g id="edge12" class="edge"><title>Node3&#45;&gt;Node7</title>
<path fill="none" stroke="midnightblue" d="M398.145,-116.362C410.134,-107.777 427.216,-95.5459 441.017,-85.6636"/>
<polygon fill="midnightblue" stroke="midnightblue" points="443.433,-88.2383 449.526,-79.5707 439.358,-82.5469 443.433,-88.2383"/>
</g>
<!-- Node8 -->
<g id="node15" class="node"><title>Node8</title>
<polygon fill="white" stroke="#bfbfbf" points="500.788,-58.5 500.788,-79.5 547.788,-79.5 547.788,-58.5 500.788,-58.5"/>
<text text-anchor="middle" x="524.288" y="-66.5" font-family="FreeSans.ttf" font-size="10.00">vector</text>
</g>
<!-- Node3&#45;&gt;Node8 -->
<g id="edge14" class="edge"><title>Node3&#45;&gt;Node8</title>
<path fill="none" stroke="midnightblue" d="M408.822,-116.497C431.802,-107.044 465.721,-93.0915 490.856,-82.7524"/>
<polygon fill="midnightblue" stroke="midnightblue" points="492.438,-85.8862 500.355,-78.8451 489.775,-79.4125 492.438,-85.8862"/>
</g>
<!-- Node9 -->
<g id="node17" class="node"><title>Node9</title>
<polygon fill="white" stroke="#bfbfbf" points="13.2884,-58.5 13.2884,-79.5 81.2884,-79.5 81.2884,-58.5 13.2884,-58.5"/>
<text text-anchor="middle" x="47.2884" y="-66.5" font-family="FreeSans.ttf" font-size="10.00">arpa/inet.h</text>
</g>
<!-- Node3&#45;&gt;Node9 -->
<g id="edge16" class="edge"><title>Node3&#45;&gt;Node9</title>
<path fill="none" stroke="midnightblue" d="M343.227,-117.752C340.208,-117.133 337.203,-116.541 334.288,-116 229.671,-96.5674 199.508,-101.305 91.4804,-80.0827"/>
<polygon fill="midnightblue" stroke="midnightblue" points="91.9737,-76.6122 81.4822,-78.0889 90.6046,-83.4771 91.9737,-76.6122"/>
</g>
<!-- Node10 -->
<g id="node19" class="node"><title>Node10</title>
<polygon fill="white" stroke="#bfbfbf" points="98.7884,-58.5 98.7884,-79.5 149.788,-79.5 149.788,-58.5 98.7884,-58.5"/>
<text text-anchor="middle" x="124.288" y="-66.5" font-family="FreeSans.ttf" font-size="10.00">errno.h</text>
</g>
<!-- Node3&#45;&gt;Node10 -->
<g id="edge18" class="edge"><title>Node3&#45;&gt;Node10</title>
<path fill="none" stroke="midnightblue" d="M343.191,-117.933C340.18,-117.272 337.187,-116.622 334.288,-116 259.272,-99.9091 237.208,-100.264 159.569,-80.1525"/>
<polygon fill="midnightblue" stroke="midnightblue" points="160.379,-76.7466 149.818,-77.5959 158.603,-83.5177 160.379,-76.7466"/>
</g>
<!-- Node11 -->
<g id="node21" class="node"><title>Node11</title>
<polygon fill="white" stroke="#bfbfbf" points="166.788,-58.5 166.788,-79.5 231.788,-79.5 231.788,-58.5 166.788,-58.5"/>
<text text-anchor="middle" x="199.288" y="-66.5" font-family="FreeSans.ttf" font-size="10.00">memory.h</text>
</g>
<!-- Node3&#45;&gt;Node11 -->
<g id="edge20" class="edge"><title>Node3&#45;&gt;Node11</title>
<path fill="none" stroke="midnightblue" d="M349.967,-116.497C319.653,-106.941 274.75,-92.7868 241.848,-82.4156"/>
<polygon fill="midnightblue" stroke="midnightblue" points="242.642,-78.996 232.052,-79.3277 240.537,-85.6722 242.642,-78.996"/>
</g>
<!-- Node13 -->
<g id="node25" class="node"><title>Node13</title>
<polygon fill="white" stroke="#bfbfbf" points="565.288,-58.5 565.288,-79.5 607.288,-79.5 607.288,-58.5 565.288,-58.5"/>
<text text-anchor="middle" x="586.288" y="-66.5" font-family="FreeSans.ttf" font-size="10.00">limits</text>
</g>
<!-- Node12&#45;&gt;Node13 -->
<g id="edge24" class="edge"><title>Node12&#45;&gt;Node13</title>
<path fill="none" stroke="midnightblue" d="M534.027,-116.362C543.229,-108.023 556.228,-96.2418 566.96,-86.5162"/>
<polygon fill="midnightblue" stroke="midnightblue" points="569.565,-88.8793 574.624,-79.5707 564.864,-83.6924 569.565,-88.8793"/>
</g>
<!-- Node18 -->
<g id="node35" class="node"><title>Node18</title>
<a xlink:href="handler_8h.xhtml" target="_top" xlink:title="The Handler namespace.">
<polygon fill="white" stroke="black" points="624.788,-58.5 624.788,-79.5 685.788,-79.5 685.788,-58.5 624.788,-58.5"/>
<text text-anchor="middle" x="655.288" y="-66.5" font-family="FreeSans.ttf" font-size="10.00">handler.h</text>
</a>
</g>
<!-- Node17&#45;&gt;Node18 -->
<g id="edge34" class="edge"><title>Node17&#45;&gt;Node18</title>
<path fill="none" stroke="midnightblue" d="M669.987,-116.362C667.627,-108.758 664.38,-98.294 661.537,-89.1349"/>
<polygon fill="midnightblue" stroke="midnightblue" points="664.876,-88.0839 658.569,-79.5707 658.19,-90.1587 664.876,-88.0839"/>
</g>
<!-- Node20 -->
<g id="node39" class="node"><title>Node20</title>
<a xlink:href="telopt_8h.xhtml" target="_top" xlink:title="The telopt namespace.">
<polygon fill="white" stroke="black" points="702.788,-58.5 702.788,-79.5 755.788,-79.5 755.788,-58.5 702.788,-58.5"/>
<text text-anchor="middle" x="729.288" y="-66.5" font-family="FreeSans.ttf" font-size="10.00">telopt.h</text>
</a>
</g>
<!-- Node17&#45;&gt;Node20 -->
<g id="edge38" class="edge"><title>Node17&#45;&gt;Node20</title>
<path fill="none" stroke="midnightblue" d="M683.56,-116.362C691.533,-108.104 702.763,-96.4725 712.099,-86.8029"/>
<polygon fill="midnightblue" stroke="midnightblue" points="714.654,-89.1958 719.082,-79.5707 709.618,-84.3336 714.654,-89.1958"/>
</g>
<!-- Node17&#45;&gt;Node22 -->
<g id="edge42" class="edge"><title>Node17&#45;&gt;Node22</title>
<path fill="none" stroke="midnightblue" d="M695.382,-116.497C714.522,-107.397 742.435,-94.1273 763.894,-83.9253"/>
<polygon fill="midnightblue" stroke="midnightblue" points="765.419,-87.0758 772.947,-79.6212 762.413,-80.7539 765.419,-87.0758"/>
</g>
<!-- Node18&#45;&gt;Node19 -->
<g id="edge36" class="edge"><title>Node18&#45;&gt;Node19</title>
<path fill="none" stroke="midnightblue" d="M624.744,-59.881C621.9,-59.1845 619.05,-58.5428 616.288,-58 478.218,-30.8571 310.874,-17.7953 238.953,-13.1111"/>
<polygon fill="midnightblue" stroke="midnightblue" points="238.85,-9.59754 228.648,-12.4552 238.405,-16.5834 238.85,-9.59754"/>
</g>
<!-- Node21 -->
<g id="node41" class="node"><title>Node21</title>
<polygon fill="white" stroke="#bfbfbf" points="427.288,-0.5 427.288,-21.5 505.288,-21.5 505.288,-0.5 427.288,-0.5"/>
<text text-anchor="middle" x="466.288" y="-8.5" font-family="FreeSans.ttf" font-size="10.00">arpa/telnet.h</text>
</g>
<!-- Node20&#45;&gt;Node21 -->
<g id="edge40" class="edge"><title>Node20&#45;&gt;Node21</title>
<path fill="none" stroke="midnightblue" d="M702.62,-60.295C699.819,-59.4776 697.003,-58.6959 694.288,-58 618.347,-38.5318 595.802,-39.0394 515.4,-22.1806"/>
<polygon fill="midnightblue" stroke="midnightblue" points="515.81,-18.6896 505.301,-20.036 514.356,-25.5369 515.81,-18.6896"/>
</g>
<!-- Node23 -->
<g id="node45" class="node"><title>Node23</title>
<polygon fill="white" stroke="#bfbfbf" points="1027.29,-0.5 1027.29,-21.5 1071.29,-21.5 1071.29,-0.5 1027.29,-0.5"/>
<text text-anchor="middle" x="1049.29" y="-8.5" font-family="FreeSans.ttf" font-size="10.00">bitset</text>
</g>
<!-- Node22&#45;&gt;Node23 -->
<g id="edge44" class="edge"><title>Node22&#45;&gt;Node23</title>
<path fill="none" stroke="midnightblue" d="M818.003,-65.2453C856.935,-58.5913 939.015,-43.6097 1017.06,-22.0874"/>
<polygon fill="midnightblue" stroke="midnightblue" points="1018.37,-25.3573 1027.05,-19.2902 1016.48,-18.6167 1018.37,-25.3573"/>
</g>
<!-- Node24 -->
<g id="node47" class="node"><title>Node24</title>
<polygon fill="white" stroke="#bfbfbf" points="1088.79,-0.5 1088.79,-21.5 1141.79,-21.5 1141.79,-0.5 1088.79,-0.5"/>
<text text-anchor="middle" x="1115.29" y="-8.5" font-family="FreeSans.ttf" font-size="10.00">cstdarg</text>
</g>
<!-- Node22&#45;&gt;Node24 -->
<g id="edge46" class="edge"><title>Node22&#45;&gt;Node24</title>
<path fill="none" stroke="midnightblue" d="M818.041,-66.356C865.11,-60.6524 976.681,-45.9222 1078.79,-22.1307"/>
<polygon fill="midnightblue" stroke="midnightblue" points="1079.72,-25.5087 1088.64,-19.8 1078.11,-18.6968 1079.72,-25.5087"/>
</g>
<!-- Node25 -->
<g id="node49" class="node"><title>Node25</title>
<polygon fill="white" stroke="#bfbfbf" points="522.788,-0.5 522.788,-21.5 567.788,-21.5 567.788,-0.5 522.788,-0.5"/>
<text text-anchor="middle" x="545.288" y="-8.5" font-family="FreeSans.ttf" font-size="10.00">cstdio</text>
</g>
<!-- Node22&#45;&gt;Node25 -->
<g id="edge48" class="edge"><title>Node22&#45;&gt;Node25</title>
<path fill="none" stroke="midnightblue" d="M772.727,-60.5482C769.906,-59.6236 767.044,-58.7481 764.288,-58 685.233,-36.5382 660.237,-43.6948 577.66,-22.0821"/>
<polygon fill="midnightblue" stroke="midnightblue" points="578.415,-18.661 567.85,-19.4518 576.602,-25.4222 578.415,-18.661"/>
</g>
<!-- Node26 -->
<g id="node51" class="node"><title>Node26</title>
<polygon fill="white" stroke="#bfbfbf" points="585.288,-0.5 585.288,-21.5 639.288,-21.5 639.288,-0.5 585.288,-0.5"/>
<text text-anchor="middle" x="612.288" y="-8.5" font-family="FreeSans.ttf" font-size="10.00">fstream</text>
</g>
<!-- Node22&#45;&gt;Node26 -->
<g id="edge50" class="edge"><title>Node22&#45;&gt;Node26</title>
<path fill="none" stroke="midnightblue" d="M772.639,-60.842C769.832,-59.867 766.998,-58.8994 764.288,-58 753.208,-54.3229 690.473,-35.0049 649.14,-22.3079"/>
<polygon fill="midnightblue" stroke="midnightblue" points="649.98,-18.9047 639.393,-19.3147 647.925,-25.5963 649.98,-18.9047"/>
</g>
<!-- Node27 -->
<g id="node53" class="node"><title>Node27</title>
<polygon fill="white" stroke="#bfbfbf" points="656.788,-0.5 656.788,-21.5 715.788,-21.5 715.788,-0.5 656.788,-0.5"/>
<text text-anchor="middle" x="686.288" y="-8.5" font-family="FreeSans.ttf" font-size="10.00">iostream</text>
</g>
<!-- Node22&#45;&gt;Node27 -->
<g id="edge52" class="edge"><title>Node22&#45;&gt;Node27</title>
<path fill="none" stroke="midnightblue" d="M775.549,-58.4966C758.678,-49.5194 734.18,-36.4835 715.115,-26.3387"/>
<polygon fill="midnightblue" stroke="midnightblue" points="716.721,-23.2289 706.249,-21.6212 713.433,-29.4086 716.721,-23.2289"/>
</g>
<!-- Node28 -->
<g id="node55" class="node"><title>Node28</title>
<polygon fill="white" stroke="#bfbfbf" points="733.288,-0.5 733.288,-21.5 785.288,-21.5 785.288,-0.5 733.288,-0.5"/>
<text text-anchor="middle" x="759.288" y="-8.5" font-family="FreeSans.ttf" font-size="10.00">iterator</text>
</g>
<!-- Node22&#45;&gt;Node28 -->
<g id="edge54" class="edge"><title>Node22&#45;&gt;Node28</title>
<path fill="none" stroke="midnightblue" d="M788.685,-58.3619C783.814,-50.5131 777.05,-39.6159 771.238,-30.2527"/>
<polygon fill="midnightblue" stroke="midnightblue" points="774.097,-28.2213 765.849,-21.5707 768.149,-31.9129 774.097,-28.2213"/>
</g>
<!-- Node29 -->
<g id="node57" class="node"><title>Node29</title>
<polygon fill="white" stroke="#bfbfbf" points="803.288,-0.5 803.288,-21.5 859.288,-21.5 859.288,-0.5 803.288,-0.5"/>
<text text-anchor="middle" x="831.288" y="-8.5" font-family="FreeSans.ttf" font-size="10.00">sstream</text>
</g>
<!-- Node22&#45;&gt;Node29 -->
<g id="edge56" class="edge"><title>Node22&#45;&gt;Node29</title>
<path fill="none" stroke="midnightblue" d="M801.891,-58.3619C806.763,-50.5131 813.527,-39.6159 819.338,-30.2527"/>
<polygon fill="midnightblue" stroke="midnightblue" points="822.427,-31.9129 824.727,-21.5707 816.48,-28.2213 822.427,-31.9129"/>
</g>
<!-- Node30 -->
<g id="node59" class="node"><title>Node30</title>
<polygon fill="white" stroke="#bfbfbf" points="876.788,-0.5 876.788,-21.5 929.788,-21.5 929.788,-0.5 876.788,-0.5"/>
<text text-anchor="middle" x="903.288" y="-8.5" font-family="FreeSans.ttf" font-size="10.00">dirent.h</text>
</g>
<!-- Node22&#45;&gt;Node30 -->
<g id="edge58" class="edge"><title>Node22&#45;&gt;Node30</title>
<path fill="none" stroke="midnightblue" d="M814.846,-58.4966C831.487,-49.5602 855.616,-36.602 874.469,-26.4772"/>
<polygon fill="midnightblue" stroke="midnightblue" points="876.357,-29.436 883.511,-21.6212 873.045,-23.2691 876.357,-29.436"/>
</g>
<!-- Node31 -->
<g id="node61" class="node"><title>Node31</title>
<polygon fill="white" stroke="#bfbfbf" points="946.788,-0.5 946.788,-21.5 1009.79,-21.5 1009.79,-0.5 946.788,-0.5"/>
<text text-anchor="middle" x="978.288" y="-8.5" font-family="FreeSans.ttf" font-size="10.00">sys/stat.h</text>
</g>
<!-- Node22&#45;&gt;Node31 -->
<g id="edge60" class="edge"><title>Node22&#45;&gt;Node31</title>
<path fill="none" stroke="midnightblue" d="M818.095,-61.7715C847.697,-52.3895 899.904,-35.8432 936.656,-24.195"/>
<polygon fill="midnightblue" stroke="midnightblue" points="938.105,-27.4073 946.58,-21.0495 935.99,-20.7344 938.105,-27.4073"/>
</g>
</g>
</svg>
        <g id="navigator" transform="translate(0 0)" fill="#404254">
                <rect fill="#f2f5e9" fill-opacity="0.5" stroke="#606060" stroke-width=".5" x="0" y="0" width="60" height="60"/>
                <use id="zoomplus" xlink:href="#zoomPlus" x="17" y="9" onmousedown="handleZoom(evt,'in')"/>
                <use id="zoomminus" xlink:href="#zoomMin" x="42" y="9" onmousedown="handleZoom(evt,'out')"/>
                <use id="reset" xlink:href="#resetDef" x="30" y="36" onmousedown="handleReset()"/>
                <g id="arrowUp" xlink:href="#dirArrow" transform="translate(30 24)" onmousedown="handlePan(0,-1)">
                  <use xlink:href="#rim" fill="#404040">
                        <set attributeName="fill" to="#808080" begin="arrowUp.mouseover" end="arrowUp.mouseout"/>
                  </use>
                  <path fill="none" stroke="white" stroke-width="1.5" d="M0,-3.0v7 M-2.5,-0.5L0,-3.0L2.5,-0.5"/>
                </g>
                <g id="arrowRight" xlink:href="#dirArrow" transform="rotate(90) translate(36 -43)" onmousedown="handlePan(1,0)">
                  <use xlink:href="#rim" fill="#404040">
                        <set attributeName="fill" to="#808080" begin="arrowRight.mouseover" end="arrowRight.mouseout"/>
                  </use>
                  <path fill="none" stroke="white" stroke-width="1.5" d="M0,-3.0v7 M-2.5,-0.5L0,-3.0L2.5,-0.5"/>
                </g>
                <g id="arrowDown" xlink:href="#dirArrow" transform="rotate(180) translate(-30 -48)" onmousedown="handlePan(0,1)">
                  <use xlink:href="#rim" fill="#404040">
                        <set attributeName="fill" to="#808080" begin="arrowDown.mouseover" end="arrowDown.mouseout"/>
                  </use>
                  <path fill="none" stroke="white" stroke-width="1.5" d="M0,-3.0v7 M-2.5,-0.5L0,-3.0L2.5,-0.5"/>
                </g>
                <g id="arrowLeft" xlink:href="#dirArrow" transform="rotate(270) translate(-36 17)" onmousedown="handlePan(-1,0)">
                  <use xlink:href="#rim" fill="#404040">
                        <set attributeName="fill" to="#808080" begin="arrowLeft.mouseover" end="arrowLeft.mouseout"/>
                  </use>
                  <path fill="none" stroke="white" stroke-width="1.5" d="M0,-3.0v7 M-2.5,-0.5L0,-3.0L2.5,-0.5"/>
                </g>
        </g>
</svg>
