<?xml version="1.0" encoding="UTF-8" standalone="no"?>
<!DOCTYPE svg PUBLIC "-//W3C//DTD SVG 1.1//EN"
 "http://www.w3.org/Graphics/SVG/1.1/DTD/svg11.dtd">
<!-- Generated by graphviz version 2.26.3 (20100126.1600)
 -->
<!-- Title: G Pages: 1 -->
<!--zoomable 204 -->
<svg id="main" version="1.1" xmlns="http://www.w3.org/2000/svg" xmlns:xlink="http://www.w3.org/1999/xlink" xml:space="preserve" onload="init(evt)">
        <defs>
                <circle id="rim" cx="0" cy="0" r="7"/>
                <circle id="rim2" cx="0" cy="0" r="3.5"/>
                <g id="zoomPlus">
                        <use xlink:href="#rim" fill="#404040">
                                <set attributeName="fill" to="#808080" begin="zoomplus.mouseover" end="zoomplus.mouseout"/>
                        </use>
                        <path d="M-4,0h8M0,-4v8" fill="none" stroke="white" stroke-width="1.5" pointer-events="none"/>
                </g>
                <g id="zoomMin">
                        <use xlink:href="#rim" fill="#404040">
                                <set attributeName="fill" to="#808080" begin="zoomminus.mouseover" end="zoomminus.mouseout"/>
                        </use>
                        <path d="M-4,0h8" fill="none" stroke="white" stroke-width="1.5" pointer-events="none"/>
                </g>
                <g id="dirArrow">
                        <path fill="none" stroke="white" stroke-width="1.5" d="M0,-3.0v7 M-2.5,-0.5L0,-3.0L2.5,-0.5"/>
                </g>
               <g id="resetDef">
                       <use xlink:href="#rim2" fill="#404040">
                               <set attributeName="fill" to="#808080" begin="reset.mouseover" end="reset.mouseout"/>
                       </use>
               </g>
        </defs>

<script type="text/javascript">
var viewWidth = 1318;
var viewHeight = 204;
var sectionId = 'dynsection-1';
</script>
<script xlink:href="svgpan.js"/>
<svg id="graph" class="graph">
<g id="viewport">
<title>G</title>
<polygon fill="white" stroke="white" points="-4,5 -4,-200 1315,-200 1315,5 -4,5"/>
<!-- Node1 -->
<g id="node1" class="node"><title>Node1</title>
<polygon fill="#bfbfbf" stroke="black" points="1048,-174.5 1048,-195.5 1102,-195.5 1102,-174.5 1048,-174.5"/>
<text text-anchor="middle" x="1075" y="-182.5" font-family="FreeSans.ttf" font-size="10.00">h/utils.h</text>
</g>
<!-- Node2 -->
<g id="node3" class="node"><title>Node2</title>
<a xlink:href="namespace_8h.xhtml" target="_top" xlink:title="All namespace includes.">
<polygon fill="white" stroke="black" points="922.5,-116.5 922.5,-137.5 1013.5,-137.5 1013.5,-116.5 922.5,-116.5"/>
<text text-anchor="middle" x="968" y="-124.5" font-family="FreeSans.ttf" font-size="10.00">h/namespace.h</text>
</a>
</g>
<!-- Node1&#45;&gt;Node2 -->
<g id="edge2" class="edge"><title>Node1&#45;&gt;Node2</title>
<path fill="none" stroke="midnightblue" d="M1046.44,-169.517C1027.81,-159.419 1003.98,-146.503 987.501,-137.571"/>
<polygon fill="midnightblue" stroke="midnightblue" points="1044.92,-172.673 1055.37,-174.362 1048.25,-166.519 1044.92,-172.673"/>
</g>
<!-- Node18 -->
<g id="node35" class="node"><title>Node18</title>
<a xlink:href="utils_8cpp.xhtml" target="_top" xlink:title="All non&#45;template member functions of the Utils namespace.">
<polygon fill="white" stroke="black" points="1254,-0.5 1254,-21.5 1310,-21.5 1310,-0.5 1254,-0.5"/>
<text text-anchor="middle" x="1282" y="-8.5" font-family="FreeSans.ttf" font-size="10.00">utils.cpp</text>
</a>
</g>
<!-- Node1&#45;&gt;Node18 -->
<g id="edge36" class="edge"><title>Node1&#45;&gt;Node18</title>
<path fill="none" stroke="midnightblue" d="M1095.36,-167.886C1137.77,-132.24 1234.5,-50.9245 1269.27,-21.7046"/>
<polygon fill="midnightblue" stroke="midnightblue" points="1093.04,-165.264 1087.64,-174.377 1097.54,-170.622 1093.04,-165.264"/>
</g>
<!-- Node3 -->
<g id="node5" class="node"><title>Node3</title>
<a xlink:href="includes_8h.xhtml" target="_top" xlink:title="All non&#45;system includes that need to be within each .cpp file.">
<polygon fill="white" stroke="black" points="650,-58.5 650,-79.5 724,-79.5 724,-58.5 650,-58.5"/>
<text text-anchor="middle" x="687" y="-66.5" font-family="FreeSans.ttf" font-size="10.00">h/includes.h</text>
</a>
</g>
<!-- Node2&#45;&gt;Node3 -->
<g id="edge4" class="edge"><title>Node2&#45;&gt;Node3</title>
<path fill="none" stroke="midnightblue" d="M912.162,-115.475C856.408,-103.967 772.292,-86.6047 724.216,-76.6816"/>
<polygon fill="midnightblue" stroke="midnightblue" points="911.726,-118.958 922.227,-117.552 913.141,-112.103 911.726,-118.958"/>
</g>
<!-- Node4 -->
<g id="node7" class="node"><title>Node4</title>
<a xlink:href="account_8cpp.xhtml" target="_top" xlink:title="All non&#45;template member functions of the Account class.">
<polygon fill="white" stroke="black" points="-0.5,-0.5 -0.5,-21.5 74.5,-21.5 74.5,-0.5 -0.5,-0.5"/>
<text text-anchor="middle" x="37" y="-8.5" font-family="FreeSans.ttf" font-size="10.00">account.cpp</text>
</a>
</g>
<!-- Node3&#45;&gt;Node4 -->
<g id="edge6" class="edge"><title>Node3&#45;&gt;Node4</title>
<path fill="none" stroke="midnightblue" d="M639.706,-67.8438C537.515,-64.7939 288.71,-54.3938 83,-22 80.2422,-21.5657 77.4055,-21.0528 74.5595,-20.4897"/>
<polygon fill="midnightblue" stroke="midnightblue" points="639.899,-71.3507 649.996,-68.1406 640.101,-64.3537 639.899,-71.3507"/>
</g>
<!-- Node5 -->
<g id="node9" class="node"><title>Node5</title>
<a xlink:href="character_8cpp.xhtml" target="_top" xlink:title="All non&#45;template member functions of the Character class.">
<polygon fill="white" stroke="black" points="92,-0.5 92,-21.5 174,-21.5 174,-0.5 92,-0.5"/>
<text text-anchor="middle" x="133" y="-8.5" font-family="FreeSans.ttf" font-size="10.00">character.cpp</text>
</a>
</g>
<!-- Node3&#45;&gt;Node5 -->
<g id="edge8" class="edge"><title>Node3&#45;&gt;Node5</title>
<path fill="none" stroke="midnightblue" d="M639.708,-66.5444C550.153,-61.4622 349.836,-48.0289 183,-22 180.102,-21.5479 177.12,-21.0295 174.125,-20.4695"/>
<polygon fill="midnightblue" stroke="midnightblue" points="639.636,-70.0457 649.815,-67.109 640.026,-63.0566 639.636,-70.0457"/>
</g>
<!-- Node6 -->
<g id="node11" class="node"><title>Node6</title>
<a xlink:href="command_8cpp.xhtml" target="_top" xlink:title="All non&#45;template member functions of the Command class.">
<polygon fill="white" stroke="black" points="192,-0.5 192,-21.5 278,-21.5 278,-0.5 192,-0.5"/>
<text text-anchor="middle" x="235" y="-8.5" font-family="FreeSans.ttf" font-size="10.00">command.cpp</text>
</a>
</g>
<!-- Node3&#45;&gt;Node6 -->
<g id="edge10" class="edge"><title>Node3&#45;&gt;Node6</title>
<path fill="none" stroke="midnightblue" d="M639.823,-64.8673C564.812,-57.9796 413.856,-42.8254 287,-22 284.086,-21.5217 281.088,-20.991 278.073,-20.4286"/>
<polygon fill="midnightblue" stroke="midnightblue" points="639.617,-68.3629 649.893,-65.784 640.252,-61.3917 639.617,-68.3629"/>
</g>
<!-- Node7 -->
<g id="node13" class="node"><title>Node7</title>
<a xlink:href="event_8cpp.xhtml" target="_top" xlink:title="All non&#45;template member functions of the Event class.">
<polygon fill="white" stroke="black" points="296,-0.5 296,-21.5 360,-21.5 360,-0.5 296,-0.5"/>
<text text-anchor="middle" x="328" y="-8.5" font-family="FreeSans.ttf" font-size="10.00">event.cpp</text>
</a>
</g>
<!-- Node3&#45;&gt;Node7 -->
<g id="edge12" class="edge"><title>Node3&#45;&gt;Node7</title>
<path fill="none" stroke="midnightblue" d="M639.607,-63.7279C577.206,-56.3915 464.246,-41.7469 369,-22 366.113,-21.4016 363.128,-20.7216 360.145,-20.0001"/>
<polygon fill="midnightblue" stroke="midnightblue" points="639.209,-67.2051 649.547,-64.8848 640.019,-60.2521 639.209,-67.2051"/>
</g>
<!-- Node8 -->
<g id="node15" class="node"><title>Node8</title>
<a xlink:href="handler_8cpp.xhtml" target="_top" xlink:title="All non&#45;template member functions of the Handler namespace.">
<polygon fill="white" stroke="black" points="378,-0.5 378,-21.5 450,-21.5 450,-0.5 378,-0.5"/>
<text text-anchor="middle" x="414" y="-8.5" font-family="FreeSans.ttf" font-size="10.00">handler.cpp</text>
</a>
</g>
<!-- Node3&#45;&gt;Node8 -->
<g id="edge14" class="edge"><title>Node3&#45;&gt;Node8</title>
<path fill="none" stroke="midnightblue" d="M639.773,-59.7867C593.588,-50.6536 521.315,-36.0342 459,-22 456.175,-21.3639 453.255,-20.6891 450.323,-19.9992"/>
<polygon fill="midnightblue" stroke="midnightblue" points="639.3,-63.2608 649.789,-61.7621 640.655,-56.3931 639.3,-63.2608"/>
</g>
<!-- Node9 -->
<g id="node17" class="node"><title>Node9</title>
<a xlink:href="list_8cpp.xhtml" target="_top" xlink:title="All globally referenced list / map / vector types.">
<polygon fill="white" stroke="black" points="468,-0.5 468,-21.5 518,-21.5 518,-0.5 468,-0.5"/>
<text text-anchor="middle" x="493" y="-8.5" font-family="FreeSans.ttf" font-size="10.00">list.cpp</text>
</a>
</g>
<!-- Node3&#45;&gt;Node9 -->
<g id="edge16" class="edge"><title>Node3&#45;&gt;Node9</title>
<path fill="none" stroke="midnightblue" d="M640.101,-55.5872C608.156,-46.3621 564.943,-33.7084 527,-22 524.154,-21.1219 521.181,-20.1864 518.227,-19.2459"/>
<polygon fill="midnightblue" stroke="midnightblue" points="639.478,-59.0499 650.056,-58.4564 641.416,-52.3237 639.478,-59.0499"/>
</g>
<!-- Node10 -->
<g id="node19" class="node"><title>Node10</title>
<a xlink:href="main_8cpp.xhtml" target="_top" xlink:title="Initial server entry point.">
<polygon fill="white" stroke="black" points="535.5,-0.5 535.5,-21.5 596.5,-21.5 596.5,-0.5 535.5,-0.5"/>
<text text-anchor="middle" x="566" y="-8.5" font-family="FreeSans.ttf" font-size="10.00">main.cpp</text>
</a>
</g>
<!-- Node3&#45;&gt;Node10 -->
<g id="edge18" class="edge"><title>Node3&#45;&gt;Node10</title>
<path fill="none" stroke="midnightblue" d="M655.851,-54.0693C634.661,-43.9121 607.131,-30.7157 588.158,-21.6212"/>
<polygon fill="midnightblue" stroke="midnightblue" points="654.557,-57.3303 665.088,-58.4966 657.583,-51.018 654.557,-57.3303"/>
</g>
<!-- Node11 -->
<g id="node21" class="node"><title>Node11</title>
<a xlink:href="plugin_8cpp.xhtml" target="_top" xlink:title="All non&#45;template member functions of the Plugin class.">
<polygon fill="white" stroke="black" points="613.5,-0.5 613.5,-21.5 678.5,-21.5 678.5,-0.5 613.5,-0.5"/>
<text text-anchor="middle" x="646" y="-8.5" font-family="FreeSans.ttf" font-size="10.00">plugin.cpp</text>
</a>
</g>
<!-- Node3&#45;&gt;Node11 -->
<g id="edge20" class="edge"><title>Node3&#45;&gt;Node11</title>
<path fill="none" stroke="midnightblue" d="M673.54,-49.9591C666.869,-40.522 659.066,-29.4835 653.472,-21.5707"/>
<polygon fill="midnightblue" stroke="midnightblue" points="670.85,-52.2165 679.48,-58.3619 676.566,-48.1758 670.85,-52.2165"/>
</g>
<!-- Node12 -->
<g id="node23" class="node"><title>Node12</title>
<a xlink:href="server_8cpp.xhtml" target="_top" xlink:title="All non&#45;template member functions of the Server class.">
<polygon fill="white" stroke="black" points="696,-0.5 696,-21.5 762,-21.5 762,-0.5 696,-0.5"/>
<text text-anchor="middle" x="729" y="-8.5" font-family="FreeSans.ttf" font-size="10.00">server.cpp</text>
</a>
</g>
<!-- Node3&#45;&gt;Node12 -->
<g id="edge22" class="edge"><title>Node3&#45;&gt;Node12</title>
<path fill="none" stroke="midnightblue" d="M700.577,-50.2504C707.457,-40.75 715.556,-29.5651 721.345,-21.5707"/>
<polygon fill="midnightblue" stroke="midnightblue" points="697.734,-48.2097 694.703,-58.3619 703.403,-52.3153 697.734,-48.2097"/>
</g>
<!-- Node13 -->
<g id="node25" class="node"><title>Node13</title>
<a xlink:href="socket_8cpp.xhtml" target="_top" xlink:title="All non&#45;template member functions of the Socket class.">
<polygon fill="white" stroke="black" points="780,-0.5 780,-21.5 848,-21.5 848,-0.5 780,-0.5"/>
<text text-anchor="middle" x="814" y="-8.5" font-family="FreeSans.ttf" font-size="10.00">socket.cpp</text>
</a>
</g>
<!-- Node3&#45;&gt;Node13 -->
<g id="edge24" class="edge"><title>Node3&#45;&gt;Node13</title>
<path fill="none" stroke="midnightblue" d="M719.393,-54.2064C741.673,-44.031 770.74,-30.7567 790.743,-21.6212"/>
<polygon fill="midnightblue" stroke="midnightblue" points="717.641,-51.1587 709.999,-58.4966 720.549,-57.5261 717.641,-51.1587"/>
</g>
<!-- Node14 -->
<g id="node27" class="node"><title>Node14</title>
<a xlink:href="socketclient_8cpp.xhtml" target="_top" xlink:title="All non&#45;template member functions of the SocketClient class.">
<polygon fill="white" stroke="black" points="866,-0.5 866,-21.5 960,-21.5 960,-0.5 866,-0.5"/>
<text text-anchor="middle" x="913" y="-8.5" font-family="FreeSans.ttf" font-size="10.00">socketclient.cpp</text>
</a>
</g>
<!-- Node3&#45;&gt;Node14 -->
<g id="edge26" class="edge"><title>Node3&#45;&gt;Node14</title>
<path fill="none" stroke="midnightblue" d="M733.998,-56.9385C774.639,-46.5087 832.816,-31.5782 871.698,-21.5996"/>
<polygon fill="midnightblue" stroke="midnightblue" points="732.882,-53.6114 724.066,-59.4874 734.622,-60.3917 732.882,-53.6114"/>
</g>
<!-- Node15 -->
<g id="node29" class="node"><title>Node15</title>
<a xlink:href="socketserver_8cpp.xhtml" target="_top" xlink:title="All non&#45;template member functions of the SocketServer class.">
<polygon fill="white" stroke="black" points="978,-0.5 978,-21.5 1076,-21.5 1076,-0.5 978,-0.5"/>
<text text-anchor="middle" x="1027" y="-8.5" font-family="FreeSans.ttf" font-size="10.00">socketserver.cpp</text>
</a>
</g>
<!-- Node3&#45;&gt;Node15 -->
<g id="edge28" class="edge"><title>Node3&#45;&gt;Node15</title>
<path fill="none" stroke="midnightblue" d="M734.445,-61.4235C790.531,-52.3905 886.658,-36.6683 969,-22 971.926,-21.4787 974.934,-20.9344 977.966,-20.379"/>
<polygon fill="midnightblue" stroke="midnightblue" points="733.768,-57.9873 724.45,-63.0306 734.879,-64.8985 733.768,-57.9873"/>
</g>
<!-- Node16 -->
<g id="node31" class="node"><title>Node16</title>
<a xlink:href="telopt_8cpp.xhtml" target="_top" xlink:title="All non&#45;template member functions of the Telopt namespace.">
<polygon fill="white" stroke="black" points="1093.5,-0.5 1093.5,-21.5 1158.5,-21.5 1158.5,-0.5 1093.5,-0.5"/>
<text text-anchor="middle" x="1126" y="-8.5" font-family="FreeSans.ttf" font-size="10.00">telopt.cpp</text>
</a>
</g>
<!-- Node3&#45;&gt;Node16 -->
<g id="edge30" class="edge"><title>Node3&#45;&gt;Node16</title>
<path fill="none" stroke="midnightblue" d="M734.084,-65.6566C808.915,-59.8467 959.378,-46.1378 1085,-22 1087.75,-21.4716 1090.59,-20.8576 1093.42,-20.1952"/>
<polygon fill="midnightblue" stroke="midnightblue" points="733.741,-62.1724 724.037,-66.4242 734.275,-69.1521 733.741,-62.1724"/>
</g>
<!-- Node17 -->
<g id="node33" class="node"><title>Node17</title>
<a xlink:href="thing_8cpp.xhtml" target="_top" xlink:title="All non&#45;template member functions of the Thing class.">
<polygon fill="white" stroke="black" points="1175.5,-0.5 1175.5,-21.5 1236.5,-21.5 1236.5,-0.5 1175.5,-0.5"/>
<text text-anchor="middle" x="1206" y="-8.5" font-family="FreeSans.ttf" font-size="10.00">thing.cpp</text>
</a>
</g>
<!-- Node3&#45;&gt;Node17 -->
<g id="edge32" class="edge"><title>Node3&#45;&gt;Node17</title>
<path fill="none" stroke="midnightblue" d="M734.069,-67.1606C820.501,-63.1713 1010.05,-51.5765 1167,-22 1169.77,-21.4789 1172.62,-20.8521 1175.46,-20.1653"/>
<polygon fill="midnightblue" stroke="midnightblue" points="733.882,-63.6654 724.049,-67.6101 734.196,-70.6584 733.882,-63.6654"/>
</g>
<!-- Node3&#45;&gt;Node18 -->
<g id="edge34" class="edge"><title>Node3&#45;&gt;Node18</title>
<path fill="none" stroke="midnightblue" d="M734.29,-68.2747C831.018,-66.0785 1058.12,-57.2639 1245,-22 1247.9,-21.4532 1250.89,-20.7695 1253.86,-20.012"/>
<polygon fill="midnightblue" stroke="midnightblue" points="734.167,-64.7765 724.244,-68.4894 734.317,-71.7749 734.167,-64.7765"/>
</g>
</g>
</svg>
        <g id="navigator" transform="translate(0 0)" fill="#404254">
                <rect fill="#f2f5e9" fill-opacity="0.5" stroke="#606060" stroke-width=".5" x="0" y="0" width="60" height="60"/>
                <use id="zoomplus" xlink:href="#zoomPlus" x="17" y="9" onmousedown="handleZoom(evt,'in')"/>
                <use id="zoomminus" xlink:href="#zoomMin" x="42" y="9" onmousedown="handleZoom(evt,'out')"/>
                <use id="reset" xlink:href="#resetDef" x="30" y="36" onmousedown="handleReset()"/>
                <g id="arrowUp" xlink:href="#dirArrow" transform="translate(30 24)" onmousedown="handlePan(0,-1)">
                  <use xlink:href="#rim" fill="#404040">
                        <set attributeName="fill" to="#808080" begin="arrowUp.mouseover" end="arrowUp.mouseout"/>
                  </use>
                  <path fill="none" stroke="white" stroke-width="1.5" d="M0,-3.0v7 M-2.5,-0.5L0,-3.0L2.5,-0.5"/>
                </g>
                <g id="arrowRight" xlink:href="#dirArrow" transform="rotate(90) translate(36 -43)" onmousedown="handlePan(1,0)">
                  <use xlink:href="#rim" fill="#404040">
                        <set attributeName="fill" to="#808080" begin="arrowRight.mouseover" end="arrowRight.mouseout"/>
                  </use>
                  <path fill="none" stroke="white" stroke-width="1.5" d="M0,-3.0v7 M-2.5,-0.5L0,-3.0L2.5,-0.5"/>
                </g>
                <g id="arrowDown" xlink:href="#dirArrow" transform="rotate(180) translate(-30 -48)" onmousedown="handlePan(0,1)">
                  <use xlink:href="#rim" fill="#404040">
                        <set attributeName="fill" to="#808080" begin="arrowDown.mouseover" end="arrowDown.mouseout"/>
                  </use>
                  <path fill="none" stroke="white" stroke-width="1.5" d="M0,-3.0v7 M-2.5,-0.5L0,-3.0L2.5,-0.5"/>
                </g>
                <g id="arrowLeft" xlink:href="#dirArrow" transform="rotate(270) translate(-36 17)" onmousedown="handlePan(-1,0)">
                  <use xlink:href="#rim" fill="#404040">
                        <set attributeName="fill" to="#808080" begin="arrowLeft.mouseover" end="arrowLeft.mouseout"/>
                  </use>
                  <path fill="none" stroke="white" stroke-width="1.5" d="M0,-3.0v7 M-2.5,-0.5L0,-3.0L2.5,-0.5"/>
                </g>
        </g>
</svg>
